<?xml version="1.0" encoding="utf-8"?>
<!-- Generator: Adobe Illustrator 25.3.1, SVG Export Plug-In . SVG Version: 6.00 Build 0)  -->
<svg version="1.1" id="레이어_1" xmlns="http://www.w3.org/2000/svg" xmlns:xlink="http://www.w3.org/1999/xlink" x="0px"
	 y="0px" viewBox="0 0 106 20" style="enable-background:new 0 0 106 20;" xml:space="preserve">
<style type="text/css">
	.st0{fill-rule:evenodd;clip-rule:evenodd;fill:#4F4F4F;}
	.st1{fill:#F25022;}
	.st2{fill:#FFB902;}
	.st3{fill:#80BA01;}
	.st4{fill:#19A0E5;}
</style>
<g>
	<path class="st0" d="M41.1,0h2.4l-4.8,16h-2.1L33.6,4.1L30.7,16h-2.1L23.8,0h2.4l3.5,12.3L32.8,0h1.7l3.1,12.3L41.1,0z M46.6,16
		h-2.2V0h2.2v5.3c0.4-0.5,0.8-0.9,1.4-1.2c0.6-0.3,1.2-0.4,2-0.4c1.5,0,2.6,0.5,3.4,1.4s1.2,2.3,1.2,3.9V16h-2.2V9.8
		c0-1.3-0.2-2.3-0.7-3c-0.5-0.7-1.1-1-2.1-1c-0.6,0-1.1,0.1-1.5,0.4c-0.4,0.3-0.8,0.6-1.1,1.1c-0.2,0.3-0.3,0.7-0.3,1.1
		c-0.1,0.4-0.1,1.1-0.1,2.1L46.6,16z M66.8,16v-1.5c-0.6,0.6-1.2,1-1.9,1.3c-0.7,0.3-1.4,0.4-2.2,0.4c-1.8,0-3.3-0.6-4.5-1.8
		c-1.2-1.2-1.8-2.7-1.8-4.6c0-0.9,0.2-1.7,0.5-2.4c0.3-0.8,0.7-1.4,1.3-2c0.6-0.6,1.3-1.1,2-1.4c0.7-0.3,1.5-0.5,2.5-0.5
		c0.8,0,1.6,0.1,2.3,0.4s1.3,0.7,1.9,1.3V3.9H69V16H66.8z M58.7,9.9c0,1.2,0.4,2.2,1.2,3.1c0.8,0.8,1.8,1.2,3,1.2
		c1.1,0,2-0.4,2.8-1.2c0.8-0.8,1.2-1.8,1.2-2.9c0-1.2-0.4-2.2-1.2-3c-0.8-0.8-1.8-1.3-2.9-1.3c-1.1,0-2.1,0.4-2.9,1.2
		C59.1,7.7,58.7,8.7,58.7,9.9z M74.9,16h-2.3V2.2h-4.1V0h10.5v2.2h-4.1V16z M87.9,16v-1.5c-0.6,0.6-1.2,1-1.9,1.3
		c-0.7,0.3-1.4,0.4-2.2,0.4c-1.8,0-3.3-0.6-4.5-1.8c-1.2-1.2-1.8-2.7-1.8-4.6c0-0.9,0.2-1.7,0.5-2.4c0.3-0.8,0.7-1.4,1.3-2
		c0.6-0.6,1.3-1.1,2-1.4c0.7-0.3,1.5-0.5,2.5-0.5c0.8,0,1.6,0.1,2.3,0.4c0.7,0.3,1.3,0.7,1.9,1.3V3.9h2.2V16H87.9z M79.8,9.9
		c0,1.2,0.4,2.2,1.2,3.1c0.8,0.8,1.8,1.2,3,1.2c1.1,0,2-0.4,2.8-1.2c0.8-0.8,1.2-1.8,1.2-2.9c0-1.2-0.4-2.2-1.2-3
		C86,6.1,85.1,5.7,84,5.7c-1.1,0-2.1,0.4-2.9,1.2C80.2,7.7,79.8,8.7,79.8,9.9z M94.8,14.5v5.4h-2.2v-16h2.2v1.5
		c0.6-0.6,1.2-1,1.9-1.3c0.7-0.3,1.4-0.4,2.2-0.4c1.8,0,3.3,0.6,4.5,1.8c1.2,1.2,1.8,2.7,1.8,4.5c0,0.8-0.2,1.6-0.5,2.4
		c-0.3,0.8-0.7,1.4-1.3,2c-0.6,0.6-1.3,1.1-2,1.4c-0.7,0.3-1.5,0.5-2.5,0.5c-0.8,0-1.6-0.1-2.3-0.4C96,15.6,95.4,15.1,94.8,14.5z
		 M94.7,9.9c0,1.2,0.4,2.2,1.2,3.1c0.8,0.8,1.8,1.3,2.9,1.3c1.1,0,2.1-0.4,2.9-1.2c0.8-0.8,1.2-1.8,1.2-3c0-1.2-0.4-2.2-1.2-3.1
		c-0.8-0.8-1.8-1.2-3-1.2c-1.1,0-2,0.4-2.8,1.2C95.1,7.8,94.7,8.8,94.7,9.9z"/>
	<g>
		<path class="st1" d="M0,11h2.4v5H0V11z"/>
		<path class="st2" d="M4.4,5.6h2.4V16H4.4V5.6z"/>
		<path class="st3" d="M8.8,0h2.4v16H8.8L8.8,0z"/>
		<path class="st4" d="M15.6,0h3.6v2.4h-3.6V16h-2.4V0H15.6z"/>
	</g>
</g>
</svg>
