<?xml version="1.0" encoding="utf-8"?>
<!-- Generator: Adobe Illustrator 26.3.1, SVG Export Plug-In . SVG Version: 6.00 Build 0)  -->
<svg version="1.1" id="_이어_1" xmlns="http://www.w3.org/2000/svg" xmlns:xlink="http://www.w3.org/1999/xlink" x="0px" y="0px"
	 viewBox="0 0 11.9 11.7" style="enable-background:new 0 0 11.9 11.7;" xml:space="preserve">
<style type="text/css">
	.st0{fill:#E94419;}
	.st1{fill:#FFFFFF;}
</style>
<g>
	<circle class="st0" cx="5.9" cy="5.9" r="4.4"/>
	<path class="st1" d="M8.6,5c0-0.4-0.4-0.7-0.8-0.7L7.2,4.4C7.1,4.4,7,4.4,7,4.5v2.4c0,0.1,0,0.1,0.1,0.1h0L7.8,7
		c0.4,0,0.8-0.4,0.8-0.8c0-0.2-0.1-0.4-0.3-0.5C8.5,5.4,8.6,5.2,8.6,5"/>
	<path class="st1" d="M4.6,4.4L3.9,4.3C3.5,4.3,3.1,4.6,3.1,5c0,0.2,0.1,0.4,0.3,0.6C3.2,5.7,3.1,5.9,3.1,6.1c0,0.4,0.4,0.8,0.8,0.8
		l0.7,0.1c0.1,0,0.1,0,0.1-0.1V4.5C4.7,4.4,4.6,4.4,4.6,4.4"/>
	<path class="st1" d="M5.9,5H5.2C5.1,5,5.1,5.1,5.1,5.2l0,0V7c0,0.1,0.1,0.1,0.1,0.1h0.7c0,0.1-0.2,0.2-0.6,0.3H5.2
		c0,0-0.1,0-0.1,0.1v0c0,0.1,0.1,0.1,0.1,0.1h0.7c0.4,0,0.8-0.3,0.8-0.8V5.8C6.7,5.4,6.3,5,5.9,5"/>
</g>
</svg>
