<?xml version="1.0" encoding="UTF-8"?><svg id="_이어_1" xmlns="http://www.w3.org/2000/svg" xmlns:xlink="http://www.w3.org/1999/xlink" viewBox="0 0 17.82 21.11"><defs><style>.cls-1{mask:url(#mask);}.cls-2{fill:#3c6aa9;}.cls-2,.cls-3,.cls-4{fill-rule:evenodd;}.cls-3{fill:#3c5a9f;}.cls-4{fill:#fff;}</style><mask id="mask" y="1.11" width="17.13" height="20" maskUnits="userSpaceOnUse"><g id="mask-2"><polygon id="path-1" class="cls-4" points="0 1.11 17.13 1.11 17.13 21.11 0 21.11 0 1.11"/></g></mask></defs><g id="Fill-4"><path class="cls-3" d="M9.68,5.65l3.69,2.13c.3,.17,.48,.49,.48,.84v4.19c0,.12,.07,.24,.17,.3l3.53,2.01c.11,.07,.26-.02,.26-.15V6.12c0-.21-.11-.41-.3-.52L9.78,1.13c-.12-.07-.27,.02-.27,.15V5.35c0,.12,.06,.23,.17,.29"/></g><g class="cls-1"><g id="Fill-1"><path class="cls-2" d="M13.14,14.18l-3.75,2.17c-.3,.17-.67,.17-.97,0l-3.98-2.3c-.3-.17-.48-.49-.48-.84v-4.6c0-.34,.18-.66,.48-.84l3.69-2.13c.11-.06,.17-.17,.17-.29V1.28c0-.14-.15-.22-.27-.15L.3,5.6c-.18,.11-.3,.3-.3,.52V15.71c0,.21,.11,.41,.3,.52l8.31,4.8c.18,.11,.41,.11,.6,0l7.84-4.52c.11-.07,.11-.23,0-.3l-3.56-2.03c-.11-.06-.23-.06-.34,0"/></g></g><g id="Fill-6"><polygon class="cls-3" points="11.53 13.78 10.42 13.78 7.89 10.95 7.89 13.78 7.06 13.78 7.06 8.02 7.87 8.02 7.87 10.26 10.14 8.02 11.34 8.02 8.75 10.7 11.53 13.78"/></g></svg>