<?xml version="1.0" encoding="utf-8"?>
<!-- Generator: Adobe Illustrator 26.3.1, SVG Export Plug-In . SVG Version: 6.00 Build 0)  -->
<svg version="1.1" id="_이어_1" xmlns="http://www.w3.org/2000/svg" xmlns:xlink="http://www.w3.org/1999/xlink" x="0px" y="0px"
	 viewBox="0 0 23.8 20" style="enable-background:new 0 0 23.8 20;" xml:space="preserve">
<style type="text/css">
	.st0{fill-rule:evenodd;clip-rule:evenodd;fill:#8A659A;}
	.st1{fill-rule:evenodd;clip-rule:evenodd;fill:#794B8B;}
</style>
<g>
	<g id="Fill-1">
		<polygon class="st0" points="7.4,1.3 7.4,7.1 10.9,5.7 10.9,2.6 		"/>
	</g>
	<g id="Fill-2">
		<path class="st1" d="M6.4,6.5L5.7,6.2v-4L6.4,2C6.4,2,6.4,6.5,6.4,6.5z M5.4,6.2L4.9,6V2.5l0.5-0.2V6.2L5.4,6.2z M4.6,5.9L4.2,5.8
			V2.7l0.4-0.1V5.9L4.6,5.9z M4.1,2.3v3.8l2.7,0.9V1.4C6.8,1.4,4.1,2.3,4.1,2.3z"/>
	</g>
	<g id="Fill-3">
		<polygon class="st0" points="15.7,1.3 15.7,7.1 19.3,5.7 19.3,2.6 		"/>
	</g>
	<g id="Fill-4">
		<path class="st1" d="M14.8,6.5l-0.7-0.2v-4L14.8,2V6.5z M13.8,6.2L13.3,6V2.5l0.5-0.2V6.2L13.8,6.2z M13,5.9l-0.4-0.1V2.7L13,2.5
			V5.9L13,5.9z M12.5,2.3v3.8l2.7,0.9V1.4C15.1,1.4,12.5,2.3,12.5,2.3z"/>
	</g>
	<g id="Fill-5">
		<polygon class="st0" points="7.4,18.7 10.9,17.3 10.9,14.1 7.4,12.9 		"/>
	</g>
	<g id="Fill-6">
		<path class="st1" d="M4.1,13.8v3.8l2.7,0.9v-5.7L4.1,13.8L4.1,13.8z M5.7,17.8v-4l0.7-0.2V18L5.7,17.8L5.7,17.8z M4.9,17.5V14
			l0.5-0.2v3.9L4.9,17.5z M4.2,17.3v-3.1l0.4-0.1v3.4C4.6,17.5,4.2,17.3,4.2,17.3z"/>
	</g>
	<g id="Fill-7">
		<polygon class="st0" points="15.7,18.7 19.3,17.3 19.3,14.1 15.7,12.9 		"/>
	</g>
	<g id="Fill-8">
		<path class="st1" d="M12.5,13.8v3.8l2.7,0.9v-5.7L12.5,13.8L12.5,13.8z M14.1,17.8v-4l0.7-0.2V18L14.1,17.8L14.1,17.8z M13.3,17.5
			V14l0.5-0.2v3.9L13.3,17.5z M12.6,17.3v-3.1l0.4-0.1v3.4C13,17.5,12.6,17.3,12.6,17.3z"/>
	</g>
	<g id="Fill-9">
		<polygon class="st0" points="15.4,8.3 11.8,7.1 11.8,12.9 15.4,11.5 		"/>
	</g>
	<g id="Fill-10">
		<path class="st1" d="M10.9,12.2L10.2,12V8l0.7-0.2V12.2L10.9,12.2z M9.9,11.9l-0.5-0.2V8.2L9.9,8V11.9z M9.1,11.7l-0.4-0.1V8.4
			l0.4-0.1V11.7z M8.6,8v3.8l2.7,0.9V7.1L8.6,8L8.6,8z"/>
	</g>
	<g id="Fill-11">
		<polygon class="st0" points="7.1,8.3 3.5,7.1 3.5,12.9 7.1,11.5 		"/>
	</g>
	<g id="Fill-12">
		<path class="st1" d="M0.2,8v3.8l2.7,0.9V7.1L0.2,8L0.2,8z M1.8,12V8l0.7-0.2v4.4L1.8,12L1.8,12z M1,11.7V8.2L1.6,8v3.9L1,11.7z
			 M0.4,11.5V8.4l0.4-0.1v3.4L0.4,11.5z"/>
	</g>
	<g id="Fill-13">
		<polygon class="st0" points="20,12.9 23.6,11.5 23.6,8.3 20,7.1 		"/>
	</g>
	<g id="Fill-14">
		<path class="st1" d="M19.1,12.2L18.4,12V8l0.7-0.2V12.2L19.1,12.2z M18.1,11.9l-0.5-0.2V8.2L18.1,8V11.9z M17.3,11.7l-0.4-0.1V8.4
			l0.4-0.1V11.7z M16.8,8v3.8l2.7,0.9V7.1L16.8,8L16.8,8z"/>
	</g>
</g>
</svg>
