<?xml version="1.0" encoding="utf-8"?>
<!-- Generator: Adobe Illustrator 26.3.1, SVG Export Plug-In . SVG Version: 6.00 Build 0)  -->
<svg version="1.1" id="_이어_1" xmlns="http://www.w3.org/2000/svg" xmlns:xlink="http://www.w3.org/1999/xlink" x="0px" y="0px"
	 viewBox="0 0 28.1 20" style="enable-background:new 0 0 28.1 20;" xml:space="preserve">
<style type="text/css">
	.st0{fill:#365098;}
	.st1{fill:#EAA319;}
	.st2{fill:#CC5599;}
</style>
<g>
	<path class="st0" d="M14.7,13.8h-1.3c-3.6,0-6.6-3-6.6-6.6s2.9-6.6,6.6-6.6h1.3c0.6,0,1.1,0.5,1.1,1.1s-0.5,1.1-1.1,1.1h-1.3
		C11,2.9,9,4.8,9,7.3s2,4.4,4.4,4.4h1.3c0.6,0,1.1,0.5,1.1,1.1C15.8,13.4,15.3,13.9,14.7,13.8"/>
	<path class="st1" d="M6.9,6.2H6.6c-3.6,0-6.6,3-6.6,6.6s3,6.6,6.6,6.6h1.3c0.6,0,1.1-0.5,1.1-1.1s-0.5-1.1-1.1-1.1H6.6
		c-2.4,0-4.4-2-4.4-4.4s2-4.4,4.4-4.4h0.3C6.8,8,6.8,7.6,6.8,7.2C6.8,6.9,6.8,6.5,6.9,6.2"/>
	<path class="st0" d="M21.5,19.3h-6.8c-0.6,0-1.1-0.5-1.1-1.1s0.5-1.1,1.1-1.1h6.8c2.4,0,4.4-2,4.4-4.4s-2-4.4-4.4-4.4h-1.3
		c-0.6,0-1.1-0.5-1.1-1.1c0-1-0.3-1.9-0.9-2.6c-0.2-0.3-0.4-0.5-0.7-0.7C17,3.5,17,2.8,17.4,2.3s1.1-0.5,1.5-0.1
		c0.4,0.3,0.7,0.7,1.1,1.1c0.6,0.9,1.1,1.8,1.2,2.8h0.3c3.6,0,6.6,3,6.6,6.6S25.1,19.3,21.5,19.3"/>
	<path class="st2" d="M9,7.3c0-0.6-0.5-1.1-1.1-1.1h-1C6.8,6.5,6.8,6.9,6.8,7.3s0,0.7,0.1,1.1h1C8.5,8.4,9,7.9,9,7.3"/>
</g>
</svg>
