<?xml version="1.0" encoding="utf-8"?>
<!-- Generator: Adobe Illustrator 26.3.1, SVG Export Plug-In . SVG Version: 6.00 Build 0)  -->
<svg version="1.1" id="_이어_1" xmlns="http://www.w3.org/2000/svg" xmlns:xlink="http://www.w3.org/1999/xlink" x="0px" y="0px"
	 viewBox="0 0 21.1 20" style="enable-background:new 0 0 21.1 20;" xml:space="preserve">
<style type="text/css">
	.st0{fill-rule:evenodd;clip-rule:evenodd;fill:#4473AF;}
	.st1{fill-rule:evenodd;clip-rule:evenodd;fill:#3C5A9F;}
	.st2{fill-rule:evenodd;clip-rule:evenodd;fill:#FFFFFF;}
</style>
<path class="st0" d="M14.7,0.7H6.3c-0.8,0-1.4,0.4-1.8,1.1L0.3,9c-0.4,0.6-0.4,1.4,0,2.1l4.2,7.2c0.4,0.6,1.1,1.1,1.8,1.1h8.3
	c0.8,0,1.4-0.4,1.8-1.1l4.2-7.2c0.4-0.6,0.4-1.4,0-2.1l-4.2-7.2C16.1,1.1,15.4,0.7,14.7,0.7L14.7,0.7z"/>
<g id="Fill-8">
	<path class="st1" d="M13.8,12.2c-0.4,0.2-0.8,0.4-1.2,0.7c-0.7,0.4-1.4,0.8-2.1,1.2c0,0-0.1,0-0.1,0c-1.1-0.6-2.1-1.2-3.2-1.9
		c0,0,0,0,0,0c0.2-0.1,0.4-0.2,0.6-0.3c0.2-0.1,0.4-0.3,0.7-0.4c0.1,0,0.1,0,0.2,0c0.5,0.3,1.1,0.6,1.6,0.9c0,0,0,0,0.1,0v-0.1
		c0-0.7,0-1.4,0-2.1c0-0.1,0-0.1-0.1-0.1C9.5,9.7,8.9,9.3,8.3,9c0,0.1,0,0.1,0,0.1c0,0.6,0,1.2,0,1.8c0,0.1,0,0.1-0.1,0.1
		c-0.4,0.2-0.8,0.5-1.3,0.7c0,0,0,0,0,0c0,0,0-0.1,0-0.1c0-1.2,0-2.4,0-3.6C6.9,8,7,7.9,7,7.9C7.8,7.4,8.6,7,9.3,6.5
		C9.6,6.4,9.9,6.2,10.2,6c0,0,0,0.1,0,0.1c0,0.4,0,0.9,0,1.3c0,0.1,0,0.1-0.1,0.2C9.6,7.9,9.1,8.2,8.6,8.5c0,0-0.1,0-0.1,0.1
		c0.1,0.1,0.2,0.1,0.3,0.2c0.5,0.3,1,0.6,1.6,0.9c0.1,0,0.1,0.1,0.2,0c0.6-0.4,1.2-0.7,1.8-1.1c0,0,0,0,0.1,0
		c-0.1-0.1-0.3-0.2-0.4-0.3c-0.4-0.2-0.9-0.5-1.3-0.7c0,0-0.1-0.1-0.1-0.1c0-0.5,0-0.9,0-1.4c0-0.1,0-0.1,0.1-0.1
		c0.5,0.3,1.1,0.6,1.6,0.9c0.5,0.3,1,0.6,1.5,0.9C14,7.9,14,8,14,8.1c0,1.2,0,2.4,0,3.6c0,0.1,0,0.1-0.1,0.1
		c-0.4-0.2-0.8-0.4-1.1-0.7c-0.1,0-0.1-0.1-0.1-0.1c0-0.6,0-1.2,0-1.8c0,0,0-0.1,0-0.1c0,0-0.1,0-0.1,0c-0.6,0.4-1.2,0.7-1.8,1
		c-0.1,0-0.1,0.1-0.1,0.1c0,0.7,0,1.4,0,2.1c0,0.1,0,0.1,0.1,0.1c0.5-0.3,1.1-0.6,1.6-0.9c0,0,0.1,0,0.1,0
		C12.9,11.7,13.4,11.9,13.8,12.2"/>
</g>
<g id="Fill-4">
	<path class="st1" d="M14.7,7.6c0.1,0,0.1,0,0.1,0.1c0.8,0.8,1.5,1.5,2.3,2.3c0.8,0.8,1.7,1.7,2.5,2.5c0,0,0.1,0.1,0.1,0.1
		c-0.2,0.4-0.5,0.9-0.7,1.3c-0.5,0.9-1,1.8-1.5,2.7c-0.4,0.7-0.8,1.4-1.2,2C16,19,15.6,19.3,15,19.4c0,0-0.1,0-0.1,0
		c-0.6,0-1.2,0-1.7,0c0,0-0.1-0.1-0.1-0.1c-2.2-2.2-4.3-4.3-6.5-6.5c0,0-0.1-0.1-0.1-0.1c0.1,0,0.1,0.1,0.2,0.1
		c0.7,0.4,1.5,0.9,2.2,1.3c0.5,0.3,1,0.6,1.4,0.8c0.1,0.1,0.3,0.1,0.4,0c0.5-0.3,1.1-0.6,1.6-0.9c0.7-0.4,1.5-0.9,2.2-1.3
		c0.2-0.1,0.2-0.2,0.2-0.4c0-1.4,0-2.8,0-4.2C14.8,7.9,14.8,7.7,14.7,7.6"/>
</g>
<g id="Fill-6">
	<path class="st2" d="M13.8,12.2c-0.4-0.3-0.9-0.5-1.3-0.8c0,0-0.1,0-0.1,0c-0.5,0.3-1.1,0.6-1.6,0.9c-0.1,0-0.1,0-0.1-0.1
		c0-0.7,0-1.4,0-2.1c0-0.1,0-0.1,0.1-0.1c0.6-0.4,1.2-0.7,1.8-1c0,0,0.1-0.1,0.1,0c0,0,0,0.1,0,0.1c0,0.6,0,1.2,0,1.8
		c0,0.1,0,0.1,0.1,0.1c0.4,0.2,0.8,0.4,1.1,0.7c0.1,0.1,0.1,0.1,0.1-0.1c0-1.2,0-2.4,0-3.6c0-0.1,0-0.2-0.1-0.2
		c-0.5-0.3-1-0.6-1.5-0.9c-0.5-0.3-1.1-0.6-1.6-0.9c-0.1,0-0.1,0-0.1,0.1c0,0.5,0,0.9,0,1.4c0,0.1,0,0.1,0.1,0.1
		c0.4,0.2,0.9,0.5,1.3,0.7c0.1,0.1,0.3,0.2,0.4,0.3c0,0,0,0-0.1,0c-0.6,0.4-1.2,0.7-1.8,1.1c-0.1,0-0.1,0-0.2,0
		c-0.5-0.3-1-0.6-1.6-0.9C8.7,8.7,8.6,8.7,8.5,8.6c0,0,0.1,0,0.1-0.1c0.5-0.3,1-0.6,1.6-0.9c0.1,0,0.1-0.1,0.1-0.2
		c0-0.4,0-0.9,0-1.3c0,0,0-0.1,0-0.1C10,6.2,9.7,6.4,9.4,6.6C8.6,7,7.8,7.5,7,7.9C7,7.9,7,8,7,8.1c0,1.2,0,2.4,0,3.6
		c0,0,0,0.1,0,0.1h0c0.4-0.2,0.8-0.5,1.3-0.7c0.1,0,0.1-0.1,0.1-0.1c0-0.6,0-1.2,0-1.8c0,0,0-0.1,0-0.1c0.6,0.4,1.3,0.7,1.9,1.1
		c0.1,0,0.1,0.1,0.1,0.1c0,0.7,0,1.4,0,2.1v0.1c0,0-0.1,0-0.1,0c-0.5-0.3-1.1-0.6-1.6-0.9c-0.1,0-0.1,0-0.2,0
		c-0.2,0.1-0.4,0.3-0.7,0.4c-0.2,0.1-0.4,0.2-0.6,0.3c0,0,0,0,0,0c1.1,0.6,2.1,1.2,3.2,1.9c0.1,0,0.1,0,0.1,0
		c0.7-0.4,1.4-0.8,2.1-1.2C13,12.6,13.4,12.4,13.8,12.2 M14.7,7.6c0.1,0.1,0,0.3,0,0.4c0,1.4,0,2.8,0,4.2c0,0.2-0.1,0.3-0.2,0.4
		c-0.7,0.4-1.5,0.9-2.2,1.3c-0.5,0.3-1.1,0.6-1.6,0.9c-0.1,0.1-0.3,0.1-0.4,0c-0.5-0.3-1-0.6-1.4-0.8c-0.7-0.4-1.5-0.9-2.2-1.3
		c-0.1,0-0.1-0.1-0.2-0.1c-0.2-0.1-0.3-0.3-0.3-0.5c0-1.4,0-2.9,0-4.3c0-0.2,0.1-0.4,0.3-0.5c1.1-0.6,2.2-1.3,3.4-1.9
		c0.1-0.1,0.3-0.2,0.4-0.2c0.1-0.1,0.3-0.1,0.4,0c1.2,0.7,2.3,1.4,3.5,2c0.1,0.1,0.2,0.1,0.3,0.2C14.6,7.4,14.7,7.5,14.7,7.6"/>
</g>
</svg>
