<?xml version="1.0" encoding="utf-8"?>
<!-- Generator: Adobe Illustrator 26.3.1, SVG Export Plug-In . SVG Version: 6.00 Build 0)  -->
<svg version="1.1" id="_이어_1" xmlns="http://www.w3.org/2000/svg" xmlns:xlink="http://www.w3.org/1999/xlink" x="0px" y="0px"
	 viewBox="0 0 23.8 20" style="enable-background:new 0 0 23.8 20;" xml:space="preserve">
<style type="text/css">
	.st0{fill:#F4CF1F;}
	.st1{fill:#1D2B57;}
</style>
<rect x="19" y="7.3" class="st0" width="2.7" height="2.7"/>
<path class="st1" d="M21.7,12.9C21.7,12.9,21.7,12.9,21.7,12.9v0.4c0,2-1.6,3.6-3.6,3.6h-13c-2,0-3.6-1.6-3.6-3.6v-0.3
	c0-1.2,0.5-2.2,1.3-2.9c0.7-0.6,1.6-0.9,2.5-0.9h0.8V7.3c0.1-2.9,2.4-5.2,5.4-5.2c3,0,5.4,2.2,5.5,5.2H19c-0.2-3.9-3.4-7-7.3-7l0,0
	c-4,0-7.2,3.1-7.3,7.1c-2.6,0.5-4.6,2.8-4.6,5.6v0.3c0,3,2.4,5.4,5.4,5.4h13c3,0,5.4-2.4,5.4-5.4v-0.3c0,0,0,0,0-0.1H21.7L21.7,12.9
	z"/>
</svg>
