<?xml version="1.0" encoding="utf-8"?>
<!-- Generator: Adobe Illustrator 26.3.1, SVG Export Plug-In . SVG Version: 6.00 Build 0)  -->
<svg version="1.1" id="_이어_1" xmlns="http://www.w3.org/2000/svg" xmlns:xlink="http://www.w3.org/1999/xlink" x="0px" y="0px"
	 viewBox="0 0 61.2 20" style="enable-background:new 0 0 61.2 20;" xml:space="preserve">
<style type="text/css">
	.st0{fill-rule:evenodd;clip-rule:evenodd;fill:#494949;}
	.st1{fill-rule:evenodd;clip-rule:evenodd;fill:#E62F2D;}
</style>
<g transform="translate(0 8)">
	<path class="st0" d="M34,4.5c-0.6-0.6-1-1.4-1-2.4s0.4-1.8,1-2.4c0.6-0.6,1.5-1,2.4-1c1.1,0,2.3,0.5,2.8,1.4L38.3,1
		c-0.5-0.6-1.1-1-1.9-1c-0.6,0-1.1,0.3-1.5,0.6c-0.4,0.4-0.6,0.9-0.6,1.5s0.1,1.1,0.6,1.5c0.5,0.4,0.9,0.6,1.5,0.6
		c0.8,0,1.4-0.3,1.9-1l0.9,0.9c-0.6,0.9-1.6,1.4-2.9,1.4C35.6,5.4,34.7,5,34,4.5"/>
	<g>
		<path class="st0" d="M39.8,5.3h1.3v-6.7h-1.3C39.8-1.4,39.8,5.3,39.8,5.3z M44.4,4.3c0.4,0,0.6-0.1,1-0.4c0.3-0.3,0.4-0.6,0.4-1
			s-0.1-0.8-0.4-1c-0.3-0.3-0.6-0.4-1-0.4c-0.4,0-0.6,0.1-1,0.4c-0.3,0.3-0.4,0.6-0.4,1s0.1,0.8,0.4,1C43.6,4.1,44,4.3,44.4,4.3
			 M42.5,1.1c0.5-0.5,1.1-0.8,1.9-0.8c0.8,0,1.4,0.3,1.9,0.8S47,2.2,47,2.9s-0.3,1.3-0.8,1.8c-0.5,0.5-1.1,0.8-1.9,0.8
			c-0.8,0-1.4-0.3-1.9-0.8s-0.8-1.1-0.8-1.8S42,1.6,42.5,1.1 M47.5,3.2V0.5h1.3v2.8c0,0.6,0.4,1,1,1c0.6,0,1-0.4,1-1V0.5h1.3v2.8
			c0,1.4-0.9,2.1-2.3,2.1C48.4,5.4,47.5,4.6,47.5,3.2 M56.2,1.9c-0.3-0.3-0.6-0.4-1-0.4c-0.4,0-0.8,0.1-1,0.4
			c-0.3,0.3-0.4,0.6-0.4,1s0.1,0.8,0.4,1c0.3,0.3,0.6,0.4,1,0.4c0.4,0,0.8-0.1,1-0.4c0.3-0.3,0.3-0.6,0.3-1S56.4,2.1,56.2,1.9z
			 M56.5-1.4h1.3v6.7h-1.3V4.6c-0.4,0.5-0.9,0.8-1.5,0.8s-1.3-0.3-1.6-0.8c-0.5-0.4-0.6-1-0.6-1.8s0.3-1.3,0.6-1.8
			c0.5-0.5,1-0.8,1.6-0.8s1,0.3,1.5,0.6V-1.4L56.5-1.4z"/>
	</g>
	<g>
		<path class="st1" d="M15,1.4c-0.3,0-0.4,0-0.5,0.1C14.4,1.7,14.1,2,14,2.1v0.1c0.1,0.3,0.5,0.4,1,0.4h3.5c0.3,0,0.4,0,0.5-0.1
			s0.5-0.5,0.5-0.6V1.7c-0.1-0.3-0.5-0.4-1-0.4C18.5,1.4,15,1.4,15,1.4z"/>
	</g>
	<g>
		<path class="st0" d="M24.2,0.6C24,0.5,24,0.5,23.7,0.5c-0.3,0-0.6,0.3-0.8,0.3v0.1c0,0.4,0.3,0.6,0.6,0.8l3.2,1.6
			C27,3.4,27,3.4,27.2,3.4c0.3,0,0.6-0.3,0.8-0.3V3c0-0.4-0.3-0.6-0.6-0.8L24.2,0.6L24.2,0.6L24.2,0.6z M21.6-1.2h-0.1
			c-0.1,0.1-0.4,0.4-0.5,0.5c-0.1,0.1-0.1,0.3-0.1,0.5v4.5c0,0.4,0.1,0.8,0.4,0.9h0.1c0.1-0.1,0.4-0.4,0.6-0.5
			c0.1-0.1,0.1-0.3,0.1-0.5v-4.5C21.9-0.8,21.8-1,21.6-1.2 M29.9-1.2h-0.1c-0.1,0.1-0.4,0.4-0.6,0.5C29-0.5,29-0.4,29-0.2v4.5
			c0,0.4,0.1,0.8,0.4,0.9h0.1c0.1-0.1,0.4-0.4,0.6-0.5c0.1-0.1,0.1-0.3,0.1-0.5v-4.5C30.3-0.8,30.1-1,29.9-1.2 M6.9,0.6
			c-0.3-0.1-0.4-0.1-0.5,0c-0.3,0-0.6,0.3-0.8,0.3V1c0,0.4,0.3,0.6,0.6,0.8l3.2,1.6C9.7,3.5,9.7,3.5,10,3.5c0.1-0.1,0.6-0.3,0.8-0.3
			l0.1-0.1c0-0.4-0.3-0.6-0.8-0.8L6.9,0.6L6.9,0.6z M4.3-1.2H4.2C4-1.2,3.7-0.8,3.5-0.7C3.4-0.5,3.4-0.4,3.4-0.2v4.5
			c0,0.4,0.1,0.8,0.4,0.9h0.1C4,5.1,4.3,4.9,4.6,4.8c0-0.1,0.1-0.3,0.1-0.5v-4.5C4.7-0.8,4.6-1,4.3-1.2 M12.5-1.2h-0.1
			c-0.1,0-0.4,0.4-0.5,0.5c-0.1,0.1-0.3,0.3-0.3,0.5v4.5c0,0.4,0.1,0.8,0.4,0.9h0.1c0.1-0.1,0.4-0.4,0.5-0.5
			c0.3-0.1,0.3-0.3,0.3-0.5v-4.5C12.9-0.8,12.9-1,12.5-1.2"/>
	</g>
</g>
</svg>
