<?xml version="1.0" encoding="UTF-8"?><svg id="_이어_1" xmlns="http://www.w3.org/2000/svg" viewBox="0 0 22.32 21.2"><defs><style>.cls-1{fill:#992237;}.cls-2{fill:#ab2233;}.cls-3{fill:#c0272f;}.cls-4{fill:#cb2d2b;}.cls-5{fill:#a52332;}</style></defs><g id="Shape"><path class="cls-3" d="M6.95,9.66l-3.22,1.17c.04,.52,.13,1.03,.26,1.53l3.06-1.12c-.1-.52-.13-1.05-.09-1.59h0Zm14.25-3.56c-.22-.46-.48-.91-.79-1.33l-3.22,1.17c.38,.38,.69,.81,.95,1.28l3.06-1.11h0Z"/></g><g id="Path"><path class="cls-3" d="M15.48,6.07c-.41-.35-.86-.66-1.37-.89h0c-2.99-1.4-6.56-.1-7.96,2.9-.08,.17-.15,.34-.21,.51-.17,.51-.28,1.02-.31,1.54h-.01v.02l-1.94,.71-1.25,.46h-.03c-.12-1.53,.14-3.11,.83-4.6,.09-.19,.19-.38,.29-.57C5.8,1.87,11.02,.09,15.42,2.17c.89,.42,1.7,.98,2.41,1.66,.46,.43,.88,.9,1.24,1.42l-3.22,1.17-.05-.05h0c-.1-.1-.2-.2-.31-.3h0Z"/></g><g id="Path-2"><path class="cls-4" d="M2.57,16.52h0c-.67-.94-1.16-2-1.44-3.12l3.06-1.12h.02c.16,.84,.48,1.63,.96,2.33,.18,.26,.39,.51,.61,.74h-.01l.02,.03-3.19,1.18-.03-.04h0Z"/></g><g id="Path-3"><path class="cls-3" d="M14.73,15.7c-1.66,1.03-3.79,1.23-5.69,.34-.65-.3-1.24-.72-1.74-1.24l-3.22,1.17,.02,.03h0c.88,1.26,2.09,2.32,3.57,3.02,3.19,1.51,6.81,.99,9.44-1.05,1.17-.88,2.15-2.05,2.82-3.47,.7-1.49,.95-3.07,.83-4.61l-.09,.03v-.05l-3.2,1.18h0c-.05,.72-.23,1.43-.54,2.09-.5,1.08-1.28,1.95-2.2,2.55h0Z"/></g><g id="Path-4"><path class="cls-4" d="M18.29,7.15l.05-.02h0c.51,1.04,.81,2.16,.9,3.32l-3.22,1.17v-.02l-.06,.02c.09-1.19-.18-2.37-.74-3.4l3.04-1.12h0l.03,.06Z"/></g><g id="Shape-2"><path class="cls-2" d="M6.96,9.64l-3.2,1.18c.04,.52,.13,1.04,.25,1.54l3.04-1.12c-.1-.52-.13-1.06-.09-1.6h0Zm14.15-3.59c-.22-.47-.48-.92-.78-1.35l-3.2,1.18c.37,.39,.68,.82,.94,1.29l3.04-1.12h0Z"/></g><g id="Shape-3"><path class="cls-1" d="M3.75,10.82l3.19-1.17v.64l-3.09,1.16-.1-.64h0Zm13.37-4.95l3.24-1.11,.34,.51-3.15,1.11-.43-.51h0Z"/></g><g id="Shape-4"><path class="cls-5" d="M4.11,15.99l3.2-1.16,.97,.91-3.35,1.26-.81-1.01h0Zm16.61-6.1l-3.25,1.17-.24,1.3,3.46-1.23,.02-1.24h0Z"/></g></svg>