<?xml version="1.0" encoding="UTF-8"?><svg id="_이어_1" xmlns="http://www.w3.org/2000/svg" viewBox="0 0 21.64 22.2"><defs><style>.cls-1{fill:#fff;}.cls-2{fill:#3867b0;}</style></defs><path class="cls-2" d="M9.66,.36L2.62,4.42c-.82,.47-1.32,1.35-1.32,2.3V14.84c0,.95,.51,1.82,1.33,2.29l7.03,4.06c.82,.47,1.83,.47,2.65,0l7.04-4.06c.82-.47,1.33-1.35,1.33-2.29V6.71c0-.95-.51-1.82-1.33-2.29L12.31,.36c-.82-.47-1.83-.47-2.65,0Z"/><path class="cls-1" d="M9.63,11.81h1.16v-.81h-1.16v.81Zm1.16-1.75h-1.16v.81h1.16v-.81Zm-.46,5.37s.31,.08,.73-.32c.38-.36,1.17-1.39,1.33-1.59l-2.06-1.05v2.96Zm.57-2.93l.49,.25h.31l-.1-.13c-.08-.1-.11-.22-.08-.35l.07-.33h-.69v.56Zm-.12-.56h-1.16v.5l.58-.29,.58,.29v-.5h0Zm-2.43,.8h.66l.49-.25v-.56h-1.16v.81Zm1.01,2.36c.43,.4,.73,.32,.73,.32v-2.96l-2.06,1.04s.9,1.2,1.33,1.6h0Zm2.41-3.89c.02-.09,.07-.16,.13-.22h-.98v.81h.72l.13-.58Zm-2.25-.22h-1.16v.81h1.16v-.81Zm3.89,.96s-.02,.06,0,.08c0,0,.01,0,.02,.01l.11,.04,.19,.05c0-.14-.02-.28-.09-.4-.08,.07-.16,.15-.24,.22Zm-.07,.34c.04,.1,.08,.21,.12,.31,.12-.08,.2-.19,.25-.32l-.31-.05s-.05,.01-.06,.04c0,0,0,.02,0,.03Zm-.5-.06h-.07l-.22,.05c.04,.13,.13,.24,.25,.32,.04-.1,.08-.2,.12-.3,.02-.05-.02-.08-.07-.07h0Zm.24,.17s-.05,.09-.07,.14-.05,.1-.08,.15c.13,.04,.27,.04,.39-.01-.05-.1-.1-.2-.17-.29-.02-.02-.05-.02-.07,0,0,0,0,.01-.01,.02h0Zm1.4-.09l-.23-1.04c-.01-.05-.05-.1-.1-.12l-.95-.46s-.05-.02-.08-.02c-.03,0-.05,0-.08,.01l-.95,.46s-.09,.07-.1,.12l-.24,1.04c-.01,.06,0,.12,.04,.17l.66,.83s.09,.07,.14,.07h1.05c.06,0,.11-.02,.14-.07l.66-.83s.04-.11,.02-.17Zm-.3,.01s-.04,.05-.07,.05c-.02,0-.04,0-.06-.02-.06-.02-.12-.06-.19-.02-.06,.18-.17,.33-.33,.43,0,.06,.01,.12,.06,.17,.02,.02,.03,.05,.04,.08,.01,.03,0,.06-.03,.07h0s-.06,0-.08-.03c-.01-.04-.03-.08-.04-.12,0-.04-.03-.07-.06-.09,0,0-.02,0-.03,0-.17,.06-.35,.06-.52,0-.07,.04-.08,.12-.11,.18,0,.02-.01,.04-.02,.05-.02,.01-.04,.02-.07,.02-.02,0-.04-.03-.03-.06h0s.02-.05,.03-.07c0,0,.01-.01,.02-.02,.04-.05,.06-.11,.06-.17-.16-.1-.28-.25-.34-.43-.06-.02-.12-.01-.18,.02-.02,.01-.05,.02-.08,.02-.03,0-.06-.01-.06-.04h0s0-.07,.04-.08c.01,0,.03-.01,.04-.01,.07,0,.14-.02,.19-.07-.02-.12,0-.25,.04-.37,.02-.05,.03-.09,.06-.14,.03-.04,.02-.09-.02-.12h0s-.07-.05-.1-.07l-.02-.02s-.04-.06-.02-.09h0s.07-.03,.09,0h0s.08,.08,.11,.12c.03,.03,.07,.03,.1,0h0c.12-.12,.27-.19,.43-.21,.04,0,.06-.04,.06-.07,0-.04,0-.08,0-.12,0-.02,0-.04,0-.05,0-.04,.03-.07,.06-.07,.04,0,.06,.03,.06,.07h0s0,.06-.01,.09c0,.05-.02,.09,.01,.14,0,.01,.02,.02,.03,.02,.17,.03,.33,.11,.45,.24,.03,.03,.06,0,.08,0,.02-.02,.04-.03,.06-.05,.02-.02,.04-.04,.06-.06s.08-.03,.1,0c.02,.03,.01,.08-.02,.1h0s-.01,0-.01,.01c-.06,.04-.13,.06-.15,.14,.03,.08,.07,.17,.09,.24,.03,.09,.04,.18,.03,.28,0,.04,.02,.08,.06,.08h0s.07,.01,.11,.02c.02,0,.05,0,.07,0,.03-.01,.05,.02,.04,.05h0Zm-1.15-.57s0-.09,0-.14v-.18c-.13,.02-.26,.08-.35,.18,.09,.06,.17,.13,.26,.19,.04,.03,.07,0,.08-.04h0Zm-.19,.25s0-.04-.02-.06c-.03-.04-.07-.07-.1-.1l-.12-.11c-.07,.12-.1,.26-.09,.4,.1-.03,.2-.06,.29-.09,.02,0,.03-.03,.04-.04Zm.28,.18s.11-.07,.11-.13c-.02-.05-.06-.08-.11-.08-.05,0-.11,.05-.1,.08,0,.06,.04,.11,.1,.13Zm.19-.39l.13-.09s.07-.06,.11-.09c-.1-.1-.22-.16-.35-.18,0,.1,.01,.21,.01,.31,0,.07,.05,.09,.09,.05h0Zm.71-3.35c-.48-.94-1.54-1.44-2.57-1.21-.83-.98-2.3-1.11-3.28-.28-.49,.41-.78,1-.82,1.64-1.38,.39-2.18,1.82-1.8,3.2,.25,.88,.93,1.56,1.81,1.8,.18,.05,.37-.05,.42-.23,.05-.18-.05-.37-.23-.42h0c-1.02-.28-1.62-1.34-1.34-2.36,.2-.72,.79-1.25,1.52-1.38l.3-.05-.02-.3v-.1c0-.92,.74-1.66,1.65-1.66,.55,0,1.06,.27,1.37,.72l.14,.21,.23-.08c.09-.03,.19-.05,.29-.07,.76-.12,1.51,.31,1.79,1.03l.09,.23h.26c1.07-.07,1.99,.75,2.05,1.82,.05,.89-.51,1.7-1.36,1.96-.14,.04-.24,.17-.23,.32h0c0,.18,.14,.33,.32,.34,.04,0,.08,0,.11-.02,1.38-.44,2.14-1.91,1.71-3.29-.33-1.06-1.3-1.79-2.42-1.83Z"/></svg>