<?xml version="1.0" encoding="utf-8"?>
<!-- Generator: Adobe Illustrator 26.3.1, SVG Export Plug-In . SVG Version: 6.00 Build 0)  -->
<svg version="1.1" id="_이어_1" xmlns="http://www.w3.org/2000/svg" xmlns:xlink="http://www.w3.org/1999/xlink" x="0px" y="0px"
	 viewBox="0 0 36 20" style="enable-background:new 0 0 36 20;" xml:space="preserve">
<style type="text/css">
	.st0{fill:#2E59A6;}
</style>
<g>
	<path class="st0" d="M34.1,5.9l-0.4-2.2c-0.1-0.7-0.4-1.3-0.6-1.3c-0.2,0-0.4,0.6-0.4,1.3v0.6c0,0.7-0.6,1.3-1.3,1.3h-0.7v1.6h2.3
		C33.8,7.2,34.3,6.6,34.1,5.9"/>
	<path class="st0" d="M28.9,4h-7.2c0,0-0.1,0-0.1,0V3.7c0-0.7-0.2-1.3-0.4-1.3c-0.2,0-0.5,0.6-0.6,1.3l-0.4,2.2
		c-0.1,0.7,0.4,1.3,1.1,1.3h2.2c0.2,0,0.4,0,0.6-0.1c-0.1,0.4-0.4,0.7-0.8,0.7h-3.1c-0.5,0-0.9-0.4-0.8-0.9L19.8,5
		C19.9,4.5,19.5,4,19,4H3.8C3.4,4,3.2,4.2,3,4.5L0.2,8.8c0,0.1,0,0.2,0,0.2l0.5,0.7c0.1,0.1,0.2,0.1,0.3,0l2-1.5v9.3
		c0,0.4,0.4,0.8,0.8,0.8h4.3c0.4,0,0.8-0.4,0.8-0.8v-3.2c0-0.4,0.4-0.8,0.8-0.8h10.8c0.4,0,0.8,0.4,0.8,0.8v3.2
		c0,0.4,0.4,0.8,0.8,0.8h4.3c0.4,0,0.8-0.4,0.8-0.8v-3.5h-2.3c-0.7,0-1.3-0.6-1.3-1.3v-2.2c0-0.4,0.2-0.8,0.5-1v2.7
		c0,0.7,0.6,1.3,1.3,1.3H29c0.7,0,1.3-0.6,1.3-1.3V5.3C30.2,4.6,29.7,4,28.9,4"/>
</g>
<path class="st0" d="M34.4,3.2c0-0.6,0.4-0.8,0.8-0.8c0.4,0,0.8,0.3,0.8,0.8S35.6,4,35.2,4C34.8,4,34.4,3.8,34.4,3.2z M35.8,3.2
	c0-0.5-0.3-0.7-0.6-0.7c-0.3,0-0.6,0.2-0.6,0.7s0.3,0.7,0.6,0.7C35.6,3.8,35.8,3.6,35.8,3.2z M34.9,2.8h0.3c0.2,0,0.3,0,0.3,0.3
	c0,0.1-0.1,0.2-0.2,0.2l0.2,0.3h-0.2l-0.2-0.3h-0.1v0.3h-0.2L34.9,2.8C34.9,2.8,34.9,2.8,34.9,2.8z M35.2,3.2c0.1,0,0.1,0,0.1-0.1
	c0-0.1-0.1-0.1-0.1-0.1h-0.2v0.2C35.1,3.2,35.2,3.2,35.2,3.2z"/>
</svg>
