<svg xmlns="http://www.w3.org/2000/svg" width="36" height="36" viewBox="0 0 36 36">
  <defs>
    <linearGradient id="app_php-a" x1="50%" x2="50%" y1="0%" y2="100%">
      <stop offset="0%" stop-color="#AFB2D7"/>
      <stop offset="49.401%" stop-color="#60659D"/>
      <stop offset="100%" stop-color="#484E8C"/>
    </linearGradient>
  </defs>
  <g fill="none" fill-rule="evenodd">
    <rect width="36" height="36"/>
    <g fill="#6180B6" transform="translate(6.48 11.52)">
      <path d="M18.6708346 4.35560067L17.6618498 4.35560067 17.1120425 7.20226731 18.0077636 7.20226731C18.6014478 7.20226731 19.0436961 7.08980065 19.3343231 6.86468065 19.6249501 6.63956065 19.8209586 6.26384734 19.9227662 5.73735398 20.0202603 5.23186067 19.9759195 4.87514067 19.7896047 4.667334 19.6031971 4.45952733 19.2303356 4.35560067 18.6708346 4.35560067M7.17676507 4.35560067L6.16778022 4.35560067 5.61792661 7.20226731 6.51364765 7.20226731C7.10737823 7.20226731 7.54962663 7.08980065 7.84025356 6.86468065 8.13083418 6.63956065 8.32688913 6.26384734 8.42869666 5.73735398 8.52619073 5.23186067 8.48180356 4.87514067 8.29553513 4.667334 8.10912758 4.45952733 7.73626607 4.35560067 7.17676507 4.35560067"/>
      <path fill-rule="nonzero" d="M21.4448519,5.841276 C21.3807062,6.17340265 21.2721733,6.47710933 21.1194388,6.75216265 C20.9665187,7.02744934 20.7668924,7.27921598 20.5201424,7.507416 C20.2260832,7.78428934 19.8994177,7.981596 19.5399605,8.09910265 C19.1805032,8.21693602 18.7226707,8.27564267 18.1660917,8.27564267 L16.9046983,8.27564267 L16.555445,10.083976 L15.0828299,10.083976 L16.3966809,3.28226267 L19.2285082,3.28226267 C20.080445,3.28226267 20.7018191,3.507196 21.0924447,3.95710933 C21.4831168,4.40702267 21.6006477,5.035016 21.4448519,5.841276 Z M13.324597,8.27564267 L13.9058046,5.26615598 C13.9719447,4.92380933 13.9476408,4.69028933 13.8328,4.56578267 C13.7179128,4.441276 13.4735282,4.37892933 13.0997391,4.37892933 L11.9320365,4.37892933 L11.179449,8.27564267 L9.71842924,8.27564267 L11.0323266,1.47392933 L12.4933464,1.47392933 L12.1440467,3.28226267 L13.4456065,3.28226267 C14.2645197,3.28226267 14.8294473,3.42608933 15.1403431,3.71336933 C15.4512388,4.000836 15.544373,4.466616 15.4200704,5.110476 L14.8088075,8.27564267 L13.324597,8.27564267 Z M9.02604502,7.507416 C8.7319858,7.78428934 8.40532035,7.981596 8.04586314,8.09910265 C7.68640588,8.21693602 7.22857333,8.27564267 6.67199437,8.27564267 L5.41064733,8.27564267 L5.06134765,10.083976 L3.58873253,10.083976 L4.90262989,3.28226267 L7.73441083,3.28226267 C8.58634765,3.28226267 9.20776804,3.507196 9.59839372,3.95710933 C9.98901939,4.40702267 10.1065967,5.035016 9.95080096,5.841276 C9.8866552,6.17340265 9.77812232,6.47710933 9.6253878,6.75216265 C9.47246774,7.02744934 9.27279502,7.27921598 9.02604502,7.507416 Z M12.509348,9.33333334e-06 C5.70382528,9.33333334e-06 0.186643709,2.81316933 0.186643709,6.28325602 C0.186643709,9.75338931 5.70382528,12.5665027 12.509348,12.5665027 C19.3148243,12.5665027 24.8319595,9.75338931 24.8319595,6.28325602 C24.8319595,2.81316933 19.3148243,9.33333334e-06 12.509348,9.33333334e-06 Z"/>
    </g>
    <g transform="translate(1.8 9.36)">
      <path fill="url(#app_php-a)" d="M16.1988282,0.00708933092 C7.25261989,0.00708933092 0,3.82226257 0,8.52834792 L0,8.52834792 C0,13.2344333 7.25261989,17.0495479 16.1988282,17.0495479 L16.1988282,17.0495479 C25.1450365,17.0495479 32.3976564,13.2344333 32.3976564,8.52834792 L32.3976564,8.52834792 C32.3976564,3.82226257 25.1450365,0.00708933092 16.1988282,0.00708933092 Z" transform="translate(0 .051)"/>
      <g transform="translate(.586 .637)">
        <path fill="#777AB3" d="M15.6129331,15.8309505 C24.2097136,15.8309505 31.1789946,12.2991162 31.1789946,7.94240007 C31.1789946,3.58574257 24.2097136,0.0538496203 15.6129331,0.0538496203 C7.01615262,0.0538496203 0.0468716094,3.58574257 0.0468716094,7.94240007 C0.0468716094,12.2991162 7.01615262,15.8309505 15.6129331,15.8309505"/>
        <path fill="#FEFEFE" d="M10.328288 7.06950423C10.2211864 7.61971834 10.0237983 8.00904564 9.74157266 8.22635414 9.45190611 8.44934582 8.97809273 8.56248217 8.33337374 8.56248217L7.68349888 8.56248217 8.21619472 5.82166481 9.15186922 5.82166481C9.90773251 5.82166481 10.1667567 5.98360622 10.2538208 6.08010315 10.3951973 6.23683009 10.4216797 6.58824998 10.328288 7.06950423M9.15186922 5.44598886L7.90649056 5.44598886 7.22778966 8.93815812 8.33337374 8.93815812C9.06621136 8.93815812 9.61208984 8.80017982 9.97077483 8.52404745 10.3295184 8.24785649 10.5714345 7.78687421 10.697109 7.14104203 10.8174519 6.52093063 10.7626707 6.08326698 10.5327654 5.82834401 10.3026844 5.57342105 9.84240521 5.44598886 9.15186922 5.44598886M24.5154512 7.06950423C24.4083496 7.61977693 24.2109615 8.00904564 23.9287358 8.22629555 23.6390107 8.44934582 23.1652559 8.56248217 22.5205955 8.56248217L21.8707207 8.56248217 22.4033579 5.82166481 23.3390324 5.82166481C24.0948371 5.82166481 24.3538613 5.98360622 24.4409839 6.08010315 24.5823604 6.23683009 24.6088429 6.58819139 24.5154512 7.06950423M23.3390324 5.44598886L22.0935952 5.44598886 21.4149528 8.93815812 22.5205955 8.93815812C23.2533745 8.93815812 23.7991944 8.80017982 24.1578794 8.52404745 24.5166816 8.24785649 24.7585977 7.78687421 24.8842722 7.14104203 25.004615 6.52093063 24.9498339 6.08326698 24.71987 5.82834401 24.4898476 5.57342105 24.0295684 5.44598886 23.3390324 5.44598886"/>
        <path fill="#FEFEFE" d="M26.7629625,7.26852694 C26.683808,7.67595841 26.5498724,8.04852911 26.3613899,8.38594611 C26.1726145,8.72371465 25.9261871,9.03248137 25.6215802,9.31248065 C25.2586182,9.65218264 24.8554051,9.89415732 24.4117654,10.0383461 C23.968067,10.1828864 23.4029125,10.2548929 22.7160091,10.2548929 L21.15911,10.2548929 L20.7279498,12.4732676 L18.9103274,12.4732676 L20.5320265,4.12924231 L24.0273596,4.12924231 C25.0789241,4.12924231 25.8459194,4.40519892 26.3279939,4.95711212 C26.8102442,5.50902532 26.9553118,6.27941881 26.7629625,7.26852694 L26.7629625,7.26852694 Z M16.8708265,10.2548929 L17.5881965,6.56299204 C17.6698702,6.14302242 17.6398724,5.85651971 17.4980858,5.70377685 C17.3562992,5.55109259 17.0546218,5.47457468 16.593288,5.47457468 L15.151986,5.47457468 L14.2230493,10.2548929 L12.4197227,10.2548929 L14.0414804,1.91086763 L15.8448069,1.91086763 L15.4136467,4.12924231 L17.0201711,4.12924231 C18.031016,4.12924231 18.7282312,4.30565533 19.1119925,4.65812984 C19.4957538,5.01078011 19.6107064,5.58214503 19.4573191,6.37199024 L18.7028033,10.2548929 L16.8708265,10.2548929 Z M11.4126276,9.31248065 C11.0497241,9.65218264 10.6465111,9.89415732 10.2028127,10.0383461 C9.75911436,10.1828864 9.19401852,10.2548929 8.50705649,10.2548929 L6.9501574,10.2548929 L6.51899718,12.4732676 L4.70137476,12.4732676 L6.32307385,4.12924231 L9.81840694,4.12924231 C10.8699129,4.12924231 11.6369668,4.40519892 12.1190999,4.95711212 C12.601233,5.50902532 12.7463592,6.27941881 12.5540684,7.26852694 C12.4748554,7.67595841 12.3409198,8.04852911 12.1523787,8.38594611 C11.9636619,8.72371465 11.7172344,9.03248137 11.4126276,9.31248065 L11.4126276,9.31248065 Z M26.6109227,4.70992297 C26.3285212,4.38656745 25.9609306,4.14189765 25.5184041,3.98265136 C25.0958565,3.83061157 24.5941545,3.75350778 24.0273596,3.75350778 L20.5320265,3.75350778 C20.3521567,3.75350778 20.1974804,3.88099855 20.1632055,4.05752875 L19.885374,5.48699566 C19.8387954,5.02665787 19.6655462,4.65654792 19.366271,4.38147016 C18.9061089,3.9589226 18.1387621,3.75350778 17.0201711,3.75350778 L15.8694145,3.75350778 L16.2135693,1.9825226 C16.2350717,1.87237432 16.2060699,1.75841772 16.1347078,1.67188101 C16.0633458,1.58528571 15.9570059,1.53513309 15.8448069,1.53513309 L14.0414804,1.53513309 C13.8616106,1.53513309 13.7069928,1.66256528 13.6726594,1.83915407 L12.9205458,5.70863978 C12.8241661,5.32897975 12.651327,4.99525389 12.4020286,4.70992297 C12.1195686,4.38656745 11.751978,4.14189765 11.3094514,3.98265136 C10.8868453,3.83061157 10.3852019,3.75350778 9.81840694,3.75350778 L6.32307385,3.75350778 C6.14320405,3.75350778 5.98858633,3.88099855 5.95425288,4.05752875 L4.33255378,12.4015541 C4.31111002,12.5117024 4.34005324,12.6257175 4.41141526,12.7122542 C4.48283588,12.7988495 4.58911725,12.8490022 4.70137476,12.8490022 L6.51899718,12.8490022 C6.69886698,12.8490022 6.8534847,12.7215114 6.88781816,12.5449812 L7.25986156,10.6306275 L8.50705649,10.6306275 C9.23075414,10.6306275 9.8404366,10.5515316 10.3191715,10.3955664 C10.8126124,10.2352655 11.2666225,9.96341013 11.6682536,9.58785136 C11.9163216,9.35964521 12.131638,9.11046401 12.3111563,8.84423327 L12.0509017,10.1831794 C12.0294579,10.2933277 12.0584012,10.4072843 12.1298218,10.4938796 C12.2011838,10.5804163 12.3074652,10.6306275 12.4197227,10.6306275 L14.2230493,10.6306275 C14.4029191,10.6306275 14.5575368,10.5031367 14.5918702,10.3265479 L15.4617487,5.85025063 L16.593288,5.85025063 C17.1153791,5.85025063 17.2216605,5.95828969 17.2227151,5.95940289 C17.2235939,5.96028174 17.3017523,6.06755913 17.2193755,6.49127848 L16.5020055,10.183238 C16.4805617,10.2933863 16.509505,10.4072843 16.5809256,10.4938796 C16.6522876,10.5804163 16.7586276,10.6306275 16.8708265,10.6306275 L18.7028033,10.6306275 C18.7730522,10.6306275 18.8393169,10.6109414 18.8961487,10.5767251 L18.5415064,12.4015541 C18.5201212,12.5117024 18.5490644,12.6257175 18.6203679,12.7122542 C18.6917885,12.7988495 18.7981285,12.8490022 18.9103274,12.8490022 L20.7279498,12.8490022 C20.9078196,12.8490022 21.0624959,12.7215114 21.0967708,12.5449812 L21.4688142,10.6306275 L22.7160091,10.6306275 C23.4396482,10.6306275 24.0493892,10.5515316 24.5280655,10.3955664 C25.021565,10.2352655 25.4755165,9.96346872 25.8771476,9.58785136 C26.2088229,9.28283436 26.4820843,8.94008571 26.6893154,8.56927269 C26.896488,8.19840108 27.0453639,7.78487631 27.1317834,7.34018192 C27.3464554,6.23612116 27.1712728,5.35118517 26.6109227,4.70992297 L26.6109227,4.70992297 Z"/>
        <path fill="#2B2C2F002" d="M18.9103098 12.4732676L20.7279322 12.4732676 21.1590924 10.2548929 22.7159915 10.2548929C23.4029536 10.2548929 23.9680494 10.1828864 24.4117478 10.0383461 24.8554461 9.89415732 25.2586592 9.65218264 25.6215626 9.31248065 25.9261695 9.03248137 26.172597 8.72371465 26.3613724 8.38594611 26.5499134 8.04852911 26.683849 7.67595841 26.7629449 7.26852694 26.9553528 6.27941881 26.8102266 5.50902532 26.3279763 4.95711212 25.8459018 4.40519892 25.0789065 4.12924231 24.027342 4.12924231L20.5320675 4.12924231 18.9103098 12.4732676zM23.3390324 5.445983C24.0295684 5.445983 24.489789 5.57341519 24.71987 5.82833816 24.9498339 6.08331971 25.004615 6.52092477 24.8842722 7.14103617 24.7585977 7.78686835 24.5166816 8.24785063 24.1578794 8.52404159 23.7991944 8.80023255 23.2533745 8.93815226 22.5205955 8.93815226L21.4149528 8.93815226 22.0935952 5.445983 23.3390324 5.445983zM14.0414569 1.91085005L15.8448421 1.91085005 15.4136233 4.12922474 17.0201477 4.12922474C18.0309925 4.12922474 18.7282663 4.30569635 19.111969 4.65811226 19.4957303 5.01076253 19.610683 5.58212745 19.4572956 6.37203125L18.7027799 10.2548754 16.8708616 10.2548754 17.5882316 6.56297447C17.6698468 6.14300485 17.639849 5.85656072 17.4981209 5.70381787 17.3563343 5.55107501 17.0545983 5.47455711 16.5932645 5.47455711L15.1520211 5.47455711 14.2230258 10.2548754 12.4196992 10.2548754 14.0414569 1.91085005zM4.70135132 12.4732676L6.51897374 12.4732676 6.95013396 10.2548929 8.50703306 10.2548929C9.19405367 10.2548929 9.75914951 10.1828864 10.2027893 10.0383461 10.6464877 9.89415732 11.0497007 9.65218264 11.4126627 9.31248065 11.717211 9.03248137 11.9636971 8.72371465 12.1524139 8.38594611 12.3409549 8.04852911 12.4748906 7.67595841 12.554045 7.26852694 12.7463944 6.27941881 12.6012095 5.50902532 12.1190765 4.95711212 11.6369434 4.40519892 10.8698895 4.12924231 9.81838351 4.12924231L6.32310901 4.12924231 4.70135132 12.4732676zM9.15186922 5.445983C9.84240521 5.445983 10.3026844 5.57341519 10.5327654 5.82833816 10.7626707 6.08331971 10.8174519 6.52092477 10.697109 7.14103617 10.5714345 7.78686835 10.3295184 8.24785063 9.97077483 8.52404159 9.61208984 8.80023255 9.06621136 8.93815226 8.33337374 8.93815226L7.22778966 8.93815226 7.90649056 5.445983 9.15186922 5.445983z"/>
      </g>
    </g>
  </g>
</svg>
