<svg xmlns="http://www.w3.org/2000/svg" width="36" height="36" viewBox="0 0 36 36">
  <defs>
    <linearGradient id="app_python-a" x1="99.96%" x2=".04%" y1="38.875%" y2="38.08%">
      <stop offset="0%" stop-color="#366A96"/>
      <stop offset="100%" stop-color="#3679B0"/>
    </linearGradient>
    <linearGradient id="app_python-b" x1="100%" x2="-97.55%" y1="50%" y2="50%">
      <stop offset="0%" stop-color="#FFC836"/>
      <stop offset="100%" stop-color="#FFE873"/>
    </linearGradient>
  </defs>
  <g fill="none" fill-rule="evenodd">
    <rect width="36" height="36"/>
    <g transform="translate(6.48 4.68)">
      <path fill="#646464" fill-rule="nonzero" d="M2.81688646,22.0640771 C2.81688646,20.9387237 2.49600241,20.3609815 1.85423467,20.3293452 C1.59888269,20.3172935 1.34955785,20.3579691 1.10701128,20.4521251 C0.913426493,20.5214237 0.783115011,20.5899686 0.714568961,20.6592687 L0.714568961,23.3453533 C1.12508919,23.6029634 1.48966222,23.7227304 1.80753326,23.7038992 C2.48018404,23.6594584 2.81688646,23.1133529 2.81688646,22.0640771 Z M3.60855025,22.1107784 C3.60855025,22.682494 3.47447243,23.1570409 3.20480916,23.534418 C2.90426247,23.9615108 2.48771632,24.1814594 1.95516987,24.1935115 C1.55368817,24.206317 1.14015483,24.0805237 0.714568961,23.8168874 L0.714568961,26.2581661 L0.0260997083,26.012607 L0.0260997083,20.5937357 C0.13908675,20.4551374 0.284463869,20.3361242 0.460724168,20.2351888 C0.870491663,19.9964094 1.36838855,19.8736295 1.95441659,19.8676034 L1.96420826,19.8773962 C2.49976806,19.8706167 2.91254906,20.0905654 3.20254968,20.5364883 C3.47296529,20.9455027 3.60855025,21.4697641 3.60855025,22.1107784 Z M7.81619757,23.7129382 C7.81619757,24.4797457 7.73936615,25.0107864 7.58570431,25.3060596 C7.43128767,25.6013333 7.13752091,25.8371002 6.70364875,26.012607 C6.35188226,26.1512046 5.97149183,26.2265295 5.5632308,26.2393343 L5.44949082,25.8054636 C5.86453032,25.7489699 6.15679141,25.6924757 6.32627163,25.635982 C6.65996074,25.5229953 6.8889493,25.3497484 7.01474103,25.1177468 C7.11567642,24.9286813 7.16539104,24.567876 7.16539104,24.0338222 L7.16539104,23.8545492 C6.69461031,24.0684721 6.20123225,24.1746803 5.68525736,24.1746803 C5.34629545,24.1746803 5.04725541,24.0684721 4.78964487,23.8545492 C4.5003966,23.6217955 4.35577271,23.3265216 4.35577271,22.9687285 L4.35577271,20.1033704 L5.04424211,19.8676034 L5.04424211,22.7517927 C5.04424211,23.0598717 5.14367134,23.2971453 5.34252931,23.4636132 C5.5413863,23.6300811 5.79899782,23.7099249 6.11460907,23.7038992 C6.43022032,23.6971203 6.76842891,23.5750937 7.12772817,23.3363139 L7.12772817,19.9715516 L7.81619757,19.9715516 L7.81619757,23.7129382 Z M10.5037888,24.1558485 C10.4216851,24.1626276 10.3463604,24.1656408 10.2770617,24.1656408 C9.88763139,24.1656408 9.58407286,24.0729913 9.36713654,23.8869388 C9.15095452,23.7008864 9.04248684,23.4440287 9.04248684,23.1163647 L9.04248684,20.4046705 L8.57095279,20.4046705 L8.57095279,19.9715516 L9.04248684,19.9715516 L9.04248684,18.8213414 L9.73020243,18.5765354 L9.73020243,19.9715516 L10.5037888,19.9715516 L10.5037888,20.4046705 L9.73020243,20.4046705 L9.73020243,23.097534 C9.73020243,23.3558989 9.79950156,23.538938 9.93809982,23.6458995 C10.0571126,23.7340293 10.2461783,23.7844968 10.5037888,23.7973019 L10.5037888,24.1558485 Z M14.6722671,24.0993554 L13.9837982,24.0993554 L13.9837982,21.4418935 C13.9837982,21.1714774 13.9205252,20.9387237 13.794733,20.7443857 C13.6493558,20.5244366 13.447485,20.4144622 13.1883673,20.4144622 C12.8727561,20.4144622 12.4780534,20.5809306 12.0042609,20.9138659 L12.0042609,24.0993554 L11.315791,24.0993554 L11.315791,17.7472088 L12.0042609,17.530273 L12.0042609,20.4235016 C12.4441582,20.1033704 12.9247302,19.9429282 13.4467312,19.9429282 C13.8113037,19.9429282 14.1065771,20.0657085 14.3325519,20.3105135 C14.55928,20.55532 14.6722671,20.8603856 14.6722671,21.2249577 L14.6722671,24.0993554 Z M18.3315495,21.9556094 C18.3315495,21.5232449 18.2494453,21.1662046 18.0859907,20.8837363 C17.8916522,20.5395016 17.5895998,20.3579691 17.1813383,20.339137 C16.4265835,20.3828255 16.0499593,20.9236582 16.0499593,21.9601289 C16.0499593,22.4354286 16.1282968,22.8323907 16.2864791,23.1510148 C16.4883499,23.5570159 16.7911556,23.7573805 17.1948967,23.7506005 C17.9526647,23.7445749 18.3315495,23.1464953 18.3315495,21.9556094 Z M19.0855514,21.9601289 C19.0855514,22.5755325 18.9281224,23.0877413 18.6140173,23.4967557 C18.268277,23.9547308 17.7907168,24.184472 17.1813383,24.184472 C16.5772336,24.184472 16.1064533,23.9547308 15.7667381,23.4967557 C15.4586586,23.0877413 15.3049958,22.5755325 15.3049958,21.9601289 C15.3049958,21.3816338 15.4714642,20.8950352 15.8044,20.4988264 C16.1561679,20.0785131 16.6186621,19.8676034 17.1903777,19.8676034 C17.7620933,19.8676034 18.2276008,20.0785131 18.5861477,20.4988264 C18.9190835,20.8950352 19.0855514,21.3816338 19.0855514,21.9601289 Z M23.0325748,24.0993554 L22.3441054,24.0993554 L22.3441054,21.2912435 C22.3441054,20.9831646 22.2514557,20.7428785 22.0661561,20.5696317 C21.8808575,20.3971382 21.6337916,20.3135268 21.3257126,20.3203063 C20.9988034,20.3263324 20.6877116,20.4332939 20.3924377,20.640437 L20.3924377,24.0993554 L19.7039683,24.0993554 L19.7039683,20.55532 C20.1001771,20.2668255 20.4647497,20.0785131 20.7976855,19.9903833 C21.1117901,19.9082796 21.3889861,19.8676034 21.6277659,19.8676034 C21.7912215,19.8676034 21.9448833,19.8834218 22.0895072,19.9150585 C22.3599238,19.9775782 22.579872,20.0935782 22.7493527,20.2638122 C22.9384179,20.4521251 23.0325748,20.6780989 23.0325748,20.9424894 L23.0325748,24.0993554 Z"/>
      <path fill="url(#app_python-a)" d="M7.2972358,2.32542607 C7.2972358,1.14391808 7.6140392,0.501128334 9.36334422,0.19503868 C10.5509745,-0.0131025973 12.0737732,-0.0391206906 13.4940311,0.19503868 C14.6158516,0.380222561 15.5601396,1.21584923 15.5601396,2.32542607 L15.5601396,6.22348441 C15.5601396,7.36673152 14.6433997,8.30336727 13.4940311,8.30336727 L9.36334422,8.30336727 C7.9614513,8.30336727 6.77994331,9.49864883 6.77994331,10.8500372 L6.77994331,12.720248 L5.35968533,12.720248 C4.15828064,12.720248 3.45886496,11.8540135 3.1650181,10.6418959 C2.76863137,9.01349669 2.78546651,8.04319067 3.1650181,6.48366101 C3.49406515,5.12309053 4.54548527,4.40530893 5.7468891,4.40530893 L7.2972358,4.40530893 L11.4294526,4.40530893 L11.4294526,3.88495574 L7.2972358,3.88495574 L7.2972358,2.32542607 Z M8.33029001,2.06677939 C8.33029001,2.49683639 8.6761722,2.84577927 9.10469841,2.84577927 C9.53169384,2.84577927 9.87910594,2.49683639 9.87910594,2.06677939 C9.87910594,1.63519249 9.53169384,1.2862496 9.10469841,1.2862496 C8.6761722,1.2862496 8.33029001,1.63519249 8.33029001,2.06677939 Z"/>
      <path fill="url(#app_python-b)" d="M15.5601396,14.8001309 C15.5601396,15.9816389 14.5347375,16.5800455 13.4940311,16.8784829 C11.9283801,17.3284358 10.6718803,17.2595653 9.36334422,16.8784829 C8.27060252,16.5601496 7.2972358,15.9097077 7.2972358,14.8001309 L7.2972358,10.9020725 C7.2972358,9.78025204 8.23234077,8.82218968 9.36334422,8.82218968 L13.4940311,8.82218968 C14.8699068,8.82218968 16.0774321,7.63302951 16.0774321,6.22348441 L16.0774321,4.40530893 L17.6262489,4.40530893 C18.8291826,4.40530893 19.3954497,5.29909232 19.6923573,6.48366101 C20.1055791,8.12889539 20.1239442,9.35937801 19.6923573,10.6418959 C19.2745439,11.8876829 18.8276527,12.720248 17.6262489,12.720248 L15.5601396,12.720248 L11.4294526,12.720248 L11.4294526,13.2406012 L15.5601396,13.2406012 L15.5601396,14.8001309 Z M12.9782694,15.0587776 C12.9782694,15.4903645 13.3256815,15.8393073 13.7526778,15.8393073 C14.181204,15.8393073 14.5270854,15.4903645 14.5270854,15.0587776 C14.5270854,14.6287206 14.181204,14.2797777 13.7526778,14.2797777 C13.3256815,14.2797777 12.9782694,14.6287206 12.9782694,15.0587776 Z"/>
    </g>
  </g>
</svg>
