<svg xmlns="http://www.w3.org/2000/svg" width="36" height="36" viewBox="0 0 36 36">
  <defs>
    <linearGradient id="app_node-a" x1="100%" x2="0%" y1="35.023%" y2="35.023%">
      <stop offset="0%" stop-color="#3F873F"/>
      <stop offset="100%" stop-color="#6ABF4B"/>
    </linearGradient>
    <linearGradient id="app_node-b" x1="0%" y1="25.805%" y2="25.805%">
      <stop offset="0%" stop-color="#3F873F"/>
      <stop offset="100%" stop-color="#6ABF4B"/>
    </linearGradient>
    <linearGradient id="app_node-c" x1="15.388%" x2="89.609%" y1="25.805%" y2="25.805%">
      <stop offset="0%" stop-color="#3DAE2B"/>
      <stop offset="100%" stop-color="#3F873F"/>
    </linearGradient>
  </defs>
  <g fill="none" fill-rule="evenodd">
    <rect width="36" height="36"/>
    <g transform="translate(2.88 9)">
      <path fill="#3F873F" d="M15.3544023,18.1391238 C15.2570783,18.1391238 15.160088,18.1136421 15.0749713,18.0643465 L14.1851816,17.5379037 C14.0523701,17.4635933 14.1172749,17.4372445 14.161034,17.4219688 C14.3383383,17.3604661 14.3741593,17.3462577 14.5633372,17.2389946 C14.5830154,17.2279215 14.6091641,17.2320572 14.6295094,17.2440643 L15.3130446,17.6499028 C15.3377925,17.6635775 15.3727463,17.6635775 15.3955598,17.6499028 L18.0604598,16.1117319 C18.0852076,16.0975903 18.1012171,16.0690401 18.1012171,16.0396228 L18.1012171,12.9642815 C18.1012171,12.9341972 18.0852076,12.9060473 18.0597927,12.8907717 L15.3960267,11.3540015 C15.3714123,11.3395931 15.3387263,11.3395931 15.3139118,11.3540015 L12.6508129,12.8912386 C12.6249309,12.9060473 12.6085213,12.9349977 12.6085213,12.9642815 L12.6085213,16.0396228 C12.6085213,16.0690401 12.6249309,16.0969232 12.650546,16.1108648 L13.3805752,16.5326461 C13.7766747,16.7306958 14.0191506,16.4974921 14.0191506,16.2630875 L14.0191506,13.2266358 C14.0191506,13.1838106 14.0537043,13.1499241 14.0966629,13.1499241 L14.4345281,13.1499241 C14.4768196,13.1499241 14.5117736,13.1838106 14.5117736,13.2266358 L14.5117736,16.2630875 C14.5117736,16.7917317 14.2238709,17.0949099 13.7227096,17.0949099 C13.5686858,17.0949099 13.4474145,17.0949099 13.1088821,16.9280785 L12.4100713,16.5257753 C12.2374365,16.4259833 12.1305736,16.239407 12.1305736,16.0396228 L12.1305736,12.9642815 C12.1305736,12.7644308 12.2374365,12.5779211 12.4100713,12.4785961 L15.0749713,10.9386908 C15.2435371,10.8433013 15.4677356,10.8433013 15.6349672,10.9386908 L18.2996671,12.4785961 C18.4722352,12.5783881 18.5796316,12.7644308 18.5796316,12.9642815 L18.5796316,16.0396228 C18.5796316,16.239407 18.4722352,16.4253163 18.2996671,16.5257753 L15.6349672,18.0643465 C15.5497838,18.1136421 15.4531269,18.1391238 15.3544023,18.1391238"/>
      <path fill="#3F873F" d="M16.1775461,16.0203649 C15.0114607,16.0203649 14.767117,15.4851169 14.767117,15.0361196 C14.767117,14.9933611 14.8014705,14.9593411 14.8441623,14.9593411 L15.1886981,14.9593411 C15.2271874,14.9593411 15.259273,14.9870241 15.2652765,15.0245794 C15.3172404,15.375319 15.4723316,15.5523564 16.1775461,15.5523564 C16.7390096,15.5523564 16.9779501,15.4253484 16.9779501,15.1275067 C16.9779501,14.9558057 16.9101769,14.8283307 16.0377307,14.7429472 C15.3086354,14.6708381 14.8576369,14.5096767 14.8576369,13.9263338 C14.8576369,13.3886844 15.3108367,13.0680292 16.0706834,13.0680292 C16.9243852,13.0680292 17.3468336,13.3643367 17.4003984,14.0000438 C17.4023329,14.0219901 17.394595,14.0430024 17.3799864,14.0594121 C17.3654445,14.074621 17.3450992,14.0839598 17.3236199,14.0839598 L16.9777499,14.0839598 C16.9418621,14.0839598 16.9101769,14.0584781 16.9029059,14.0237244 C16.8199905,13.6546407 16.6181385,13.5367047 16.0706834,13.5367047 C15.457723,13.5367047 15.3864811,13.750297 15.3864811,13.910191 C15.3864811,14.1040383 15.4705972,14.1604714 16.2982171,14.2700692 C17.1171652,14.3782661 17.5061272,14.531623 17.5061272,15.1071614 C17.5061272,15.6878361 17.0219759,16.0203649 16.1775461,16.0203649"/>
      <path fill="#3F873F" fill-rule="nonzero" d="M19.4224871,12.7596613 L19.5121399,12.7596613 C19.5853162,12.7596613 19.5990577,12.7081643 19.5990577,12.6782134 C19.5990577,12.5993671 19.5446257,12.5993671 19.5148081,12.5993671 L19.4224871,12.5993671 L19.4224871,12.7596613 Z M19.3136231,12.5069794 L19.5121399,12.5069794 C19.5800464,12.5069794 19.7132581,12.5069794 19.7132581,12.6592022 C19.7132581,12.7651978 19.6453515,12.7868773 19.6043941,12.8004853 C19.6833739,12.8058885 19.6887104,12.8575855 19.6995167,12.9308953 C19.7050533,12.9770558 19.7132581,13.0559688 19.7294677,13.0831181 L19.6073291,13.0831181 C19.6043941,13.0559688 19.5853162,12.9091491 19.5853162,12.9010778 C19.5773782,12.8684585 19.5663051,12.8521823 19.5256144,12.8521823 L19.4251554,12.8521823 L19.4251554,13.0831181 L19.3136231,13.0831181 L19.3136231,12.5069794 Z M19.0760168,12.7936813 C19.0760168,13.0328885 19.2689302,13.225802 19.5052691,13.225802 C19.7444764,13.225802 19.9374566,13.0287528 19.9374566,12.7936813 C19.9374566,12.5545407 19.7418082,12.3643622 19.5052691,12.3643622 C19.2715984,12.3643622 19.0760168,12.5518058 19.0760168,12.7936813 Z M20.0201719,12.7950821 C20.0201719,13.0777149 19.7891694,13.3086507 19.5066033,13.3086507 C19.2266387,13.3086507 18.9930347,13.0804498 18.9930347,12.7950821 C18.9930347,12.5043111 19.2321753,12.2813801 19.5066033,12.2813801 C19.7838329,12.2813801 20.0201719,12.5043111 20.0201719,12.7950821 Z"/>
      <path fill="#333" d="M6.63524967,6.10689016 C6.63524967,5.98408465 6.57061167,5.8712183 6.46461606,5.81038253 L3.63928839,4.18442665 C3.59152697,4.15627677 3.53796215,4.14173488 3.48379697,4.13946688 L3.4545798,4.13946688 C3.40054803,4.14173488 3.34704992,4.15627677 3.29855474,4.18442665 L0.473227094,5.81038253 C0.367898506,5.8712183 0.302393329,5.98408465 0.302393329,6.10689016 L0.308596976,10.4851307 C0.308596976,10.5459665 0.340215565,10.6026665 0.393847094,10.632484 C0.446277917,10.6639693 0.51104933,10.6639693 0.563280035,10.632484 L2.2424005,9.67105216 C2.34859627,9.60801513 2.41323427,9.496683 2.41323427,9.37501145 L2.41323427,7.32947558 C2.41323427,7.20753726 2.47780557,7.09467087 2.5836011,7.03403526 L3.29855474,6.62225984 C3.35185274,6.59150842 3.41008697,6.57643287 3.46958863,6.57643287 C3.52782286,6.57643287 3.58759133,6.59150842 3.63928839,6.62225984 L4.35404192,7.03403526 C4.45983745,7.09467087 4.52467557,7.20753726 4.52467557,7.32947558 L4.52467557,9.37501145 C4.52467557,9.496683 4.59018074,9.60868216 4.69570945,9.67105216 L6.37436296,10.632484 C6.42699393,10.6639693 6.49276593,10.6639693 6.54492993,10.632484 C6.59696051,10.6026665 6.62971309,10.5459665 6.62971309,10.4851307 L6.63524967,6.10689016 Z"/>
      <path fill="#333" fill-rule="nonzero" d="M19.9675342,8.38664372 C19.9675342,8.41706166 19.951258,8.44527824 19.9247758,8.46042043 L18.9544053,9.01981598 C18.9280565,9.03495824 18.8955707,9.03495824 18.8692219,9.01981598 L17.898718,8.46042043 C17.8723025,8.44527824 17.8560929,8.41706166 17.8560929,8.38664372 L17.8560929,7.26605166 C17.8560929,7.23563372 17.8723025,7.20741714 17.8986513,7.19214153 L18.8690885,6.63167869 C18.8955707,6.61640308 18.9280565,6.61640308 18.954472,6.63167869 L19.9249092,7.19214153 C19.951258,7.20741714 19.9675342,7.23563372 19.9675342,7.26605166 L19.9675342,8.38664372 Z M20.2297551,0.0882985768 C20.176924,0.0588812823 20.1123527,0.0595483412 20.0601887,0.0900996355 C20.007958,0.120784341 19.9759392,0.176817283 19.9759392,0.237319517 L19.9759392,4.57320187 C19.9759392,4.61576023 19.9531258,4.6552501 19.9163042,4.67659599 C19.8793491,4.69800857 19.8337889,4.69800857 19.7967672,4.67659599 L19.0891512,4.26895634 C18.9836225,4.20805387 18.8537462,4.20818728 18.7482175,4.26902305 L15.9217558,5.90018199 C15.8160937,5.96121787 15.7509887,6.0738174 15.7509887,6.19575572 L15.7509887,9.45874069 C15.7509887,9.58061237 15.8160937,9.69334527 15.9216891,9.75438114 L18.7479506,11.3868075 C18.8536127,11.4477767 18.9836892,11.4477767 19.0893513,11.3868075 L21.9161465,9.75438114 C22.0216752,9.69334527 22.0867802,9.58061237 22.0867802,9.45874069 L22.0867802,1.32489223 C22.0867802,1.20121952 22.0198075,1.08708575 21.9117439,1.02678363 L20.2297551,0.0882985768 Z"/>
      <path fill="#333" d="M29.6413147,7.23675442 C29.7464432,7.17565184 29.8111479,7.06325242 29.8111479,6.94164758 L29.8111479,6.15091603 C29.8111479,6.02931123 29.7464432,5.91677841 29.6411813,5.85574253 L26.8329303,4.22525065 C26.7272683,4.16381453 26.5967915,4.16374783 26.4909293,4.2247837 L23.665535,5.85594265 C23.5599395,5.91691183 23.4949013,6.02951135 23.4949013,6.15144971 L23.4949013,9.41363416 C23.4949013,9.53630629 23.5608067,9.64950616 23.6672693,9.71014184 L26.47512,11.3100824 C26.5787143,11.3691838 26.7055888,11.3698509 26.8098501,11.3119502 L28.5081819,10.3679285 C28.5620135,10.3379776 28.5955666,10.2814777 28.5959001,10.2199749 C28.596367,10.158472 28.5636145,10.1014385 28.5102497,10.0708205 L25.6669115,8.43886113 C25.6138137,8.40844326 25.5811945,8.35187668 25.5811945,8.29084074 L25.5811945,7.26850642 C25.5811945,7.20753726 25.6136803,7.15110403 25.666578,7.12068616 L26.5514983,6.61051958 C26.6041292,6.58010171 26.6691674,6.58010171 26.7217983,6.61051958 L27.6072523,7.12068616 C27.6600833,7.15110403 27.6926357,7.20753726 27.6926357,7.26850642 L27.6926357,8.07284597 C27.6926357,8.13394855 27.725255,8.19038171 27.7781527,8.22079958 C27.8310505,8.25128416 27.8962221,8.25108403 27.9489865,8.22046603 L29.6413147,7.23675442 Z"/>
      <path fill="#3F873F" d="M26.620272,7.08395793 C26.6405506,7.07221767 26.6655653,7.07221767 26.6857772,7.08395793 L27.2281627,7.39680851 C27.2484413,7.40861548 27.2609153,7.43016148 27.2609153,7.45364193 L27.2609153,8.07981006 C27.2609153,8.10329051 27.2484413,8.12483651 27.2281627,8.13657677 L26.6857772,8.44949406 C26.6655653,8.46116754 26.6405506,8.46116754 26.620272,8.44949406 L26.0783534,8.13657677 C26.0580748,8.12483651 26.0456675,8.10329051 26.0456675,8.07981006 L26.0456675,7.45364193 C26.0456675,7.43016148 26.0580748,7.40861548 26.0783534,7.39680851 L26.620272,7.08395793 Z"/>
      <path fill="url(#app_node-a)" d="M11.0238363,4.24182706 L8.21325071,5.86371388 C8.10812226,5.92434953 8.04341755,6.0363487 8.04341755,6.15768671 L8.04341755,9.40406187 C8.04341755,9.52526645 8.10812226,9.63726568 8.21311729,9.69803471 L11.023703,11.3212557 C11.1287647,11.3818913 11.2581741,11.3818913 11.3632359,11.3212557 L14.1732212,9.69803471 C14.2781495,9.63726568 14.3428543,9.52526645 14.3428543,9.40406187 L14.3428543,6.15762 C14.3428543,6.0363487 14.2781495,5.92434953 14.1730877,5.86371388 L11.3631692,4.24182706 C11.3106717,4.21154259 11.2521039,4.19640035 11.1934694,4.19640035 C11.134835,4.19640035 11.0762672,4.21154259 11.0238363,4.24182706"/>
      <path fill="url(#app_node-b)" d="M8.11325858,9.61024974 C8.14000768,9.64527032 8.17376084,9.675288 8.21311729,9.69803471 L10.6259357,11.0915206 L11.025504,11.3212557 C11.0854726,11.3559427 11.1539795,11.370618 11.2212857,11.365615 C11.2438323,11.3637473 11.2661788,11.3596783 11.2880583,11.3532745 L14.2518007,5.9263507 C14.2291207,5.90200306 14.2027052,5.88079059 14.1730877,5.86371388 L12.3456801,4.80889377 L11.3601674,4.24182706 C11.332351,4.22575094 11.3026003,4.21421083 11.2719823,4.20673977 L8.11325858,9.61024974 Z"/>
      <path fill="url(#app_node-c)" d="M11.0238363,4.24182706 L8.22125542,5.85911117 L11.2424983,11.3632137 C11.2843895,11.3570767 11.3254137,11.3430685 11.3632359,11.3212557 L14.1732212,9.69803471 C14.2598721,9.64787187 14.3191737,9.56262174 14.3371175,9.46616503 L11.2567066,4.203738 C11.2340266,4.199202 11.2108797,4.196934 11.1877327,4.196934 C11.1783939,4.196934 11.1689883,4.19726753 11.1596495,4.198068 C11.1125552,4.20273741 11.0661946,4.217346 11.0238363,4.24182706 Z"/>
    </g>
  </g>
</svg>
