<svg xmlns="http://www.w3.org/2000/svg" width="36" height="36" viewBox="0 0 36 36">
  <defs>
    <linearGradient id="app_dotnet-a" x1="49.997%" x2="49.997%" y1="-19.516%" y2="129.625%">
      <stop offset="0%" stop-color="#0994DC"/>
      <stop offset="35.001%" stop-color="#66CEF5"/>
      <stop offset="35.001%" stop-color="#66CEF5"/>
      <stop offset="84.616%" stop-color="#127BCA"/>
      <stop offset="84.616%" stop-color="#127BCA"/>
      <stop offset="100%" stop-color="#127BCA"/>
    </linearGradient>
    <linearGradient id="app_dotnet-b" x1="50.001%" x2="50.001%" y1="-19.516%" y2="129.624%">
      <stop offset="0%" stop-color="#0E76BC"/>
      <stop offset="36%" stop-color="#36AEE8"/>
      <stop offset="36%" stop-color="#36AEE8"/>
      <stop offset="84.616%" stop-color="#00ADEF"/>
      <stop offset="84.616%" stop-color="#00ADEF"/>
      <stop offset="100%" stop-color="#00ADEF"/>
    </linearGradient>
    <linearGradient id="app_dotnet-c" x1="49.999%" x2="49.999%" y1="110.922%" y2="-6.214%">
      <stop offset="0%" stop-color="#1C63B7"/>
      <stop offset="50%" stop-color="#33BDF2"/>
      <stop offset="100%" stop-color="#33BDF2" stop-opacity=".42"/>
    </linearGradient>
    <linearGradient id="app_dotnet-d" x1="50.001%" x2="50.001%" y1="-19.515%" y2="129.627%">
      <stop offset="0%" stop-color="#166AB8"/>
      <stop offset="39.999%" stop-color="#36AEE8"/>
      <stop offset="39.999%" stop-color="#36AEE8"/>
      <stop offset="84.616%" stop-color="#0798DD"/>
      <stop offset="84.616%" stop-color="#0798DD"/>
      <stop offset="100%" stop-color="#0798DD"/>
    </linearGradient>
    <linearGradient id="app_dotnet-e" x1="49.999%" x2="49.999%" y1="-19.521%" y2="129.627%">
      <stop offset="0%" stop-color="#124379"/>
      <stop offset="39%" stop-color="#1487CB"/>
      <stop offset="39%" stop-color="#1487CB"/>
      <stop offset="78.023%" stop-color="#165197"/>
      <stop offset="78.023%" stop-color="#165197"/>
      <stop offset="100%" stop-color="#165197"/>
    </linearGradient>
    <linearGradient id="app_dotnet-f" x1="0%" y1="50.001%" y2="50.001%">
      <stop offset="0%" stop-color="#33BDF2" stop-opacity=".698"/>
      <stop offset="100%" stop-color="#1DACD8"/>
    </linearGradient>
    <linearGradient id="app_dotnet-g" x1="50.01%" x2="50.01%" y1="94.686%" y2="-3.025%">
      <stop offset="0%" stop-color="#136AB4"/>
      <stop offset="60%" stop-color="#59CAF5" stop-opacity=".549"/>
      <stop offset="100%" stop-color="#59CAF5" stop-opacity=".235"/>
    </linearGradient>
    <linearGradient id="app_dotnet-h" x1="-.001%" x2="99.999%" y1="50%" y2="50%">
      <stop offset="0%" stop-color="#05A1E6" stop-opacity=".247"/>
      <stop offset="100%" stop-color="#05A1E6"/>
    </linearGradient>
    <linearGradient id="app_dotnet-i" x1="49.998%" x2="49.998%" y1="124.314%" y2="-9.421%">
      <stop offset="0%" stop-color="#318ED5"/>
      <stop offset="100%" stop-color="#38A7E4"/>
    </linearGradient>
    <linearGradient id="app_dotnet-j" x1="49.999%" x2="49.999%" y1="91.2%" y2="-76.785%">
      <stop offset="0%" stop-color="#05A1E6"/>
      <stop offset="100%" stop-color="#05A1E6" stop-opacity=".549"/>
    </linearGradient>
    <linearGradient id="app_dotnet-k" x1="50%" x2="50%" y1="100.01%" y2=".01%">
      <stop offset="0%" stop-color="#1959A6"/>
      <stop offset="50%" stop-color="#05A1E6"/>
      <stop offset="50%" stop-color="#05A1E6"/>
      <stop offset="91.759%" stop-color="#7EC5EA"/>
      <stop offset="100%" stop-color="#7EC5EA"/>
    </linearGradient>
    <linearGradient id="app_dotnet-l" x1="59.804%" x2="38.471%" y1="94.568%" y2="5.755%">
      <stop offset="0%" stop-color="#165096"/>
      <stop offset="100%" stop-color="#0D82CA"/>
    </linearGradient>
    <linearGradient id="app_dotnet-m" x1="49.995%" x2="49.995%" y1="76.998%" y2="-3.299%">
      <stop offset="0%" stop-color="#05A1E6"/>
      <stop offset="87.363%" stop-color="#0495D6"/>
      <stop offset="100%" stop-color="#0495D6"/>
    </linearGradient>
    <linearGradient id="app_dotnet-n" x1="65.263%" x2="34.263%" y1="-4.161%" y2="105.844%">
      <stop offset="0%" stop-color="#38A7E4" stop-opacity=".329"/>
      <stop offset="96.153%" stop-color="#0E88D3"/>
      <stop offset="96.153%" stop-color="#0E88D3"/>
      <stop offset="100%" stop-color="#0E88D3"/>
    </linearGradient>
    <linearGradient id="app_dotnet-o" x1="50.017%" x2="50.017%" y1="-.296%" y2="101.882%">
      <stop offset="0%" stop-color="#168CD4"/>
      <stop offset="50%" stop-color="#1C87CC"/>
      <stop offset="100%" stop-color="#154B8D"/>
    </linearGradient>
    <linearGradient id="app_dotnet-p" x1="16.674%" x2="87.813%" y1="205.565%" y2="-19.836%">
      <stop offset="0%" stop-color="#97D6EE"/>
      <stop offset="70.329%" stop-color="#55C1EA"/>
      <stop offset="100%" stop-color="#55C1EA"/>
    </linearGradient>
    <linearGradient id="app_dotnet-q" x1="6.89%" x2="75.783%" y1="6.3%" y2="116.771%">
      <stop offset="0%" stop-color="#7ACCEC"/>
      <stop offset="100%" stop-color="#3FB7ED"/>
    </linearGradient>
    <linearGradient id="app_dotnet-r" x1="49.997%" x2="49.997%" y1="6.363%" y2="127.961%">
      <stop offset="0%" stop-color="#1DA7E7"/>
      <stop offset="100%" stop-color="#37ABE7" stop-opacity="0"/>
    </linearGradient>
  </defs>
  <g fill="none">
    <rect width="36" height="36"/>
    <g transform="translate(5 5)">
      <path fill="#2B2C2F" d="M19.2967896 1.1676015C19.2967896 1.12342923 19.2846692 1.09185262 19.259753 1.07121277 19.2321526 1.04899743 19.1844125 1.03715203 19.1179582 1.03715203L19.0224198 1.03715203 19.0224198 1.29973483 19.1377228 1.29973483C19.244198 1.29973483 19.2967896 1.25556257 19.2967896 1.1676015L19.2967896 1.1676015zM19.4457533 1.7150908L19.3144619 1.7150908 19.2307355 1.53034087C19.1882137 1.43776169 19.1427661 1.39147209 19.0931171 1.39147209L19.0224198 1.39147209 19.0224198 1.7150908 18.9142523 1.7150908 18.9142523.944972968 19.1309873.944972968C19.2273678.944972968 19.2997155.965846216 19.3494062 1.00937661 19.3914862 1.04681341 19.4125262 1.09481188 19.4125262 1.15457239 19.4125262 1.20759744 19.3953541 1.25220318 19.3607515 1.28919818 19.3270825 1.32666833 19.2786755 1.35191795 19.2168311 1.3649804L19.2168311 1.36831479C19.259753 1.37841797 19.3026748 1.4255495 19.3443213 1.51055131L19.4457533 1.7155076 19.4457533 1.7150908zM19.6856122 1.33760511C19.6856122 1.18611567 19.6338709 1.058192 19.5307551.956760018 19.4272391.855361378 19.3009909.804453659 19.1520273.804453659 18.9984122.804453659 18.8705219.855361378 18.76909.957635294 18.667658 1.06030934 18.617192 1.18735773 18.617192 1.33760511 18.617192 1.49122021 18.6697753 1.61955234 18.7741415 1.72182626 18.8772574 1.82406683 19.0034972 1.87456608 19.1520273 1.87456608 19.2997155 1.87456608 19.4259554 1.82365836 19.5299132 1.72010905 19.6338709 1.61826861 19.6856122 1.49037828 19.6856122 1.33760511L19.6856122 1.33760511zM19.7584019 1.33427072C19.7584019 1.504316 19.6999251 1.64695265 19.5825298 1.7618222 19.4651094 1.8775587 19.321189 1.93519354 19.1490681 1.93519354 18.9757217 1.93519354 18.8318097 1.87840063 18.7173153 1.76686546 18.6028875 1.6536881 18.5460613 1.51145159 18.5460613 1.33892219 18.5460613 1.17016064 18.6041295 1.02835759 18.7202745.911812511 18.8364195.795667556 18.9811735.737599245 19.1541446.737599245 19.3237148.737599245 19.4659513.793141759 19.5812543.903801652 19.6994832 1.01742081 19.7584019 1.16049926 19.7584019 1.33427072L19.7584019 1.33427072zM3.29939537 3.48165616L2.92615267 3.48165616 2.92615267 1.34561596C2.92615267 1.17688776 2.93726451.971531342 2.9571291.729146581L2.94870978.729146581C2.91376543.870941291 2.88178035.973623669 2.85360479 1.03718538L1.76875439 3.48165616 1.58696373 3.48165616.49999099 1.05485762C.469355497.987086247.437307057.87808521.404887669.729146581L.396810122.729146581C.408256231.85663678.414653247 1.0632686.414653247 1.34982562L.414653247 3.48165616.0548422927 3.48165616.0548422927.300761503.547191707.300761503 1.52307025 2.51884424C1.59669597 2.68592192 1.6442643 2.81300366 1.66739159 2.89968933L1.68287815 2.89968933C1.74640317 2.72588452 1.79690076 2.59542672 1.83521118 2.50958298L2.83209802.300761503 3.2991953.300761503 3.2991953 3.48165616 3.29939537 3.48165616zM4.90252633 3.48155614L4.1404723 3.48155614 4.1404723 1.21001487 4.90252633 1.21001487 4.90252633 3.48155614 4.90252633 3.48155614zM5.03430209.395733115C5.03430209.462654216 4.98478985.518605193 4.88660605.564494662 4.79027876.610342452 4.67095551.633508091 4.53119333.633508091 4.39503907.633508091 4.2765565.611284416 4.17937102.567020459 4.08211547.522414727 4.03430209.465588475 4.03430209.395733115 4.03430209.330087416 4.08239569.27413644 4.17937102.228688777 4.2765565.183241112 4.39503907.161359213 4.53119333.161359213 4.67088544.161359213 4.79027876.183241112 4.88660605.228688777 4.98478985.27413644 5.03430209.330087416 5.03430209.395733115L5.03430209.395733115zM6.71439718 3.37645633C6.54018391 3.48334003 6.3323017 3.53636508 6.09200093 3.53636508 5.76633156 3.53636508 5.50414889 3.42823099 5.30384406 3.21233791 5.10942443 3.00277183 5.01139351 2.73221152 5.01139351 2.40060695 5.01139351 2.02858131 5.11784375 1.72731132 5.33245309 1.49838914 5.54582037 1.26903348 5.8328192 1.15457239 6.19387472 1.15457239 6.39122027 1.15457239 6.56627546 1.1932846 6.71944876 1.26987541L6.71944876 1.64315145C6.54987863 1.52404723 6.37061377 1.46512865 6.17828646 1.46512865 5.94683848 1.46512865 5.75875417 1.54592913 5.61271647 1.70711329 5.46078522 1.87207364 5.38379427 2.0925765 5.38379427 2.36778827 5.38379427 2.63205494 5.45408311 2.84118755 5.59379383 2.99563625 5.73391301 3.14921801 5.9203468 3.2262423 6.15556263 3.2262423 6.35418359 3.2262423 6.54018391 3.16099672 6.71439718 3.03098906L6.71439718 3.37645633 6.71439718 3.37645633zM8.44941926 1.57854774C8.38545743 1.52933223 8.29332004 1.50532465 8.17169002 1.50532465 8.02400178 1.50532465 7.89984597 1.57141216 7.79928926 1.70478755 7.6852283 1.85375952 7.62843538 2.05995788 7.62843538 2.32338261L7.62843538 3.4814561 7.26485407 3.4814561 7.26485407 1.20991485 7.62843538 1.20991485 7.62843538 1.67829586 7.63718814 1.67829586C7.69064667 1.51249358 7.77313102 1.38497004 7.88338245 1.29451652 7.98646495 1.21204051 8.10304337 1.1703607 8.23137551 1.1703607 8.32816436 1.1703607 8.40013706 1.18079733 8.44935257 1.2013288L8.44935257 1.57838103 8.44941926 1.57854774zM10.4758165 2.34990764C10.4758165 2.05914928 10.4101709 1.83696256 10.2788795 1.68462286 10.1513893 1.53818501 9.97336645 1.46496193 9.74404414 1.46496193 9.51804788 1.46496193 9.33669904 1.53902695 9.20116463 1.68714865 9.05767773 1.84537355 8.98614683 2.06881067 8.98614683 2.35876876 8.98614683 2.63061281 9.05431833 2.84394675 9.19193672 2.99627812 9.32867984 3.14945142 9.5129963 3.22604223 9.74404414 3.22604223 9.98306118 3.22604223 10.1661022 3.14820936 10.2915001 2.99335219 10.4143805 2.84185443 10.4758165 2.62764521 10.4758165 2.34990764M10.8486591 2.33712027C10.8486591 2.69901772 10.7464185 2.98981775 10.5427377 3.20779481 10.3382315 3.4266138 10.0630197 3.53603164 9.71711065 3.53603164 9.37625317 3.53603164 9.10480925 3.4266138 8.90578816 3.20779481 8.71093505 2.99695333 8.61290415 2.71837382 8.61290415 2.37206462 8.61290415 1.97690668 8.7235557 1.67223562 8.94574243 1.45594242 9.15109884 1.25522913 9.42587716 1.15423062 9.7701357 1.15423062 10.1088675 1.15423062 10.373576 1.25983892 10.564186 1.46900487 10.7531456 1.67940455 10.8486591 1.96892917 10.8486591 2.33712027M12.6517776 2.8738395C12.6517776 3.05983983 12.5823641 3.21385506 12.4430618 3.33673547 12.291164 3.46971073 12.0824398 3.53619836 11.819857 3.53619836 11.6048059 3.53619836 11.4162797 3.49118417 11.256371 3.39944691L11.256371 3.00849863C11.4343938 3.15326095 11.6308891 3.22607557 11.8467822 3.22607557 12.1346229 3.22607557 12.2789434 3.12003381 12.2789434 2.90878386 12.2789434 2.81997253 12.2473001 2.74634931 12.1834383 2.68952306 12.1194681 2.63145475 11.9953124 2.56203286 11.8105958 2.48079891 11.6203858 2.39748097 11.4848847 2.31207071 11.4049345 2.22326771 11.3089876 2.11805953 11.2605807 1.98131641 11.2605807 1.81298833 11.2605807 1.62446223 11.3359211 1.46748773 11.4848847 1.34252332 11.6342568 1.21711711 11.8261507 1.15440567 12.0618 1.15440567 12.2423486 1.15440567 12.4039412 1.18975015 12.5474198 1.26088092L12.5474198 1.62698802C12.3976141 1.51882892 12.2263602 1.46496193 12.0319405 1.46496193 11.9115942 1.46496193 11.8148054 1.49492138 11.7428327 1.55333146 11.6700432 1.61308364 11.6334149 1.68927433 11.6334149 1.78225365 11.6334149 1.88284369 11.6640496 1.96111838 11.7247521 2.01706935 11.7786107 2.06884402 11.8930717 2.13196391 12.0656095 2.20558713 12.2595874 2.28682108 12.3997316 2.37098929 12.4851418 2.45723314 12.5958267 2.56624252 12.6517776 2.7051113 12.6517776 2.8738395M14.8738034 2.34990764C14.8738034 2.05914928 14.8081576 1.83696256 14.6764578 1.68462286 14.549376 1.53818501 14.3709448 1.46496193 14.1420309 1.46496193 13.9160346 1.46496193 13.7346775 1.53902695 13.5983345 1.68714865 13.4552644 1.84537355 13.3841253 2.06881067 13.3841253 2.35876876 13.3841253 2.63061281 13.4522968 2.84394675 13.5886397 2.99627812 13.7271084 3.14945142 13.9114248 3.22604223 14.1420309 3.22604223 14.3814481 3.22604223 14.5640806 3.14820936 14.6894869 2.99335219 14.8123589 2.84185443 14.8738034 2.62764521 14.8738034 2.34990764M15.2474795 2.33712027C15.2474795 2.69901772 15.1443969 2.98981775 14.940291 3.20779481 14.7366184 3.4266138 14.4614066 3.53603164 14.1154975 3.53603164 13.77424 3.53603164 13.502796 3.4266138 13.3037665 3.20779481 13.1089219 2.99695333 13.0108826 2.71837382 13.0108826 2.37206462 13.0108826 1.97690668 13.1223844 1.67223562 13.3433291 1.45594242 13.5486854 1.25522913 13.8238972 1.15423062 14.1685226 1.15423062 14.5072877 1.15423062 14.7715627 1.25983892 14.9617644 1.46900487 15.1511325 1.67940455 15.2474795 1.96892917 15.2474795 2.33712027M16.8496263.438179833C16.7780871.398625694 16.6985788.378427659 16.6080835.378427659 16.3534782.378427659 16.2272301.538736541 16.2272301.859837789L16.2272301 1.20994818 16.7595729 1.20994818 16.7595729 1.51798699 16.2272301 1.51798699 16.2272301 3.48148945 15.8632486 3.48148945 15.8632486 1.51798699 15.4769435 1.51798699 15.4769435 1.20994818 15.8632486 1.20994818 15.8632486.841757089C15.8632486.591761593 15.9398311.395666427 16.0955386.254271843 16.2289472.13139143 16.3921904.0703888616 16.5862016.0703888616 16.6985788.0703888616 16.7861063.0838597759 16.8496263.109951336L16.8496263.438179833 16.8496263.438179833zM18.2846622 3.45866558C18.1988185 3.50791444 18.0843574 3.53232214 17.9429627 3.53232214 17.5465627 3.53232214 17.3483752 3.30886001 17.3483752 2.86195243L17.3483752 1.51832042 16.9587024 1.51832042 16.9587024 1.20984816 17.3483752 1.20984816 17.3483752.655656741C17.4645203.619028525 17.585275.579065924 17.7127985.537827921L17.7127985 1.20984816 18.2846622 1.20984816 18.2846622 1.51832042 17.7127985 1.51832042 17.7127985 2.80011626C17.7127985 2.95244763 17.7377063 3.06142366 17.7897895 3.12454356 17.842406 3.1897808 17.9282498 3.22176589 18.0494463 3.22176589 18.1399082 3.22176589 18.2181745 3.19752491 18.2846622 3.1485428L18.2846622 3.45866558 18.2846622 3.45866558z" transform="translate(2.75 12.004)"/>
      <g fill="#2B2C2F" transform="translate(0 16.505)">
        <path d="M1.38030107 7.84565722C1.38030107 8.02364667 1.3167752 8.1776619 1.18841056 8.30771124 1.06048356 8.43731877.905187923 8.50256435.722992973 8.50256435.544972674 8.50256435.393480738 8.43731877.269358267 8.30771124.145202452 8.1776619.0833596181 8.02364667.0833596181 7.84565722.0833596181 7.66262451.145202452 7.50816746.269358267 7.3802438.393480738 7.25187832.544972674 7.18834996.722992973 7.18834996.905187923 7.18834996 1.06048356 7.2527536 1.18841056 7.38276959 1.3167752 7.51281893 1.38030107 7.66723429 1.38030107 7.84565722M9.52118221 8.3687805L8.33534162 8.3687805 4.03087434 1.7212344C3.93028346 1.56132565 3.84359695 1.38752085 3.76997124 1.19774434L3.73458925 1.19774434C3.76522474 1.3757338 3.78091219 1.75782928 3.78091219 2.34319719L3.78091219 8.3687805 2.80335061 8.3687805 2.80335061.0287340604 4.07211401.0287340604 8.24781403 6.57151379C8.41404977 6.83113731 8.52763559 7.0171293 8.58530378 7.12907293L8.60852776 7.12907293C8.56981555 6.88920563 8.54965086 6.48017665 8.54965086 5.90282794L8.54965086.0287340604 9.52129058.0287340604 9.52129058 8.3687805 9.52118221 8.3687805z"/>
        <polygon points="15.788 8.369 11.368 8.369 11.368 .029 15.596 .029 15.596 .912 12.345 .912 12.345 3.687 15.358 3.687 15.358 4.571 12.345 4.571 12.345 7.485 15.788 7.485"/>
        <polygon points="22.493 .913 20.09 .913 20.09 8.369 19.113 8.369 19.113 .913 16.706 .913 16.706 .028 22.493 .028"/>
      </g>
      <g transform="translate(.083)">
        <path fill="url(#app_dotnet-a)" d="M9.10633473,2.12878792 C10.0493654,5.0125889 10.4066364,10.1570277 13.1642143,10.1570277 L13.1642143,10.1570277 C13.3741971,10.1570277 13.586289,10.1364879 13.7992228,10.0959918 L13.7992228,10.0959918 C11.292449,9.51149915 10.9953554,4.42301966 9.46570639,1.78789709 L9.46570639,1.78789709 C9.34576856,1.89689813 9.22668101,2.01051729 9.10633473,2.12878792"/>
        <path fill="url(#app_dotnet-b)" d="M9.46570639,1.78789709 C10.9953554,4.42301966 11.292449,9.51149915 13.7992228,10.0959918 L13.7992228,10.0959918 C13.9961599,10.0598054 14.1935222,10.0050965 14.3913012,9.93608303 L14.3913012,9.93608303 C12.141225,8.83356038 11.5192623,3.89238567 9.78215616,1.51352724 L9.78215616,1.51352724 C9.67694799,1.60108819 9.57133135,1.69282545 9.46570639,1.78789709"/>
        <path fill="#14559A" d="M11.6696763,0.220761277 C11.4601103,0.220761277 11.2475849,0.241292751 11.034251,0.281797189 C10.47625,0.386997028 9.90943797,0.627264455 9.33797444,0.990845766 C9.49408199,1.144861 9.64261216,1.32116659 9.78232288,1.5134939 C10.3634728,1.03124183 10.9408298,0.674829453 11.5160946,0.460620243 C11.7319543,0.380670032 11.9470054,0.320509396 12.1628652,0.280955257 C12.0071661,0.241359439 11.8430476,0.220761277 11.6696763,0.220761277"/>
        <path fill="url(#app_dotnet-c)" d="M16.1477717,8.91980425 C16.3779526,8.73677154 16.6085587,8.53434104 16.8395815,8.31343805 C15.8813961,5.4430663 15.5384379,0.225004281 12.7614956,0.225004281 C12.5628746,0.225004281 12.3625698,0.243518452 12.1626818,0.280546795 C14.6921794,0.909678505 15.0162066,6.41304716 16.1477717,8.91980425"/>
        <path fill="#3092C4" d="M12.1627652,0.280746858 C12.007066,0.241192719 11.8429559,0.220594557 11.6695763,0.220594557 L12.7615873,0.224595819 C12.562958,0.224595819 12.3626531,0.24310999 12.1627652,0.280580138"/>
        <path fill="#1969BC" d="M16.099273,9.52957985 C15.9907055,9.42606389 15.887623,9.31244472 15.786191,9.19124817 C15.3190854,9.52200246 14.853672,9.77280655 14.3912178,9.93608303 C14.5557364,10.016475 14.7282658,10.0762356 14.9113402,10.1132639 C15.0531349,10.1422147 15.2000145,10.1570277 15.3544382,10.1570277 C15.8733101,10.1570277 16.2835895,10.0955917 16.632858,9.92810552 C16.440564,9.82414774 16.2642334,9.68948861 16.099273,9.52957985"/>
        <path fill="url(#app_dotnet-d)" d="M11.5158946,0.461095392 C13.7815506,1.64609404 13.9784877,7.0122861 15.786291,9.19124817 L15.786291,9.19124817 C15.9074876,9.10583791 16.027417,9.01535104 16.1473465,8.91980425 L16.1473465,8.91980425 C15.0157897,6.41304716 14.6921794,0.909236699 12.1631069,0.280546795 L12.1631069,0.280546795 C11.9472306,0.320942865 11.7317709,0.38073672 11.5158946,0.461095392"/>
        <path fill="url(#app_dotnet-e)" d="M9.78215616,1.51352724 C11.5192623,3.89238567 12.141225,8.83356038 14.3913012,9.93608303 L14.3913012,9.93608303 C14.853772,9.77280655 15.3191938,9.52200246 15.786291,9.19124817 L15.786291,9.19124817 C13.9784877,7.0122861 13.7815506,1.64609404 11.5158946,0.461095392 L11.5158946,0.461095392 C10.9406465,0.674862796 10.3632977,1.03127518 9.78215616,1.51352724"/>
        <path fill="url(#app_dotnet-f)" d="M7.99492595,2.05933268 C7.72265676,2.67500181 7.44450239,3.48419863 7.10827137,4.54044002 C7.77694054,3.59822625 8.44350906,2.7864953 9.10628472,2.12878792 C9.01497259,1.84809107 8.916925,1.58930114 8.81130003,1.35867009 C8.54029791,1.56614383 8.2671868,1.79970915 7.99492595,2.05933268"/>
        <path fill="#2B74B1" d="M9.0527345,1.18115577 C8.97277595,1.23838215 8.89241728,1.29689226 8.81162513,1.35873677 C8.91723344,1.58934281 9.01485588,1.84815775 9.10619302,2.12882125 C9.22651429,2.01099244 9.34601864,1.89696482 9.46553133,1.78796377 C9.33719919,1.56745258 9.2008562,1.36378002 9.0527345,1.18115577"/>
        <path fill="#125A9E" d="M9.33797444,0.990845766 C9.24286945,1.05103974 9.14820626,1.11455978 9.05266781,1.1810474 C9.20078952,1.36368 9.3371325,1.56735254 9.46590645,1.78829721 C9.57153976,1.69275876 9.67714805,1.60061303 9.78235623,1.5134939 C9.6426455,1.32119994 9.49411534,1.144861 9.33797444,0.990845766"/>
        <path fill="url(#app_dotnet-g)" d="M24.7916723,0.00115869869 C23.5102849,4.94273354 20.8339243,8.91182673 18.5901585,9.91251726 L18.5859071,9.91251726 C18.5450942,9.93103144 18.5046899,9.94787008 18.4647189,9.96425858 C18.4592172,9.96759297 18.4542156,9.96800977 18.4499726,9.97001039 C18.4381856,9.9747619 18.4272488,9.97842972 18.4154618,9.98313954 C18.40996,9.98647392 18.4049585,9.9875576 18.3999152,9.98955822 C18.3809925,9.99631036 18.3624617,10.0020205 18.3439475,10.0094228 C18.335945,10.0127572 18.3283926,10.0148412 18.3207819,10.0175087 C18.3123626,10.0208431 18.3026678,10.0239274 18.2930065,10.0266032 C18.2845955,10.0299376 18.2757761,10.0323551 18.266073,10.0360229 C18.2580705,10.0393573 18.2496511,10.0407744 18.242107,10.0441088 C18.2256769,10.0488603 18.2105637,10.0528615 18.1941337,10.05858 C18.1873815,10.05858 18.1811045,10.0622478 18.1739356,10.0639984 C18.1638324,10.0673327 18.1524538,10.0697502 18.1415171,10.0727511 C18.1339313,10.0760855 18.127646,10.0771692 18.1196351,10.0788364 C18.1082565,10.0821708 18.0956276,10.0852551 18.0842823,10.0879309 C18.0691359,10.0912653 18.0556733,10.0943496 18.0413605,10.0973589 C18.1427758,10.1348207 18.2484007,10.1537433 18.362445,10.1537433 C20.4900659,10.1537433 22.6353257,6.34079103 26.1848866,1.84741111e-13 L24.7911638,1.84741111e-13 L24.7916723,0.00115869869 Z"/>
        <path fill="url(#app_dotnet-h)" d="M6.64622567,0.421299511 C6.64755944,0.421299511 6.64922662,0.417965125 6.65006022,0.417965125 C6.65172741,0.417965125 6.65431156,0.417965125 6.65514516,0.414630741 L6.65781266,0.414630741 C6.66959138,0.410629479 6.6805365,0.405877981 6.69231521,0.401501601 C6.69531616,0.401501601 6.69689999,0.401501601 6.69906734,0.398167216 C6.70206828,0.398167216 6.70498588,0.394832832 6.70792013,0.394416033 C6.72054911,0.390414772 6.73316976,0.385663273 6.74495681,0.381286894 L6.74695744,0.381286894 C6.77516633,0.372875909 6.80124122,0.362439284 6.82859152,0.352677872 C6.83242606,0.352677872 6.83617724,0.349343488 6.84077869,0.349343488 C6.85215728,0.345675665 6.86394433,0.341591043 6.87570637,0.338906863 C6.88120811,0.335572479 6.88665149,0.335572479 6.89169475,0.333821927 C6.90388192,0.330154104 6.91570232,0.326069483 6.92704756,0.323385302 C6.9321325,0.323385302 6.93674228,0.320050918 6.94051014,0.319717479 C6.97964748,0.308947417 7.01835968,0.298844231 7.05749703,0.289416258 C7.06299876,0.289416258 7.06760021,0.286081874 7.0734854,0.285748435 C7.08483065,0.282414051 7.09537564,0.280663498 7.10757115,0.278996306 C7.11265608,0.275661921 7.11851627,0.275661921 7.1244098,0.27391137 C7.13575504,0.270576984 7.14669182,0.270243546 7.15891234,0.267492679 L7.16691486,0.267492679 C7.19048063,0.26274118 7.21447152,0.258739919 7.23803729,0.254363539 L7.25234179,0.254363539 C7.26368705,0.251029154 7.27379023,0.250695715 7.28516882,0.248611725 C7.29142079,0.248611725 7.29778947,0.245277341 7.30368299,0.245277341 C7.3141863,0.245277341 7.32472296,0.241942956 7.33522627,0.240525842 C7.34072801,0.240525842 7.34616305,0.240525842 7.35249838,0.237191458 C7.3773062,0.233857072 7.4029893,0.232523319 7.42908086,0.230439328 C7.35544097,0.22335376 7.27969209,0.218652279 7.20268447,0.218652279 C4.8065856,0.218652279 1.50531965,4.66451247 0.0181715632,10.4220529 L0.304744425,10.4220529 C0.780681997,9.57329364 1.20822681,8.77038213 1.59916091,8.01669448 C2.64066932,3.93862525 4.76197987,1.15746497 6.64637573,0.42064097"/>
        <path fill="#0D82CA" d="M7.99495096,2.05933268 C8.26722848,1.79970915 8.54032293,1.56614383 8.81132505,1.35870342 C8.74948055,1.22320236 8.6855187,1.09779615 8.6169054,0.982901593 C8.39767794,1.24885212 8.19737312,1.59981278 7.99495096,2.05933268"/>
        <path fill="#0D82CA" d="M8.19178802,0.455001803 C8.34832905,0.586293202 8.4884399,0.766833463 8.61680537,0.983135001 C8.65720144,0.933477676 8.69803932,0.887596542 8.74052772,0.844674675 C8.56253826,0.678463932 8.37021095,0.542120941 8.1614868,0.439446899 C8.16990613,0.444115038 8.17831711,0.447866221 8.18706987,0.451567388 C8.18706987,0.451567388 8.19040425,0.454901772 8.19182136,0.454901772"/>
        <path fill="url(#app_dotnet-i)" d="M1.59905338,8.01718631 C3.78390647,3.8069504 4.81910288,1.14236854 6.64626736,0.421099447 L6.64626736,0.421099447 C4.76229331,1.15839026 2.64056178,3.9395172 1.59905338,8.01718631"/>
        <path fill="#127BCA" d="M8.740386,0.844566307 C8.69790594,0.887929981 8.65750987,0.933377645 8.616672,0.98303497 C8.68527697,1.09789619 8.7492138,1.22289394 8.81152511,1.35880346 C8.89231725,1.29695895 8.97267592,1.23844884 9.05263446,1.18122246 C8.95376163,1.05918398 8.84939538,0.945998291 8.740386,0.844566307"/>
        <path fill="url(#app_dotnet-j)" d="M2.59090613,10.4036221 L2.59090613,10.4036221 C2.57744022,10.4069565 2.5639743,10.4069565 2.55134948,10.4083736 L2.54377209,10.4083736 C2.53239352,10.4083736 2.52061063,10.411708 2.51010732,10.411708 L2.50462226,10.411708 C2.47728614,10.4150424 2.45033764,10.4150424 2.42424691,10.4171263 L2.41583093,10.4171263 C4.6271957,10.3552486 5.63798276,9.24807443 6.13959093,7.64225974 C6.52084448,6.42486755 6.83393487,5.39933584 7.10830471,4.5387895 C6.182096,5.84246724 5.25167762,7.39650726 4.31621598,9.13741453 C3.86510541,9.97651245 3.17918329,10.3270313 2.59088862,10.4019716"/>
        <path fill="url(#app_dotnet-k)" d="M2.59090613,10.4027802 L2.59090613,10.4027802 C3.17920079,10.3278399 3.86512374,9.9777295 4.31623349,9.13822312 L4.31623349,9.13822312 C5.25169429,7.39774931 6.18252946,5.84327583 7.10789625,4.53959808 L7.10789625,4.53959808 C7.44454407,3.48292323 7.72228164,2.67415988 7.99496763,2.05849074 L7.99496763,2.05849074 C6.15055272,3.81411933 4.29897971,6.73330647 2.59090613,10.4019382"/>
        <path fill="#05A1E6" d="M1.59894918,8.01728633 C1.20803175,8.77097399 0.780487769,9.57388549 0.304532692,10.4226448 L1.13817722,10.4226448 C1.24843033,9.57973734 1.40497218,8.77599223 1.59894918,8.01768646"/>
        <path fill="url(#app_dotnet-l)" d="M7.35239002,0.239342135 C7.34563788,0.239342135 7.34060297,0.242676521 7.33471777,0.242676521 L7.33471777,0.242676521 C7.32461459,0.246010905 7.31407793,0.246010905 7.30357462,0.247094581 L7.30357462,0.247094581 C7.29732264,0.247094581 7.29138744,0.247094581 7.28506045,0.250428965 L7.28506045,0.250428965 C7.27368186,0.253763349 7.26317855,0.254096788 7.25223343,0.256180778 L7.25223343,0.256180778 C7.2471485,0.256180778 7.24213858,0.256180778 7.23792893,0.259515164 L7.23792893,0.259515164 C7.21392135,0.263516425 7.19037225,0.267934485 7.1668065,0.271969091 L7.1668065,0.271969091 L7.15880397,0.271969091 L7.15880397,0.271969091 C7.1466168,0.275303475 7.13564667,0.277054027 7.12430142,0.278721219 L7.12430142,0.278721219 C7.11838289,0.282055604 7.11251437,0.282055604 7.10702931,0.283389358 L7.10702931,0.283389358 C7.09568407,0.286723742 7.08430548,0.288140856 7.0733687,0.290141487 L7.0733687,0.290141487 C7.06745017,0.293475872 7.06286538,0.293475872 7.05737199,0.29380931 L7.05737199,0.29380931 C7.01824299,0.303237283 6.97952244,0.313340469 6.9403851,0.324110531 L6.9403851,0.324110531 C6.93621712,0.324110531 6.93197412,0.327444916 6.92692252,0.328111793 L6.92692252,0.328111793 C6.91514381,0.331446177 6.90376522,0.334863922 6.89157804,0.338548417 L6.89157804,0.338548417 C6.88649311,0.341882802 6.88063293,0.341882802 6.87558133,0.343216556 L6.87558133,0.343216556 C6.86380261,0.346550941 6.85201556,0.349968685 6.84065365,0.353653181 L6.84065365,0.353653181 C6.83606887,0.353653181 6.83224267,0.356987565 6.828033,0.356987565 L6.828033,0.356987565 C6.80109951,0.367082415 6.77459116,0.3771856 6.74681573,0.385604921 L6.74681573,0.385604921 L6.74681573,0.385604921 L6.74681573,0.385604921 C6.73503702,0.389272745 6.72240803,0.394015908 6.70978739,0.398392287 L6.70978739,0.398392287 C6.70470245,0.401726672 6.70009266,0.402476908 6.69423248,0.404810978 L6.69423248,0.404810978 C6.68244543,0.408478801 6.67066672,0.413230299 6.6597216,0.417606679 L6.6597216,0.417606679 C6.65555362,0.420941064 6.65131062,0.421274503 6.64837636,0.423025055 L6.64837636,0.423025055 C4.82121606,1.14429415 3.78601964,3.80887601 1.60116655,8.01911191 L1.60116655,8.01911191 C1.40717204,8.77741769 1.25020922,9.58116279 1.14037792,10.4240369 L1.14037792,10.4240369 L1.25736314,10.4240369 C1.5868587,10.4240369 1.67985803,10.4207025 2.05900924,10.4207025 L2.05900924,10.4207025 L2.07836618,10.4207025 L2.13475479,10.4207025 L2.15411256,10.4207025 L2.15959763,10.4207025 L2.17895457,10.4207025 L2.18989552,10.4207025 L2.19747291,10.4207025 L2.21262185,10.4207025 L2.25975338,10.4207025 L2.30688407,10.4207025 L2.34643988,10.4207025 L2.35694402,10.4207025 L2.42637758,10.4207025 L2.42637758,10.4207025 C2.45246748,10.4173681 2.47940014,10.4173681 2.50675292,10.4152842 L2.50675292,10.4152842 L2.51180452,10.4152842 L2.51180452,10.4152842 C2.52318311,10.4152842 2.53452835,10.4119498 2.5454693,10.4119498 L2.5454693,10.4119498 L2.55344681,10.4119498 L2.55344681,10.4119498 C2.56563316,10.4119498 2.5795367,10.4086154 2.59300262,10.4071982 L2.59300262,10.4071982 C4.30107704,6.73856647 6.15264504,3.81937933 7.99705996,2.06375074 L7.99705996,2.06375074 C8.19989058,1.60423084 8.3997786,1.25327018 8.61860594,0.987753124 L8.61860594,0.987753124 C8.49067394,0.771459923 8.35054642,0.5905112 8.19400539,0.459186457 L8.19400539,0.459186457 C8.19400539,0.459186457 8.18975405,0.459186457 8.18942061,0.455852073 L8.18942061,0.455852073 C8.18056782,0.452184249 8.17219017,0.447766189 8.16333739,0.443398145 L8.16333739,0.443398145 C8.15447625,0.438646647 8.1469072,0.434978824 8.13767929,0.430269005 L8.13767929,0.430269005 C8.12967677,0.42693462 8.12041552,0.42251656 8.11242967,0.418148516 L8.11242967,0.418148516 C8.10149289,0.414814132 8.09264009,0.410062633 8.08297872,0.405686254 L8.08297872,0.405686254 C8.07497619,0.402351869 8.06782394,0.398934124 8.05981308,0.395591404 L8.05981308,0.395591404 C8.04338289,0.389172713 8.0269944,0.382462264 8.01142282,0.375393369 L8.01142282,0.375393369 C8.00425389,0.372058983 7.99755177,0.370308432 7.99078298,0.367640924 L7.99078298,0.367640924 C7.97943773,0.363556302 7.96637528,0.358212951 7.95459656,0.353161359 L7.95459656,0.353161359 C7.94867803,0.349826974 7.94196758,0.349160096 7.93524046,0.346742668 L7.93524046,0.346742668 C7.9180017,0.340990854 7.90115472,0.334963954 7.88515801,0.329570587 L7.88515801,0.329570587 L7.88099002,0.329570587 L7.88099002,0.329570587 C7.86162558,0.323151896 7.84269462,0.318467085 7.82291338,0.313073718 L7.82291338,0.313073718 C7.8183286,0.309739333 7.81449406,0.309739333 7.80988427,0.309072456 L7.80988427,0.309072456 C7.79261215,0.304320958 7.77746571,0.299644483 7.76106887,0.295268104 L7.76106887,0.295268104 C7.75690089,0.295268104 7.75306635,0.291933718 7.74972363,0.291933718 L7.74972363,0.291933718 C7.7101695,0.281497095 7.66934829,0.273086109 7.62811028,0.265342 L7.62811028,0.265342 C7.62385895,0.265342 7.6196993,0.262007616 7.61548964,0.262007616 L7.61548964,0.262007616 C7.5978174,0.258673231 7.58056195,0.255588925 7.56288972,0.253588295 L7.56288972,0.253588295 C7.55863838,0.250253909 7.5561376,0.250253909 7.55238641,0.250253909 L7.55238641,0.250253909 C7.53134644,0.246919525 7.51072327,0.244502096 7.4901001,0.242168026 L7.4901001,0.242168026 L7.47916332,0.242168026 L7.47916332,0.242168026 C7.46233301,0.238833642 7.44677811,0.238500203 7.43118986,0.236749652 L7.43118986,0.236749652 C7.40466482,0.240084036 7.37943187,0.24150115 7.35459904,0.24383522"/>
        <path fill="url(#app_dotnet-m)" d="M19.7865274,2.73683797 C19.3661365,4.08343758 19.0256958,5.19437955 18.7294524,6.10838442 L18.7294524,6.10838442 C19.8828911,4.52108392 21.0190827,2.52431263 22.1010072,0.219986032 L22.1010072,0.219986032 C20.8389759,0.616352681 20.1656802,1.52365544 19.7865274,2.73683797"/>
        <path fill="url(#app_dotnet-n)" d="M18.7660556,9.82835739 C18.7071454,9.85831684 18.6482351,9.88683417 18.5901585,9.91251726 C20.8339243,8.91182673 23.5102849,4.94273354 24.7916723,0.00115869869 L24.5320154,0.00115869869 C21.5880204,5.26002525 20.6411968,8.78053533 18.7660556,9.82835739"/>
        <path fill="#079AE1" d="M17.3009103,9.38653475 C17.7890475,8.79067186 18.1866979,7.77779415 18.7295775,6.10841777 C18.10338,6.96855565 17.4730396,7.70793879 16.842224,8.31094559 C16.842224,8.31427998 16.842224,8.31427998 16.8388897,8.31636397 C16.9765164,8.72876068 17.127564,9.09274211 17.2996932,9.38646806"/>
        <path fill="#1969BC" d="M17.3009103,9.38653475 C17.1346746,9.5893737 16.9588025,9.74382241 16.7631074,9.8582835 C16.7201855,9.88319969 16.6768636,9.90666543 16.6326579,9.92813886 C16.8392981,10.0396407 17.0648192,10.1141392 17.3172988,10.1439986 L17.3172988,10.1439986 C17.3543021,10.1476664 17.3909304,10.1510842 17.4292424,10.15376 L17.4359945,10.15376 C17.4531666,10.15376 17.4713474,10.15376 17.4898615,10.1570944 L17.4972805,10.1570944 L17.5524229,10.1570944 L17.611775,10.1570944 L17.6302975,10.1570944 L17.6723774,10.1570944 C17.6791296,10.1570944 17.6861734,10.1570944 17.6929089,10.15376 C17.706038,10.15376 17.7198424,10.15376 17.733305,10.1504256 L17.7380565,10.1504256 L17.7532029,10.1504256 C17.7670073,10.1504256 17.7821537,10.1470912 17.7969667,10.1456741 L17.8003012,10.1456741 C17.8047191,10.1456741 17.8093873,10.1423397 17.8137637,10.1423397 C17.8292518,10.1390054 17.8454153,10.1375882 17.8604951,10.1352542 L17.8742994,10.1352542 C17.8914632,10.1319198 17.9092105,10.1298358 17.9268827,10.1265014 L17.9302171,10.1265014 L17.9353021,10.1265014 C17.9706548,10.1197493 18.0051574,10.1130388 18.0400684,10.1042861 C17.7505521,9.99823596 17.5081673,9.74827381 17.2994432,9.39226989"/>
        <path fill="#1E5CB3" d="M13.1642643,10.1570944 C13.3742639,10.1570944 13.5863557,10.1365629 13.7992812,10.0956583 C13.9962266,10.0599054 14.1935722,10.0051631 14.3913512,9.93614972 C14.5559031,10.0165417 14.7284325,10.0763022 14.9110651,10.1133306 C15.0528682,10.1422814 15.2001479,10.1570944 15.354605,10.1570944 L13.1642643,10.1570944 L13.1642643,10.1570944 Z"/>
        <path fill="#1E5CB3" d="M15.3546383,10.1570944 C15.8730767,10.1570944 16.2837896,10.0956583 16.6326579,9.9281722 C16.8392647,10.039674 17.0648192,10.1141725 17.3172988,10.1440653 L17.3172988,10.1440653 C17.3543354,10.1477331 17.3909637,10.1511508 17.4292424,10.1538267 L17.4359945,10.1538267 C17.4531666,10.1538267 17.4713474,10.1538267 17.4898615,10.1571611 L17.497614,10.1571611 L17.5527564,10.1571611 L15.3531544,10.1571611 L15.3546383,10.1570944 Z"/>
        <path fill="#1D60B5" d="M17.5540652,10.1570944 L17.6138256,10.1570944 L17.6323398,10.1570944 L17.6740196,10.1570944 C17.6811052,10.1570944 17.6878157,10.1570944 17.6945511,10.15376 C17.7076802,10.15376 17.7214846,10.15376 17.735389,10.1504256 L17.7398071,10.1504256 L17.7552952,10.1504256 C17.7690912,10.1504256 17.784246,10.1470912 17.7986506,10.1457575 L17.8023184,10.1457575 C17.8067364,10.1457575 17.8110712,10.1424231 17.8154476,10.1424231 C17.8309358,10.1390887 17.8470992,10.137755 17.8621456,10.1353375 C17.8672305,10.1353375 17.8712318,10.1353375 17.8766168,10.1320031 C17.8937889,10.1286688 17.9115611,10.1269182 17.9292417,10.1235922 L17.9325761,10.1235922 L17.9376611,10.1235922 C17.9730139,10.11684 18.0075164,10.1101212 18.0424274,10.1013685 L18.0424274,10.1013685 C18.1438261,10.1388053 18.2494678,10.1577613 18.363487,10.1577613 L17.5546904,10.1610956 L17.5540652,10.1570944 Z"/>
        <path fill="#175FAB" d="M16.8402401,8.31643066 L16.8402401,8.31309627 C16.6092255,8.5340076 16.3786195,8.7364381 16.1484219,8.91947081 C16.0280672,9.01500927 15.9081544,9.10547112 15.7869662,9.19091474 C15.8883649,9.31210295 15.9914808,9.4257221 16.1000483,9.52924641 C16.2650086,9.68912183 16.4413059,9.82381429 16.6336332,9.92773874 C16.677397,9.90619027 16.7211608,9.88269119 16.7636492,9.85788338 C16.9597444,9.74342229 17.1356498,9.58899859 17.3018856,9.38616797 C17.1297563,9.09244201 16.9787004,8.7284189 16.841082,8.31603054"/>
        <path fill="url(#app_dotnet-o)" d="M23.7097561,0.00115869869 L22.6181702,0.00115869869 L22.5095944,0.00115869869 L22.5095944,0.00115869869 L22.4069204,0.00115869869 L22.4069204,0.00115869869 L22.4029191,0.00115869869 C22.3322217,0.00449308342 22.2636501,0.00691051235 22.1958788,0.0112618844 L22.1958788,0.0112618844 C22.1639021,0.0798751861 22.131075,0.148480152 22.0994984,0.21749358 L22.0994984,0.21749358 C21.0176072,2.52182018 19.8814157,4.51859146 18.7279769,6.10589196 L18.7279769,6.10589196 C18.1855476,7.77523501 17.7874637,8.78814607 17.2993182,9.38401729 L17.2993182,9.38401729 C17.5080423,9.74002121 17.7508521,9.99038349 18.0395266,10.0964336 L18.0395266,10.0964336 C18.0479459,10.0930992 18.054673,10.0930992 18.0622503,10.0913487 L18.0622503,10.0913487 L18.0669185,10.0913487 L18.0669185,10.0913487 C18.0720034,10.0913487 18.0774218,10.0880143 18.0829152,10.0880143 L18.0829152,10.0880143 C18.094694,10.0846799 18.1073229,10.0825959 18.1191017,10.0789281 L18.1191017,10.0789281 C18.1266873,10.0755937 18.1329727,10.0752603 18.1405834,10.0728428 L18.1405834,10.0728428 C18.1515202,10.0695084 18.1628654,10.067091 18.1729686,10.0644235 L18.1729686,10.0644235 C18.1797208,10.0610891 18.1864312,10.0600054 18.1931666,10.0586717 L18.1931666,10.0586717 C18.209997,10.0532533 18.2251434,10.0492437 18.2411401,10.0441921 L18.2411401,10.0441921 C18.2487258,10.0408577 18.2567284,10.0381069 18.2651393,10.0361062 L18.2651393,10.0361062 C18.2744005,10.0327718 18.2836535,10.0303544 18.2920728,10.0263448 L18.2920728,10.0263448 C18.3017676,10.0230104 18.311429,10.0212599 18.3198482,10.0175921 L18.3198482,10.0175921 C18.327434,10.0142577 18.3354032,10.0121737 18.3425721,10.0091727 L18.3425721,10.0091727 C18.3614864,10.0024206 18.3800256,9.99671882 18.3989566,9.98930814 L18.3989566,9.98930814 C18.4040414,9.98930814 18.4090597,9.98464001 18.4145448,9.98355633 L18.4145448,9.98355633 C18.42589,9.97880484 18.437677,9.97513701 18.4490557,9.97008543 L18.4490557,9.97008543 C18.4532236,9.96675104 18.4583086,9.9664176 18.4637603,9.96466704 L18.4637603,9.96466704 C18.5033228,9.94817018 18.5441356,9.93133987 18.5849568,9.91292573 L18.5849568,9.91292573 L18.5892081,9.91292573 L18.5892081,9.91292573 C18.6472765,9.88734266 18.7061951,9.85862527 18.7646885,9.82876586 L18.7646885,9.82876586 C20.6402466,8.78094379 21.5870868,5.26043371 24.5310817,0.00156716082 L24.5310817,0.00156716082 L23.7088142,0.00156716082 L23.7097561,0.00115869869 Z"/>
        <path fill="#7DCBEC" d="M7.42906419,0.232239896 C7.43373233,0.232239896 7.43791698,0.232239896 7.44252676,0.235574281 C7.45387202,0.235574281 7.46525059,0.235574281 7.47661252,0.239242104 L7.48799111,0.239242104 C7.5085976,0.242576488 7.52922911,0.244327041 7.55026907,0.247327987 C7.55410362,0.247327987 7.557438,0.247327987 7.56077239,0.250662372 C7.57801116,0.253996757 7.59570006,0.256747624 7.61337231,0.259415131 C7.61720685,0.259415131 7.62223343,0.262749517 7.62643476,0.262749517 C7.66683917,0.2708354 7.70807717,0.279246385 7.7476313,0.28968301 C7.75138248,0.28968301 7.75521704,0.293017394 7.75857643,0.293017394 C7.77540673,0.297018656 7.79055317,0.302103593 7.80738348,0.306813411 C7.81246842,0.306813411 7.81620293,0.310147795 7.82085439,0.310898032 C7.84064397,0.315982968 7.8591498,0.321001217 7.87850591,0.3273949 C7.8793395,0.3273949 7.88050654,0.3273949 7.88275724,0.330729286 C7.89914575,0.335730862 7.91598439,0.34217456 7.93324817,0.347893031 C7.9400003,0.351227415 7.94627728,0.352644528 7.95260427,0.354311722 C7.96439132,0.359396658 7.97745377,0.36440657 7.98879902,0.369124725 C7.99555115,0.369124725 8.0022616,0.373792864 8.00939718,0.376210293 C8.02495209,0.383295861 8.04138226,0.389672871 8.05737064,0.396408328 C8.06578996,0.399742713 8.07292554,0.403493896 8.08093641,0.406503178 C8.09019765,0.411254676 8.09985904,0.415597713 8.10996222,0.418965441 C8.11837321,0.422966703 8.12763446,0.427376426 8.13561198,0.431077593 C8.14446476,0.435829092 8.15285075,0.439496915 8.16129508,0.444206733 C8.37001922,0.546889111 8.56232987,0.683665572 8.74033599,0.849467853 C8.80598169,0.780454426 8.87456998,0.71857658 8.94569241,0.663034067 C8.55643634,0.386980355 8.11543061,0.229597397 7.60667019,0.229597397 C7.54775161,0.229597397 7.48884137,0.232931781 7.42908919,0.237349841"/>
        <path fill="#5EC5ED" d="M8.74039435,0.844566307 C8.84938705,0.945964948 8.95374495,1.05918398 9.05263446,1.18122246 C9.14815626,1.11473483 9.24284444,1.05076466 9.33794943,0.991012485 C9.21338515,0.866448207 9.08209375,0.754512912 8.94532563,0.658132522 C8.87421154,0.713274908 8.80604004,0.775552879 8.74039435,0.844566307"/>
        <path fill="url(#app_dotnet-p)" d="M7.42896405,0.646669875 C7.48871929,0.651719613 7.5476329,0.65382367 7.60654651,0.65382367 C8.11530763,0.65382367 8.55631808,0.496440168 8.94556873,0.22080863 C9.35628076,0.54483349 9.85283834,0.658031785 10.5425483,0.658031785 L7.20256747,0.658031785 C7.27957597,0.658031785 7.35490123,0.65340286 7.42896405,0.646669875" transform="matrix(1 0 0 -1 0 .879)"/>
        <path fill="url(#app_dotnet-q)" d="M10.5425483,0.990893795 C9.85283834,0.990893795 9.35628076,0.8776955 8.94556873,0.55367064 C9.08191165,0.457304805 9.21320485,0.345368945 9.33776504,0.220808738 C9.90964789,0.58438988 10.4760602,0.825094061 11.034477,0.930296938 C11.2474077,0.970274031 11.4599174,0.990893795 11.6694816,0.990893795 L10.5425483,0.990893795 L10.5425483,0.990893795 Z" transform="matrix(1 0 0 -1 0 1.212)"/>
        <path fill="url(#app_dotnet-r)" d="M18.7294524,6.10922635 C19.026121,5.19437955 19.3657114,4.08387939 19.7869442,2.73683797 C20.1665223,1.52322196 20.8385591,0.615952555 22.1005653,0.219986032 C22.1339009,0.152214663 22.1653775,0.0823593027 22.197796,0.013754337 C20.1404307,0.13706822 19.1788775,1.18360654 18.6949415,2.73347858 C17.8486914,5.43929011 17.3361381,7.19323483 16.8425324,8.31091225 C17.4729062,7.70830557 18.10328,6.96852231 18.7294524,6.10922635"/>
        <polygon fill="#2B2C2F" points="21.748 9.436 21.515 9.436 21.515 10.161 21.42 10.161 21.42 9.436 21.186 9.436 21.186 9.35 21.748 9.35"/>
        <path fill="#2B2C2F" d="M22.7023634,10.1607956 L22.6077003,10.1607956 L22.6077003,9.61626552 C22.6077003,9.57334365 22.6110347,9.52076041 22.6154527,9.45888256 L22.6154527,9.45888256 C22.605683,9.49591924 22.5976054,9.52160234 22.5902031,9.53799917 L22.3141494,10.1607956 L22.2678599,10.1607956 L21.9909642,9.54264231 C21.9828783,9.52547022 21.9748091,9.49760311 21.9660563,9.45888256 L21.9627219,9.45888256 C21.9660563,9.49154286 21.96714,9.54432617 21.96714,9.61754926 L21.96714,10.1607956 L21.8762447,10.1607956 L21.8762447,9.34991487 L22.0016425,9.34991487 L22.2503293,9.915885 C22.2691769,9.95840674 22.2809639,9.99122542 22.2869575,10.0131073 L22.2906253,10.0131073 C22.3071222,9.96850159 22.3205848,9.9352411 22.3297794,9.9133592 L22.5835094,9.34991487 L22.703022,9.34991487 L22.703022,10.1607956 L22.7023634,10.1607956 Z"/>
      </g>
    </g>
  </g>
</svg>
