<svg xmlns="http://www.w3.org/2000/svg" width="36" height="36" viewBox="0 0 36 36">
  <g fill="none" fill-rule="evenodd">
    <rect width="36" height="36"/>
    <g transform="translate(10 2)">
      <path fill="#E76F00" d="M15.0567877,24.5841527 L15.0567877,24.7512716 L15.199441,24.7512716 L15.199441,25.5841527 L15.299039,25.5841527 L15.299039,24.7512716 L15.4407846,24.7512716 L15.4407846,24.5841527 L15.0567877,24.5841527 Z M15.9189327,24.584424 L15.7892478,25.2925087 L15.6591739,24.584424 L15.5208001,24.584424 L15.5208001,25.5841527 L15.6148216,25.5841527 L15.6148216,24.7946791 L15.6165075,24.7946791 L15.7569563,25.5841527 L15.821669,25.5841527 L15.9630255,24.7946791 L15.9651005,24.7946791 L15.9651005,25.5841527 L16.0567877,25.5841527 L16.0567877,24.584424 L15.9189327,24.584424 Z"/>
      <path fill="#5382A1" d="M5.23533187 16.6161082C5.23533187 16.6161082 4.46340932 17.0904657 5.78468729 17.2510372 7.38543531 17.4441281 8.20356627 17.4164066 9.9675571 17.0635972 9.9675571 17.0635972 10.4313563 17.3707728 11.0790812 17.6370058 7.12463022 19.4281347 2.12927939 17.53337 5.23533187 16.6161082M4.75206054 14.2788231C4.75206054 14.2788231 3.88630869 14.9561873 5.20849468 15.100659 6.91860932 15.2871394 8.2689441 15.3023862 10.6056972 14.8268558 10.6056972 14.8268558 10.9289543 15.1731614 11.4371459 15.3625206 6.65578639 16.83997 1.33041875 15.4790575 4.75206054 14.2788231"/>
      <path fill="#E76F00" d="M8.8257655,10.3141152 C9.80017773,11.4996359 8.56980321,12.5664872 8.56980321,12.5664872 C8.56980321,12.5664872 11.04387,11.21677 9.90772831,9.52650472 C8.84644831,7.95032411 8.03265569,7.16708506 12.4383953,4.46690418 C12.4383953,4.46690418 5.52287327,6.29215182 8.8257655,10.3141152"/>
      <path fill="#5382A1" d="M14.0559721 18.344853C14.0559721 18.344853 14.6271201 18.8423474 13.4268113 19.2270365 11.144237 19.9578179 3.92644341 20.1785237 1.92132138 19.2562507 1.20055093 18.9248721 2.5521973 18.4650151 2.97735501 18.3685229 3.42077411 18.266913 3.67421411 18.2857849 3.67421411 18.2857849 2.8726294 17.6892395-1.50687837 19.4576581 1.44965259 19.9641086 9.51251526 21.3458122 16.1473565 19.3418675 14.0559721 18.344853M5.60658313 11.8572006C5.60658313 11.8572006 1.93503256 12.7787273 4.30639154 13.1134112 5.30764097 13.2550041 7.30348097 13.2230177 9.16271358 13.0583946 10.6821429 12.9229858 12.2078275 12.635002 12.2078275 12.635002 12.2078275 12.635002 11.6719915 12.8774585 11.2843656 13.1571258 7.55611383 14.1933769.353857529 13.711236 2.42718237 12.651315 4.18078135 11.7555907 5.60658313 11.8572006 5.60658313 11.8572006M12.1926231 15.7476788C15.9826205 13.6664338 14.2303331 11.6663274 13.0071219 11.9358657 12.7074735 12.0017576 12.5736911 12.0589066 12.5736911 12.0589066 12.5736911 12.0589066 12.6850756 11.8746652 12.8975535 11.7949126 15.3172396 10.8958829 17.1780865 14.4463676 12.1164498 15.8525942 12.1164498 15.8527007 12.1751688 15.7971511 12.1926231 15.7476788"/>
      <path fill="#E76F00" d="M9.90768795,0.106642485 C9.90768795,0.106642485 12.0066393,2.32553545 7.91689254,5.73762583 C4.63740718,8.47459102 7.16898222,10.0352049 7.91558094,11.8182306 C6.00116056,9.99287634 4.59634425,8.38609545 5.5388747,6.89073368 C6.92220107,4.69551061 10.754573,3.63121818 9.90768795,0.106642485"/>
      <path fill="#5382A1" d="M5.97892403,21.3874051 C9.61687766,21.6335934 15.2032522,21.2508234 15.3355212,19.4317598 C15.3355212,19.4317598 15.0812741,20.1212788 12.328948,20.6689917 C9.2240053,21.2865415 5.39445829,21.214359 3.12298211,20.8186878 C3.12308301,20.8186878 3.58799205,21.225341 5.97892403,21.3874051"/>
      <path fill="#E76F00" d="M6.32967409 29.4672953L6.32967409 25.9723602C6.32967409 25.079408 5.84791613 24.4903261 4.68604708 24.4903261 4.00775205 24.4903261 3.41370161 24.6672106 2.93083383 24.8930342L3.0701653 25.5116502C3.4503253 25.3642998 3.942576 25.2269717 4.42554466 25.2269717 5.09486033 25.2269717 5.38270441 25.5116502 5.38270441 26.1004123L5.38270441 26.5421437 5.04875282 26.5421437C3.42268097 26.5421437 2.68909727 27.2092723 2.68909727 28.210445 2.68909727 29.0745029 3.1724695 29.5658132 4.0827146 29.5658132 4.66768479 29.5658132 5.10434415 29.3104555 5.51265294 28.936855L5.58680836 29.4675085 6.32967409 29.4675085 6.32967409 29.4672953zM5.38270441 28.3382838C5.03957167 28.6528162 4.67716861 28.8294875 4.35179282 28.8294875 3.88759001 28.8294875 3.6367732 28.5352131 3.6367732 28.0633078 3.6367732 27.5529123 3.90554874 27.1797383 4.98367766 27.1797383L5.38270441 27.1797383 5.38270441 28.3382838 5.38270441 28.3382838zM9.4900265 29.4672953L8.30898803 29.4672953 6.88752459 24.5788217 7.91904153 24.5788217 8.80093605 27.5823398 8.99696866 28.4856342C9.44321274 27.1796316 9.75880204 25.8546505 9.91669758 24.5788217L10.9199648 24.5788217C10.6511893 26.188588 10.1674135 27.9554072 9.4900265 29.4672953M14.9675489 29.4672953L14.9675489 25.9723602C14.9675489 25.079408 14.4845803 24.4903261 13.3241237 24.4903261 12.6453242 24.4903261 12.051072 24.6672106 11.568406 24.8930342L11.7075357 25.5116502C12.0878975 25.3642998 12.5809553 25.2269717 13.0636213 25.2269717 13.7324325 25.2269717 14.020781 25.5116502 14.020781 26.1004123L14.020781 26.5421437 13.6862241 26.5421437C12.0597487 26.5421437 11.3264677 27.2092723 11.3264677 28.210445 11.3264677 29.0745029 11.8094363 29.5658132 12.7194796 29.5658132 13.3048534 29.5658132 13.7414119 29.3104555 14.1502251 28.936855L14.2246832 29.4675085 14.9675489 29.4675085 14.9675489 29.4672953zM14.020781 28.3382838C13.6769421 28.6528162 13.3138328 28.8294875 12.9885579 28.8294875 12.5251622 28.8294875 12.2736391 28.5352131 12.2736391 28.0633078 12.2736391 27.5529123 12.54302 27.1797383 13.6210481 27.1797383L14.020781 27.1797383 14.020781 28.3382838 14.020781 28.3382838zM1.65082059 30.2975649C1.38083434 30.7140272.944881223 31.0434865.467461605 31.2300736L.0000302675159 30.6486684C.36334135 30.4516325.674894981 30.1332617.819674599 29.8369615.944881223 29.5735006.996840459 29.2335923.996840459 28.4212457L.996840459 22.8402677 2.0028318 22.8402677 2.0028318 28.344905C2.0027309 29.4308415 1.92060504 29.8695876 1.65082059 30.2975649"/>
    </g>
  </g>
</svg>
