<svg width="50" height="50" viewBox="0 0 50 50" fill="none" xmlns="http://www.w3.org/2000/svg">
<path d="M14.49 33.85C13.1553 33.85 11.9073 33.6073 10.746 33.122C9.602 32.6367 8.59667 31.9693 7.73 31.12C6.86333 30.2533 6.18733 29.248 5.702 28.104C5.234 26.9427 5 25.7033 5 24.386C5 23.0687 5.234 21.8467 5.702 20.72C6.18733 19.576 6.85467 18.5793 7.704 17.73C8.57067 16.8633 9.576 16.196 10.72 15.728C11.864 15.2427 13.1033 15 14.438 15C15.7727 15 17.012 15.2427 18.156 15.728C19.3 16.196 20.3053 16.8633 21.172 17.73C22.0387 18.5793 22.706 19.576 23.174 20.72C23.6593 21.864 23.902 23.0947 23.902 24.412C23.902 25.7293 23.6593 26.96 23.174 28.104C22.706 29.248 22.0387 30.2533 21.172 31.12C20.3227 31.9693 19.326 32.6367 18.182 33.122C17.038 33.6073 15.8073 33.85 14.49 33.85ZM14.438 30.548C15.5993 30.548 16.6133 30.288 17.48 29.768C18.364 29.248 19.0487 28.5287 19.534 27.61C20.0367 26.6913 20.288 25.6167 20.288 24.386C20.288 23.4847 20.1407 22.6613 19.846 21.916C19.5687 21.1707 19.17 20.5293 18.65 19.992C18.13 19.4373 17.5147 19.0127 16.804 18.718C16.0933 18.4233 15.3047 18.276 14.438 18.276C13.294 18.276 12.28 18.536 11.396 19.056C10.5293 19.5587 9.84467 20.2693 9.342 21.188C8.85667 22.1067 8.614 23.1727 8.614 24.386C8.614 25.3047 8.75267 26.1453 9.03 26.908C9.32467 27.6707 9.72333 28.3207 10.226 28.858C10.746 29.3953 11.3613 29.8113 12.072 30.106C12.8 30.4007 13.5887 30.548 14.438 30.548ZM22.732 34.916L14.36 26.544L16.492 24.386L24.89 32.784L22.732 34.916Z" fill="#833AF9"/>
<path d="M25.7821 31.536L32.6721 24.334C33.1575 23.814 33.5475 23.3547 33.8421 22.956C34.1541 22.54 34.3795 22.15 34.5181 21.786C34.6568 21.4047 34.7261 21.0233 34.7261 20.642C34.7261 19.8793 34.4748 19.2813 33.9721 18.848C33.4868 18.4147 32.8541 18.198 32.0741 18.198C31.2768 18.198 30.5661 18.406 29.9421 18.822C29.3355 19.238 28.7635 19.8967 28.2261 20.798L25.8081 18.744C26.5361 17.5133 27.4375 16.586 28.5121 15.962C29.6041 15.3207 30.8521 15 32.2561 15C33.4521 15 34.4921 15.234 35.3761 15.702C36.2775 16.17 36.9708 16.82 37.4561 17.652C37.9415 18.484 38.1841 19.4547 38.1841 20.564C38.1841 21.3093 38.0888 21.9853 37.8981 22.592C37.7248 23.1987 37.4215 23.8053 36.9881 24.412C36.5721 25.0013 35.9915 25.6687 35.2461 26.414L30.2281 31.536H25.7821ZM25.7821 33.564V31.536L28.7981 30.496H38.5741V33.564H25.7821Z" fill="#833AF9"/>
<path d="M43.0652 33.824C42.4412 33.824 41.9299 33.616 41.5312 33.2C41.1325 32.784 40.9332 32.2727 40.9332 31.666C40.9332 31.0593 41.1325 30.548 41.5312 30.132C41.9299 29.716 42.4412 29.508 43.0652 29.508C43.6719 29.508 44.1745 29.716 44.5732 30.132C44.9719 30.548 45.1712 31.0593 45.1712 31.666C45.1712 32.2727 44.9719 32.784 44.5732 33.2C44.1745 33.616 43.6719 33.824 43.0652 33.824Z" fill="#833AF9"/>
</svg>
