<svg width="50" height="50" viewBox="0 0 50 50" fill="none" xmlns="http://www.w3.org/2000/svg">
<path d="M17.49 34.85C16.1553 34.85 14.9073 34.6073 13.746 34.122C12.602 33.6367 11.5967 32.9693 10.73 32.12C9.86333 31.2533 9.18733 30.248 8.702 29.104C8.234 27.9427 8 26.7033 8 25.386C8 24.0687 8.234 22.8467 8.702 21.72C9.18733 20.576 9.85467 19.5793 10.704 18.73C11.5707 17.8633 12.576 17.196 13.72 16.728C14.864 16.2427 16.1033 16 17.438 16C18.7727 16 20.012 16.2427 21.156 16.728C22.3 17.196 23.3053 17.8633 24.172 18.73C25.0387 19.5793 25.706 20.576 26.174 21.72C26.6593 22.864 26.902 24.0947 26.902 25.412C26.902 26.7293 26.6593 27.96 26.174 29.104C25.706 30.248 25.0387 31.2533 24.172 32.12C23.3227 32.9693 22.326 33.6367 21.182 34.122C20.038 34.6073 18.8073 34.85 17.49 34.85ZM17.438 31.548C18.5993 31.548 19.6133 31.288 20.48 30.768C21.364 30.248 22.0487 29.5287 22.534 28.61C23.0367 27.6913 23.288 26.6167 23.288 25.386C23.288 24.4847 23.1407 23.6613 22.846 22.916C22.5687 22.1707 22.17 21.5293 21.65 20.992C21.13 20.4373 20.5147 20.0127 19.804 19.718C19.0933 19.4233 18.3047 19.276 17.438 19.276C16.294 19.276 15.28 19.536 14.396 20.056C13.5293 20.5587 12.8447 21.2693 12.342 22.188C11.8567 23.1067 11.614 24.1727 11.614 25.386C11.614 26.3047 11.7527 27.1453 12.03 27.908C12.3247 28.6707 12.7233 29.3207 13.226 29.858C13.746 30.3953 14.3613 30.8113 15.072 31.106C15.8 31.4007 16.5887 31.548 17.438 31.548ZM25.732 35.916L17.36 27.544L19.492 25.386L27.89 33.784L25.732 35.916Z" fill="#833AF9"/>
<path d="M32.2921 34.564V16.286H35.7761V34.564H32.2921ZM28.7041 19.354V16.286H35.5161V19.354H28.7041Z" fill="#833AF9"/>
<path d="M41.241 34.824C40.617 34.824 40.1057 34.616 39.707 34.2C39.3083 33.784 39.109 33.2727 39.109 32.666C39.109 32.0593 39.3083 31.548 39.707 31.132C40.1057 30.716 40.617 30.508 41.241 30.508C41.8477 30.508 42.3503 30.716 42.749 31.132C43.1477 31.548 43.347 32.0593 43.347 32.666C43.347 33.2727 43.1477 33.784 42.749 34.2C42.3503 34.616 41.8477 34.824 41.241 34.824Z" fill="#833AF9"/>
</svg>
