<svg width="50" height="50" viewBox="0 0 50 50" fill="none" xmlns="http://www.w3.org/2000/svg">
<path d="M14.49 33.85C13.1553 33.85 11.9073 33.6073 10.746 33.122C9.602 32.6367 8.59667 31.9693 7.73 31.12C6.86333 30.2533 6.18733 29.248 5.702 28.104C5.234 26.9427 5 25.7033 5 24.386C5 23.0687 5.234 21.8467 5.702 20.72C6.18733 19.576 6.85467 18.5793 7.704 17.73C8.57067 16.8633 9.576 16.196 10.72 15.728C11.864 15.2427 13.1033 15 14.438 15C15.7727 15 17.012 15.2427 18.156 15.728C19.3 16.196 20.3053 16.8633 21.172 17.73C22.0387 18.5793 22.706 19.576 23.174 20.72C23.6593 21.864 23.902 23.0947 23.902 24.412C23.902 25.7293 23.6593 26.96 23.174 28.104C22.706 29.248 22.0387 30.2533 21.172 31.12C20.3227 31.9693 19.326 32.6367 18.182 33.122C17.038 33.6073 15.8073 33.85 14.49 33.85ZM14.438 30.548C15.5993 30.548 16.6133 30.288 17.48 29.768C18.364 29.248 19.0487 28.5287 19.534 27.61C20.0367 26.6913 20.288 25.6167 20.288 24.386C20.288 23.4847 20.1407 22.6613 19.846 21.916C19.5687 21.1707 19.17 20.5293 18.65 19.992C18.13 19.4373 17.5147 19.0127 16.804 18.718C16.0933 18.4233 15.3047 18.276 14.438 18.276C13.294 18.276 12.28 18.536 11.396 19.056C10.5293 19.5587 9.84467 20.2693 9.342 21.188C8.85667 22.1067 8.614 23.1727 8.614 24.386C8.614 25.3047 8.75267 26.1453 9.03 26.908C9.32467 27.6707 9.72333 28.3207 10.226 28.858C10.746 29.3953 11.3613 29.8113 12.072 30.106C12.8 30.4007 13.5887 30.548 14.438 30.548ZM22.732 34.916L14.36 26.544L16.492 24.386L24.89 32.784L22.732 34.916Z" fill="#833AF9"/>
<path d="M31.5801 33.824C30.3495 33.824 29.2228 33.6073 28.2001 33.174C27.1775 32.7233 26.3195 32.082 25.6261 31.25L27.9661 28.936C28.3128 29.456 28.8068 29.872 29.4481 30.184C30.0895 30.496 30.7828 30.652 31.5281 30.652C32.2215 30.652 32.8195 30.5307 33.3221 30.288C33.8248 30.028 34.2148 29.6727 34.4921 29.222C34.7868 28.754 34.9341 28.2167 34.9341 27.61C34.9341 26.9687 34.7868 26.4227 34.4921 25.972C34.2148 25.5213 33.8075 25.1747 33.2701 24.932C32.7328 24.6893 32.0915 24.568 31.3461 24.568C31.0168 24.568 30.6788 24.594 30.3321 24.646C29.9855 24.6807 29.6908 24.7413 29.4481 24.828L31.0081 22.852C31.4415 22.7133 31.8661 22.6007 32.2821 22.514C32.7155 22.41 33.1141 22.358 33.4781 22.358C34.4141 22.358 35.2548 22.5833 36.0001 23.034C36.7628 23.4673 37.3608 24.0913 37.7941 24.906C38.2448 25.7033 38.4701 26.648 38.4701 27.74C38.4701 28.9533 38.1841 30.0193 37.6121 30.938C37.0401 31.8393 36.2341 32.55 35.1941 33.07C34.1715 33.5727 32.9668 33.824 31.5801 33.824ZM29.4481 24.828V22.8L34.1281 17.366L38.1841 17.314L33.3481 22.852L29.4481 24.828ZM26.6401 18.354V15.286H38.1841V17.314L35.2981 18.354H26.6401Z" fill="#833AF9"/>
<path d="M42.3543 33.824C41.7303 33.824 41.2189 33.616 40.8203 33.2C40.4216 32.784 40.2223 32.2727 40.2223 31.666C40.2223 31.0593 40.4216 30.548 40.8203 30.132C41.2189 29.716 41.7303 29.508 42.3543 29.508C42.9609 29.508 43.4636 29.716 43.8623 30.132C44.2609 30.548 44.4603 31.0593 44.4603 31.666C44.4603 32.2727 44.2609 32.784 43.8623 33.2C43.4636 33.616 42.9609 33.824 42.3543 33.824Z" fill="#833AF9"/>
</svg>
