<svg width="50" height="50" viewBox="0 0 50 50" fill="none" xmlns="http://www.w3.org/2000/svg">
<path d="M14.49 33.85C13.1553 33.85 11.9073 33.6073 10.746 33.122C9.602 32.6367 8.59667 31.9693 7.73 31.12C6.86333 30.2533 6.18733 29.248 5.702 28.104C5.234 26.9427 5 25.7033 5 24.386C5 23.0687 5.234 21.8467 5.702 20.72C6.18733 19.576 6.85467 18.5793 7.704 17.73C8.57067 16.8633 9.576 16.196 10.72 15.728C11.864 15.2427 13.1033 15 14.438 15C15.7727 15 17.012 15.2427 18.156 15.728C19.3 16.196 20.3053 16.8633 21.172 17.73C22.0387 18.5793 22.706 19.576 23.174 20.72C23.6593 21.864 23.902 23.0947 23.902 24.412C23.902 25.7293 23.6593 26.96 23.174 28.104C22.706 29.248 22.0387 30.2533 21.172 31.12C20.3227 31.9693 19.326 32.6367 18.182 33.122C17.038 33.6073 15.8073 33.85 14.49 33.85ZM14.438 30.548C15.5993 30.548 16.6133 30.288 17.48 29.768C18.364 29.248 19.0487 28.5287 19.534 27.61C20.0367 26.6913 20.288 25.6167 20.288 24.386C20.288 23.4847 20.1407 22.6613 19.846 21.916C19.5687 21.1707 19.17 20.5293 18.65 19.992C18.13 19.4373 17.5147 19.0127 16.804 18.718C16.0933 18.4233 15.3047 18.276 14.438 18.276C13.294 18.276 12.28 18.536 11.396 19.056C10.5293 19.5587 9.84467 20.2693 9.342 21.188C8.85667 22.1067 8.614 23.1727 8.614 24.386C8.614 25.3047 8.75267 26.1453 9.03 26.908C9.32467 27.6707 9.72333 28.3207 10.226 28.858C10.746 29.3953 11.3613 29.8113 12.072 30.106C12.8 30.4007 13.5887 30.548 14.438 30.548ZM22.732 34.916L14.36 26.544L16.492 24.386L24.89 32.784L22.732 34.916Z" fill="#833AF9"/>
<path d="M25.7561 27.116L31.9961 15.286H35.8961L29.5001 27.116H25.7561ZM25.7561 29.196V27.116L27.0561 26.102H40.1601V29.196H25.7561ZM34.3881 33.564V21.916H37.8721V33.564H34.3881Z" fill="#833AF9"/>
<path d="M43.573 33.824C42.949 33.824 42.4377 33.616 42.039 33.2C41.6404 32.784 41.441 32.2727 41.441 31.666C41.441 31.0593 41.6404 30.548 42.039 30.132C42.4377 29.716 42.949 29.508 43.573 29.508C44.1797 29.508 44.6824 29.716 45.081 30.132C45.4797 30.548 45.679 31.0593 45.679 31.666C45.679 32.2727 45.4797 32.784 45.081 33.2C44.6824 33.616 44.1797 33.824 43.573 33.824Z" fill="#833AF9"/>
</svg>
