<svg xmlns="http://www.w3.org/2000/svg" width="36" height="36" viewBox="0 0 36 36">
  <g fill="none" fill-rule="evenodd">
    <polygon points="0 0 36 0 36 36 0 36"/>
    <path fill="#7C4DFF" d="M18,12 C23.808,12 27,10.077 27,9 C27,7.8885 23.808,6 18,6 C12.192,6 9,7.8885 9,9 C9,10.077 12.192,12 18,12 Z M27,15 L27,12.96 C24.801,14.208 21.5895,15 18,15 C14.4105,15 11.199,14.208 9,12.96 L9,15 C9,15.747 12.192,18 18,18 C23.808,18 27,15.747 27,15 Z M27,21 L27,18.7485 C24.801,20.0985 21.5895,21 18,21 C14.4105,21 11.199,20.0985 9,18.7485 L9,21 C9,21.747 12.192,24 18,24 C23.808,24 27,21.747 27,21 Z M27,27 L27,24.7485 C24.801,26.0985 21.5895,27 18,27 C14.4105,27 11.199,26.0985 9,24.7485 L9,27 C9,27.747 12.192,30 18,30 C23.808,30 27,27.747 27,27 Z M18,3 C24.627,3 30,5.6865 30,9 L30,12 L30,14.625 L30,18 L30,20.625 L30,27 C30,30.3135 24.627,33 18,33 C11.373,33 6,30.3135 6,27 L6,20.625 L6,18 L6,14.625 L6,12 L6,9 C6,5.6865 11.373,3 18,3 Z M18,9 C15.7185,9 13.8585,9.2955 12.42,9.717 C11.6985,9.474 11.1675,9.2145 10.8315,8.9925 C11.745,8.3925 14.0745,7.5 18,7.5 C21.9255,7.5 24.255,8.3925 25.1685,8.9925 C24.8325,9.2145 24.3015,9.474 23.58,9.717 C22.1415,9.2955 20.28,9 18,9 Z"/>
  </g>
</svg>
