<svg xmlns="http://www.w3.org/2000/svg" width="36" height="36" viewBox="0 0 36 36">
  <g fill="none" fill-rule="evenodd">
    <rect width="36" height="36"/>
    <g transform="translate(4.32 9.72)">
      <polygon fill="#FAA21D" points="7.848 10.924 7.848 8.876 2.391 8.876 2.391 6.482 7.678 6.482 7.678 4.434 2.391 4.434 2.391 2.045 7.848 2.045 7.848 .001 .001 .001 .001 10.924"/>
      <path fill="#ED7324" d="M0.821418667,6.858752 C0.824043054,4.19145776 2.03637145,1.66932007 4.11767467,0.00119466667 L7.84776533,0.00119466667 L7.84776533,2.04373333 L2.39086933,2.04373333 L2.39086933,4.43306667 L7.67761067,4.43306667 L7.67761067,6.48106667 L2.39086933,6.48106667 L2.39086933,8.875008 L7.84776533,8.875008 L7.84776533,10.923008 L1.88177067,10.923008 C1.18524581,9.68176077 0.820071275,8.28207197 0.821418667,6.858752 Z"/>
      <path fill="#ED7324" d="M6.379008,8.87586133 C6.65276155,9.53225311 6.84356102,10.220232 6.94698667,10.9238613 L0.000853333333,10.9238613 L0.000853333333,3.72770133 C1.85171658,4.12435755 3.53337645,5.08689086 4.8128,6.48192 L2.39086933,6.48192 L2.39086933,8.87586133 L6.379008,8.87586133 L6.379008,8.87586133 Z"/>
      <path fill="#E84C24" d="M1.87989333,10.9238613 C1.18234673,9.68252214 0.816614247,8.28231106 0.818005333,6.85841067 C0.817671776,5.91360326 0.973366409,4.97522594 1.27880533,4.081152 C2.63255365,4.58410215 3.84410704,5.40790926 4.80955733,6.48192 L2.39086933,6.48192 L2.39086933,8.87586133 L6.377472,8.87586133 C6.65069132,9.53231289 6.84091861,10.2202959 6.943744,10.9238613 L1.87989333,10.9238613 Z"/>
      <path fill="#221E1F" d="M24.7243093 5.36251733C25.908736 5.54274133 26.85952 6.67306667 26.85952 8.04932267 26.85952 9.68772267 25.7419947 10.9238613 23.6233387 10.9238613L17.5740587 10.9238613 17.5740587 9.38666667C16.5317973 10.3647573 15.04256 10.924032 13.2794027 10.924032L8.870912 10.924032 8.870912.00136533333 13.2794027.00136533333C15.04256.00136533333 16.5317973.552448 17.5740587 1.52251733L17.5740587.00136533333 23.439872.00136533333C25.558528.00136533333 26.6427733 1.39776 26.6427733 2.855936 26.6427733 4.23253333 25.7752747 5.14952533 24.7243093 5.36251733zM13.2794027 2.04373333L11.260928 2.04373333 11.260928 8.87586133 13.2794027 8.87586133C15.4810027 8.87586133 16.7657813 7.298048 16.7657813 5.446656 16.7657813 3.513344 15.5648 2.04373333 13.2794027 2.04373333L13.2794027 2.04373333zM22.9220693 2.048L19.9642453 2.048 19.9642453 4.43426133 22.922752 4.43426133C23.72352 4.43426133 24.2239147 3.95349333 24.2239147 3.26536533 24.2239147 2.57723733 23.72352 2.048 22.922752 2.048L22.9220693 2.048zM23.0055253 6.486528L19.9642453 6.486528 19.9642453 8.87586133 23.0058667 8.87586133C23.9066453 8.87586133 24.4404907 8.48605867 24.4404907 7.69962667 24.440832 7.01218133 23.9404373 6.486528 23.0058667 6.486528L23.0055253 6.486528zM.573098667 16.096256L.573098667 14.648832 1.602048 14.648832C2.33591467 14.648832 2.764288 14.1463893 2.764288 13.5509333 2.764288 12.9554773 2.34717867 12.4530347 1.602048 12.4530347L.111616 12.4530347.111616 16.096256.572416 16.096256.573098667 16.096256zM1.54589867 14.2446933L.573098667 14.2446933.573098667 12.857344 1.54589867 12.857344C1.80442547 12.8405201 2.0508567 12.9688627 2.18527731 13.1903357 2.31969792 13.4118086 2.31980046 13.6896578 2.18554335 13.9112298 2.05128625 14.1328019 1.80494982 14.2613264 1.54641067 14.2446933L1.54589867 14.2446933zM4.94506667 16.1621333C6.040576 16.1621333 6.78570667 15.3536853 6.78570667 14.2778027 6.78570667 13.20192 6.040576 12.3933013 4.94506667 12.3933013 3.84392533 12.3933013 3.104256 13.2017493 3.104256 14.2778027 3.104256 15.353856 3.84392533 16.1621333 4.94506667 16.1621333zM4.94506667 15.7579947C4.110848 15.7579947 3.582464 15.1243093 3.582464 14.2778027 3.582464 13.425664 4.11153067 12.7976107 4.94506667 12.7976107 5.77365333 12.7976107 6.30749867 13.425664 6.30749867 14.2778027 6.30749867 15.123968 5.77365333 15.7576533 4.94506667 15.7576533L4.94506667 15.7579947zM8.7552 16.1621333C9.75633067 16.1621333 10.123264 15.6214613 10.123264 15.0915413 10.123264 14.3269547 9.43377067 14.1412693 8.82756267 13.982208 8.354816 13.8565973 7.92661333 13.7473707 7.92661333 13.3814613 7.92661333 13.0373973 8.243712 12.80256 8.68846933 12.80256 9.09181294 12.7905112 9.48152956 12.9491492 9.761792 13.2394667L10.039808 12.9063253C9.69068811 12.5604369 9.21287681 12.3762302 8.72192 12.3982507 7.993344 12.3982507 7.44840533 12.8078507 7.44840533 13.408768 7.44840533 14.1243733 8.11008 14.2882133 8.70519467 14.4411307 9.194496 14.5722027 9.645056 14.692352 9.645056 15.1292587 9.645056 15.4077867 9.43377067 15.7574827 8.77192533 15.7574827 8.3269001 15.7567503 7.90283656 15.5682983 7.60405333 15.2384853L7.33098667 15.58272C7.69936587 15.973065 8.21894007 16.1844436 8.7552 16.1621333L8.7552 16.1621333zM12.076032 16.0965973L12.076032 12.857344 13.2549973 12.857344 13.2549973 12.4530347 10.441216 12.4530347 10.441216 12.857344 11.6145493 12.857344 11.6145493 16.096256 12.0753493 16.096256 12.076032 16.0965973zM15.3088 16.1672533C15.8615853 16.1741677 16.3912653 15.9458413 16.7657813 15.5392L16.7657813 14.222848 15.0299307 14.222848 15.0299307 14.6269867 16.3032747 14.6269867 16.3032747 15.369728C16.0324104 15.620781 15.6772585 15.7611488 15.3079467 15.7631147 14.4959147 15.7631147 13.878784 15.140352 13.878784 14.2774613 13.878784 13.4089387 14.4959147 12.7972693 15.3079467 12.7972693 15.7231685 12.7943909 16.1175273 12.9789977 16.3812693 13.299712L16.7482027 13.0757973C16.4025558 12.6339486 15.8687976 12.3809527 15.3079467 12.3931307 14.2513493 12.3931307 13.4004053 13.1469653 13.4004053 14.277632 13.3872737 14.7859921 13.5847519 15.277191 13.9461096 15.6349941 14.3074674 15.9927971 14.8005945 16.1854098 15.3088 16.1672533zM20.2535253 16.096256L19.2525653 14.6106027C19.810365 14.5826249 20.2405087 14.1088336 20.2146133 13.5509333 20.2146133 12.8791893 19.7307733 12.4530347 19.0523733 12.4530347L17.5616 12.4530347 17.5616 16.096256 18.0224 16.096256 18.0224 14.648832 18.7620693 14.648832 19.707392 16.096256 20.2523307 16.096256 20.2535253 16.096256zM18.9952 14.2506667L18.0224 14.2506667 18.0224 12.857856 18.9952 12.857856C19.2540782 12.842153 19.5003022 12.971346 19.6344883 13.1932888 19.7686744 13.4152315 19.7686744 13.6932911 19.6344883 13.9152339 19.5003022 14.1371766 19.2540782 14.2663697 18.9952 14.2506667L18.9952 14.2506667zM25.3364907 16.1621333C26.3376213 16.1621333 26.7045547 15.6214613 26.7045547 15.0915413 26.7045547 14.3269547 26.0150613 14.1412693 25.4088533 13.982208 24.9361067 13.8565973 24.507904 13.7473707 24.507904 13.3814613 24.507904 13.0373973 24.8250027 12.80256 25.26976 12.80256 25.6731036 12.7905112 26.0628202 12.9491492 26.3430827 13.2394667L26.6210987 12.9063253C26.2719904 12.560419 25.7941709 12.3762092 25.3032107 12.3982507 24.5746347 12.3982507 24.029696 12.8078507 24.029696 13.408768 24.029696 14.1243733 24.6915413 14.2882133 25.2864853 14.4411307 25.7759573 14.5722027 26.2263467 14.692352 26.2263467 15.1292587 26.2263467 15.4077867 26.0150613 15.7574827 25.353216 15.7574827 24.9081908 15.7567503 24.4841272 15.5682983 24.185344 15.2384853L23.9122773 15.58272C24.2808282 15.9732299 24.8006829 16.1846213 25.3371733 16.1621333L25.3364907 16.1621333z"/>
      <polygon fill="#ED7324" points="23.423 16.096 23.423 15.692 21.455 15.692 21.455 14.436 23.385 14.436 23.385 14.032 21.455 14.032 21.455 12.857 23.423 12.857 23.423 12.453 20.993 12.453 20.993 16.096 23.423 16.096"/>
    </g>
  </g>
</svg>
