<svg xmlns="http://www.w3.org/2000/svg" width="36" height="36" viewBox="0 0 36 36">
  <defs>
    <linearGradient id="db_mssql-a" x1="25.895%" x2="38.341%" y1="76.419%" y2="69.677%">
      <stop offset="0%" stop-color="#909CA9"/>
      <stop offset="100%" stop-color="#EDEDEE"/>
    </linearGradient>
    <linearGradient id="db_mssql-b" x1=".168%" x2="18.594%" y1="49.846%" y2="49.846%">
      <stop offset="0%" stop-color="#939FAB"/>
      <stop offset="100%" stop-color="#DCDEE1"/>
    </linearGradient>
    <radialGradient id="db_mssql-c" cx="44.346%" cy="43.881%" r="12.808%" fx="44.346%" fy="43.881%" gradientTransform="scale(-.69857 -1) rotate(8.545 5.778 -7.217)">
      <stop offset="0%" stop-color="#EE352C"/>
      <stop offset="100%" stop-color="#A91D22"/>
    </radialGradient>
  </defs>
  <g fill="none">
    <rect width="36" height="36"/>
    <g transform="translate(2.16 5.04)">
      <g transform="translate(11.649 .017)">
        <path fill="url(#db_mssql-a)" d="M10.30565,8.34344563 L6.72946767,9.51147441 L3.61823891,10.884949 L2.7478268,11.1147944 C2.52615087,11.3257011 2.29371771,11.5393134 2.04232543,11.7556063 C1.76661412,11.9935184 1.50982453,12.2098487 1.31246763,12.3666323 C1.09353398,12.5396865 0.769159658,12.8641258 0.60428631,13.0695716 C0.358291336,13.3777902 0.163676716,13.704935 0.0798751351,13.9564122 C-0.0688062961,14.4106546 0.00421313915,14.8702707 0.290731531,15.2947897 C0.658346619,15.8355093 1.39089684,16.3870511 2.24504225,16.7628705 C2.680267,16.954876 3.41279229,17.2008922 3.96420246,17.3387621 C4.88052283,17.5713006 6.65376828,17.8227529 7.62955873,17.8606303 C7.8268533,17.8687345 8.09178247,17.8687345 8.10256462,17.8606303 C8.12421616,17.8470653 8.27559001,17.5577979 8.4513203,17.1982241 C9.05140593,15.9734041 9.48388841,14.8243141 9.71903891,13.8428796 C9.85959322,13.2480868 9.97040626,12.4558774 10.0433634,11.517719 C10.0623225,11.2554446 10.0703998,10.3767331 10.0541829,10.0792992 C10.0298389,9.59264033 9.98658571,9.19791959 9.9190633,8.81127804 C9.90824376,8.75448683 9.90550148,8.70310668 9.91093618,8.70041362 C9.92171833,8.69230949 9.95415202,8.68149984 10.3947616,8.55438976 L10.3056001,8.34353291 L10.3056001,8.34347057 L10.30565,8.34347057 L10.30565,8.34344563 Z M9.48932311,8.82203783 C9.5217568,8.82203783 9.60822587,9.65206227 9.62984002,10.1766236 C9.63527472,10.287463 9.63253244,10.3604625 9.6271476,10.3604625 C9.60554592,10.3604625 9.17032116,10.1036366 8.85952113,9.90897548 C8.58919465,9.73862679 8.07562795,9.39794186 7.99454372,9.33305899 C7.96745747,9.31414521 7.97014989,9.31145214 8.19183829,9.23572222 C8.56753064,9.10862461 9.4595943,8.82203783 9.48932311,8.82203783 L9.48932311,8.82203783 Z M7.66743958,9.42227916 C7.69178355,9.42227916 7.75390865,9.45738873 7.90259009,9.54933937 C8.45941002,9.89811596 9.21630421,10.3199169 9.54066607,10.4605297 C9.64065956,10.5037808 9.65144171,10.4875352 9.42172591,10.6443812 C8.92976089,10.9796301 8.3161259,11.309468 7.56466641,11.6420363 C7.43223922,11.7015206 7.32142618,11.7474647 7.31873376,11.7474647 C7.31334892,11.7474647 7.32951591,11.6799137 7.35111759,11.5987852 C7.53223272,10.925507 7.6349685,10.244187 7.6404032,9.69803136 C7.64309562,9.42764035 7.64309562,9.42764035 7.66743958,9.41957363 C7.66200488,9.42227916 7.6646973,9.42227916 7.66743958,9.42227916 L7.66743958,9.42227916 Z M7.2917223,9.56556009 C7.30788929,9.58175587 7.29710714,10.1874207 7.27546806,10.3523334 C7.22681752,10.7470916 7.1511306,11.1147819 7.02683053,11.5284913 C6.99708926,11.6284588 6.97001548,11.7123302 6.96466803,11.7177164 C6.95379863,11.7312191 6.58347866,11.3689273 6.46184608,11.2283394 C6.25098968,10.9849913 6.08614126,10.7416556 5.96449622,10.5037434 C5.90232125,10.3820693 5.80503264,10.1441696 5.81312237,10.1360406 C5.85636314,10.1063047 7.28090276,9.5547629 7.2917223,9.56556009 Z M5.52387416,10.2604077 C5.52656658,10.2604077 5.529259,10.2604077 5.53200128,10.2631008 C5.53738612,10.2685119 5.55634525,10.3117879 5.57256209,10.3604376 C5.65903117,10.5956691 5.85362086,10.9417402 6.02126141,11.1634566 C6.20506896,11.4068047 6.44566662,11.6663362 6.64564116,11.8366724 C6.71054594,11.8907456 6.76997862,11.9421009 6.77806835,11.9502299 C6.79432259,11.9664631 6.79971989,11.9637326 6.35909783,12.1313883 C5.84827341,12.3260493 5.29140361,12.5207104 4.65346205,12.7261811 C4.5010719,12.7753235 4.34882074,12.824896 4.1967104,12.8748981 C4.1723415,12.8830271 4.18046862,12.869487 4.25074578,12.75866 C4.56699298,12.2638595 5.04812599,11.2932348 5.31845246,10.6064788 C5.36441058,10.4875102 5.41035624,10.3685666 5.41848336,10.3415238 C5.4293029,10.3036464 5.44278993,10.2901436 5.47791604,10.2712049 C5.49683777,10.2658437 5.51578443,10.2604077 5.52387416,10.2604077 Z M4.98330846,10.4848172 C4.99139819,10.4902532 4.8535363,10.7795205 4.71837929,11.044488 C4.45616747,11.5554842 4.16964908,12.0584137 3.78581715,12.6694398 C3.72094976,12.7748682 3.65879973,12.8722299 3.65067261,12.8830396 C3.63717311,12.9019783 3.63173841,12.8965423 3.58849764,12.8127457 C3.49659387,12.6315873 3.42088201,12.3990488 3.38034613,12.185449 C3.33978532,11.9745423 3.34791244,11.6068644 3.39388302,11.3797619 C3.42898421,11.2121437 3.42631671,11.2148492 3.50740095,11.1742787 C3.85338942,10.9985439 4.97248892,10.4740075 4.98330846,10.4848172 L4.98330846,10.4848172 Z M9.64609426,10.6741046 L9.64609426,10.7876496 C9.64609426,11.390584 9.58122688,12.2179154 9.48658083,12.8208747 C9.47036398,12.9263032 9.45680216,13.0127929 9.45414713,13.0155358 C9.45414713,13.0155358 9.37576779,12.993929 9.28386402,12.9668487 C8.87841793,12.8397636 8.43780834,12.6532066 8.04043951,12.4342456 C7.77820276,12.2909398 7.39710064,12.0556833 7.40793265,12.0448612 C7.41058767,12.0421806 7.52414299,11.9826963 7.65657018,11.9123899 C8.18644099,11.6366252 8.69457299,11.3392163 9.13518258,11.044513 C9.30008086,10.9336485 9.5487184,10.7552331 9.60284103,10.706546 L9.64609426,10.6741046 Z M2.94244142,11.4743557 C2.9532485,11.4743557 2.95054361,11.4959875 2.93432677,11.5933243 C2.92350723,11.6636431 2.91000773,11.7934213 2.90463535,11.8826041 C2.88295888,12.2773623 2.94787612,12.569385 3.14249074,12.9695168 C3.19655105,13.0803813 3.23982922,13.172307 3.23708694,13.1749876 C3.21815274,13.1912332 1.42875277,13.715782 0.8664732,13.8698726 C0.698894967,13.9158168 0.552955816,13.9563873 0.542086415,13.9590554 C0.523202079,13.9644914 0.520484729,13.9617983 0.528586919,13.9157918 C0.590749419,13.518378 0.893509587,12.9992527 1.31517252,12.561231 C1.59630607,12.2692457 1.82067443,12.0989219 2.20450636,11.8798861 C2.48021768,11.7231025 2.90459796,11.4879083 2.93703165,11.4770613 C2.93705658,11.4743557 2.939749,11.4743557 2.94244142,11.4743557 L2.94244142,11.4743557 Z M7.15925772,12.2287001 C7.16195014,12.226007 7.22681752,12.2611789 7.30519687,12.3071231 C7.88366835,12.642397 8.68917569,12.9533335 9.37571793,13.1128352 L9.43793029,13.1263753 L9.35141136,13.1749876 C8.99192339,13.3750846 7.81067385,13.8671421 6.60242532,14.3186915 C6.42669503,14.3835494 6.2537195,14.4484697 6.22123594,14.4619724 C6.18880225,14.4754751 6.15906098,14.4836042 6.15906098,14.4809111 C6.15906098,14.4781682 6.20774891,14.3835494 6.26987402,14.2673114 C6.6077603,13.634641 6.94837639,12.8640884 7.1213644,12.3287424 C7.14304087,12.2773747 7.15651544,12.2314306 7.15925772,12.2287001 L7.15925772,12.2287001 Z M6.72946767,12.3693129 C6.73220995,12.3720683 6.7105584,12.4287972 6.68350955,12.49368 C6.44835905,13.0641605 6.14016418,13.6860586 5.74553763,14.3835993 C5.64554413,14.5620646 5.56173009,14.7053705 5.55898781,14.7053705 C5.55633278,14.7053705 5.47521116,14.6566709 5.37791008,14.5971991 C4.80482344,14.2457045 4.2966665,13.8131188 3.96421492,13.3940358 L3.91553945,13.3345515 L4.16149703,13.2669507 C5.04271622,13.0263455 5.79143343,12.766789 6.53481565,12.4477608 C6.64025631,12.4044848 6.72677525,12.3693129 6.72946767,12.3693129 L6.72946767,12.3693129 Z M9.40011175,13.3020976 C9.40011175,13.3020976 9.40281664,13.3048032 9.40011175,13.3020976 C9.40280418,13.3642875 9.26494228,13.9212652 9.15139943,14.3240776 C9.05680324,14.6620446 8.97566915,14.927037 8.82703758,15.3947447 C8.76217019,15.6002778 8.70544239,15.7705641 8.70270011,15.7705641 C8.70000769,15.7705641 8.68379085,15.7678711 8.667574,15.7624974 C7.86477155,15.6164486 7.14574576,15.4136834 6.4699732,15.1433298 C6.28073095,15.0675999 6.01044187,14.9459258 5.99422503,14.9324231 C5.98884018,14.9269622 6.15103358,14.851307 6.35645527,14.7620744 C7.58635535,14.2240353 8.86220108,13.6129843 9.30008086,13.3507598 C9.35142382,13.3183059 9.39198463,13.3020976 9.40011175,13.3020976 L9.40011175,13.3020976 Z M3.23439452,13.5130044 C3.23980429,13.5183905 2.89650823,14.0131909 2.41533783,14.6864068 C2.2477596,14.9216384 2.05314498,15.197403 1.9801754,15.3001384 C1.90718089,15.4028862 1.79636786,15.5651183 1.73419289,15.6624551 L1.62061264,15.8382024 L1.4989676,15.735467 C1.35569594,15.6164735 1.10704594,15.3623407 0.996220435,15.2217403 C0.763737422,14.932473 0.606991195,14.6269475 0.54481623,14.3484897 C0.515074958,14.2186866 0.515074958,14.1537663 0.542073951,14.1456996 C0.582609834,14.13489 1.30434051,13.9645413 1.98015047,13.8076953 C2.35588021,13.7212056 2.79104264,13.6184702 2.94782626,13.5806177 C3.10462235,13.5427029 3.23170209,13.5130044 3.23439452,13.5130044 L3.23439452,13.5130044 Z M3.58037052,13.6454881 L3.66683959,13.7428124 C4.05613116,14.1781161 4.45347505,14.4999122 4.93462053,14.781038 C5.02113946,14.8297376 5.08599438,14.8729638 5.08055968,14.8757192 C5.06168781,14.8892219 3.41006247,15.4758732 2.64510349,15.7408532 C2.21533837,15.8922507 1.86121031,16.0139123 1.85854282,16.0139123 C1.8558504,16.0139123 1.83150643,15.9977165 1.80443265,15.9787778 L1.75580704,15.9436184 L1.83418639,15.8300858 C2.08825862,15.4623705 2.40727303,15.0595332 3.10195486,14.2213797 L3.58037052,13.6454881 Z M5.73746037,15.1892864 C5.7401154,15.1866058 5.85905556,15.229832 6.00500717,15.2839676 C6.35645527,15.4164263 6.63482161,15.500223 7.00788387,15.5948667 C7.46741519,15.7111422 8.13235575,15.8246997 8.52432727,15.8571286 C8.58379735,15.8625148 8.61623104,15.8679508 8.6054115,15.8760674 C8.58645237,15.8868895 8.18914587,16.0193732 7.89720525,16.1112989 C7.43223922,16.2572729 6.01314676,16.6763434 4.85624118,17.0089242 C4.64269237,17.0711016 4.45887236,17.1224817 4.44806528,17.1251623 C4.42106629,17.1305983 4.33183001,17.1062236 4.33183001,17.0954139 C4.33183001,17.0900403 4.39669739,17.0062312 4.47510167,16.914293 C4.86431844,16.4492409 5.25089266,15.9301406 5.57256209,15.4380581 C5.66173605,15.3028315 5.73746037,15.191992 5.73746037,15.1892864 Z M5.2616748,15.202839 C5.26436723,15.2055321 5.07246996,15.5137382 4.73732595,16.0436607 C4.59402936,16.2680701 4.43454086,16.5222154 4.3777632,16.6114481 C4.32370289,16.6979627 4.24261866,16.8331769 4.19668547,16.908857 L4.11828119,17.0467643 L4.07774531,17.0359421 C3.98040684,17.0088993 3.29654455,16.7682442 3.11542943,16.6952572 C2.89106107,16.6060246 2.65860299,16.4979031 2.48559005,16.4059774 C2.26937375,16.2897019 1.99908467,16.1166477 2.02068635,16.111274 C2.02608366,16.1085809 2.3964161,16.0085012 2.84239807,15.8868645 C4.02636496,15.5650809 4.68319086,15.3785489 5.1130183,15.2433721 C5.19142258,15.2190348 5.25898238,15.2000961 5.2616748,15.202839 Z M8.62701319,15.9922805 L8.62970561,15.9922805 C8.64052515,16.0193483 8.20265783,17.2360143 8.043107,17.6199254 C8.00801828,17.70644 7.99454372,17.7281092 7.97558459,17.7253538 C7.92962647,17.7226981 7.29442719,17.6334655 6.90784051,17.5766743 C6.23481023,17.4739389 5.10490365,17.2765349 4.82110261,17.211677 L4.75623522,17.1981742 L5.15893903,17.1061862 C6.02395383,16.9115251 6.44021946,16.8060967 6.86188239,16.6763185 C7.39440822,16.5140989 7.92153675,16.3113087 8.45401272,16.0625869 C8.53780183,16.0247219 8.60809145,15.994986 8.62701319,15.9922805 Z"/>
        <path fill="url(#db_mssql-b)" d="M6.61865463,0.00516170397 C6.55918455,-0.00290501697 5.59956109,0.343166039 4.98057865,0.59458092 C4.14530511,0.935290786 3.49660634,1.259755 3.09653262,1.54088085 C2.94788859,1.64637161 2.76133876,1.83290363 2.73164735,1.90589062 C2.72084028,1.93293346 2.71540558,1.96537489 2.71540558,1.99781633 L3.07763582,2.34119432 L3.93989588,2.61697145 L5.99154507,2.98468675 L8.33778991,3.38754902 L8.36213388,3.18477135 C8.35404415,3.18477135 8.34860945,3.18207829 8.34056958,3.18207829 L8.03233732,3.1333912 L7.97021222,3.02255171 C7.6512352,2.46016287 7.29983696,1.76259723 7.09441526,1.29214656 C6.93495169,0.92713679 6.78356537,0.505398146 6.69975132,0.202565711 C6.65379321,0.0187142939 6.64840837,0.00790463845 6.61871695,0.00521157551 L6.61871695,0.00514923609 L6.61865463,0.00514923609 L6.61865463,0.00516170397 Z M6.57535154,0.143093905 L6.57813121,0.143093905 C6.58078624,0.145762032 6.59160578,0.221516895 6.60243778,0.310687201 C6.64834604,0.689262031 6.73220995,1.05420946 6.86463714,1.44896761 C6.96463063,1.74638898 6.96463063,1.73018073 6.84842029,1.69500883 C6.57270897,1.61932877 5.33741159,1.40572898 4.44269291,1.28136184 C4.29942125,1.26242313 4.1777762,1.24350935 4.1777762,1.24081628 C4.16696913,1.23000663 4.82379503,0.886603699 5.11303077,0.751451836 C5.48335074,0.581078202 6.499702,0.156596623 6.57535154,0.143093905 L6.57535154,0.143093905 Z M3.96959976,1.35434883 L4.07506535,1.3894584 C4.64807721,1.58415687 6.08878382,1.85994647 6.88353394,1.92482933 C6.9727079,1.93294593 7.04843222,1.94107499 7.05108724,1.94107499 C7.05377966,1.94376805 6.9781426,1.98432608 6.88080412,2.03027023 C6.49700958,2.22223824 6.07530926,2.45746981 5.78336863,2.63862816 C5.69689956,2.69267644 5.61847035,2.73596493 5.60768821,2.73596493 C5.59686867,2.73596493 5.5401284,2.72514281 5.48065832,2.71702622 L5.3725377,2.70078056 L5.10226109,2.43580062 C4.62651292,1.97349149 4.25347559,1.61661077 4.11020393,1.48139657 L3.96959976,1.35434883 L3.96959976,1.35434883 Z M3.86151654,1.43814548 L4.24264359,1.91401968 C4.4507577,2.17628162 4.66160163,2.43312003 4.70759715,2.48987384 C4.75350541,2.54668998 4.7913738,2.59267154 4.78868138,2.5953646 C4.77786184,2.60346873 4.23728368,2.4980029 3.95071542,2.43314497 C3.65608238,2.36553163 3.5344498,2.3330902 3.35334714,2.27633639 L3.20466571,2.2276493 L3.20466571,2.18977187 C3.20735813,2.00861352 3.43714872,1.73825992 3.82637796,1.46250773 L3.86151654,1.43814548 Z M7.09978764,2.08704897 C7.11061965,2.08704897 7.12409421,2.11137382 7.1565279,2.18437328 C7.24843168,2.38713847 7.53501239,2.93331907 7.60522722,3.03874749 C7.62691616,3.07393186 7.6646973,3.07662493 7.28360765,3.01443512 C6.36728728,2.86569326 6.07261684,2.81708099 6.07261684,2.81166992 C6.07261684,2.80897686 6.09965322,2.79003814 6.1347918,2.77109943 C6.41863024,2.61431579 6.70513616,2.41421872 6.95924579,2.20061893 C7.02142076,2.14923878 7.07818595,2.10057663 7.0889681,2.09244757 C7.09166052,2.08704897 7.09709522,2.08435591 7.09978764,2.08704897 Z"/>
        <path fill="url(#db_mssql-c)" d="M2.75050676,1.86803812 C2.75050676,1.86803812 2.69107407,1.96270677 2.7478268,2.10330709 C2.78300278,2.18979681 2.88570116,2.29522523 3.0019115,2.40339659 C3.0019115,2.40339659 4.20477519,3.57679903 4.35075174,3.74445466 C5.01567983,4.5122893 5.30492804,5.26933922 5.33196443,6.31298838 C5.34818127,6.98351118 5.22110153,7.57291793 4.90486679,8.25696839 C4.34262462,9.48446897 3.15595284,10.8390422 1.3259796,12.3423199 L1.59362612,12.2530873 C1.76661412,12.1232841 2.00178955,11.9854392 2.55319972,11.6826068 C3.8263281,10.9850037 5.25896992,10.3442293 7.01598606,9.68452864 C9.54600105,8.73279271 13.7060895,7.61883715 16.0739361,7.25658278 L16.319956,7.21870535 L16.2820876,7.15922107 C16.0658837,6.8239472 15.9171649,6.61578341 15.7387422,6.3940795 C15.2197907,5.75058707 14.5900136,5.22879366 13.819595,4.79618302 C12.7599905,4.20409568 11.3894863,3.7417616 9.65415906,3.39838361 C9.32709232,3.33346334 8.60806652,3.20910866 8.0242102,3.11988848 C6.786183,2.92797035 5.98607298,2.79546167 5.10489118,2.64405169 C4.78865645,2.58995354 4.31557577,2.50886242 4.00202099,2.44128649 C3.83984006,2.40610213 3.5290151,2.33311513 3.28573747,2.24930602 C3.09112285,2.17356362 2.80997684,2.09785863 2.75050676,1.86803812 L2.75050676,1.86803812 Z M3.44794333,2.54399692 C3.45061082,2.54132879 3.49385159,2.55749964 3.55065418,2.57643836 C3.65336503,2.61154792 3.78580468,2.65211841 3.9426257,2.69540691 C4.0612631,2.72804707 4.18020004,2.75958801 4.29942125,2.79002568 C4.46160217,2.83055877 4.59673425,2.86842373 4.59942667,2.86842373 C4.6183858,2.88736245 4.89140469,3.76060057 4.98330846,4.09587444 C5.01839718,4.22298452 5.04548343,4.33110601 5.04277854,4.33110601 C5.03999887,4.33384894 5.01030746,4.28785492 4.97518134,4.22567758 C4.65890921,3.6686998 4.15884201,3.10363036 3.58037052,2.64938795 C3.50472099,2.5953646 3.44794333,2.54668998 3.44794333,2.54399692 L3.44794333,2.54399692 Z M4.77784937,2.91169976 C4.7913738,2.91169976 4.85084388,2.91981635 4.92378852,2.9360246 C5.38331985,3.03875996 6.20777384,3.19558101 6.73485251,3.28481365 C6.82406386,3.29831637 6.89436594,3.31457449 6.89436594,3.31994815 C6.89436594,3.32538415 6.86189486,3.34427299 6.82133404,3.36592971 C6.73217255,3.41187386 6.37263472,3.62544871 6.25373196,3.70657723 C5.95366421,3.90664937 5.6833876,4.12294222 5.48874805,4.31760329 C5.4103687,4.39602628 5.34275904,4.46090915 5.34275904,4.46090915 C5.34275904,4.46090915 5.32659205,4.414965 5.31301776,4.35814885 C5.21576655,3.98232942 5.01299988,3.42535164 4.82919233,3.03333643 C4.79945106,2.97117156 4.77510709,2.91438035 4.77510709,2.90899423 C4.77510709,2.91439282 4.77510709,2.91169976 4.77784937,2.91169976 L4.77784937,2.91169976 Z M7.11869691,3.35781311 C7.13491375,3.36319924 7.16195014,3.45513742 7.21599798,3.65790261 C7.31602888,4.04996769 7.36198699,4.48796446 7.34577015,4.89622532 C7.34033545,5.00978281 7.33495061,5.11521123 7.32951591,5.12876382 L7.32142618,5.15576926 L7.18087187,5.10982511 C6.89163613,5.0178994 6.42132266,4.87997967 6.01858146,4.76644712 C5.7887784,4.70425731 5.60231583,4.64747857 5.60231583,4.64207997 C5.60231583,4.62583432 5.93750969,4.29058539 6.08075642,4.16352518 C6.35371299,3.92285762 7.09435294,3.34968405 7.11869691,3.35781311 L7.11869691,3.35781311 Z M7.30520934,3.38481855 C7.31333646,3.37675183 8.42429638,3.56866997 8.92977335,3.66601921 C9.30552803,3.7390062 9.85152842,3.85257615 9.88394965,3.86611628 C9.9001665,3.8715024 9.84338884,3.90394384 9.66227372,3.98504742 C8.94868262,4.30681857 8.41884921,4.59607348 7.89180794,4.947593 C7.75394605,5.03951871 7.63769831,5.11521123 7.63500589,5.11521123 C7.63231347,5.11521123 7.62960858,5.03682565 7.62960858,4.94218194 C7.62960858,4.42849265 7.52688527,3.90936737 7.33763056,3.4713706 C7.3187213,3.42810704 7.30250445,3.38756149 7.30520934,3.38481855 L7.30520934,3.38481855 Z M10.1785702,3.95263092 C10.1866974,3.96073505 10.1515338,4.17975837 10.1191002,4.30951164 C10.0217991,4.7123739 9.75961219,5.30993465 9.43798015,5.87227362 C9.38116509,5.97231592 9.32982213,6.05343197 9.32437497,6.05612504 C9.31902752,6.0588181 9.24603302,6.0182476 9.16221897,5.96958545 C8.84867666,5.78573404 8.49188111,5.61270474 8.10261448,5.45046017 C7.99453125,5.40451602 7.89989767,5.36663858 7.89719278,5.36127739 C7.87823365,5.34503174 8.74864577,4.76914018 9.20817709,4.49336305 C9.57309976,4.27167161 10.1677507,3.94179633 10.1785702,3.95263092 L10.1785702,3.95263092 Z M10.3839919,3.98505989 C10.4083359,3.98505989 10.9003009,4.12026162 11.1570531,4.19596662 C11.7923022,4.38524156 12.5221102,4.65288963 12.9978584,4.86918248 L13.1951529,4.95844006 L13.0573409,4.99085656 C11.8950505,5.25850463 10.9003009,5.56677306 9.94068992,5.9560952 C9.86229811,5.98853664 9.79200849,6.01557948 9.78666104,6.01557948 C9.78122634,6.01557948 9.80826273,5.95340214 9.8434013,5.87767221 C10.132637,5.26394062 10.3191495,4.62315373 10.3650577,4.07697313 C10.3678125,4.02559298 10.3758648,3.98505989 10.3839919,3.98505989 L10.3839919,3.98505989 Z M5.48605563,5.10982511 C5.49414535,5.10169605 5.86988756,5.19094116 6.07261684,5.24767003 C6.38076185,5.33422209 7.03488286,5.55319553 7.03488286,5.56944118 C7.03488286,5.57213425 6.96192575,5.63432405 6.87545668,5.71005398 C6.52135355,6.00475735 6.18073745,6.31564404 5.77254909,6.71040218 C5.65090404,6.82670261 5.54821813,6.92132138 5.54283329,6.92132138 C5.53739859,6.92132138 5.53474356,6.90506326 5.53739859,6.88344395 C5.59956109,6.42920153 5.58608652,5.84521831 5.49958005,5.25310603 C5.49144047,5.1773761 5.48335074,5.11251817 5.48605563,5.10982511 L5.48605563,5.10982511 Z M13.3817402,5.11795417 C13.3870876,5.12332783 13.2087148,5.40451602 13.0951968,5.56401765 C12.9330408,5.79653122 12.6950982,6.10481212 12.1571875,6.78073352 C11.8734239,7.13758929 11.5544095,7.5404765 11.4490311,7.6756533 C11.3408606,7.81083009 11.2516992,7.92436265 11.2489569,7.92436265 C11.2462645,7.92436265 11.2111757,7.87572543 11.1733073,7.81625362 C10.8705472,7.36201121 10.5083169,6.96456 10.0785269,6.60767929 C9.99744265,6.54006595 9.90828115,6.46706649 9.87853988,6.44543471 C9.84879861,6.4238154 9.82445464,6.40218362 9.82445464,6.39949056 C9.82445464,6.3913989 10.2839361,6.19398243 10.6326918,6.05341951 C11.243597,5.80466028 12.0760534,5.50726385 12.7005204,5.31528337 C13.0275996,5.21256047 13.3763055,5.11251817 13.3817402,5.11795417 L13.3817402,5.11795417 Z M13.5898543,5.17198998 C13.6006364,5.16930938 13.6655412,5.20175082 13.743933,5.24767003 C14.4007963,5.62348946 15.0440853,6.10748025 15.5523046,6.60497376 C15.6955513,6.74558655 16.0496544,7.11328939 16.0442197,7.11598245 C16.0442197,7.11598245 15.9198823,7.12679211 15.7739431,7.13758929 C14.6359468,7.22414134 13.1790233,7.4647341 11.7788028,7.80268857 C11.6842066,7.82429541 11.6004299,7.84323412 11.5949952,7.84323412 C11.5896478,7.84323412 11.6950261,7.7378057 11.8275031,7.61074549 C12.6492149,6.81856108 13.0249695,6.31837451 13.4682342,5.42612286 C13.5303842,5.29367653 13.5844694,5.18011904 13.5898543,5.17198998 C13.5871618,5.17198998 13.5871618,5.17198998 13.5898543,5.17198998 L13.5898543,5.17198998 Z M7.57010111,5.78847697 C7.6079695,5.79654369 7.95936775,5.9615312 8.22425952,6.09397753 C8.46753714,6.21560174 8.83247228,6.41031268 8.85138154,6.42650847 C8.85407396,6.42920153 8.7243018,6.4968024 8.56488808,6.57522539 C8.05666882,6.82937073 7.62149393,7.06997596 7.16734745,7.34576555 C7.03761268,7.42418854 6.92949206,7.48910882 6.92679964,7.48910882 C6.9159801,7.48910882 6.91867252,7.47823682 6.99166702,7.34576555 C7.23495711,6.90239513 7.4295468,6.37246019 7.5404097,5.85602797 C7.55117938,5.81548241 7.56201138,5.78847697 7.57010111,5.78847697 L7.57010111,5.78847697 Z M7.2186904,5.8533349 C7.22681752,5.86146396 7.13491375,6.1939949 7.07817349,6.37515325 C6.96731059,6.71853125 6.78081063,7.14841142 6.5997329,7.47286316 C6.5564298,7.54853075 6.49157488,7.65939518 6.45643631,7.72157251 L6.3888765,7.82971894 L6.23750265,7.68375742 C6.06182223,7.51340872 5.91852563,7.40796783 5.73475549,7.31331165 C5.66172359,7.27549656 5.60498332,7.24301772 5.60498332,7.23764406 C5.60498332,7.21601228 6.06720707,6.79694177 6.42131019,6.4941218 C6.67538243,6.27511095 7.21060068,5.84523078 7.2186904,5.8533349 L7.2186904,5.8533349 Z M9.36769053,6.73746996 L9.50015511,6.82395967 C9.80282803,7.02136368 10.1596236,7.28360068 10.4326923,7.51340872 C10.5867212,7.64045646 10.8840467,7.90816686 10.9435666,7.97304973 L10.9759504,8.0082341 L10.7570542,8.07039897 C9.51902698,8.41373956 8.5621458,8.71926506 7.44576365,9.13025639 C7.32142618,9.17620054 7.21599798,9.21405303 7.20787086,9.21405303 C7.19170388,9.21405303 7.17814206,9.22755575 7.45659565,8.97069241 C8.17022414,8.31374713 8.80270607,7.58910125 9.27305694,6.88343148 L9.36769053,6.73746996 L9.36769053,6.73746996 Z M8.802731,6.87805782 C8.80811585,6.88344395 8.43780834,7.40524983 8.2161324,7.69996567 C7.95124062,8.05146026 7.48088976,8.64085454 7.1565279,9.02475315 C7.02140829,9.18430466 6.90519795,9.31677593 6.89976325,9.31949393 C6.89163613,9.32218699 6.88894371,9.28164143 6.88894371,9.21945163 C6.88894371,8.89226942 6.80516706,8.54349283 6.65917805,8.24610886 C6.59700308,8.12174172 6.58618354,8.09199335 6.59974536,8.07849063 C6.65108832,8.03250907 7.43767392,7.58369018 7.93502378,7.31604212 C8.27020517,7.13760176 8.79455402,6.87264676 8.802731,6.87805782 L8.802731,6.87805782 Z M5.38601227,7.71621132 C5.39413939,7.71621132 5.45631435,7.74862782 5.52660397,7.78650525 C5.69959198,7.88112402 5.85367071,7.98656492 5.99152014,8.10014734 C5.99690498,8.10553347 5.92665276,8.16233715 5.83474898,8.22988814 C5.57794693,8.41373956 5.18871769,8.70846787 4.96169431,8.88962622 C4.72376413,9.0788887 4.7157118,9.0842873 4.7427108,9.04374174 C4.9211335,8.77065768 5.01029499,8.61654216 5.10494104,8.41918803 C5.18871769,8.24346567 5.27249435,8.03526447 5.33196443,7.85410612 C5.35357858,7.7756956 5.38062743,7.71621132 5.38601227,7.71621132 Z M6.29698519,8.42997275 C6.31045976,8.42730462 6.32672647,8.45160452 6.39967111,8.55977589 C6.55374985,8.78954652 6.67269001,9.09781495 6.70246867,9.34654924 L6.70781612,9.40064739 L6.33754601,9.54395324 C5.67524801,9.80077919 5.06439269,10.0549495 4.65076963,10.2441745 C4.53457175,10.2982727 4.33183001,10.3955845 4.19940282,10.4605173 C4.06693823,10.5280683 3.95881762,10.5794484 3.95881762,10.5767554 C3.95881762,10.5740623 4.04259427,10.5118725 4.14530511,10.4361426 C4.95357966,9.84946627 5.65364632,9.20594891 6.17803257,8.56248142 C6.23481023,8.49486808 6.28619058,8.43267828 6.29155049,8.42998521 L6.29698519,8.42997275 Z M5.87801468,8.53273305 C5.88883422,8.5435427 5.58068921,8.89230682 5.36984528,9.10589414 C4.84815146,9.63855955 4.33185494,10.0549495 3.69120849,10.4605173 C3.61012426,10.5118725 3.53715468,10.5578166 3.52902756,10.5632526 C3.51009337,10.5740623 3.5344124,10.547007 3.81554595,10.2414815 C3.99396866,10.0495135 4.12910073,9.88729383 4.28317947,9.68724664 C4.38589032,9.55478784 4.40482451,9.53584912 4.55351841,9.43035835 C4.95087477,9.1437591 5.86719514,8.52189845 5.87801468,8.53273305 Z"/>
      </g>
      <path fill="#231F1F" d="M5.82163813,19.7448773 C5.7717785,19.7448773 5.72189696,19.7496322 5.67247546,19.7496322 C4.66531521,19.8033164 3.98603245,20.2466604 3.5888641,21.1124443 C3.2491789,21.8954668 3.28626694,22.9189946 3.59267586,23.7068159 C3.94898824,24.4766037 4.52473996,24.8828726 5.48576471,25.0363218 C5.68910264,25.0696279 5.8254499,25.1812911 6.21926653,25.6412223 L6.7038426,26.2090698 L7.58269533,26.2090698 L6.99831237,25.6198144 C6.67527627,25.2967231 6.41399513,25.0153959 6.41399513,24.9906793 C6.41399513,24.9659845 6.53757079,24.9118183 6.6871497,24.8662195 C7.18026937,24.7169555 7.5897712,24.3359072 7.87622312,23.7519106 C8.10806166,23.2829517 8.14133793,23.1379824 8.17457039,22.5545117 C8.26151805,20.8177727 7.34605923,19.7319712 5.82159432,19.7443734 L5.82163813,19.7448773 L5.82163813,19.7448773 Z M6.59216227,24.2865615 C6.16460933,24.493695 5.54377363,24.5350427 5.1385217,24.3863265 C4.71951237,24.2323953 4.31382231,23.7971368 4.13136146,23.3043815 C3.92852738,22.7655454 3.95748803,21.7715111 4.18932657,21.3238505 C4.56224422,20.6110995 5.0553858,20.2832533 5.7760284,20.2832533 C6.8448998,20.2832533 7.45296389,20.9380692 7.53230994,22.1687304 C7.5950288,23.1960709 7.25107181,23.9667789 6.59262231,24.2861233 L6.59216227,24.2865615 L6.59216227,24.2865615 Z M21.7740487,21.2283583 C21.4054028,21.2283583 21.1232227,21.3776004 20.9331602,21.6716584 L20.7839976,21.9045164 L20.7839976,21.2991338 L20.1460089,21.2991338 L20.1460089,24.9294574 L20.7835813,24.9294574 L20.7835813,23.7690896 C20.7835813,22.7080266 20.796813,22.5840052 20.9450556,22.2936503 C21.1493574,21.8954668 21.5008503,21.696901 21.8405793,21.791933 L22.0685842,21.8584576 L22.0685842,21.2293224 L21.7740487,21.2293224 L21.7740487,21.2283583 L21.7740487,21.2283583 Z M18.0258572,21.1950741 C17.9008795,21.1950741 17.7683221,21.2117272 17.6363343,21.2407386 C16.7826085,21.4640211 16.3013842,22.2813139 16.3308268,23.1223811 C16.3308268,23.8266084 16.4676122,24.1786672 16.8073412,24.547905 C17.5033168,25.1190393 18.13274,25.164638 18.9821282,24.8581998 C19.127041,24.7964301 19.2847473,24.7251506 19.2847473,24.7251506 L19.2847473,24.1540163 L18.9821282,24.310818 C18.2947181,24.6101568 17.7769095,24.6101568 17.3621501,24.2575721 C17.0976049,23.9881431 16.9811708,23.6650299 16.9275213,23.2963398 L19.4999367,23.2963398 L19.4999367,22.8068494 C19.4999367,21.8090024 18.8994742,21.178925 18.0253314,21.1950741 L18.0258572,21.1950741 Z M16.9854645,22.7869096 C16.9854645,22.7869096 17.0804957,22.1644576 17.4329744,21.9202054 C17.6026199,21.8004348 17.7973485,21.7424997 17.9878272,21.7424997 C18.1788316,21.7424997 18.3693103,21.8042475 18.5265566,21.9245001 C18.8496365,22.1730032 18.903768,22.7821985 18.903768,22.7821985 L16.9854864,22.7821985 L16.9854864,22.7869096 L16.9854645,22.7869096 Z M1.60453387,22.1321594 C0.912873834,21.7130281 0.605982961,21.410797 0.643509128,21.0544215 C0.750851927,20.0684507 1.96892982,20.2048305 2.64348073,20.5778591 L2.6482783,19.9145414 C2.6482783,19.9145414 2.27533874,19.7529847 1.74088114,19.7444172 C0.920935497,19.7320589 0.390771602,20.0009839 0.142349696,20.5483875 C-0.222528195,21.3561706 0.100551724,21.965322 1.26826613,22.6448546 C1.92382394,23.026385 2.21358377,23.3576056 2.21358377,23.7187141 C2.21358377,24.4647493 1.314314,24.7251506 0.386543611,24.25709 C0.195604868,24.162058 0.0340649087,24.082693 0.0255212982,24.082693 C-0.00775496957,24.294165 0.0093979716,24.8001989 0.0093979716,24.8001989 C0.0093979716,24.8001989 0.29444787,24.9199695 0.721956998,25.0025774 C1.78224097,25.2140275 2.7471213,24.7165392 2.83831886,23.9087562 C2.91766491,23.1504064 2.64350264,22.7526612 1.60457769,22.1316116 L1.60453387,22.1321594 L1.60453387,22.1321594 Z M27.4205647,21.1865504 C27.2960909,21.1865504 27.1640154,21.2036417 27.0262442,21.2326311 C26.1735481,21.4559575 25.6932219,22.2732722 25.7259943,23.1143394 C25.7259943,23.8176026 25.8623635,24.1663527 26.2020049,24.5350647 C26.8980024,25.1067248 27.5274475,25.1527837 28.3811294,24.8458634 C28.5255383,24.7841156 28.6827846,24.7138221 28.6827846,24.7138221 L28.6827846,24.1417237 L28.3806694,24.2994238 C27.6918572,24.5978423 27.1740049,24.5978423 26.7607351,24.2452795 C26.4946783,23.9763325 26.3792519,23.6570101 26.3255586,23.2839815 L28.8937241,23.2839815 L28.8937241,22.7945568 C28.8937241,21.8014866 28.2932178,21.1709053 27.4191189,21.1875583 L27.4205647,21.1865504 L27.4205647,21.1865504 Z M26.380172,22.7783639 C26.380172,22.7783639 26.4761452,22.1568322 26.828142,21.9078251 C26.9972836,21.7876382 27.1920341,21.7296374 27.3825347,21.7296374 C27.5725533,21.7296374 27.7640178,21.7914071 27.9213079,21.912098 C28.244344,22.160623 28.2985193,22.7740692 28.2985193,22.7740692 L26.3806978,22.7740692 L26.380172,22.7783639 L26.380172,22.7783639 Z M14.6861817,22.140223 C13.9945217,21.7220778 13.6885509,21.4188825 13.725617,21.0624851 C13.8329598,20.0760103 15.0510596,20.2128941 15.7256105,20.5859227 L15.7303862,19.9226049 C15.7303862,19.9226049 15.3574467,19.7610264 14.822989,19.7534011 C14.0030434,19.7410647 13.4728795,20.0100116 13.2239976,20.5573933 C12.8596235,21.3651545 13.1869314,21.9743497 14.3508122,22.6538604 C15.0054718,23.0349744 15.2952316,23.3618784 15.2952316,23.7229869 C15.2952316,24.4690221 14.3964219,24.7336962 13.4686296,24.2613409 C13.278611,24.1663089 13.1171148,24.0878861 13.1076073,24.0878861 C13.074331,24.2993143 13.091484,24.805414 13.091484,24.805414 C13.091484,24.805414 13.3731602,24.9208898 13.7992892,25.0078144 C14.860559,25.2197465 15.8258775,24.7226965 15.9166369,23.9149134 C15.995501,23.1603325 15.7218645,22.7626311 14.6862037,22.1410995 L14.6862037,22.140223 L14.6861817,22.140223 Z M31.1692381,21.2198127 C30.8005923,21.2198127 30.5151262,21.3694492 30.3283935,21.6636168 L30.179187,21.8954887 L30.179187,21.2910922 L29.5411984,21.2910922 L29.5411984,24.9204296 L30.178727,24.9204296 L30.178727,23.7601057 C30.178727,22.6995029 30.1915205,22.5749994 30.3402888,22.2851484 C30.5445469,21.887447 30.8960398,21.6883772 31.2357249,21.7838475 L31.4637298,21.8503502 L31.4637298,21.2198127 L31.1692381,21.2198346 L31.1692381,21.2198127 Z M9.61259148,22.1192971 L9.61259148,19.8070853 L8.96938905,19.8070853 L8.96938905,24.9285151 L11.6743838,24.9285151 L11.6743838,24.3236584 L9.61261339,24.3236584 L9.61261339,22.1192971 L9.61259148,22.1192971 Z M24.4875651,22.8401117 L23.9574012,24.220015 L23.4476325,22.8325083 L22.9298239,21.2948829 L22.2714183,21.2948829 C22.6980511,22.504684 23.1621006,23.7353452 23.6300714,24.9285151 C23.8329274,24.9332481 24.0362434,24.9285151 24.2390556,24.9285151 L24.9550101,23.1304666 L25.6842183,21.2953431 L25.0547951,21.2953431 C25.0547951,21.2953431 24.776843,22.0242651 24.4871051,22.8405938 L24.4875651,22.8401117 L24.4875651,22.8401117 Z M11.0947546,18.4115149 C11.1983294,18.4115149 11.2847732,18.3782965 11.3560357,18.307017 C11.4263124,18.2366578 11.4633785,18.1539841 11.4633785,18.0504064 C11.4633785,17.9468069 11.4263124,17.8603205 11.3560357,17.7937959 C11.2847732,17.7272932 11.2025793,17.6939871 11.0994864,17.6939871 C10.9950134,17.6939871 10.9085258,17.7272932 10.8382053,17.7975867 C10.7669647,17.8679459 10.7346523,17.9544322 10.7346523,18.0542191 C10.7346523,18.1587609 10.7679286,18.2452034 10.8382053,18.3108296 C10.9047359,18.3773104 10.9912016,18.4105946 11.0947546,18.4105946 L11.0947546,18.4115149 L11.0947546,18.4115149 Z M10.8667497,17.8223252 C10.9284828,17.7605774 11.003557,17.7320262 11.0995083,17.7320262 C11.1897858,17.7320262 11.26486,17.7605774 11.3275789,17.8223252 C11.3893339,17.884095 11.4225882,17.9591652 11.4225882,18.0504064 C11.4225882,18.1416258 11.3893339,18.2205306 11.3275789,18.2822784 C11.2648819,18.3440043 11.1897858,18.3734977 11.0995083,18.3734977 C11.0078288,18.3734977 10.9332365,18.3449903 10.8715034,18.2822784 C10.8097485,18.2205306 10.7764941,18.1416258 10.7764941,18.0504064 C10.7764941,17.9591652 10.8049947,17.8841169 10.8667497,17.8223252 Z M11.0201623,18.0836907 L11.0619602,18.0836907 C11.0914467,18.0836907 11.1204073,18.1121762 11.1450961,18.1663643 L11.1950215,18.2784657 L11.2733817,18.2784657 L11.2116487,18.1539403 C11.1864779,18.1040907 11.161789,18.0751012 11.1327846,18.0669719 C11.1693688,18.0584262 11.1983294,18.0460898 11.2192503,18.0213512 C11.2401055,18.000009 11.247729,17.9709976 11.247729,17.9381955 C11.247729,17.9002002 11.2358556,17.8717147 11.2107067,17.8507888 C11.1821842,17.8270363 11.1365744,17.8142178 11.0776454,17.8142178 L10.9456357,17.8142178 L10.9456357,18.2784657 L11.0121225,18.2784657 L11.0121225,18.0836468 L11.0201623,18.0836907 L11.0201623,18.0836907 Z M11.0201623,17.8679459 L11.0781493,17.8679459 C11.1199473,17.8679459 11.1494118,17.8764915 11.165557,17.8888279 C11.1812422,17.9011863 11.185514,17.9173792 11.185514,17.9468069 C11.185514,18.0004911 11.1522158,18.0257117 11.0905047,18.0257117 L11.0192641,18.0257117 L11.0192641,17.8679459 L11.0201623,17.8679459 L11.0201623,17.8679459 Z M0.395021501,18.0423209 C0.395021501,17.8807643 0.390289655,17.7605774 0.38647789,17.6897581 L0.390289655,17.6897581 C0.406894929,17.7733302 0.427333874,17.8356258 0.443961055,17.8769517 L1.06151075,19.256855 L1.1650856,19.256855 L1.78263529,17.8646153 C1.79930629,17.8266419 1.81593347,17.7695832 1.83635051,17.6902183 L1.84108235,17.6902183 C1.82874888,17.8280443 1.82447708,17.947771 1.82447708,18.0432632 L1.82447708,19.2611497 L2.03583286,19.2611497 L2.03583286,17.4507429 L1.77076187,17.4507429 L1.20309371,18.7099334 C1.18217282,18.7598049 1.15319026,18.8344589 1.11614604,18.9332816 L1.10755862,18.9332816 C1.09522515,18.8843304 1.0662426,18.8097203 1.02492657,18.7184791 L0.47003002,17.4464262 L0.188353753,17.4464262 L0.188353753,19.2568112 L0.391669777,19.2568112 L0.391669777,18.0432193 L0.395021501,18.0423209 Z M2.4990499,18.0456954 L2.68151075,18.0456954 L2.68151075,19.1732391 L2.4990499,19.1732391 L2.4990499,18.0456954 L2.4990499,18.0456954 Z M2.59026937,17.6322612 C2.62829939,17.6322612 2.66058986,17.6193989 2.6852787,17.594266 C2.7104714,17.5695274 2.72712049,17.5372292 2.72712049,17.4992339 C2.72712049,17.462159 2.7147432,17.4288748 2.68578256,17.4042019 C2.66012982,17.3790032 2.6273355,17.3661409 2.58980933,17.3661409 C2.55278702,17.3661409 2.51953266,17.3790032 2.49477809,17.4042019 C2.46967302,17.4288748 2.45300203,17.462159 2.45300203,17.4992339 C2.45300203,17.5405817 2.46583935,17.5695274 2.49477809,17.594266 C2.52334442,17.6193989 2.55276511,17.6322612 2.58980933,17.6322612 L2.59026937,17.6322612 Z M3.98222069,19.1979777 L3.98222069,18.9993242 C3.8824357,19.0739343 3.77507099,19.1110311 3.66391643,19.1110311 C3.5309428,19.1110311 3.42305233,19.0654324 3.34418824,18.9780258 C3.26582799,18.8915394 3.22403002,18.7712649 3.22403002,18.6216064 C3.22403002,18.4648047 3.26582799,18.3402574 3.35227181,18.2452253 C3.43540771,18.154006 3.54327627,18.1083854 3.67535172,18.1083854 C3.78317647,18.1083854 3.8866856,18.1416915 3.9822426,18.208238 L3.9822426,17.996788 C3.89531684,17.9511673 3.7960357,17.9302415 3.68389533,17.9302415 C3.47674564,17.9302415 3.3152714,17.996788 3.19460933,18.1251261 C3.07486734,18.2533985 3.01311237,18.4277955 3.01311237,18.6383033 C3.01311237,18.8254969 3.06678377,18.9828026 3.1784641,19.1030333 C3.29483245,19.2265508 3.4435789,19.2892846 3.62597404,19.2892846 C3.76700933,19.2853843 3.8824357,19.2559128 3.98222069,19.1979777 L3.98222069,19.1979777 Z M4.50427911,18.5968679 C4.50427911,18.4481298 4.53753347,18.3279429 4.59928844,18.2452034 C4.65727546,18.1706372 4.72755213,18.133102 4.81068803,18.133102 C4.88100852,18.133102 4.93086815,18.1459205 4.96743043,18.17491 L4.96743043,17.9591652 C4.93895172,17.9468288 4.89761379,17.942556 4.84394239,17.942556 C4.7693501,17.942556 4.70288519,17.967667 4.64443813,18.0138354 C4.58268316,18.0627209 4.53328357,18.1373749 4.50430101,18.2324069 L4.49956917,18.2324069 L4.49956917,17.9677108 L4.29292333,17.9677108 L4.29292333,19.2601856 L4.50002921,19.2601856 L4.50002921,18.5968679 L4.50427911,18.5968679 L4.50427911,18.5968679 Z M5.69335254,19.2858445 C5.88814686,19.2858445 6.04491116,19.2231106 6.16127951,19.0986509 C6.27716592,18.9750458 6.33513103,18.8087781 6.33513103,18.601557 C6.33513103,18.3901727 6.28196349,18.2285942 6.17363489,18.1083197 C6.06629209,17.9881766 5.9170856,17.9301319 5.72229128,17.9301319 C5.52749696,17.9301319 5.37073266,17.9881328 5.2543643,18.1002561 C5.12991237,18.2238612 5.06434564,18.3982363 5.06434564,18.6220447 C5.06434564,18.8168636 5.117557,18.9784421 5.22969736,19.0986509 C5.34558377,19.2231106 5.49904016,19.2853624 5.69335254,19.2853624 L5.69335254,19.2858445 L5.69335254,19.2858445 Z M5.39881704,18.232867 C5.47768114,18.1497113 5.58127789,18.1083416 5.70949777,18.1083416 C5.84255903,18.1083416 5.9423002,18.1497113 6.01641055,18.232867 C6.09098093,18.3198354 6.12806897,18.4438788 6.12806897,18.6096864 C6.12806897,18.7674084 6.0947927,18.8914518 6.02447221,18.9746075 C5.95419554,19.0615759 5.85062069,19.1076348 5.71376957,19.1076348 C5.58077404,19.1076348 5.47768114,19.0615321 5.39881704,18.9746075 C5.3204568,18.8871789 5.28290872,18.7674084 5.28290872,18.6096864 C5.27484706,18.4528846 5.31618499,18.3246122 5.39881704,18.232867 Z M7.24206815,19.1732391 C7.32091034,19.1029456 7.36275213,19.0164593 7.36275213,18.908061 C7.36275213,18.813029 7.32945396,18.734168 7.26772089,18.6719162 C7.2173355,18.6220666 7.13947911,18.5768842 7.0268787,18.5312636 C6.92707181,18.4894995 6.86533874,18.4523807 6.83206247,18.4233912 C6.79883002,18.3901508 6.77839108,18.3488468 6.77839108,18.2903639 C6.77839108,18.2366797 6.79931197,18.1953319 6.84018986,18.1620696 C6.88198783,18.1288511 6.93519919,18.112702 7.00646166,18.112702 C7.11809817,18.112702 7.21356755,18.1421298 7.30095335,18.2044034 L7.30095335,17.9972043 C7.2173574,17.9554402 7.12661988,17.9354784 7.02304503,17.9354784 C6.89004949,17.9354784 6.77793103,17.9720932 6.69523327,18.0428249 C6.6082856,18.113206 6.56699148,18.2044253 6.56699148,18.3117719 C6.56699148,18.4068039 6.59547018,18.4857087 6.64960162,18.5436438 C6.69521136,18.5930771 6.77317728,18.6434745 6.88144016,18.6885693 C6.98503692,18.7342118 7.0553355,18.7755158 7.09283976,18.8087562 C7.12988398,18.8420623 7.14651116,18.8833663 7.14651116,18.9323613 C7.14651116,19.0530084 7.06387911,19.115304 6.90233915,19.115304 C6.77786531,19.115304 6.66627262,19.0744163 6.56644381,18.9917646 L6.56644381,19.2150251 C6.6567213,19.2692571 6.7650499,19.29393 6.88474807,19.29393 C7.03820446,19.2858664 7.15836268,19.2483313 7.24103854,19.1737212 L7.24206815,19.1732391 L7.24206815,19.1732391 Z M8.2282856,17.9301757 C8.03346937,17.9301757 7.87672698,17.9881766 7.76033671,18.1002999 C7.63682677,18.223905 7.57031805,18.3982801 7.57031805,18.6220885 C7.57031805,18.8169074 7.62403327,18.9784859 7.73564787,19.0986947 C7.85203813,19.2231545 8.00499067,19.2854062 8.19978499,19.2854062 C8.39928925,19.2854062 8.55134361,19.2227162 8.66771197,19.0981689 C8.78410223,18.9746513 8.84204544,18.8083398 8.84204544,18.6011407 C8.84204544,18.3896907 8.78789209,18.228156 8.68050548,18.1079252 C8.56845274,17.9876945 8.41922434,17.9297156 8.22920568,17.9297156 L8.2282856,17.9301757 L8.2282856,17.9301757 Z M8.63016389,18.6097083 C8.63016389,18.7674303 8.59690953,18.8914737 8.52661095,18.9746294 C8.45629047,19.0615979 8.35271562,19.1076567 8.21588641,19.1076567 C8.08282515,19.1076567 7.97977606,19.061554 7.90089006,18.9746294 C7.82252982,18.8872009 7.78500365,18.7674303 7.78500365,18.6097083 C7.78500365,18.4433968 7.82636349,18.3151244 7.90949939,18.2285942 C7.98783773,18.1459205 8.09145639,18.1040907 8.22018012,18.1040907 C8.34842191,18.1040907 8.45153671,18.1458767 8.52608519,18.2285942 C8.59261582,18.3198135 8.62968195,18.4438569 8.62968195,18.6097083 L8.63016389,18.6097083 L8.63016389,18.6097083 Z M9.1898142,19.2563948 L9.39646004,19.2563948 L9.39646004,18.1373968 L9.6990572,18.1373968 L9.6990572,17.9634599 L9.39643813,17.9634599 L9.39643813,17.7638861 C9.39643813,17.5824116 9.46671481,17.4911704 9.61210953,17.4911704 C9.66104909,17.4911704 9.71093063,17.5035068 9.74799675,17.5244327 L9.74799675,17.3377212 C9.71093063,17.32109 9.66104909,17.3172992 9.59876836,17.3172992 C9.48715375,17.3172992 9.39595619,17.3505835 9.32134199,17.4208769 C9.23439432,17.5035506 9.18834645,17.6109409 9.18834645,17.7563923 L9.18834645,17.9683244 L8.96976146,17.9683244 L8.96976146,18.1422174 L9.18834645,18.1422174 L9.18834645,19.2570084 L9.1898142,19.2563948 L9.1898142,19.2563948 Z M10.0386986,18.9038101 C10.0386986,19.1566299 10.1503789,19.2853843 10.3783838,19.2853843 C10.4610596,19.2853843 10.5232746,19.2721057 10.5731562,19.2426342 L10.5731562,19.0649285 C10.53517,19.0934578 10.4900203,19.1067802 10.4401606,19.1067802 C10.369884,19.1067802 10.3204625,19.0900834 10.291458,19.0525482 C10.2619935,19.015539 10.2453882,18.9527613 10.2453882,18.866275 L10.2453882,18.1369147 L10.5731343,18.1369147 L10.5731343,17.9629779 L10.2453882,17.9629779 L10.2453882,17.5819295 C10.1741258,17.6066243 10.1043091,17.6275502 10.0382385,17.6484103 L10.0382385,17.962956 L9.81496552,17.962956 L9.81496552,18.1368928 L10.0382385,18.1368928 L10.0382385,18.9033499 L10.0386986,18.9038101 L10.0386986,18.9038101 Z M32.2713639,21.2862934 C32.2010653,21.2198127 32.1179294,21.1865285 32.0148584,21.1865285 C31.9103635,21.1865285 31.823854,21.2198127 31.7535554,21.2910702 C31.6832568,21.3609255 31.6499586,21.4478501 31.6499586,21.5476808 C31.6499586,21.6512803 31.6832568,21.7377667 31.7530296,21.8042475 C31.823372,21.8707721 31.9097939,21.9040782 32.0143327,21.9040782 C32.1174037,21.9040782 32.2043513,21.8707721 32.2756357,21.8004567 C32.3454742,21.7291772 32.3825185,21.6469856 32.3825185,21.54389 C32.3787067,21.4393482 32.3411805,21.35284 32.2708819,21.2863373 L32.2713639,21.2862934 L32.2713639,21.2862934 Z M32.2381314,21.775762 C32.1763546,21.8375098 32.1013022,21.8660172 32.0100828,21.8660172 C31.9198491,21.8660172 31.8447968,21.8375098 31.7820779,21.775762 C31.7203448,21.7130281 31.6870467,21.6346273 31.6870467,21.542904 C31.6870467,21.4526049 31.7155473,21.3775785 31.7782661,21.3148447 C31.8399992,21.2531188 31.9146353,21.2245456 32.0100828,21.2245456 C32.1003602,21.2245456 32.1754564,21.2531188 32.2381314,21.3148447 C32.2998645,21.3775785 32.3331189,21.4526049 32.3331189,21.542904 C32.3331189,21.638922 32.3046183,21.7130281 32.2381314,21.775762 L32.2381314,21.775762 Z M32.0518807,21.56429 C32.0889249,21.5557444 32.1184114,21.5391132 32.1388284,21.5186913 C32.1597493,21.4972834 32.1673728,21.468272 32.1673728,21.4350973 C32.1673728,21.3980223 32.1554775,21.3685508 32.1303286,21.3481289 C32.101828,21.3243545 32.0557582,21.3115141 31.997355,21.3115141 L31.8652795,21.3115141 L31.8652795,21.775258 L31.9318101,21.775258 L31.9318101,21.5804391 L31.9731043,21.5804391 C32.0016487,21.5804391 32.0301493,21.6089246 32.0557582,21.6631128 L32.1051359,21.7747759 L32.1840438,21.7747759 L32.1223108,21.6502505 C32.1009079,21.5960842 32.0761972,21.5713456 32.0510702,21.5632602 L32.0518807,21.56429 L32.0518807,21.56429 Z M32.006271,21.522504 L31.9350304,21.522504 L31.9350304,21.3657242 L31.9934775,21.3657242 C32.0348154,21.3657242 32.0637761,21.3732838 32.0804252,21.3861461 C32.0970304,21.3984825 32.1008422,21.4146535 32.1008422,21.444125 C32.1008422,21.4978092 32.0675878,21.5225478 32.0058548,21.5225478 L32.006271,21.522504 Z M20.4486499,17.9097757 L20.506615,17.9097757 L20.506615,17.4455278 L20.6600057,17.4455278 L20.6600057,17.3875489 L20.2952154,17.3875489 L20.2952154,17.4455278 L20.4486937,17.4455278 L20.4486937,17.9097757 L20.4486499,17.9097757 L20.4486499,17.9097757 Z M20.8001866,17.5610037 C20.8001866,17.5158213 20.8001866,17.4787682 20.7968568,17.4579081 C20.8006686,17.4825809 20.8092122,17.4992559 20.8130239,17.5115923 L20.9911911,17.9097757 L21.0196917,17.9097757 L21.1982751,17.5077577 C21.2030726,17.4954213 21.2068844,17.4792503 21.2149241,17.4579081 C21.2111124,17.4992559 21.2111124,17.5324305 21.2111124,17.557673 L21.2111124,17.9093156 L21.2728892,17.9093156 L21.2728892,17.3875489 L21.1982751,17.3875489 L21.0368008,17.7477371 C21.032989,17.7605994 21.0201079,17.7857323 21.0120682,17.8142836 L21.0073144,17.8142836 C21.0039846,17.7976086 20.9954629,17.7809994 20.9835675,17.7525358 L20.8220495,17.3875927 L20.7384535,17.3875927 L20.7384535,17.9102797 L20.7968568,17.9102797 L20.7968568,17.5615076 L20.8001866,17.5610037 L20.8001866,17.5610037 Z"/>
    </g>
  </g>
</svg>
