<svg xmlns="http://www.w3.org/2000/svg" xmlns:xlink="http://www.w3.org/1999/xlink" width="36" height="36" viewBox="0 0 36 36">
  <defs>
    <polygon id="db_mysql-a" points=".04 .169 13.156 .169 13.156 13.043 .04 13.043"/>
    <polygon id="db_mysql-c" points=".162 .018 2.101 .018 2.101 .922 .162 .922"/>
  </defs>
  <g fill="none" fill-rule="evenodd" transform="translate(1.8 6.84)">
    <path fill="#5C87A1" d="M21.8906598,2.39634212 C21.7393327,2.39634212 21.6326033,2.414448 21.5249209,2.44113035 L21.5249209,2.45904565 L21.5424551,2.45904565 C21.6144974,2.60141506 21.7393327,2.70013976 21.8279562,2.82497506 C21.899808,2.96772565 21.9621304,3.10990447 22.0334104,3.25265506 C22.042368,3.24407859 22.0509445,3.23473976 22.0509445,3.23473976 C22.1765421,3.14592565 22.2388645,3.00317506 22.2388645,2.78876329 C22.1851186,2.72605976 22.1765421,2.66411859 22.1317539,2.60141506 C22.0781986,2.51241035 21.9621304,2.46781271 21.8906598,2.39634212"/>
    <path fill="#00758F" d="M7.69928824 20.0037028L6.46370471 20.0037028C6.42006 17.9182864 6.29960824 15.9571334 6.10273059 14.1198628L6.09186706 14.1198628 4.21057059 20.0037028 3.26982706 20.0037028 1.39977529 14.1198628 1.38891176 14.1198628C1.25016353 15.8843287 1.16287412 17.8454816 1.12666235 20.0037028L.0000952941176 20.0037028C.0727094118 17.3789216.254911765 14.9180464.546702353 12.6212675L2.07807882 12.6212675 3.86065059 18.0457899 3.87170471 18.0457899 5.66533059 12.6212675 7.13076353 12.6212675C7.45152353 15.3114205 7.64096824 17.7726769 7.69928824 20.0037028M13.0582864 14.5570532C12.5551334 17.2870391 11.8915052 19.2710626 11.0677828 20.5089332 10.4256911 21.4624461 9.72261106 21.9392979 8.95682753 21.9392979 8.75270753 21.9392979 8.50113106 21.8777379 8.20228871 21.7557614L8.20228871 21.0974696C8.34827929 21.1190061 8.51961812 21.1302508 8.71649576 21.1302508 9.07365812 21.1302508 9.36163694 21.0317167 9.58062282 20.8346485 9.84287224 20.5945073 9.97399694 20.3246344 9.97399694 20.0254108 9.97399694 19.8211002 9.87165106 19.4021873 9.66791224 18.7681002L8.31187694 14.5570532 9.52573341 14.5570532 10.4988769 17.7063332C10.7176722 18.4214202 10.8087734 18.9207614 10.7723711 19.2053096 11.304684 17.7835214 11.6765216 16.2340391 11.8880746 14.5570532L13.0582864 14.5570532z"/>
    <polygon fill="#F29111" points="29.507 20.004 25.996 20.004 25.996 12.621 27.178 12.621 27.178 19.096 29.507 19.096"/>
    <path fill="#F29111" d="M20.681244 18.5268346C20.3822111 18.0457899 20.2325993 17.2735264 20.2325993 16.2087099 20.2325993 14.3495216 20.7976934 13.4194511 21.9276911 13.4194511 22.5185146 13.4194511 22.9521028 13.6418675 23.2294087 14.0863193 23.5282511 14.5679358 23.6778628 15.3333381 23.6778628 16.3832887 23.6778628 18.2571522 23.1125781 19.1944652 21.9825805 19.1944652 21.3919475 19.1944652 20.9581687 18.9724299 20.681244 18.5268346L20.681244 18.5268346zM25.0777334 20.1819028L23.7207452 19.5127475C23.8415781 19.4134511 23.9565028 19.3067216 24.0601828 19.1828393 24.6363311 18.5056793 24.9246911 17.5029946 24.9246911 16.1757381 24.9246911 13.7335405 23.9658416 12.5114887 22.0483334 12.5114887 21.1077805 12.5114887 20.3749687 12.8211946 19.8498981 13.4415593 19.2735593 14.1196722 18.9857711 15.1183546 18.9857711 16.4381781 18.9857711 17.736084 19.2407781 18.6880722 19.7511734 19.2928087 20.217924 19.8394158 20.9215758 20.1129099 21.8623193 20.1129099 22.2135734 20.1129099 22.5358581 20.0698369 22.8289828 19.9833099L24.5959264 21.0115334 25.0777334 20.1819028zM18.4710494 17.9574904C18.4710494 18.5835727 18.2410094 19.0973986 17.7824541 19.4997304 17.3235176 19.8999656 16.7069647 20.1008456 15.9347012 20.1008456 15.2127529 20.1008456 14.5127224 19.8698527 13.8349906 19.411488L14.1521294 18.7774009C14.7353294 19.0690009 15.2634494 19.2146104 15.7374424 19.2146104 16.1820847 19.2146104 16.5299082 19.1156951 16.7818659 18.9201515 17.0330612 18.7232739 17.1836259 18.4486362 17.1836259 18.1002409 17.1836259 17.6616974 16.8779224 17.2870009 16.3170212 16.9729115 15.7990024 16.6887445 14.7642988 16.0952527 14.7642988 16.0952527 14.2033976 15.6864409 13.9224706 15.2473256 13.9224706 14.5242339 13.9224706 13.9263586 14.1319271 13.4430268 14.55084 13.0751915 14.9705153 12.7065939 15.5119765 12.5222951 16.1750329 12.5222951 16.8603882 12.5222951 17.4834212 12.7052598 18.0448941 13.0696645L17.7597741 13.7033704C17.2794918 13.4996315 16.80588 13.3974762 16.3387482 13.3974762 15.9600494 13.3974762 15.6680682 13.4885774 15.46452 13.6715421 15.2596376 13.8529821 15.1332776 14.0862621 15.1332776 14.3710009 15.1332776 14.8082104 15.4456518 15.1874809 16.0221812 15.5076692 16.54668 15.7922174 17.6069224 16.3969539 17.6069224 16.3969539 18.1836424 16.8051939 18.4710494 17.2403068 18.4710494 17.9574904"/>
    <g transform="translate(18.868 .022)">
      <mask id="db_mysql-b" fill="#fff">
        <use xlink:href="#db_mysql-a"/>
      </mask>
      <path fill="#00758F" d="M12.1209734,10.1264866 C11.4070299,10.1085713 10.854324,10.1798513 10.3904322,10.3763478 C10.2566393,10.4297125 10.0429899,10.4297125 10.0245028,10.5991454 C10.0963546,10.6704254 10.1049311,10.7863031 10.1678252,10.8848372 C10.2745546,11.0632278 10.4615216,11.3037501 10.6315264,11.4289666 C10.818684,11.5717172 11.0060322,11.713896 11.2027193,11.8387313 C11.5501616,12.0537148 11.9427734,12.1781689 12.2812581,12.3923901 C12.4781358,12.5170348 12.6736793,12.6775101 12.8707475,12.8116842 C12.9683287,12.8829642 13.0302699,12.9990325 13.1556769,13.0432489 L13.1556769,13.0161854 C13.0929734,12.9361384 13.0752487,12.8202607 13.0133075,12.7304936 C12.9241122,12.6418701 12.8347264,12.5610607 12.7453405,12.4724372 C12.4865216,12.1244231 12.1649993,11.8215784 11.8179381,11.5717172 C11.5322464,11.3750301 10.9074981,11.1072536 10.7920016,10.7782984 C10.7920016,10.7782984 10.7828534,10.7687689 10.7740864,10.7600019 C10.9702016,10.741896 11.2027193,10.6704254 11.3896864,10.6162984 C11.6925311,10.5362513 11.9690746,10.5543572 12.2812581,10.4743101 C12.4241993,10.4384795 12.5669499,10.3935007 12.7102722,10.3496654 L12.7102722,10.268856 C12.548844,10.1085713 12.4335381,9.89415953 12.2639146,9.74264188 C11.8093616,9.35041129 11.3092581,8.96713835 10.7920016,8.64542541 C10.5150769,8.46703482 10.1582958,8.35153835 9.86383694,8.19963953 C9.75748871,8.14589365 9.57909812,8.11959247 9.51639459,8.02982541 C9.35572871,7.83371012 9.26615224,7.57527247 9.15046518,7.343136 C8.89221812,6.85294306 8.64178518,6.30919482 8.41917812,5.79079482 C8.25870282,5.44316188 8.16054988,5.09571953 7.964244,4.77419718 C7.04503694,3.257496 6.04635459,2.33943247 4.51211929,1.43833129 C4.18202047,1.25060188 3.78959929,1.17036424 3.37068635,1.07240188 C3.14731694,1.06287247 2.92451929,1.04571953 2.70153106,1.03695247 C2.55858988,0.974248941 2.41564871,0.804434824 2.291004,0.724197176 C1.782324,0.403246588 0.471648706,-0.292400471 0.0967616471,0.626234824 C-0.144141882,1.20638541 0.453542824,1.77700659 0.658806353,2.07146541 C0.810324,2.27653835 1.00701106,2.50867482 1.11335929,2.74043012 C1.17587224,2.89213835 1.19378753,3.05280424 1.25649106,3.21327953 C1.39905106,3.60570071 1.53265341,4.04291012 1.72038282,4.40883953 C1.81815459,4.59599718 1.92507459,4.79268424 2.04990988,4.96116424 C2.12195224,5.06007953 2.24640635,5.10391482 2.27327929,5.26515247 C2.14882518,5.44316188 2.13910518,5.71093835 2.06782518,5.93392659 C1.74687459,6.94213835 1.87170988,8.19087247 2.326644,8.93111718 C2.46901341,9.15391482 2.80845106,9.64487012 3.26338518,9.45695012 C3.664764,9.29666541 3.57556871,8.78836659 3.69144635,8.34258071 C3.71812871,8.23470776 3.70021341,8.16399953 3.75376871,8.09271953 L3.75376871,8.11082541 C3.87841341,8.36011482 4.00362988,8.60044659 4.11969812,8.85107012 C4.39643224,9.28770776 4.87766753,9.74264188 5.27961812,10.0456772 C5.49307694,10.2069148 5.66250988,10.4828866 5.93028635,10.5814207 L5.93028635,10.5543572 L5.91256165,10.5543572 C5.85900635,10.4743101 5.77895929,10.4384795 5.70748871,10.3763478 C5.54682282,10.2156819 5.36881341,10.019376 5.24340635,9.84098541 C4.86890047,9.34164424 4.53842047,8.78836659 4.244724,8.21736424 C4.10159224,7.94024894 3.97713812,7.63721365 3.86087929,7.36086071 C3.80751459,7.25451247 3.80751459,7.09327482 3.71812871,7.04010071 C3.58395459,7.23602541 3.38841106,7.40583953 3.29025812,7.64579012 C3.12063459,8.02982541 3.10310047,8.50248424 3.04020635,8.99343953 C3.00456635,9.00277835 3.02248165,8.99343953 3.00456635,9.01097365 C2.71944635,8.93969365 2.62129341,8.64542541 2.51399224,8.39651718 C2.24640635,7.76243012 2.20142753,6.74545129 2.43375459,6.01397365 C2.49588635,5.82700659 2.76423459,5.23847012 2.65674282,5.06007953 C2.60299694,4.88969365 2.42460635,4.79268424 2.326644,4.65831953 C2.21095694,4.488696 2.08535929,4.27504659 2.005884,4.08731718 C1.79166282,3.587976 1.68398047,3.03488894 1.45279694,2.53535718 C1.34568635,2.30322071 1.15814753,2.06212659 1.00701106,1.84847718 C0.837006353,1.60757365 0.649848706,1.43833129 0.515865176,1.15302071 C0.471648706,1.05467718 0.409135765,0.894201882 0.480225176,0.787472471 C0.497949882,0.716001882 0.533971059,0.688938353 0.605441647,0.671023059 C0.720938118,0.573060706 1.05122753,0.697514824 1.16691459,0.751260706 C1.497204,0.884481882 1.77374753,1.01007953 2.04990988,1.19704659 C2.17493576,1.28662306 2.30891929,1.45586541 2.46901341,1.50103482 L2.65674282,1.50103482 C2.94205341,1.56278541 3.26338518,1.51818776 3.53135224,1.59880659 C4.00362988,1.75032424 4.43169106,1.97350306 4.81553576,2.214216 C5.98365106,2.95484188 6.94726518,4.00765129 7.598124,5.26515247 C7.70523459,5.46984424 7.75021341,5.65738306 7.84817576,5.87103247 C8.035524,6.30919482 8.26766047,6.75517129 8.45462753,7.18285129 C8.64178518,7.60214541 8.82074753,8.02982541 9.088524,8.37822071 C9.22193576,8.56537835 9.75748871,8.66334071 9.99820165,8.76168424 C10.1762111,8.84173129 10.4531358,8.91320188 10.6138016,9.01097365 C10.9172181,9.19813129 11.2196816,9.41254306 11.505564,9.61799718 C11.648124,9.72510776 12.0941005,9.94790541 12.1209734,10.1264866" mask="url(#db_mysql-b)"/>
    </g>
    <g transform="translate(29.922 19.08)">
      <mask id="db_mysql-d" fill="#fff">
        <use xlink:href="#db_mysql-c"/>
      </mask>
      <path fill="#F29111" d="M0.427718118,1.01787718 L0.623261647,1.01787718 L0.623261647,0.187704399 L0.879602824,0.187704399 L0.879602824,0.0178771765 L0.161656941,0.0178771765 L0.161656941,0.187704399 L0.427718118,0.187704399 L0.427718118,1.01787718 Z M1.91697459,1.01787718 L2.101464,1.01787718 L2.101464,0.0178771765 L1.82415812,0.0178771765 L1.59831106,0.699503809 L1.35245224,0.0178771765 L1.08486635,0.0178771765 L1.08486635,1.01787718 L1.25944518,1.01787718 L1.25944518,0.257025933 L1.26954635,0.257025933 L1.52703106,1.01787718 L1.66006165,1.01787718 L1.91697459,0.257025933 L1.91697459,1.01787718 Z" mask="url(#db_mysql-d)"/>
    </g>
  </g>
</svg>
