<svg xmlns="http://www.w3.org/2000/svg" width="36" height="36" viewBox="0 0 36 36">
  <g fill="none" fill-rule="evenodd">
    <rect width="36" height="36"/>
    <path fill="#EA1B22" d="M30.4274631,3.95353846 C29.8001871,3.95353846 29.2679929,3.51323077 29.1055614,2.904 L32.5984983,2.904 L33.0805104,2.11753846 L29.1055614,2.11753846 C29.2679929,1.51246154 29.8001871,1.068 30.4274631,1.068 L32.8256515,1.068 L33.3102915,0.281538462 L30.3733193,0.281538462 C29.1993359,0.281538462 28.2471838,1.28123077 28.2471838,2.51076923 C28.2471838,3.74169231 29.2006565,4.73723077 30.3733193,4.73723077 L32.8929879,4.73723077 L33.375,3.95215385 L30.4274631,3.95215385 L30.4274631,3.95353846 Z M20.4333057,4.73861538 C19.2606429,4.73861538 18.3071702,3.74307692 18.3071702,2.51215385 C18.3071702,1.28123077 19.2606429,0.282923077 20.4333057,0.282923077 L23.3663162,0.282923077 L22.888279,1.06938462 L20.4874495,1.06938462 C19.7281154,1.06938462 19.1100834,1.716 19.1100834,2.51353846 C19.1100834,3.30969231 19.7267948,3.95353846 20.4874495,3.95353846 L23.4349864,3.95353846 L22.9529743,4.74 L20.4333057,4.73861538 Z M4.91383709,3.95353846 C5.6731712,3.95353846 6.28988255,3.30969231 6.28988255,2.51353846 C6.28988255,1.71738462 5.67449178,1.06938462 4.91383709,1.06938462 L2.55395874,1.06938462 C1.79462463,1.06938462 1.17791328,1.716 1.17791328,2.51353846 C1.17791328,3.30969231 1.79330405,3.95353846 2.55395874,3.95353846 L4.91383709,3.95353846 Z M2.49981492,4.73861538 C1.32713894,4.73861538 0.375,3.74307692 0.375,2.51215385 C0.375,1.28123077 1.32713894,0.282923077 2.49981492,0.282923077 L4.96930149,0.282923077 C6.14197747,0.282923077 7.09411641,1.28261538 7.09411641,2.51215385 C7.09411641,3.74307692 6.14329805,4.73861538 4.96930149,4.73861538 L2.49981492,4.73861538 Z M11.1034005,3.29584615 C11.8970697,3.29584615 12.5415133,2.62430769 12.5415133,1.79215385 C12.5415133,0.96 11.8970697,0.284307692 11.1034005,0.284307692 L7.52858758,0.284307692 L7.52858758,4.74 L8.34604046,4.74 L8.34604046,1.07076923 L11.0505773,1.07076923 C11.4309046,1.07076923 11.7359588,1.39476923 11.7359588,1.79215385 C11.7359588,2.19092308 11.4309046,2.51353846 11.0505773,2.51353846 L8.74616331,2.50938462 L11.1852897,4.73861538 L12.3724789,4.73861538 L10.7309966,3.29584615 L11.1034005,3.29584615 Z M24.6248431,3.95353846 L24.6248431,0.284307692 L23.8073903,0.284307692 L23.8073903,4.31353846 C23.8073903,4.42430769 23.8483283,4.53092308 23.9262425,4.61261538 C24.00417,4.69430769 24.1098165,4.74 24.2246939,4.74 L27.9513736,4.74 L28.4333857,3.95353846 L24.6248431,3.95353846 Z M14.6201078,3.16707692 L16.8003872,3.16707692 L15.6475199,1.22169231 L13.5319491,4.73861538 L12.5692455,4.73861538 L15.1430579,0.514153846 C15.2553073,0.343846154 15.4415093,0.24 15.6488537,0.24 C15.8482482,0.24 16.0357707,0.339692308 16.1440716,0.507230769 L18.7284487,4.73861538 L17.7657319,4.73861538 L17.311452,3.95215385 L15.1034405,3.95215385 L14.6201078,3.16707692 Z" transform="translate(1 15)"/>
  </g>
</svg>
