<svg xmlns="http://www.w3.org/2000/svg" xmlns:xlink="http://www.w3.org/1999/xlink" width="36" height="36" viewBox="0 0 36 36">
  <defs>
    <polygon id="db_postgresql-a" points="0 .132 20.66 .132 20.66 18.474 0 18.474"/>
    <path id="db_postgresql-c" d="M0,0.054 L0,3.8205 L0.4455,3.8205 L0.4455,2.213865 L2.1195,2.213865 C2.538,2.213865 2.862,2.119365 3.105,1.930635 L3.105,1.930635 C3.348,1.7415 3.4695,1.4715 3.4695,1.134 L3.4695,1.134 C3.4695,0.783 3.3615,0.513 3.1455,0.324 L3.1455,0.324 C2.9295,0.135 2.6325,0.0405 2.241,0.0405 L2.241,0.0405 L0,0.054 Z M0.459,0.337635 L2.106,0.337635 C2.7135,0.337635 3.0105,0.607635 3.0105,1.134 L3.0105,1.134 C3.0105,1.6605 2.6865,1.917 2.025,1.917 L2.025,1.917 L0.459,1.917 L0.459,0.337635 Z"/>
    <path id="db_postgresql-e" d="M0.4995,0.432 C0.243,0.6615 0.1215,0.972 0.1215,1.376865 L0.1215,1.376865 C0.1215,1.7685 0.2565,2.079 0.513,2.321865 L0.513,2.321865 C0.6615,2.456865 0.8235,2.5515 1.0125,2.6055 L1.0125,2.6055 C1.2015,2.6595 1.431,2.6865 1.6875,2.6865 L1.6875,2.6865 C2.2275,2.6865 2.6325,2.565 2.916,2.3085 L2.916,2.3085 C3.172635,2.079 3.294,1.7685 3.294,1.3635 L3.294,1.3635 C3.294,0.9585 3.172635,0.648 2.916,0.4185 L2.916,0.4185 C2.646,0.161865 2.2275,0.0405 1.6875,0.0405 L1.6875,0.0405 C1.1745,0.0405 0.783,0.1755 0.4995,0.432 L0.4995,0.432 Z M0.8235,2.1465 C0.621,1.9575 0.5265,1.701 0.5265,1.376865 L0.5265,1.376865 C0.5265,1.215135 0.5535,1.0665 0.6075,0.9315 L0.6075,0.9315 C0.6615,0.7965 0.742635,0.6885 0.837,0.607635 L0.837,0.607635 C1.0395,0.4185 1.3365,0.324 1.701,0.324 L1.701,0.324 C2.511,0.324 2.916,0.675 2.916,1.376865 L2.916,1.376865 C2.9025,1.539 2.8755,1.687635 2.835,1.809 L2.835,1.809 C2.7945,1.930635 2.7135,2.0385 2.619,2.133 L2.619,2.133 C2.4165,2.3355 2.106,2.430135 1.6875,2.430135 L1.6875,2.430135 C1.3095,2.430135 1.025865,2.3355 0.8235,2.1465 L0.8235,2.1465 Z"/>
    <path id="db_postgresql-g" d="M0.9585,0.0945 C0.783,0.1215 0.648,0.161865 0.540135,0.216 L0.540135,0.216 C0.3105,0.337635 0.2025,0.5265 0.2025,0.783 L0.2025,0.783 C0.2025,1.0395 0.324,1.2285 0.5805,1.323135 L0.5805,1.323135 C0.688365,1.376865 0.9855,1.431 1.458,1.485 L1.458,1.485 C1.9305,1.539 2.187,1.5795 2.227635,1.593 L2.227635,1.593 C2.4435,1.6605 2.5515,1.782 2.5515,1.971 L2.5515,1.971 C2.5515,2.2815 2.227635,2.4435 1.593,2.4435 L1.593,2.4435 C1.188,2.4435 0.9045,2.376 0.7425,2.268 L0.7425,2.268 C0.594,2.1735 0.5265,2.025135 0.5265,1.822635 L0.5265,1.822635 L0.108,1.822635 C0.1215,1.971 0.162,2.106 0.216,2.2005 L0.216,2.2005 C0.27,2.295135 0.3375,2.376 0.432,2.4435 L0.432,2.4435 C0.540135,2.5245 0.702,2.5785 0.891,2.619 L0.891,2.619 C1.08,2.6595 1.3095,2.673135 1.593,2.673135 L1.593,2.673135 C2.4975,2.673135 2.9565,2.430135 2.9565,1.917 L2.9565,1.917 C2.9565,1.6605 2.8215,1.4715 2.5515,1.376865 L2.5515,1.376865 C2.403,1.3095 2.133,1.269 1.7415,1.2285 L1.7415,1.2285 C1.3095,1.188 1.026,1.1475 0.9045,1.106865 L0.9045,1.106865 C0.702,1.0395 0.594,0.9315 0.594,0.783 L0.594,0.783 C0.594,0.621 0.675,0.499365 0.8235,0.4185 L0.8235,0.4185 C0.9855,0.337635 1.215,0.296865 1.5255,0.296865 L1.5255,0.296865 C2.133,0.296865 2.4435,0.486 2.4435,0.8775 L2.4435,0.8775 L2.8485,0.8775 C2.8485,0.324 2.4165,0.054 1.539,0.054 L1.539,0.054 C1.323,0.054 1.1205,0.0675 0.9585,0.0945 L0.9585,0.0945 Z"/>
    <path id="db_postgresql-i" d="M0.5805,0.1215 L0.5805,0.9315 L0.081,0.9315 L0.081,1.188 L0.5805,1.188 L0.5805,2.916 C0.5805,3.1185 0.648,3.2535 0.7695,3.3345 L0.7695,3.3345 C0.891,3.4155 1.0935,3.456 1.363365,3.456 L1.363365,3.456 C1.3905,3.456 1.4175,3.442635 1.4715,3.442635 L1.4715,3.442635 C1.5255,3.429 1.5795,3.429 1.647,3.4155 L1.647,3.4155 L1.6335,3.159 C1.566,3.1725 1.5255,3.186 1.4985,3.186 L1.4985,3.186 L1.4175,3.186 C1.2555,3.186 1.134,3.1725 1.0665,3.1185 L1.0665,3.1185 C0.999,3.078 0.972,2.9835 0.972,2.862 L0.972,2.862 L0.972,1.188 L1.647,1.188 L1.647,0.9315 L0.972,0.9315 L0.972,0.1215 L0.5805,0.1215 Z"/>
    <path id="db_postgresql-k" d="M0.4995,0.378 C0.243,0.594 0.1215,0.891 0.1215,1.296 L0.1215,1.296 C0.1215,1.4985 0.1485,1.674 0.215865,1.822635 L0.215865,1.822635 C0.2835,1.971 0.378,2.106 0.4995,2.213865 L0.4995,2.213865 C0.7695,2.430135 1.134,2.5515 1.62,2.5515 L1.62,2.5515 C2.2005,2.5515 2.619,2.3895 2.862,2.079 L2.862,2.079 L2.862,2.5245 C2.862,2.808 2.7675,3.024 2.592,3.1725 L2.592,3.1725 C2.4165,3.321 2.1195,3.402 1.7145,3.402 L1.7145,3.402 C1.3365,3.402 1.0665,3.348 0.9045,3.240135 L0.9045,3.240135 C0.783,3.159 0.702,3.024 0.648,2.821365 L0.648,2.821365 L0.2565,2.821365 C0.297,3.105 0.4185,3.294 0.6075,3.428865 L0.6075,3.428865 C0.823365,3.5775 1.2015,3.645135 1.728,3.645135 L1.728,3.645135 C2.7405,3.645135 3.24,3.267 3.24,2.5245 L3.24,2.5245 L3.24,0.1215 L2.8485,0.1215 L2.8485,0.54 C2.673,0.3645 2.5515,0.2565 2.484,0.216 L2.484,0.216 C2.268,0.0945 1.9845,0.0405 1.647,0.0405 L1.647,0.0405 C1.147635,0.0405 0.756,0.1485 0.4995,0.378 L0.4995,0.378 Z M0.5265,1.3095 C0.5265,0.998865 0.6345,0.756 0.837,0.5805 L0.837,0.5805 C1.0395,0.405 1.3365,0.324 1.7145,0.324 L1.7145,0.324 C2.0925,0.324 2.376,0.4185 2.5785,0.594 L2.5785,0.594 C2.7675,0.769365 2.8755,1.0125 2.8755,1.3095 L2.8755,1.3095 C2.862,1.606365 2.7675,1.863 2.565,2.0385 L2.565,2.0385 C2.457,2.119365 2.3355,2.187 2.2005,2.241 L2.2005,2.241 C2.0655,2.2815 1.917,2.3085 1.7415,2.3085 L1.7415,2.3085 C0.9315,2.3085 0.5265,1.971 0.5265,1.3095 L0.5265,1.3095 Z"/>
    <path id="db_postgresql-m" d="M1.6065,0.054 L1.4445,0.054 C1.134,0.054 0.9045,0.108135 0.756,0.189 L0.756,0.189 C0.6075,0.27 0.513,0.405 0.4455,0.5805 L0.4455,0.5805 L0.432,0.5805 L0.432,0.135 L0.0405,0.135 L0.0405,2.6055 L0.4185,2.6055 L0.4185,1.3905 C0.4185,0.702 0.729,0.351 1.3635,0.351 L1.3635,0.351 C1.458,0.351 1.566,0.3645 1.6875,0.378 L1.6875,0.378 L1.7145,0.378 L1.7145,0.054 L1.6065,0.054 Z"/>
    <path id="db_postgresql-o" d="M0.4455,0.405 C0.1755,0.634365 0.027,0.9585 0.027,1.35 L0.027,1.35 C0.027,1.755 0.161865,2.065635 0.418365,2.3085 L0.418365,2.3085 C0.702,2.565 1.107,2.7 1.633365,2.7 L1.633365,2.7 C1.836,2.7 2.0385,2.673135 2.214,2.632635 L2.214,2.632635 C2.3895,2.591865 2.5515,2.5245 2.673,2.430135 L2.673,2.430135 C2.9025,2.268 3.051,2.052 3.1185,1.809 L3.1185,1.809 L2.700135,1.809 C2.5515,2.2275 2.2005,2.4435 1.633365,2.4435 L1.633365,2.4435 C1.2285,2.4435 0.918,2.3355 0.702,2.133 L0.702,2.133 C0.513,1.9575 0.418365,1.728 0.418365,1.4445 L0.418365,1.4445 L3.172635,1.4445 C3.172635,1.0125 3.051,0.675 2.808,0.4455 L2.808,0.4455 C2.673,0.3105 2.511,0.216 2.3085,0.1485 L2.3085,0.1485 C2.106,0.081 1.8765,0.054 1.6065,0.054 L1.6065,0.054 C1.107,0.054 0.7155,0.1755 0.4455,0.405 L0.4455,0.405 Z M0.756,0.5535 C0.864,0.459 0.9855,0.391365 1.134,0.351 L1.134,0.351 C1.269,0.3105 1.431,0.2835 1.6065,0.2835 L1.6065,0.2835 C1.944,0.2835 2.2275,0.378 2.4435,0.567 L2.4435,0.567 C2.6595,0.756 2.7675,0.972 2.7675,1.2015 L2.7675,1.2015 L0.432,1.2015 C0.486,0.918 0.594,0.702 0.756,0.5535 L0.756,0.5535 Z"/>
    <path id="db_postgresql-q" d="M0.486,0.351 C0.243,0.513 0.1215,0.769365 0.1215,1.107 L0.1215,1.107 C0.1215,1.4715 0.270135,1.728 0.553365,1.8765 L0.553365,1.8765 C0.756,1.984365 1.188,2.079 1.863,2.187 L1.863,2.187 C2.403,2.2815 2.7405,2.348865 2.8755,2.403 L2.8755,2.403 C3.1185,2.511 3.24,2.7 3.24,2.956365 L3.24,2.956365 C3.24,3.213 3.1455,3.415635 2.97,3.537 L2.97,3.537 C2.754,3.6855 2.4165,3.753 1.944,3.753 L1.944,3.753 C0.9585,3.753 0.4725,3.415635 0.4725,2.726865 L0.4725,2.726865 L0,2.726865 C0,3.1455 0.135,3.469365 0.405135,3.671865 L0.405135,3.671865 C0.729,3.9285 1.242,4.05 1.9575,4.05 L1.9575,4.05 C3.1455,4.05 3.7395,3.671865 3.7395,2.943 L3.7395,2.943 C3.7395,2.5785 3.590865,2.322 3.294,2.1735 L3.294,2.1735 C3.0915,2.052 2.6865,1.957635 2.092635,1.863 L2.092635,1.863 C1.458,1.7685 1.08,1.674 0.945,1.62 L0.945,1.62 C0.702,1.5255 0.5805,1.350135 0.5805,1.0935 L0.5805,1.0935 C0.5805,0.864 0.675,0.675 0.864,0.5535 L0.864,0.5535 C1.0665,0.431865 1.377,0.378135 1.809,0.378135 L1.809,0.378135 C2.673,0.378135 3.105,0.6615 3.105,1.241865 L3.105,1.241865 L3.590865,1.241865 C3.590865,0.472635 3.0105,0.081 1.8495,0.081 L1.8495,0.081 C1.2015,0.081 0.756,0.1755 0.486,0.351 L0.486,0.351 Z"/>
    <path id="db_postgresql-s" d="M0.742635,0.634365 C0.324,0.985635 0.1215,1.4715 0.1215,2.079 L0.1215,2.079 C0.1215,2.673135 0.3375,3.1455 0.756,3.510135 L0.756,3.510135 C1.1745,3.8745 1.755,4.05 2.484,4.05 L2.484,4.05 C2.7675,4.05 3.024,4.0365 3.2265,3.996 L3.2265,3.996 C3.4425,3.9555 3.618,3.9015 3.7665,3.8205 L3.7665,3.8205 L4.4685,4.3065 L4.7655,4.0365 L4.0905,3.563865 C4.3335,3.3885 4.522635,3.172635 4.644,2.9295 L4.644,2.9295 C4.7655,2.6865 4.8195,2.3895 4.8195,2.065635 L4.8195,2.065635 C4.8195,1.485 4.6305,1.0125 4.239,0.6615 L4.239,0.6615 C4.0365,0.472635 3.780135,0.324 3.483,0.2295 L3.483,0.2295 C3.186,0.135135 2.848365,0.0945 2.4705,0.0945 L2.4705,0.0945 C1.7415,0.0945 1.161,0.27 0.742635,0.634365 L0.742635,0.634365 Z M1.0935,3.280635 C0.742635,2.97 0.567,2.565135 0.567,2.052 L0.567,2.052 C0.567,1.5255 0.742635,1.107 1.0935,0.81 L1.0935,0.81 C1.4445,0.513 1.9035,0.3645 2.4705,0.3645 L2.4705,0.3645 C3.051,0.3645 3.51,0.513 3.834,0.8235 L3.834,0.8235 C4.0095,0.972 4.1445,1.1475 4.2255,1.350135 L4.2255,1.350135 C4.3065,1.552635 4.347,1.782 4.347,2.0385 L4.347,2.0385 C4.3605,2.591865 4.185,3.0105 3.834,3.3075 L3.834,3.3075 C3.6585,3.456 3.455865,3.563865 3.2265,3.6315 L3.2265,3.6315 C2.997,3.699 2.754,3.7395 2.4705,3.7395 L2.4705,3.7395 C1.9035,3.7395 1.4445,3.591 1.0935,3.280635 L1.0935,3.280635 Z"/>
  </defs>
  <g fill="none" fill-rule="evenodd">
    <rect width="36" height="36"/>
    <g transform="translate(8 6)">
      <g transform="translate(0 .036)">
        <mask id="db_postgresql-b" fill="#fff">
          <use xlink:href="#db_postgresql-a"/>
        </mask>
        <path fill="#231F20" d="M18.7726856,12.481002 C18.3292994,12.6627232 17.5424568,12.7989301 16.8583993,12.7989301 C16.5161186,12.7989301 16.2008777,12.7643325 15.9655807,12.6845566 C15.8562457,13.5481519 15.6206129,15.1478691 15.4869252,15.8164754 C15.2044345,17.0883555 14.5479206,17.6538408 13.0632487,17.908452 C12.8108209,17.9566534 12.581738,17.977983 12.3736488,17.977983 C11.0048619,17.977983 10.5399782,17.0480477 10.325171,16.6189372 C10.0532611,16.0751173 10.0052276,14.2812507 10.0267251,12.8592239 C9.50440275,13.2789292 8.86535561,13.4920569 8.1105914,13.4920569 C7.80626725,13.4920569 7.48330072,13.4577952 7.14219567,13.3894398 C7.11330839,13.3850732 6.22703986,13.2313995 6.22351293,12.7322542 C6.22032189,12.285509 6.89833327,12.1625701 7.18770993,12.109834 C8.14266972,11.9365103 8.21656742,11.8562306 8.4913325,11.5574487 C8.54356473,11.5006819 8.60503418,11.4356855 8.67372545,11.3656506 C8.24343931,11.3507031 7.82558142,11.2422079 7.44887111,11.056288 C7.20752795,11.2872183 6.54563971,11.9237462 5.80666274,12.6627232 C5.37872789,13.097376 4.9714508,13.2320713 4.6311855,13.2320713 C4.45265538,13.2320713 4.29243173,13.1947866 4.15756844,13.1447377 C1.96582991,12.3256489 0.621395661,6.01444962 0.57033907,5.19838392 C0.474272064,3.601018 0.908085138,2.42554077 1.8588462,1.70436642 C3.9091714,0.148987835 7.64973849,1.27223284 8.26460092,1.47226047 C8.97519447,1.0606167 9.82871287,0.857062137 10.8233087,0.873521169 C11.3678004,0.882926331 11.866106,0.945571424 12.3291422,1.04264613 C12.3403948,1.03844739 12.3649154,1.03038583 12.4105977,1.01728578 L12.4082464,1.00704087 C12.432599,1.00049085 12.4569517,0.997467762 12.4813043,0.997299813 C13.3225624,0.768552849 17.2495532,-0.0762321929 19.6502207,2.50901157 C20.762549,3.71791073 19.4911727,7.85970872 17.0842911,10.979871 C17.2880136,11.0890381 17.8498041,11.2482541 19.278045,11.0106058 C19.4542239,10.9756723 20.0131592,10.8690245 20.1270288,11.2653849 C20.3040474,11.8841101 18.8353307,12.4571532 18.7726856,12.481002 M20.6219754,11.1531947 C20.5457265,10.8866592 20.2454331,10.2897673 19.1458689,10.5018873 C18.6630147,10.5821671 18.2980608,10.6127339 18.0261509,10.6176044 C20.0670709,7.60845655 21.3245074,3.59648337 20.0274349,2.18100657 C17.5889788,-0.537253056 13.585571,0.10868 12.4035438,0.462381252 C11.9168267,0.391338693 11.402062,0.353382148 10.8741973,0.318112793 L10.8186061,0.3164333 C9.79344352,0.3164333 8.91960324,0.506719871 8.1603044,0.896530225 C7.02311961,0.559791853 3.58150229,-0.271221345 1.53252068,1.27575977 C0.417169297,2.11735378 -0.0937325113,3.46195597 0.0140909473,5.27396111 C0.0502000495,5.85086699 1.34828029,12.7305747 3.96257928,13.707032 C4.36028326,13.8556671 5.10396281,13.9844842 5.89920281,13.3664308 C6.16405887,13.683687 6.61416303,13.8664159 7.03302862,13.9359469 C8.1126068,14.1520977 8.94765078,14.0336934 9.58485047,13.7669899 C9.59106459,13.8902647 9.59576717,14.0063177 9.59979796,14.1008731 C9.60550823,14.2399352 9.61105056,14.3759741 9.61776853,14.5034476 C9.66311485,15.3650276 9.70610987,16.1785741 9.98960831,16.7460748 C10.0067391,16.7798326 10.0226943,16.821652 10.0416726,16.8668304 C10.2161719,17.2877113 10.7080955,18.4744412 12.3382115,18.4744412 C12.5380712,18.4744412 12.7552296,18.4564706 12.9906946,18.4171705 C15.0351416,18.0769051 16.2388343,17.1689712 16.3332218,13.5441212 L16.3486731,13.4181592 C16.3500167,13.4062348 16.3513603,13.3943104 16.3528719,13.382386 L16.6133612,13.3827219 C17.3949973,13.4263887 18.3518046,13.2841356 18.9322374,13.0421207 C19.4035032,12.8609033 20.918238,12.1889381 20.6219754,11.1531947" mask="url(#db_postgresql-b)"/>
      </g>
      <path fill="#417BA2" d="M15.4578196 6.29578152C15.4336349 6.29998025 15.4092822 6.30199564 15.3849296 6.30199564 15.2324316 6.30199564 15.0814452 6.22541076 14.9867218 6.14513098 14.9324741 6.09928082 14.8678137 6.02790236 14.8678137 5.94980593 14.8678137 5.7617027 15.1587019 5.68058319 15.4025643 5.64564973L15.4116335 5.64564973C15.8224376 5.64564973 16.0071818 5.71669229 16.0071818 5.86835052 16.0071818 6.01530617 15.7932144 6.29578152 15.4578196 6.29578152M16.566621 5.54823913C15.5181134 5.43470539 14.8379187 5.57074434 14.6004384 5.95081363 14.1073392 6.7405113 15.3484846 8.59164862 15.8157196 9.28830237 15.9371469 9.46951968 16.0286793 9.60740606 16.0698269 9.68466275 16.1242425 9.79332595 16.1833606 9.88687372 16.2439903 9.97487916 16.6186852 9.3296179 16.5303439 8.70182337 16.4374679 8.04178257 16.3929614 7.72536607 16.3467753 7.39820081 16.3595395 7.07808942 16.3781818 6.76150496 16.4263833 6.50387072 16.4727373 6.25463394 16.5185875 6.00959589 16.5590632 5.78958229 16.566621 5.54823913M8.74312211 5.80735133C9.0015961 5.84329248 9.29248431 5.924412 9.29248431 6.11251523 9.29248431 6.19094756 9.22782382 6.26215807 9.17357619 6.30800823 9.07935663 6.38778415 8.92954584 6.46386519 8.7676427 6.46386519 8.74043492 6.46386519 8.71305918 6.46168185 8.68568344 6.45714722 8.37816825 6.45647542 8.15311617 6.17801546 8.15311617 6.03122776 8.15311617 5.87856184 8.3405476 5.80735133 8.74312211 5.80735133M6.99846465 10.0653702C7.00837366 10.0767908 7.01677112 10.0888832 7.02701603 10.1001358 7.45931756 10.56989 8.09299032 10.841464 8.75420676 10.8473422 8.82793651 10.5846695 8.95826517 10.3088968 9.10438108 10.0166649 9.15207868 9.90212352 9.21875456 9.77330639 9.28962917 9.6381072 9.2944997 9.62886998 9.29869843 9.62047252 9.30340101 9.61123531 9.6371163 8.97537921 10.052119 8.1838341 9.57178401 6.26165422 9.48629781 5.91987737 9.28794967 5.71934589 8.94785232 5.6308366 8.12792377 5.41653328 6.87384626 5.96253649 6.58362984 6.16810645 6.58547729 6.20287196 6.58833243 6.24351569 6.59118756 6.28919791 6.61688381 6.69613909 6.67045964 7.54277157 6.53660404 8.51099936 6.44473576 9.07749239 6.61033379 9.62500715 6.99846465 10.0653702"/>
      <path fill="#417BA2" d="M17.1356668,5.20590804 C17.1413771,5.26872109 17.1348271,5.32145717 17.1205514,5.36629964 C17.1328117,5.73696377 17.0773884,6.05287643 17.0206215,6.35686468 C16.9771227,6.58897063 16.9324481,6.8293061 16.9161571,7.10558272 C16.9055763,7.37027083 16.94622,7.6586398 16.989215,7.9641396 C17.0380883,8.31112288 17.08545,8.67909983 17.0674794,9.05967297 C17.0469896,9.49919632 16.9285853,9.9561864 16.611497,10.4217419 C16.614688,10.4251009 16.6178791,10.4287958 16.6210701,10.4321548 C16.6602023,10.474478 16.6981589,10.5154576 16.7339321,10.5559334 C19.1273777,7.39277604 19.9770333,3.72358741 19.2410794,2.92347689 C17.4680385,1.0138932 14.7499468,1.16756683 13.3962754,1.3946343 C13.7571984,1.53302453 14.0930971,1.69056098 14.394734,1.8690911 C16.3540307,3.02861316 17.1049321,4.86597864 17.1356668,5.20590804"/>
      <path fill="#417BA2" d="M16.2121135,10.8108133 C16.1501402,10.7438015 16.0796015,10.6646974 16.0068795,10.5795471 C15.8622751,10.4094144 15.7065861,10.2035086 15.5749139,9.94049993 C15.5418278,9.87886254 15.4600365,9.75827493 15.3528849,9.59872308 C14.7333198,8.67449802 13.443805,6.75147839 14.1278626,5.65577707 C14.4834113,5.08659685 15.2590012,4.86288837 16.4941004,4.9781016 C16.2233661,4.32528262 15.2930949,2.80500544 13.3900612,1.99582566 C12.6739254,1.69133355 11.8242698,1.48442 10.8138867,1.46695327 C9.56635925,1.4483109 8.56034287,1.80234805 7.83799288,2.52805703 C7.82472488,2.54149297 7.81364022,2.55627251 7.80054018,2.56987641 C6.90184341,3.50317073 6.64252967,4.81552666 6.56879992,5.53787666 C7.05400548,5.28981552 7.74444511,5.09885715 8.13492726,5.0506557 C9.20291694,4.91915139 9.90595276,5.30106813 10.1121945,6.126539 C10.6116758,8.12446402 10.2107808,9.06934685 9.86379748,9.74164795 C9.84112433,9.78565067 9.81878707,9.82830979 9.79678571,9.87012917 C9.72809444,10.0011296 9.6629301,10.1247403 9.61019402,10.2496946 C9.47717817,10.5165661 9.36011749,10.7678182 9.2971365,10.987328 C9.50724109,10.9355996 9.68593916,10.9715408 9.81223704,10.9987486 L9.85623976,11.0079858 C9.858759,11.0084896 9.86127824,11.0096653 9.86379748,11.0101691 C9.87756933,11.0133601 9.89134117,11.0168871 9.90460917,11.0222615 C9.98371329,11.0538359 10.0592905,11.0958233 10.1296612,11.146208 C10.3402697,11.2963547 10.5033485,11.5205671 10.5691846,11.7634218 C10.5785898,11.7978514 10.5801013,11.8316092 10.5856436,11.8658709 C10.600927,11.9023159 10.6103322,11.9417839 10.6086527,11.9839392 C10.5161126,14.2981128 10.6452656,16.0494882 10.8236278,16.4055408 C11.0624517,16.8833566 11.4621711,17.6827953 12.9641418,17.3962738 C14.3789468,17.153587 14.7397019,16.6472198 14.941577,15.7374384 C15.100457,14.9438779 15.4256069,12.6674929 15.465243,12.1937079 C15.4687699,12.1513847 15.4833815,12.113764 15.5033674,12.0796703 C15.5013521,11.9624417 15.5085739,11.8569695 15.5258727,11.7632538 C15.5767613,11.4878169 15.6985245,11.305424 15.8456481,11.186012 C16.0110782,11.0519885 16.2013648,10.9886716 16.3426102,10.954242 C16.30331,10.9093995 16.2574599,10.8596865 16.2121135,10.8108133"/>
      <path fill="#417BA2" d="M16.6979237 11.4391452C16.6458594 11.4562761 16.5914439 11.4688723 16.5373642 11.4811326 16.2446285 11.5476405 16.0123546 11.6003766 16.0578689 12.1584721 16.3054262 12.3440561 17.7674249 12.3269253 18.5671996 11.9994241 18.900579 11.8711109 19.155694 11.7253309 19.3283459 11.6028958 17.7333312 11.8627134 17.0180351 11.6692358 16.6979237 11.4391452M9.7176144 11.5479596L9.69611689 11.5435929C9.52296115 11.5066441 9.40841972 11.4824594 9.21477416 11.6500728 9.07957496 11.7773784 8.98317206 11.8821787 8.90138074 11.9713598 8.54045767 12.3635215 8.3743558 12.4970412 7.28738785 12.6945496 7.11809494 12.7251163 7.00002658 12.756187 6.91873911 12.7827229 7.00775224 12.8210154 7.12346932 12.8577963 7.24271333 12.8781182 8.45631506 13.1197972 9.37970038 12.8777823 9.99657821 12.1576156 10.0441079 12.0959782 10.0585515 12.0089805 10.0315117 11.9092186 9.99103588 11.7597437 9.8637303 11.6144675 9.7176144 11.5479596M6.61695099 10.4769636C6.60653813 10.465711 6.59830861 10.4534507 6.58806371 10.4420302 6.08203243 9.87318585 5.86705731 9.16040897 5.98562952 8.42831791 6.11058381 7.52206342 6.06154261 6.74294656 6.03517457 6.32441688 6.03248738 6.28276545 6.03063994 6.24917558 6.02862455 6.21508187 6.00276035 6.17510994 5.98344618 6.13060337 5.98210259 6.07870703 5.97991925 5.98583106 5.94599349 3.90544293 7.20242229 2.40162478 7.27749563 2.3117719 7.35542412 2.22326261 7.43990262 2.13828026 7.5174952 2.06018383 7.60012626 1.98964512 7.68292527 1.91893846 6.56354311 1.61243096 3.7448498 1.00814934 2.19518149 2.18497017 1.40212484 2.78706846 1.04237741 3.80165025 1.12652001 5.20050008 1.2037767 6.43845446 2.65469081 12.0244486 4.35265836 12.6587931 4.70283267 12.7896257 5.04880826 12.6745804 5.41124287 12.3062675 6.06691699 11.6505934 6.66145756 11.0758709 6.96107913 10.7881737 6.83881203 10.6934503 6.72191931 10.5913371 6.61695099 10.4769636"/>
      <path fill="#FFF" d="M16.5665538,5.54820554 C16.559164,5.7895487 16.5186882,6.00973025 16.4728381,6.25460035 C16.4263161,6.50383713 16.3782826,6.76163932 16.3596402,7.07805583 C16.3468761,7.39816722 16.3928942,7.72533248 16.4374008,8.04191693 C16.5302767,8.70178978 16.6186181,9.32975226 16.2440911,9.97484557 C16.1834614,9.88684013 16.1241753,9.79329236 16.0697597,9.68462916 C16.0287801,9.60737247 15.9370798,9.46948609 15.8156524,9.28826878 C15.3485854,8.59161503 14.1074399,6.74047771 14.6003712,5.95078004 C14.8380195,5.57071075 15.5180462,5.4346718 16.5665538,5.54820554 M13.3963426,1.39465109 C14.750014,1.16758362 17.4681057,1.01391 19.2409786,2.92349368 C19.9771005,3.72360421 19.1274449,7.39279284 16.7339992,10.5559502 C16.6980581,10.5154744 16.6602695,10.4744948 16.6211373,10.4321715 C16.6179463,10.4288126 16.6147552,10.4251177 16.6115642,10.4217587 C16.9286525,9.95620319 17.0468888,9.49904517 17.0675466,9.05968976 C17.0853492,8.67911662 17.0381554,8.31113968 16.9892822,7.9641564 C16.9461192,7.6586566 16.9056434,7.37028763 16.9162242,7.10543156 C16.9325153,6.82932289 16.9771898,6.58898743 17.0206887,6.35671353 C17.0774556,6.05289322 17.1328789,5.73698057 17.1206186,5.36631643 C17.1347263,5.32147397 17.1414443,5.26856993 17.135734,5.20592484 C17.1049993,4.86599543 16.3540979,3.02862995 14.3948012,1.8691079 C14.0929963,1.69057778 13.7570977,1.53304132 13.3963426,1.39465109 M16.0580033,12.1583546 C16.012489,11.600427 16.2445949,11.5476909 16.5374985,11.481183 C16.5914103,11.4689227 16.6459938,11.4561585 16.6978901,11.4391956 C17.0180015,11.6692862 17.7332976,11.8627638 19.3283123,11.6027783 C19.1558283,11.7252133 18.9005454,11.8709933 18.567166,11.9994745 C17.7673914,12.3269757 16.3053926,12.3439386 16.0580033,12.1583546 M14.9416442,15.7375224 C14.7397691,16.6473038 14.379014,17.153671 12.964041,17.3963577 C11.4622383,17.6828793 11.0625189,16.8832726 10.823527,16.4054568 C10.6453328,16.0494043 10.5161798,14.2981968 10.6085519,11.9840232 C10.6102314,11.9417 10.6008262,11.9023998 10.5855429,11.8657869 C10.5801685,11.8316932 10.5786569,11.7977674 10.5692518,11.7633378 C10.5034156,11.520651 10.3403369,11.2964387 10.1297284,11.1461241 C10.0593577,11.0959072 9.98361252,11.0539199 9.9045084,11.0221775 C9.8912404,11.0169711 9.87763651,11.0132762 9.86386466,11.0100851 C9.86134542,11.0095813 9.85882618,11.0084056 9.85630694,11.0079018 L9.81213627,10.9988325 C9.68583839,10.9714568 9.50730827,10.9356836 9.29703573,10.987412 C9.36001672,10.7677343 9.47724534,10.5166501 9.6102612,10.2496106 C9.66299728,10.1246564 9.72816162,10.0010457 9.79685289,9.8700452 C9.81885425,9.82839377 9.84119151,9.78556669 9.86386466,9.74173192 C10.21068,9.06943082 10.611743,8.12438004 10.1122617,6.12645502 C9.90601994,5.30098415 9.20298412,4.91906741 8.13482649,5.05073967 C7.74434434,5.09877318 7.05390471,5.28973155 6.5688671,5.53779268 C6.64259685,4.81561064 6.90191059,3.50325471 7.80043941,2.56979243 C7.81353946,2.55618854 7.82462411,2.54157695 7.83806005,2.528141 C8.56041005,1.80243202 9.56642643,1.44822692 10.8139539,1.46703724 C11.824337,1.48450397 12.6738246,1.69141753 13.3899605,1.99590963 C15.2929941,2.80508942 16.2234333,4.32536659 16.4939997,4.97818557 C15.2589004,4.86280439 14.4833105,5.08668083 14.1279298,5.6556931 C13.4437043,6.75139441 14.733387,8.67458199 15.352952,9.59863911 C15.4601037,9.75819095 15.541895,9.87894651 15.5748131,9.94041596 C15.7064853,10.2035925 15.8621744,10.4094984 16.0069467,10.5794631 C16.0796687,10.6647813 16.1502074,10.7438855 16.2121807,10.8107293 C16.257527,10.8597705 16.3033772,10.9093155 16.3426773,10.954158 C16.201264,10.9887556 16.0111454,11.0520725 15.8457153,11.186096 C15.6985917,11.305508 15.5766605,11.487733 15.5257719,11.7633378 C15.5084731,11.8568856 15.5012513,11.9625257 15.5034346,12.0797543 C15.4832807,12.1136801 15.4686691,12.1514687 15.4651422,12.1937919 C15.4256741,12.6675769 15.1005242,14.9439619 14.9416442,15.7375224 M7.02703282,10.1001358 C7.01678792,10.0888832 7.00839045,10.0767908 6.99848144,10.0653702 C6.61035058,9.62500715 6.44475256,9.07749239 6.53662083,8.51099936 C6.67047643,7.54260362 6.6169006,6.69613909 6.59103641,6.28919791 C6.58834922,6.24351569 6.58549408,6.20287196 6.58364664,6.16810645 C6.87386305,5.96253649 8.12794057,5.41653328 8.94786911,5.6308366 C9.28796647,5.71934589 9.48631461,5.91987737 9.57180081,6.26165422 C10.0521358,8.1838341 9.63713309,8.97537921 9.30341781,9.61123531 C9.29871523,9.62047252 9.29451649,9.62886998 9.28964596,9.6381072 C9.21877135,9.77330639 9.15209548,9.90212352 9.10439787,10.0166649 C8.95828197,10.3088968 8.8279533,10.5846695 8.75422355,10.8473422 C8.09300711,10.841464 7.45933436,10.56989 7.02703282,10.1001358 M4.35260797,12.6586756 C2.65480837,12.024499 1.20372631,6.43850484 1.12646963,5.20055046 C1.04232702,3.80170064 1.40207445,2.78711884 2.1951311,2.18502056 C3.74479941,1.00803177 6.56349272,1.6123134 7.68287489,1.91898884 C7.60024383,1.98969551 7.51744482,2.06023422 7.44002018,2.1381627 C7.35554168,2.223313 7.27744525,2.31182229 7.20237191,2.40167517 C5.94611105,3.90532536 5.97986886,5.9857135 5.9820522,6.07858947 C5.9833958,6.13065375 6.00270997,6.17516032 6.02857416,6.21513226 C6.03058955,6.24905802 6.032437,6.28281583 6.03512419,6.32446726 C6.06166018,6.742829 6.11070138,7.52194586 5.98574709,8.42820035 C5.86700692,9.16045935 6.08198204,9.87323623 6.58801332,10.4420806 C6.59825823,10.4535011 6.6066557,10.4657614 6.6169006,10.477014 C6.72203687,10.5912195 6.83876165,10.6933327 6.96119669,10.7880561 C6.66140717,11.0759213 6.06686661,11.6504759 5.41119249,12.3063179 C5.04875787,12.6746308 4.70278229,12.7895081 4.35260797,12.6586756 M7.24267974,12.8781853 C7.12343573,12.8578635 7.00771865,12.8209146 6.91887347,12.7827901 C7.00016093,12.7560862 7.11806135,12.7251835 7.28735426,12.6946167 C8.37432221,12.4971083 8.54042408,12.3635886 8.90134715,11.971259 C8.98313847,11.8822459 9.07954137,11.7772776 9.21490852,11.65014 C9.40838613,11.4825265 9.52309551,11.5067112 9.6960833,11.5436601 L9.71758081,11.5480268 C9.86369671,11.6143668 9.99100229,11.7598109 10.0314781,11.9092857 C10.0585179,12.0090476 10.0440743,12.0960454 9.99654462,12.1576828 C9.37966679,12.8778494 8.45628147,13.1198644 7.24267974,12.8781853 M20.1270792,11.3016451 C20.0132096,10.9052848 19.4542743,11.0119326 19.2780954,11.046866 C17.8498545,11.2845143 17.2878961,11.1254663 17.0843415,11.0161313 C19.4912231,7.89613693 20.7624314,3.75417098 19.6501032,2.54543978 C17.2496036,-0.0399719364 13.3226128,0.804813105 12.4811867,1.03356007 C12.457002,1.03389597 12.4324814,1.03675111 12.4082967,1.04330113 L12.410648,1.05354604 C12.3649658,1.06664608 12.3404452,1.07470765 12.3291926,1.07890638 C11.8661564,0.98199963 11.3676828,0.919186587 10.8233591,0.909781426 C9.82859531,0.893322393 8.97524485,1.09704491 8.26448336,1.50852072 C7.64978888,1.30849309 3.90905384,0.185248092 1.85889658,1.74062667 C0.908135523,2.46196897 0.474322448,3.63727826 0.570221506,5.23464417 C0.621446046,6.05070988 1.96571234,12.3619091 4.15761882,13.1809979 C4.29248212,13.2310468 4.45270576,13.2683316 4.63123588,13.2683316 C4.97150119,13.2683316 5.37861032,13.1338042 5.80671312,12.6989834 C6.5456901,11.9600064 7.20757834,11.3234785 7.44875355,11.0925482 C7.82563181,11.2784681 8.2434897,11.3869634 8.67360788,11.4019109 C8.60508457,11.4719457 8.54361512,11.5369421 8.49138288,11.593709 C8.21661781,11.8924908 8.14255216,11.9727706 7.18759237,12.1460943 C6.89838365,12.1989983 6.22037228,12.3217693 6.22356331,12.7685144 C6.22709025,13.2676598 7.11335877,13.4213334 7.1420781,13.4257001 C7.48335111,13.4942234 7.80614969,13.5283171 8.11064179,13.5283171 C8.865406,13.5283171 9.50445313,13.3151894 10.0267755,12.8956521 C10.005278,14.3175109 10.0533115,16.1115455 10.3252214,16.6551974 C10.5400286,17.0843079 11.0047443,18.0144112 12.3736992,18.0144112 C12.5817884,18.0144112 12.8108712,17.9929137 13.0632991,17.9448802 C14.547971,17.6901011 15.2044849,17.1246158 15.4868076,15.8527356 C15.6206632,15.1842973 15.8562961,13.5845801 15.9656311,12.7208168 C16.2007602,12.8005928 16.516169,12.8351903 16.8582817,12.8351903 C17.5425072,12.8351903 18.3293498,12.6989834 18.7727359,12.5172623 C18.8352131,12.4934135 20.3040978,11.9203704 20.1270792,11.3016451"/>
      <path fill="#FFF" d="M9.17349222 6.30807541C9.22773985 6.26222525 9.29256828 6.19084679 9.29256828 6.11258241 9.29256828 5.92431123 9.00168007 5.84335966 8.74303813 5.80741851 8.34063158 5.80741851 8.15320014 5.87846107 8.15320014 6.03112699 8.15320014 6.17791469 8.37808427 6.4565426 8.68576741 6.4572144 8.71314315 6.46174903 8.74051889 6.46393237 8.76772668 6.46393237 8.92946187 6.46393237 9.07927265 6.38785133 9.17349222 6.30807541M15.4026314 5.64563293C15.158769 5.68056639 14.8678808 5.76168591 14.8678808 5.94978914 14.8678808 6.02788557 14.9325413 6.09926403 14.986621 6.14511419 15.0815124 6.22539396 15.2324988 6.30197885 15.3849968 6.30197885 15.4093494 6.30197885 15.4337021 6.29996346 15.4578868 6.29576472 15.7932816 6.29576472 16.007249 6.01528937 16.007249 5.86833372 16.007249 5.71667549 15.8225047 5.64563293 15.4115328 5.64563293L15.4026314 5.64563293z"/>
    </g>
    <g transform="translate(2.52 27)">
      <g transform="translate(0 .189)">
        <mask id="db_postgresql-d" fill="#fff">
          <use xlink:href="#db_postgresql-c"/>
        </mask>
        <polygon fill="#231F20" points="-.675 4.482 4.144 4.482 4.144 -.648 -.675 -.648" mask="url(#db_postgresql-d)"/>
      </g>
      <g transform="translate(3.24 1.404)">
        <mask id="db_postgresql-f" fill="#fff">
          <use xlink:href="#db_postgresql-e"/>
        </mask>
        <polygon fill="#231F20" points="-.54 3.361 3.969 3.361 3.969 -.634 -.54 -.634" mask="url(#db_postgresql-f)"/>
      </g>
      <g transform="translate(6.615 1.404)">
        <mask id="db_postgresql-h" fill="#fff">
          <use xlink:href="#db_postgresql-g"/>
        </mask>
        <polygon fill="#231F20" points="-.567 3.348 3.631 3.348 3.631 -.634 -.567 -.634" mask="url(#db_postgresql-h)"/>
      </g>
      <g transform="translate(9.585 .594)">
        <mask id="db_postgresql-j" fill="#fff">
          <use xlink:href="#db_postgresql-i"/>
        </mask>
        <polygon fill="#231F20" points="-.581 4.118 2.336 4.118 2.336 -.553 -.581 -.553" mask="url(#db_postgresql-j)"/>
      </g>
      <g transform="translate(11.34 1.404)">
        <mask id="db_postgresql-l" fill="#fff">
          <use xlink:href="#db_postgresql-k"/>
        </mask>
        <polygon fill="#231F20" points="-.54 4.32 3.929 4.32 3.929 -.634 -.54 -.634" mask="url(#db_postgresql-l)"/>
      </g>
      <g transform="translate(14.985 1.404)">
        <mask id="db_postgresql-n" fill="#fff">
          <use xlink:href="#db_postgresql-m"/>
        </mask>
        <polygon fill="#231F20" points="-.648 3.267 2.362 3.267 2.362 -.634 -.648 -.634" mask="url(#db_postgresql-n)"/>
      </g>
      <g transform="translate(16.605 1.404)">
        <mask id="db_postgresql-p" fill="#fff">
          <use xlink:href="#db_postgresql-o"/>
        </mask>
        <polygon fill="#231F20" points="-.648 3.348 3.848 3.348 3.848 -.634 -.648 -.634" mask="url(#db_postgresql-p)"/>
      </g>
      <g transform="translate(20.115 .054)">
        <mask id="db_postgresql-r" fill="#fff">
          <use xlink:href="#db_postgresql-q"/>
        </mask>
        <polygon fill="#367FAF" points="-.661 4.712 4.415 4.712 4.415 -.594 -.661 -.594" mask="url(#db_postgresql-r)"/>
      </g>
      <g transform="translate(23.895 .054)">
        <mask id="db_postgresql-t" fill="#fff">
          <use xlink:href="#db_postgresql-s"/>
        </mask>
        <polygon fill="#367FAF" points="-.567 4.968 5.481 4.968 5.481 -.594 -.567 -.594" mask="url(#db_postgresql-t)"/>
      </g>
      <polygon fill="#367FAF" points="29.025 .23 29.025 4.01 32.278 4.01 32.292 3.686 29.47 3.686 29.47 .216"/>
    </g>
  </g>
</svg>
