<svg xmlns="http://www.w3.org/2000/svg" xmlns:xlink="http://www.w3.org/1999/xlink" width="36" height="36" viewBox="0 0 36 36">
  <defs>
    <polygon id="db_tibero-a" points=".05 .016 4.725 .016 4.725 5.508 .05 5.508"/>
    <polygon id="db_tibero-c" points=".056 .024 3.504 .024 3.504 4.568 .056 4.568"/>
  </defs>
  <g fill="none" fill-rule="evenodd">
    <rect width="36" height="36"/>
    <g transform="translate(4.68 11.52)">
      <path fill="#2B2C2F" d="M9.15257104,11.6025855 C9.7467442,11.6660944 10.0383229,11.4970372 10.2283999,10.9591789 C10.3128161,10.7200934 10.3682318,10.4685308 10.4126318,10.2183172 C10.4598419,9.95304122 10.4759158,9.68259463 10.3911624,9.41844273 C10.3209093,9.19925286 10.1878217,9.07886704 9.97492648,9.08133995 C9.84858319,9.08280122 9.71088699,9.10955362 9.60219129,9.16890349 C9.5491361,9.19779159 9.54407787,9.32582096 9.52879078,9.41113641 C9.44954522,9.85221387 9.37322218,10.2936286 9.29746116,10.7352681 C9.24834015,11.0215637 9.20169205,11.3083091 9.15257104,11.6025855 M8.45105104,6.19061894 L10.0751918,6.19061894 C9.98110876,6.74634957 9.88848699,7.29252577 9.79878775,7.82195362 C10.0393346,7.76136729 10.2719007,7.67796273 10.5113234,7.64738856 C11.1467493,7.5661197 11.6598784,7.86185742 11.9292009,8.44287919 C12.1125336,8.83843261 12.1649143,9.25736628 12.1368131,9.68933894 C12.0975837,10.294865 11.9725893,10.880945 11.7125964,11.4304934 C11.3680748,12.1582037 10.8419067,12.6939263 10.039447,12.8959182 C9.78957053,12.9586402 9.52575585,12.9866291 9.26756142,12.9924741 C8.63876749,13.0065248 8.00952395,12.9983192 7.38039281,12.9987688 C7.35409003,12.9987688 7.32778724,12.9950594 7.28630977,12.9919121 C7.6753437,10.720543 8.06302876,8.4564802 8.45105104,6.19061894"/>
      <g transform="translate(21.807 7.62)">
        <mask id="db_tibero-b" fill="#fff">
          <use xlink:href="#db_tibero-a"/>
        </mask>
        <path fill="#2B2C2F" d="M1.72083159,3.30812597 C1.73173489,3.40490673 1.74207615,3.52562977 1.76017337,3.64511635 C1.76804172,3.69760952 1.78793742,3.74931585 1.80828273,3.79877408 C1.93091666,4.09608547 2.20158805,4.18162572 2.44494501,3.97142825 C2.58286603,3.85239129 2.69470906,3.68861711 2.77890046,3.52484294 C2.94683362,3.19796901 3.00573387,2.8359123 3.04271514,2.47340597 C3.06766906,2.22791332 3.0729521,1.98028496 2.98066754,1.74333509 C2.86297944,1.44096547 2.56476881,1.35778572 2.32118704,1.57382825 C2.21282856,1.66993458 2.1184083,1.79268091 2.049504,1.92037306 C1.82120932,2.34414015 1.75758805,2.81073357 1.72083159,3.30812597 M2.84769235,0.0161188861 C3.31001438,0.0122971139 3.74288628,0.101097114 4.09988476,0.417742177 C4.49037995,0.764174582 4.68405387,1.21626775 4.7156397,1.72433863 C4.77319109,2.65314167 4.57648223,3.52967635 4.06807413,4.31786066 C3.56922046,5.09120749 2.85106451,5.49968749 1.92754451,5.50766825 C1.34967008,5.51272648 0.823951595,5.35951838 0.448181468,4.87561458 C0.203363241,4.56054319 0.0787060253,4.19320344 0.0577986835,3.80315787 C0.00901488608,2.89144041 0.171440203,2.01928952 0.672204759,1.24110927 C1.08248324,0.603660152 1.64934197,0.171462684 2.4180802,0.046131038 C2.4446078,0.0417472405 2.4712478,0.0363517975 2.4980002,0.0347781266 C2.61456425,0.0279214177 2.7311283,0.0223011646 2.84769235,0.0161188861" mask="url(#db_tibero-b)"/>
      </g>
      <path fill="#2B2C2F" d="M14.5548258 9.75273539C14.9391387 9.75273539 15.3062537 9.75487109 15.6732562 9.74880122 15.7013575 9.74823919 15.7521646 9.69091261 15.752277 9.66000122 15.7523894 9.51252577 15.7541878 9.3621278 15.7269858 9.21824932 15.6496511 8.81021894 15.2228491 8.67106147 14.9151965 8.95263615 14.6894871 9.15912425 14.6022608 9.43462906 14.5548258 9.75273539M17.3489909 10.7587607L14.420277 10.7587607C14.420277 10.9440043 14.4043154 11.1183445 14.424998 11.288301 14.4441068 11.4455556 14.5459458 11.5636934 14.687801 11.644063 14.9737595 11.8062635 15.2824238 11.7945734 15.592999 11.7665845 16.1240005 11.7185875 16.6188076 11.5568367 17.0789939 11.2879637 17.0933818 11.2796458 17.1104673 11.2757116 17.1474486 11.2617734 17.1262041 11.422063 17.1072076 11.5666159 17.0878739 11.7111688 17.0564005 11.9467698 17.0208805 12.1819212 16.9950273 12.4180843 16.9852481 12.5078959 16.9456815 12.5616255 16.8705949 12.6073744 16.3252056 12.9409926 15.73092 13.1036427 15.0949322 13.1210655 14.4801889 13.1380387 13.9214233 12.9831445 13.4586516 12.5608387 13.0795094 12.2147435 12.8615559 11.7729916 12.7807367 11.2738007 12.62292 10.2987992 12.7839965 9.38348476 13.3861504 8.58035058 13.9044501 7.88917185 14.6040592 7.57601134 15.4723884 7.64210552 15.9217838 7.67627666 16.3399306 7.78654603 16.6901848 8.08318299 17.0861878 8.4187121 17.2519853 8.87271615 17.3294324 9.36786046 17.4004724 9.82298856 17.4082284 10.2795779 17.3489909 10.7587607M.531855797 12.9903047C.833438582 11.2276809 1.13277327 9.4779837 1.43480567 7.71254977L.000067443038 7.71254977C.0878557975 7.1981842.17294643 6.70000496.259610734 6.19260851L5.05559757 6.19260851C5.00670137 6.48340041 4.95915403 6.7695837 4.91037023 7.05554218 4.87934643 7.23673914 4.8387682 7.41669965 4.81741124 7.59902066 4.80617073 7.6953518 4.76615453 7.71389863 4.67993985 7.7131118 4.27078542 7.70962724 3.86174339 7.71153813 3.45247656 7.71187534 3.42617377 7.71187534 3.39975858 7.71468547 3.36030441 7.71704597 3.05939605 9.47404952 2.75904972 11.2277933 2.45712972 12.9903047L.531855797 12.9903047zM8.20393975 4.65454754L7.13339392 4.65454754C7.23579494 3.94673286 7.33999443 3.2459997 7.43587595 2.54414248 7.45060101 2.43612122 7.44284506 2.31921995 7.41755392 2.21310957 7.3882162 2.08991362 7.26872962 2.04000577 7.15025468 2.09013843 7.01278329 2.14836425 6.90925823 2.24019919 6.88621519 2.40172527 6.78077924 3.13865286 6.67320759 3.87513084 6.56619797 4.61183362 6.56439949 4.62453539 6.55990329 4.63689995 6.55518228 4.65488476L5.51127646 4.65488476C5.56837823 4.25933134 5.62368152 3.87007261 5.68078329 3.48103868 5.72900506 3.15270349 5.77981215 2.82481792 5.82848354 2.49648273 5.83365418 2.46107514 5.83331696 2.42488071 5.8341038 2.38891109 5.83837519 2.1892797 5.75957924 2.07518856 5.61030532 2.06417286 5.46001975 2.05293235 5.30254025 2.1893921 5.2770243 2.35608881 5.24049266 2.59551159 5.2058719 2.83515919 5.17080152 3.07480678 5.09425367 3.59827716 5.01793063 4.12174754 4.94037114 4.65286147L3.89511646 4.65286147C4.05495646 3.54263666 4.21434684 2.43522197 4.37508608 1.3190397L5.32929266 1.3190397C5.32648253 1.37985084 5.32378481 1.44032476 5.31940101 1.5345202 5.56073468 1.2791359 5.84511949 1.2037121 6.16030329 1.20393691 6.49954177 1.20416172 6.72109215 1.38378501 6.87452506 1.65490603 6.99862025 1.54789641 7.10315696 1.42515008 7.23478329 1.3501759 7.72149722 1.07298501 8.53497266 1.21450299 8.54329063 2.09632071 8.54587595 2.38115514 8.4915843 2.66733843 8.45359139 2.95172324 8.3827762 3.48070147 8.30487949 4.00878046 8.22934329 4.53708425 8.22383544 4.57608881 8.21281975 4.61430653 8.20393975 4.65454754M18.6474605 7.71220132L20.2554149 7.71220132C20.2322594 7.91194511 20.2098908 8.1048322 20.1858362 8.31255676 20.341742 8.17272486 20.4778645 8.03716435 20.6277005 7.91891423 20.9764934 7.64385904 21.364066 7.56067929 21.7907556 7.7139998 21.8117754 7.72153094 21.8329075 7.7295117 21.8533653 7.7383917 22.0967222 7.84382765 22.1080751 7.87631271 21.9948832 8.11157651 21.7886199 8.54017701 21.5839303 8.96956435 21.3783415 9.39838967 21.3630544 9.4300879 21.3461936 9.4611117 21.3264103 9.49944182 21.2379475 9.45706511 21.1563415 9.41165347 21.0701268 9.37793195 20.6206189 9.20235524 20.2034837 9.34668334 20.0150929 9.78719878 19.9005521 10.0552849 19.8415394 10.3513598 19.7885967 10.6404656 19.6514625 11.3905446 19.5326503 12.1437709 19.401586 12.8948616 19.3949541 12.9336413 19.3431354 12.9940028 19.3117744 12.9943401 18.8038159 12.9998479 18.2958574 12.9972626 17.7878989 12.9959137 17.7798058 12.9959137 17.771825 12.9888322 17.7517045 12.9795026 18.0494655 11.2287937 18.3476762 9.47482511 18.6474605 7.71220132M5.56691696 7.72625195L7.21691089 7.72625195C6.91611494 9.48325549 6.61689266 11.2318287 6.31609671 12.989619L4.66644 12.989619C4.96678633 11.2341892 5.26600861 9.48516638 5.56691696 7.72625195"/>
      <g transform="translate(.9 .088)">
        <mask id="db_tibero-d" fill="#fff">
          <use xlink:href="#db_tibero-c"/>
        </mask>
        <path fill="#2B2C2F" d="M3.49302106,0.0249988861 C3.50010258,0.0514140759 3.50549803,0.060406481 3.50414916,0.0682748354 C3.44850866,0.394923949 3.39230613,0.721460658 3.33306866,1.06564496 L2.56781499,1.06564496 C2.32974106,1.06564496 2.33434967,1.0664318 2.29523271,1.30315686 C2.11774511,2.37381509 1.93744739,3.4440237 1.75793651,4.51434471 C1.75512638,4.53109306 1.75029296,4.5475042 1.74557195,4.56784952 L0.44178562,4.56784952 C0.636133975,3.40153458 0.829583089,2.24128952 1.0251679,1.06755585 L0.0564610633,1.06755585 C0.110640304,0.740794329 0.16560638,0.427296608 0.212816506,0.112674835 C0.228216,0.0101614177 0.295546633,0.0251112911 0.36164081,0.0251112911 C1.28302511,0.0249988861 2.20440942,0.0249988861 3.12579372,0.0249988861 L3.49302106,0.0249988861 Z" mask="url(#db_tibero-d)"/>
      </g>
      <path fill="#2B2C2F" d="M10.4884827 3.08186582C10.122267 3.07973013 9.85159565 3.34365722 9.8549678 3.6875043 9.85654147 3.85599949 9.89970501 3.91815949 10.0224513 3.92928759 10.2035359 3.94558633 10.3668605 3.85026684 10.3887794 3.7140319 10.4221637 3.50686937 10.4541992 3.29948203 10.4884827 3.08186582M10.5769455 2.50770076C10.6658579 2.17644304 10.5644686 2.04335544 10.2338853 2.0513362 9.92432172 2.05875494 9.63173134 2.13564 9.35959868 2.28592557 9.3134002 2.31144152 9.26607767 2.33493418 9.19863463 2.37011696 9.24910451 2.09944557 9.2932797 1.84900709 9.34521084 1.60025468 9.35161792 1.5694557 9.39579311 1.54045519 9.4288402 1.52213316 9.94624071 1.23516304 10.494103 1.13118835 11.0775977 1.25820608 11.4299875 1.33497873 11.6583946 1.58901418 11.6605303 1.9514081 11.6623288 2.23702937 11.6247855 2.52332506 11.5967967 2.80849671 11.5706063 3.07624557 11.5284544 3.34242076 11.5040625 3.61039443 11.4866397 3.80114582 11.5412686 3.84104962 11.7495551 3.79934734 11.7385394 3.86454228 11.7307835 3.92411696 11.7181941 3.98279241 11.6758174 4.17995089 11.6342275 4.37722177 11.586343 4.57303139 11.5775754 4.60911342 11.546664 4.65756 11.5155278 4.66745165 11.2934154 4.73792962 11.0670316 4.75681367 10.8413222 4.68318835 10.6489972 4.62035392 10.5356929 4.47096759 10.440261 4.29055747 10.4247491 4.30427089 10.4114853 4.31258886 10.4026053 4.32427899 10.1057435 4.71039038 9.70737995 4.78772506 9.25731008 4.69465367 8.92110653 4.62507494 8.740584 4.42162177 8.69505995 4.07743747 8.62132223 3.51822228 8.86130704 3.06017165 9.36555615 2.79927949 9.72277944 2.61448557 10.1068675 2.53613924 10.5050063 2.51433266 10.5270377 2.51320861 10.5489567 2.51039848 10.5769455 2.50770076M15.2517597 1.30918177C15.0259379 1.65235443 14.8190002 1.96652658 14.6122873 2.28092354 14.5062893 2.44222481 14.4041131 2.6063362 14.2929445 2.7639281 14.2453972 2.83125873 14.2444979 2.886 14.2755217 2.96018734 14.4903278 3.47320405 14.7005253 3.98824405 14.9119592 4.50272203 14.930506 4.54779646 14.9472544 4.59365772 14.9732199 4.66076354L14.6717496 4.66076354C14.4246832 4.66076354 14.1772797 4.65559291 13.9303258 4.66323646 13.8302853 4.6664962 13.7809394 4.63963139 13.7442954 4.54150177 13.6235724 4.21856203 13.490822 3.90011848 13.3551491 3.56121722 13.3241253 3.60561722 13.3009698 3.63461772 13.2820858 3.66620354 13.1023501 3.96677468 12.9213779 4.26655899 12.7458012 4.56949063 12.7073587 4.63580962 12.666106 4.6641357 12.5874225 4.66256203 12.3196736 4.65772861 12.0516999 4.66076354 11.7600088 4.66076354 11.9286164 4.39694886 12.0842974 4.15235544 12.2408777 3.90832405 12.4566954 3.5720081 12.6710518 3.2345681 12.8912534 2.90106228 12.9405992 2.82620051 12.949704 2.76583899 12.914184 2.68108557 12.7425415 2.27170633 12.5779805 1.85917975 12.4111713 1.44766481 12.3947602 1.40719899 12.3804848 1.36583392 12.359465 1.30963139 12.732425 1.30963139 13.0909972 1.30682127 13.4493445 1.31412759 13.4844149 1.31491443 13.5320746 1.37257823 13.5502843 1.41428051 13.6490883 1.63931544 13.7404736 1.86761013 13.8456848 2.12220759 13.9145891 2.01474835 13.9710164 1.92718481 14.0272189 1.83939646 14.1383875 1.66595544 14.2122377 1.42597063 14.3707288 1.33773266 14.5296696 1.24938228 14.7728017 1.3121043 14.979065 1.30929418 15.0593222 1.30828253 15.1396918 1.30918177 15.2517597 1.30918177M6.47988213 7.25660111C6.0753363 7.25907403 5.79454846 6.93545985 5.84906491 6.52945276 5.90391858 6.11984871 6.20786187 5.77476516 6.57295352 5.70709732 7.09350137 5.61054137 7.44577884 5.94550846 7.37440162 6.46920365 7.31651301 6.89364516 6.90724618 7.25390339 6.47988213 7.25660111"/>
      <path fill="#FFF" d="M9.15257104 11.6025855C9.20169205 11.3083091 9.24834015 11.0215637 9.29746116 10.7352681 9.37322218 10.2936286 9.44954522 9.85221387 9.52879078 9.41113641 9.54407787 9.32582096 9.5491361 9.19779159 9.60219129 9.16890349 9.71088699 9.10955362 9.84858319 9.08280122 9.97492648 9.08133995 10.1878217 9.07886704 10.3209093 9.19925286 10.3911624 9.41844273 10.4759158 9.68259463 10.4598419 9.95304122 10.4126318 10.2183172 10.3682318 10.4685308 10.3128161 10.7200934 10.2283999 10.9591789 10.0383229 11.4970372 9.7467442 11.6660944 9.15257104 11.6025855M23.5274139 10.9272784C23.5641703 10.429886 23.6277916 9.96329256 23.8560863 9.53952547 23.9249906 9.41183332 24.0194108 9.28908699 24.1277693 9.19298066 24.3713511 8.97693813 24.6695617 9.06011787 24.7872498 9.36248749 24.8795344 9.59943737 24.8742513 9.84706572 24.8492974 10.0925584 24.8123162 10.4550647 24.7534159 10.8171214 24.5854827 11.1439953 24.5012913 11.3077695 24.3894483 11.4715437 24.2515273 11.5905807 24.0081703 11.8007781 23.7374989 11.7152379 23.614865 11.4179265 23.5945197 11.3684683 23.574624 11.3167619 23.5667556 11.2642688 23.5486584 11.1447822 23.5383172 11.0240591 23.5274139 10.9272784M14.5548258 9.75273539C14.6022608 9.43462906 14.6894871 9.15912425 14.9151965 8.95263615 15.2228491 8.67106147 15.6496511 8.81021894 15.7269858 9.21824932 15.7541878 9.3621278 15.7523894 9.51252577 15.752277 9.66000122 15.7521646 9.69091261 15.7013575 9.74823919 15.6732562 9.74880122 15.3062537 9.75487109 14.9391387 9.75273539 14.5548258 9.75273539M10.4884827 3.08186582C10.4541992 3.29948203 10.4221637 3.50686937 10.3887794 3.7140319 10.3668605 3.85026684 10.2035359 3.94558633 10.0224513 3.92928759 9.89970501 3.91815949 9.85654147 3.85599949 9.8549678 3.6875043 9.85159565 3.34365722 10.122267 3.07973013 10.4884827 3.08186582"/>
    </g>
  </g>
</svg>
