<?xml version="1.0" encoding="UTF-8"?>
<svg width="19px" height="24px" viewBox="0 0 19 24" version="1.1" xmlns="http://www.w3.org/2000/svg" xmlns:xlink="http://www.w3.org/1999/xlink">
    <!-- Generator: Sketch 59.1 (86144) - https://sketch.com -->
    <title>debian_logo copy 3</title>
    <desc>Created with Sketch.</desc>
    <g id="Symbols" stroke="none" stroke-width="1" fill="none" fill-rule="evenodd">
        <g id="ic-debian" transform="translate(0.000000, -0.000000)" fill="#757575">
            <path d="M9.27789584,0.167058545 C9.09097723,0.272643299 8.90405862,0.354764774 8.72882242,0.479120152 C9.4437861,0.307838217 9.40873886,0.549509988 10.1400579,0.453310545 C9.88304483,0.490851791 9.57229265,0.59174389 9.62135878,0.631631464 C10.4367912,0.727830906 10.5629613,0.378228053 11.3176452,0.631631464 L11.3176452,0.631631464 L11.2709155,0.406383988 C12.3199962,0.786489103 12.5396256,0.723138251 13.6798291,1.33083717 C14.0817041,1.34960779 14.1214243,1.08212642 14.7242368,1.32849084 C14.831715,1.51619707 14.7032085,1.55373832 15.4462099,1.99719429 C15.5279868,1.96199937 15.2990115,1.75317619 15.1144294,1.58424058 C16.6074418,2.38668471 18.2312972,4.0948114 18.7266315,5.92494715 C18.2616715,5.06619114 18.6799019,6.36136413 18.5186846,6.29566695 C18.7266315,6.85409298 18.8971948,7.43128964 19,8.02960325 C18.8621475,7.53922072 18.5630778,6.35667147 18.0397056,5.59646124 C17.997649,6.08684377 17.3621257,5.2562437 17.7102616,6.33790085 C17.9742841,6.72269862 17.7640007,5.95075675 18.0887718,6.63119184 C18.0934447,6.95498508 18.2172783,7.27877833 18.2897093,7.70111735 C18.1775581,7.68234672 18.0397056,7.23185177 17.9579288,7.35855348 C18.0724164,7.88882358 18.2569985,8.16569026 18.327093,8.20792417 C18.2920458,8.29708463 18.1985865,8.12345636 18.191577,8.48713718 C18.2336337,9.31773725 18.4228888,8.96578807 18.5116751,9.00567564 C18.4205523,9.41628302 18.056061,9.89728024 18.2359702,10.6011786 C18.186904,10.3876628 18.0840988,10.1741469 18.0093314,9.9700164 C17.9369004,10.5730227 18.1401744,10.6903391 17.8644694,11.420047 L17.865,11.417 L17.8972473,11.3045449 C18.0498415,10.7321064 18.0337981,10.2482103 17.8844282,10.4137689 L17.852787,10.4557063 C17.9369004,11.3871984 17.1191315,12.1051748 17.2079178,12.6964494 L17.2079178,12.6964494 L16.9672601,12.3656172 C16.3247274,13.3041483 16.9532412,12.8841556 16.5139825,13.595093 C16.6751998,13.3158799 16.4298691,13.4801229 16.6401526,13.1633686 C16.4999636,13.1704076 16.0186482,13.7569896 15.5793895,14.1042461 C13.8457194,15.4979649 11.7779322,15.6809784 9.77323015,14.9301535 L9.77323015,14.9301535 L9.77690955,14.9134782 C9.77934539,14.8705684 9.75142298,14.8203975 9.63304119,14.740101 C7.93441833,13.4331963 6.92973081,12.3233833 7.2802032,9.75180791 C7.53721629,9.55706269 7.60731077,8.48479086 8.20077735,8.1093784 C8.56293216,7.30458794 9.64939657,6.56549466 10.808292,6.54672403 C11.9905522,6.48102685 12.9882302,7.18257889 13.490574,7.84189702 C12.5770093,6.98548734 11.0839969,6.72504495 9.80827739,7.3608998 C8.50218361,7.9498281 7.72880786,9.39047341 7.84329551,10.8264261 C7.89236165,10.7560362 7.93441833,10.8006165 7.95778316,10.6222955 C7.91806296,13.4144257 10.9531539,15.4580773 13.1377651,14.425693 L13.1377651,14.425693 L13.1611299,14.4843512 C14.0489933,14.2426795 13.9368422,14.0408953 14.5162899,13.6420195 L14.515,13.643 L14.4942124,13.6741595 C14.4160992,13.7694767 14.2020587,13.9335695 14.2839477,13.9718241 L14.3293713,13.9798907 C14.6120856,13.9048082 15.4929396,13.0835935 15.9251889,12.6964494 C16.1237899,12.2647251 15.8177107,12.4618166 16.0957521,11.9221612 L16.0957521,11.9221612 L16.4345421,11.7532256 C16.6237972,11.2065312 16.8317441,10.8968159 16.8083793,10.2609611 L16.8083793,10.2609611 L16.6121148,10.6809537 C16.9018386,9.79638814 16.7359483,8.83204738 16.7756686,7.99910099 L16.7756686,7.99910099 L16.6938917,7.97798404 C16.6237972,5.88271324 14.8176961,3.65839442 13.214869,2.90287684 C11.8316713,2.26232934 9.70313567,2.15205193 8.71947649,2.63539547 C8.85499248,2.51573275 9.39238349,2.46411353 9.23116619,2.37260675 C7.69142414,2.52511806 8.03488709,2.91226216 6.85262688,3.21493845 C6.53252876,3.52700006 7.80123882,2.96153504 7.11664942,3.36744976 C6.48346263,3.54342435 6.18906582,3.25951868 5.24979981,4.23324475 C5.33391318,4.36933177 5.84560288,3.83202268 5.41802656,4.37167809 C4.53483613,4.26140068 2.63293928,6.39890538 2.22872779,7.10515007 L2.22872779,7.10515007 L2.43901122,7.14034498 C2.09087531,8.01552528 1.6352612,8.57160499 1.57217617,9.0948361 C1.48338983,10.3829701 1.03478517,12.729298 1.65862603,13.4496206 L1.65862603,13.4496206 L1.595541,14.0502806 C1.67965437,14.2215625 1.74741237,14.3951908 1.85255409,14.5570874 L1.85255409,14.5570874 L1.71470161,14.5664727 C2.36658026,16.6382802 2.4156464,14.6063603 3.28014496,16.7555966 C3.1539749,16.7133627 3.02780484,16.6664362 2.84322271,16.4200717 C2.82453085,16.6101243 3.11191822,17.1755893 3.45070819,17.6166989 L3.45070819,17.6166989 L3.30818276,17.7832882 C3.49743785,18.1305447 3.67267404,18.2056272 3.80585355,18.3276363 C3.09556284,17.9357995 4.46474165,19.6087313 4.58857523,19.8222471 L4.58857523,19.8222471 L4.69605343,19.6275019 C4.68203453,19.9067149 4.89699093,20.2703958 5.30120243,20.7725099 L5.30120243,20.7725099 L5.63999241,20.758432 C5.77784488,21.0352987 6.28719809,21.5350665 6.59795028,21.5561834 L6.59795028,21.5561834 L6.39233981,21.8260111 C7.16571555,22.0723756 6.76617703,22.1521507 7.71946193,22.4923683 L7.71946193,22.4923683 L7.52553388,22.1498044 C8.01152226,22.5744897 8.16339363,22.9428632 8.84798304,23.2690028 C9.79893146,23.6021813 9.92510152,23.4684407 10.8994148,23.75 C10.0722999,23.7265367 9.10032316,23.7335757 8.44844451,23.4989429 C3.99043568,22.2858914 -0.0890629678,17.0348096 0.207670324,11.6241776 C0.137575846,10.5284424 0.315148525,9.15818696 0.132902881,8.88601292 C0.389915968,8.05306653 0.686649261,7.03476023 1.28011584,5.82640138 C1.23572268,5.74662623 1.37824811,6.06338049 1.67731789,5.54718836 C1.86190002,5.14361996 2.0114349,4.69781767 2.24274668,4.30598091 L2.24274668,4.30598091 L2.35957081,4.27782498 C2.47873143,3.58331193 3.97174382,2.52277173 4.41333903,1.98780897 L4.41333903,1.98780897 L4.44604979,2.1919395 C5.41335359,1.27921796 7.14001424,0.669172709 8.10965453,0.232755725 C7.85731441,0.516661398 8.68209277,0.204599791 9.27789584,0.167058545 Z M7.57226353,13.4965472 C7.777874,13.5411274 8.48816471,14.6556332 9.02088275,14.8363004 C8.7054576,14.582897 8.46479989,14.2614501 8.23816107,13.9306178 C8.66340091,14.4210004 9.17742708,14.8198761 9.74285588,15.0850112 C9.73117346,15.0396488 9.74467314,15.0062788 9.75799975,14.9752552 L9.765,14.955 L9.7745931,14.9829785 C9.83212898,15.0907629 10.1196624,15.3127109 10.3710533,15.4558002 L10.4531466,15.5003112 C11.2148399,15.7842169 12.0793385,15.7959485 12.7592549,15.7701389 C11.2896074,16.3872231 8.48582823,15.1460157 7.57226353,13.4965472 Z M9.77323015,14.9301535 L9.77032958,14.9446563 L9.77032958,14.9446563 L9.765,14.955 C9.76394912,14.942651 9.76680482,14.9354328 9.77323015,14.9301535 Z M7.07692921,13.0873476 C7.4017003,13.7161635 7.57693649,13.906216 7.81058475,14.3684426 C7.48347719,14.0962686 7.2802032,13.7161635 7.02319011,13.3642143 L7.02319011,13.3642143 Z M7.37763453,12.5481615 C7.46875735,12.7288287 7.54819776,12.9118423 7.68605023,13.0643536 L7.68605023,13.0643536 L7.80754733,13.4209954 C7.64165706,13.1417824 7.46408438,12.8672621 7.37763453,12.5481615 Z M18.4602725,10.7123945 C18.3551308,11.5195313 18.1074636,12.3172828 17.721944,13.0469908 C18.0700799,12.3548241 18.2990552,11.6110381 18.4041969,10.8578669 L18.4041969,10.8578669 Z M12.3246692,12.4984193 C12.2101815,12.6063504 12.0840115,12.7189741 11.9391495,12.8292515 C11.4274598,12.7494764 10.9624998,12.5523849 11.3550289,12.5476922 C11.6821364,12.5781945 12.004571,12.5758481 12.3246692,12.4984193 Z M13.9214214,10.9765911 C13.8630093,11.3426182 13.6924461,11.6969137 13.4564613,12.020707 C13.4868356,11.7438403 12.8092557,12.142716 13.5966503,11.1455267 C13.5265558,11.427086 12.8629948,12.1661793 13.5966503,11.7016064 C13.7274933,11.4646273 13.8700188,11.2393798 13.9214214,10.9765911 Z M14.0338062,9.77832141 C14.0945547,9.50849371 14.2838098,9.28324623 14.2347437,9.99183725 C14.1646492,10.2780892 14.1062372,9.81586266 14.0338062,9.77832141 Z M0.208838566,6.88600304 C0.162108913,7.10655786 0.14108057,7.33180534 0.0172469912,7.71191045 C0.0546307131,7.41627314 -0.129951414,7.32242003 0.208838566,6.88600304 Z M0.642489739,5.08496177 C0.640153257,5.31959455 1.0373553,4.85032898 0.752304422,5.49791547 C0.217249903,5.8709816 0.703238287,5.65277311 0.642489739,5.08496177 Z M10.2849198,0.422104384 L10.2755739,0.440875007 L10.1400579,0.452606647 L10.2849198,0.422104384 Z M9.8673904,0.305022624 C10.5683352,0.326139574 10.5145961,0.370719804 10.2856208,0.422339017 C10.320668,0.370719804 10.0776738,0.34256387 9.8673904,0.305022624 Z M10.8772182,0 C10.5968403,0.0633508526 10.2113206,0.018770623 9.94729811,0.117316394 L9.94729811,0.117316394 L9.78841729,0.0938531149 C10.1482356,0.0492728853 10.5127269,0.0305022624 10.8772182,0 Z" id="debian_logo-copy-3"></path>
        </g>
    </g>
</svg>