<svg width="133" height="43" viewBox="0 0 133 43" fill="none" xmlns="http://www.w3.org/2000/svg">
<g filter="url(#filter0_d_850_123)">
<path d="M5 16C5 8.8203 10.8203 3 18 3H113C120.18 3 126 8.8203 126 16V16C126 23.1797 120.18 29 113 29H70L66.2433 33.1741C65.8461 33.6155 65.1539 33.6155 64.7567 33.1741L61 29H18C10.8203 29 5 23.1797 5 16V16Z" fill="#2A6CF2"/>
</g>
<path d="M23.328 10.028V15.92H24.588V10.028H23.328ZM17.424 16.436V20.864H24.588V16.436H23.34V17.624H18.66V16.436H17.424ZM18.66 18.608H23.34V19.856H18.66V18.608ZM18.672 10.52C16.992 10.52 15.756 11.564 15.756 13.076C15.756 14.576 16.992 15.632 18.672 15.632C20.352 15.632 21.576 14.576 21.576 13.076C21.576 11.564 20.352 10.52 18.672 10.52ZM18.672 11.564C19.656 11.564 20.352 12.164 20.352 13.076C20.352 13.988 19.656 14.588 18.672 14.588C17.688 14.588 16.98 13.988 16.98 13.076C16.98 12.164 17.688 11.564 18.672 11.564ZM29.1711 10.928V12.728C29.1711 14.756 28.1031 16.856 26.3991 17.684L27.1671 18.692C29.0511 17.732 30.1911 15.284 30.1911 12.728V10.928H29.1711ZM29.4111 10.928V12.728C29.4111 15.2 30.5031 17.54 32.3271 18.488L33.0951 17.492C31.4511 16.676 30.4191 14.684 30.4191 12.728V10.928H29.4111ZM33.8271 10.028V20.996H35.0871V10.028H33.8271ZM34.7991 14.372V15.416H36.7911V14.372H34.7991ZM41.9501 16.208V17.888H43.1981V16.208H41.9501ZM37.6181 15.488V16.496H47.5301V15.488H37.6181ZM38.7221 17.6V18.608H45.0701V20.972H46.3181V17.6H38.7221ZM41.9501 10.004V11.564H43.1981V10.004H41.9501ZM41.8781 11.696V11.888C41.8781 12.968 40.4861 13.856 38.1341 14.036L38.5181 14.984C41.1701 14.744 42.9821 13.64 42.9821 11.888V11.696H41.8781ZM42.1661 11.696V11.888C42.1661 13.64 43.9661 14.744 46.6301 14.984L47.0141 14.036C44.6621 13.856 43.2701 12.968 43.2701 11.888V11.696H42.1661ZM38.6021 11.072V12.056H46.5461V11.072H38.6021ZM55.9172 10.028V20.996H57.1652V10.028H55.9172ZM56.8772 14.432V15.476H58.8692V14.432H56.8772ZM48.6092 11.72V12.728H55.0412V11.72H48.6092ZM51.8612 13.52C50.2892 13.52 49.1372 14.576 49.1372 16.076C49.1372 17.588 50.2892 18.644 51.8612 18.644C53.4212 18.644 54.5732 17.588 54.5732 16.076C54.5732 14.576 53.4212 13.52 51.8612 13.52ZM51.8612 14.552C52.7372 14.552 53.3732 15.152 53.3732 16.076C53.3732 17 52.7372 17.612 51.8612 17.612C50.9732 17.612 50.3372 17 50.3372 16.076C50.3372 15.152 50.9732 14.552 51.8612 14.552ZM51.2132 10.184V12.14H52.4732V10.184H51.2132ZM60.9443 10.568V11.576H67.9523V10.568H60.9443ZM59.7083 14.564V15.572H69.6443V14.564H59.7083ZM67.1723 10.568V11.408C67.1723 12.332 67.1723 13.364 66.8123 14.828L68.0603 14.864C68.4083 13.388 68.4083 12.344 68.4083 11.408V10.568H67.1723ZM60.8963 16.916V20.864H68.4083V16.916H60.8963ZM67.1723 17.9V19.856H62.1323V17.9H67.1723ZM73.9106 20H78.9626V18.86H77.2346V11.168H76.1906C75.6746 11.48 75.0986 11.696 74.2586 11.84V12.716H75.8546V18.86H73.9106V20ZM83.1544 20.168C84.8824 20.168 86.0104 18.62 86.0104 15.548C86.0104 12.5 84.8824 11.012 83.1544 11.012C81.4144 11.012 80.2984 12.5 80.2984 15.548C80.2984 18.62 81.4144 20.168 83.1544 20.168ZM83.1544 19.064C82.2544 19.064 81.6184 18.104 81.6184 15.548C81.6184 13.028 82.2544 12.092 83.1544 12.092C84.0544 12.092 84.6784 13.028 84.6784 15.548C84.6784 18.104 84.0544 19.064 83.1544 19.064ZM89.9981 20.168C91.7261 20.168 92.8541 18.62 92.8541 15.548C92.8541 12.5 91.7261 11.012 89.9981 11.012C88.2581 11.012 87.1421 12.5 87.1421 15.548C87.1421 18.62 88.2581 20.168 89.9981 20.168ZM89.9981 19.064C89.0981 19.064 88.4621 18.104 88.4621 15.548C88.4621 13.028 89.0981 12.092 89.9981 12.092C90.8981 12.092 91.5221 13.028 91.5221 15.548C91.5221 18.104 90.8981 19.064 89.9981 19.064ZM94.3579 10.976V16.148H99.4819V10.976H94.3579ZM98.2459 11.984V15.152H95.5939V11.984H98.2459ZM101.27 10.028V18.044H102.53V10.028H101.27ZM102.158 13.292V14.324H104.078V13.292H102.158ZM95.5939 19.76V20.78H102.974V19.76H95.5939ZM95.5939 17.276V20.24H96.8539V17.276H95.5939ZM108.001 15.596V18.02H109.261V15.596H108.001ZM112.837 10.028V18.356H114.097V10.028H112.837ZM106.429 19.76V20.78H114.349V19.76H106.429ZM106.429 17.552V20.036H107.689V17.552H106.429ZM105.121 16.016C107.101 16.016 109.717 15.968 112.069 15.584L111.985 14.672C109.669 14.972 106.969 14.996 104.953 14.996L105.121 16.016ZM110.677 16.46V17.348H113.137V16.46H110.677ZM108.505 10.448C106.897 10.448 105.793 11.216 105.793 12.38C105.793 13.544 106.897 14.3 108.505 14.3C110.101 14.3 111.217 13.544 111.217 12.38C111.217 11.216 110.101 10.448 108.505 10.448ZM108.505 11.372C109.393 11.372 110.017 11.744 110.017 12.38C110.017 13.004 109.393 13.376 108.505 13.376C107.605 13.376 106.981 13.004 106.981 12.38C106.981 11.744 107.605 11.372 108.505 11.372Z" fill="white"/>
<defs>
<filter id="filter0_d_850_123" x="0" y="0" width="133" height="42.5054" filterUnits="userSpaceOnUse" color-interpolation-filters="sRGB">
<feFlood flood-opacity="0" result="BackgroundImageFix"/>
<feColorMatrix in="SourceAlpha" type="matrix" values="0 0 0 0 0 0 0 0 0 0 0 0 0 0 0 0 0 0 127 0" result="hardAlpha"/>
<feOffset dx="1" dy="3"/>
<feGaussianBlur stdDeviation="3"/>
<feComposite in2="hardAlpha" operator="out"/>
<feColorMatrix type="matrix" values="0 0 0 0 0 0 0 0 0 0 0 0 0 0 0 0 0 0 0.2 0"/>
<feBlend mode="normal" in2="BackgroundImageFix" result="effect1_dropShadow_850_123"/>
<feBlend mode="normal" in="SourceGraphic" in2="effect1_dropShadow_850_123" result="shape"/>
</filter>
</defs>
</svg>
