<?xml version="1.0" encoding="UTF-8"?>
<svg width="24px" height="24px" viewBox="0 0 24 24" version="1.1" xmlns="http://www.w3.org/2000/svg" xmlns:xlink="http://www.w3.org/1999/xlink">
    <!-- Generator: Sketch 59.1 (86144) - https://sketch.com -->
    <title>ic-audio</title>
    <desc>Created with Sketch.</desc>
    <g id="Icon-Set" stroke="none" stroke-width="1" fill="none" fill-rule="evenodd">
        <g id="WhaTap_Icon_Set" transform="translate(-356.000000, -2391.000000)" fill="#757575">
            <g id="application-icons" transform="translate(40.000000, 2346.000000)">
                <g id="ic-audio" transform="translate(315.349031, 45.000000)">
                    <g transform="translate(5.000000, 2.000000)" id="Shape">
                        <path d="M6.66666667,16.2319397 C2.88304888,15.6500665 3.19744231e-14,12.6336621 3.19744231e-14,9 L1.65096851,9 C1.65096851,12.0375661 4.33726001,14.5 7.65096851,14.5 C10.964677,14.5 13.6509685,12.0375661 13.6509685,9 L15.3315207,9 C15.3315207,12.6336621 12.4484717,15.6500665 8.66485399,16.2319397 L8.66485399,20 L6.66666667,20 L6.66666667,16.2319397 Z M7.65096851,12 C5.99096851,12 4.65096851,10.66 4.65096851,9 L4.65096851,3 C4.65096851,1.34 5.99096851,0 7.65096851,0 C9.3109685,0 10.6509685,1.34 10.6509685,3 L10.6409685,9 C10.6409685,10.66 9.3109685,12 7.65096851,12 Z"></path>
                    </g>
                </g>
            </g>
        </g>
    </g>
</svg>