<?xml version="1.0" encoding="UTF-8"?>
<svg width="25px" height="25px" viewBox="0 0 25 25" version="1.1" xmlns="http://www.w3.org/2000/svg" xmlns:xlink="http://www.w3.org/1999/xlink">
    <!-- Generator: Sketch 59.1 (86144) - https://sketch.com -->
    <title>ic-alarm</title>
    <desc>Created with Sketch.</desc>
    <g id="Icon-Set" stroke="none" stroke-width="1" fill="none" fill-rule="evenodd">
        <g id="WhaTap_Icon_Set" transform="translate(-839.000000, -2242.000000)" fill="#757575">
            <g id="time-icons" transform="translate(43.000000, 2197.000000)">
                <g id="ic-alarm" transform="translate(796.171573, 45.171573)">
                    <g transform="translate(1.000000, 1.000000)" id="Combined-Shape">
                        <path d="M10.8194271,1.82842712 C15.7964271,1.82842712 19.8284271,5.86042712 19.8284271,10.8284271 C19.8284271,13.4610967 18.696157,15.8309178 16.8910061,17.4771618 L18.9497475,19.5355339 L17.5355339,20.9497475 L15.251488,18.665626 C13.9430241,19.405806 12.4307515,19.8284271 10.8194271,19.8284271 C9.21386437,19.8284271 7.707003,19.4073013 6.40274064,18.6695548 L4.12132034,20.9497475 L2.70710678,19.5355339 L4.76330465,17.4805406 C2.95971665,15.8341612 1.82842712,13.4628983 1.82842712,10.8284271 C1.82842712,5.86042712 5.85142712,1.82842712 10.8194271,1.82842712 Z M10.8284271,3.82842712 C6.96092712,3.82842712 3.82842712,6.96092712 3.82842712,10.8284271 C3.82842712,14.6959271 6.96092712,17.8284271 10.8284271,17.8284271 C14.6959271,17.8284271 17.8284271,14.6959271 17.8284271,10.8284271 C17.8284271,6.96092712 14.6959271,3.82842712 10.8284271,3.82842712 Z M11.686574,6.8306111 L11.686574,10.9013714 L15.1092585,13.0614743 L14.1801851,14.5296441 L9.82842712,11.7965969 L9.82842712,6.8306111 L11.686574,6.8306111 Z M4.24264069,-6.97220059e-14 L5.65685425,1.41421356 L1.41421356,5.65685425 L1.86162197e-12,4.24264069 L4.24264069,-6.97220059e-14 Z M17.4142136,-6.97220059e-14 L21.6568542,4.24264069 L20.2426407,5.65685425 L16,1.41421356 L17.4142136,-6.97220059e-14 Z"></path>
                    </g>
                </g>
            </g>
        </g>
    </g>
</svg>