<?xml version="1.0" encoding="UTF-8"?>
<svg width="24px" height="24px" viewBox="0 0 24 24" version="1.1" xmlns="http://www.w3.org/2000/svg" xmlns:xlink="http://www.w3.org/1999/xlink">
    <!-- Generator: Sketch 59.1 (86144) - https://sketch.com -->
    <title>ic-asf</title>
    <desc>Created with Sketch.</desc>
    <g id="Icon-Set" stroke="none" stroke-width="1" fill="none" fill-rule="evenodd">
        <g id="WhaTap_Icon_Set" transform="translate(-68.000000, -2093.000000)" fill="#757575">
            <g id="product-and-logos" transform="translate(40.000000, 1888.000000)">
                <g id="ic-asf" transform="translate(28.000000, 205.000000)">
                    <g transform="translate(7.000000, 1.000000)" id="Combined-Shape">
                        <path d="M8.09266029,1.79402354 L8.7483285,3.03233154 C8.53083082,3.34349612 8.3149207,3.66894886 8.10059817,4.00789599 L8.10059817,4.00789599 L8.06249638,4.0690176 C7.84658627,4.41352123 7.63226373,4.76993168 7.42032255,5.13824893 C7.21631925,5.49227801 7.0146973,5.85662633 6.81545672,6.22891251 C6.62891673,6.57817887 6.44396432,6.93458932 6.26298084,7.29655627 L6.26298084,7.29655627 C6.25583676,7.30766929 6.24948646,7.3195761 6.24313617,7.33227669 C6.12803702,7.5608874 6.01373167,7.79187947 5.90101389,8.02445911 C5.83512956,8.15860915 5.77003901,8.29355297 5.70574225,8.42929057 C5.52634634,8.8055457 5.35012559,9.18497597 5.17707998,9.5667876 C5.0024468,9.95336196 4.83019499,10.3407301 4.6619121,10.7296858 C4.49680437,11.1114975 4.33487179,11.4933091 4.17611435,11.8743269 C4.01735691,12.2553448 3.86256841,12.6347751 3.71174885,13.0110302 C3.5537852,13.4039548 3.40058428,13.7944981 3.25135229,14.1794849 L3.25135229,14.1794849 L3.1513351,14.4398471 C3.03147324,14.7510117 2.91558031,15.0582073 2.80206874,15.3606402 L2.80206874,15.3606402 C2.77190483,15.4408127 2.74332849,15.5162225 2.71554594,15.5916323 C2.59171514,15.9234353 2.47264706,16.2488881 2.35754792,16.5671967 C2.34881626,16.5918041 2.3400846,16.6164115 2.33135295,16.6402252 C2.29960146,16.7283355 2.26864376,16.8148583 2.23768606,16.9013811 C1.14861005,19.9384109 0.453252479,22.2499192 0.348472572,22.6023607 C0.287350959,22.7666746 0.18018969,22.8873303 6.40376641e-13,22.940514 C0.5881963,20.9957354 1.17559881,19.1636746 1.76220754,17.5046594 C1.39230271,17.4213117 0.876341046,17.5245041 0.237342367,17.7848663 C0.673925315,17.4554446 1.10733312,17.1696812 1.52407138,17.1434862 C1.39150893,17.1125285 1.05097423,16.9974294 0.597721746,16.5806911 C1.03271712,16.7402423 1.40897224,16.8220024 1.68362261,16.7656435 C1.62646993,16.0409158 1.23672043,15.3026938 0.723933908,14.5589152 C0.722346333,14.5541525 1.43913616,14.9732721 1.70664244,15.4019172 L1.70664244,15.4019172 L1.71061137,15.3455583 C1.74871316,14.8089581 1.82491673,14.2691829 1.93287178,13.72782 C1.93684072,13.7079753 1.94160344,13.6881306 1.94557238,13.6674922 L1.94557238,13.6674922 L2.336,14.439 L1.94557238,13.6666984 C2.00537101,13.3708804 2.0743423,13.0743568 2.15131025,12.7771276 L2.27261269,12.3307546 C2.32659022,12.1410394 2.3837429,11.9513243 2.44327694,11.7608154 C2.51551157,11.538555 2.59489029,11.3067691 2.68220688,11.0670454 C2.81556313,10.7026971 2.96638269,10.3177103 3.13863451,9.91526017 C3.29024786,9.56043731 3.45853074,9.19053248 3.64427694,8.80792706 C3.67364707,8.74680545 3.70381098,8.68568383 3.73397489,8.62376843 C3.88479446,8.31974794 4.04037674,8.01810882 4.19913418,7.71964484 C4.38726174,7.36561575 4.58015202,7.0163494 4.77621746,6.67422712 C4.96990153,6.33528 5.16755454,6.00347695 5.36679512,5.678818 L5.36679512,5.678818 L5.40886584,5.6105523 L5.692,6.171 L5.40965963,5.61134609 C5.41283478,5.60578958 5.41620837,5.60003462 5.41968119,5.59427966 L5.43029809,5.57721324 C5.61842566,5.27160518 5.80814079,4.97393498 5.99706214,4.68420266 C6.21932255,4.34446175 6.44078917,4.01583386 6.65987443,3.70228792 C6.89642301,3.36254701 7.12979644,3.03947563 7.35681958,2.73624892 C7.55764773,2.46715507 7.75450695,2.21393696 7.9434283,1.97818217 C7.9934369,1.91547298 8.04344549,1.85435137 8.09266029,1.79402354 L8.09266029,1.79402354 Z M8.96304522,2.86192543 C9.59001888,1.91771791 10.0056874,1.43344572 10.1485691,1.27568051 L9.86616501,1.5892836 C9.49032901,2.02082442 9.11743954,2.5050981 8.74912229,3.03153775 L8.74912229,3.03153775 L8.09345408,1.79402354 C8.80706875,0.922445219 9.4047905,0.321548325 9.76437609,0.108813361 C10.5049795,-0.328563375 11.1376279,0.693834512 11.1376279,0.693834512 C11.1376279,0.693834512 11.6345387,1.33680213 11.3837019,2.74180543 L11.3837019,2.74180543 C11.3583007,2.87833683 11.327343,3.02042473 11.2876537,3.1712443 C11.2424078,3.34190854 11.1773173,3.5363864 11.096351,3.74515243 C10.969345,4.07298653 10.8026497,4.43733485 10.6145222,4.80485831 C10.4200443,5.18508237 10.200959,5.56768779 9.97869863,5.91536658 C9.906464,6.02887814 9.83343558,6.13842077 9.76040716,6.24320068 C9.48655058,6.62342474 9.20396234,6.8861683 8.57290154,7.17669441 L8.57290154,7.17669441 L8.569,7.176 L8.55623201,7.18383849 C8.57250464,7.18106023 8.58877728,7.17848043 8.60495069,7.17590062 L8.65307404,7.16796275 L8.65307404,7.16796275 L8.66736221,7.16558138 L8.83306161,7.13084217 C9.11627091,7.06441762 9.42529667,6.95747685 9.61911304,6.84171622 C9.6524521,6.82187154 9.68261601,6.80123307 9.70881099,6.7805946 L9.70881099,6.7805946 L9.69758037,6.84221601 C9.68834892,6.88784407 9.67547193,6.94252719 9.65800861,7.00603016 C9.64054529,7.06953314 9.61831925,7.14176777 9.59133049,7.22273406 C9.58180504,7.24972283 9.5722796,7.27750538 9.56196036,7.3068755 C9.53655917,7.37990392 9.50639526,7.45848885 9.47226241,7.5426303 C9.40399671,7.71170696 9.31747391,7.90459725 9.21031264,8.12050736 C9.18649903,8.16813459 9.16189162,8.21655561 9.13649043,8.26577042 C9.11664575,8.29990326 9.09680108,8.33324233 9.07616261,8.3657876 C9.00948449,8.47215508 8.93724985,8.57058469 8.86104628,8.66187022 C8.82850101,8.70076579 8.79516195,8.73807379 8.76023531,8.774588 C8.70625778,8.83174067 8.64910511,8.8857182 8.58957107,8.93731437 C8.5506755,8.97065343 8.51019235,9.00319871 8.46812163,9.03495019 C8.27284998,9.18259461 8.04741442,9.30721919 7.78070193,9.41914319 L7.78,9.419 L7.79975282,9.4170595 L7.79975282,9.4170595 L7.82039129,9.41358668 C7.87595639,9.40564881 7.9315215,9.39612336 7.98470524,9.38421655 C8.37921747,9.29689996 8.70784536,9.11671027 8.91026109,8.9785913 C8.55781958,9.67871159 8.07281561,10.2494446 7.30363584,10.5455272 C7.30284205,10.5455272 7.30284205,10.546321 7.30204826,10.546321 L7.30204826,10.546321 L7.36823027,10.5365971 L7.36823027,10.5365971 L7.43381693,10.5256825 C7.47668144,10.5185384 7.51954595,10.5098068 7.56161667,10.5010751 C7.8013404,10.4502727 8.0180443,10.3772443 8.20775943,10.2772271 C8.06011502,10.7312734 7.90691409,11.1495992 7.74736287,11.5361736 C7.56479182,11.9783131 7.37348911,12.3783818 7.1694858,12.7387612 C6.89562923,13.2229714 6.59875282,13.6365345 6.27250629,13.9873884 C5.56365434,14.7486303 4.46664046,15.3646092 3.64189558,15.4678015 C3.65538996,15.4709766 3.66967813,15.4725642 3.68317251,15.4749456 L3.68317251,15.4749456 C4.60142378,15.6422747 5.47502311,15.4214814 6.22805421,14.6478193 C6.13835626,14.8240401 6.05024588,14.9835913 5.95975414,15.1288544 C5.57794251,15.7424519 5.1453285,16.1131505 4.28327562,16.498931 L4.28327562,16.498931 L4.4507798,16.5036541 C4.92992641,16.5026539 5.20454502,16.3647016 5.43029809,16.0782238 C5.38981495,16.1679218 5.34456908,16.252857 5.29535427,16.3338233 C4.74367218,17.2403283 3.67602843,17.5530804 2.43692664,17.4975153 C2.71633973,17.7554961 2.86239657,18.088093 2.88303504,18.4429158 C2.69252611,18.1007936 2.49090417,17.7991544 2.23927363,17.6840553 C2.39247456,17.2387407 2.45835889,17.0426753 2.53535625,16.8251776 C2.55123199,16.7799317 2.56790153,16.733892 2.58377727,16.6886462 C2.58536484,16.6838835 2.58695242,16.6791207 2.58853999,16.674358 C2.70284535,16.3512866 2.81635691,16.0353593 2.92907469,15.7249885 C2.95050695,15.6662483 2.9719392,15.6083018 2.99099009,15.5503554 L2.99099009,15.5503554 C2.99734039,15.5416237 3.00051554,15.5320983 3.00369069,15.5233666 C3.14974753,15.1248854 3.29421679,14.7359297 3.43709849,14.358087 L3.43709849,14.358087 L3.45773695,14.3025219 C3.60141243,13.9215041 3.74508791,13.5508055 3.88638203,13.1904261 C4.04513947,12.7855946 4.20230933,12.3934637 4.35709783,12.0132397 C4.52061799,11.613171 4.68175678,11.2258028 4.84051422,10.851929 C5.00720953,10.4597982 5.17152347,10.0819555 5.33266227,9.71840095 C5.46363716,9.42311212 5.59302447,9.13655495 5.7208242,8.85872944 C5.76368871,8.76585634 5.80575943,8.67457081 5.84783015,8.58407907 C5.93197159,8.40468317 6.01452546,8.22846242 6.09628554,8.0562106 C6.17169532,7.89745316 6.2471051,7.74187088 6.32092731,7.58946374 L6.32092731,7.58946374 L6.39474952,7.43785039 C6.39871845,7.42991252 6.40268739,7.42197464 6.40586254,7.41324298 L6.40586254,7.41324298 C6.59510782,7.02761532 6.7790989,6.66360559 6.95675084,6.32019804 C7.16154793,5.92568581 7.35761337,5.55895613 7.54653471,5.21683386 C7.76482619,4.82073406 7.97279843,4.4587671 8.16807008,4.12934542 C8.17997688,4.10950074 8.19188369,4.08886228 8.2037905,4.0690176 C8.43081363,3.68879354 8.64116723,3.35302156 8.83405752,3.05693894 L8.83405752,3.05693894 Z M10.2041342,1.21614648 C10.2041342,1.21614648 10.2020174,1.21826324 10.1978427,1.22258497 L10.179,1.242 Z"></path>
                    </g>
                </g>
            </g>
        </g>
    </g>
</svg>