<?xml version="1.0" encoding="UTF-8"?>
<svg width="24px" height="24px" viewBox="0 0 24 24" version="1.1" xmlns="http://www.w3.org/2000/svg" xmlns:xlink="http://www.w3.org/1999/xlink">
    <!-- Generator: Sketch 59.1 (86144) - https://sketch.com -->
    <title>ic-book</title>
    <desc>Created with Sketch.</desc>
    <g id="Icon-Set" stroke="none" stroke-width="1" fill="none" fill-rule="evenodd">
        <g id="WhaTap_Icon_Set" transform="translate(-548.000000, -2391.000000)" fill="#757575">
            <g id="application-icons" transform="translate(40.000000, 2346.000000)">
                <g id="ic-book" transform="translate(508.000000, 45.000000)">
                    <g transform="translate(1.000000, 4.000000)" id="Shape">
                        <path d="M20,0 L2,0 C0.9,0 0,0.9 0,2 L0,15 C0,16.1 0.9,17 2,17 L20,17 C21.1,17 22,16.1 22,15 L22,2 C22,0.9 21.1,0 20,0 Z M2,15 L2,2 L10,2 L10,15 L2,15 Z M20,15 L12,15 L12,2 L20,2 L20,15 Z M13,5.5 L19,5.5 L19,7 L13,7 L13,5.5 Z M3,5.5 L9,5.5 L9,7 L3,7 L3,5.5 Z M13,8 L19,8 L19,9.5 L13,9.5 L13,8 Z M3,8 L9,8 L9,9.5 L3,9.5 L3,8 Z M13,10.5 L19,10.5 L19,12 L13,12 L13,10.5 Z M3,10.5 L9,10.5 L9,12 L3,12 L3,10.5 Z"></path>
                    </g>
                </g>
            </g>
        </g>
    </g>
</svg>