<?xml version="1.0" encoding="UTF-8"?>
<svg width="24px" height="24px" viewBox="0 0 24 24" version="1.1" xmlns="http://www.w3.org/2000/svg" xmlns:xlink="http://www.w3.org/1999/xlink">
    <!-- Generator: Sketch 59.1 (86144) - https://sketch.com -->
    <title>ic-centos</title>
    <desc>Created with Sketch.</desc>
    <g id="Icon-Set" stroke="none" stroke-width="1" fill="none" fill-rule="evenodd">
        <g id="WhaTap_Icon_Set" transform="translate(-740.000000, -1933.000000)" fill="#757575">
            <g id="product-and-logos" transform="translate(40.000000, 1888.000000)">
                <g id="ic-centos" transform="translate(700.000000, 45.000000)">
                    <g transform="translate(1.000000, 1.000000)" id="Combined-Shape">
                        <path d="M11,12.4667973 L11.518,12.984 L11.5186339,19.2970003 L13.702,19.297 L11,22 L8.297,19.297 L10.4815294,19.2970003 L10.481,12.985 L11,12.4667973 Z M12.037,13.503 L15.7667646,17.2333987 L14.221,18.778 L12.0371047,18.7782031 L12.037,13.503 Z M9.9628954,12.0371047 L9.962,12.769 L5.50000002,17.2333986 L7.045,18.778 L3.22179693,18.7782031 L3.221,14.955 L4.76676459,16.5001632 L9.227,12.037 L9.9628954,12.0371047 Z M9.962,13.504 L9.9628954,18.7782031 L7.778,18.778 L6.23339863,17.2333987 L9.962,13.504 Z M12.77,12.037 L17.2333986,16.5001632 L18.778,14.953 L18.7782031,18.7782031 L14.953,18.778 L16.5,17.2333986 L12.037,12.77 L12.0371047,12.0371047 L12.77,12.037 Z M8.496,12.037 L4.76676459,15.7667646 L3.221,14.221 L3.22179693,12.0371047 L8.496,12.037 Z M18.7782031,12.0371047 L18.778,14.221 L17.2333987,15.7667646 L13.503,12.037 L18.7782031,12.0371047 Z M19.296,8.296 L22,11 L19.296,13.703 L19.2968371,11.5186339 L12.984,11.518 L12.4666341,11 L12.985,10.481 L19.2968371,10.4815294 L19.296,8.296 Z M2.703,8.296 L2.70332622,10.4815294 L9.014,10.481 L9.533366,11 L9.015,11.518 L2.70332622,11.5186339 L2.703,13.703 L-1.09334763e-12,11 L2.703,8.296 Z M4.76660141,6.23339863 L8.496,9.963 L3.22179693,9.96305857 L3.221,7.778 L4.76660141,6.23339863 Z M18.7782031,3.22196013 L18.778,7.045 L17.2333986,5.50000002 L12.768,9.963 L12.0371047,9.96305857 L12.037,9.227 L16.5,4.76676459 L14.955,3.221 L18.7782031,3.22196013 Z M17.2333987,6.23339863 L18.778,7.778 L18.7782031,9.96305857 L13.503,9.963 L17.2333987,6.23339863 Z M7.043,3.221 L5.50000002,4.76676459 L9.962,9.228 L9.9628954,9.96305857 L9.229,9.963 L4.76660139,5.50000002 L3.221,7.043 L3.22179693,3.22196013 L7.043,3.221 Z M11,-1.92734717e-13 L13.703,2.703 L11.5186339,2.70332622 L11.518,9.015 L11,9.533366 L10.481,9.014 L10.4815294,2.70332622 L8.296,2.703 L11,-1.92734717e-13 Z M14.221,3.221 L15.7667646,4.76676459 L12.037,8.496 L12.0371047,3.22196013 L14.221,3.221 Z M9.9628954,3.22196013 L9.962,8.495 L6.23339863,4.76676459 L7.778,3.221 L9.9628954,3.22196013 Z"></path>
                    </g>
                </g>
            </g>
        </g>
    </g>
</svg>