<?xml version="1.0" encoding="UTF-8"?>
<svg width="24px" height="24px" viewBox="0 0 24 24" version="1.1" xmlns="http://www.w3.org/2000/svg" xmlns:xlink="http://www.w3.org/1999/xlink">
    <!-- Generator: Sketch 59.1 (86144) - https://sketch.com -->
    <title>ic-cloud</title>
    <desc>Created with Sketch.</desc>
    <g id="Icon-Set" stroke="none" stroke-width="1" fill="none" fill-rule="evenodd">
        <g id="WhaTap_Icon_Set" transform="translate(-68.000000, -2471.000000)" fill="#757575">
            <g id="application-icons" transform="translate(40.000000, 2346.000000)">
                <g id="ic-cloud" transform="translate(28.000000, 125.000000)">
                    <g transform="translate(0.000000, 4.000000)" id="Shape">
                        <path d="M12,2 C14.62,2 16.88,3.86 17.39,6.43 L17.69,7.93 L19.22,8.04 C20.78,8.14 22,9.45 22,11 C22,12.65 20.65,14 19,14 L6,14 C3.79,14 2,12.21 2,10 C2,7.95 3.53,6.24 5.56,6.03 L6.63,5.92 L7.13,4.97 C8.08,3.14 9.94,2 12,2 M12,0 C9.11,0 6.6,1.64 5.35,4.04 C2.34,4.36 0,6.91 0,10 C0,13.31 2.69,16 6,16 L19,16 C21.76,16 24,13.76 24,11 C24,8.36 21.95,6.22 19.35,6.04 C18.67,2.59 15.64,0 12,0 Z"></path>
                    </g>
                </g>
            </g>
        </g>
    </g>
</svg>