<?xml version="1.0" encoding="UTF-8"?>
<svg width="24px" height="24px" viewBox="0 0 24 24" version="1.1" xmlns="http://www.w3.org/2000/svg" xmlns:xlink="http://www.w3.org/1999/xlink">
    <!-- Generator: Sketch 59.1 (86144) - https://sketch.com -->
    <title>ic-close-circle</title>
    <desc>Created with Sketch.</desc>
    <g id="Icon-Set" stroke="none" stroke-width="1" fill="none" fill-rule="evenodd">
        <g id="WhaTap_Icon_Set" transform="translate(-645.000000, -862.000000)" fill="#757575">
            <g id="suggested-icons" transform="translate(40.000000, 737.000000)">
                <g id="ic-close-circle" transform="translate(605.000000, 125.000000)">
                    <g transform="translate(2.000000, 2.000000)">
                        <path d="M10,0 C15.5228475,0 20,4.4771525 20,10 C20,15.5228475 15.5228475,20 10,20 C4.4771525,20 0,15.5228475 0,10 C0,4.4771525 4.4771525,0 10,0 Z M10,2 C5.581722,2 2,5.581722 2,10 C2,14.418278 5.581722,18 10,18 C14.418278,18 18,14.418278 18,10 C18,5.581722 14.418278,2 10,2 Z M12.8284271,5.75735931 L14.2426407,7.17157288 L11.4142136,10 L14.2426407,12.8284271 L12.8284271,14.2426407 L10,11.4142136 L7.17157288,14.2426407 L5.75735931,12.8284271 L8.58649354,9.99929289 L5.75735931,7.17157288 L7.17157288,5.75735931 L10.0007071,8.58507933 L12.8284271,5.75735931 Z"></path>
                    </g>
                </g>
            </g>
        </g>
    </g>
</svg>