<?xml version="1.0" encoding="UTF-8"?>
<svg width="24px" height="24px" viewBox="0 0 24 24" version="1.1" xmlns="http://www.w3.org/2000/svg" xmlns:xlink="http://www.w3.org/1999/xlink">
    <!-- Generator: Sketch 59.1 (86144) - https://sketch.com -->
    <title>ic-cpu</title>
    <desc>Created with Sketch.</desc>
    <g id="Icon-Set" stroke="none" stroke-width="1" fill="none" fill-rule="evenodd">
        <g id="WhaTap_Icon_Set" transform="translate(-260.000000, -3111.000000)" fill="#757575">
            <g id="application-icons" transform="translate(40.000000, 2346.000000)">
                <g id="ic-cpu" transform="translate(220.000000, 765.000000)">
                    <g transform="translate(2.000000, 2.000000)" id="Combined-Shape">
                        <path d="M9,0 L9,4 L11,4 L11,0 L13,0 L13,4 L16,4 L16,6.999 L20,7 L20,9 L16,8.999 L16,10.999 L20,11 L20,13 L16,13 L16,16 L13,16 L13,20 L11,20 L11,16 L9,16 L9,20 L7,20 L7,16 L4,16 L4,13 L0,13 L0,11 L4,11 L4,8.999 L-9.09494702e-13,9 L-9.09494702e-13,7 L4,6.999 L4,4 L7,4 L7,0 L9,0 Z M14,6 L6,6 L6,14 L14,14 L14,6 Z M12,8 L12,12 L8,12 L8,8 L12,8 Z"></path>
                    </g>
                </g>
            </g>
        </g>
    </g>
</svg>