<?xml version="1.0" encoding="UTF-8"?>
<svg width="24px" height="24px" viewBox="0 0 24 24" version="1.1" xmlns="http://www.w3.org/2000/svg" xmlns:xlink="http://www.w3.org/1999/xlink">
    <!-- Generator: Sketch 59.1 (86144) - https://sketch.com -->
    <title>ic-customer-service</title>
    <desc>Created with Sketch.</desc>
    <g id="Icon-Set" stroke="none" stroke-width="1" fill="none" fill-rule="evenodd">
        <g id="WhaTap_Icon_Set" transform="translate(-740.000000, -2471.000000)" fill="#757575">
            <g id="application-icons" transform="translate(40.000000, 2346.000000)">
                <g id="ic-customer-service" transform="translate(700.000000, 125.000000)">
                    <g transform="translate(3.000000, 1.000000)" id="Shape">
                        <path d="M16,13 L16,17 L14,17 L14,13 L16,13 M4,13 L4,17 L3,17 C2.45,17 2,16.55 2,16 L2,13 L4,13 M9,0 C4.03,0 0,4.03 0,9 L0,16 C0,17.66 1.34,19 3,19 L6,19 L6,11 L2,11 L2,9 C2,5.13 5.13,2 9,2 C12.87,2 16,5.13 16,9 L16,11 L12,11 L12,19 L16,19 L16,20 L9,20 L9,22 L15,22 C16.66,22 18,20.66 18,19 L18,9 C18,4.03 13.97,0 9,0 Z"></path>
                    </g>
                </g>
            </g>
        </g>
    </g>
</svg>