<?xml version="1.0" encoding="UTF-8"?>
<svg width="24px" height="24px" viewBox="0 0 24 24" version="1.1" xmlns="http://www.w3.org/2000/svg" xmlns:xlink="http://www.w3.org/1999/xlink">
    <!-- Generator: Sketch 59.1 (86144) - https://sketch.com -->
    <title>ic-dashboard</title>
    <desc>Created with Sketch.</desc>
    <g id="Icon-Set" stroke="none" stroke-width="1" fill="none" fill-rule="evenodd">
        <g id="WhaTap_Icon_Set" transform="translate(-836.000000, -1704.000000)" fill="#757575">
            <g id="data-icons" transform="translate(40.000000, 1579.000000)">
                <g id="ic-dashboard" transform="translate(796.000000, 125.000000)">
                    <g transform="translate(2.000000, 2.000000)" id="Combined-Shape">
                        <path d="M9,11 L9,20 L0,20 L0,11 L9,11 Z M20,11 L20,20 L11,20 L11,11 L20,11 Z M7,13 L2,13 L2,18 L7,18 L7,13 Z M18,13 L13,13 L13,18 L18,18 L18,13 Z M9,0 L9,9 L0,9 L0,0 L9,0 Z M20,0 L20,9 L11,9 L11,0 L20,0 Z M7,2 L2,2 L2,7 L7,7 L7,2 Z M18,2 L13,2 L13,7 L18,7 L18,2 Z"></path>
                    </g>
                </g>
            </g>
        </g>
    </g>
</svg>