<?xml version="1.0" encoding="UTF-8"?>
<svg width="24px" height="25px" viewBox="0 0 24 25" version="1.1" xmlns="http://www.w3.org/2000/svg" xmlns:xlink="http://www.w3.org/1999/xlink">
    <!-- Generator: Sketch 59.1 (86144) - https://sketch.com -->
    <title>ic-eye-invisible</title>
    <desc>Created with Sketch.</desc>
    <g id="Icon-Set" stroke="none" stroke-width="1" fill="none" fill-rule="evenodd">
        <g id="WhaTap_Icon_Set" transform="translate(-260.000000, -2551.000000)" fill="#757575">
            <g id="application-icons" transform="translate(40.000000, 2346.000000)">
                <g id="ic-eye-invisible" transform="translate(220.000000, 205.014719)">
                    <g transform="translate(2.000000, 3.000000)" id="Combined-Shape">
                        <path d="M16.5440759,3.35414614 C18.0456415,4.66002449 19.1911431,6.43274861 20,8.48528137 C18.27,12.8752814 15,15.9852814 10,15.9852814 C8.135106,15.9852814 6.51087781,15.5526394 5.11745704,14.7823072 L7.24216723,12.6558085 C8.03285052,13.1799352 8.9809833,13.4852814 10,13.4852814 C12.76,13.4852814 15,11.2452814 15,8.48528137 C15,7.46669959 14.6949144,6.51894124 14.1711981,5.72846109 Z M10,0.985281374 C11.0322205,0.985281374 11.9907098,1.11782698 12.8771397,1.36681698 L10.7074659,3.53501898 C10.4763356,3.50223819 10.240136,3.48528137 10,3.48528137 C7.24,3.48528137 5,5.72528137 5,8.48528137 C5,8.72541736 5.01695682,8.96161694 5.0497376,9.19274727 L2.0762573,12.1668017 C1.23023331,11.1014916 0.540074422,9.85575924 -2.82829316e-14,8.48528137 C1.73,4.09528137 5,0.985281374 10,0.985281374 Z M12.7084883,7.19118344 C12.895416,7.58274726 13,8.02152667 13,8.48528137 C13,10.1452814 11.66,11.4852814 10,11.4852814 C9.53631504,11.4852814 9.09759786,11.3807288 8.70607873,11.193854 Z M7.82017481,6.42169457 L7.8775,6.36278137 C7.858125,6.38215637 7.83901467,6.40179604 7.82017481,6.42169457 Z M17.0710678,1.50990331e-14 L18.4852814,1.41421356 L2.92893219,16.9705627 L1.51471863,15.5563492 L17.0710678,1.50990331e-14 Z"></path>
                    </g>
                </g>
            </g>
        </g>
    </g>
</svg>