<?xml version="1.0" encoding="UTF-8"?>
<svg width="24px" height="24px" viewBox="0 0 24 24" version="1.1" xmlns="http://www.w3.org/2000/svg" xmlns:xlink="http://www.w3.org/1999/xlink">
    <!-- Generator: Sketch 59.1 (86144) - https://sketch.com -->
    <title>ic-FAQ</title>
    <desc>Created with Sketch.</desc>
    <g id="Icon-Set" stroke="none" stroke-width="1" fill="none" fill-rule="evenodd">
        <g id="WhaTap_Icon_Set" transform="translate(-836.000000, -2871.000000)" fill="#757575">
            <g id="application-icons" transform="translate(40.000000, 2346.000000)">
                <g id="ic-FAQ" transform="translate(796.000000, 525.000000)">
                    <g transform="translate(2.000000, 2.000000)" id="Icon">
                        <path d="M10,-5.32907052e-15 C4.478,-5.32907052e-15 -5.32907052e-15,4.477 -5.32907052e-15,10 C-5.32907052e-15,15.523 4.478,20 10,20 C12.093,20 14.034,19.355 15.64,18.256 L20,20 L18.256,15.64 C19.355,14.034 20,12.093 20,10 C20,4.477 15.522,-5.32907052e-15 10,-5.32907052e-15 Z M10,2 C14.418278,2 18,5.581722 18,10 C18,11.8440791 17.376057,13.5424286 16.3277654,14.895454 L17.0510326,16.9585549 L14.9816859,16.2600083 C13.6149195,17.349116 11.8834708,18 10,18 C5.581722,18 2,14.418278 2,10 C2,5.581722 5.581722,2 10,2 Z M9.88411458,4.390625 C9.11588158,4.390625 8.43337972,4.57834014 7.83658854,4.95377604 C7.23979736,5.32921195 6.7775624,5.87065618 6.44986979,6.578125 C6.12217718,7.28559382 5.95833333,8.10155788 5.95833333,9.02604167 L5.95833333,9.02604167 L5.95833333,9.55989583 C5.96267363,10.4670184 6.1286876,11.2677917 6.45638021,11.9622396 C6.78407282,12.6566875 7.2484779,13.1916214 7.84960937,13.5670573 C8.45074085,13.9424932 9.13324271,14.1302083 9.89713542,14.1302083 C10.2009564,14.1302083 10.4852417,14.1019968 10.75,14.0455729 L10.75,14.0455729 L12.7682292,15.640625 L14.0318704,14.4557452 L12.3873684,13.2169236 C12.7682292,12.8360819 13.1187052,12.4993522 13.4029948,11.8417969 C13.6872844,11.1842415 13.8294271,10.4062545 13.8294271,9.5078125 L13.8294271,9.5078125 L13.8294271,8.98046875 C13.8250868,8.05598496 13.6601579,7.24544619 13.3346354,6.54882812 C13.009113,5.85221006 12.5479631,5.31836123 11.9511719,4.94726562 C11.3543807,4.57617002 10.6653685,4.390625 9.88411458,4.390625 Z M9.86134853,6.4 C10.456983,6.4 10.9178838,6.63038318 11.2440646,7.09115646 C11.5702454,7.55192974 11.7333333,8.22856697 11.7333333,9.12108844 L11.7333333,9.12108844 L11.7333333,9.53469388 L11.7285205,9.79602823 C11.6996432,10.5607651 11.5408182,11.1521068 11.2520418,11.570068 C10.9311791,12.0344694 10.4711648,12.2666667 9.87198481,12.2666667 C9.27989574,12.2666667 8.81988135,12.0253992 8.49192783,11.5428571 C8.1639743,11.060315 8,10.390934 8,9.53469388 L8,9.53469388 L8,9.07210884 L8.00830544,8.79620287 C8.04629815,8.07935659 8.21104986,7.51373349 8.5025641,7.09931973 C8.83051763,6.63310424 9.28344124,6.4 9.86134853,6.4 Z"></path>
                    </g>
                </g>
            </g>
        </g>
    </g>
</svg>