<?xml version="1.0" encoding="UTF-8"?>
<svg width="24px" height="24px" viewBox="0 0 24 24" version="1.1" xmlns="http://www.w3.org/2000/svg" xmlns:xlink="http://www.w3.org/1999/xlink">
    <!-- Generator: Sketch 59.1 (86144) - https://sketch.com -->
    <title>ic-file</title>
    <desc>Created with Sketch.</desc>
    <g id="Icon-Set" stroke="none" stroke-width="1" fill="none" fill-rule="evenodd">
        <g id="WhaTap_Icon_Set" transform="translate(-356.000000, -2551.000000)" fill="#757575">
            <g id="application-icons" transform="translate(40.000000, 2346.000000)">
                <g id="ic-file" transform="translate(316.000000, 205.000000)">
                    <g transform="translate(4.000000, 2.000000)" id="ic-report">
                        <path d="M14,18 L2,18 L2,2 L10,2 L10,6 L14,6 L14,18 Z M11,-1.13686838e-13 L2,-1.13686838e-13 C1.26466667,-1.13686838e-13 0.598,-1.13686838e-13 0,-1.13686838e-13 L0,20 C0.598,20 1.26466667,20 2,20 L16,20 C16,19.402 16,18.7353333 16,18 L16,5 L11,-1.13686838e-13 Z"></path>
                    </g>
                </g>
            </g>
        </g>
    </g>
</svg>