<?xml version="1.0" encoding="UTF-8"?>
<svg width="24px" height="24px" viewBox="0 0 24 24" version="1.1" xmlns="http://www.w3.org/2000/svg" xmlns:xlink="http://www.w3.org/1999/xlink">
    <!-- Generator: Sketch 59.1 (86144) - https://sketch.com -->
    <title>ic-language</title>
    <desc>Created with Sketch.</desc>
    <g id="Icon-Set" stroke="none" stroke-width="1" fill="none" fill-rule="evenodd">
        <g id="WhaTap_Icon_Set" transform="translate(-548.000000, -2551.000000)" fill="#757575">
            <g id="application-icons" transform="translate(40.000000, 2346.000000)">
                <g id="ic-language" transform="translate(508.000000, 205.000000)">
                    <g transform="translate(2.000000, 2.000000)" id="Icon">
                        <path d="M10,-5.32907052e-15 C4.48,-5.32907052e-15 -5.32907052e-15,4.48 -5.32907052e-15,10 C-5.32907052e-15,15.52 4.48,20 10,20 C15.52,20 20,15.52 20,10 C20,4.48 15.52,-5.32907052e-15 10,-5.32907052e-15 L10,-5.32907052e-15 Z M9,17.93 C5.05,17.44 2,14.08 2,10 C2,9.38 2.08,8.79 2.21,8.21 L7,13 L7,14 C7,15.1 7.9,16 9,16 L9,17.93 L9,17.93 Z M15.9,15.39 C15.64,14.58 14.9,14 14,14 L13,14 L13,11 C13,10.45 12.55,10 12,10 L6,10 L6,8 L8,8 C8.55,8 9,7.55 9,7 L9,5 L11,5 C12.1,5 13,4.1 13,3 L13,2.59 C15.93,3.78 18,6.65 18,10 C18,12.08 17.2,13.97 15.9,15.39 L15.9,15.39 Z"></path>
                    </g>
                </g>
            </g>
        </g>
    </g>
</svg>