<?xml version="1.0" encoding="UTF-8"?>
<svg width="24px" height="24px" viewBox="0 0 24 24" version="1.1" xmlns="http://www.w3.org/2000/svg" xmlns:xlink="http://www.w3.org/1999/xlink">
    <!-- Generator: Sketch 59.1 (86144) - https://sketch.com -->
    <title>ic-massage-filled</title>
    <desc>Created with Sketch.</desc>
    <g id="Icon-Set" stroke="none" stroke-width="1" fill="none" fill-rule="evenodd">
        <g id="WhaTap_Icon_Set" transform="translate(-68.000000, -3191.000000)">
            <g id="application-icons" transform="translate(40.000000, 2346.000000)">
                <g id="ic-massage" transform="translate(28.000000, 845.000000)">
                    <g transform="translate(2.000000, 2.000000)">
                        <path d="M10,-5.32907052e-15 C15.522,-5.32907052e-15 20,4.477 20,10 C20,12.093 19.355,14.034 18.256,15.64 L18.256,15.64 L20,20 L15.64,18.256 C14.034,19.355 12.093,20 10,20 C4.478,20 -5.32907052e-15,15.523 -5.32907052e-15,10 C-5.32907052e-15,4.477 4.478,-5.32907052e-15 10,-5.32907052e-15 Z" fill="#FFC107"></path>
                        <circle id="Oval" fill="#FFFFFF" cx="10" cy="10" r="1.33333333"></circle>
                        <circle id="Oval-Copy" fill="#FFFFFF" cx="6" cy="10" r="1.33333333"></circle>
                        <circle id="Oval-Copy-2" fill="#FFFFFF" cx="14" cy="10" r="1.33333333"></circle>
                    </g>
                </g>
            </g>
        </g>
    </g>
</svg>