<?xml version="1.0" encoding="UTF-8"?>
<svg width="24px" height="24px" viewBox="0 0 24 24" version="1.1" xmlns="http://www.w3.org/2000/svg" xmlns:xlink="http://www.w3.org/1999/xlink">
    <!-- Generator: Sketch 59.1 (86144) - https://sketch.com -->
    <title>ic-massage</title>
    <desc>Created with Sketch.</desc>
    <g id="Icon-Set" stroke="none" stroke-width="1" fill="none" fill-rule="evenodd">
        <g id="WhaTap_Icon_Set" transform="translate(-356.000000, -2631.000000)" fill="#757575">
            <g id="application-icons" transform="translate(40.000000, 2346.000000)">
                <g id="ic-massage" transform="translate(316.000000, 285.000000)">
                    <g transform="translate(2.000000, 2.000000)">
                        <path d="M10,-5.32907052e-15 C4.478,-5.32907052e-15 -5.32907052e-15,4.477 -5.32907052e-15,10 C-5.32907052e-15,15.523 4.478,20 10,20 C12.093,20 14.034,19.355 15.64,18.256 L20,20 L18.256,15.64 C19.355,14.034 20,12.093 20,10 C20,4.477 15.522,-5.32907052e-15 10,-5.32907052e-15 Z M10,2 C14.418278,2 18,5.581722 18,10 C18,11.8440791 17.376057,13.5424286 16.3277654,14.895454 L17.0510326,16.9585549 L14.9816859,16.2600083 C13.6149195,17.349116 11.8834708,18 10,18 C5.581722,18 2,14.418278 2,10 C2,5.581722 5.581722,2 10,2 Z M10,11.3333333 C10.7363797,11.3333333 11.3333333,10.7363797 11.3333333,10 C11.3333333,9.26362033 10.7363797,8.66666667 10,8.66666667 C9.26362033,8.66666667 8.66666667,9.26362033 8.66666667,10 C8.66666667,10.7363797 9.26362033,11.3333333 10,11.3333333 Z M6,11.3333333 C6.73637967,11.3333333 7.33333333,10.7363797 7.33333333,10 C7.33333333,9.26362033 6.73637967,8.66666667 6,8.66666667 C5.26362033,8.66666667 4.66666667,9.26362033 4.66666667,10 C4.66666667,10.7363797 5.26362033,11.3333333 6,11.3333333 Z M14,11.3333333 C14.7363797,11.3333333 15.3333333,10.7363797 15.3333333,10 C15.3333333,9.26362033 14.7363797,8.66666667 14,8.66666667 C13.2636203,8.66666667 12.6666667,9.26362033 12.6666667,10 C12.6666667,10.7363797 13.2636203,11.3333333 14,11.3333333 Z"></path>
                    </g>
                </g>
            </g>
        </g>
    </g>
</svg>