<?xml version="1.0" encoding="UTF-8"?>
<svg width="24px" height="24px" viewBox="0 0 24 24" version="1.1" xmlns="http://www.w3.org/2000/svg" xmlns:xlink="http://www.w3.org/1999/xlink">
    <!-- Generator: Sketch 59.1 (86144) - https://sketch.com -->
    <title>ic-phone</title>
    <desc>Created with Sketch.</desc>
    <g id="Icon-Set" stroke="none" stroke-width="1" fill="none" fill-rule="evenodd">
        <g id="WhaTap_Icon_Set" transform="translate(-932.000000, -2631.000000)" fill="#757575">
            <g id="application-icons" transform="translate(40.000000, 2346.000000)">
                <g id="ic-phone" transform="translate(892.000000, 285.000000)">
                    <g transform="translate(3.000000, 3.000000)" id="path-1_1_">
                        <path d="M14.46,2 C14.4,2.89 14.25,3.76 14.01,4.59 L15.21,5.79 C15.62,4.59 15.88,3.32 15.97,2 L14.46,2 L14.46,2 Z M4.6,14.02 C3.75,14.26 2.88,14.41 2,14.47 L2,15.96 C3.32,15.87 4.59,15.61 5.8,15.21 L4.6,14.02 Z M13.5,0 L17,0 C17.55,0 18,0.45 18,1 C18,10.39 10.39,18 1,18 C0.45,18 0,17.55 0,17 L0,13.51 C0,12.96 0.45,12.51 1,12.51 C2.24,12.51 3.45,12.31 4.57,11.94 C4.67,11.9 4.78,11.89 4.88,11.89 C5.14,11.89 5.39,11.99 5.59,12.18 L7.79,14.38 C10.62,12.93 12.94,10.62 14.38,7.79 L12.18,5.59 C11.9,5.31 11.82,4.92 11.93,4.57 C12.3,3.45 12.5,2.25 12.5,1 C12.5,0.45 12.95,0 13.5,0 Z"></path>
                    </g>
                </g>
            </g>
        </g>
    </g>
</svg>