<?xml version="1.0" encoding="UTF-8"?>
<svg width="24px" height="24px" viewBox="0 0 24 24" version="1.1" xmlns="http://www.w3.org/2000/svg" xmlns:xlink="http://www.w3.org/1999/xlink">
    <!-- Generator: Sketch 59.1 (86144) - https://sketch.com -->
    <title>ic-question-circle</title>
    <desc>Created with Sketch.</desc>
    <g id="Icon-Set" stroke="none" stroke-width="1" fill="none" fill-rule="evenodd">
        <g id="WhaTap_Icon_Set" transform="translate(-164.000000, -782.000000)" fill="#757575">
            <g id="suggested-icons" transform="translate(40.000000, 737.000000)">
                <g id="ic-question-circle" transform="translate(124.000000, 45.000000)">
                    <g transform="translate(2.000000, 2.000000)">
                        <path d="M10,0 C15.5228475,0 20,4.4771525 20,10 C20,15.5228475 15.5228475,20 10,20 C4.4771525,20 0,15.5228475 0,10 C0,4.4771525 4.4771525,0 10,0 Z M10,2 C5.581722,2 2,5.581722 2,10 C2,14.418278 5.581722,18 10,18 C14.418278,18 18,14.418278 18,10 C18,5.581722 14.418278,2 10,2 Z M11,14 L11,16 L9,16 L9,14 L11,14 Z M10,4 C12.21,4 14,5.79 14,8 C14,10.5 11,10.75 11,13 L11,13 L9,13 C9,9.75 12,10 12,8 C12,6.9 11.1,6 10,6 C8.9,6 8,6.9 8,8 L8,8 L6,8 C6,5.79 7.79,4 10,4 Z"></path>
                    </g>
                </g>
            </g>
        </g>
    </g>
</svg>