<?xml version="1.0" encoding="UTF-8"?>
<svg width="24px" height="24px" viewBox="0 0 24 24" version="1.1" xmlns="http://www.w3.org/2000/svg" xmlns:xlink="http://www.w3.org/1999/xlink">
    <!-- Generator: Sketch 59.1 (86144) - https://sketch.com -->
    <title>ic-redhat</title>
    <desc>Created with Sketch.</desc>
    <g id="Icon-Set" stroke="none" stroke-width="1" fill="none" fill-rule="evenodd">
        <g id="WhaTap_Icon_Set" transform="translate(-932.000000, -1933.000000)" fill="#757575">
            <g id="product-and-logos" transform="translate(40.000000, 1888.000000)">
                <g id="ic-redhat" transform="translate(892.000000, 45.000000)">
                    <g transform="translate(1.000000, 2.000000)" id="Combined-Shape">
                        <path d="M11.0157968,2.7000624e-13 C17.1002229,2.7000624e-13 22.0316255,4.93137071 22.0316255,11.0157968 C22.0367411,13.1468902 21.4190329,15.2265079 20.2659775,17.0075666 C19.8284342,16.9046153 19.3857433,16.8531396 18.9327573,16.847992 C18.1554744,16.847992 17.44511,16.9818288 16.920058,17.2031742 C16.8582871,17.2340596 16.8222542,17.2958305 16.8222542,17.3627489 C16.8222542,17.3884867 16.8274017,17.4142245 16.8376969,17.4348148 C16.8994677,17.6149797 16.7965163,17.8105873 16.2920546,17.9186863 C15.5405096,18.0834085 15.0669333,18.8555437 14.7941121,19.1129222 C14.4749629,19.4166287 13.5792859,19.6019412 13.7131227,19.4217763 C13.8212217,19.2827919 14.222732,18.840101 14.4698153,18.3665247 C14.6911608,17.9444241 14.8867684,17.8208825 15.1544419,17.4193721 C15.2316555,17.300978 15.5405096,16.884025 15.6280182,16.5545806 C15.7309696,16.2302838 15.6949366,15.8287734 15.7361172,15.6589037 C15.7927404,15.4169679 16.0192335,14.8970635 16.0346762,14.6036521 C16.0449713,14.4389299 15.3397544,14.8404402 15.0051624,14.8404402 C14.6705705,14.8404402 14.3462737,14.6396851 14.0477147,14.6242424 C13.6770897,14.6087997 13.4403016,14.9073586 13.1057096,14.855883 C12.9152496,14.8249975 12.755675,14.6551278 12.421083,14.6448326 C11.9475067,14.6293899 11.3658314,14.9073586 10.2745469,14.8713257 C9.20385264,14.8352927 8.2103719,13.5175151 8.07653512,13.3064648 C7.91696049,13.0593815 7.72135289,13.0593815 7.51545014,13.2549891 C7.30439983,13.4505967 7.04187383,13.2961697 6.96980787,13.1674805 C6.83082352,12.9203972 6.44990344,12.1997376 5.86822819,12.0504581 C5.06520749,11.8394078 4.65340201,12.493149 4.70487769,13.018201 C4.76150095,13.5484005 5.10124047,13.6925325 5.2608151,13.9756487 C5.42038973,14.258765 5.50275082,14.4389299 5.79616223,14.5624715 C6.00721255,14.6499802 6.08442607,14.7786694 6.02265525,14.9536868 C5.966032,15.1029662 5.74983412,15.1389992 5.60055463,15.1441468 C5.29170051,15.1595895 5.0806502,15.0772284 4.92107557,14.974277 C4.74091067,14.8610305 4.59163118,14.6963083 4.43205656,14.4234872 C4.24674409,14.1197806 3.95848025,13.9859439 3.61874072,13.9859439 C3.45916609,13.9859439 3.30473904,14.0271244 3.17090225,14.0991904 C2.59952214,14.3926018 1.97151877,14.5418813 1.3280727,14.5367337 L0.576527682,14.5367337 C0.195607606,13.4042686 2.84217094e-14,12.2151803 2.84217094e-14,11.0157968 C2.84217094e-14,4.93137071 4.93137071,2.7000624e-13 11.0157968,2.7000624e-13 Z M13.4197113,15.988348 C13.4248589,15.988348 13.435154,15.9934956 13.4403016,15.9986432 C13.4969248,16.0552664 13.5947286,16.2405789 13.4763346,16.4773671 C13.4094162,16.6009087 13.3219075,16.7090076 13.208661,16.7913687 C13.0542339,16.9149104 12.7505274,17.0590423 12.3335743,16.7965163 C12.1122289,16.6523844 12.0967862,16.6060563 11.7879321,16.6472368 C11.5665866,16.6781222 11.479078,16.4567768 11.5614391,16.2663167 C11.6386526,16.0810043 11.9629494,15.9317248 12.3696073,16.1685129 C12.5497722,16.2766119 12.8328885,16.5031049 13.0851194,16.3023497 C13.1880707,16.2199886 13.2498416,16.1633654 13.3939735,15.9986432 C13.399121,15.9934956 13.4094162,15.988348 13.4197113,15.988348 Z M11.9166213,2.38847183 C11.5511439,2.48112806 10.8356319,2.85690057 9.50755919,2.55319402 C7.2117436,2.03843716 6.87200407,3.18634496 6.73816729,3.68565911 C6.6043305,4.18497326 6.29032882,5.61084976 6.29032882,5.61084976 C6.18737745,6.19252501 6.04839309,7.19630089 9.61051056,7.87577994 C11.2731752,8.18978163 11.3555363,8.62217739 11.4276023,8.9310315 C11.5614391,9.48696891 11.7673418,9.8009706 12.0092775,9.96054522 C12.2460657,10.1201198 12.0092775,10.2488091 11.7467515,10.2745469 C11.0415346,10.3466129 8.42656978,9.60021542 6.87715164,8.71998119 C5.61084976,7.9478459 5.59025949,7.24777658 5.87852333,6.66095376 C3.96877538,6.45505101 2.53260375,6.84111866 2.27007775,7.74709073 C1.83253442,9.29650887 5.69321086,11.9526543 10.0892344,13.280727 C14.7014559,14.6808656 19.4475141,13.7028276 19.9725661,10.8047465 C20.2145019,9.48696891 19.102627,8.50893088 17.2340596,8.08683026 C17.1259607,8.45230763 16.9715336,8.92073637 16.2817595,9.2759186 C16.1788081,9.32739429 16.1427751,9.24503319 16.1891032,9.16267209 C16.4516292,8.71998119 16.4979573,8.60673468 16.5700233,8.43686492 C16.6781222,8.17948649 16.7295979,7.81915669 16.5185476,7.06246411 C16.1067421,5.56966922 15.2419506,3.57756017 14.6139472,2.9341141 C14.0065341,2.3112583 12.910102,2.13624097 11.9166213,2.38847183 Z M7.90666536,4.23130138 C8.02505943,4.38058087 8.28243786,4.62766416 8.61702982,4.61736903 C8.95162178,4.60707389 9.33768942,4.5401555 9.87303656,4.5401555 C10.4186788,4.5401555 10.7841562,4.74091067 10.8047465,4.915928 C10.8253367,5.06520749 10.7635659,5.20419185 10.1561528,5.25051996 C8.88470339,5.3431762 8.7508666,5.48216055 8.51407845,5.73439141 C8.17948649,6.08957364 7.73679559,5.27111024 7.73679559,5.27111024 C7.46912202,5.21448698 7.14997277,4.78723879 7.31984254,4.38572844 C7.4897123,3.98936566 7.80886155,4.10775974 7.90666536,4.23130138 Z M12.9409874,2.78483461 C13.6462043,2.80027731 14.2124369,3.08339359 14.2021417,3.41283798 C14.1918466,3.74228237 13.6153189,3.99966079 12.910102,3.98421809 C12.6990517,3.97907052 12.4880014,3.94818511 12.2820987,3.89156185 C12.2615084,3.88641429 12.2460657,3.86582401 12.2460657,3.84523374 C12.2460657,3.82464346 12.2615084,3.80405319 12.2820987,3.79890562 C12.7247896,3.69595425 13.018201,3.53123205 12.9976107,3.37165743 C12.9718728,3.16060711 12.3953452,3.04736061 11.7107185,3.11942657 C11.6386526,3.12457413 11.5665866,3.13486927 11.4945207,3.14516441 L11.4893731,3.14516441 C11.4687828,3.14516441 11.4533401,3.1297217 11.4533401,3.114279 C11.4533401,3.09883629 11.4636353,3.08854115 11.4739304,3.08339359 C11.7210137,2.95470437 12.0864911,2.851753 12.5085917,2.80542488 C12.6527236,2.78998218 12.7968555,2.78483461 12.9409874,2.78483461 Z"></path>
                    </g>
                </g>
            </g>
        </g>
    </g>
</svg>