<?xml version="1.0" encoding="UTF-8"?>
<svg width="24px" height="24px" viewBox="0 0 24 24" version="1.1" xmlns="http://www.w3.org/2000/svg" xmlns:xlink="http://www.w3.org/1999/xlink">
    <!-- Generator: Sketch 59.1 (86144) - https://sketch.com -->
    <title>ic-report</title>
    <desc>Created with Sketch.</desc>
    <g id="Icon-Set" stroke="none" stroke-width="1" fill="none" fill-rule="evenodd">
        <g id="WhaTap_Icon_Set" transform="translate(-740.000000, -1704.000000)" fill="#757575">
            <g id="data-icons" transform="translate(40.000000, 1579.000000)">
                <g id="ic-report" transform="translate(700.000000, 125.000000)">
                    <g transform="translate(4.000000, 2.000000)">
                        <path d="M11,-1.13686838e-13 L16,5 L16,20 L0,20 L0,-1.13686838e-13 L0,-1.13686838e-13 L11,-1.13686838e-13 Z M11,2 L2,2 L2,18 L14,18 L14,5 L11,5 L11,2 Z M12,13 L12,15 L4,15 L4,13 L12,13 Z M12,9 L12,11 L4,11 L4,9 L12,9 Z M9,5 L9,7 L4,7 L4,5 L9,5 Z"></path>
                    </g>
                </g>
            </g>
        </g>
    </g>
</svg>