<?xml version="1.0" encoding="UTF-8"?>
<svg width="24px" height="24px" viewBox="0 0 24 24" version="1.1" xmlns="http://www.w3.org/2000/svg" xmlns:xlink="http://www.w3.org/1999/xlink">
    <!-- Generator: Sketch 59.1 (86144) - https://sketch.com -->
    <title>ic-server</title>
    <desc>Created with Sketch.</desc>
    <g id="Icon-Set" stroke="none" stroke-width="1" fill="none" fill-rule="evenodd">
        <g id="WhaTap_Icon_Set" transform="translate(-356.000000, -1784.000000)" fill="#757575">
            <g id="data-icons" transform="translate(40.000000, 1579.000000)">
                <g id="ic-server" transform="translate(316.000000, 205.000000)">
                    <path d="M12,1 C16.8017079,1 20.8356683,2.96896311 20.995106,5.82409779 L21,6 L21,18 C21,20.949851 16.899702,23 12,23 C7.10029803,23 3,20.949851 3,18 L3,6 C3,3.05014902 7.10029803,1 12,1 Z M12,19 C9.2001703,19 6.66137046,18.3305636 4.99951075,17.2063514 L5,18 C5,19.468427 8.06314597,21 12,21 C15.936854,21 19,19.468427 19,18 L19.0014863,17.2056769 C17.339645,18.3302958 14.8003897,19 12,19 Z M12,15 C9.2001703,15 6.66137046,14.3305636 4.99951075,13.2063514 L5,14 C5,15.468427 8.06314597,17 12,17 C15.936854,17 19,15.468427 19,14 L19.0014863,13.2056769 C17.339645,14.3302958 14.8003897,15 12,15 Z M12,11 C9.2001703,11 6.66137046,10.3305636 4.99951075,9.20635143 L5,10 C5,11.468427 8.06314597,13 12,13 C15.936854,13 19,11.468427 19,10 L19.0014863,9.20567685 C17.339645,10.3302958 14.8003897,11 12,11 Z M12,3 C8.06314597,3 5,4.53157299 5,6 C5,7.46842701 8.06314597,9 12,9 C15.936854,9 19,7.46842701 19,6 C19,4.53157299 15.936854,3 12,3 Z"></path>
                </g>
            </g>
        </g>
    </g>
</svg>