<?xml version="1.0" encoding="UTF-8"?>
<svg width="24px" height="24px" viewBox="0 0 24 24" version="1.1" xmlns="http://www.w3.org/2000/svg" xmlns:xlink="http://www.w3.org/1999/xlink">
    <!-- Generator: Sketch 59.1 (86144) - https://sketch.com -->
    <title>ic-setting</title>
    <desc>Created with Sketch.</desc>
    <g id="Icon-Set" stroke="none" stroke-width="1" fill="none" fill-rule="evenodd">
        <g id="WhaTap_Icon_Set" transform="translate(-68.000000, -2791.000000)" fill="#757575">
            <g id="application-icons" transform="translate(40.000000, 2346.000000)">
                <g id="ic-setting" transform="translate(27.500000, 445.000000)">
                    <g transform="translate(2.500000, 1.500000)" id="Combined-Shape">
                        <path d="M10.8414827,0 C12.3931364,0 13.6547509,1.24956621 13.6867113,2.80224836 C14.0091477,2.96338881 14.3209329,3.14486339 14.6202714,3.34544081 C15.9733723,2.59656032 17.6795397,3.07120755 18.4553446,4.42333939 L19.4039612,6.07666061 C20.1799883,7.42917966 19.7349311,9.1539228 18.4136327,9.95794979 C18.4248025,10.1378694 18.4304155,10.3186191 18.4304155,10.5 C18.4304155,10.6813867 18.4248022,10.8621422 18.4136317,11.0420675 C19.7350776,11.846645 20.1798606,13.571043 19.4039612,14.9233394 L18.4553446,16.5766606 C17.6794348,17.9289753 15.9729108,18.4035681 14.6202595,17.6545672 C14.3209185,17.8551456 14.0091306,18.0366208 13.6866914,18.1977616 C13.6542243,19.7509553 12.3928125,21 10.8414827,21 L8.94424953,21 C7.39289756,21 6.13147191,19.7509196 6.09903949,18.1977609 C5.77659665,18.0366182 5.4648052,17.8551406 5.16546082,17.6545592 C3.81235989,18.4034397 2.1061925,17.9287924 1.3303876,16.5766606 L0.381771004,14.9233394 C-0.394256065,13.5708203 0.0508011256,11.8460772 1.37209951,11.0420502 C1.36092973,10.8621306 1.35531672,10.6813809 1.35531672,10.5 C1.35531672,10.3186133 1.36093009,10.1378578 1.37210058,9.9579325 C0.0506546456,9.15335502 -0.394128331,7.42895704 0.381771004,6.07666061 L1.3303876,4.42333939 C2.10629744,3.07102467 3.81282145,2.59643194 5.16547273,3.34543282 C5.4648139,3.14485432 5.77660183,2.9633791 6.09904088,2.80223839 C6.13150798,1.24904465 7.39291974,0 8.94424953,0 L10.8414827,0 Z M10.8489795,1.75 L8.91661233,1.75 C8.38300387,1.75 7.95042875,2.18527872 7.95042875,2.72222222 L7.95038399,3.97628434 C6.92183056,4.28431786 5.99582035,4.83193224 5.23626662,5.55481476 L4.15506331,4.92717283 C3.69294483,4.65870107 3.10203623,4.81802414 2.835232,5.28303086 L1.86904843,6.96696914 C1.6022442,7.43197586 1.76057768,8.02657764 2.22269616,8.2950494 L3.30207899,8.92272488 C3.18269891,9.42893952 3.11951088,9.95704446 3.11951088,10.5 C3.11951088,11.0429555 3.18269891,11.5710605 3.30207899,12.0772751 L2.22269616,12.7049506 C1.76057768,12.9734224 1.6022442,13.5680241 1.86904843,14.0330309 L2.835232,15.7169691 C3.10203623,16.1819759 3.69294483,16.3412989 4.15506331,16.0728272 L5.23626662,15.4451852 C5.99582035,16.1680678 6.92183056,16.7156821 7.95038399,17.0237157 L7.95042875,18.2777778 C7.95042875,18.8147213 8.38300387,19.25 8.91661233,19.25 L10.8489795,19.25 C11.3825879,19.25 11.8151631,18.8147213 11.8151631,18.2777778 L11.8158164,17.0235334 C12.8441265,16.7154661 13.7699213,16.1679252 14.5293252,15.4451852 L15.6105285,16.0728272 C16.072647,16.3412989 16.6635556,16.1819759 16.9303598,15.7169691 L17.8965434,14.0330309 C18.1633476,13.5680241 18.0050141,12.9734224 17.5428956,12.7049506 L16.4635128,12.0772751 C16.5828929,11.5710605 16.6460809,11.0429555 16.6460809,10.5 C16.6460809,9.95704446 16.5828929,9.42893952 16.4635128,8.92272488 L17.5428956,8.2950494 C18.0050141,8.02657764 18.1633476,7.43197586 17.8965434,6.96696914 L16.9303598,5.28303086 C16.6635556,4.81802414 16.072647,4.65870107 15.6105285,4.92717283 L14.5293252,5.55481476 C13.7699213,4.83207481 12.8441265,4.28453388 11.8158164,3.97646663 L11.8151631,2.72222222 C11.8151631,2.18527872 11.3825879,1.75 10.8489795,1.75 Z M9.93802583,7 C11.8590163,7 13.4162867,8.56700338 13.4162867,10.5 C13.4162867,12.4329966 11.8590163,14 9.93802583,14 C8.0170354,14 6.45976496,12.4329966 6.45976496,10.5 C6.45976496,8.56700338 8.0170354,7 9.93802583,7 Z M9.93802583,8.75 C8.97753062,8.75 8.1988954,9.53350169 8.1988954,10.5 C8.1988954,11.4664983 8.97753062,12.25 9.93802583,12.25 C10.898521,12.25 11.6771563,11.4664983 11.6771563,10.5 C11.6771563,9.53350169 10.898521,8.75 9.93802583,8.75 Z"></path>
                    </g>
                </g>
            </g>
        </g>
    </g>
</svg>