<?xml version="1.0" encoding="UTF-8"?>
<svg width="24px" height="24px" viewBox="0 0 24 24" version="1.1" xmlns="http://www.w3.org/2000/svg" xmlns:xlink="http://www.w3.org/1999/xlink">
    <!-- Generator: Sketch 59.1 (86144) - https://sketch.com -->
    <title>ic-share</title>
    <desc>Created with Sketch.</desc>
    <g id="Icon-Set" stroke="none" stroke-width="1" fill="none" fill-rule="evenodd">
        <g id="WhaTap_Icon_Set" transform="translate(-260.000000, -2951.000000)" fill="#757575">
            <g id="application-icons" transform="translate(40.000000, 2346.000000)">
                <g id="ic-share" transform="translate(219.500000, 605.000000)">
                    <g transform="translate(3.000000, 2.000000)" id="Combined-Shape">
                        <path d="M4,0 C6.209139,0 8,1.790861 8,4 C8,4.44789341 7.9263852,4.87859316 7.79059474,5.28066011 L11.8021255,7.59678367 C12.5320375,6.62705589 13.6927904,6 15,6 C17.209139,6 19,7.790861 19,10 C19,12.209139 17.209139,14 15,14 C13.9192665,14 12.9386381,13.5713991 12.2188182,12.8749009 L7.94604475,15.3414335 C7.98153594,15.5556852 8,15.7756863 8,16 C8,18.209139 6.209139,20 4,20 C1.790861,20 0,18.209139 0,16 C0,13.790861 1.790861,12 4,12 C5.26495522,12 6.39276884,12.587173 7.12575239,13.5038306 L11.1730263,11.1673693 C11.0605176,10.7980651 11,10.4060999 11,10 C11,9.81839401 11.0121025,9.63961472 11.0355451,9.46442466 L6.69330979,6.95741418 C5.9825281,7.6050948 5.03738157,8 4,8 C1.790861,8 0,6.209139 0,4 C0,1.790861 1.790861,0 4,0 Z M4,14 C2.8954305,14 2,14.8954305 2,16 C2,17.1045695 2.8954305,18 4,18 C5.1045695,18 6,17.1045695 6,16 C6,14.8954305 5.1045695,14 4,14 Z M15,8 C13.8954305,8 13,8.8954305 13,10 C13,11.1045695 13.8954305,12 15,12 C16.1045695,12 17,11.1045695 17,10 C17,8.8954305 16.1045695,8 15,8 Z M4,2 C2.8954305,2 2,2.8954305 2,4 C2,5.1045695 2.8954305,6 4,6 C5.1045695,6 6,5.1045695 6,4 C6,2.8954305 5.1045695,2 4,2 Z"></path>
                    </g>
                </g>
            </g>
        </g>
    </g>
</svg>