<?xml version="1.0" encoding="UTF-8"?>
<svg width="24px" height="24px" viewBox="0 0 24 24" version="1.1" xmlns="http://www.w3.org/2000/svg" xmlns:xlink="http://www.w3.org/1999/xlink">
    <!-- Generator: Sketch 59.1 (86144) - https://sketch.com -->
    <title>ic-ubuntu</title>
    <desc>Created with Sketch.</desc>
    <g id="Icon-Set" stroke="none" stroke-width="1" fill="none" fill-rule="evenodd">
        <g id="WhaTap_Icon_Set" transform="translate(-836.000000, -1933.000000)" fill="#757575">
            <g id="product-and-logos" transform="translate(40.000000, 1888.000000)">
                <g id="ic-ubuntu" transform="translate(796.000000, 45.000000)">
                    <g transform="translate(1.000000, 1.000000)" id="Combined-Shape">
                        <path d="M18.0784172,17.719583 C19.3004215,17.719583 20.2910518,18.6777869 20.2910518,19.8597913 C20.2910518,21.0417956 19.3004215,21.9999995 18.0784172,21.9999995 C16.8564129,21.9999995 15.8657827,21.0417956 15.8657827,19.8597913 C15.8657827,18.6777869 16.8564129,17.719583 18.0784172,17.719583 Z M21.9997575,11.7509726 C21.8280625,13.7661556 20.9649798,15.6448194 19.5215776,17.1268269 C18.5961706,16.6701209 17.4580849,16.6614418 16.4914516,17.2014198 C15.5236059,17.741867 14.962202,18.7014891 14.9093354,19.7066177 C14.2225554,19.8614333 13.5122521,19.942125 12.7893385,19.942125 C11.4055931,19.942125 10.068409,19.6498519 8.85296355,19.0957998 L8.85296355,19.0957998 L10.7510665,15.9159813 C11.3813424,16.1618097 12.069335,16.2973906 12.789581,16.2973906 C15.5454315,16.2973906 17.8317883,14.317393 18.2093718,11.7509726 L18.2093718,11.7509726 Z M7.51165687,3.65974665 L9.40903229,6.83886144 C8.13465757,7.80927374 7.31474112,9.31450355 7.31474112,11.001759 C7.31474112,12.6883107 8.13417255,14.1935405 9.40830477,15.1639528 L9.40830477,15.1639528 L7.51068685,18.3433021 C7.06592886,18.04235 6.64542158,17.7024594 6.25353013,17.3233958 C5.15545806,16.261267 4.36803757,14.9788778 3.93467741,13.5792041 C4.80770291,13.0324235 5.38583979,12.0826533 5.38583979,11.001759 C5.38583979,9.92063006 4.80770291,8.97109441 3.93467741,8.42407931 C4.36803757,7.02440559 5.15545806,5.74201641 6.25353013,4.6798876 C6.64566408,4.30082396 7.06665638,3.96046422 7.51165687,3.65974665 L7.51165687,3.65974665 Z M2.21263452,8.86155051 C3.43463883,8.86155051 4.42526904,9.81975437 4.42526904,11.0017587 C4.42526904,12.1837631 3.43463883,13.141967 2.21263452,13.141967 C0.990630219,13.141967 1.66089364e-13,12.1837631 1.66089364e-13,11.0017587 C1.66089364e-13,9.81975437 0.990630219,8.86155051 2.21263452,8.86155051 Z M12.789581,2.06139292 C13.5120096,2.06139292 14.2213428,2.14161555 14.9078804,2.29643114 C14.961717,3.30038682 15.5228783,4.25836695 16.4899966,4.79857955 C17.4563873,5.33808845 18.593988,5.32940939 19.5191525,4.87364166 C20.9637672,6.35541456 21.82782,8.23431292 22,10.2501996 L22,10.2501996 L18.2091293,10.2501996 C17.8305757,7.68471756 15.544704,5.70589277 12.789581,5.70589277 C12.06982,5.70589277 11.3820699,5.8414737 10.751794,6.08683296 L10.751794,6.08683296 L8.85393358,2.90724903 C10.0696216,2.35343143 11.4063206,2.06139292 12.789581,2.06139292 Z M18.0764782,-7.90478794e-14 C19.2984825,-7.90478794e-14 20.2891127,0.958203861 20.2891127,2.14020822 C20.2891127,3.32221259 19.2984825,4.28041645 18.0764782,4.28041645 C16.8544739,4.28041645 15.8638436,3.32221259 15.8638436,2.14020822 C15.8638436,0.958203861 16.8544739,-7.90478794e-14 18.0764782,-7.90478794e-14 Z"></path>
                    </g>
                </g>
            </g>
        </g>
    </g>
</svg>