<?xml version="1.0" encoding="UTF-8"?>
<svg width="24px" height="24px" viewBox="0 0 24 24" version="1.1" xmlns="http://www.w3.org/2000/svg" xmlns:xlink="http://www.w3.org/1999/xlink">
    <!-- Generator: Sketch 59.1 (86144) - https://sketch.com -->
    <title>ic-won</title>
    <desc>Created with Sketch.</desc>
    <g id="Icon-Set" stroke="none" stroke-width="1" fill="none" fill-rule="evenodd">
        <g id="WhaTap_Icon_Set" transform="translate(-356.000000, -2791.000000)" fill="#757575">
            <g id="application-icons" transform="translate(40.000000, 2346.000000)">
                <g id="ic-won" transform="translate(316.000000, 445.000000)">
                    <g transform="translate(2.000000, 2.000000)" id="Combined-Shape">
                        <path d="M10,0 C15.52,0 20,4.48 20,10 C20,15.52 15.52,20 10,20 C4.48,20 0,15.52 0,10 C0,4.48 4.48,0 10,0 Z M10,2 C5.59,2 2,5.59 2,10 C2,14.41 5.59,18 10,18 C14.41,18 18,14.41 18,10 C18,5.59 14.41,2 10,2 Z M6.958,6 L7.398,8 L8.669,8 L9.109,6 L11.092,6 L11.531,8 L12.803,8 L13.243,6 L15.107,6 L14.667,8 L16,8 L16,9.5 L14.337,9.5 L13.127,15 L11.209,15 L10.101,9.964 L8.993,15 L7.074,15 L5.865,9.5 L4,9.5 L4,8 L5.535,8 L5.095,6 L6.958,6 Z M8.34,9.5 L7.728,9.5 L8.034,10.89 L8.34,9.5 Z M12.473,9.5 L11.861,9.5 L12.168,10.89 L12.473,9.5 Z"></path>
                    </g>
                </g>
            </g>
        </g>
    </g>
</svg>