<?xml version="1.0" encoding="UTF-8"?>
<svg width="24px" height="24px" viewBox="0 0 24 24" version="1.1" xmlns="http://www.w3.org/2000/svg" xmlns:xlink="http://www.w3.org/1999/xlink">
    <!-- Generator: Sketch 59.1 (86144) - https://sketch.com -->
    <title>ic-whatap</title>
    <desc>Created with Sketch.</desc>
    <g id="Icon-Set" stroke="none" stroke-width="1" fill="none" fill-rule="evenodd">
        <g id="WhaTap_Icon_Set" transform="translate(-548.000000, -2093.000000)" fill="#757575">
            <g id="product-and-logos" transform="translate(40.000000, 1888.000000)">
                <g id="ic-whatap" transform="translate(508.000000, 204.500000)">
                    <g transform="translate(0.000000, 3.000000)" id="Combined-Shape">
                        <path d="M13.7142564,-2.48689958e-14 L13.7142564,19.3168838 L10.9714165,19.3168838 L10.9714165,-2.48689958e-14 L13.7142564,-2.48689958e-14 Z M8.22857664,6.66097916 L8.22857664,19.3168838 L5.48573675,19.3168838 L5.48573675,6.66097916 L8.22857664,6.66097916 Z M2.74289687,13.3220137 L2.74289687,19.3168838 L-1.98729921e-13,19.3168838 L-1.98729921e-13,13.3220137 L2.74289687,13.3220137 Z M24,1.66056751e-05 L24,2.6643972 L19.1999875,2.6643972 L19.1999875,19.3169005 L16.4571476,19.3169005 L16.4571476,1.66056751e-05 L24,1.66056751e-05 Z"></path>
                    </g>
                </g>
            </g>
        </g>
    </g>
</svg>