<?xml version="1.0" encoding="UTF-8"?>
<svg width="24px" height="24px" viewBox="0 0 24 24" version="1.1" xmlns="http://www.w3.org/2000/svg" xmlns:xlink="http://www.w3.org/1999/xlink">
    <!-- Generator: Sketch 59.1 (86144) - https://sketch.com -->
    <title>ic-zoom-in</title>
    <desc>Created with Sketch.</desc>
    <g id="Icon-Set" stroke="none" stroke-width="1" fill="none" fill-rule="evenodd">
        <g id="WhaTap_Icon_Set" transform="translate(-452.000000, -1475.000000)" fill="#757575">
            <g id="editor-icons" transform="translate(40.000000, 1350.000000)">
                <g id="ic-zoom-in" transform="translate(411.000000, 124.000000)">
                    <g id="Combined-Shape">
                        <path d="M14.4142136,1.41421356 C18.8324916,1.41421356 22.4142136,4.99593556 22.4142136,9.41421356 C22.4142136,13.4935021 19.3610178,16.8596786 15.4151686,17.3522007 L15.4142136,26.4142136 L13.4142136,26.4142136 L13.4142623,17.3523259 C9.46792712,16.8602494 6.41421356,13.493848 6.41421356,9.41421356 C6.41421356,4.99593556 9.99593556,1.41421356 14.4142136,1.41421356 Z M14.4142136,3.41421356 C11.1005051,3.41421356 8.41421356,6.10050506 8.41421356,9.41421356 C8.41421356,12.7128597 11.0761397,15.3897798 14.3690657,15.4140473 L14.4592136,15.4132136 L14.6391518,15.4100751 C17.8486387,15.2917853 20.4142136,12.6526105 20.4142136,9.41421356 C20.4142136,6.10050506 17.7279221,3.41421356 14.4142136,3.41421356 Z M15.8284271,6.58578644 L17.2426407,8 L15.8282136,9.41421356 L17.2426407,10.8284271 L15.8284271,12.2426407 L14.4142136,10.8282136 L13,12.2426407 L11.5857864,10.8284271 L13.0002136,9.41421356 L11.5857864,8 L13,6.58578644 L14.4142136,8.00021356 L15.8284271,6.58578644 Z" transform="translate(14.414214, 13.914214) rotate(-45.000000) translate(-14.414214, -13.914214) "></path>
                    </g>
                </g>
            </g>
        </g>
    </g>
</svg>