<?xml version="1.0" encoding="utf-8"?>
<!-- Generator: Adobe Illustrator 25.1.0, SVG Export Plug-In . SVG Version: 6.00 Build 0)  -->
<svg version="1.1" id="레이어_1" xmlns="http://www.w3.org/2000/svg" xmlns:xlink="http://www.w3.org/1999/xlink" x="0px"
	 y="0px" viewBox="0 0 42 42" style="enable-background:new 0 0 42 42;" xml:space="preserve">
<style type="text/css">
	.st0{fill:#FFFFFF;stroke:#EAEAEA;}
	.st1{clip-path:url(#SVGID_2_);fill:#00B0E2;}
</style>
<desc>Created with Sketch.</desc>
<g id="Icon-Set">
	<g id="ic_nodejs" transform="translate(1.000000, 1.000000)">
		<circle id="Oval" class="st0" cx="20" cy="20" r="20"/>
		<g>
			<defs>
				<path id="SVGID_1_" d="M16,15.8L11.8,20l4.2,4.2l1.4-1.4L14.6,20l2.8-2.8L16,15.8z M24,15.8l-1.4,1.4l2.8,2.8l-2.8,2.8l1.4,1.4
					l4.2-4.2L24,15.8z M20.8,15l-3.4,9.4l1.9,0.7l3.4-9.4L20.8,15z M28,10c1.1,0,2,0.9,2,2v16c0,1.1-0.9,2-2,2H12c-1.1,0-2-0.9-2-2
					V12c0-1.1,0.9-2,2-2H28z"/>
			</defs>
			<use xlink:href="#SVGID_1_"  style="overflow:visible;fill-rule:evenodd;clip-rule:evenodd;fill:#00B0E2;"/>
			<clipPath id="SVGID_2_">
				<use xlink:href="#SVGID_1_"  style="overflow:visible;"/>
			</clipPath>
			<rect x="5" y="5" class="st1" width="30" height="30"/>
		</g>
	</g>
</g>
</svg>
