<?xml version="1.0" encoding="utf-8"?>
<!-- Generator: Adobe Illustrator 25.1.0, SVG Export Plug-In . SVG Version: 6.00 Build 0)  -->
<svg version="1.1" id="레이어_1" xmlns="http://www.w3.org/2000/svg" xmlns:xlink="http://www.w3.org/1999/xlink" x="0px"
	 y="0px" viewBox="0 0 42 42" style="enable-background:new 0 0 42 42;" xml:space="preserve">
<style type="text/css">
	.st0{fill:#FFFFFF;stroke:#EAEAEA;}
	.st1{fill:#296CF2;}
	.st2{fill:#FFFFFF;}
	.st3{fill:none;stroke:#296CF2;stroke-width:0.7636;stroke-linecap:round;stroke-linejoin:round;stroke-miterlimit:10;}
</style>
<desc>Created with Sketch.</desc>
<circle id="Oval" class="st0" cx="21" cy="21" r="20"/>
<g>
	<g>
		<rect x="11.7" y="27.6" class="st1" width="18.5" height="3.9"/>
		<path class="st1" d="M29.9,28v3.2H12.1V28H29.9 M30.7,27.3h-0.8H12.1h-0.7V28v3.2V32h0.7h17.8h0.8v-0.8V28L30.7,27.3L30.7,27.3z"
			/>
	</g>
	<g>
		<g>
			<path class="st2" d="M11.7,27.3v-0.4c0-4.2,3-5.1,4.8-5.7l0.3-0.1c1.5-0.5,1.5-1.2,1.5-2.1c0-0.2-0.2-0.5-0.4-0.8
				c-0.6-0.9-1.4-2.2-1.4-4.8c0-3.7,2.4-5.1,4.5-5.1s4.5,1.3,4.5,5.1c0,2.6-0.8,3.9-1.4,4.8c-0.2,0.4-0.4,0.6-0.4,0.8
				c0,0.9,0,1.6,1.5,2.1l0.3,0.1c1.8,0.6,4.8,1.5,4.8,5.7v0.4C30.3,27.3,11.7,27.3,11.7,27.3z"/>
			<path class="st1" d="M21,8.7c1.6,0,4.1,0.9,4.1,4.7s-1.8,4.7-1.8,5.6c0,1,0,1.9,1.8,2.5s4.8,1.2,4.8,5.4H21h-8.9
				c0-4.2,3.1-4.9,4.8-5.4c1.8-0.6,1.8-1.5,1.8-2.5s-1.8-1.8-1.8-5.6C16.9,9.6,19.4,8.7,21,8.7 M21,7.9c-2.2,0-4.8,1.4-4.8,5.5
				c0,2.8,0.9,4.2,1.5,5c0.1,0.2,0.3,0.5,0.3,0.6c0,0.9,0,1.4-1.2,1.8l-0.3,0.1c-1.8,0.5-5.1,1.6-5.1,6.1v0.8h0.8H21h8.9h0.8V27
				c0-4.5-3.3-5.5-5.1-6.1l-0.3-0.1C24,20.4,24,19.9,24,19c0-0.1,0.2-0.4,0.3-0.6c0.5-0.8,1.5-2.2,1.5-5C25.8,9.3,23.2,7.9,21,7.9
				L21,7.9z"/>
		</g>
		<path class="st1" d="M16.5,13.5c0,0,4.1,0.1,5.7-2.7l2.9,2.6c0,0,0.4-5.1-3.9-5.1S16.5,13.5,16.5,13.5z"/>
		<path class="st1" d="M17.8,20.6l3.2,6.3l-9.1,0.2c0,0-0.1-4.3,2.6-5.3S17.8,20.6,17.8,20.6z"/>
		<path class="st1" d="M24.2,20.7L21,27l9.1,0.2c0,0,0.1-4.3-2.6-5.3S24.2,20.7,24.2,20.7z"/>
	</g>
	<g>
		<path class="st2" d="M13.3,31.6v-9c0-0.9,0.8-1.7,1.7-1.7h12c0.9,0,1.7,0.8,1.7,1.7v9H13.3z"/>
		<path class="st1" d="M27,21.3c0.7,0,1.3,0.6,1.3,1.3v8.6H13.7v-8.6c0-0.7,0.6-1.3,1.3-1.3H27 M27,20.5H15c-1.1,0-2.1,0.9-2.1,2.1
			v8.6V32h0.8h14.6h0.8v-0.8v-8.6C29.1,21.5,28.1,20.5,27,20.5L27,20.5z"/>
	</g>
	<g>
		<polyline class="st3" points="19,24.6 17.4,26.3 19,28 		"/>
		<polyline class="st3" points="23,24.6 24.6,26.3 23,28 		"/>
		<line class="st3" x1="20.2" y1="28" x2="21.9" y2="24.5"/>
	</g>
</g>
</svg>
