<?xml version="1.0" encoding="utf-8"?>
<!-- Generator: Adobe Illustrator 25.1.0, SVG Export Plug-In . SVG Version: 6.00 Build 0)  -->
<svg version="1.1" id="레이어_1" xmlns="http://www.w3.org/2000/svg" xmlns:xlink="http://www.w3.org/1999/xlink" x="0px"
	 y="0px" viewBox="0 0 42 42" style="enable-background:new 0 0 42 42;" xml:space="preserve">
<style type="text/css">
	.st0{fill:#FFFFFF;stroke:#EAEAEA;}
	.st1{clip-path:url(#SVGID_2_);fill:#AA83FF;}
</style>
<desc>Created with Sketch.</desc>
<g id="Icon-Set">
	<g id="ic_nodejs" transform="translate(1.000000, 1.000000)">
		<circle id="Oval" class="st0" cx="20" cy="20" r="20"/>
		<g>
			<defs>
				<path id="SVGID_1_" d="M20,9c4.9,0,8.8,2.1,9,4.8l0,0.2l0,0.6c-0.5,2.2-4.3,4.3-9,4.3c-4.7,0-8.5-2.1-9-4.3l0-0.6l0-0.2
					C11.2,11.1,15.1,9,20,9z M11,17.3c1.8,1.9,5.2,3.2,9,3.2c3.8,0,7.2-1.3,9-3.2l0,1.2c-0.5,2.2-4.3,4.3-9,4.3
					c-4.7,0-8.5-2.1-9-4.3L11,17.3z M11,21.3c1.8,1.9,5.2,3.2,9,3.2c3.8,0,7.2-1.3,9-3.2l0,1.2c-0.5,2.2-4.3,4.3-9,4.3
					c-4.7,0-8.5-2.1-9-4.3L11,21.3z M11,25.3c1.8,1.9,5.2,3.2,9,3.2c3.8,0,7.2-1.3,9-3.2l0,0.7c0,2.8-4,5-9,5c-4.9,0-8.8-2.1-9-4.8
					l0-0.2L11,25.3z"/>
			</defs>
			<use xlink:href="#SVGID_1_"  style="overflow:visible;fill-rule:evenodd;clip-rule:evenodd;fill:#AA83FF;"/>
			<clipPath id="SVGID_2_">
				<use xlink:href="#SVGID_1_"  style="overflow:visible;"/>
			</clipPath>
			<rect x="6" y="4" class="st1" width="28" height="32"/>
		</g>
	</g>
</g>
</svg>
