<?xml version="1.0" encoding="utf-8"?>
<!-- Generator: Adobe Illustrator 25.1.0, SVG Export Plug-In . SVG Version: 6.00 Build 0)  -->
<svg version="1.1" id="레이어_1" xmlns="http://www.w3.org/2000/svg" xmlns:xlink="http://www.w3.org/1999/xlink" x="0px"
	 y="0px" viewBox="0 0 42 42" style="enable-background:new 0 0 42 42;" xml:space="preserve">
<style type="text/css">
	.st0{fill:#FFFFFF;stroke:#EAEAEA;}
	.st1{fill:#DDDDDD;}
	.st2{fill:#FFFFFF;}
	.st3{fill:none;stroke:#0199FF;stroke-miterlimit:10;}
	.st4{fill:#EA5C5C;}
	.st5{fill:#FFB42E;}
	.st6{fill:none;stroke:#DDDDDD;stroke-width:2;stroke-miterlimit:10;}
</style>
<desc>Created with Sketch.</desc>
<circle id="Oval" class="st0" cx="21" cy="21" r="20"/>
<path class="st1" d="M31.6,29.4H10.4c-0.9,0-1.6-0.7-1.6-1.6v-14c0-0.9,0.7-1.6,1.6-1.6h21.2c0.9,0,1.6,0.7,1.6,1.6v14
	C33.2,28.7,32.5,29.4,31.6,29.4z"/>
<path class="st2" d="M19.8,20.3h-8.9c-0.3,0-0.6-0.3-0.6-0.6v-5.4c0-0.3,0.3-0.6,0.6-0.6h8.9c0.3,0,0.6,0.3,0.6,0.6v5.4
	C20.4,20.1,20.2,20.3,19.8,20.3z"/>
<path class="st2" d="M30.8,28h-8.4c-0.5,0-0.9-0.4-0.9-0.9V14.7c0-0.5,0.4-0.9,0.9-0.9h8.4c0.5,0,0.9,0.4,0.9,0.9V27
	C31.8,27.6,31.4,28,30.8,28z"/>
<path class="st2" d="M19.8,28h-8.9c-0.3,0-0.6-0.3-0.6-0.6V22c0-0.3,0.3-0.6,0.6-0.6h8.9c0.3,0,0.6,0.3,0.6,0.6v5.4
	C20.4,27.7,20.2,28,19.8,28z"/>
<polyline class="st3" points="12.4,18.3 14.5,16.1 16.1,17.6 18.4,15.3 "/>
<polyline class="st3" points="12.4,26.1 14.5,24 16.1,25.5 18.4,23.2 "/>
<rect x="22.8" y="15.2" class="st4" width="0.7" height="2.1"/>
<rect x="22.8" y="18.3" class="st4" width="0.7" height="2.1"/>
<rect x="22.8" y="21.3" class="st5" width="0.7" height="2.1"/>
<rect x="22.8" y="24.4" class="st5" width="0.7" height="2.1"/>
<line class="st6" x1="24.6" y1="16.3" x2="30.5" y2="16.3"/>
<line class="st6" x1="24.6" y1="19.3" x2="30.5" y2="19.3"/>
<line class="st6" x1="24.6" y1="22.4" x2="30.5" y2="22.4"/>
<line class="st6" x1="24.6" y1="25.4" x2="30.5" y2="25.4"/>
</svg>
