<?xml version="1.0" encoding="UTF-8"?>
<svg width="42px" height="42px" viewBox="0 0 42 42" version="1.1" xmlns="http://www.w3.org/2000/svg" xmlns:xlink="http://www.w3.org/1999/xlink">
    <!-- Generator: Sketch 63 (92445) - https://sketch.com -->
    <title>ic_dotnet</title>
    <desc>Created with Sketch.</desc>
    <g id="Icon-Set" stroke="none" stroke-width="1" fill="none" fill-rule="evenodd">
        <g id="ic_dotnet" transform="translate(1.000000, 1.000000)">
            <circle id="Oval" stroke="#EAEAEA" fill="#FFFFFF" fill-rule="nonzero" cx="20" cy="20" r="20"></circle>
            <path d="M4.91337812,24.1389745 C5.1735473,24.1389745 5.39530502,24.2301749 5.57798112,24.4142872 C5.76128215,24.5984468 5.85199527,24.8171104 5.85199527,25.0697706 C5.85199527,25.3218169 5.76128215,25.5399139 5.57798112,25.7240735 C5.39530502,25.9076074 5.1735473,26 4.91337812,26 C4.65917023,26 4.44284408,25.9076074 4.26560075,25.7240735 C4.0883098,25.5399139 4,25.3218169 4,25.0697706 C4,24.8105826 4.0883098,24.5918599 4.26560075,24.4107105 C4.44284408,24.2289354 4.65917023,24.1389745 4.91337812,24.1389745 Z M9.6958271,14.000425 L15.6586072,23.2654885 C15.8959871,23.6331348 16.0581844,23.8965133 16.1405329,24.0550338 L16.1736961,24.0550338 C16.1184162,23.7153638 16.0896216,23.1361483 16.0896216,22.3185795 L16.0896216,14.000425 L17.4770953,14.000425 L17.4770953,25.8105521 L15.7835941,25.8105521 L9.63693803,16.3971315 C9.49329714,16.1706888 9.36951129,15.9245683 9.26437587,15.6558306 L9.21385141,15.6558306 C9.25322335,15.8826723 9.27530553,16.3436278 9.27932825,17.0378365 L9.27999923,25.8105521 L7.88406929,25.8105521 L7.88406929,14.000425 L9.6958271,14.000425 Z M26.1519246,14.000425 L26.1519246,15.2518152 L21.5087443,15.2518152 L21.5087443,19.1805602 L25.811234,19.1805602 L25.811234,20.4325761 L21.5087443,20.4325761 L21.5087443,24.5585835 L26.4259435,24.5585835 L26.4259435,25.8105521 L20.1140095,25.8105521 L20.1140095,14.000425 L26.1519246,14.000425 Z M36,14 L36,15.2519568 L32.5694665,15.2519568 L32.5694665,25.810741 L31.1741603,25.810741 L31.1741603,15.2519568 L27.7369728,15.2519568 L27.7369728,14 L36,14 Z" id="Combined-Shape" fill="#682A7B"></path>
        </g>
    </g>
</svg>