<?xml version="1.0" encoding="utf-8"?>
<!-- Generator: Adobe Illustrator 25.1.0, SVG Export Plug-In . SVG Version: 6.00 Build 0)  -->
<svg version="1.1" id="레이어_1" xmlns="http://www.w3.org/2000/svg" xmlns:xlink="http://www.w3.org/1999/xlink" x="0px"
	 y="0px" viewBox="0 0 42 42" style="enable-background:new 0 0 42 42;" xml:space="preserve">
<style type="text/css">
	.st0{fill:#FFFFFF;stroke:#EAEAEA;}
	.st1{fill:#FFFFFF;}
	.st2{fill:#296CF2;}
	.st3{fill:#BCD1F1;}
	.st4{fill:none;stroke:#296CF2;stroke-width:0.8441;stroke-miterlimit:10;}
</style>
<desc>Created with Sketch.</desc>
<circle id="Oval" class="st0" cx="21" cy="21" r="20"/>
<g>
	<g>
		<g>
			<path class="st1" d="M9.7,31.5V31c0-5.1,3.6-6.3,5.8-6.9l0.4-0.1c1.9-0.6,1.9-1.5,1.9-2.6c0-0.3-0.2-0.6-0.5-1
				c-0.7-1-1.7-2.6-1.7-5.8c0-4.6,2.9-6.2,5.4-6.2s5.4,1.6,5.4,6.2c0,3.2-1,4.8-1.7,5.8c-0.3,0.4-0.5,0.8-0.5,1c0,1.1,0,2,1.9,2.6
				l0.4,0.1c2.2,0.7,5.8,1.8,5.8,6.9v0.4H9.7V31.5z"/>
			<path class="st2" d="M21,8.7c1.9,0,5,1.1,5,5.7c0,4.7-2.2,5.7-2.2,6.9s0,2.4,2.2,3.1s5.9,1.5,5.9,6.7H21H10.1
				c0-5.1,3.8-6,5.9-6.7c2.2-0.7,2.2-1.9,2.2-3.1S16,19.1,16,14.4C16,9.8,19.1,8.7,21,8.7 M21,7.8c-2.7,0-5.8,1.7-5.8,6.6
				c0,3.3,1.1,5.1,1.8,6.1c0.2,0.3,0.4,0.7,0.4,0.8c0,1.1,0,1.7-1.6,2.2l-0.4,0.1c-2.3,0.7-6.1,1.9-6.1,7.3v0.8h0.8H21h10.9h0.8V31
				c0-5.5-3.8-6.6-6.1-7.3l-0.4-0.1c-1.6-0.5-1.6-1.1-1.6-2.2c0-0.1,0.2-0.5,0.4-0.8c0.7-1,1.8-2.7,1.8-6.1
				C26.8,9.6,23.7,7.8,21,7.8L21,7.8z"/>
		</g>
		<path class="st2" d="M15.4,14.5c0,0,5,0.1,7-3.3l3.6,3.2c0,0,0.5-6.3-4.8-6.3S15.4,14.5,15.4,14.5z"/>
		<path class="st2" d="M17,23.3l4,7.8L9.8,31.3c0,0-0.1-5.2,3.2-6.5S17,23.3,17,23.3z"/>
		<path class="st2" d="M25,23.4l-4,7.7l11.2,0.3c0,0,0.1-5.2-3.2-6.5S25,23.4,25,23.4z"/>
	</g>
	<g>
		<path class="st1" d="M19.6,25.8c-0.1,0-0.2,0-0.3-0.1l-2-1.9c-0.2-0.2-0.2-0.4,0-0.6l0.5-0.7c0.1-0.1,0.2-0.2,0.3-0.2
			c0.1,0,0.1,0,0.2,0l2.4,1.2c0.1,0.1,0.2,0.2,0.2,0.3c0,0.1,0,0.2-0.1,0.3l-1,1.3C19.9,25.8,19.8,25.8,19.6,25.8
			C19.7,25.8,19.6,25.8,19.6,25.8z"/>
		<path class="st2" d="M18.2,22.9l2.4,1.2l-1,1.3l-2-1.9L18.2,22.9 M18.2,22c-0.2,0-0.5,0.1-0.7,0.3L17,23c-0.3,0.3-0.2,0.8,0.1,1.2
			l2,1.9c0.2,0.1,0.4,0.2,0.6,0.2c0,0,0,0,0.1,0c0.2,0,0.5-0.1,0.6-0.3l1-1.3c0.2-0.2,0.2-0.5,0.1-0.7s-0.2-0.4-0.4-0.6l-2.4-1.2
			C18.4,22.1,18.3,22,18.2,22L18.2,22z"/>
	</g>
	<g>
		<path class="st1" d="M22.3,25.8c-0.1,0-0.2-0.1-0.3-0.2l-1-1.3c0,0-0.1-0.2,0-0.3c0-0.1,0.1-0.2,0.2-0.3l2.4-1.2
			c0.1,0,0.1,0,0.2,0s0.2,0.1,0.3,0.2l0.5,0.7c0.1,0.2,0.1,0.4,0,0.6l-2,1.9C22.6,25.8,22.4,25.8,22.3,25.8L22.3,25.8z"/>
		<path class="st2" d="M23.8,22.9l0.5,0.7l-2,1.9l-1-1.3L23.8,22.9 M23.8,22c-0.1,0-0.3,0-0.4,0.1L21,23.4c-0.2,0.1-0.4,0.3-0.4,0.6
			c-0.1,0.2,0,0.5,0.1,0.7l1,1.3c0.1,0.2,0.4,0.3,0.6,0.3c0,0,0,0,0.1,0c0.2,0,0.4-0.1,0.6-0.2l2-1.9c0.3-0.3,0.4-0.8,0.1-1.2
			l-0.5-0.7C24.3,22.1,24,22,23.8,22L23.8,22z"/>
	</g>
	<g>
		<path class="st3" d="M14.8,19.4c-0.9,0-1.5-0.7-1.5-1.5V15c0-0.9,0.7-1.5,1.5-1.5h0.3c0.6,0,1.1,0.5,1.1,1.1v3.7
			c0,0.6-0.5,1.1-1.1,1.1C15.1,19.4,14.8,19.4,14.8,19.4z"/>
		<path class="st2" d="M15.1,13.9c0.4,0,0.7,0.3,0.7,0.7v3.7c0,0.4-0.3,0.7-0.7,0.7h-0.3c-0.6,0-1.1-0.5-1.1-1.1V15
			c0-0.6,0.5-1.1,1.1-1.1H15.1 M15.1,13.1h-0.3c-1.1,0-2,0.9-2,2v2.8c0,1.1,0.9,2,2,2h0.3c0.8,0,1.5-0.7,1.5-1.5v-3.7
			C16.6,13.7,15.9,13.1,15.1,13.1L15.1,13.1z"/>
	</g>
	<g>
		<path class="st3" d="M26.9,19.4c-0.6,0-1.1-0.5-1.1-1.1v-3.7c0-0.6,0.5-1.1,1.1-1.1h0.3c0.9,0,1.5,0.7,1.5,1.5v2.8
			c0,0.9-0.7,1.5-1.5,1.5h-0.3V19.4z"/>
		<path class="st2" d="M27.3,13.8c0.6,0,1.1,0.6,1.1,1.2v2.8c0,0.6-0.5,1.1-1.1,1.1H27c-0.4,0-0.7-0.3-0.7-0.7v-3.7
			c0-0.4,0.3-0.7,0.7-0.7H27.3 M27.3,13.1H27c-0.8,0-1.5,0.7-1.5,1.5v3.7c0,0.8,0.7,1.5,1.5,1.5h0.3c1.1,0,2-0.9,2-2V15
			C29.2,14,28.3,13.1,27.3,13.1L27.3,13.1z"/>
	</g>
	<path class="st4" d="M26.8,19.4L26.8,19.4c0,0.9-0.7,1.6-1.6,1.6H21"/>
	<path class="st2" d="M22.1,21.8h-1.6c-0.3,0-0.6-0.3-0.6-0.6v-0.3c0-0.3,0.3-0.6,0.6-0.6h1.6c0.3,0,0.6,0.3,0.6,0.6v0.3
		C22.7,21.5,22.4,21.8,22.1,21.8z"/>
</g>
</svg>
