<?xml version="1.0" encoding="utf-8"?>
<!-- Generator: Adobe Illustrator 25.1.0, SVG Export Plug-In . SVG Version: 6.00 Build 0)  -->
<svg version="1.1" id="레이어_1" xmlns="http://www.w3.org/2000/svg" xmlns:xlink="http://www.w3.org/1999/xlink" x="0px"
	 y="0px" viewBox="0 0 42 42" style="enable-background:new 0 0 42 42;" xml:space="preserve">
<style type="text/css">
	.st0{fill:#FFFFFF;stroke:#EAEAEA;}
	.st1{fill:none;stroke:#296CF2;stroke-width:0.75;stroke-linecap:round;stroke-miterlimit:10;}
	.st2{fill:#296CF2;}
	.st3{fill:#BCD1F1;stroke:#296CF2;stroke-width:0.75;stroke-linecap:round;stroke-miterlimit:10;}
	.st4{fill:#FFFFFF;stroke:#296CF2;stroke-width:0.75;stroke-linecap:round;stroke-miterlimit:10;}
</style>
<desc>Created with Sketch.</desc>
<circle id="Oval" class="st0" cx="21" cy="21" r="20"/>
<g>
	<g>
		<path class="st1" d="M28.5,17.2H11.1c-0.7,0-1.3-0.6-1.3-1.3v-3.9c0-0.7,0.6-1.3,1.3-1.3h17.5c0.7,0,1.3,0.6,1.3,1.3V16
			C29.8,16.7,29.2,17.2,28.5,17.2z"/>
		<circle class="st2" cx="12.5" cy="14" r="0.7"/>
		<circle class="st2" cx="15.4" cy="14" r="0.7"/>
		<line class="st1" x1="18.6" y1="14" x2="27" y2="14"/>
		<path class="st1" d="M28.5,23.7H11.1c-0.7,0-1.3-0.6-1.3-1.3v-3.9c0-0.7,0.6-1.3,1.3-1.3h17.5c0.7,0,1.3,0.6,1.3,1.3v3.9
			C29.8,23.2,29.2,23.7,28.5,23.7z"/>
		<circle class="st2" cx="12.5" cy="20.6" r="0.7"/>
		<circle class="st2" cx="15.4" cy="20.6" r="0.7"/>
		<line class="st1" x1="18.6" y1="20.6" x2="27" y2="20.6"/>
		<path class="st1" d="M28.5,30.3H11.1c-0.7,0-1.3-0.6-1.3-1.3v-3.9c0-0.7,0.6-1.3,1.3-1.3h17.5c0.7,0,1.3,0.6,1.3,1.3V29
			C29.8,29.7,29.2,30.3,28.5,30.3z"/>
		<circle class="st2" cx="12.5" cy="27.1" r="0.7"/>
		<circle class="st2" cx="15.4" cy="27.1" r="0.7"/>
		<line class="st1" x1="18.6" y1="27.1" x2="27" y2="27.1"/>
	</g>
	<path class="st3" d="M33.5,25.8h-0.7c-0.1-0.2-0.1-0.3-0.2-0.5l0.5-0.5c0.3-0.3,0.3-0.8,0-1.2l-0.6-0.6c-0.3-0.3-0.8-0.3-1.2,0
		l-0.5,0.5c-0.2-0.1-0.3-0.2-0.5-0.2v-0.7c0-0.5-0.4-0.8-0.8-0.8h-0.8c-0.5,0-0.8,0.4-0.8,0.8v0.7c-0.2,0.1-0.3,0.1-0.5,0.2
		l-0.5-0.5c-0.3-0.3-0.8-0.3-1.2,0l-0.6,0.6c-0.3,0.3-0.3,0.8,0,1.2l0.5,0.5c-0.1,0.2-0.2,0.3-0.2,0.5h-0.7c-0.5,0-0.8,0.4-0.8,0.8
		v0.8c0,0.5,0.4,0.8,0.8,0.8h0.7c0.1,0.2,0.1,0.3,0.2,0.5l-0.5,0.5c-0.3,0.3-0.3,0.8,0,1.2l0.6,0.6c0.3,0.3,0.8,0.3,1.2,0l0.5-0.5
		c0.2,0.1,0.3,0.2,0.5,0.2v0.7c0,0.5,0.4,0.8,0.8,0.8h0.8c0.5,0,0.8-0.4,0.8-0.8v-0.7c0.2-0.1,0.3-0.1,0.5-0.2l0.5,0.5
		c0.3,0.3,0.8,0.3,1.2,0l0.6-0.6c0.3-0.3,0.3-0.8,0-1.2l-0.5-0.5c0.1-0.2,0.2-0.3,0.2-0.5h0.7c0.5,0,0.8-0.4,0.8-0.8v-0.8
		C34.3,26.2,33.9,25.8,33.5,25.8z M29.1,28.5c-0.8,0-1.4-0.6-1.4-1.4s0.6-1.4,1.4-1.4s1.4,0.6,1.4,1.4S29.9,28.5,29.1,28.5z"/>
	<circle class="st4" cx="29.1" cy="27.1" r="1.4"/>
</g>
</svg>
