<?xml version="1.0" encoding="utf-8"?>
<!-- Generator: Adobe Illustrator 25.1.0, SVG Export Plug-In . SVG Version: 6.00 Build 0)  -->
<svg version="1.1" id="레이어_1" xmlns="http://www.w3.org/2000/svg" xmlns:xlink="http://www.w3.org/1999/xlink" x="0px"
	 y="0px" viewBox="0 0 42 42" style="enable-background:new 0 0 42 42;" xml:space="preserve">
<style type="text/css">
	.st0{fill:#FFFFFF;stroke:#EAEAEA;}
	.st1{fill:#FFFFFF;}
	.st2{fill:#296CF2;}
	.st3{fill:#FFFFFF;stroke:#296CF2;stroke-width:0.7736;stroke-linecap:round;stroke-miterlimit:10;}
	.st4{fill:none;stroke:#296CF2;stroke-width:0.9063;stroke-linecap:round;stroke-miterlimit:10;}
	.st5{fill:#FFFFFF;stroke:#296CF2;stroke-width:0.7636;stroke-miterlimit:10;}
</style>
<desc>Created with Sketch.</desc>
<circle id="Oval" class="st0" cx="21" cy="21" r="20"/>
<g>
	<g>
		<g>
			<path class="st1" d="M10.2,31.2v-4.7c0-4.2,3-5.1,4.8-5.7l0.3-0.1c1.5-0.5,1.5-1.2,1.5-2.1c0-0.2-0.2-0.5-0.4-0.8
				C15.8,16.9,15,15.6,15,13c0-3.7,2.4-5.1,4.5-5.1S24,9.2,24,13c0,2.6-0.8,3.9-1.4,4.8c-0.2,0.4-0.4,0.6-0.4,0.8
				c0,0.9,0,1.6,1.5,2.1l0.3,0.1c1.8,0.6,4.8,1.5,4.8,5.7v4.7H10.2z"/>
			<path class="st2" d="M19.5,8.3c1.6,0,4.1,0.9,4.1,4.7s-1.8,4.7-1.8,5.6c0,1,0,1.9,1.8,2.5s4.8,1.2,4.8,5.4v4.3H10.6v-4.3
				c0-4.2,3.1-4.9,4.8-5.4c1.8-0.6,1.8-1.5,1.8-2.5s-1.8-1.8-1.8-5.6C15.4,9.2,17.9,8.3,19.5,8.3 M19.5,7.5c-2.2,0-4.8,1.4-4.8,5.5
				c0,2.8,0.9,4.2,1.5,5c0.1,0.2,0.3,0.5,0.3,0.6c0,0.9,0,1.4-1.2,1.8L15,20.5c-1.9,0.5-5.2,1.5-5.2,6v4.3v0.8h0.8h17.8h0.8v-0.8
				v-4.3c0-4.5-3.3-5.5-5.1-6.1l-0.3-0.1c-1.2-0.4-1.2-0.9-1.2-1.8c0-0.1,0.2-0.4,0.3-0.6c0.5-0.8,1.5-2.2,1.5-5
				C24.3,8.9,21.7,7.5,19.5,7.5L19.5,7.5z"/>
		</g>
		<path class="st2" d="M14.9,13c0,0,4.1,0.1,5.7-2.7l3.2,2.6c0,0,0.1-5.1-4.2-5.1S14.9,13,14.9,13z"/>
		<path class="st2" d="M26,21.5c-2.7-1-3.3-1.2-3.3-1.2l-3.2,6.3l0,0l-3.2-6.3c0,0-0.6,0.2-3.3,1.2s-2.6,5.3-2.6,5.3l0.2,4.1
			l8.9,0.4h9.1v-4.4C28.6,26.8,28.7,22.5,26,21.5z"/>
	</g>
</g>
<circle class="st3" cx="29.1" cy="26.5" r="4.7"/>
<line class="st4" x1="29.1" y1="24.6" x2="29.1" y2="28.4"/>
<line class="st4" x1="31" y1="26.5" x2="27.2" y2="26.5"/>
<path class="st5" d="M16.9,19.1l2.6,1.1l-0.8,1.5c-0.2,0.4-0.7,0.5-0.9,0.2l-1.5-1.6L16.9,19.1z"/>
<path class="st5" d="M22.1,19.1l-2.6,1.1l0.8,1.5c0.2,0.4,0.7,0.5,0.9,0.2l1.5-1.6L22.1,19.1z"/>
</svg>
