<?xml version="1.0" encoding="UTF-8"?>
<svg width="42px" height="42px" viewBox="0 0 42 42" version="1.1" xmlns="http://www.w3.org/2000/svg" xmlns:xlink="http://www.w3.org/1999/xlink">
    <!-- Generator: Sketch 63 (92445) - https://sketch.com -->
    <title>ic_java</title>
    <desc>Created with Sketch.</desc>
    <g id="Icon-Set" stroke="none" stroke-width="1" fill="none" fill-rule="evenodd">
        <g id="ic_java" transform="translate(1.000000, 1.000000)" fill-rule="nonzero">
            <circle id="Oval" stroke="#EAEAEA" fill="#FFFFFF" cx="20" cy="20" r="20"></circle>
            <g id="Group-4" transform="translate(3.000000, 13.000000)">
                <path d="M20.9499042,11.5400705 L20.9499042,6.66888482 C20.9499042,5.42619375 20.2329513,4.581225 18.4405,4.581225 C17.41625,4.581225 16.5456071,4.82974286 15.7774058,5.12796696 L16.0335373,6.02267946 C16.5968279,5.82385714 17.313836,5.62500536 18.0820373,5.62500536 C19.0550114,5.62500536 19.5159432,6.02267946 19.5159432,6.81798214 L19.5159432,7.46416607 L19.0038182,7.46416607 C16.5456071,7.46416607 15.4189432,8.35887589 15.4189432,9.80032768 C15.4189432,10.9932884 16.1871169,11.6891679 17.5698295,11.6891679 C18.4405,11.6891679 19.1062873,11.2915071 19.7207987,10.7944634 L19.8232127,11.5400679 L20.9499042,11.5400679 L20.9499042,11.5400705 Z M19.5159432,9.94945714 C19.0038182,10.3968054 18.4405,10.6453661 17.9283198,10.6453661 C17.2625877,10.6453661 16.8529042,10.2477241 16.8529042,9.55183393 C16.8529042,8.85593036 17.2625877,8.35887857 18.9014042,8.35887857 L19.5159432,8.35887857 L19.5159432,9.94945982 L19.5159432,9.94945714 Z M25.7638571,11.5400705 L23.9713782,11.5400705 L21.8204919,4.73033036 L23.3568669,4.73033036 L24.6883588,8.90562857 L24.9956282,10.1482768 C25.6614156,8.35887857 26.1735406,6.51972054 26.3784237,4.73033036 L27.9147435,4.73033036 C27.5050325,6.96711429 26.7881347,9.40266964 25.7638571,11.5400705 L25.7638571,11.5400705 Z M34.0602711,11.5400705 L34.0602711,6.66888482 C34.0602711,5.42619375 33.3432906,4.581225 31.5507289,4.581225 C30.5265341,4.581225 29.6560016,4.82974286 28.8877727,5.12796696 L29.0926282,6.02267946 C29.7071672,5.82385714 30.4241201,5.62500536 31.192349,5.62500536 C32.1653782,5.62500536 32.6262825,6.02267946 32.6262825,6.81798214 L32.6262825,7.46416607 L32.1141851,7.46416607 C29.6560016,7.46416607 28.5293653,8.35887589 28.5293653,9.80032768 C28.5293653,10.9932884 29.2462906,11.6891679 30.6290032,11.6891679 C31.5508393,11.6891679 32.2165714,11.2915071 32.831138,10.7944634 L32.9335519,11.5400679 L34.0602711,11.5400679 L34.0602711,11.5400705 Z M32.6262825,9.94945714 C32.1141851,10.3968054 31.5507289,10.6453661 31.0386591,10.6453661 C30.3729545,10.6453661 29.9632987,10.2477241 29.9632987,9.55183393 C29.9632987,8.85593036 30.3729545,8.35887857 32.0117159,8.35887857 L32.6262825,8.35887857 L32.6262825,9.94945982 L32.6262825,9.94945714 Z M13.831375,12.6832929 C13.421664,13.2797545 12.807125,13.7271375 12.0389513,13.9756339 L11.3731088,13.1803339 C11.885289,12.8821098 12.397414,12.434783 12.6022695,12.0371223 C12.807125,11.6891813 12.8582906,11.1920946 12.8582906,10.0488884 L12.8582906,2.29475357 L14.3947208,2.29475357 L14.3947208,9.94946786 C14.3947208,11.4903482 14.2410584,12.0868152 13.831375,12.6833036 L13.831375,12.6832929 Z" id="Shape" fill="#4E7896"></path>
                <path d="M3.7068093,10.8770918 C3.7068093,10.8770918 3.19808977,11.1776425 4.06071395,11.2635122 C5.10027914,11.3923146 5.6532509,11.3708659 6.80342403,11.1561762 C6.80342403,11.1561762 7.11307644,11.349382 7.5333368,11.4996661 C4.94544161,12.5730575 1.67190853,11.4352451 3.7068093,10.8770918 L3.7068093,10.8770918 Z M3.37505342,9.48169003 C3.37505342,9.48169003 2.82208165,9.88957235 3.68470583,9.97543988 C4.81277549,10.0827935 5.69750314,10.1042423 7.22368439,9.80370042 C7.22368439,9.80370042 7.4227515,10.0183791 7.75450739,10.1257218 C4.63578919,11.027376 1.14106288,10.2115937 3.37505342,9.48169003 L3.37505342,9.48169003 Z M9.47975575,11.9290191 C9.47975575,11.9290191 9.85578652,12.2295764 9.05951804,12.4657061 C7.57756639,12.8950657 2.84416248,13.0238659 1.517071,12.4657061 C1.05255841,12.2725091 1.93730871,11.9934159 2.22485765,11.9504833 C2.51240659,11.8860865 2.66722147,11.8860865 2.66722147,11.8860865 C2.15852459,11.5425966 -0.716919546,12.5945151 1.20739594,12.8950635 C6.49372632,13.7323099 10.8511221,12.5301182 9.4797331,11.9290147 L9.47975575,11.9290191 Z M3.95012866,8.02187822 C3.95012866,8.02187822 1.53921976,8.58003806 3.08750448,8.77324606 C3.75106154,8.859107 5.05604955,8.83766045 6.27257838,8.75177093 C7.26791397,8.6659012 8.26324957,8.49416174 8.26324957,8.49416174 C8.26324957,8.49416174 7.90936757,8.64442608 7.66602556,8.79471899 C5.21088708,9.41726905 0.499631932,9.13819132 1.84887218,8.49416174 C2.99902265,7.95745723 3.95010601,8.02187162 3.95010601,8.02187162 L3.95012866,8.02186942 L3.95012866,8.02187822 Z M8.26327221,10.3618603 C10.7405368,9.11672499 9.59038634,7.91453556 8.79411787,8.06481968 C8.5950281,8.10775015 8.50656892,8.15068941 8.50656892,8.15068941 C8.50656892,8.15068941 8.57292463,8.02188041 8.72773951,7.97894775 C10.298173,7.44224544 11.5368279,9.5890195 8.21901998,10.4262659 C8.21901998,10.4262659 8.24121404,10.4047907 8.26327221,10.3618603 L8.26327221,10.3618603 Z M4.19344801,13.7537784 C6.58225344,13.9040625 10.2318173,13.6679065 10.3202765,12.5730575 C10.3202765,12.5730575 10.1433355,13.0024172 8.35173139,13.3244166 C6.31683061,13.6893794 3.79531378,13.6464423 2.31336212,13.4102863 C2.31336212,13.4102863 2.62301453,13.6679065 4.19342537,13.7537762 L4.19344801,13.7537784 Z" id="Shape" fill="#4E7896"></path>
                <path d="M6.75919444,0.93750008 C6.75919444,0.93750008 8.1305608,2.28996923 5.45420643,4.32941602 C3.30869771,5.98242923 4.96759037,6.92700947 5.45420643,8.0003965 C4.19344801,6.90555852 3.2865716,5.93949217 3.90589907,5.0378402 C4.81277549,3.70683519 7.31216621,3.0628144 6.75919444,0.93750008 L6.75919444,0.93750008 Z M6.05143044,7.09875992 C6.69283873,7.80720609 5.87444414,8.45124885 5.87444414,8.45124885 C5.87444414,8.45124885 7.51123333,7.63546662 6.75919444,6.6264698 C6.07351126,5.66043203 5.54266561,5.18814191 8.4180871,3.57804598 C8.4180871,3.57804598 3.8837956,4.67291253 6.05143044,7.09876651 L6.05143044,7.09875992 Z" id="Shape" fill="#F58219"></path>
            </g>
        </g>
    </g>
</svg>