<?xml version="1.0" encoding="utf-8"?>
<!-- Generator: Adobe Illustrator 25.1.0, SVG Export Plug-In . SVG Version: 6.00 Build 0)  -->
<svg version="1.1" id="레이어_1" xmlns="http://www.w3.org/2000/svg" xmlns:xlink="http://www.w3.org/1999/xlink" x="0px"
	 y="0px" viewBox="0 0 42 42" style="enable-background:new 0 0 42 42;" xml:space="preserve">
<style type="text/css">
	.st0{fill:#FFFFFF;stroke:#EAEAEA;}
	.st1{clip-path:url(#SVGID_2_);fill:#4485FF;}
</style>
<desc>Created with Sketch.</desc>
<g id="Icon-Set">
	<g id="ic_nodejs" transform="translate(1.000000, 1.000000)">
		<circle id="Oval" class="st0" cx="20" cy="20" r="20"/>
		<g>
			<defs>
				<path id="SVGID_1_" d="M14.5,15.7l3.6,2c0.3-0.2,0.6-0.4,0.9-0.5l0-4.1C17.2,13.3,15.6,14.3,14.5,15.7z M21,13.1l0,4.1
					c0.4,0.1,0.7,0.3,0.9,0.5l3.6-2.1C24.4,14.3,22.8,13.3,21,13.1z M26.5,17.4l-3.6,2.1c0,0.2,0.1,0.4,0.1,0.5c0,0.2,0,0.4,0,0.5
					l3.6,2.1c0.3-0.8,0.5-1.7,0.5-2.6S26.8,18.2,26.5,17.4z M13,20c0,0.9,0.2,1.8,0.5,2.6l3.6-2.1c0-0.2-0.1-0.4-0.1-0.5
					c0-0.2,0-0.4,0-0.5l-3.6-2.1C13.2,18.2,13,19.1,13,20z M21.9,22.3c-0.3,0.2-0.6,0.4-0.9,0.5l0,4.1c1.8-0.3,3.4-1.2,4.5-2.6
					L21.9,22.3z M18.1,22.3l-3.6,2c1.1,1.4,2.7,2.3,4.5,2.6l0-4.1C18.6,22.7,18.3,22.5,18.1,22.3z M21,8l0,3.1
					c2.6,0.3,4.8,1.6,6.2,3.6l2.6-1.5l1,1.7l-2.6,1.5c0.5,1.1,0.8,2.3,0.8,3.6s-0.3,2.5-0.8,3.6l2.6,1.5l-1,1.7l-2.6-1.5
					c-1.5,2-3.7,3.3-6.2,3.6l0,3.1h-2l0-3.1c-2.6-0.3-4.8-1.6-6.2-3.6l-2.6,1.5l-1-1.7l2.6-1.5C11.3,22.5,11,21.3,11,20
					s0.3-2.5,0.8-3.6l-2.6-1.5l1-1.7l2.6,1.5c1.5-2,3.7-3.3,6.2-3.6L19,8H21z"/>
			</defs>
			<use xlink:href="#SVGID_1_"  style="overflow:visible;fill-rule:evenodd;clip-rule:evenodd;fill:#4485FF;"/>
			<clipPath id="SVGID_2_">
				<use xlink:href="#SVGID_1_"  style="overflow:visible;"/>
			</clipPath>
			<rect x="4.1" y="3" class="st1" width="31.8" height="34"/>
		</g>
	</g>
</g>
</svg>
