<?xml version="1.0" encoding="UTF-8"?>
<svg width="42px" height="42px" viewBox="0 0 42 42" version="1.1" xmlns="http://www.w3.org/2000/svg" xmlns:xlink="http://www.w3.org/1999/xlink">
    <!-- Generator: Sketch 63 (92445) - https://sketch.com -->
    <title>is_mssql</title>
    <desc>Created with Sketch.</desc>
    <g id="Icon-Set" stroke="none" stroke-width="1" fill="none" fill-rule="evenodd">
        <g id="is_mssql" transform="translate(1.000000, 1.000000)">
            <circle id="Oval" stroke="#EAEAEA" fill="#FFFFFF" fill-rule="nonzero" cx="20" cy="20" r="20"></circle>
            <g id="Group-2" transform="translate(7.500000, 5.000000)">
                <path d="M16.5727776,13.5135876 L16.7131092,13.8456996 L16.5740446,13.8858458 C16.0121411,14.0482324 15.9669705,14.0637479 15.95121,14.0755872 L15.95121,14.0755872 L15.9476168,14.0867875 C15.9448868,14.1125332 15.9503899,14.1786194 15.9640008,14.25015 L15.9640008,14.25015 L16.0140182,14.5561726 C16.092204,15.0700198 16.1448332,15.6080046 16.1767932,16.2464736 L16.1767932,16.2464736 L16.182389,16.3815184 C16.2000763,16.9385869 16.1871156,18.1325913 16.1597388,18.511098 L16.1597388,18.511098 L16.1234955,18.9472243 C16.0094773,20.234438 15.8482104,21.3289786 15.6490044,22.171776 L15.6490044,22.171776 L15.5499827,22.5634755 C15.163365,24.0192561 14.5189209,25.6866977 13.6526808,27.4543152 L13.6526808,27.4543152 L13.5843896,27.5933474 C13.3376239,28.0933057 13.134718,28.4776234 13.1034516,28.4971836 L13.1034516,28.4971836 L13.0836713,28.5009735 C12.9950989,28.5098165 12.6347593,28.5085532 12.3586068,28.4971836 L12.3586068,28.4971836 L12.0353089,28.4808828 C10.4556525,28.3849025 7.93336536,28.0172668 6.58659,27.675594 L6.58659,27.675594 L6.28761798,27.5972856 C5.46770163,27.3735136 4.48857013,27.0376157 3.8793264,26.768916 L3.8793264,26.768916 L3.61298222,26.6469745 C2.38301641,26.0615155 1.34210088,25.2521556 0.8018028,24.4576164 L0.8018028,24.4576164 L0.696012898,24.2894115 C0.333854283,23.6687117 0.2551117,23.0060663 0.4697316,22.3505004 L0.4697316,22.3505004 L0.527222266,22.1967423 C0.679596281,21.8262985 0.95659035,21.3788815 1.295544,20.9542836 L1.295544,20.9542836 L1.42097658,20.8054361 C1.69773333,20.4897644 2.11524223,20.0811257 2.4107508,19.847604 L2.4107508,19.847604 L2.57365906,19.7166491 C2.8571827,19.4862939 3.1982962,19.1977586 3.5601072,18.8856216 L3.5601072,18.8856216 L3.94651342,18.5465079 C4.19811947,18.3213689 4.438368,18.0981068 4.6710912,17.8767396 L4.6710912,17.8767396 L6.0417672,17.514864 L10.941174,15.3525048 L16.5727776,13.5135876 Z M13.9335888,25.555728 L13.9293456,25.555728 L13.9022338,25.5631448 C13.8544156,25.5792108 13.7624654,25.618715 13.656924,25.6664184 L13.656924,25.6664184 L13.1546846,25.8927566 C12.486017,26.183152 11.820569,26.4283502 11.1497028,26.632644 L11.1497028,26.632644 L11.0168003,26.6730509 C10.3951403,26.8597248 9.73935832,27.0233774 8.4680004,27.3094344 L8.4680004,27.3094344 L7.8338256,27.454254 L7.9359684,27.4754904 L8.02825076,27.4956051 C8.58973489,27.6136588 10.2245652,27.8979012 11.222082,28.050138 L11.222082,28.050138 L11.3486661,28.0686462 C11.960102,28.157678 12.8359382,28.2803248 12.9035112,28.284228 L12.9035112,28.284228 L12.9082848,28.2845952 L12.9243806,28.2796648 C12.9457049,28.2659423 12.9680242,28.2213266 13.009836,28.1182332 L13.009836,28.1182332 L13.0485863,28.0233137 C13.3251507,27.3356423 13.9498117,25.5963143 13.9335888,25.555728 L13.9335888,25.555728 Z M9.3790236,24.2914992 L9.37362497,24.3008205 C9.34887846,24.3399884 9.24221355,24.4968787 9.119352,24.6831792 L9.119352,24.6831792 L8.80394042,25.1520907 C8.36913058,25.7813912 7.8814596,26.4215856 7.3911252,27.0073104 L7.3911252,27.0073104 L7.33154398,27.0781095 C7.23644787,27.1926206 7.1655012,27.2854236 7.1655012,27.2924616 C7.1655012,27.3078228 7.2798024,27.340524 7.3334136,27.340524 L7.3334136,27.340524 L7.34160165,27.3402256 L7.3485504,27.3393 L7.36400327,27.3351402 C7.43047,27.3169086 7.692406,27.2433135 7.991334,27.1562916 L7.991334,27.1562916 L8.25419628,27.0806254 C10.0225792,26.5708239 12.0827405,25.9619649 12.7800708,25.743102 L12.7800708,25.743102 L12.8980248,25.7057397 C13.3399627,25.5649496 13.8679603,25.3883749 13.8953184,25.3727604 L13.8953184,25.3727604 C13.8902372,25.3565661 13.8425599,25.3497247 13.7676348,25.3429356 L13.7676348,25.3429356 L13.5469988,25.3213601 C12.9216896,25.2521118 12.0228545,25.0927681 11.3796108,24.9300396 L11.3796108,24.9300396 L11.0429143,24.841946 C10.612206,24.7252163 10.2431064,24.6074054 9.8003448,24.4405824 L9.8003448,24.4405824 L9.70485418,24.4052659 C9.52072283,24.3373767 9.38260817,24.2878797 9.3790236,24.2914992 L9.3790236,24.2914992 Z M8.62983647,24.3128376 L8.61569053,24.3141432 C8.58230486,24.3207952 8.49445104,24.3459998 8.3956824,24.3766488 L8.3956824,24.3766488 L8.27242745,24.4150737 C7.59425089,24.6247691 6.5747964,24.91296 4.8200316,25.3897536 L4.8200316,25.3897536 L4.67152218,25.4302292 C4.0373245,25.6029936 3.53393837,25.7391196 3.5260392,25.7430408 L3.5260392,25.7430408 C3.5686983,25.8003235 3.94861036,26.0406119 4.258134,26.2070388 L4.258134,26.2070388 L4.43198443,26.2964974 C4.6764972,26.4186741 4.9673196,26.5500893 5.249982,26.6624688 L5.249982,26.6624688 L5.32907305,26.6933996 C5.6954055,26.8336797 6.6238812,27.1595274 6.7653756,27.198846 L6.7653756,27.198846 L6.8292276,27.21588 L6.9526884,26.9987628 L7.01578114,26.8944943 C7.08619748,26.7779723 7.1739927,26.6326797 7.2378396,26.5305216 L7.2378396,26.5305216 L7.27858589,26.4662653 C7.38964524,26.2907317 7.60662315,25.9457581 7.804062,25.636614 L7.804062,25.636614 L7.90658397,25.4744475 C8.37076014,24.739755 8.63373699,24.3167979 8.62983647,24.3128376 L8.62983647,24.3128376 Z M5.982138,21.8610024 L5.228766,22.76766 L5.04175737,22.9935398 C4.07606746,24.1616562 3.60891,24.7555032 3.2323404,25.3003608 L3.2323404,25.3003608 L3.1089204,25.4791056 L3.185502,25.5344712 C3.2281176,25.5642756 3.2664696,25.5897756 3.2707128,25.5897756 L3.2707128,25.5897756 C3.35516755,25.5621718 3.88089137,25.3811958 4.5093396,25.1598864 L4.5093396,25.1598864 L4.64873062,25.1115206 C5.90309024,24.6755286 8.31593804,23.8183091 8.34456,23.7978396 L8.34456,23.7978396 C8.31813917,23.7705846 8.228297,23.7126628 8.114754,23.6487768 L8.114754,23.6487768 L7.83657749,23.4795768 C7.20084388,23.076728 6.6547209,22.6138797 6.1183284,22.0142268 L6.1183284,22.0142268 L5.982138,21.8610024 Z M5.4373356,21.6524124 L5.42395903,21.6551775 C5.37495906,21.6660404 5.19769389,21.7077139 4.9860468,21.7588596 L4.9860468,21.7588596 L4.89935769,21.7796788 C4.60302986,21.8505627 3.994719,21.993835 3.4621872,22.1163696 L3.4621872,22.1163696 L3.28434576,22.1576737 C2.27500624,22.3923179 1.2578686,22.6324545 1.1975832,22.6485036 L1.1975832,22.6485036 L1.17988913,22.6623818 C1.1563701,22.6981328 1.1628726,22.797478 1.2018876,22.967784 L1.2018876,22.967784 L1.25289194,23.1580782 C1.37278756,23.5430894 1.59896777,23.9522501 1.9127664,24.3426012 L1.9127664,24.3426012 L1.99973291,24.4472721 C2.1957756,24.6739351 2.511078,24.9908287 2.70447,25.1514 L2.70447,25.1514 L2.896026,25.3131516 L3.0748728,25.036446 L3.16054451,24.9054162 C3.2563206,24.7613494 3.3760278,24.5873502 3.462228,24.4660212 L3.462228,24.4660212 L3.50730593,24.4024877 C3.6447201,24.2086153 3.91293427,23.8289859 4.1475252,23.4997752 L4.1475252,23.4997752 L4.27174413,23.3258099 C4.96361429,22.3556982 5.4453698,21.6604273 5.4373356,21.6524124 L5.4373356,21.6524124 Z M15.1467972,21.320382 L15.1281475,21.3251648 C15.100989,21.3347321 15.0499023,21.3586575 14.9892684,21.396984 L14.9892684,21.396984 L14.881936,21.4596247 C14.108544,21.9011794 12.1983454,22.8121786 10.3537968,23.6189112 L10.3537968,23.6189112 L10.248753,23.6648233 C9.97679397,23.7844955 9.77582627,23.8794759 9.7833516,23.88711 L9.7833516,23.88711 L9.80595998,23.9001708 C9.90190456,23.9500458 10.2676499,24.1131873 10.5325416,24.2191404 L10.5325416,24.2191404 L10.9929703,24.3951017 C11.9229144,24.73419 12.9096108,24.9968729 13.993218,25.1939544 C14.0187588,25.2024204 14.0442996,25.2066636 14.0485428,25.2066636 L14.0485428,25.2066636 C14.0728609,25.1464012 14.1535461,24.9026107 14.2443216,24.6149616 L14.2443216,24.6149616 L14.3273637,24.3529476 C14.5106637,23.7725331 14.6247765,23.3949319 14.7551172,22.9293504 L14.7551172,22.9293504 L14.7939242,22.7901131 C14.9638078,22.1738795 15.1507184,21.4112888 15.1467972,21.320382 L15.1467972,21.320382 Z M10.941174,19.8518268 L10.9285251,19.8562434 C10.8906868,19.8706367 10.77301,19.9185484 10.634664,19.9753284 L10.634664,19.9753284 L10.1948854,20.1594145 C9.16599437,20.5792889 8.1115257,20.9335801 6.8972616,21.2650368 L6.8972616,21.2650368 L6.5099676,21.3714636 L6.5866104,21.4650996 L6.77112717,21.685615 C7.28922292,22.274666 8.01062333,22.8674387 8.812842,23.3593416 C8.966046,23.4529776 9.0937704,23.5296612 9.0979728,23.5296612 L9.0979728,23.5296612 L9.10537836,23.5194168 C9.13568794,23.472386 9.25394865,23.2688982 9.3917328,23.023068 L9.3917328,23.023068 L9.61843577,22.6167469 C10.1327144,21.681345 10.5447995,20.8334901 10.8687948,20.047626 L10.8687948,20.047626 L10.8930959,19.9884474 C10.9235027,19.9131378 10.9446502,19.8552866 10.941174,19.8518268 L10.941174,19.8518268 Z M11.6179848,19.630446 L11.6116449,19.6455006 C11.6022564,19.6714513 11.5839117,19.7273001 11.5583148,19.787934 L11.5583148,19.787934 L11.4581055,20.0817919 C11.1667716,20.8976885 10.6904149,21.9545999 10.2174432,22.839978 L10.2174432,22.839978 L10.1769695,22.9159979 C10.0992602,23.0625849 10.0429212,23.1725825 10.0429212,23.176272 C10.0429212,23.1768024 10.0436964,23.1770676 10.0451448,23.1770676 L10.0451448,23.1770676 L10.0644606,23.173246 C10.0829233,23.1682911 10.111166,23.1588028 10.1408412,23.1464676 L10.1408412,23.1464676 L10.1699734,23.1348585 C10.2601678,23.0996521 10.4989785,23.0102058 10.7411316,22.9208844 L10.7411316,22.9208844 L11.0002079,22.8235974 C12.8102522,22.1405085 14.529725,21.4209753 15.0700932,21.120258 L15.0700932,21.120258 L15.2063448,21.0437376 L15.1083636,21.0224196 L14.7417985,20.9301559 C13.7497722,20.6620362 12.6575371,20.2231068 11.8478112,19.7539068 L11.8478112,19.7539068 L11.7769233,19.7128816 C11.6874427,19.6618065 11.6213794,19.6270514 11.6179848,19.630446 L11.6179848,19.630446 Z M4.9775808,18.4428192 L4.97172345,18.4433547 L4.9690332,18.4471032 L4.94668039,18.4570925 C4.81654139,18.5203963 4.21627006,18.8534445 3.8154948,19.081278 L3.8154948,19.081278 L3.59993928,19.2075229 C3.12133922,19.4961518 2.8024155,19.7517393 2.4150348,20.1539712 L2.4150348,20.1539712 L2.25304138,20.3288473 C1.67418132,20.9784596 1.2660694,21.7130174 1.1763468,22.2865464 C1.1664732,22.3427076 1.16682,22.3578648 1.1813244,22.3578648 L1.1813244,22.3578648 L1.1885409,22.3569901 L1.197624,22.354662 L1.21366338,22.3503891 C1.27272373,22.3343592 1.4775324,22.2775449 1.70844,22.2142488 L1.70844,22.2142488 L1.81891355,22.1837473 C2.80651515,21.9093102 5.41288071,21.1448353 5.4415584,21.1202376 L5.4415584,21.1202376 L5.4391286,21.1101552 C5.42604358,21.0740736 5.365548,20.9463655 5.2925976,20.7967752 L5.2925976,20.7967752 L5.18711303,20.5678661 C4.96270283,20.0493367 4.88817015,19.6293597 4.9180332,19.0855416 L4.9180332,19.0855416 L4.92650334,18.9707243 C4.93684328,18.8488455 4.9519941,18.7131651 4.9647696,18.630132 L4.9647696,18.630132 L4.97577408,18.5630399 C4.9911553,18.4664634 4.9917418,18.4428192 4.9775808,18.4428192 L4.9775808,18.4428192 Z M15.534132,17.1829152 L15.4660164,17.2339968 L15.4205524,17.2717061 C15.2849613,17.3792046 14.9567891,17.6133654 14.7295764,17.76609 L14.7295764,17.76609 L14.3010772,18.0446794 C13.7142733,18.415994 13.0686574,18.785123 12.4011204,19.1324616 L12.4011204,19.1324616 L12.313992,19.1786452 C12.1450625,19.2680804 12.0131678,19.3373913 12.0095832,19.3410108 L12.0095832,19.3410108 L12.0162417,19.3509878 C12.0837689,19.414173 12.6244423,19.7458017 13.0056336,19.9540512 L13.0056336,19.9540512 L13.3882769,20.1544197 C13.9067261,20.4125061 14.4529402,20.6324899 14.9637072,20.7925728 C15.1084452,20.8351884 15.2318652,20.8692156 15.2318652,20.8692156 L15.2318652,20.8692156 L15.2353344,20.8565456 C15.2432966,20.8186871 15.2616594,20.7010584 15.2829264,20.5627464 L15.2829264,20.5627464 L15.3437768,20.1363464 C15.4590883,19.2485289 15.534132,18.1753257 15.534132,17.3616804 L15.534132,17.3616804 L15.534132,17.1829152 Z M8.1914172,16.884912 L8.17614298,16.8885073 C8.00119735,16.9491088 6.38484624,17.7075644 5.8672452,17.970396 L5.8672452,17.970396 L5.82517223,17.9918111 C5.73968273,18.0373925 5.7368535,18.0629916 5.68848,18.2938992 L5.68848,18.2938992 L5.66115084,18.4593195 C5.61399044,18.811799 5.61241423,19.2777358 5.667162,19.5623508 L5.667162,19.5623508 L5.71186836,19.7668104 C5.77970146,20.0418357 5.8791588,20.3217857 5.9949492,20.5499556 C6.0430728,20.643204 6.0614532,20.6748036 6.0756108,20.6748036 L6.0756108,20.6748036 L6.0840921,20.6709862 L6.0928488,20.6606052 L6.10596921,20.6413145 C6.13840427,20.5921439 6.2205596,20.4626436 6.3056616,20.3243316 L6.3056616,20.3243316 L6.52537143,19.9712081 C7.02231264,19.1641995 7.4129175,18.4699818 7.7742372,17.7660492 L7.7742372,17.7660492 L7.83221244,17.6516945 C8.02464299,17.2697808 8.20300811,16.8927011 8.1914172,16.884912 L8.1914172,16.884912 Z M9.0426684,16.5316044 L9.02486978,16.5341385 C9.0100488,16.5373028 8.9901656,16.5429876 8.9703096,16.548618 L8.9703096,16.548618 L8.93474093,16.5701049 C8.90463053,16.591458 8.889495,16.6146069 8.8767348,16.6593288 L8.8767348,16.6593288 L8.8656355,16.6920031 C8.83978983,16.7643225 8.779505,16.920374 8.719206,17.076468 L8.719206,17.076468 L8.61533855,17.3333652 C8.17845523,18.3883342 7.49753317,19.7457342 7.0378176,20.464806 C6.9436308,20.6132976 6.920334,20.650854 6.9391428,20.650854 L6.9391428,20.650854 L6.94502565,20.6500354 L6.9527292,20.647794 L7.3121925,20.530216 L7.3121925,20.530216 L7.6719924,20.4136632 L8.16391526,20.2532537 C8.96690223,19.9880098 9.6875974,19.732633 10.3579584,19.477242 L10.3579584,19.477242 L10.487566,19.4279358 C11.0505956,19.2137098 11.04161,19.2158867 11.0177148,19.1920296 L11.0177148,19.1920296 L11.0009432,19.1766888 C10.9671889,19.146709 10.8909451,19.0813474 10.8091656,19.013244 L10.8091656,19.013244 L10.6470959,18.8682217 C10.3704596,18.6095762 10.0671428,18.272622 9.8259468,17.953362 L9.8259468,17.953362 L9.71082663,17.792856 C9.47786909,17.4521894 9.23605166,17.0065485 9.119352,16.6891128 L9.119352,16.6891128 L9.09979031,16.6340478 C9.08022353,16.5821683 9.0618444,16.542243 9.0554796,16.5358476 L9.0554796,16.5358476 L9.0490434,16.5321348 L9.0426684,16.5316044 Z M12.418236,15.207828 L12.4078494,15.2116924 C12.3798824,15.2247739 12.3795005,15.2630875 12.3756816,15.646224 L12.3756816,15.646224 L12.3671976,15.9404106 C12.3296562,16.7442787 12.1736491,17.6965124 11.9201088,18.6387204 C11.8861224,18.7664448 11.8606428,18.87279 11.8691292,18.87279 L11.8691292,18.87279 L11.8809745,18.8685099 C11.9239244,18.8516872 12.0776638,18.787075 12.2564028,18.7068156 L12.2564028,18.7068156 L12.6428484,18.5324279 C13.652124,18.0677239 14.4921748,17.6052836 15.1808244,17.136138 L15.1808244,17.136138 L15.2635058,17.0798682 C15.5387527,16.8928091 15.5124621,16.909103 15.3681168,16.8466824 L15.3681168,16.8466824 L15.2485984,16.7926712 C14.6886557,16.5310223 13.602778,15.9220189 12.7885572,15.412134 L12.7885572,15.412134 L12.6963359,15.3554655 C12.5276866,15.252688 12.4511091,15.2120712 12.418236,15.2120712 L12.418236,15.2120712 L12.4134318,15.2115408 L12.418236,15.207828 Z M11.8265952,15.4376748 L11.8078932,15.4415496 C11.5906686,15.505442 9.56285004,16.2913485 9.4981596,16.3358256 L9.4981596,16.3358256 L9.49975864,16.3527402 C9.51879281,16.4295893 9.649514,16.7444444 9.736554,16.9147164 L9.736554,16.9147164 L9.85968726,17.1404102 C10.0348452,17.4425183 10.2541142,17.7489948 10.5197712,18.0554844 C10.707798,18.2728056 11.2733676,18.826584 11.3100876,18.8265228 L11.3100876,18.8265228 L11.3115768,18.8259516 L11.3185014,18.8118748 C11.3343307,18.7727654 11.3704444,18.6592054 11.4094764,18.5280504 L11.4094764,18.5280504 L11.5180037,18.1450242 C11.6511821,17.6434591 11.7397116,17.1735312 11.8009932,16.6763424 L11.8009932,16.6763424 L11.8085444,16.604848 C11.8374417,16.275505 11.850096,15.4612133 11.8265952,15.4376748 L11.8265952,15.4376748 Z M15.2872716,14.2670616 L15.265355,14.2716025 C15.0779985,14.3192759 13.8008676,14.7300396 13.2440484,14.9183724 L13.2440484,14.9183724 L13.1493653,14.9508345 C12.8945674,15.0387142 12.894986,15.04483 12.9333768,15.0716172 L12.9333768,15.0716172 L12.9744436,15.1025772 C13.1831976,15.2546927 13.9025431,15.7307679 14.2954848,15.978336 C14.7849012,16.2848052 15.47028,16.6891332 15.5043072,16.6891332 L15.5043072,16.6891332 L15.5081547,16.6798117 C15.5138572,16.6491673 15.5156734,16.545116 15.5085504,16.399698 L15.5085504,16.399698 L15.5019625,16.2579093 C15.4596376,15.4326799 15.3355153,14.2670616 15.2872716,14.2670616 L15.2872716,14.2670616 Z M10.7666928,0.3860244 L10.7827138,0.388802984 C10.8166508,0.398859506 10.8310625,0.44354475 10.8943764,0.6968184 L10.8943764,0.6968184 L10.9571917,0.911802283 C11.0947569,1.36146705 11.3006511,1.91964103 11.5158828,2.4122136 L11.5158828,2.4122136 L11.6318454,2.6715628 C11.9617263,3.39430486 12.448564,4.3495064 12.8950248,5.1365112 L12.8950248,5.1365112 L12.9928632,5.3110332 L13.4782812,5.387676 L13.4952158,5.3897976 L13.4952158,5.3897976 L13.5122268,5.3919192 L13.4738952,5.7111588 L9.7791288,5.0769024 L6.5483196,4.4979912 L5.1904548,4.063818 L4.62003,3.5231976 L4.62644325,3.4476666 L4.62644325,3.4476666 L4.645632,3.3785004 L4.67413921,3.32762085 C4.76488052,3.19214576 5.0154075,2.94914925 5.2202184,2.8038324 L5.2202184,2.8038324 L5.38582216,2.69178159 C6.02253028,2.27589995 6.9813946,1.8056978 8.1871332,1.314 C9.150666,0.9227076 10.6384176,0.3858204 10.7628984,0.3858204 L10.7628984,0.3858204 L10.7666928,0.3860244 Z M11.5243488,3.6636924 L11.5158318,3.66316455 L11.5073148,3.6721992 L11.4889419,3.68705693 C11.4542234,3.7158095 11.3813448,3.7777896 11.3030088,3.8424984 L11.3030088,3.8424984 L11.0572482,4.04134618 C10.7225766,4.30207123 10.3622995,4.54317312 10.004712,4.7406288 L10.004712,4.7406288 L9.96607504,4.76259769 C9.93076073,4.78376715 9.9068124,4.8013392 9.9068124,4.8045216 L9.9068124,4.8045216 C9.95837026,4.82152198 10.4467961,4.90189402 11.8138044,5.1237408 C12.147834,5.1782292 12.2775168,5.2010772 12.3209484,5.2010772 L12.3209484,5.2010772 L12.3375798,5.19842711 C12.3458122,5.19319642 12.3316482,5.1804324 12.3202956,5.1620112 L12.3202956,5.1620112 L12.2821743,5.10046872 C12.1301883,4.84416318 11.7452623,4.10713647 11.6137008,3.8169372 L11.6137008,3.8169372 L11.5864301,3.7568574 C11.5542993,3.68819851 11.5379923,3.6636924 11.5243488,3.6636924 L11.5243488,3.6636924 Z M6.5950968,2.510154 L6.8165184,2.710176 L6.8749128,2.76541244 C7.13345425,3.01047173 7.6871904,3.54089538 8.3787504,4.2127584 L8.3787504,4.2127584 L8.804376,4.6299384 L8.9746344,4.6554996 C9.06825,4.6682904 9.1576224,4.6853448 9.1746768,4.6853448 L9.1746768,4.6853448 L9.19160039,4.67990216 C9.2331602,4.6621551 9.3378632,4.6030036 9.4513212,4.5320796 L9.4513212,4.5320796 L9.66008392,4.40508157 C10.0995545,4.14245042 10.6614579,3.83336794 11.1795072,3.5742996 L11.1795072,3.5742996 L11.2528825,3.53908146 C11.3690572,3.48234773 11.4512012,3.4374054 11.4476652,3.4338864 L11.4476652,3.4338864 L11.4320904,3.43245383 C11.3949206,3.42877008 11.2961422,3.41853744 11.1838116,3.4083048 L11.1838116,3.4083048 L10.9378094,3.38537381 C9.65401584,3.25238401 7.60712805,2.85278985 6.7611528,2.5654176 L6.7611528,2.5654176 L6.5950968,2.510154 Z M6.4248792,2.6420808 L6.3695544,2.6804532 L6.22161196,2.78872844 C5.6987871,3.18453082 5.3943885,3.5639772 5.3905176,3.8254032 L5.3905176,3.8254032 L5.3905176,3.8850324 L5.624628,3.9616956 L5.72790077,3.99359156 C5.96196559,4.06468309 6.1593732,4.1154351 6.5653536,4.2085764 C7.0001184,4.3069656 7.8061836,4.464678 7.8797664,4.4646576 L7.8797664,4.4646576 L7.8849276,4.463964 L7.88021846,4.45365025 C7.86481238,4.43008613 7.81508208,4.3694508 7.757244,4.2978876 L7.757244,4.2978876 L7.72798865,4.26194349 C7.61844444,4.12759676 7.320021,3.76289556 7.0250676,3.3912708 L7.0250676,3.3912708 L6.4248792,2.6420808 Z M10.7028612,0.6031824 L10.6984956,0.6031824 L10.6653517,0.612536828 C10.404666,0.69746037 8.94645973,1.30764427 8.3957028,1.5609624 L8.3957028,1.5609624 L8.30391639,1.60449148 C7.8150462,1.83926916 6.90695415,2.31543982 6.9229044,2.3314092 L6.9229044,2.3314092 L6.93417317,2.33471596 C6.97832995,2.34415753 7.1466924,2.36967669 7.3400844,2.3952408 L7.3400844,2.3952408 L7.5551931,2.42561969 C8.9397833,2.62412656 10.7160427,2.93329182 11.1285072,3.0464904 C11.1810372,3.062382 11.2184916,3.0758256 11.241462,3.0758256 L11.241462,3.0758256 L11.2571873,3.07252528 C11.2903704,3.05430889 11.2538176,2.95585093 11.154048,2.6591352 L11.154048,2.6591352 L11.0379723,2.291317 C10.8950822,1.80694397 10.7989901,1.34385744 10.741152,0.867036 L10.741152,0.867036 L10.7310223,0.786087821 C10.7177907,0.68354208 10.7062068,0.60654432 10.7028612,0.6031824 L10.7028612,0.6031824 Z" id="Combined-Shape" fill="#909CA8"></path>
                <path d="M4.6710912,3.6892944 C4.7264772,3.825444 4.8882084,3.9914388 5.0712168,4.161738 L5.0712168,4.161738 C5.0712168,4.161738 6.9654384,6.0091008 7.1953056,6.2730768 L7.1953056,6.2730768 C8.2423968,7.48194 8.6979084,8.67381 8.7404832,10.3169076 L8.7404832,10.3169076 C8.766024,11.3725668 8.5658796,12.3005016 8.0678952,13.377438 L8.0678952,13.377438 C7.1824944,15.3099912 5.3137932,17.4426072 2.432028,19.8093132 L2.432028,19.8093132 L2.8535328,19.6688388 C3.125934,19.4644716 3.4962756,19.2474564 4.3646016,18.770688 L4.3646016,18.770688 C6.3694728,17.6723928 8.6255292,16.6635924 11.3923812,15.6249672 L11.3923812,15.6249672 C15.3765216,14.1265872 21.9276144,12.3727992 25.6563672,11.8024764 L25.6563672,11.8024764 L26.043804,11.7428268 L25.9841748,11.6491704 C25.6436988,11.1213408 25.4095068,10.7936148 25.1285172,10.4445708 L25.1285172,10.4445708 C24.3113136,9.431466 23.319588,8.6099784 22.1063592,7.9288836 L22.1063592,7.9288836 C20.4377412,6.9967056 18.2795436,6.2688336 15.5468412,5.7282132 L15.5468412,5.7282132 C15.0318024,5.6260092 13.8995004,5.4302304 12.9800928,5.2897764 L12.9800928,5.2897764 C11.0304852,4.9876116 9.77052,4.7790012 8.3828916,4.5406272 L8.3828916,4.5406272 C7.8848868,4.4554572 7.1398992,4.3277736 6.646158,4.221408 L6.646158,4.221408 C6.39075,4.1660016 5.9012724,4.0510884 5.5181808,3.9191616 L5.5181808,3.9191616 C5.2117116,3.7998828 4.7689704,3.680706 4.675314,3.3188916 L4.675314,3.3188916 C4.675314,3.3188916 4.5817392,3.467934 4.6710912,3.6892944 L4.6710912,3.6892944 Z M8.1786264,7.030692 C7.6805808,6.153798 6.8931,5.2641744 5.982138,4.549032 L5.982138,4.549032 C5.8630224,4.463964 5.7736092,4.3873416 5.7736092,4.3830984 L5.7736092,4.3830984 C5.7778116,4.3789164 5.8458864,4.4043552 5.9353404,4.43418 L5.9353404,4.43418 C6.097092,4.489464 6.3056412,4.5533364 6.5526036,4.6214724 L6.5526036,4.6214724 C6.7394268,4.6728804 6.9267192,4.7225136 7.1144604,4.7704332 L7.1144604,4.7704332 C7.3698684,4.8342648 7.5826812,4.8938736 7.586904,4.8938736 L7.586904,4.8938736 C7.6167492,4.923678 8.0466792,6.2984748 8.1914172,6.8263248 L8.1914172,6.8263248 C8.2466604,7.0264488 8.2893372,7.1966664 8.2850736,7.1966664 L8.2850736,7.1966664 C8.2849512,7.1967888 8.284788,7.19685 8.2846044,7.19685 L8.2846044,7.19685 C8.2780152,7.19685 8.23236,7.1257968 8.1786264,7.030692 L8.1786264,7.030692 Z M7.8678732,4.9620096 C7.8891708,4.9620096 7.9828068,4.97478 8.0976996,5.0003004 L8.0976996,5.0003004 C8.8213284,5.1620316 10.1196456,5.4089328 10.9496604,5.5494276 L10.9496604,5.5494276 C11.0901552,5.5706844 11.200866,5.5962864 11.200866,5.604732 L11.200866,5.604732 C11.200866,5.6132796 11.1497232,5.6430228 11.0858508,5.6771316 L11.0858508,5.6771316 C10.9454376,5.74947 10.3792764,6.0857028 10.1920248,6.2134476 L10.1920248,6.2134476 C9.7194792,6.5284236 9.293874,6.8689404 8.987364,7.1754096 L8.987364,7.1754096 C8.8639236,7.2988908 8.757456,7.4010336 8.757456,7.4010336 L8.757456,7.4010336 C8.757456,7.4010336 8.7320172,7.3286952 8.7106176,7.2392412 L8.7106176,7.2392412 C8.5574748,6.6475596 8.238174,5.7706656 7.9487388,5.1535044 L7.9487388,5.1535044 C7.9067148,5.0656824 7.8715044,4.984674 7.8647316,4.962846 L7.8647316,4.962846 C7.865364,4.9625196 7.8663636,4.9620096 7.8678732,4.9620096 L7.8678732,4.9620096 Z M11.6520324,8.422686 C11.1965616,8.277948 10.4559192,8.0608308 9.821724,7.8820656 L9.821724,7.8820656 C9.4598484,7.784166 9.1662108,7.6947732 9.1662108,7.6862664 L9.1662108,7.6862664 C9.1662108,7.6607052 9.6940608,7.132896 9.9196236,6.9328536 L9.9196236,6.9328536 C10.3494516,6.553944 11.5158012,5.65155 11.5541124,5.6643408 L11.5541124,5.6643408 C11.5796532,5.6728272 11.622228,5.8175856 11.7073572,6.1368048 L11.7073572,6.1368048 C11.8648656,6.754068 11.9372448,7.4436288 11.911704,8.0863716 L11.911704,8.0863716 C11.9031564,8.2651776 11.89467,8.431152 11.8861224,8.4524904 L11.8861224,8.4524904 L11.8733724,8.495004 L11.6520324,8.422686 Z M12.3586884,8.1587304 C12.3586884,7.3499928 12.1969164,6.5327076 11.8988928,5.8431264 L11.8988928,5.8431264 C11.8690884,5.7750108 11.843568,5.7111792 11.8478316,5.7068748 L11.8478316,5.7068748 C11.8606224,5.6941656 13.6101264,5.99631 14.406114,6.1495752 L14.406114,6.1495752 C14.9978364,6.2645088 15.8576352,6.4432944 15.9086964,6.4646124 L15.9086964,6.4646124 C15.9342372,6.4730784 15.844824,6.52416 15.5595912,6.651864 L15.5595912,6.651864 C14.435898,7.1584572 13.6015176,7.613826 12.7715844,8.1672576 L12.7715844,8.1672576 C12.5544672,8.3119956 12.3713976,8.431152 12.3671544,8.431152 L12.3671544,8.431152 C12.362952,8.431152 12.3586884,8.3077524 12.3586884,8.1587304 L12.3586884,8.1587304 Z M14.7721512,9.7762464 C14.2784304,9.4868112 13.7165328,9.21441 13.1035536,8.9589612 L13.1035536,8.9589612 C12.9333564,8.8866228 12.784314,8.8269936 12.7800708,8.818548 L12.7800708,8.818548 C12.7502052,8.7929868 14.1209016,7.8863088 14.8445304,7.4521356 L14.8445304,7.4521356 C15.4191984,7.103112 16.35564,6.5837688 16.3726536,6.6008232 L16.3726536,6.6008232 C16.3854444,6.6135732 16.3300992,6.9583944 16.2789972,7.1626596 L16.2789972,7.1626596 C16.1257932,7.7969364 15.7129176,8.7377232 15.206406,9.6230628 L15.206406,9.6230628 C15.116952,9.7805508 15.0360864,9.9082548 15.0275184,9.912498 L15.0275184,9.912498 C15.0272532,9.9126408 15.0268656,9.912702 15.0263964,9.912702 L15.0263964,9.912702 C15.0118308,9.912702 14.899998,9.8504616 14.7721512,9.7762464 L14.7721512,9.7762464 Z M15.8448648,9.6315492 C16.3003152,8.6653032 16.5940344,7.656462 16.666332,6.7965816 L16.666332,6.7965816 C16.6706568,6.7156956 16.6833456,6.6518844 16.6961364,6.6518844 L16.6961364,6.6518844 L16.6961568,6.6518844 C16.734468,6.6518844 17.5092192,6.8647176 17.9135268,6.9839148 L17.9135268,6.9839148 C18.9138816,7.281918 20.063136,7.70328 20.812326,8.0437968 L20.812326,8.0437968 L21.123018,8.1843324 L20.9060028,8.2353732 C19.0756944,8.6567556 17.5092192,9.1420716 15.9980484,9.7550304 L15.9980484,9.7550304 C15.8746284,9.8060916 15.7639176,9.8486664 15.7555128,9.8486664 L15.7555128,9.8486664 C15.7469244,9.8486664 15.7894992,9.7507668 15.8448648,9.6315492 L15.8448648,9.6315492 Z M9.0639864,11.2149972 C9.1618656,10.4998548 9.1406496,9.5804676 9.0044184,8.6482488 L9.0044184,8.6482488 C8.9916072,8.5290108 8.9788572,8.4269088 8.9831208,8.422686 L8.9831208,8.422686 C8.9958708,8.4098748 9.5875728,8.5503696 9.9068124,8.6397012 L9.9068124,8.6397012 C10.3920468,8.7759528 11.4221448,9.1206924 11.4221448,9.1462944 L11.4221448,9.1462944 C11.4221448,9.1505172 11.307252,9.2484168 11.171082,9.3676752 L11.171082,9.3676752 C10.6134684,9.8316324 10.0770708,10.3210896 9.4342668,10.9425756 L9.4342668,10.9425756 C9.2427108,11.1256656 9.0810204,11.2746468 9.072534,11.2746468 L9.072534,11.2746468 C9.0639864,11.2746468 9.059784,11.2490652 9.0639864,11.2149972 L9.0639864,11.2149972 Z M17.9391084,12.6835932 C17.46234,11.9684508 16.8919356,11.3427012 16.2151248,10.7808648 L16.2151248,10.7808648 C16.0874208,10.6743972 15.9470076,10.5594636 15.9001896,10.525416 L15.9001896,10.525416 C15.8533716,10.4913684 15.8149992,10.4573412 15.8149992,10.4530776 L15.8149992,10.4530776 C15.8149992,10.440348 16.5385872,10.1295336 17.0877756,9.9082344 L17.0877756,9.9082344 C18.0497988,9.5166156 19.3607232,9.0483948 20.3440848,8.7461484 L20.3440848,8.7461484 C20.8591644,8.5844172 21.4082916,8.4269088 21.4168392,8.4354564 L21.4168392,8.4354564 C21.4252644,8.4439428 21.1443564,8.8866228 20.9656116,9.1377468 L20.9656116,9.1377468 C20.7102648,9.5038044 20.335578,9.9891612 19.488468,11.0533272 L19.488468,11.0533272 C19.0416264,11.6151432 18.539256,12.24942 18.373302,12.4622532 L18.373302,12.4622532 C18.202962,12.675066 18.0625488,12.8538108 18.0582444,12.8538108 L18.0582444,12.8538108 C18.0540012,12.8538108 17.9987376,12.7772292 17.9391084,12.6835932 L17.9391084,12.6835932 Z M21.7445652,8.5205448 C21.7615584,8.516322 21.8637624,8.5673832 21.9872028,8.6397012 L21.9872028,8.6397012 C23.0216052,9.2313828 24.034608,9.9933636 24.8349408,10.7766012 L24.8349408,10.7766012 C25.060524,10.9979616 25.6181376,11.5768728 25.60959,11.581116 L25.60959,11.581116 C25.60959,11.581116 25.4137704,11.5981296 25.1839644,11.6151432 L25.1839644,11.6151432 C23.3919264,11.7513744 21.09762,12.1301616 18.8926248,12.6622344 L18.8926248,12.6622344 C18.743664,12.6962616 18.6117168,12.7260864 18.6031692,12.7260864 L18.6031692,12.7260864 C18.594744,12.7260864 18.760698,12.5600916 18.9693084,12.3600492 L18.9693084,12.3600492 C20.2633008,11.1128544 20.8550232,10.3253736 21.55305,8.92065 L21.55305,8.92065 C21.6509088,8.7121212 21.7360992,8.5333356 21.7445652,8.5205448 L21.7445652,8.5205448 C21.740322,8.5205448 21.740322,8.5205448 21.7445652,8.5205448 L21.7445652,8.5205448 C21.7445652,8.5205448 21.7445652,8.5205448 21.7445652,8.5205448 L21.7445652,8.5205448 Z M11.35407,11.9428896 C11.7372024,11.2448424 12.0436512,10.4105436 12.218214,9.5974608 L12.218214,9.5974608 C12.2351664,9.5336496 12.2522412,9.4911156 12.2649708,9.4911156 L12.2649708,9.4911156 C12.3245796,9.5038248 12.87795,9.763578 13.2951096,9.9721068 L13.2951096,9.9721068 C13.6782216,10.1635812 14.25291,10.470132 14.2826736,10.495632 L14.2826736,10.495632 C14.2868964,10.4998548 14.0825292,10.6062816 13.8315072,10.7297628 L13.8315072,10.7297628 C13.0311948,11.1298884 12.345918,11.5086756 11.6307348,11.9428896 L11.6307348,11.9428896 C11.4264288,12.0663504 11.2561704,12.1685544 11.2519272,12.1685544 L11.2519272,12.1685544 C11.2348932,12.1685544 11.2391364,12.1514388 11.35407,11.9428896 L11.35407,11.9428896 Z M10.1664636,12.4750032 C9.8898192,12.2068044 9.6641544,12.0408096 9.37476,11.8917876 L9.37476,11.8917876 C9.2597448,11.83224 9.1704132,11.7811176 9.1704132,11.772672 L9.1704132,11.772672 C9.1704132,11.738604 9.8982852,11.0788272 10.4558988,10.6020588 L10.4558988,10.6020588 C10.856004,10.257258 11.6988504,9.580488 11.71158,9.593238 L11.71158,9.593238 C11.7243912,9.6060288 11.5796532,10.129554 11.4903012,10.4147868 L11.4903012,10.4147868 C11.315718,10.9553664 11.0220396,11.6321772 10.7368884,12.1429932 L10.7368884,12.1429932 C10.6686912,12.2621088 10.5665688,12.4366512 10.5112236,12.5345508 L10.5112236,12.5345508 L10.404858,12.7048092 L10.1664636,12.4750032 Z M12.0862464,14.5011312 C13.2100008,13.4668512 14.2060104,12.3259812 14.9466936,11.2149972 L14.9466936,11.2149972 L15.095736,10.9852116 L15.304326,11.1213612 C15.780972,11.4321348 16.3428288,11.8450104 16.7728404,12.2068044 L16.7728404,12.2068044 C17.0153964,12.4068264 17.4835968,12.8283108 17.5773348,12.930474 L17.5773348,12.930474 L17.6283348,12.98586 L17.2836156,13.0837188 C15.3340284,13.624278 13.8271824,14.1052896 12.0691716,14.7523368 L12.0691716,14.7523368 C11.8733724,14.8246548 11.7073368,14.8842636 11.694546,14.8842636 L11.694546,14.8842636 C11.6921184,14.8842636 11.6897316,14.8844472 11.6877732,14.8844472 L11.6877732,14.8844472 C11.6691684,14.8844472 11.6894256,14.8670664 12.0862464,14.5011312 L12.0862464,14.5011312 Z M11.192298,14.8927704 C11.192298,14.37765 11.0603916,13.8285432 10.8304836,13.3603428 L10.8304836,13.3603428 C10.7325636,13.164564 10.71555,13.1177256 10.7369088,13.0964484 L10.7369088,13.0964484 C10.817754,13.0240692 12.0564216,12.317454 12.8396388,11.8960716 L12.8396388,11.8960716 C13.3674684,11.6151432 14.1931992,11.198004 14.2060716,11.2065312 L14.2060716,11.2065312 C14.214558,11.2149972 13.6314036,12.0365256 13.2822984,12.5005236 L13.2822984,12.5005236 C12.8651796,13.053894 12.124476,13.9818288 11.6137008,14.5862196 L11.6137008,14.5862196 C11.4009084,14.8374252 11.2179204,15.0459744 11.2093524,15.0502788 L11.2093524,15.0502788 C11.2089444,15.0504012 11.2085568,15.0504624 11.2081692,15.0504624 L11.2081692,15.0504624 C11.1962964,15.0504624 11.192298,14.98761 11.192298,14.8927704 L11.192298,14.8927704 Z M7.812528,14.616126 C8.0935176,14.1861756 8.2339308,13.9435584 8.3829528,13.632846 L8.3829528,13.632846 C8.5148796,13.3562016 8.6468268,13.028394 8.7404832,12.743202 L8.7404832,12.743202 C8.77449,12.6197412 8.8170852,12.5261052 8.8255716,12.5261052 L8.8255716,12.5261052 C8.8383828,12.5261052 8.9362824,12.5771256 9.0469728,12.6367752 L9.0469728,12.6367752 C9.3193944,12.785736 9.562032,12.9517512 9.7791084,13.1305572 L9.7791084,13.1305572 C9.7875744,13.1390436 9.6769656,13.2284568 9.5322276,13.334802 L9.5322276,13.334802 C9.1278384,13.624278 8.5148796,14.088276 8.15739,14.3734884 L8.15739,14.3734884 C7.8963312,14.5810992 7.8110184,14.6481948 7.797636,14.6481948 L7.797636,14.6481948 C7.791822,14.6481948 7.7996352,14.6354856 7.812528,14.616126 L7.812528,14.616126 Z M6.5781036,17.0296704 C6.5781036,17.0254272 6.7100304,16.9275072 6.871782,16.8082896 L6.871782,16.8082896 C8.1445992,15.8846184 9.2470356,14.8714932 10.0728072,13.8584292 L10.0728072,13.8584292 C10.1622204,13.7520024 10.2431268,13.6540824 10.2515724,13.6498392 L10.2515724,13.6498392 L10.2601404,13.6498188 C10.2813564,13.6456164 10.3069788,13.6838868 10.4218308,13.854186 L10.4218308,13.854186 C10.664448,14.2159188 10.8517608,14.7012552 10.8986808,15.0928536 L10.8986808,15.0928536 L10.907106,15.1780236 L10.3240128,15.4036476 C9.2810424,15.807996 8.3191008,16.208142 7.6677492,16.5060636 L7.6677492,16.5060636 C7.4847816,16.5912336 7.1655012,16.7444172 6.9569724,16.846662 L6.9569724,16.846662 C6.7536048,16.9503348 6.586692,17.0298336 6.57843,17.0298336 L6.57843,17.0298336 C6.578226,17.0298336 6.5781036,17.0297724 6.5781036,17.0296704 L6.5781036,17.0296704 Z M6.3524796,16.5018204 C6.6334488,16.1995944 6.8462616,15.9441864 7.0888788,15.6292308 L7.0888788,15.6292308 C7.2506304,15.420702 7.2804552,15.3908976 7.5146064,15.2248008 L7.5146064,15.2248008 C8.1403356,14.7735936 9.5833296,13.7945568 9.6003636,13.8115908 L9.6003636,13.8115908 C9.6173772,13.8286452 9.1321224,14.3777112 8.8001124,14.7139644 L8.8001124,14.7139644 C7.9785636,15.5526084 7.1655624,16.208142 6.1567008,16.846662 L6.1567008,16.846662 C6.0289968,16.9275072 5.9140836,16.9998456 5.9013132,17.0083932 L5.9013132,17.0083932 C5.8981308,17.0102088 5.8957236,17.0113512 5.8944996,17.0113512 L5.8944996,17.0113512 C5.884218,17.0113512 5.956944,16.9315668 6.3524796,16.5018204 L6.3524796,16.5018204 Z" id="Fill-10" fill="#A81C21"></path>
            </g>
        </g>
    </g>
</svg>