<?xml version="1.0" encoding="UTF-8"?>
<svg width="42px" height="42px" viewBox="0 0 42 42" version="1.1" xmlns="http://www.w3.org/2000/svg" xmlns:xlink="http://www.w3.org/1999/xlink">
    <!-- Generator: Sketch 63 (92445) - https://sketch.com -->
    <title>ic_nodejs</title>
    <desc>Created with Sketch.</desc>
    <g id="Icon-Set" stroke="none" stroke-width="1" fill="none" fill-rule="evenodd">
        <g id="ic_nodejs" transform="translate(1.000000, 1.000000)">
            <circle id="Oval" stroke="#EAEAEA" fill="#FFFFFF" fill-rule="nonzero" cx="20" cy="20" r="20"></circle>
            <path d="M20.9981123,7.25578931 L30.5015308,12.7615202 C31.1169799,13.1183135 31.5,13.7834849 31.5,14.4980255 L31.5,25.4935078 C31.5,26.2078099 31.1169799,26.8725044 30.5015308,27.2316827 L20.9981123,32.7326435 C20.6943131,32.9088937 20.3495951,33 19.997502,33 C19.6504049,33 19.3044974,32.9088937 19.0009361,32.7326435 L15.8275789,30.8504158 C15.3539186,30.5847288 15.585396,30.490522 15.7414588,30.4359059 C16.3737989,30.2160106 16.5015515,30.1652105 17.1762379,29.7817054 C17.2464186,29.7421147 17.3396756,29.7569015 17.4122353,29.7998312 L19.8500036,31.2508542 C19.9382648,31.2997464 20.0629247,31.2997464 20.1442868,31.2508542 L29.648419,25.7513244 C29.7366801,25.7007627 29.7937763,25.5986855 29.7937763,25.4935078 L29.7937763,14.4980255 C29.7937763,14.3904628 29.7366801,14.2898166 29.64604,14.2352005 L20.1459521,8.74067908 C20.0581667,8.68916347 19.9415954,8.68916347 19.8530963,8.74067908 L10.3553874,14.23687 C10.263082,14.2898166 10.2045584,14.3933248 10.2045584,14.4980255 L10.2045584,25.4935078 C10.2045584,25.5986855 10.263082,25.6983778 10.3544358,25.7482239 L12.9580209,27.256248 C14.3706751,27.9643491 15.2354441,27.1305594 15.2354441,26.2924768 L15.2354441,15.4360389 C15.2354441,15.2829231 15.3586767,15.161766 15.5118847,15.161766 L16.7168516,15.161766 C16.8676807,15.161766 16.9923406,15.2829231 16.9923406,15.4360389 L16.9923406,26.2924768 C16.9923406,28.182575 15.9655613,29.2665493 14.1782135,29.2665493 C13.6289008,29.2665493 13.1963974,29.2665493 11.9890514,28.6700653 L9.49680386,27.2316827 C8.88111689,26.8748894 8.5,26.2078099 8.5,25.4935078 L8.5,14.4980255 C8.5,13.7834849 8.88111689,13.116644 9.49680386,12.7615202 L19.0009361,7.25578931 C19.6021111,6.9147369 20.4016953,6.9147369 20.9981123,7.25578931 Z M22.5520558,14.8689618 C25.5967087,14.8689618 27.1033337,15.9283707 27.294368,18.2012585 C27.3012671,18.2797244 27.2736706,18.3548514 27.2215704,18.4135219 C27.169708,18.4678995 27.0971483,18.5012893 27.0205443,18.5012893 L25.7870292,18.5012893 C25.6590387,18.5012893 25.5460359,18.410183 25.5201047,18.2859254 C25.2243941,16.9663149 24.5045067,16.5446501 22.5520558,16.5446501 C20.3659864,16.5446501 20.1119085,17.3083213 20.1119085,17.8800015 C20.1119085,18.5730772 20.4119012,18.7748467 23.363535,19.1666992 C26.2842417,19.5535433 27.6714405,20.1018507 27.6714405,22.1596131 C27.6714405,24.2357399 25.9447574,25.4246534 22.9331727,25.4246534 C18.7744308,25.4246534 17.9030007,23.5109439 17.9030007,21.9056125 C17.9030007,21.7527352 18.0255195,21.6311011 18.1777759,21.6311011 L19.406533,21.6311011 C19.5438017,21.6311011 19.6582319,21.7300778 19.6796429,21.8643523 C19.8649676,23.1183758 20.4180867,23.75135 22.9331727,23.75135 C24.9355827,23.75135 25.7877429,23.2972495 25.7877429,22.232355 C25.7877429,21.6184607 25.5460359,21.1626906 22.4345328,20.8574129 C19.8342784,20.5995964 18.2258319,20.0233847 18.2258319,17.937718 C18.2258319,16.0154226 19.8421291,14.8689618 22.5520558,14.8689618 Z" id="node.js_logo-copy-3" fill="#3F873F"></path>
        </g>
    </g>
</svg>