<?xml version="1.0" encoding="utf-8"?>
<!-- Generator: Adobe Illustrator 25.1.0, SVG Export Plug-In . SVG Version: 6.00 Build 0)  -->
<svg version="1.1" id="레이어_1" xmlns="http://www.w3.org/2000/svg" xmlns:xlink="http://www.w3.org/1999/xlink" x="0px"
	 y="0px" viewBox="0 0 42 42" style="enable-background:new 0 0 42 42;" xml:space="preserve">
<style type="text/css">
	.st0{fill:#FFFFFF;stroke:#EAEAEA;}
	.st1{fill:#BCD1F1;stroke:#296CF2;stroke-width:0.7334;stroke-linecap:round;stroke-linejoin:round;stroke-miterlimit:10;}
	.st2{fill:none;stroke:#296CF2;stroke-width:0.7334;stroke-linecap:round;stroke-linejoin:round;stroke-miterlimit:10;}
	.st3{fill:#296CF2;}
	.st4{fill:#FFFFFF;}
</style>
<desc>Created with Sketch.</desc>
<circle id="Oval" class="st0" cx="21" cy="21" r="20"/>
<g>
	<polygon class="st1" points="16.2,30.8 16.2,8.7 9.6,13.4 9.6,28.8 	"/>
	<polygon class="st2" points="16.2,30.8 16.2,8.7 27.6,13.4 27.6,28.8 	"/>
	<line class="st2" x1="16.2" y1="13.4" x2="9.6" y2="17.3"/>
	<line class="st2" x1="16.2" y1="20" x2="9.6" y2="20.9"/>
	<line class="st2" x1="16.2" y1="26" x2="9.6" y2="24.6"/>
	<line class="st2" x1="16.2" y1="13.7" x2="27.6" y2="17.5"/>
	<line class="st2" x1="16.2" y1="20" x2="27.6" y2="21.2"/>
	<line class="st2" x1="16.2" y1="26" x2="27.6" y2="24.8"/>
</g>
<g>
	<path class="st3" d="M31.8,27.5c-0.2,0-0.5,0.2-0.5,0.5c0,0.2,0.2,0.5,0.5,0.5c0.2,0,0.5-0.2,0.5-0.5C32.2,27.7,32,27.5,31.8,27.5z
		"/>
	<path class="st3" d="M29.6,19.5c-3.6,0-6.5,2.9-6.5,6.5s2.9,6.5,6.5,6.5c3.6,0,6.5-2.9,6.5-6.5S33.2,19.5,29.6,19.5z M30.7,22.7
		c0-0.1,0.1-0.2,0.2-0.2h1.5c0.1,0,0.2,0.1,0.2,0.2v0.7c0,0.1-0.1,0.2-0.2,0.2h-0.7v2.7h0c-0.2,0-0.4,0.2-0.4,0.4v0.1
		c0,0-0.1,0-0.1,0l-0.1,0c-0.1,0-0.2-0.1-0.2-0.1c-0.1,0-0.1,0-0.1,0V22.7z M27.2,27.9c0,0.1-0.1,0.2-0.2,0.2h-0.7
		c-0.1,0-0.2-0.1-0.2-0.2v-1.5c0-0.1,0.1-0.2,0.2-0.2H27c0.1,0,0.2,0.1,0.2,0.2V27.9z M28.7,27.9c0,0.1-0.1,0.2-0.2,0.2h-0.7
		c-0.1,0-0.2-0.1-0.2-0.2V25c0-0.1,0.1-0.2,0.2-0.2h0.7c0.1,0,0.2,0.1,0.2,0.2V27.9z M30.2,27.9c0,0.1-0.1,0.2-0.2,0.2h-0.7
		c-0.1,0-0.2-0.1-0.2-0.2v-5.2c0-0.1,0.1-0.2,0.2-0.2H30c0.1,0,0.2,0.1,0.2,0.2V27.9z M32.9,27.9c0,0.1,0,0.2,0,0.2l0.2,0.1
		c0.1,0.1,0.1,0.2,0.1,0.3l-0.2,0.3c0,0.1-0.1,0.1-0.2,0.1c0,0-0.1,0-0.1,0l-0.2-0.1c-0.1,0.1-0.2,0.1-0.3,0.2v0.3
		c0,0.1-0.1,0.2-0.2,0.2h-0.3c-0.1,0-0.2-0.1-0.2-0.2v-0.3c-0.1,0-0.3-0.1-0.4-0.2l-0.2,0.1c0,0-0.1,0-0.1,0c-0.1,0-0.1,0-0.2-0.1
		l-0.2-0.3c-0.1-0.1,0-0.2,0.1-0.3l0.2-0.1c0-0.1,0-0.1,0-0.2c0-0.1,0-0.2,0-0.2l-0.2-0.1c-0.1-0.1-0.1-0.2-0.1-0.3l0.2-0.3
		c0,0,0.1-0.1,0.1-0.1c0,0,0,0,0,0c0,0,0,0,0,0c0,0,0.1,0,0.1,0l0.2,0.1c0.1-0.1,0.2-0.1,0.3-0.2v-0.3c0-0.1,0.1-0.2,0.2-0.2H32
		c0.1,0,0.2,0.1,0.2,0.2v0.3c0.1,0,0.3,0.1,0.4,0.2l0.2-0.1c0,0,0.1,0,0.1,0c0.1,0,0.1,0,0.2,0.1l0.2,0.3c0.1,0.1,0,0.2-0.1,0.3
		l-0.2,0.1C32.8,27.8,32.9,27.9,32.9,27.9z"/>
</g>
<path class="st4" d="M30.7,22.7c0-0.1,0.1-0.2,0.2-0.2h1.5c0.1,0,0.2,0.1,0.2,0.2v0.7c0,0.1-0.1,0.2-0.2,0.2h-0.7v2.7h0
	c-0.2,0-0.4,0.2-0.4,0.4v0.1c0,0-0.1,0-0.1,0l-0.1,0c-0.1,0-0.2-0.1-0.2-0.1c-0.1,0-0.1,0-0.1,0V22.7z"/>
<path class="st4" d="M27.2,27.9c0,0.1-0.1,0.2-0.2,0.2h-0.7c-0.1,0-0.2-0.1-0.2-0.2v-1.5c0-0.1,0.1-0.2,0.2-0.2H27
	c0.1,0,0.2,0.1,0.2,0.2V27.9z"/>
<path class="st4" d="M28.7,27.9c0,0.1-0.1,0.2-0.2,0.2h-0.7c-0.1,0-0.2-0.1-0.2-0.2V25c0-0.1,0.1-0.2,0.2-0.2h0.7
	c0.1,0,0.2,0.1,0.2,0.2V27.9z"/>
<path class="st4" d="M30.2,27.9c0,0.1-0.1,0.2-0.2,0.2h-0.7c-0.1,0-0.2-0.1-0.2-0.2v-5.2c0-0.1,0.1-0.2,0.2-0.2H30
	c0.1,0,0.2,0.1,0.2,0.2V27.9z"/>
</svg>
