<?xml version="1.0" encoding="utf-8"?>
<!-- Generator: Adobe Illustrator 25.1.0, SVG Export Plug-In . SVG Version: 6.00 Build 0)  -->
<svg version="1.1" id="레이어_1" xmlns="http://www.w3.org/2000/svg" xmlns:xlink="http://www.w3.org/1999/xlink" x="0px"
	 y="0px" viewBox="0 0 42 42" style="enable-background:new 0 0 42 42;" xml:space="preserve">
<style type="text/css">
	.st0{fill:#FFFFFF;stroke:#EAEAEA;}
	.st1{clip-path:url(#SVGID_2_);fill:#E45125;}
	.st2{clip-path:url(#SVGID_4_);fill:#FFB902;}
	.st3{clip-path:url(#SVGID_6_);fill:#80BA01;}
	.st4{clip-path:url(#SVGID_8_);fill:#19A0E5;}
	.st5{fill:#757575;stroke:#FFFFFF;}
	.st6{fill:#FFFFFF;stroke:#FFFFFF;}
	.st7{fill:none;stroke:#FFFFFF;}
</style>
<desc>Created with Sketch.</desc>
<circle id="Oval" class="st0" cx="21" cy="21" r="20"/>
<g>
	<g>
		<g>
			<defs>
				<rect id="SVGID_1_" x="9" y="23.4" width="2.6" height="5.5"/>
			</defs>
			<clipPath id="SVGID_2_">
				<use xlink:href="#SVGID_1_"  style="overflow:visible;"/>
			</clipPath>
			<rect x="3.5" y="17.9" class="st1" width="13.6" height="16.5"/>
		</g>
		<g>
			<defs>
				<rect id="SVGID_3_" x="13.8" y="17.4" width="2.6" height="11.5"/>
			</defs>
			<clipPath id="SVGID_4_">
				<use xlink:href="#SVGID_3_"  style="overflow:visible;"/>
			</clipPath>
			<rect x="8.3" y="11.9" class="st2" width="13.6" height="22.5"/>
		</g>
		<g>
			<defs>
				<rect id="SVGID_5_" x="18.6" y="11.2" width="2.6" height="17.6"/>
			</defs>
			<clipPath id="SVGID_6_">
				<use xlink:href="#SVGID_5_"  style="overflow:visible;"/>
			</clipPath>
			<rect x="13.1" y="5.7" class="st3" width="13.6" height="28.6"/>
		</g>
		<g>
			<defs>
				<polygon id="SVGID_7_" points="26.1,11.2 30.1,11.2 30.1,13.8 26.1,13.8 26.1,28.8 23.5,28.8 23.5,11.2 				"/>
			</defs>
			<clipPath id="SVGID_8_">
				<use xlink:href="#SVGID_7_"  style="overflow:visible;"/>
			</clipPath>
			<rect x="18" y="5.7" class="st4" width="17.6" height="28.6"/>
		</g>
	</g>
	<circle class="st5" cx="28" cy="25.8" r="5"/>
	<line class="st6" x1="28" y1="22.8" x2="28" y2="26.4"/>
	<line class="st6" x1="25.6" y1="27.6" x2="30.4" y2="27.6"/>
	<polyline class="st7" points="26.3,24.8 28,26.4 29.8,24.7 	"/>
</g>
</svg>
