<?xml version="1.0" encoding="UTF-8"?>
<svg width="42px" height="42px" viewBox="0 0 42 42" version="1.1" xmlns="http://www.w3.org/2000/svg" xmlns:xlink="http://www.w3.org/1999/xlink">
    <!-- Generator: Sketch 63 (92445) - https://sketch.com -->
    <title>ic_PostgresSQL</title>
    <desc>Created with Sketch.</desc>
    <g id="Icon-Set" stroke="none" stroke-width="1" fill="none" fill-rule="evenodd">
        <g id="ic_PostgresSQL" transform="translate(1.000000, 1.000000)">
            <circle id="Oval" stroke="#EAEAEA" fill="#FFFFFF" fill-rule="nonzero" cx="20" cy="20" r="20"></circle>
            <path d="M22.4907438,7.43103201 C24.0559541,7.02781466 25.7371058,6.85500723 27.3602868,7.14301962 C28.8095556,7.37342953 30.2008536,8.12226174 31.3022978,9.15910634 C31.7660638,9.61992616 32.2298298,10.1383485 32.4037421,10.7719757 C32.7515666,11.9240253 32.5776543,13.0760748 32.4037421,14.2281244 C31.8820053,16.9354408 30.8385318,19.5275523 29.4472338,21.9468564 C30.0849121,21.9468564 30.6646196,21.774049 31.3022978,21.7164465 C31.8820053,21.658844 32.5776543,22.0620614 32.6935958,22.6380861 C32.8675081,23.2717134 32.4617128,23.9053407 31.9979468,24.308558 C30.7225903,25.4030051 28.9834678,25.7486199 27.4182576,25.6910175 C27.3023161,27.3614893 27.3023161,29.0319612 26.6066671,30.5872281 C26.2588426,31.2784578 25.7950766,31.8544826 25.1573983,32.2576999 C24.5197201,32.6609173 23.8240711,32.8337247 23.1284221,32.9489297 C22.3748023,33.0641346 21.5052411,33.0065322 20.8095921,32.5457123 C20.1719139,32.142495 19.8240894,31.5088677 19.5922064,30.817638 C19.0704696,29.3775761 19.1284404,27.8799116 19.0124989,26.3822472 C17.9110546,26.843067 16.6936689,26.843067 15.5922246,26.4398497 C15.1864294,26.3246447 14.8386049,26.0942348 14.5487511,25.8062224 C13.9690436,26.2670422 13.2154239,26.4974522 12.4618041,26.3246447 C11.5342721,26.0942348 10.8965939,25.2878001 10.3748571,24.5389679 C9.50529589,23.1565084 8.98355915,21.6012415 8.51979315,20.0459746 C7.9980564,18.2602978 7.5342904,16.474621 7.3024074,14.5737393 C7.1864659,12.9032674 7.3024074,11.1751931 8.2299394,9.73513112 C8.9255884,8.58308156 10.2009449,7.77664688 11.5342721,7.48863449 C13.4473069,7.08541714 15.4183124,7.48863449 17.2154056,8.00705679 C17.7951131,7.7190444 18.3748206,7.43103201 19.0124989,7.31582705 C20.2298846,7.14301962 21.3892996,7.25822457 22.4907438,7.43103201 Z M27.7660821,7.7190444 C26.0849303,7.48863449 24.1718956,7.60383944 22.4327731,8.12226174 C22.3168316,8.17986422 22.1429193,8.06465926 22.0269778,8.06465926 C20.4617676,7.7190444 18.7226451,7.89185183 17.3893179,8.755889 C15.7661369,8.17986422 14.0270144,7.83424935 12.2878919,8.00705679 C11.0125354,8.12226174 9.67920814,8.755889 8.98355915,9.7927336 C8.05602715,11.1751931 7.94008565,12.9032674 8.05602715,14.4585343 C8.3458809,16.589826 8.86761765,18.6635152 9.50529589,20.6796019 C9.96906189,21.9468564 10.4328279,23.2141109 11.1864476,24.308558 C11.5922429,24.8269803 12.1139796,25.4030051 12.8096286,25.4606076 C13.4473069,25.51821 13.9690436,25.1725952 14.3748389,24.7117753 C15.0704879,23.9053407 15.7081661,23.1565084 16.4038151,22.4076762 C16.8675811,22.6380861 17.3893179,22.7532911 17.8530839,22.8108936 C17.5632301,23.1565084 17.3313471,23.5597258 16.9255519,23.6749307 C16.3458444,23.9053407 15.6501954,23.8477382 15.1284586,24.2509555 C14.8386049,24.4813654 14.7806341,24.9421853 15.0704879,25.1725952 C15.5342539,25.633415 16.2878736,25.7486199 16.9255519,25.8062224 C17.8530839,25.8638249 18.7806159,25.5758125 19.4762649,24.9421853 C19.4762649,26.3822472 19.4762649,27.8799116 19.6501771,29.3199736 C19.7081479,30.1840107 20.1139431,31.0480479 20.7516213,31.5664702 C21.3313288,32.0848925 22.2588608,32.2000975 23.0124806,32.0848925 C23.7661003,31.9120851 24.5776908,31.6816752 25.1573983,31.2208553 C25.7950766,30.6448306 26.0849303,29.8383959 26.2008718,29.0319612 C26.4327548,27.5918992 26.6066671,26.1518373 26.7805793,24.6541729 C28.4037603,24.9421853 30.2588243,24.5965704 31.4762101,23.4445208 C31.7080931,23.2141109 31.9979468,22.7532911 31.7080931,22.4652787 C31.4762101,22.1772663 31.0124441,22.2348688 30.6646196,22.2924713 C29.8530291,22.4652787 28.9254971,22.6380861 28.1139066,22.2348688 C29.5631753,19.9307697 30.7225903,17.4538631 31.3602686,14.8041492 C31.5921516,13.824907 31.7660638,12.7880624 31.7660638,11.7512178 C31.7080931,11.1751931 31.6501223,10.5415658 31.3022978,10.080746 C30.4327366,8.92869643 29.1573801,8.12226174 27.7660821,7.7190444 Z M19.650409,8.69805611 C21.4475022,8.4676462 23.360537,8.9860685 24.8098057,10.0805156 C25.9692207,11.0021552 26.9547235,12.2694097 27.4184895,13.7094717 C26.606899,13.7094717 25.6213962,13.6518692 24.9257472,14.227894 C24.288069,14.7463163 24.2300982,15.6103534 24.3460397,16.3597617 C24.6938642,18.1448625 25.7373377,19.6425269 26.4909575,21.1977938 C26.6648697,21.6010111 26.9547235,21.8890235 27.2445772,22.2352144 C26.8967527,22.4080219 26.606899,22.5232268 26.4329867,22.8682656 C26.143133,23.387264 26.2590745,23.9632888 26.143133,24.5393135 C25.9692207,26.0940044 25.7953085,27.6492713 25.5634255,29.2045382 C25.447484,29.9533704 25.0996595,30.7603811 24.4040105,31.10542 C23.7083615,31.4516109 22.8388002,31.6814448 22.0272097,31.5662398 C21.27359,31.4516109 20.7518532,30.7022026 20.577941,30.0115489 C20.4040287,29.4355241 20.4040287,28.8013209 20.346058,28.2252961 C20.2880872,26.7852341 20.2880872,25.3451722 20.2880872,23.9051102 C20.346058,23.3290855 20.0562042,22.7530607 19.5344675,22.4650483 C19.3025845,22.3498433 19.0127307,22.2922409 18.722877,22.2922409 C18.95476,21.2559723 19.5924382,20.3337566 19.8243212,19.2398856 C20.114175,17.9144526 19.9402627,16.5895956 19.650409,15.2647386 C19.5344675,14.6316873 19.0127307,14.0556626 18.3750525,13.8822791 C17.331579,13.6518692 16.3460762,13.9974841 15.4185443,14.4583039 C15.5344858,13.0182419 15.940281,11.5205775 16.8098422,10.3115015 C17.5054912,9.44746435 18.5489647,8.87143957 19.650409,8.69805611 Z M18.8967313,23.0411883 C19.418468,22.9835858 19.882234,23.7900205 19.418468,24.1932378 C18.6068775,25.2876849 16.9257258,25.5180948 15.7663108,24.8844676 C16.3460183,24.6540577 17.0416673,24.6540577 17.6213748,24.3084428 C18.1431115,24.0204304 18.3749945,23.3873792 18.8967313,23.0411883 Z M11.9402993,8.81343387 C13.5634803,8.52542148 15.1866613,8.81343387 16.7518715,9.2742537 C16.0562225,10.0230859 15.5344858,10.8871231 15.244632,11.8663652 C14.8388368,13.1336197 14.6649245,14.5160792 14.7228953,15.8985386 C14.780866,16.8777808 14.780866,17.7994204 14.6069538,18.7786625 C14.4330415,19.9883146 14.9547783,21.2555691 15.8823103,22.1196062 C15.244632,22.8684385 14.6069538,23.5596682 13.9692755,24.3085004 C13.6794218,24.6541153 13.3315973,24.9997301 12.8678313,24.8845252 C12.3460945,24.7117177 11.99827,24.2508979 11.7084163,23.7900781 C10.8968258,22.5228236 10.4330598,21.0827616 9.96929377,19.6426997 C9.44755703,17.9722278 9.04176178,16.2441535 8.80987878,14.4584767 C8.69393728,13.1336197 8.75190803,11.6935578 9.44755703,10.5415082 C9.96929377,9.61986856 10.8968258,9.04384378 11.9402993,8.81343387 Z M27.1865485,23.1563932 C27.3604607,23.0411883 27.6503145,22.8683809 27.8821975,23.0411883 C28.8097295,23.5596106 29.9111737,23.2715982 30.9546472,23.1563932 C30.316969,23.732418 29.5053785,24.0204304 28.6358172,24.1356354 C28.0561097,24.1932378 27.4764022,24.2514163 26.9546655,24.0204304 C26.9546655,23.732418 26.9546655,23.3873792 27.1865485,23.1563932 Z M17.6937314,14.5685905 L17.9110546,14.5736241 C18.3748206,14.5736241 18.7806159,14.9192389 18.8965574,15.3800587 C19.3023526,16.9929281 19.4182941,18.7786049 18.6646744,20.3338718 C18.3748206,20.9098966 18.1429376,21.5435239 17.9690254,22.1771511 C16.6356981,22.1771511 15.5342539,21.0832801 15.3023709,19.873052 C15.1284586,19.1818223 15.3603416,18.4905925 15.3603416,17.7993628 C15.4762831,16.9353256 15.4183124,16.1864934 15.4183124,15.3800587 C16.1719321,14.9192389 17.0414934,14.5160216 17.9110546,14.5736241 Z M23.7082455,8.58302396 C25.1575143,8.23740909 26.7806953,8.29501157 28.1719933,8.81343387 C29.157496,9.15904874 30.0270573,9.85027847 30.6647355,10.6567132 C31.01256,11.0599305 31.01256,11.5783528 31.01256,12.0391726 C31.01256,13.1912222 30.780677,14.2856693 30.4908233,15.4377188 C29.9111158,17.4538055 29.0995253,19.4122898 27.998081,21.1979666 C27.8821395,21.370774 27.766198,21.5435815 27.6502565,21.7163889 C27.6502565,21.6587864 27.5922858,21.5435815 27.5922858,21.5435815 C27.7082273,21.1979666 27.9401103,20.8523517 27.998081,20.5067369 C28.2879348,19.4698923 28.0560518,18.3754452 27.9401103,17.3386006 C27.8241688,16.3593585 28.1719933,15.3801163 28.1719933,14.4008742 C28.2154713,14.0552594 28.0959067,13.7096445 27.9600377,13.3640296 L27.8241688,13.0184148 C27.1285198,11.5207503 26.0850463,10.1958933 24.6937483,9.2742537 C24.4618653,8.98624131 24.05607,8.81343387 23.7082455,8.58302396 Z M25.447426,14.7466043 C26.0271335,14.3433869 26.838724,14.4009894 27.4764022,14.4585919 C27.4184315,15.3802315 27.1285777,16.3018712 27.2445192,17.2811133 C27.3604607,18.4331629 27.6503145,19.7004174 27.1285777,20.8524669 C26.374958,19.3548025 25.3894552,17.972343 25.0996015,16.3018712 C25.0416307,15.7834489 25.0416307,15.1498216 25.447426,14.7466043 Z M18.5487329,15.2072513 C18.2588791,14.9768414 17.8530839,14.9192389 17.5052594,15.0344439 C17.3893179,15.0920464 17.2733764,15.1496488 17.2733764,15.2648538 C17.3313471,15.7256736 17.9690254,16.013686 18.3748206,15.7256736 C18.5487329,15.6104687 18.7226451,15.3800587 18.5487329,15.2072513 Z M26.838724,14.8618092 C26.4908995,14.7466043 26.0271335,14.7466043 25.679309,14.9770142 C25.5053967,15.1498216 25.679309,15.3802315 25.8532212,15.437834 C26.2590165,15.6682439 26.838724,15.3226291 26.838724,14.8618092 Z" id="PostgreSQL_logo" fill="#417BA2"></path>
        </g>
    </g>
</svg>