<?xml version="1.0" encoding="UTF-8"?>
<svg width="42px" height="42px" viewBox="0 0 42 42" version="1.1" xmlns="http://www.w3.org/2000/svg" xmlns:xlink="http://www.w3.org/1999/xlink">
    <!-- Generator: Sketch 63 (92445) - https://sketch.com -->
    <title>ic_python</title>
    <desc>Created with Sketch.</desc>
    <g id="Icon-Set" stroke="none" stroke-width="1" fill="none" fill-rule="evenodd">
        <g id="ic_python" transform="translate(1.000000, 1.000000)" fill-rule="nonzero">
            <circle id="Oval" stroke="#EAEAEA" fill="#FFFFFF" cx="20" cy="20" r="20"></circle>
            <g id="Python_simbol" transform="translate(7.600000, 8.000000)">
                <path d="M11.8411325,0 C11.8175572,0 11.793982,0 11.7704068,0.000212389381 C10.7968138,0.00467256637 9.86718552,0.0877168144 9.04927408,0.232566372 C6.63950414,0.65819469 6.20176962,1.54938053 6.20176962,3.19284956 L6.20176962,5.36304425 L11.8965661,5.36304425 L11.8965661,6.08665486 L6.20176962,6.08665486 L4.06470767,6.08665486 C2.40976962,6.08665486 0.960424488,7.08127434 0.506973161,8.97366368 C0.245734223,10.0581239 0.109167851,10.9389026 0.1061944,11.8315752 L0.1061944,11.8884956 C0.108955462,12.7626902 0.23978732,13.6530266 0.506973161,14.7612743 C0.911999712,16.4472212 1.87879617,17.6484956 3.53373422,17.6484956 L5.49175192,17.6484956 L5.49175192,15.0467257 C5.49175192,13.1670797 7.11801741,11.5091682 9.04927408,11.5091682 L14.7372741,11.5091682 C16.3204245,11.5091682 17.5845661,10.2055222 17.5845661,8.6153628 L17.5845661,3.19284956 C17.5845661,1.64962832 16.2826192,0.489982301 14.7372741,0.232566372 C13.7900174,0.0747610619 12.8079289,0.000424778761 11.8625838,0 L11.8411325,0 Z M7.6222298,2.83433628 C7.6222298,2.2341239 8.10053068,1.74562832 8.6907608,1.74562832 C9.27886696,1.74562832 9.75929176,2.2341239 9.75929176,2.83433628 C9.75929176,3.43242478 9.27886696,3.9160354 8.6907608,3.9160354 C8.10053068,3.9160354 7.6222298,3.43242478 7.6222298,2.83433628 Z" id="Fill-1" fill="#306998"></path>
                <path d="M18.2947962,6.08665486 L18.2947962,8.6153628 C18.2947962,10.5759292 16.6324245,12.2259823 14.7372741,12.2259823 L9.04927408,12.2259823 C7.49118555,12.2259823 6.20176962,13.5593628 6.20176962,15.1197876 L6.20176962,20.5423009 C6.20176962,22.0855222 7.54364573,22.9936991 9.04927408,23.4361062 C9.97869,23.7096637 10.8885661,23.867469 11.8475042,23.8704425 L11.9027254,23.8704425 C12.7869024,23.8676814 13.7137696,23.733239 14.7372741,23.4361062 C16.1709024,23.020885 17.5845661,22.1853451 17.5845661,20.5423009 L17.5845661,18.3718938 L11.8965661,18.3718938 L11.8965661,17.6484956 L17.5845661,17.6484956 L20.4320705,17.6484956 C22.0870086,17.6484956 22.703575,16.4941593 23.2791502,14.7612743 C23.8738404,12.9776283 23.8485661,11.2619469 23.2791502,8.97366368 C22.8703006,7.3261593 22.0891325,6.08665486 20.4320705,6.08665486 L18.2947962,6.08665486 Z M14.0270439,20.9008142 C14.0270439,20.3025133 14.5074687,19.8189026 15.095575,19.8189026 C15.6860174,19.8189026 16.1641059,20.3025133 16.1641059,20.9008142 C16.1641059,21.5010266 15.6860174,21.9893098 15.095575,21.9893098 C14.5074687,21.9893098 14.0270439,21.5010266 14.0270439,20.9008142 Z" id="Fill-4" fill="#FFCC00"></path>
            </g>
        </g>
    </g>
</svg>