<?xml version="1.0" encoding="UTF-8"?>
<svg width="42px" height="42px" viewBox="0 0 42 42" version="1.1" xmlns="http://www.w3.org/2000/svg" xmlns:xlink="http://www.w3.org/1999/xlink">
    <!-- Generator: Sketch 63 (92445) - https://sketch.com -->
    <title>ic_php</title>
    <desc>Created with Sketch.</desc>
    <g id="Icon-Set" stroke="none" stroke-width="1" fill="none" fill-rule="evenodd">
        <g id="ic_php" transform="translate(1.000000, 1.000000)">
            <circle id="Oval" stroke="#EAEAEA" fill="#FFFFFF" fill-rule="nonzero" cx="20" cy="20" r="20"></circle>
            <path d="M20.0000666,11 C29.775306,11 37.7,15.0295155 37.7,20 C37.7,24.9705513 29.775306,29 20.0000666,29 C10.2247606,29 2.3,24.9705513 2.3,20 C2.3,15.0295155 10.2247606,11 20.0000666,11 Z M29.6513234,15.7014357 L25.5837477,15.7014357 L23.6965605,25.4440772 L25.8117931,25.4440772 L26.313453,22.8538558 L28.1252913,22.8538558 C28.9247493,22.8538558 29.5823701,22.7697655 30.0986868,22.6009834 C30.6150034,22.4326691 31.0842186,22.1500509 31.5065989,21.7534629 C31.8610253,21.4265937 32.1477642,21.065968 32.3674153,20.6716528 C32.5867999,20.2776717 32.7426942,19.8426482 32.8348318,19.3669165 C33.0586134,18.2120454 32.8897945,17.31252 32.3286416,16.6680729 C31.7675553,16.0236258 30.8750271,15.7014357 29.6513234,15.7014357 L29.6513234,15.7014357 Z M13.1414499,15.7014357 L9.07394083,15.7014357 L7.18668699,25.4440772 L9.3019196,25.4440772 L9.80364612,22.8538558 L11.6154178,22.8538558 C12.4148758,22.8538558 13.0724966,22.7697655 13.5888132,22.6009834 C14.1051299,22.4326691 14.5743451,22.1500509 14.9967254,21.7534629 C15.3511518,21.4265937 15.6379573,21.065968 15.8576084,20.6716528 C16.076993,20.2776717 16.2328873,19.8426482 16.3250248,19.3669165 C16.5488065,18.2120454 16.379921,17.31252 15.8188347,16.6680729 C15.2577484,16.0236258 14.3651536,15.7014357 13.1414499,15.7014357 L13.1414499,15.7014357 Z M19.9770822,13.1112143 L17.878505,13.1112143 L15.9912511,22.8538558 L18.0898284,22.8538558 L19.1708288,17.2722796 L20.8480917,17.2722796 C21.3849944,17.2722796 21.736023,17.3615838 21.9010445,17.5399247 C22.0659993,17.7182656 22.100909,18.0527551 22.0059067,18.5431258 L22.0059067,18.5431258 L21.1710727,22.8538558 L23.3029607,22.8538558 L24.1809654,18.3201328 C24.3595111,17.3978803 24.2257351,16.7307061 23.7791712,16.3189445 C23.3326073,15.9074502 22.5211574,15.7014357 21.3448882,15.7014357 L21.3448882,15.7014357 L19.4753557,15.7014357 L19.9770822,13.1112143 Z M28.8502931,17.2388641 C29.6539483,17.2388641 30.1895185,17.3877266 30.4572703,17.6853848 C30.7248889,17.9830431 30.788579,18.4940018 30.6485407,19.2180606 C30.5023065,19.9721994 30.220764,20.5103639 29.8033137,20.8328214 C29.3858634,21.1552789 28.7506274,21.3163739 27.8978722,21.3163739 L27.8978722,21.3163739 L26.6112778,21.3163739 L27.401009,17.2388641 Z M12.3404596,17.2388641 C13.1441147,17.2388641 13.679685,17.3877266 13.9474368,17.6853848 C14.2149887,17.9830431 14.2787455,18.4940018 14.1387071,19.2180606 C13.9924729,19.9721994 13.7108638,20.5103639 13.2934801,20.8328214 C12.8760298,21.1552789 12.2407938,21.3163739 11.387972,21.3163739 L11.387972,21.3163739 L10.1013776,21.3163739 L10.8911755,17.2388641 Z" id="PHP_logo" fill="#777BB4"></path>
        </g>
    </g>
</svg>