<?xml version="1.0" encoding="utf-8"?>
<!-- Generator: Adobe Illustrator 25.1.0, SVG Export Plug-In . SVG Version: 6.00 Build 0)  -->
<svg version="1.1" id="레이어_1" xmlns="http://www.w3.org/2000/svg" xmlns:xlink="http://www.w3.org/1999/xlink" x="0px"
	 y="0px" viewBox="0 0 42 42" style="enable-background:new 0 0 42 42;" xml:space="preserve">
<style type="text/css">
	.st0{fill:#FFFFFF;stroke:#EAEAEA;}
	.st1{fill:#BCD1F1;stroke:#296CF2;stroke-width:0.75;stroke-miterlimit:10;}
	.st2{fill:#FFFFFF;stroke:#296CF2;stroke-width:0.75;stroke-linejoin:round;stroke-miterlimit:10;}
	.st3{fill:#FFFFFF;stroke:#296CF2;stroke-width:0.75;stroke-miterlimit:10;}
	.st4{fill:none;stroke:#296CF2;stroke-miterlimit:10;}
	.st5{fill:none;stroke:#296CF2;stroke-width:0.75;stroke-miterlimit:10;}
	.st6{fill:#296CF2;}
</style>
<desc>Created with Sketch.</desc>
<circle id="Oval" class="st0" cx="21" cy="21" r="20"/>
<g>
	<path class="st1" d="M8.4,25.7v2.7c0,0.9,0.7,1.6,1.6,1.6h6.6h0.7c1.3,0,2.2,0.4,2.8,0.9c0.5,0.4,1.3,0.4,1.8,0
		c0.6-0.5,1.5-0.9,2.8-0.9h0.7H32c0.9,0,1.6-0.7,1.6-1.6v-2.7H8.4z"/>
	<path class="st2" d="M24.7,28h7.4c0.8,0,1.5-0.7,1.5-1.5V12.3c-0.1-0.8-0.7-1.5-1.5-1.5h-8.6c-1.4,0-2.5,1.1-2.5,2.5v16.1"/>
	<path class="st3" d="M21,29.4V13.3c0-1.4-1.1-2.5-2.5-2.5H9.9c-0.8,0-1.5,0.7-1.5,1.5v14.3C8.4,27.4,9,28,9.7,28h3.8h3.8"/>
	<path class="st4" d="M18.7,27.2"/>
	<path class="st4" d="M12.7,27.2"/>
	<g>
		<line class="st5" x1="12.6" y1="18" x2="18.6" y2="18"/>
		<circle class="st6" cx="11.3" cy="18" r="0.6"/>
	</g>
	<g>
		<line class="st5" x1="12.6" y1="14.6" x2="18.6" y2="14.6"/>
		<circle class="st6" cx="11.3" cy="14.5" r="0.6"/>
	</g>
	<path class="st5" d="M17.3,28c1.5,0,2.4,0.6,3,1.1c0.4,0.4,1,0.4,1.4,0c0.6-0.5,1.5-1.1,3-1.1"/>
	<g>
		<line class="st5" x1="12.6" y1="21.4" x2="18.6" y2="21.4"/>
		<circle class="st6" cx="11.3" cy="21.4" r="0.6"/>
	</g>
	<g>
		<line class="st5" x1="12.6" y1="24.8" x2="18.6" y2="24.8"/>
		<circle class="st6" cx="11.3" cy="24.8" r="0.6"/>
	</g>
	<g>
		<line class="st5" x1="25.3" y1="18" x2="31.3" y2="18"/>
		<circle class="st6" cx="24" cy="18" r="0.6"/>
	</g>
	<g>
		<line class="st5" x1="25.3" y1="14.6" x2="31.3" y2="14.6"/>
		<circle class="st6" cx="24" cy="14.5" r="0.6"/>
	</g>
	<g>
		<line class="st5" x1="25.3" y1="21.4" x2="31.3" y2="21.4"/>
		<circle class="st6" cx="24" cy="21.4" r="0.6"/>
	</g>
	<g>
		<line class="st5" x1="25.3" y1="24.8" x2="31.3" y2="24.8"/>
		<circle class="st6" cx="24" cy="24.8" r="0.6"/>
	</g>
</g>
</svg>
