<?xml version="1.0" encoding="utf-8"?>
<!-- Generator: Adobe Illustrator 25.1.0, SVG Export Plug-In . SVG Version: 6.00 Build 0)  -->
<svg version="1.1" id="레이어_1" xmlns="http://www.w3.org/2000/svg" xmlns:xlink="http://www.w3.org/1999/xlink" x="0px"
	 y="0px" viewBox="0 0 42 42" style="enable-background:new 0 0 42 42;" xml:space="preserve">
<style type="text/css">
	.st0{fill:#FFFFFF;stroke:#EAEAEA;}
	.st1{clip-path:url(#SVGID_2_);fill:#00C5B1;}
</style>
<desc>Created with Sketch.</desc>
<g id="Icon-Set">
	<g id="ic_nodejs" transform="translate(1.000000, 1.000000)">
		<circle id="Oval" class="st0" cx="20" cy="20" r="20"/>
		<g>
			<defs>
				<path id="SVGID_1_" d="M27,11h-9v2h9V11z M15,11h-2v2h2V11z M29,9v6H11V9H29z M27,19h-9v2h9V19z M15,19h-2v2h2V19z M29,17v6H11
					v-6H29z M27,27h-9v2h9V27z M15,27h-2v2h2V27z M29,25v6H11v-6H29z"/>
			</defs>
			<use xlink:href="#SVGID_1_"  style="overflow:visible;fill-rule:evenodd;clip-rule:evenodd;fill:#00C5B1;"/>
			<clipPath id="SVGID_2_">
				<use xlink:href="#SVGID_1_"  style="overflow:visible;"/>
			</clipPath>
			<rect x="6" y="4" class="st1" width="28" height="32"/>
		</g>
	</g>
</g>
</svg>
