<?xml version="1.0" encoding="utf-8"?>
<!-- Generator: Adobe Illustrator 25.1.0, SVG Export Plug-In . SVG Version: 6.00 Build 0)  -->
<svg version="1.1" id="레이어_1" xmlns="http://www.w3.org/2000/svg" xmlns:xlink="http://www.w3.org/1999/xlink" x="0px"
	 y="0px" viewBox="0 0 42 42" style="enable-background:new 0 0 42 42;" xml:space="preserve">
<style type="text/css">
	.st0{fill:#FFFFFF;stroke:#EAEAEA;}
	.st1{fill:#FFFFFF;stroke:#296CF2;stroke-width:0.75;stroke-linecap:round;stroke-linejoin:round;stroke-miterlimit:10;}
	.st2{fill:none;stroke:#296CF2;stroke-width:0.75;stroke-miterlimit:10;}
	.st3{fill:#BCD1F1;stroke:#296CF2;stroke-width:0.75;stroke-linecap:round;stroke-linejoin:round;stroke-miterlimit:10;}
	.st4{fill:none;stroke:#296CF2;stroke-width:0.75;stroke-linecap:round;stroke-linejoin:round;stroke-miterlimit:10;}
	.st5{fill:none;stroke:#296CF2;stroke-width:0.5;stroke-linecap:round;stroke-linejoin:round;stroke-miterlimit:10;}
</style>
<desc>Created with Sketch.</desc>
<circle id="Oval" class="st0" cx="21" cy="21" r="20"/>
<g>
	<path class="st1" d="M17.4,17c0.8-1.2,1.8-2.3,2.9-3.5C24.7,9.1,31.7,9,31.7,9s-0.1,7-4.5,11.3c-1.1,1.1-2.3,2.1-3.5,2.9"/>
	<line class="st2" x1="25.2" y1="10.4" x2="30.3" y2="15.4"/>
	<path class="st1" d="M18.6,19.9c0,0-1.7-1.2-4.7,1.8l2.5,2.5"/>
	<path class="st1" d="M17.7,15.8c0,0-1.7-1.2-4.7,1.8l2.5,2.5"/>
	<path class="st1" d="M20.8,22.1c0,0,1.2,1.7-1.8,4.7l-2.5-2.5"/>
	<path class="st1" d="M24.9,23c0,0,1.2,1.7-1.8,4.7l-2.5-2.5"/>
	<circle class="st3" cx="24.7" cy="16" r="1.6"/>
	<line class="st4" x1="12.6" y1="23.7" x2="10" y2="26.3"/>
	<line class="st4" x1="14.8" y1="25.9" x2="9.2" y2="31.5"/>
	<line class="st4" x1="17" y1="28" x2="14.4" y2="30.6"/>
	<g>
		<g>
			<g>
				<line class="st5" x1="12" y1="9.7" x2="11.3" y2="9.1"/>
			</g>
			<g>
				<line class="st5" x1="13.9" y1="11.7" x2="13.3" y2="11.1"/>
			</g>
		</g>
		<g>
			<g>
				<line class="st5" x1="13.3" y1="9.7" x2="13.9" y2="9.1"/>
			</g>
			<g>
				<line class="st5" x1="11.3" y1="11.7" x2="12" y2="11.1"/>
			</g>
		</g>
	</g>
	<g>
		<g>
			<g>
				<line class="st5" x1="33.9" y1="19.4" x2="33.2" y2="18.7"/>
			</g>
			<g>
				<line class="st5" x1="35.9" y1="21.3" x2="35.2" y2="20.7"/>
			</g>
		</g>
		<g>
			<g>
				<line class="st5" x1="35.2" y1="19.4" x2="35.9" y2="18.7"/>
			</g>
			<g>
				<line class="st5" x1="33.2" y1="21.3" x2="33.9" y2="20.7"/>
			</g>
		</g>
	</g>
	<g>
		<g>
			<g>
				<line class="st5" x1="22.4" y1="32.8" x2="21.8" y2="32.1"/>
			</g>
			<g>
				<line class="st5" x1="24.4" y1="34.8" x2="23.7" y2="34.1"/>
			</g>
		</g>
		<g>
			<g>
				<line class="st5" x1="23.7" y1="32.8" x2="24.4" y2="32.1"/>
			</g>
			<g>
				<line class="st5" x1="21.8" y1="34.8" x2="22.4" y2="34.1"/>
			</g>
		</g>
	</g>
	<path class="st4" d="M31.7,9"/>
	<path class="st3" d="M25.2,10.4l5.1,5c1.3-3.3,1.4-6.4,1.4-6.4S28.6,9.1,25.2,10.4z"/>
</g>
</svg>
