<?xml version="1.0" encoding="utf-8"?>
<!-- Generator: Adobe Illustrator 25.1.0, SVG Export Plug-In . SVG Version: 6.00 Build 0)  -->
<svg version="1.1" id="레이어_1" xmlns="http://www.w3.org/2000/svg" xmlns:xlink="http://www.w3.org/1999/xlink" x="0px"
	 y="0px" viewBox="0 0 42 42" style="enable-background:new 0 0 42 42;" xml:space="preserve">
<style type="text/css">
	.st0{fill:#FFFFFF;stroke:#EAEAEA;}
	.st1{fill:none;stroke:#296CF2;stroke-width:0.75;stroke-linecap:round;stroke-miterlimit:10;}
	.st2{fill:#BCD1F1;stroke:#296CF2;stroke-width:0.75;stroke-linecap:round;stroke-miterlimit:10;}
</style>
<desc>Created with Sketch.</desc>
<circle id="Oval" class="st0" cx="21" cy="21" r="20"/>
<g>
	<path class="st1" d="M30.1,28.9H9.9c-0.8,0-1.4-0.6-1.4-1.3V12.5c0-0.7,0.6-1.3,1.4-1.3h20.3c0.8,0,1.4,0.6,1.4,1.3v15.1
		C31.5,28.3,30.9,28.9,30.1,28.9z"/>
	<path class="st1" d="M33.6,14.4v13.4c0,1.7-1.4,3.1-3.1,3.1H11.9"/>
	<line class="st1" x1="8.4" y1="14.1" x2="31.3" y2="14.1"/>
	<path class="st2" d="M24.3,20.3h-0.7c-0.1-0.2-0.1-0.3-0.2-0.5l0.5-0.5c0.3-0.3,0.3-0.8,0-1.2l-0.6-0.6c-0.3-0.3-0.8-0.3-1.2,0
		l-0.5,0.5c-0.2-0.1-0.3-0.2-0.5-0.2v-0.7c0-0.5-0.4-0.8-0.8-0.8h-0.8c-0.5,0-0.8,0.4-0.8,0.8v0.7c-0.2,0.1-0.3,0.1-0.5,0.2
		l-0.5-0.5c-0.3-0.3-0.8-0.3-1.2,0L16,18.2c-0.3,0.3-0.3,0.8,0,1.2l0.5,0.5c-0.1,0.2-0.2,0.3-0.2,0.5h-0.7c-0.5,0-0.8,0.4-0.8,0.8
		V22c0,0.5,0.4,0.8,0.8,0.8h0.7c0.1,0.2,0.1,0.3,0.2,0.5L16,23.7c-0.3,0.3-0.3,0.8,0,1.2l0.6,0.6c0.3,0.3,0.8,0.3,1.2,0l0.5-0.5
		c0.2,0.1,0.3,0.2,0.5,0.2v0.7c0,0.5,0.4,0.8,0.8,0.8h0.8c0.5,0,0.8-0.4,0.8-0.8v-0.7c0.2-0.1,0.3-0.1,0.5-0.2l0.5,0.5
		c0.3,0.3,0.8,0.3,1.2,0l0.6-0.6c0.3-0.3,0.3-0.8,0-1.2l-0.5-0.5c0.1-0.2,0.2-0.3,0.2-0.5h0.7c0.5,0,0.8-0.4,0.8-0.8v-0.8
		C25.1,20.7,24.8,20.3,24.3,20.3z M20,23c-0.8,0-1.4-0.6-1.4-1.4s0.6-1.4,1.4-1.4s1.4,0.6,1.4,1.4S20.8,23,20,23z"/>
	<circle class="st1" cx="10.4" cy="12.6" r="0.1"/>
	<circle class="st1" cx="12.2" cy="12.6" r="0.1"/>
	<circle class="st1" cx="14" cy="12.6" r="0.1"/>
</g>
</svg>
