<?xml version="1.0" encoding="UTF-8"?>
<svg width="42px" height="42px" viewBox="0 0 42 42" version="1.1" xmlns="http://www.w3.org/2000/svg" xmlns:xlink="http://www.w3.org/1999/xlink">
    <!-- Generator: Sketch 63 (92445) - https://sketch.com -->
    <title>ic_sql</title>
    <desc>Created with Sketch.</desc>
    <defs>
        <linearGradient x1="58.3153043%" y1="76.6283677%" x2="-1.11226569%" y2="13.2342857%" id="linearGradient-1">
            <stop stop-color="#EFB673" stop-opacity="0" offset="0%"></stop>
            <stop stop-color="#EFB673" offset="100%"></stop>
        </linearGradient>
    </defs>
    <g id="Icon-Set" stroke="none" stroke-width="1" fill="none" fill-rule="evenodd">
        <g id="ic_sql" transform="translate(1.000000, 1.000000)">
            <circle id="Oval" stroke="#EAEAEA" fill="#FFFFFF" fill-rule="nonzero" cx="20" cy="20" r="20"></circle>
            <g id="Group-21" transform="translate(7.235915, 7.500000)">
                <path d="M1.09559859,0.968838028 C0.961267606,1.01320423 0.901056338,1.06989437 0.858626761,1.20598592 L0.858626761,1.20598592 C0.724471831,1.40739437 0.847183099,1.72112676 0.937676056,1.91725352 L0.937676056,1.91725352 C1.1915493,2.46901408 1.5584507,2.80475352 1.88609155,3.26091549 L1.88609155,3.26091549 C2.1818662,3.67271127 2.54242958,4.1415493 2.75545775,4.60457746 L2.75545775,4.60457746 C3.20123239,5.57341549 3.39911972,6.64929577 3.82235915,7.60809859 L3.82235915,7.60809859 C3.98503521,7.97605634 4.21971831,8.39577465 4.45475352,8.71461268 L4.45475352,8.71461268 C4.64471831,8.97235915 4.98415493,9.16742958 5.08714789,9.50492958 L5.08714789,9.50492958 C5.30228873,9.8431338 4.77007042,10.9963028 4.65228873,11.3623239 L4.65228873,11.3623239 C4.19700704,12.7772887 4.2931338,14.7566901 4.81038732,15.9860915 L4.81038732,15.9860915 C5.01478873,16.4721831 5.2084507,17.0387324 5.75880282,17.1714789 L5.75880282,17.1714789 C5.79929577,17.1396127 5.76848592,17.1570423 5.83785211,17.1320423 L5.83785211,17.1320423 C5.95492958,16.1853873 5.9959507,15.2725352 6.31197183,14.5237676 L6.31197183,14.5237676 C6.50985915,14.0556338 6.88644366,13.7346831 7.14207746,13.3383803 L7.14207746,13.3383803 C7.32940141,13.4463028 7.32852113,13.7617958 7.41830986,13.9705986 L7.41830986,13.9705986 C7.65193662,14.5117958 7.89260563,15.0985915 8.1693662,15.6304577 L8.1693662,15.6304577 C8.74911972,16.7441901 9.38573944,17.8142606 10.1056338,18.7920775 L10.1056338,18.7920775 C10.3616197,19.1390845 10.7054577,19.5161972 11.0147887,19.8193662 L11.0147887,19.8193662 C11.1133803,19.9161972 11.2286972,19.9776408 11.3235915,20.0704225 L11.3235915,20.0704225 L19.481162,20.0704225 C19.6251761,19.9239437 19.9082746,19.9019366 20.1036972,19.8193662 L20.1036972,19.8193662 C21.0114437,19.4364437 22.0728873,19.3072183 23.4626761,19.3450704 L23.4626761,19.3450704 C23.4198944,18.9878521 22.5577465,18.5545775 22.2774648,18.3570423 L22.2774648,18.3570423 C21.7163732,17.9619718 21.1366197,17.5322183 20.5383803,17.1714789 L20.5383803,17.1714789 C20.2253521,16.9827465 19.6836268,16.8369718 19.352993,16.6975352 L19.352993,16.6975352 C18.881338,16.4980634 17.8434859,16.3056338 17.5746479,15.9464789 L17.5746479,15.9464789 C17.0635563,15.2635563 16.7110915,14.4353873 16.3498239,13.6147887 L16.3498239,13.6147887 C15.9869718,12.7922535 15.528169,11.9267606 15.1640845,11.0857394 L15.1640845,11.0857394 C14.9836268,10.668662 14.8950704,10.2931338 14.6897887,9.9 L14.6897887,9.9 C13.4158451,7.45774648 11.5538732,5.41056338 9.27605634,3.9721831 L9.27605634,3.9721831 C8.52834507,3.50017606 7.70492958,3.06584507 6.78626761,2.78679577 L6.78626761,2.78679577 C6.26637324,2.62887324 5.6431338,2.71707746 5.08714789,2.58908451 L5.08714789,2.58908451 L4.73133803,2.58908451 C4.41989437,2.49753521 4.15933099,2.16725352 3.90140845,1.99647887 L3.90140845,1.99647887 C3.36461268,1.64066901 2.83573944,1.39014085 2.20228873,1.12693662 L2.20228873,1.12693662 C2.02517606,1.05334507 1.62869718,0.904929577 1.34207746,0.904929577 L1.34207746,0.904929577 C1.24172535,0.904929577 1.15510563,0.92306338 1.09559859,0.968838028" id="Fill-1" fill="url(#linearGradient-1)"></path>
                <path d="M5.79832746,4.2884331 C5.50871479,4.28332746 5.30360915,4.32012324 5.08705986,4.36748239 L5.08705986,4.40691901 L5.12649648,4.40691901 C5.2647007,4.69107394 5.50889085,4.87382042 5.67966549,5.11836268 C5.81135563,5.39494718 5.94322183,5.67153169 6.07491197,5.94829225 C6.0881162,5.93508803 6.10132042,5.9218838 6.11452465,5.90867958 C6.35924296,5.73632042 6.47121479,5.46044014 6.46999245,5.03931338 C6.37191901,4.93614437 6.35748239,4.80674296 6.27244718,4.68367958 C6.15941901,4.51959507 5.94110915,4.42646127 5.79832746,4.2884331" id="Fill-4" fill="#00678E"></path>
                <path d="M11.4493134,20.2144718 L11.4493134,20.1750352 L11.4097007,20.1750352 C11.3843486,20.1350704 11.3549472,20.1009155 11.3236092,20.0704577 L11.1635739,20.0704577 C11.2530106,20.1280282 11.3463204,20.1794366 11.4493134,20.2144718" id="Fill-6" fill="#00678E"></path>
                <path d="M25.2016549,24.4035563 L24.6879225,23.8898239 C24.1856338,23.2230986 23.5477817,22.6375352 22.8701408,22.1509155 C22.3296479,21.7628873 21.1197887,21.2387676 20.8940845,20.6097183 L20.8546479,20.5702817 C21.2377465,20.5269718 21.6865141,20.3884155 22.0402113,20.2935211 C22.6344014,20.1341901 23.1655634,20.1753873 23.7789437,20.0169366 C24.0555282,19.9378873 24.3322887,19.8590141 24.6088732,19.7797887 L24.6088732,19.6216901 C24.298662,19.3033803 24.0775352,18.8822535 23.739331,18.5942254 C22.8544718,17.8408803 21.8888028,17.0878873 20.8940845,16.4602465 C20.3425,16.112007 19.6608099,15.8857746 19.0763028,15.5908803 C18.8796479,15.4915845 18.5344014,15.4401761 18.4046479,15.2746831 C18.0972535,14.8831338 17.93,14.387007 17.6932042,13.9310211 C17.1970775,12.9757394 16.7101056,11.9326056 16.270493,10.9276761 C15.9708451,10.2422887 15.7748944,9.56640845 15.4011268,8.95161972 C13.6069366,6.00144366 11.6752465,4.22080986 8.68316901,2.47045775 C8.04672535,2.09827465 7.28017606,1.95126761 6.46996479,1.75919014 C6.03545775,1.73278169 5.60077465,1.7065493 5.16591549,1.68014085 C4.90059859,1.56922535 4.62454225,1.24475352 4.37559859,1.08735915 C3.38440141,0.461126761 0.841971831,-0.90084507 0.107816901,0.889823944 C-0.35556338,2.02010563 0.800598592,3.12309859 1.21433099,3.6956338 C1.50447183,4.09757042 1.87612676,4.54792254 2.08352113,4.99985915 C2.21996479,5.2968662 2.24355634,5.59457746 2.36028169,5.90866197 C2.64778169,6.68278169 2.89760563,7.52485915 3.26926056,8.24035211 C3.45693662,8.60214789 3.66397887,8.98366197 3.90147887,9.30725352 C4.04725352,9.50584507 4.29672535,9.59334507 4.33598592,9.90021127 C4.09197183,10.2415845 4.07823944,10.7716901 3.94091549,11.2042606 C3.32330986,13.1516197 3.55623239,15.5722183 4.45464789,17.0134155 C4.73052817,17.4560211 5.37982394,18.4049648 6.27242958,18.0408803 C7.05341549,17.7227465 6.87894366,16.737007 7.10235915,15.8674648 C7.15306338,15.6702817 7.12207746,15.5253873 7.22084507,15.393169 L7.22084507,15.4327817 C7.45799296,15.9069014 7.69514085,16.3811972 7.93228873,16.855493 C8.45887324,17.7030282 9.39302817,18.5892958 10.1847535,19.187007 C10.5157394,19.437007 10.7916197,19.8308451 11.1636268,20.0704577 L11.323662,20.0704577 C11.2287676,19.9776761 11.1134507,19.9162324 11.0146831,19.8194014 C10.7053521,19.5160563 10.3615141,19.1391197 10.1057042,18.7919366 C9.3856338,17.8141197 8.74919014,16.7442254 8.16943662,15.6303169 C7.89267606,15.0986268 7.65183099,14.511831 7.41838028,13.9704577 C7.32841549,13.761831 7.32947183,13.446338 7.14197183,13.3382394 C6.88651408,13.7347183 6.50975352,14.055669 6.31204225,14.5238028 C5.99584507,15.2723944 5.955,16.1852465 5.83792254,17.1320775 C5.76855634,17.1569014 5.7993662,17.1396479 5.75869718,17.1715141 C5.20834507,17.0387676 5.01485915,16.4720423 4.81045775,15.9859507 C4.29302817,14.7567254 4.19690141,12.7773239 4.6521831,11.3623592 C4.77014085,10.996338 5.30235915,9.84316901 5.08704225,9.50496479 C4.98422535,9.16746479 4.64461268,8.97239437 4.45464789,8.71447183 C4.21961268,8.39580986 3.98492958,7.97591549 3.82225352,7.6081338 C3.39901408,6.64933099 3.20112676,5.5734507 2.75552817,4.60461268 C2.54232394,4.14158451 2.18193662,3.67292254 1.88598592,3.2609507 C1.55834507,2.80478873 1.19161972,2.4690493 0.937746479,1.91728873 C0.847253521,1.72116197 0.724542254,1.40742958 0.858521127,1.20602113 C0.901126761,1.06992958 0.961161972,1.01323944 1.09566901,0.968873239 C1.32489437,0.792112676 1.96327465,1.02767606 2.2021831,1.12697183 C2.83580986,1.39017606 3.3646831,1.64070423 3.90147887,1.99633803 C4.15922535,2.16711268 4.41978873,2.49757042 4.73140845,2.58911972 L5.08704225,2.58911972 C5.64320423,2.71693662 6.26644366,2.62890845 6.78616197,2.78665493 C7.705,3.06588028 8.52823944,3.50021127 9.2759507,3.97221831 C11.5537676,5.41059859 13.4159155,7.45778169 14.6898592,9.90021127 C14.8949648,10.2933451 14.9835211,10.6686972 15.1639789,11.0855986 C15.5282394,11.9267958 15.9870423,12.7922887 16.3497183,13.6148239 C16.7109859,14.4354225 17.0634507,15.2635915 17.5747183,15.9465141 C17.8433803,16.305669 18.8814085,16.4980986 19.3528873,16.6973944 C19.6836972,16.837007 20.2252465,16.9827817 20.5384507,17.1715141 C21.1366901,17.5322535 21.7162676,17.962007 22.2773592,18.3570775 C22.5576408,18.5546127 23.4199648,18.9878873 23.4627465,19.3451056 C22.0731338,19.3072535 21.0115141,19.4364789 20.1037676,19.8194014 C19.9083451,19.9019718 19.6252465,19.9239789 19.4812324,20.0704577 L20.8546479,20.0704577 L19.4812324,20.0704577 C19.4352817,20.1171127 19.4027113,20.1757394 19.3925,20.2540845 C19.5344014,20.4026761 19.5564085,20.624507 19.6690845,20.8072535 C19.8856338,21.1581338 20.2516549,21.6278521 20.5778873,21.874331 C20.9349296,22.1435211 21.3023592,22.4317254 21.6844014,22.6646479 C22.3648592,23.0794366 23.1241901,23.3162324 23.7789437,23.7317254 C24.1650352,23.9766197 24.5483099,24.2852465 24.9250704,24.5614789 C25.1109859,24.6980986 25.236162,24.9107746 25.4782394,24.996338 L25.4782394,24.9569014 C25.3509507,24.7949296 25.3182042,24.5723944 25.2016549,24.4035563" id="Fill-8" fill="#00678E"></path>
            </g>
        </g>
    </g>
</svg>