<?xml version="1.0" encoding="UTF-8"?>
<svg width="42px" height="42px" viewBox="0 0 42 42" version="1.1" xmlns="http://www.w3.org/2000/svg" xmlns:xlink="http://www.w3.org/1999/xlink">
    <!-- Generator: Sketch 63 (92445) - https://sketch.com -->
    <title>ic_telegraf</title>
    <desc>Created with Sketch.</desc>
    <defs>
        <polygon id="path-1" points="0 8.60215054e-06 23.9991111 8.60215054e-06 23.9991111 24.3727599 0 24.3727599"></polygon>
    </defs>
    <g id="Icon-Set" stroke="none" stroke-width="1" fill="none" fill-rule="evenodd">
        <g id="ic_telegraf" transform="translate(1.000000, 1.000000)">
            <circle id="Oval" stroke="#EAEAEA" fill="#FFFFFF" fill-rule="nonzero" cx="20" cy="20" r="20"></circle>
            <g id="Group-3" transform="translate(8.000000, 8.000000)">
                <mask id="mask-2" fill="white">
                    <use xlink:href="#path-1"></use>
                </mask>
                <g id="Clip-2"></g>
                <path d="M21.4253849,14.9722237 L16.8312631,16.028453 C16.5408258,16.1076789 16.2504172,15.9228186 16.1712201,15.6323527 L14.2173849,7.12961434 C14.1381878,6.83914839 14.3230194,6.54868244 14.6134566,6.46945663 L19.2075211,5.41322724 C19.4979584,5.33403011 19.7883957,5.51883297 19.8676215,5.8093276 L21.821428,14.3120659 C21.9006251,14.6289118 21.7158222,14.9194065 21.4253849,14.9722237 L21.4253849,14.9722237 Z M20.8181018,16.0812703 L15.2471197,21.2568401 C15.0358796,21.4680803 14.9302738,21.3888545 15.009471,21.0983885 L16.1712201,17.3487398 C16.2504172,17.0582738 16.5672344,16.7678079 16.8576717,16.7149907 L20.6861161,15.8436215 C20.9765247,15.7643957 21.0293133,15.89641 20.8181018,16.0812703 L20.8181018,16.0812703 Z M13.4253276,22.1546466 L5.08201577,19.5932416 C4.79157849,19.5140444 4.63318423,19.1971699 4.71238136,18.9067039 L6.11172186,14.4176717 C6.19094767,14.1272057 6.50776487,13.9687828 6.79820215,14.0480086 L15.141514,16.6093849 C15.4319513,16.6885821 15.5903455,17.0054566 15.5111484,17.2959513 L14.1117792,21.7849835 C14.0061735,22.0754495 13.7157362,22.2338724 13.4253276,22.1546466 L13.4253276,22.1546466 Z M4.07871828,17.8240659 L2.3889405,10.4039656 C2.3097147,10.1134996 2.44172903,10.0606824 2.62656057,10.2719513 L5.29325591,13.1502022 C5.50446738,13.3614423 5.58366452,13.7839513 5.50446738,14.0743885 L4.34274695,17.8240659 C4.26352115,18.1145319 4.13150681,18.1145319 4.07871828,17.8240659 L4.07871828,17.8240659 Z M2.52095484,8.39711254 L8.91043154,2.45575054 C9.12164301,2.24451039 9.46486882,2.270919 9.67610896,2.48215914 L12.8708616,5.94134194 C13.0820731,6.15261075 13.0556645,6.49589391 12.844453,6.70713405 L6.45497634,12.6484961 C6.2437362,12.8597362 5.90051039,12.8333276 5.68929892,12.6220875 L2.49454624,9.16287599 C2.28330609,8.92522724 2.3097147,8.58194409 2.52095484,8.39711254 L2.52095484,8.39711254 Z M15.4847398,15.526747 C15.5639369,15.8172129 15.3791341,15.9756358 15.0886968,15.89641 L7.22065376,13.4670767 C6.93021649,13.3878509 6.87739928,13.1502022 7.08863943,12.938962 L13.1084817,7.34085448 C13.3196932,7.12961434 13.5573419,7.20884014 13.6365391,7.49930609 L15.4847398,15.526747 Z M10.9434351,2.45575054 L18.2306323,4.700281 C18.5210695,4.77947814 18.5210695,4.91152115 18.2306323,4.99074695 L14.4022165,5.8621448 C14.1117792,5.94134194 13.7157362,5.8093276 13.5045247,5.59808746 L10.8378294,2.71980789 C10.6002093,2.48215914 10.6529978,2.37655341 10.9434351,2.45575054 L10.9434351,2.45575054 Z M23.9600373,14.7081663 L21.6365964,4.59464659 C21.5045821,4.0401233 21.0029333,3.4856 20.4484674,3.32714839 L9.8345319,0.0528258065 C9.70251756,8.60215054e-06 9.54409462,8.60215054e-06 9.38567168,8.60215054e-06 C8.93684014,8.60215054e-06 8.46157133,0.184840143 8.14475412,0.448926165 L0.540711111,7.5257147 C0.118288172,7.89540645 -0.0929519713,8.63476129 0.0390623656,9.16290466 L2.52095484,19.9893706 C2.65296918,20.5438939 3.15461792,21.0984172 3.70908387,21.2568688 L13.6365391,24.3199513 C13.7685534,24.3727685 13.9269763,24.3727685 14.0853993,24.3727685 C14.5342308,24.3727685 15.009471,24.1879082 15.3263168,23.9238509 L23.4583885,16.3717362 C23.8808401,15.9756358 24.0920516,15.2626896 23.9600373,14.7081663 L23.9600373,14.7081663 Z" id="Fill-1" fill="#22ADF6" mask="url(#mask-2)"></path>
            </g>
        </g>
    </g>
</svg>