<?xml version="1.0" encoding="UTF-8"?>
<svg width="42px" height="42px" viewBox="0 0 42 42" version="1.1" xmlns="http://www.w3.org/2000/svg" xmlns:xlink="http://www.w3.org/1999/xlink">
    <!-- Generator: Sketch 63 (92445) - https://sketch.com -->
    <title>ic_tibero</title>
    <desc>Created with Sketch.</desc>
    <g id="Icon-Set" stroke="none" stroke-width="1" fill="none" fill-rule="evenodd">
        <g id="ic_tibero" transform="translate(1.000000, 1.000000)">
            <circle id="Oval" stroke="#EAEAEA" fill="#FFFFFF" fill-rule="nonzero" cx="20" cy="20" r="20"></circle>
            <path d="M33.1256098,20.170556 C33.6584608,20.1661512 34.1573688,20.268498 34.5688287,20.6334484 C35.0188954,21.0327303 35.2421149,21.5537919 35.2785193,22.1393709 C35.3448504,23.2098661 35.1181329,24.2201194 34.5321653,25.128544 C33.9572097,26.0198677 33.1294964,26.4906628 32.0650901,26.4998611 C31.3990589,26.5056909 30.7931401,26.3291104 30.3600449,25.7713853 C30.0778788,25.4082486 29.9342047,24.9848699 29.9101078,24.5353215 C29.8538819,23.4845182 30.0410858,22.4793176 30.6182438,21.5824231 C31.0911117,20.8477288 31.7444468,20.3495981 32.6304588,20.2051466 C32.6610333,20.2000941 32.6917373,20.1938755 32.7225709,20.1920618 C32.8569172,20.1841591 32.9912635,20.1776814 33.1256098,20.170556 Z M22.5429937,20.1784328 C23.060946,20.2178169 23.5428827,20.3449083 23.9465694,20.6867983 C24.4029841,21.0735136 24.5940746,21.5967776 24.6833365,22.1674579 C24.7652139,22.6920175 24.7741531,23.2182612 24.7058787,23.770545 L21.3303789,23.770545 C21.3303789,23.9840481 21.3119824,24.1849846 21.3358201,24.3808686 C21.3578441,24.562113 21.475219,24.6982731 21.6387147,24.7909034 C21.9682972,24.9778481 22.3240494,24.9643746 22.6820039,24.932116 C23.2940116,24.8767969 23.8643033,24.6903703 24.3946927,24.3804799 C24.4112755,24.370893 24.4309675,24.3663586 24.4735904,24.3502941 C24.4491049,24.5350365 24.4272105,24.7016414 24.4049274,24.8682464 C24.3686526,25.1397892 24.3277139,25.4108138 24.2979168,25.6830044 C24.2866457,25.7865171 24.2410431,25.8484434 24.1545017,25.9011714 C23.5259113,26.2856843 22.8409653,26.4731473 22.1079552,26.493228 C21.3994306,26.5127904 20.7554233,26.3342666 20.2220542,25.8475365 C19.7850724,25.4486432 19.5338694,24.9395005 19.4407209,24.3641562 C19.2588287,23.2404147 19.4444779,22.1854658 20.1384926,21.2598106 C20.7358608,20.46319 21.5421978,20.1022558 22.5429937,20.1784328 Z M16.3224353,18.5055167 C16.2139996,19.1460261 16.107248,19.7755234 16.0038649,20.3857174 C16.281108,20.3158884 16.5491528,20.2197602 16.8251004,20.1845218 C17.5574628,20.0908551 18.1488716,20.4317087 18.4592802,21.1013674 C18.670581,21.5572639 18.7309526,22.0401075 18.6985644,22.5379791 C18.6533504,23.2358804 18.5092876,23.911369 18.2096319,24.5447529 C17.8125524,25.3834781 17.2061154,26.0009271 16.2812375,26.2337336 C15.9932415,26.3060241 15.689181,26.3382827 15.391598,26.3450195 C14.6668793,26.3612136 13.9416424,26.3517562 13.216535,26.3522744 C13.1862197,26.3522744 13.1559043,26.3479992 13.1080993,26.3443717 C13.5564818,23.726497 14.0033096,21.1170433 14.4505261,18.5055167 L16.3224353,18.5055167 Z M29.8252507,20.2612949 C29.8494771,20.2699749 29.873833,20.2791731 29.8974117,20.2894078 C30.1778936,20.4109284 30.1909784,20.4483692 30.0605187,20.7195233 C29.8227892,21.2135084 29.5868734,21.7084003 29.3499213,22.2026445 C29.3323021,22.2391784 29.3128691,22.274935 29.2900678,22.3191125 C29.1881097,22.2702711 29.0940544,22.2179317 28.9946873,22.1790659 C28.4766054,21.9767043 27.9958348,22.1430502 27.7787042,22.6507678 C27.6466898,22.9597514 27.5786745,23.3009936 27.5176552,23.6342036 C27.3596007,24.4987098 27.2226633,25.3668436 27.0716046,26.2325158 C27.063961,26.2772115 27.0042372,26.3467814 26.9680919,26.3471701 C26.3826425,26.3535181 25.7971932,26.3505384 25.2117438,26.3489838 C25.202416,26.3489838 25.1932177,26.340822 25.1700278,26.3300691 C25.5132133,24.3122833 25.856917,22.2907404 26.2024345,20.259222 L28.0556882,20.259222 C28.0290003,20.4894374 28.0032193,20.7117501 27.975495,20.9511638 C28.1551848,20.7900001 28.3120733,20.6337593 28.4847673,20.4974697 C28.8867698,20.1804539 29.3334681,20.0845847 29.8252507,20.2612949 Z M10.5370839,18.5078098 C10.4807284,18.8429631 10.4259276,19.1728047 10.3697016,19.5023871 C10.333945,19.7112264 10.2871764,19.9186405 10.2625614,20.1287752 C10.2496061,20.239802 10.2034853,20.2611783 10.1041182,20.2602714 C9.63254583,20.2562552 9.16110297,20.2584576 8.689401,20.2588463 C8.65908563,20.2588463 8.62864071,20.2620851 8.58316766,20.2648057 C8.23635465,22.2898465 7.8901894,24.3111302 7.54221042,26.3425191 L5.32322901,26.3425191 C5.67081934,24.3110007 6.01581861,22.2943809 6.36392715,20.2596236 L4.71031443,20.2596236 C4.81149521,19.6667897 4.90956673,19.0926114 5.00945198,18.5078098 L10.5370839,18.5078098 Z M13.0281134,20.2754161 L11.9898767,26.3417288 L11.9898767,26.3417288 L10.0885589,26.3417288 C10.4347242,24.3185018 10.7795939,22.3026593 11.1264069,20.2754161 L13.0281134,20.2754161 Z M32.5187842,21.9658996 C32.3938953,22.0766673 32.2850709,22.218139 32.205655,22.365311 C31.9425331,22.8537253 31.8692062,23.3914993 31.8268424,23.9647707 C31.839409,24.0763157 31.8513279,24.2154555 31.8721859,24.3531701 C31.8812546,24.4136713 31.9041855,24.4732657 31.9276345,24.5302689 C32.0689767,24.8729362 32.38094,24.971526 32.6614219,24.7292621 C32.8203833,24.5920656 32.9492884,24.4033071 33.0463235,24.2145486 C33.2398755,23.8378089 33.3077612,23.4205191 33.3503841,23.0027111 C33.3791448,22.7197677 33.3852338,22.4343627 33.2788709,22.1612653 C33.143229,21.8127681 32.7995253,21.716899 32.5187842,21.9658996 Z M16.2068742,21.8372277 C16.0612568,21.8389119 15.9025545,21.8697454 15.7772769,21.9381494 C15.716128,21.9714444 15.7102981,22.1190051 15.6926789,22.2173358 C15.6013441,22.7257012 15.5133777,23.2344553 15.4260591,23.7434685 C15.3694445,24.0734396 15.3156801,24.403929 15.2590655,24.7430983 C15.9438819,24.8162957 16.279942,24.6214482 16.4990159,24.0015378 C16.5963101,23.7259788 16.6601797,23.4360395 16.711353,23.1476549 C16.7657652,22.8419101 16.7842913,22.5302059 16.6866084,22.2257567 C16.6056379,21.9731286 16.4522473,21.8343775 16.2068742,21.8372277 Z M21.9008002,21.6888896 C21.640658,21.9268783 21.540125,22.2444123 21.4854537,22.6110469 L22.3507421,22.6107974 C22.4924969,22.6101256 22.633508,22.6088445 22.7745047,22.6065126 C22.8068929,22.6058648 22.8654508,22.5397928 22.8655803,22.5041658 C22.8657099,22.3341924 22.8677827,22.1608507 22.8364309,21.9950231 C22.7472986,21.5247462 22.2553863,21.3643597 21.9008002,21.6888896 Z M13.2096299,18.8266006 C13.1429102,19.3157922 12.6712082,19.7310091 12.1786482,19.7341346 C11.7123875,19.7369685 11.3887644,19.3639858 11.4515976,18.8960409 C11.5148194,18.4239503 11.8651303,18.026223 12.285918,17.9482322 C12.8858773,17.8369462 13.2918959,18.2230138 13.2096299,18.8266006 Z M17.4777618,12.8206465 C17.8839101,12.9091311 18.1471615,13.2019206 18.149623,13.619599 C18.1516958,13.9487928 18.1084252,14.278764 18.0761665,14.6074396 C18.0459807,14.9160345 17.9973984,15.2228157 17.9692854,15.5316697 C17.9492047,15.7515209 18.0121674,15.7975122 18.2522289,15.749448 C18.2395327,15.8245887 18.2305935,15.8932517 18.2160836,15.9608783 C18.1672422,16.188114 18.1193076,16.4154793 18.0641181,16.6411604 C18.054013,16.6827469 18.0183859,16.7385841 17.9824998,16.7499848 C17.7265033,16.8312144 17.4655839,16.8529793 17.2054417,16.7681222 C16.9837768,16.6957021 16.8531875,16.5235264 16.7431971,16.315594 C16.7253188,16.3313995 16.7100316,16.3409864 16.6997969,16.3544599 C16.3576478,16.799474 15.8985125,16.8886064 15.3797828,16.7813366 C14.9922902,16.7011434 14.7842283,16.4666527 14.7317594,16.0699618 C14.6467727,15.4254363 14.9233681,14.8975084 15.5045422,14.5968162 C15.9162612,14.3838313 16.3589433,14.293533 16.8178196,14.2683997 C16.8432119,14.2671042 16.8684747,14.2638654 16.9007334,14.2607561 C17.0032097,13.8789638 16.886353,13.7255732 16.5053381,13.7347715 C16.1485495,13.743322 15.8113234,13.8319361 15.4976759,14.0051483 C15.4444297,14.0345568 15.3898879,14.0616334 15.3121562,14.1021834 C15.3703255,13.7902201 15.4212397,13.5015763 15.4810932,13.2148759 C15.4884777,13.1793784 15.5393919,13.1459537 15.5774805,13.1248366 C16.1738123,12.7940882 16.8052529,12.6742518 17.4777618,12.8206465 Z M21.9744121,12.8795283 L22.2887073,12.8793987 L22.2887073,12.8793987 C22.0284356,13.2749236 21.7899288,13.6370239 21.5516811,13.9993832 C21.4295128,14.1852916 21.3117492,14.3744388 21.1836214,14.5560719 C21.1288206,14.633674 21.1277842,14.6967663 21.1635407,14.7822712 C21.4111163,15.3735504 21.6533801,15.9671616 21.897069,16.5601251 C21.9184453,16.6120758 21.9377486,16.6649333 21.9676754,16.7422764 L21.6202146,16.7422764 C21.3354574,16.7422764 21.0503115,16.736317 20.7656839,16.7451266 C20.6503819,16.7488836 20.5935082,16.7179205 20.5512739,16.6048208 C20.4121342,16.2326154 20.2591322,15.8655922 20.1027619,15.4749903 C20.0670053,15.5261637 20.0403174,15.5595883 20.0185526,15.5959927 C19.8113975,15.942417 19.6028174,16.2879345 19.4004559,16.6370795 C19.3561488,16.7135157 19.3086029,16.746163 19.2179159,16.7443492 C18.909321,16.7387785 18.6004669,16.7422764 18.2642773,16.7422764 C18.4586066,16.4382158 18.6380373,16.1563088 18.8185044,15.8750495 C19.0672459,15.4874274 19.3143032,15.0985097 19.5680973,14.7141264 C19.624971,14.6278441 19.6354647,14.5582743 19.594526,14.4605914 C19.3966988,13.9887599 19.2070334,13.5133009 19.014777,13.0390079 C18.9958623,12.9923688 18.9794091,12.9446934 18.9551827,12.8799169 C19.3850391,12.8799169 19.7983127,12.8766781 20.2113272,12.8850991 C20.2517477,12.8860059 20.3066781,12.9524665 20.3276657,13.0005307 C20.4415427,13.2598955 20.5468691,13.5230173 20.6681306,13.8164546 C20.7475465,13.692602 20.812582,13.5916804 20.8773585,13.4904996 C21.0054863,13.2905995 21.0906025,13.0140042 21.273272,12.9123052 C21.4564598,12.8104766 21.7366826,12.8827671 21.9744121,12.8795283 Z M9.77255361,11.500749 C9.78071544,11.5311939 9.78693398,11.5415582 9.78537934,11.5506269 C9.72125068,11.9271075 9.65647425,12.3034585 9.58819989,12.7001494 L8.70620401,12.7001494 C8.43181105,12.7001494 8.43712272,12.7010563 8.39203832,12.9738946 C8.18747435,14.2078856 7.97967157,15.4413584 7.77277565,16.6749607 C7.76953682,16.6942641 7.76396605,16.7131788 7.75852483,16.7366279 L6.2558412,16.7366279 C6.47983809,15.3923874 6.70279857,14.0551428 6.92822054,12.7023518 L5.81173399,12.7023518 L5.93491477,11.964601 C5.95467398,11.8434019 5.97380462,11.7226731 5.99194202,11.6018002 C6.00377451,11.5230321 6.04220853,11.5044341 6.08908747,11.5007874 L9.77255361,11.500749 Z M11.8103165,12.7580978 C12.201307,12.7583575 12.4566557,12.965383 12.6334954,13.2778645 C12.7765217,13.1545301 12.8970059,13.0130584 13.0487123,12.9266467 C13.6096762,12.6071693 14.5472502,12.7702764 14.5568371,13.7866186 C14.5598168,14.1149055 14.4972428,14.4447471 14.4534539,14.7725158 C14.3718356,15.3821916 14.2820555,15.9908309 14.194996,16.5997294 C14.1886479,16.6446842 14.1759517,16.6887322 14.165717,16.7351121 L12.9318556,16.7351121 C13.0498782,15.9193178 13.1699738,15.1116852 13.2804823,14.3027572 C13.2974538,14.1782569 13.2885146,14.0435219 13.2593652,13.921224 C13.2255519,13.779234 13.0878372,13.7217126 12.9512885,13.7794931 C12.7928454,13.8466015 12.6735272,13.9524462 12.6469689,14.1386137 C12.5254483,14.9879622 12.4014662,15.8367926 12.2781319,16.685882 C12.276059,16.7005215 12.2708769,16.7147723 12.2654357,16.7355008 L11.0622783,16.7355008 C11.1280911,16.2796043 11.1918311,15.8309627 11.257644,15.3825803 L11.4278764,14.2478267 L11.4278764,14.2478267 C11.4338359,14.2070176 11.4334472,14.1653016 11.4343541,14.1238447 C11.4392771,13.8937588 11.3484605,13.7622626 11.1764143,13.7495664 C11.0032021,13.7366112 10.8216986,13.8938883 10.7922901,14.0860152 L10.6698626,14.9143762 L10.6698626,14.9143762 C10.5816371,15.5177039 10.4936707,16.1210316 10.4042793,16.7331688 L9.19956722,16.7331688 C9.38379138,15.4535752 9.56749734,14.1772204 9.75275793,12.8907605 L10.8525322,12.8907605 C10.8492933,12.9608486 10.8461841,13.0305481 10.8411315,13.1391134 C11.1192815,12.8447693 11.4470503,12.7578393 11.8103165,12.7580978 Z M16.7987753,14.9225121 C16.3766921,14.9200506 16.0647288,15.2242407 16.0686154,15.6205429 C16.0704291,15.8147427 16.1201774,15.8863854 16.2616491,15.8992112 C16.4703588,15.9179963 16.6585991,15.8081355 16.6838619,15.6511174 C16.7223391,15.4123515 16.7592617,15.1733265 16.7987753,14.9225121 Z" id="Combined-Shape" fill="#000000"></path>
        </g>
    </g>
</svg>