<?xml version="1.0" encoding="utf-8"?>
<!-- Generator: Adobe Illustrator 25.1.0, SVG Export Plug-In . SVG Version: 6.00 Build 0)  -->
<svg version="1.1" id="레이어_1" xmlns="http://www.w3.org/2000/svg" xmlns:xlink="http://www.w3.org/1999/xlink" x="0px"
	 y="0px" viewBox="0 0 42 42" style="enable-background:new 0 0 42 42;" xml:space="preserve">
<style type="text/css">
	.st0{fill:#FFFFFF;stroke:#EAEAEA;}
	.st1{clip-path:url(#SVGID_2_);fill:#45B96E;}
</style>
<desc>Created with Sketch.</desc>
<g id="Icon-Set">
	<g id="ic_nodejs" transform="translate(1.000000, 1.000000)">
		<circle id="Oval" class="st0" cx="20" cy="20" r="20"/>
		<g>
			<defs>
				<path id="SVGID_1_" d="M29.2,16l-4.5,0c-0.3-2.2-0.9-4.1-1.7-5.5C25.8,11.3,28,13.4,29.2,16z M20,10c0.9,0,2.1,2.4,2.7,6l-5.4,0
					C17.9,12.4,19.1,10,20,10L20,10z M17,10.5c-0.8,1.4-1.4,3.3-1.7,5.5l-4.5,0c1.1-2.6,3.3-4.6,5.9-5.5L17,10.5z M29.8,18
					c0.1,0.6,0.2,1.3,0.2,2c0,0.7-0.1,1.4-0.2,2l-4.9,0c0-0.7,0.1-1.3,0.1-2s0-1.3-0.1-2L29.8,18z M22.9,18c0,0.6,0.1,1.3,0.1,2
					c0,0.7,0,1.4-0.1,2l-5.8,0c0-0.6-0.1-1.3-0.1-2c0-0.7,0-1.4,0.1-2L22.9,18z M15.1,18c0,0.7-0.1,1.3-0.1,2s0,1.3,0.1,2l-4.9,0
					c-0.1-0.6-0.2-1.3-0.2-2c0-0.7,0.1-1.4,0.2-2L15.1,18z M29.2,24c-1.1,2.6-3.4,4.7-6.1,5.5c0.8-1.4,1.4-3.3,1.7-5.5L29.2,24z
					 M15.3,24c0.3,2.2,0.9,4.1,1.7,5.5c-2.8-0.9-5-2.9-6.1-5.5L15.3,24z M22.7,24c-0.6,3.6-1.8,6-2.7,6c0,0,0,0,0,0
					c-0.9,0-2.1-2.4-2.7-6L22.7,24z"/>
			</defs>
			<clipPath id="SVGID_2_">
				<use xlink:href="#SVGID_1_"  style="overflow:visible;"/>
			</clipPath>
			<rect x="5" y="5" class="st1" width="30" height="30"/>
		</g>
	</g>
</g>
</svg>
