<svg width="51" height="51" viewBox="0 0 51 51" fill="none" xmlns="http://www.w3.org/2000/svg">
<path fill-rule="evenodd" clip-rule="evenodd" d="M23.3747 0H27.6247V6.49172C33.0617 7.09276 37.8118 9.97297 40.8984 14.1558L46.5208 10.9097L48.6458 14.5903L43.0266 17.8346C44.0544 20.1813 44.6247 22.7741 44.6247 25.5C44.6247 28.2259 44.0544 30.8187 43.0266 33.1654L48.6458 36.4097L46.5208 40.0903L40.8984 36.8442C37.8118 41.027 33.0617 43.9072 27.6247 44.5083V51H23.3747V44.5083C17.9376 43.9072 13.1875 41.027 10.1009 36.8442L4.47851 40.0903L2.35352 36.4097L7.97277 33.1654C6.94497 30.8187 6.37466 28.2259 6.37466 25.5C6.37466 22.7741 6.94497 20.1813 7.97277 17.8346L2.35352 14.5903L4.47852 10.9097L10.1009 14.1558C13.1875 9.97297 17.9376 7.09276 23.3747 6.49172V0ZM40.3747 25.5C40.3747 27.4516 39.9988 29.3153 39.3156 31.0229L31.7684 26.6655C31.8382 26.2876 31.8747 25.8981 31.8747 25.5C31.8747 25.1019 31.8382 24.7124 31.7684 24.3345L39.3156 19.9771C39.9988 21.6847 40.3747 23.5484 40.3747 25.5ZM29.6424 20.6544L37.1877 16.2982C34.8783 13.3689 31.4914 11.3287 27.6247 10.7756V19.4877C28.3708 19.7515 29.0532 20.1501 29.6424 20.6544ZM23.3747 19.4878V10.7756C19.508 11.3287 16.121 13.3689 13.8116 16.2982L21.3569 20.6544C21.9462 20.1501 22.6285 19.7515 23.3747 19.4878ZM19.231 24.3345L11.6837 19.9771C11.0005 21.6847 10.6247 23.5484 10.6247 25.5C10.6247 27.4516 11.0005 29.3153 11.6837 31.0229L19.231 26.6655C19.1611 26.2876 19.1247 25.8981 19.1247 25.5C19.1247 25.1019 19.1611 24.7124 19.231 24.3345ZM21.3569 30.3456C21.9462 30.8499 22.6285 31.2485 23.3747 31.5122V40.2244C19.508 39.6713 16.121 37.6311 13.8116 34.7018L21.3569 30.3456ZM27.6247 31.5123C28.3708 31.2485 29.0532 30.8499 29.6424 30.3456L37.1877 34.7018C34.8783 37.6311 31.4914 39.6713 27.6247 40.2244V31.5123Z" fill="#4485FF"/>
</svg>
