<svg width="54" height="54" viewBox="0 0 54 54" fill="none" xmlns="http://www.w3.org/2000/svg">
<path fill-rule="evenodd" clip-rule="evenodd" d="M49.5 6.5C49.5 5.39543 48.6046 4.5 47.5 4.5H6.5C5.39543 4.5 4.5 5.39543 4.5 6.5V47.5C4.5 48.6046 5.39543 49.5 6.5 49.5H47.5C48.6046 49.5 49.5 48.6046 49.5 47.5V6.5ZM36 17.4541L32.818 20.636L39.182 27L32.818 33.364L36 36.5459L42.364 30.182L45.5459 27L42.364 23.818L36 17.4541ZM21.182 20.636L18 17.4541L11.636 23.818L8.45406 27L18 36.5459L21.182 33.364L14.818 27L21.182 20.636ZM32.962 17.198L28.7334 15.6589L21.038 36.802L25.2666 38.3411L32.962 17.198Z" fill="#00B0E2"/>
</svg>
