<svg width="33" height="20" viewBox="0 0 33 20" fill="none" xmlns="http://www.w3.org/2000/svg">
<path d="M9.09894 18.264C7.86694 18.264 6.71494 18.04 5.64294 17.592C4.58694 17.144 3.65894 16.528 2.85894 15.744C2.05894 14.944 1.43494 14.016 0.986937 12.96C0.554937 11.888 0.338937 10.744 0.338937 9.528C0.338937 8.312 0.554937 7.184 0.986937 6.144C1.43494 5.088 2.05094 4.168 2.83494 3.384C3.63494 2.584 4.56294 1.968 5.61894 1.536C6.67494 1.088 7.81894 0.863999 9.05094 0.863999C10.2829 0.863999 11.4269 1.088 12.4829 1.536C13.5389 1.968 14.4669 2.584 15.2669 3.384C16.0669 4.168 16.6829 5.088 17.1149 6.144C17.5629 7.2 17.7869 8.336 17.7869 9.552C17.7869 10.768 17.5629 11.904 17.1149 12.96C16.6829 14.016 16.0669 14.944 15.2669 15.744C14.4829 16.528 13.5629 17.144 12.5069 17.592C11.4509 18.04 10.3149 18.264 9.09894 18.264ZM9.05094 15.216C10.1229 15.216 11.0589 14.976 11.8589 14.496C12.6749 14.016 13.3069 13.352 13.7549 12.504C14.2189 11.656 14.4509 10.664 14.4509 9.528C14.4509 8.696 14.3149 7.936 14.0429 7.248C13.7869 6.56 13.4189 5.968 12.9389 5.472C12.4589 4.96 11.8909 4.568 11.2349 4.296C10.5789 4.024 9.85094 3.888 9.05094 3.888C7.99494 3.888 7.05894 4.128 6.24294 4.608C5.44294 5.072 4.81094 5.728 4.34694 6.576C3.89894 7.424 3.67494 8.408 3.67494 9.528C3.67494 10.376 3.80294 11.152 4.05894 11.856C4.33094 12.56 4.69894 13.16 5.16294 13.656C5.64294 14.152 6.21094 14.536 6.86694 14.808C7.53894 15.08 8.26694 15.216 9.05094 15.216ZM16.7069 19.248L8.97894 11.52L10.9469 9.528L18.6989 17.28L16.7069 19.248ZM22.7624 18V1.128H25.9784V18H22.7624ZM19.4504 3.96V1.128H25.7384V3.96H19.4504ZM31.0229 18.24C30.4469 18.24 29.9749 18.048 29.6069 17.664C29.2389 17.28 29.0549 16.808 29.0549 16.248C29.0549 15.688 29.2389 15.216 29.6069 14.832C29.9749 14.448 30.4469 14.256 31.0229 14.256C31.5829 14.256 32.0469 14.448 32.4149 14.832C32.7829 15.216 32.9669 15.688 32.9669 16.248C32.9669 16.808 32.7829 17.28 32.4149 17.664C32.0469 18.048 31.5829 18.24 31.0229 18.24Z" fill="#833AF9"/>
</svg>
