<svg width="38" height="20" viewBox="0 0 38 20" fill="none" xmlns="http://www.w3.org/2000/svg">
<path d="M8.87238 18.264C7.64038 18.264 6.48838 18.04 5.41638 17.592C4.36037 17.144 3.43237 16.528 2.63237 15.744C1.83237 14.944 1.20837 14.016 0.760375 12.96C0.328375 11.888 0.112375 10.744 0.112375 9.528C0.112375 8.312 0.328375 7.184 0.760375 6.144C1.20837 5.088 1.82437 4.168 2.60837 3.384C3.40838 2.584 4.33637 1.968 5.39237 1.536C6.44837 1.088 7.59238 0.863999 8.82437 0.863999C10.0564 0.863999 11.2004 1.088 12.2564 1.536C13.3124 1.968 14.2404 2.584 15.0404 3.384C15.8404 4.168 16.4564 5.088 16.8884 6.144C17.3364 7.2 17.5604 8.336 17.5604 9.552C17.5604 10.768 17.3364 11.904 16.8884 12.96C16.4564 14.016 15.8404 14.944 15.0404 15.744C14.2564 16.528 13.3364 17.144 12.2804 17.592C11.2244 18.04 10.0884 18.264 8.87238 18.264ZM8.82437 15.216C9.89637 15.216 10.8324 14.976 11.6324 14.496C12.4484 14.016 13.0804 13.352 13.5284 12.504C13.9924 11.656 14.2244 10.664 14.2244 9.528C14.2244 8.696 14.0884 7.936 13.8164 7.248C13.5604 6.56 13.1924 5.968 12.7124 5.472C12.2324 4.96 11.6644 4.568 11.0084 4.296C10.3524 4.024 9.62438 3.888 8.82437 3.888C7.76838 3.888 6.83238 4.128 6.01638 4.608C5.21638 5.072 4.58438 5.728 4.12038 6.576C3.67238 7.424 3.44838 8.408 3.44838 9.528C3.44838 10.376 3.57638 11.152 3.83237 11.856C4.10437 12.56 4.47237 13.16 4.93637 13.656C5.41637 14.152 5.98438 14.536 6.64038 14.808C7.31238 15.08 8.04037 15.216 8.82437 15.216ZM16.4804 19.248L8.75238 11.52L10.7204 9.528L18.4724 17.28L16.4804 19.248ZM19.2959 16.128L25.6559 9.48C26.1039 9 26.4639 8.576 26.7359 8.208C27.0239 7.824 27.2319 7.464 27.3599 7.128C27.4879 6.776 27.5519 6.424 27.5519 6.072C27.5519 5.368 27.3199 4.816 26.8559 4.416C26.4079 4.016 25.8239 3.816 25.1039 3.816C24.3679 3.816 23.7119 4.008 23.1359 4.392C22.5759 4.776 22.0479 5.384 21.5519 6.216L19.3199 4.32C19.9919 3.184 20.8239 2.328 21.8159 1.752C22.8239 1.16 23.9759 0.863999 25.2719 0.863999C26.3759 0.863999 27.3359 1.08 28.1519 1.512C28.9839 1.944 29.6239 2.544 30.0719 3.312C30.5199 4.08 30.7439 4.976 30.7439 6C30.7439 6.688 30.6559 7.312 30.4799 7.872C30.3199 8.432 30.0399 8.992 29.6399 9.552C29.2559 10.096 28.7199 10.712 28.0319 11.4L23.3999 16.128H19.2959ZM19.2959 18V16.128L22.0799 15.168H31.1039V18H19.2959ZM35.2495 18.24C34.6735 18.24 34.2015 18.048 33.8335 17.664C33.4655 17.28 33.2815 16.808 33.2815 16.248C33.2815 15.688 33.4655 15.216 33.8335 14.832C34.2015 14.448 34.6735 14.256 35.2495 14.256C35.8095 14.256 36.2735 14.448 36.6415 14.832C37.0095 15.216 37.1935 15.688 37.1935 16.248C37.1935 16.808 37.0095 17.28 36.6415 17.664C36.2735 18.048 35.8095 18.24 35.2495 18.24Z" fill="#833AF9"/>
</svg>
