<svg width="38" height="20" viewBox="0 0 38 20" fill="none" xmlns="http://www.w3.org/2000/svg">
<path d="M9.7005 18.264C8.4685 18.264 7.3165 18.04 6.2445 17.592C5.1885 17.144 4.2605 16.528 3.4605 15.744C2.6605 14.944 2.0365 14.016 1.5885 12.96C1.1565 11.888 0.9405 10.744 0.9405 9.528C0.9405 8.312 1.1565 7.184 1.5885 6.144C2.0365 5.088 2.6525 4.168 3.4365 3.384C4.2365 2.584 5.1645 1.968 6.2205 1.536C7.2765 1.088 8.4205 0.863999 9.6525 0.863999C10.8845 0.863999 12.0285 1.088 13.0845 1.536C14.1405 1.968 15.0685 2.584 15.8685 3.384C16.6685 4.168 17.2845 5.088 17.7165 6.144C18.1645 7.2 18.3885 8.336 18.3885 9.552C18.3885 10.768 18.1645 11.904 17.7165 12.96C17.2845 14.016 16.6685 14.944 15.8685 15.744C15.0845 16.528 14.1645 17.144 13.1085 17.592C12.0525 18.04 10.9165 18.264 9.7005 18.264ZM9.6525 15.216C10.7245 15.216 11.6605 14.976 12.4605 14.496C13.2765 14.016 13.9085 13.352 14.3565 12.504C14.8205 11.656 15.0525 10.664 15.0525 9.528C15.0525 8.696 14.9165 7.936 14.6445 7.248C14.3885 6.56 14.0205 5.968 13.5405 5.472C13.0605 4.96 12.4925 4.568 11.8365 4.296C11.1805 4.024 10.4525 3.888 9.6525 3.888C8.5965 3.888 7.6605 4.128 6.8445 4.608C6.0445 5.072 5.4125 5.728 4.9485 6.576C4.5005 7.424 4.2765 8.408 4.2765 9.528C4.2765 10.376 4.4045 11.152 4.6605 11.856C4.9325 12.56 5.3005 13.16 5.7645 13.656C6.2445 14.152 6.8125 14.536 7.4685 14.808C8.1405 15.08 8.8685 15.216 9.6525 15.216ZM17.3085 19.248L9.5805 11.52L11.5485 9.528L19.3005 17.28L17.3085 19.248ZM25.476 18.24C24.34 18.24 23.3 18.04 22.356 17.64C21.412 17.224 20.62 16.632 19.98 15.864L22.14 13.728C22.46 14.208 22.916 14.592 23.508 14.88C24.1 15.168 24.74 15.312 25.428 15.312C26.068 15.312 26.62 15.2 27.084 14.976C27.548 14.736 27.908 14.408 28.164 13.992C28.436 13.56 28.572 13.064 28.572 12.504C28.572 11.912 28.436 11.408 28.164 10.992C27.908 10.576 27.532 10.256 27.036 10.032C26.54 9.808 25.948 9.696 25.26 9.696C24.956 9.696 24.644 9.72 24.324 9.768C24.004 9.8 23.732 9.856 23.508 9.936L24.948 8.112C25.348 7.984 25.74 7.88 26.124 7.8C26.524 7.704 26.892 7.656 27.228 7.656C28.092 7.656 28.868 7.864 29.556 8.28C30.26 8.68 30.812 9.256 31.212 10.008C31.628 10.744 31.836 11.616 31.836 12.624C31.836 13.744 31.572 14.728 31.044 15.576C30.516 16.408 29.772 17.064 28.812 17.544C27.868 18.008 26.756 18.24 25.476 18.24ZM23.508 9.936V8.064L27.828 3.048L31.572 3L27.108 8.112L23.508 9.936ZM20.916 3.96V1.128H31.572V3L28.908 3.96H20.916ZM35.4214 18.24C34.8454 18.24 34.3734 18.048 34.0054 17.664C33.6374 17.28 33.4534 16.808 33.4534 16.248C33.4534 15.688 33.6374 15.216 34.0054 14.832C34.3734 14.448 34.8454 14.256 35.4214 14.256C35.9814 14.256 36.4454 14.448 36.8134 14.832C37.1814 15.216 37.3654 15.688 37.3654 16.248C37.3654 16.808 37.1814 17.28 36.8134 17.664C36.4454 18.048 35.9814 18.24 35.4214 18.24Z" fill="#833AF9"/>
</svg>
