<svg width="38" height="20" viewBox="0 0 38 20" fill="none" xmlns="http://www.w3.org/2000/svg">
<path d="M9.138 18.264C7.906 18.264 6.754 18.04 5.682 17.592C4.626 17.144 3.698 16.528 2.898 15.744C2.098 14.944 1.474 14.016 1.026 12.96C0.594 11.888 0.378 10.744 0.378 9.528C0.378 8.312 0.594 7.184 1.026 6.144C1.474 5.088 2.09 4.168 2.874 3.384C3.674 2.584 4.602 1.968 5.658 1.536C6.714 1.088 7.858 0.863999 9.09 0.863999C10.322 0.863999 11.466 1.088 12.522 1.536C13.578 1.968 14.506 2.584 15.306 3.384C16.106 4.168 16.722 5.088 17.154 6.144C17.602 7.2 17.826 8.336 17.826 9.552C17.826 10.768 17.602 11.904 17.154 12.96C16.722 14.016 16.106 14.944 15.306 15.744C14.522 16.528 13.602 17.144 12.546 17.592C11.49 18.04 10.354 18.264 9.138 18.264ZM9.09 15.216C10.162 15.216 11.098 14.976 11.898 14.496C12.714 14.016 13.346 13.352 13.794 12.504C14.258 11.656 14.49 10.664 14.49 9.528C14.49 8.696 14.354 7.936 14.082 7.248C13.826 6.56 13.458 5.968 12.978 5.472C12.498 4.96 11.93 4.568 11.274 4.296C10.618 4.024 9.89 3.888 9.09 3.888C8.034 3.888 7.098 4.128 6.282 4.608C5.482 5.072 4.85 5.728 4.386 6.576C3.938 7.424 3.714 8.408 3.714 9.528C3.714 10.376 3.842 11.152 4.098 11.856C4.37 12.56 4.738 13.16 5.202 13.656C5.682 14.152 6.25 14.536 6.906 14.808C7.578 15.08 8.306 15.216 9.09 15.216ZM16.746 19.248L9.018 11.52L10.986 9.528L18.738 17.28L16.746 19.248ZM19.5375 12.048L25.2975 1.128H28.8975L22.9935 12.048H19.5375ZM19.5375 13.968V12.048L20.7375 11.112H32.8335V13.968H19.5375ZM27.5055 18V7.248H30.7215V18H27.5055ZM35.9839 18.24C35.4079 18.24 34.9359 18.048 34.5679 17.664C34.1999 17.28 34.0159 16.808 34.0159 16.248C34.0159 15.688 34.1999 15.216 34.5679 14.832C34.9359 14.448 35.4079 14.256 35.9839 14.256C36.5439 14.256 37.0079 14.448 37.3759 14.832C37.7439 15.216 37.9279 15.688 37.9279 16.248C37.9279 16.808 37.7439 17.28 37.3759 17.664C37.0079 18.048 36.5439 18.24 35.9839 18.24Z" fill="#833AF9"/>
</svg>
