<svg xmlns="http://www.w3.org/2000/svg" width="172" height="39" viewBox="0 0 172 39">
    <defs>
        <filter id="v5hhq7c7fa">
            <feColorMatrix in="SourceGraphic" values="0 0 0 0 1.000000 0 0 0 0 1.000000 0 0 0 0 1.000000 0 0 0 1.000000 0"/>
        </filter>
    </defs>
    <g fill="none" fill-rule="evenodd">
        <g>
            <g>
                <g filter="url(#v5hhq7c7fa)" transform="translate(-874 -236) translate(0 121) translate(711 115)">
                    <g>
                        <path d="M0 0L172 0 172 39 0 39z" transform="translate(163)"/>
                        <g fill-rule="nonzero">
                            <path fill="#4C4C4C" d="M66.635 0h3.834l-7.846 26.003h-3.406L54.544 6.59l-4.708 19.413h-3.353L38.62 0h3.834l5.635 20.038L53.153 0h2.817l5.048 20.038L66.635 0zm8.97 26.003h-3.53V0h3.53v8.59c.57-.845 1.31-1.482 2.22-1.91.91-.43 1.971-.644 3.184-.644 2.377 0 4.226.762 5.545 2.286 1.32 1.525 1.98 3.661 1.98 6.412v11.269h-3.531V15.877c0-2.18-.368-3.798-1.106-4.858-.737-1.06-1.866-1.59-3.388-1.59-.927 0-1.747.215-2.46.644-.714.428-1.285 1.047-1.713 1.857-.261.488-.448 1.083-.561 1.786-.114.703-.17 1.821-.17 3.357v8.93zm32.77 0v-2.411c-.903.94-1.911 1.652-3.023 2.134s-2.298.723-3.558.723c-2.948 0-5.397-.985-7.347-2.955-1.95-1.971-2.924-4.438-2.924-7.403 0-1.381.243-2.69.73-3.929.488-1.239 1.184-2.328 2.087-3.268.987-1.036 2.066-1.801 3.237-2.295 1.17-.494 2.505-.741 4.003-.741 1.344 0 2.58.238 3.71.714s2.157 1.197 3.085 2.161V6.358h3.566v19.645h-3.566zm-13.197-9.948c0 1.989.657 3.655 1.97 5 1.314 1.347 2.923 2.019 4.825 2.019 1.736 0 3.266-.676 4.592-2.027 1.326-1.351 1.988-2.932 1.988-4.742 0-1.928-.657-3.58-1.97-4.956-1.314-1.375-2.874-2.062-4.682-2.062-1.854 0-3.439.654-4.752 1.964-1.314 1.31-1.97 2.911-1.97 4.804zm26.433 9.948h-3.763V3.5h-6.676V0h17.116v3.5h-6.677v22.503zm21.098 0v-2.411c-.904.94-1.911 1.652-3.023 2.134s-2.298.723-3.558.723c-2.948 0-5.397-.985-7.347-2.955-1.95-1.971-2.925-4.438-2.925-7.403 0-1.381.244-2.69.732-3.929.487-1.239 1.183-2.328 2.086-3.268.987-1.036 2.066-1.801 3.237-2.295 1.17-.494 2.505-.741 4.003-.741 1.344 0 2.58.238 3.71.714s2.157 1.197 3.085 2.161V6.358h3.566v19.645h-3.566zm-13.197-9.948c0 1.989.657 3.655 1.97 5 1.314 1.347 2.923 2.019 4.825 2.019 1.736 0 3.266-.676 4.592-2.027 1.326-1.351 1.988-2.932 1.988-4.742 0-1.928-.657-3.58-1.97-4.956-1.314-1.375-2.874-2.062-4.682-2.062-1.854 0-3.439.654-4.752 1.964-1.314 1.31-1.97 2.911-1.97 4.804zm24.325 7.572v8.734h-3.53V6.358h3.566v2.41c.903-.928 1.911-1.633 3.023-2.116 1.112-.482 2.298-.723 3.558-.723 2.96 0 5.415.982 7.365 2.947 1.95 1.964 2.924 4.429 2.924 7.394 0 1.368-.243 2.672-.73 3.91-.489 1.24-1.19 2.34-2.105 3.305-.987 1.035-2.066 1.8-3.237 2.295-1.17.493-2.505.74-4.003.74-1.332 0-2.566-.24-3.7-.723-1.136-.482-2.18-1.205-3.13-2.17zm-.106-7.572c0 1.94.65 3.596 1.952 4.965 1.302 1.369 2.856 2.054 4.664 2.054 1.843 0 3.424-.658 4.743-1.974 1.32-1.315 1.98-2.913 1.98-4.795 0-1.988-.654-3.655-1.962-5-1.308-1.346-2.907-2.018-4.797-2.018-1.736 0-3.266.676-4.592 2.027-1.326 1.35-1.988 2.931-1.988 4.741z" transform="translate(163) translate(0 6.5)"/>
                            <g>
                                <path fill="#E45125" d="M0 17.948L3.894 17.948 3.894 26.021 0 26.021z" transform="translate(163) translate(0 6.5)"/>
                                <path fill="#FFB902" d="M7.14 9.1L11.034 9.1 11.034 26.021 7.14 26.021z" transform="translate(163) translate(0 6.5)"/>
                                <path fill="#80BA01" d="M14.279 0L18.174 0 18.174 26 14.279 26z" transform="translate(163) translate(0 6.5)"/>
                                <path fill="#19A0E5" d="M25.313 0L31.155 0 31.155 3.9 25.313 3.9 25.313 26 21.419 26 21.419 0z" transform="translate(163) translate(0 6.5)"/>
                            </g>
                        </g>
                    </g>
                </g>
            </g>
        </g>
    </g>
</svg>
