<?xml version="1.0" encoding="UTF-8"?>
<svg width="100px" height="60px" viewBox="0 0 100 60" version="1.1" xmlns="http://www.w3.org/2000/svg" xmlns:xlink="http://www.w3.org/1999/xlink">
    <!-- Generator: Sketch 55.2 (78181) - https://sketchapp.com -->
    <title>logo/kakao_ventures</title>
    <desc>Created with Sketch.</desc>
    <g id="logo/kakao_ventures" stroke="none" stroke-width="1" fill="none" fill-rule="evenodd">
        <g transform="translate(7.000000, 25.000000)" fill="#231916">
            <path d="M61.1213448,2.96272414 L62.8958276,2.96272414 C62.8958276,2.96272414 62.8954828,5.97686207 62.8958276,7.34444828 C62.8958276,8.07582759 63.1744483,8.38306897 63.9003103,8.42927586 C64.3654828,8.45858621 64.7934138,8.33306897 65.1965172,8.06755172 L65.1965172,2.96272414 L66.9278966,2.96272414 L66.943069,9.7547931 L65.7123793,9.7547931 C65.7123793,9.7547931 65.6082414,9.34858621 65.5499655,9.12237931 C65.4972069,9.16272414 65.4599655,9.18755172 65.4268621,9.2172069 C64.8985862,9.69168966 64.2723793,9.92582759 63.5699655,9.941 C63.2816897,9.9472069 62.9868621,9.92168966 62.7041034,9.86513793 C61.9623793,9.71651724 61.4947931,9.24962069 61.2654828,8.53893103 C61.1554828,8.19824138 61.1085862,7.84548276 61.1082414,7.48755172 C61.1075517,6.05513793 61.1085862,2.96272414 61.1085862,2.96272414 L61.1213448,2.96272414 Z" id="Fill-22"></path>
            <path d="M46.6994483,6.94834483 L42.6846207,6.94834483 C42.6708276,7.8617931 43.2477241,8.39937931 44.0128966,8.51282759 C44.7125517,8.61662069 45.3794483,8.478 46.0353103,8.25075862 C46.0884138,8.23213793 46.1397931,8.20868966 46.1925517,8.188 C46.1994483,8.18524138 46.208069,8.18765517 46.2325517,8.18765517 C46.3604828,8.57144828 46.4904828,8.96075862 46.6270345,9.37075862 C46.5377241,9.418 46.4501379,9.47386207 46.3553103,9.51282759 C45.3532414,9.92489655 44.3232414,10.0924828 43.2484138,9.86282759 C42.0863448,9.6142069 41.3363448,8.92524138 41.0466897,7.76696552 C40.7884138,6.73351724 40.7932414,5.70006897 41.1453103,4.68593103 C41.5673793,3.46903448 42.5470345,2.78041379 43.8328966,2.76627586 C44.2908276,2.76144828 44.7373793,2.80868966 45.1604828,2.99489655 C45.8122069,3.2817931 46.2353103,3.78351724 46.4825517,4.43868966 C46.7322069,5.10006897 46.7973793,5.788 46.7435862,6.48972414 C46.7325517,6.63248276 46.7163448,6.77489655 46.6994483,6.94834483 L46.6994483,6.94834483 Z M45.0353103,5.72627586 C45.0653103,5.4442069 45.0294483,5.11351724 44.9442759,4.84903448 C44.6873793,4.04937931 43.6325517,3.81351724 43.0642759,4.43558621 C42.7353103,4.79558621 42.6646207,5.2442069 42.6518621,5.72627586 L45.0353103,5.72627586 Z" id="Fill-24"></path>
            <path d="M75.2569655,6.943 C75.2504138,7.79196552 75.7676552,8.38644828 76.5855862,8.51231034 C77.2855862,8.61989655 77.9531724,8.47782759 78.610069,8.253 C78.6635172,8.23472414 78.7148966,8.21058621 78.7676552,8.18989655 C78.7745517,8.18713793 78.7835172,8.19058621 78.8138621,8.19265517 C78.9411034,8.57196552 79.0711034,8.95955172 79.2086897,9.36955172 C79.1290345,9.41265517 79.055931,9.46024138 78.9769655,9.49403448 C77.930069,9.94024138 76.850069,10.1057586 75.7297241,9.84127586 C74.6531724,9.58713793 73.9417931,8.92748276 73.650069,7.85575862 C73.3562759,6.7767931 73.3635172,5.69541379 73.7435172,4.63472414 C74.1607586,3.47127586 75.1393793,2.78437931 76.3721379,2.76782759 C76.7128276,2.76334483 77.050069,2.77955172 77.3824828,2.87024138 C78.1348966,3.07644828 78.6593793,3.54472414 78.9817931,4.24506897 C79.2904138,4.91506897 79.3617931,5.62713793 79.3328276,6.35403448 C79.3252414,6.54472414 79.2986897,6.73472414 79.2790345,6.943 L75.2569655,6.943 Z M77.6024828,5.72231034 C77.6462759,5.4492069 77.6269655,5.21610345 77.5376552,4.89541379 C77.3317931,4.15610345 76.4614483,3.84093103 75.8245517,4.27506897 C75.4390345,4.53782759 75.1655862,5.24058621 75.2676552,5.72231034 L77.6024828,5.72231034 Z" id="Fill-26"></path>
            <path d="M48.1256207,2.96272414 L49.3428621,2.96272414 C49.3428621,2.96272414 49.5097586,3.38375862 49.6011379,3.60858621 C49.6804483,3.55134483 49.7442414,3.50651724 49.807,3.46065517 C50.4828621,2.96513793 51.2263103,2.70513793 52.0763103,2.77651724 C52.9407931,2.84893103 53.597,3.33548276 53.8521724,4.161 C53.9466552,4.46651724 54.0145862,5.11237931 54.0145862,5.11237931 L54.0307931,9.75755172 L52.2797586,9.75755172 L52.2776897,5.41237931 C52.2776897,5.41237931 52.2628621,5.10548276 52.2345862,4.95548276 C52.1752759,4.63755172 51.977,4.44444828 51.6652759,4.36272414 C51.3380345,4.2772069 51.0073448,4.27996552 50.679069,4.33686207 C50.4021724,4.38513793 50.1218276,4.42996552 49.8483793,4.57203448 L49.8483793,9.76444828 L48.1256207,9.77168966 L48.1256207,2.96272414 Z" id="Fill-28"></path>
            <path d="M85.3059655,3.28017241 C85.1366552,3.72258621 84.9787241,4.13534483 84.8145862,4.56362069 C84.4559655,4.38568966 84.0980345,4.26672414 83.7238966,4.20534483 C83.4207931,4.15568966 83.1166552,4.10465517 82.809069,4.17603448 C82.7776897,4.18327586 82.7445862,4.18396552 82.7135517,4.19189655 C82.3928621,4.27396552 82.1738966,4.48706897 82.1466552,4.75258621 C82.114931,5.06051724 82.3056207,5.23844828 82.5466552,5.35637931 C82.8432069,5.50189655 83.1514828,5.62534483 83.4604483,5.74327586 C83.8311379,5.88431034 84.1997586,6.02637931 84.537,6.2387931 C85.1883793,6.64948276 85.4328621,7.24982759 85.3635517,7.99775862 C85.3525172,8.11844828 85.3452759,8.24017241 85.3204483,8.35844828 C85.1601034,9.12362069 84.6742414,9.58706897 83.9428621,9.805 C83.4187241,9.9612069 82.8794138,9.9987931 82.3345862,9.95086207 C81.7042414,9.89534483 81.0866552,9.77706897 80.4883793,9.56741379 C80.4125172,9.54086207 80.3387241,9.50948276 80.2425172,9.47224138 C80.3197586,9.01362069 80.4714828,8.58155172 80.5766552,8.10362069 C80.6838966,8.13706897 80.7732069,8.16258621 80.8607931,8.19293103 C81.4521724,8.39672414 82.0559655,8.54534483 82.6845862,8.54810345 C82.8911379,8.5487931 83.1028621,8.51258621 83.3035517,8.45913793 C83.5125172,8.40327586 83.6476897,8.25224138 83.6732069,8.02568966 C83.6994138,7.79396552 83.6559655,7.57706897 83.4445862,7.45155172 C83.2163103,7.31637931 82.9756207,7.20017241 82.7314828,7.09603448 C82.4718276,6.985 82.1952759,6.91327586 81.9380345,6.79706897 C81.6666552,6.67465517 81.3994138,6.53706897 81.149069,6.37637931 C80.8080345,6.15706897 80.6014828,5.83086207 80.5211379,5.43293103 C80.4228621,4.94810345 80.4245862,4.46844828 80.639069,4.00948276 C80.9318276,3.38396552 81.447,3.02396552 82.0976897,2.87293103 C83.2035517,2.61603448 84.2607931,2.81189655 85.3059655,3.28017241" id="Fill-30"></path>
            <path d="M33.6846897,3.21606897 C34.2708966,3.04813793 34.8415862,2.88503448 35.4312414,2.71606897 C35.9391724,4.47641379 36.4398621,6.21193103 36.9398621,7.94434483 C36.9553793,7.94675862 36.9629655,7.94917241 36.9698621,7.94848276 C36.9774483,7.94744828 36.9850345,7.94468966 36.9912414,7.94055172 C36.9977931,7.93606897 37.0043448,7.92986207 37.0074483,7.92262069 C37.0136552,7.90813793 37.0177931,7.89262069 37.0222759,7.87710345 C37.516069,6.17055172 38.0095172,4.464 38.5033103,2.75744828 C38.5053793,2.74986207 38.5115862,2.74365517 38.5167586,2.73744828 C38.521931,2.73158621 38.5284828,2.72641379 38.5543448,2.70158621 C39.0953793,2.86227586 39.6495172,3.02675862 40.2381379,3.20124138 C39.4546897,5.39434483 38.6629655,7.56710345 37.8750345,9.75572414 L36.0512414,9.75572414 C35.2684828,7.59296552 34.4812414,5.41744828 33.6846897,3.21606897" id="Fill-32"></path>
            <path d="M56.0282759,4.28013793 L54.9765517,4.28013793 L54.9765517,3.09875862 L56.0282759,2.96324138 L56.0282759,1.61255172 L57.817931,1.226 L57.817931,2.96289655 L59.8237931,2.96289655 L59.8237931,4.28013793 L57.817931,4.28013793 C57.817931,4.28013793 57.8127586,6.44393103 57.817931,7.39875862 C57.8189655,7.56703448 57.8462069,7.73875862 57.8841379,7.90255172 C57.9803448,8.32117241 58.2331034,8.50289655 58.662069,8.44737931 C58.9413793,8.41117241 59.2155172,8.33703448 59.4917241,8.27806897 C59.5534483,8.26462069 59.6141379,8.24427586 59.7,8.22048276 C59.8355172,8.62944828 59.9686207,9.0322069 60.1093103,9.45772414 C59.9596552,9.52944828 59.8268966,9.60462069 59.6855172,9.65806897 C59.152069,9.86151724 58.6003448,9.98082759 58.0268966,9.96289655 C57.8265517,9.95668966 57.6234483,9.92806897 57.4286207,9.88082759 C56.7113793,9.70565517 56.3396552,9.20082759 56.1648276,8.51910345 C56.067931,8.14117241 56.0303448,7.75358621 56.0282759,7.36565517 C56.0234483,6.43496552 56.0282759,4.28013793 56.0282759,4.28013793" id="Fill-34"></path>
            <path d="M32.3071379,6.31627586 C32.2847241,7.0442069 32.2367931,7.62282759 32.0202414,8.17317241 C31.6040345,9.22972414 30.8292069,9.808 29.6992069,9.92317241 C29.2754138,9.96662069 28.8574828,9.94696552 28.4478276,9.84248276 C27.4616207,9.59041379 26.8457586,8.9442069 26.5357586,7.99144828 C26.4002414,7.5742069 26.3381724,7.14317241 26.3323103,6.70317241 C26.325069,6.14351724 26.3371379,5.58627586 26.4943793,5.04386207 C26.7840345,4.04248276 27.3805862,3.32731034 28.4119655,3.04144828 C28.983,2.88317241 29.5636897,2.8842069 30.1405862,3.02282759 C30.8992069,3.20489655 31.4605862,3.64696552 31.8371379,4.32696552 C32.0188621,4.65524138 32.1402414,5.00765517 32.1988621,5.37593103 C32.2557586,5.7342069 32.2826552,6.09696552 32.3071379,6.31627586 M27.4888621,6.40041379 C27.4888621,6.53593103 27.4857586,6.63282759 27.4895517,6.72972414 C27.5067931,7.19317241 27.5733448,7.64696552 27.7767931,8.07006897 C28.1943793,8.938 29.2064483,9.28937931 30.0788621,8.87455172 C30.5857586,8.63351724 30.8547241,8.20524138 30.9971379,7.68834483 C31.1905862,6.98351724 31.1902414,6.268 31.0723103,5.55075862 C31.0154138,5.20524138 30.9002414,4.88213793 30.7205862,4.578 C30.1478276,3.608 28.5023103,3.5617931 27.9016207,4.59731034 C27.7971379,4.77731034 27.710931,4.97248276 27.6481724,5.17075862 C27.5174828,5.5817931 27.4761034,6.00765517 27.4888621,6.40041379" id="Fill-36"></path>
            <path d="M23.9506552,9.78817241 C23.8978966,9.53368966 23.8527241,9.31541379 23.8023793,9.07127586 C23.6923793,9.14955172 23.6085862,9.21162069 23.5223793,9.26955172 C22.9827241,9.633 22.3975517,9.883 21.7403103,9.89886207 C21.4699655,9.90541379 21.1865172,9.87472414 20.9278966,9.79782759 C20.2975517,9.61058621 19.9337586,9.15610345 19.7972069,8.52334483 C19.7123793,8.13231034 19.7216897,7.73851724 19.823069,7.34713793 C19.9547931,6.83851724 20.2565172,6.46955172 20.7165172,6.22644828 C21.1778966,5.983 21.6782414,5.8992069 22.1923793,5.88955172 C22.6051379,5.88196552 23.0178966,5.88817241 23.4306552,5.88817241 L23.6820345,5.88817241 C23.6934138,5.8167931 23.7127241,5.76265517 23.7085862,5.71058621 C23.6844483,5.41334483 23.6865172,5.10955172 23.6206552,4.82162069 C23.4878966,4.23989655 23.0965172,3.93024138 22.503069,3.88610345 C21.9768621,3.84713793 21.4741034,3.96162069 20.9806552,4.12817241 C20.8354828,4.17748276 20.693069,4.23506897 20.5285862,4.29644828 C20.3816897,4.05713793 20.3106552,3.78472414 20.1834138,3.51127586 C20.2737586,3.463 20.3551379,3.41437931 20.4406552,3.37472414 C21.243069,3.00231034 22.0806552,2.82437931 22.9637586,2.96265517 C23.9954828,3.12437931 24.5944483,3.75368966 24.7247931,4.80058621 C24.7554828,5.04851724 24.771,5.29989655 24.7716897,5.54955172 C24.7761724,6.86058621 24.7737586,8.17162069 24.7737586,9.48265517 L24.7737586,9.76368966 C24.4954828,9.81575862 24.2334138,9.78024138 23.9506552,9.78817241 M23.6954828,8.22024138 L23.6954828,6.663 C23.6437586,6.65437931 23.6054828,6.64196552 23.5668621,6.64196552 C23.2196207,6.64058621 22.8720345,6.63334483 22.5251379,6.64472414 C22.2837586,6.65265517 22.0396207,6.66782759 21.8037586,6.71437931 C21.3372069,6.8067931 20.9651379,7.04127586 20.868931,7.54127586 C20.8227241,7.78162069 20.8223793,8.04265517 20.8616897,8.28472414 C20.9206552,8.65127586 21.1568621,8.88058621 21.5306552,8.96127586 C21.7734138,9.01403448 22.0113448,9.00472414 22.2506552,8.95127586 C22.7951379,8.8292069 23.2934138,8.6167931 23.6954828,8.22024138" id="Fill-38"></path>
            <path d="M10.2914138,5.88810345 C10.3214138,5.43155172 10.3207241,5.01362069 10.1607241,4.61465517 C9.98037931,4.16396552 9.62727586,3.93810345 9.15451724,3.89086207 C8.67968966,3.84327586 8.21968966,3.9287931 7.76831034,4.06844828 C7.56037931,4.13293103 7.35658621,4.21017241 7.12555172,4.29017241 C6.98244828,4.05189655 6.90727586,3.78258621 6.78210345,3.50603448 C6.93106897,3.43362069 7.06417241,3.3612069 7.2027931,3.30258621 C7.96210345,2.9812069 8.74831034,2.83362069 9.57141379,2.96362069 C10.5783103,3.12258621 11.1838276,3.745 11.3186552,4.76051724 C11.3496897,4.99224138 11.3655517,5.22741379 11.3662414,5.46086207 C11.3707241,6.80431034 11.3683103,8.14741379 11.3683103,9.49086207 L11.3683103,9.7712069 L10.5527931,9.7712069 C10.5055517,9.55155172 10.456931,9.32706897 10.4027931,9.07672414 C10.3176207,9.13534483 10.2534828,9.1787931 10.1900345,9.22327586 C9.63555172,9.60948276 9.0327931,9.87775862 8.35003448,9.89913793 C8.07968966,9.90775862 7.79762069,9.87327586 7.53762069,9.79948276 C6.98589655,9.64293103 6.62037931,9.26982759 6.45175862,8.71948276 C6.30382759,8.23603448 6.29831034,7.74465517 6.44624138,7.26189655 C6.64348276,6.61844828 7.11210345,6.24706897 7.73382759,6.05189655 C8.09003448,5.94017241 8.45831034,5.88672414 8.83313793,5.88775862 C9.22968966,5.88913793 9.62624138,5.88810345 10.0227931,5.88810345 L10.2914138,5.88810345 Z M10.2917586,6.64844828 C9.86658621,6.64844828 9.47003448,6.63534483 9.07555172,6.65327586 C8.79486207,6.66568966 8.50968966,6.695 8.23762069,6.76258621 C7.80968966,6.8687931 7.52831034,7.15258621 7.45486207,7.59465517 C7.42003448,7.80637931 7.41968966,8.03189655 7.45037931,8.24465517 C7.50831034,8.64706897 7.76037931,8.88362069 8.16382759,8.96913793 C8.46589655,9.03293103 8.759,8.98362069 9.04968966,8.90224138 C9.52313793,8.76982759 9.95486207,8.56293103 10.2917586,8.22293103 L10.2917586,6.64844828 Z" id="Fill-40"></path>
            <path d="M72.9431724,2.84165517 C72.8814483,3.40441379 72.8217931,3.94924138 72.7586897,4.52544828 C71.9817931,4.36406897 71.2269655,4.36613793 70.4731724,4.66165517 L70.4731724,9.72165517 L68.7338621,9.74855172 L68.7338621,2.96268966 L69.9735172,2.96268966 C69.9735172,2.96268966 70.1390345,3.41406897 70.2362759,3.67096552 C70.3217931,3.60027586 70.3924828,3.54027586 70.4642069,3.482 C71.1062759,2.95786207 71.8335172,2.69924138 72.6683448,2.7782069 C72.7245517,2.78337931 72.7807586,2.78993103 72.8362759,2.80062069 C72.8673103,2.80682759 72.8962759,2.82337931 72.9431724,2.84165517" id="Fill-42"></path>
            <polygon id="Fill-45" points="6.82121026e-13 0.244827586 1.10448276 0 1.10448276 9.77103448 6.82121026e-13 9.77103448"></polygon>
            <polygon id="Fill-46" points="4.47558621 9.97255172 1.51041379 6.31289655 4.11937931 2.86496552 5.00317241 3.50806897 2.838 6.25082759 5.34524138 9.28841379"></polygon>
            <polygon id="Fill-47" points="13.3661724 0.244827586 14.4706552 0 14.4706552 9.77103448 13.3661724 9.77103448"></polygon>
            <polygon id="Fill-48" points="17.8417931 9.97255172 14.8766207 6.31289655 17.4855862 2.86496552 18.3693793 3.50806897 16.2042069 6.25082759 18.7114483 9.28841379"></polygon>
        </g>
    </g>
</svg>