<?xml version="1.0" encoding="UTF-8"?>
<svg width="100px" height="60px" viewBox="0 0 100 60" version="1.1" xmlns="http://www.w3.org/2000/svg" xmlns:xlink="http://www.w3.org/1999/xlink">
    <!-- Generator: Sketch 55.2 (78181) - https://sketchapp.com -->
    <title>logo/kb_investment</title>
    <desc>Created with Sketch.</desc>
    <g id="logo/kb_investment" stroke="none" stroke-width="1" fill="none" fill-rule="evenodd">
        <g transform="translate(5.000000, 24.000000)">
            <polygon id="Fill-81" fill="#6B6359" points="20.6751636 1.6568235 21.9777091 1.6568235 21.9777091 5.29427805 26.3606182 1.6568235 28.2049818 1.6568235 23.5726182 5.32809623 28.5889818 9.7848235 26.7464364 9.7848235 21.9777091 5.42918714 21.9777091 9.7848235 20.6751636 9.7848235"></polygon>
            <path d="M29.4974545,1.67435077 L33.5061818,1.67435077 C35.4138182,1.67435077 36.412,2.30598714 36.412,3.68525987 C36.412,4.66780532 35.7232727,5.34307805 34.8087273,5.52525987 L34.8087273,5.55907805 C36.12,5.71507805 36.7410909,6.57216896 36.7410909,7.53980532 C36.7410909,8.75289623 35.8490909,9.80235077 33.6338182,9.80235077 L29.4974545,9.80235077 L29.4974545,1.67435077 Z M30.7974545,5.09725987 L33.4429091,5.09725987 C34.4250909,5.09725987 35.1509091,4.72525987 35.1509091,3.85835077 C35.1509091,3.10453259 34.7934545,2.60016896 33.2916364,2.60016896 L30.7974545,2.60016896 L30.7974545,5.09725987 Z M30.7974545,8.87907805 L33.3610909,8.87907805 C34.9530909,8.87907805 35.3752727,8.25871441 35.3752727,7.47216896 C35.3752727,6.53835077 34.7276364,6.02089623 33.2916364,6.02089623 L30.7974545,6.02089623 L30.7974545,8.87907805 Z" id="Fill-82" fill="#6B6359"></path>
            <path d="M16.5869091,6.14056896 L16.4410909,6.04856896 C15.9436364,5.55329623 15.2509091,5.33838714 14.3250909,5.39293259 C13.5549091,5.44020532 12.944,5.74384168 12.4770909,6.02784168 C12.4770909,6.02020532 12.4756364,6.01438714 12.4756364,6.0060235 C12.4756364,5.7660235 12.504,5.50529623 12.5298182,5.25220532 C12.5581818,4.99547805 12.5858182,4.73365987 12.5858182,4.48456896 C12.5858182,4.23220532 12.5563636,3.99256896 12.4698182,3.78784168 C12.4472727,3.7340235 12.3985455,3.70311441 12.3374545,3.70311441 C12.0876364,3.70856896 11.6018182,3.87838714 11.4832727,3.98093259 L11.42,4.12093259 C11.4145455,4.39584168 11.3549091,5.16275077 11.2941818,5.25620532 C11.2963636,5.25293259 11.2603636,5.34893259 11.2603636,5.34893259 C11.1563636,6.44420532 11.1530909,7.40711441 11.2501818,8.23475077 C11.2618182,8.31693259 11.4214545,8.44165987 11.5443636,8.48638714 C11.6789091,8.53584168 12.1036364,8.42311441 12.3472727,8.33111441 C12.3450909,8.33147805 12.4396364,8.31693259 12.4396364,8.31693259 C12.5170909,8.30820532 12.5618182,8.24347805 12.5581818,8.15656896 C12.5581818,8.15438714 12.5636364,7.9180235 12.5636364,7.9180235 C12.7407273,7.20420532 13.4541818,6.35329623 14.2974545,6.22529623 C14.7749091,6.1500235 15.1516364,6.27111441 15.4494545,6.59511441 C15.4890909,6.65293259 15.5763636,7.1660235 15.2621818,7.75656896 C15.028,8.19438714 14.5592727,8.56165987 13.9436364,8.79256896 C13.3610909,9.01184168 12.7192727,9.10238714 11.9272727,9.0740235 C11.8952727,9.05256896 11.1854545,8.57511441 11.1854545,8.57511441 C10.5581818,8.13547805 9.77854545,7.58893259 9.06945455,7.32129623 C8.94654545,7.27438714 8.72290909,7.0900235 8.58981818,6.97984168 L8.51636364,6.91984168 C8.10836364,6.59329623 7.33236364,6.07838714 6.70836364,5.66347805 C6.70836364,5.66347805 6.42618182,5.47547805 6.37163636,5.44020532 C6.37236364,5.41656896 6.37309091,5.36929623 6.37309091,5.36929623 C6.39163636,5.35038714 6.78254545,5.11620532 6.78254545,5.11620532 C7.33090909,4.79620532 7.58509091,4.63911441 7.63854545,4.55875077 C7.628,4.57147805 7.71236364,4.51584168 7.71236364,4.51584168 C7.71563636,4.51329623 9.07163636,3.74965987 9.07163636,3.74965987 C10.3770909,3.03329623 11.856,2.22347805 12.6330909,1.42238714 C12.6338182,1.42165987 12.6712727,1.30056896 12.6712727,1.30056896 L12.688,1.19075077 C12.7385455,1.01947805 12.7421818,0.887841684 12.6996364,0.73620532 C12.688,0.692932593 12.6476364,0.642387138 12.5934545,0.63220532 C11.9876364,0.572932593 11.2043636,0.934387138 10.4927273,1.59947805 C10.3330909,1.75075077 10.1970909,1.82347805 10.0541818,1.90056896 L9.94581818,1.96165987 C9.16036364,2.40565987 7.39127273,3.49947805 6.46618182,4.08965987 C6.52727273,3.09765987 6.71127273,1.68711441 6.93745455,0.510750775 L6.91236364,0.369659866 C6.91018182,0.365659866 6.81709091,0.192568956 6.81709091,0.192568956 L6.74509091,0.0642053201 L6.72363636,0.0594780474 C6.53890909,-0.0347037708 6.38763636,0.00420532012 6.27672727,0.0329325928 C6.27854545,0.0329325928 6.092,0.100568956 6.092,0.100568956 L5.84509091,0.189296229 C5.79709091,0.198750775 5.76181818,0.22820532 5.74254545,0.275841684 C5.30145455,1.34129623 4.93127273,3.09184168 4.84545455,4.49256896 C3.96145455,3.93256896 3.14472727,3.53038714 2.74436364,3.33584168 L2.73309091,3.32929623 L2.68509091,3.31947805 C2.54218182,3.30020532 2.36509091,3.19547805 2.19527273,3.09220532 C2.17854545,3.08311441 1.86072727,2.87656896 1.86072727,2.87656896 L1.34581818,2.54820532 C1.352,2.55147805 1.212,2.5180235 1.212,2.5180235 C0.989818182,2.55547805 0.567272727,2.83947805 0.442181818,3.03147805 C0.424727273,3.05765987 0.419272727,3.08493259 0.419272727,3.1140235 C0.419272727,3.15475077 0.431272727,3.19584168 0.442181818,3.23475077 L0.465090909,3.33947805 L0.488727273,3.40275077 C0.735636364,3.65365987 1.356,4.07256896 1.96436364,4.39947805 L2.67127273,4.77184168 L3.75163636,5.35984168 C3.75163636,5.36529623 3.936,5.50529623 3.936,5.50529623 C3.93672727,5.50529623 4.06363636,5.57838714 4.06363636,5.57838714 C4.06363636,5.57838714 4.07672727,5.58711441 4.08436364,5.59256896 C3.79818182,5.78456896 2.12145455,6.90056896 2.12145455,6.90056896 L1.08690909,7.5820235 C0.989818182,7.64893259 0.581090909,7.83184168 0.492,7.86711441 C0.266909091,7.95765987 0.0985454545,8.09693259 0.0272727273,8.24856896 L6.82121026e-13,8.30784168 L0.028,8.34747805 L0.106545455,8.40711441 C0.103272727,8.40638714 0.213090909,8.47620532 0.213090909,8.47620532 L0.326181818,8.5540235 C0.329090909,8.55511441 0.434545455,8.5700235 0.434545455,8.5700235 C0.615636364,8.57729623 0.885454545,8.47475077 1.388,8.25547805 C1.84909091,8.05111441 3.10509091,7.29693259 3.64109091,6.97511441 L3.87018182,6.83765987 C3.96545455,6.84638714 4.06981818,6.76565987 4.16145455,6.69584168 C4.27018182,6.61038714 4.50436364,6.46747805 4.64654545,6.40493259 C4.65018182,6.40275077 4.73272727,6.35838714 4.80872727,6.31547805 C4.808,6.34020532 4.80690909,6.37765987 4.80690909,6.37765987 C4.83127273,8.01256896 4.92618182,9.20093259 5.10509091,10.116569 L5.108,10.1332962 L5.12545455,10.1703871 C5.21490909,10.3002053 5.31418182,10.687478 5.40290909,11.0292962 L5.60836364,11.711478 C5.612,11.7187508 5.66545455,11.775478 5.66545455,11.775478 C5.78254545,11.8532962 6.13854545,11.9896599 6.37527273,11.9623871 L6.43490909,11.9551144 L6.47236364,11.871478 C6.492,11.7696599 6.49963636,11.6696599 6.49963636,11.5591144 C6.49963636,11.4343871 6.49018182,11.2969326 6.47818182,11.128569 L6.46290909,10.8816599 C6.38763636,9.74056896 6.31236364,8.09147805 6.31236364,6.99656896 C6.31236364,6.9660235 6.31309091,6.9380235 6.31309091,6.90929623 C6.50763636,7.03147805 7.36,7.56565987 7.36,7.56565987 C8.808,8.50275077 10.9974545,9.9180235 12.3207273,10.291478 C12.3894545,10.3118417 12.4610909,10.2962053 12.5123636,10.247478 C12.5145455,10.2452962 12.7163636,10.1176599 12.7163636,10.1176599 L12.7534545,10.1020235 C12.8294545,10.0671144 12.8818182,9.9380235 12.8898182,9.79984168 C14.0047273,9.74456896 15.5603636,9.31620532 16.392,8.27438714 C16.7145455,7.8700235 16.8596364,7.37584168 16.8596364,6.95147805 C16.8596364,6.60420532 16.7625455,6.30529623 16.5869091,6.14056896" id="Fill-84" fill="#F0A82B"></path>
            <path d="M53.6857818,9.4000235 L52.8152364,9.4000235 L52.8152364,4.47456896 L51.8708727,4.47456896 L51.8708727,6.77056896 L47.9530545,6.77056896 L47.9530545,1.72729623 L48.8992364,1.72729623 L48.8992364,3.31420532 L50.8941455,3.31420532 L50.8941455,1.73129623 L51.8708727,1.73129623 L51.8708727,3.5760235 L52.7806909,3.5760235 L52.7806909,1.59093259 L53.6857818,1.59093259 L53.6857818,9.4000235 Z M48.8988727,5.99165987 L50.8941455,5.99165987 L50.8941455,4.22329623 L48.8988727,4.22329623 L48.8988727,5.99165987 Z" id="Fill-87" fill="#6B6359"></path>
            <polygon id="Fill-88" fill="#6B6359" points="82.6201091 1.81165987 89.3055636 1.81165987 89.3055636 2.55638714 83.5233818 2.55638714 83.5233818 3.87056896 89.1837455 3.87056896 89.1837455 4.66220532 83.5557455 4.66220532 83.5557455 5.97420532 89.2641091 5.97420532 89.2641091 6.75820532 82.6201091 6.75820532"></polygon>
            <path d="M73.9526909,5.73115077 L73.9526909,1.76424168 L78.5068727,1.76424168 L78.5068727,3.15696896 L80.0366909,3.15696896 L80.0366909,1.5824235 L80.9148727,1.5824235 L80.9148727,6.77369623 L80.0366909,6.82496896 L80.0366909,4.05624168 L78.5068727,4.05624168 L78.5068727,5.73115077 L73.9526909,5.73115077 Z M74.9246909,4.8984235 L77.5290545,4.8984235 L77.5290545,2.58969623 L74.9246909,2.58969623 L74.9246909,4.8984235 Z" id="Fill-89" fill="#6B6359"></path>
            <polygon id="Fill-90" fill="#6B6359" points="65.7982545 1.80329623 72.4015273 1.80329623 72.4015273 2.52147805 66.7517091 2.52147805 66.7517091 3.84620532 72.3455273 3.84620532 72.3455273 4.68075077 66.7349818 4.68075077 66.7349818 6.00111441 72.4164364 6.00111441 72.4164364 6.74875077 65.7982545 6.74875077"></polygon>
            <path d="M63.8830545,5.43129623 L63.8830545,6.20111441 C62.3885091,5.91093259 61.2048727,5.19820532 60.2197818,3.97420532 C59.2743273,5.15165987 58.0943273,5.89565987 56.5859636,6.20147805 L56.5859636,5.4400235 C58.3870545,4.82293259 59.7754182,3.85565987 59.6706909,1.63456896 L60.7019636,1.63456896 C60.6917818,3.75893259 61.9641455,4.85456896 63.8830545,5.43129623" id="Fill-91" fill="#6B6359"></path>
            <polygon id="Fill-93" fill="#6B6359" points="54.4048 9.67271441 55.2313455 9.67271441 55.2313455 1.5956235 54.4048 1.5956235"></polygon>
            <polygon id="Fill-94" fill="#6B6359" points="74.7305818 6.77264168 75.6564 6.77264168 75.6564 8.86791441 81.0156727 8.86791441 81.0662182 9.64500532 74.7305818 9.64500532"></polygon>
            <polygon id="Fill-95" fill="#6B6359" points="40.1620727 6.85925987 41.0598909 6.85925987 41.0598909 8.88289623 46.5144364 8.88289623 46.5144364 9.66253259 40.1620727 9.66253259"></polygon>
            <polygon id="Fill-96" fill="#6B6359" points="65.0458909 9.1156235 73.1168 9.1156235 73.1168 8.3956235 65.0458909 8.3956235"></polygon>
            <polygon id="Fill-97" fill="#6B6359" points="81.9008 9.11525987 90.0317091 9.11525987 90.0317091 8.39380532 81.9008 8.39380532"></polygon>
            <polygon id="Fill-98" fill="#6B6359" points="56.1920727 9.11344168 64.2164364 9.11344168 64.2164364 8.3956235 56.1920727 8.3956235"></polygon>
            <polygon id="Fill-99" fill="#6B6359" points="45.5658909 7.41525987 46.3975273 7.41525987 46.3975273 1.59198714 45.5658909 1.59198714"></polygon>
            <path d="M41.4772727,2.39824168 L41.4776364,2.39824168 C41.5118182,2.39824168 41.5463636,2.39896896 41.5809091,2.40005987 L41.6092727,2.40078714 L41.6376364,2.40005987 C41.6721818,2.39896896 41.7067273,2.39824168 41.7409091,2.39824168 C41.7689091,2.39824168 41.7969091,2.39860532 41.8249091,2.39969623 C42.2918182,2.41715077 43.3834545,2.58296896 43.4318182,3.73969623 C43.4485455,4.13824168 43.3369091,4.45678714 43.0903636,4.71278714 C42.7652727,5.05024168 42.2190909,5.25169623 41.6289091,5.25169623 L41.6147273,5.25169623 L41.6092727,5.25169623 L41.6041818,5.25169623 L41.5896364,5.25169623 C40.9994545,5.25169623 40.4532727,5.05024168 40.1281818,4.71278714 C39.8816364,4.45678714 39.77,4.13824168 39.7867273,3.73969623 C39.8350909,2.58296896 40.9267273,2.41715077 41.3936364,2.39969623 C41.4216364,2.39860532 41.4492727,2.39824168 41.4772727,2.39824168 M41.7409091,1.47024168 C41.6972727,1.47024168 41.6532727,1.47096896 41.6092727,1.4724235 C41.5652727,1.47096896 41.5212727,1.47024168 41.4776364,1.47024168 C41.438,1.47024168 41.3983636,1.47096896 41.3587273,1.4724235 C40.1034545,1.51969623 38.918,2.21569623 38.8558182,3.70078714 C38.7881818,5.31824168 40.1696364,6.18005987 41.5896364,6.18005987 C41.5961818,6.18005987 41.6027273,6.18005987 41.6092727,6.18005987 C41.6158182,6.18005987 41.6223636,6.18005987 41.6289091,6.18005987 C43.0489091,6.18005987 44.4303636,5.31860532 44.3627273,3.70078714 C44.3005455,2.21569623 43.1150909,1.51969623 41.8601818,1.4724235 C41.8205455,1.47096896 41.7805455,1.47024168 41.7409091,1.47024168" id="Fill-100" fill="#6B6359"></path>
        </g>
    </g>
</svg>