<svg width="87" height="64" viewBox="0 0 87 64" fill="none" xmlns="http://www.w3.org/2000/svg">
<g opacity="0.9">
<path d="M66.4386 3.71466L58.0485 5.67392L51.0795 0L43.2312 3.90977L35.3822 0L28.4132 5.67392L20.0231 3.71466L14.2419 10.9332L26.6855 42.8799L31.6284 44.5365L34.774 39.8782L39.3067 42.6792L43.2312 38.8707L47.1556 42.6792L51.6883 39.8782L54.8346 44.5365L59.7762 42.8799L72.2197 10.9332L66.4386 3.71466V3.71466Z" fill="#484395"/>
<path d="M20.024 3.71466L31.6293 44.5365L28.4141 5.67392L20.024 3.71466V3.71466ZM35.3837 0L39.3082 42.6792L43.2327 3.90977L35.3837 0V0ZM51.0804 0L47.1559 42.6792L58.0494 5.67392L51.0804 0V0Z" fill="#484395"/>
<path d="M54.8362 44.5368L59.7785 42.8795L72.2208 10.9329L54.8362 44.5368Z" fill="#3E3F92"/>
<path d="M43.2322 3.90977V38.8707L47.1567 42.6792L51.0812 0L43.2322 3.90977V3.90977Z" fill="#5F519D"/>
<path d="M39.3069 42.6793L43.2314 38.8708V3.90991L39.3069 42.6793Z" fill="#3E3F92"/>
<path d="M28.4151 5.67392L34.7753 39.8782L39.3085 42.6785L35.3841 0L28.4151 5.67392V5.67392Z" fill="#5F519D"/>
<path d="M31.629 44.5369L34.7747 39.8779L28.4151 5.67432L31.629 44.5369Z" fill="#3E3F92"/>
<path d="M58.0469 5.6741L51.6867 39.8784L54.833 44.5367L66.437 3.71484L58.0469 5.6741V5.6741Z" fill="#5F519D"/>
<path d="M47.155 42.6796L51.6876 39.8786L58.0485 5.67432L47.155 42.6796V42.6796Z" fill="#3E3F92"/>
<path d="M14.242 10.9328L26.6862 42.8801L31.6278 44.5367L20.0231 3.71484L14.242 10.9328Z" fill="#5F519D"/>
<path d="M3.83135 59.9391H6.58803L6.16387 58.857C5.86713 58.0953 5.49923 57.1336 5.23076 56.3985H5.2025C4.93377 57.1336 4.56638 58.0953 4.24113 58.9104L3.83135 59.9391ZM4.15634 53.9672H6.33343L10.49 63.6399H8.0866L7.26654 61.609H3.13845L2.30426 63.6399H0L4.15634 53.9672ZM19.0995 63.1456C18.2229 63.5865 17.1202 63.7868 16.1021 63.7868C12.8084 63.7868 10.5319 61.6357 10.5319 58.8169C10.5319 56.0112 12.8084 53.8201 16.1021 53.8201C17.1343 53.8201 18.1381 54.0473 18.944 54.4217V56.5726C18.1946 56.0914 17.1626 55.7306 16.1164 55.7306C14.1369 55.7306 12.7802 57.0399 12.7802 58.7902C12.7802 60.5138 14.0948 61.8763 16.2012 61.8763C17.2615 61.8763 18.2511 61.5291 19.0995 60.9811V63.1456ZM28.7268 63.1456C27.8505 63.5865 26.7475 63.7868 25.7294 63.7868C22.4357 63.7868 20.1595 61.6357 20.1595 58.8169C20.1595 56.0112 22.4357 53.8201 25.7294 53.8201C26.7617 53.8201 27.7657 54.0473 28.5714 54.4217V56.5726C27.8222 56.0914 26.7899 55.7306 25.744 55.7306C23.7643 55.7306 22.4075 57.0399 22.4075 58.7902C22.4075 60.5138 23.7224 61.8763 25.8288 61.8763C26.8888 61.8763 27.8787 61.5291 28.7268 60.9811V63.1456ZM38.2128 58.8036C38.2128 57.0933 36.8838 55.7439 35.1165 55.7439C33.3495 55.7439 32.0207 57.0933 32.0207 58.8036C32.0207 60.5135 33.3495 61.8632 35.1165 61.8632C36.8838 61.8632 38.2128 60.5135 38.2128 58.8036ZM29.773 58.8036C29.773 55.9848 32.0772 53.8201 35.1165 53.8201C38.1563 53.8201 40.4608 55.9848 40.4608 58.8036C40.4608 61.6223 38.1563 63.7866 35.1165 63.7866C32.0772 63.7866 29.773 61.6223 29.773 58.8036ZM45.253 58.2289C45.8609 58.2289 46.3272 58.1621 46.6666 58.0019C47.0486 57.8149 47.2464 57.4942 47.2464 57.0266C47.2464 56.5726 47.0769 56.2783 46.6666 56.078C46.3131 55.9042 45.762 55.8243 44.984 55.8243H44.1221V58.2289H45.253ZM41.8741 53.9672H45.0835C46.2989 53.9672 47.4442 54.1274 48.2641 54.6082C49.0137 55.0493 49.4942 55.7709 49.4942 56.8797C49.4942 58.122 48.773 59.1374 47.416 59.5516L50.2998 63.6399H47.713L45.1258 59.8187H44.1221V63.6399H41.8741V53.9672ZM53.9752 61.7828C55.4314 61.7828 56.3648 61.5425 57.0009 61.0209C57.6088 60.5269 57.9908 59.7521 57.9908 58.79C57.9908 57.7749 57.5664 56.92 56.8028 56.4118C56.0822 55.9311 55.1064 55.8243 53.9611 55.8243H53.3533V61.7828H53.9752ZM51.1058 53.9672H53.9752C55.7991 53.9672 57.2129 54.2476 58.2729 54.9422C59.5315 55.7709 60.238 57.1336 60.238 58.79C60.238 60.313 59.6304 61.6092 58.5419 62.4507C57.4957 63.2524 56.0257 63.6399 53.8763 63.6399H51.1058V53.9672ZM61.6094 53.9672H63.8572V63.6399H61.6094V53.9672ZM73.7108 58.8036C73.7108 57.0933 72.3818 55.7439 70.6145 55.7439C68.8477 55.7439 67.5187 57.0933 67.5187 58.8036C67.5187 60.5135 68.8477 61.8632 70.6145 61.8632C72.3818 61.8632 73.7108 60.5135 73.7108 58.8036ZM65.271 58.8036C65.271 55.9848 67.5752 53.8201 70.6145 53.8201C73.6543 53.8201 75.9588 55.9848 75.9588 58.8036C75.9588 61.6223 73.6543 63.7866 70.6145 63.7866C67.5752 63.7866 65.271 61.6223 65.271 58.8036ZM81.4578 59.7388C80.7932 58.897 80.1712 58.0822 79.5351 57.2402L79.5068 57.2536C79.5209 58.1755 79.5351 59.1107 79.5351 60.0459V63.6399H77.3721V53.9672H79.4927L82.5602 57.8683C83.2251 58.7098 83.8471 59.5251 84.483 60.3666L84.5112 60.3533C84.4971 59.4316 84.483 58.4962 84.483 57.5607V53.9672H86.6462V63.6399H84.5254L81.4578 59.7388Z" fill="#484395"/>
</g>
</svg>
