<svg width="62" height="73" viewBox="0 0 62 73" fill="none" xmlns="http://www.w3.org/2000/svg">
<g opacity="0.9" clip-path="url(#clip0_1144_1678)">
<path fill-rule="evenodd" clip-rule="evenodd" d="M58.9878 68.9493C58.9878 69.9997 58.7368 70.7874 57.9838 71.5752C57.2308 72.363 56.4777 72.6256 55.4737 72.6256H47.9433V70.5248H54.2186C54.7206 70.5248 54.9717 70.5248 55.2227 70.2623C55.4737 69.9997 55.7247 69.7371 55.7247 69.2119C55.7247 68.1615 54.9716 67.6364 53.7166 67.6364H50.4534C49.4494 67.6364 48.6963 67.3738 47.9433 66.586C47.1903 66.0608 46.9393 65.273 46.9393 64.2227C46.9393 63.1723 47.1903 62.3846 47.9433 61.5968C48.6963 60.809 49.4494 60.5464 50.7044 60.5464H57.9838V62.6471H51.4575C51.2065 62.6471 50.9555 62.6471 50.4534 63.1723C50.2024 63.4349 49.9514 63.6975 49.9514 64.2227C49.9514 64.7479 50.2024 65.0104 50.4534 65.273C50.7044 65.5356 50.9555 65.7982 51.4575 65.7982H54.9716C55.9757 65.7982 56.9797 66.0608 57.4818 66.8486C58.7368 67.1112 58.9878 67.8989 58.9878 68.9493ZM43.9271 66.586C43.9271 65.5356 43.6761 64.4853 43.1741 63.6975C42.6721 62.9097 41.668 62.6471 40.664 62.6471C39.6599 62.6471 38.6559 63.1723 38.1538 63.9601C37.6518 64.7479 37.4008 65.5356 37.4008 66.586C37.4008 67.8989 37.6518 68.6867 37.9028 69.4745C38.4049 70.2622 39.4089 70.7874 40.664 70.7874C41.919 70.7874 42.6721 70.2622 43.1741 69.4745C43.6761 68.9493 43.9271 67.8989 43.9271 66.586ZM46.6883 66.8486C46.6883 69.2119 46.1862 70.7874 44.9312 71.8378C43.9271 72.6256 42.6721 73.1507 40.664 73.1507C38.6559 73.1507 37.1498 72.6256 36.1457 71.8378C35.1417 70.7874 34.6397 69.2119 34.6397 66.8486C34.6397 65.0105 35.1417 63.6975 36.1457 62.6471C37.1498 61.5968 38.6559 61.0716 40.664 61.0716C42.9231 61.0716 44.4291 61.5968 45.4332 62.6471C46.1862 63.1723 46.6883 64.7479 46.6883 66.8486ZM34.1376 65.7982H32.1295V69.7371C32.1295 69.9997 32.1295 70.2622 32.3806 70.5248C32.6316 70.7874 32.8826 70.7874 33.3846 70.7874H33.8866V72.363H31.8785C31.3765 72.363 30.8745 72.1004 30.3725 71.5752C30.1215 71.3126 29.8704 71.05 29.8704 70.5248C29.8704 70.2622 29.8704 69.7371 29.8704 69.2119V65.0105H28.6154V63.1723H29.8704V60.0212H32.1295V63.1723H34.1376V65.7982ZM27.8623 72.6256H25.6032V66.8486C25.6032 66.586 25.6032 66.586 25.6032 66.586L25.3522 66.3234C25.1012 66.0608 24.8502 66.0608 24.5992 66.0608H22.5911V72.8882H20.332V63.9601H24.3482C25.1012 63.9601 25.6032 63.9601 25.8542 63.9601C26.3563 63.9601 26.8583 64.4853 27.1093 64.7479C27.3603 65.273 27.6113 65.7982 27.6113 66.586L27.8623 72.6256ZM19.0769 72.6256H15.3117C14.3077 72.6256 13.5547 72.1004 12.8016 71.3126C12.0486 70.5248 11.7976 69.4745 11.7976 68.4241C11.7976 67.1112 12.0486 66.0608 12.8016 65.273C13.5547 64.2227 14.3077 63.9601 15.3117 63.9601H18.8259V65.7982H16.3158C16.0648 65.7982 15.8138 65.7982 15.5627 65.7982C15.3117 65.7982 15.0607 66.0608 15.0607 66.0608C14.8097 66.3234 14.5587 66.8486 14.5587 67.3738H19.0769V69.2119H14.3077C14.3077 69.4745 14.3077 69.7371 14.3077 69.9997C14.3077 70.2623 14.5587 70.2622 14.5587 70.5248C14.8097 70.7874 15.0607 70.7874 15.0607 70.7874C15.3117 70.7874 15.5627 70.7874 16.0648 70.7874H18.8259L19.0769 72.6256ZM11.0445 72.6256H6.2753C5.77327 72.6256 5.27125 72.6256 4.76923 72.363C3.76518 72.1004 3.26315 71.3126 2.51012 70.2623C2.00809 69.2119 1.75708 68.1615 1.75708 66.8486C1.75708 65.5356 2.2591 64.4853 2.51012 63.4349C3.01214 62.3846 3.76518 61.5968 4.51821 61.3342C5.27125 61.0716 5.77327 60.809 6.52631 60.809H10.7935V63.1723H6.52631C5.77327 63.1723 5.27125 63.6975 5.02024 64.4853C4.76923 65.273 4.51821 66.0608 4.51821 67.1112C4.51821 68.1615 4.76923 68.6867 5.02024 69.4745C5.52226 70.2622 6.02429 70.5248 6.52631 70.5248H11.0445V72.6256Z" fill="#040000"/>
<path fill-rule="evenodd" clip-rule="evenodd" d="M27.5743 29.9352L28.8293 28.3597L27.5743 27.0468H12.0115V21.2698L5.23419 28.3597L12.0115 35.4496V29.9352H27.5743Z" fill="#8C2373"/>
<path fill-rule="evenodd" clip-rule="evenodd" d="M31.0885 23.3705L32.3435 24.6835L33.8496 23.3705V7.08993H39.1208L32.3435 0L25.8172 7.08993H31.0885V23.3705Z" fill="#E7A32C"/>
<path fill-rule="evenodd" clip-rule="evenodd" d="M37.3638 27.0468L36.1087 28.3597L37.3638 29.9352H52.9265V35.4496L59.7038 28.3597L52.9265 21.2698V27.0468H37.3638Z" fill="#21296C"/>
<path fill-rule="evenodd" clip-rule="evenodd" d="M33.8496 33.6114L32.3435 32.0359L31.0885 33.6114V49.892H25.8172L32.3435 56.9819L39.1208 49.892H33.8496V33.6114Z" fill="#97C535"/>
<path fill-rule="evenodd" clip-rule="evenodd" d="M26.3192 25.7339L17.0318 16.0181L13.2666 20.2195V25.7339H26.3192Z" fill="#97C535"/>
<path fill-rule="evenodd" clip-rule="evenodd" d="M28.0763 25.7338H29.8334V23.8956L19.0399 12.3417L22.8051 8.40283H13.2666V18.3813L17.0318 14.1798L28.0763 25.7338Z" fill="#97C535"/>
<path fill-rule="evenodd" clip-rule="evenodd" d="M29.8334 22.0575V8.40283H24.5622L20.546 12.3417L29.8334 22.0575Z" fill="#97C535"/>
<path fill-rule="evenodd" clip-rule="evenodd" d="M38.6188 25.7339H51.6714V20.2195L47.9062 16.0181L38.6188 25.7339Z" fill="#8C2373"/>
<path fill-rule="evenodd" clip-rule="evenodd" d="M35.1046 22.0575L44.1411 12.3417L40.3759 8.40283H35.1046V22.0575Z" fill="#8C2373"/>
<path fill-rule="evenodd" clip-rule="evenodd" d="M35.1046 23.8956V25.7338H36.8617L47.9062 14.1798L51.6714 18.3813V8.40283H42.133L45.8981 12.3417L35.1046 23.8956Z" fill="#8C2373"/>
<path fill-rule="evenodd" clip-rule="evenodd" d="M35.1046 34.6619V48.5791H40.3759L44.1411 44.6403L35.1046 34.6619Z" fill="#E7A32C"/>
<path fill-rule="evenodd" clip-rule="evenodd" d="M38.6188 30.9856L47.9062 40.7014L51.6714 36.7626V30.9856H38.6188Z" fill="#E7A32C"/>
<path fill-rule="evenodd" clip-rule="evenodd" d="M36.8617 30.9856H35.1046V33.0863L45.8981 44.6403L42.133 48.5791H51.6714V38.6007L47.9062 42.5396L36.8617 30.9856Z" fill="#E7A32C"/>
<path fill-rule="evenodd" clip-rule="evenodd" d="M29.8334 33.0863V30.9856H28.0763L17.0318 42.5396L13.2666 38.6007V48.5791H22.8051L19.0399 44.6403L29.8334 33.0863Z" fill="#21296C"/>
<path fill-rule="evenodd" clip-rule="evenodd" d="M29.8334 34.6619L20.546 44.6403L24.5622 48.5791H29.8334V34.6619Z" fill="#21296C"/>
<path fill-rule="evenodd" clip-rule="evenodd" d="M26.3192 30.9856H13.2666V36.7626L17.0318 40.7014L26.3192 30.9856Z" fill="#21296C"/>
</g>
<defs>
<clipPath id="clip0_1144_1678">
<rect width="62" height="73" fill="white"/>
</clipPath>
</defs>
</svg>
