<svg width="81" height="72" viewBox="0 0 81 72" fill="none" xmlns="http://www.w3.org/2000/svg">
<g opacity="0.9">
<path d="M66.5542 28.4038H57.4447C54.7704 28.4038 52.0542 28.4038 49.3799 28.4038C49.0874 28.4038 48.962 28.4038 48.962 28.0318C48.962 22.3686 48.962 16.7468 48.962 11.0836C48.962 11.0836 48.962 11.0009 48.962 11.0836L66.5542 28.4038V28.4038Z" fill="#F49E17"/>
<path d="M56.4348 29.7684L38.759 47.2126C38.759 47.2126 38.7172 47.0473 38.7172 46.9646C38.7172 41.3428 38.7172 35.7209 38.7172 30.0991C38.7172 29.8511 38.7172 29.7271 39.0515 29.7271C44.7763 29.7271 50.5011 29.7271 56.2258 29.7271C56.2676 29.7271 56.3512 29.7271 56.4766 29.7271L56.4348 29.7684Z" fill="#38AE37"/>
<path d="M38.7172 15.2602C38.7172 13.8961 38.7172 12.532 38.7172 11.1679C38.7172 10.9198 38.759 10.8372 39.0515 10.8372C41.8094 10.8372 44.5256 10.8372 47.2835 10.8372C47.5342 10.8372 47.6178 10.8785 47.6178 11.1679C47.6178 13.8961 47.6178 16.6243 47.6178 19.3526C47.6178 19.5593 47.576 19.6419 47.3253 19.6419C44.5674 19.6419 41.8094 19.6419 39.0515 19.6419C38.759 19.6419 38.759 19.5179 38.759 19.3112C38.759 17.9885 38.759 16.6243 38.759 15.3016L38.7172 15.2602Z" fill="#E94618"/>
<path d="M37.2973 28.2798C37.2973 28.2798 37.1302 28.1558 37.0466 28.1145C34.2469 25.3449 31.489 22.6167 28.6893 19.8471C28.5221 19.6817 28.4804 19.5577 28.6893 19.3924C31.489 16.6228 34.2887 13.8532 37.0884 11.0836C37.1302 11.0423 37.2138 11.001 37.2973 10.877V28.2798Z" fill="#AC288A"/>
<path d="M17.6623 19.6409C20.5873 19.6409 23.4706 19.6409 26.3121 19.6409C26.4375 19.6409 26.5628 19.6409 26.6464 19.7649C29.5297 22.6171 32.413 25.4694 35.2545 28.2803V28.363C35.2545 28.363 35.0873 28.363 35.0037 28.363C32.2876 28.363 29.5715 28.363 26.8553 28.363C26.6464 28.363 26.4793 28.363 26.3539 28.1976C23.5542 25.3867 20.7127 22.6171 17.913 19.8476C17.8712 19.8062 17.8294 19.7235 17.7041 19.6409H17.6623Z" fill="#24337E"/>
<path d="M37.3029 38.4504L28.5277 29.8109C28.5277 29.8109 28.6949 29.8109 28.7784 29.8109C31.4946 29.8109 34.2107 29.8109 36.9268 29.8109C37.094 29.8109 37.3029 29.7283 37.3029 30.059C37.3029 32.8699 37.3029 35.6808 37.3029 38.5331V38.4504Z" fill="#407DC0"/>
<path d="M47.5838 0.874268C47.5838 0.874268 47.5838 0.998279 47.5838 1.12229C47.5838 3.8092 47.5838 6.45477 47.5838 9.14167C47.5838 9.30702 47.6674 9.5137 47.3331 9.5137C44.5334 9.5137 41.7337 9.5137 38.934 9.5137H38.8504L47.5838 0.874268Z" fill="#E72032"/>
<path d="M81 58.1002C80.6923 58.1002 80.6239 57.9987 80.6581 57.6941C80.6581 57.4572 80.6581 57.2202 80.5897 56.9833C80.4529 57.1525 80.3504 57.3556 80.2136 57.5248C80.1452 57.6264 80.0769 57.6264 80.0085 57.5248C79.9059 57.3556 79.7691 57.1525 79.5982 56.9833C79.5982 57.2879 79.5982 57.5587 79.5982 57.8633C79.5982 58.0325 79.564 58.0664 79.393 58.0664C79.2221 58.0664 79.1879 57.9987 79.1879 57.8295C79.1879 57.3895 79.1879 56.9156 79.1879 56.4756C79.1879 56.3741 79.1195 56.2387 79.2563 56.2048C79.393 56.2048 79.5982 56.1033 79.7008 56.3064C79.8033 56.5094 79.9401 56.7125 80.111 56.9495C80.2136 56.7802 80.3162 56.6448 80.3846 56.5094C80.5213 56.2387 80.6923 56.1371 80.9658 56.2048V58.0664L81 58.1002Z" fill="#262122"/>
<path d="M39.0491 63.1032C39.0491 63.1032 39.1859 63.2047 39.2543 63.2385C40.6219 63.7459 41.3399 64.7267 41.4425 66.1473C41.5109 67.0605 41.4425 67.9398 41.0322 68.7516C40.4168 70.1045 39.2885 70.6795 37.8867 70.9162C37.3738 71.0177 36.861 71.0177 36.3481 71.0177C34.4335 71.0177 32.5188 71.0177 30.6041 71.0177C30.3648 71.0177 30.2964 71.0177 30.2964 70.7133C30.2964 65.9105 30.2964 61.0739 30.2964 56.2711C30.2964 56.1358 30.228 55.9667 30.5016 55.9667C32.7239 55.9667 34.9463 55.9329 37.1687 56.0005C37.9209 56.0005 38.6731 56.2035 39.3227 56.5755C40.4168 57.1843 40.8954 58.1313 41.0322 59.3151C41.0664 59.7548 41.0664 60.1945 41.0322 60.6342C40.8612 61.6827 40.2458 62.4268 39.3227 62.9003C39.2201 62.968 39.1175 63.0018 38.9808 63.0694L39.0491 63.1032Z" fill="#241F20"/>
<path d="M64.2145 63.5091C64.2145 61.1077 64.2145 58.7401 64.2145 56.3388C64.2145 56.0682 64.2487 55.9667 64.5564 55.9667C66.6078 55.9667 68.6592 55.9329 70.7106 56.0005C71.7705 56.0344 72.8304 56.2711 73.822 56.7108C75.6341 57.5564 76.694 58.9431 77.0017 60.871C77.2752 62.5621 77.2752 64.287 77.0017 65.9781C76.523 68.6501 74.8135 70.1383 72.215 70.7471C71.4628 70.9162 70.7106 70.9839 69.9585 70.9839C68.1464 70.9839 66.3685 70.9839 64.5564 70.9839C64.2829 70.9839 64.2145 70.9162 64.2145 70.6795C64.2145 68.2781 64.2145 65.8767 64.2145 63.4753V63.5091Z" fill="#241F20"/>
<path d="M44.0405 63.5096C44.0405 61.1082 44.0405 58.7068 44.0405 56.3054C44.0405 56.1024 44.0405 56.001 44.3141 56.001C46.3313 56.001 48.3485 56.001 50.3657 56.0348C51.4256 56.0348 52.4514 56.2039 53.4087 56.7451C54.537 57.3539 55.084 58.4024 55.2891 59.62C55.4943 60.8714 55.4601 62.1567 54.9472 63.3404C54.6053 64.1522 54.0583 64.8286 53.3061 65.3021C53.101 65.4374 53.101 65.5051 53.2035 65.708C54.0241 67.3653 54.8447 69.0564 55.6652 70.7476C55.802 71.0181 55.7336 71.052 55.4601 71.052C54.5028 71.052 53.5113 71.052 52.5539 71.052C52.3488 71.052 52.2462 70.9843 52.1436 70.8152C51.5282 69.4623 50.8786 68.1432 50.229 66.7903C50.1264 66.5198 49.9896 66.4521 49.6819 66.4521C48.9297 66.4521 48.1776 66.4521 47.4596 66.4521C47.2202 66.4521 47.186 66.5198 47.186 66.7227C47.186 68.0756 47.186 69.3947 47.186 70.7476C47.186 70.9843 47.1177 71.052 46.8783 71.052C46.0236 71.052 45.1688 71.052 44.3141 71.052C44.0405 71.052 44.0063 70.9505 44.0063 70.7137C44.0063 68.3123 44.0063 65.9109 44.0063 63.5096H44.0405Z" fill="#241F20"/>
<path d="M15.1189 61.3458C15.1189 59.6547 15.1189 57.9974 15.1189 56.3062C15.1189 56.0695 15.1531 56.0018 15.4266 56.0018C16.2814 56.0018 17.1361 56.0018 17.9909 56.0018C18.2644 56.0018 18.3328 56.0357 18.3328 56.3401C18.3328 59.3841 18.3328 62.3943 18.3328 65.4383C18.3328 65.8442 18.3328 66.2162 18.4696 66.6221C18.7089 67.5015 19.2559 68.0426 20.1107 68.2794C20.8971 68.5161 21.6834 68.5161 22.4698 68.2794C23.4955 68.0088 24.0426 67.2985 24.2135 66.25C24.2477 65.9456 24.2819 65.6412 24.2819 65.3368C24.2819 62.3266 24.2819 59.3164 24.2819 56.3062C24.2819 56.0357 24.3503 55.968 24.6238 55.968C25.4786 55.968 26.3333 55.968 27.2223 55.968C27.3932 55.968 27.4616 56.0018 27.4616 56.2048C27.4616 59.4517 27.4616 62.6649 27.4616 65.9118C27.4274 68.5838 25.7179 70.5455 23.0169 70.9852C21.5125 71.2558 20.0423 71.2219 18.6063 70.7484C16.6917 70.1396 15.5976 68.7867 15.2899 66.825C15.2215 66.3515 15.1873 65.8442 15.1873 65.3707C15.1873 64.0178 15.1873 62.6649 15.1873 61.2781L15.1189 61.3458Z" fill="#241F20"/>
<path d="M12.4162 67.8731C12.4162 68.7186 12.4162 69.5642 12.4162 70.3759C12.4162 70.5451 12.2795 70.5451 12.1769 70.5789C11.3563 70.8495 10.5016 71.0524 9.6468 71.0862C8.00567 71.1877 6.39873 71.2215 4.82597 70.6803C2.77455 70.0039 1.44113 68.6172 0.928273 66.554C0.483799 64.7276 0.44961 62.8335 0.825703 61.0071C1.33856 58.5043 2.97969 56.9484 5.40721 56.2043C6.91158 55.7308 8.48434 55.7647 10.0229 55.9338C10.7409 56.0014 11.4589 56.1367 12.1769 56.3396C12.3478 56.4073 12.4162 56.4749 12.4162 56.6779C12.4162 57.8955 12.4162 59.1131 12.4162 60.3645C12.4162 60.5674 12.382 60.6013 12.1769 60.6013C11.3905 60.6013 10.5699 60.6013 9.78357 60.6013C9.61262 60.6013 9.54424 60.5336 9.54424 60.3645C9.54424 59.891 9.54424 59.4175 9.54424 58.9778C9.54424 58.8763 9.54423 58.7749 9.40747 58.741C8.17662 58.5381 6.94577 58.4366 5.7833 59.0454C4.75759 59.5528 4.21054 60.4322 4.03959 61.5145C3.86864 62.8335 3.83445 64.1526 4.03959 65.4717C4.3815 67.3658 5.81749 68.4481 7.76634 68.4819C9.3049 68.4819 10.7751 68.3466 12.2453 67.9069C12.2453 67.9069 12.3137 67.9069 12.3478 67.9069L12.4162 67.8731Z" fill="#241F20"/>
<path d="M57.9902 63.5096C57.9902 61.1082 57.9902 58.7068 57.9902 56.3392C57.9902 56.0686 58.0586 56.001 58.3321 56.001C59.1869 56.001 60.0416 56.001 60.9306 56.001C61.1357 56.001 61.2041 56.0686 61.2041 56.2716C61.2041 61.1082 61.2041 65.911 61.2041 70.7476C61.2041 70.9843 61.1357 71.052 60.8964 71.052C60.0416 71.052 59.1869 71.052 58.2979 71.052C58.0586 71.052 57.9902 70.9843 57.9902 70.7476C57.9902 68.3462 57.9902 65.9448 57.9902 63.5434V63.5096Z" fill="#241F20"/>
<path d="M78.0952 56.2382C78.2661 56.2382 78.4371 56.2382 78.6422 56.2382C78.779 56.2382 78.8816 56.2382 78.8816 56.4074C78.8816 56.5767 78.8132 56.6105 78.6422 56.6105C78.3687 56.5767 78.2661 56.6782 78.3003 56.949C78.3003 57.2197 78.3003 57.5244 78.3003 57.829C78.3003 57.9644 78.3003 58.0998 78.0952 58.0998C77.89 58.0998 77.89 57.9644 77.89 57.829C77.89 57.5244 77.89 57.2536 77.89 56.949C77.89 56.6782 77.8558 56.5428 77.5481 56.5767C77.3772 56.5767 77.3088 56.5767 77.3088 56.3736C77.3088 56.2382 77.343 56.2043 77.4797 56.2043C77.6849 56.2043 77.89 56.2043 78.0952 56.2043V56.2382Z" fill="#242021"/>
<path d="M33.5078 66.4873C33.5078 65.946 33.5078 65.4047 33.5078 64.8295C33.5078 64.6604 33.5078 64.5927 33.7129 64.5927C34.6702 64.5927 35.5934 64.5589 36.5507 64.6265C37.5422 64.728 38.0209 65.1678 38.1235 66.149C38.1235 66.4535 38.1235 66.7579 38.0893 67.0624C37.9525 67.8406 37.4396 68.2804 36.4823 68.348C35.5592 68.3819 34.636 68.348 33.7129 68.348C33.5419 68.348 33.542 68.2466 33.542 68.1451C33.542 67.5699 33.542 67.0286 33.542 66.4535L33.5078 66.4873Z" fill="white"/>
<path d="M33.5106 60.3983C33.5106 59.8908 33.5106 59.3833 33.5106 58.8758C33.5106 58.7743 33.4764 58.639 33.6473 58.639C34.6046 58.639 35.5278 58.5713 36.4851 58.7067C37.2715 58.8081 37.716 59.2818 37.8185 60.0599C37.9895 61.3794 37.3057 62.1575 35.9723 62.1914C35.2543 62.1914 34.5363 62.1914 33.8183 62.1914C33.6131 62.1914 33.5447 62.1575 33.5447 61.9207C33.5447 61.4132 33.5447 60.9057 33.5447 60.3983H33.5106Z" fill="white"/>
<path d="M67.3924 63.5093C67.3924 62.0549 67.3924 60.6006 67.3924 59.1124C67.3924 58.808 67.4608 58.7742 67.7343 58.7742C68.5549 58.7742 69.3754 58.7742 70.196 58.808C72.4184 58.9433 73.5466 59.9918 73.7518 62.1564C73.8544 63.1711 73.8544 64.1858 73.6834 65.2004C73.3757 67.0268 72.1107 68.1092 70.1618 68.2106C69.307 68.2444 68.4523 68.2106 67.5975 68.2106C67.3582 68.2106 67.3924 68.0753 67.3924 67.94C67.3924 66.4519 67.3924 64.9637 67.3924 63.5093V63.5093Z" fill="white"/>
<path d="M47.2236 61.2446C47.2236 60.5004 47.2236 59.7224 47.2236 58.9782C47.2236 58.8767 47.2236 58.7414 47.3946 58.7414C48.3519 58.7414 49.3434 58.6737 50.3008 58.8429C51.3265 58.9782 51.8051 59.4518 51.9761 60.4328C52.0787 61.0078 52.0445 61.5829 51.9077 62.1579C51.7026 63.0036 51.1213 63.4434 50.3008 63.6125C49.3093 63.7816 48.3177 63.6802 47.3604 63.714C47.1553 63.714 47.2236 63.5787 47.2236 63.4772C47.2236 62.733 47.2236 61.9888 47.2236 61.2446V61.2446Z" fill="white"/>
</g>
</svg>
