<svg width="63" height="80" viewBox="0 0 63 80" fill="none" xmlns="http://www.w3.org/2000/svg">
<g opacity="0.9">
<path d="M35.3109 27.0968C36.073 27.0968 36.5811 27.0968 37.3432 27.0968C37.0891 27.3548 36.8351 27.6129 36.5811 27.871C35.5649 27.6129 34.5488 27.0968 35.3109 27.0968ZM39.8835 26.0645C39.8835 25.5484 38.6133 26.3226 40.1375 24.2581C39.8835 24.7742 38.6133 26.5806 40.1375 25.5484C40.3916 24.7742 40.6456 24.2581 40.8996 23.7419C40.6456 24.5161 40.3916 25.2903 39.8835 26.0645ZM41.4077 21.6774C41.4077 20.129 41.1537 20.6452 40.8996 21.1613C41.1537 21.1613 41.4077 22.1935 41.4077 21.6774ZM32.2625 0.774194C32.7706 0.774194 33.2787 1.03226 33.2787 1.03226C33.5327 0.774194 33.5327 0.774194 32.2625 0.774194ZM46.9964 22.1936L46.4883 23.2258C46.9964 21.4194 46.7424 19.3548 46.7424 17.5484H46.4883C46.2343 12.9032 42.4238 8.25807 39.1214 6.45161C36.073 5.16129 31.5004 4.90323 29.4682 5.93548C29.9762 5.41936 31.2464 5.41936 30.7383 5.16129C27.4359 5.41936 28.198 6.19355 25.6577 6.96774C25.1496 7.74194 27.6899 6.45161 26.1658 7.22581C24.8956 7.74194 24.3875 6.96774 22.3553 9.03226C22.6093 9.29032 23.6254 8.25806 22.6093 9.29032C20.8311 9.29032 16.7666 13.9355 15.7504 15.4839H16.2585C15.4964 17.2903 14.4803 18.5806 14.4803 19.6129C14.2262 22.4516 13.2101 27.3548 14.7343 28.9032L14.4803 30.1935C14.7343 30.4516 14.7343 30.9677 14.9883 31.2258H14.7343C16.0045 35.6129 16.2585 31.2258 18.0367 35.871C17.7827 35.871 17.5287 35.6129 17.0206 35.0968C17.0206 35.6129 17.5287 36.6452 18.2908 37.6774L18.0367 38.4516C18.5448 39.2258 18.7988 39.4839 19.0529 39.7419C17.7827 38.7097 20.577 42.3226 20.8311 42.8387L21.0851 42.3226C21.0851 42.8387 21.5932 43.6129 22.3553 44.9032H23.1174C23.3714 45.4194 24.3875 46.4516 25.1496 46.7097L24.6416 47.2258C26.4198 47.7419 25.4037 48 27.4359 48.7742L26.9279 48C27.944 49.0323 28.198 49.8065 29.7222 50.3226C31.7545 51.0968 32.0085 50.8387 34.0408 51.3548C32.2625 51.3548 30.2303 51.3548 28.7061 50.8387C19.0529 48.2581 10.4158 36.9032 11.1779 25.0323C10.9238 22.7097 11.4319 19.6129 10.9238 19.0968C11.4319 17.2903 12.194 15.2258 13.4641 12.3871C13.4641 12.129 13.7182 12.9032 14.2262 11.871C14.7343 11.0968 14.9883 10.0645 15.4964 9.29032H15.7504C16.2585 7.74194 19.5609 5.41936 20.577 4.3871V4.90323C22.6093 2.83871 26.4198 1.54839 28.452 0.774194C27.944 1.29032 29.7222 0.774194 30.9924 0.516129C30.4843 0.516129 29.9762 0.774194 29.7222 1.03226C31.2464 0.774194 31.2464 1.29032 32.7706 1.03226C32.2625 1.03226 31.5004 1.29032 31.7545 1.29032C33.5327 1.54839 33.7867 0.774194 35.3109 1.29032V0.774194C37.5972 1.54839 38.1053 1.54839 40.3916 2.83871C41.1537 2.83871 41.4077 2.32258 42.6778 2.83871C42.9319 3.35484 42.6779 3.35484 44.202 4.3871C44.4561 4.3871 43.948 3.87097 43.4399 3.6129C46.4883 5.16129 50.0448 8.77419 51.0609 12.9032C50.0448 11.0968 51.0609 13.9355 50.5528 13.6774C51.0609 14.9677 51.3149 16.2581 51.569 17.5484C51.3149 16.5161 50.5528 13.9355 49.5367 12.3871C49.5367 13.4194 48.0125 11.6129 48.7746 13.9355C49.2827 14.7097 48.7746 13.1613 49.5367 14.4516C49.5367 15.2258 49.7908 15.7419 50.0448 16.7742C49.7908 16.7742 49.5367 15.7419 49.2827 16C49.5367 17.0323 50.0448 17.8065 50.0448 17.8065C50.0448 18.0645 49.7908 17.5484 49.7908 18.3226C49.7908 20.129 50.2988 19.3548 50.5528 19.3548C50.2988 20.129 49.5367 21.1613 50.0448 22.7097C50.0448 22.1936 49.7908 21.6774 49.5367 21.4194C49.2827 22.7097 49.7908 22.9677 49.2827 24.5161C49.7908 22.9677 49.5367 21.9355 49.2827 22.4516C49.5367 24.5161 47.7585 26.0645 48.0125 27.3548L47.5045 26.5806C46.2343 28.6452 47.5045 27.6129 46.4883 29.1613C46.7424 28.6452 46.2343 28.9032 46.7424 28.129C46.4883 28.129 45.4722 29.4194 44.4561 30.1935C40.6456 33.2903 36.327 33.5484 32.0085 32C31.7545 32.2581 32.7706 32.7742 33.5327 33.2903C35.0569 33.8065 37.0891 33.8065 38.3593 33.8065C35.3109 35.0968 29.2141 32.5161 27.1819 28.9032C27.6899 28.9032 29.2141 31.4839 30.2303 31.7419C29.4682 31.2258 28.9601 30.4516 28.452 29.6774C29.4682 30.7097 30.4843 31.4839 31.7545 32.2581C31.7545 32 32.0085 32 31.5004 31.4839C27.944 28.6452 25.6577 26.3226 26.4198 20.6452C27.1819 20.6452 27.4359 18.3226 28.7061 17.5484C29.4682 15.7419 31.7545 14.1935 34.2948 14.1935C36.8351 13.9355 38.8674 15.4839 40.1375 17.0323C38.1053 15.2258 35.0569 14.7097 32.2625 16C29.2141 17.2903 27.6899 20.3871 27.944 23.4839C27.944 23.2258 27.944 23.2258 28.198 22.9677C28.198 28.9032 34.5488 33.5484 39.3754 31.2258C41.1537 30.7097 40.8996 30.1935 42.1698 29.4194C42.1698 29.6774 41.4077 30.1935 41.6617 30.1935C42.1698 29.9355 44.202 28.129 44.9641 27.3548C45.4722 26.3226 44.7101 26.8387 45.2182 25.8065L45.9803 25.5484C46.4883 24.2581 46.9964 23.4839 46.9964 22.1936ZM26.1658 28.3871C26.9279 29.6774 27.1819 30.1936 27.6899 31.2258C26.9279 30.7097 26.6738 29.9355 25.9117 29.1613L26.1658 28.3871ZM27.4359 28.129L27.6899 28.9032C27.4359 28.3871 26.9279 27.6129 26.6738 27.0968C26.9279 27.6129 27.1819 27.871 27.4359 28.129ZM50.5528 23.2258C50.2988 25.0323 49.7908 26.5806 49.0287 28.3871C49.7908 26.8387 50.2988 25.2903 50.5528 23.7419V23.2258ZM32.2625 0.258065H32.0085C32.7706 0 33.5327 0 34.2948 0C33.7867 0.258065 32.7706 0 32.2625 0.258065ZM12.448 11.0968C12.702 12.3871 11.4319 12.9032 12.702 11.871C13.2101 10.5806 12.448 11.6129 12.448 11.0968ZM11.1779 16.7742C11.4319 15.7419 11.4319 15.4839 11.4319 14.9677C10.6698 15.7419 11.1779 16 11.1779 16.7742Z" fill="#BA1548"/>
<path fill-rule="evenodd" clip-rule="evenodd" d="M0.7621 66.6491C0.7621 74.1329 4.57258 74.1329 5.33468 74.1329C6.85887 74.1329 7.875 73.3587 8.38307 71.5523V73.8749C8.89113 73.8749 9.3992 73.8749 10.1613 73.8749C10.4153 73.8749 10.6694 73.8749 10.9234 73.8749C11.1774 73.8749 11.4315 73.8749 11.6855 73.8749C11.4315 73.3587 10.9234 71.2942 10.9234 67.1652C10.9234 63.0362 10.9234 56.3265 11.1774 54.262C10.1613 54.7781 9.3992 55.0362 7.62097 55.0362C8.38307 55.8104 8.38307 56.3265 8.38307 59.6813C7.875 59.4233 7.36694 59.4233 6.09678 59.4233C1.5242 59.4233 0.7621 63.5523 0.7621 66.6491ZM8.38307 63.5523C8.38307 63.5523 8.38307 67.9394 8.38307 68.9716C8.38307 69.7458 8.12904 71.8103 6.35081 71.8103C4.31855 71.8103 4.06452 69.4878 3.81049 68.4555C3.55646 67.4233 3.55646 66.391 3.55646 66.1329C3.55646 64.8426 3.55646 61.2297 6.60484 61.2297C7.36694 61.2297 7.875 61.4878 8.38307 61.7458V63.5523Z" fill="#040000"/>
<mask id="mask0_1144_1626" style="mask-type:alpha" maskUnits="userSpaceOnUse" x="12" y="59" width="11" height="16">
<path fill-rule="evenodd" clip-rule="evenodd" d="M12.3538 59.4299H22.007V74.1396H12.3538V59.4299Z" fill="white"/>
</mask>
<g mask="url(#mask0_1144_1626)">
<path fill-rule="evenodd" clip-rule="evenodd" d="M22.007 65.6235C22.007 62.5267 21.4989 59.4299 17.4344 59.4299C12.3538 59.4299 12.3538 65.3654 12.3538 66.6557C12.3538 72.0751 14.6401 74.1396 18.7046 74.1396C20.4828 74.1396 21.2449 73.8815 21.753 73.6235C21.753 72.5912 21.753 72.0751 22.007 71.3009C21.4989 71.559 20.7368 72.0751 19.2127 72.0751C15.1481 72.0751 15.1481 68.2041 15.1481 66.9138H22.007V65.6235ZM15.1481 65.3654C15.1481 63.0428 15.6562 61.2364 17.4344 61.2364C19.4667 61.2364 19.7207 63.559 19.4667 65.3654H15.1481Z" fill="#040000"/>
</g>
<mask id="mask1_1144_1626" style="mask-type:alpha" maskUnits="userSpaceOnUse" x="22" y="54" width="12" height="21">
<path fill-rule="evenodd" clip-rule="evenodd" d="M22.2194 54.1694H33.3968V74.2985H22.2194V54.1694Z" fill="white"/>
</mask>
<g mask="url(#mask1_1144_1626)">
<path fill-rule="evenodd" clip-rule="evenodd" d="M23.2355 69.6533C23.2355 71.7178 23.2355 72.7501 22.9815 73.5243C23.9976 74.0404 25.2678 74.2985 26.792 74.2985C27.8081 74.2985 30.8565 74.2985 32.3807 70.9436C33.1428 69.3952 33.3968 67.3307 33.3968 65.7823C33.3968 64.7501 33.3968 62.6856 32.6347 61.3952C31.8726 60.1049 30.6025 59.5888 29.3323 59.5888C26.792 59.5888 26.0299 61.6533 25.7759 62.6856C25.7759 61.3952 25.7759 56.492 26.0299 54.1694C24.2517 54.9436 23.2355 55.2017 22.2194 55.2017C23.2355 55.7178 23.2355 57.2662 23.2355 63.2017V69.6533ZM30.6025 66.8146C30.6025 69.3952 30.0944 72.492 27.046 72.492C26.538 72.492 26.0299 72.492 25.7759 72.234C25.7759 71.2017 25.7759 69.6533 25.7759 67.8469C25.7759 65.5243 26.0299 64.492 26.2839 63.7178C26.792 61.9114 28.0622 61.9114 28.3162 61.9114C30.0944 61.9114 30.6025 64.7501 30.6025 66.8146Z" fill="#040000"/>
</g>
<path fill-rule="evenodd" clip-rule="evenodd" d="M38.3589 74.133C37.8508 73.875 37.5968 73.875 36.8347 73.875C36.0726 73.875 35.3105 73.875 34.8024 74.133C35.0565 73.6169 35.0565 73.3588 35.3105 71.5524C35.3105 69.2298 35.5645 62.7782 35.3105 61.4879C35.0565 60.4556 35.0565 60.1975 34.5484 59.9395C36.5807 59.6814 37.3427 59.6814 38.3589 59.1653C38.1048 60.4556 38.1048 60.9717 38.1048 62.7782C37.8508 72.0685 37.8508 73.1008 38.3589 74.133Z" fill="#040000"/>
<path fill-rule="evenodd" clip-rule="evenodd" d="M39.629 69.7459C39.629 71.2943 40.1371 73.1008 41.6613 73.875C42.4234 74.133 42.9315 74.133 43.1855 74.133C45.4718 74.133 46.4879 72.3266 46.996 71.2943C46.996 72.5846 46.996 73.1008 46.996 74.133C47.504 74.133 48.0121 74.133 48.7742 74.133C49.2823 74.133 49.5363 74.133 50.0444 74.133C49.7903 73.6169 49.5363 73.3588 49.5363 72.3266C49.5363 71.2943 49.5363 70.2621 49.5363 68.9717V63.5524C49.5363 61.4879 49.0282 59.4233 45.2178 59.4233C42.6774 59.4233 41.1532 60.1975 40.3911 60.7137C40.6452 61.2298 40.8992 61.7459 41.1532 63.0362C42.1694 62.2621 43.4395 61.7459 44.9637 61.7459C47.25 61.7459 47.25 63.2943 47.25 65.3588C46.7419 65.3588 46.2339 65.3588 45.7258 65.3588C41.6613 65.1008 39.629 66.3911 39.629 69.7459ZM46.7419 66.6491C46.7419 68.1975 46.7419 69.4879 46.2339 70.5201C45.7258 71.8104 44.7097 72.0685 44.2016 72.0685C42.6774 72.0685 42.1694 70.7782 42.1694 69.4879C42.1694 66.9072 44.4557 66.9072 45.4718 66.9072H46.7419V66.6491Z" fill="#040000"/>
<path fill-rule="evenodd" clip-rule="evenodd" d="M61.7298 71.5524C61.7298 72.3266 61.7298 73.3588 62.2379 74.133C61.7298 74.133 61.2218 73.8749 60.2057 73.8749C59.6976 73.8749 59.1895 73.8749 58.6815 74.133C58.6815 73.8749 58.9355 73.6169 58.9355 73.1007C58.9355 72.5846 59.1895 70.5201 59.1895 69.7459V66.9072C59.1895 65.6169 59.1895 63.8104 59.1895 63.2943C59.1895 62.7782 58.9355 61.7459 57.4113 61.7459C55.8871 61.7459 55.379 62.7782 55.125 63.8104C54.871 64.8427 54.871 65.8749 54.871 69.7459C54.871 73.1007 54.871 73.3588 55.125 74.3911C54.6169 74.3911 54.1089 74.3911 53.3468 74.3911C52.8387 74.3911 52.3306 74.3911 51.8226 74.3911C52.0766 73.8749 52.0766 73.8749 52.0766 72.3266C52.0766 70.7782 52.3306 63.8104 52.0766 62.004C51.8226 60.9717 51.5686 60.7137 51.3145 60.4556C53.3468 60.4556 54.1089 59.9395 54.871 59.6814V62.5201C55.125 61.7459 55.8871 59.9395 58.4274 59.9395C61.7298 59.9395 61.7298 62.262 61.7298 64.0685V71.5524Z" fill="#040000"/>
<path fill-rule="evenodd" clip-rule="evenodd" d="M38.6129 55.5523L36.5806 57.8749L34.2944 55.5523L36.5806 53.4878L38.6129 55.5523Z" fill="#BA1548"/>
</g>
</svg>
