<svg width="54" height="71" viewBox="0 0 54 71" fill="none" xmlns="http://www.w3.org/2000/svg">
<g opacity="0.9">
<path d="M26.9578 42.6337C38.8149 42.6337 48.427 33.125 48.427 21.3955C48.427 9.6659 38.8149 0.157227 26.9578 0.157227C15.1007 0.157227 5.48856 9.6659 5.48856 21.3955C5.48856 33.125 15.1007 42.6337 26.9578 42.6337Z" fill="#E94419"/>
<path d="M40.4033 17.2278C40.4033 15.1619 38.6447 13.676 36.5564 13.8934L33.2957 14.2196C32.9293 14.2196 32.7095 14.5458 32.6729 14.872V26.6146C32.6729 26.9046 32.8927 27.1583 33.2224 27.1583H33.2957L36.5564 26.8321C38.6813 26.6146 40.4033 24.8025 40.4033 22.7367C40.4033 21.6856 39.927 20.7433 39.121 20.0909C39.927 19.3661 40.4033 18.315 40.4033 17.2278Z" fill="white"/>
<path d="M20.6533 14.2196L17.3927 13.8934C15.2677 13.676 13.5458 15.1619 13.5458 17.2278C13.5458 18.315 14.0221 19.3661 14.8281 20.1272C14.0221 20.7433 13.5458 21.7219 13.5458 22.7729C13.5458 24.8387 15.2677 26.6509 17.3927 26.8683L20.6533 27.1945C20.9464 27.2308 21.2395 27.0495 21.2762 26.7234V14.9082C21.2762 14.5458 20.9831 14.2921 20.6533 14.2559" fill="white"/>
<path d="M26.9606 17.4082H23.6999C23.3702 17.4082 23.0771 17.6619 23.0771 17.9881V26.7951C23.0771 27.1575 23.3336 27.4837 23.6999 27.4837H26.9606C26.9606 28.136 26.0081 28.6072 23.8099 28.8609H23.5534C23.5534 28.8609 23.0771 28.8609 23.0771 29.477V29.622C23.0771 29.9482 23.3336 30.2381 23.6999 30.2381H26.9606C29.0856 30.2381 30.8441 28.571 30.8441 26.5414V21.0687C30.8441 19.0391 29.0856 17.4082 26.9606 17.4082" fill="white"/>
<path d="M46.9075 66.7706C49.1374 66.7706 50.0047 66.0352 50.0047 64.5339C50.0047 63.1858 49.0136 62.236 46.8145 62.236H41.859V66.7399H46.8765L46.9075 66.7706ZM41.859 55.281V59.0496H46.9694C48.7348 59.0496 49.3233 58.1917 49.3233 57.2113C49.3233 56.1696 48.549 55.281 46.6597 55.281H41.859V55.281ZM38.2353 70.294C38.0495 70.294 37.8946 70.1102 37.8946 69.9264V52.1252C37.8946 51.9414 38.0495 51.7576 38.2353 51.7576H47.2172C51.2126 51.7576 53.3187 53.9942 53.3187 56.8436C53.3187 58.3143 52.7612 59.5092 51.801 60.3364V60.3977C53.1638 61.3169 54.0001 62.8182 54.0001 64.7178C54.0001 68.2719 51.5533 70.2634 47.3101 70.2634H38.2353V70.294Z" fill="#141F41"/>
<path d="M22.0021 55.281V66.7706H25.8426C29.5593 66.7706 31.5415 64.5339 31.5415 61.0411C31.5415 57.5483 29.1566 55.3117 25.8116 55.3117H22.0331L22.0021 55.281ZM18.3784 70.294C18.1925 70.294 18.0377 70.1102 18.0377 69.9264V52.1252C18.0377 51.9414 18.1925 51.7576 18.3784 51.7576H25.7807C31.3556 51.7576 35.5059 55.3729 35.5059 61.0105C35.5059 66.648 31.9751 70.2634 25.8426 70.2634H18.3784V70.294Z" fill="#141F41"/>
<path d="M4.25605 62.5731V66.7706H14.5697C14.7556 66.7706 14.9724 67.0157 14.9724 67.1995V69.8651C14.9724 70.0489 14.7246 70.294 14.5697 70.294H0.632317C0.446485 70.294 0.291626 70.1102 0.291626 69.9264V52.1252C0.291626 51.9414 0.446485 51.7576 0.632317 51.7576H14.3839C14.5697 51.7576 14.7865 52.0027 14.7865 52.1865V54.8214C14.7865 55.0053 14.5388 55.2504 14.3839 55.2504H4.25605V59.019H13.4857C13.6715 59.019 13.8883 59.2641 13.8883 59.4479V62.1135C13.8883 62.2973 13.6406 62.5424 13.4857 62.5424H4.25605V62.5731Z" fill="#141F41"/>
</g>
</svg>
