<svg width="95" height="37" viewBox="0 0 95 37" fill="none" xmlns="http://www.w3.org/2000/svg">
<g opacity="0.9">
<path d="M9.04148 11.5336C8.86926 11.5336 8.8262 11.4494 8.91231 11.3231L9.83799 10.1655C9.9241 10.0392 10.1394 9.95506 10.3116 9.95506H25.9189C26.0911 9.95506 26.1342 10.0813 26.048 10.2076L25.2946 11.3231C25.2085 11.4494 24.9932 11.5757 24.864 11.5757L9.01995 11.5336H9.04148ZM2.43259 15.4693C2.26038 15.4693 2.21732 15.3851 2.30343 15.2588L3.2291 14.1012C3.31521 13.975 3.53049 13.8908 3.70271 13.8908H23.637C23.8092 13.8908 23.8953 14.0171 23.8523 14.1433L23.5078 15.1746C23.4648 15.343 23.2926 15.4272 23.1203 15.4272L2.43259 15.4693V15.4693ZM13.024 19.405C12.8518 19.405 12.8088 19.2787 12.8949 19.1524L13.4976 18.0791C13.5837 17.9528 13.756 17.8265 13.9282 17.8265H22.6683C22.8405 17.8265 22.9266 17.9528 22.9266 18.1212L22.8405 19.1524C22.8405 19.3208 22.6683 19.4471 22.5391 19.4471L13.0025 19.405H13.024ZM58.4251 10.7548L51.0843 12.628C50.4385 12.7964 50.3739 12.8384 49.8142 12.2071C49.1684 11.4704 48.6732 11.0074 47.7691 10.5865C45.0136 9.26052 42.3442 9.63936 39.8471 11.2179C36.8763 13.091 35.3478 15.8692 35.3909 19.3419C35.434 22.7725 37.845 25.5927 41.2894 26.0557C44.2601 26.4346 46.7573 25.4243 48.7163 23.2355C49.1038 22.7725 49.4698 22.2463 49.9003 21.657H41.4616C40.5359 21.657 40.3207 21.1098 40.622 20.3731C41.1817 19.0472 42.2366 16.8163 42.8609 15.7218C42.99 15.4693 43.2914 15.0273 43.9588 15.0273H59.889C59.8029 16.1849 59.8029 17.3424 59.6306 18.5C59.157 21.5728 57.973 24.3931 56.0356 26.8766C52.8926 30.9386 48.7809 33.4642 43.5713 34.1377C39.2873 34.6849 35.3048 33.8851 31.7958 31.3174C28.5452 28.9181 26.7154 25.7611 26.2418 21.8254C25.6821 17.1741 27.0814 12.9647 29.966 9.30261C33.0659 5.3248 37.1777 2.7992 42.2151 1.91524C46.3268 1.17861 50.2663 1.66268 53.7967 4.01991C56.1217 5.51422 57.7793 7.57679 58.8772 10.0392C59.1355 10.4181 58.9633 10.6286 58.4466 10.7759L58.4251 10.7548Z" fill="#19A2C9"/>
<path d="M72.8915 34.4113C68.9089 34.3272 65.2708 33.2117 62.2139 30.644C59.6306 28.4551 58.0161 25.677 57.4994 22.3937C56.7029 17.553 58.0592 13.2805 61.0514 9.47107C64.2375 5.36697 68.0909 3.22022 73.3005 2.33626C77.7566 1.55753 81.9545 1.99951 85.7648 4.52511C89.2307 6.84024 91.3619 9.95514 91.9216 14.0592C92.6751 19.826 90.9529 24.5405 86.8842 28.5604C83.9996 31.4227 80.4475 33.2117 76.3789 34.0325C75.1949 34.243 74.0109 34.2851 72.8699 34.4113H72.8915ZM83.3107 17.132C83.2676 16.5848 83.2676 16.1429 83.1815 15.7219C82.385 11.4915 78.424 9.09223 74.2692 10.0393C70.2006 10.9443 67.5742 13.4699 66.6055 17.4898C65.809 20.8152 67.4881 24.2037 70.6311 25.5718C73.0422 26.603 75.4317 26.4768 77.7566 25.3192C81.2225 23.5723 83.0954 20.8363 83.3107 17.1531V17.132Z" fill="#19A2C9"/>
</g>
</svg>
