<svg width="46" height="88" viewBox="0 0 46 88" fill="none" xmlns="http://www.w3.org/2000/svg">
<g opacity="0.9">
<path d="M43.2432 67.6285H42.9189V67.4353H43.7838V67.6285H43.4595V68.5394H43.2432V67.6285V67.6285ZM44.9459 67.6837L44.6216 68.5394H44.4865L44.1622 67.6837V68.5394H43.9459V67.4629H44.2432L44.5405 68.2358L44.8378 67.4629H45.1351V68.5394H44.9189V67.6837H44.9459Z" fill="#DD6D0D"/>
<path d="M14.9189 45.4905C14.9189 45.4905 12.7297 46.7879 16.4865 47.2295C21.054 47.754 23.3784 47.6988 28.4054 46.7051C28.4054 46.7051 29.7297 47.5608 31.5676 48.2785C20.2973 53.2195 6.05405 48.0024 14.8919 45.4629" fill="#527E9B"/>
<path d="M13.5405 39.0591C13.5405 39.0591 11.0811 40.9361 14.8378 41.3226C19.7027 41.847 23.5676 41.8746 30.2162 40.5773C30.2162 40.5773 31.1351 41.5434 32.5946 42.0403C18.973 46.098 3.78379 42.3715 13.5405 39.0591" fill="#527E9B"/>
<path d="M25.1622 28.128C27.946 31.3852 24.4324 34.3388 24.4324 34.3388C24.4324 34.3388 31.4865 30.6123 28.2433 25.9749C25.2162 21.6412 22.8919 19.4605 35.4595 12.0352C35.4595 12.0352 15.7297 17.059 25.1622 28.1556" fill="#DD6D0D"/>
<path d="M40.0811 50.2661C40.0811 50.2661 41.7027 51.6463 38.2973 52.6952C31.7838 54.7102 11.2162 55.3175 5.48648 52.778C3.43242 51.8671 7.29729 50.5973 8.48648 50.3213C9.75675 50.0453 10.4865 50.1005 10.4865 50.1005C8.18918 48.4442 -4.29731 53.3301 4.13512 54.7378C27.1351 58.5471 46.054 53.0264 40.0811 50.2661Z" fill="#527E9B"/>
<path d="M15.973 32.3789C15.973 32.3789 5.51352 34.9184 12.2703 35.8293C15.1351 36.2158 20.8108 36.133 26.1081 35.6913C30.4324 35.3049 34.7838 34.532 34.7838 34.532C34.7838 34.532 33.2432 35.1945 32.1622 35.9674C21.5405 38.8105 1.00001 37.4856 6.91893 34.5872C11.9189 32.1305 15.973 32.4065 15.973 32.4065" fill="#527E9B"/>
<path d="M34.7567 43.0892C45.5676 37.3476 40.5676 31.8545 37.0811 32.5722C36.2162 32.7655 35.8378 32.9035 35.8378 32.9035C35.8378 32.9035 36.1622 32.4066 36.7567 32.1858C43.6486 29.7015 48.973 39.5007 34.5405 43.3652C34.5405 43.3652 34.7027 43.1996 34.7567 43.0892" fill="#527E9B"/>
<path d="M28.2432 0C28.2432 0 34.2162 6.12798 22.5676 15.5132C13.2162 23.0489 20.4324 27.3551 22.5676 32.2685C17.1081 27.2447 13.1081 22.8005 15.7838 18.6876C19.7297 12.6424 30.6486 9.71644 28.2432 0" fill="#DD6D0D"/>
<path d="M17.054 58.6298C27.4324 59.3198 43.3513 58.2433 43.7297 53.2471C43.7297 53.2471 43 55.1517 35.1622 56.6699C26.2973 58.3813 15.3784 58.1605 8.91891 57.084C8.91891 57.084 10.2432 58.2157 17.054 58.6574" fill="#527E9B"/>
<path d="M15.3513 77.7867C14.3784 78.6425 13.3513 79.1393 12.4054 79.1393C11.0811 79.1393 10.3784 78.3388 10.3784 77.0414C10.3784 75.6337 11.1351 74.6123 14.2162 74.6123H15.3513V77.8143V77.7867ZM18.0541 80.9335V71.2999C18.0541 68.8432 16.6757 67.2146 13.3784 67.2146C11.4324 67.2146 9.75675 67.7115 8.37837 68.3187L8.78378 70.0302C9.86486 69.6161 11.2703 69.2573 12.6486 69.2573C14.5676 69.2573 15.3784 70.0302 15.3784 71.6588V72.8733H14.4324C9.78378 72.8733 7.7027 74.7228 7.7027 77.4831C7.7027 79.857 9.08108 81.2096 11.6757 81.2096C13.3513 81.2096 14.5946 80.5195 15.7568 79.4706L15.973 80.9335H18.0811H18.0541Z" fill="#DD6D0D"/>
<path d="M27.054 80.9058H23.6757L19.6216 67.4353H22.5676L25.0811 75.7164L25.6486 78.2007C26.9189 74.6122 27.8108 70.9409 28.2703 67.4353H31.1351C30.3784 71.8795 29 76.7377 27.054 80.9058" fill="#DD6D0D"/>
<path d="M39.973 77.7867C39 78.6425 37.9459 79.1393 37.027 79.1393C35.7027 79.1393 35 78.3388 35 77.0414C35 75.6337 35.7567 74.6123 38.8378 74.6123H39.973V77.8143V77.7867ZM42.6757 80.9335V71.2999C42.6757 68.8432 41.2973 67.2146 38 67.2146C36.054 67.2146 34.3784 67.7115 33 68.3187L33.4054 70.0302C34.4865 69.6161 35.8919 69.2573 37.2703 69.2573C39.1892 69.2573 40 70.0302 40 71.6588V72.8733H39.054C34.4054 72.8733 32.3243 74.7228 32.3243 77.4831C32.3243 79.857 33.7027 81.2096 36.2973 81.2096C37.973 81.2096 39.2162 80.5195 40.3784 79.4706L40.5946 80.9335H42.7027H42.6757Z" fill="#DD6D0D"/>
<path d="M4.7027 83.1969C3.94595 84.3563 2.7027 85.2396 1.32432 85.764L0 84.163C1.02703 83.611 1.91892 82.7553 2.32432 81.9272C2.67568 81.2095 2.83784 80.271 2.83784 78.0351V62.6599H5.7027V77.8418C5.7027 80.823 5.45946 82.0376 4.7027 83.2245" fill="#DD6D0D"/>
</g>
</svg>
