<svg width="72" height="67" viewBox="0 0 72 67" fill="none" xmlns="http://www.w3.org/2000/svg">
<g opacity="0.9" clip-path="url(#clip0_1144_1599)">
<path d="M20.9189 30.0962L9.34052 34.3306C9.50268 36.1872 9.79457 38.0437 10.2486 39.8352L21.2432 35.8289C20.8865 33.9723 20.7567 32.0506 20.9189 30.1288V30.0962ZM72.0324 17.263C71.2216 15.6018 70.2811 13.9733 69.2108 12.4424L57.6648 16.6767C58.9946 18.0447 60.1297 19.6082 61.0702 21.2693L72.0648 17.263H72.0324Z" fill="#B7292F"/>
<path d="M51.5027 17.1981C50.0432 15.9279 48.4216 14.853 46.573 13.9735C35.8378 8.95751 23.027 13.6153 18.0324 24.3965C17.7405 24.9828 17.5135 25.6016 17.2865 26.2531C16.6703 28.0771 16.2811 29.9337 16.1513 31.8228H16.1189V31.888L9.14594 34.4286L4.67027 36.0897H4.54054C4.11892 30.5851 5.02702 24.8851 7.52432 19.5107C7.84865 18.8267 8.2054 18.1102 8.56216 17.4587C16.8 2.0523 35.4811 -4.36432 51.2757 3.12717C54.454 4.62547 57.373 6.67749 59.9351 9.12036C61.5892 10.6512 63.0811 12.3775 64.4108 14.2341L52.8649 18.4684L52.6703 18.273C52.3135 17.9147 51.9567 17.5564 51.5676 17.1981H51.5027Z" fill="#B7292F"/>
<path d="M5.18917 54.8183C2.78917 51.4308 1.03782 47.6199 0.0324097 43.581L11.027 39.5747H11.0919C11.6432 42.6039 12.8432 45.4376 14.5297 47.9782C15.1784 48.9228 15.9243 49.8022 16.7027 50.6165H16.6702L16.7675 50.7142L5.3189 54.9811L5.2216 54.8183H5.18917Z" fill="#C0312B"/>
<path d="M48.8108 51.8541C42.8432 55.5672 35.2216 56.2838 28.4108 53.0918C26.0757 51.9843 23.9676 50.486 22.1514 48.6295L10.6054 52.8638L10.7027 52.9941C13.8811 57.5541 18.1946 61.365 23.5135 63.873C34.9622 69.3125 47.9676 67.4233 57.373 60.0947C61.5892 56.9352 65.0919 52.7009 67.4919 47.5872C69.9892 42.2128 70.8973 36.5128 70.4757 31.0082L70.1513 31.1384V30.9756L58.6703 35.2099C58.4757 37.8156 57.827 40.3562 56.7568 42.734C54.973 46.6426 52.1838 49.7695 48.8432 51.9192L48.8108 51.8541Z" fill="#B7292F"/>
<path d="M61.5892 21.0739L61.7514 21.0088C63.5676 24.7546 64.6703 28.7934 64.9946 32.9626L53.4486 37.1644V37.0667L53.2216 37.1318C53.5459 32.8323 52.573 28.5654 50.5622 24.8848L61.4595 20.8459L61.5568 21.0414L61.5892 21.0739Z" fill="#C0312B"/>
<path d="M20.9189 30.0311L9.43787 34.298C9.60003 36.1871 9.89192 38.0437 10.346 39.8352L21.2433 35.7963C20.8865 33.9071 20.7568 31.9854 20.9189 30.0311V30.0311ZM71.6757 17.0675C70.8649 15.3738 69.9568 13.7452 68.8865 12.2144L57.4054 16.4812C58.7352 17.8818 59.8703 19.4453 60.7784 21.1064L71.6757 17.0675Z" fill="#A32332"/>
<path d="M9.43787 34.2979L20.8865 30.0961V32.4087L9.79462 36.6105L9.43787 34.3305V34.2979ZM57.373 16.4812L69.0163 12.4749L70.2162 14.2989L58.8973 18.3052L57.373 16.4812V16.4812Z" fill="#932336"/>
<path d="M10.7027 52.929L22.1838 48.7273L25.654 52.017L13.6216 56.5445L10.7027 52.929V52.929ZM70.2811 30.9431L58.6378 35.1774L57.7946 39.8678L70.2162 35.438L70.3135 30.9757L70.2811 30.9431Z" fill="#9E2431"/>
</g>
<defs>
<clipPath id="clip0_1144_1599">
<rect width="72" height="67" fill="white"/>
</clipPath>
</defs>
</svg>
