<svg width="100" height="66" viewBox="0 0 100 66" fill="none" xmlns="http://www.w3.org/2000/svg">
<g opacity="0.9">
<path d="M67.1621 54.3859C65.8161 52.5712 64.0774 51.6498 61.9462 51.6498C60.0954 51.6498 58.4689 52.3199 57.1509 53.6879C55.8048 55.028 55.1318 56.6473 55.1318 58.5737C55.1318 60.5001 55.8049 62.0915 57.1229 63.4874C58.4689 64.8554 60.0954 65.5255 62.0303 65.5255C63.9653 65.5255 65.6758 64.6321 67.1902 62.8453V65.0788H68.8447V51.9849H67.1902V54.3859H67.1621ZM65.7319 62.4544C64.7224 63.4595 63.4885 63.9899 62.0303 63.9899C60.5721 63.9899 59.3943 63.4595 58.3567 62.3986C57.3472 61.3376 56.8144 60.0813 56.8144 58.6295C56.8144 57.2336 57.3472 55.8935 58.3287 54.8884C59.2541 53.8554 60.6001 53.2691 62.0023 53.297C63.4605 53.297 64.7224 53.8275 65.7039 54.8605C66.7134 55.8656 67.2182 57.1498 67.2182 58.6295C67.2182 60.1092 66.7134 61.4493 65.6759 62.4823L65.7319 62.4544ZM51.7387 52.0407H53.4493V65.1346H51.7387V52.0407ZM7.31915 65.0788H9.02975L10.7684 52.3199L17.1341 65.0788H17.5828L23.8643 52.4036L25.6029 65.0788H27.3696L24.8178 47.3783H24.5654L17.3865 61.896L10.1515 47.3783H9.89907L7.3472 65.0788H7.31915ZM40.2412 54.3859C38.8951 52.5712 37.1565 51.6498 35.0253 51.6498C33.1745 51.6498 31.548 52.3199 30.23 53.6879C28.8839 55.028 28.2109 56.6473 28.2109 58.5737C28.2109 60.4163 28.912 62.1752 30.2019 63.4874C31.548 64.8554 33.1745 65.5255 35.1094 65.5255C37.0443 65.5255 38.7549 64.6321 40.2692 62.8453V65.0788H41.9238V51.9849H40.2692V54.3859H40.2412ZM38.811 62.4544C37.8015 63.4595 36.5676 63.9899 35.1094 63.9899C33.6512 63.9899 32.4734 63.4595 31.4358 62.3986C30.4263 61.3376 29.8935 60.0813 29.8935 58.6295C29.8935 57.2336 30.4263 55.8935 31.4078 54.8884C32.4173 53.8275 33.6512 53.297 35.1094 53.297C36.5676 53.297 37.8295 53.8275 38.811 54.8605C39.8206 55.8656 40.3253 57.1498 40.3253 58.6295C40.3253 60.1651 39.8206 61.4493 38.783 62.4823L38.811 62.4544ZM83.0342 49.7514C82.1649 48.9417 81.1554 48.3554 79.9776 47.9925C78.7998 47.6016 76.949 47.4341 74.4252 47.4341H70.7516V65.1346H76.4162C78.7157 65.1346 80.4824 64.7996 81.7162 64.1016C82.9501 63.4036 83.9316 62.3986 84.6327 61.0585C85.3618 59.7184 85.7263 58.2387 85.7263 56.7311C85.7263 55.1955 85.502 53.8554 85.0253 52.6828C84.5485 51.5102 83.9036 50.561 83.0342 49.7793V49.7514ZM83.3427 59.5788C82.9501 60.4722 82.4173 61.2539 81.6882 61.896C80.9591 62.5102 80.1178 62.929 79.1363 63.1524C78.1829 63.3757 76.6405 63.4595 74.4812 63.4595H72.4341V49.1651H73.696C75.8273 49.1651 77.4257 49.2767 78.5194 49.5001C79.613 49.7234 80.5945 50.1422 81.3797 50.7844C82.1649 51.4265 82.8099 52.2361 83.2305 53.2133C83.6792 54.1904 83.9036 55.2793 83.9036 56.4519C83.9036 57.6245 83.7073 58.6574 83.3427 59.5508V59.5788ZM94.4756 55.4468C95.2328 55.0559 95.7656 54.5255 96.1582 53.8833C96.5508 53.2133 96.7471 52.5153 96.7471 51.7336C96.7471 50.3377 96.2704 49.2767 95.2889 48.5229C94.3354 47.7691 92.9333 47.3783 91.0544 47.3783H87.5491V65.0788H92.4566C94.1672 65.0788 95.5412 64.6041 96.6069 63.6549C97.6725 62.7057 98.2053 61.4772 98.2053 59.9975C98.2053 58.9087 97.8968 57.9874 97.2518 57.1778C96.6349 56.396 95.7095 55.8097 94.4756 55.3909V55.4468ZM89.3158 49.0813H91.3629C93.7465 49.0813 94.9243 49.9468 94.9243 51.7057C94.9243 52.7666 94.5317 53.5204 93.7746 54.0229C93.0174 54.5255 91.8677 54.7488 90.2973 54.7488H89.2877V49.0813H89.3158ZM95.8217 61.7564C95.4291 62.2869 94.9523 62.6778 94.3354 62.929C93.7465 63.1803 92.8211 63.292 91.5311 63.292H89.3158V56.4798H90.2973C91.8957 56.4798 92.9894 56.5635 93.5783 56.7311C94.1672 56.8986 94.6719 57.1498 95.0926 57.4849C95.5412 57.8199 95.8497 58.1828 96.046 58.6295C96.2704 59.0762 96.3545 59.5508 96.3545 60.1092C96.3545 60.6676 96.1582 61.226 95.7936 61.7564H95.8217ZM52.608 47.3503C52.2715 47.3503 51.963 47.4899 51.7387 47.7133C51.5143 47.9646 51.4022 48.2437 51.4022 48.5788C51.4022 48.8859 51.5143 49.193 51.7387 49.4163C51.9911 49.6676 52.2715 49.7793 52.608 49.7793C52.9445 49.7793 53.253 49.6676 53.4773 49.4443C53.7297 49.193 53.8419 48.9138 53.8419 48.5788C53.8419 48.2437 53.7017 47.9366 53.4773 47.7133C53.253 47.462 52.9445 47.3503 52.608 47.3503ZM49.4672 51.7615C48.0931 51.9569 46.8593 52.5712 45.9058 53.5762L45.7375 53.7717V51.9569H44.1391V65.0229H45.8497V57.2615C45.8497 56.5356 46.0741 55.8097 46.4667 55.2234C47.1677 54.1067 48.4016 53.3529 49.8318 53.325V51.6778L49.4672 51.7615Z" fill="#434B5D"/>
<path d="M75.3786 7.00772C74.0606 7.03564 73.2754 7.62193 73.0231 8.71076C73.3596 9.01787 73.8082 9.12955 74.285 9.10163C75.2945 9.04579 76.276 8.29198 75.9956 7.00772C75.7712 7.00772 75.5749 7.00772 75.4067 7.00772H75.3786ZM82.221 3.2666H82.1089C81.1554 3.29452 81.0152 3.79706 78.9681 4.2996C76.921 4.80213 74.9299 4.2996 72.6865 5.24884C66.0685 8.01279 64.6383 17.561 58.6372 20.9392C54.1504 23.4798 49.7757 24.5965 45.7095 25.8529C43.0174 26.6905 40.3534 27.6397 37.9417 29.7336C36.0629 31.3529 35.5301 32.6092 33.5671 34.6473C31.548 36.7133 25.4067 33.0559 22.3781 35.7361C22.1257 35.9595 22.1257 36.3224 22.35 36.5737L22.4061 36.6295C23.0511 37.1879 24.285 38.5559 25.4628 38.9747C25.0982 39.6727 22.967 41.7666 23.4156 42.7996C23.8643 43.8884 29.1083 43.1625 33.9316 40.2311C36.175 38.863 37.9698 36.9367 41.5031 36.462C46.046 35.8478 51.29 36.8529 56.534 37.6067C55.7488 39.924 54.1784 41.4595 52.9445 43.3021C52.5519 43.7209 53.7297 43.7768 55.0477 43.5255C57.4594 42.9392 59.17 42.4646 60.9928 41.4037C63.2081 40.1194 63.5446 36.7971 66.2928 36.0991C67.6108 38.1092 70.8918 38.8072 73.4156 37.7184C73.5559 37.6625 73.6961 37.6067 73.8363 37.5229C74.1448 37.2717 73.9485 36.9367 73.7802 36.7133C73.6961 36.6295 73.6119 36.5458 73.5278 36.462C72.0976 34.9265 71.7892 31.3529 72.4061 29.594C73.1352 27.6118 73.8363 24.429 74.5654 21.8047C75.3506 18.9849 75.631 15.4113 76.5845 13.9874C78.0146 11.8097 79.557 11.0839 80.9311 9.85543C82.3052 8.62701 83.539 7.45442 83.4829 4.66254C83.4829 3.79706 83.0343 3.29452 82.2491 3.29452L82.221 3.2666ZM82.3893 6.22599C82.1089 8.15239 80.875 9.2133 79.4168 10.2184C78.1548 11.1118 76.7247 11.9773 75.8273 13.3732C74.9019 14.7971 74.313 19.7108 72.8828 24.5407C71.705 28.561 69.9103 32.5255 66.8817 34.424C66.6854 34.5356 66.433 34.424 66.3769 34.2006C66.1526 33.0839 66.2087 31.0179 65.8441 31.6879C65.3955 32.9443 64.9187 34.1169 64.3298 35.2336C62.5351 38.6397 59.9552 41.2361 55.8049 42.2412C55.6086 42.2971 55.4123 42.1575 55.3562 41.962C55.3562 41.8504 55.3562 41.7387 55.4123 41.6549C57.3472 39.0026 59.0578 36.1549 59.2541 31.7717C59.2541 31.4087 58.8054 31.2133 58.5531 31.5204C57.6557 32.6372 57.4313 35.2894 56.0853 36.0991C55.0477 36.2108 53.9821 36.2108 52.9165 36.1549C48.5418 35.9037 44.0831 34.5915 39.9888 35.9037C37.2126 36.7971 34.2962 39.3097 31.9406 40.3427C29.1644 41.5433 27.8744 42.66 24.3691 42.5762C24.0045 42.1016 25.8273 40.0356 26.4442 39.1422C26.6405 38.863 26.2199 38.5559 25.8273 38.3605C24.8739 37.9417 23.9204 36.7412 22.9109 36.2945C23.0511 36.0433 23.4998 35.8199 23.7522 35.6803C26.0517 34.3681 32.1369 37.1879 33.7634 35.5686C34.7729 34.5915 35.4459 33.726 36.147 32.7209C36.82 31.7438 37.8296 30.7108 38.8671 29.8732C39.3158 29.5103 39.7645 29.1752 40.2412 28.8681C42.0359 27.6676 43.0174 27.5559 45.3169 26.7184C48.2614 25.6295 51.8789 24.6803 55.0477 23.4798C56.9827 22.726 59.1139 21.8326 60.8245 20.5483C61.2451 20.2412 61.6097 19.9062 61.9743 19.5712C66.9098 14.7691 67.8913 6.36559 75.5469 5.55594C76.4723 5.47219 77.1453 5.41635 77.8183 5.38843C78.6035 5.38843 79.3607 5.16508 80.1178 4.80213C80.3422 4.69046 81.7723 3.8529 82.2491 4.27168C82.5575 4.55087 82.3332 6.03056 82.3052 6.19807" fill="#434B5D"/>
</g>
</svg>
