<svg width="70" height="65" viewBox="0 0 70 65" fill="none" xmlns="http://www.w3.org/2000/svg">
<g opacity="0.9">
<path d="M58.5892 34.0998C58.5892 33.9855 58.557 33.9037 58.4908 33.8503C58.4174 33.7928 58.2906 33.7621 58.114 33.7621H57.8601V34.4419H58.1665C58.4495 34.4419 58.5892 34.3275 58.5892 34.0998ZM58.9851 35.5172H58.6362L58.4137 35.0389C58.3007 34.7992 58.1799 34.6794 58.048 34.6794H57.8601V35.5172H57.5727V33.5234H58.1486C58.4047 33.5234 58.597 33.5775 58.729 33.6902C58.8409 33.7871 58.8968 33.9114 58.8968 34.0661C58.8968 34.2034 58.8511 34.3188 58.7592 34.4146C58.6697 34.5116 58.5411 34.577 58.3767 34.6108V34.6195C58.4908 34.6456 58.6049 34.7676 58.7155 34.9877L58.9851 35.5183V35.5172ZM59.6225 34.5399C59.6225 34.1478 59.485 33.8166 59.2109 33.554C58.9359 33.2915 58.6004 33.1597 58.2045 33.1597C57.7963 33.1597 57.4565 33.2915 57.1869 33.5562C56.9174 33.822 56.7833 34.151 56.7833 34.5399C56.7833 34.9376 56.923 35.2699 57.2003 35.5347C57.4744 35.7994 57.8098 35.9301 58.2045 35.9301C58.597 35.9301 58.9325 35.7983 59.2087 35.5302C59.485 35.2666 59.6225 34.9355 59.6225 34.5399ZM59.8159 34.5313C59.8159 34.9716 59.6605 35.3408 59.3485 35.6382C59.0365 35.9379 58.6541 36.0871 58.1967 36.0871C57.736 36.0871 57.3536 35.94 57.0493 35.6513C56.7452 35.3583 56.5942 34.99 56.5942 34.5434C56.5942 34.1064 56.7485 33.7393 57.0572 33.4376C57.3658 33.1369 57.7505 32.9866 58.2102 32.9866C58.6608 32.9866 59.0387 33.1304 59.3451 33.4169C59.6593 33.711 59.8159 34.0814 59.8159 34.5313Z" fill="black"/>
<path d="M16.0779 40.0908H15.0861V34.5608C15.0861 34.1239 15.1156 33.5923 15.1684 32.9648H15.146C15.0531 33.3319 14.9681 33.5977 14.8933 33.7623L12.0104 40.0908H11.5273L8.6388 33.808C8.55739 33.6326 8.47222 33.3504 8.38607 32.9648H8.36461C8.39502 33.2948 8.41202 33.8298 8.41202 34.5717V40.0908H7.45586V31.8557H8.76423L11.3575 37.5982C11.5532 38.0307 11.6796 38.3597 11.741 38.5842H11.7822C11.951 38.1342 12.0852 37.7964 12.187 37.5742L14.8361 31.8557H16.0774V40.0908H16.0779Z" fill="black"/>
<path d="M19.129 40.0906H18.1651V34.2098H19.129V40.0906ZM19.2956 32.1017C19.2956 32.2749 19.233 32.4198 19.1088 32.5386C18.987 32.6573 18.8361 32.7172 18.6593 32.7172C18.4871 32.7172 18.3372 32.6597 18.2143 32.5451C18.0913 32.4296 18.0308 32.2825 18.0308 32.1017C18.0308 31.9317 18.0917 31.7868 18.2143 31.6692C18.3372 31.5515 18.4871 31.4949 18.6593 31.4949C18.836 31.4949 18.987 31.5515 19.1088 31.6692C19.233 31.7868 19.2956 31.9317 19.2956 32.1017Z" fill="black"/>
<path d="M25.1529 39.8185C24.6899 40.0952 24.1375 40.2325 23.4989 40.2325C22.6335 40.2325 21.9368 39.9525 21.4045 39.3936C20.8879 38.851 20.6273 38.1506 20.6273 37.2921C20.6273 36.3289 20.9102 35.5489 21.4805 34.9563C22.0475 34.3625 22.8102 34.0662 23.7697 34.0662C24.2941 34.0662 24.7593 34.1664 25.1663 34.3647V35.3311C24.7157 35.0227 24.2393 34.8702 23.7282 34.8702C23.1132 34.8702 22.6134 35.0794 22.2253 35.4967C21.8216 35.9237 21.617 36.4946 21.617 37.2071C21.617 37.8913 21.8037 38.4327 22.175 38.8326C22.5474 39.2302 23.0428 39.4296 23.6679 39.4296C24.1957 39.4296 24.6899 39.2607 25.1529 38.9241V39.8185Z" fill="black"/>
<path d="M29.7635 35.1637C29.5936 35.0363 29.3487 34.9741 29.0255 34.9741C28.633 34.9741 28.3031 35.1452 28.0359 35.4905C27.7328 35.8762 27.5819 36.41 27.5819 37.092V40.0902H26.6157V34.2093H27.5819V35.4219H27.6051C27.7472 34.9927 27.9664 34.6625 28.2593 34.4284C28.5333 34.2148 28.8431 34.1069 29.1841 34.1069C29.4413 34.1069 29.6326 34.134 29.7634 34.1871V35.1633L29.7635 35.1637Z" fill="black"/>
<path d="M35.1485 37.1607C35.1485 36.408 34.974 35.8327 34.6251 35.4383C34.2863 35.0592 33.8132 34.8696 33.2038 34.8696C32.6033 34.8696 32.1214 35.0614 31.7612 35.4449C31.3799 35.8545 31.1898 36.433 31.1898 37.1837C31.1898 37.8874 31.371 38.4397 31.7367 38.8341C32.1001 39.2307 32.5899 39.429 33.2038 39.429C33.839 39.429 34.3254 39.2275 34.6587 38.8265C34.9852 38.4343 35.1485 37.8798 35.1485 37.1607ZM36.1392 37.1276C36.1392 38.0645 35.8675 38.8174 35.3263 39.3817C34.7828 39.9482 34.0515 40.2315 33.1323 40.2315C32.2265 40.2315 31.5052 39.9482 30.9763 39.3817C30.4585 38.8359 30.198 38.1146 30.198 37.2181C30.198 36.195 30.492 35.4063 31.0824 34.8463C31.6282 34.3267 32.3584 34.0652 33.2732 34.0652C34.1733 34.0652 34.8768 34.3386 35.3833 34.8801C35.8854 35.4248 36.1392 36.1744 36.1392 37.1276Z" fill="black"/>
<path d="M40.9308 38.5172C40.9308 38.9987 40.7464 39.3974 40.3762 39.7156C39.9725 40.0598 39.4179 40.232 38.7201 40.232C38.1486 40.232 37.6476 40.1154 37.2227 39.8779V38.8658C37.6958 39.2406 38.2179 39.4291 38.7916 39.4291C39.5565 39.4291 39.9401 39.1546 39.9401 38.6076C39.9401 38.3777 39.856 38.1871 39.6863 38.04C39.5163 37.8897 39.1863 37.7099 38.6955 37.4996C38.19 37.2839 37.8299 37.0628 37.6175 36.8329C37.3625 36.5605 37.2339 36.2065 37.2339 35.7707C37.2339 35.2826 37.4341 34.8762 37.8299 34.5527C38.2269 34.228 38.7368 34.0657 39.363 34.0657C39.8428 34.0657 40.2722 34.1572 40.6535 34.3413V35.2892C40.2554 35.0091 39.8003 34.8697 39.2837 34.8697C38.9639 34.8697 38.7067 34.9472 38.5154 35.0985C38.322 35.2532 38.2246 35.4504 38.2246 35.6911C38.2246 35.9516 38.306 36.1542 38.4674 36.2991C38.6105 36.4331 38.9147 36.5965 39.3732 36.7871C39.8886 36.9974 40.261 37.2153 40.488 37.4386C40.7821 37.7208 40.9308 38.0803 40.9308 38.5172Z" fill="black"/>
<path d="M46.8356 37.1607C46.8356 36.408 46.6612 35.8327 46.3112 35.4383C45.9735 35.0592 45.4993 34.8696 44.891 34.8696C44.2905 34.8696 43.8085 35.0614 43.4462 35.4449C43.066 35.8545 42.877 36.433 42.877 37.1837C42.877 37.8874 43.0581 38.4397 43.4204 38.8341C43.7884 39.2307 44.2782 39.429 44.891 39.429C45.5272 39.429 46.0126 39.2275 46.3458 38.8265C46.6723 38.4343 46.8356 37.8798 46.8356 37.1607ZM47.8286 37.1276C47.8286 38.0645 47.5547 38.8174 47.0123 39.3817C46.4711 39.9482 45.7397 40.2315 44.8205 40.2315C43.9136 40.2315 43.1923 39.9482 42.6634 39.3817C42.1456 38.8359 41.8851 38.1146 41.8851 37.2181C41.8851 36.195 42.1814 35.4063 42.7686 34.8463C43.3143 34.3267 44.0456 34.0652 44.9614 34.0652C45.8616 34.0652 46.5639 34.3386 47.0694 34.8801C47.5726 35.4248 47.8286 36.1744 47.8286 37.1276Z" fill="black"/>
<path d="M52.0861 32.2115C51.896 32.1091 51.6848 32.0568 51.4443 32.0568C50.7677 32.0568 50.4322 32.4718 50.4322 33.3031V34.2095H51.8468V35.007H50.4322V40.0904H49.465V35.007H48.4384V34.2095H49.465V33.2563C49.465 32.6091 49.6685 32.1014 50.0822 31.7353C50.4368 31.4172 50.8706 31.2593 51.3861 31.2593C51.6848 31.2593 51.9174 31.2942 52.0861 31.3617V32.2115Z" fill="black"/>
<path d="M55.8996 40.0313C55.6715 40.1588 55.3673 40.222 54.9916 40.222C53.9382 40.222 53.4115 39.6435 53.4115 38.4865V35.0079H52.376V34.2093H53.4115V32.7745C53.7202 32.6797 54.041 32.5762 54.3799 32.4695V34.2093H55.8996V35.0079H54.3799V38.3264C54.3799 38.7208 54.4461 39.0029 54.5845 39.1663C54.7243 39.3352 54.9525 39.418 55.2745 39.418C55.5149 39.418 55.7229 39.3553 55.8996 39.2284V40.0313Z" fill="black"/>
<path d="M3.668 63.0428C3.668 63.5036 3.49919 63.9023 3.15807 64.239C2.81812 64.5746 2.40544 64.7435 1.92127 64.7435C1.44821 64.7435 1.04563 64.5746 0.71579 64.239C0.38586 63.9023 0.221519 63.5036 0.221519 63.0428C0.221519 62.5689 0.38586 62.1691 0.71579 61.8379C1.04563 61.5055 1.44821 61.3411 1.92127 61.3411C2.40544 61.3411 2.81812 61.5078 3.15807 61.8444C3.49919 62.1811 3.668 62.5809 3.668 63.0428Z" fill="black"/>
<path d="M25.3015 64.397H22.1503L10.7116 47.1869C10.4443 46.773 10.2139 46.323 10.0183 45.8317H9.92426C10.0057 46.2925 10.0474 47.2817 10.0474 48.7972V64.397H7.4496V42.8052H10.8212L21.9177 59.744C22.3594 60.4161 22.6613 60.8977 22.8145 61.1875H22.8762C22.7733 60.5665 22.7198 59.5075 22.7198 58.0128V42.8052H25.3018V64.397H25.3015Z" fill="black"/>
<path d="M41.9552 64.397H30.209V42.8052H41.4452V45.093H32.8045V52.2757H40.8112V54.5647H32.8045V62.1081H41.9552V64.397Z" fill="black"/>
<path d="M59.7721 45.0933H53.388V64.3974H50.7914V45.0933H44.3949V42.8044H59.7721V45.0933Z" fill="black"/>
<path d="M24.4206 5.51121C26.9266 12.9772 27.876 26.2958 35.204 26.2958C35.762 26.2958 36.3256 26.2426 36.8914 26.1378C30.23 24.6245 29.4405 11.4508 25.3756 4.62866C25.0569 4.91086 24.7404 5.20501 24.4206 5.51121Z" fill="url(#paint0_linear_1144_1724)"/>
<path d="M25.3756 4.62878C29.4405 11.4509 30.23 24.6247 36.8914 26.1379C37.4148 26.0442 37.9392 25.9026 38.4648 25.7239C32.4855 22.8695 30.8327 10.0772 26.2165 3.91846C25.9369 4.14515 25.6563 4.38265 25.3756 4.62878Z" fill="url(#paint1_linear_1144_1724)"/>
<path d="M31.2324 0.571533C30.6755 0.571533 30.1107 0.624688 29.5438 0.729551C28.061 1.00191 26.5548 1.62394 25.0362 2.56523C25.451 2.96396 25.8457 3.42041 26.217 3.91833C27.7613 2.66981 29.2956 1.74708 30.8243 1.19251C31.3979 0.985526 31.9694 0.829774 32.543 0.727371C32.1292 0.62486 31.6931 0.571533 31.2324 0.571533Z" fill="#14559A"/>
<path d="M43.1324 23.0928C43.7441 22.6189 44.3569 22.0948 44.9708 21.5229C42.4246 14.0917 41.5132 0.58252 34.1338 0.58252C33.606 0.58252 33.0737 0.630451 32.5425 0.726315C39.2644 2.35509 40.1254 16.6029 43.1324 23.0928Z" fill="url(#paint2_linear_1144_1724)"/>
<path d="M32.5427 0.726775C32.129 0.624372 31.6929 0.571045 31.2321 0.571045L34.134 0.581404C33.6062 0.581404 33.0739 0.629336 32.5427 0.726344" fill="#3092C4"/>
<path d="M43.0036 24.6713C42.7151 24.4033 42.4411 24.1092 42.1716 23.7954C40.9303 24.6517 39.6935 25.301 38.4646 25.7237C38.9018 25.9319 39.3603 26.0866 39.8468 26.1824C40.2236 26.2574 40.6139 26.2957 41.0242 26.2957C42.4031 26.2957 43.4934 26.1367 44.4215 25.7031C43.9105 25.4339 43.4419 25.0853 43.0036 24.6713Z" fill="#1969BC"/>
<path d="M30.8237 1.19375C36.8445 4.26163 37.3678 18.1543 42.1718 23.7955C42.4939 23.5744 42.8126 23.3401 43.1313 23.0928C40.1243 16.6029 39.2644 2.35395 32.5436 0.726318C31.97 0.830901 31.3974 0.985703 30.8237 1.19375Z" fill="url(#paint3_linear_1144_1724)"/>
<path d="M26.2165 3.91852C30.8327 10.0772 32.4855 22.8696 38.4648 25.724C39.6938 25.3012 40.9306 24.6519 42.1718 23.7956C37.3678 18.1544 36.8445 4.26173 30.8237 1.19385C29.2951 1.74728 27.7608 2.67 26.2165 3.91852Z" fill="url(#paint4_linear_1144_1724)"/>
<path d="M21.4671 5.33155C20.7436 6.92547 20.0045 9.02043 19.111 11.755C20.8879 9.31564 22.6592 7.21412 24.4205 5.51136C24.1778 4.78466 23.9173 4.11467 23.6366 3.51758C22.9164 4.05471 22.1907 4.6594 21.4671 5.33155Z" fill="url(#paint5_linear_1144_1724)"/>
<path d="M24.2782 3.05786C24.0657 3.20602 23.8521 3.3575 23.6374 3.51761C23.9181 4.11463 24.1775 4.78468 24.4202 5.5113C24.74 5.20625 25.0575 4.91104 25.3751 4.62885C25.0341 4.05796 24.6718 3.53066 24.2782 3.05786Z" fill="#2B74B1"/>
<path d="M25.0362 2.56519C24.7834 2.72102 24.5319 2.88547 24.278 3.0576C24.6716 3.53043 25.0339 4.05772 25.3761 4.62973C25.6568 4.38239 25.9375 4.14383 26.217 3.91829C25.8458 3.42045 25.4511 2.96392 25.0362 2.56519Z" fill="#125A9E"/>
<path d="M66.1026 0.00299979C62.6975 12.7964 55.5854 23.0721 49.6228 25.6628H49.6115C49.5031 25.7108 49.3957 25.7544 49.2895 25.7968C49.2748 25.8054 49.2616 25.8065 49.2503 25.8117C49.219 25.824 49.1899 25.8335 49.1586 25.8457C49.144 25.8543 49.1307 25.8571 49.1173 25.8623C49.067 25.8798 49.0177 25.8946 48.9685 25.9137C48.9473 25.9224 48.9272 25.9277 48.907 25.9347C48.8846 25.9433 48.8588 25.9513 48.8332 25.9582C48.8108 25.9668 48.7874 25.9731 48.7616 25.9826C48.7403 25.9912 48.7179 25.9949 48.6979 26.0035C48.6542 26.0158 48.6141 26.0262 48.5704 26.041C48.5525 26.041 48.5358 26.0505 48.5167 26.055C48.4899 26.0636 48.4597 26.0699 48.4306 26.0777C48.4104 26.0863 48.3937 26.0891 48.3724 26.0934C48.3422 26.1021 48.3087 26.11 48.2785 26.117C48.2383 26.1256 48.2025 26.1336 48.1644 26.1414C48.4339 26.2384 48.7146 26.2874 49.0177 26.2874C54.6716 26.2874 60.3724 16.4159 69.805 0H66.1013L66.1026 0.00299979Z" fill="url(#paint6_linear_1144_1724)"/>
<path d="M17.8831 1.0908C17.8867 1.0908 17.8911 1.08217 17.8933 1.08217C17.8978 1.08217 17.9046 1.08217 17.9068 1.07354H17.9139C17.9452 1.06318 17.9743 1.05088 18.0056 1.03955C18.0136 1.03955 18.0178 1.03955 18.0236 1.03091C18.0315 1.03091 18.0393 1.02228 18.0471 1.0212C18.0806 1.01084 18.1142 0.998542 18.1455 0.987212H18.1508C18.2258 0.965437 18.2951 0.938417 18.3677 0.913145C18.3779 0.913145 18.3879 0.904513 18.4001 0.904513C18.4304 0.895017 18.4617 0.884442 18.493 0.877493C18.5076 0.868861 18.522 0.868861 18.5354 0.864329C18.5678 0.854833 18.5992 0.844258 18.6294 0.837309C18.6429 0.837309 18.6551 0.828676 18.6652 0.827813C18.7692 0.79993 18.872 0.773774 18.976 0.749365C18.9907 0.749365 19.0029 0.740733 19.0185 0.739869C19.0487 0.731237 19.0767 0.726705 19.1091 0.722389C19.1226 0.713756 19.1382 0.713756 19.1539 0.709224C19.184 0.700592 19.2131 0.699728 19.2455 0.692607H19.2668C19.3294 0.680305 19.3932 0.669946 19.4558 0.658616H19.4938C19.524 0.649984 19.5508 0.64912 19.5811 0.643725C19.5977 0.643725 19.6146 0.635093 19.6303 0.635093C19.6582 0.635093 19.6862 0.62646 19.7141 0.622791C19.7287 0.622791 19.7431 0.622791 19.76 0.614159C19.8259 0.605526 19.8941 0.602073 19.9635 0.596678C19.7678 0.578334 19.5665 0.566162 19.3619 0.566162C12.9945 0.566162 4.22174 12.0762 0.269806 26.9821H1.03134C2.29609 24.7847 3.43225 22.706 4.47111 20.7548C7.23881 10.1969 12.876 2.99668 17.8835 1.0891" fill="url(#paint7_linear_1144_1724)"/>
<path d="M21.4672 5.33148C22.1908 4.65934 22.9165 4.05465 23.6366 3.5176C23.4723 3.1668 23.3023 2.84213 23.12 2.54468C22.5374 3.23321 22.0051 4.14182 21.4672 5.33148Z" fill="#0D82CA"/>
<path d="M21.9903 1.17797C22.4063 1.51787 22.7786 1.98528 23.1197 2.54527C23.2271 2.41671 23.3356 2.29792 23.4485 2.1868C22.9755 1.75649 22.4644 1.40351 21.9098 1.1377C21.9321 1.14978 21.9545 1.15949 21.9778 1.16907C21.9778 1.16907 21.9866 1.17771 21.9904 1.17771" fill="#0D82CA"/>
<path d="M4.47083 20.7558C10.2768 9.85583 13.0278 2.9574 17.8832 1.09009C12.8768 2.99888 7.23852 10.199 4.47083 20.7558Z" fill="url(#paint8_linear_1144_1724)"/>
<path d="M23.4481 2.18652C23.3352 2.29879 23.2279 2.41645 23.1194 2.54501C23.3017 2.84238 23.4716 3.16599 23.6372 3.51785C23.8519 3.35774 24.0654 3.20626 24.2779 3.0581C24.0152 2.74215 23.7378 2.44912 23.4481 2.18652Z" fill="#127BCA"/>
<path d="M7.10656 26.9344C7.07078 26.943 7.03499 26.943 7.00145 26.9467H6.98131C6.95107 26.9467 6.91976 26.9553 6.89185 26.9553H6.87727C6.80463 26.964 6.73302 26.964 6.66368 26.9693H6.64132C12.5178 26.8092 15.2038 23.9428 16.5368 19.7854C17.5499 16.6337 18.3819 13.9786 19.111 11.7507C16.6498 15.1259 14.1773 19.1492 11.6914 23.6563C10.4926 25.8286 8.66984 26.7361 7.10652 26.9301" fill="url(#paint9_linear_1144_1724)"/>
<path d="M7.10656 26.9321C8.66989 26.7381 10.4927 25.8317 11.6914 23.6583C14.1773 19.1523 16.6509 15.1279 19.11 11.7528C20.0046 9.01711 20.7426 6.92327 21.4673 5.32935C16.5659 9.87455 11.6456 17.4321 7.10656 26.93" fill="url(#paint10_linear_1144_1724)"/>
<path d="M4.47055 20.7561C3.43173 22.7073 2.29558 24.786 1.03078 26.9834H3.2461C3.53908 24.8012 3.95507 22.7203 4.47055 20.7571" fill="#05A1E6"/>
<path d="M19.7597 0.619749C19.7417 0.619749 19.7284 0.628381 19.7127 0.628381C19.6859 0.637014 19.6579 0.637014 19.63 0.639819C19.6133 0.639819 19.5976 0.639819 19.5808 0.648452C19.5505 0.657084 19.5226 0.657948 19.4935 0.663343C19.48 0.663343 19.4667 0.663343 19.4555 0.671975C19.3917 0.682334 19.3291 0.693773 19.2665 0.704218H19.2452C19.2129 0.71285 19.1837 0.717382 19.1536 0.721699C19.1378 0.730331 19.1222 0.730331 19.1077 0.733784C19.0775 0.742417 19.0473 0.746085 19.0182 0.751265C19.0025 0.759897 18.9903 0.759897 18.9757 0.760761C18.8717 0.785169 18.7688 0.811326 18.6648 0.839208C18.6537 0.839208 18.6425 0.847841 18.629 0.849567C18.5977 0.8582 18.5675 0.867048 18.5351 0.876587C18.5216 0.88522 18.506 0.88522 18.4926 0.888673C18.4613 0.897305 18.43 0.906153 18.3998 0.915692C18.3876 0.915692 18.3774 0.924325 18.3663 0.924325C18.2947 0.95046 18.2242 0.976616 18.1504 0.998413C18.1191 1.00791 18.0856 1.02019 18.052 1.03152C18.0385 1.04015 18.0263 1.04209 18.0107 1.04814C17.9794 1.05763 17.9481 1.06993 17.919 1.08126C17.9079 1.0899 17.8966 1.09076 17.8888 1.09529C13.0334 2.96261 10.2824 9.86103 4.47644 20.761C3.96092 22.7242 3.54381 24.8051 3.25195 26.9872H3.56282C4.43842 26.9872 4.68555 26.9786 5.69311 26.9786H5.74455H5.89439H5.94583H5.96041H6.01185H6.04092H6.06106H6.10132H6.22656H6.35181H6.45692H6.48484H6.66935C6.73868 26.97 6.81025 26.97 6.88294 26.9646H6.89636C6.9266 26.9646 6.95675 26.9559 6.98582 26.9559H7.00702C7.0394 26.9559 7.07635 26.9473 7.11213 26.9436C11.6512 17.4458 16.5715 9.88822 21.4728 5.34302C22.0118 4.15335 22.543 3.24474 23.1245 2.55733C22.7845 1.99737 22.4122 1.5289 21.9962 1.18891C21.9962 1.18891 21.9849 1.18891 21.984 1.18028C21.9605 1.17078 21.9382 1.15934 21.9147 1.14804C21.8911 1.13573 21.871 1.12624 21.8465 1.11405C21.8252 1.10541 21.8006 1.09397 21.7794 1.08267C21.7503 1.07403 21.7268 1.06173 21.7011 1.0504C21.6799 1.04177 21.6609 1.03292 21.6396 1.02427C21.5959 1.00765 21.5524 0.990277 21.511 0.971976C21.4919 0.963344 21.4741 0.958812 21.4561 0.951906C21.426 0.941331 21.3913 0.927497 21.36 0.914419C21.3443 0.905787 21.3264 0.90406 21.3085 0.897802C21.2627 0.88291 21.218 0.867307 21.1755 0.853344H21.1644C21.1129 0.836727 21.0626 0.824598 21.01 0.810635C20.9979 0.802002 20.9877 0.802002 20.9754 0.800276C20.9295 0.787975 20.8893 0.775868 20.8457 0.764537C20.8346 0.764537 20.8244 0.755905 20.8156 0.755905C20.7104 0.728885 20.602 0.70711 20.4924 0.687061C20.4811 0.687061 20.47 0.678428 20.4588 0.678428C20.4119 0.669796 20.366 0.661811 20.3191 0.656631C20.3078 0.647999 20.3011 0.647999 20.2911 0.647999C20.2352 0.639366 20.1804 0.633108 20.1256 0.627065H20.0966C20.0518 0.618432 20.0105 0.617569 19.9691 0.613037C19.8986 0.62167 19.8315 0.625338 19.7655 0.631381" fill="url(#paint11_linear_1144_1724)"/>
<path d="M52.802 7.08554C51.6849 10.5718 50.7802 13.4479 49.993 15.8142C53.0581 11.7048 56.0774 6.53533 58.9525 0.56958C55.5988 1.59575 53.8096 3.94469 52.802 7.08554Z" fill="url(#paint12_linear_1144_1724)"/>
<path d="M50.0902 25.4449C49.9337 25.5224 49.7771 25.5963 49.6228 25.6628C55.5854 23.072 62.6975 12.7963 66.1026 0.00292969H65.4126C57.5893 13.6178 55.0732 22.7321 50.0902 25.4449Z" fill="url(#paint13_linear_1144_1724)"/>
<path d="M46.1968 24.301C47.4939 22.7584 48.5507 20.1361 49.9933 15.8142C48.3293 18.041 46.6542 19.9553 44.9779 21.5164C44.9779 21.525 44.9779 21.525 44.969 21.5304C45.3347 22.5981 45.7361 23.5404 46.1935 24.3009" fill="#079AE1"/>
<path d="M46.1968 24.301C45.755 24.8262 45.2877 25.226 44.7676 25.5224C44.6536 25.5869 44.5384 25.6476 44.421 25.7032C44.9701 25.9919 45.5694 26.1847 46.2403 26.262C46.3387 26.2715 46.436 26.2804 46.5378 26.2873H46.5557C46.6014 26.2873 46.6497 26.2873 46.6989 26.296H46.7186H46.8651H47.0229H47.0721H47.1839C47.2019 26.296 47.2206 26.296 47.2385 26.2873C47.2734 26.2873 47.31 26.2873 47.3458 26.2787H47.3584H47.3987C47.4354 26.2787 47.4756 26.2701 47.515 26.2664H47.5239C47.5356 26.2664 47.548 26.2578 47.5596 26.2578C47.6008 26.2491 47.6437 26.2455 47.6838 26.2394H47.7205C47.7661 26.2308 47.8133 26.2254 47.8602 26.2167H47.8691H47.8826C47.9765 26.1993 48.0682 26.1819 48.161 26.1592C47.3916 25.8847 46.7475 25.2375 46.1929 24.3159" fill="#1969BC"/>
<path d="M35.2041 26.2961C35.7621 26.2961 36.3258 26.243 36.8916 26.1371C37.4149 26.0445 37.9394 25.9028 38.4649 25.7241C38.9022 25.9323 39.3607 26.087 39.846 26.1828C40.2229 26.2578 40.6142 26.2961 41.0247 26.2961H35.2041Z" fill="#1E5CB3"/>
<path d="M41.0248 26.296C42.4025 26.296 43.4939 26.137 44.421 25.7034C44.97 25.992 45.5694 26.1849 46.2403 26.2623C46.3387 26.2718 46.4361 26.2806 46.5378 26.2876H46.5557C46.6014 26.2876 46.6497 26.2876 46.6989 26.2962H46.7195H46.866H41.0208L41.0248 26.296Z" fill="#1E5CB3"/>
<path d="M46.8695 26.2961H47.0283H47.0775H47.1883C47.2071 26.2961 47.2249 26.2961 47.2428 26.2875C47.2777 26.2875 47.3144 26.2875 47.3514 26.2789H47.3631H47.4043C47.4409 26.2789 47.4812 26.2702 47.5195 26.2668H47.5292C47.541 26.2668 47.5525 26.2581 47.5641 26.2581C47.6053 26.2495 47.6482 26.2461 47.6882 26.2398C47.7017 26.2398 47.7123 26.2398 47.7267 26.2312C47.7723 26.2225 47.8195 26.218 47.8665 26.2094H47.8754H47.8889C47.9828 26.1919 48.0745 26.1745 48.1673 26.1519C48.4367 26.2488 48.7175 26.2979 49.0205 26.2979L46.8712 26.3065L46.8695 26.2961Z" fill="#1D60B5"/>
<path d="M44.9726 21.5306V21.522C44.3587 22.0939 43.7459 22.618 43.1342 23.0918C42.8143 23.3392 42.4957 23.5734 42.1736 23.7946C42.4431 24.1083 42.7171 24.4025 43.0056 24.6705C43.444 25.0844 43.9125 25.4331 44.4236 25.7022C44.5399 25.6464 44.6562 25.5855 44.7691 25.5213C45.2902 25.225 45.7576 24.8252 46.1994 24.3001C45.742 23.5396 45.3405 22.5972 44.9748 21.5296" fill="#175FAB"/>
<path d="M63.2276 0.00292969H60.3268H60.0383H59.7654H59.7548C59.5669 0.0115622 59.3847 0.0178207 59.2046 0.0290862C59.1196 0.206721 59.0324 0.384335 58.9485 0.563006C56.0735 6.52875 53.0542 11.6983 49.989 15.8077C48.5476 20.1295 47.4897 22.7518 46.1925 24.2945C46.7472 25.2162 47.3924 25.8644 48.1596 26.1389C48.1819 26.1303 48.1998 26.1303 48.22 26.1257H48.2324C48.2459 26.1257 48.2603 26.1171 48.2749 26.1171C48.3062 26.1085 48.3397 26.1031 48.371 26.0936C48.3912 26.085 48.4079 26.0841 48.4281 26.0778C48.4572 26.0692 48.4873 26.0629 48.5142 26.056C48.5321 26.0474 48.5499 26.0446 48.5678 26.0412C48.6126 26.0271 48.6528 26.0167 48.6953 26.0037C48.7155 25.995 48.7368 25.9879 48.7591 25.9827C48.7837 25.9741 48.8083 25.9678 48.8307 25.9575C48.8564 25.9488 48.8821 25.9443 48.9045 25.9348C48.9246 25.9262 48.9458 25.9208 48.9649 25.913C49.0151 25.8955 49.0644 25.8808 49.1147 25.8616C49.1282 25.8616 49.1416 25.8495 49.1561 25.8467C49.1863 25.8344 49.2176 25.8249 49.2478 25.8118C49.2589 25.8032 49.2724 25.8023 49.2869 25.7978C49.3921 25.7551 49.5005 25.7115 49.609 25.6638H49.6203C49.7746 25.5976 49.9312 25.5232 50.0866 25.4459C55.0707 22.7332 57.5868 13.6188 65.4102 0.00398717H63.2251L63.2276 0.00292969Z" fill="url(#paint14_linear_1144_1724)"/>
<path d="M19.9634 0.601324C19.9758 0.601324 19.987 0.601324 19.9992 0.609956C20.0294 0.609956 20.0596 0.609956 20.0898 0.619452H20.12C20.1748 0.628084 20.2296 0.632616 20.2855 0.640386C20.2957 0.640386 20.3046 0.640386 20.3134 0.649018C20.3592 0.657651 20.4063 0.664773 20.4532 0.671679C20.4634 0.671679 20.4768 0.680311 20.4879 0.680311C20.5953 0.701245 20.7049 0.72302 20.81 0.75004C20.82 0.75004 20.8302 0.758673 20.8391 0.758673C20.8838 0.769032 20.9241 0.782196 20.9688 0.794389C20.9823 0.794389 20.9922 0.803022 21.0046 0.804964C21.0572 0.818129 21.1063 0.831121 21.1578 0.847674C21.16 0.847674 21.1631 0.847674 21.1691 0.856306C21.2126 0.869255 21.2574 0.885937 21.3033 0.900742C21.3212 0.909374 21.3379 0.913043 21.3547 0.917359C21.386 0.930524 21.4207 0.943494 21.4509 0.955709C21.4688 0.955709 21.4866 0.967795 21.5056 0.974053C21.5469 0.992397 21.5906 1.00891 21.6331 1.02634C21.6555 1.03498 21.6744 1.04469 21.6957 1.05248C21.7203 1.06478 21.746 1.07602 21.7728 1.08474C21.7952 1.0951 21.8198 1.10652 21.841 1.1161C21.8645 1.1284 21.8868 1.1379 21.9093 1.15009C22.4639 1.41593 22.975 1.77003 23.448 2.19929C23.6224 2.02061 23.8047 1.86042 23.9937 1.71662C22.9593 1.00194 21.7874 0.594482 20.4354 0.594482C20.2788 0.594482 20.1223 0.603115 19.9635 0.614553" fill="#7DCBEC"/>
<path d="M23.4482 2.18652C23.7378 2.44904 24.0151 2.74215 24.2779 3.0581C24.5317 2.88597 24.7834 2.72036 25.0361 2.56566C24.7051 2.24317 24.3562 1.95338 23.9927 1.70386C23.8038 1.84662 23.6226 2.00785 23.4482 2.18652Z" fill="#5EC5ED"/>
<path d="M19.9632 0.601087C20.122 0.588014 20.2785 0.582566 20.4351 0.582566C21.7871 0.582566 22.959 0.990022 23.9934 1.70361C25.0848 0.864735 26.4044 0.571672 28.2372 0.571672H19.3615C19.5662 0.571672 19.7664 0.583656 19.9632 0.601087Z" fill="url(#paint15_linear_1144_1724)"/>
<path d="M28.2372 0.571732C26.4044 0.571732 25.0848 0.864794 23.9934 1.70367C24.3557 1.95316 24.7046 2.24295 25.0356 2.56543C26.5553 1.62414 28.0605 1.00098 29.5444 0.728613C30.1103 0.625115 30.675 0.571732 31.2319 0.571732H28.2372Z" fill="url(#paint16_linear_1144_1724)"/>
<path d="M49.993 15.8164C50.7813 13.4479 51.6838 10.5729 52.8031 7.08552C53.8118 3.94355 55.5977 1.59469 58.9513 0.569564C59.0399 0.394109 59.1236 0.213258 59.2097 0.0356445C53.7425 0.354896 51.1873 3.06431 49.9013 7.07683C47.6524 14.082 46.2904 18.6228 44.9787 21.5164C46.6538 19.9563 48.329 18.0411 49.993 15.8164Z" fill="url(#paint17_linear_1144_1724)"/>
<path d="M58.0138 24.4298H57.3943V26.3059H57.1415V24.4298H56.5198V24.2065H58.0138V24.4298Z" fill="black"/>
<path d="M60.5505 26.3056H60.299V24.8959C60.299 24.7847 60.3078 24.6486 60.3196 24.4884C60.2936 24.5843 60.2722 24.6508 60.2525 24.6932L59.5189 26.3056H59.3959L58.6601 24.7053C58.6386 24.6608 58.6171 24.5887 58.5939 24.4884H58.585C58.5939 24.573 58.5968 24.7096 58.5968 24.8992V26.3056H58.3552V24.2063H58.6885L59.3493 25.6716C59.3994 25.7816 59.4307 25.8666 59.4466 25.9233H59.4564C59.5002 25.8078 59.536 25.7217 59.5604 25.665L60.2347 24.2063H60.5523V26.3056H60.5505Z" fill="black"/>
</g>
<defs>
<linearGradient id="paint0_linear_1144_1724" x1="30.6557" y1="0.400099" x2="30.6557" y2="32.7147" gradientUnits="userSpaceOnUse">
<stop stop-color="#0994DC"/>
<stop offset="0.350006" stop-color="#66CEF5"/>
<stop offset="0.846161" stop-color="#127BCA"/>
<stop offset="1" stop-color="#127BCA"/>
</linearGradient>
<linearGradient id="paint1_linear_1144_1724" x1="31.9203" y1="-0.417926" x2="31.9203" y2="32.7202" gradientUnits="userSpaceOnUse">
<stop stop-color="#0E76BC"/>
<stop offset="0.360001" stop-color="#36AEE8"/>
<stop offset="0.846161" stop-color="#00ADEF"/>
<stop offset="1" stop-color="#00ADEF"/>
</linearGradient>
<linearGradient id="paint2_linear_1144_1724" x1="38.7566" y1="25.5513" x2="38.7566" y2="-0.816258" gradientUnits="userSpaceOnUse">
<stop stop-color="#1C63B7"/>
<stop offset="0.5" stop-color="#33BDF2"/>
<stop offset="1" stop-color="#33BDF2" stop-opacity="0.419608"/>
</linearGradient>
<linearGradient id="paint3_linear_1144_1724" x1="36.9776" y1="-3.77564" x2="36.9776" y2="30.6303" gradientUnits="userSpaceOnUse">
<stop stop-color="#166AB8"/>
<stop offset="0.399994" stop-color="#36AEE8"/>
<stop offset="0.846161" stop-color="#0798DD"/>
<stop offset="1" stop-color="#0798DD"/>
</linearGradient>
<linearGradient id="paint4_linear_1144_1724" x1="34.1939" y1="-3.59471" x2="34.1939" y2="32.9915" gradientUnits="userSpaceOnUse">
<stop stop-color="#124379"/>
<stop offset="0.389999" stop-color="#1487CB"/>
<stop offset="0.780228" stop-color="#165197"/>
<stop offset="1" stop-color="#165197"/>
</linearGradient>
<linearGradient id="paint5_linear_1144_1724" x1="19.111" y1="7.63632" x2="24.4205" y2="7.63632" gradientUnits="userSpaceOnUse">
<stop stop-color="#33BDF2" stop-opacity="0.698039"/>
<stop offset="1" stop-color="#1DACD8"/>
</linearGradient>
<linearGradient id="paint6_linear_1144_1724" x1="58.9868" y1="24.8906" x2="58.9868" y2="-0.795082" gradientUnits="userSpaceOnUse">
<stop stop-color="#136AB4"/>
<stop offset="0.6" stop-color="#59CAF5" stop-opacity="0.54902"/>
<stop offset="1" stop-color="#59CAF5" stop-opacity="0.235294"/>
</linearGradient>
<linearGradient id="paint7_linear_1144_1724" x1="0.269656" y1="13.774" x2="19.9633" y2="13.774" gradientUnits="userSpaceOnUse">
<stop stop-color="#05A1E6" stop-opacity="0.247059"/>
<stop offset="1" stop-color="#05A1E6"/>
</linearGradient>
<linearGradient id="paint8_linear_1144_1724" x1="11.1768" y1="25.5373" x2="11.1768" y2="-0.762696" gradientUnits="userSpaceOnUse">
<stop stop-color="#318ED5"/>
<stop offset="1" stop-color="#38A7E4"/>
</linearGradient>
<linearGradient id="paint9_linear_1144_1724" x1="12.876" y1="25.6301" x2="12.876" y2="0.0650567" gradientUnits="userSpaceOnUse">
<stop stop-color="#05A1E6"/>
<stop offset="1" stop-color="#05A1E6" stop-opacity="0.54902"/>
</linearGradient>
<linearGradient id="paint10_linear_1144_1724" x1="14.2869" y1="26.9344" x2="14.2869" y2="5.33155" gradientUnits="userSpaceOnUse">
<stop stop-color="#1959A6"/>
<stop offset="0.5" stop-color="#05A1E6"/>
<stop offset="0.917587" stop-color="#7EC5EA"/>
<stop offset="1" stop-color="#7EC5EA"/>
</linearGradient>
<linearGradient id="paint11_linear_1144_1724" x1="15.1366" y1="25.5545" x2="7.96713" y2="3.06496" gradientUnits="userSpaceOnUse">
<stop stop-color="#165096"/>
<stop offset="1" stop-color="#0D82CA"/>
</linearGradient>
<linearGradient id="paint12_linear_1144_1724" x1="54.4723" y1="12.3077" x2="54.4723" y2="0.0666682" gradientUnits="userSpaceOnUse">
<stop stop-color="#05A1E6"/>
<stop offset="0.873627" stop-color="#0495D6"/>
<stop offset="1" stop-color="#0495D6"/>
</linearGradient>
<linearGradient id="paint13_linear_1144_1724" x1="60.3781" y1="-1.06489" x2="49.1672" y2="24.4847" gradientUnits="userSpaceOnUse">
<stop stop-color="#38A7E4" stop-opacity="0.329412"/>
<stop offset="0.961533" stop-color="#0E88D3"/>
<stop offset="1" stop-color="#0E88D3"/>
</linearGradient>
<linearGradient id="paint14_linear_1144_1724" x1="55.8046" y1="-0.0743743" x2="55.8046" y2="26.6308" gradientUnits="userSpaceOnUse">
<stop stop-color="#168CD4"/>
<stop offset="0.5" stop-color="#1C87CC"/>
<stop offset="1" stop-color="#154B8D"/>
</linearGradient>
<linearGradient id="paint15_linear_1144_1724" x1="20.8415" y1="-0.623261" x2="20.9542" y2="2.17775" gradientUnits="userSpaceOnUse">
<stop stop-color="#97D6EE"/>
<stop offset="0.703293" stop-color="#55C1EA"/>
<stop offset="1" stop-color="#55C1EA"/>
</linearGradient>
<linearGradient id="paint16_linear_1144_1724" x1="24.4921" y1="2.43982" x2="25.0025" y2="-0.531525" gradientUnits="userSpaceOnUse">
<stop stop-color="#7ACCEC"/>
<stop offset="1" stop-color="#3FB7ED"/>
</linearGradient>
<linearGradient id="paint17_linear_1144_1724" x1="52.0937" y1="1.40243" x2="52.0937" y2="27.5227" gradientUnits="userSpaceOnUse">
<stop stop-color="#1DA7E7"/>
<stop offset="1" stop-color="#37ABE7" stop-opacity="0"/>
</linearGradient>
</defs>
</svg>
