<svg width="82" height="45" viewBox="0 0 82 45" fill="none" xmlns="http://www.w3.org/2000/svg">
<g opacity="0.9">
<path fill-rule="evenodd" clip-rule="evenodd" d="M61.5835 15.4849H58.4381L56.715 24.2372H59.5048C61.3647 24.2372 62.7323 23.8871 63.6623 23.1869C64.5649 22.4867 65.194 21.3287 65.4948 19.7129C65.7957 18.151 65.6589 17.0469 65.0846 16.4275C64.5102 15.7812 63.334 15.458 61.5835 15.458" fill="#5E7BAD"/>
<path fill-rule="evenodd" clip-rule="evenodd" d="M25.6709 15.4849H22.5255L20.8024 24.2372H23.5922C25.4521 24.2372 26.8197 23.8871 27.7497 23.1869C28.6523 22.4867 29.2814 21.3287 29.5822 19.7129C29.8831 18.151 29.7463 17.0469 29.1719 16.4275C28.5976 15.7812 27.4214 15.458 25.6709 15.458" fill="#5E7BAD"/>
<path fill-rule="evenodd" clip-rule="evenodd" d="M70.254 20.063C70.0625 21.0863 69.707 22.0288 69.242 22.8637C68.777 23.6985 68.1479 24.4795 67.3821 25.1797C66.4521 26.0414 65.4401 26.6339 64.3187 27.0109C63.1973 27.361 61.775 27.5495 60.0245 27.5495H56.0859L54.9918 33.124H50.3968L54.4995 12.1994H63.3614C66.0145 12.1994 67.9565 12.8996 69.1873 14.273C70.4181 15.6464 70.7737 17.5854 70.2814 20.063H70.254ZM44.8717 27.5495L46.6769 18.2856C46.8958 17.2353 46.8137 16.5082 46.4581 16.1312C46.1026 15.7542 45.3367 15.5657 44.1606 15.5657H40.5228L38.1706 27.5495H33.6029L37.7056 6.6249H42.2733L41.1793 12.1994H45.2547C47.8257 12.1994 49.5762 12.6303 50.5609 13.519C51.5455 14.4077 51.819 15.835 51.4361 17.8278L49.5215 27.5764H44.8717V27.5495ZM31.4421 25.1797C30.5122 26.0414 29.5002 26.6339 28.3788 27.0109C27.2573 27.361 25.8351 27.5495 24.0846 27.5495H20.1459L19.0519 33.124H14.4568L18.5595 12.1994H27.4214C30.0745 12.1994 32.0165 12.8996 33.2473 14.273C34.4781 15.6464 34.8337 17.5854 34.3414 20.063C34.1499 21.0863 33.7944 22.0288 33.3294 22.8637C32.8644 23.6985 32.2353 24.4795 31.4695 25.1797H31.4421ZM42.328 2.07373C21.0759 2.07373 3.84439 10.7452 3.84439 21.4095C3.84439 32.0737 21.0759 40.7452 42.3554 40.7452C63.6349 40.7452 80.8664 32.1007 80.8664 21.4095C80.8664 10.7183 63.6076 2.07373 42.328 2.07373Z" fill="#5E7BAD"/>
</g>
</svg>
