<svg width="65" height="62" viewBox="0 0 65 62" fill="none" xmlns="http://www.w3.org/2000/svg">
<g opacity="0.9">
<path d="M32.2247 0.0178223C15.7634 0.0178234 16.7914 6.85367 16.7914 6.85367L16.8097 13.9355H32.5183V16.0619H10.5703C10.5703 16.0619 0.0366974 14.9179 0.0366974 30.8231C0.0366962 46.7282 9.23066 46.1642 9.23066 46.1642H14.7177V38.7836C14.7177 38.7836 14.4219 29.9796 23.7648 29.9796H39.345C39.345 29.9796 48.0985 30.1151 48.0985 21.8785V8.2595C48.0985 8.2595 49.4276 0.0178223 32.2247 0.0178223ZM23.563 4.78007C25.1258 4.78007 26.389 5.98969 26.389 7.4863C26.389 8.9829 25.1258 10.1925 23.563 10.1925C22.0001 10.1925 20.7369 8.9829 20.7369 7.4863C20.7369 5.98969 22.0001 4.78007 23.563 4.78007Z" fill="url(#paint0_linear_1144_1720)"/>
<path d="M32.6922 61.7875C49.1535 61.7875 48.1256 54.9517 48.1256 54.9517L48.1072 47.8698H32.3986V45.7435H54.3467C54.3467 45.7435 64.8803 46.8874 64.8803 30.9823C64.8803 15.0771 55.6863 15.6411 55.6863 15.6411H50.1993V23.0218C50.1993 23.0218 50.495 31.8258 41.1521 31.8258H25.5719C25.5719 31.8258 16.8184 31.6903 16.8184 39.9269V53.5458C16.8184 53.5458 15.4894 61.7875 32.6922 61.7875ZM41.354 57.0253C39.7911 57.0253 38.5279 55.8157 38.5279 54.3191C38.5279 52.8225 39.7911 51.6128 41.354 51.6128C42.9169 51.6128 44.1801 52.8225 44.1801 54.3191C44.1801 55.8157 42.9169 57.0253 41.354 57.0253Z" fill="url(#paint1_linear_1144_1720)"/>
</g>
<defs>
<linearGradient id="paint0_linear_1144_1720" x1="6.26829" y1="5.57386" x2="37.024" y2="37.3713" gradientUnits="userSpaceOnUse">
<stop stop-color="#387EB8"/>
<stop offset="1" stop-color="#366994"/>
</linearGradient>
<linearGradient id="paint1_linear_1144_1720" x1="25.9922" y1="25.1357" x2="59.0867" y2="57.8066" gradientUnits="userSpaceOnUse">
<stop stop-color="#FFE052"/>
<stop offset="1" stop-color="#FFC331"/>
</linearGradient>
</defs>
</svg>
