<svg width="96" height="69" viewBox="0 0 96 69" fill="none" xmlns="http://www.w3.org/2000/svg">
<g opacity="0.9">
<path d="M11.248 54.3725C10.6376 53.8189 9.76567 53.5566 8.66122 53.5566H2.23797V64.3962H3.51681V59.7923H8.31245C9.50409 59.7923 10.4342 59.53 11.1317 58.9764C11.8293 58.4228 12.178 57.6652 12.178 56.7036C12.178 55.6838 11.8583 54.9262 11.248 54.3725V54.3725ZM8.05087 58.9473H3.54587V54.4308H8.25432C9.99819 54.4308 10.8411 55.2175 10.8411 56.7036C10.8411 58.1897 9.91099 58.9473 8.0218 58.9473H8.05087Z" fill="#221F20"/>
<path d="M19.851 58.1314C19.0663 57.4029 17.8747 57.0532 16.3342 57.0532C14.7938 57.0532 13.7475 57.432 12.9337 58.1896C12.2071 58.8598 11.8583 59.734 11.8583 60.8995C11.8583 62.065 12.2361 62.9101 12.9918 63.6094C13.4278 63.9882 13.8928 64.2796 14.416 64.4253C14.9682 64.571 15.6076 64.6584 16.3342 64.6584C17.8747 64.6584 19.0372 64.3087 19.851 63.5802C20.5777 62.9101 20.9264 62.0359 20.9264 60.8704C20.9264 59.7048 20.5777 58.8307 19.851 58.1605V58.1314ZM19.6185 62.1233C19.5023 62.473 19.2698 62.7935 19.0082 63.0558C18.4269 63.6385 17.5259 63.9008 16.3342 63.9008C15.2589 63.9008 14.445 63.6385 13.8638 63.0849C13.2825 62.5313 13.0209 61.8028 13.0209 60.8704C13.0209 60.4042 13.1081 59.9671 13.2534 59.5883C13.3987 59.2095 13.6312 58.8889 13.9219 58.6558C14.5032 58.1022 15.346 57.84 16.3924 57.84C18.7175 57.84 19.8801 58.8598 19.8801 60.8704C19.851 61.3366 19.7638 61.7737 19.6476 62.1233H19.6185Z" fill="#221F20"/>
<path d="M29.6167 62.4438C29.6167 63.9298 28.3088 64.6 25.7221 64.6C24.9083 64.6 24.2398 64.5709 23.7166 64.4543C23.1644 64.3378 22.6994 64.1921 22.4087 63.959C22.1471 63.755 21.9437 63.5219 21.7984 63.2596C21.653 62.9974 21.5368 62.5895 21.4787 62.1815H22.6703C22.6703 62.7643 22.8737 63.2014 23.2807 63.4636C23.7457 63.7841 24.5595 63.959 25.7221 63.959C27.5241 63.959 28.4541 63.4927 28.4541 62.5895C28.4541 62.0358 28.1344 61.6862 27.5241 61.5113C27.4078 61.4822 26.6812 61.3656 25.3152 61.1908C23.9491 61.0451 23.1063 60.8703 22.8156 60.7246C22.089 60.4623 21.7402 59.9087 21.7402 59.1802C21.7402 58.4518 22.0599 57.8982 22.6994 57.5485C23.0191 57.4028 23.3969 57.2862 23.891 57.1988C24.356 57.1114 24.9373 57.0823 25.5477 57.0823C28.0472 57.0823 29.297 57.869 29.297 59.4425H28.1344C28.1344 58.3061 27.2334 57.7816 25.5186 57.7816C24.6176 57.7816 23.9782 57.8982 23.5132 58.1313C23.0772 58.3644 22.8447 58.714 22.8447 59.1802C22.8447 59.6173 23.1644 59.9087 23.7457 60.1127C24.0945 60.2292 24.9083 60.3458 26.129 60.4623C27.2625 60.5789 28.0182 60.6954 28.4541 60.8994C29.2389 61.1617 29.6167 61.7153 29.6167 62.4438Z" fill="#221F20"/>
<path d="M34.3833 64.4253C34.1798 64.4544 34.0345 64.4544 33.8892 64.5127C33.7439 64.5127 33.6567 64.5418 33.5695 64.5418C32.7847 64.5418 32.2035 64.4253 31.8837 64.1921C31.535 63.959 31.3315 63.5802 31.3315 62.9975V58.0439H29.9074V57.3155H31.3315V54.9844H32.465V57.3155H34.3833V58.0439H32.465V62.8518C32.465 63.2014 32.5522 63.4637 32.7266 63.5802C32.9301 63.7259 33.2788 63.7842 33.7439 63.7842H33.9764C33.9764 63.7842 34.1798 63.7551 34.3542 63.6968V64.4253H34.3833Z" fill="#221F20"/>
<path d="M43.9455 57.2863H42.812V58.481C42.3179 57.9857 41.9691 57.6651 41.7657 57.5486C41.1553 57.1989 40.3415 57.0532 39.3824 57.0532C37.9582 57.0532 36.8247 57.3737 36.0981 58.0148C35.3715 58.6267 35.0227 59.5009 35.0227 60.6373C35.0227 61.22 35.1099 61.7154 35.2843 62.1525C35.4877 62.5895 35.7493 62.9683 36.0981 63.2889C36.8828 63.9008 37.9001 64.2504 39.2952 64.2504C40.9519 64.2504 42.1435 63.7842 42.8411 62.8809V64.163C42.8411 64.9789 42.5795 65.5908 42.0563 66.0279C41.5332 66.465 40.6903 66.6981 39.5568 66.6981C38.4814 66.6981 37.6966 66.5524 37.2316 66.2319C36.8828 65.9987 36.6503 65.6199 36.505 65.0372H35.3715C35.4877 65.8531 35.8365 66.4067 36.3887 66.7855C36.9991 67.2226 38.0745 67.3974 39.5858 67.3974C42.4923 67.3974 43.9164 66.3193 43.9164 64.1922V57.2863H43.9455ZM42.0272 62.7935C41.7075 63.0266 41.3588 63.2306 40.9809 63.3763C40.6031 63.4928 40.1671 63.5802 39.673 63.5802C37.3479 63.5802 36.1853 62.6187 36.1853 60.7247C36.1853 59.8214 36.505 59.1512 37.0863 58.6267C37.6676 58.1022 38.5104 57.8982 39.5858 57.8982C40.6612 57.8982 41.475 58.1605 42.0563 58.685C42.6085 59.1803 42.8992 59.8797 42.8992 60.7247C42.8701 61.5697 42.5795 62.2982 41.9982 62.8226L42.0272 62.7935Z" fill="#221F20"/>
<path d="M49.9328 58.0147C49.584 57.9856 49.2643 57.9273 49.0027 57.9273C47.2007 57.9273 46.2997 58.9471 46.2997 60.8994V64.396H45.2243V57.3154H46.3579V58.5975H46.3869C46.5904 58.1021 46.852 57.6942 47.2879 57.4611C47.7239 57.228 48.3633 57.0823 49.2643 57.0823H50.049V58.0147H49.9619H49.9328Z" fill="#221F20"/>
<path d="M57.7802 58.2188C57.4024 57.84 56.9373 57.5487 56.356 57.3738C55.7748 57.199 55.1063 57.1116 54.3506 57.1116C52.9264 57.1116 51.7929 57.4612 51.0372 58.1314C50.2816 58.8016 49.8456 59.7049 49.8456 60.8413C49.8456 61.9777 50.2234 62.881 50.9791 63.5803C51.7929 64.3088 52.9555 64.7167 54.4669 64.7167C55.0481 64.7167 55.6294 64.6293 56.1235 64.5128C56.6176 64.3962 57.0827 64.1922 57.4314 63.93C58.0999 63.4638 58.5068 62.8519 58.7103 62.1525H57.5186C57.0827 63.3472 56.0945 63.9591 54.4669 63.9591C53.3043 63.9591 52.4323 63.6386 51.7929 63.0558C51.2407 62.5605 50.9791 61.8903 50.9791 61.0744H58.8556C58.8556 59.8215 58.5068 58.8599 57.8093 58.2188H57.7802ZM50.9791 60.3751C51.1244 59.5592 51.4441 58.9473 51.9092 58.5102C52.2289 58.248 52.5777 58.044 52.9846 57.9274C53.3624 57.8109 53.8274 57.7235 54.3506 57.7235C55.3097 57.7235 56.1235 57.9857 56.7339 58.5394C57.3442 59.093 57.6639 59.7049 57.6639 60.3459H50.9791V60.3751Z" fill="#221F20"/>
<path d="M70.5104 61.5114C70.5104 63.6094 68.8247 64.6875 65.4242 64.6875C63.3896 64.6875 61.9074 64.3378 60.9773 63.6094C60.1926 63.0266 59.8147 62.0942 59.8147 60.8995H61.1807C61.1807 62.8809 62.5758 63.8425 65.3951 63.8425C66.7611 63.8425 67.7203 63.6385 68.3306 63.2306C68.8247 62.8809 69.1154 62.2981 69.1154 61.5697C69.1154 60.8412 68.7666 60.2876 68.069 59.9962C67.6912 59.8505 66.703 59.6465 65.1626 59.3843C63.2443 59.0638 61.9946 58.8015 61.4133 58.481C60.5995 58.0439 60.1635 57.3155 60.1635 56.2665C60.1635 55.3049 60.5123 54.5764 61.2098 54.1102C61.9946 53.6149 63.2443 53.3235 65.1045 53.3235C68.4178 53.3235 70.0745 54.4599 70.0745 56.6453H68.6794C68.6794 54.9844 67.4296 54.1685 64.9591 54.1685C63.7094 54.1685 62.8374 54.3142 62.2561 54.6639C61.7039 55.0135 61.4423 55.5672 61.4423 56.2082C61.4423 56.9367 61.7911 57.4612 62.4886 57.7234C62.8665 57.8691 63.9709 58.1605 65.7729 58.4227C67.4587 58.685 68.6213 58.9764 69.2025 59.326C70.0454 59.7631 70.4814 60.4916 70.4814 61.5406L70.5104 61.5114Z" fill="#397AA6"/>
<path d="M72.2834 30.5372C72.0799 29.7796 71.3243 28.2935 68.4178 28.818C67.139 29.022 66.1798 29.1385 65.4242 29.1385C70.772 21.1837 74.0854 10.5773 70.6558 6.93498C64.2616 -0.262231 53.7693 1.45694 50.6594 2.41851C49.3806 2.21454 47.9855 2.09799 46.5904 1.98143H46.4741C43.8002 1.98143 41.446 2.50593 39.5277 3.49664C36.5341 2.65162 27.4369 0.378816 22.089 4.45821C19.2116 6.70187 17.8165 10.2568 18.1362 14.9772C18.2525 16.4924 21.6821 34.6166 28.5123 37.1808C29.5877 37.6178 31.5059 37.9384 33.6567 36.3357C34.4124 37.1808 35.5749 37.6178 36.6503 37.8509C39.5277 38.3754 41.6785 38.0549 43.3933 37.4139V39.337C43.5095 41.5807 43.5967 43.7369 44.3524 45.2521C44.3524 45.3687 44.4687 45.4561 44.4687 45.5727C44.9046 46.6508 46.1835 49.856 50.456 49.856C50.9791 49.856 51.5313 49.856 52.1708 49.7395C57.5186 48.8944 60.7448 46.4177 60.9482 36.8602V36.4232H61.5877C63.6222 36.5397 66.1798 36.2192 67.6912 35.5781C69.0863 35.0536 73.0391 33.2179 72.2834 30.5372V30.5372Z" fill="#221F20"/>
<path d="M47.5786 11.335H34.4124V23.2526H47.5786V11.335Z" fill="white"/>
<path d="M65.337 10.7812H52.1708V22.6989H65.337V10.7812Z" fill="white"/>
<path d="M82.3106 63.2888C83.0082 62.7934 83.5604 62.1524 83.8801 61.4822C84.1998 60.812 84.3742 59.9378 84.3742 59.0054C84.3742 57.3445 83.822 55.975 82.7175 54.9843C82.1362 54.4307 81.4096 54.0227 80.5668 53.7313C79.7239 53.4691 78.7648 53.3525 77.6603 53.3525C75.5677 53.3525 73.911 53.8479 72.7194 54.8969C71.5277 55.9167 70.9464 57.2862 70.9464 59.0346C70.9464 60.7829 71.5568 62.0941 72.7484 63.1431C73.9401 64.1921 75.5967 64.6874 77.6894 64.6874C78.5032 64.6874 79.2298 64.6583 79.8111 64.5417C80.4214 64.4252 80.9446 64.2795 81.3515 64.0464L83.357 65.445L84.1998 64.6583L82.2816 63.2888H82.3106ZM81.584 62.5603C81.0899 62.9974 80.5086 63.2888 79.8402 63.4927C79.1717 63.6967 78.4741 63.8133 77.6894 63.8133C76.0618 63.8133 74.7539 63.3762 73.7366 62.502C72.7194 61.5987 72.2253 60.4623 72.2253 58.9763C72.2253 57.4902 72.7194 56.2664 73.7366 55.4214C74.7539 54.5764 76.0618 54.1393 77.6894 54.1393C79.317 54.1393 80.654 54.5764 81.584 55.4505C82.0781 55.8876 82.485 56.3829 82.7175 56.9657C82.9501 57.5485 83.0663 58.2187 83.0663 58.9471C83.0954 60.5206 82.6013 61.7444 81.584 62.5894V62.5603Z" fill="#397AA6"/>
<path d="M94.6049 64.4251H85.3043V53.5856L86.554 53.5273V63.4927H94.634L94.6049 64.4251Z" fill="#397AA6"/>
<path d="M58.7975 36.6562C59.1172 34.092 59.0009 33.7715 61.2679 34.1794H61.7911C63.5059 34.296 65.7439 33.9754 67.0227 33.4218C69.8129 32.3437 71.5277 30.4205 68.7375 30.945C62.3143 32.0232 61.8783 30.1874 61.8783 30.1874C68.6213 21.7081 71.4114 10.8686 69.0572 8.3044C62.5177 1.01977 51.0663 4.42898 50.8629 4.54553H50.7466C49.4678 4.34156 48.0727 4.22501 46.4741 4.10845C43.5967 4.10845 41.446 4.7495 39.7312 5.82763C39.7312 5.82763 19.2988 -1.36959 20.2579 14.8314C20.4614 18.2698 26.0418 40.9104 32.7847 34.0337C35.2552 31.5569 37.6094 29.4298 37.6094 29.4298C38.8011 30.0709 40.1671 30.3914 41.6785 30.2748L41.7947 30.1583V31.1199C40.0799 32.7225 40.6031 33.043 37.0863 33.684C33.5404 34.3251 35.6912 35.4032 36.97 35.6072C38.5686 35.9277 42.3179 36.4522 44.9046 33.4509L44.7884 33.7715C45.4278 34.2085 45.4278 37.0933 45.5441 39.133C45.6603 41.1726 45.7475 43.0958 46.2997 44.1739C46.8229 45.252 47.3751 48.1368 51.8801 47.3792C55.7457 46.7381 58.6231 45.66 58.8265 36.5396" fill="#397AA6"/>
<path d="M71.0045 30.8577C70.6848 29.7796 69.1735 30.1001 68.7666 30.2167C65.0173 30.8577 63.535 30.4206 62.9827 30.1001C69.2897 21.8248 72.6031 10.9853 69.7257 7.78002C63.4187 0.903334 53.1299 3.17614 50.8919 3.70063H50.6885L50.485 3.81718C49.2934 3.61321 47.9273 3.38011 46.5322 3.38011C43.9746 3.38011 41.7075 3.9046 39.7893 4.98272C38.1907 4.45823 28.3379 1.42783 22.99 5.62377C20.5195 7.54691 19.3569 10.6647 19.5604 14.8607C19.6767 17.0169 23.1935 33.6259 28.9773 35.7821C29.297 35.8987 29.733 35.9861 30.2561 35.9861C31.099 35.9861 32.1744 35.6656 33.366 34.4709C35.2843 32.5478 36.9991 30.8286 37.6385 30.275C38.5976 30.7994 39.7893 31.0326 40.8356 31.12C40.6322 31.3239 40.5159 31.4405 40.3996 31.6445C39.644 32.4021 39.4405 32.606 36.97 33.1597C36.2144 33.2762 34.4124 33.5967 34.4124 34.7623C34.4124 36.0444 36.7666 36.4815 36.8828 36.4815C37.7257 36.6854 38.5976 36.802 39.4405 36.802C41.475 36.802 43.0736 36.2775 44.4687 35.0828C44.3524 38.8417 44.5849 43.5621 45.2243 44.9608C45.7475 46.1554 47.0554 48.5157 50.5722 48.5157C51.0954 48.5157 51.7639 48.3991 52.4033 48.3117C56.2689 47.6706 58.0708 46.1554 58.8265 42.8336C59.1462 41.1145 59.7857 36.8311 60.1054 34.5583C60.7448 34.7623 61.6167 34.8788 62.4596 34.8788C64.2906 34.8788 66.3252 34.5583 67.4877 34.0338C67.604 33.9173 71.4405 32.4312 71.0336 30.8286L71.0045 30.8577ZM61.5877 15.6183C61.5877 16.2593 61.4714 16.813 61.3842 17.454C61.2679 18.0951 61.1807 18.7361 61.0645 19.6103C61.0645 20.4553 61.1807 21.3294 61.2679 22.1744C61.4714 23.8936 61.7039 25.6128 60.7448 27.332C60.6285 27.128 60.4251 26.8949 60.3088 26.5744C60.1926 26.3704 59.9891 26.0499 59.6694 25.4962C58.4778 23.6605 55.1644 18.7361 56.4723 16.6964C57.1117 15.7348 58.8265 15.2978 61.6167 15.6183H61.5877ZM68.6503 8.74159C70.5686 10.8978 68.3306 20.5427 62.0236 28.9054L61.7039 28.5849C63.3025 26.3413 62.9827 24.0684 62.663 22.1453C62.5468 21.3003 62.4596 20.5427 62.4596 19.9016C62.4596 19.144 62.5758 18.503 62.7793 17.9785C62.8956 17.2209 63.099 16.3759 62.9827 15.4143C62.9827 15.2978 63.099 15.2103 62.9827 14.9772C62.8665 13.8991 60.3088 7.69261 53.1299 4.89531C56.8792 4.05029 63.9419 3.70063 68.6503 8.77073V8.74159ZM32.2616 33.451C31.3025 34.4126 30.4305 34.7331 29.4714 34.4126C24.9664 32.6934 21.2171 18.0076 21.0136 14.7733C20.8102 11.131 21.7693 8.45021 23.8038 6.81845C27.8728 3.70063 35.2552 5.30325 38.2489 6.06085C38.0454 6.26482 37.8129 6.38137 37.6094 6.58534C33.6567 10.5482 33.7439 16.6673 33.7439 16.9878C33.7439 17.1043 33.8601 17.1918 33.8601 17.3083V17.6288C33.9764 18.707 34.0636 20.7467 33.7439 23.2234C33.4242 25.1466 34.0636 27.0989 35.4587 28.5849L36.3015 29.4299C35.5459 30.1875 33.9473 31.6736 32.2325 33.3928L32.2616 33.451ZM35.3715 17.5706V17.25C36.1272 16.7255 39.4405 15.3269 41.5913 15.8514C42.4342 16.0554 42.9864 16.609 43.1898 17.454C44.4687 22.495 43.3933 24.6512 42.4342 26.2538C42.2307 26.6909 41.9982 27.0114 41.911 27.332C41.475 28.0896 41.1553 28.8472 40.9519 29.4882C39.2371 29.4882 37.5223 28.7306 36.4469 27.5651C35.3715 26.3704 34.9355 24.8843 35.168 23.3691C35.604 20.8924 35.4877 18.6487 35.3715 17.5706V17.5706ZM37.0863 34.9663C36.7666 34.9663 36.4469 34.8497 36.2434 34.7623C36.4469 34.6457 36.7666 34.6457 37.2025 34.5583C40.0799 34.0338 40.5159 33.7133 41.475 32.6352C41.6785 32.4312 41.911 32.1107 42.3179 31.7902C42.8411 31.3531 43.1608 31.3531 43.5967 31.4696H43.713C44.149 31.6736 44.4687 31.9941 44.5559 32.4312C44.6721 32.6352 44.5559 32.9557 44.4396 33.0722C42.7248 34.9954 40.2543 35.6364 37.0572 34.9954L37.0863 34.9663ZM58.7103 33.1305C58.594 34.4126 57.7511 40.4152 57.3152 42.4548C56.792 44.8151 55.8038 46.2137 52.0836 46.8548C48.1308 47.6124 47.0554 45.4561 46.416 44.2906C45.98 43.329 45.5731 38.696 45.8928 32.606C45.8928 32.4895 45.8928 32.4021 45.7766 32.2855V31.965C45.5731 31.12 44.8174 30.3624 44.0618 30.0418H43.8583C43.5386 29.9253 43.1026 29.8379 42.4632 30.0418C42.6667 29.5174 42.8992 28.7597 43.3061 28.1187C43.4223 27.7982 43.6258 27.4777 43.8292 27.1571C44.7884 25.3214 46.0672 22.8738 44.6721 17.2792C44.149 15.1229 42.3179 14.0739 39.4405 14.4819C38.3651 14.5984 36.5631 15.1229 35.3715 15.764C35.5749 13.8408 36.2144 10.2859 38.6848 7.80916C40.6031 5.88602 43.1898 4.92445 46.5032 5.01186C56.2398 5.21583 60.4251 11.8886 61.5005 14.2488C58.3034 13.9282 56.2689 14.5693 55.2807 16.0845C53.4496 18.9692 56.8792 24.0393 58.4778 26.4869C58.7975 26.924 59.0009 27.2445 59.0009 27.332C59.5241 28.4101 60.1926 29.0511 60.7157 29.5756C60.832 29.6922 60.9192 29.7796 61.0354 30.0127C60.1926 30.2167 58.7975 30.7703 58.7975 33.014C58.7975 32.8974 58.6812 33.014 58.6812 33.1305H58.7103ZM66.8483 32.6934C64.6976 33.5385 60.861 33.5385 60.2216 33.1305C60.1054 31.6153 60.7448 31.5279 61.5005 31.2948C61.6167 31.2948 61.8202 31.1782 61.9364 31.1782C62.7793 31.8193 64.6104 32.2564 68.8828 31.6153C68.4469 31.9358 67.8075 32.3729 66.8483 32.6934Z" fill="white"/>
<path d="M40.9228 17.9785H41.1262C41.5622 17.9785 41.9691 17.7745 42.2016 17.5414C42.3179 17.4248 42.5213 17.2209 42.5213 17.0169C42.5213 16.4924 41.7657 16.2593 41.01 16.1719C39.9346 16.1719 39.4986 16.3758 39.4986 16.6964C39.4986 17.3374 40.0218 17.9785 40.8937 17.9785H40.9228ZM41.0391 16.7838C41.5622 16.9003 41.8819 16.9878 41.9982 17.1043C41.8819 17.2209 41.475 17.5414 41.0391 17.4248C40.5159 17.4248 40.2834 17.1043 40.1962 16.9003C40.1962 16.9003 40.5159 16.7838 41.0391 16.7838V16.7838Z" fill="white"/>
<path d="M58.594 15.9387C57.9546 16.0553 57.1989 16.2592 57.1989 16.6963C57.1989 16.9003 57.4024 17.1334 57.5186 17.2208C57.7221 17.4248 58.158 17.6579 58.594 17.6579H58.7975C59.6403 17.6579 60.3088 16.9003 60.3088 16.4632C60.1054 16.0261 59.6694 15.9387 58.594 15.9387ZM58.7103 17.1334C58.2743 17.25 57.8674 16.9294 57.7511 16.8129C57.8674 16.6963 58.0708 16.6089 58.594 16.4924C59.1172 16.4924 59.4369 16.6089 59.5531 16.6089C59.4369 16.7255 59.2334 17.1334 58.7103 17.1334V17.1334Z" fill="white"/>
</g>
</svg>
