<svg width="99" height="54" viewBox="0 0 99 54" fill="none" xmlns="http://www.w3.org/2000/svg">
<g opacity="0.9" clip-path="url(#clip0_1144_1493)">
<path d="M0.31665 36.0356H7.08554C10.2919 36.0356 12.469 37.7151 12.469 40.9466C12.469 43.5828 10.7867 45.1773 9.16371 45.73C9.65851 46.1765 10.0148 46.7718 10.3117 47.4096C10.9846 48.8978 11.4596 50.556 12.8846 50.556C13.2409 50.556 13.5378 50.4285 13.5378 50.4285L13.2211 53.5324C13.2211 53.5324 12.3502 53.7663 11.5981 53.7663C9.65851 53.7663 8.53036 52.9584 7.38242 50.1521C6.88762 48.8978 6.21469 46.708 5.30425 46.708H4.37403V53.6812H0.31665V36.0356ZM4.37403 39.2033V43.5403H5.83864C7.00637 43.5403 8.37203 43.1576 8.37203 41.2655C8.37203 39.7135 7.4418 39.2033 6.33344 39.2033H4.37403V39.2033ZM17.9712 36.0356H22.0879L27.6297 53.6812H23.513L22.4838 50.3434H17.0014L16.0118 53.6812H12.4492L17.9712 36.0356ZM17.9712 47.0907H21.4942L20.366 43.3702C19.9702 42.1159 19.8119 40.33 19.8119 40.33H19.7129C19.7129 40.33 19.4754 42.1371 19.0993 43.3277L17.9712 47.0907ZM27.8079 53.6812H31.1527V45.1985C31.1527 44.2419 31.034 43.0513 30.9548 42.0521H31.0538C31.3902 42.9875 31.8256 44.1356 32.2413 44.9222L36.7143 53.66H40.9696V36.0143H37.6247V44.497C37.6247 45.5174 37.7435 46.9206 37.8029 47.9198H37.7039C37.308 46.8781 36.833 45.5387 36.457 44.7734L32.1423 36.0143H27.7881V53.6812H27.8079ZM41.8404 44.7308C41.8404 51.1726 44.7103 53.9789 49.1635 53.9789C53.5376 53.9789 55.9522 51.3426 55.6949 47.7497L52.1323 47.3671C52.4292 49.6631 51.0635 50.7899 49.3812 50.7899C47.5999 50.7899 46.0364 49.5568 46.0364 44.7521C46.0364 40.2025 47.4812 38.7993 49.2427 38.7993C51.0833 38.7993 52.1125 39.9261 51.6969 42.7324L55.497 42.371C56.0314 38.5442 54.1115 35.7379 49.3218 35.7379C44.7895 35.7167 41.8404 38.3529 41.8404 44.7308ZM56.5262 53.6812H60.5835V46.1978H65.5711V53.6812H69.6285V36.0356H65.5711V42.7111H60.5835V36.0356H56.5262V53.6812ZM71.2713 53.6812H82.3944V50.4285H75.3286V46.3041H81.0485V43.0513H75.3286V39.2671H82.1371V36.0143H71.2515V53.6812H71.2713ZM83.1861 36.0356H89.955C93.1613 36.0356 95.3384 37.7151 95.3384 40.9466C95.3384 43.5828 93.6561 45.1773 92.0332 45.73C92.528 46.1765 92.8842 46.7718 93.1811 47.4096C93.854 48.8978 94.329 50.556 95.7541 50.556C96.1103 50.556 96.4072 50.4285 96.4072 50.4285L96.0905 53.5324C96.0905 53.5324 95.2197 53.7663 94.4676 53.7663C92.528 53.7663 91.3998 52.9584 90.2519 50.1521C89.7571 48.8978 89.0841 46.708 88.1737 46.708H87.2435V53.6812H83.1861V36.0356ZM87.2435 39.2033V43.5403H88.7081C89.8758 43.5403 91.2415 43.1576 91.2415 41.2655C91.2415 39.7135 90.3112 39.2033 89.2029 39.2033H87.2435V39.2033Z" fill="black"/>
<path d="M77.8225 6.52677L77.1891 2.40236C76.9912 1.08425 76.4964 0 76.1204 0C75.7443 0 75.4276 1.10551 75.4276 2.44488V3.52913C75.4276 4.8685 74.3985 5.97402 73.1515 5.97402H72.1422C72.063 5.97402 72.0036 5.97402 71.9244 5.97402V8.92913C72.0036 8.92913 72.063 8.92913 72.1422 8.92913H75.9224C77.1693 8.92913 78.0204 7.84488 77.8225 6.52677Z" fill="#2453FF"/>
<path d="M68.7775 3.04018H62.6617C62.6024 3.04018 62.5628 3.04018 62.5034 3.04018H56.2095C56.1304 3.04018 56.071 3.04018 55.9918 3.06144V2.42364C55.9918 1.08427 55.6751 -0.0212402 55.2991 -0.0212402C54.923 -0.0212402 54.4282 1.06301 54.2303 2.38112L53.597 6.50553C53.399 7.82364 54.2501 8.90789 55.497 8.90789H59.2773C59.6731 8.90789 60.0294 8.84411 60.3461 8.73781C60.2273 9.43939 59.6533 9.94963 58.9804 9.94963H53.6761C52.8251 9.94963 52.1719 9.12049 52.3105 8.20632L52.8449 4.74096C52.9834 3.82679 52.3303 2.99766 51.4792 2.99766H25.136C24.5818 2.99766 24.087 3.35908 23.8693 3.86931L18.9212 12.0331C18.8421 12.1606 18.8421 12.352 18.941 12.4795L19.9108 13.6914C20.0296 13.8402 20.2473 13.8614 20.3859 13.7339L23.7505 10.8851V28.2331C23.7505 29.0622 24.3641 29.7213 25.136 29.7213H32.6174C33.3893 29.7213 34.0028 29.0622 34.0028 28.2331V22.1953C34.0028 21.3662 34.6164 20.7071 35.3883 20.7071H54.072C54.8439 20.7071 55.4574 21.3662 55.4574 22.1953V28.2331C55.4574 29.0622 56.071 29.7213 56.8429 29.7213H64.3243C65.0962 29.7213 65.7097 29.0622 65.7097 28.2331V21.7488H61.7315C60.4846 21.7488 59.4554 20.6433 59.4554 19.304V15.137C59.4554 14.3504 59.8117 13.6276 60.3659 13.1811V18.1559C60.3659 19.4953 61.3951 20.6008 62.642 20.6008H68.7577C70.0046 20.6008 71.0338 19.4953 71.0338 18.1559V5.48506C71.0338 4.14569 70.0244 3.04018 68.7775 3.04018Z" fill="#2453FF"/>
<path d="M96.4666 36.9071C96.4666 36.078 97.0406 35.7166 97.575 35.7166C98.1094 35.7166 98.6833 36.078 98.6833 36.9071C98.6833 37.715 98.1094 38.0764 97.575 38.0764C97.0406 38.0764 96.4666 37.715 96.4666 36.9071ZM98.426 36.9071C98.426 36.2481 98.0302 35.9717 97.5948 35.9717C97.1593 35.9717 96.7437 36.2481 96.7437 36.9071C96.7437 37.5449 97.1593 37.8425 97.5948 37.8425C98.0302 37.8425 98.426 37.5449 98.426 36.9071ZM97.2187 36.3118H97.6146C97.8125 36.3118 98.0104 36.3756 98.0104 36.6732C98.0104 36.8433 97.8916 36.9496 97.7531 36.9921L98.0104 37.4811H97.7729L97.5354 37.0134H97.4364V37.4811H97.2187V36.3118ZM97.6146 36.8433C97.7135 36.8433 97.7927 36.7795 97.7927 36.6732C97.7927 36.5457 97.6937 36.5244 97.6146 36.5244H97.4166V36.8433H97.6146Z" fill="black"/>
</g>
<defs>
<clipPath id="clip0_1144_1493">
<rect width="99" height="54" fill="white"/>
</clipPath>
</defs>
</svg>
