<svg width="53" height="71" viewBox="0 0 53 71" fill="none" xmlns="http://www.w3.org/2000/svg">
<g opacity="0.9">
<path d="M50.0357 36.6143C47.2361 38.1145 32.9049 44.4723 29.9053 46.1868C26.9057 47.9012 25.1727 47.9012 22.773 46.6154C20.3733 45.401 5.10888 38.7574 2.37594 37.4001C0.976145 36.6857 0.24292 36.1142 0.24292 35.5427V29.8993C0.24292 29.8993 20.1067 25.2559 23.3063 24.0415C26.5058 22.8271 27.639 22.7556 30.3719 23.8272C33.1048 24.8987 49.4358 28.0419 52.1021 29.1135V34.6855C52.1021 35.1856 51.4355 35.8285 50.0357 36.6143Z" fill="#9C2323"/>
<path d="M50.0368 31.0426C47.2372 32.5428 32.9059 38.9006 29.9064 40.6151C26.8401 42.3295 25.1737 42.3295 22.7741 41.0437C20.3744 39.7578 5.10994 33.1857 2.377 31.8284C-0.355938 30.4711 -0.422593 29.471 2.24369 28.328L23.3073 19.6128C26.5069 18.3983 27.64 18.3269 30.373 19.3984C33.1059 20.47 47.3039 26.5421 50.0368 27.6136C52.7031 28.6852 52.8364 29.471 50.0368 31.0426Z" fill="#CC3023"/>
<path d="M50.0357 27.4707C47.2361 28.9709 32.9049 35.3287 29.9053 37.0432C26.9057 38.7577 25.1727 38.7577 22.773 37.4718C20.3734 36.186 5.10888 29.6138 2.37594 28.2565C0.976145 27.5422 0.24292 26.9707 0.24292 26.3992V20.7557C0.24292 20.7557 20.1067 16.1123 23.3063 14.8979C26.5058 13.6835 27.639 13.6121 30.3719 14.6836C33.1048 15.7552 49.4358 18.8984 52.1021 19.9699V25.542C52.1021 26.042 51.4355 26.6849 50.0357 27.4707Z" fill="#9C2323"/>
<path d="M50.0368 21.827C47.2372 23.3272 32.9059 29.685 29.9064 31.3995C26.8401 33.114 25.1737 33.114 22.7741 31.8281C20.3744 30.5423 5.10994 23.9701 2.377 22.6128C-0.355938 21.2555 -0.422593 20.2554 2.24369 19.1124L23.3073 10.3972C26.5069 9.18276 27.64 9.11133 30.373 10.1829C33.1059 11.2544 47.3039 17.3265 50.0368 18.3981C52.7697 19.4696 52.8364 20.3268 50.0368 21.827Z" fill="#CC3023"/>
<path d="M50.0357 17.9694C47.2361 19.4696 32.9049 25.8274 29.9053 27.5419C26.9057 29.2564 25.1727 29.2564 22.773 27.9705C20.3733 26.6847 5.10888 20.1125 2.37594 18.6838C0.976145 17.9694 0.24292 17.3979 0.24292 16.8264V11.183C0.24292 11.183 20.1067 6.53958 23.3063 5.32516C26.5058 4.11074 27.639 4.03931 30.3719 5.11085C33.1048 6.1824 49.4358 9.3256 52.1021 10.3971V15.9692C52.1021 16.5407 51.4355 17.1836 50.0357 17.9694Z" fill="#9C2323"/>
<path d="M50.0369 12.3976C47.2374 13.8977 32.9061 20.2556 29.9065 21.9701C26.8403 23.6845 25.1739 23.6845 22.7742 22.3987C20.3746 21.1128 5.11009 14.5407 2.37715 13.1834C-0.355786 11.8261 -0.422441 10.826 2.24384 9.68298L23.3075 0.967742C26.507 -0.246678 27.6402 -0.318116 30.3731 0.75343C33.1061 1.82498 47.304 7.89707 50.0369 8.96862C52.7032 9.96873 52.8365 10.826 50.0369 12.3976Z" fill="#CC3023"/>
<path d="M25.8363 7.18169L20.637 6.68164L24.5031 5.18148L23.37 2.89551L26.9694 4.39568L30.3689 3.18126L29.4357 5.53866L32.9019 6.89595L28.4359 7.39601L27.436 9.96772L25.8363 7.18169ZM18.8373 15.8255L30.8355 13.8253L27.2361 19.5402L18.8373 15.8255Z" fill="white"/>
<path d="M15.5718 13.7548C19.1059 13.7548 21.9709 12.5713 21.9709 11.1113C21.9709 9.65132 19.1059 8.46777 15.5718 8.46777C12.0377 8.46777 9.17276 9.65132 9.17276 11.1113C9.17276 12.5713 12.0377 13.7548 15.5718 13.7548Z" fill="white"/>
<path d="M45.3695 10.6839L38.2372 13.6846V7.68311L45.3695 10.6839Z" fill="#75161B"/>
<path d="M38.3061 7.68311V13.6846L37.5728 14.0418L30.4405 11.0411C30.4405 11.0411 38.3061 7.68311 38.3061 7.68311Z" fill="#A42524"/>
<path d="M9.84 59.9683C9.84 60.6237 9.27378 61.2382 8.48978 61.2382C7.92356 61.2382 7.40089 61.3611 6.96534 61.6888C6.48623 61.9755 6.09422 62.3852 5.78933 62.8358C5.17955 63.6141 4.87467 64.5153 4.744 64.884V69.4719C4.744 70.1683 4.09067 70.7418 3.35022 70.7418C2.60978 70.7418 2 70.1683 2 69.4719V59.9273C2 59.231 2.60978 58.6575 3.35022 58.6575C4.09067 58.6575 4.744 59.19 4.744 59.9273V60.0912C4.87467 59.9273 5.09244 59.7225 5.26667 59.5996C6.09422 59.0671 7.22667 58.6165 8.53333 58.6575C9.23022 58.6984 9.84 59.231 9.84 59.9683ZM9.056 64.7201C9.056 61.443 11.8 58.6575 15.328 58.6575C18.856 58.6575 21.3387 60.9924 21.5129 64.2695V64.3924C21.5129 64.3924 21.5129 64.5563 21.5129 64.5972C21.4258 65.1707 20.9031 65.5804 20.1627 65.5804H11.9742C12.1049 66.1129 12.3662 66.7683 12.8453 67.1779C13.368 67.7514 14.4133 68.202 15.328 68.284C16.2427 68.3659 17.3751 68.1611 18.0284 67.6695C18.5511 67.137 19.64 67.2189 19.9449 67.5876C20.2933 67.9153 20.5111 68.6526 19.9449 69.1442C18.6818 70.2502 17.1573 70.7418 15.328 70.7418C11.8436 70.7418 9.09955 67.9972 9.056 64.7201ZM11.8871 63.5322H19.1609C18.8996 62.549 17.5929 61.1153 15.328 60.9514C13.1502 61.0743 12.0613 62.5081 11.8871 63.5322ZM34.6667 69.4719C34.6667 70.1683 34.0569 70.7828 33.2729 70.7828C32.576 70.7828 32.0533 70.3322 31.9227 69.7587C30.9644 70.3731 29.7013 70.7828 28.4382 70.7828C24.9538 70.7828 22.1662 68.0382 22.1662 64.7611C22.1662 61.484 24.9538 58.6984 28.4382 58.6984C29.7013 58.6984 30.9209 59.0671 31.8791 59.7225V55.1755C31.8791 54.4792 32.4889 53.8647 33.2729 53.8647C34.0569 53.8647 34.6667 54.4792 34.6667 55.1755V69.4719V69.4719ZM28.3947 61.2792C27.48 61.2792 26.6089 61.6478 25.9556 62.2623C25.3022 62.8767 24.9102 63.737 24.9102 64.7201C24.9102 65.6213 25.3022 66.5225 25.9556 67.137C26.6089 67.7514 27.4364 68.1201 28.3947 68.1201C29.3093 68.1201 30.1804 67.7514 30.8338 67.137C31.4871 66.5225 31.8791 65.6623 31.8791 64.7201C31.8791 63.737 31.4871 62.8767 30.8338 62.2623C30.1804 61.6478 29.3529 61.2792 28.3947 61.2792ZM39.5449 55.6261C39.5449 56.3635 38.9787 56.937 38.1511 56.937C37.3236 56.937 36.7573 56.3225 36.7573 55.6261V55.1346C36.7573 54.3972 37.3671 53.8237 38.1511 53.8237C38.9351 53.8237 39.5449 54.3972 39.5449 55.1346V55.6261ZM39.5449 60.0093V69.431C39.5449 70.1683 38.9787 70.7418 38.1511 70.7418C37.3671 70.7418 36.7573 70.1683 36.7573 69.431V60.0093C36.7573 59.231 37.3671 58.6984 38.1511 58.6984C38.9351 58.6984 39.5449 59.2719 39.5449 60.0093ZM41.3307 67.3008C41.8098 66.7273 42.6809 66.6454 43.2471 67.096C43.9004 67.6286 45.0764 68.202 46.0782 68.1611C46.7751 68.1611 47.4284 67.9563 47.8204 67.7105C48.1689 67.4237 48.2995 67.1779 48.2995 66.9731C48.2995 66.8502 48.2995 66.8093 48.2124 66.7273C48.2124 66.6454 48.0818 66.5635 47.864 66.4406C47.5155 66.1948 46.7315 65.949 45.8169 65.7852C45.0329 65.6623 44.2489 65.4575 43.5956 65.1707C42.8987 64.843 42.2889 64.4334 41.8098 63.7779C41.5484 63.3273 41.3742 62.7948 41.3742 62.2623C41.3742 61.1563 42.0276 60.2141 42.8987 59.5996C43.8133 59.0261 44.8587 58.6984 46.0347 58.6984C47.8204 58.6984 49.0836 59.4767 49.8676 60.0093C50.4773 60.3779 50.6515 61.1972 50.2595 61.8117C49.8675 62.3852 48.9964 62.549 48.3431 62.1394C47.5156 61.6478 46.8187 61.2382 45.9911 61.2382C45.3378 61.2382 44.7716 61.443 44.4667 61.6888C44.1182 61.8936 44.0747 62.1394 44.0747 62.2213C44.0747 62.3442 44.0747 62.3442 44.1182 62.4261C44.1182 62.4671 44.2489 62.549 44.3796 62.6719C44.728 62.8767 45.3813 63.1225 46.2524 63.2454H46.296C47.1235 63.4093 47.9511 63.6141 48.6915 63.9828C49.3884 64.2695 50.0853 64.7201 50.5209 65.4165C50.8258 65.9081 51 66.4406 51 67.0141C51 68.202 50.3031 69.1852 49.3884 69.8406C48.4738 70.4551 47.2978 70.8237 46.0347 70.8237C44.0311 70.8237 42.4631 69.9225 41.4613 69.1442C40.9387 68.6936 40.8516 67.8743 41.3307 67.3008Z" fill="#636466"/>
</g>
</svg>
