<svg width="71" height="74" viewBox="0 0 71 74" fill="none" xmlns="http://www.w3.org/2000/svg">
<g opacity="0.9">
<path fill-rule="evenodd" clip-rule="evenodd" d="M6.9433 70.6509H9.72602V66.5841H11.8603L13.9947 70.6509H17.1286L14.6161 66.1854C15.9129 65.6538 16.7504 64.4311 16.7504 63.0489C16.7504 61.0288 15.1564 59.4871 12.7519 59.4871H6.9433V70.6509ZM12.5087 61.8262C13.4273 61.8262 13.9406 62.411 13.9406 63.0755C13.9406 63.74 13.4273 64.3248 12.5087 64.3248H9.75304V61.7996H12.5087V61.8262ZM17.0205 66.4512C17.0205 68.9232 19.0738 70.837 21.6944 70.837C23.1263 70.837 24.207 70.4649 25.2877 69.5611L23.5586 68.0461C23.1533 68.4713 22.559 68.684 21.8295 68.684C20.911 68.684 20.0734 68.179 19.7222 67.355H25.828V66.717C25.828 64.0324 23.9909 62.092 21.5053 62.092C19.0738 62.0655 17.0746 63.9792 17.0205 66.3715C17.0205 66.3981 17.0205 66.4512 17.0205 66.4778V66.4512ZM21.4513 64.1919C22.2888 64.1919 22.9642 64.7235 23.2614 65.5209H19.6952C19.9654 64.6703 20.6138 64.1919 21.4783 64.1919H21.4513ZM33.3657 70.6775H35.9593V58.929L33.3387 59.4871V62.6768C32.6632 62.3047 31.9068 62.1186 31.1503 62.1186C28.6648 62.1186 26.6925 64.0058 26.6925 66.4512C26.6655 68.8169 28.5837 70.7573 30.9882 70.7838H31.0692C31.9068 70.7838 32.7173 70.518 33.3657 70.0396V70.6775V70.6775ZM29.2591 66.4512C29.2591 65.2285 30.2317 64.2982 31.5015 64.2982C32.1769 64.2982 32.8253 64.5109 33.3116 64.9627V67.9131C32.8253 68.365 32.1769 68.6042 31.5015 68.5777C30.2317 68.5777 29.2591 67.6473 29.2591 66.4512ZM39.8767 70.6775H42.6594V66.2917H47.3333V70.6775H50.1431V59.5137H47.3603V63.8198H42.6864V59.5137H39.9037V70.7041L39.8767 70.6775ZM54.1416 70.8104C55.0601 70.8104 55.8166 70.6244 56.519 70.1459V70.6509H59.1126V65.2285C59.1126 63.1818 57.7078 62.0389 55.3573 62.0389C54.0335 62.0389 52.7367 62.3313 51.3588 62.9692L52.3044 64.8564C53.304 64.4311 54.1686 64.1919 54.898 64.1919C55.9787 64.1919 56.546 64.6172 56.546 65.4412V65.8665C55.8976 65.707 55.2492 65.6272 54.6008 65.6272C52.3855 65.6272 51.0616 66.531 51.0616 68.179C51.0616 69.6675 52.2504 70.7838 54.1686 70.7838L54.1416 70.8104ZM53.331 68.1524C53.331 67.5942 53.8984 67.3284 54.7629 67.3284C55.2763 67.3284 55.8166 67.4081 56.3299 67.5144V68.6042C55.8166 68.87 55.2492 69.0029 54.6819 69.0029C53.8444 69.0029 53.331 68.684 53.331 68.1524ZM61.5171 68.0992C61.5171 69.9067 62.6248 70.7838 64.624 70.7838C65.2454 70.7838 65.8668 70.6775 66.4612 70.518V68.4182C66.0829 68.5245 65.6777 68.6042 65.2724 68.6042C64.4349 68.6042 64.1377 68.3384 64.1377 67.5942V64.3779H66.5422V62.2249H64.1377V59.4871L61.5171 60.0453V62.2249H59.788V64.3779H61.5171V68.0992V68.0992Z" fill="#040000"/>
<path fill-rule="evenodd" clip-rule="evenodd" d="M59.0316 28.5475C59.653 31.3916 59.653 31.684 59.653 32.0561C59.653 36.9204 54.0875 39.6316 46.793 39.6316C30.2858 39.6316 15.8048 30.1158 15.8048 23.8162C15.8048 22.939 15.9939 22.0619 16.3451 21.2645C10.4014 21.5569 2.70168 22.5935 2.70168 29.2918C2.70168 40.2429 29.043 53.7192 49.9269 53.7192C65.9209 53.7192 69.9463 46.5957 69.9463 40.9872C69.9463 36.5748 66.0559 31.5511 59.0586 28.5475H59.0316ZM47.5495 32.508C51.9802 32.508 58.3562 31.6043 58.3562 26.4477C58.3562 26.049 58.3562 25.6503 58.2481 25.2515L55.6275 14.008C55.0331 11.536 54.4928 10.4196 50.062 8.24005C46.6309 6.51232 39.1743 3.66821 36.9589 3.66821C34.9056 3.66821 34.3113 6.2731 31.8527 6.2731C29.3942 6.2731 27.7462 4.33272 25.5308 4.33272C23.3154 4.33272 22.0186 5.74149 20.965 8.66534C20.965 8.66534 17.9932 16.9053 17.6149 18.1014C17.5609 18.314 17.5339 18.5533 17.5339 18.7659C17.5339 21.9821 30.3668 32.4814 47.5495 32.4814" fill="#DE1815"/>
<path fill-rule="evenodd" clip-rule="evenodd" d="M59.0316 28.5475C59.653 31.3916 59.653 31.684 59.653 32.0561C59.653 36.9203 54.0875 39.6315 46.793 39.6315C30.2858 39.6315 15.8048 30.1157 15.8048 23.8161C15.8048 22.939 15.9939 22.0618 16.3451 21.2644L17.6419 18.1279C17.5879 18.3406 17.5609 18.5532 17.5609 18.7924C17.5609 22.0087 30.3938 32.508 47.5765 32.508C52.0072 32.508 58.3832 31.6042 58.3832 26.4476C58.3832 26.0489 58.3832 25.6502 58.2751 25.2515L59.0586 28.5475H59.0316Z" fill="#040000"/>
</g>
</svg>
