<svg id="레이어_1" data-name="레이어 1" xmlns="http://www.w3.org/2000/svg" viewBox="0 0 569.26 30"><defs><style>.cls-1{fill:#2a6df2;}.cls-2{fill:#fff;}.cls-3,.cls-4{fill:none;}.cls-3{stroke:#fff;stroke-linecap:round;stroke-linejoin:round;stroke-width:1.5px;}.cls-4{stroke:#000;stroke-miterlimit:10;}</style></defs><path d="M18.55,18.2c1.32-.07,2.65-.15,3.88-.32l.11,1a55.79,55.79,0,0,1-8.92.56l-.17-1.11c1.13,0,2.45,0,3.79-.05V15.76a3.32,3.32,0,0,1-3.15-3.33c0-2,1.58-3.37,3.81-3.37s3.79,1.36,3.79,3.37a3.34,3.34,0,0,1-3.14,3.33Zm-.65-3.51a2.28,2.28,0,0,0,2.51-2.26,2.31,2.31,0,0,0-2.51-2.27,2.31,2.31,0,0,0-2.53,2.27A2.29,2.29,0,0,0,17.9,14.69Zm9,.47H24.65v7.33H23.34V8.11h1.31v5.94h2.28Z"/><path d="M34.7,15.22a25.64,25.64,0,0,1-5.32.38h-.91V9H34v1.08H29.74v1.66h4.13v1H29.74v1.79a23,23,0,0,0,4.85-.38Zm4,1.63H40v5.44H30.54V16.85h1.31v1.6h6.82Zm0,2.63H31.85v1.74h6.82ZM40,8.14v8.14H38.7V12.69H36.78v3.49H35.53V8.42h1.25V11.6H38.7V8.14Z"/><path d="M59.1,19.56v1.09h-13V19.56h5.83V16.07h-4.3V9.33h9.9v6.74H53.24v3.49ZM48.89,15h7.35V10.37H48.89Z"/><path d="M62.54,17.65A34,34,0,0,0,69.31,17l.14,1.12a34.18,34.18,0,0,1-7,.67H61.22V9.52h1.32Zm9.55-9.52V22.47H70.78V8.13Z"/><path d="M76.54,18a31.85,31.85,0,0,0,6.21-.45l.14,1.08a34.68,34.68,0,0,1-6.56.45H75.22V9.42h6.65v1.09H76.54v3h4.7v1.06h-4.7ZM86.4,8.11V22.5H85.08V14.63h-3V13.54h3V8.11Z"/><path d="M97.68,15.62a40.81,40.81,0,0,1-7,.46H89.56V12h5.19V10.1H89.51V9H96v4h-5.2v2a38.67,38.67,0,0,0,6.69-.45Zm3,4.24c0,1.67-1.84,2.61-4.84,2.61S91,21.53,91,19.86s1.83-2.59,4.8-2.59S100.67,18.21,100.67,19.86Zm-1.31,0c0-1-1.32-1.55-3.53-1.55s-3.48.57-3.48,1.55,1.31,1.57,3.48,1.57S99.36,20.85,99.36,19.86Zm1.23-2.9H99.28V8.13h1.31Z"/><path d="M103.05,23.48a2.41,2.41,0,0,0,1.6-2.18.55.55,0,0,1-.18,0,1,1,0,0,1-1.07-1,1,1,0,0,1,1.1-1c.77,0,1.24.66,1.24,1.73a3.56,3.56,0,0,1-2.34,3.34Z"/><path d="M123.31,19.29V21H110V19.29h5.6V16.21h-4V8.94h10.26v1.7h-8.13v3.88h8.25v1.69h-4.21v3.08Z"/><path d="M132.43,12c0,2-1.71,3.49-4,3.49s-4-1.46-4-3.49,1.73-3.48,4-3.48S132.43,10,132.43,12Zm-6,0a1.75,1.75,0,0,0,2,1.74,1.74,1.74,0,1,0,0-3.47A1.76,1.76,0,0,0,126.47,12Zm2.28,4.48v1.38h5.6V16.5h2.1v6h-9.8v-6Zm0,4.34h5.6V19.49h-5.6Zm7.7-12.9v7.92h-2.13V7.94Z"/><path d="M145.26,9.11v3.56h3.07V9.11h2.1V19.27h-7.27V9.11Zm0,8.48h3.07V14.32h-3.07Zm9.39-9.67V22.71h-2.11V7.92Z"/><path d="M170,14.93V16.6H156.68V14.93h3V13.15A2.41,2.41,0,0,1,158,11c0-1.76,2.08-2.83,5.33-2.83s5.35,1.07,5.35,2.83A2.43,2.43,0,0,1,167,13.17v1.76ZM168.43,20c0,1.71-1.94,2.68-5.12,2.68s-5.11-1-5.11-2.68,1.92-2.68,5.11-2.68S168.43,18.29,168.43,20Zm-8.24-9c0,.8,1.15,1.22,3.15,1.22s3.17-.42,3.17-1.22-1.15-1.23-3.17-1.23S160.19,10.16,160.19,11Zm6.09,9c0-.76-1-1.08-3-1.08s-3,.32-3,1.08,1,1.08,3,1.08S166.28,20.76,166.28,20Zm-4.49-5.08h3.07V13.72c-.47,0-1,.08-1.52.08a12.36,12.36,0,0,1-1.55-.1Z"/><path d="M180.83,18.1c1.18-.08,2.35-.18,3.47-.35l.13,1.54a49.24,49.24,0,0,1-9.17.67L175,18.24c1.09,0,2.37,0,3.72,0V16h2.13Zm-5.53-3.33c2.2-.58,3.24-1.95,3.38-3.42h-2.94V9.67h3V8.06h2.13V9.67h3v1.68h-3c.15,1.4,1.22,2.73,3.38,3.29l-.93,1.6a5.23,5.23,0,0,1-3.5-2.59,5.43,5.43,0,0,1-3.54,2.74Zm11.91-6.85V22.71H185.1V7.92Z"/><path d="M191.66,17.62a24.26,24.26,0,0,0,4-.37l.16,1.72a27.51,27.51,0,0,1-5.25.39h-1V9.63H195v1.72h-3.37Zm10.15-9.7V22.68h-2V15.3h-1.32V22h-2V8.21h2V13.6h1.32V7.92Z"/><path d="M206.62,18.36a3.43,3.43,0,0,1,2-3.09v-.08a3.4,3.4,0,0,1-1.57-2.82c0-1.9,1.5-3.12,3.57-3.12s3.44,1.26,3.44,3.15a3.47,3.47,0,0,1-1.52,2.71v.08a3.44,3.44,0,0,1,2,3.17c0,1.79-1.59,3.17-4,3.17S206.62,20.21,206.62,18.36Zm5.74-.08c0-1.24-1.09-1.75-2.62-2.37a2.84,2.84,0,0,0-1.09,2.19,1.81,1.81,0,0,0,2,1.76A1.55,1.55,0,0,0,212.36,18.28Zm-.19-5.73a1.51,1.51,0,0,0-1.57-1.65,1.38,1.38,0,0,0-1.44,1.47c0,1.12.91,1.66,2.16,2.16A2.82,2.82,0,0,0,212.17,12.55Z"/><path d="M215.51,15.33c0-4.1,1.6-6.1,4-6.1s4,2,4,6.1-1.6,6.2-4,6.2S215.51,19.41,215.51,15.33Zm5.8,0c0-3.31-.77-4.27-1.78-4.27s-1.79,1-1.79,4.27.76,4.36,1.79,4.36S221.31,18.66,221.31,15.33Z"/><path d="M224.26,13c0-2.37,1.19-3.73,2.88-3.73S230,10.59,230,13s-1.2,3.78-2.9,3.78S224.26,15.35,224.26,13Zm4.12,0c0-1.74-.55-2.4-1.24-2.4s-1.21.66-1.21,2.4.53,2.45,1.21,2.45S228.38,14.71,228.38,13ZM234,9.23h1.39l-6.45,12.3h-1.38Zm-1.11,8.52c0-2.39,1.21-3.75,2.89-3.75s2.89,1.36,2.89,3.75-1.21,3.78-2.89,3.78S232.87,20.12,232.87,17.75Zm4.12,0c0-1.75-.55-2.42-1.23-2.42s-1.24.67-1.24,2.42.55,2.43,1.24,2.43S237,19.49,237,17.75Z"/><path d="M248.2,11.91a6.33,6.33,0,0,0,3.65,6l-1.15,1.66a6.66,6.66,0,0,1-3.54-3.95,7,7,0,0,1-3.57,4.32l-1.2-1.68a6.8,6.8,0,0,0,3.67-6.32v-.82H243V9.34h8.26v1.75h-3Zm6.52-4V22.68H252.6V7.94Z"/><path d="M269.47,20.74v1.68H258.54V18h2v-2c-1.29.06-2.52.08-3.63.08l-.27-1.68a81.75,81.75,0,0,0,9.38-.45l.14,1.5a31.33,31.33,0,0,1-3.52.42v2.78h-2v2Zm-11.72-9.67c0-1.56,1.52-2.64,3.68-2.64s3.67,1.08,3.67,2.64-1.52,2.63-3.67,2.63S257.75,12.64,257.75,11.07Zm2,0c0,.72.69,1.09,1.68,1.09s1.67-.37,1.67-1.09-.69-1.1-1.67-1.1S259.75,10.35,259.75,11.07ZM267,16.5V7.94h2.11V19.11H267V17.94h-2.77V16.5Z"/><path d="M330.85,13.6v1.67H317.58V13.6H327c.06-.43.13-.81.17-1.21l-8.13.35-.22-1.62,8.45-.19c0-.29,0-.58,0-.85h-8.06V8.45h10.14V9.76a20.88,20.88,0,0,1-.26,3.84Zm-9.73,7.32h8.78v1.6H319v-4h8.3v-.8H319V16.15h10.42V20h-8.3Z"/><path d="M334.47,17.56a33.49,33.49,0,0,0,5.78-.47l.19,1.71a35.64,35.64,0,0,1-6.8.5h-1.25V13.22h4.68V10.87h-4.69V9.19h6.77v5.69h-4.68Zm11-2.32h-2.11v7.47h-2.11V7.92h2.11v5.57h2.11Z"/><path d="M359.37,17.88h-5.66v4.81H351.6V17.88H346v-1.7h13.34Zm-12-6.13c0-2,2.18-3.32,5.33-3.32S358,9.75,358,11.75s-2.19,3.33-5.33,3.33S347.34,13.78,347.34,11.75Zm2.16,0c0,1.07,1.23,1.64,3.17,1.64s3.15-.57,3.15-1.64-1.23-1.64-3.15-1.64S349.5,10.69,349.5,11.75Z"/><path d="M373.61,19.19v1.73H360.27V19.19Zm-1.42-2.77H361.82V9.15h10.26v1.72h-8.15v3.87h8.26Z"/><path d="M384,9.11h2.1V19.27H379V9.11h2.1v3.56h3Zm0,5.21h-3v3.27h3Zm8.18.87h-2.14v7.49h-2.12V8h2.12v5.48h2.14Z"/><path d="M406.09,17.88h-5.66v4.81h-2.11V17.88h-5.57v-1.7h13.34Zm-12-6.13c0-2,2.17-3.32,5.33-3.32s5.33,1.32,5.33,3.32-2.19,3.33-5.33,3.33S394.06,13.78,394.06,11.75Zm2.16,0c0,1.07,1.23,1.64,3.17,1.64s3.15-.57,3.15-1.64-1.23-1.64-3.15-1.64S396.22,10.69,396.22,11.75Z"/><path d="M412.49,12.53A6.11,6.11,0,0,0,416,18.1l-1.12,1.62A6.58,6.58,0,0,1,411.47,16,6.71,6.71,0,0,1,408,20l-1.12-1.62a6.36,6.36,0,0,0,3.47-5.81V12h-3V10.34h3V8.29h2.11v2.05h2.93V12h-2.93Zm6.87-4.59V22.71h-2.11V15.28h-2.61V13.57h2.61V7.94Z"/><rect class="cls-1" x="441.85" y="1.73" width="117.5" height="26.53" rx="13.27"/><path class="cls-2" d="M463.62,16.12a4.92,4.92,0,0,1-2.91-2.77,5.2,5.2,0,0,1-3,3L457,15.23A4.46,4.46,0,0,0,460,11V9.81h1.41V11a4.23,4.23,0,0,0,2.94,4Zm3.71,3.81v1.13H459V17.2h1.4v2.73ZM467,18h-1.39V9.15H467Z"/><path class="cls-2" d="M475.54,16a4.68,4.68,0,0,1-3-2.31,4.74,4.74,0,0,1-3,2.62l-.68-1.08a3.81,3.81,0,0,0,2.92-3.54v-.11h-2.55v-1.1h2.55V9.07h1.4v1.44h2.55v1.1h-2.56v.11c0,1.39,1.1,2.7,3,3.24Zm3.53,3c0,1.43-1.56,2.28-4.11,2.28s-4.09-.85-4.09-2.28,1.55-2.26,4.09-2.26S479.07,17.59,479.07,19Zm-1.39,0c0-.76-1-1.18-2.72-1.18s-2.7.42-2.7,1.18,1,1.2,2.7,1.2S477.68,19.78,477.68,19Zm-.05-6.52V9.12H479v7.36h-1.39V13.63h-2.19V12.49Z"/><path class="cls-2" d="M485.14,11H488v1.13h-7.12V11h2.9V9.31h1.38Zm2.35,4.83a3,3,0,1,1-3-2.84A2.83,2.83,0,0,1,487.49,15.84Zm-1.32,0a1.7,1.7,0,1,0-1.7,1.69A1.63,1.63,0,0,0,486.17,15.84Zm6.07-.66h-1.87V21.3H489V9.14h1.4V14h1.87Z"/><path class="cls-2" d="M494.7,17.29a29.48,29.48,0,0,0,5-.36l.12,1.13a30.89,30.89,0,0,1-5.52.38h-.95V13.5h4.06V11.33h-4.09V10.21h5.45v4.4H494.7ZM503,9.11V21.3H501.6V14.82h-2.13V13.67h2.13V9.11Z"/><path class="cls-2" d="M514.49,10.41A9.15,9.15,0,0,1,509,19.07L508.25,18c3-1.52,4.57-3.66,4.86-6.46h-4.26V10.41Zm5,4.67h-1.84v6.2h-1.39V9.12h1.39v4.81h1.84Z"/><path class="cls-2" d="M526.69,10.41c0,3.62-1.45,6.69-5.62,8.71l-.74-1.1c3.19-1.54,4.69-3.68,4.94-6.48h-4.34V10.41Zm3.58-1.27V21.29h-1.38V9.14Z"/><line class="cls-3" x1="538.65" y1="10.41" x2="543.79" y2="15.55"/><line class="cls-3" x1="538.65" y1="20.85" x2="543.79" y2="15.55"/><line class="cls-4" x1="296.07" y1="9.75" x2="296.07" y2="21.18"/></svg>