<svg xmlns="http://www.w3.org/2000/svg" width="20" height="26" viewBox="0 0 20 26">
  <path fill-rule="evenodd" d="M444.704598,77.7034394 C444.738832,81.4873125 447.962153,82.7393755 448.000099,82.7511202 C447.981126,82.8404633 447.496081,84.5614733 446.286769,86.302617 C445.276671,87.8378099 444.217904,89.3411244 442.538394,89.3662915 C440.905493,89.4065589 440.356517,88.3906471 438.484393,88.3906471 C436.594945,88.3906471 436.010499,89.3411244 434.444002,89.4065589 C432.843271,89.466121 431.619935,87.767342 430.573954,86.2443132 C428.482404,83.1370156 426.853214,77.4878413 429.037154,73.6444062 C430.094271,71.7572933 432.024964,70.5434004 434.08723,70.5106832 C435.688785,70.4783854 437.175266,71.6121631 438.161029,71.6121631 C439.125345,71.6121631 440.964473,70.256076 442.859283,70.4590906 C443.653255,70.4821604 445.909786,70.7757766 447.365746,72.9367913 C447.248197,73.0068397 444.676964,74.5432909 444.704598,77.7034394 Z M441.621676,68.4146834 C440.742739,69.4683459 439.337098,70.2749514 437.966929,70.1717663 C437.789162,68.7481475 438.482495,67.235605 439.25832,66.3136503 C440.13602,65.2654407 441.660859,64.4621909 442.879658,64.4080816 C443.040103,65.8862291 442.463081,67.343404 441.621676,68.4146834 Z" transform="translate(-428 -64)"/>
</svg>
