<svg id="Layer_1" data-name="Layer 1" xmlns="http://www.w3.org/2000/svg" viewBox="0 0 1070.73 466.65"><defs><style>.cls-1{fill:#221d1e;}.cls-2{fill:#fff;}.cls-3{fill:#ababab;}.cls-4{fill:#003964;}.cls-5{fill:#ed193a;}.cls-6{fill:#58595b;}</style></defs><rect class="cls-1" y="433.26" width="792" height="33.39"/><path class="cls-2" d="M22,588.53h4c.34,0,.74,0,1.2,0a6.13,6.13,0,0,1,1.41.24,5.82,5.82,0,0,1,1.46.68,4.68,4.68,0,0,1,1.32,1.31,5.79,5.79,0,0,1,.87,1.83,8,8,0,0,1,.25,2,8.26,8.26,0,0,1-.33,2.36,5.16,5.16,0,0,1-1.07,1.95,5.23,5.23,0,0,1-1.95,1.33,7.88,7.88,0,0,1-2.93.48H22ZM25.13,598h1.33a3.23,3.23,0,0,0,1.45-.28,2.43,2.43,0,0,0,.92-.74,2.89,2.89,0,0,0,.47-1.07,5.31,5.31,0,0,0,0-2.38,2.88,2.88,0,0,0-.79-1.53,1.78,1.78,0,0,0-.48-.36,2.52,2.52,0,0,0-.66-.26,4,4,0,0,0-.9-.1H25.13Z" transform="translate(0 -145.35)"/><path class="cls-2" d="M34.35,592.17a6.45,6.45,0,0,1,1.93-2.53,6.31,6.31,0,0,1,4-1.34,6.51,6.51,0,0,1,2.59.51,6.34,6.34,0,0,1,2,1.38,6.13,6.13,0,0,1,1.33,2,6.35,6.35,0,0,1-1.33,6.86,6.46,6.46,0,0,1-4.65,1.88,6.37,6.37,0,0,1-2.61-.52,6.53,6.53,0,0,1-2-1.39,6.36,6.36,0,0,1-1.3-2,5.84,5.84,0,0,1-.46-2.28,8.12,8.12,0,0,1,.1-1.27A5.68,5.68,0,0,1,34.35,592.17ZM37,594.59a4.18,4.18,0,0,0,.23,1.36,3.66,3.66,0,0,0,.67,1.15,3.51,3.51,0,0,0,1,.81,3.18,3.18,0,0,0,1.41.3,2.89,2.89,0,0,0,1.44-.34,3.16,3.16,0,0,0,1-.86,4,4,0,0,0,.61-1.15,3.68,3.68,0,0,0,0-2.45,4.08,4.08,0,0,0-.61-1.17,3.25,3.25,0,0,0-1-.87,3.33,3.33,0,0,0-2.89,0,3.17,3.17,0,0,0-1.05.82,3.54,3.54,0,0,0-.63,1.14A3.83,3.83,0,0,0,37,594.59Z" transform="translate(0 -145.35)"/><path class="cls-2" d="M48.41,588.53h4l2.42,8h0l2.39-8h4v12.18H58.4l.1-9.12,0,0-2.6,9.15h-2l-2.61-9.15,0,0,.1,9.12H48.41Z" transform="translate(0 -145.35)"/><path class="cls-2" d="M66.5,599l-.65,1.76H62.51l4.89-12.18h2.45l4.84,12.18H71.32L70.73,599Zm.85-2.47H69.9l-1.25-4.16H68.6Z" transform="translate(0 -145.35)"/><path class="cls-2" d="M77.28,588.53l1.63,7.92h0l1.79-7.92h2.39l1.76,8h0l1.66-8h3.14L86.5,600.71H83.76l-1.82-7.88h0l-1.82,7.88H77.26l-3.14-12.18Z" transform="translate(0 -145.35)"/><path class="cls-2" d="M91.1,588.53h6.77v2.73H94.08v1.9h3.67v2.73H94.08V598h3.79v2.73H91.1Z" transform="translate(0 -145.35)"/><path class="cls-2" d="M102.71,600.71H99.86v-2.8h2.85Z" transform="translate(0 -145.35)"/><path class="cls-2" d="M105,588.53h2.69l4.7,7.66,0,0-.13-7.62h3v12.18h-2.69l-4.65-7.4h0l.08,7.39h-3Z" transform="translate(0 -145.35)"/><path class="cls-2" d="M117.46,588.53h6.76v2.73h-3.78v1.9h3.67v2.73h-3.67V598h3.78v2.73h-6.76Z" transform="translate(0 -145.35)"/><path class="cls-2" d="M127.61,591.26h-2.4v-2.73h7.9v2.73h-2.39v9.45h-3.11Z" transform="translate(0 -145.35)"/><path class="cls-3" d="M623.91,590.58h5.28v1.8h-3.36v2.53H629v1.79h-3.2v4.24h-1.92Z" transform="translate(0 -145.35)"/><path class="cls-3" d="M630.67,590.58h3.18a5.52,5.52,0,0,1,1.48.17,2.85,2.85,0,0,1,1,.53,3.55,3.55,0,0,1,.44.43,2.54,2.54,0,0,1,.39.56,3,3,0,0,1,.28.69,3.14,3.14,0,0,1,.11.83,4.13,4.13,0,0,1-.05.57,3.21,3.21,0,0,1-.17.66,3.59,3.59,0,0,1-.31.66,2.6,2.6,0,0,1-.47.59,2.41,2.41,0,0,1-.89.6,8.44,8.44,0,0,1-.83.25l2.82,3.82h-2.33l-2.74-4h0v4h-1.92Zm1.92,5h1.23a2.14,2.14,0,0,0,.95-.18,1.42,1.42,0,0,0,.57-.42,1.26,1.26,0,0,0,.27-.51,2.41,2.41,0,0,0,.06-.49,1.84,1.84,0,0,0-.08-.48,1.4,1.4,0,0,0-.28-.52,1.53,1.53,0,0,0-.57-.4,2.2,2.2,0,0,0-.92-.16h-1.23Z" transform="translate(0 -145.35)"/><path class="cls-3" d="M638.75,590.58h5.57v1.8h-3.65v2.53h3.5v1.79h-3.5v2.45h3.65v1.79h-5.57Z" transform="translate(0 -145.35)"/><path class="cls-3" d="M646,590.58h5.57v1.8H648v2.53h3.5v1.79H648v2.45h3.65v1.79H646Z" transform="translate(0 -145.35)"/><path class="cls-3" d="M657.26,590.58h2.35a10,10,0,0,1,1.65.12,6.21,6.21,0,0,1,1.2.29,4.54,4.54,0,0,1,.85.39,4.81,4.81,0,0,1,.56.41,4.47,4.47,0,0,1,.67.75,5,5,0,0,1,.55,1,6.16,6.16,0,0,1,.36,1.1,5.93,5.93,0,0,1,.12,1.19,5.2,5.2,0,0,1-.17,1.37,5.34,5.34,0,0,1-.5,1.26,4.59,4.59,0,0,1-.78,1.07,4.46,4.46,0,0,1-1,.78,5.37,5.37,0,0,1-.78.33,6,6,0,0,1-.86.21,9,9,0,0,1-.91.11l-.9,0h-2.39Zm1.92,8.57h.4l.72,0a6.07,6.07,0,0,0,.63-.07,3.84,3.84,0,0,0,1.17-.41,2.66,2.66,0,0,0,.67-.53,3,3,0,0,0,.49-.69,3.66,3.66,0,0,0,.3-.8,4,4,0,0,0,.1-.84,3.5,3.5,0,0,0-.31-1.43,3.41,3.41,0,0,0-.8-1.12,2.84,2.84,0,0,0-1.35-.7,7.73,7.73,0,0,0-1.66-.16h-.36Z" transform="translate(0 -145.35)"/><path class="cls-3" d="M667,590.58h5.57v1.8H669v2.53h3.5v1.79H669v2.45h3.65v1.79H667Z" transform="translate(0 -145.35)"/><path class="cls-3" d="M675.64,598a2.11,2.11,0,0,0,.17.65,1.33,1.33,0,0,0,.33.43,1.09,1.09,0,0,0,.42.23,1.41,1.41,0,0,0,.45.07,1.61,1.61,0,0,0,.54-.09A1.33,1.33,0,0,0,678,599a1.27,1.27,0,0,0,.31-.41,1.18,1.18,0,0,0,.12-.53,1.39,1.39,0,0,0-.13-.65,1.2,1.2,0,0,0-.37-.44,3.07,3.07,0,0,0-.63-.33l-.85-.33-.72-.29a3.13,3.13,0,0,1-.81-.49,3.05,3.05,0,0,1-.66-.85,3,3,0,0,1-.27-1.35,3,3,0,0,1,.23-1.16,3.07,3.07,0,0,1,.64-.94,3,3,0,0,1,2.17-.86,3.57,3.57,0,0,1,1,.16,3,3,0,0,1,1,.52,3.31,3.31,0,0,1,.76.92,3.06,3.06,0,0,1,.36,1.36h-2a1.7,1.7,0,0,0-.14-.58,1.11,1.11,0,0,0-.28-.35,1,1,0,0,0-.35-.19,1.87,1.87,0,0,0-.4,0,1,1,0,0,0-.75.29,1,1,0,0,0-.31.76,1.15,1.15,0,0,0,.12.55,1.08,1.08,0,0,0,.34.37,2.56,2.56,0,0,0,.55.27l.71.25c.22.07.48.17.79.3a3.41,3.41,0,0,1,.89.55,2.87,2.87,0,0,1,1,2.34,3.31,3.31,0,0,1-.3,1.46,2.88,2.88,0,0,1-.77,1,3.36,3.36,0,0,1-1.09.61,3.6,3.6,0,0,1-1.2.2,3.9,3.9,0,0,1-1.08-.17,3.54,3.54,0,0,1-1.07-.56,3.4,3.4,0,0,1-.84-1,3.24,3.24,0,0,1-.39-1.45Z" transform="translate(0 -145.35)"/><path class="cls-3" d="M681.74,590.58h1.92v10.36h-1.92Z" transform="translate(0 -145.35)"/><path class="cls-3" d="M689.33,595.67h6.76v.22a4.88,4.88,0,0,1-.44,2.06,5.46,5.46,0,0,1-1.21,1.68,5.7,5.7,0,0,1-1.75,1.12,5.46,5.46,0,0,1-2.08.4,5.64,5.64,0,0,1-2.13-.4,5.52,5.52,0,0,1-3-2.84,5.12,5.12,0,0,1-.46-2.15,5,5,0,0,1,.45-2.12,5.36,5.36,0,0,1,1.21-1.71,5.49,5.49,0,0,1,1.77-1.14,5.5,5.5,0,0,1,3.9-.12,6.26,6.26,0,0,1,1.48.77,5.45,5.45,0,0,1,1.09,1,4.25,4.25,0,0,1,.65,1.13h-2.3a2.77,2.77,0,0,0-.43-.51,3,3,0,0,0-.61-.47,3.47,3.47,0,0,0-.78-.34,3.21,3.21,0,0,0-1-.13,3.44,3.44,0,0,0-1.55.33,3.67,3.67,0,0,0-1.11.86,3.43,3.43,0,0,0-.67,1.17,3.81,3.81,0,0,0-.23,1.25,3.64,3.64,0,0,0,.23,1.22,3.38,3.38,0,0,0,.67,1.16A3.76,3.76,0,0,0,689,599a3.64,3.64,0,0,0,1.61.33,3.36,3.36,0,0,0,1.78-.5,3.28,3.28,0,0,0,1.28-1.4h-4.34Z" transform="translate(0 -145.35)"/><path class="cls-3" d="M697.39,590.58h2.19l4.28,7.54h0v-7.54h1.92v10.36h-2.14l-4.33-7.53h0v7.53h-1.92Z" transform="translate(0 -145.35)"/><path class="cls-3" d="M711.55,590.58h5.57v1.8h-3.65v2.53H717v1.79h-3.5v2.45h3.65v1.79h-5.57Z" transform="translate(0 -145.35)"/><path class="cls-3" d="M719,590.58h1.92v8.57h3.16v1.79H719Z" transform="translate(0 -145.35)"/><path class="cls-3" d="M725,590.58h5.57v1.8h-3.65v2.53h3.5v1.79h-3.5v2.45h3.65v1.79H725Z" transform="translate(0 -145.35)"/><path class="cls-3" d="M732.3,590.58H735l2.75,7.84h0l2.73-7.84h2.66v10.36h-1.92v-7.77h0l-2.64,7.77H736.9l-2.66-7.77h0v7.77H732.3Z" transform="translate(0 -145.35)"/><path class="cls-3" d="M744.87,590.58h5.57v1.8h-3.65v2.53h3.5v1.79h-3.5v2.45h3.65v1.79h-5.57Z" transform="translate(0 -145.35)"/><path class="cls-3" d="M752.27,590.58h2.19l4.28,7.54h0v-7.54h1.92v10.36h-2.14l-4.33-7.53h0v7.53h-1.92Z" transform="translate(0 -145.35)"/><path class="cls-3" d="M763.66,592.38h-1.92v-1.8h5.77v1.8h-1.94v8.56h-1.91Z" transform="translate(0 -145.35)"/><path class="cls-3" d="M769.72,598a1.87,1.87,0,0,0,.17.65,1.33,1.33,0,0,0,.33.43,1.09,1.09,0,0,0,.42.23,1.41,1.41,0,0,0,.45.07,1.61,1.61,0,0,0,.54-.09,1.43,1.43,0,0,0,.77-.68,1.18,1.18,0,0,0,.12-.53,1.39,1.39,0,0,0-.13-.65A1.14,1.14,0,0,0,772,597a2.74,2.74,0,0,0-.62-.33l-.85-.33-.72-.29a3.13,3.13,0,0,1-.81-.49,2.88,2.88,0,0,1-.66-.85,3,3,0,0,1-.27-1.35,3,3,0,0,1,.23-1.16,2.9,2.9,0,0,1,.64-.94,3,3,0,0,1,2.17-.86,3.57,3.57,0,0,1,1,.16,2.85,2.85,0,0,1,1,.52,3.17,3.17,0,0,1,.77.92,2.94,2.94,0,0,1,.35,1.36h-2a1.34,1.34,0,0,0-.14-.58,1,1,0,0,0-.27-.35,1,1,0,0,0-.36-.19,1.72,1.72,0,0,0-.39,0,1,1,0,0,0-.75.29,1,1,0,0,0-.31.76,1.15,1.15,0,0,0,.12.55,1.08,1.08,0,0,0,.34.37,2.56,2.56,0,0,0,.55.27l.71.25c.21.07.48.17.78.3a3.3,3.3,0,0,1,.9.55,3,3,0,0,1,.73.93,2.88,2.88,0,0,1,.31,1.41,3.31,3.31,0,0,1-.3,1.46,2.88,2.88,0,0,1-.77,1,3.36,3.36,0,0,1-1.09.61,3.6,3.6,0,0,1-1.2.2A3.9,3.9,0,0,1,770,601a3.54,3.54,0,0,1-1.07-.56,3.4,3.4,0,0,1-.84-1,3.24,3.24,0,0,1-.39-1.45Z" transform="translate(0 -145.35)"/><path class="cls-4" d="M202,181.23c-6.53-4.44-14.9-2.62-19.29,4.05a13.56,13.56,0,0,1-24.52-3.73h0l0-.14a1.09,1.09,0,0,1-.05-.17,17.31,17.31,0,0,1-.69-5.39c0-12.16,12.47-25.7,30.44-25.7,18.4,0,28.93,14,31.64,21.79l-.14-.41a38.75,38.75,0,0,0-75.4,12.57c0,19.12,13.8,35.5,32.93,35.5,15.26,0,25.52-8.56,30.22-20.35A14.93,14.93,0,0,0,202,181.23Z" transform="translate(0 -145.35)"/><path class="cls-5" d="M219.69,172.7c-2.26-7.6-12.87-22.55-31.88-22.55-18,0-30.44,13.54-30.44,25.7a17.31,17.31,0,0,0,.69,5.39,11.57,11.57,0,0,1-.36-2.77c0-12.66,12.68-21.44,25.72-21.44A32,32,0,0,1,215.36,189a35.22,35.22,0,0,1-19.52,31.55h0a38.76,38.76,0,0,0,25.55-36.44A38.29,38.29,0,0,0,219.69,172.7Z" transform="translate(0 -145.35)"/><path class="cls-6" d="M139,246.26a5.64,5.64,0,0,1-.5,2.33,6.18,6.18,0,0,1-1.35,1.92,6.45,6.45,0,0,1-2,1.31,6.22,6.22,0,0,1-2.44.49,6.09,6.09,0,0,1-2.4-.49,6.84,6.84,0,0,1-2-1.31,6.18,6.18,0,0,1-1.35-1.92,5.66,5.66,0,0,1,0-4.65,6.18,6.18,0,0,1,1.35-1.92,6.65,6.65,0,0,1,2-1.31,6.09,6.09,0,0,1,2.4-.49,6.35,6.35,0,0,1,5.77,3.72A5.59,5.59,0,0,1,139,246.26Zm-11.18,15.43v-7.44h2.74v5h15.5v2.44Zm8.53-15.4a3.44,3.44,0,0,0-.29-1.4,3.75,3.75,0,0,0-.78-1.12,3.8,3.8,0,0,0-1.15-.79,3.44,3.44,0,0,0-1.4-.29,3.37,3.37,0,0,0-1.37.29,3.45,3.45,0,0,0-1.12.79,3.75,3.75,0,0,0-.78,1.12,3.29,3.29,0,0,0-.3,1.4,3.17,3.17,0,0,0,.3,1.38,3.88,3.88,0,0,0,.78,1.12,3.42,3.42,0,0,0,1.12.78,3.37,3.37,0,0,0,1.37.29,3.44,3.44,0,0,0,1.4-.29,3.77,3.77,0,0,0,1.15-.78,3.88,3.88,0,0,0,.78-1.12A3.31,3.31,0,0,0,136.38,246.29Zm6.74,7.84V239.87h2.78v14.26Z" transform="translate(0 -145.35)"/><path class="cls-6" d="M155.75,240l7.34,18-2.45,1.08-4.89-12.21-4.82,12.38-2.52-1.1Zm11.73,22.12h-2.74V239.87h2.74v8.59h3.2v2.77h-3.2Z" transform="translate(0 -145.35)"/><path class="cls-6" d="M185.31,241.12v2.37H172.55v-2.37h5.07v-1.8h2.92v1.8Zm-1.1,7.52a4.21,4.21,0,0,1-.41,1.82,5.12,5.12,0,0,1-1.09,1.47,5.84,5.84,0,0,1-1.65,1,5.3,5.3,0,0,1-3.94,0,5.84,5.84,0,0,1-1.65-1,4.84,4.84,0,0,1-1.11-1.47,4.21,4.21,0,0,1-.41-1.82,4.3,4.3,0,0,1,.41-1.84,5,5,0,0,1,1.11-1.51,5.57,5.57,0,0,1,1.65-1,5.3,5.3,0,0,1,3.94,0,5.57,5.57,0,0,1,1.65,1,5.3,5.3,0,0,1,1.09,1.51A4.3,4.3,0,0,1,184.21,248.64Zm-9.74,5.89h17.8v7.41H189.5v-5h-15Zm7.07-5.94a2.24,2.24,0,0,0-.73-1.7,2.45,2.45,0,0,0-3.43,0,2.38,2.38,0,0,0,0,3.39,2.45,2.45,0,0,0,3.43,0A2.23,2.23,0,0,0,181.54,248.59Zm8-2.55h-3.57v-2.27h3.57v-3.9h2.77v13H189.5v-2.37h-3.57v-2.27h3.57Z" transform="translate(0 -145.35)"/><path class="cls-6" d="M202.81,239.75l7,10.91-2.2,1.45-4.81-7.69-4.8,7.89-2.24-1.48Zm-5.27,21.94v-7.44h2.75v5h15.5v2.44Zm15.28-7.56V239.87h2.77v14.26Z" transform="translate(0 -145.35)"/><path class="cls-6" d="M224.72,242.1v-2.38h3v2.38H233v2.37h-5.64l6.17,13.8-2.3,1-5-11.43-5,11.61-2.34-1.05,6.16-14h-5.89V242.1ZM236,251.16h-4.12v-2.47H236v-8.82h2.77v22.27H236Z" transform="translate(0 -145.35)"/><path class="cls-4" d="M883.12,180.54c-6.29-4.27-14.33-2.53-18.56,3.9a13.06,13.06,0,0,1-23.6-3.59h0a.74.74,0,0,0,0-.14c0-.05,0-.11,0-.17a16.87,16.87,0,0,1-.67-5.18c0-11.7,12-24.73,29.29-24.73,17.71,0,27.83,13.48,30.45,21-.05-.13-.09-.26-.14-.4a37.28,37.28,0,0,0-72.54,12.1c0,18.4,13.27,34.15,31.68,34.15,14.68,0,24.55-8.23,29.08-19.58A14.37,14.37,0,0,0,883.12,180.54Z" transform="translate(0 -145.35)"/><path class="cls-5" d="M900.18,172.33c-2.18-7.31-12.38-21.7-30.68-21.7-17.28,0-29.29,13-29.29,24.73a16.87,16.87,0,0,0,.67,5.18,11.07,11.07,0,0,1-.34-2.65c0-12.19,12.2-20.63,24.74-20.63A30.73,30.73,0,0,1,896,188a33.87,33.87,0,0,1-18.78,30.36h0a37.33,37.33,0,0,0,22.95-46Z" transform="translate(0 -145.35)"/><path class="cls-6" d="M937.28,177a7.48,7.48,0,0,1-.67,3.1,8.51,8.51,0,0,1-1.8,2.57,8.81,8.81,0,0,1-2.66,1.76,8.25,8.25,0,0,1-3.26.65,8.16,8.16,0,0,1-3.22-.65A9.21,9.21,0,0,1,923,182.7a8.17,8.17,0,0,1-1.8-2.57,7.53,7.53,0,0,1,0-6.21,8.17,8.17,0,0,1,1.8-2.57,9,9,0,0,1,2.69-1.75,8,8,0,0,1,3.22-.66,8.08,8.08,0,0,1,3.26.66,8.6,8.6,0,0,1,2.66,1.75,8.51,8.51,0,0,1,1.8,2.57A7.53,7.53,0,0,1,937.28,177Zm-15,20.64v-10H926v6.69h20.74v3.27Zm11.43-20.61a4.51,4.51,0,0,0-.4-1.87,5.22,5.22,0,0,0-1-1.5,5,5,0,0,0-1.54-1.06,4.72,4.72,0,0,0-3.71,0,4.81,4.81,0,0,0-1.5,1.06,5,5,0,0,0-1,1.5,4.36,4.36,0,0,0-.4,1.87,4.21,4.21,0,0,0,.4,1.85,5.08,5.08,0,0,0,1,1.49,4.62,4.62,0,0,0,1.5,1,4.61,4.61,0,0,0,3.71,0,4.79,4.79,0,0,0,1.54-1,5.31,5.31,0,0,0,1-1.49A4.36,4.36,0,0,0,933.74,177.06Zm9,10.49V168.48h3.71v19.07Z" transform="translate(0 -145.35)"/><path class="cls-6" d="M959.65,168.68l9.82,24.08-3.28,1.43-6.54-16.33-6.45,16.57L949.83,193Zm15.7,29.59h-3.68V168.48h3.68V180h4.27v3.7h-4.27Z" transform="translate(0 -145.35)"/><path class="cls-6" d="M999.19,170.15v3.17H982.13v-3.17h6.78v-2.41h3.9v2.41Zm-1.47,10a5.49,5.49,0,0,1-.55,2.44,6.45,6.45,0,0,1-1.45,2,7.63,7.63,0,0,1-2.21,1.38,6.94,6.94,0,0,1-5.27,0,7.63,7.63,0,0,1-2.21-1.38,6.38,6.38,0,0,1-1.48-2,5.49,5.49,0,0,1-.55-2.44,5.6,5.6,0,0,1,.55-2.46,6.84,6.84,0,0,1,1.48-2,7.57,7.57,0,0,1,2.21-1.36,7.06,7.06,0,0,1,5.27,0,7.57,7.57,0,0,1,2.21,1.36,6.93,6.93,0,0,1,1.45,2A5.6,5.6,0,0,1,997.72,180.2Zm-13,7.88h23.81V198h-3.71v-6.64H984.7Zm9.45-8a3.07,3.07,0,0,0-1-2.27,3.19,3.19,0,0,0-2.3-.93,3.14,3.14,0,0,0-2.29.93,3.19,3.19,0,0,0,0,4.54,3.11,3.11,0,0,0,2.29.94,3.16,3.16,0,0,0,2.3-.94A3.05,3.05,0,0,0,994.15,180.13Zm10.65-3.4H1000v-3h4.77v-5.21h3.71v17.43h-3.71v-3.17H1000v-3h4.77Z" transform="translate(0 -145.35)"/><path class="cls-6" d="M1022.61,168.31,1032,182.9l-2.94,1.94-6.44-10.28-6.42,10.55-3-2Zm-7.05,29.36v-10h3.67v6.69H1040v3.27ZM1036,187.55V168.48h3.71v19.07Z" transform="translate(0 -145.35)"/><path class="cls-6" d="M1051.93,171.45v-3.17h4v3.17H1063v3.17h-7.55l8.25,18.47-3.07,1.37-6.72-15.3-6.64,15.54-3.14-1.41,8.25-18.67h-7.89v-3.17ZM1067,183.57h-5.51v-3.3H1067V168.48h3.71v29.79H1067Z" transform="translate(0 -145.35)"/><path class="cls-6" d="M115.35,419.91v11.57h-1.86v-9.31l-3,9.31h-1.79l-3-9.31v9.31h-1.86V419.91h2.86l2.92,9,2.92-9Z" transform="translate(0 -145.35)"/><path class="cls-6" d="M119.79,420.82a1.14,1.14,0,0,1-.35.84,1.18,1.18,0,0,1-.86.36,1.23,1.23,0,0,1-1.21-1.2,1.21,1.21,0,0,1,1.21-1.21,1.21,1.21,0,0,1,.86.35A1.17,1.17,0,0,1,119.79,420.82Zm-2.14,10.66v-8.32h1.9v8.32Z" transform="translate(0 -145.35)"/><path class="cls-6" d="M123.73,427.3v4.18h-1.88v-8.32h1.81v1.12a2.5,2.5,0,0,1,1-.95A2.62,2.62,0,0,1,126,423a3,3,0,0,1,2.37,1,3.9,3.9,0,0,1,.89,2.68v4.83h-1.89v-4.35a3.57,3.57,0,0,0-.44-2,1.49,1.49,0,0,0-1.32-.64,1.63,1.63,0,0,0-.91.31,2,2,0,0,0-.67.84A3.91,3.91,0,0,0,123.73,427.3Z" transform="translate(0 -145.35)"/><path class="cls-6" d="M133.62,420.82a1.23,1.23,0,0,1-1.21,1.2,1.21,1.21,0,0,1-1.21-1.2,1.2,1.2,0,0,1,1.21-1.21,1.21,1.21,0,0,1,1.21,1.21Zm-2.14,10.66v-8.32h1.89v8.32Z" transform="translate(0 -145.35)"/><path class="cls-6" d="M134.91,429.94l1.18-1.21a4.22,4.22,0,0,0,1.1,1.06,2.4,2.4,0,0,0,1.24.35,2.09,2.09,0,0,0,1.07-.26.76.76,0,0,0,.44-.69.74.74,0,0,0-.42-.67,7.92,7.92,0,0,0-1-.46c-.46-.14-.92-.3-1.4-.48a3.13,3.13,0,0,1-1.41-.9,1.89,1.89,0,0,1-.45-1.24,2.11,2.11,0,0,1,1-1.75,4,4,0,0,1,4.54-.06,2.61,2.61,0,0,1,.72.86l-1.16,1.13a2.37,2.37,0,0,0-.55-.65,2,2,0,0,0-1.38-.48,1.48,1.48,0,0,0-.84.24.68.68,0,0,0-.36.57.74.74,0,0,0,.4.62,4.74,4.74,0,0,0,1.18.48l.65.2a4.63,4.63,0,0,1,1.84,1,2.08,2.08,0,0,1,.62,1.51,2.2,2.2,0,0,1-1,1.79,4.1,4.1,0,0,1-2.54.75,4.35,4.35,0,0,1-2.29-.6A3.47,3.47,0,0,1,134.91,429.94Z" transform="translate(0 -145.35)"/><path class="cls-6" d="M145.81,420.49v2.67h1.8v1.53h-1.8v4.24a1,1,0,0,0,.28.82,1.34,1.34,0,0,0,.83.22h.69v1.51h-1.14a2.72,2.72,0,0,1-2-.6,2.35,2.35,0,0,1-.62-1.77v-4.42h-1.42v-1.53h1.42v-2.67Z" transform="translate(0 -145.35)"/><path class="cls-6" d="M149.19,431.48v-8.32H151v1.25a2.86,2.86,0,0,1,1-1,3.13,3.13,0,0,1,1.68-.43h.13v1.69h-.2a2.5,2.5,0,0,0-1.88.72,3.11,3.11,0,0,0-.64,2.17v3.87Z" transform="translate(0 -145.35)"/><path class="cls-6" d="M157.77,431.17l-3.27-8h2l2.26,5.68,2.24-5.68h1.94l-4.63,11.54h-1.93Z" transform="translate(0 -145.35)"/><path class="cls-6" d="M172.11,431.68a4.33,4.33,0,0,1-3.11-1.25,4.38,4.38,0,0,1,0-6.21,4.49,4.49,0,0,1,6.24,0,4.41,4.41,0,0,1,0,6.21A4.34,4.34,0,0,1,172.11,431.68Zm0-1.56a2.32,2.32,0,0,0,1.77-.79,2.81,2.81,0,0,0,.74-2,2.86,2.86,0,0,0-.74-2,2.32,2.32,0,0,0-3.52,0,2.86,2.86,0,0,0-.74,2,2.81,2.81,0,0,0,.74,2A2.31,2.31,0,0,0,172.11,430.12Z" transform="translate(0 -145.35)"/><path class="cls-6" d="M178.55,422.28a2.3,2.3,0,0,1,.66-1.77,2.88,2.88,0,0,1,2-.6h.91v1.51h-.54a1.34,1.34,0,0,0-.83.22,1,1,0,0,0-.29.82v.7h1.66v1.53h-1.66v6.79h-1.91v-6.79h-1.43v-1.53h1.43Z" transform="translate(0 -145.35)"/><path class="cls-6" d="M196.78,423.58a3.43,3.43,0,0,1-1.13,2.64,4.65,4.65,0,0,1-3.22,1h-1.81v4.23h-1.93V419.91h3.74a4.6,4.6,0,0,1,3.22,1A3.4,3.4,0,0,1,196.78,423.58Zm-2,0a1.87,1.87,0,0,0-.65-1.51,3.37,3.37,0,0,0-2.17-.55h-1.38v4.12H192a3.36,3.36,0,0,0,2.17-.56A1.88,1.88,0,0,0,194.82,423.58Z" transform="translate(0 -145.35)"/><path class="cls-6" d="M199.38,428.16a2.28,2.28,0,0,0,.72,1.25,3,3,0,0,0,2.11.73,3.89,3.89,0,0,0,2.57-1l.57,1.4a4.75,4.75,0,0,1-3.19,1.16,4.94,4.94,0,0,1-3.43-1.19,4,4,0,0,1-1.32-3.14,4.4,4.4,0,0,1,1.17-3.15,4.4,4.4,0,0,1,6.11,0,4.23,4.23,0,0,1,1.19,3,5.46,5.46,0,0,1-.08.93Zm0-1.49H204a2.23,2.23,0,0,0-.68-1.49,2.34,2.34,0,0,0-3.34.06A2.63,2.63,0,0,0,199.35,426.67Z" transform="translate(0 -145.35)"/><path class="cls-6" d="M207.49,431.48v-8.32h1.77v1.25a3,3,0,0,1,1-1A3.18,3.18,0,0,1,212,423h.14v1.69h-.2a2.5,2.5,0,0,0-1.88.72,3.11,3.11,0,0,0-.65,2.17v3.87Z" transform="translate(0 -145.35)"/><path class="cls-6" d="M212.65,429.94l1.18-1.21a4.19,4.19,0,0,0,1.09,1.06,2.43,2.43,0,0,0,1.25.35,2.09,2.09,0,0,0,1.07-.26.78.78,0,0,0,.44-.69.74.74,0,0,0-.42-.67,8.1,8.1,0,0,0-1-.46c-.45-.14-.92-.3-1.39-.48a3.11,3.11,0,0,1-1.42-.9,1.89,1.89,0,0,1-.45-1.24,2.14,2.14,0,0,1,1-1.75,4,4,0,0,1,4.55-.06,2.47,2.47,0,0,1,.71.86l-1.16,1.13a2.21,2.21,0,0,0-.55-.65,2,2,0,0,0-1.38-.48,1.42,1.42,0,0,0-.83.24.68.68,0,0,0-.36.57.72.72,0,0,0,.4.62,4.58,4.58,0,0,0,1.18.48l.64.2a4.63,4.63,0,0,1,1.84,1,2.08,2.08,0,0,1,.62,1.51,2.22,2.22,0,0,1-1,1.79,4.14,4.14,0,0,1-2.54.75,4.38,4.38,0,0,1-2.3-.6A3.45,3.45,0,0,1,212.65,429.94Z" transform="translate(0 -145.35)"/><path class="cls-6" d="M224.93,431.68a4.33,4.33,0,0,1-3.11-1.25,4.38,4.38,0,0,1,0-6.21,4.49,4.49,0,0,1,6.24,0,4.41,4.41,0,0,1,0,6.21A4.34,4.34,0,0,1,224.93,431.68Zm0-1.56a2.32,2.32,0,0,0,1.77-.79,2.81,2.81,0,0,0,.74-2,2.86,2.86,0,0,0-.74-2,2.32,2.32,0,0,0-3.52,0,2.86,2.86,0,0,0-.74,2,2.81,2.81,0,0,0,.74,2A2.31,2.31,0,0,0,224.93,430.12Z" transform="translate(0 -145.35)"/><path class="cls-6" d="M232.83,427.3v4.18H231v-8.32h1.81v1.12a2.5,2.5,0,0,1,1-.95,2.62,2.62,0,0,1,1.36-.37,3,3,0,0,1,2.37,1,3.9,3.9,0,0,1,.89,2.68v4.83h-1.9v-4.35a3.58,3.58,0,0,0-.43-2,1.51,1.51,0,0,0-1.33-.64,1.58,1.58,0,0,0-.9.31,2,2,0,0,0-.67.84A3.9,3.9,0,0,0,232.83,427.3Z" transform="translate(0 -145.35)"/><path class="cls-6" d="M242.41,427.3v4.18h-1.87v-8.32h1.81v1.12a2.5,2.5,0,0,1,1-.95,2.6,2.6,0,0,1,1.36-.37,3,3,0,0,1,2.37,1,3.9,3.9,0,0,1,.89,2.68v4.83H246v-4.35a3.58,3.58,0,0,0-.43-2,1.51,1.51,0,0,0-1.33-.64,1.58,1.58,0,0,0-.9.31,2,2,0,0,0-.67.84A3.9,3.9,0,0,0,242.41,427.3Z" transform="translate(0 -145.35)"/><path class="cls-6" d="M251.51,428.16a2.27,2.27,0,0,0,.71,1.25,3.06,3.06,0,0,0,2.11.73,3.91,3.91,0,0,0,2.58-1l.56,1.4a4.73,4.73,0,0,1-3.19,1.16,5,5,0,0,1-3.43-1.19,4.08,4.08,0,0,1-1.32-3.14,4.4,4.4,0,0,1,1.17-3.15,4.41,4.41,0,0,1,6.12,0,4.22,4.22,0,0,1,1.18,3,4.6,4.6,0,0,1-.08.93Zm0-1.49h4.61a2.33,2.33,0,0,0-4-1.43A2.63,2.63,0,0,0,251.48,426.67Z" transform="translate(0 -145.35)"/><path class="cls-6" d="M259.61,431.48V419.91h1.88v11.57Z" transform="translate(0 -145.35)"/><path class="cls-6" d="M144.82,440.28v11.58H143v-9.32l-3,9.32h-1.79l-3-9.32v9.32h-1.86V440.28h2.86l2.92,9,2.93-9Z" transform="translate(0 -145.35)"/><path class="cls-6" d="M150.66,446.5h2a1.35,1.35,0,0,0-.64-1.23,3.39,3.39,0,0,0-1.82-.4h0a6,6,0,0,0-2.39.53l-.48-1.48a7.29,7.29,0,0,1,2.88-.58h0a5.51,5.51,0,0,1,3.21.8,3,3,0,0,1,1.12,2.57v5.15h-1.79V451a3.79,3.79,0,0,1-1.31.82,4.44,4.44,0,0,1-1.56.29,3.61,3.61,0,0,1-2.42-.79,2.44,2.44,0,0,1-.92-1.94,2.5,2.5,0,0,1,1.14-2.1A5.29,5.29,0,0,1,150.66,446.5Zm-.51,4.06a3.32,3.32,0,0,0,1.45-.35,2.61,2.61,0,0,0,1-.83V448H151a3.87,3.87,0,0,0-2,.37,1.23,1.23,0,0,0-.54,1,1,1,0,0,0,.46.88A2,2,0,0,0,150.15,450.56Z" transform="translate(0 -145.35)"/><path class="cls-6" d="M158.57,447.67v4.19h-1.88v-8.32h1.81v1.11a2.58,2.58,0,0,1,1-.95,2.72,2.72,0,0,1,1.37-.36,3,3,0,0,1,2.36,1,3.88,3.88,0,0,1,.89,2.69v4.83h-1.89v-4.35a3.55,3.55,0,0,0-.44-2,1.46,1.46,0,0,0-1.32-.64,1.54,1.54,0,0,0-.91.31,1.88,1.88,0,0,0-.67.84A3.9,3.9,0,0,0,158.57,447.67Z" transform="translate(0 -145.35)"/><path class="cls-6" d="M169.86,446.5h2a1.36,1.36,0,0,0-.63-1.23,3.43,3.43,0,0,0-1.83-.4h-.05a6,6,0,0,0-2.39.53l-.48-1.48a7.31,7.31,0,0,1,2.89-.58h0a5.51,5.51,0,0,1,3.21.8,3,3,0,0,1,1.12,2.57v5.15H171.9V451a3.84,3.84,0,0,1-1.3.82,4.54,4.54,0,0,1-1.57.29,3.61,3.61,0,0,1-2.42-.79,2.44,2.44,0,0,1-.92-1.94,2.5,2.5,0,0,1,1.14-2.1A5.3,5.3,0,0,1,169.86,446.5Zm-.52,4.06a3.32,3.32,0,0,0,1.45-.35,2.61,2.61,0,0,0,1-.83V448h-1.68a3.81,3.81,0,0,0-2,.37,1.22,1.22,0,0,0-.55,1,1,1,0,0,0,.46.88A2,2,0,0,0,169.34,450.56Z" transform="translate(0 -145.35)"/><path class="cls-6" d="M179.29,455.16a5.61,5.61,0,0,1-3.28-.94l.57-1.51a4.47,4.47,0,0,0,2.71.93,2.68,2.68,0,0,0,2-.72,2.2,2.2,0,0,0,.72-1.61v-.5a3.22,3.22,0,0,1-2.6,1.25,3.72,3.72,0,0,1-3-1.3,4.5,4.5,0,0,1-1.13-3.05,4.55,4.55,0,0,1,1.13-3.07,3.72,3.72,0,0,1,3-1.3,3.29,3.29,0,0,1,2.54,1.2v-1h1.89v6.91a4.77,4.77,0,0,1-1.18,3.54A4.55,4.55,0,0,1,179.29,455.16Zm2.62-6.91a6.61,6.61,0,0,0,0-1.09,2.64,2.64,0,0,0-.7-1.58,2.19,2.19,0,0,0-1.64-.7,2.08,2.08,0,0,0-1.73.82,3.52,3.52,0,0,0,0,4,2.09,2.09,0,0,0,1.73.79,2.18,2.18,0,0,0,1.64-.69A2.62,2.62,0,0,0,181.91,448.25Z" transform="translate(0 -145.35)"/><path class="cls-6" d="M187.39,448.54a2.24,2.24,0,0,0,.71,1.24,3,3,0,0,0,2.11.73,3.86,3.86,0,0,0,2.57-1l.57,1.4a4.75,4.75,0,0,1-3.19,1.16,4.9,4.9,0,0,1-3.43-1.2,4,4,0,0,1-1.32-3.14,4.38,4.38,0,0,1,1.17-3.14,4.4,4.4,0,0,1,6.11,0,4.21,4.21,0,0,1,1.19,3,5.46,5.46,0,0,1-.08.93Zm0-1.5H192a2.23,2.23,0,0,0-.68-1.48,2.32,2.32,0,0,0-3.34.06A2.63,2.63,0,0,0,187.35,447Z" transform="translate(0 -145.35)"/><path class="cls-6" d="M204.32,443.34a2.77,2.77,0,0,1,2.28,1,4.17,4.17,0,0,1,.81,2.69v4.83h-1.86v-4.35a4.16,4.16,0,0,0-.36-2,1.21,1.21,0,0,0-1.17-.64,1.31,1.31,0,0,0-.83.27,2,2,0,0,0-.58.81,4.17,4.17,0,0,0-.23,1.53v4.35h-1.86v-4.35a4,4,0,0,0-.37-2,1.23,1.23,0,0,0-1.16-.64,1.28,1.28,0,0,0-.82.27,2.1,2.1,0,0,0-.57.81,4.33,4.33,0,0,0-.25,1.63v4.25h-1.86v-8.32h1.76v1.11a2.29,2.29,0,0,1,2.16-1.31,2.4,2.4,0,0,1,2.29,1.51,3.17,3.17,0,0,1,1-1.13A3,3,0,0,1,204.32,443.34Z" transform="translate(0 -145.35)"/><path class="cls-6" d="M211,448.54a2.2,2.2,0,0,0,.72,1.24,3,3,0,0,0,2.1.73,3.9,3.9,0,0,0,2.58-1l.56,1.4a4.72,4.72,0,0,1-3.18,1.16,4.9,4.9,0,0,1-3.43-1.2,4,4,0,0,1-1.32-3.14,4.38,4.38,0,0,1,1.17-3.14,4,4,0,0,1,3.06-1.24,4.05,4.05,0,0,1,3.05,1.23,4.2,4.2,0,0,1,1.18,3,4.6,4.6,0,0,1-.08.93Zm0-1.5h4.61a2.32,2.32,0,0,0-4-1.42A2.63,2.63,0,0,0,210.93,447Z" transform="translate(0 -145.35)"/><path class="cls-6" d="M220.94,447.67v4.19h-1.88v-8.32h1.81v1.11a2.53,2.53,0,0,1,1-.95,2.69,2.69,0,0,1,1.36-.36,3,3,0,0,1,2.36,1,3.88,3.88,0,0,1,.89,2.69v4.83h-1.89v-4.35a3.64,3.64,0,0,0-.43-2,1.49,1.49,0,0,0-1.33-.64,1.56,1.56,0,0,0-.91.31,2,2,0,0,0-.67.84A3.9,3.9,0,0,0,220.94,447.67Z" transform="translate(0 -145.35)"/><path class="cls-6" d="M230.87,440.86v2.68h1.81v1.53h-1.81v4.23a1,1,0,0,0,.29.82,1.29,1.29,0,0,0,.82.23h.7v1.51h-1.15a2.72,2.72,0,0,1-2-.6,2.37,2.37,0,0,1-.61-1.78v-4.41h-1.43v-1.53H229v-2.68Z" transform="translate(0 -145.35)"/><path class="cls-4" d="M201.94,363.2c-6.53-4.44-14.89-2.63-19.28,4a13.57,13.57,0,0,1-24.53-3.73h0a.74.74,0,0,0,0-.14c0-.05,0-.11,0-.17a17.32,17.32,0,0,1-.7-5.39c0-12.16,12.48-25.7,30.45-25.7,18.39,0,28.92,14,31.63,21.79,0-.13-.08-.27-.13-.41a38.75,38.75,0,0,0-75.4,12.57c0,19.13,13.79,35.5,32.93,35.5,15.26,0,25.51-8.56,30.22-20.35A14.93,14.93,0,0,0,201.94,363.2Z" transform="translate(0 -145.35)"/><path class="cls-5" d="M219.68,354.66c-2.27-7.59-12.87-22.55-31.88-22.55-18,0-30.45,13.54-30.45,25.7a17.32,17.32,0,0,0,.7,5.39,11.07,11.07,0,0,1-.36-2.76c0-12.67,12.68-21.44,25.71-21.44a31.94,31.94,0,0,1,31.95,31.94,35.22,35.22,0,0,1-19.52,31.55h0a38.75,38.75,0,0,0,25.55-36.44A38.29,38.29,0,0,0,219.68,354.66Z" transform="translate(0 -145.35)"/><path class="cls-4" d="M439,362.73c-6.53-4.44-14.9-2.63-19.28,4A13.57,13.57,0,0,1,395.17,363h0a.74.74,0,0,1,0-.14s0-.11-.05-.17a17.62,17.62,0,0,1-.69-5.39c0-12.16,12.47-25.7,30.44-25.7,18.4,0,28.93,14,31.64,21.79-.05-.13-.09-.27-.14-.41a38.75,38.75,0,0,0-75.4,12.57c0,19.13,13.8,35.5,32.93,35.5,15.26,0,25.52-8.56,30.23-20.35A14.93,14.93,0,0,0,439,362.73Z" transform="translate(0 -145.35)"/><path class="cls-5" d="M456.71,354.19c-2.26-7.59-12.87-22.55-31.88-22.55-18,0-30.44,13.54-30.44,25.7a17.62,17.62,0,0,0,.69,5.39,11.57,11.57,0,0,1-.36-2.77c0-12.66,12.68-21.43,25.72-21.43a31.94,31.94,0,0,1,31.94,31.94A35.2,35.2,0,0,1,432.86,402h0a38.76,38.76,0,0,0,25.56-36.44A38.3,38.3,0,0,0,456.71,354.19Z" transform="translate(0 -145.35)"/><path class="cls-6" d="M493.21,344.27v15.44h-2.48V347.28l-4,12.43h-2.4l-4-12.43v12.43h-2.48V344.27h3.81l3.9,12,3.9-12Z" transform="translate(0 -145.35)"/><path class="cls-6" d="M499.14,345.49a1.5,1.5,0,0,1-.47,1.11,1.56,1.56,0,0,1-1.14.48,1.53,1.53,0,0,1-1.14-.48,1.51,1.51,0,0,1-.48-1.11,1.62,1.62,0,0,1,1.62-1.62,1.59,1.59,0,0,1,1.14.47A1.55,1.55,0,0,1,499.14,345.49Zm-2.85,14.22v-11.1h2.52v11.1Z" transform="translate(0 -145.35)"/><path class="cls-6" d="M504.39,354.13v5.58h-2.5v-11.1h2.41v1.48a3.55,3.55,0,0,1,1.29-1.26,3.6,3.6,0,0,1,1.82-.49,4,4,0,0,1,3.15,1.34,5.23,5.23,0,0,1,1.19,3.58v6.45h-2.53v-5.8a4.8,4.8,0,0,0-.57-2.63,2.15,2.15,0,0,0-3-.44,2.45,2.45,0,0,0-.9,1.12A5.25,5.25,0,0,0,504.39,354.13Z" transform="translate(0 -145.35)"/><path class="cls-6" d="M517.59,345.49a1.54,1.54,0,0,1-.47,1.11,1.61,1.61,0,0,1-2.29,0,1.54,1.54,0,0,1-.47-1.11,1.62,1.62,0,1,1,3.23,0Zm-2.86,14.22v-11.1h2.53v11.1Z" transform="translate(0 -145.35)"/><path class="cls-6" d="M519.32,357.65l1.57-1.62a5.43,5.43,0,0,0,1.46,1.42,3.19,3.19,0,0,0,1.67.47,2.74,2.74,0,0,0,1.42-.35,1,1,0,0,0,.59-.92,1,1,0,0,0-.56-.89,8.89,8.89,0,0,0-1.34-.61c-.61-.19-1.23-.41-1.87-.65a4.33,4.33,0,0,1-1.88-1.19,2.55,2.55,0,0,1-.6-1.66,2.84,2.84,0,0,1,1.29-2.34,5.42,5.42,0,0,1,6.07-.08,3.32,3.32,0,0,1,1,1.15l-1.55,1.51a3.11,3.11,0,0,0-.73-.86,2.69,2.69,0,0,0-1.84-.65,2,2,0,0,0-1.12.32.92.92,0,0,0-.47.77,1,1,0,0,0,.53.82,6.86,6.86,0,0,0,1.57.64l.86.27a6,6,0,0,1,2.45,1.37,2.74,2.74,0,0,1,.83,2,2.93,2.93,0,0,1-1.33,2.38,5.44,5.44,0,0,1-3.39,1,5.81,5.81,0,0,1-3-.8A4.56,4.56,0,0,1,519.32,357.65Z" transform="translate(0 -145.35)"/><path class="cls-6" d="M533.85,345v3.57h2.41v2h-2.41v5.65a1.32,1.32,0,0,0,.39,1.1,1.74,1.74,0,0,0,1.09.3h.93v2h-1.52a3.62,3.62,0,0,1-2.62-.8,3.14,3.14,0,0,1-.82-2.37v-5.89h-1.9v-2h1.9V345Z" transform="translate(0 -145.35)"/><path class="cls-6" d="M538.37,359.71v-11.1h2.37v1.66a4,4,0,0,1,1.35-1.26,4.18,4.18,0,0,1,2.24-.58h.17v2.26h-.26a3.34,3.34,0,0,0-2.51,1,4.17,4.17,0,0,0-.86,2.9v5.16Z" transform="translate(0 -145.35)"/><path class="cls-6" d="M549.82,359.29l-4.37-10.68h2.62l3,7.58,3-7.58h2.6L550.48,364h-2.57Z" transform="translate(0 -145.35)"/><path class="cls-6" d="M569,360a5.71,5.71,0,0,1-4.15-1.68,5.83,5.83,0,0,1,0-8.27,6,6,0,0,1,8.32,0,5.85,5.85,0,0,1,0,8.27A5.73,5.73,0,0,1,569,360Zm0-2.09a3.11,3.11,0,0,0,2.36-1.05,3.74,3.74,0,0,0,1-2.67,3.8,3.8,0,0,0-1-2.67,3.09,3.09,0,0,0-2.36-1.07,3.06,3.06,0,0,0-2.33,1.07,3.8,3.8,0,0,0-1,2.67,3.74,3.74,0,0,0,1,2.67A3.08,3.08,0,0,0,569,357.89Z" transform="translate(0 -145.35)"/><path class="cls-6" d="M577.55,347.44a3,3,0,0,1,.87-2.36,3.84,3.84,0,0,1,2.67-.81h1.22v2h-.73a1.78,1.78,0,0,0-1.1.3,1.32,1.32,0,0,0-.38,1.1v.93h2.21v2H580.1v9.06h-2.55v-9.06h-1.91v-2h1.91Z" transform="translate(0 -145.35)"/><path class="cls-6" d="M601.87,349.16a4.55,4.55,0,0,1-1.51,3.53,6.17,6.17,0,0,1-4.3,1.37h-2.41v5.65h-2.57V344.27h5a6.12,6.12,0,0,1,4.3,1.37A4.54,4.54,0,0,1,601.87,349.16Zm-2.62,0a2.48,2.48,0,0,0-.87-2,4.5,4.5,0,0,0-2.89-.73h-1.84v5.49h1.84a4.44,4.44,0,0,0,2.89-.74A2.51,2.51,0,0,0,599.25,349.16Z" transform="translate(0 -145.35)"/><path class="cls-6" d="M605.34,355.28a3,3,0,0,0,1,1.66,4,4,0,0,0,2.81,1,5.2,5.2,0,0,0,3.44-1.36l.75,1.87A6.32,6.32,0,0,1,609,360a6.52,6.52,0,0,1-4.57-1.6,5.36,5.36,0,0,1-1.76-4.19,5.86,5.86,0,0,1,1.56-4.19,5.34,5.34,0,0,1,4.09-1.66,5.4,5.4,0,0,1,4.06,1.64A5.62,5.62,0,0,1,614,354a6.89,6.89,0,0,1-.11,1.24Zm0-2h6.16a3,3,0,0,0-.91-2,3.13,3.13,0,0,0-4.45.08A3.47,3.47,0,0,0,605.3,353.29Z" transform="translate(0 -145.35)"/><path class="cls-6" d="M616.15,359.71v-11.1h2.37v1.66a3.89,3.89,0,0,1,1.36-1.26,4.16,4.16,0,0,1,2.23-.58h.18v2.26H622a3.34,3.34,0,0,0-2.51,1,4.17,4.17,0,0,0-.86,2.9v5.16Z" transform="translate(0 -145.35)"/><path class="cls-6" d="M623,357.65l1.57-1.62a5.46,5.46,0,0,0,1.47,1.42,3.16,3.16,0,0,0,1.66.47,2.78,2.78,0,0,0,1.43-.35,1,1,0,0,0,.58-.92,1,1,0,0,0-.56-.89,8.46,8.46,0,0,0-1.34-.61c-.61-.19-1.23-.41-1.86-.65a4.31,4.31,0,0,1-1.89-1.19,2.59,2.59,0,0,1-.59-1.66,2.85,2.85,0,0,1,1.28-2.34,5,5,0,0,1,3-1,4.89,4.89,0,0,1,3,.89,3.46,3.46,0,0,1,1,1.15l-1.56,1.51a3,3,0,0,0-.73-.86,2.67,2.67,0,0,0-1.84-.65,2,2,0,0,0-1.11.32.93.93,0,0,0-.48.77,1,1,0,0,0,.53.82,6.86,6.86,0,0,0,1.57.64l.87.27a6,6,0,0,1,2.45,1.37,2.78,2.78,0,0,1,.83,2A3,3,0,0,1,631,359a5.48,5.48,0,0,1-3.39,1,5.87,5.87,0,0,1-3.06-.8A4.65,4.65,0,0,1,623,357.65Z" transform="translate(0 -145.35)"/><path class="cls-6" d="M639.43,360a5.71,5.71,0,0,1-4.15-1.68,5.83,5.83,0,0,1,0-8.27,6,6,0,0,1,8.32,0,5.85,5.85,0,0,1,0,8.27A5.73,5.73,0,0,1,639.43,360Zm0-2.09a3.11,3.11,0,0,0,2.36-1.05,3.74,3.74,0,0,0,1-2.67,3.8,3.8,0,0,0-1-2.67,3.09,3.09,0,0,0-2.36-1.07,3.06,3.06,0,0,0-2.33,1.07,3.8,3.8,0,0,0-1,2.67,3.74,3.74,0,0,0,1,2.67A3.08,3.08,0,0,0,639.43,357.89Z" transform="translate(0 -145.35)"/><path class="cls-6" d="M650,354.13v5.58h-2.51v-11.1h2.42v1.48a3.44,3.44,0,0,1,1.28-1.26,3.62,3.62,0,0,1,1.82-.49,4,4,0,0,1,3.16,1.34,5.22,5.22,0,0,1,1.18,3.58v6.45h-2.52v-5.8a4.7,4.7,0,0,0-.58-2.63,2,2,0,0,0-1.77-.85,2.05,2.05,0,0,0-1.21.41,2.58,2.58,0,0,0-.9,1.12A5.26,5.26,0,0,0,650,354.13Z" transform="translate(0 -145.35)"/><path class="cls-6" d="M662.76,354.13v5.58h-2.51v-11.1h2.42v1.48a3.4,3.4,0,0,1,1.29-1.26,3.59,3.59,0,0,1,1.81-.49,4,4,0,0,1,3.16,1.34,5.23,5.23,0,0,1,1.19,3.58v6.45h-2.53v-5.8a4.7,4.7,0,0,0-.58-2.63,2,2,0,0,0-1.77-.85,2.05,2.05,0,0,0-1.21.41,2.49,2.49,0,0,0-.89,1.12A5.09,5.09,0,0,0,662.76,354.13Z" transform="translate(0 -145.35)"/><path class="cls-6" d="M674.9,355.28a3,3,0,0,0,1,1.66,4,4,0,0,0,2.81,1,5.18,5.18,0,0,0,3.44-1.36l.75,1.87A6.29,6.29,0,0,1,678.6,360a6.54,6.54,0,0,1-4.58-1.6,5.39,5.39,0,0,1-1.76-4.19,5.86,5.86,0,0,1,1.56-4.19,5.37,5.37,0,0,1,4.09-1.66A5.42,5.42,0,0,1,682,350a5.65,5.65,0,0,1,1.58,4.06,6.09,6.09,0,0,1-.11,1.24Zm0-2H681a3,3,0,0,0-.9-2,3.14,3.14,0,0,0-4.46.08A3.54,3.54,0,0,0,674.85,353.29Z" transform="translate(0 -145.35)"/><path class="cls-6" d="M685.71,359.71V344.27h2.5v15.44Z" transform="translate(0 -145.35)"/><path class="cls-6" d="M493.21,371.42v15.44h-2.48V374.43l-4,12.43h-2.4l-4-12.43v12.43h-2.48V371.42h3.81l3.9,12,3.9-12Z" transform="translate(0 -145.35)"/><path class="cls-6" d="M501,379.71h2.62a1.8,1.8,0,0,0-.84-1.63,4.55,4.55,0,0,0-2.44-.54h-.07a8.3,8.3,0,0,0-3.19.7l-.64-2a9.88,9.88,0,0,1,3.86-.77h0a7.35,7.35,0,0,1,4.29,1.07,4,4,0,0,1,1.49,3.43v6.86h-2.39v-1.21a4.82,4.82,0,0,1-1.74,1.09,5.86,5.86,0,0,1-2.09.39,4.81,4.81,0,0,1-3.23-1.05,3.27,3.27,0,0,1-1.23-2.58,3.36,3.36,0,0,1,1.53-2.82A7.08,7.08,0,0,1,501,379.71Zm-.68,5.43a4.27,4.27,0,0,0,1.93-.48,3.49,3.49,0,0,0,1.37-1.1v-1.88h-2.24a5.18,5.18,0,0,0-2.66.49,1.65,1.65,0,0,0-.73,1.33,1.42,1.42,0,0,0,.62,1.17A2.8,2.8,0,0,0,500.32,385.14Z" transform="translate(0 -145.35)"/><path class="cls-6" d="M511.55,381.28v5.58H509v-11.1h2.42v1.49a3.35,3.35,0,0,1,1.29-1.27,3.58,3.58,0,0,1,1.81-.48,4,4,0,0,1,3.16,1.34,5.19,5.19,0,0,1,1.19,3.58v6.44h-2.53v-5.8a4.72,4.72,0,0,0-.58-2.63,2,2,0,0,0-1.77-.85,2.12,2.12,0,0,0-1.21.41,2.55,2.55,0,0,0-.89,1.12A5.12,5.12,0,0,0,511.55,381.28Z" transform="translate(0 -145.35)"/><path class="cls-6" d="M526.61,379.71h2.62a1.8,1.8,0,0,0-.84-1.63,4.57,4.57,0,0,0-2.44-.54h-.07a8.27,8.27,0,0,0-3.19.7l-.64-2a9.83,9.83,0,0,1,3.85-.77H526a7.35,7.35,0,0,1,4.29,1.07,4,4,0,0,1,1.49,3.43v6.86h-2.39v-1.21a4.82,4.82,0,0,1-1.74,1.09,5.91,5.91,0,0,1-2.1.39,4.8,4.8,0,0,1-3.22-1.05,3.27,3.27,0,0,1-1.23-2.58,3.36,3.36,0,0,1,1.53-2.82A7.08,7.08,0,0,1,526.61,379.71Zm-.68,5.43a4.2,4.2,0,0,0,1.92-.48,3.46,3.46,0,0,0,1.38-1.1v-1.88H527a5.15,5.15,0,0,0-2.66.49,1.62,1.62,0,0,0-.73,1.33,1.42,1.42,0,0,0,.62,1.17A2.78,2.78,0,0,0,525.93,385.14Z" transform="translate(0 -145.35)"/><path class="cls-6" d="M539.19,391.27a7.47,7.47,0,0,1-4.36-1.26l.75-2a6,6,0,0,0,3.61,1.25,3.58,3.58,0,0,0,2.65-1,3,3,0,0,0,1-2.15v-.66a4.33,4.33,0,0,1-3.48,1.66,5,5,0,0,1-4-1.73,6.3,6.3,0,0,1,0-8.16,5,5,0,0,1,4-1.74,4.41,4.41,0,0,1,3.39,1.59v-1.33h2.52V385a6.4,6.4,0,0,1-1.57,4.73A6.09,6.09,0,0,1,539.19,391.27Zm3.51-9.21a9,9,0,0,0,0-1.47,3.46,3.46,0,0,0-.94-2.1,2.9,2.9,0,0,0-2.19-.93,2.76,2.76,0,0,0-2.3,1.08,4.27,4.27,0,0,0-.85,2.68,4.22,4.22,0,0,0,.85,2.69,2.8,2.8,0,0,0,2.3,1.06,2.9,2.9,0,0,0,2.19-.93A3.45,3.45,0,0,0,542.7,382.06Z" transform="translate(0 -145.35)"/><path class="cls-6" d="M550,382.43a3,3,0,0,0,1,1.66,4,4,0,0,0,2.81,1,5.24,5.24,0,0,0,3.44-1.35l.75,1.86a6.33,6.33,0,0,1-4.26,1.55,6.52,6.52,0,0,1-4.57-1.6,5.37,5.37,0,0,1-1.76-4.18,5.87,5.87,0,0,1,1.56-4.2,5.87,5.87,0,0,1,8.15,0,5.58,5.58,0,0,1,1.59,4.05,6.89,6.89,0,0,1-.11,1.24Zm0-2h6.16a2.94,2.94,0,0,0-.91-2,3.12,3.12,0,0,0-4.45.07A3.5,3.5,0,0,0,550,380.44Z" transform="translate(0 -145.35)"/><path class="cls-6" d="M572.6,375.5a3.69,3.69,0,0,1,3,1.34,5.52,5.52,0,0,1,1.08,3.58v6.44h-2.48v-5.8a5.71,5.71,0,0,0-.47-2.63,1.65,1.65,0,0,0-1.57-.85,1.76,1.76,0,0,0-1.12.37,2.52,2.52,0,0,0-.76,1.07,5.33,5.33,0,0,0-.31,2v5.8h-2.48v-5.8a5.55,5.55,0,0,0-.49-2.63,1.83,1.83,0,0,0-2.65-.48,2.7,2.7,0,0,0-.76,1.07,5.93,5.93,0,0,0-.33,2.17v5.67h-2.49v-11.1h2.35v1.49A3.05,3.05,0,0,1,566,375.5a3.21,3.21,0,0,1,3.06,2,4.22,4.22,0,0,1,1.39-1.5A3.88,3.88,0,0,1,572.6,375.5Z" transform="translate(0 -145.35)"/><path class="cls-6" d="M581.46,382.43a3,3,0,0,0,.95,1.66,4,4,0,0,0,2.82,1,5.22,5.22,0,0,0,3.43-1.35l.76,1.86a6.33,6.33,0,0,1-4.26,1.55,6.56,6.56,0,0,1-4.58-1.6,5.37,5.37,0,0,1-1.76-4.18,5.83,5.83,0,0,1,1.57-4.2,5.87,5.87,0,0,1,8.15,0,5.57,5.57,0,0,1,1.58,4.05,6.09,6.09,0,0,1-.11,1.24Zm0-2h6.16a3,3,0,0,0-.91-2,3.13,3.13,0,0,0-4.46.07A3.57,3.57,0,0,0,581.42,380.44Z" transform="translate(0 -145.35)"/><path class="cls-6" d="M594.77,381.28v5.58h-2.5v-11.1h2.41v1.49A3.5,3.5,0,0,1,596,376a3.62,3.62,0,0,1,1.82-.48,4,4,0,0,1,3.15,1.34,5.19,5.19,0,0,1,1.19,3.58v6.44H599.6v-5.8a4.82,4.82,0,0,0-.57-2.63,2,2,0,0,0-1.77-.85,2.1,2.1,0,0,0-1.21.41,2.64,2.64,0,0,0-.9,1.12A5.28,5.28,0,0,0,594.77,381.28Z" transform="translate(0 -145.35)"/><path class="cls-6" d="M608,372.2v3.56h2.42v2H608v5.65a1.32,1.32,0,0,0,.39,1.1,1.76,1.76,0,0,0,1.1.3h.93v2h-1.53a3.67,3.67,0,0,1-2.62-.79,3.22,3.22,0,0,1-.82-2.37v-5.9h-1.9v-2h1.9V372.2Z" transform="translate(0 -145.35)"/></svg>