<svg width="139" height="70" viewBox="0 0 139 70" fill="none" xmlns="http://www.w3.org/2000/svg">
<path d="M48.6203 30.013V37.2436H46.7365C46.6533 36.745 46.5426 36.2187 46.4594 35.6646C46.127 35.9693 45.8777 36.2186 45.6006 36.4957C44.8803 37.1883 43.9661 37.5207 42.9965 37.6038C41.4728 37.7423 40.0044 37.4653 38.7024 36.5511C37.4834 35.6645 36.7077 34.501 36.3198 33.0327C35.7381 30.8164 35.8489 28.6555 36.9016 26.5777C37.7882 24.8324 39.2288 23.7796 41.1403 23.4472C42.5809 23.1979 44.0215 23.2256 45.4067 23.7796C46.4871 24.2229 47.4291 24.9709 48.0109 26.0236C48.3156 26.55 48.5927 27.2149 48.5927 27.8244H45.7669C45.6837 27.5196 45.5175 27.1872 45.2959 26.9378C44.5202 25.9405 43.4951 25.5527 42.2485 25.7189C40.4477 25.9683 39.395 27.298 39.0625 29.0711C38.8409 30.2069 38.8963 31.3151 39.1733 32.4509C39.8659 35.3321 43.2458 35.8031 44.8249 34.501C45.4344 34.0023 45.9054 33.2544 46.0993 32.2847H43.0242V29.9853H48.6758L48.6203 30.013Z" fill="#848686"/>
<path d="M83.2225 37.2717V23.7246C83.2225 23.7246 87.6274 23.6692 89.7052 23.7246C91.783 23.78 93.3898 24.9158 94.1655 26.9105C94.8304 28.6558 94.8581 30.4566 94.5534 32.2573C94.3595 33.3932 93.9439 34.4459 93.2513 35.3601C92.5033 36.3298 91.5337 36.9393 90.3424 37.1886C90.0377 37.244 89.7052 37.2994 89.3727 37.2994C87.4335 37.2994 83.5273 37.2994 83.5273 37.2994H83.2502L83.2225 37.2717ZM86.0206 26.1071V34.8338C86.0206 34.8338 88.2092 34.8338 89.2896 34.8338C90.2316 34.8338 91.0073 33.8365 91.3397 33.0608C91.8107 31.8972 91.8661 30.7059 91.783 29.4869C91.7276 28.7112 91.5614 27.9632 91.1458 27.2983C90.7026 26.578 89.7606 26.1348 89.1234 26.1348H86.0206V26.1071Z" fill="#848686"/>
<path d="M55.7126 37.1328C56.3221 37.1328 56.9039 37.2436 57.4302 37.4375C58.1782 37.7146 58.7878 38.4071 58.7601 39.2382H57.264C57.1809 38.8227 56.9039 38.518 56.4606 38.4072C55.9343 38.2686 55.3802 38.2686 54.8815 38.4903C54.6322 38.6011 54.4383 38.8227 54.466 39.1275C54.466 39.4045 54.6876 39.5708 54.9369 39.6539C55.5741 39.7924 56.2113 39.9308 56.8485 40.0971C57.2086 40.1802 57.5965 40.2633 57.9566 40.4018C59.2033 40.9005 59.425 42.5074 58.3722 43.3662C57.9012 43.754 57.3472 43.9202 56.7654 44.0033C55.9066 44.1141 55.02 44.0864 54.1889 43.754C53.3578 43.4215 52.8868 42.8121 52.8037 41.8979H54.2997C54.2997 41.8979 54.4382 42.3411 54.6599 42.535C54.8261 42.6735 54.9923 42.7844 55.214 42.8398C55.6849 42.9506 56.239 42.9506 56.71 42.8398C57.1255 42.729 57.7904 42.2026 57.3194 41.7317C57.2363 41.6485 57.1255 41.5931 57.0424 41.5654C56.3775 41.2884 55.6018 41.2053 54.9092 41.0391C54.6045 40.956 54.2997 40.9005 54.0227 40.7897C53.3855 40.568 52.9977 40.1248 52.9145 39.4322C52.8591 38.7119 53.1085 38.1024 53.7179 37.6868C54.272 37.3267 54.9646 37.1605 55.6572 37.1605L55.7126 37.1328Z" fill="#0C0707"/>
<path d="M87.4886 40.5962C87.5994 39.7651 87.9872 39.2387 88.7352 39.0171C89.4833 38.8232 90.259 38.7955 91.0347 39.0171C91.9489 39.2664 92.2536 39.6543 92.2536 40.5685C92.2536 41.2334 92.2536 41.8706 92.2536 42.5354C92.2536 42.9787 92.1982 43.422 92.6692 43.8099H90.9516L90.7299 43.3666C90.0096 43.9207 89.2339 44.0869 88.4305 43.893C87.5163 43.6991 87.073 42.8402 87.4055 41.9814C87.5994 41.5105 87.9595 41.2334 88.4305 41.1226C88.8738 41.0118 89.3447 40.9563 89.788 40.9009C90.0927 40.8455 90.4806 40.7901 90.7299 40.7347C90.7299 40.7347 90.7299 40.4854 90.7299 40.4577C90.6745 39.9313 90.0096 39.9313 89.7326 39.9313C89.4278 39.9313 88.8184 40.1252 88.7907 40.6239C88.4305 40.6239 87.5994 40.6239 87.4609 40.6239L87.4886 40.5962ZM90.7576 41.5659C90.2866 41.649 89.788 41.7598 89.3447 41.8706C88.9569 41.9814 88.7629 42.2861 88.8184 42.5632C88.8738 42.8679 89.1785 43.0619 89.5941 43.0342C90.3421 42.9511 90.7576 42.5909 90.7576 41.5659Z" fill="#0C0707"/>
<path d="M104.887 41.7875H101.147C101.147 42.3416 101.507 42.9787 102.255 42.9787C102.754 42.9787 103.003 42.8956 103.335 42.397H104.831C104.582 43.2281 103.972 43.6713 103.224 43.8653C102.532 44.0315 101.812 44.0038 101.119 43.7822C100.343 43.5051 99.8723 42.951 99.7061 42.1753C99.623 41.732 99.5676 41.2611 99.6784 40.7901C99.8723 39.8205 100.454 39.1833 101.396 38.9894C101.922 38.8785 102.532 38.8785 103.058 38.9894C104.166 39.1833 104.831 40.0422 104.887 41.2057C104.887 41.3996 104.887 41.5936 104.887 41.8152V41.7875ZM103.335 40.9287C103.28 40.2638 102.892 39.9036 102.172 39.9036C101.562 39.9036 101.119 40.3746 101.147 40.9287H103.363H103.335Z" fill="#0C0707"/>
<path d="M71.116 37.2438C71.2822 37.2438 71.5592 37.2438 71.5592 37.2715V38.2689C71.5592 38.2689 71.0052 38.1857 70.7558 38.3797C70.5896 38.5182 70.6173 38.9891 70.6173 38.9891H71.5592V39.9311H70.6173V43.8097H69.149V39.9311H68.3456V38.9891H69.149C69.149 38.9891 69.149 38.2688 69.1767 38.2134C69.2321 37.881 69.4814 37.5763 69.7862 37.4101C70.1463 37.2162 70.5619 37.2438 70.9497 37.2438H71.0883H71.116Z" fill="#0C0707"/>
<path d="M73.8307 37.6868H75.3543V38.9889H76.1855V39.9308H75.3543V42.4518C75.3543 42.6458 75.3543 42.812 75.576 42.8674C75.7699 42.9228 75.9915 42.9228 76.1855 42.8951V43.837C75.7145 43.8924 75.2435 43.9201 74.7726 43.837C74.5232 43.8093 74.2185 43.7262 74.0246 43.5323C73.8583 43.3661 73.8306 43.089 73.8029 42.8674C73.8029 41.9808 73.8029 39.9308 73.8029 39.9308H73.0826V38.9889H73.8029V37.6868H73.8307Z" fill="#0C0707"/>
<path d="M94.7192 43.8103V39.0452H96.1321L96.2152 39.6824C96.6862 39.0729 97.2126 38.7404 97.9606 38.9067V40.2365C97.7944 40.1811 97.6282 40.1534 97.4619 40.1534C96.7416 40.1534 96.243 40.5689 96.243 41.4277C96.243 42.2034 96.243 43.7826 96.243 43.7826H94.7192V43.8103Z" fill="#0C0707"/>
<path d="M79.8703 27.2149C79.3162 25.6081 78.1803 24.5 76.6289 23.8628C75.1883 23.2533 73.6923 23.1702 72.1963 23.5304C70.0077 24.0567 68.4563 25.3588 67.7637 27.5474C67.459 28.4893 67.3204 29.4589 67.3204 30.4286C67.3204 31.3982 67.459 32.3679 67.7637 33.3098C68.4563 35.5261 70.0077 36.8281 72.1963 37.3268C73.6923 37.687 75.1883 37.5762 76.6289 36.9944C78.1803 36.3572 79.2885 35.2491 79.8703 33.6422C80.2581 32.5618 80.4244 31.509 80.4521 30.4286C80.4521 29.3481 80.2581 28.2954 79.8703 27.2149ZM77.4046 31.8969C77.3769 32.1739 77.2661 32.4233 77.183 32.6726C76.4904 34.6673 74.6342 35.443 72.8058 34.9166C71.5314 34.5564 70.8388 33.6145 70.4787 32.3955C70.2847 31.7306 70.2016 31.0657 70.2016 30.4009C70.2016 29.736 70.2847 29.0711 70.4787 28.4063C70.8388 27.1873 71.5314 26.2453 72.8058 25.8852C74.6619 25.3588 76.4904 26.1345 77.183 28.1292C77.2661 28.3785 77.3492 28.6279 77.4046 28.9049C77.4877 29.4036 77.5154 29.8745 77.5708 30.3732C77.5154 30.8719 77.4877 31.3428 77.4046 31.8415V31.8969Z" fill="#848686"/>
<path d="M64.6609 27.2149C64.1068 25.6081 62.971 24.5 61.4196 23.8628C59.979 23.2533 58.483 23.1702 56.987 23.5304C54.7984 24.0567 53.247 25.3588 52.5544 27.5474C52.2496 28.4893 52.1111 29.4589 52.1111 30.4286C52.1111 31.3982 52.2496 32.3679 52.5544 33.3098C53.247 35.5261 54.7984 36.8281 56.987 37.3268C58.483 37.687 59.979 37.5762 61.4196 36.9944C62.971 36.3572 64.0791 35.2491 64.6609 33.6422C65.0488 32.5618 65.215 31.509 65.2427 30.4286C65.2427 29.3481 65.0488 28.2954 64.6609 27.2149ZM62.1953 31.8969C62.1676 32.1739 62.0568 32.4233 61.9736 32.6726C61.281 34.6673 59.4249 35.443 57.5965 34.9166C56.3221 34.5564 55.6295 33.6145 55.2693 32.3955C55.0754 31.7306 54.9923 31.0657 54.9923 30.4009C54.9923 29.736 55.0754 29.0711 55.2693 28.4063C55.6295 27.1873 56.3221 26.2453 57.5965 25.8852C59.4526 25.3588 61.281 26.1345 61.9736 28.1292C62.0568 28.3785 62.1399 28.6279 62.1953 28.9049C62.2784 29.4036 62.3061 29.8745 62.3615 30.3732C62.3061 30.8719 62.2784 31.3428 62.1953 31.8415V31.8969Z" fill="#848686"/>
<path d="M65.3534 39.1835C64.8547 38.9342 64.3561 38.8234 63.8297 38.8511C63.3033 38.8511 62.8047 38.9619 62.306 39.1835C61.3641 39.6545 61.0039 40.4302 61.0039 41.3998C61.0039 42.3694 61.3641 43.1729 62.306 43.6161C62.8047 43.8655 63.3033 43.9763 63.8297 43.9486C64.3561 43.9486 64.8547 43.8378 65.3534 43.6161C66.2953 43.1452 66.6555 42.3694 66.6555 41.3998C66.6555 40.4302 66.2953 39.6268 65.3534 39.1835ZM65.1041 41.6768C65.0487 42.5634 64.4115 42.8681 63.8297 42.8681C63.2202 42.8681 62.6107 42.5634 62.5553 41.6768C62.5553 41.5937 62.5553 41.4829 62.5553 41.3998C62.5553 41.3167 62.5553 41.2059 62.5553 41.1228C62.6107 40.2363 63.2479 39.9315 63.8297 39.9315C64.4392 39.9315 65.0487 40.2363 65.1041 41.1228C65.1041 41.2059 65.1041 41.3167 65.1041 41.3998C65.1041 41.4829 65.1041 41.5937 65.1041 41.6768Z" fill="#0C0707"/>
<path d="M84.1364 39.0449L83.3053 42.314L82.5019 39.0449H81.0059L80.2025 42.314L79.3714 39.0449H77.7922L79.3436 43.8376H80.8674L81.7539 40.4578L82.6404 43.8376H84.1641L85.7155 39.0449H84.1364Z" fill="#0C0707"/>
<path d="M26.6233 31.8975C26.6233 31.8975 6.51028 42.8128 6.37176 54.3376C6.26094 65.8624 28.0639 70.2396 44.4645 69.9902C60.8652 69.7409 108.876 65.2529 138.741 40.181L124.667 36.247C124.667 36.247 96.1599 53.1186 59.1753 56.1938C22.1906 59.2689 11.026 45.6109 26.5956 31.8975H26.6233Z" fill="url(#paint0_linear_2256_3429)"/>
<path d="M112.117 38.1028C112.117 38.1028 132.23 27.1875 132.369 15.6627C132.507 4.13788 110.677 -0.239305 94.2761 0.0100291C77.8754 0.259364 29.8647 4.74733 0 29.8193L14.0735 33.7533C14.0735 33.7533 42.5808 16.8816 79.5654 13.8065C116.55 10.7314 127.715 24.3894 112.145 38.1028H112.117Z" fill="url(#paint1_linear_2256_3429)"/>
<defs>
<linearGradient id="paint0_linear_2256_3429" x1="6.37176" y1="50.9577" x2="138.768" y2="50.9577" gradientUnits="userSpaceOnUse">
<stop stop-color="#004699"/>
<stop offset="1" stop-color="#009A50"/>
</linearGradient>
<linearGradient id="paint1_linear_2256_3429" x1="0" y1="19.0426" x2="132.369" y2="19.0426" gradientUnits="userSpaceOnUse">
<stop stop-color="#009A50"/>
<stop offset="1" stop-color="#004699"/>
</linearGradient>
</defs>
</svg>
