<svg width="78" height="78" viewBox="0 0 78 78" fill="none" xmlns="http://www.w3.org/2000/svg">
<path opacity="0.4" d="M39 78C60.5391 78 78 60.5391 78 39C78 17.4609 60.5391 0 39 0C17.4609 0 0 17.4609 0 39C0 60.5391 17.4609 78 39 78Z" fill="#8750FF"/>
<path d="M39 71.983C57.216 71.983 71.9831 57.2159 71.9831 38.9999C71.9831 20.7839 57.216 6.01685 39 6.01685C20.784 6.01685 6.01694 20.7839 6.01694 38.9999C6.01694 57.2159 20.784 71.983 39 71.983Z" fill="#8750FF" fill-opacity="0.9"/>
<path d="M39 22.6766V24.0794C39 25.4706 40.5071 26.3401 41.7128 25.6445L48.5529 21.7027C49.7586 21.0071 49.7586 19.2681 48.5529 18.5725L41.7128 14.6308C40.5071 13.9352 39 14.8047 39 16.1959V17.5987C27.0936 17.5987 17.4132 27.2791 17.4132 39.1855C17.4132 42.9649 18.4218 46.698 20.3231 49.9673C20.6477 50.5238 21.0071 51.0803 21.3897 51.6252C21.8882 52.3208 22.6766 52.7033 23.4649 52.7033C23.975 52.7033 24.4851 52.5526 24.9257 52.2396C26.0734 51.4281 26.3517 49.8398 25.5401 48.692C25.2503 48.2747 24.9721 47.8457 24.717 47.4168C23.2678 44.9126 22.5027 42.0722 22.5027 39.1855C22.5027 30.0847 29.9108 22.6882 39 22.6882V22.6766Z" fill="white"/>
<path d="M60.5868 39.1855C60.5868 34.7105 59.2188 30.4094 56.6219 26.7459C55.8103 25.5982 54.2221 25.3315 53.0743 26.143C51.9266 26.9546 51.6599 28.5429 52.4715 29.6906C54.4539 32.4846 55.5089 35.7771 55.5089 39.1971C55.5089 48.2979 48.1008 55.6945 39.0116 55.6945V54.2917C39.0116 52.9005 37.5045 52.031 36.2987 52.7266L29.4587 56.6683C28.253 57.3639 28.253 59.1029 29.4587 59.7985L36.2987 63.7402C37.5045 64.4358 39.0116 63.5663 39.0116 62.1751V60.7723C50.918 60.7723 60.5984 51.0919 60.5984 39.1855H60.5868Z" fill="white"/>
</svg>
