<svg width="79" height="78" viewBox="0 0 79 78" fill="none" xmlns="http://www.w3.org/2000/svg">
<path opacity="0.4" d="M36.6155 77.4595C56.5405 77.4595 72.6929 61.2375 72.6929 41.2267C72.6929 21.2159 56.5405 4.9939 36.6155 4.9939C16.6905 4.9939 0.538147 21.2159 0.538147 41.2267C0.538147 61.2375 16.6905 77.4595 36.6155 77.4595Z" fill="#00B0E2"/>
<path opacity="0.2" d="M36.6155 77.4595C56.5405 77.4595 72.6929 61.2375 72.6929 41.2267C72.6929 21.2159 56.5405 4.9939 36.6155 4.9939C16.6905 4.9939 0.538147 21.2159 0.538147 41.2267C0.538147 61.2375 16.6905 77.4595 36.6155 77.4595Z" stroke="#7FA7F7" stroke-miterlimit="10"/>
<path opacity="0.8" d="M71.3941 52.852C75.4778 52.852 78.7883 49.5273 78.7883 45.426C78.7883 41.3247 75.4778 38 71.3941 38C67.3105 38 64 41.3247 64 45.426C64 49.5273 67.3105 52.852 71.3941 52.852Z" fill="#00B0E2"/>
<path d="M36.6155 63.1804C48.6882 63.1804 58.4751 53.3514 58.4751 41.2267C58.4751 29.102 48.6882 19.2729 36.6155 19.2729C24.5428 19.2729 14.756 29.102 14.756 41.2267C14.756 53.3514 24.5428 63.1804 36.6155 63.1804Z" fill="#00B0E2"/>
<path opacity="0.8" d="M29.2214 14.852C33.3051 14.852 36.6156 11.5273 36.6156 7.426C36.6156 3.32473 33.3051 0 29.2214 0C25.1377 0 21.8273 3.32473 21.8273 7.426C21.8273 11.5273 25.1377 14.852 29.2214 14.852Z" fill="#00B0E2"/>
<path opacity="0.8" d="M12.9478 73.1682C17.0315 73.1682 20.3419 69.8434 20.3419 65.7422C20.3419 61.6409 17.0315 58.3162 12.9478 58.3162C8.86412 58.3162 5.55365 61.6409 5.55365 65.7422C5.55365 69.8434 8.86412 73.1682 12.9478 73.1682Z" fill="#00B0E2"/>
</svg>
