<svg width="48" height="85" viewBox="0 0 48 85" fill="none" xmlns="http://www.w3.org/2000/svg">
<path d="M37.4176 30.2603H10.5824C4.55039 30.2603 -0.0986762 35.2805 0.695785 40.911L2.7555 55.3062C3.40284 59.8133 7.38986 63.1972 12.1713 63.4052V72.8772C12.1713 79.2565 17.659 84.4294 24.4266 84.4294C31.1943 84.4294 36.6819 79.2565 36.6819 72.8772V63.3359C41.0662 62.7811 44.6266 59.5498 45.2298 55.3062L47.2895 40.911C48.0986 35.2667 43.4496 30.2603 37.4028 30.2603H37.4176Z" fill="#8BCD00"/>
<path d="M24.0001 25.0182C31.3291 25.0182 37.2705 19.4177 37.2705 12.5091C37.2705 5.60051 31.3291 0 24.0001 0C16.671 0 10.7296 5.60051 10.7296 12.5091C10.7296 19.4177 16.671 25.0182 24.0001 25.0182Z" fill="#8BCD00"/>
</svg>
