<svg width="111" height="62" viewBox="0 0 111 62" fill="none" xmlns="http://www.w3.org/2000/svg">
<path opacity="0.3" d="M104.014 19.6133C104.258 18.5083 104.391 17.3591 104.391 16.1768C104.391 7.23757 97.1278 0 88.1823 0C81.9049 0 76.4689 3.56906 73.7786 8.78453C72.4833 8.34254 71.0883 8.0884 69.638 8.0884C63.4381 8.0884 58.2679 12.4751 57.0722 18.3094C51.0494 19.5249 46.4659 24.8619 46.4659 31.2155C46.4659 38.4641 52.4001 44.3867 59.6628 44.3867H97.8032C105.066 44.3867 111 38.4641 111 31.2155C111 26.2099 108.166 21.8343 104.014 19.6133Z" fill="#02CCB8"/>
<path d="M80.3659 27.3923C80.6981 25.8453 80.8863 24.2431 80.8863 22.5967C80.8974 10.1105 70.7561 0 58.2567 0C49.4883 0 41.8935 4.99447 38.1403 12.2762C36.3247 11.6575 34.3872 11.3039 32.3612 11.3039C23.7035 11.3039 16.485 17.4254 14.8133 25.5691C6.38809 27.2597 0 34.7182 0 43.6022C0 53.7127 8.29234 62 18.4336 62H71.7083C81.8384 62 90.1418 53.7238 90.1418 43.6022C90.1418 36.6077 86.1783 30.4972 80.3881 27.3923H80.3659Z" fill="#02CCB8"/>
</svg>
