<svg width="65" height="77" viewBox="0 0 65 77" fill="none" xmlns="http://www.w3.org/2000/svg">
<g clip-path="url(#clip0_1657_1418)">
<path opacity="0.4" d="M61.5923 0H15.3482C13.4661 0 11.9404 1.53859 11.9404 3.43654V67.3213C11.9404 69.2193 13.4661 70.7578 15.3482 70.7578H61.5923C63.4743 70.7578 65 69.2193 65 67.3213V3.43654C65 1.53859 63.4743 0 61.5923 0Z" fill="#89B3FF"/>
<path d="M49.6519 6.24219H3.40774C1.53082 6.24219 0 7.77252 0 9.67873V73.5635C0 75.4563 1.51751 77 3.40774 77H49.6519C51.5288 77 53.0596 75.4697 53.0596 73.5635V9.67873C53.0596 7.78595 51.5421 6.24219 49.6519 6.24219ZM44.6734 55.1324H7.02847C6.29633 55.1324 5.69732 54.5283 5.69732 53.79C5.69732 53.0516 6.29633 52.4476 7.02847 52.4476H44.66C45.3922 52.4476 45.9912 53.0516 45.9912 53.79C45.9912 54.5283 45.3922 55.1324 44.66 55.1324H44.6734ZM44.6734 43.0239H7.02847C6.29633 43.0239 5.69732 42.4198 5.69732 41.6815C5.69732 40.9432 6.29633 40.3391 7.02847 40.3391H44.66C45.3922 40.3391 45.9912 40.9432 45.9912 41.6815C45.9912 42.4198 45.3922 43.0239 44.66 43.0239H44.6734ZM44.6734 30.9155H7.02847C6.29633 30.9155 5.69732 30.3114 5.69732 29.5731C5.69732 28.8348 6.29633 28.2307 7.02847 28.2307H44.66C45.3922 28.2307 45.9912 28.8348 45.9912 29.5731C45.9912 30.3114 45.3922 30.9155 44.66 30.9155H44.6734ZM44.6734 18.807H7.02847C6.29633 18.807 5.69732 18.203 5.69732 17.4646C5.69732 16.7263 6.29633 16.1222 7.02847 16.1222H44.66C45.3922 16.1222 45.9912 16.7263 45.9912 17.4646C45.9912 18.203 45.3922 18.807 44.66 18.807H44.6734Z" fill="#5E93FE"/>
</g>
<defs>
<clipPath id="clip0_1657_1418">
<rect width="65" height="77" fill="white"/>
</clipPath>
</defs>
</svg>
