<svg width="90" height="90" viewBox="0 0 90 90" fill="none" xmlns="http://www.w3.org/2000/svg">
<path d="M61.2107 0.0268555H0.0268555V61.5045L28.5223 90H89.9999V28.8161L61.2107 0.0268555Z" fill="white"/>
<path d="M60.4628 1.89612L88.1304 29.5637V88.1036H29.27L1.89616 60.7298V1.86938H60.4361M61.1838 0H0V61.4776L28.4955 89.973H89.9731V28.7893L61.1838 0Z" fill="#242E3C"/>
<path d="M20.0566 20.6437C20.0566 20.9375 20.0566 21.258 20.2168 21.5517C20.2969 21.7654 20.4304 22.0859 20.5106 22.2995C20.5907 22.3796 20.5907 22.4598 20.5907 22.5132C20.5907 22.6735 20.5106 22.7268 20.377 22.8069L19.7094 23.261H19.4957C19.3355 23.261 19.2821 23.1809 19.2019 23.1008C19.0417 22.9405 18.9082 22.8069 18.8281 22.6467C18.7479 22.4865 18.6144 22.2728 18.5343 22.0592C17.7865 22.9672 16.745 23.4746 15.5432 23.4746C14.7954 23.5547 14.0476 23.261 13.5135 22.7268C12.9794 22.1927 12.7657 21.5251 12.7657 20.7773C12.7657 19.9494 13.0595 19.2017 13.6738 18.6943C14.3414 18.1601 15.2494 17.8663 16.1574 17.8663C16.5313 17.8663 16.9052 17.8664 17.199 17.9465L18.3206 18.1601V17.4123C18.4008 16.8248 18.2405 16.2106 17.8666 15.7566C17.4126 15.3827 16.8251 15.2224 16.2109 15.3025C15.837 15.3025 15.4631 15.3826 15.0892 15.4627C14.7153 15.5429 14.3414 15.6764 13.9676 15.8367C13.8073 15.9168 13.7539 15.9168 13.5936 15.9969H13.4334C13.2732 15.9969 13.2197 15.9167 13.2197 15.7031V15.169C13.2197 15.0088 13.2198 14.9553 13.2999 14.7951C13.38 14.715 13.4601 14.6349 13.5936 14.5815C13.9675 14.3678 14.4216 14.2076 14.8756 14.1274C15.4097 13.9672 15.9171 13.9138 16.4512 13.9138C17.4126 13.8337 18.3206 14.1275 19.0684 14.7417C19.6559 15.4094 19.9764 16.3174 19.8963 17.2254L20.1099 20.6705L20.0566 20.6437ZM15.9438 22.1393C16.3177 22.1393 16.6114 22.0592 16.9853 21.9791C17.3592 21.8188 17.653 21.6052 17.9735 21.3114C18.1337 21.1512 18.2672 20.9375 18.3474 20.6437C18.4275 20.35 18.4275 20.0295 18.4275 19.7357V19.2818C18.1337 19.2017 17.8132 19.1215 17.5194 19.1215C17.2257 19.0414 16.9052 19.0414 16.5313 19.0414C15.9972 18.9612 15.4898 19.1215 15.0358 19.4153C14.4215 20.0028 14.3681 20.9909 14.8756 21.6586C15.1693 22.0325 15.5432 22.1928 15.9171 22.1126L15.9438 22.1393ZM24.1159 23.261C23.9556 23.261 23.8221 23.261 23.742 23.1809C23.6619 23.1007 23.5817 22.9672 23.5283 22.8069L21.1248 14.9287C21.0447 14.7684 21.0447 14.6349 21.0447 14.5547C21.0447 14.3945 21.1248 14.3411 21.2049 14.3411H22.2464C22.4067 14.3411 22.5402 14.3411 22.6203 14.4212C22.7004 14.5014 22.7806 14.6349 22.834 14.7951L24.5432 21.4716L26.1188 14.7951C26.1188 14.6349 26.199 14.5014 26.3325 14.4212C26.4927 14.3411 26.6263 14.3411 26.7064 14.3411H27.5343C27.6945 14.3411 27.828 14.3411 27.9081 14.4212C27.9883 14.5014 28.0684 14.6349 28.1218 14.7951L29.6975 21.6319L31.4334 14.7951C31.4334 14.6349 31.5135 14.5014 31.647 14.4212C31.8073 14.3411 31.8607 14.3411 32.0209 14.3411H33.009C33.1693 14.3411 33.2227 14.4212 33.2227 14.5014V14.715C33.2227 14.715 33.1426 14.8753 33.1426 14.9287L30.739 22.7268C30.739 22.8871 30.6589 23.0206 30.5254 23.1008C30.4453 23.261 30.3117 23.261 30.1515 23.261H29.2435C29.0832 23.261 28.9497 23.261 28.8696 23.1809C28.7894 23.0206 28.7094 22.9672 28.656 22.8069L27.0803 16.2906L25.5046 22.8069C25.5046 22.9672 25.4245 23.1007 25.2909 23.1809C25.2108 23.261 25.0773 23.261 24.9972 23.261H24.0892H24.1159ZM37.1752 23.5547C36.6411 23.5547 36.1337 23.4746 35.5995 23.3945C35.2256 23.3144 34.7717 23.1809 34.3978 23.0206C34.1841 22.9405 34.0239 22.7269 34.0239 22.4331V21.8989C34.0239 21.6853 34.104 21.6052 34.2375 21.6052H34.3978C34.3978 21.6052 34.558 21.6853 34.6114 21.6853C34.9853 21.8456 35.3592 21.9791 35.7331 22.0592C36.107 22.1393 36.561 22.2194 36.9348 22.2194C37.469 22.2194 37.9764 22.1393 38.4304 21.8456C38.7241 21.6319 38.9645 21.258 38.9645 20.8841C38.9645 20.5903 38.8844 20.35 38.6708 20.2164C38.377 20.0028 38.0031 19.7625 37.6292 19.6824L36.1336 19.2283C35.5461 19.0681 34.9319 18.6942 34.4779 18.1868C34.1841 17.7328 33.9438 17.2254 33.9438 16.6913C33.9438 16.3174 34.0239 15.9435 34.2375 15.5696C34.3978 15.2758 34.6915 14.9821 34.9853 14.7417C35.2791 14.5281 35.653 14.2877 36.0268 14.2076C36.4808 14.0473 36.8547 14.0473 37.3087 14.0473C37.5224 14.0473 37.7627 14.0473 37.9764 14.1274C38.19 14.1274 38.4304 14.2075 38.644 14.2877C38.8577 14.3678 39.0179 14.3678 39.2583 14.4479C39.4185 14.528 39.5521 14.5281 39.7123 14.6082C39.8725 14.6883 39.926 14.7684 40.0061 14.8218C40.0862 14.9019 40.0862 15.0354 40.0862 15.1957V15.6497C40.0862 15.8634 40.0061 15.9435 39.8725 15.9435C39.739 15.9435 39.5788 15.8633 39.4987 15.7832C38.9111 15.4894 38.2167 15.4094 37.5491 15.4094C37.0951 15.4094 36.6411 15.4894 36.1871 15.7031C35.8933 15.8633 35.653 16.2373 35.7331 16.6112C35.7331 16.9049 35.8132 17.1453 36.0268 17.3589C36.3206 17.6527 36.6945 17.8129 37.1485 17.893L38.5639 18.3471C39.1515 18.5073 39.6856 18.8811 40.1396 19.3084C40.4333 19.6823 40.5936 20.2164 40.5936 20.7239C40.5936 21.0978 40.5135 21.5518 40.2998 21.9257C40.1396 22.2996 39.8458 22.5933 39.552 22.8337C39.2583 23.0473 38.8043 23.2877 38.4304 23.4212C38.1366 23.5013 37.6025 23.5814 37.1485 23.5814L37.1752 23.5547Z" fill="#242E3C"/>
<path d="M39.0177 28.4418C35.6527 30.9255 30.8456 32.1807 26.6528 32.1807C21.0979 32.1807 15.7032 30.151 11.5904 26.4121C11.2967 26.1183 11.5905 25.7445 11.9644 25.9582C16.5311 28.6555 21.7922 30.0175 27.0266 30.0175C31.0059 30.0175 34.9049 29.1896 38.5637 27.694C39.0978 27.4804 39.6052 28.0679 39.0177 28.4418ZM39.5518 30.6851C39.3916 30.9789 39.7121 31.1391 40.0058 30.8987C41.7952 29.4032 42.2492 26.2518 41.8753 25.7978C41.5014 25.3438 38.35 24.97 36.4806 26.332C36.1868 26.5456 36.267 26.8662 36.5607 26.786C37.6023 26.6258 40.0058 26.332 40.4599 26.9463C40.9139 27.5338 39.9257 29.7237 39.5518 30.6851Z" fill="#F3961A"/>
<path d="M34.6111 48.098C34.6111 47.3235 34.7446 46.6559 35.0117 46.0951C35.3054 45.5075 35.706 45.0802 36.2402 44.7597C36.7743 44.4393 37.4152 44.2791 38.163 44.2791C38.9108 44.2791 39.4983 44.4393 40.0324 44.7331C40.5666 45.0269 40.9671 45.4541 41.2609 46.0417C41.5547 46.6025 41.6882 47.2968 41.6882 48.098C41.6882 49.0327 41.5013 49.8072 41.1007 50.4482C40.7001 51.0891 40.1393 51.5164 39.4182 51.7301C39.712 51.8903 40.0324 52.0238 40.3796 52.1039C40.7001 52.1841 41.1007 52.2642 41.5547 52.2909V53.5728C40.9137 53.4927 40.2995 53.3057 39.6852 53.0387C39.071 52.7449 38.5102 52.371 38.0295 51.917C36.9612 51.917 36.1333 51.5431 35.5191 50.8755C34.9315 50.2078 34.6111 49.2731 34.6111 48.098ZM36.2402 48.098C36.2402 48.9259 36.4004 49.5669 36.7209 49.9942C37.0413 50.4215 37.5221 50.6351 38.163 50.6351C38.804 50.6351 39.258 50.4215 39.5784 49.9942C39.8989 49.5669 40.0591 48.9259 40.0591 48.098C40.0591 47.2701 39.8989 46.6292 39.5784 46.2019C39.258 45.7746 38.7773 45.561 38.163 45.561C37.5488 45.561 37.0413 45.7746 36.7209 46.2019C36.4004 46.6292 36.2402 47.2701 36.2402 48.098Z" fill="#242E3C"/>
<path d="M46.6289 51.7566L46.4954 51.1958C45.8811 51.6765 45.2135 51.9168 44.5458 51.9168C44.0651 51.9168 43.6912 51.7833 43.4242 51.4896C43.1571 51.1958 43.0236 50.8219 43.0236 50.3145V46.3887H44.5458V49.8872C44.5458 50.448 44.7862 50.7418 45.2936 50.7418C45.6408 50.7418 46.0147 50.635 46.3618 50.3946V46.3887H47.8841V51.7566H46.6289Z" fill="#242E3C"/>
<path d="M52.4509 51.7566L52.3174 51.2759C52.1037 51.4629 51.8634 51.6231 51.5696 51.7566C51.2759 51.8635 51.0088 51.9169 50.7417 51.9169C50.2343 51.9169 49.807 51.7567 49.4866 51.4896C49.1661 51.1959 49.0059 50.7953 49.0059 50.3146C49.0059 49.9941 49.086 49.6736 49.2462 49.4332C49.4064 49.1661 49.6468 48.9793 49.9673 48.819C50.2878 48.6588 50.6616 48.6053 51.0889 48.6053C51.4094 48.6053 51.7833 48.6588 52.2106 48.7389V48.2047C52.2106 47.8843 52.1305 47.6706 52.0237 47.5371C51.8901 47.4036 51.6498 47.3501 51.3026 47.3501C50.7151 47.3501 50.1008 47.4569 49.4064 47.6706V46.6558C49.6735 46.5223 49.994 46.4154 50.3946 46.3353C50.7952 46.2552 51.1958 46.2285 51.5964 46.2285C52.3174 46.2285 52.8248 46.3888 53.172 46.6558C53.5192 46.9496 53.6794 47.4035 53.6794 48.0178V51.73H52.4777L52.4509 51.7566ZM51.1957 50.9021C51.356 50.9021 51.543 50.8754 51.7299 50.7952C51.9168 50.7151 52.077 50.6083 52.2373 50.4748V49.5668C51.9435 49.5134 51.6498 49.4867 51.4094 49.4867C50.7952 49.4867 50.5014 49.727 50.5014 50.2077C50.5014 50.4214 50.5548 50.6083 50.6884 50.7151C50.7952 50.822 50.9821 50.9021 51.1957 50.9021Z" fill="#242E3C"/>
<path d="M57.4451 51.6497C57.1514 51.7566 56.8309 51.8366 56.5104 51.8366C55.5757 51.8366 55.095 51.3025 55.095 50.261V44.0117H56.6172V50.1275C56.6172 50.3144 56.6439 50.4746 56.724 50.5548C56.8042 50.6349 56.911 50.6616 57.0445 50.6616C57.1513 50.6616 57.2849 50.6616 57.4451 50.6349V51.6764V51.6497Z" fill="#242E3C"/>
<path d="M58.54 51.7565V46.3886H60.0623V51.7565H58.54ZM59.3145 45.5608C59.0475 45.5608 58.8338 45.4806 58.6736 45.3471C58.5133 45.1868 58.4332 44.9999 58.4332 44.7329C58.4332 44.4658 58.5133 44.2789 58.6736 44.1453C58.8338 43.9851 59.0475 43.9316 59.3145 43.9316C59.5816 43.9316 59.7952 44.0118 59.9555 44.1453C60.1157 44.2789 60.1958 44.4925 60.1958 44.7329C60.1958 44.9732 60.1157 45.1868 59.9555 45.3471C59.7952 45.4806 59.5816 45.5608 59.3145 45.5608Z" fill="#242E3C"/>
<path d="M61.8514 51.7562V47.5367H60.9968V46.5752L61.8514 46.415V45.9343C61.8514 45.2132 62.0117 44.7058 62.3321 44.3586C62.6526 44.0114 63.1601 43.8245 63.8277 43.8245C64.0147 43.8245 64.2016 43.8245 64.4153 43.8779C64.6289 43.9046 64.7891 43.958 64.9494 44.0382V45.0797C64.6823 45.053 64.4419 45.0263 64.255 45.0263C63.9345 45.0263 63.6942 45.0797 63.5873 45.1865C63.4805 45.2933 63.4004 45.4802 63.4004 45.7473V46.3883H64.8959V47.5367H63.4004V51.7562H61.8781H61.8514Z" fill="#242E3C"/>
<path d="M65.6971 51.7565V46.3886H67.2193V51.7565H65.6971ZM66.4715 45.5608C66.2045 45.5608 65.9908 45.4806 65.8306 45.3471C65.6704 45.1868 65.5902 44.9999 65.5902 44.7329C65.5902 44.4658 65.6704 44.2789 65.8306 44.1453C65.9908 43.9851 66.2045 43.9316 66.4715 43.9316C66.7386 43.9316 66.9522 44.0118 67.1125 44.1453C67.2727 44.2789 67.3528 44.4925 67.3528 44.7329C67.3528 44.9732 67.2727 45.1868 67.1125 45.3471C66.9522 45.4806 66.7386 45.5608 66.4715 45.5608Z" fill="#242E3C"/>
<path d="M69.8902 49.4332C69.9169 49.8872 70.0504 50.2344 70.3175 50.4481C70.5578 50.6617 70.9584 50.7419 71.4925 50.7419C71.9733 50.7419 72.5074 50.6617 73.1216 50.4748V51.4896C72.8813 51.6232 72.5875 51.73 72.2403 51.7834C71.8931 51.8635 71.546 51.8902 71.1988 51.8902C70.3175 51.8902 69.6498 51.6498 69.1691 51.1691C68.6884 50.6884 68.4747 49.9674 68.4747 49.0594C68.4747 48.1514 68.6884 47.457 69.1691 46.9763C69.6498 46.4689 70.2908 46.2285 71.092 46.2285C71.7863 46.2285 72.3204 46.4155 72.6943 46.8161C73.0682 47.1899 73.2552 47.724 73.2552 48.4451C73.2552 48.6053 73.2551 48.7923 73.2284 48.9792C73.2284 49.1662 73.175 49.3264 73.1483 49.4599H69.8902V49.4332ZM71.0385 47.27C70.6914 47.27 70.4243 47.3768 70.2107 47.5905C70.0237 47.8041 69.8902 48.0979 69.8635 48.4718H71.9199V48.2849C71.9199 47.5905 71.6261 47.2433 71.0118 47.2433L71.0385 47.27Z" fill="#242E3C"/>
<path d="M78.0622 51.7563L77.9287 51.2756C77.5014 51.6762 76.9939 51.8631 76.3797 51.8631C75.9524 51.8631 75.5518 51.7563 75.2313 51.5427C74.8841 51.329 74.6438 51.0085 74.4569 50.5812C74.2699 50.1539 74.1631 49.6732 74.1631 49.0857C74.1631 48.2311 74.3767 47.5367 74.7773 47.0026C75.1779 46.4952 75.7387 46.2282 76.4064 46.2282C76.9672 46.2282 77.448 46.3884 77.8486 46.7089V43.9849H79.3708V51.7563H78.0355H78.0622ZM76.8871 50.7148C77.2076 50.7148 77.5548 50.6079 77.8486 50.421V47.6436C77.5548 47.4567 77.2076 47.3765 76.807 47.3765C76.4064 47.3765 76.166 47.5101 75.9791 47.8038C75.7921 48.0709 75.712 48.4982 75.712 49.059C75.712 49.6198 75.8189 50.0204 76.0058 50.2875C76.1928 50.5545 76.4865 50.6881 76.8871 50.6881V50.7148Z" fill="#242E3C"/>
<path d="M37.3353 58.7003C36.721 58.4599 36.267 58.1929 36 57.8457C35.7329 57.4985 35.5994 57.098 35.5994 56.5638C35.5994 55.8962 35.8397 55.3888 36.3204 54.9882C36.8012 54.5876 37.4688 54.4006 38.27 54.4006C38.9643 54.4006 39.632 54.5341 40.2729 54.7745V55.9763C39.6053 55.7626 38.9644 55.6558 38.3768 55.6558C37.5489 55.6558 37.1483 55.9229 37.1483 56.457C37.1483 56.6706 37.2285 56.8308 37.362 56.9377C37.5222 57.0712 37.7626 57.2048 38.1632 57.3383L38.9376 57.6321C39.5786 57.8724 40.0593 58.1395 40.3264 58.4599C40.6201 58.7804 40.7537 59.181 40.7537 59.6884C40.7537 60.4095 40.4866 60.997 39.9792 61.3976C39.4718 61.7982 38.7507 62.0119 37.8694 62.0119C37.4688 62.0119 37.0682 61.9852 36.6943 61.9051C36.2937 61.8249 35.9732 61.7448 35.6795 61.6113V60.4095C36.0267 60.5163 36.4005 60.5965 36.8011 60.6766C37.2017 60.7567 37.5489 60.7834 37.8694 60.7834C38.27 60.7834 38.5905 60.7033 38.8308 60.5698C39.0445 60.4095 39.178 60.1959 39.178 59.9021C39.178 59.6885 39.0979 59.5282 38.9643 59.3947C38.8308 59.2611 38.5637 59.1276 38.1364 58.9674L37.3353 58.6736V58.7003Z" fill="#242E3C"/>
<path d="M44.3323 62.0121C43.5044 62.0121 42.8367 61.7717 42.3827 61.2643C41.902 60.7569 41.6884 60.0625 41.6884 59.1812C41.6884 58.2999 41.9287 57.6055 42.3827 57.0981C42.8635 56.5907 43.5044 56.3503 44.3323 56.3503C45.1602 56.3503 45.8278 56.5907 46.2818 57.0981C46.7625 57.6055 46.9762 58.2999 46.9762 59.1812C46.9762 60.0625 46.7358 60.7569 46.2818 61.2643C45.8011 61.7717 45.1602 62.0121 44.3323 62.0121ZM44.3323 60.837C45.0533 60.837 45.4272 60.2761 45.4272 59.1812C45.4272 58.0862 45.0533 57.5254 44.3323 57.5254C43.6112 57.5254 43.2373 58.0862 43.2373 59.1812C43.2373 60.2761 43.6112 60.837 44.3323 60.837Z" fill="#242E3C"/>
<path d="M48.4449 61.8778V57.6582H47.5903V56.6968L48.4449 56.5365V56.0559C48.4449 55.3615 48.6052 54.8274 48.9256 54.4802C49.2461 54.133 49.7535 53.946 50.4212 53.946C50.6081 53.946 50.7951 53.9461 51.0087 53.9995C51.2224 54.0262 51.3826 54.0796 51.5428 54.1597V55.2012C51.2758 55.1745 51.0354 55.1479 50.8485 55.1479C50.528 55.1479 50.2877 55.2013 50.1808 55.3081C50.074 55.4149 49.9939 55.6018 49.9939 55.8689V56.5098H51.4894V57.6582H49.9939V61.8778H48.4716H48.4449Z" fill="#242E3C"/>
<path d="M55.4419 61.7182C55.068 61.8784 54.6407 61.9318 54.1867 61.9318C53.5992 61.9318 53.1452 61.7983 52.8514 61.5046C52.5577 61.2108 52.4241 60.7834 52.4241 60.1959V57.6054H51.6229V56.644L52.4775 56.4838L52.6912 55.0149H53.9463V56.457H55.3885V57.6054H53.9463V60.1158C53.9463 60.3561 53.9998 60.4896 54.1066 60.5965C54.2134 60.6766 54.4004 60.7301 54.6674 60.7301C54.8811 60.7301 55.1481 60.7301 55.4152 60.6767V61.6914L55.4419 61.7182Z" fill="#242E3C"/>
<path d="M60.7565 61.8777L59.8484 58.1122L58.9137 61.8777H57.4182L55.709 56.5098H57.3381L58.2461 60.3822L59.2075 56.5098H60.5695L61.5576 60.4089L62.3855 56.5098H63.9612L62.252 61.8777H60.7565Z" fill="#242E3C"/>
<path d="M67.8337 61.8785L67.7001 61.3978C67.4865 61.5848 67.2461 61.745 66.9524 61.8785C66.6586 61.9854 66.3915 62.0388 66.1245 62.0388C65.6171 62.0388 65.1897 61.8785 64.896 61.6115C64.5755 61.3177 64.4153 60.9171 64.4153 60.4364C64.4153 60.1159 64.4954 59.7955 64.6556 59.5551C64.8159 59.2881 65.0562 59.1011 65.3767 58.9408C65.6972 58.7806 66.0711 58.7272 66.4984 58.7272C66.8188 58.7272 67.1927 58.7806 67.62 58.8607V58.3267C67.62 58.0062 67.5666 57.7925 67.4331 57.659C67.2995 57.5255 67.0592 57.472 66.712 57.472C66.1245 57.472 65.5102 57.5788 64.8159 57.7925V56.7777C65.0829 56.6441 65.4034 56.5373 65.804 56.4572C66.2046 56.3771 66.6052 56.3503 67.0057 56.3503C67.7268 56.3503 68.2343 56.5106 68.5814 56.7777C68.9286 57.0714 69.0889 57.5254 69.0889 58.1397V61.8518H67.8871L67.8337 61.8785ZM66.5785 61.0239C66.7387 61.0239 66.9256 60.9973 67.1126 60.9172C67.2995 60.837 67.4598 60.7301 67.62 60.5966V59.6886C67.3262 59.6352 67.0325 59.6085 66.7921 59.6085C66.1779 59.6085 65.8841 59.8489 65.8841 60.3296C65.8841 60.5433 65.9375 60.7302 66.0711 60.837C66.1779 60.9439 66.3648 61.0239 66.5785 61.0239Z" fill="#242E3C"/>
<path d="M70.5044 61.8778V56.5098H71.7596L71.9465 57.311C72.2403 57.0173 72.4806 56.8036 72.7477 56.6701C72.9881 56.5366 73.2551 56.4832 73.5489 56.4832C73.6824 56.4832 73.8159 56.4832 73.9762 56.4832V57.8986C73.7625 57.8719 73.5489 57.8451 73.3085 57.8451C72.8545 57.8451 72.4272 57.9253 72.0534 58.0855V61.8778H70.5311H70.5044Z" fill="#242E3C"/>
<path d="M75.8989 59.5551C75.9257 60.0091 76.0592 60.3563 76.3263 60.57C76.5666 60.7836 76.9672 60.8637 77.5013 60.8637C77.982 60.8637 78.5162 60.7836 79.1304 60.5966V61.6115C78.8901 61.745 78.5963 61.8519 78.2491 61.9053C77.9019 61.9854 77.5547 62.0121 77.2076 62.0121C76.3263 62.0121 75.6586 61.7717 75.1779 61.291C74.6972 60.8103 74.4835 60.0892 74.4835 59.1812C74.4835 58.2732 74.6972 57.5788 75.1779 57.0981C75.6586 56.5907 76.2996 56.3503 77.1008 56.3503C77.7951 56.3503 78.3292 56.5373 78.7031 56.9379C79.077 57.3118 79.2639 57.8459 79.2639 58.567C79.2639 58.7272 79.2639 58.9141 79.2372 59.1011C79.2372 59.288 79.1838 59.4483 79.1571 59.5818H75.8989V59.5551ZM77.0473 57.3919C76.7002 57.3919 76.4331 57.4987 76.2194 57.7124C76.0325 57.926 75.899 58.2198 75.8723 58.5937H77.9286V58.4068C77.9286 57.7124 77.6348 57.3652 77.0206 57.3652L77.0473 57.3919Z" fill="#242E3C"/>
</svg>
