<svg width="72" height="72" viewBox="0 0 72 72" fill="none" xmlns="http://www.w3.org/2000/svg">
<path opacity="0.2" d="M35.86 70.4895C54.9852 70.4895 70.4893 54.9854 70.4893 35.8601C70.4893 16.7348 54.9852 1.23071 35.86 1.23071C16.7347 1.23071 1.23059 16.7348 1.23059 35.8601C1.23059 54.9854 16.7347 70.4895 35.86 70.4895Z" fill="#02CCB8"/>
<path opacity="0.8" d="M35.86 70.4895C54.9852 70.4895 70.4893 54.9854 70.4893 35.8601C70.4893 16.7348 54.9852 1.23071 35.86 1.23071C16.7347 1.23071 1.23059 16.7348 1.23059 35.8601C1.23059 54.9854 16.7347 70.4895 35.86 70.4895Z" stroke="#02CCB8" stroke-width="2" stroke-miterlimit="10"/>
<path opacity="0.5" d="M35.86 58.3923C48.3043 58.3923 58.3925 48.3042 58.3925 35.8599C58.3925 23.4155 48.3043 13.3274 35.86 13.3274C23.4156 13.3274 13.3275 23.4155 13.3275 35.8599C13.3275 48.3042 23.4156 58.3923 35.86 58.3923Z" fill="#02CCB8"/>
<path d="M35.86 44.9173C40.8622 44.9173 44.9173 40.8622 44.9173 35.86C44.9173 30.8578 40.8622 26.8027 35.86 26.8027C30.8578 26.8027 26.8027 30.8578 26.8027 35.86C26.8027 40.8622 30.8578 44.9173 35.86 44.9173Z" fill="#02CCB8"/>
</svg>
