<?xml version="1.0" encoding="utf-8"?>
<!-- Generator: Adobe Illustrator 27.2.0, SVG Export Plug-In . SVG Version: 6.00 Build 0)  -->
<svg version="1.1" id="레이어_1" xmlns="http://www.w3.org/2000/svg" xmlns:xlink="http://www.w3.org/1999/xlink" x="0px"
	 y="0px" viewBox="0 0 100 100" style="enable-background:new 0 0 100 100;" xml:space="preserve">
<style type="text/css">
	.st0{fill:url(#SVGID_1_);}
	.st1{fill:url(#SVGID_00000103961226990463265180000014007426152927115675_);}
	.st2{fill:url(#SVGID_00000088134015005149087820000000418224549389188524_);}
	.st3{fill:url(#SVGID_00000075866148759534972900000010894265848495618229_);}
	.st4{fill:#19254C;}
	.st5{fill:#99C8E4;}
	.st6{fill:none;stroke:#168CC7;stroke-width:4.9216;stroke-miterlimit:10;}
	.st7{fill:url(#SVGID_00000078747239848778601210000016567517790535854779_);}
	.st8{fill:#DFE8F6;}
	.st9{fill:url(#SVGID_00000064352370361974838830000001933690094645894836_);}
	.st10{fill:#FFFFFF;}
	.st11{fill:#1A87C4;}
	.st12{fill:url(#SVGID_00000163766101580074878850000015267063065788923065_);}
	.st13{fill:#1B2F63;}
	.st14{fill:#19244C;}
</style>
<radialGradient id="SVGID_1_" cx="-890.8206" cy="581.22" r="1" gradientTransform="matrix(50 0 0 -50 44591.0273 29111)" gradientUnits="userSpaceOnUse">
	<stop  offset="0" style="stop-color:#0F73B5"/>
	<stop  offset="0.12" style="stop-color:#1280BF"/>
	<stop  offset="0.37" style="stop-color:#127DBC"/>
	<stop  offset="0.58" style="stop-color:#0F73B4"/>
	<stop  offset="0.76" style="stop-color:#0A64A7"/>
	<stop  offset="0.94" style="stop-color:#034D93"/>
	<stop  offset="0.99" style="stop-color:#00468D"/>
</radialGradient>
<path class="st0" d="M50,100C22.4,100,0,77.6,0,50C0,22.4,22.4,0,50,0s50,22.4,50,50C100,77.6,77.6,100,50,100z"/>
<linearGradient id="SVGID_00000047782021619638063150000013014947798984059791_" gradientUnits="userSpaceOnUse" x1="50" y1="6.7336" x2="50" y2="98.9713" gradientTransform="matrix(1 0 0 -1 0 102)">
	<stop  offset="0" style="stop-color:#F2F3F4"/>
	<stop  offset="0.11" style="stop-color:#8B8B89"/>
	<stop  offset="0.19" style="stop-color:#D3D1D0"/>
	<stop  offset="0.81" style="stop-color:#8B8B89"/>
	<stop  offset="0.9" style="stop-color:#D3D1D0"/>
	<stop  offset="1" style="stop-color:#8B8B89"/>
</linearGradient>
<path style="fill:url(#SVGID_00000047782021619638063150000013014947798984059791_);" d="M50,96.6C24.2,96.6,3.4,75.8,3.4,50
	S24.2,3.4,50,3.4S96.6,24.2,96.6,50C96.6,75.8,75.8,96.6,50,96.6z"/>
<linearGradient id="SVGID_00000175282740006674489480000006880614237055355779_" gradientUnits="userSpaceOnUse" x1="50.0134" y1="99.1719" x2="50.0134" y2="9.8749" gradientTransform="matrix(1 0 0 -1 0 102)">
	<stop  offset="0" style="stop-color:#BBB9B8"/>
	<stop  offset="0.22" style="stop-color:#F2F3F4"/>
	<stop  offset="0.48" style="stop-color:#737374"/>
	<stop  offset="0.52" style="stop-color:#F2F3F4"/>
	<stop  offset="0.68" style="stop-color:#D3D1D0"/>
	<stop  offset="0.84" style="stop-color:#F2F3F4"/>
	<stop  offset="1" style="stop-color:#8B8B89"/>
</linearGradient>
<path style="fill:url(#SVGID_00000175282740006674489480000006880614237055355779_);" d="M50,95.2C25.1,95.2,4.8,74.9,4.9,50
	C4.9,25.1,25.1,4.8,50,4.9c24.9,0,45.2,20.2,45.1,45.2C95.1,74.9,74.9,95.1,50,95.2z"/>
<radialGradient id="SVGID_00000060011468969163518460000002137282190961112506_" cx="-887.7423" cy="579.5643" r="1" gradientTransform="matrix(42.761 0 0 -42.761 38010.6953 24832.6719)" gradientUnits="userSpaceOnUse">
	<stop  offset="0" style="stop-color:#147CBC"/>
	<stop  offset="0.5" style="stop-color:#1076B7"/>
	<stop  offset="0.57" style="stop-color:#0E6FAD"/>
	<stop  offset="0.7" style="stop-color:#085D95"/>
	<stop  offset="0.85" style="stop-color:#04416E"/>
	<stop  offset="1" style="stop-color:#0F2141"/>
</radialGradient>
<path style="fill:url(#SVGID_00000060011468969163518460000002137282190961112506_);" d="M50,84.4C31,84.4,15.6,69,15.6,50
	C15.6,31,31,15.6,50,15.6c19,0,34.4,15.4,34.4,34.4C84.5,69,69.1,84.4,50,84.4L50,84.4z"/>
<path class="st4" d="M11.9,60.9C11.9,60.9,11.9,60.9,11.9,60.9c0,0.1,0,0.1-0.1,0.1L11,61.1c-0.2-0.2-0.4-0.5-0.5-0.8
	c-0.1-0.3-0.2-0.6-0.2-0.9c-0.1-0.3,0-0.7,0.1-1c0.1-0.3,0.2-0.6,0.4-0.8c0.2-0.2,0.5-0.4,0.8-0.6c0.3-0.2,0.7-0.2,1.1-0.3
	c0.4-0.1,0.8,0,1.1,0.1c0.3,0.1,0.6,0.2,0.9,0.4c0.2,0.2,0.5,0.5,0.6,0.7c0.2,0.3,0.3,0.6,0.3,1c0,0.3,0,0.6,0,0.9
	c-0.1,0.3-0.1,0.5-0.3,0.8l-0.8,0.1c0,0-0.1,0-0.1,0v-0.1c0.2-0.2,0.3-0.5,0.4-0.8s0.1-0.5,0.1-0.8c0-0.2-0.1-0.4-0.2-0.6
	c-0.1-0.2-0.2-0.3-0.4-0.5c-0.2-0.1-0.4-0.2-0.6-0.3c-0.3-0.1-0.6-0.1-0.8,0c-0.5,0-1,0.2-1.4,0.6C11,58.6,10.9,59,11,59.5
	c0,0.3,0.1,0.6,0.3,0.8C11.5,60.5,11.7,60.8,11.9,60.9L11.9,60.9z"/>
<path class="st4" d="M16.3,61.6l-5.4,1.1l-0.2-0.9l5.4-1.1L16.3,61.6z"/>
<path class="st4" d="M11.5,65.2c-0.1-0.3-0.1-0.6-0.1-0.8c0-0.2,0.1-0.5,0.2-0.7c0.1-0.2,0.3-0.4,0.5-0.5c0.2-0.1,0.4-0.2,0.7-0.3
	c0.2-0.1,0.5-0.1,0.8-0.1c0.2,0,0.5,0.1,0.7,0.2c0.2,0.1,0.4,0.2,0.6,0.4c0.3,0.4,0.5,1,0.5,1.5c0,0.2-0.1,0.5-0.2,0.7
	c-0.1,0.2-0.3,0.4-0.5,0.5c-0.2,0.2-0.5,0.3-0.7,0.3c-0.2,0.1-0.5,0.1-0.8,0.1c-0.2,0-0.5-0.1-0.7-0.1c-0.2-0.1-0.4-0.2-0.6-0.4
	C11.7,65.7,11.5,65.4,11.5,65.2L11.5,65.2z M12.1,65c0.1,0.3,0.2,0.5,0.5,0.6c0.3,0.1,0.7,0.1,1-0.1c0.3-0.1,0.6-0.2,0.9-0.5
	c0.3-0.5,0.1-1.1-0.4-1.3h0c-0.3-0.1-0.7-0.1-1,0c-0.3,0.1-0.6,0.2-0.9,0.5C12,64.4,12,64.7,12.1,65L12.1,65z"/>
<path class="st4" d="M13.8,69.9c-0.2-0.1-0.4-0.1-0.6-0.3c-0.2-0.1-0.3-0.3-0.4-0.5c-0.2-0.3-0.2-0.8-0.1-1.1
	c0.2-0.3,0.5-0.6,0.9-0.8l2.1-0.9l0.3,0.8L14,68c-0.2,0.1-0.4,0.2-0.5,0.4c-0.1,0.2-0.1,0.4,0,0.6c0.1,0.2,0.3,0.4,0.5,0.5
	c0.3,0.1,0.6,0,0.9-0.1l1.9-0.8l0.3,0.8l-3.4,1.5L13.4,70L13.8,69.9L13.8,69.9z"/>
<path class="st4" d="M18.3,71c0.1,0.2,0.2,0.3,0.2,0.5c0,0.2,0,0.4,0,0.5l1.8-1l0.5,0.8l-4.8,2.8l-0.4-0.7l0.4-0.3
	c-0.2,0-0.4-0.1-0.5-0.2c-0.2-0.1-0.3-0.3-0.4-0.5c-0.1-0.2-0.2-0.4-0.2-0.6c0-0.2,0-0.4,0-0.6c0.1-0.2,0.2-0.4,0.3-0.6
	c0.2-0.2,0.4-0.4,0.6-0.5c0.3-0.2,0.6-0.3,0.9-0.3c0.2-0.1,0.5-0.1,0.8,0c0.2,0,0.4,0.1,0.6,0.3C18,70.7,18.2,70.9,18.3,71z
	 M16.9,73l0.5-0.3c0.2-0.1,0.4-0.3,0.5-0.6c0.1-0.2,0-0.5-0.1-0.7c-0.1-0.2-0.4-0.4-0.6-0.4c-0.3,0-0.7,0.1-1,0.3
	c-0.3,0.1-0.5,0.4-0.7,0.7c-0.1,0.2-0.1,0.5,0.1,0.7c0.1,0.1,0.2,0.2,0.3,0.3c0.1,0.1,0.2,0.1,0.3,0.2c0.1,0,0.3,0,0.4,0
	C16.6,73.2,16.8,73.1,16.9,73L16.9,73z"/>
<path class="st4" d="M22.5,76.7c0-0.2,0-0.5-0.1-0.7c-0.1-0.2-0.2-0.5-0.3-0.6c-0.4-0.5-0.7-0.5-1-0.3c-0.1,0.1-0.2,0.3-0.2,0.5
	c0,0.2,0,0.4,0.1,0.6l0.2,0.5c0.1,0.4,0.2,0.8,0.2,1.2c0,0.3-0.2,0.6-0.5,0.8c-0.2,0.2-0.4,0.3-0.6,0.3c-0.2,0.1-0.4,0.1-0.6,0
	c-0.2-0.1-0.4-0.2-0.6-0.3c-0.2-0.2-0.4-0.3-0.6-0.5c-0.2-0.2-0.3-0.5-0.5-0.7c-0.1-0.2-0.2-0.5-0.2-0.8l0.7-0.6h0.1c0,0,0,0,0,0.1
	c0,0.1,0,0.3,0,0.4c0,0.3,0.1,0.5,0.2,0.8c0.1,0.1,0.2,0.3,0.2,0.4c0.2,0.2,0.4,0.4,0.6,0.5c0.2,0,0.4,0,0.6-0.2
	c0.1-0.1,0.2-0.3,0.2-0.5c0-0.2,0-0.5-0.1-0.7l-0.2-0.5C20.1,76,20,75.9,20,75.7c0-0.2,0-0.3,0-0.5c0-0.2,0.1-0.3,0.1-0.4
	c0.1-0.2,0.2-0.3,0.3-0.4c0.2-0.1,0.3-0.2,0.5-0.3c0.2-0.1,0.4,0,0.5,0c0.2,0.1,0.4,0.1,0.5,0.3c0.2,0.1,0.4,0.3,0.5,0.5
	c0.1,0.1,0.2,0.2,0.2,0.3c0.1,0.1,0.1,0.2,0.2,0.3c0.1,0.1,0.1,0.2,0.1,0.4c0,0.1,0.1,0.3,0.1,0.4L22.5,76.7L22.5,76.7
	C22.5,76.7,22.5,76.7,22.5,76.7L22.5,76.7z"/>
<path class="st4" d="M23.4,81.6C23.4,81.6,23.5,81.6,23.4,81.6L23.4,81.6L23,82.2c-0.2,0-0.5-0.1-0.7-0.2c-0.3-0.1-0.5-0.3-0.7-0.5
	c-0.2-0.2-0.3-0.4-0.5-0.6c-0.1-0.2-0.2-0.5-0.2-0.7s0-0.5,0.1-0.7c0.1-0.3,0.3-0.5,0.5-0.7c0.2-0.2,0.4-0.4,0.6-0.5
	c0.2-0.1,0.5-0.2,0.7-0.2c0.2,0,0.5,0,0.7,0.1c0.2,0.1,0.5,0.2,0.6,0.4c0.4,0.3,0.6,0.8,0.6,1.2c-0.1,0.5-0.3,1-0.6,1.3l-0.2,0.2
	l-2-1.9c-0.2,0.2-0.3,0.5-0.3,0.9c0,0.3,0.2,0.6,0.4,0.8c0.2,0.2,0.4,0.3,0.6,0.4C23,81.5,23.3,81.5,23.4,81.6L23.4,81.6z M22.5,79
	l1.3,1.2c0.2-0.2,0.3-0.4,0.3-0.6c0-0.2-0.1-0.4-0.3-0.6c-0.2-0.2-0.4-0.2-0.6-0.3C23,78.8,22.7,78.8,22.5,79L22.5,79z"/>
<path class="st4" d="M27.7,82.6c0-0.2-0.1-0.4-0.2-0.6c-0.1-0.2-0.2-0.3-0.4-0.5c-0.1-0.1-0.3-0.2-0.5-0.2c-0.1,0-0.3,0-0.5,0
	c-0.2,0.1-0.3,0.1-0.4,0.2c-0.1,0.1-0.3,0.2-0.4,0.4c-0.2,0.2-0.3,0.6-0.3,0.9c0,0.3,0.2,0.6,0.5,0.8c0.2,0.1,0.3,0.2,0.6,0.3
	c0.2,0.1,0.4,0.1,0.6,0h0.1V84l-0.5,0.6c-0.2,0-0.4,0-0.6-0.1c-0.2-0.1-0.4-0.2-0.6-0.3c-0.2-0.2-0.4-0.4-0.6-0.6
	c-0.1-0.2-0.2-0.4-0.3-0.7c0-0.2,0-0.5,0.1-0.7c0.1-0.3,0.2-0.5,0.4-0.8c0.2-0.2,0.4-0.4,0.6-0.6c0.4-0.3,1-0.3,1.5-0.2
	c0.3,0.1,0.5,0.2,0.8,0.4c0.2,0.1,0.3,0.3,0.5,0.5c0.1,0.2,0.2,0.4,0.3,0.6l-0.4,0.6C27.9,82.7,27.8,82.7,27.7,82.6
	C27.8,82.7,27.8,82.7,27.7,82.6L27.7,82.6z"/>
<path class="st4" d="M29.2,86.2c-0.2,0.1-0.4,0.1-0.6,0.1c-0.2,0-0.4-0.1-0.6-0.2c-0.3-0.2-0.6-0.5-0.7-0.9
	c-0.1-0.4,0.1-0.8,0.3-1.2l1.2-2l0.7,0.5l-1.2,2c-0.1,0.2-0.2,0.4-0.2,0.6c0.1,0.2,0.2,0.3,0.3,0.5c0.2,0.1,0.5,0.2,0.7,0.1
	c0.3-0.1,0.5-0.3,0.7-0.6l1.1-1.7l0.7,0.5l-2,3.2L29,86.6L29.2,86.2L29.2,86.2z"/>
<path class="st4" d="M33.9,85.8c0,0-0.1-0.2-0.2-0.2c-0.1-0.1-0.2-0.1-0.3-0.2c-0.1-0.1-0.2-0.1-0.3-0.1c-0.1,0-0.2,0-0.3,0.1
	c-0.1,0.1-0.2,0.1-0.3,0.2c-0.1,0.1-0.2,0.2-0.3,0.4l-0.9,1.8l-0.8-0.4l1.7-3.4l0.8,0.4l-0.2,0.3c0.2-0.1,0.3-0.1,0.5-0.1
	c0.2,0,0.3,0,0.5,0.1c0.1,0.1,0.2,0.1,0.3,0.2c0.1,0.1,0.1,0.1,0.2,0.2L33.9,85.8C34,85.8,34,85.8,33.9,85.8
	C33.9,85.8,33.9,85.8,33.9,85.8L33.9,85.8z"/>
<path class="st4" d="M35.5,85.6L34,89.1l-0.8-0.3l1.5-3.5L35.5,85.6z M35,84.3c0,0,0.2-0.2,0.3-0.3c0.1-0.1,0.3-0.1,0.4,0
	c0.1,0,0.1,0.1,0.2,0.1c0.1,0.1,0.1,0.1,0.1,0.2c0,0.1,0.1,0.1,0.1,0.2c0,0.1-0.1,0.3-0.2,0.3c-0.1,0.1-0.1,0.1-0.2,0.1
	c-0.1,0.1-0.3,0-0.4,0c-0.1,0-0.1-0.1-0.2-0.1c-0.1-0.1-0.1-0.1-0.1-0.2c0-0.1-0.1-0.1-0.1-0.2C35,84.4,35,84.3,35,84.3L35,84.3z"/>
<path class="st4" d="M37.1,89.4L37.1,89.4L37.1,89.4L36.9,90c-0.1,0-0.3,0.1-0.4,0c-0.2,0-0.3-0.1-0.5-0.1c-0.3-0.1-0.5-0.2-0.6-0.5
	c-0.1-0.2-0.1-0.5,0-0.8l0.8-2.1l-0.6-0.2l0.2-0.6l0.6,0.2l0.3-0.8l0.8,0.3l-0.3,0.8l0.9,0.3l-0.2,0.6L37,86.8l-0.8,2
	c0,0-0.1,0.2,0,0.3c0,0.1,0.1,0.1,0.2,0.2c0.1,0,0.2,0.1,0.3,0.1C36.8,89.4,36.9,89.4,37.1,89.4L37.1,89.4z"/>
<path class="st4" d="M38.6,90.5l-0.5-3.9l0.9,0.2l0.2,2.6v0.4l0.2-0.3l1.5-2.1l0.9,0.2l-2.7,3.5c-0.1,0.2-0.2,0.3-0.4,0.4
	c-0.1,0.1-0.2,0.2-0.4,0.3C38.2,91.9,38,92,37.9,92c-0.2,0-0.3,0-0.5-0.1c-0.1,0-0.2-0.1-0.3-0.1c-0.1,0-0.2-0.1-0.2-0.1l0.2-0.6
	c0,0,0.1-0.1,0.1,0c0.1,0.1,0.2,0.2,0.4,0.2c0.1,0,0.2,0,0.3,0c0.1-0.1,0.3-0.2,0.3-0.3L38.6,90.5L38.6,90.5z"/>
<path class="st4" d="M46,86.8l1.2,5.4l-0.9-0.1L46,90.6l-1.8-0.2l-0.6,1.3l-0.9-0.1l2.4-4.9L46,86.8z M45.4,87.5L45.3,88l-0.8,1.7
	l1.5,0.2L45.5,88L45.4,87.5z"/>
<path class="st4" d="M50.6,89.5c-0.2-0.2-0.4-0.3-0.6-0.4C49.7,89,49.5,89,49.3,89c-0.1,0-0.3,0-0.4,0.1c-0.2,0.2-0.2,0.4,0,0.6
	c0.1,0.1,0.2,0.1,0.3,0.2l0.5,0.2c0.1,0.1,0.3,0.1,0.4,0.2c0.1,0.1,0.2,0.1,0.3,0.2c0.1,0.1,0.2,0.2,0.2,0.3
	c0.1,0.1,0.1,0.3,0.1,0.4c0,0.2-0.1,0.3-0.1,0.5c-0.1,0.1-0.2,0.3-0.3,0.3c-0.2,0.1-0.3,0.2-0.5,0.2c-0.2,0.1-0.4,0.1-0.6,0.1
	c-0.2,0-0.5-0.1-0.7-0.1c-0.2-0.1-0.5-0.2-0.7-0.3v-0.7c0,0,0-0.1,0.1-0.1h0.1c0.2,0.2,0.4,0.3,0.6,0.4c0.2,0.1,0.4,0.1,0.7,0.2
	c0.2,0,0.3,0,0.5-0.1c0.1-0.1,0.2-0.2,0.2-0.3c0-0.1,0-0.2-0.1-0.3c-0.1-0.1-0.2-0.2-0.4-0.2L49,90.5c-0.2-0.1-0.3-0.1-0.5-0.2
	c-0.1-0.1-0.2-0.2-0.3-0.3c-0.1-0.1-0.2-0.2-0.2-0.3C48,89.5,48,89.4,48,89.3c0-0.1,0.1-0.3,0.1-0.4c0.1-0.1,0.2-0.2,0.3-0.3
	c0.1-0.1,0.3-0.2,0.5-0.2c0.2-0.1,0.4-0.1,0.6-0.1c0.2,0,0.4,0.1,0.6,0.1c0.2,0.1,0.5,0.2,0.6,0.3v0.7c0,0,0,0.1-0.1,0.1
	C50.7,89.4,50.6,89.4,50.6,89.5L50.6,89.5z"/>
<path class="st4" d="M53.9,89.4c-0.2-0.1-0.4-0.2-0.6-0.3c-0.2-0.1-0.4-0.1-0.6-0.1c-0.1,0-0.3,0-0.4,0.1c-0.1,0.2-0.1,0.4,0.1,0.6
	c0.1,0.1,0.2,0.1,0.3,0.1l0.5,0.2c0.2,0.1,0.3,0.1,0.4,0.2c0.1,0.1,0.2,0.1,0.3,0.2c0.1,0.1,0.2,0.2,0.2,0.3
	c0.1,0.1,0.1,0.3,0.1,0.4c0,0.2,0,0.3-0.1,0.5c-0.1,0.2-0.2,0.3-0.3,0.4c-0.1,0.1-0.3,0.2-0.5,0.3c-0.2,0.1-0.4,0.1-0.6,0.1
	c-0.2,0-0.5,0-0.8-0.1c-0.3-0.1-0.5-0.1-0.7-0.3v-0.7c0,0,0-0.1,0-0.1h0.1c0.2,0.1,0.4,0.2,0.7,0.3c0.2,0.1,0.4,0.1,0.7,0.1
	c0.2,0,0.3-0.1,0.5-0.1c0.1-0.1,0.2-0.2,0.1-0.3c0-0.1-0.1-0.2-0.1-0.2c-0.1-0.1-0.3-0.2-0.4-0.2l-0.4-0.1c-0.2-0.1-0.3-0.1-0.5-0.2
	c-0.1-0.1-0.2-0.1-0.3-0.2c-0.1-0.1-0.2-0.2-0.2-0.3c-0.1-0.1-0.1-0.3-0.1-0.4c0-0.1,0-0.3,0.1-0.4c0.1-0.1,0.2-0.2,0.3-0.3
	c0.1-0.1,0.3-0.2,0.4-0.2c0.2-0.1,0.4-0.1,0.6-0.1c0.2,0,0.4,0,0.6,0.1c0.2,0.1,0.5,0.1,0.7,0.3L53.9,89.4
	C54,89.3,54,89.4,53.9,89.4L53.9,89.4L53.9,89.4z"/>
<path class="st4" d="M57.5,91.1c-0.1,0.2-0.2,0.3-0.4,0.5c-0.2,0.1-0.4,0.2-0.6,0.2c-0.4,0.1-0.8,0-1.1-0.2
	c-0.3-0.3-0.5-0.7-0.5-1.1l-0.3-2.3l0.9-0.1l0.3,2.3c0,0.2,0.1,0.5,0.3,0.6c0.2,0.1,0.4,0.2,0.6,0.1c0.2,0,0.5-0.2,0.6-0.4
	c0.2-0.3,0.2-0.6,0.1-0.9l-0.3-2l0.9-0.1l0.6,3.7l-0.8,0.1L57.5,91.1L57.5,91.1z"/>
<path class="st4" d="M60.9,87.9c0,0-0.2-0.1-0.3-0.1c-0.1,0-0.2,0-0.3,0c-0.1,0-0.2,0.1-0.3,0.1c-0.1,0.1-0.2,0.2-0.2,0.3
	c-0.1,0.1-0.1,0.2-0.1,0.4c0,0.2,0,0.3,0,0.5l0.5,2l-0.8,0.2l-0.9-3.7l0.8-0.2l0.1,0.4c0.1-0.2,0.2-0.3,0.3-0.4
	c0.1-0.1,0.3-0.2,0.5-0.3c0.1,0,0.2-0.1,0.3-0.1c0.1,0,0.2,0,0.3,0l0.2,0.7L60.9,87.9L60.9,87.9L60.9,87.9z"/>
<path class="st4" d="M61.6,88C61.6,88,61.6,88,61.6,88c-0.1,0-0.1,0-0.1,0l-0.2-0.7c0.2-0.2,0.3-0.4,0.6-0.5
	c0.2-0.2,0.5-0.3,0.8-0.4c0.3-0.2,0.7-0.2,1.1,0c0.3,0.2,0.6,0.5,0.6,0.9l0.8,2.4l-0.7,0.2l-0.2-0.4c-0.1,0.2-0.2,0.4-0.3,0.5
	c-0.2,0.2-0.4,0.3-0.6,0.3c-0.3,0.1-0.7,0.1-1,0c-0.3-0.1-0.5-0.4-0.6-0.7c-0.1-0.3-0.1-0.6,0.1-0.9c0.2-0.3,0.5-0.6,0.8-0.7
	l0.9-0.5c-0.1-0.2-0.1-0.4-0.3-0.5c-0.2-0.1-0.3-0.1-0.5,0c-0.2,0.1-0.4,0.2-0.6,0.3C61.8,87.6,61.7,87.8,61.6,88L61.6,88z
	 M63.9,88.5L63.7,88L63,88.4c-0.2,0.1-0.3,0.2-0.5,0.4c-0.1,0.2-0.1,0.3,0,0.5c0,0.1,0.1,0.3,0.3,0.3c0.2,0.1,0.3,0,0.5,0
	c0.1,0,0.2-0.1,0.3-0.2c0.1-0.1,0.2-0.2,0.2-0.3c0.1-0.1,0.1-0.2,0.1-0.3C63.9,88.7,63.9,88.6,63.9,88.5z"/>
<path class="st4" d="M65.5,85.9c0.1-0.2,0.1-0.4,0.3-0.6c0.1-0.2,0.3-0.3,0.5-0.4c0.3-0.2,0.7-0.2,1.1-0.1c0.3,0.2,0.6,0.5,0.8,0.9
	l1,2.1l-0.8,0.3l-1-2.2c-0.1-0.2-0.2-0.4-0.4-0.5c-0.2-0.1-0.4-0.1-0.5,0.1c-0.1,0.1-0.2,0.1-0.3,0.2C66.1,85.9,66,86,66,86.1
	c0,0.1-0.1,0.3,0,0.4c0,0.2,0.1,0.3,0.1,0.5l0.8,1.9l-0.8,0.3l-1.6-3.4l0.8-0.3L65.5,85.9L65.5,85.9z"/>
<path class="st4" d="M71.2,83.7c-0.2-0.1-0.4-0.1-0.6-0.1c-0.2,0-0.4,0.1-0.6,0.2c-0.2,0.1-0.3,0.2-0.4,0.3
	c-0.1,0.1-0.1,0.3-0.2,0.4c0,0.2,0,0.3,0,0.5c0.1,0.2,0.1,0.3,0.2,0.5c0.2,0.3,0.4,0.5,0.7,0.7c0.3,0.1,0.7,0.1,0.9-0.1
	c0.2-0.1,0.3-0.2,0.5-0.4c0.1-0.2,0.2-0.4,0.2-0.6c0,0,0-0.1,0.1-0.1c0,0,0.1,0,0.1,0l0.4,0.6c-0.1,0.2-0.2,0.4-0.3,0.6
	c-0.2,0.2-0.3,0.3-0.5,0.4c-0.2,0.1-0.5,0.2-0.8,0.3c-0.2,0.1-0.5,0.1-0.7,0c-0.2-0.1-0.5-0.2-0.7-0.3c-0.2-0.2-0.4-0.4-0.6-0.7
	c-0.1-0.2-0.2-0.5-0.3-0.8c-0.1-0.5,0.1-1,0.4-1.4c0.2-0.2,0.4-0.4,0.6-0.5c0.2-0.1,0.4-0.2,0.6-0.2c0.2-0.1,0.4-0.1,0.6,0
	L71.2,83.7L71.2,83.7C71.3,83.7,71.2,83.7,71.2,83.7z"/>
<path class="st4" d="M75.1,82.9C75.1,82.9,75.1,82.9,75.1,82.9l0.1-0.1l0.4,0.5c0,0.2-0.1,0.5-0.3,0.6c-0.2,0.2-0.4,0.5-0.7,0.6
	C74.4,84.8,74.2,85,74,85c-0.2,0.1-0.5,0.1-0.7,0c-0.2-0.1-0.5-0.1-0.7-0.3c-0.2-0.2-0.4-0.3-0.6-0.6c-0.2-0.2-0.3-0.5-0.3-0.7
	c-0.1-0.2-0.1-0.5-0.1-0.7c0-0.2,0.1-0.5,0.2-0.7c0.1-0.2,0.3-0.4,0.5-0.6c0.4-0.3,0.9-0.4,1.3-0.3c0.5,0.1,0.9,0.5,1.2,0.9l0.2,0.2
	l-2.2,1.6c0.2,0.3,0.5,0.4,0.8,0.5c0.3,0,0.6-0.1,0.8-0.2c0.2-0.1,0.4-0.3,0.5-0.5C75,83.4,75.1,83.1,75.1,82.9z M72.5,83.3l1.5-1
	c-0.1-0.2-0.3-0.4-0.6-0.4c-0.2,0-0.5,0-0.6,0.2c-0.2,0.1-0.3,0.3-0.4,0.6C72.3,82.8,72.4,83.1,72.5,83.3L72.5,83.3z"/>
<path class="st4" d="M78.3,77c0.2,0.2,0.3,0.4,0.4,0.6c0.1,0.2,0.1,0.4,0.1,0.6c0,0.2-0.1,0.5-0.2,0.7c-0.1,0.2-0.3,0.5-0.5,0.6
	l-0.5,0.5l1.3,1.3L78.3,82l-3.6-3.7l1.1-1.1c0.2-0.2,0.4-0.4,0.7-0.5c0.2-0.1,0.4-0.2,0.7-0.2c0.2,0,0.4,0,0.6,0.1
	C78,76.8,78.2,76.9,78.3,77L78.3,77z M77.7,77.7c-0.2-0.2-0.4-0.3-0.6-0.3c-0.3,0.1-0.6,0.2-0.8,0.5l-0.4,0.4l1.3,1.4l0.3-0.3
	c0.2-0.2,0.4-0.5,0.5-0.8C78,78.2,77.9,77.9,77.7,77.7L77.7,77.7z"/>
<path class="st4" d="M80.4,75.5c0,0-0.2,0.1-0.2,0.1c-0.1,0.1-0.2,0.1-0.2,0.2c-0.1,0.1-0.1,0.2-0.1,0.3c0,0.1,0,0.2,0,0.3
	c0,0.1,0.1,0.2,0.1,0.4c0.1,0.1,0.2,0.3,0.3,0.3l1.6,1.3l-0.6,0.7l-2.9-2.4l0.5-0.6l0.3,0.2c0-0.2,0-0.3,0-0.5
	c0-0.2,0.1-0.3,0.2-0.5c0.1-0.1,0.1-0.2,0.2-0.2c0.1-0.1,0.2-0.1,0.2-0.1L80.4,75.5C80.4,75.4,80.4,75.4,80.4,75.5
	C80.4,75.5,80.4,75.5,80.4,75.5L80.4,75.5z"/>
<path class="st4" d="M84,75.7c-0.2,0.2-0.4,0.4-0.6,0.6c-0.2,0.1-0.4,0.2-0.7,0.2s-0.5,0-0.7-0.1c-0.2-0.1-0.5-0.2-0.7-0.3
	c-0.2-0.2-0.4-0.3-0.6-0.5c-0.1-0.2-0.2-0.4-0.3-0.6c-0.1-0.2-0.1-0.5,0-0.7c0.1-0.5,0.5-1,0.9-1.3c0.2-0.1,0.4-0.2,0.7-0.2
	c0.2,0,0.5,0,0.7,0.1c0.2,0.1,0.5,0.2,0.7,0.3c0.2,0.1,0.4,0.3,0.5,0.5c0.1,0.2,0.2,0.4,0.3,0.6c0.1,0.2,0.1,0.5,0,0.7
	C84.3,75.2,84.2,75.5,84,75.7L84,75.7z M83.4,75.3c0.2-0.2,0.2-0.5,0.2-0.8c-0.1-0.3-0.4-0.6-0.7-0.8c-0.3-0.2-0.6-0.3-0.9-0.4
	c-0.5,0.1-0.9,0.6-0.8,1.1v0.1c0.1,0.3,0.4,0.6,0.7,0.8c0.3,0.2,0.6,0.3,0.9,0.4C83.1,75.8,83.3,75.6,83.4,75.3L83.4,75.3z"/>
<path class="st4" d="M86,73.6c0.2-0.1,0.4-0.2,0.6-0.4c0.1-0.1,0.3-0.3,0.3-0.5c0.2-0.3,0.2-0.6,0.2-0.9c-0.1-0.3-0.3-0.5-0.6-0.6
	L86.1,71c0.1,0.2,0.1,0.4,0.1,0.6s-0.1,0.4-0.2,0.6c-0.2,0.4-0.5,0.7-1,0.9c-0.5,0.1-1,0-1.3-0.2c-0.2-0.1-0.5-0.3-0.7-0.5
	c-0.2-0.2-0.3-0.4-0.4-0.6c-0.1-0.2-0.1-0.4-0.1-0.6c0-0.2,0.1-0.5,0.2-0.7c0.1-0.2,0.2-0.3,0.4-0.5c0.2-0.1,0.3-0.2,0.5-0.2
	l-0.3-0.2l0.4-0.8l3,1.6c0.3,0.1,0.5,0.3,0.7,0.5c0.2,0.2,0.3,0.4,0.4,0.6c0.1,0.2,0.1,0.5,0,0.7c-0.1,0.3-0.2,0.6-0.3,0.8
	c-0.1,0.2-0.2,0.4-0.4,0.6c-0.1,0.2-0.3,0.3-0.5,0.4L86,73.6C86,73.7,85.9,73.6,86,73.6C85.9,73.6,85.9,73.5,86,73.6L86,73.6z
	 M85.1,70.4l-0.4-0.2c0,0-0.2-0.1-0.4-0.1c-0.1,0-0.2,0-0.4,0c-0.1,0-0.2,0.1-0.3,0.2c-0.1,0.1-0.2,0.2-0.2,0.3
	c-0.1,0.2-0.1,0.5,0,0.8c0.2,0.3,0.5,0.6,0.8,0.7c0.2,0.1,0.3,0.1,0.5,0.2c0.1,0,0.3,0,0.4,0c0.1,0,0.2-0.1,0.3-0.2
	c0.1-0.1,0.2-0.2,0.2-0.3c0.1-0.2,0.2-0.5,0.1-0.8C85.5,70.7,85.3,70.5,85.1,70.4L85.1,70.4z"/>
<path class="st4" d="M85.5,66.4c0,0-0.2,0.1-0.2,0.2c-0.1,0.1-0.1,0.2-0.2,0.3c0,0.1-0.1,0.2-0.1,0.3c0,0.1,0.1,0.2,0.1,0.3
	c0.1,0.1,0.1,0.2,0.2,0.3c0.1,0.1,0.2,0.2,0.4,0.2l1.9,0.8l-0.3,0.8l-3.5-1.5l0.3-0.8l0.4,0.1c-0.1-0.1-0.1-0.3-0.2-0.5
	c0-0.2,0-0.3,0.1-0.5c0-0.1,0.1-0.2,0.1-0.3c0.1-0.1,0.1-0.2,0.2-0.2l0.6,0.3C85.5,66.3,85.5,66.3,85.5,66.4
	C85.5,66.3,85.5,66.4,85.5,66.4L85.5,66.4z"/>
<path class="st4" d="M86,66C86,66,86,66,86,66C86,66,85.9,66,86,66l-0.8-0.1c-0.1-0.2-0.1-0.5-0.1-0.8c0-0.3,0.1-0.6,0.1-0.8
	c0.1-0.4,0.3-0.7,0.6-0.9c0.3-0.1,0.7-0.2,1.1,0l2.4,0.8l-0.2,0.7l-0.5-0.1c0.1,0.2,0.2,0.4,0.2,0.6c0,0.2,0,0.5-0.1,0.7
	c-0.1,0.3-0.3,0.6-0.6,0.8c-0.3,0.2-0.6,0.2-0.9,0.1c-0.3-0.1-0.6-0.3-0.7-0.6c-0.2-0.3-0.2-0.7-0.1-1.1l0.2-1.1h0
	c-0.2-0.1-0.3-0.1-0.5,0c-0.2,0.1-0.3,0.2-0.3,0.4c-0.1,0.2-0.1,0.4-0.1,0.6C85.8,65.4,85.9,65.7,86,66L86,66z M87.7,64.4l-0.4-0.1
	l-0.1,0.8c-0.1,0.2,0,0.4,0.1,0.6c0.1,0.2,0.2,0.3,0.4,0.3c0.1,0.1,0.3,0,0.4,0c0.1-0.1,0.2-0.2,0.2-0.4c0-0.1,0.1-0.2,0-0.4
	c0-0.1-0.1-0.2-0.1-0.3c-0.1-0.1-0.1-0.2-0.2-0.3C87.9,64.5,87.8,64.5,87.7,64.4L87.7,64.4z"/>
<path class="st4" d="M87,59.7c-0.4-0.3-0.6-0.8-0.5-1.3c0-0.2,0.1-0.4,0.2-0.6c0.1-0.1,0.2-0.3,0.4-0.3c0.2-0.1,0.3-0.1,0.5-0.1
	c0.2,0,0.5,0,0.7,0l2.2,0.3l-0.1,0.9l-2.3-0.3c-0.2-0.1-0.5-0.1-0.7,0c-0.2,0.1-0.3,0.2-0.3,0.4c0,0.1,0,0.2,0,0.3
	c0,0.1,0.1,0.2,0.2,0.3c0.1,0.1,0.2,0.2,0.3,0.2c0.1,0.1,0.3,0.1,0.4,0.1l2.1,0.3L90,60.8l-2.2-0.3c-0.3-0.1-0.5-0.1-0.8,0
	c-0.2,0.1-0.3,0.2-0.3,0.4c-0.1,0.2,0,0.5,0.2,0.6c0.2,0.2,0.5,0.3,0.8,0.3l2,0.3L89.6,63l-3.7-0.6l0.1-0.8h0.5
	c-0.2-0.1-0.3-0.3-0.3-0.5c-0.1-0.2-0.1-0.4-0.1-0.6c0-0.2,0.1-0.5,0.3-0.6C86.6,59.8,86.7,59.7,87,59.7L87,59.7z"/>
<path class="st5" d="M51.7,31.4c4.7,0,8.6,3.8,8.6,8.5c0,0.1,0,0.1,0,0.2c0,0.3-0.1,1.3-0.2,1.6c0.1,0,0.5-0.1,0.7-0.1
	c3.3,0,6,2.1,6,5.4c0,3.3-2.6,5.9-5.9,5.9H38c-3.3,0-5.9-2.6-5.9-5.9c0-2.8,2-5.2,4.7-5.8c-0.1-0.2-0.1-0.5-0.1-0.8
	c0-2.3,1.9-4.2,4.2-4.2c0.9,0,1.7,0.3,2.4,0.8C44.7,33.7,48,31.5,51.7,31.4 M51.6,29.7c-3.7,0-7.1,1.9-9.1,5.1
	c-3.2-0.9-6.5,1-7.3,4.2c-0.1,0.3-0.2,0.7-0.2,1c-3.9,1.6-5.7,6.1-4.1,10c1.2,2.9,4,4.7,7.1,4.7h22.9c4.2,0,7.6-3.5,7.6-7.7
	c0-3.7-2.7-6.8-6.3-7.5C61.8,34,57.2,29.7,51.6,29.7L51.6,29.7z"/>
<path class="st6" d="M51.7,31.4c4.7,0,8.6,3.8,8.6,8.5c0,0.1,0,0.1,0,0.2c0,0.3-0.1,1.3-0.2,1.6c0.1,0,0.5-0.1,0.7-0.1
	c3.3,0,6,2.1,6,5.4c0,3.3-2.6,5.9-5.9,5.9H38c-3.3,0-5.9-2.6-5.9-5.9c0-2.8,2-5.2,4.7-5.8c-0.1-0.2-0.1-0.5-0.1-0.8
	c0-2.3,1.9-4.2,4.2-4.2c0.9,0,1.7,0.3,2.4,0.8C44.7,33.7,48,31.5,51.7,31.4 M51.6,29.7c-3.7,0-7.1,1.9-9.1,5.1
	c-3.2-0.9-6.5,1-7.3,4.2c-0.1,0.3-0.2,0.7-0.2,1c-3.9,1.6-5.7,6.1-4.1,10c1.2,2.9,4,4.7,7.1,4.7h22.9c4.2,0,7.6-3.5,7.6-7.7
	c0-3.7-2.7-6.8-6.3-7.5C61.8,34,57.2,29.7,51.6,29.7L51.6,29.7z"/>
<linearGradient id="SVGID_00000143612442014092074970000006947431876257962412_" gradientUnits="userSpaceOnUse" x1="49.5023" y1="70.9032" x2="49.5023" y2="48.8095" gradientTransform="matrix(1 0 0 -1 0 102)">
	<stop  offset="0" style="stop-color:#F4FAFC"/>
	<stop  offset="1" style="stop-color:#84B5DB"/>
</linearGradient>
<path style="fill:url(#SVGID_00000143612442014092074970000006947431876257962412_);" d="M61.1,41.1c-0.1,0-0.3,0-0.4,0
	c0-0.3,0.1-0.6,0.1-0.9c0-5-4-9-9-9c-3.7,0-7,2.3-8.3,5.7c-2-1.3-4.6-0.8-6,1.1c-0.6,0.9-0.9,2.1-0.7,3.2c-3.3,0.6-5.4,3.8-4.7,7.1
	c0.6,2.8,3,4.8,5.9,4.8h23.2c3.3,0,6-2.7,6-6C67.1,43.8,64.4,41.1,61.1,41.1L61.1,41.1z"/>
<path class="st8" d="M32.7,44.1c1.6,0.2,3.2,0.2,4.9,0.2c9.6,0,18.1-2.7,22.7-6.6c-1.4-4.8-6.4-7.5-11.1-6.1
	c-2.7,0.8-4.8,2.7-5.8,5.3c-2-1.3-4.6-0.8-6,1.1c-0.6,0.9-0.9,2.1-0.7,3.2C35,41.6,33.6,42.6,32.7,44.1L32.7,44.1z"/>
<linearGradient id="SVGID_00000078006168012871775080000009070498574013792149_" gradientUnits="userSpaceOnUse" x1="61.7593" y1="63.7774" x2="73.1352" y2="30.0928" gradientTransform="matrix(1 0 0 -1 0 102)">
	<stop  offset="0" style="stop-color:#54A2D4"/>
	<stop  offset="0.12" style="stop-color:#478DBE"/>
	<stop  offset="0.35" style="stop-color:#285C8C"/>
	<stop  offset="0.57" style="stop-color:#152C53"/>
	<stop  offset="0.91" style="stop-color:#071831"/>
</linearGradient>
<path style="fill:url(#SVGID_00000078006168012871775080000009070498574013792149_);" d="M73.2,39.2c-3.6,0.3-7.1-0.8-9.8-3
	c-2.7,2.3-6.3,3.4-9.8,3c0,0-1.8,16.5,9.8,19.8C75,55.7,73.2,39.2,73.2,39.2z"/>
<path class="st10" d="M63.6,56.6C56.4,54.1,55.7,45,55.7,41c2.8-0.1,5.5-1,7.9-2.6c2.3,1.6,5.1,2.4,7.9,2.6
	C71.5,45,70.8,54.1,63.6,56.6z"/>
<path class="st11" d="M63.6,56.8L63.6,56.8c-7.3-2.5-8-11.8-7.9-15.7v-0.2h0.2c2.7-0.1,5.3-1,7.6-2.5l0.1-0.1l0.1,0.1
	c2.3,1.5,4.9,2.4,7.6,2.5h0.2v0.2C71.6,45,70.9,54.3,63.6,56.8L63.6,56.8L63.6,56.8z M56.1,41.3c0,3.9,0.7,12.7,7.5,15.1
	c6.8-2.4,7.5-11.2,7.5-15.1c-2.7-0.2-5.3-1-7.5-2.5C61.4,40.3,58.8,41.2,56.1,41.3z"/>
<linearGradient id="SVGID_00000120527092625238901970000018029720726987388849_" gradientUnits="userSpaceOnUse" x1="53.3131" y1="65.0315" x2="80.4398" y2="35.4343" gradientTransform="matrix(1 0 0 -1 0 102)">
	<stop  offset="0" style="stop-color:#1782C0"/>
	<stop  offset="0.18" style="stop-color:#1571AB"/>
	<stop  offset="0.56" style="stop-color:#09467A"/>
	<stop  offset="0.79" style="stop-color:#152C53"/>
	<stop  offset="1" style="stop-color:#071831"/>
</linearGradient>
<path style="fill:url(#SVGID_00000120527092625238901970000018029720726987388849_);" d="M65.9,45.1c0.1-1.5-1-2.7-2.5-2.8
	c-1.5-0.1-2.7,1-2.8,2.5c0,0.1,0,0.2,0,0.3h-1.1v5.5H67v-5.5H65.9z M63.3,43.1c1,0.1,1.8,0.9,1.8,2h-3.6
	C61.5,44.1,62.3,43.3,63.3,43.1z M62.6,49.4l0.3-1.8c-0.3-0.2-0.3-0.7-0.1-1c0.2-0.3,0.7-0.3,1-0.1c0.2,0.1,0.3,0.3,0.3,0.6
	c0,0.2-0.1,0.4-0.3,0.5l0.3,1.8H62.6z"/>
<path class="st13" d="M28.7,66.1c0-3.5,2-6,5.5-6c0.9,0,1.7,0.2,2.6,0.5c0.4,0.2,0.4-0.4,0.9-0.4c0.4,0,0.5,0.3,0.5,1v2
	c0,0.6-0.2,0.9-0.6,0.9c-0.4,0-0.5-0.4-0.7-0.9c-0.3-1.2-1.4-1.9-2.6-1.8c-1.5,0-3.1,1.6-3.1,4.6c0,3.1,1.5,4.5,3.1,4.5
	c1.3,0.1,2.5-0.6,3-1.8c0.1-0.5,0.3-0.9,0.7-0.9c0.4,0,0.6,0.2,0.6,0.9V70c0,1.3-2.3,2-4.2,2C30.7,71.9,28.7,69.6,28.7,66.1
	L28.7,66.1z"/>
<path class="st13" d="M39.5,63.5c0-1.6,1.6-3.4,4.6-3.4c0.9,0,1.7,0.2,2.5,0.5c0.2,0.1,0.3-0.4,0.8-0.4c0.4,0,0.5,0.3,0.5,1v1.9
	c0,0.6-0.2,0.9-0.6,0.9c-0.4,0-0.5-0.4-0.7-0.9c-0.3-1.1-1.3-1.8-2.5-1.8c-1.4,0-2.1,0.6-2.1,1.5c0,2.4,6.6,1.3,6.6,5.5
	c0,1.5-1.2,3.5-4.5,3.5c-3,0-4.6-0.9-4.6-2.2v-1.2c0-0.6,0.2-0.9,0.6-0.9c0.4,0,0.5,0.4,0.7,0.9c0.3,1,1,2.2,3.4,2.2
	c1.2,0,2-0.7,2-1.7C46.1,66.6,39.5,67.6,39.5,63.5L39.5,63.5z"/>
<path class="st13" d="M59.5,70.1c0.1,0.4,0.9,0.5,0.9,1c0,0.4-0.4,0.5-1,0.5h-2.6c-0.7,0-1-0.1-1-0.5c0-0.7,1.3-0.6,1.2-0.9
	l-0.8-2.5h-3.8l-0.8,2.4c-0.1,0.3,1.2,0.2,1.2,0.9c0,0.4-0.3,0.5-1,0.5h-1.5c-0.7,0-1.1-0.1-1.1-0.5c0-0.5,0.8-0.6,0.9-1l3.2-9.4
	c0.1-0.3,0.2-0.3,0.5-0.3h2c0.3,0,0.5,0.1,0.6,0.3L59.5,70.1L59.5,70.1z M52.9,66.4h2.9l-1.4-4.3L52.9,66.4z"/>
<path class="st13" d="M61.1,60.9c0-0.4,0.3-0.5,1-0.5h3.1c3.7,0,5.7,1,5.7,3.5c0,2.4-2,3.5-5.7,3.5h-0.8v2.8c0,0.5,1.4,0.2,1.4,1
	c0,0.4-0.4,0.5-1.5,0.5h-2.3c-0.7,0-1-0.1-1-0.5c0-0.5,0.9-0.5,0.9-1v-8.3C62,61.4,61.1,61.4,61.1,60.9L61.1,60.9z M64.5,61.6v4.5
	h0.8c2.1,0,3.3-1,3.3-2.2s-1.2-2.2-3.3-2.2H64.5z"/>
<path class="st10" d="M29.5,65.8c0-3.5,2-6,5.5-6c0.9,0,1.7,0.2,2.6,0.5c0.4,0.2,0.4-0.4,0.9-0.4c0.4,0,0.5,0.3,0.5,1v2
	c0,0.6-0.2,0.9-0.6,0.9c-0.4,0-0.5-0.4-0.7-0.9c-0.3-1.2-1.4-1.9-2.6-1.8c-1.5,0-3.1,1.6-3.1,4.6c0,3.1,1.5,4.5,3.1,4.5
	c1.3,0.1,2.5-0.6,3-1.8c0.1-0.5,0.3-0.9,0.7-0.9c0.4,0,0.6,0.2,0.6,0.9v1.2c0,1.3-2.3,2-4.2,2C31.5,71.6,29.5,69.2,29.5,65.8
	L29.5,65.8z"/>
<path class="st10" d="M40.3,63.1c0-1.6,1.6-3.4,4.6-3.4c0.9,0,1.7,0.2,2.5,0.5c0.2,0.1,0.3-0.4,0.8-0.4c0.4,0,0.5,0.3,0.5,1v1.9
	c0,0.6-0.2,0.9-0.6,0.9c-0.4,0-0.5-0.4-0.7-0.9C47,61.7,46,61,44.9,61c-1.4,0-2.1,0.6-2.1,1.5c0,2.4,6.6,1.3,6.6,5.5
	c0,1.5-1.2,3.5-4.5,3.5c-3,0-4.6-0.9-4.6-2.2v-1.2c0-0.6,0.2-0.9,0.6-0.9c0.4,0,0.5,0.4,0.7,0.9c0.3,1,1,2.2,3.4,2.2
	c1.2,0,2-0.7,2-1.7C46.8,66.3,40.3,67.3,40.3,63.1L40.3,63.1z"/>
<path class="st10" d="M60.3,69.8c0.1,0.4,0.9,0.5,0.9,1c0,0.4-0.4,0.5-1,0.5h-2.6c-0.7,0-1-0.1-1-0.5c0-0.7,1.3-0.6,1.2-0.9L57,67.4
	h-3.8l-0.8,2.4c-0.1,0.3,1.2,0.2,1.2,0.9c0,0.4-0.3,0.5-1,0.5H51c-0.7,0-1.1-0.1-1.1-0.5c0-0.5,0.8-0.6,0.9-1l3.2-9.4
	c0.1-0.3,0.2-0.3,0.5-0.3h2c0.3,0,0.5,0.1,0.6,0.3L60.3,69.8L60.3,69.8z M53.7,66.1h2.9l-1.4-4.3L53.7,66.1z"/>
<path class="st10" d="M61.9,60.6c0-0.4,0.3-0.5,1-0.5H66c3.7,0,5.7,1,5.7,3.5c0,2.4-2,3.5-5.7,3.5h-0.8v2.8c0,0.5,1.4,0.2,1.4,1
	c0,0.4-0.4,0.5-1.5,0.5h-2.3c-0.7,0-1-0.1-1-0.5c0-0.5,0.9-0.5,0.9-1v-8.3C62.7,61.1,61.8,61.1,61.9,60.6L61.9,60.6z M65.2,61.3v4.5
	H66c2.1,0,3.3-1,3.3-2.2c0-1.3-1.2-2.2-3.3-2.2H65.2z"/>
<path class="st14" d="M15.9,26.4l0.7,0.4l-3.2,5.7L12.7,32l2.3-4c0,0,0-0.1-0.1-0.1c-0.1-0.1-0.2-0.1-0.3-0.2l-1.9,3.6L12,30.9
	l2-3.6l-0.2-0.1l-2,3.5L11,30.2l2.5-4.3l0.9,0.5c0,0,0.2,0.1,0.3,0.2c0.1,0.1,0.2,0.1,0.3,0.2c0.1,0.1,0.2,0.2,0.3,0.2
	c0.1,0.1,0.1,0.1,0.2,0.2L15.9,26.4L15.9,26.4z M16.9,33.5l-1.6-0.9l2-3.5L17,28.9l-2,3.6l-0.7-0.4l2.5-4.4l1.6,0.9l-2,3.5l0.3,0.1
	l2.1-3.7l0.7,0.4L16.9,33.5L16.9,33.5z"/>
<path class="st14" d="M18.6,24.3l0.9,0.8l0.3-0.3c0.2-0.2,0.3-0.4,0.5-0.5c0.1-0.2,0.3-0.3,0.4-0.5c0.1-0.2,0.2-0.3,0.3-0.5
	c0.1-0.1,0.2-0.3,0.3-0.5l0.7,0.6c-0.1,0.2-0.1,0.2-0.2,0.4c-0.1,0.2-0.2,0.3-0.3,0.5c-0.1,0.2-0.3,0.3-0.4,0.5
	c-0.2,0.2-0.3,0.4-0.6,0.6l-0.9,1l-2.2-1.9l1.6-1.8l-0.8-0.7l-1.6,1.8l-0.7-0.6l2.3-2.6l2.1,1.8L18.6,24.3L18.6,24.3z M22,20.2
	L21.3,21l2.8,2.5l-0.6,0.7l-5.2-4.5l0.6-0.7l1.9,1.7l0.7-0.8L22,20.2L22,20.2z"/>
<path class="st14" d="M27.9,20.6l-1.4-1.8l-2.2,1.6l-0.6-0.8l5.2-3.9l0.6,0.8l-2.2,1.7l1.4,1.8L27.9,20.6L27.9,20.6z M24.2,14.8
	c0.3-0.2,0.5-0.4,0.9-0.5c0.2-0.1,0.5-0.2,0.8-0.2c0.2,0,0.5,0,0.7,0.1c0.2,0.1,0.4,0.2,0.5,0.4l0.2,0.2c0.1,0.2,0.2,0.4,0.2,0.6
	c0,0.2,0,0.5-0.1,0.7c-0.1,0.2-0.2,0.5-0.4,0.7c-0.2,0.2-0.5,0.5-0.7,0.7c-0.3,0.2-0.5,0.4-0.9,0.5c-0.2,0.1-0.5,0.2-0.8,0.2
	c-0.2,0-0.5,0-0.7-0.1c-0.2-0.1-0.4-0.2-0.5-0.4l-0.2-0.2c-0.1-0.2-0.2-0.4-0.2-0.6c0-0.2,0-0.5,0.1-0.7c0.1-0.2,0.2-0.5,0.4-0.7
	C23.7,15.3,23.9,15,24.2,14.8L24.2,14.8z M25.7,16.8c0.2-0.1,0.3-0.2,0.4-0.4c0.1-0.1,0.2-0.2,0.2-0.4c0.1-0.1,0.1-0.2,0.1-0.3
	c0-0.1,0-0.2-0.1-0.3l-0.1-0.2c0,0-0.2-0.1-0.2-0.2c-0.1,0-0.2,0-0.3,0c-0.2,0-0.3,0.1-0.4,0.1c-0.2,0.1-0.3,0.2-0.5,0.3
	c-0.2,0.1-0.3,0.2-0.4,0.4c-0.1,0.1-0.2,0.2-0.2,0.4C24,16.4,24,16.5,24,16.6c0,0.1,0,0.2,0.1,0.3l0.1,0.2c0,0,0.2,0.1,0.2,0.2
	c0.1,0,0.2,0,0.3,0c0.2,0,0.3-0.1,0.4-0.1C25.4,17,25.5,16.9,25.7,16.8z"/>
<path class="st14" d="M36.4,13.6l0.4,0.9L31,17.2l-0.4-0.9L36.4,13.6z M35.2,12.9l-4.4,2l-1.4-3l4.3-1.9l0.3,0.8l-3.3,1.5l0.6,1.4
	l3.4-1.6L35.2,12.9L35.2,12.9z"/>
<path class="st14" d="M41.1,10.8c0,0-0.1,0.2-0.1,0.3c-0.1,0.1-0.1,0.2-0.2,0.4c-0.1,0.2-0.3,0.4-0.4,0.6c-0.2,0.2-0.3,0.5-0.6,0.8
	L39,12.4c0.3-0.4,0.7-0.9,1-1.4c0.1-0.1,0.2-0.3,0.2-0.4c0.1-0.1,0.1-0.2,0.1-0.3c0-0.1,0-0.2,0-0.3c0-0.1,0-0.2-0.1-0.4L40,7.9
	l1.1-0.2l0.3,1.6c0,0,0.1,0.3,0.1,0.4c0.1,0.1,0.1,0.2,0.2,0.3c0.1,0.1,0.2,0.2,0.2,0.3c0.1,0.1,0.2,0.2,0.3,0.3
	c0.2,0.1,0.4,0.3,0.6,0.4c0.2,0.1,0.4,0.3,0.7,0.4L43,12.2c-0.3-0.2-0.6-0.3-0.8-0.5c-0.2-0.1-0.4-0.3-0.6-0.4
	c-0.1-0.1-0.2-0.2-0.3-0.3C41.2,11,41.1,10.9,41.1,10.8L41.1,10.8z M44.4,13.6l-0.8-4.1l-1.2,0.2l-0.2-1l1.2-0.2l-0.3-1.7l1-0.2
	l1.3,6.8L44.4,13.6z"/>
<path class="st14" d="M47,11.7V7.1h1v1.5h1.4V7.2h0.9v4.5L47,11.7L47,11.7z M48,10.7h1.4V9.6H48V10.7z M51.3,13.5V6.6h1.1v6.9H51.3z
	"/>
<path class="st14" d="M60.8,13.1l-0.2,1l-6.9-1.2l0.2-1L60.8,13.1z M57.7,10.3c0,0-0.2,0.2-0.3,0.3c-0.2,0.1-0.5,0.2-0.7,0.3
	c-0.2,0.1-0.5,0.2-0.8,0.3c-0.3,0.1-0.6,0.2-0.9,0.3l-0.6-0.9c0.3-0.1,0.6-0.2,0.9-0.3s0.6-0.2,0.8-0.3c0.2-0.1,0.3-0.2,0.5-0.2
	c0.1-0.1,0.2-0.2,0.3-0.3c0.1-0.1,0.2-0.2,0.2-0.3c0.1-0.2,0.1-0.3,0.1-0.5l0.1-0.8l1.5,0.2l-0.1,0.8c0,0.2-0.1,0.3-0.1,0.5
	c0,0.1,0,0.3,0.1,0.4c0.1,0.1,0.1,0.3,0.2,0.4c0.1,0.2,0.3,0.3,0.4,0.5c0.2,0.2,0.4,0.4,0.6,0.6c0.2,0.2,0.5,0.4,0.7,0.6l-0.8,0.6
	c-0.2-0.2-0.5-0.4-0.8-0.6c-0.2-0.2-0.5-0.4-0.7-0.6c-0.2-0.2-0.3-0.3-0.5-0.5C57.8,10.5,57.8,10.4,57.7,10.3L57.7,10.3z"/>
<path class="st14" d="M69.6,15.9l-1.6-0.8l-0.4,0.9l2.4,1.2l-0.5,1l-5.8-2.9l0.5-1l2.4,1.2l0.4-0.9l-1.6-0.8l1.6-3.2l0.9,0.5
	l-0.4,0.8l2.3,1.1l0.4-0.8l1,0.5L69.6,15.9L69.6,15.9z M66.7,13.4l2.3,1.1l0.3-0.6L67,12.8L66.7,13.4z"/>
<path class="st14" d="M72.9,15c0.2-0.3,0.6-0.5,1-0.6c0.2,0,0.5,0,0.7,0c0.3,0.1,0.5,0.2,0.7,0.3c0.2,0.2,0.4,0.3,0.5,0.6
	c0.1,0.2,0.2,0.4,0.2,0.6c0.1,0.4-0.1,0.8-0.3,1.1l-0.2,0.3c-0.1,0.1-0.2,0.3-0.4,0.4C75,17.9,74.8,18,74.6,18c-0.2,0-0.5,0-0.7,0
	c-0.5-0.1-1-0.5-1.3-0.9c-0.1-0.2-0.2-0.4-0.2-0.6c0-0.2,0-0.4,0-0.6c0.1-0.2,0.1-0.3,0.2-0.5L72.9,15L72.9,15z M74.9,16.5
	c0,0,0.1-0.2,0.1-0.2c0.1-0.2,0-0.4-0.1-0.5c-0.1-0.1-0.1-0.2-0.2-0.3c-0.1-0.1-0.2-0.1-0.3-0.2c-0.1,0-0.2,0-0.3,0
	c-0.1,0-0.2,0.1-0.2,0.1c-0.1,0.1-0.1,0.1-0.2,0.2l-0.1,0.2c0,0-0.1,0.2-0.1,0.2c0,0.1,0,0.2,0,0.3c0,0.1,0.1,0.2,0.1,0.3
	c0.1,0.1,0.1,0.2,0.2,0.3c0.1,0.1,0.2,0.1,0.3,0.2c0.1,0,0.2,0,0.3,0c0.1,0,0.2-0.1,0.2-0.1c0.1-0.1,0.1-0.1,0.2-0.2L74.9,16.5z
	 M72,19.3l3,2.2l-0.6,0.8l-3.9-2.8l1.4-1.9l0.8,0.6L72,19.3L72,19.3z M77.5,19.5l-0.8-0.6l-1.3,1.7L74.6,20l2.9-4l0.9,0.6l-1,1.4
	l0.8,0.6L77.5,19.5z"/>
<path class="st14" d="M79.7,20c0.1-0.1,0.3-0.2,0.5-0.2c0.2-0.1,0.4-0.1,0.6-0.1c0.2,0,0.4,0.1,0.6,0.2c0.5,0.3,0.8,0.7,1,1.2
	c0.1,0.2,0.1,0.5,0.1,0.7c0,0.2-0.1,0.4-0.2,0.6c-0.1,0.2-0.2,0.3-0.3,0.4l-0.3,0.2c-0.1,0.1-0.3,0.2-0.5,0.2
	c-0.2,0.1-0.4,0.1-0.6,0.1c-0.2,0-0.5-0.1-0.6-0.2c-0.2-0.1-0.4-0.3-0.6-0.5c-0.2-0.2-0.3-0.5-0.4-0.7c-0.1-0.2-0.1-0.5,0-0.7
	c0-0.2,0.1-0.4,0.2-0.6c0.1-0.2,0.2-0.3,0.3-0.4L79.7,20L79.7,20z M81.2,22.1c0,0,0.1-0.1,0.2-0.2c0.1-0.1,0.1-0.2,0.1-0.3
	c0-0.1,0-0.2,0-0.3c-0.1-0.2-0.2-0.4-0.5-0.6c-0.1-0.1-0.2-0.1-0.3-0.1c-0.1,0-0.2,0-0.3,0c-0.1,0-0.2,0.1-0.2,0.1L80,21
	c0,0-0.1,0.1-0.2,0.2c-0.1,0.1-0.1,0.2-0.1,0.3c0,0.1,0,0.2,0,0.3c0,0.1,0.1,0.2,0.2,0.3c0.1,0.1,0.2,0.2,0.3,0.2
	c0.1,0.1,0.2,0.1,0.3,0.1c0.1,0,0.2,0,0.3,0c0.1,0,0.2-0.1,0.2-0.1L81.2,22.1L81.2,22.1z M77.7,24l2.3,3l-0.8,0.6l-3-3.8l1.8-1.4
	l0.7,0.8L77.7,24L77.7,24z M80,25.4l3.9-3.1l0.7,0.9l-3.9,3.1L80,25.4z"/>
<path class="st14" d="M86.4,32.6L85.6,33l-3-5.7l0.8-0.4L86.4,32.6z M87.2,29.3c-0.1,0.1-0.2,0.2-0.3,0.4c0,0.2-0.1,0.5,0,0.7
	c0,0.2,0.1,0.4,0.1,0.6c0,0.2,0.1,0.5,0.1,0.9l-1-0.2c-0.1-0.3-0.1-0.6-0.1-0.9c0-0.3-0.1-0.6-0.1-0.9c0-0.2,0-0.3,0-0.5
	c0-0.1,0-0.3,0.1-0.4c-0.1,0-0.3-0.1-0.4-0.1c-0.1-0.1-0.3-0.2-0.4-0.3c-0.2-0.2-0.5-0.4-0.7-0.6c-0.2-0.2-0.4-0.4-0.6-0.6l0.4-0.9
	c0.2,0.2,0.4,0.4,0.6,0.6c0.2,0.2,0.3,0.3,0.5,0.4c0.2,0.2,0.4,0.3,0.6,0.4c0.1,0.1,0.3,0.1,0.5,0l0.2-0.1l-0.8-1.5l0.5-0.3l2.3,4.2
	l-0.5,0.3l-0.8-1.5L87.2,29.3L87.2,29.3z M85.8,26.5l0.8-0.4l2.3,4.2l-0.8,0.4 M83.9,30.2c0.2,0.3,0.3,0.6,0.4,1
	c0.1,0.3,0.1,0.6,0.2,0.9c0,0.2,0,0.5-0.1,0.6c-0.1,0.2-0.2,0.3-0.3,0.4l-0.2,0.1c-0.2,0.1-0.3,0.1-0.5,0.1
	c-0.2-0.1-0.4-0.1-0.6-0.3c-0.2-0.2-0.4-0.4-0.6-0.6c-0.2-0.3-0.4-0.6-0.6-0.9c-0.2-0.3-0.3-0.6-0.4-1c-0.1-0.3-0.1-0.6-0.2-0.9
	c0-0.2,0-0.4,0.1-0.6c0.1-0.2,0.2-0.3,0.3-0.4l0.2-0.1c0.2-0.1,0.3-0.1,0.5-0.1c0.2,0.1,0.4,0.1,0.6,0.3c0.2,0.2,0.4,0.4,0.6,0.6
	C83.5,29.6,83.7,29.9,83.9,30.2z M82.2,31.2c0.1,0.2,0.2,0.3,0.3,0.5c0.1,0.1,0.2,0.2,0.3,0.3c0.1,0.1,0.2,0.1,0.3,0.2
	c0.1,0,0.1,0,0.2,0l0.1-0.1c0,0,0.1-0.1,0.1-0.2c0-0.1,0-0.2,0-0.3c0-0.2-0.1-0.3-0.1-0.4c-0.1-0.3-0.3-0.7-0.5-1
	c-0.1-0.1-0.2-0.2-0.3-0.3c-0.1-0.1-0.2-0.1-0.3-0.2c-0.1,0-0.1,0-0.2,0l-0.1,0.1c0,0-0.1,0.1-0.1,0.2c0,0.1,0,0.2,0,0.3
	c0,0.2,0.1,0.3,0.1,0.4C82,30.8,82.1,31,82.2,31.2L82.2,31.2z"/>
</svg>
