<svg width="66" height="82" viewBox="0 0 66 82" fill="none" xmlns="http://www.w3.org/2000/svg">
<g clip-path="url(#clip0_1144_1449)">
<path opacity="0.4" d="M52.251 0H39.4645C38.1519 0 37.0879 1.06847 37.0879 2.3865V72.9432C37.0879 74.2613 38.1519 75.3297 39.4645 75.3297H52.251C53.5636 75.3297 54.6277 74.2613 54.6277 72.9432V2.3865C54.6277 1.06847 53.5636 0 52.251 0Z" fill="#7FA7F7"/>
<path opacity="0.4" d="M27.807 21.2756H15.0205C13.7079 21.2756 12.6439 22.3441 12.6439 23.6621V72.9313C12.6439 74.2494 13.7079 75.3178 15.0205 75.3178H27.807C29.1196 75.3178 30.1836 74.2494 30.1836 72.9313V23.6621C30.1836 22.3441 29.1196 21.2756 27.807 21.2756Z" fill="#7FA7F7"/>
<path d="M15.1631 50.0686H2.37667C1.06407 50.0686 0 51.1371 0 52.4551V79.6134C0 80.9314 1.06407 81.9999 2.37667 81.9999H15.1631C16.4757 81.9999 17.5398 80.9314 17.5398 79.6134V52.4551C17.5398 51.1371 16.4757 50.0686 15.1631 50.0686Z" fill="#5E93FE"/>
<path d="M39.1675 27.9578H26.381C25.0684 27.9578 24.0043 29.0262 24.0043 30.3443V79.6135C24.0043 80.9315 25.0684 82 26.381 82H39.1675C40.4801 82 41.5441 80.9315 41.5441 79.6135V30.3443C41.5441 29.0262 40.4801 27.9578 39.1675 27.9578Z" fill="#5E93FE"/>
<path d="M63.6233 39.0549H50.8369C49.5243 39.0549 48.4602 40.1234 48.4602 41.4414V79.6134C48.4602 80.9315 49.5243 81.9999 50.8369 81.9999H63.6233C64.9359 81.9999 66 80.9315 66 79.6134V41.4414C66 40.1234 64.9359 39.0549 63.6233 39.0549Z" fill="#5E93FE"/>
</g>
<defs>
<clipPath id="clip0_1144_1449">
<rect width="66" height="82" fill="white"/>
</clipPath>
</defs>
</svg>
