<svg width="150" height="150" viewBox="0 0 150 150" fill="none" xmlns="http://www.w3.org/2000/svg">
<circle cx="75" cy="75" r="75" fill="#296CF2"/>
<path d="M15 150L23.5 113L50 135.5L15 150Z" fill="#296CF2"/>
<path fill-rule="evenodd" clip-rule="evenodd" d="M75 111.667C95.2504 111.667 111.667 95.2508 111.667 75.0003C111.667 54.7499 95.2504 38.3337 75 38.3337C54.7495 38.3337 38.3333 54.7499 38.3333 75.0003C38.3333 95.2508 54.7495 111.667 75 111.667ZM75 104.334C58.7996 104.334 45.6666 91.2007 45.6666 75.0003C45.6666 58.8 58.7996 45.667 75 45.667C91.2003 45.667 104.333 58.8 104.333 75.0003C104.333 91.2007 91.2003 104.334 75 104.334ZM71.3333 93.3337V86.0003H78.6666V93.3337H71.3333ZM71.3333 78.667V56.667H78.6666V78.667H71.3333Z" fill="white"/>
</svg>
