<?xml version="1.0" encoding="utf-8"?>
<!-- Generator: Adobe Illustrator 26.5.0, SVG Export Plug-In . SVG Version: 6.00 Build 0)  -->
<svg version="1.1" id="레이어_1" xmlns="http://www.w3.org/2000/svg" xmlns:xlink="http://www.w3.org/1999/xlink" x="0px"
	 y="0px" viewBox="0 0 146 33" style="enable-background:new 0 0 146 33;" xml:space="preserve">
<style type="text/css">
	.st0{fill:#4F4F4F;}
	.st1{fill:#F25022;}
	.st2{fill:#FFB902;}
	.st3{fill:#80BA01;}
	.st4{fill:#19A0E5;}
</style>
<g>
	<path class="st0" d="M56.9,3.6h3.3l-6.7,22.3h-2.9l-4-16.6l-4,16.6h-2.9L32.8,3.6h3.3l4.8,17.2l4.3-17.2h2.4L52,20.8L56.9,3.6z
		 M64.6,25.9h-3V3.6h3V11c0.5-0.7,1.1-1.3,1.9-1.6s1.7-0.6,2.7-0.6c2,0,3.6,0.7,4.8,2c1.1,1.3,1.7,3.1,1.7,5.5v9.7h-3v-8.7
		c0-1.9-0.3-3.3-0.9-4.2c-0.6-0.9-1.6-1.4-2.9-1.4c-0.8,0-1.5,0.2-2.1,0.6c-0.6,0.4-1.1,0.9-1.5,1.6c-0.2,0.4-0.4,0.9-0.5,1.5
		c-0.1,0.6-0.1,1.6-0.1,2.9V25.9z M92.7,25.9v-2.1c-0.8,0.8-1.6,1.4-2.6,1.8s-2,0.6-3.1,0.6c-2.5,0-4.6-0.8-6.3-2.5
		c-1.7-1.7-2.5-3.8-2.5-6.3c0-1.2,0.2-2.3,0.6-3.4s1-2,1.8-2.8c0.8-0.9,1.8-1.5,2.8-2c1-0.4,2.2-0.6,3.4-0.6c1.2,0,2.2,0.2,3.2,0.6
		c1,0.4,1.9,1,2.6,1.9v-2h3.1v16.8H92.7z M81.4,17.4c0,1.7,0.6,3.1,1.7,4.3c1.1,1.2,2.5,1.7,4.1,1.7c1.5,0,2.8-0.6,3.9-1.7
		c1.1-1.2,1.7-2.5,1.7-4.1c0-1.7-0.6-3.1-1.7-4.2c-1.1-1.2-2.5-1.8-4-1.8c-1.6,0-3,0.6-4.1,1.7C81.9,14.4,81.4,15.8,81.4,17.4z
		 M104,25.9h-3.2V6.6h-5.7v-3h14.7v3H104V25.9z M122.2,25.9v-2.1c-0.8,0.8-1.6,1.4-2.6,1.8c-1,0.4-2,0.6-3.1,0.6
		c-2.5,0-4.6-0.8-6.3-2.5c-1.7-1.7-2.5-3.8-2.5-6.3c0-1.2,0.2-2.3,0.6-3.4s1-2,1.8-2.8c0.8-0.9,1.8-1.5,2.8-2c1-0.4,2.2-0.6,3.4-0.6
		c1.2,0,2.2,0.2,3.2,0.6c1,0.4,1.9,1,2.6,1.9v-2h3.1v16.8H122.2z M110.8,17.4c0,1.7,0.6,3.1,1.7,4.3c1.1,1.2,2.5,1.7,4.1,1.7
		c1.5,0,2.8-0.6,3.9-1.7c1.1-1.2,1.7-2.5,1.7-4.1c0-1.7-0.6-3.1-1.7-4.2s-2.5-1.8-4-1.8c-1.6,0-3,0.6-4.1,1.7
		C111.4,14.4,110.8,15.8,110.8,17.4z M131.7,23.9v7.5h-3V9.1h3.1v2.1c0.8-0.8,1.6-1.4,2.6-1.8c1-0.4,2-0.6,3.1-0.6
		c2.5,0,4.6,0.8,6.3,2.5c1.7,1.7,2.5,3.8,2.5,6.3c0,1.2-0.2,2.3-0.6,3.4c-0.4,1.1-1,2-1.8,2.8c-0.8,0.9-1.8,1.5-2.8,2
		s-2.2,0.6-3.4,0.6c-1.1,0-2.2-0.2-3.2-0.6C133.4,25.3,132.5,24.7,131.7,23.9z M131.6,17.4c0,1.7,0.6,3.1,1.7,4.3
		c1.1,1.2,2.5,1.8,4,1.8c1.6,0,2.9-0.6,4.1-1.7c1.1-1.1,1.7-2.5,1.7-4.1c0-1.7-0.6-3.1-1.7-4.3c-1.1-1.2-2.5-1.7-4.1-1.7
		c-1.5,0-2.8,0.6-3.9,1.7C132.2,14.5,131.6,15.8,131.6,17.4z"/>
	<rect x="-0.3" y="19" class="st1" width="3.3" height="6.9"/>
	<rect x="5.8" y="11.4" class="st2" width="3.3" height="14.5"/>
	<rect x="11.9" y="3.6" class="st3" width="3.3" height="22.3"/>
	<path class="st4" d="M21.4,3.6h5V7h-5v18.9H18V3.6H21.4z"/>
</g>
</svg>
