<svg xmlns="http://www.w3.org/2000/svg" width="146" height="33" viewBox="0 0 146 33">
    <g fill="none" fill-rule="evenodd" opacity=".5">
        <g>
            <g>
                <g>
                    <path d="M0 0L146 0 146 33 0 33z" transform="translate(-360 -5744) translate(0 5380) translate(360 364)"/>
                    <g fill="#FFF" fill-rule="nonzero">
                        <path d="M136.199 5.017c2.513 0 4.596.831 6.252 2.493 1.655 1.663 2.482 3.748 2.482 6.257 0 1.158-.206 2.261-.62 3.309-.414 1.048-1.01 1.98-1.787 2.796-.837.876-1.753 1.524-2.747 1.941-.994.418-2.127.628-3.398.628-1.13 0-2.178-.204-3.141-.612-.964-.408-1.85-1.02-2.657-1.837v7.39h-2.997V5.38h3.027v2.04c.767-.786 1.622-1.383 2.566-1.791.944-.408 1.95-.612 3.02-.612zm-49.974-.06c1.14 0 2.19.201 3.149.604.959.403 1.831 1.012 2.619 1.829V5.38h3.027v16.622h-3.027v-2.04c-.767.796-1.622 1.398-2.566 1.806-.944.408-1.95.612-3.02.612-2.503 0-4.582-.833-6.237-2.5-1.655-1.668-2.482-3.756-2.482-6.265 0-1.168.206-2.276.62-3.324.414-1.048 1.005-1.97 1.771-2.765.838-.877 1.754-1.524 2.748-1.942.994-.418 2.127-.627 3.398-.627zm29.144 0c1.14 0 2.19.201 3.149.604.959.403 1.831 1.012 2.618 1.829V5.38h3.028v16.622h-3.028v-2.04c-.766.796-1.622 1.398-2.565 1.806-.944.408-1.95.612-3.02.612-2.503 0-4.582-.833-6.237-2.5-1.655-1.668-2.482-3.756-2.482-6.265 0-1.168.206-2.276.62-3.324.414-1.048 1.005-1.97 1.771-2.765.838-.877 1.754-1.524 2.748-1.942.994-.418 2.127-.627 3.398-.627zM3.306 15.187v6.83H0v-6.83h3.306zM9.366 7.7v14.318H6.06V7.7h3.306zM36.036 0l4.783 16.955L45.119 0h2.39l4.285 16.955L56.562 0h3.255l-6.66 22.002h-2.892L46.3 5.576l-3.997 16.426h-2.845L32.78 0h3.255zm28.14 0v7.269c.485-.716 1.113-1.255 1.885-1.617.772-.363 1.673-.544 2.702-.544 2.018 0 3.587.644 4.707 1.934 1.12 1.29 1.68 3.098 1.68 5.425v9.535h-2.996v-8.568c0-1.844-.313-3.213-.939-4.11-.626-.897-1.584-1.345-2.876-1.345-.787 0-1.483.181-2.089.544-.605.363-1.09.886-1.453 1.572-.222.413-.38.916-.477 1.51-.096.595-.144 1.542-.144 2.842v7.555H61.18V0h2.997zm44.72 0v2.962h-5.668v19.04h-3.194V2.962h-5.667V0h14.529zm-93.47 0v22h-3.305V0h3.305zm11.02 0v3.3h-4.96V22h-3.305V0h8.264zm60.052 7.858c-1.575 0-2.92.554-4.034 1.662-1.115 1.109-1.673 2.463-1.673 4.065 0 1.683.558 3.093 1.673 4.231 1.114 1.14 2.48 1.708 4.094 1.708 1.474 0 2.773-.572 3.898-1.715 1.126-1.143 1.688-2.48 1.688-4.012 0-1.632-.558-3.03-1.673-4.194-1.115-1.163-2.44-1.745-3.973-1.745zm29.144 0c-1.575 0-2.92.554-4.035 1.662-1.114 1.109-1.672 2.463-1.672 4.065 0 1.683.558 3.093 1.672 4.231 1.115 1.14 2.48 1.708 4.095 1.708 1.474 0 2.773-.572 3.898-1.715 1.125-1.143 1.688-2.48 1.688-4.012 0-1.632-.558-3.03-1.673-4.194-1.115-1.163-2.44-1.745-3.973-1.745zm20.436 0c-1.474 0-2.773.572-3.898 1.715-1.126 1.143-1.688 2.48-1.688 4.012 0 1.642.553 3.043 1.658 4.201 1.105 1.159 2.424 1.738 3.958 1.738 1.565 0 2.907-.557 4.027-1.67s1.68-2.465 1.68-4.057c0-1.683-.555-3.093-1.665-4.231-1.11-1.14-2.468-1.708-4.072-1.708z" transform="translate(-360 -5744) translate(0 5380) translate(360 364) translate(0 5.5)"/>
                    </g>
                </g>
            </g>
        </g>
    </g>
</svg>
