<svg xmlns="http://www.w3.org/2000/svg" width="62.389" height="57.868" viewBox="0 0 62.389 57.868">
  <g id="그룹_69" data-name="그룹 69" transform="translate(-144.981 -131.867)">
    <path id="패스_5" data-name="패스 5" d="M174.391,182.634a2.148,2.148,0,1,0,2.148,2.148A2.148,2.148,0,0,0,174.391,182.634Z" transform="translate(-15.796 -29.414)" fill="#fff"/>
    <circle id="타원_2" data-name="타원 2" cx="2.313" cy="2.313" r="2.313" transform="translate(177.502 152.995)" fill="#fff"/>
    <path id="패스_6" data-name="패스 6" d="M199.024,131.867h-45.7a8.346,8.346,0,0,0-8.346,8.346v27.121a8.346,8.346,0,0,0,8.346,8.346h16.141l5.49,12.933s.378,1.122,1.293,1.122h0c.915,0,1.293-1.122,1.293-1.122l5.49-12.933h15.992a8.346,8.346,0,0,0,8.346-8.346V140.213A8.346,8.346,0,0,0,199.024,131.867Zm-34.442,23.974c-.026,4.957-5.152,5.1-5.152,5.1a4.285,4.285,0,0,1-3.1-1.314v.894h-3.733v-15.4c-.016,0-.017-.005,0-.009v.009c.231.037,3.733-.009,3.733-.009V151c.878-1.5,3.417-1.472,3.417-1.472C165.273,150.047,164.582,155.841,164.582,155.841Zm6.572-5.836v10.541H167.5V150.111c0-1.42-1.761-1.814-1.761-1.814v-3.68C171.574,144.853,171.154,150.005,171.154,150.005Zm8.662,10.942a5.658,5.658,0,1,1,6.125-5.639A5.9,5.9,0,0,1,179.815,160.947Zm20.018,0s.053,5.356-5.389,5.356h-1.656v-3.47h1s2.287.21,2.261-3.312c0,0-.447,1.426-3.654,1.426,0,0-4.548-.327-4.548-4.765V154.5a5.2,5.2,0,0,1,5.1-4.968,3.719,3.719,0,0,1,3.181,1.42v-1.131h3.707Z" transform="translate(0)" fill="#fff"/>
    <circle id="타원_3" data-name="타원 3" cx="2.261" cy="2.261" r="2.261" transform="translate(191.763 153.048)" fill="#fff"/>
  </g>
</svg>
