<svg xmlns="http://www.w3.org/2000/svg" width="54.232" height="54.234" viewBox="0 0 54.232 54.234">
  <path id="패스_9" data-name="패스 9" d="M1055.925,25.987h-46.22a3.958,3.958,0,0,0-4,3.91v46.41a3.96,3.96,0,0,0,4,3.913h46.22a3.967,3.967,0,0,0,4.012-3.913V29.9A3.965,3.965,0,0,0,1055.925,25.987ZM1021.792,72.2h-8.052V46.319h8.052Zm-4.024-29.417a4.665,4.665,0,1,1,4.662-4.665A4.663,4.663,0,0,1,1017.769,42.783ZM1051.919,72.2h-8.043V59.614c0-3-.052-6.862-4.18-6.862-4.185,0-4.824,3.271-4.824,6.648V72.2h-8.034V46.319h7.711v3.538h.11a8.45,8.45,0,0,1,7.611-4.18c8.144,0,9.649,5.359,9.649,12.329Z" transform="translate(-1005.705 -25.987)" fill="#fff"/>
</svg>
