<svg xmlns="http://www.w3.org/2000/svg" width="64.327" height="45.321" viewBox="0 0 64.327 45.321">
  <path id="패스_8" data-name="패스 8" d="M1167.761,767.52a8.083,8.083,0,0,0-5.687-5.724c-5.017-1.353-25.132-1.353-25.132-1.353s-20.116,0-25.132,1.353a8.083,8.083,0,0,0-5.687,5.724c-1.344,5.049-1.344,15.584-1.344,15.584s0,10.535,1.344,15.584a8.083,8.083,0,0,0,5.687,5.724c5.017,1.353,25.132,1.353,25.132,1.353s20.115,0,25.132-1.353a8.083,8.083,0,0,0,5.687-5.724c1.344-5.049,1.344-15.584,1.344-15.584S1169.105,772.569,1167.761,767.52Zm-37.4,25.148V773.539l16.813,9.565Z" transform="translate(-1104.778 -760.443)" fill="#fefefe"/>
</svg>
