<?xml version="1.0" encoding="utf-8"?>
<!-- Generator: Adobe Illustrator 26.3.1, SVG Export Plug-In . SVG Version: 6.00 Build 0)  -->
<svg version="1.1" id="_이어_1" xmlns="http://www.w3.org/2000/svg" xmlns:xlink="http://www.w3.org/1999/xlink" x="0px" y="0px"
	 viewBox="0 0 54 24.8" style="enable-background:new 0 0 54 24.8;" xml:space="preserve">
<style type="text/css">
	.st0{fill:#FF9700;}
	.st1{fill:#006ECD;}
	.st2{fill:#EF151E;}
</style>
<g>
	<g>
		<path class="st0" d="M27.3,10.2c-1.7-0.7-3.4-0.6-3.8,0.2c-0.4,0.8,0.2,2.6,1.4,4.2s2.9,1.5,3.8-0.2C29.6,12.7,29,10.9,27.3,10.2"
			/>
		<path class="st1" d="M18.7,10.7c1.5,1,3.2,1.3,3.8,0.7c0.6-0.7,0.4-2.6-0.4-4.4c-0.8-1.8-2.5-2.1-3.8-0.7
			C17,7.8,17.2,9.7,18.7,10.7"/>
		<path class="st2" d="M24.1,16.1c-0.2-1.8-1.1-3.3-2-3.3c-0.9,0-2.2,1.5-3,3.3c-0.8,1.8,0.1,3.3,2,3.3C23,19.4,24.3,17.9,24.1,16.1
			"/>
	</g>
	<g>
		<path d="M17.2,11.5c-0.3,0-0.5,0.2-0.5,0.5v0.3h0.7c0,0,0,2.4,0,2.6c0,0.3-0.1,0.7-0.5,0.9c-0.4,0.2-0.4,0.4-0.4,0.5
			c0,0.2,0,0.2,0.2,0.2c0.6-0.1,1.2-0.4,1.5-0.9c0.2-0.3,0.2-0.6,0.2-1.2v-2.1c0.3,0,0.5-0.2,0.5-0.5v-0.3
			C18.9,11.5,17.2,11.5,17.2,11.5z"/>
		<path d="M16.4,14.7c0,0-0.6,0.8-1.7,0.8s-2-0.9-2-2.1s0.9-2.1,2-2.1s1.7,0.8,1.7,0.8s-0.3,0.3-0.6,0.3c-0.1,0-0.3-0.1-0.4-0.1
			c-0.2-0.1-0.4-0.2-0.7-0.2c-0.7,0-1.2,0.6-1.2,1.3s0.5,1.3,1.2,1.3c0.4,0,0.6-0.1,0.7-0.2c0.1-0.1,0.2-0.1,0.4-0.1
			C16.2,14.4,16.4,14.7,16.4,14.7L16.4,14.7z"/>
	</g>
</g>
<g>
	<path d="M41.7,11.5V15c0,0.3-0.2,0.4-0.5,0.4h-0.4V13l-0.7,2.1c-0.1,0.2-0.3,0.3-0.5,0.3h-0.2L38.8,13v2c0,0.3-0.2,0.4-0.5,0.4
		h-0.4v-3.5c0-0.3,0.2-0.4,0.5-0.4H39l0.9,2.6l0.8-2.4c0.1-0.2,0.2-0.2,0.4-0.2L41.7,11.5"/>
	<path d="M32.9,12.2c0.2,0,0.4-0.2,0.4-0.4v-0.4h-2.7c-0.2,0-0.4,0.2-0.4,0.4v3.6h2.7c0.2,0,0.4-0.2,0.4-0.4v-0.3h-1.9
		c-0.3,0-0.4,0.2-0.4,0.2v-1h1.8c0.2,0,0.4-0.2,0.4-0.4V13h-1.8c-0.3,0-0.4,0.2-0.4,0.2v-1L32.9,12.2L32.9,12.2z"/>
	<path d="M36.7,11.5c-0.2,0-0.3,0.2-0.3,0.4v2.1l-1.8-2.4h-0.4c-0.2,0-0.4,0.2-0.4,0.4v3.6h0.5c0.2,0,0.4-0.2,0.4-0.4v-2.3l2,2.6
		h0.2c0.2,0,0.4-0.2,0.4-0.4v-3.6L36.7,11.5L36.7,11.5z"/>
</g>
</svg>
