<?xml version="1.0" encoding="utf-8"?>
<!-- Generator: Adobe Illustrator 26.3.1, SVG Export Plug-In . SVG Version: 6.00 Build 0)  -->
<svg version="1.1" id="_이어_1" xmlns="http://www.w3.org/2000/svg" xmlns:xlink="http://www.w3.org/1999/xlink" x="0px" y="0px"
	 viewBox="0 0 71.6 14.2" style="enable-background:new 0 0 71.6 14.2;" xml:space="preserve">
<style type="text/css">
	.st0{fill:#1C6916;}
</style>
<g>
	<g>
		<path class="st0" d="M27.7,4.7c0.5,0,1,0,1.5,0c0-0.2-0.1-0.4-0.1-0.6c0.3,0,0.6,0.1,0.8,0.1c0,0.2,0,0.4,0,0.5c0.5,0,0.9,0,1.4,0
			c0,0.2,0,0.4,0,0.6c-0.2,0-0.4,0-0.6,0c0,0,0,0.1,0.1,0.1c0.6,0.8,0.3,1.8-0.6,2.2C30,7.6,29.9,7.9,30,8.1c0,0,0.1,0.1,0.1,0.1
			c0.5,0,1-0.1,1.5-0.1c0.2,0,0.3-0.1,0.3-0.3c0-1,0-1.9,0-2.9c0-0.3-0.1-0.5-0.1-0.8c0.3,0,0.6,0.1,0.9,0.1c0,0.8,0,1.6,0,2.5
			c0.3,0,0.6,0,0.9,0c0,0.2,0,0.4,0,0.6c-0.3,0-0.6,0-0.9,0c0,1,0,1.9,0,2.9c-0.2,0-0.5,0.1-0.7,0.1c0-0.6,0-1.1,0-1.6
			c-1.3,0.3-2.6,0.1-3.8,0.2c-0.2,0-0.3,0-0.3-0.2c0-0.1,0-0.3-0.1-0.4c0.5,0,1.1,0,1.6,0c0-0.1,0-0.3,0-0.4c0-0.1-0.1-0.1-0.2-0.1
			c-0.8-0.3-1.2-1.1-0.8-1.9c0.1-0.1,0.2-0.3,0.3-0.4c-0.2,0-0.3,0-0.4,0c-0.1,0-0.2,0-0.2-0.2C27.8,5,27.7,4.8,27.7,4.7z M30.4,6.2
			c0-0.5-0.4-0.9-0.8-0.9c-0.4,0-0.8,0.4-0.8,0.9c0,0.5,0.3,0.9,0.8,0.9C30,7.1,30.4,6.7,30.4,6.2z"/>
		<path class="st0" d="M46.8,4.7c0.4,0,0.8,0,1.2,0c0.4,0,0.8,0,1.3,0c0,0.1,0,0.3,0,0.5c-0.5,0-1,0-1.4,0c-0.2,0-0.3,0.1-0.3,0.3
			c0,0.6,0,1.1,0,1.7c0,0.1,0,0.2,0.2,0.2c0.5,0,1.1,0,1.6,0c0.1,0,0.1,0,0.2,0c0.2,0,0.4-0.1,0.3-0.4c0-0.4,0-0.7,0-1.1
			c0-0.6,0.1-1.2-0.2-1.8c0.4,0,0.7,0.1,0.9,0.1c0,0.7,0,1.3,0,2c0.2,0,0.3,0,0.4,0c0,0,0.1-0.1,0.1-0.1c0-0.6,0-1.1-0.1-1.7
			C51,4.3,51,4.2,50.9,4c0.3,0,0.6,0.1,0.9,0.1c0,2,0,4,0,6c-0.2,0-0.5,0.1-0.7,0.1c0-0.1,0-0.2,0-0.3c0-1,0-1.9,0-2.9
			c0-0.3,0-0.3-0.3-0.3c-0.1,0-0.2,0-0.3,0c0,1.1,0,2.2,0,3.3c-0.2,0-0.5,0.1-0.7,0.1c0-0.8,0-1.5,0-2.3C48.9,8.1,48,8,47.1,8
			c-0.2,0-0.3-0.1-0.3-0.3c0-0.5,0-1,0-1.5C46.8,5.7,46.8,5.2,46.8,4.7z"/>
		<path class="st0" d="M38.4,5.6c-0.3,0-0.7,0-1,0c0-0.2-0.1-0.4-0.1-0.6c0.4,0,0.8,0,1.2,0.1c-0.1-0.4-0.1-0.7-0.2-1.1
			c0.3,0,0.6,0.1,0.9,0.1c0,2,0,4,0,6c-0.2,0-0.5,0.1-0.7,0.1c0-0.9,0-1.8,0-2.7c-0.4,0-0.7,0-1.1,0c0-0.1-0.1-0.2-0.1-0.4
			c-0.1,0.1-0.1,0.1-0.1,0.2c-0.4,0.6-1,1-1.7,0.9c-0.7-0.1-1.3-0.6-1.5-1.4c-0.2-0.7,0-1.4,0.5-1.9c1-0.9,2.5-0.4,2.8,0.9
			c0.1,0.3,0,0.5,0,0.8c0,0.1,0,0.2,0.1,0.2c0.3,0,0.6,0,0.9,0.1C38.4,6.5,38.4,6.1,38.4,5.6z M36.8,6.3c-0.1-0.3-0.1-0.5-0.3-0.8
			C36.1,5,35.4,5,35,5.5c-0.4,0.5-0.3,1.2,0,1.7c0.4,0.5,1.1,0.5,1.5,0C36.6,7,36.7,6.7,36.8,6.3z"/>
		<path class="st0" d="M53.7,5.2c-0.3,0-0.5,0-0.7,0.1c0-0.2-0.1-0.4-0.1-0.6c0.5,0,1,0,1.5,0c0-0.2-0.1-0.4-0.1-0.6
			c0.3,0,0.6,0.1,0.8,0.1c0,0.2,0,0.4,0,0.5c0.5,0,0.9,0,1.4,0c0,0.2,0,0.4,0,0.6c-0.2,0-0.4,0-0.6,0c0.4,0.4,0.5,0.9,0.4,1.4
			c-0.1,0.3-0.3,0.6-0.6,0.8c-0.6,0.4-1.5,0.3-2-0.2C53.2,6.7,53,5.9,53.7,5.2z M53.9,6.2c0,0.5,0.3,0.8,0.8,0.8
			c0.4,0,0.8-0.4,0.8-0.9c0-0.5-0.4-0.9-0.8-0.9C54.3,5.3,53.9,5.7,53.9,6.2z"/>
		<path class="st0" d="M59,8.7c0.5,0,0.9,0,1.4,0c-0.1-0.7,0.1-1.4-0.2-2.1c0.3,0,0.6,0.1,0.9,0.1c0,0.7,0,1.4,0,2
			c0.3,0,0.6,0,0.9,0c-0.1-0.7,0.1-1.5-0.2-2.2c0.3,0,0.6,0.1,0.9,0.1c0,0.7,0,1.4,0,2.1c0.6,0,1.2,0,1.8,0c0,0.2,0,0.4,0,0.7
			c-0.2,0-0.3,0-0.5,0c-1.4,0-2.9,0-4.3,0c0,0,0,0,0,0c-0.2,0-0.4,0.1-0.5,0C59.1,9.2,59.1,8.9,59,8.7z"/>
		<path class="st0" d="M24.7,6.4c0,1-0.6,1.7-1.6,1.8c-0.5,0.1-0.9-0.1-1.3-0.5C21,7,21,5.7,21.8,5c0.5-0.5,1.1-0.6,1.8-0.4
			c0.7,0.3,1,0.8,1.1,1.5C24.7,6.2,24.7,6.3,24.7,6.4z M21.9,6.5c0,0.1,0.1,0.4,0.2,0.6c0.4,0.6,1.2,0.6,1.6,0
			c0.3-0.5,0.3-1.2-0.1-1.6c-0.4-0.5-1-0.5-1.4-0.1C22.1,5.7,22,6,21.9,6.5z"/>
		<path class="st0" d="M40.6,8.2c-0.1-0.2-0.3-0.3-0.4-0.5c0.9-0.5,1.7-1.2,1.5-2.4c-0.4,0-0.8,0-1.2,0c0-0.2-0.1-0.4-0.1-0.6
			c1.1,0,2.3,0,3.4,0c0,0.2,0,0.4,0,0.6c-0.4,0-0.8,0-1.2,0c-0.2,1.2,0.5,1.9,1.5,2.4c-0.1,0.2-0.3,0.4-0.4,0.6
			C43.3,8,43,7.8,42.8,7.6c-0.3-0.2-0.5-0.5-0.7-0.8C41.7,7.4,41.2,7.9,40.6,8.2z"/>
		<path class="st0" d="M45.1,6.6c0.3,0,0.6,0,0.9,0c0,0.2,0,0.4,0,0.6c-0.2,0-0.5,0-0.7,0c-0.2,0-0.3,0-0.2,0.2c0,0.8,0,1.6,0,2.4
			c0,0.2-0.1,0.3-0.3,0.3c-0.1,0-0.3,0-0.5,0.1c0-0.1,0-0.2,0-0.3c0-1.5,0-2.9,0-4.4c0-0.5,0.1-1-0.2-1.5c0.3,0,0.6,0.1,0.9,0.1
			C45.1,4.9,45.1,5.8,45.1,6.6z"/>
		<path class="st0" d="M59.7,5.1c0-0.2-0.1-0.4-0.1-0.6c1.5,0,3,0,4.5,0c0,0.1,0,0.1,0,0.2c0,1-0.1,1.9-0.1,2.9
			c0,0.1-0.1,0.2-0.2,0.2c-0.2,0-0.3,0.1-0.5,0.1c0-0.3,0.1-0.6,0.1-0.9c0-0.6,0-1.1,0.1-1.7c0-0.2-0.1-0.2-0.2-0.2
			c-0.8,0-1.6,0-2.4,0C60.4,5.1,60.1,5.1,59.7,5.1z"/>
		<path class="st0" d="M25.5,4c0.3,0,0.6,0.1,0.8,0.1c0,2,0,4,0,6c-0.2,0-0.5,0.1-0.7,0.1c0-0.1,0-0.2,0-0.3c0-1.6,0-3.2,0-4.8
			C25.6,4.7,25.6,4.4,25.5,4z"/>
		<path class="st0" d="M57,10.2c0-0.6,0-1.1,0-1.6c-1.2,0-2.3,0-3.5,0c0-0.2-0.1-0.4-0.1-0.6c1.4,0,2.8,0,4.3,0c0,0.7,0,1.4,0,2.1
			C57.5,10.1,57.3,10.1,57,10.2z"/>
		<path class="st0" d="M58.7,6.4c-0.2,0-0.5,0-0.7,0c-0.2,0-0.2,0-0.2,0.2c0,0.3,0,0.6,0,0.9c-0.2,0-0.5,0.1-0.7,0.1
			c0-0.6,0-1.2,0-1.8c0-0.6,0.1-1.2-0.2-1.8c0.3,0,0.6,0.1,0.9,0.1c0,0.6,0,1.2,0,1.8c0.3,0,0.6,0,0.9,0C58.7,6,58.7,6.2,58.7,6.4z"
			/>
	</g>
	<g>
		<path class="st0" d="M14.2,4.1c0.1,0,0.2,0,0.2,0c0,0,0,0,0,0c0.1,0,0.1,0,0.2,0c0,0,0,0.1,0.1,0.1c0,0.1,0,0.1,0.1,0.2l0,0l0.1,0
			l0,0c0-0.1-0.1-0.2-0.1-0.3c0,0,0.1-0.1,0.1-0.1c0.1,0,0.1-0.1,0.1-0.1l0.2,0.1l0-0.1l-0.5-0.3c0.1-0.1,0.1-0.1,0.2-0.2l0,0
			l-0.1-0.1l0,0c0,0-0.1,0.1-0.1,0.1c0,0-0.1,0.1-0.1,0.1l-0.3-0.2l0,0.1l0.3,0.1c0,0-0.1,0.1-0.1,0.1c-0.1,0-0.1,0.1-0.2,0.1l0,0
			l0.1,0.1l0,0c0,0,0,0,0,0c0,0,0,0,0,0c0,0,0,0,0.1,0.1c0,0,0,0.1,0,0.1c0,0-0.1,0-0.1,0c0,0,0,0-0.1,0c-0.1,0-0.1,0-0.2-0.1l0,0
			L14.2,4.1L14.2,4.1z M14.6,3.7C14.6,3.7,14.6,3.7,14.6,3.7c0.1-0.1,0.1-0.1,0.1-0.1l0.2,0.1c0,0-0.1,0.1-0.1,0.1
			c0,0-0.1,0.1-0.1,0.1C14.7,3.9,14.6,3.8,14.6,3.7C14.6,3.8,14.6,3.8,14.6,3.7z"/>
		<path class="st0" d="M12.7,9.8c0-0.1,0.1-0.2,0.1-0.2l0,0l0,0l-0.1-0.1l0,0l0,0c0,0-0.1,0.1-0.1,0.2c0,0.1,0,0.1,0,0.2
			c0,0,0.1,0.1,0,0.1c0,0.1-0.2,0.2-0.2,0.2l0,0l0,0l0.1,0.1l0,0l0,0c0,0,0.2-0.2,0.2-0.3c0-0.1,0-0.1,0-0.2
			C12.7,9.9,12.7,9.9,12.7,9.8z"/>
		<path class="st0" d="M10.8,4.1L10.8,4.1c0.1,0,0.1,0,0.1,0c0,0,0,0,0,0c0,0,0,0,0-0.1c0,0,0,0,0,0l0.2,0.3l0.1,0L11,3.8
			c0,0,0,0,0,0c0,0,0,0,0,0c0,0,0,0,0,0c0,0,0,0,0,0c0,0,0,0,0-0.1c0,0,0,0,0-0.1c0,0,0,0,0,0c0,0-0.1,0-0.1,0c0,0,0,0,0,0
			c0,0,0,0,0,0c0,0,0,0.1,0,0.2C10.9,4,10.9,4,10.8,4.1z"/>
		<path class="st0" d="M13.2,9.9C13.1,9.8,13.1,9.8,13.2,9.9c-0.1-0.2,0-0.2,0-0.2l0,0l0,0l-0.1,0l0,0l0,0c0,0-0.1,0.1-0.1,0.2
			C13,9.8,13,9.9,13.2,9.9c0,0.1,0,0.2,0,0.3c0,0.1-0.1,0.2-0.1,0.2l0,0l0,0l0.1,0l0,0l0,0c0-0.1,0.1-0.2,0.1-0.3
			C13.3,10,13.2,9.9,13.2,9.9z"/>
		<path class="st0" d="M12.6,7.6C12.6,7.6,12.6,7.5,12.6,7.6C12.6,7.5,12.6,7.5,12.6,7.6C12.6,7.5,12.6,7.5,12.6,7.6
			C12.5,7.5,12.5,7.5,12.6,7.6l-0.1-0.1v0.7h0.2c0,0-0.1,0-0.1,0.1c-0.1,0-0.1,0-0.2,0l0.1,0.1c0.1,0,0.1,0,0.2-0.1
			c0.1,0,0.1-0.1,0.1-0.1l-0.1-0.1h0.4L13,8.2c0.1,0,0.1,0.1,0.2,0.1c0,0,0.1,0,0.1,0.1l0.1-0.1c0,0-0.1,0-0.1-0.1
			c0,0-0.1,0-0.1-0.1h0.3V8h-0.9V7.6z"/>
		<path class="st0" d="M14.3,9.3h0.1v0h0.4v0H15V9h-0.6V9.3z M14.4,9.1h0.4v0.1L14.4,9.1L14.4,9.1z"/>
		<path class="st0" d="M14.9,8.7C14.9,8.7,14.9,8.7,14.9,8.7l0.2-0.1V8.6h-0.4V8.5H15V8.4h-0.3V8.4h0.4V8.2h-0.3c0,0,0,0,0-0.1
			c0,0,0,0,0-0.1l-0.1,0c0,0,0,0.1,0,0.1c0,0,0,0.1,0,0.1h-0.2l0.1,0c0,0,0-0.1,0-0.1c0,0,0-0.1,0-0.1l-0.1,0.1c0,0,0.1,0.1,0.1,0.1
			h-0.3v0.1h0.4v0.1h-0.3v0.1h0.3v0.1h-0.4v0.1h0.2c0,0,0,0,0,0.1c0,0,0,0,0,0.1h-0.2v0.1h1V8.8L14.9,8.7
			C14.9,8.8,14.9,8.8,14.9,8.7z M14.6,8.8L14.6,8.8c-0.1,0-0.1,0-0.1-0.1c0,0,0,0,0-0.1h0.1V8.8z M14.8,8.7
			C14.8,8.8,14.8,8.8,14.8,8.7l-0.1,0.1V8.7L14.8,8.7C14.8,8.7,14.8,8.7,14.8,8.7z"/>
		<path class="st0" d="M11.3,8.9h0.4V8.8h-0.4V8.7h0.4V8.6h-0.4V8.6h0.3V8.4h-0.3V8.4h0.4V8.3h-0.2c0,0,0-0.1,0-0.1c0,0,0,0,0-0.1
			l-0.1-0.1c0,0,0,0.1,0,0.1c0,0,0,0.1,0,0.1h-0.2l0.1,0c0,0,0-0.1,0-0.1c0,0,0,0,0-0.1L11,8.1c0,0,0,0,0,0.1c0,0,0,0,0,0.1h-0.3
			v0.1h0.4v0.1h-0.3v0.1h0.3v0.1h-0.4v0.1h0.4v0.1h-0.4v0.1h0.4c0,0.1-0.1,0.1-0.2,0.2c-0.1,0-0.2,0.1-0.3,0.1l0.1,0.1
			c0.1,0,0.2-0.1,0.2-0.1C11.1,9.1,11.1,9.1,11.3,8.9c0,0.1,0,0.2,0.1,0.2c0.1,0,0.2,0.1,0.3,0.1l0.1-0.1c-0.1,0-0.2,0-0.3-0.1
			C11.4,9.1,11.3,9,11.3,8.9z"/>
		<path class="st0" d="M12.9,9.8c0-0.1,0.1-0.2,0.1-0.2l0,0l0,0l-0.1,0l0,0l0,0c0,0-0.1,0.1-0.1,0.2c0,0.1,0,0.1,0.1,0.2
			c0,0,0.1,0.1,0.1,0.1c0,0.1-0.1,0.3-0.1,0.3l0,0l0,0l0.1,0l0,0l0,0c0,0,0.1-0.2,0.1-0.3C13.1,10,13,10,13,9.9
			C12.9,9.9,12.9,9.8,12.9,9.8z"/>
		<path class="st0" d="M12.6,8h0.6V7.5h-0.6V8z M12.8,7.6h0.4v0.1L12.8,7.6L12.8,7.6z M12.8,7.7h0.4v0.1L12.8,7.7L12.8,7.7z
			 M12.8,7.8h0.4v0.1L12.8,7.8L12.8,7.8z"/>
		<path class="st0" d="M12.6,7.4c0,0,0.1,0,0.1,0h0.5c0,0,0.1,0,0.1,0c0,0,0.1-0.1,0.1-0.1l-0.1-0.1c0,0,0,0.1-0.1,0.1
			c0,0-0.1,0-0.1,0h-0.4C12.7,7.3,12.7,7.3,12.6,7.4c0.1-0.1,0.1-0.1,0.1-0.1v0c0,0,0.1,0,0.1,0c0.1,0,0.2,0,0.2,0
			c0.1,0,0.2,0,0.2,0l0-0.1c-0.1,0-0.1,0-0.3,0c-0.1,0-0.2,0-0.3,0v0c0,0,0,0,0,0c0,0,0,0,0,0c0,0,0,0,0,0c0,0,0,0,0,0h0L12.6,7.4
			C12.5,7.4,12.6,7.4,12.6,7.4z"/>
		<path class="st0" d="M16.4,9.3L16,9l-0.1,0.1L16.4,9.3c0.1,0.2,0,0.3-0.1,0.4c-0.1,0.1-0.2,0.2-0.3,0l-0.4-0.3l-0.1,0.1L16,9.9
			c0.1,0.1,0.3,0.1,0.4-0.1C16.6,9.6,16.5,9.4,16.4,9.3z"/>
		<polygon class="st0" points="15.1,10 15.3,10.6 15.3,10.7 14.8,10.2 14.7,10.2 14.8,10.9 14.8,10.9 14.4,10.4 14.2,10.5 
			14.8,11.1 15,11 14.8,10.3 14.8,10.3 15.3,10.8 15.4,10.7 15.2,9.9 		"/>
		<path class="st0" d="M16.8,7.5c0,0,0.1,0.1,0.1,0.2c0,0.1-0.1,0.2-0.2,0.2c-0.1,0-0.2-0.1-0.2-0.2c0-0.1,0.1-0.2,0.2-0.2l0-0.1
			c-0.2,0-0.3,0.1-0.3,0.2c0,0.3,0.2,0.3,0.2,0.4c0.2,0,0.3-0.1,0.3-0.2c0-0.1,0-0.1,0-0.2l0.2,0.1L17.1,8l0.1,0l0.1-0.4L16.8,7.5
			L16.8,7.5z"/>
		<path class="st0" d="M9.6,7.3c0,1.8,1.5,3.3,3.3,3.3c1.8,0,3.3-1.5,3.3-3.3c0-1.8-1.5-3.3-3.3-3.3C11.1,3.9,9.6,5.4,9.6,7.3z
			 M12.9,10.5c-0.2,0-0.5,0-0.7-0.1l0.1-0.9l0,0l0.3-0.4l0.3,0.4l0.3-0.4l0.3,0.4l0,0.1l0,0l0,0l0.1,0.9
			C13.4,10.5,13.1,10.5,12.9,10.5z M12.9,8.8l-0.2,0.2l-0.1-0.1l-0.3,0.3l0-0.1c0-0.3,0.3-0.6,0.6-0.6c0.3,0,0.5,0.3,0.6,0.6l0,0.1
			l-0.3-0.3L13.1,9L12.9,8.8z M13,9.1l-0.1,0.1l-0.1-0.1L12.9,9L13,9.1z M15.2,9.5c-0.4,0.4-0.9,0.7-1.4,0.8l-0.1-1.2
			c0-0.4-0.3-0.7-0.7-0.7c-0.4,0-0.7,0.3-0.7,0.7l-0.1,1.2c-0.6-0.1-1.1-0.4-1.4-0.8c-0.5-0.5-0.8-1.1-0.9-1.8l0.6-0.3V7.2h0.4v0.3
			h0.7V7.2h0.4v0.2h0.6V7.4h-0.1V6.9c0.2,0,0.4,0,0.6,0c0.2,0,0.4,0,0.6,0v0.4h-0.1v0.1h0.7V7.2h0.4v0.3h0.7V7.2h0.4v0.3l0.5,0.2
			C16,8.4,15.7,9.1,15.2,9.5z M11.4,6.6c0,0-0.1,0-0.1,0V6.3c0,0,0,0,0,0c0,0,0.1,0,0.1-0.1V6.6z M12.1,5.4c0,0-0.1,0-0.1,0V4.7
			c0,0,0.1,0,0.1,0V5.4z M12.1,6v0.7c0,0-0.1,0-0.1,0V6H12.1z M12.1,5.7v0.2h-0.2V5.7H12.1z M11.9,6v0.7c0,0-0.1,0-0.1,0V6H11.9z
			 M11.9,5.4c0,0-0.1,0-0.1,0V5c0,0,0.1-0.1,0.1-0.2c0,0,0,0,0,0V5.4z M12.1,6.9v0.4h-0.2V7.1h-0.3V6.9C11.7,6.9,11.8,6.9,12.1,6.9z
			 M11.7,6.7c0,0-0.1,0-0.1,0V6.1c0,0,0,0,0,0c0,0,0.1-0.1,0.1-0.1h0V6.7z M12.5,5.7v0.2h-0.2V5.7H12.5z M12.2,5.4V4.8
			c0,0,0.1,0,0.1,0c0,0,0,0,0,0v0.7C12.3,5.4,12.3,5.4,12.2,5.4z M12.4,6v0.7c0,0-0.1,0-0.1,0V6H12.4z M12.9,4.8v0.7
			c0,0-0.1,0-0.1,0V4.8C12.8,4.8,12.8,4.8,12.9,4.8L12.9,4.8C12.8,4.8,12.8,4.8,12.9,4.8z M12.8,5.7v0.2h-0.2V5.7H12.8z M12.9,6v0.7
			c0,0-0.1,0-0.1,0V6H12.9z M12.6,6v0.7c0,0-0.1,0-0.1,0V6H12.6z M12.6,5.5c0,0-0.1,0-0.1,0V4.8c0,0,0.1,0,0.1,0V5.5z M13.2,5.7v0.2
			H13V5.7H13.2z M13.2,5.5V4.8c0,0,0.1,0,0.1,0v0.7C13.3,5.5,13.3,5.5,13.2,5.5z M13.3,6v0.7c0,0-0.1,0-0.1,0V6H13.3z M13.1,5.5
			c0,0-0.1,0-0.1,0V4.8c0,0,0,0,0,0v0c0,0,0.1,0,0.1,0V5.5z M13.1,6v0.7c0,0-0.1,0-0.1,0V6H13.1z M13.6,5.7v0.2h-0.2V5.7H13.6z
			 M13.4,5.4V4.8c0,0,0.1,0,0.1,0v0.7C13.5,5.4,13.5,5.4,13.4,5.4z M13.6,6v0.7c0,0-0.1,0-0.1,0V6H13.6z M14.2,6.9v0.2H14v0.2h-0.2
			V6.9C14,6.9,14.1,6.9,14.2,6.9z M14.2,6.7V6h0c0,0,0.1,0.1,0.1,0.1c0,0,0,0,0,0v0.5C14.2,6.7,14.2,6.7,14.2,6.7z M14.1,5.4
			c0,0-0.1,0-0.1,0V4.8c0,0,0,0,0,0C14,4.9,14,4.9,14.1,5V5.4z M14,6v0.7c0,0-0.1,0-0.1,0V6H14z M13.9,5.9h-0.2V5.7h0.2V5.9z
			 M13.8,5.4c0,0-0.1,0-0.1,0V4.7c0.1,0,0.1,0,0.1,0V5.4z M13.8,6v0.7c0,0-0.1,0-0.1,0V6H13.8z M12.9,4c0.9,0,1.7,0.4,2.3,0.9
			c0.6,0.6,0.9,1.4,0.9,2.3c0,0.1,0,0.2,0,0.3l-0.4-0.2V7.1H15v0.3h-0.4V7.1h-0.2V6.8c0.5-0.1,0.7-0.3,0.7-0.3l0,0l-0.1-0.3l0,0
			c0,0,0,0,0,0c-0.1,0-0.3,0-0.5-0.1c-0.1,0-0.1-0.1-0.2-0.1c0,0-0.1-0.1-0.1-0.1c0,0,0,0,0,0l0,0h-0.1V5.5c0.5-0.1,0.6-0.2,0.6-0.2
			l0,0L14.7,5l0,0c0,0-0.1,0-0.2,0c-0.1,0-0.2,0-0.3-0.1c0,0-0.1-0.1-0.1-0.2c0,0,0-0.1-0.1-0.1c0,0,0,0,0,0l0,0l0,0l0-0.1l-0.2,0
			v0.1c-0.1,0-0.2,0.1-0.4,0.1c-0.1,0-0.3,0-0.5,0c-0.2,0-0.4,0-0.5,0c-0.1,0-0.2,0-0.3,0c0,0-0.1,0-0.1,0V4.5l-0.2,0l0,0.1h0
			c0,0,0,0,0,0c0,0-0.1,0.1-0.1,0.2c0,0.1-0.1,0.1-0.1,0.1c0,0-0.2,0.1-0.3,0.1c-0.1,0-0.2,0-0.2,0l0,0l-0.1,0.2l0,0
			c0,0,0.1,0.1,0.6,0.2v0.4h-0.1l0,0c0,0,0,0,0,0c-0.1,0.1-0.2,0.2-0.3,0.2c-0.2,0.1-0.4,0.1-0.5,0.1c0,0,0,0,0,0l0,0l-0.1,0.3l0,0
			c0,0,0.3,0.2,0.7,0.3v0.3h-0.2v0.3h-0.4V7.1h-0.7v0.3L9.7,7.6c0-0.1,0-0.2,0-0.4c0-0.9,0.4-1.7,0.9-2.3C11.2,4.4,12,4,12.9,4z
			 M14.4,6.6V6.2c0,0,0.1,0,0.1,0.1c0,0,0,0,0,0v0.3C14.5,6.6,14.4,6.6,14.4,6.6z M14.6,6.6V6.3c0,0,0.1,0,0.1,0v0.2
			C14.7,6.6,14.7,6.6,14.6,6.6z M14.9,6.5V6.3c0.1,0,0.1,0,0.1,0l0,0.1C15,6.4,14.9,6.5,14.9,6.5z M14.2,5.4V5.1c0,0,0.1,0,0.1,0
			v0.2C14.3,5.3,14.2,5.3,14.2,5.4z M14.4,5.3V5.1c0,0,0,0,0,0c0.1,0,0.1,0,0.1,0l0,0C14.6,5.2,14.5,5.3,14.4,5.3z M11.7,5.1v0.3
			c0,0-0.1,0-0.1,0V5.1C11.6,5.1,11.6,5.1,11.7,5.1z M11.4,5.1v0.2c-0.1,0-0.1-0.1-0.2-0.1c0,0,0,0,0,0l0,0
			C11.3,5.2,11.3,5.1,11.4,5.1C11.4,5.1,11.4,5.1,11.4,5.1z M11.2,6.3v0.3c0,0-0.1,0-0.1,0V6.3C11.1,6.3,11.1,6.3,11.2,6.3z M11,6.3
			v0.2c0,0,0,0,0,0c-0.1,0-0.1-0.1-0.1-0.1c0,0,0,0,0,0l0-0.1C10.9,6.3,10.9,6.3,11,6.3z"/>
		<polygon class="st0" points="15.7,10.4 15.8,10.5 15.9,10.4 15.8,10.3 		"/>
		<path class="st0" d="M12.9,10.6c-0.3,0-0.5,0.2-0.5,0.5c0,0.3,0.2,0.5,0.5,0.5c0.3,0,0.5-0.2,0.5-0.5
			C13.4,10.9,13.2,10.6,12.9,10.6z M13.1,10.9c-0.1,0-0.2,0.1-0.2,0.2c0,0.1-0.1,0.2-0.2,0.2c-0.1,0-0.2-0.1-0.2-0.2
			c0-0.2,0.2-0.4,0.4-0.4c0.2,0,0.3,0.1,0.4,0.3C13.3,10.9,13.2,10.9,13.1,10.9z"/>
		<path class="st0" d="M10.9,11.1l0.1,0l0.2-0.2l0.3,0.1l0,0.3l0.1,0l0-0.9l-0.1,0L10.9,11.1z M11.5,10.6l0,0.4l-0.2-0.1L11.5,10.6
			L11.5,10.6z"/>
		<polygon class="st0" points="11,10.2 10.9,10.5 10.5,10.2 10.7,9.9 10.6,9.9 10.1,10.6 10.2,10.6 10.4,10.3 10.8,10.5 10.6,10.9 
			10.7,10.9 11.1,10.2 		"/>
		<path class="st0" d="M16,4.3C16.1,4.3,16.1,4.3,16,4.3C16.1,4.3,16.1,4.3,16,4.3C16.1,4.2,16.1,4.2,16,4.3c0-0.1,0-0.1,0-0.1l0,0
			l0,0l-0.2,0.2L15.5,4l-0.1,0.1l0.3,0.3c-0.1,0.1-0.2,0.1-0.3,0.1c0,0,0,0,0,0c-0.1,0-0.2,0-0.3-0.1l0,0l0,0.1l0,0
			c0.1,0,0.2,0.1,0.3,0.1c0,0,0,0,0.1,0c0.1,0,0.2,0,0.2,0c0,0.1,0,0.2,0,0.3c0,0,0,0,0,0.1c0,0.1,0,0.2,0,0.2l0,0l0.1,0l0,0
			c0-0.1,0-0.1,0-0.2c0,0,0-0.1,0-0.1c0-0.1,0.1-0.3,0.1-0.3l0.3,0.3l0.1-0.1l-0.3-0.3L16,4.3C16,4.3,16,4.3,16,4.3z"/>
		<path class="st0" d="M12.9,2.6c-2.5,0-4.6,2.1-4.6,4.6c0,1.2,0.5,2.4,1.3,3.3c0.9,0.9,2,1.4,3.3,1.4c2.5,0,4.6-2.1,4.6-4.6
			S15.5,2.6,12.9,2.6z M16.1,10.4c-0.8,0.8-1.9,1.3-3.2,1.3c-1.2,0-2.3-0.5-3.2-1.3c-0.8-0.8-1.3-2-1.3-3.2c0-1.2,0.5-2.4,1.3-3.2
			c0.8-0.8,1.9-1.3,3.2-1.3c1.2,0,2.4,0.5,3.2,1.3c0.8,0.8,1.3,1.9,1.3,3.2C17.4,8.5,16.9,9.6,16.1,10.4z"/>
		<path class="st0" d="M18.4,5.4L18.4,5.4L18.4,5.4c-0.2-0.7-0.5-1.3-0.9-1.7c-0.5-0.6-1-0.8-1.4-0.7c-0.1,0-0.2,0.1-0.3,0.2
			c0-0.1,0.1-0.2,0.1-0.3c0-0.5-0.4-0.9-1.1-1.2c-0.5-0.2-1.1-0.3-1.9-0.3c-0.7,0-1.4,0.1-1.9,0.3C10.4,2,9.9,2.4,9.9,2.9
			c0,0.1,0,0.2,0.1,0.3C9.9,3.1,9.8,3.1,9.7,3.1c-0.5-0.1-1,0.1-1.4,0.7C8,4.2,7.6,4.7,7.4,5.4l0,0l0,0C7.2,6.1,7.1,6.8,7.1,7.3
			c0,0.7,0.3,1.3,0.8,1.4c0.1,0,0.2,0,0.3,0C8.1,8.8,8,8.9,8,9c-0.3,0.4-0.2,1,0.2,1.6c0.3,0.5,0.7,0.9,1.3,1.4v0c0,0,0,0,0,0l0,0
			c0.6,0.4,1.2,0.7,1.7,0.8c0.7,0.2,1.3,0.1,1.6-0.3c0.1-0.1,0.1-0.2,0.1-0.3c0,0.1,0.1,0.2,0.1,0.3c0.3,0.4,0.9,0.5,1.6,0.3
			c0.5-0.1,1.1-0.4,1.7-0.8h0l0,0c0.6-0.4,1-0.9,1.3-1.4c0.4-0.6,0.5-1.2,0.2-1.6c-0.1-0.1-0.1-0.2-0.2-0.2c0.1,0,0.2,0,0.3,0
			c0.5-0.1,0.7-0.7,0.8-1.4C18.7,6.8,18.6,6.1,18.4,5.4z M17.9,8.5c-0.1,0.1-0.2,0.1-0.3,0.1c0,0-0.1,0-0.1,0c-0.1,0-0.1,0-0.1,0
			c0,0,0,0.1,0.1,0.1c0,0,0.1,0,0.1,0.1c0.1,0.1,0.2,0.2,0.2,0.3c0.3,0.5-0.1,1.2-0.9,1.6c-0.7,0.4-0.9,0.5-0.9,0.5
			c0,0-0.3,0.2-0.8,0.7c-0.7,0.7-1.4,0.8-1.9,0.4c-0.1-0.1-0.2-0.2-0.2-0.3c0,0,0-0.1,0-0.1c0-0.1,0-0.1-0.1-0.1c0,0,0,0-0.1,0.1
			c0,0,0,0.1,0,0.1c0,0.1-0.1,0.2-0.2,0.3c-0.4,0.4-1.2,0.3-1.9-0.4c-0.5-0.6-0.8-0.7-0.8-0.7c0,0-0.2-0.2-0.9-0.5
			c-0.8-0.4-1.2-1.1-0.9-1.6C8.1,9,8.2,8.9,8.3,8.8c0,0,0.1,0,0.1-0.1c0,0,0.1-0.1,0.1-0.1c0,0-0.1,0-0.1,0c0,0-0.1,0-0.1,0
			c-0.1,0-0.2,0-0.3-0.1C7.4,8.3,7.3,7.5,7.7,6.7c0.4-0.7,0.4-1,0.4-1c0,0,0.1-0.3,0.2-1.1c0.1-0.9,0.7-1.5,1.3-1.4
			c0.1,0,0.2,0.1,0.3,0.1c0,0,0.1,0,0.1,0.1c0,0,0.1,0.1,0.1,0c0,0,0-0.1,0-0.1c0,0,0-0.1,0-0.1c0-0.1,0-0.2,0-0.4
			c0.1-0.6,0.8-0.9,1.7-0.8c0.8,0.1,1.1,0.1,1.1,0.1c0,0,0.3,0,1.1-0.1c0.9-0.2,1.6,0.2,1.7,0.8c0,0.1,0,0.2,0,0.4c0,0,0,0.1,0,0.1
			c0,0,0,0.1,0,0.1c0,0,0.1,0,0.1,0c0,0,0.1-0.1,0.1-0.1c0.1-0.1,0.2-0.1,0.3-0.1c0.6-0.1,1.1,0.5,1.3,1.4c0.1,0.8,0.2,1.1,0.2,1.1
			c0,0,0.1,0.3,0.4,1C18.5,7.5,18.4,8.3,17.9,8.5z"/>
		<path class="st0" d="M16.7,5.9c-0.2,0-0.2,0.2-0.2,0.3c0,0.1,0.1,0.2,0.1,0.2l0,0c-0.2,0-0.3,0-0.4-0.1c0-0.1,0-0.1,0.1-0.2l0-0.1
			c-0.1,0-0.2,0.1-0.2,0.3c0.1,0.3,0.5,0.2,0.5,0.2c0.1,0,0.4-0.1,0.3-0.4C17,5.9,16.9,5.8,16.7,5.9z M17,6.1c0,0.1,0,0.2-0.1,0.2
			c-0.2,0-0.2-0.1-0.2-0.1c0-0.1,0-0.2,0.1-0.2C16.9,5.9,17,6,17,6.1z"/>
		<path class="st0" d="M16,5.7l0,0.1l0.8-0.3l0-0.1c-0.1,0-0.2,0-0.2-0.1l-0.1,0l0.1,0.2L16,5.7z"/>
		<path class="st0" d="M16.6,6.6l0,0.4l-0.2,0l0,0.1l0.2,0l0,0.1l0.1,0l0-0.1l0.6,0l0-0.1l-0.6-0.4L16.6,6.6z M17,7l-0.4,0l0-0.3
			L17,7L17,7z"/>
		<polygon class="st0" points="16.6,9.3 16.7,9.3 16.8,9.2 16.7,9.1 		"/>
		<path class="st0" d="M11.5,3.5C11.5,3.6,11.4,3.6,11.5,3.5c-0.1,0.1-0.1,0.1-0.1,0.1c0,0,0,0-0.1,0.1l0-0.1c0,0,0,0,0-0.1
			c0,0,0,0,0,0c0,0,0,0,0,0c0,0-0.1,0-0.1,0l0,0l0.3,0.5c0,0,0,0,0.1,0c0,0,0.1,0,0.1,0l0.1,0c0.1,0,0.1-0.1,0.1-0.1
			c0,0,0-0.1,0-0.2c0,0,0,0,0,0c0,0-0.1,0-0.1,0c0,0,0,0.1,0,0.1c0,0,0,0-0.1,0.1L11.5,4c0,0,0,0,0,0c0,0,0,0,0,0l-0.1-0.2
			c0,0,0,0,0.1-0.1C11.5,3.7,11.5,3.7,11.5,3.5C11.5,3.6,11.5,3.6,11.5,3.5c0.1,0,0.1,0,0.1,0C11.6,3.6,11.6,3.6,11.5,3.5
			C11.5,3.5,11.5,3.5,11.5,3.5C11.5,3.5,11.5,3.5,11.5,3.5z"/>
		<path class="st0" d="M10.7,3.7l0.2-0.1l0,0.1l0.1,0l0-0.1l0.2-0.1l0,0.1l0.1,0l0-0.1l0.1,0l0.2-0.1l0-0.1l-0.3,0.1l0-0.1
			c0,0,0,0,0,0c0,0,0,0,0,0c0,0,0,0,0,0c0,0,0,0-0.1,0l0,0l0.1,0.1l-0.2,0.1l0,0c0,0,0,0,0,0c0,0,0,0,0,0c0,0,0,0,0,0c0,0,0,0-0.1,0
			l0.1,0.1L10.7,3.7L10.7,3.7z"/>
		<path class="st0" d="M10.4,4.2C10.4,4.2,10.4,4.2,10.4,4.2L10.4,4.2L10.4,4.2c0.1,0.1,0.1,0,0.1,0C10.6,4.1,10.5,4.1,10.4,4.2
			l-0.2-0.3c0,0,0,0,0,0c0,0,0,0,0,0c0,0,0,0,0,0c0,0,0,0-0.1,0L10.4,4.2C10.4,4.2,10.4,4.2,10.4,4.2z"/>
		<polygon class="st0" points="10.4,9.7 9.8,10 9.8,10 10.2,9.4 10.1,9.3 9.5,9.6 9.5,9.6 9.9,9.1 9.8,9 9.4,9.7 9.4,9.8 10.1,9.5 
			10.1,9.5 9.7,10 9.7,10.1 10.5,9.8 		"/>
		<path class="st0" d="M12.9,3.9c0.3,0,0.5-0.2,0.5-0.5c0-0.3-0.2-0.5-0.5-0.5c-0.3,0-0.5,0.2-0.5,0.5C12.4,3.6,12.6,3.9,12.9,3.9z
			 M12.9,2.9c0.3,0,0.5,0.2,0.5,0.5c0,0.3-0.2,0.5-0.5,0.5c-0.3,0-0.5-0.2-0.5-0.5C12.5,3.1,12.7,2.9,12.9,2.9z"/>
		<path class="st0" d="M10.4,4.2L10.1,4c0,0,0,0,0,0c0,0,0,0,0,0c0,0,0,0,0,0c0,0,0,0-0.1,0L10.4,4.2L10.4,4.2z"/>
		<path class="st0" d="M12.7,3.4h0.2v0.2c0,0,0,0,0,0.1c0,0,0,0.1,0,0.1c0,0,0,0,0,0l0,0c0,0,0,0,0,0c0,0,0,0,0-0.1c0,0,0,0,0-0.1
			V3.4h0.2c0,0,0,0,0.1,0c0,0,0.1,0,0.1,0c0,0,0,0,0,0l0,0c0,0,0,0,0,0c0,0,0,0-0.1,0c0,0,0,0-0.1,0H13V3.1c0,0,0,0,0-0.1
			c0,0,0-0.1,0-0.1c0,0,0,0,0,0l0,0c0,0,0,0,0,0c0,0,0,0,0,0.1c0,0,0,0,0,0.1v0.2h-0.2c0,0,0,0-0.1,0c0,0-0.1,0-0.1,0c0,0,0,0,0,0
			l0,0c0,0,0,0,0,0C12.5,3.4,12.6,3.4,12.7,3.4C12.6,3.4,12.7,3.4,12.7,3.4z"/>
		<path class="st0" d="M8.8,7.3c0.1,0,0.1,0,0.2-0.1c0,0.1,0.1,0.1,0.2,0.1c0,0,0.1,0,0.2-0.1c0.1-0.1,0.1-0.2,0.1-0.2
			c0-0.2-0.1-0.3-0.3-0.3c-0.1,0-0.2,0-0.2,0.1c0,0-0.1-0.1-0.2-0.1c-0.1,0-0.2,0.1-0.2,0.3C8.6,7.3,8.7,7.3,8.8,7.3z M9.2,6.9
			c0.1,0,0.2,0.1,0.2,0.2c0,0.1-0.1,0.2-0.2,0.2C9.1,7.3,9,7.2,9.1,7.1C9.1,7,9.1,6.9,9.2,6.9z M8.8,6.9C8.9,6.9,9,7,9,7.1
			c0,0.1-0.1,0.1-0.1,0.1c-0.1,0-0.1,0-0.1-0.1C8.7,6.9,8.8,6.9,8.8,6.9z"/>
		<path class="st0" d="M9.8,4.4C9.8,4.4,9.8,4.4,9.8,4.4L9.8,4.4L9.7,4.6l0.1,0.1l0.1-0.1c0,0,0,0.1,0,0.1c0,0,0,0.1,0,0.1l0.1,0
			c0,0,0-0.1,0-0.1c0,0,0-0.1,0-0.1l0.1,0.1l0.1-0.1l-0.1-0.1c0,0,0.1,0,0.2,0l0.1,0.1L10,4.9l0.1,0.1l0.2-0.2c0,0,0,0.1,0,0.2
			c0,0.1-0.1,0.1-0.1,0.2h0.1c0-0.1,0.1-0.1,0.1-0.2c0-0.1,0-0.1,0-0.2l0.1,0.1l0.1-0.1l-0.1-0.1c0.1,0,0.1,0,0.2,0
			c0.1,0,0.1,0,0.2-0.1l0-0.1c0,0-0.1,0.1-0.2,0.1c-0.1,0-0.1,0-0.2,0l0.2-0.2l-0.1-0.1l-0.3,0.3l0,0c0,0,0,0,0,0c0,0,0,0,0,0
			c0,0,0,0,0,0c0,0,0,0-0.1,0l0-0.1c0,0-0.1,0-0.1,0c0,0-0.1,0-0.1,0l0.1-0.1l-0.1-0.1L9.9,4.4L9.9,4.3c0,0,0-0.1,0.1-0.1
			c0,0,0,0,0-0.1l-0.1,0c0,0-0.1,0.1-0.1,0.1c0,0.1-0.1,0.1-0.1,0.1l0,0L9.8,4.4C9.8,4.5,9.8,4.4,9.8,4.4z"/>
		<polygon class="st0" points="9.4,9 9.5,9 9.3,8.6 9.5,8.5 9.7,8.9 9.8,8.9 9.6,8.3 8.8,8.7 9.1,9.2 9.2,9.2 9,8.7 9.2,8.6 		"/>
		<path class="st0" d="M8.9,7.9l0-0.2l0.6-0.1l0-0.1L8.6,7.6l0,0.1C8.8,7.7,8.8,7.8,8.9,7.9L8.9,7.9z"/>
		<path class="st0" d="M8.9,6.5c0.1,0,0.1,0,0.2-0.1c0,0.1,0.1,0.2,0.2,0.2c0,0,0.1,0,0.2,0c0.1-0.1,0.1-0.1,0.1-0.2
			c0-0.2-0.1-0.3-0.2-0.3C9.3,6,9.2,6,9.1,6.1c0,0,0-0.1-0.2-0.1C8.9,6,8.8,6,8.7,6.2C8.7,6.4,8.8,6.5,8.9,6.5z M9.2,6.3
			c0-0.1,0.1-0.2,0.2-0.1c0.1,0,0.1,0.1,0.1,0.2c0,0.1-0.1,0.2-0.2,0.1C9.2,6.5,9.1,6.4,9.2,6.3z M8.8,6.2c0-0.1,0.1-0.1,0.2-0.1
			c0.1,0,0.1,0.1,0.1,0.2c0,0.1-0.1,0.1-0.2,0.1C8.9,6.4,8.8,6.4,8.8,6.2z"/>
		<path class="st0" d="M9.3,5.9c0.1,0,0.2,0.1,0.3,0.1c0.1,0,0.2-0.1,0.2-0.2c0-0.1,0-0.2,0-0.2c0-0.1-0.1-0.1-0.2-0.2
			c-0.2-0.1-0.3,0-0.4,0.1c0,0.1,0,0.2,0,0.2l0,0C9.2,5.7,9,5.6,9.1,5.4c0-0.1,0.1-0.1,0.2-0.1l0-0.1C9.2,5.2,9,5.3,9,5.4
			C8.9,5.6,9.1,5.8,9.3,5.9z M9.4,5.6c0.1-0.1,0.2-0.1,0.2-0.1c0.1,0,0.2,0.1,0.1,0.2c0,0.1-0.2,0.1-0.2,0.1
			C9.4,5.8,9.3,5.7,9.4,5.6z"/>
	</g>
</g>
</svg>
