<?xml version="1.0" encoding="utf-8"?>
<!-- Generator: Adobe Illustrator 26.3.1, SVG Export Plug-In . SVG Version: 6.00 Build 0)  -->
<svg version="1.1" id="_이어_1" xmlns="http://www.w3.org/2000/svg" xmlns:xlink="http://www.w3.org/1999/xlink" x="0px" y="0px"
	 viewBox="0 0 66.2 20.4" style="enable-background:new 0 0 66.2 20.4;" xml:space="preserve">
<style type="text/css">
	.st0{fill:#F4B282;}
	.st1{fill:#EF986B;}
	.st2{fill:#E87127;}
	.st3{fill:#040000;}
</style>
<g>
	<path class="st0" d="M18.3,9.7C18.1,8.2,19.6,7,21.7,7c2.1,0,3.9,1.2,4,2.7c0.2,1.5-1.4,2.7-3.5,2.6C20.2,12.3,18.4,11.1,18.3,9.7
		 M26.1,10.1c-0.2-1.8-2.3-3.3-4.6-3.3s-4.2,1.4-4,3.3s2.3,3.3,4.6,3.3C24.5,13.4,26.3,11.9,26.1,10.1"/>
	<path class="st1" d="M22.5,13.4c-1.2,1.2-3.1,1.3-4.2,0.2s-1.1-3,0-4.2c1.2-1.2,3.1-1.3,4.2-0.2S23.7,12.2,22.5,13.4 M18.2,9.4
		c-1.4,1.4-1.4,3.6-0.1,4.9c1.3,1.3,3.5,1.2,4.9-0.3s1.4-3.6,0-4.9C21.7,7.9,19.6,8,18.2,9.4"/>
	<path class="st2" d="M18.3,4.8c2.4-0.9,4.8,0,5.4,2.1c0.5,2.1-1,4.5-3.4,5.4c-2.4,0.9-4.8,0-5.4-2.1C14.3,8.2,15.9,5.7,18.3,4.8
		 M16,5.6c-2.5,2-3.2,4.9-1.4,6.5c1.7,1.6,5.2,1.2,7.7-0.8c2.5-2,3.2-4.9,1.4-6.5C22,3.3,18.6,3.6,16,5.6"/>
	<g>
		<g>
			<path class="st3" d="M30.7,8.4h-2.8V8h2.8V8.4z M29.2,10.4c-0.4,0-0.7-0.1-0.9-0.3C28.1,10,28,9.7,28,9.5c0-0.3,0.1-0.5,0.3-0.6
				c0.2-0.2,0.5-0.3,0.9-0.3c0.4,0,0.6,0.1,0.9,0.3c0.2,0.2,0.3,0.4,0.3,0.6c0,0.3-0.1,0.5-0.3,0.6C29.9,10.3,29.6,10.4,29.2,10.4z
				 M29.5,11.5h2.5v0.5h-2.6c-0.6,0-0.8-0.3-0.8-0.8v-0.5h0.6v0.4C29.1,11.3,29.2,11.5,29.5,11.5L29.5,11.5z M28.5,7.3H30v0.5h-1.5
				V7.3z M29.2,10c0.2,0,0.3,0,0.4-0.1c0.1-0.1,0.2-0.2,0.2-0.3s-0.1-0.2-0.2-0.3C29.6,9.1,29.4,9,29.2,9c-0.2,0-0.3,0-0.4,0.1
				c-0.1,0.1-0.2,0.2-0.2,0.3s0.1,0.3,0.2,0.3C28.9,9.9,29.1,10,29.2,10z M31.9,8.6h0.7v0.5h-0.7v1.6h-0.6V7.4h0.6L31.9,8.6
				L31.9,8.6z"/>
			<path class="st3" d="M34.2,10.4c-0.2,0-0.4-0.1-0.6-0.3c-0.2-0.2-0.3-0.4-0.3-0.6c0-0.3,0.1-0.5,0.3-0.6c0.2-0.2,0.5-0.3,0.9-0.3
				s0.6,0.1,0.9,0.3c0.2,0.2,0.3,0.4,0.3,0.6c0,0.3-0.1,0.5-0.3,0.6c-0.2,0.1-0.3,0.2-0.6,0.3v0.5h0.7c0.6,0,1-0.2,1-0.7V7.4h0.6
				v1.5h0.7v0.5h-0.7v2.5h-0.6v-0.9c-0.2,0.2-0.5,0.3-0.8,0.3H33v-0.5h1.2V10.4L34.2,10.4z M35.9,8.4h-2.8V8h2.8
				C35.9,8,35.9,8.4,35.9,8.4z M33.8,7.3h1.5v0.5h-1.5V7.3z M34.5,10c0.2,0,0.3,0,0.4-0.1c0.1-0.1,0.2-0.2,0.2-0.3s-0.1-0.2-0.2-0.3
				C34.8,9.1,34.7,9,34.5,9s-0.3,0-0.4,0.1c-0.1,0.1-0.2,0.2-0.2,0.3s0.1,0.3,0.2,0.3C34.2,9.9,34.3,10,34.5,10z"/>
		</g>
		<path class="st3" d="M40.8,8.8v0.5h2v0.5h-4.6V9.3h2V8.8H40.8L40.8,8.8z M40.8,7.4c0,0.3,0.2,0.6,0.5,0.8c0.3,0.2,0.7,0.3,1.1,0.3
			V9c-0.5,0-1-0.1-1.5-0.4c-0.2-0.1-0.4-0.2-0.5-0.4c-0.1,0.1-0.3,0.3-0.5,0.4c-0.5,0.3-1,0.4-1.5,0.4V8.6c0.4,0,0.8-0.1,1.1-0.3
			C40,8,40.2,7.8,40.2,7.4v0L40.8,7.4L40.8,7.4L40.8,7.4z M38.8,11.2v-0.4h2.9v-0.3h-2.9v-0.5h3.4c0.1,0,0.1,0,0.1,0.1v1h-2.9v0
			c0,0.1,0.1,0.2,0.3,0.2h2.6v0.5h-2.7C39,11.9,38.8,11.7,38.8,11.2L38.8,11.2z"/>
		<path class="st3" d="M47.8,10.7h-2V12h-0.6v-1.3h-2v-0.5h4.6L47.8,10.7L47.8,10.7z M43.6,9.1V8.4h3V8h-3V7.5H47
			c0.2,0,0.2,0.1,0.2,0.2v1.1h-3V9c0,0.2,0.1,0.3,0.3,0.3h2.7v0.5h-2.8C43.9,9.8,43.6,9.5,43.6,9.1L43.6,9.1z"/>
		<path class="st3" d="M49.8,7.8c0,0.6,0.1,1.1,0.4,1.5c0.2,0.3,0.5,0.5,0.7,0.5v0.5c-0.4-0.1-0.8-0.3-1.1-0.6
			c-0.1-0.1-0.3-0.3-0.4-0.5c-0.1,0.2-0.2,0.3-0.4,0.5c-0.4,0.4-0.7,0.6-1.1,0.6V9.8c0.3-0.1,0.5-0.3,0.7-0.5
			c0.3-0.4,0.4-0.8,0.4-1.5V7.5h0.6L49.8,7.8L49.8,7.8z M50,11.4h2.5v0.5h-2.6c-0.6,0-0.8-0.3-0.8-0.8v-0.7h0.6v0.6
			C49.6,11.3,49.7,11.5,50,11.4L50,11.4z M51.7,7.4h0.6v3.3h-0.6V9.4h-1.1V8.9h1.1V8.4h-1.1V8h1.1V7.4z"/>
	</g>
</g>
</svg>
