<?xml version="1.0" encoding="utf-8"?>
<!-- Generator: Adobe Illustrator 26.3.1, SVG Export Plug-In . SVG Version: 6.00 Build 0)  -->
<svg version="1.1" id="_이어_1" xmlns="http://www.w3.org/2000/svg" xmlns:xlink="http://www.w3.org/1999/xlink" x="0px" y="0px"
	 viewBox="0 0 64.2 18.5" style="enable-background:new 0 0 64.2 18.5;" xml:space="preserve">
<style type="text/css">
	.st0{fill:#013F7A;}
</style>
<g transform="translate(-96.509173 -222.66975)">
	<path class="st0" d="M112.7,227.9h-1.5v-1.2h-0.7v3.1h0.7v-1.3h1.5v1.3h0.7v-3.1h-0.7"/>
	<path class="st0" d="M128.2,227.3h1.3v0.9h-1.5v-0.7c0-0.1,0-0.1,0-0.1C128.1,227.3,128.2,227.3,128.2,227.3 M127.6,226.9
		c-0.1,0.2-0.2,0.3-0.2,0.5v2.5h0.7v-1h1.5v1h0.7v-3.1h-2.1C127.9,226.7,127.7,226.7,127.6,226.9"/>
	<path class="st0" d="M122.7,226.7h-2.1v3.1h0.7v-2.5h1.3c0.1,0,0.1,0,0.2,0.1c0.1,0.1,0,0.1,0.1,0.1v2.3h0.7v-2.5
		c0-0.1,0-0.3-0.2-0.5C123.1,226.7,122.9,226.7,122.7,226.7"/>
	<path class="st0" d="M119.3,229c0,0.1,0,0.1-0.1,0.1c-0.1,0.1-0.1,0.1-0.2,0.1h-1.3v-2.5h-0.7v3.1h2.1c0.2,0,0.4-0.1,0.6-0.2
		c0.1-0.2,0.2-0.3,0.2-0.5v-2.5h-0.7"/>
	<path class="st0" d="M126.1,229c0,0.1,0,0.1,0,0.1c-0.1,0.1-0.1,0.1-0.2,0.1h-1.3v-1.9h1.3c0.1,0,0.1,0,0.2,0.1c0,0.1,0,0.1,0,0.1
		C126.1,227.5,126.1,229,126.1,229z M126.8,227.3c0-0.1,0-0.3-0.2-0.5c-0.2-0.2-0.3-0.2-0.6-0.2h-2.1v3.1h2.1c0.2,0,0.4-0.1,0.6-0.2
		c0.1-0.2,0.2-0.3,0.2-0.5"/>
	<path class="st0" d="M115.3,228l-0.8-1.4h-0.8l1.3,2v1.1h0.7v-1.1l1.3-2h-0.8"/>
	<path class="st0" d="M130.9,229.8h0.7v-3.1h-0.7V229.8z"/>
	<path class="st0" d="M118.8,232L118.8,232l-0.2,2.7l1.4,0.1l-0.1-3.4H118l-2,4.3l1.8-1"/>
	<path class="st0" d="M120,236.9l-0.1-2.2l-3.9,1l-0.5,1.2h1.6l0.3-1h1.2l-0.1,1"/>
	<path class="st0" d="M122.6,236.5L122.6,236.5c-0.3,0.5-0.7,0.6-1.3,0.6c-0.6,0-1-0.3-0.8-1.1l0.7-3.3h1.6l-0.6,2.9
		c-0.1,0.3,0,0.5,0.2,0.5s0.3-0.2,0.4-0.5l0.6-2.9h1.6l-0.9,4.3h-1.5"/>
	<path class="st0" d="M126.1,231.4h1.5l-0.3,1.3h0.6l-0.2,1h-0.6l-0.4,1.9c-0.1,0.3-0.1,0.4,0.2,0.4c0.1,0,0.2,0,0.2,0l-0.2,1
		c-0.1,0-0.6,0.1-0.8,0.1c-0.9,0-1.3-0.1-1.1-1l0.5-2.4h-0.5l0.2-1h0.5"/>
	<path class="st0" d="M130.1,232.6c-1.7,0-2.1,1.1-2.4,2.3c-0.3,1.2-0.3,2.3,1.4,2.3c1.7,0,2.1-1.1,2.4-2.3
		C131.8,233.6,131.8,232.6,130.1,232.6 M129.3,234.8c0.2-1,0.3-1.3,0.6-1.3c0.3,0,0.3,0.3,0.1,1.3s-0.3,1.3-0.6,1.3
		S129.1,235.8,129.3,234.8"/>
	<path class="st0" d="M135.9,232.7h1.6l-0.3,3l0,0l1-3h1.6l-1.9,4.3h-1.8"/>
	<path class="st0" d="M140.9,235.1h2.1V235c0.3-1.4,0.5-2.5-1.2-2.5s-2.1,1.1-2.4,2.3c-0.3,1.2-0.3,2.3,1.4,2.3c0.5,0,1-0.1,1.4-0.4
		s0.6-0.7,0.7-1.2h-1.4c-0.1,0.5-0.2,0.7-0.5,0.7c-0.3,0-0.3-0.3-0.2-0.6L140.9,235.1L140.9,235.1z M141.7,234.2h-0.7l0.1-0.2
		c0.1-0.5,0.2-0.6,0.5-0.6s0.3,0.1,0.2,0.6"/>
	<path class="st0" d="M144,232.7h1.5l-0.1,0.6l0,0c0.2-0.4,0.7-0.7,1.1-0.7c0.2,0,0.2,0,0.3,0l-0.3,1.4c-0.1,0-0.1,0-0.2,0
		s-0.1,0-0.3,0c-0.6,0-0.7,0.3-0.8,0.8l-0.5,2.3h-1.6"/>
	<path class="st0" d="M132.7,231.4h3.3l-0.2,1.2h-1.8l-0.2,1h1.7l-0.2,1.1h-1.7l-0.2,1.1h1.9l-0.2,1.2h-3.3"/>
</g>
</svg>
