<?xml version="1.0" encoding="utf-8"?>
<!-- Generator: Adobe Illustrator 26.3.1, SVG Export Plug-In . SVG Version: 6.00 Build 0)  -->
<svg version="1.1" id="_이어_1" xmlns="http://www.w3.org/2000/svg" xmlns:xlink="http://www.w3.org/1999/xlink" x="0px" y="0px"
	 viewBox="0 0 60.7 26.3" style="enable-background:new 0 0 60.7 26.3;" xml:space="preserve">
<style type="text/css">
	.st0{fill:#F4B282;}
	.st1{fill:#EF986B;}
	.st2{fill:#E87127;}
	.st3{fill:#040000;}
</style>
<g>
	<path class="st0" d="M13.1,13.3c-0.2-1.5,1.4-2.7,3.5-2.6c2.1,0,3.9,1.2,4,2.7c0.2,1.5-1.4,2.7-3.5,2.6
		C15.1,16,13.3,14.8,13.1,13.3 M21,13.7c-0.2-1.8-2.3-3.3-4.6-3.3c-2.4,0-4.2,1.4-4,3.3c0.2,1.8,2.3,3.3,4.6,3.3
		C19.4,17,21.2,15.6,21,13.7"/>
	<path class="st1" d="M17.4,17.1c-1.2,1.2-3.1,1.3-4.2,0.2c-1.1-1.1-1.1-3,0-4.2s3.1-1.3,4.2-0.2S18.6,15.8,17.4,17.1 M13.1,13
		c-1.4,1.4-1.4,3.6-0.1,4.9c1.3,1.3,3.5,1.2,4.9-0.3c1.4-1.4,1.4-3.6,0-4.9C16.6,11.5,14.4,11.6,13.1,13"/>
	<path class="st2" d="M13.2,8.4c2.4-0.9,4.8,0,5.4,2.1c0.5,2.1-1,4.5-3.4,5.4c-2.4,0.9-4.8,0-5.4-2.1C9.2,11.8,10.7,9.4,13.2,8.4
		 M10.9,9.2c-2.5,2-3.2,4.9-1.4,6.5c1.7,1.6,5.2,1.2,7.7-0.8c2.5-2,3.2-4.9,1.4-6.5C16.9,6.9,13.4,7.2,10.9,9.2"/>
	<g>
		<g>
			<g>
				<path class="st3" d="M25.5,12h-2.8v-0.5h2.8V12z M24.1,14c-0.4,0-0.7-0.1-0.9-0.3c-0.2-0.2-0.3-0.4-0.3-0.6s0.1-0.5,0.3-0.6
					c0.2-0.2,0.5-0.3,0.9-0.3s0.6,0.1,0.9,0.3c0.2,0.2,0.3,0.4,0.3,0.6s-0.1,0.5-0.3,0.6C24.8,13.9,24.5,14,24.1,14z M24.3,15.1h2.5
					v0.5h-2.6c-0.6,0-0.8-0.3-0.8-0.8v-0.5H24v0.4C24,15,24.1,15.1,24.3,15.1L24.3,15.1z M23.4,11h1.5v0.5h-1.5V11z M24.1,13.6
					c0.2,0,0.3,0,0.4-0.1c0.1-0.1,0.2-0.2,0.2-0.3c0-0.1-0.1-0.2-0.2-0.3c-0.1-0.1-0.3-0.1-0.4-0.1c-0.2,0-0.3,0-0.4,0.1
					c-0.1,0.1-0.2,0.2-0.2,0.3c0,0.1,0.1,0.3,0.2,0.3C23.8,13.5,23.9,13.6,24.1,13.6z M26.8,12.2h0.7v0.5h-0.7v1.6h-0.6V11h0.6V12.2
					L26.8,12.2z"/>
				<path class="st3" d="M29.1,14c-0.2,0-0.4-0.1-0.6-0.3c-0.2-0.2-0.3-0.4-0.3-0.6s0.1-0.5,0.3-0.6c0.2-0.2,0.5-0.3,0.9-0.3
					s0.6,0.1,0.9,0.3c0.2,0.2,0.3,0.4,0.3,0.6s-0.1,0.5-0.3,0.6c-0.2,0.1-0.3,0.2-0.6,0.3v0.5h0.7c0.6,0,1-0.2,1-0.7V11H32v1.5h0.7
					v0.5H32v2.5h-0.6v-0.9c-0.2,0.2-0.5,0.3-0.8,0.3h-2.7v-0.5h1.2V14L29.1,14z M30.8,12h-2.8v-0.5h2.8C30.8,11.6,30.8,12,30.8,12z
					 M28.6,11h1.5v0.5h-1.5V11z M29.4,13.6c0.2,0,0.3,0,0.4-0.1c0.1-0.1,0.2-0.2,0.2-0.3c0-0.1-0.1-0.2-0.2-0.3
					c-0.1-0.1-0.3-0.1-0.4-0.1s-0.3,0-0.4,0.1c-0.1,0.1-0.2,0.2-0.2,0.3c0,0.1,0.1,0.3,0.2,0.3C29.1,13.5,29.2,13.6,29.4,13.6z"/>
			</g>
		</g>
		<g>
			<path d="M35.7,15.1c-0.4-0.3-0.8-0.7-1.1-1.4c-0.2,0.7-0.5,1.2-0.9,1.6l-0.5-0.4c0.4-0.4,0.7-1,0.9-1.6c0.1-0.5,0.1-0.9,0.1-1.4
				h-0.9v-0.5h2.4v0.5h-0.9c0,0.4,0,0.9,0.1,1.2c0.2,0.7,0.5,1.3,1.1,1.6L35.7,15.1z M37.1,15.7h-0.6v-2.4h-0.9v-0.5h0.9v-1.7h0.6
				V15.7z"/>
			<path d="M42.4,13.7h-1.8v0.4H42v1.5h-0.6v-1h-2.9v-0.5H40v-0.4h-1.7v-0.5h4.2V13.7z M42,12.9c-0.8-0.1-1.4-0.5-1.7-0.7
				c-0.3,0.3-0.9,0.6-1.7,0.7l-0.2-0.5c0.7,0,1.3-0.3,1.5-0.7h-1.3v-0.5H40v-0.3h0.7v0.3H42v0.5h-1.3c0.2,0.4,0.8,0.7,1.5,0.7
				L42,12.9z"/>
			<path d="M47.3,13.9h-4.2v-0.5h4.2V13.9z M45.3,13c-1,0-1.8-0.2-1.8-0.9c0-0.7,0.8-0.9,1.8-0.9c1,0,1.8,0.2,1.8,0.9
				C47.1,12.8,46.3,13,45.3,13z M47,15.6h-3c-0.3,0-0.5-0.2-0.5-0.5v-1h0.6v1H47V15.6z M45.3,11.6c-1,0-1.2,0.2-1.2,0.5
				c0,0.2,0.2,0.5,1.2,0.5c1,0,1.2-0.2,1.2-0.5C46.4,11.8,46.3,11.6,45.3,11.6z"/>
			<path d="M48.1,11.8v-0.5h0.8v-0.4h0.6v0.4h0.8v0.5h-0.2c0.1,0.2,0.2,0.4,0.2,0.6c0,0.7-0.5,1-1,1c-0.5,0-1-0.3-1-1
				c0-0.3,0.1-0.5,0.2-0.6H48.1z M49.1,11.9c-0.2,0-0.4,0.1-0.4,0.6c0,0.4,0.2,0.5,0.4,0.5c0.2,0,0.4-0.1,0.4-0.5
				C49.5,12.1,49.3,11.9,49.1,11.9z M50.5,15.7c-1.2,0-1.7-0.3-1.7-1c0-0.7,0.5-1,1.7-1c1.2,0,1.6,0.3,1.6,1
				C52.2,15.4,51.7,15.7,50.5,15.7z M50.5,14.2c-0.7,0-1.1,0.1-1.1,0.5c0,0.3,0.4,0.5,1.1,0.5c0.7,0,1-0.1,1-0.5
				C51.5,14.4,51.2,14.2,50.5,14.2z M52.1,13.8h-0.6v-1.2h-0.4v0.9h-0.6v-2.5h0.6v1h0.4v-1h0.6V13.8z"/>
		</g>
	</g>
</g>
</svg>
