<?xml version="1.0" encoding="utf-8"?>
<!-- Generator: Adobe Illustrator 26.3.1, SVG Export Plug-In . SVG Version: 6.00 Build 0)  -->
<svg version="1.1" id="_이어_1" xmlns="http://www.w3.org/2000/svg" xmlns:xlink="http://www.w3.org/1999/xlink" x="0px" y="0px"
	 viewBox="0 0 60.5 28.4" style="enable-background:new 0 0 60.5 28.4;" xml:space="preserve">
<style type="text/css">
	.st0{fill-rule:evenodd;clip-rule:evenodd;fill:#29579D;}
</style>
<path class="st0" d="M14.8,17.6H16v1.3h2.1v-1.3h1.2v3.7h-1.2v-1.6H16v1.5h-1.2V17.6L14.8,17.6z M19.4,17.6h1.2l1.2,1.4l1.2-1.4h1.1
	l-1.8,2.2v1.4h-1.2v-1.5L19.4,17.6L19.4,17.6z M24.3,17.6h1.2v2.8h1.9c0.3,0,0.5-0.3,0.5-0.6v-2.2h1.2v2.9c0,0.5-0.5,0.7-0.8,0.7
	h-3.9L24.3,17.6L24.3,17.6L24.3,17.6z M29.3,17.6h3.9c0.5,0,0.8,0.3,0.8,0.9v2.8h-1.2v-2.2c0-0.3-0.1-0.5-0.5-0.5h-1.8v2.7h-1.3
	L29.3,17.6L29.3,17.6z M34.4,17.6h3.4c0.7,0,1.2,0.6,1.2,1v1.7c0,0.3-0.4,1-0.9,1h-3.7L34.4,17.6L34.4,17.6L34.4,17.6z M35.6,20.5
	h1.8c0.3,0,0.5-0.2,0.5-0.4V19c0-0.3-0.2-0.4-0.5-0.4h-1.8L35.6,20.5L35.6,20.5L35.6,20.5z M40.5,17.6h3.7v3.7h-1.3v-1h-2.3v1h-1.3
	v-2.4C39.3,18.1,40,17.6,40.5,17.6L40.5,17.6L40.5,17.6z M40.6,18.9v0.6h2.3v-0.9H41C40.8,18.6,40.6,18.7,40.6,18.9z M44.5,17.6h1.2
	v3.8h-1.2C44.5,21.4,44.5,17.6,44.5,17.6z M30.3,6.9c-4.9,0-8.9,2-8.9,4.4s4,4.4,8.9,4.4s8.9-2,8.9-4.4S35.2,6.9,30.3,6.9L30.3,6.9
	L30.3,6.9z M29.5,7.9c1-0.4,4,0,5.2,0.6c0.4,0.4-1.7,1.5-4.1,2C27.1,11.2,28.7,8.5,29.5,7.9z M23.5,13.1c-0.8-0.5-2.3-2.1,0.2-3.7
	c1.3-0.8,2-0.9,2.9-1.1c0.4-0.1,0.7,0,0.4,0.3c-0.8,0.9-2.5,3.7-2.7,4.3C24.2,13.3,24,13.4,23.5,13.1L23.5,13.1L23.5,13.1z
	 M30.6,14.9c-1.5,0.2-4.7-0.3-4.8-0.7c0.1-1,5.2-2.7,6.1-1.8C32.3,13.1,31.6,14.9,30.6,14.9z M38.1,12c-0.4,0.9-1.6,1.8-4.3,2.5
	c-0.4,0.1-0.5-0.2-0.3-0.4c0.4-0.3,2.5-3.8,2.8-4.5c0.2-0.4,0.4-0.2,0.6-0.1C37.8,10,38.4,10.9,38.1,12L38.1,12L38.1,12z"/>
</svg>
