<?xml version="1.0" encoding="utf-8"?>
<!-- Generator: Adobe Illustrator 26.3.1, SVG Export Plug-In . SVG Version: 6.00 Build 0)  -->
<svg version="1.1" id="_이어_1" xmlns="http://www.w3.org/2000/svg" xmlns:xlink="http://www.w3.org/1999/xlink" x="0px" y="0px"
	 viewBox="0 0 67.6 17.2" style="enable-background:new 0 0 67.6 17.2;" xml:space="preserve">
<style type="text/css">
	.st0{fill:#003668;}
	.st1{fill:#E6002D;}
	.st2{fill:#595757;}
</style>
<path class="st0" d="M17.7,7.8c-1.1-0.7-2.4-0.4-3.1,0.7c-0.6,0.9-1.5,1-1.8,1c-1.1,0-1.9-0.8-2.1-1.6l0,0c0,0,0,0,0,0c0,0,0,0,0,0
	c-0.1-0.3-0.1-0.5-0.1-0.9c0-2,2-4.2,4.9-4.2s4.7,2.3,5.1,3.5c0,0,0,0,0-0.1C19.7,3.8,17.3,2,14.6,2c-3.4,0-6.3,2.8-6.3,6.3
	c0,3.1,2.2,5.7,5.3,5.7c2.5,0,4.1-1.4,4.9-3.3C18.9,9.6,18.6,8.4,17.7,7.8"/>
<path class="st1" d="M20.6,6.4c-0.4-1.2-2.1-3.6-5.1-3.6c-2.9,0-4.9,2.2-4.9,4.1c0,0.4,0,0.5,0.1,0.9c0-0.2-0.1-0.3-0.1-0.4
	c0-2,2-3.5,4.2-3.5c2.8,0,5.2,2.3,5.2,5.2c0,2.2-1.3,4.2-3.1,5.1l0,0c2.4-0.9,4.1-3.2,4.1-5.9C20.8,7.6,20.8,7,20.6,6.4"/>
<path class="st2" d="M28.1,9v1.7h-0.6V9.6h-3.3V9h1.7V8.3h-2V7.7h4.6v0.5h-2V9C26.5,9,28.1,9,28.1,9z M28.1,5.9v1.5h-0.6V6.4h-3.2
	V5.9C24.3,5.9,28.1,5.9,28.1,5.9z"/>
<path class="st2" d="M29.3,5.9h2.6v2.6h-2.6C29.3,8.5,29.3,5.9,29.3,5.9z M29.5,10.6V9h0.6v1.1h3.5v0.5H29.5z M31.3,6.4h-1.3v1.5
	h1.3V6.4z M32.9,5.8h0.6V9h-0.6V5.8z"/>
<path class="st2" d="M36.3,8.6v0.7h-0.6V8.6h-1.4V8h3.3v0.5H36.3L36.3,8.6z M36.5,7.8V6.4h-1.8V5.9h2.5v1.9
	C37.1,7.8,36.5,7.8,36.5,7.8z M35.3,9v1.1h3.6v0.5h-4.2V9H35.3L35.3,9z M38.1,7.6h-0.7V7.1h0.7V5.8h0.6v3.6h-0.6V7.6L38.1,7.6z"/>
<path class="st2" d="M42.2,7.1c0,0.2,0,0.3-0.1,0.5C42,7.7,41.9,7.8,41.8,8c-0.1,0.1-0.3,0.2-0.4,0.3c-0.2,0.1-0.3,0.1-0.5,0.1
	c-0.2,0-0.4,0-0.5-0.1C40.2,8.2,40,8.1,39.9,8c-0.1-0.1-0.2-0.2-0.3-0.4c-0.1-0.2-0.1-0.3-0.1-0.5s0-0.3,0.1-0.5
	c0.1-0.2,0.2-0.3,0.3-0.4C40,6.1,40.2,6,40.3,5.9c0.2-0.1,0.3-0.1,0.5-0.1c0.2,0,0.4,0,0.5,0.1c0.2,0.1,0.3,0.2,0.4,0.3
	c0.1,0.1,0.2,0.2,0.3,0.4C42.1,6.7,42.2,6.9,42.2,7.1 M39.9,8.7h4v2h-0.6V9.3h-3.4L39.9,8.7L39.9,8.7z M41.6,7.1
	c0-0.2-0.1-0.4-0.2-0.5c-0.1-0.1-0.3-0.2-0.5-0.2c-0.2,0-0.4,0.1-0.5,0.2c-0.1,0.1-0.2,0.3-0.2,0.5s0.1,0.4,0.2,0.5
	c0.1,0.1,0.3,0.2,0.5,0.2c0.2,0,0.4-0.1,0.5-0.2C41.5,7.4,41.6,7.3,41.6,7.1 M43.2,5.8h0.6v2.7h-0.6V5.8z"/>
<path class="st2" d="M44.6,9.2V8.7h3.3v0.5h-1.4v1.3h-0.6V9.2C45.9,9.2,44.6,9.2,44.6,9.2z M47.5,7.1c0,0.2,0,0.3-0.1,0.5
	c-0.1,0.2-0.2,0.3-0.3,0.4c-0.1,0.1-0.3,0.2-0.4,0.3c-0.2,0.1-0.3,0.1-0.5,0.1c-0.2,0-0.4,0-0.5-0.1c-0.2-0.1-0.3-0.2-0.4-0.3
	C45.1,7.9,45,7.8,45,7.6c-0.1-0.2-0.1-0.3-0.1-0.5c0-0.2,0-0.3,0.1-0.5c0.1-0.2,0.2-0.3,0.3-0.4c0.1-0.1,0.3-0.2,0.4-0.3
	c0.2-0.1,0.3-0.1,0.5-0.1c0.2,0,0.4,0,0.5,0.1C46.9,6,47,6.1,47.1,6.2c0.1,0.1,0.2,0.2,0.3,0.4C47.5,6.8,47.5,6.9,47.5,7.1
	 M46.9,7.1c0-0.2-0.1-0.4-0.2-0.5c-0.1-0.1-0.3-0.2-0.5-0.2c-0.2,0-0.4,0.1-0.5,0.2c-0.1,0.1-0.2,0.3-0.2,0.5c0,0.2,0.1,0.4,0.2,0.5
	c0.1,0.1,0.3,0.2,0.5,0.2c0.2,0,0.4-0.1,0.5-0.2C46.8,7.5,46.9,7.3,46.9,7.1 M48.3,5.8h0.6v5h-0.6V5.8z"/>
<path class="st2" d="M51.7,8.6v0.7h-0.6V8.6h-1.4V8.1h3.3v0.5H51.7z M50.7,9.1v1h3.6v0.5h-4.2V9.1L50.7,9.1L50.7,9.1z M52.6,6.8
	c0,0.2,0,0.3-0.1,0.4c-0.1,0.1-0.2,0.3-0.3,0.4c-0.1,0.1-0.2,0.2-0.4,0.2c-0.1,0.1-0.3,0.1-0.5,0.1c-0.2,0-0.3,0-0.5-0.1
	c-0.1-0.1-0.3-0.1-0.4-0.2c-0.1-0.1-0.2-0.2-0.3-0.4S50.2,7,50.2,6.8c0-0.2,0-0.3,0.1-0.4s0.2-0.3,0.3-0.4c0.1-0.1,0.2-0.2,0.4-0.2
	c0.1-0.1,0.3-0.1,0.5-0.1c0.2,0,0.3,0,0.5,0.1C52,5.8,52.1,5.9,52.2,6c0.1,0.1,0.2,0.2,0.3,0.4S52.6,6.7,52.6,6.8 M52,6.8
	c0-0.2-0.1-0.3-0.2-0.4c-0.1-0.1-0.3-0.2-0.4-0.2S51.1,6.3,51,6.4c-0.1,0.1-0.2,0.3-0.2,0.4s0.1,0.3,0.2,0.4s0.3,0.2,0.4,0.2
	s0.3-0.1,0.4-0.2C51.9,7.1,52,7,52,6.8 M53.5,7.7h-0.7V7.2h0.7V5.7h0.6v3.6h-0.6V7.7z"/>
<path class="st2" d="M58.2,10.2h-3.3V9.7h1.3V9.1c-0.1,0-0.1,0-0.2-0.1c-0.2-0.1-0.3-0.1-0.4-0.2c-0.1-0.1-0.2-0.2-0.3-0.4
	c-0.1-0.1-0.1-0.3-0.1-0.4s0-0.3,0.1-0.4c0.1-0.1,0.2-0.3,0.3-0.4C55.8,7.1,55.9,7,56.1,7c0.2-0.1,0.3-0.1,0.5-0.1
	c0.2,0,0.3,0,0.5,0.1c0.1,0.1,0.3,0.1,0.4,0.2c0.1,0.1,0.2,0.2,0.3,0.4c0.1,0.1,0.1,0.3,0.1,0.4s0,0.3-0.1,0.4
	c-0.1,0.1-0.2,0.3-0.3,0.4C57.3,8.9,57.2,9,57,9c-0.1,0-0.1,0-0.2,0.1v0.6h1.4V10.2z M56.2,6.2V5.7h0.7v0.5h1.2v0.5H55V6.2H56.2
	L56.2,6.2z M57.2,8c0-0.2-0.1-0.3-0.2-0.4c-0.1-0.1-0.3-0.2-0.4-0.2s-0.3,0.1-0.4,0.2C56,7.7,55.9,7.8,55.9,8c0,0.2,0.1,0.3,0.2,0.4
	c0.1,0.1,0.3,0.2,0.4,0.2s0.3-0.1,0.4-0.2C57.1,8.3,57.2,8.2,57.2,8 M58.7,5.8h0.6v5h-0.6V5.8z"/>
</svg>
