<?xml version="1.0" encoding="utf-8"?>
<!-- Generator: Adobe Illustrator 26.3.1, SVG Export Plug-In . SVG Version: 6.00 Build 0)  -->
<svg version="1.1" id="_이어_1" xmlns="http://www.w3.org/2000/svg" xmlns:xlink="http://www.w3.org/1999/xlink" x="0px" y="0px"
	 viewBox="0 0 76.9 20.2" style="enable-background:new 0 0 76.9 20.2;" xml:space="preserve">
<style type="text/css">
	.st0{fill-rule:evenodd;clip-rule:evenodd;fill:#045483;}
</style>
<g id="logo_x2F_posco_00000061462005894552848340000003791897856402766262_">
	<g id="Group-26_00000095338872060934785750000015864377035976373935_" transform="translate(18.000000, 22.000000)">
		<g id="Fill-1_00000011028053686818595240000010211616960855768491_">
			<path class="st0" d="M22.3-16.1c0,0-0.1-0.2-0.9-0.1c-0.7,0.1-1,0.7-1,0.7c-0.6,0.9-1.5,1.5-2.7,1.5c-1.7,0-3-1.4-3-3.1
				s1.4-3.1,3-3.1c1,0,2,0.5,2.4,1.4c0,0,0.5,0.7,0.7,0.8c0.3,0.1,0.7,0.2,1,0.2c0.2-0.1,0.5-0.1,0.3-0.6c-0.6-2-2.3-3.4-4.5-3.4
				C15-21.8,13-19.7,13-17s2.1,4.7,4.7,4.7c2.1,0,3.8-1.2,4.5-3.1C22.6-16.1,22.3-16.1,22.3-16.1"/>
		</g>
		<g id="Fill-3_00000110437350020269365540000012479915303496694971_">
			<path class="st0" d="M-2.1-13.9c-1.7,0-3-1.4-3-3.1s1.4-3.1,3-3.1c1.7,0,3,1.4,3,3.1C0.9-15.4-0.5-13.9-2.1-13.9 M-2.1-21.8
				c-2.7,0-4.7,2.1-4.7,4.7s2.1,4.7,4.7,4.7s4.7-2.1,4.7-4.7S0.6-21.8-2.1-21.8"/>
		</g>
		<g id="Fill-5_00000023268945355794610840000004697010493630709405_">
			<path class="st0" d="M28.1-20.1c1.7,0,3,1.4,3,3.1c0,1.6-1.4,3.1-3,3.1c-1.7,0-3-1.4-3-3.1S26.4-20.1,28.1-20.1 M28.1-12.3
				c2.7,0,4.7-2.1,4.7-4.7s-2.1-4.7-4.7-4.7c-2.7,0-4.7,2.1-4.7,4.7C23.4-14.4,25.4-12.3,28.1-12.3"/>
		</g>
		<g id="Fill-7_00000034789687748323859070000005605530662789821076_">
			<path class="st0" d="M10.4-17.8H5.8c-0.7,0-0.7-0.5-0.6-0.8c0.5-0.9,1.5-1.5,2.7-1.5c1.3,0,1.8,0.7,2.3,1.2
				c0.5,0.5,1.3,0.6,1.7,0.3c0.2-0.1,0.2-0.3,0-0.7c-0.8-1.5-2.4-2.3-4-2.3c-1.4,0-3,0.7-4,2.2C3-18.3,3-16.2,5.9-16.2h4
				c0.6,0,0.7,0.2,0.5,0.8c-0.3,0.8-1.5,1.5-2.5,1.5c-1.3,0-2-0.7-2.4-1.2c-0.5-0.5-1.4-0.6-1.7-0.5s-0.1,0.6,0,0.8
				c0.8,1.5,2.4,2.3,4,2.3c1.7,0,3.2-0.8,4.2-2.2C12.8-16,12.4-17.7,10.4-17.8"/>
		</g>
		<g id="Group-11_00000103956257787982626260000009029064032151819914_" transform="translate(0.000000, 0.181841)">
			<g id="Clip-10_00000178182739529479590620000002102783867201689509_">
			</g>
			<g id="Fill-9_00000070108599060752389260000002897121634173213582_">
				<path class="st0" d="M-12.5-14.1c-1.6,0-3-1.4-3-3.1s1.4-3.1,3-3.1s3,1.4,3,3.1C-9.5-15.5-10.9-14.1-12.5-14.1 M-12.5-22
					c-2.7,0-4.7,2.1-4.7,4.7v6.2c0,0-0.1,0.8,0.3,1.4c0.2,0.3,0.7,0.7,1,0.7c0.3,0,0.3-0.3,0.3-0.3v-4.3c0.8,0.7,1.8,1,3,1
					c2.7,0,4.7-2.1,4.7-4.7C-7.7-19.9-9.8-22-12.5-22"/>
			</g>
		</g>
		<g id="Clip-13_00000096768316066152823090000001229983905250867348_">
		</g>
		<g id="Fill-12_00000080168902390384106640000016865959755335691665_">
			<polygon class="st0" points="-6.1,-2.8 -5.1,-2.8 -5.1,-8.7 -6.1,-8.7 			"/>
		</g>
		<g id="Fill-14_00000026122079050615812480000007604372640555649934_">
			<polygon class="st0" points="-3.8,-8.7 -2.8,-8.7 -0.1,-4.3 -0.1,-4.3 -0.1,-8.7 0.9,-8.7 0.9,-2.8 -0.2,-2.8 -2.9,-7.1 
				-2.9,-7.1 -2.9,-2.8 -3.8,-2.8 			"/>
		</g>
		<g id="Fill-15_00000056386345591782829880000006200997667295424953_">
			<polygon class="st0" points="1.5,-8.7 6.4,-8.7 6.4,-7.8 4.4,-7.8 4.4,-2.8 3.5,-2.8 3.5,-7.8 1.5,-7.8 			"/>
		</g>
		<g id="Fill-16_00000065791348524081961020000006193240379854493876_">
			<polygon class="st0" points="6.9,-8.7 11.2,-8.7 11.2,-7.8 8,-7.8 8,-6.3 11,-6.3 11,-5.5 8,-5.5 8,-3.7 11.3,-3.7 11.3,-2.8 
				6.9,-2.8 			"/>
		</g>
		<g id="Fill-17_00000007389048490426072800000008706179434132150931_">
			<path class="st0" d="M13.2-6h1.7c0.7,0,1-0.3,1-0.9c0-0.7-0.5-0.9-1-0.9h-1.7V-6z M12.1-8.7h2.8c1.3,0,2,0.6,2,1.6
				c0,1.2-0.8,1.4-0.9,1.5l0,0c0.3,0,0.9,0.3,0.9,1.3c0,0.7,0.1,1.3,0.3,1.5h-1.2C16-3,16-3.4,16-3.6c0-1-0.2-1.5-1.2-1.5h-1.6v2.4
				h-1V-8.7z"/>
		</g>
		<g id="Fill-18_00000165206518372239559780000007668825001235997875_">
			<polygon class="st0" points="17.9,-8.7 19.1,-8.7 21.7,-4.3 21.7,-4.3 21.7,-8.7 22.7,-8.7 22.7,-2.8 21.6,-2.8 19,-7.1 19,-7.1 
				19,-2.8 17.9,-2.8 			"/>
		</g>
		<g id="Fill-19_00000080900299501294383970000008156844088356235161_">
			<path class="st0" d="M25.1-5.1h1.8L26-7.7l0,0L25.1-5.1z M25.6-8.7h1l2.3,5.9h-1.2l-0.6-1.5h-2.3l-0.6,1.5h-1L25.6-8.7z"/>
		</g>
		<g id="Fill-20_00000081605628770477332590000011013577162113049994_">
			<polygon class="st0" points="28.1,-8.7 32.8,-8.7 32.8,-7.8 31,-7.8 31,-2.8 29.9,-2.8 29.9,-7.8 28.1,-7.8 			"/>
		</g>
		<g id="Fill-21_00000024694613949750089730000017828385365544330122_">
			<polygon class="st0" points="33.5,-2.8 34.6,-2.8 34.6,-8.7 33.5,-8.7 			"/>
		</g>
		<g id="Fill-22_00000176010460463855008710000010453871004151061668_">
			<path class="st0" d="M36.5-5.7c0,1.2,0.6,2.2,1.7,2.2c1.3,0,1.7-1.2,1.7-2.2c0-1.2-0.6-2.2-1.7-2.2C37.1-8,36.5-6.9,36.5-5.7
				 M41.2-5.7c0,1.7-1,3.1-2.8,3.1c-1.7,0-2.8-1.4-2.8-3.1s1-3.1,2.8-3.1C40.1-8.8,41.2-7.4,41.2-5.7"/>
		</g>
		<g id="Fill-23_00000011743823859912081820000015661263484662033043_">
			<polygon class="st0" points="42.1,-8.7 43.1,-8.7 45.8,-4.3 45.8,-4.3 45.8,-8.7 46.8,-8.7 46.8,-2.8 45.8,-2.8 43,-7.1 43,-7.1 
				43,-2.8 42.1,-2.8 			"/>
		</g>
		<g id="Fill-24_00000098188940748394243600000007252460951620298417_">
			<path class="st0" d="M49.3-5.1H51l-0.9-2.5l0,0L49.3-5.1z M49.6-8.7h1.2l2.3,5.9h-1.2l-0.6-1.5H49l-0.6,1.5h-1L49.6-8.7z"/>
		</g>
		<g id="Fill-25_00000095304139476760266860000001703844142098121128_">
			<polygon class="st0" points="53.5,-8.7 54.6,-8.7 54.6,-3.7 57.6,-3.7 57.6,-2.8 53.5,-2.8 			"/>
		</g>
	</g>
</g>
</svg>
