<?xml version="1.0" encoding="utf-8"?>
<!-- Generator: Adobe Illustrator 26.0.1, SVG Export Plug-In . SVG Version: 6.00 Build 0)  -->
<svg version="1.1" id="레이어_1" xmlns="http://www.w3.org/2000/svg" xmlns:xlink="http://www.w3.org/1999/xlink" x="0px"
	 y="0px" viewBox="0 0 100 60" style="enable-background:new 0 0 100 60;" xml:space="preserve">
<style type="text/css">
	.st0{fill:#0545B1;}
	.st1{clip-path:url(#SVGID_00000059997659687040987630000009092785699761258636_);}
	.st2{clip-path:url(#SVGID_00000059997659687040987630000009092785699761258636_);fill:#00BBED;}
	.st3{clip-path:url(#SVGID_00000059997659687040987630000009092785699761258636_);fill:#FFFFFF;}
	.st4{clip-path:url(#SVGID_00000059997659687040987630000009092785699761258636_);fill:#1AC62F;}
	.st5{clip-path:url(#SVGID_00000059997659687040987630000009092785699761258636_);fill:#F2338A;}
	.st6{clip-path:url(#SVGID_00000059997659687040987630000009092785699761258636_);fill:#1A1919;}
</style>
<g>
	<desc>Created with Sketch.</desc>
	<g id="한글형">
		<g>
			<g>
				<path class="st0" d="M71.8,24.3c0,0,0-0.9-1.2-0.9h-8.5c-1.2,0-1.2,0.9-1.2,0.9s0,0.9,1.1,0.9h1.8c0.8,0,0.8,0.6,0.8,0.6v5.5
					c0,0.9,0.7,1.6,1.7,1.6c1,0,1.8-0.7,1.8-1.5v-5.5c0-0.1,0.1-0.5,0.8-0.5h1.8C71.8,25.2,71.8,24.3,71.8,24.3z M79.2,23.7
					c-0.8-0.5-1.9-0.3-2.5,0.6l-3.2,4.3l-1.2-2.5c-0.2-0.5-1.1-0.7-1.6-0.5c-0.5,0.2-0.8,0.9-0.6,1.4l2.1,4.9
					c0.1,0.2,0.2,0.3,0.4,0.5c0.1,0,0.1,0.1,0.2,0.1c0.8,0.5,2.1,0.2,2.7-0.7l4.1-5.6C80.2,25.3,80,24.2,79.2,23.7z"/>
				<path class="st0" d="M20.7,36.7c-1,0-1-0.8-1-0.8s0-0.8,1.1-0.8h11.8c1.1,0,1.1,0.8,1.1,0.8s0,0.8-1,0.8H20.7z"/>
				<path class="st0" d="M47.3,35.9c0,0.8-0.7,1.4-1.6,1.4h0c-0.9,0-1.6-0.6-1.6-1.4v-9.2c0-0.8,0.7-1.4,1.6-1.4h0
					c0.9,0,1.6,0.6,1.6,1.4V35.9z"/>
				<path class="st0" d="M61.5,29.9h-1.1v-3.1c0-0.8-0.7-1.4-1.6-1.4h0c-0.9,0-1.6,0.6-1.6,1.4v9.2c0,0.8,0.7,1.4,1.6,1.4h0
					c0.9,0,1.6-0.6,1.6-1.4v-4.4h1.1c1,0,1-0.8,1-0.8S62.6,29.9,61.5,29.9z"/>
				<path class="st0" d="M18.9,29.9h-1.1v-3.1c0-0.8-0.7-1.4-1.6-1.4h0c-0.9,0-1.6,0.6-1.6,1.4v9.2c0,0.8,0.7,1.4,1.6,1.4h0
					c0.9,0,1.6-0.6,1.6-1.4v-4.4H19c1,0,1-0.8,1-0.8S20,29.9,18.9,29.9z"/>
				<path class="st0" d="M54.4,25.9h-4.9c-1.1,0-1.1,0.8-1.1,0.8s0,0.8,1,0.8h2.9c0.5,0,0.6,0.4,0.6,0.4v1.9h-3.3
					c-1.1,0-1.1,0.8-1.1,0.8s0,0.8,1,0.8h3.3v3.9c0,0.8,0.7,1.4,1.6,1.4h0c0.9,0,1.6-0.6,1.6-1.4v-8.2C56,26.4,55.3,25.9,54.4,25.9z
					"/>
				<path class="st0" d="M36.7,36.7c-0.9,0-1.6-0.6-1.6-1.3v-4.2c0-0.7,0.7-1.3,1.6-1.3h2.4c0.5,0,0.5-0.4,0.5-0.4v-1.6
					c0,0,0-0.4-0.5-0.4h-3c-1,0-1-0.8-1-0.8s0-0.8,1.1-0.8h5c0.9,0,1.6,0.6,1.6,1.3v3.1c0,0.7-0.7,1.3-1.6,1.3h-2.4
					c-0.5,0-0.5,0.4-0.5,0.4v2.7c0,0,0,0.4,0.5,0.4h3.4c1.1,0,1.1,0.8,1.1,0.8s0,0.8-1,0.8H36.7z"/>
				<path class="st0" d="M31.7,31.8h-0.4c0,0-0.5,0-0.6-0.5V28c0.1-0.5,0.6-0.5,0.6-0.5h0.4c1,0,1-0.8,1-0.8s0-0.8-1.1-0.8h-10
					c-1.1,0-1.1,0.8-1.1,0.8s0,0.8,1,0.8h0.4c0,0,0.5,0,0.6,0.5v3.4c-0.1,0.5-0.6,0.5-0.6,0.5h-0.4c-1.1,0-1.1,0.8-1.1,0.8
					s0,0.8,1,0.8h10.1c1,0,1-0.8,1-0.8S32.8,31.8,31.7,31.8z M27.9,31.4c-0.1,0.5-0.6,0.5-0.6,0.5h-1.2c0,0-0.5,0-0.6-0.5V28
					c0.1-0.5,0.6-0.5,0.6-0.5h1.2c0,0,0.5,0,0.6,0.5V31.4z"/>
				<path class="st0" d="M13.7,31.9v-1.2v-1.2c0-0.1,0-0.2,0-0.3h0c0,0,0.5-3.4-3.8-3.4c0,0,0,0-0.1,0c0,0,0,0-0.1,0
					c-4.3,0-3.8,3.4-3.8,3.4h0c0,0.1,0,0.2,0,0.3v1.2v1.2c0,0.1,0,0.1,0,0.2c0,0-0.4,3.5,3.8,3.5c0,0,0,0,0.1,0c0,0,0,0,0.1,0
					c4.3,0,3.8-3.5,3.8-3.5C13.7,32.1,13.7,32,13.7,31.9z M11,32.7c0,0.7-0.6,1.2-1.2,1.2c-0.7,0-1.2-0.6-1.2-1.2v-4
					c0-0.7,0.6-1.2,1.2-1.2c0.7,0,1.2,0.6,1.2,1.2V32.7z"/>
			</g>
		</g>
	</g>
	<g>
		<path class="st0" d="M91.8,22.7c0.1,0.3,0,0.6-0.3,0.7l-3,1.3c-0.3,0.2-0.6,0.1-0.9,0l-1.9-0.9c-0.3-0.1-0.3-0.5-0.1-0.7l0,0
			c0.2-0.2,0.5-0.2,0.7-0.1l1.5,1.2c0.2,0.1,0.3,0.1,0.5,0.1c0.1,0,0.1,0,0.2-0.1l2.7-1.7C91.4,22.3,91.7,22.4,91.8,22.7L91.8,22.7z
			"/>
		<g>
			<defs>
				<path id="SVGID_1_" d="M81.7,36.1c-0.3-1.5-0.5-3-0.5-4.6c0-1.2,0.1-2.4,0.3-3.6c0.1-0.3,0.1-0.6,0.1-0.6
					c0.2-0.7,0.7-1.1,1.3-1.4c0,0,0.3-0.2,1-0.3c1.9-0.5,4-0.5,4-0.5h0.1c1.4,0,2.7,0.2,4,0.5c0,0,0.7,0.2,1.1,0.4
					c0,0,1.1,0.4,1.4,1.4c0,0,0.1,0.3,0.1,0.6c0.2,1.2,0.3,2.4,0.3,3.6c0,1.6-0.2,3.1-0.5,4.6c0,0,0,0,0,0c-0.2,0.8-0.8,1.5-1.6,1.6
					c0,0-0.1,0-0.1,0c-1.5,0.3-3.1,0.5-4.7,0.5c-1.6,0-3.2-0.2-4.7-0.5c0,0-0.1,0-0.1,0c-0.5-0.1-0.9-0.4-1.2-0.8
					C82.1,37,81.8,36.7,81.7,36.1z"/>
			</defs>
			<clipPath id="SVGID_00000175324503000822372940000014399004878618460837_">
				<use xlink:href="#SVGID_1_"  style="overflow:visible;"/>
			</clipPath>
			<g style="clip-path:url(#SVGID_00000175324503000822372940000014399004878618460837_);">
				<path class="st0" d="M95.6,28.2c-0.2-1.6-0.6-2.4-2.6-2.9c-1.8-0.4-3.2-0.5-4.2-0.5c-0.2,0-0.5,0-0.7,0c-1.1,0-2.4,0.1-4.2,0.5
					c-2,0.5-2.4,1.3-2.6,2.9c-0.2,1.5-0.2,3.4-0.2,3.4c0,0.1,0,1.9,0.2,3.4c0.2,1.6,0.6,2.4,2.6,2.9c1.8,0.4,3.2,0.4,4.2,0.4
					c0.2,0,0.5,0,0.7,0c1.1,0,2.4,0,4.2-0.4c2-0.5,2.4-1.3,2.6-2.9c0.2-1.5,0.2-3.4,0.2-3.4C95.8,31.6,95.8,29.7,95.6,28.2z"/>
			</g>
			<path style="clip-path:url(#SVGID_00000175324503000822372940000014399004878618460837_);fill:#00BBED;" d="M90.5,29.5
				c0-0.5,0-1.1,0-1.6c0-0.7,0.5-1,0.5-1c0.4-0.2,0.8-0.2,1.2-0.1c0.6,0.3,1.4,0.7,1.4,0.7c0.5,0.2,0.9,0.5,1.3,0.8c0,0,0,0,0,0
				c0,0,0.1,0,0.1,0c0.5,0.3,0.7,1,0.4,1.6c-0.1,0.2-0.2,0.3-0.4,0.4c0,0,0,0,0,0c-0.5,0.3-0.9,0.6-1.3,0.9
				c-0.8,0.5-1.2,0.7-1.2,0.7c-0.3,0.2-0.9,0.3-1.3,0.1c-0.6-0.3-0.6-1-0.6-1S90.5,30.4,90.5,29.5z"/>
			<path style="clip-path:url(#SVGID_00000175324503000822372940000014399004878618460837_);fill:#FFFFFF;" d="M91.3,33.8
				c-1.5,1.4-4.9,1.4-6.4,0c-0.1-0.1-0.3-0.1-0.4,0c-0.1,0.1-0.1,0.3,0,0.4c1.7,1.6,5.4,1.7,7.2,0c0.1-0.1,0.1-0.3,0-0.4
				C91.6,33.7,91.4,33.7,91.3,33.8z"/>
			<path style="clip-path:url(#SVGID_00000175324503000822372940000014399004878618460837_);fill:#1AC62F;" d="M81.4,31.8"/>
			<path style="clip-path:url(#SVGID_00000175324503000822372940000014399004878618460837_);fill:#1AC62F;" d="M90.1,31.4
				C90.1,31.4,90.1,31.4,90.1,31.4l0-0.1L89.9,29l0-0.1c0,0,0-0.1,0-0.1c-0.1-0.4-0.5-0.8-0.9-0.9c-0.1,0-0.1,0-0.2,0h0h-1.1h0
				c-0.1,0-0.1,0-0.2,0c-0.5,0.1-0.8,0.4-1,0.9c0,0,0,0.1,0,0.1l0,0.1l-0.2,2.3l0,0.1c0,0,0,0,0,0c0,0,0,0,0,0c0,0.5,0.4,1,0.9,1.1
				c0.1,0,0.2,0,0.3,0h0h1.6h0c0.1,0,0.1,0,0.2,0C89.7,32.5,90.1,32,90.1,31.4C90.1,31.4,90.1,31.4,90.1,31.4z"/>
			<path style="clip-path:url(#SVGID_00000175324503000822372940000014399004878618460837_);fill:#F2338A;" d="M85.7,30.1
				c-0.4,1.5-1.8,2.3-3.3,2c-1.5-0.3-2.7-2.4-1.9-3.8c0.7-1.1,2.1-2,3.6-1.5C85.7,27.3,86.2,28.6,85.7,30.1z"/>
			<path style="clip-path:url(#SVGID_00000175324503000822372940000014399004878618460837_);fill:#1A1919;" d="M93.6,29.4
				c0,0.5-0.4,1-1,1c-0.5,0-1-0.4-1-1c0-0.5,0.4-1,1-1C93.2,28.4,93.6,28.9,93.6,29.4z"/>
			<path style="clip-path:url(#SVGID_00000175324503000822372940000014399004878618460837_);fill:#1A1919;" d="M84.4,29.4
				c0,0.5-0.4,1-1,1c-0.5,0-1-0.4-1-1c0-0.5,0.4-1,1-1C84,28.4,84.4,28.9,84.4,29.4z"/>
		</g>
	</g>
</g>
</svg>
