<?xml version="1.0" encoding="UTF-8"?>
<svg width="100px" height="60px" viewBox="0 0 100 60" version="1.1" xmlns="http://www.w3.org/2000/svg" xmlns:xlink="http://www.w3.org/1999/xlink">
    <!-- Generator: Sketch 55.2 (78181) - https://sketchapp.com -->
    <title>logo/air_busan</title>
    <desc>Created with Sketch.</desc>
    <defs>
        <polygon id="path-1" points="0.01655 0.120833333 60.5521667 0.120833333 60.5521667 9.91745 0.01655 9.91745"></polygon>
        <polygon id="path-3" points="0.0280621788 0.160599666 7.6885 0.160599666 7.6885 9 0.0280621788 9"></polygon>
        <polygon id="path-5" points="0 0.155424919 6.79115 0.155424919 6.79115 8.84118922 0 8.84118922"></polygon>
    </defs>
    <g id="logo/air_busan" stroke="none" stroke-width="1" fill="none" fill-rule="evenodd">
        <g id="Group-22" transform="translate(18.000000, 18.000000)">
            <g id="Group-3" transform="translate(3.000000, 0.045833)">
                <mask id="mask-2" fill="white">
                    <use xlink:href="#path-1"></use>
                </mask>
                <g id="Clip-2"></g>
                <path d="M60.5522167,3.43211667 C60.4538833,3.60928333 60.3773833,3.80411667 60.2533833,3.96111667 C58.5068833,6.17345 56.2317167,7.42961667 53.4262167,7.73528333 C50.76955,8.02511667 48.2087167,7.54945 45.69105,6.76661667 C43.53905,6.09761667 41.4098833,5.33795 39.1873833,4.93711667 C34.0108833,4.00345 29.7157167,5.59511667 26.2757167,9.55045 C26.18155,9.65845 26.0933833,9.77178333 26.00155,9.88195 C25.9963833,9.88795 25.9848833,9.88895 25.9123833,9.91745 C26.9418833,7.94528333 28.3917167,6.42878333 30.2223833,5.17578333 C30.0038833,5.12178333 29.84355,5.08495 29.6843833,5.04228333 C28.4523833,4.71195 27.41605,4.01111667 26.3722167,3.31545 C25.5313833,2.75495 24.6988833,2.16395 23.79805,1.71711667 C22.6647167,1.15528333 21.4417167,1.02345 20.20155,1.40728333 C20.0747167,1.44661667 19.95305,1.50478333 19.83255,1.56195 C19.77355,1.58978333 19.72355,1.63495 19.65905,1.67961667 C19.6972167,1.71361667 19.7207167,1.74545 19.7528833,1.76178333 C21.1492167,2.46995 22.0147167,3.63161667 22.58605,5.05178333 C23.1068833,6.34545 23.3087167,7.69811667 23.37855,9.11911667 C23.3263833,9.08095 23.29405,9.06845 23.2788833,9.04478333 C22.2203833,7.35245 20.63905,6.42595 18.73955,6.00345 C16.46755,5.49795 14.21355,5.71195 11.99205,6.31428333 C10.9242167,6.60361667 9.88555,7.00161667 8.82155,7.30745 C6.90505,7.85828333 4.96321667,8.07778333 2.99105,7.60761667 C2.08688333,7.39211667 1.25488333,7.01778333 0.53455,6.42378333 C0.341216667,6.26411667 0.18805,6.05561667 0.01655,5.86961667 C0.0357166667,5.84328333 0.05505,5.81711667 0.0747166667,5.79078333 C0.19405,5.84711667 0.319216667,5.89395 0.432216667,5.96128333 C1.78721667,6.76795 3.25938333,7.01645 4.81305,6.90095 C6.63438333,6.76561667 8.34305,6.18178333 10.0528833,5.60128333 C11.2562167,5.19295 12.4593833,4.78945 13.7283833,4.62261667 C16.12805,4.30761667 18.3918833,4.71695 20.50605,5.89428333 C21.0618833,6.20378333 21.5783833,6.58411667 22.11455,6.93295 C22.1093833,6.94061667 22.13005,6.92261667 22.1268833,6.91378333 C21.63655,5.62028333 21.04255,4.38561667 20.0808833,3.36428333 C19.1367167,2.36195 17.96405,1.80995 16.6083833,1.65061667 C16.09005,1.58961667 15.56355,1.59778333 15.04105,1.57045 C14.9613833,1.56628333 14.88305,1.54045 14.8037167,1.52461667 C14.8313833,1.43995 14.8357167,1.33378333 14.89055,1.27395 C15.35955,0.76045 15.9253833,0.509616667 16.63505,0.646283333 C17.00055,0.71695 17.3712167,0.76095 17.7393833,0.818616667 C18.1528833,0.88345 18.5417167,0.826283333 18.9478833,0.69945 C19.64655,0.481116667 20.3607167,0.283616667 21.0833833,0.175783333 C22.3373833,-0.0117166667 23.5218833,0.290783333 24.60505,0.926116667 C25.3868833,1.38445 26.1373833,1.89761667 26.8893833,2.40428333 C28.0252167,3.16978333 29.2107167,3.80145 30.59605,3.98595 C31.4337167,4.09728333 32.25655,4.06328333 33.0618833,3.81478333 C36.44205,2.77178333 39.7648833,2.94945 43.0562167,4.21695 C44.7312167,4.86211667 46.4167167,5.48561667 48.12155,6.04411667 C49.8422167,6.60778333 51.6207167,6.85028333 53.4372167,6.67961667 C55.72705,6.46428333 57.7153833,5.52911667 59.5047167,4.12411667 C59.8243833,3.87311667 60.1372167,3.61311667 60.4528833,3.35728333 C60.4862167,3.38245 60.5193833,3.40745 60.5522167,3.43211667" id="Fill-1" fill="#120B7C" mask="url(#mask-2)"></path>
            </g>
            <path d="M57.94675,19.6875167 L55.7210833,19.6875167 L55.7210833,11.04685 L56.2455833,11.04685 C56.73325,11.04685 57.2209167,11.0561833 57.70775,11.04285 C57.9054167,11.0371833 58.01225,11.1070167 58.1150833,11.27435 C59.10125,12.8775167 60.0969167,14.4745167 61.0900833,16.0730167 C61.1344167,16.1440167 61.1824167,16.21285 61.28925,16.2770167 C61.2960833,16.1711833 61.3090833,16.0655167 61.3090833,15.9600167 C61.3105833,14.4591833 61.30975,12.9581833 61.3100833,11.4571833 C61.3100833,11.0475167 61.3105833,11.04735 61.7334167,11.0470167 L63.1955833,11.0470167 L63.5165833,11.0470167 L63.5165833,19.7020167 C62.81975,19.7020167 62.1435833,19.7106833 61.46725,19.6915167 C61.3794167,19.6890167 61.27225,19.55885 61.2129167,19.4635167 C60.2045833,17.86285 59.20275,16.2580167 58.1994167,14.6545167 C58.1335833,14.54985 58.0625833,14.44835 57.94625,14.2735167 C57.94675,16.1180167 57.94675,17.8845167 57.94675,19.6875167" id="Fill-4" fill="#120B7C"></path>
            <path d="M22.78065,14.3808667 C23.3308167,14.3350333 23.84715,14.3273667 24.3493167,14.2382 C24.70865,14.1742 24.88565,13.8700333 24.8841595,13.5178667 C24.8828167,13.1478667 24.6988167,12.8522 24.32215,12.7908667 C23.8218167,12.7092 23.3089833,12.7037 22.78065,12.6638667 L22.78065,14.3808667 Z M23.5838167,16.0092 C23.5828167,16.0190333 23.5813167,16.0293667 23.5803167,16.0392 C23.3989833,16.0392 23.2169833,16.0482 23.0364833,16.0368667 C22.84415,16.0250333 22.76215,16.0875333 22.7668167,16.2942 C22.7784833,16.7997 22.7774833,17.3058667 22.76715,17.8110333 C22.7629833,18.0157 22.8458167,18.0780333 23.03815,18.0717 C23.3619833,18.0613667 23.6893167,18.0935333 24.0103167,18.0597 C24.3088167,18.0282 24.6224833,17.9800333 24.8903167,17.8553667 C25.30915,17.6603667 25.3419833,17.2518667 25.2994833,16.8440333 C25.26115,16.4735333 25.05715,16.2180333 24.68665,16.1440333 C24.32465,16.0720333 23.9518167,16.0518667 23.5838167,16.0092 L23.5838167,16.0092 Z M25.9608167,14.9923667 C26.0838167,15.0538667 26.15765,15.0937 26.2333167,15.1285333 C27.97115,15.9217 27.7908167,18.0325333 26.73465,18.9217 C26.1099833,19.4478667 25.3714833,19.6537 24.58715,19.6752 C23.3074833,19.7098667 22.0269833,19.6928667 20.7468167,19.7060679 C20.49015,19.7088667 20.5418167,19.5370333 20.54165,19.3937 C20.5399833,17.5113667 20.5403167,15.6290333 20.5403167,13.7467 C20.5404833,12.9345333 20.5408167,12.1223667 20.5404833,11.3102 C20.5403167,11.1737 20.5239833,11.0412 20.73515,11.0449521 C22.08115,11.0712 23.4288167,11.0580333 24.7729833,11.1258667 C25.50115,11.1623667 26.17265,11.4358667 26.6429833,12.0502 C27.35265,12.9778667 27.12965,14.2472 26.1513167,14.8725333 C26.1034833,14.9032 26.0554833,14.9327 25.9608167,14.9923667 L25.9608167,14.9923667 Z" id="Fill-6" fill="#120B7C"></path>
            <g id="Group-10" transform="translate(28.833333, 10.879167)">
                <mask id="mask-4" fill="white">
                    <use xlink:href="#path-3"></use>
                </mask>
                <g id="Clip-9"></g>
                <path d="M0.054,0.1866 L2.29483333,0.1866 C2.30016667,0.3021 2.31016667,0.412766667 2.31016667,0.523433333 C2.31133333,2.1486 2.3095,3.77393333 2.31233333,5.39926667 C2.31266667,5.5996 2.32316667,5.80126667 2.34866667,5.99943333 C2.36783333,6.14976667 2.40133333,6.30276667 2.45766667,6.4431 C2.6735,6.98126667 3.25066667,7.2576 4.01983333,7.20493333 C4.7285,7.1566 5.18566667,6.82943333 5.31583333,6.24043333 C5.37316667,5.98176667 5.393,5.71043333 5.39433333,5.4446 C5.40116667,3.80043333 5.40433333,2.15576667 5.3915,0.511433333 C5.3895,0.233266667 5.46683333,0.150266667 5.74416667,0.1616 C6.27833333,0.1831 6.81466667,0.166933333 7.3495,0.1686 C7.452,0.1686 7.5545,0.176766667 7.67066667,0.181933333 C7.67783333,0.278766667 7.6885,0.352766667 7.6885,0.426933333 C7.684,2.22426667 7.6885,4.02126667 7.671,5.81826667 C7.65233333,7.7361 6.394,8.70243333 4.70416667,8.93543333 C3.77166667,9.0641 2.8495,9.0136 1.96616667,8.6656 C0.667,8.15393333 0.057,7.15126667 0.0398333333,5.7901 C0.0171666667,3.9741 0.034,2.15726667 0.0351666667,0.340933333 C0.0353333333,0.294933333 0.0461666667,0.249433333 0.054,0.1866" id="Fill-8" fill="#120B7C" mask="url(#mask-4)"></path>
            </g>
            <path d="M44.8609667,13.7059 L42.8074667,13.7059 C42.7884667,13.6050667 42.7944667,13.4992333 42.7499667,13.4219 C42.6351333,13.2219 42.5396333,12.9680667 42.3611333,12.8542333 C41.8471333,12.5255667 41.2826333,12.5425667 40.7549667,12.8349 C40.2989667,13.0877333 40.2993,13.5554 40.7653,13.7854 C41.2079667,14.0037333 41.6896333,14.1419 42.1508,14.3244 C42.7268,14.5525667 43.3166333,14.7552333 43.8708,15.0294 C45.6044667,15.8879 45.4293,18.1675667 44.1796333,19.1394 C43.4796333,19.6842333 42.6633,19.8470667 41.8121333,19.8694 C40.9129667,19.8930667 40.0379667,19.7649 39.2529667,19.2769 C38.4994667,18.8087333 38.0749667,18.1247333 37.9341333,17.2570667 C37.9221333,17.1817333 37.9218,17.1047333 37.9207907,17.0284 C37.9204667,16.9822333 37.9291333,16.9364 37.9356333,16.8727333 L39.9393,16.8727333 C40.3753,17.9740667 41.2706333,18.3984 42.3246333,18.0024 C42.4136333,17.9689 42.5018,17.9280667 42.5808,17.8762333 C42.9568,17.6290667 42.9834667,17.2429 42.6158,16.9887333 C42.3831333,16.8282333 42.1143,16.7154 41.8516333,16.6047333 C41.1043,16.2894 40.3311333,16.0289 39.6064667,15.6690667 C38.4183,15.0792333 37.9564667,14.0700667 38.2754667,12.8480667 C38.5156333,11.9280667 39.1983,11.4252333 40.0506333,11.1304 C41.1221333,10.7597333 42.1899667,10.7927333 43.2394667,11.2310667 C44.2733,11.6632333 44.8771333,12.5739 44.8609667,13.7059" id="Fill-11" fill="#120B7C"></path>
            <path d="M51.06475,16.1935333 C50.7665833,15.3292 50.4854167,14.5160333 50.2050833,13.7025333 C50.1775833,13.7028667 50.15025,13.7033667 50.12275,13.7037 C49.8449167,14.5225333 49.56725,15.3412 49.2784167,16.1935333 L51.06475,16.1935333 Z M45.7114167,19.7127 C46.1220833,18.6380333 46.5079167,17.6222 46.8969167,16.6077 C47.5739167,14.8433667 48.2559167,13.0812 48.92525,11.3140333 C49.0029167,11.1090333 49.1025833,11.0372 49.3185833,11.0423667 C49.90125,11.0562 50.4840833,11.0503667 51.0670833,11.0442 C51.2169167,11.0430333 51.30825,11.0760333 51.3684167,11.2332 C52.42425,13.9870333 53.48625,16.7382 54.54575,19.4902 C54.5685833,19.5505333 54.57725,19.6160333 54.6009167,19.7123667 C53.8459167,19.7123667 53.1124167,19.7168667 52.3795833,19.7042 C52.32025,19.7033667 52.2370833,19.5950333 52.2100833,19.5203667 C52.0524167,19.0800333 51.90025,18.6378667 51.7620833,18.1910333 C51.70725,18.0130333 51.6129167,17.9585333 51.43175,17.9602 C50.5910833,17.9683667 49.75025,17.9692 48.9095833,17.9593667 C48.71275,17.9572 48.62225,18.0222 48.5659167,18.2110333 C48.4350833,18.6498667 48.28575,19.0837 48.1294167,19.5140333 C48.10025,19.5933667 48.0014167,19.7030333 47.9334167,19.7040333 C47.2089167,19.7178667 46.48425,19.7127 45.7114167,19.7127 L45.7114167,19.7127 Z" id="Fill-13" fill="#120B7C"></path>
            <path d="M11.6397,13.5019667 C11.6397,13.9799667 11.6417,14.4578 11.6386784,14.9356333 C11.6378667,15.0763 11.6603667,15.1819667 11.8373667,15.1759667 C12.4288667,15.1558 13.0248667,15.1781333 13.6110333,15.1129667 C14.4548667,15.0191333 14.9952,14.3964667 15.0267,13.5706333 C15.0600333,12.7001333 14.6502,12.1219667 13.7635333,11.9681333 C13.1292,11.8581333 12.4717,11.8821333 11.8242,11.8468 C11.6363667,11.8364667 11.6397,11.9678 11.6397,12.0969667 C11.6402,12.5653 11.6400333,13.0336333 11.6397,13.5019667 M14.2427,15.8581333 C15.0010333,17.1448 15.7408667,18.4003 16.5127,19.7099667 C16.1195333,19.7099667 15.7803667,19.7251333 15.4443667,19.6993 C15.3637,19.6931333 15.2755333,19.5623 15.2212,19.4704667 C14.5910333,18.4114667 13.9618667,17.3518 13.3450333,16.2849667 C13.2210333,16.0701333 13.0837,15.9623 12.8247,15.9849667 C12.5497,16.0093 12.2695333,16.0061333 11.9940333,15.9858 C11.7235333,15.9659667 11.6287,16.0503 11.6332,16.3346333 C11.6498667,17.3286333 11.6397,18.3231333 11.6397,19.3171333 L11.6397,19.6864667 L10.7135333,19.6864667 L10.7135333,11.0856333 C10.7665333,11.0708 10.8022,11.0513 10.8378667,11.05195 C11.8310333,11.0699667 12.8268667,11.0514667 13.8167,11.1199667 C14.9917,11.2009667 15.7968667,11.9351333 15.9830333,12.9914667 C16.2005333,14.2248 15.6663667,15.2209667 14.5150333,15.7299667 C14.4377,15.7638 14.3615333,15.8016333 14.2427,15.8581333" id="Fill-15" fill="#120B7C"></path>
            <g id="Group-19" transform="translate(0.000000, 10.879167)">
                <mask id="mask-6" fill="white">
                    <use xlink:href="#path-5"></use>
                </mask>
                <g id="Clip-18"></g>
                <path d="M2.02715,5.68025 L4.78815,5.68025 C4.32981667,4.23558333 3.88381667,2.83025 3.43781667,1.42525 C3.41415,1.42408333 3.39065,1.42275 3.36681667,1.42191667 C2.92465,2.82775 2.48215,4.23358333 2.02715,5.68025 M6.79115,8.83308333 C6.49348333,8.83308333 6.21815,8.84675 5.94581667,8.82375 C5.87598333,8.81775 5.78548333,8.70691667 5.75665,8.62575 C5.53881667,8.01441667 5.32598333,7.40108333 5.13065,6.78258333 C5.07181667,6.59641667 4.99198333,6.52391667 4.79198333,6.52575 C3.86515,6.53575 2.93831667,6.53441667 2.01131667,6.52658333 C1.82665,6.52475 1.74498333,6.58958333 1.68831667,6.76558333 C1.49181667,7.37375 1.26915,7.97358333 1.07315,8.58208333 C1.00898333,8.78091667 0.908483333,8.85508333 0.702483333,8.83908333 C0.484816667,8.82241667 0.264816667,8.83558333 -1.66666667e-05,8.83558333 C0.153983333,8.37741667 0.29515,7.94908333 0.440983333,7.52275 C1.24131667,5.18391667 2.04615,2.84658333 2.83881667,0.50525 C2.92448333,0.252583333 3.03815,0.116083333 3.31865,0.165416667 C3.41165,0.18175 3.51065,0.177583333 3.60481667,0.16575 C3.78881667,0.14325 3.87798333,0.22425 3.93565,0.395916667 C4.42881667,1.86141667 4.92881667,3.32441667 5.42715,4.78808333 C5.85765,6.05308333 6.28848333,7.31775 6.71865,8.58291667 C6.74281667,8.65341667 6.76048333,8.72641667 6.79115,8.83308333" id="Fill-17" fill="#120B7C" mask="url(#mask-6)"></path>
            </g>
            <path d="M8.82336667,11.0468833 L8.82336667,11.42055 C8.82336667,14.0592167 8.8237,16.69755 8.82336667,19.33605 C8.82336667,19.7032167 8.8227,19.7032167 8.4452,19.7034419 C7.84203333,19.7042167 7.84186667,19.7042167 7.84186667,19.0992167 C7.84186667,16.58505 7.84003333,14.0708833 7.8432,11.5568833 C7.84386667,10.9573833 7.7702,11.05805 8.36586667,11.04705 C8.50603333,11.04455 8.64636667,11.0468833 8.82336667,11.0468833" id="Fill-20" fill="#120B7C"></path>
        </g>
    </g>
</svg>