<?xml version="1.0" encoding="UTF-8"?>
<svg width="100px" height="60px" viewBox="0 0 100 60" version="1.1" xmlns="http://www.w3.org/2000/svg" xmlns:xlink="http://www.w3.org/1999/xlink">
    <!-- Generator: Sketch 55.2 (78181) - https://sketchapp.com -->
    <title>logo/amorepacfic</title>
    <desc>Created with Sketch.</desc>
    <g id="logo/amorepacfic" stroke="none" stroke-width="1" fill="none" fill-rule="evenodd">
        <g transform="translate(8.000000, 26.000000)">
            <path d="M3.7102268,1.32337143 C3.86239175,1.69165714 4.57040127,3.40822857 4.67003648,3.64965714 L2.70017129,3.64965714 C2.80637272,3.4048 3.55121015,1.68937143 3.7102268,1.32337143 L3.7102268,1.32337143 Z M3.31939413,0.187371429 L4.17043299,0.187371429 L7.37217764,7.79908571 L6.36611895,7.79908571 C6.36611895,7.79908571 5.03717367,4.59365714 4.98464393,4.46708571 C4.85274861,4.46622857 2.3724314,4.46708571 2.3724314,4.46708571 L0.956697859,7.79908571 L2.85487708e-05,7.79908571 L3.31939413,0.187371429 Z M14.9646947,0.187514286 L16.1220619,0.187514286 L16.1220619,7.79922857 L15.2182078,7.79922857 L15.2182078,1.64522857 C14.8944647,2.3938 12.5591753,7.79922857 12.5591753,7.79922857 L12.1132435,7.79922857 L9.41167328,1.63865714 L9.41167328,7.79922857 L8.50696273,7.79922857 L8.50696273,0.187514286 L9.71942902,0.187514286 C9.71942902,0.187514286 12.158636,5.80665714 12.3424901,6.22894286 C12.5257732,5.80665714 14.9646947,0.187514286 14.9646947,0.187514286 Z M35.527889,0.187514286 L40.7197684,0.187514286 L40.7197684,1.02951429 L36.4331705,1.02951429 L36.4331705,3.4458 L40.4811007,3.4458 L40.4811007,4.28894286 L36.4331705,4.28894286 L36.4331705,6.9558 L40.8867787,6.9558 L40.8867787,7.79922857 L35.527889,7.79922857 L35.527889,0.187514286 Z M31.8891768,4.21625714 C32.037345,4.4614 34.0571705,7.79911429 34.0571705,7.79911429 L33.022563,7.79911429 C33.022563,7.79911429 31.0061634,4.39168571 30.945069,4.2894 L28.703134,4.2894 L28.703134,7.79911429 L27.7992799,7.79911429 L27.7992799,4.2894 L25.8100016,4.2894 C25.6801047,6.48054286 24.1067819,7.98654286 21.8933957,7.98654286 C19.5809453,7.98654286 17.9665123,6.34425714 17.9665123,3.99254286 C17.9665123,1.64168571 19.5809453,-2.85714286e-05 21.8933957,-2.85714286e-05 C24.0217066,-2.85714286e-05 25.557345,1.39168571 25.7883045,3.44625714 L27.7992799,3.44625714 L27.7992799,0.1874 L30.9759017,0.1874 C32.791889,0.1874 33.7123013,0.876828571 33.7123013,2.23654286 C33.7123013,3.33368571 33.0788041,4.01225714 31.8891768,4.21625714 Z M21.8933957,7.14397143 C23.6731261,7.14397143 24.9161396,5.84825714 24.9161396,3.99254286 C24.9161396,2.13768571 23.6731261,0.841971429 21.8933957,0.841971429 C20.1125234,0.841971429 18.8689389,2.13768571 18.8689389,3.99254286 C18.8689389,5.84825714 20.1125234,7.14397143 21.8933957,7.14397143 Z M28.6939984,3.43168571 L31.1737446,3.43168571 C32.6411515,3.43168571 32.7998826,2.58654286 32.7998826,2.22254286 C32.7998826,1.85997143 32.6411515,1.0154 31.1737446,1.0154 L28.6939984,1.0154 L28.6939984,3.43168571 Z" id="Combined-Shape" fill="#005699"></path>
            <path d="M43.7233846,0.187514286 L43.7233846,7.79922857 L44.2286979,7.79922857 L44.2286979,4.08065714 L46.0332657,4.08065714 C47.1186899,4.08065714 48.2774845,3.57208571 48.2774845,2.14465714 C48.2774845,0.3778 46.5911086,0.187514286 45.8659699,0.187514286 L43.7233846,0.187514286 Z M44.3420365,0.628657143 L45.9547565,0.628657143 C46.7923775,0.628657143 47.7701729,1.0258 47.7701729,2.14465714 C47.7701729,3.24694286 46.8566122,3.64037143 46.001291,3.64037143 L44.2286979,3.64037143 L44.2286979,0.628657143 L44.3420365,0.628657143 Z M51.2534084,0.187514286 L47.9334718,7.79922857 L48.452203,7.79922857 C48.452203,7.79922857 49.8462395,4.52322857 49.8742173,4.45751429 L53.1027978,4.45751429 C53.1304901,4.52408571 54.4842728,7.79865714 54.4842728,7.79865714 L55.059816,7.79922857 L51.8580714,0.187514286 L51.2534084,0.187514286 Z M51.414138,0.834942857 C51.414138,0.834942857 51.4723775,0.696942857 51.5169136,0.590657143 C51.6085551,0.814085714 52.8604187,3.88494286 52.9175163,4.02522857 L50.0643521,4.02522857 C50.1263029,3.88008571 51.414138,0.834942857 51.414138,0.834942857 L51.414138,0.834942857 Z M55.8660333,3.99265714 C55.8660333,6.34465714 57.4793243,7.98665714 59.7892054,7.98665714 C60.9131705,7.98665714 61.819594,7.56408571 62.4864933,6.73151429 L62.5218937,6.68751429 L62.1033688,6.37008571 L62.0705377,6.41322857 C61.4330436,7.25008571 60.4432577,7.54722857 59.7892054,7.54722857 C57.776517,7.54722857 56.3713466,6.08551429 56.3713466,3.99265714 C56.3713466,1.90151429 57.776517,0.440657143 59.7892054,0.440657143 C60.6179762,0.440657143 61.3716638,0.796085714 61.8589913,1.41551429 L61.8932498,1.45951429 L62.3117748,1.1078 L62.2760888,1.0658 C61.6620048,0.358942857 60.8258113,0.000371428571 59.7892054,0.000371428571 C57.4793243,0.000371428571 55.8660333,1.64237143 55.8660333,3.99265714 L55.8660333,3.99265714 Z M76.2087454,3.99265714 C76.2087454,6.34465714 77.8228929,7.98665714 80.1319175,7.98665714 C81.2555971,7.98665714 82.1631626,7.56408571 82.8300619,6.73151429 L82.8651768,6.68751429 L82.4460809,6.37008571 L82.4129643,6.41322857 C81.7766122,7.25008571 80.7873973,7.54722857 80.1319175,7.54722857 C78.1195147,7.54722857 76.7140587,6.08551429 76.7140587,3.99265714 C76.7140587,1.90151429 78.1195147,0.440657143 80.1319175,0.440657143 C80.9612593,0.440657143 81.7149469,0.796085714 82.2011324,1.41551429 L82.2362474,1.45951429 L82.6559144,1.1078 L82.618801,1.0658 C82.0052879,0.358942857 81.1682379,0.000371428571 80.1319175,0.000371428571 C77.8228929,0.000371428571 76.2087454,1.64237143 76.2087454,3.99265714 L76.2087454,3.99265714 Z M64.6116638,7.79922857 L65.118119,7.79922857 L65.118119,0.187514286 L64.6116638,0.187514286 L64.6116638,7.79922857 Z M67.2818303,0.187514286 L67.2818303,7.79922857 L67.7882855,7.79922857 L67.7882855,4.08065714 L71.4702205,4.08065714 L71.4702205,3.64037143 L67.7882855,3.64037143 L67.7882855,0.628657143 L71.747429,0.628657143 L71.747429,0.187514286 L67.2818303,0.187514286 Z M73.8928692,7.79922857 L74.3987534,7.79922857 L74.3987534,0.187514286 L73.8928692,0.187514286 L73.8928692,7.79922857 Z" id="Fill-10" fill="#001C58"></path>
        </g>
    </g>
</svg>