<?xml version="1.0" encoding="UTF-8"?>
<svg width="100px" height="60px" viewBox="0 0 100 60" version="1.1" xmlns="http://www.w3.org/2000/svg" xmlns:xlink="http://www.w3.org/1999/xlink">
    <!-- Generator: Sketch 55.2 (78181) - https://sketchapp.com -->
    <title>logo/aprogen</title>
    <desc>Created with Sketch.</desc>
    <defs>
        <polygon id="path-1" points="0.165948718 0.00943589744 7.89661538 0.00943589744 7.89661538 9.76367179 0.165948718 9.76367179"></polygon>
        <polygon id="path-3" points="0 0.198974359 6.52322051 0.198974359 6.52322051 9.14830769 0 9.14830769"></polygon>
        <polygon id="path-5" points="0 15.9904821 63.9499487 15.9904821 63.9499487 0.205046154 0 0.205046154"></polygon>
    </defs>
    <g id="logo/aprogen" stroke="none" stroke-width="1" fill="none" fill-rule="evenodd">
        <g transform="translate(18.000000, 22.000000)">
            <g id="Group-3" transform="translate(29.743590, 0.195610)">
                <mask id="mask-2" fill="white">
                    <use xlink:href="#path-1"></use>
                </mask>
                <g id="Clip-2"></g>
                <path d="M6.20471795,7.06910769 C6.20471795,7.56777436 5.8,7.97208205 5.30174359,7.97208205 L2.76164103,7.97208205 C2.26276923,7.97208205 1.85784615,7.56777436 1.85784615,7.06910769 L1.85784615,2.70418462 C1.85784615,2.20551795 2.26276923,1.80121026 2.76164103,1.80121026 L5.30174359,1.80121026 C5.8,1.80121026 6.20471795,2.20551795 6.20471795,2.70418462 L6.20471795,7.06910769 Z M5.79015385,0.00941538462 L2.27323077,0.00941538462 C1.10851282,0.00941538462 0.165948718,0.953210256 0.165948718,2.11628718 L0.165948718,7.65700513 C0.165948718,8.82028718 1.10851282,9.76367179 2.27323077,9.76367179 L5.79015385,9.76367179 C6.95302564,9.76367179 7.89661538,8.82028718 7.89661538,7.65700513 L7.89661538,2.11628718 C7.89661538,0.953210256 6.95302564,0.00941538462 5.79015385,0.00941538462 L5.79015385,0.00941538462 Z" id="Fill-1" fill="#B4B5B5" mask="url(#mask-2)"></path>
            </g>
            <path d="M18.5957538,4.20613333 C18.5957538,4.53905641 18.3266256,4.80859487 17.9939077,4.80859487 L14.6146256,4.80859487 L14.6146256,1.90562051 L17.9939077,1.90562051 C18.3266256,1.90562051 18.5957538,2.17515897 18.5957538,2.50787692 L18.5957538,4.20613333 Z M18.3662154,0.205107692 L14.7282667,0.205107692 C14.6894974,0.205107692 14.6529846,0.21454359 14.6146256,0.216594872 L14.6146256,0.205107692 L12.8228308,0.205107692 L12.8228308,9.9593641 L14.6146256,9.9593641 L14.6146256,6.49741538 C14.6529846,6.49946667 14.6894974,6.50890256 14.7282667,6.50890256 L18.3662154,6.50890256 C19.3637538,6.50890256 20.171959,5.70028718 20.171959,4.70274872 L20.171959,2.01126154 C20.171959,1.01372308 19.3637538,0.205107692 18.3662154,0.205107692 L18.3662154,0.205107692 Z" id="Fill-4" fill="#B4B5B5"></path>
            <path d="M26.3096821,4.80849231 L23.1246564,4.80849231 L23.1246564,1.90551795 L26.5039385,1.90551795 C26.8364513,1.90551795 27.1057846,2.17505641 27.1057846,2.50797949 L27.1057846,4.20603077 C27.1057846,4.53895385 26.8364513,4.80849231 26.5039385,4.80849231 L26.3096821,4.80849231 Z M28.6817846,2.0113641 C28.6817846,1.01382564 27.8737846,0.205210256 26.8762462,0.205210256 L23.2382974,0.205210256 C23.1991179,0.205210256 23.1630154,0.214441026 23.1246564,0.216697436 L23.1246564,0.205210256 L21.3328615,0.205210256 L21.3328615,9.95926154 L23.1246564,9.95926154 L23.1246564,6.49751795 C23.1630154,6.49956923 23.1991179,6.50900513 23.2382974,6.50900513 L26.3096821,6.50900513 L26.5039385,6.50900513 C26.8364513,6.50900513 27.1057846,6.77854359 27.1057846,7.11126154 L27.1057846,9.95926154 L28.6817846,9.95926154 L28.6817846,6.61464615 C28.6817846,6.26203077 28.5773744,5.93669744 28.4030154,5.65874872 C28.5773744,5.38100513 28.6817846,5.05526154 28.6817846,4.70264615 L28.6817846,2.0113641 Z" id="Fill-6" fill="#B4B5B5"></path>
            <path d="M46.5152205,3.63901538 L46.5152205,2.3118359 C46.5152205,1.14875897 45.5716308,0.205169231 44.4083487,0.205169231 L40.8914256,0.205169231 C39.7283487,0.205169231 38.784759,1.14875897 38.784759,2.3118359 L38.784759,7.85255385 C38.784759,9.0158359 39.7283487,9.95942564 40.8914256,9.95942564 L44.4083487,9.95942564 C45.5716308,9.95942564 46.5152205,9.0158359 46.5152205,7.85255385 L46.5152205,4.80845128 L46.0175795,4.80845128 L44.8229128,4.80845128 L42.252041,4.80845128 L42.252041,6.49234872 L44.8229128,6.49234872 L44.8229128,7.26465641 C44.8229128,7.76332308 44.4186051,8.1678359 43.9203487,8.1678359 L41.3798359,8.1678359 C40.8813744,8.1678359 40.4768615,7.76332308 40.4768615,7.26465641 L40.4768615,2.89973333 C40.4768615,2.40106667 40.8813744,1.99675897 41.3798359,1.99675897 L43.9203487,1.99675897 C44.4186051,1.99675897 44.8229128,2.40106667 44.8229128,2.89973333 L44.8229128,3.63901538 L46.5152205,3.63901538 Z" id="Fill-8" fill="#B4B5B5"></path>
            <polygon id="Fill-10" fill="#B4B5B5" points="54.1458256 1.9968 54.1458256 0.205210256 49.5177231 0.205210256 47.6598769 0.205210256 47.6598769 1.9968 47.6598769 4.18654359 47.6598769 5.97813333 47.6598769 8.16767179 47.6598769 9.95926154 49.5177231 9.95926154 54.1458256 9.95926154 54.1458256 8.16767179 49.5177231 8.16767179 49.5177231 5.97813333 54.1458256 5.97813333 54.1458256 4.18654359 49.5177231 4.18654359 49.5177231 1.9968"></polygon>
            <polygon id="Fill-12" fill="#B4B5B5" points="62.1582564 0.205128205 62.1582564 7.38297436 57.6298462 0.205128205 57.1317949 0.205128205 55.4234872 0.205128205 55.3406154 0.205128205 55.3406154 9.95938462 57.1317949 9.95938462 57.1317949 2.91323077 61.5777436 9.95938462 62.1582564 9.95938462 63.7841026 9.95938462 63.9498462 9.95938462 63.9498462 0.205128205"></polygon>
            <path d="M8.21152821,7.43790769 C7.6638359,6.07749744 5.28373333,0.205087179 5.28373333,0.205087179 L3.35101538,0.205087179 C3.35101538,0.205087179 5.63491282,6.02683077 6.37009231,7.81944615 C7.19942564,9.84324103 8.21152821,9.95934359 8.21152821,9.95934359 L10.4591179,9.95934359 C9.58014359,9.95934359 8.75881026,8.79811282 8.21152821,7.43790769" id="Fill-14" fill="#E50113"></path>
            <path d="M10.1442256,7.43790769 C9.59653333,6.07749744 7.21602051,0.205087179 7.21602051,0.205087179 L5.28371282,0.205087179 C5.28371282,0.205087179 7.66381538,6.07749744 8.21150769,7.43790769 C8.75878974,8.79811282 9.58012308,9.95934359 10.4590974,9.95934359 L12.3918154,9.95934359 C11.512841,9.95934359 10.6915077,8.79811282 10.1442256,7.43790769" id="Fill-16" fill="#231916"></path>
            <g id="Group-20" transform="translate(0.000000, 0.810995)">
                <mask id="mask-4" fill="white">
                    <use xlink:href="#path-3"></use>
                </mask>
                <g id="Clip-19"></g>
                <path d="M6.37019487,7.00841026 C6.21265641,6.62461538 5.98393846,6.05579487 5.7224,5.39938462 L3.55973333,5.39938462 L4.65901538,2.71692308 C4.27275897,1.73928205 3.91193846,0.821333333 3.66701538,0.198974359 L-6.15384615e-05,9.14830769 L2.02373333,9.14830769 L2.75809231,7.35671795 L6.52322051,7.35671795 C6.47152821,7.24738462 6.42065641,7.13148718 6.37019487,7.00841026" id="Fill-18" fill="#B4B5B5" mask="url(#mask-4)"></path>
            </g>
            <mask id="mask-6" fill="white">
                <use xlink:href="#path-5"></use>
            </mask>
            <g id="Clip-22"></g>
            <path d="M16.7228718,14.2005333 L17.2408205,14.2005333 L17.2408205,11.9201231 L16.7228718,11.9201231 L16.7228718,14.2005333 Z M15.8855385,14.2005333 L15.8855385,13.4604308 L15.4231795,13.4604308 L15.4231795,12.9978667 L15.8855385,12.9978667 L15.8855385,11.9894564 L16.4036923,11.9894564 L16.4036923,14.2005333 L15.8855385,14.2005333 Z M14.1883077,15.9441231 L14.1883077,14.9913026 L16.6209231,14.9913026 L16.6209231,14.7925333 L14.1883077,14.7925333 L14.1883077,14.4040205 L17.2363077,14.4040205 L17.2363077,15.356841 L14.7987692,15.356841 L14.7987692,15.5510974 L17.3333333,15.5510974 L17.3333333,15.9441231 L14.1883077,15.9441231 Z M14.7987692,13.4858667 C14.7187692,13.4442256 14.6151795,13.4233026 14.4888205,13.4233026 C14.3716923,13.4233026 14.2697436,13.4427897 14.1835897,13.4813538 C14.0972308,13.5199179 14.0541538,13.5744821 14.0541538,13.6454564 C14.0541538,13.7225846 14.0980513,13.7812513 14.1860513,13.8212513 C14.273641,13.8612513 14.3747692,13.8813538 14.4888205,13.8813538 C14.6121026,13.8813538 14.7148718,13.8589949 14.7965128,13.8142769 C14.8779487,13.769559 14.9189744,13.7133538 14.9189744,13.6454564 C14.9189744,13.5806359 14.8785641,13.5275077 14.7987692,13.4858667 L14.7987692,13.4858667 Z M13.9567179,12.345559 L14.9930256,12.345559 L14.9930256,11.9433026 L13.9567179,11.9433026 L13.9567179,12.345559 Z M15.1573333,14.0940718 C14.9645128,14.1990974 14.7401026,14.2514051 14.4841026,14.2514051 C14.2313846,14.2514051 14.0094359,14.1966359 13.8182564,14.0870974 C13.6268718,13.9777641 13.5314872,13.8274051 13.5314872,13.6362256 C13.5314872,13.4542769 13.6278974,13.3117128 13.8205128,13.2083282 C14.0131282,13.1051487 14.2358974,13.0534564 14.4888205,13.0534564 C14.7448205,13.0534564 14.9684103,13.1065846 15.1593846,13.2130462 C15.3505641,13.3193026 15.446359,13.4635077 15.446359,13.6454564 C15.446359,13.8397128 15.3499487,13.9892513 15.1573333,14.0940718 L15.1573333,14.0940718 Z M13.4666667,12.9330462 L15.4925128,12.9330462 L15.4925128,12.5213538 L13.4666667,12.5213538 L13.4666667,12.9330462 Z" id="Fill-21" fill="#B4B5B5" mask="url(#mask-6)"></path>
            <path d="M19.4587282,13.6569436 C19.3520615,13.7634051 19.227959,13.8704821 19.0866256,13.9783795 C18.935241,14.0926359 18.7772923,14.1874051 18.6121641,14.2628923 C18.447241,14.3385846 18.3153436,14.3931487 18.2166769,14.4272 L17.8700103,14.0524308 C18.0148308,13.9999179 18.1791385,13.9260718 18.3625231,13.8304821 C18.5461128,13.7348923 18.7225231,13.6161231 18.8921641,13.4741744 C19.0523692,13.3385846 19.1725744,13.1814564 19.2529846,13.0025846 C19.3329846,12.8237128 19.3729846,12.6386872 19.3729846,12.4475077 L19.3729846,12.1467897 L19.9838564,12.1467897 L19.9838564,12.4475077 C19.9838564,12.6386872 20.0238564,12.8237128 20.1038564,13.0025846 C20.1840615,13.1814564 20.3044718,13.3385846 20.4644718,13.4741744 C20.6371897,13.6161231 20.8144205,13.7348923 20.9965744,13.8304821 C21.1785231,13.9260718 21.3420103,13.9999179 21.4870359,14.0524308 L21.139959,14.4272 C21.0414974,14.3931487 20.9096,14.3385846 20.7446769,14.2628923 C20.5795487,14.1874051 20.4213949,14.0926359 20.2704205,13.9783795 C20.1288821,13.8704821 20.0060103,13.7634051 19.9026256,13.6569436 C19.7994462,13.5504821 19.7245744,13.449559 19.6784205,13.3539692 C19.6384205,13.449559 19.5649846,13.5504821 19.4587282,13.6569436 L19.4587282,13.6569436 Z M17.6433436,15.4725333 L21.7134974,15.4725333 L21.7134974,15.0052513 L17.6433436,15.0052513 L17.6433436,15.4725333 Z" id="Fill-23" fill="#B4B5B5" mask="url(#mask-6)"></path>
            <path d="M25.1643077,15.9904821 L25.6822564,15.9904821 L25.6822564,11.9201231 L25.1643077,11.9201231 L25.1643077,15.9904821 Z M23.712,13.9738667 L23.712,13.4604308 L24.2391795,13.4604308 L24.2391795,12.0126359 L24.7573333,12.0126359 L24.7573333,15.8054564 L24.2391795,15.8054564 L24.2391795,13.9738667 L23.712,13.9738667 Z M23.2215385,13.113559 C23.2369231,13.0087385 23.2475897,12.9193026 23.2537436,12.8452513 L22.2412308,12.8452513 L22.2412308,12.3966359 L23.8272821,12.3966359 C23.8272821,12.5939692 23.8010256,12.8544821 23.7487179,13.1783795 C23.6964103,13.5020718 23.6069744,13.7919179 23.4808205,14.0479179 C23.3294359,14.3562256 23.1493333,14.6206359 22.9396923,14.8411487 C22.729641,15.0616615 22.5429744,15.228841 22.3796923,15.3428923 L21.9727179,15.0561231 C22.1054359,14.9666872 22.2633846,14.8296615 22.4469744,14.6444308 C22.630359,14.4594051 22.7792821,14.2667897 22.8929231,14.0663795 C22.9113846,14.0325333 22.9292308,13.9993026 22.9464615,13.9668923 C22.9634872,13.9346872 22.9794872,13.9028923 22.9950769,13.8721231 C22.9673846,13.8752 22.9411282,13.8774564 22.9161026,13.8790974 C22.8916923,13.8805333 22.8730256,13.8829949 22.8607179,13.8860718 L22.1253333,13.8953026 L22.1253333,13.4649436 L22.7403077,13.4604308 C22.7930256,13.4573538 22.8598974,13.4520205 22.9419487,13.4442256 C23.0233846,13.4366359 23.0949744,13.4296615 23.1569231,13.4233026 C23.1846154,13.321559 23.2061538,13.2183795 23.2215385,13.113559 L23.2215385,13.113559 Z" id="Fill-24" fill="#B4B5B5" mask="url(#mask-6)"></path>
            <path d="M27.9116513,13.0002051 C27.8066256,12.7891282 27.6589333,12.6834872 27.4677538,12.6834872 C27.279241,12.6834872 27.1307282,12.7897436 27.0211897,13.0024615 C26.9116513,13.2153846 26.8568821,13.4574359 26.8568821,13.7286154 C26.8568821,14.0032821 26.9116513,14.2459487 27.0211897,14.4572308 C27.1307282,14.6683077 27.279241,14.7739487 27.4677538,14.7739487 C27.6589333,14.7739487 27.8066256,14.6693333 27.9116513,14.4594872 C28.0166769,14.2498462 28.0689846,14.0061538 28.0689846,13.7286154 C28.0689846,13.4541538 28.0166769,13.2114872 27.9116513,13.0002051 L27.9116513,13.0002051 Z M29.2993436,15.9905641 L29.2993436,13.9275897 L28.5914462,13.9275897 C28.5608821,14.3286154 28.4451897,14.6492308 28.2447795,14.889641 C28.0441641,15.1300513 27.7834462,15.2504615 27.4630359,15.2504615 C27.1178051,15.2504615 26.8423179,15.1115897 26.6373949,14.8342564 C26.4322667,14.5565128 26.3297026,14.1897436 26.3297026,13.7333333 C26.3297026,13.2676923 26.4322667,12.8970256 26.6373949,12.6209231 C26.8423179,12.3450256 27.1178051,12.2069744 27.4630359,12.2069744 C27.7711385,12.2069744 28.0242667,12.3179487 28.2216,12.5401026 C28.4189333,12.7620513 28.5374974,13.0611282 28.5777026,13.4373333 L29.2993436,13.4373333 L29.2993436,11.9202051 L29.835959,11.9202051 L29.835959,15.9905641 L29.2993436,15.9905641 Z" id="Fill-25" fill="#B4B5B5" mask="url(#mask-6)"></path>
            <path d="M35.2936615,14.9081436 L35.2936615,13.4835282 L34.8868923,13.4835282 L34.8868923,14.8295795 L34.3685333,14.8295795 L34.3685333,11.9893744 L34.8868923,11.9893744 L34.8868923,12.9748103 L35.2936615,12.9748103 L35.2936615,11.9202462 L35.8116103,11.9202462 L35.8116103,14.9081436 L35.2936615,14.9081436 Z M32.8005333,15.8978872 L32.8005333,14.6121436 L33.3371487,14.6121436 L33.3371487,15.4308103 L35.9041231,15.4308103 L35.9041231,15.8978872 L32.8005333,15.8978872 Z M32.7336615,12.7157333 C32.6456615,12.8082462 32.6017641,12.9393231 32.6017641,13.1089641 C32.6017641,13.2784 32.6462769,13.4094769 32.7359179,13.5021949 C32.8251487,13.5945026 32.9270974,13.6408615 33.0409436,13.6408615 C33.1582769,13.6408615 33.2610462,13.5945026 33.3486359,13.5021949 C33.4366359,13.4094769 33.4805333,13.2784 33.4805333,13.1089641 C33.4805333,12.9362462 33.4366359,12.8045538 33.3486359,12.7132718 C33.2610462,12.6224 33.1582769,12.5768615 33.0409436,12.5768615 C32.9240205,12.5768615 32.8212513,12.6232205 32.7336615,12.7157333 L32.7336615,12.7157333 Z M33.7418667,12.3688615 C33.9312,12.5569641 34.0263795,12.8035282 34.0263795,13.1089641 C34.0263795,13.4111179 33.9303795,13.6568615 33.7394051,13.8466051 C33.5482256,14.0363487 33.3154051,14.1311179 33.0409436,14.1311179 C32.7666872,14.1311179 32.5340718,14.0355282 32.3428923,13.8443487 C32.1513026,13.6531692 32.0559179,13.408041 32.0559179,13.1089641 C32.0559179,12.8068103 32.1513026,12.5608615 32.3428923,12.3711179 C32.5340718,12.1815795 32.7666872,12.0868103 33.0409436,12.0868103 C33.3186872,12.0868103 33.5521231,12.180759 33.7418667,12.3688615 L33.7418667,12.3688615 Z" id="Fill-26" fill="#B4B5B5" mask="url(#mask-6)"></path>
            <path d="M41.2094359,15.9904821 L41.7273846,15.9904821 L41.7273846,11.9201231 L41.2094359,11.9201231 L41.2094359,15.9904821 Z M40.3446154,15.8054564 L40.3446154,13.9783795 L39.8217436,13.9783795 L39.8217436,13.4512 L40.3446154,13.4512 L40.3446154,12.0126359 L40.8625641,12.0126359 L40.8625641,15.8054564 L40.3446154,15.8054564 Z M39.766359,13.1783795 C39.7167179,13.5020718 39.6291282,13.7919179 39.5025641,14.0479179 C39.3513846,14.3562256 39.1749744,14.6206359 38.9729231,14.8411487 C38.7710769,15.0616615 38.5883077,15.228841 38.4248205,15.3428923 L38.0180513,15.0561231 C38.1505641,14.9666872 38.3035897,14.8296615 38.4779487,14.6444308 C38.6523077,14.4594051 38.7965128,14.2667897 38.9105641,14.0663795 C39.0402051,13.8411487 39.1294359,13.6192 39.1786667,13.4003282 C39.2283077,13.1814564 39.2592821,12.9995077 39.2713846,12.8544821 L38.2397949,12.8544821 L38.2397949,12.3966359 L39.8404103,12.3966359 C39.8404103,12.5939692 39.8157949,12.8544821 39.766359,13.1783795 L39.766359,13.1783795 Z" id="Fill-27" fill="#B4B5B5" mask="url(#mask-6)"></path>
            <path d="M45.4047179,14.2189949 L45.9411282,14.2189949 L45.9411282,11.9201231 L45.4047179,11.9201231 L45.4047179,14.2189949 Z M43.5355897,15.4817641 L45.4,15.4817641 L45.4,14.8758154 L43.5355897,14.8758154 L43.5355897,15.4817641 Z M42.9807179,15.9443282 L45.9364103,15.9443282 L45.9364103,14.4272 L42.9807179,14.4272 L42.9807179,15.9443282 Z M43.9085128,12.6672 C43.8110769,12.5607385 43.6746667,12.5076103 43.4988718,12.5076103 C43.3261538,12.5076103 43.190359,12.5607385 43.0918974,12.6672 C42.9930256,12.7734564 42.9437949,12.8977641 42.9437949,13.0395077 C42.9437949,13.1814564 42.9930256,13.3047385 43.0918974,13.409559 C43.190359,13.5143795 43.3261538,13.5668923 43.4988718,13.5668923 C43.6746667,13.5668923 43.8110769,13.5143795 43.9085128,13.409559 C44.0053333,13.3047385 44.0539487,13.1814564 44.0539487,13.0395077 C44.0539487,12.8977641 44.0053333,12.7734564 43.9085128,12.6672 L43.9085128,12.6672 Z M44.3037949,13.7424821 C44.0937436,13.9369436 43.825641,14.0339692 43.4988718,14.0339692 C43.1718974,14.0339692 42.9037949,13.9369436 42.6941538,13.7424821 C42.4841026,13.5482256 42.3796923,13.3139692 42.3796923,13.0395077 C42.3796923,12.7650462 42.4841026,12.5291487 42.6941538,12.3318154 C42.9037949,12.1344821 43.1718974,12.0358154 43.4988718,12.0358154 C43.825641,12.0358154 44.0937436,12.1344821 44.3037949,12.3318154 C44.5134359,12.5291487 44.6180513,12.7650462 44.6180513,13.0395077 C44.6180513,13.3139692 44.5134359,13.5482256 44.3037949,13.7424821 L44.3037949,13.7424821 Z" id="Fill-28" fill="#B4B5B5" mask="url(#mask-6)"></path>
            <path d="M48.2491897,13.7217641 C48.1474462,13.8313026 48.0227282,13.9383795 47.8746256,14.0432 C47.7234462,14.1513026 47.5722667,14.2405333 47.4210872,14.3115077 C47.2701128,14.3824821 47.1345231,14.4364308 47.0141128,14.473559 L46.6350359,14.0940718 C46.8169846,14.0325333 47.0028308,13.9545846 47.1923692,13.8604308 C47.3819077,13.7664821 47.5523692,13.6563282 47.7035487,13.5297641 C47.8670359,13.3941744 47.979241,13.2538667 48.0411897,13.108841 C48.1027282,12.9640205 48.1334974,12.8483282 48.1334974,12.7619692 L46.8754462,12.7619692 L46.8754462,12.2946872 L50.0208821,12.2946872 L50.0208821,12.7619692 L48.7628308,12.7619692 C48.7628308,12.8483282 48.7933949,12.9640205 48.8549333,13.108841 C48.9170872,13.2538667 49.0292923,13.3941744 49.1927795,13.5297641 C49.3470359,13.6563282 49.5187282,13.7664821 49.7084718,13.8604308 C49.8982154,13.9545846 50.0824205,14.0325333 50.2612923,14.0940718 L49.8820103,14.473559 C49.7616,14.4364308 49.6270359,14.3824821 49.4772923,14.3115077 C49.3277538,14.2405333 49.175959,14.1513026 49.0217026,14.0432 C48.8736,13.9383795 48.7488821,13.8313026 48.6469333,13.7217641 C48.5453949,13.6124308 48.4789333,13.5266872 48.4481641,13.4651487 C48.4171897,13.5266872 48.3511385,13.6124308 48.2491897,13.7217641 L48.2491897,13.7217641 Z M46.4130872,15.4770462 L50.483241,15.4770462 L50.483241,15.0099692 L46.4130872,15.0099692 L46.4130872,15.4770462 Z" id="Fill-29" fill="#B4B5B5" mask="url(#mask-6)"></path>
        </g>
    </g>
</svg>