<?xml version="1.0" encoding="UTF-8"?>
<svg width="100px" height="60px" viewBox="0 0 100 60" version="1.1" xmlns="http://www.w3.org/2000/svg" xmlns:xlink="http://www.w3.org/1999/xlink">
    <!-- Generator: Sketch 55.2 (78181) - https://sketchapp.com -->
    <title>logo/asiana</title>
    <desc>Created with Sketch.</desc>
    <g id="logo/asiana" stroke="none" stroke-width="1" fill="none" fill-rule="evenodd">
        <g transform="translate(9.000000, 17.000000)">
            <path d="M2.37835897,9.46975957 L0.000108348548,16.4979936 L1.39238719,16.4979936 L1.83083764,15.0356319 L4.30768544,15.0356319 L4.74035731,16.4979936 L6.13299731,16.4979936 L3.75005159,9.46975957 L2.37835897,9.46975957 Z M3.06384412,11.0135043 L3.96783217,13.8789085 L2.16888511,13.8789085 L3.06384412,11.0135043 Z M11.3070016,15.5329362 C10.8512154,16.3590638 9.95481175,16.6382979 9.06346437,16.6382979 C7.87777009,16.6382979 6.78453324,16.1492766 6.43781789,14.9263617 C6.35763997,14.6572553 6.34752744,14.3881489 6.32730237,14.1096383 L7.62856843,14.1096383 C7.64987698,14.2998936 7.67696412,14.4753191 7.75100229,14.6572553 C7.97672843,15.2240426 8.49102287,15.4631277 9.08043897,15.4631277 C9.52972428,15.4631277 10.2018464,15.273234 10.2018464,14.714766 C10.2018464,14.5964894 10.1635633,14.5165532 10.1122783,14.4084043 C9.96600777,14.1096383 9.41848644,13.9005745 9.12847349,13.7837447 C8.53291764,13.5309149 7.77881175,13.2603617 7.26957358,12.8765957 C6.79464578,12.5069362 6.55483432,11.9882553 6.55483432,11.39 C6.55483432,10.0394043 7.7300549,9.33119149 8.95944976,9.33119149 C9.84610204,9.33119149 10.78115,9.71061702 11.1683155,10.5664043 C11.3171142,10.8832553 11.356842,11.1841915 11.3752612,11.5281702 L10.0747175,11.5281702 C10.0841077,10.8742128 9.54669889,10.4937021 8.928751,10.4937021 C8.49102287,10.4937021 7.90810768,10.7345957 7.90810768,11.2543617 C7.90810768,11.7520638 8.52280511,11.930383 8.90130271,12.0786809 C9.49938669,12.3155957 10.3343928,12.5868723 10.8512154,12.9543617 C11.3676768,13.3196809 11.575706,13.8510213 11.575706,14.4753191 C11.575706,14.8453404 11.4854156,15.2157234 11.3070016,15.5329362 Z M12.5008943,16.4975957 L12.5008943,9.469 L13.8520007,9.469 L13.8520007,16.4975957 L12.5008943,16.4975957 Z M19.2913506,16.4978851 L18.8550671,15.0355234 L16.3793028,15.0355234 L15.9419358,16.4978851 L14.5539909,16.4978851 L16.9289911,9.46965106 L18.2981556,9.46965106 L20.6854352,16.4978851 L19.2913506,16.4978851 Z M17.6130316,11.0133957 L16.7180726,13.8788 L18.5162973,13.8788 L17.6130316,11.0133957 Z M25.4074816,16.498283 L22.4665409,11.5498362 L22.4665409,16.498283 L21.1840552,16.498283 L21.1840552,9.46968723 L22.6279802,9.46968723 L25.4815198,14.4170489 L25.4815198,9.46968723 L26.7618385,9.46968723 L26.7618385,16.498283 L25.4074816,16.498283 Z M32.0029105,16.4978851 L31.5662659,15.0355234 L29.0905016,15.0355234 L28.6534958,16.4978851 L27.2623004,16.4978851 L29.6376617,9.46965106 L31.008632,9.46965106 L33.3962729,16.4978851 L32.0029105,16.4978851 Z M30.3245915,11.0133957 L29.4296325,13.8788 L31.2296631,13.8788 L30.3245915,11.0133957 Z M41.3002272,16.4940149 L40.8650272,15.0309298 L38.3881794,15.0309298 L37.9508124,16.4940149 L36.5581724,16.4940149 L38.9342561,9.46650426 L40.3081157,9.46650426 L42.6928672,16.4940149 L41.3002272,16.4940149 Z M39.6211859,11.0088021 L38.7262269,13.8767383 L40.5251739,13.8767383 L39.6211859,11.0088021 Z M43.4185135,16.4943404 L43.4185135,9.46682979 L44.7681753,9.46682979 L44.7681753,16.4943404 L43.4185135,16.4943404 Z M49.7403985,16.4951362 L48.3076695,13.8062426 L47.3346996,13.8062426 L47.3346996,16.4951362 L45.9821485,16.4951362 L45.9821485,9.46726383 L47.8833044,9.46726383 C48.4463557,9.46726383 49.0444396,9.44737021 49.5825708,9.64775319 C50.4670561,9.96496596 50.9416227,10.7021149 50.9416227,11.6306043 C50.9416227,12.5225617 50.5172576,13.2011149 49.699226,13.5783702 L51.3128971,16.4951362 L49.7403985,16.4951362 Z M49.0256592,10.7513064 C48.7266172,10.6091574 48.3076695,10.621817 47.9804569,10.621817 L47.3346996,10.621817 L47.3346996,12.6527745 L48.2206295,12.6527745 C48.9360911,12.6527745 49.5619845,12.4556468 49.5619845,11.6067319 C49.5619845,11.2186255 49.3839318,10.9100936 49.0256592,10.7513064 Z M51.9872584,16.4944128 L51.9872584,9.46690213 L53.3672578,9.46690213 L53.3672578,15.3409447 L56.4201587,15.3409447 L56.4201587,16.4944128 L51.9872584,16.4944128 Z M57.2156176,16.4943404 L57.2156176,9.46682979 L58.5692521,9.46682979 L58.5692521,16.4943404 L57.2156176,16.4943404 Z M64.0047015,16.4944128 L61.0630384,11.5484979 L61.0630384,16.4944128 L59.7812751,16.4944128 L59.7812751,9.46690213 L61.2219496,9.46690213 L64.0744057,14.4135404 L64.0744057,9.46690213 L65.3558079,9.46690213 L65.3558079,16.4944128 L64.0047015,16.4944128 Z M66.560716,16.4944128 L66.560716,9.46690213 L70.9835037,9.46690213 L70.9835037,10.6221787 L67.9118223,10.6221787 L67.9118223,12.2740723 L70.7057702,12.2740723 L70.7057702,13.426817 L67.9118223,13.426817 L67.9118223,15.3409447 L71.0918522,15.3409447 L71.0918522,16.4944128 L66.560716,16.4944128 Z M76.4715021,15.5300787 C76.0121042,16.3536745 75.1178676,16.6354404 74.2221862,16.6354404 C73.043354,16.6354404 71.9483114,16.1446106 71.6008737,14.9216957 C71.51889,14.6540362 71.5098609,14.383483 71.4903582,14.1056957 L72.7919854,14.1056957 C72.8132939,14.2952277 72.8436315,14.4746319 72.9136969,14.6540362 C73.1419512,15.2211851 73.6584126,15.4584617 74.2431336,15.4584617 C74.690252,15.4584617 75.3663469,15.2703766 75.3663469,14.7140787 C75.3663469,14.5932702 75.3258968,14.5144191 75.2775011,14.4055468 C75.1261743,14.1056957 74.5822646,13.8951851 74.2926128,13.7790787 C73.6988627,13.5295043 72.9425899,13.2596745 72.4347963,12.8719298 C71.9566181,12.503717 71.7178901,11.9875681 71.7178901,11.3900362 C71.7178901,10.0347383 72.8913049,9.32833404 74.1225056,9.32833404 C75.009519,9.32833404 75.9427612,9.70522766 76.3320936,10.5617383 C76.4823369,10.8793128 76.5206201,11.1802489 76.5422898,11.5267596 L75.237051,11.5267596 C75.2500528,10.8688234 74.7122828,10.490483 74.0954184,10.490483 C73.6584126,10.490483 73.0697188,10.7306532 73.0697188,11.2489723 C73.0697188,11.7481213 73.6894725,11.925717 74.063275,12.0761851 C74.661359,12.3149085 75.4956428,12.5825681 76.0121042,12.9507809 C76.5307326,13.3182702 76.7402065,13.8485255 76.7402065,14.4746319 C76.7402065,14.8413979 76.6495549,15.2117809 76.4715021,15.5300787 Z" id="Combined-Shape" fill="#6C6E70"></path>
            <path d="M74.9915627,5.03330213 C74.9915627,5.20185532 75.0168506,5.37113191 75.0818597,5.53172766 C75.374762,6.25549362 76.1144214,6.70002553 77.0527198,6.32240851 C77.2795294,6.23125957 83.5146272,3.71742979 83.5146272,3.71742979 C83.5146272,3.71742979 81.0583656,9.95028085 80.9680752,10.183217 C80.6090803,11.0748128 81.0377794,11.8843021 81.7712991,12.1566638 C81.9338219,12.2145362 82.1010398,12.2441957 82.2671742,12.2416638 C82.860202,12.2387702 83.3882205,11.8882809 83.6446454,11.1858553 C83.6850956,11.0780681 86.7535264,2.63811064 86.8235918,2.43157872 C86.861875,2.31366383 86.9341074,2.02972766 86.9348322,1.83404681 C86.935552,1.41664255 86.7809747,1.02130213 86.4830162,0.727238298 C86.1865024,0.431365957 85.8004204,0.27872766 85.3876124,0.279448504 C85.1889734,0.279448504 85.0253671,0.315982979 84.7786936,0.395557447 C84.6302561,0.440770213 76.7153947,3.39225957 76.0403832,3.64653617 C75.3621213,3.89755745 74.9897635,4.43830213 74.9915627,5.03330213" id="Fill-17" fill="#EC1D24"></path>
        </g>
    </g>
</svg>