<?xml version="1.0" encoding="UTF-8"?>
<svg width="100px" height="60px" viewBox="0 0 100 60" version="1.1" xmlns="http://www.w3.org/2000/svg" xmlns:xlink="http://www.w3.org/1999/xlink">
    <!-- Generator: Sketch 55.2 (78181) - https://sketchapp.com -->
    <title>logo/balancehero</title>
    <desc>Created with Sketch.</desc>
    <g id="logo/balancehero" stroke="none" stroke-width="1" fill="none" fill-rule="evenodd">
        <g transform="translate(12.000000, 25.000000)" fill="#4F4F4F" id="Combined-Shape">
            <path d="M3.99594847,3.65115 L1.63043568,3.65115 L1.63043568,7.10565 C1.63043568,7.73895 2.14329644,8.25235 2.77593125,8.25235 L3.99594847,8.25235 C4.18200285,8.25235 4.33284424,8.40335 4.33284424,8.58965 L4.33284424,9.52465 C4.33284424,9.7109 4.18200285,9.8619 3.99594847,9.8619 L2.4257994,9.8619 C1.08605807,9.8619 0,8.7747 0,7.4335 L0,0.33725 C0,0.151 0.150841398,0 0.336895772,0 L1.27925493,0 C1.4653093,0 1.6161507,0.151 1.6161507,0.33725 L1.6161507,2.0313 L3.99594847,2.0313 C4.18200285,2.0313 4.33284424,2.1823 4.33284424,2.36855 L4.33284424,3.3139 C4.33284424,3.50015 4.18200285,3.65115 3.99594847,3.65115 Z M10.2926478,2.03128 C10.4787521,2.03128 10.6295935,2.18228 10.6295935,2.36858 L10.6295935,3.30358 C10.6295935,3.48983 10.4787521,3.64083 10.2926478,3.64083 L9.09640561,3.64083 C8.46377079,3.64083 7.95091004,4.15423 7.95091004,4.78753 L7.95091004,9.39783 C7.95091004,9.58413 7.80006864,9.73508 7.61401427,9.73508 L6.67165511,9.73508 C6.48555079,9.73508 6.33470939,9.58413 6.33470939,9.39783 L6.33470939,4.45963 C6.33470939,3.11853 7.4208174,2.03128 8.76055874,2.03128 L10.2926478,2.03128 Z M21.8936849,6.45245 L21.8936849,7.3637 C21.8936849,7.9239 22.3473579,8.37805 22.9069695,8.37805 L23.879447,8.37805 C24.4390586,8.37805 24.8927316,7.9239 24.8927316,7.3637 C24.8927316,7.1774 25.043573,7.0264 25.2296773,7.0264 L26.1719865,7.0264 C26.3580409,7.0264 26.5088823,7.1774 26.5088823,7.3637 L26.5088823,7.5716 C26.5088823,8.91275 25.4228242,10 24.0830829,10 L22.7032837,10 C21.3635923,10 20.2775342,8.91275 20.2775342,7.5716 L20.2775342,4.32825 C20.2775342,2.9871 21.3635923,1.8999 22.7032837,1.8999 L24.0830829,1.8999 C25.4228242,1.8999 26.5088823,2.9871 26.5088823,4.32825 L26.5088823,6.45245 L26.1143971,6.45245 L24.8927316,6.45245 L21.8936849,6.45245 Z M21.8936849,4.8429 L24.8927316,4.8429 L24.8927316,4.6418 C24.8927316,4.0085 24.3798709,3.49505 23.7471861,3.49505 L23.0392305,3.49505 C22.4065457,3.49505 21.8936849,4.0085 21.8936849,4.6418 L21.8936849,4.8429 Z M16.8589387,2.23714 C16.8589387,2.05089 17.0097801,1.89989 17.1958844,1.89989 L18.1381936,1.89989 C18.324248,1.89989 18.4750894,2.05089 18.4750894,2.23714 L18.4750894,7.57159 C18.4750894,8.91279 17.3890314,9.99999 16.04929,9.99999 L14.5530133,9.99999 C13.2133219,9.99999 12.1272139,8.91279 12.1272139,7.57159 L12.1272139,2.23714 C12.1272139,2.05089 12.2781052,1.89989 12.4641596,1.89989 L13.4064688,1.89989 C13.5925731,1.89989 13.7434145,2.05089 13.7434145,2.23714 L13.7434145,7.23134 C13.7434145,7.86464 14.2562753,8.37804 14.8889101,8.37804 L15.7133932,8.37804 C16.346078,8.37804 16.8589387,7.86464 16.8589387,7.23134 L16.8589387,2.23714 Z M48.7395979,9.18284 C48.8896401,9.18284 49.0112123,9.30459 49.0112123,9.45474 C49.0112123,9.60419 48.8907889,9.72559 48.7415458,9.72675583 C47.3588996,9.73664 46.2327837,8.61734 46.2327837,7.23324 L46.2327837,0.28084 C46.2327837,0.13304 46.3524578,0.01324 46.5001026,0.01324 C46.6477474,0.01324 46.7674215,0.13304 46.7674215,0.28084 L46.7674215,7.38189 C46.7674215,8.37654 47.5728746,9.18284 48.56643,9.18284 L48.7395979,9.18284 Z M34.4241498,2.96009 C35.7426135,2.96009 36.8106905,4.03139 36.8081477,5.35124 L36.8042972,7.35394 C36.8017499,8.67364 35.7297271,9.74074 34.4114632,9.73590647 L33.7859209,9.73359 C32.4725019,9.72869 31.4103687,8.66144 31.4103687,7.34664 L31.4103687,0.28084 C31.4103687,0.13304 31.5300428,0.01324 31.6776876,0.01324 C31.8253323,0.01324 31.9450065,0.13304 31.9450065,0.28084 L31.9450065,2.96009 L34.4241498,2.96009 Z M34.4057192,9.18284 C35.4325895,9.18284 36.2650143,8.34949 36.2650143,7.32154 L36.2650143,5.34744 C36.2650143,4.32824 35.439682,3.50204 34.4215526,3.50204 L31.9450065,3.50204 L31.9450065,7.32154 C31.9450065,8.34949 32.7774313,9.18284 33.8043016,9.18284 L34.4057192,9.18284 Z M57.2873004,5.377225 C57.2873004,4.036075 58.3733585,2.948875 59.7130998,2.948875 L60.1195225,2.948875 C61.4592638,2.948875 62.5453219,4.036075 62.5453219,5.377225 L62.5453219,9.477125 C62.5453219,9.624875 62.4256977,9.744725 62.2780529,9.744725 C62.1304082,9.744725 62.010684,9.624875 62.010684,9.477125 L62.010684,5.390775 C62.010684,4.347625 61.1659722,3.502025 60.1239678,3.502025 L59.7087045,3.502025 C58.6667001,3.502025 57.8219383,4.347625 57.8219383,5.390775 L57.8219383,9.477125 C57.8219383,9.624875 57.7023141,9.744725 57.5546693,9.744725 C57.4069746,9.744725 57.2873004,9.624875 57.2873004,9.477125 L57.2873004,5.377225 Z M69.5101438,5.662285 C69.3625489,5.662285 69.2428248,5.542485 69.2428248,5.394635 L69.2428248,5.390735 C69.2428248,4.347635 68.398113,3.502035 67.3561086,3.502035 L66.8479429,3.502035 C65.8059385,3.502035 64.9612267,4.347635 64.9612267,5.390735 L64.9612267,7.312185 C64.9612267,8.355285 65.8059385,9.200885 66.8479429,9.200885 L67.3561086,9.200885 C68.398113,9.200885 69.2428248,8.355285 69.2428248,7.312185 L69.2428248,7.308285 C69.2428248,7.160485 69.3625489,7.040635 69.5101438,7.040635 C69.6577885,7.040635 69.7775126,7.160485 69.7775126,7.308285 L69.7775126,7.316335 C69.7775126,8.657485 68.6914046,9.744685 67.3516633,9.744685 L66.8523882,9.744685 C65.5126469,9.744685 64.4265888,8.657485 64.4265888,7.316335 L64.4265888,5.386585 C64.4265888,4.045435 65.5126469,2.958185 66.8523882,2.958185 L67.3516633,2.958185 C68.6914046,2.958185 69.7775126,4.045435 69.7775126,5.386585 L69.7775126,5.394635 C69.7775126,5.542485 69.6577885,5.662285 69.5101438,5.662285 Z M43.9405638,5.58469 L43.938516,9.45714 C43.938516,9.60494 43.8187919,9.72479 43.671197,9.72479 C43.5235523,9.72479 43.4038282,9.60494 43.4038282,9.45714 L43.4038282,8.67944 C42.9230337,9.31399 42.1639818,9.72564 41.3070328,9.72544007 C39.853611,9.72509 38.6755497,8.54549 38.6755497,7.09054 L38.6755497,5.60394 C38.6755497,4.14379 39.8580064,2.96009 41.3166228,2.96009 C42.7649499,2.96009 43.939415,4.13484 43.9405638,5.58469 Z M41.3070328,9.18284 C42.4651152,9.18284 43.4038282,8.24304 43.4038282,7.08384 L43.4038282,5.60104 C43.4038282,4.44179 42.4651152,3.50204 41.3070328,3.50204 C40.1490004,3.50204 39.2102875,4.44179 39.2102875,5.60104 L39.2102875,7.08384 C39.2102875,8.24304 40.1490004,9.18284 41.3070328,9.18284 Z M55.1303633,5.58469 L55.1282655,9.45714 C55.1282655,9.60494 55.0085914,9.72479 54.8609466,9.72479 C54.7133019,9.72479 54.5935777,9.60494 54.5935777,9.45714 L54.5935777,8.67944 C54.1128332,9.31399 53.3537314,9.72564 52.4967824,9.72544007 C51.0433606,9.72509 49.8652993,8.54549 49.8652993,7.09054 L49.8652993,5.60394 C49.8652993,4.14379 51.047756,2.96009 52.5063723,2.96009 C53.9547494,2.96009 55.1291646,4.13484 55.1303633,5.58469 Z M52.4968324,9.18284 C53.6548647,9.18284 54.5935777,8.24304 54.5935777,7.08384 L54.5935777,5.60104 C54.5935777,4.44179 53.6548647,3.50204 52.4968324,3.50204 L52.4967824,3.50204 C51.33875,3.50204 50.400037,4.44179 50.400037,5.60104 L50.400037,7.08384 C50.400037,8.24304 51.33875,9.18284 52.4967824,9.18284 L52.4968324,9.18284 Z M74.4492006,2.958225 C75.7889419,2.958225 76.875,4.045425 76.875,5.386625 L76.875,6.450525 L76.3403621,6.450525 L72.0587141,6.450525 L72.0587141,7.312175 C72.0587141,8.355325 72.9034259,9.200925 73.9454802,9.200925 L74.4536459,9.200925 C75.4956503,9.200925 76.3403621,8.355325 76.3403621,7.312175 L76.3403621,7.308275 C76.3403621,7.160475 76.4600363,7.040675 76.6076811,7.040675 C76.7553258,7.040675 76.875,7.160475 76.875,7.308275 L76.875,7.316325 C76.875,8.657525 75.7889419,9.744725 74.4492006,9.744725 L73.9499256,9.744725 C72.6101343,9.744725 71.5240762,8.657525 71.5240762,7.316325 L71.5240762,5.386625 C71.5240762,4.045425 72.6101343,2.958225 73.9499256,2.958225 L74.4492006,2.958225 Z M76.3403621,5.908575 L76.3403621,5.390775 C76.3403621,4.347625 75.4956503,3.502025 74.4536459,3.502025 L73.9454802,3.502025 C72.9034259,3.502025 72.0587141,4.347625 72.0587141,5.390775 L72.0587141,5.908575 L76.3403621,5.908575 Z"></path>
        </g>
    </g>
</svg>