<?xml version="1.0" encoding="UTF-8"?>
<svg width="100px" height="60px" viewBox="0 0 100 60" version="1.1" xmlns="http://www.w3.org/2000/svg" xmlns:xlink="http://www.w3.org/1999/xlink">
    <!-- Generator: Sketch 55.2 (78181) - https://sketchapp.com -->
    <title>logo/bespin</title>
    <desc>Created with Sketch.</desc>
    <g id="logo/bespin" stroke="none" stroke-width="1" fill="none" fill-rule="evenodd">
        <g transform="translate(12.000000, 27.000000)" fill="#2B2C2F" id="Combined-Shape">
            <path d="M1.35056381,5.679842 C1.35056381,5.679842 2.41189032,5.682782 2.90495782,5.682782 C3.30965544,5.682782 3.65233992,5.29040867 3.63906808,4.88641533 C3.62752532,4.53384867 3.50102227,4.15696867 3.11726051,4.13442867 L1.35056381,4.13442867 L1.35056381,5.679842 Z M1.35056381,1.41875533 L1.35056381,2.928282 L2.90818232,2.928282 C3.33820858,2.928282 3.63060962,2.597322 3.64028311,2.194822 C3.65005006,1.78681533 3.37765024,1.41875533 2.94659588,1.41875533 L1.35056381,1.41875533 Z M4.48687688,3.55151533 C5.2740745,4.809462 5.07920278,6.01523533 3.99240742,6.63767533 C3.81454609,6.73959533 3.61116918,6.857942 3.41751249,6.861582 C2.28805098,6.882722 1.4019548e-05,6.871942 1.4019548e-05,6.871942 L1.4019548e-05,0.165288667 C1.4019548e-05,0.165288667 2.12972355,0.183022 2.72092789,0.161135333 C3.61341231,0.128048667 4.33312917,0.422095333 4.75703357,1.233302 C5.17691903,2.03685533 5.04368659,2.80769533 4.48687688,3.55151533 Z M62.8086964,3.55151533 C63.595894,4.809462 63.4010223,6.01523533 62.3142269,6.63767533 C62.1363656,6.73959533 61.9329887,6.857942 61.739332,6.861582 C60.6098705,6.882722 58.3218335,6.871942 58.3218335,6.871942 L58.3218335,0.165288667 C58.3218335,0.165288667 60.4515898,0.183022 61.0427474,0.161135333 C61.9352318,0.128048667 62.6549487,0.422095333 63.0788531,1.233302 C63.4987385,2.03685533 63.3655061,2.80769533 62.8086964,3.55151533 Z M59.6723833,5.679842 C59.6723833,5.679842 60.7337566,5.682782 61.2268241,5.682782 C61.6315217,5.682782 61.9741594,5.29040867 61.9609343,4.88641533 C61.9493916,4.53384867 61.8228418,4.15696867 61.43908,4.13442867 L59.6723833,4.13442867 L59.6723833,5.679842 Z M59.6723833,1.41875533 L59.6723833,2.928282 L61.2300018,2.928282 C61.6600281,2.928282 61.9524291,2.597322 61.9621026,2.194822 C61.9718696,1.78681533 61.6994698,1.41875533 61.2683687,1.41875533 L59.6723833,1.41875533 Z M28.8621695,6.88379067 L27.5487248,6.88379067 L27.5487248,-9.33333331e-06 L31.9168889,2.955484 L31.9168889,0.193657333 L33.2164075,0.193657333 L33.2164075,6.86437733 L31.9168889,6.86437733 L31.9168889,4.547564 L28.8621695,2.57925733 L28.8621695,6.88379067 Z M42.8611555,1.23299867 C42.5858583,1.50618533 42.3285996,1.76149867 42.0430681,2.044812 C41.8669826,1.91969867 41.7183287,1.806112 41.561964,1.70437867 C40.7320535,1.16453867 39.6655865,1.241212 38.9878815,1.88614533 C38.2556405,2.58301867 38.0792746,3.820432 38.5841185,4.71927867 C38.9041381,5.28912533 39.4896411,5.684812 40.135989,5.77968533 C40.5592859,5.84184533 41.7258992,5.77632533 41.7258992,5.15915867 L41.7258992,4.493972 L40.4638595,4.493972 L40.4638595,3.259452 L43.064953,3.259452 L43.064953,6.98405867 C43.064953,6.98405867 42.3881827,6.74876533 41.9844197,6.60834533 C40.2988027,7.45039867 38.2656411,6.93295867 37.3059564,5.07226533 C36.4889906,3.48830533 37.0675773,1.50529867 38.5865953,0.574158667 C39.9673339,-0.272188 41.9253039,0.00589866667 42.8611555,1.23299867 Z M53.5618418,6.98210961 C51.6706516,6.98862267 50.113033,5.41558267 50.1262582,3.512516 C50.1393898,1.615096 51.6645764,0.0785026667 53.5419808,0.0711977081 C55.4235911,0.0639426667 56.9978461,1.650236 56.9852753,3.54074933 C56.9727511,5.42402933 55.4291989,6.975696 53.5618418,6.98210961 Z M53.553617,5.75136669 C54.7292963,5.746776 55.6286036,4.79948933 55.6302884,3.56384933 C55.6320618,2.333996 54.6661616,1.31558933 53.5177737,1.336496 C52.3624695,1.35744933 51.4708263,2.338336 51.4834906,3.57430267 C51.4964353,4.837896 52.3694793,5.75596933 53.553617,5.75136669 Z M6.43479493,0.192042667 L11.0076443,0.192042667 L11.0076443,1.39744267 L7.77525064,1.39744267 L7.77525064,3.01966933 L10.3382109,3.01966933 L10.3382109,4.214896 L7.77525064,4.214896 L7.77525064,5.64844933 L11.0076443,5.64844933 L11.0076443,6.86644933 L6.43479493,6.86644933 L6.43479493,0.192042667 Z M16.8045125,0.608855333 C16.6438484,0.989795333 16.5053353,1.31809533 16.3582703,1.666742 C15.8329578,1.54568867 15.2664279,1.345022 14.7249929,1.336482 C14.1503784,1.327382 13.7639062,1.54806867 13.6993695,1.932322 C13.6089434,2.47066867 14.0099025,2.66251533 14.3919819,2.83326867 C14.9312672,3.07425533 15.49504,3.26138867 16.030353,3.51021533 C16.742733,3.84145533 17.1652354,4.396462 17.1324297,5.210002 C17.100652,5.99829533 16.5846859,6.44232867 15.9256737,6.741882 C14.8695812,7.22198867 13.0626016,6.95948867 12.3821395,6.22350867 C12.5285036,5.94140867 12.680382,5.64871533 12.8510934,5.31980867 C13.1870018,5.44921533 13.5001517,5.59154867 13.8569492,5.655762 C14.4378258,5.760342 15.5865409,5.959702 15.7566914,5.15745533 C15.8623988,4.658962 15.3974172,4.541642 15.0526765,4.394782 C14.5092788,4.16326867 13.9382159,3.990742 13.410894,3.728802 C12.5356068,3.294102 12.2085308,2.59405533 12.357652,1.62931533 C12.4803231,0.835702 13.036572,0.331888667 13.9634511,0.146668667 C14.9344917,-0.047418 15.8291725,0.189742 16.8045125,0.608855333 Z M44.7038709,6.86528733 L44.7038709,0.203247333 L46.0147921,0.203247333 L46.0147921,5.69064067 L49.3156479,5.69064067 L49.3156479,6.86528733 L44.7038709,6.86528733 Z M71.8864144,6.86528733 L71.8864144,0.203247333 L73.1973824,0.203247333 L73.1973824,5.69064067 L76.4981915,5.69064067 L76.4981915,6.86528733 L71.8864144,6.86528733 Z M24.5493968,6.87572667 L24.5493968,0.196606667 L25.8489621,0.196606667 L25.8489621,6.87572667 L24.5493968,6.87572667 Z M21.4371459,0.166114667 C22.6807733,0.174888 23.4930659,1.08134133 23.4861473,2.44629467 C23.47928,3.78460133 22.6738102,4.652788 21.4262107,4.662308 C20.8995897,4.66632133 19.7786334,4.66296133 19.7786334,4.66296133 L19.7786334,6.865628 L18.4777595,6.865628 L18.4777595,0.165274667 C18.4777595,0.165274667 20.7641609,0.161401333 21.4371459,0.166114667 Z M21.373871,3.41430133 C21.803944,3.41430133 22.1283096,2.992668 22.1379364,2.47989467 C22.1477501,1.960028 21.8433389,1.49121467 21.4122846,1.49121467 L19.816346,1.49121467 L19.816346,3.41430133 L21.373871,3.41430133 Z M67.2294197,0.335575333 C67.3249396,0.138175333 67.6065455,0.138175333 67.7020654,0.335575333 L70.8620248,6.86699533 L69.3821213,6.86699533 L68.6820785,5.463402 L66.2493598,5.463402 L65.5493171,6.86699533 L64.0694603,6.86699533 L67.2294197,0.335575333 Z M66.8366854,4.21380867 L68.0947529,4.21380867 L67.4657425,2.89323533 L66.8366854,4.21380867 Z"></path>
        </g>
    </g>
</svg>