<?xml version="1.0" encoding="UTF-8"?>
<svg width="100px" height="60px" viewBox="0 0 100 60" version="1.1" xmlns="http://www.w3.org/2000/svg" xmlns:xlink="http://www.w3.org/1999/xlink">
    <!-- Generator: Sketch 52.4 (67378) - http://www.bohemiancoding.com/sketch -->
    <title>logo/bnp</title>
    <desc>Created with Sketch.</desc>
    <defs>
        <linearGradient x1="50%" y1="0%" x2="50%" y2="100%" id="linearGradient-1">
            <stop stop-color="#1C7953" offset="0%"></stop>
            <stop stop-color="#7FCBAE" offset="59.3253251%"></stop>
            <stop stop-color="#109A6B" offset="100%"></stop>
        </linearGradient>
        <linearGradient x1="50%" y1="0%" x2="50%" y2="100%" id="linearGradient-2">
            <stop stop-color="#109A6B" offset="0%"></stop>
            <stop stop-color="#7FCBAE" offset="31.0354949%"></stop>
            <stop stop-color="#109A6B" offset="57.9208815%"></stop>
            <stop stop-color="#1C7953" offset="80.9564668%"></stop>
            <stop stop-color="#00A67D" offset="100%"></stop>
        </linearGradient>
        <linearGradient x1="50.0008023%" y1="226.373105%" x2="50.0008023%" y2="-1.86540383%" id="linearGradient-3">
            <stop stop-color="#00B087" offset="0%"></stop>
            <stop stop-color="#0F9B6B" offset="100%"></stop>
        </linearGradient>
    </defs>
    <g id="logo/bnp" stroke="none" stroke-width="1" fill="none" fill-rule="evenodd">
        <g id="로고" transform="translate(14.000000, 22.000000)">
            <g id="Group-2">
                <polygon id="Fill-1" fill="url(#linearGradient-1)" points="0 15.6595745 15.9221489 15.6595745 15.9221489 0.219574468 0 0.219574468"></polygon>
                <path d="M1.24381915,0.491574468 C0.935234043,0.491574468 0.733021277,0.743829787 0.68562766,1.09855319 C0.68562766,1.09855319 0.28787234,3.12476596 0.28787234,7.42876596 C0.28787234,11.7348085 0.68562766,14.5518298 0.68562766,14.5518298 C0.722138298,14.8922553 0.935234043,15.1584681 1.24381915,15.1584681 L15.0251809,15.1584681 C15.3330638,15.1584681 15.5777553,14.9215319 15.5840745,14.5518298 C15.5840745,14.5518298 15.4303085,11.2520851 15.4303085,8.02893617 C15.4303085,4.80646809 15.5840745,1.09855319 15.5840745,1.09855319 C15.5910957,0.768680851 15.3330638,0.491574468 15.0251809,0.491574468 L1.24381915,0.491574468 Z" id="Fill-3" fill="url(#linearGradient-2)"></path>
                <path d="M8.9837234,2.03982979 L9.03462766,1.93259574 C10.3584894,2.07795745 12.1124043,2.67812766 12.8770213,3.1332766 C13.1996489,3.03455319 13.5303511,3.02468085 14.1289149,2.97395745 C14.1289149,2.97395745 14.0404468,3.32459574 13.3878191,3.75931915 C13.5496596,4.17940426 13.1599787,6.50791489 12.8398085,7.12544681 C12.8254149,6.15148936 12.7362447,4.92289362 12.364117,4.38910638 C11.379383,4.94808511 11.0792234,4.9933617 10.0109362,5.61497872 L10.0628936,5.49991489 C10.6231915,4.90689362 10.8675319,4.65668085 11.2361489,4.13276596 C10.2486064,4.18485106 8.81767021,4.29923404 7.79326596,4.51778723 L7.84732979,4.41157447 C8.77659574,3.97344681 10.5006702,3.53838298 11.379383,3.4253617 C11.1655851,3.1332766 9.41834043,2.21685106 8.9837234,2.03982979 Z M2.46165957,9.27455319 L2.51221277,9.16595745 C2.66668085,9.84612766 2.78569149,10.5610213 3.09217021,11.083234 C3.48044681,11.0100426 3.88838298,10.850383 4.33739362,10.7843404 L4.28473404,10.893617 C4.03653191,11.2490213 3.88452128,11.5305532 3.75076596,11.8897021 C4.1745,12.2764255 4.69653191,12.4316596 5.21996809,12.6280851 L5.17011702,12.736 C4.57471277,12.7186383 4.12710638,12.6410213 3.60542553,12.4932766 C3.56821277,12.818383 3.66651064,13.0638298 3.7416383,13.3617021 L3.69038298,13.469617 C3.26980851,13.0662128 3.01002128,12.7135319 2.7593617,12.1899574 C2.28928723,11.9775319 1.95121277,11.787234 1.53590426,11.5394043 L1.58610638,11.4328511 C1.84659574,11.3252766 2.13060638,11.3126809 2.45393617,11.2251915 C2.33984043,10.605617 2.37459574,10.0507234 2.46165957,9.27455319 Z M5.12728723,5.73514894 C5.6226383,5.35217021 6.36197872,5.01719149 6.62141489,4.98144681 C6.62141489,4.98144681 6.41182979,5.34297872 6.24296809,5.82297872 L6.20329787,5.82297872 C7.42921277,5.98331915 8.58737234,6.46468085 8.87805319,6.63114894 L8.82609574,6.7373617 C7.5531383,6.52051064 6.88330851,6.5453617 6.40902128,6.58621277 C5.93648936,6.63012766 5.83994681,6.68731915 5.83994681,6.68731915 C5.56681915,7.26604255 5.40673404,8.21140426 5.3421383,8.55965957 L5.29053191,8.66825532 C5.05742553,8.12561702 4.72215957,7.0427234 4.72215957,7.0427234 C4.08111702,7.37565957 2.60278723,8.72170213 2.60278723,8.72170213 C3.41795745,7.14553191 4.24155319,6.42553191 4.24155319,6.42553191 C3.95719149,6.14876596 3.21469149,6.00782979 2.67194681,5.9853617 L2.72179787,5.87880851 C3.06303191,5.78178723 3.76445745,5.7412766 4.23488298,5.72085106 C4.79096809,5.70382979 5.12728723,5.73514894 5.12728723,5.73514894 Z M8.22542553,12.3829787 C8.66706383,12.1804255 9.12555319,11.8325106 9.50329787,11.5799149 L9.4506383,11.6881702 C9.06797872,12.0612766 8.73692553,12.3741277 8.27948936,12.7186383 C8.30897872,12.8708085 8.40832979,12.9371915 8.44062766,13.0464681 C8.44062766,13.0440851 8.38831915,13.154383 8.38831915,13.154383 C8.21419149,13.1874043 7.97687234,13.2040851 7.72340426,13.1928511 C7.23507447,13.472 6.58034043,13.6769362 6.08323404,13.7913191 L6.13448936,13.684766 C6.36654255,13.5332766 6.69689362,13.3668085 6.94369149,13.1489362 C6.63861702,13.0876596 6.35355319,12.9988085 6.06181915,12.8537872 L6.1127234,12.7458723 C6.22260638,12.7421277 6.34231915,12.7434894 6.46624468,12.7445106 C6.77869149,12.7479149 7.12168085,12.7513191 7.42184043,12.6709787 C7.70479787,12.3615319 7.92491489,12.0949787 8.18189362,11.7572766 C8.19312766,11.9938723 8.20681915,12.1729362 8.22542553,12.3829787 Z" id="Combined-Shape" fill="url(#linearGradient-3)"></path>
                <path d="M12.4147755,4.28057872 C11.4321479,4.84057872 11.1312862,4.88755745 10.0629989,5.50781277 C10.684733,4.85317447 10.9013394,4.57436596 11.2861053,4.02662128 C10.3013713,4.07700426 8.86973298,4.19206809 7.84743511,4.41164255 C8.73738191,3.95070638 10.5011266,3.43870638 11.4321479,3.31649362 C11.2162436,3.02781277 9.46899894,2.10968511 9.03438191,1.93300426 C10.4175734,2.03717447 12.1089989,2.53862128 12.9283819,3.02474894 C13.2513606,2.92670638 13.5866266,2.92228085 14.1865947,2.87019574 C14.0335309,3.12483404 14.0275628,3.27257872 13.4384777,3.65079149 C13.6017223,4.07462128 13.2116904,6.40108936 12.890116,7.01725957 C12.8781798,6.04398298 12.7904138,4.81436596 12.4147755,4.28057872 Z M5.2200383,12.6283234 C4.62709149,12.6109617 4.17983617,12.5333447 3.65745319,12.3856 C3.61708085,12.7461106 3.64305957,13.0184511 3.74170851,13.3616 C3.32078298,12.9588766 3.06099574,12.6058553 2.80998511,12.0836426 C2.34236809,11.8722383 2.00429362,11.6809191 1.58582553,11.4327489 C1.88422979,11.3020255 2.14120851,11.2169191 2.50491064,11.1188766 C2.39151702,10.499983 2.42451702,9.94406809 2.51228298,9.16619574 C2.67622979,9.90015319 2.82227234,10.4274723 3.14454894,10.9741957 C3.54019787,10.9016851 3.87827234,10.8509617 4.33746383,10.7845787 C4.08785745,11.1444085 3.93514468,11.4242383 3.80068723,11.7833872 C4.24829362,12.188834 4.6551766,12.4254298 5.2200383,12.6283234 Z M6.69011809,4.88895319 C6.51388404,5.11022979 6.31026702,5.52316596 6.25479894,5.71550638 C7.71030957,5.90614468 8.87794787,6.63091064 8.87794787,6.63091064 C7.60534149,6.41235745 6.93480957,6.43959149 6.45982021,6.48078298 C5.98799043,6.52401702 5.89144787,6.57780426 5.89144787,6.57780426 C5.54775638,7.30733617 5.34203298,8.5597617 5.34203298,8.5597617 C5.11033085,8.01848511 4.77576702,6.93422979 4.77576702,6.93422979 C4.13402234,7.26716596 2.65709681,8.61422979 2.65709681,8.61422979 C3.46875638,7.03737872 4.29305426,6.3197617 4.29305426,6.3197617 C4.00904362,6.04129362 3.26584149,5.9024 2.72204362,5.87891064 C3.00394787,5.76725106 3.72854362,5.63686809 4.28462872,5.6116766 C4.84211809,5.59635745 5.1787883,5.62699574 5.1787883,5.62699574 C5.67589468,5.24674043 6.43033085,4.92605957 6.69011809,4.88895319 Z M8.23353511,11.6509277 C8.24441809,11.8875234 8.25600319,12.0652255 8.27671596,12.2752681 C8.74643936,12.0597787 9.09680106,11.855183 9.50333298,11.5797787 C9.12137553,11.9549277 8.78891809,12.2667574 8.33007766,12.6109277 C8.36729043,12.7971404 8.3946734,12.9036936 8.44066277,13.0466723 C8.26583298,13.0803745 8.0278117,13.0963745 7.77329043,13.0865021 C7.28671596,13.3656511 6.63233298,13.5705872 6.13452447,13.6849702 C6.43152447,13.5018213 6.69025851,13.3105021 6.99603511,13.0425872 C6.69025851,12.9799489 6.40624787,12.8921191 6.11275851,12.7460766 C6.59055638,12.7460766 6.98164149,12.696034 7.47102447,12.5632681 C7.75573723,12.2538213 7.97725851,11.9886298 8.23353511,11.6509277 Z" id="Combined-Shape" fill="#FEFEFE"></path>
            </g>
            <path d="M21.1338027,2.87130534 C22.1231771,2.87368774 22.4907465,3.07857366 22.4907465,3.62005791 C22.4907465,3.76470329 22.446502,3.89131054 22.3580131,3.99749727 C22.1694636,4.22484578 21.7923646,4.34158311 21.3237135,4.31775916 L21.3009106,4.31775916 L21.0276159,5.03588094 L21.3039737,5.03588094 C21.849542,5.01920418 22.3232982,5.19039624 22.5649411,5.48955693 C22.6786153,5.62705513 22.7340911,5.78327214 22.7340911,5.95106078 C22.7340911,6.52045308 22.238553,6.80974384 21.263473,6.80974384 C21.1001088,6.80974384 20.834642,6.80838247 20.665492,6.79817221 C20.6304367,6.05078101 20.628735,5.03315821 20.628735,4.73195547 C20.628735,4.37493663 20.6440504,3.58057823 20.6678744,2.90261681 C20.7767838,2.88355766 20.963972,2.86790192 21.1338027,2.87130534 Z M19.303443,2.35126265 L19.2990185,2.30089202 C19.2990185,2.30089202 21.911144,2.30259373 21.9135264,2.30259373 C22.8184959,2.32165289 23.7871095,2.64293581 23.7871095,3.48460176 C23.7871095,3.99885864 23.3494296,4.44606812 22.7068637,4.61828122 C23.5832446,4.88034461 24.0518956,5.36022694 24.0518956,6.00925928 C24.0518956,7.0432185 22.8157732,7.4104476 21.6592908,7.4104476 L19.289489,7.40976692 L19.2966361,7.3570139 C19.3664063,6.70015369 19.3708307,5.18256838 19.3708307,4.73195547 C19.3708307,4.23709809 19.3429227,2.88934347 19.303443,2.35126265 Z M29.5125821,2.30096009 L29.5544442,2.30096009 L29.5507004,2.34996935 C29.5125821,2.88600812 29.483653,4.23308205 29.483653,4.72998148 C29.483653,5.18127508 29.4884178,6.69920073 29.559209,7.35606094 L29.5649948,7.40949465 L28.6082932,7.40949465 L28.5977426,7.38839344 C28.4935979,7.21107522 26.4491631,4.22117008 26.4297636,4.18917793 C26.2425755,3.91043777 26.185398,3.77770436 26.1452376,3.63101692 L26.1452376,3.63544137 C26.1452376,4.85012224 26.1452376,6.10802655 26.2150077,7.35776265 L26.2173901,7.40949465 L25.0282349,7.40949465 L25.0336804,7.35606094 C25.1027698,6.70022176 25.1082153,5.18127508 25.1082153,4.72998148 C25.1082153,4.23308205 25.0792862,2.8866888 25.0415083,2.34996935 L25.0374242,2.30096009 L26.3783719,2.30096009 L26.3896032,2.31423343 C26.8051609,2.83631818 27.9997616,4.68675804 28.0103122,4.70445583 C28.3540577,5.21360757 28.418042,5.3197943 28.496661,5.51242792 C28.4537779,4.87905131 28.4333574,4.22559453 28.4129369,3.58439006 L28.364268,2.30096009 L29.5125821,2.30096009 Z M30.8970256,2.34888025 L30.8939625,2.29884997 L33.1208207,2.30089202 C34.1877931,2.32233357 35.4616935,2.59698963 35.4616935,3.78172039 C35.4616935,4.81806201 34.5529802,5.31972623 32.6841619,5.31972623 L32.4843811,5.31019666 C32.4843811,5.31019666 32.2825582,5.29964605 32.2240194,5.29726366 C32.2301455,5.98951944 32.2478433,6.88700149 32.2965122,7.35429116 L32.3026384,7.40670384 L30.8840926,7.40670384 L30.8888574,7.35429116 C30.9589679,6.69913267 30.9644133,5.18120701 30.9644133,4.72991342 C30.9644133,4.23403501 30.936165,2.88900313 30.8970256,2.34888025 Z M32.6348123,2.91418844 C32.4819987,2.91793221 32.3274834,2.93052486 32.2400154,2.94924368 C32.2284438,3.30353978 32.2240194,3.67859674 32.2240194,4.00396377 C32.2240194,4.25887998 32.2264018,4.48078302 32.2301455,4.65027337 C32.273369,4.65673987 32.3427988,4.66626945 32.3427988,4.66626945 L32.6239213,4.67647971 C33.3168578,4.67647971 34.1425276,4.52128372 34.1425276,3.78172039 C34.1425276,3.5989567 34.0904553,3.44308003 33.9893737,3.31647278 C33.765769,3.04045535 33.2977986,2.90261681 32.6348123,2.91418844 Z M38.1705101,2.34888025 L38.1691488,2.29884997 L40.3939649,2.30089202 C41.4619584,2.32233357 42.7365394,2.59698963 42.7365394,3.78172039 C42.7365394,4.81806201 41.825784,5.31972623 39.9576464,5.31972623 L39.7571849,5.31019666 C39.7571849,5.31019666 39.5574041,5.29964605 39.4978442,5.29726366 C39.5043107,5.98951944 39.5223489,6.88700149 39.5703371,7.35429116 L39.5771439,7.40670384 L38.1572368,7.40670384 L38.1623419,7.35429116 C38.2331331,6.69913267 38.2385786,5.18120701 38.2385786,4.72991342 C38.2385786,4.23403501 38.2103302,2.88900313 38.1705101,2.34888025 Z M39.9086371,2.91418844 C39.7565042,2.91793221 39.6023293,2.93052486 39.5152017,2.94924368 C39.5019283,3.30353978 39.4964829,3.67553367 39.4964829,4.00158137 C39.4964829,4.25751862 39.4998863,4.48078302 39.5053318,4.65027337 C39.5478745,4.65673987 39.6162833,4.66626945 39.6162833,4.66626945 L39.8974058,4.67647971 C40.592044,4.67647971 41.4173736,4.52128372 41.4173736,3.78172039 C41.4173736,3.5989567 41.3649609,3.44308003 41.2649003,3.31647278 C41.0409552,3.04045535 40.5716235,2.90261681 39.9086371,2.91418844 Z M44.6360907,2.30259373 L45.5652245,2.30259373 L45.5876871,2.30259373 L47.8584494,7.4104476 L46.4494332,7.4104476 L46.440244,7.38253955 C46.3680915,7.1766326 46.2060887,6.75937321 45.986568,6.20904008 C45.9511724,6.20904008 45.8048254,6.2035946 45.8048254,6.2035946 L44.9757521,6.19440537 C44.9757521,6.19440537 44.0163277,6.20904008 43.9710622,6.20972076 C43.8114418,6.63753075 43.6749646,7.03334858 43.5691183,7.38151853 L43.5606097,7.4104476 L42.3442271,7.4104476 L42.3772403,7.34067748 C42.6420264,6.77094484 44.3382913,3.05611109 44.6027371,2.33016144 L44.611586,2.30259373 L44.6360907,2.30259373 Z M44.9815379,3.80758639 C44.7572524,4.30244377 44.4985925,4.8874918 44.2348274,5.53550311 C44.3362493,5.53856619 44.9815379,5.54911679 44.9815379,5.54911679 L45.6050446,5.54094858 C45.6050446,5.54094858 45.6639237,5.53856619 45.7132733,5.53822585 C45.3855239,4.73195547 45.0945314,4.04582584 44.9815379,3.80758639 Z M48.420184,2.34983321 L48.4150789,2.30082395 L50.6412564,2.30252566 C51.7095902,2.32498824 52.9845116,2.59794259 52.9845116,3.78165232 C52.9845116,4.45144553 52.6036688,4.89082715 51.8304116,5.1249825 C51.8430043,5.14165926 51.857639,5.16242013 51.857639,5.16242013 C52.2803439,5.78864955 53.2761848,7.25178013 53.3285974,7.33516394 L53.3745436,7.41037954 L51.8542356,7.41037954 L51.8430043,7.38859764 C51.5247844,6.77700293 50.7695654,5.49357297 50.2723256,4.755371 L50.2097027,4.66518035 L50.3067002,4.68185712 C50.3073808,4.68185712 50.4384125,4.70466003 50.6079029,4.69717251 C51.1225001,4.66824343 51.6769174,4.36976343 51.6769174,3.78165232 C51.6769174,3.59888863 51.623824,3.44301196 51.5220617,3.31810642 C51.2991376,3.04276968 50.8301463,2.90254874 50.1664792,2.9151414 C50.0589311,2.91786414 49.9013527,2.93045679 49.7842751,2.94611253 C49.7590898,3.57846811 49.7437744,4.37486856 49.7437744,4.72984535 C49.7437744,5.18113894 49.7485392,6.69770323 49.81899,7.3559248 L49.8240951,7.40935851 L48.405209,7.40935851 L48.4106545,7.35422309 C48.4824666,6.6990646 48.4875718,5.18113894 48.4875718,4.72984535 C48.4875718,4.23396694 48.456941,2.88655267 48.420184,2.34983321 Z M55.3900494,2.29731843 L55.4291887,2.29731843 L55.425445,2.34598735 C55.3873267,2.88576988 55.3580572,4.23284381 55.3580572,4.72838188 C55.3580572,5.17899478 55.3641834,6.69487839 55.4332728,7.35275962 L55.439399,7.4051723 L54.0218743,7.4051723 L54.0259584,7.35275962 C54.0964092,6.69487839 54.1018546,5.17899478 54.1018546,4.72838188 C54.1018546,4.23386484 54.0732659,2.88645056 54.0348073,2.34598735 L54.0293618,2.29731843 L55.3900494,2.29731843 Z M56.7168049,2.35126265 L56.7134015,2.30089202 L59.3265479,2.30259373 C60.2338999,2.32165289 61.2004714,2.64293581 61.2004714,3.48460176 C61.2004714,3.99885864 60.7624512,4.44606812 60.1188643,4.61828122 C60.9969469,4.88034461 61.4649172,5.36022694 61.4649172,6.00925928 C61.4649172,7.0432185 60.2291351,7.4104476 59.0719721,7.4104476 L56.7035316,7.40976692 L56.708977,7.3570139 C56.7787472,6.70015369 56.7831716,5.18256838 56.7831716,4.73195547 C56.7831716,4.23709809 56.7559443,2.88900313 56.7168049,2.35126265 Z M58.5475049,2.87130534 C58.3766532,2.86790192 58.1891247,2.88355766 58.082938,2.90261681 C58.057072,3.57853617 58.0417566,4.3739156 58.0417566,4.73195547 C58.0417566,5.03315821 58.043118,6.05078101 58.0774925,6.79817221 C58.2456215,6.80838247 58.5121094,6.80974384 58.6792173,6.80974384 C59.652936,6.80974384 60.1467724,6.52045308 60.1467724,5.95106078 C60.1467724,5.78327214 60.0909563,5.62705513 59.9779627,5.48955693 C59.7339374,5.19039624 59.2646057,5.01920418 58.7183567,5.03588094 L58.4416586,5.03588094 L58.7129112,4.31775916 L58.7377562,4.31775916 C59.2067475,4.34158311 59.5845272,4.22484578 59.771375,3.99749727 C59.8585026,3.89131054 59.9047891,3.76470329 59.9047891,3.62005791 C59.9047891,3.07857366 59.5358583,2.87368774 58.5475049,2.87130534 Z M64.9536277,2.2972844 L64.9760903,2.2972844 L67.2448105,7.40513827 L65.835454,7.40513827 L65.8255841,7.37757056 C65.7551333,7.16894087 65.5944918,6.7550849 65.3742905,6.20373074 C65.3371932,6.20236937 65.1928882,6.20032732 65.1928882,6.20032732 L64.3624535,6.18841535 C64.3624535,6.18841535 63.4006468,6.20236937 63.358104,6.20373074 C63.1984836,6.63222141 63.0609854,7.02735856 62.95616,7.37552851 L62.9486725,7.40513827 L61.7302479,7.40513827 L61.7629207,7.33638917 C61.9116502,7.01408522 63.7096774,3.09708827 63.9890982,2.3248521 L63.9989682,2.2972844 L64.9536277,2.2972844 Z M64.367899,3.80227705 C64.1446346,4.29951683 63.8839325,4.88048075 63.6222095,5.53019377 C63.7243121,5.53155514 64.3672183,5.54550917 64.3672183,5.54550917 L64.9934477,5.53563925 C64.9934477,5.53563925 65.0506252,5.53155514 65.1009958,5.53019377 C64.7701833,4.72528476 64.4815732,4.04187788 64.367899,3.80227705 Z M67.6397095,3.62312099 C67.6397095,2.72427756 68.503838,2.12085106 69.7899907,2.12085106 C70.2913146,2.12085106 70.7732389,2.21410479 71.0611683,2.27026124 L71.3514801,2.32165289 L71.3514801,3.24942539 L71.3535222,3.44308003 L71.0611683,3.32259893 C70.7572429,3.19599168 70.1943171,2.96217667 69.6184583,2.96217667 C68.8503062,2.96217667 68.8503062,3.30353978 68.8503062,3.41823506 C68.8503062,3.81133015 69.4704095,4.05875884 70.0717939,4.29938069 C70.8848711,4.62338635 71.8068578,4.99231716 71.8068578,5.91260213 C71.8068578,6.90435894 70.9134599,7.49825586 69.4186775,7.49825586 C68.8455414,7.49825586 68.2805736,7.36314006 67.9814129,7.29166822 L67.883054,7.2712477 L67.7220722,7.2365328 L67.7220722,6.31863023 L67.7200302,6.12123182 L67.9688202,6.23558676 C68.5616961,6.51058316 69.0987559,6.66271606 69.5653649,6.68619967 C70.0445666,6.70866224 70.3498534,6.63446767 70.4955198,6.45851082 C70.5639286,6.37955146 70.5945594,6.27540678 70.5945594,6.14403474 C70.5945594,5.71758612 69.9570986,5.45722443 69.3373357,5.20809403 C68.5429773,4.88340769 67.6397095,4.52128372 67.6397095,3.62312099 Z M22.8553209,10.0791379 C22.6089133,9.93347148 22.3056685,9.81401141 21.9135944,9.81401141 C20.7635785,9.81401141 20.3657187,10.7234054 20.3657187,11.5010871 C20.3657187,12.5813328 21.0290454,13.1248591 21.9200609,13.1248591 C22.4761799,13.1248591 22.8930989,12.8658588 23.2661138,12.5374287 L23.2725803,13.4726887 C22.8930989,13.6241409 22.4258092,13.7572147 21.7243642,13.7572147 C20.1189707,13.7572147 19.1142809,12.7586511 19.1142809,11.4884944 C19.1142809,10.1482273 20.1761481,9.18165583 21.9265274,9.18165583 C22.3373203,9.18165583 22.7351802,9.24564014 23.1207878,9.3399149 L22.8553209,10.0791379 Z M26.7313407,9.25738195 C26.9018521,9.71275964 28.3551128,12.9480514 28.6961355,13.6808079 L27.4766899,13.6808079 C27.4072601,13.4793254 27.261934,13.1124366 27.0723635,12.6383401 C26.8194893,12.632214 26.5608293,12.6257475 26.2004071,12.6257475 C25.8655105,12.6257475 25.6126363,12.632214 25.3219842,12.6383401 C25.1831246,13.011355 25.06911,13.3523778 24.9680284,13.6808079 L23.9065015,13.6808079 C24.1593756,13.1314958 25.6442881,9.90845634 25.8781031,9.25738195 L26.7313407,9.25738195 Z M26.8385485,12.0573762 L26.2068736,10.5598711 C26.00437,10.9890424 25.783488,11.4944504 25.549673,12.0573762 C25.7392436,12.0635024 25.9982439,12.0699689 26.2068736,12.0699689 C26.4090368,12.0699689 26.6237926,12.0635024 26.8385485,12.0573762 Z M31.3967499,9.25755212 C32.3258838,9.25755212 33.4316552,9.51689278 33.4316552,10.5406417 C33.4316552,11.1154795 33.0967586,11.5010871 32.4334318,11.7032503 C32.5277066,11.8924805 33.5960404,13.5165929 33.7726779,13.6806377 L32.452491,13.6806377 C32.1614985,13.131666 31.5039576,12.0187474 31.023735,11.2982432 C31.1060978,11.3176427 31.2262385,11.330916 31.3650981,11.330916 C31.751046,11.330916 32.2938916,11.0521759 32.2938916,10.5406417 C32.2938916,9.90250035 31.5233571,9.78814541 31.1377496,9.78814541 C30.9420529,9.78814541 30.7524823,9.80141875 30.6575269,9.81401141 C30.6320012,10.3636639 30.6197489,11.0521759 30.6197489,11.3622275 C30.6197489,11.7543016 30.6197489,13.0618958 30.6891787,13.6806377 L29.4571404,13.6806377 C29.5201037,13.0683623 29.5326963,12.278088 29.5326963,11.3622275 C29.5326963,10.5910124 29.5262298,9.66902569 29.4697331,9.25755212 L31.3967499,9.25755212 Z M36.3089751,9.25745001 C38.1730287,9.25745001 38.8874067,10.2372949 38.8874067,11.463207 C38.8874067,12.7268971 38.1924282,13.6805356 36.2398857,13.6805356 L34.5967141,13.6805356 C34.6600178,13.0869791 34.6600178,12.2722001 34.6600178,11.3679112 C34.6600178,10.9387399 34.6600178,9.83262812 34.5967141,9.25745001 L36.3089751,9.25745001 Z M35.7909745,9.81390931 C35.7657892,10.1045614 35.7593227,10.8563771 35.7593227,11.3679112 C35.7593227,12.0128595 35.7593227,12.5186078 35.7841677,13.1189712 C35.8474713,13.1250974 35.9488932,13.13769 36.1003454,13.13769 C37.1683389,13.13769 37.7247982,12.8024531 37.7247982,11.4438075 C37.7247982,10.1481252 37.1560866,9.78191715 36.0755005,9.80710247 L35.7909745,9.81390931 Z M41.1579989,9.25755212 C41.1202209,9.7694266 41.0943549,10.9320351 41.0943549,11.3680133 C41.0943549,11.7543016 41.1011617,13.0683623 41.1579989,13.6806377 L39.9320867,13.6806377 C39.9953903,13.0683623 40.0015165,11.7543016 40.0015165,11.3680133 C40.0015165,10.9385016 39.9759908,9.7694266 39.9446794,9.25755212 L41.1579989,9.25755212 Z M45.8480148,9.25755212 L45.8480148,9.89637419 C45.5001852,9.8769747 44.6346953,9.85178938 44.3437028,9.85178938 C44.1289469,9.85178938 43.8890058,9.85178938 43.6422578,9.8705082 C43.623539,10.1424415 43.6170725,10.484145 43.6170725,10.7805829 C43.6170725,10.925909 43.6170725,11.0589827 43.623539,11.1658501 L45.1652886,11.1406648 L45.1652886,11.8295172 L43.623539,11.7662136 C43.6300055,12.3291394 43.6361316,13.2007554 43.6933091,13.6806377 L42.4544639,13.6806377 C42.5303602,13.0683623 42.5303602,11.7543016 42.5303602,11.3680133 C42.5303602,10.9385016 42.4987084,9.7694266 42.4605901,9.25755212 L45.8480148,9.25755212 Z" id="Combined-Shape" fill="#231F20"></path>
        </g>
    </g>
</svg>