<?xml version="1.0" encoding="UTF-8"?>
<svg width="100px" height="60px" viewBox="0 0 100 60" version="1.1" xmlns="http://www.w3.org/2000/svg" xmlns:xlink="http://www.w3.org/1999/xlink">
    <!-- Generator: Sketch 52.4 (67378) - http://www.bohemiancoding.com/sketch -->
    <title>logo/bodyshop</title>
    <desc>Created with Sketch.</desc>
    <defs>
        <polygon id="path-1" points="0.0331764217 0.0662333333 1.75033333 0.0662333333 1.75033333 1.7829 0.0331764217 1.7829"></polygon>
    </defs>
    <g id="logo/bodyshop" stroke="none" stroke-width="1" fill="none" fill-rule="evenodd">
        <g id="Group-48" transform="translate(12.000000, 27.000000)">
            <g id="Group-3" transform="translate(74.166667, 4.917400)">
                <mask id="mask-2" fill="white">
                    <use xlink:href="#path-1"></use>
                </mask>
                <g id="Clip-2"></g>
                <path d="M0.850366667,0.866233333 C0.9837,0.866233333 1.11703333,0.866233333 1.11703333,0.7164 C1.11703333,0.583066667 1.00036667,0.566233333 0.900366667,0.566233333 L0.700366667,0.566233333 L0.700366667,0.866233333 L0.850366667,0.866233333 Z M0.5337,0.4164 L0.917033333,0.4164 C1.1337,0.4164 1.26703333,0.516233333 1.26703333,0.7164 C1.26703333,0.899566667 1.15036667,0.9829 1.00036667,0.999733333 L1.2837,1.4329 L1.1337,1.4329 L0.850366667,1.01623333 L0.6837,1.01623333 L0.6837,1.4329 L0.5337,1.4329 L0.5337,0.4164 Z M1.5837,0.9164 C1.5837,0.516233333 1.26703333,0.199566667 0.8837,0.199566667 C0.500366667,0.199566667 0.1837,0.516233333 0.1837,0.9164 C0.1837,1.31623333 0.500366667,1.63306667 0.8837,1.63306667 C1.26703333,1.63306667 1.5837,1.31623333 1.5837,0.9164 Z M0.8837,0.0662333333 C1.35036667,0.0662333333 1.75036667,0.449566667 1.75036667,0.9164 C1.75036667,1.38306667 1.36703333,1.7829 0.8837,1.7829 C0.417033333,1.7829 0.0337,1.39956667 0.0337,0.9164 C0.0170333333,0.449566667 0.400366667,0.0662333333 0.8837,0.0662333333 Z" id="Fill-1" fill="#020303" mask="url(#mask-2)"></path>
            </g>
            <polygon id="Fill-4" fill="#020303" points="2.96706667 1.10036667 2.96706667 6.76703333 1.96706667 6.76703333 1.96706667 1.10036667 0.0337333333 1.10036667 0.0337333333 0.1337 4.9004 0.1337 4.9004 1.11703333 2.96706667 1.11703333"></polygon>
            <polygon id="Stroke-6" stroke="#020303" stroke-width="0.404" points="2.96706667 1.10036667 2.96706667 6.76703333 1.96706667 6.76703333 1.96706667 1.10036667 0.0337333333 1.10036667 0.0337333333 0.1337 4.9004 0.1337 4.9004 1.11703333 2.96706667 1.11703333"></polygon>
            <polygon id="Fill-8" fill="#020303" points="10.1837 6.76703333 10.1837 3.7837 7.1337 3.7837 7.1337 6.76703333 6.1337 6.76703333 6.1337 0.1337 7.1337 0.1337 7.1337 2.81703333 10.1837 2.81703333 10.1837 0.1337 11.1837 0.1337 11.1837 6.76703333"></polygon>
            <polygon id="Stroke-10" stroke="#020303" stroke-width="0.404" points="10.1837 6.76703333 10.1837 3.7837 7.1337 3.7837 7.1337 6.76703333 6.1337 6.76703333 6.1337 0.1337 7.1337 0.1337 7.1337 2.81703333 10.1837 2.81703333 10.1837 0.1337 11.1837 0.1337 11.1837 6.76703333"></polygon>
            <polygon id="Fill-12" fill="#020303" points="12.9170167 6.76703333 12.9170167 0.1337 17.20035 0.1337 17.20035 1.10036667 13.9170167 1.10036667 13.9170167 2.7337 15.8170167 2.7337 15.8170167 3.70036667 13.9170167 3.70036667 13.9170167 5.80036667 17.3336833 5.80036667 17.3336833 6.76703333"></polygon>
            <polygon id="Stroke-14" stroke="#020303" stroke-width="0.404" points="12.9170167 6.76703333 12.9170167 0.1337 17.20035 0.1337 17.20035 1.10036667 13.9170167 1.10036667 13.9170167 2.7337 15.8170167 2.7337 15.8170167 3.70036667 13.9170167 3.70036667 13.9170167 5.80036667 17.3336833 5.80036667 17.3336833 6.76703333"></polygon>
            <path d="M25.7170667,4.76703333 C25.7170667,4.4337 25.6170667,4.15036667 25.4170667,3.96703333 C25.2170667,3.76703333 24.9170667,3.66703333 24.5504,3.66703333 L22.7504,3.66703333 L22.7504,5.86703333 L24.5170667,5.86703333 C24.9670667,5.86703333 25.2670667,5.76703333 25.4504,5.56703333 C25.6170667,5.35036667 25.7170667,5.0837 25.7170667,4.76703333 M25.4337333,1.90036667 C25.4337333,1.65036667 25.3670667,1.45036667 25.2170667,1.2837 C25.0837333,1.11703333 24.8337333,1.0337 24.5004,1.0337 L22.7170667,1.0337 L22.7170667,2.7337 L24.5004,2.7337 C24.6670667,2.7337 24.8004,2.71703333 24.9170667,2.66703333 C25.0337333,2.61703333 25.1337333,2.55036667 25.2004,2.4837 C25.2670667,2.40036667 25.3337333,2.31703333 25.3670667,2.21703333 C25.4170667,2.11703333 25.4337333,2.01703333 25.4337333,1.90036667 M26.7004,4.7337 C26.7004,5.41703333 26.5004,5.91703333 26.1004,6.26703333 C25.7004,6.61703333 25.1504,6.7837 24.4170667,6.7837 L21.7837333,6.7837 L21.7837333,0.1337 L24.5170667,0.1337 C25.1004,0.1337 25.5670667,0.2837 25.9004,0.567033333 C26.2504,0.867033333 26.4170667,1.2837 26.4170667,1.85036667 C26.4170667,2.1837 26.3337333,2.46703333 26.1670667,2.6837 C26.0004,2.90036667 25.8004,3.06703333 25.5670667,3.1837 C25.7004,3.21703333 25.8337333,3.2837 25.9670667,3.36703333 C26.1004,3.45036667 26.2170667,3.55036667 26.3337333,3.6837 C26.4337333,3.81703333 26.5337333,3.96703333 26.6004,4.1337 C26.6670667,4.30036667 26.7004,4.50036667 26.7004,4.7337" id="Fill-16" fill="#020303"></path>
            <path d="M25.7170667,4.76703333 C25.7170667,4.4337 25.6170667,4.15036667 25.4170667,3.96703333 C25.2170667,3.76703333 24.9170667,3.66703333 24.5504,3.66703333 L22.7504,3.66703333 L22.7504,5.86703333 L24.5170667,5.86703333 C24.9670667,5.86703333 25.2670667,5.76703333 25.4504,5.56703333 C25.6170667,5.35036667 25.7170667,5.0837 25.7170667,4.76703333 Z M25.4337333,1.90036667 C25.4337333,1.65036667 25.3670667,1.45036667 25.2170667,1.2837 C25.0837333,1.11703333 24.8337333,1.0337 24.5004,1.0337 L22.7170667,1.0337 L22.7170667,2.7337 L24.5004,2.7337 C24.6670667,2.7337 24.8004,2.71703333 24.9170667,2.66703333 C25.0337333,2.61703333 25.1337333,2.55036667 25.2004,2.4837 C25.2670667,2.40036667 25.3337333,2.31703333 25.3670667,2.21703333 C25.4170667,2.11703333 25.4337333,2.01703333 25.4337333,1.90036667 Z M26.7004,4.7337 C26.7004,5.41703333 26.5004,5.91703333 26.1004,6.26703333 C25.7004,6.61703333 25.1504,6.7837 24.4170667,6.7837 L21.7837333,6.7837 L21.7837333,0.1337 L24.5170667,0.1337 C25.1004,0.1337 25.5670667,0.2837 25.9004,0.567033333 C26.2504,0.867033333 26.4170667,1.2837 26.4170667,1.85036667 C26.4170667,2.1837 26.3337333,2.46703333 26.1670667,2.6837 C26.0004,2.90036667 25.8004,3.06703333 25.5670667,3.1837 C25.7004,3.21703333 25.8337333,3.2837 25.9670667,3.36703333 C26.1004,3.45036667 26.2170667,3.55036667 26.3337333,3.6837 C26.4337333,3.81703333 26.5337333,3.96703333 26.6004,4.1337 C26.6670667,4.30036667 26.7004,4.50036667 26.7004,4.7337 Z" id="Stroke-18" stroke="#020303" stroke-width="0.404"></path>
            <path d="M32.4503833,3.4503 C32.4503833,2.7003 32.3003833,2.11696667 31.9837167,1.68363333 C31.6837167,1.25046667 31.2337167,1.03363333 30.6337167,1.03363333 C30.0503833,1.03363333 29.6003833,1.25046667 29.3003833,1.68363333 C29.0003833,2.11696667 28.8337167,2.71713333 28.8337167,3.4503 C28.8337167,4.2003 28.9837167,4.78363333 29.3003833,5.21713333 C29.6003833,5.6503 30.0503833,5.86696667 30.6337167,5.86696667 C31.21705,5.86696667 31.66705,5.6503 31.9837167,5.21713333 C32.3003833,4.78363333 32.4503833,4.2003 32.4503833,3.4503 M33.46705,3.4503 C33.46705,3.9503 33.4003833,4.41713333 33.26705,4.8338 C33.1337167,5.25046667 32.9503833,5.61696667 32.7003833,5.91713333 C32.4503833,6.21713333 32.16705,6.4503 31.81705,6.61696667 C31.46705,6.78363333 31.0837167,6.86696667 30.6503833,6.86696667 C30.21705,6.86696667 29.8337167,6.78363333 29.4837167,6.61696667 C29.1337167,6.4503 28.8503833,6.21713333 28.6003833,5.91713333 C28.3503833,5.61696667 28.16705,5.25046667 28.0337167,4.8338 C27.9003833,4.41713333 27.8337167,3.9503 27.8337167,3.4503 C27.8337167,2.9503 27.9003833,2.48363333 28.0337167,2.06696667 C28.16705,1.6503 28.3503833,1.28363333 28.6003833,0.983633333 C28.8503833,0.683633333 29.1337167,0.4503 29.4837167,0.283633333 C29.8337167,0.116966667 30.21705,0.0336333333 30.6503833,0.0336333333 C31.0837167,0.0336333333 31.46705,0.116966667 31.81705,0.283633333 C32.16705,0.4503 32.46705,0.683633333 32.7003833,0.983633333 C32.9503833,1.28363333 33.1337167,1.6503 33.26705,2.06696667 C33.4003833,2.48363333 33.46705,2.9503 33.46705,3.4503" id="Fill-20" fill="#020303"></path>
            <path d="M32.4503833,3.4503 C32.4503833,2.7003 32.3003833,2.11696667 31.9837167,1.68363333 C31.6837167,1.25046667 31.2337167,1.03363333 30.6337167,1.03363333 C30.0503833,1.03363333 29.6003833,1.25046667 29.3003833,1.68363333 C29.0003833,2.11696667 28.8337167,2.71713333 28.8337167,3.4503 C28.8337167,4.2003 28.9837167,4.78363333 29.3003833,5.21713333 C29.6003833,5.6503 30.0503833,5.86696667 30.6337167,5.86696667 C31.21705,5.86696667 31.66705,5.6503 31.9837167,5.21713333 C32.3003833,4.78363333 32.4503833,4.2003 32.4503833,3.4503 Z M33.46705,3.4503 C33.46705,3.9503 33.4003833,4.41713333 33.26705,4.8338 C33.1337167,5.25046667 32.9503833,5.61696667 32.7003833,5.91713333 C32.4503833,6.21713333 32.16705,6.4503 31.81705,6.61696667 C31.46705,6.78363333 31.0837167,6.86696667 30.6503833,6.86696667 C30.21705,6.86696667 29.8337167,6.78363333 29.4837167,6.61696667 C29.1337167,6.4503 28.8503833,6.21713333 28.6003833,5.91713333 C28.3503833,5.61696667 28.16705,5.25046667 28.0337167,4.8338 C27.9003833,4.41713333 27.8337167,3.9503 27.8337167,3.4503 C27.8337167,2.9503 27.9003833,2.48363333 28.0337167,2.06696667 C28.16705,1.6503 28.3503833,1.28363333 28.6003833,0.983633333 C28.8503833,0.683633333 29.1337167,0.4503 29.4837167,0.283633333 C29.8337167,0.116966667 30.21705,0.0336333333 30.6503833,0.0336333333 C31.0837167,0.0336333333 31.46705,0.116966667 31.81705,0.283633333 C32.16705,0.4503 32.46705,0.683633333 32.7003833,0.983633333 C32.9503833,1.28363333 33.1337167,1.6503 33.26705,2.06696667 C33.4003833,2.48363333 33.46705,2.9503 33.46705,3.4503 Z" id="Stroke-22" stroke="#020303" stroke-width="0.404"></path>
            <path d="M38.9337,3.4503 C38.9337,3.1003 38.9003667,2.78363333 38.8170333,2.50046667 C38.7337,2.21713333 38.6003667,1.96713333 38.4170333,1.75046667 C38.2337,1.53363333 38.0003667,1.3838 37.7170333,1.26696667 C37.4337,1.1503 37.1003667,1.1003 36.7003667,1.1003 L35.8837,1.1003 L35.8837,5.80046667 L36.7003667,5.80046667 C37.1003667,5.80046667 37.4337,5.75046667 37.7170333,5.6338 C38.0003667,5.51696667 38.2337,5.3503 38.4170333,5.1503 C38.6003667,4.93363333 38.7337,4.7003 38.8170333,4.4003 C38.9003667,4.11696667 38.9337,3.80046667 38.9337,3.4503 M39.9503667,3.4503 C39.9503667,4.03363333 39.8670333,4.53363333 39.6837,4.9503 C39.5170333,5.36696667 39.2670333,5.71713333 38.9837,5.98363333 C38.6837,6.25046667 38.3503667,6.4503 37.9503667,6.5838 C37.5670333,6.71713333 37.1503667,6.76696667 36.7170333,6.76696667 L34.9003667,6.76696667 L34.9003667,0.1338 L36.7170333,0.1338 C37.1670333,0.1338 37.5837,0.2003 37.9670333,0.316966667 C38.3670333,0.4503 38.7003667,0.6338 39.0003667,0.917133333 C39.2837,1.18363333 39.5170333,1.53363333 39.7003667,1.9503 C39.8670333,2.36696667 39.9503667,2.86696667 39.9503667,3.4503" id="Fill-24" fill="#020303"></path>
            <path d="M38.9337,3.4503 C38.9337,3.1003 38.9003667,2.78363333 38.8170333,2.50046667 C38.7337,2.21713333 38.6003667,1.96713333 38.4170333,1.75046667 C38.2337,1.53363333 38.0003667,1.3838 37.7170333,1.26696667 C37.4337,1.1503 37.1003667,1.1003 36.7003667,1.1003 L35.8837,1.1003 L35.8837,5.80046667 L36.7003667,5.80046667 C37.1003667,5.80046667 37.4337,5.75046667 37.7170333,5.6338 C38.0003667,5.51696667 38.2337,5.3503 38.4170333,5.1503 C38.6003667,4.93363333 38.7337,4.7003 38.8170333,4.4003 C38.9003667,4.11696667 38.9337,3.80046667 38.9337,3.4503 Z M39.9503667,3.4503 C39.9503667,4.03363333 39.8670333,4.53363333 39.6837,4.9503 C39.5170333,5.36696667 39.2670333,5.71713333 38.9837,5.98363333 C38.6837,6.25046667 38.3503667,6.4503 37.9503667,6.5838 C37.5670333,6.71713333 37.1503667,6.76696667 36.7170333,6.76696667 L34.9003667,6.76696667 L34.9003667,0.1338 L36.7170333,0.1338 C37.1670333,0.1338 37.5837,0.2003 37.9670333,0.316966667 C38.3670333,0.4503 38.7003667,0.6338 39.0003667,0.917133333 C39.2837,1.18363333 39.5170333,1.53363333 39.7003667,1.9503 C39.8670333,2.36696667 39.9503667,2.86696667 39.9503667,3.4503 Z" id="Stroke-26" stroke="#020303" stroke-width="0.404"></path>
            <path d="M43.7504333,4.15033333 L43.7504333,6.78366667 L42.7504333,6.78366667 L42.7504333,4.15033333 L40.3669333,0.133666667 L41.5336,0.133666667 L42.5669333,1.967 C42.6169333,2.067 42.6837667,2.18366667 42.7504333,2.30033333 C42.8169333,2.43366667 42.8837667,2.55033333 42.9502667,2.66716667 C43.0171,2.78366667 43.0669333,2.90033333 43.1337667,3.017 C43.1837667,3.117 43.2171,3.217 43.2504333,3.267 C43.2836,3.20033333 43.3169333,3.117 43.3669333,3.017 C43.4171,2.91716667 43.4836,2.80033333 43.5504333,2.68366667 C43.6169333,2.567 43.6837667,2.43366667 43.7504333,2.317 C43.8169333,2.18366667 43.8837667,2.067 43.9337667,1.967 L44.9836,0.133666667 L46.1337667,0.133666667 L43.7504333,4.15033333 Z" id="Fill-28" fill="#020303"></path>
            <path d="M43.7504333,4.15033333 L43.7504333,6.78366667 L42.7504333,6.78366667 L42.7504333,4.15033333 L40.3669333,0.133666667 L41.5336,0.133666667 L42.5669333,1.967 C42.6169333,2.067 42.6837667,2.18366667 42.7504333,2.30033333 C42.8169333,2.43366667 42.8837667,2.55033333 42.9502667,2.66716667 C43.0171,2.78366667 43.0669333,2.90033333 43.1337667,3.017 C43.1837667,3.117 43.2171,3.217 43.2504333,3.267 C43.2836,3.20033333 43.3169333,3.117 43.3669333,3.017 C43.4171,2.91716667 43.4836,2.80033333 43.5504333,2.68366667 C43.6169333,2.567 43.6837667,2.43366667 43.7504333,2.317 C43.8169333,2.18366667 43.8837667,2.067 43.9337667,1.967 L44.9836,0.133666667 L46.1337667,0.133666667 L43.7504333,4.15033333 Z" id="Stroke-30" stroke="#020303" stroke-width="0.404"></path>
            <path d="M53.7336667,4.86696667 C53.7336667,5.16713333 53.6836667,5.43363333 53.5838333,5.68363333 C53.4836667,5.93363333 53.3338333,6.1503 53.1336667,6.31696667 C52.9336667,6.50046667 52.6836667,6.6338 52.367,6.73363333 C52.0503333,6.8338 51.6836667,6.8838 51.267,6.8838 C50.7836667,6.8838 50.3338333,6.78363333 49.9336667,6.6003 C49.5336667,6.4003 49.1836667,6.1503 48.9003333,5.81696667 L49.617,5.11696667 C49.8338333,5.3503 50.1003333,5.55046667 50.4171667,5.68363333 C50.717,5.8338 51.0336667,5.9003 51.3503333,5.9003 C52.267,5.9003 52.7336667,5.5838 52.7336667,4.93363333 C52.7336667,4.80046667 52.7003333,4.7003 52.6503333,4.6003 C52.6003333,4.50046667 52.517,4.4003 52.4003333,4.31696667 C52.2836667,4.23363333 52.117,4.1503 51.9336667,4.06696667 C51.7505,3.98363333 51.517,3.91713333 51.2336667,3.8338 C50.8836667,3.73363333 50.567,3.6338 50.317,3.51696667 C50.0503333,3.41713333 49.8503333,3.28363333 49.6671667,3.1503 C49.5005,3.00046667 49.367,2.8338 49.2836667,2.6338 C49.2003333,2.43363333 49.1503333,2.18363333 49.1503333,1.8838 C49.1503333,1.6003 49.2003333,1.3338 49.317,1.11696667 C49.4336667,0.8838 49.5838333,0.683633333 49.7836667,0.533633333 C49.9836667,0.3838 50.217,0.250466667 50.4836667,0.167133333 C50.7505,0.0838 51.0336667,0.0336333333 51.3503333,0.0336333333 C51.8003333,0.0336333333 52.2003333,0.116966667 52.5503333,0.266966667 C52.9003333,0.417133333 53.217,0.6503 53.517,0.933633333 L52.817,1.6503 C52.6003333,1.43363333 52.3836667,1.28363333 52.1336667,1.16713333 C51.8836667,1.06696667 51.6003333,1.01696667 51.267,1.01696667 C50.867,1.01696667 50.5838333,1.1003 50.4171667,1.26696667 C50.2505,1.43363333 50.1503333,1.61696667 50.1503333,1.8503 C50.1503333,1.96713333 50.1671667,2.06696667 50.217,2.16713333 C50.267,2.26696667 50.3338333,2.3503 50.4503333,2.41713333 C50.5503333,2.50046667 50.7003333,2.56696667 50.9003333,2.6503 C51.0838333,2.73363333 51.3338333,2.80046667 51.617,2.8838 C51.9503333,2.98363333 52.2336667,3.0838 52.5003333,3.2003 C52.767,3.30046667 52.9836667,3.43363333 53.167,3.5838 C53.3503333,3.73363333 53.4836667,3.91713333 53.5836667,4.11696667 C53.6836667,4.31696667 53.7336667,4.56696667 53.7336667,4.86696667" id="Fill-32" fill="#020303"></path>
            <path d="M53.7336667,4.86696667 C53.7336667,5.16713333 53.6836667,5.43363333 53.5838333,5.68363333 C53.4836667,5.93363333 53.3338333,6.1503 53.1336667,6.31696667 C52.9336667,6.50046667 52.6836667,6.6338 52.367,6.73363333 C52.0503333,6.8338 51.6836667,6.8838 51.267,6.8838 C50.7836667,6.8838 50.3338333,6.78363333 49.9336667,6.6003 C49.5336667,6.4003 49.1836667,6.1503 48.9003333,5.81696667 L49.617,5.11696667 C49.8338333,5.3503 50.1003333,5.55046667 50.4171667,5.68363333 C50.717,5.8338 51.0336667,5.9003 51.3503333,5.9003 C52.267,5.9003 52.7336667,5.5838 52.7336667,4.93363333 C52.7336667,4.80046667 52.7003333,4.7003 52.6503333,4.6003 C52.6003333,4.50046667 52.517,4.4003 52.4003333,4.31696667 C52.2836667,4.23363333 52.117,4.1503 51.9336667,4.06696667 C51.7505,3.98363333 51.517,3.91713333 51.2336667,3.8338 C50.8836667,3.73363333 50.567,3.6338 50.317,3.51696667 C50.0503333,3.41713333 49.8503333,3.28363333 49.6671667,3.1503 C49.5005,3.00046667 49.367,2.8338 49.2836667,2.6338 C49.2003333,2.43363333 49.1503333,2.18363333 49.1503333,1.8838 C49.1503333,1.6003 49.2003333,1.3338 49.317,1.11696667 C49.4336667,0.8838 49.5838333,0.683633333 49.7836667,0.533633333 C49.9836667,0.3838 50.217,0.250466667 50.4836667,0.167133333 C50.7505,0.0838 51.0336667,0.0336333333 51.3503333,0.0336333333 C51.8003333,0.0336333333 52.2003333,0.116966667 52.5503333,0.266966667 C52.9003333,0.417133333 53.217,0.6503 53.517,0.933633333 L52.817,1.6503 C52.6003333,1.43363333 52.3836667,1.28363333 52.1336667,1.16713333 C51.8836667,1.06696667 51.6003333,1.01696667 51.267,1.01696667 C50.867,1.01696667 50.5838333,1.1003 50.4171667,1.26696667 C50.2505,1.43363333 50.1503333,1.61696667 50.1503333,1.8503 C50.1503333,1.96713333 50.1671667,2.06696667 50.217,2.16713333 C50.267,2.26696667 50.3338333,2.3503 50.4503333,2.41713333 C50.5503333,2.50046667 50.7003333,2.56696667 50.9003333,2.6503 C51.0838333,2.73363333 51.3338333,2.80046667 51.617,2.8838 C51.9503333,2.98363333 52.2336667,3.0838 52.5003333,3.2003 C52.767,3.30046667 52.9836667,3.43363333 53.167,3.5838 C53.3503333,3.73363333 53.4836667,3.91713333 53.5836667,4.11696667 C53.6836667,4.31696667 53.7336667,4.56696667 53.7336667,4.86696667 Z" id="Stroke-34" stroke="#020303" stroke-width="0.404"></path>
            <polygon id="Fill-36" fill="#020303" points="59.1837 6.76703333 59.1837 3.7837 56.1337 3.7837 56.1337 6.76703333 55.1337 6.76703333 55.1337 0.1337 56.1337 0.1337 56.1337 2.81703333 59.1837 2.81703333 59.1837 0.1337 60.1837 0.1337 60.1837 6.76703333"></polygon>
            <polygon id="Stroke-38" stroke="#020303" stroke-width="0.404" points="59.1837 6.76703333 59.1837 3.7837 56.1337 3.7837 56.1337 6.76703333 55.1337 6.76703333 55.1337 0.1337 56.1337 0.1337 56.1337 2.81703333 59.1837 2.81703333 59.1837 0.1337 60.1837 0.1337 60.1837 6.76703333"></polygon>
            <path d="M66.2336667,3.4503 C66.2336667,2.7003 66.0838333,2.11696667 65.767,1.68363333 C65.467,1.25046667 65.017,1.03363333 64.4171667,1.03363333 C63.8338333,1.03363333 63.3836667,1.25046667 63.0838333,1.68363333 C62.7836667,2.11696667 62.617,2.71713333 62.617,3.4503 C62.617,4.2003 62.767,4.78363333 63.0838333,5.21713333 C63.3836667,5.6503 63.8338333,5.86696667 64.4171667,5.86696667 C65.0005,5.86696667 65.4503333,5.6503 65.767,5.21713333 C66.0838333,4.78363333 66.2336667,4.2003 66.2336667,3.4503 M67.2505,3.4503 C67.2505,3.9503 67.1836667,4.41713333 67.0503333,4.8338 C66.9171667,5.25046667 66.7336667,5.61696667 66.4836667,5.91713333 C66.2336667,6.21713333 65.9503333,6.4503 65.6003333,6.61696667 C65.2505,6.78363333 64.867,6.86696667 64.4336667,6.86696667 C64.0005,6.86696667 63.617,6.78363333 63.267,6.61696667 C62.9171667,6.4503 62.6336667,6.21713333 62.3836667,5.91713333 C62.1336667,5.61696667 61.9503333,5.25046667 61.817,4.8338 C61.6836667,4.41713333 61.617,3.9503 61.617,3.4503 C61.617,2.9503 61.6836667,2.48363333 61.817,2.06696667 C61.9503333,1.6503 62.1336667,1.28363333 62.3836667,0.983633333 C62.6336667,0.683633333 62.9171667,0.4503 63.267,0.283633333 C63.617,0.116966667 64.0005,0.0336333333 64.4336667,0.0336333333 C64.867,0.0336333333 65.2505,0.116966667 65.6003333,0.283633333 C65.9503333,0.4503 66.2505,0.683633333 66.4836667,0.983633333 C66.7336667,1.28363333 66.9171667,1.6503 67.0503333,2.06696667 C67.1836667,2.48363333 67.2505,2.9503 67.2505,3.4503" id="Fill-40" fill="#020303"></path>
            <path d="M66.2336667,3.4503 C66.2336667,2.7003 66.0838333,2.11696667 65.767,1.68363333 C65.467,1.25046667 65.017,1.03363333 64.4171667,1.03363333 C63.8338333,1.03363333 63.3836667,1.25046667 63.0838333,1.68363333 C62.7836667,2.11696667 62.617,2.71713333 62.617,3.4503 C62.617,4.2003 62.767,4.78363333 63.0838333,5.21713333 C63.3836667,5.6503 63.8338333,5.86696667 64.4171667,5.86696667 C65.0005,5.86696667 65.4503333,5.6503 65.767,5.21713333 C66.0838333,4.78363333 66.2336667,4.2003 66.2336667,3.4503 Z M67.2505,3.4503 C67.2505,3.9503 67.1836667,4.41713333 67.0503333,4.8338 C66.9171667,5.25046667 66.7336667,5.61696667 66.4836667,5.91713333 C66.2336667,6.21713333 65.9503333,6.4503 65.6003333,6.61696667 C65.2505,6.78363333 64.867,6.86696667 64.4336667,6.86696667 C64.0005,6.86696667 63.617,6.78363333 63.267,6.61696667 C62.9171667,6.4503 62.6336667,6.21713333 62.3836667,5.91713333 C62.1336667,5.61696667 61.9503333,5.25046667 61.817,4.8338 C61.6836667,4.41713333 61.617,3.9503 61.617,3.4503 C61.617,2.9503 61.6836667,2.48363333 61.817,2.06696667 C61.9503333,1.6503 62.1336667,1.28363333 62.3836667,0.983633333 C62.6336667,0.683633333 62.9171667,0.4503 63.267,0.283633333 C63.617,0.116966667 64.0005,0.0336333333 64.4336667,0.0336333333 C64.867,0.0336333333 65.2505,0.116966667 65.6003333,0.283633333 C65.9503333,0.4503 66.2505,0.683633333 66.4836667,0.983633333 C66.7336667,1.28363333 66.9171667,1.6503 67.0503333,2.06696667 C67.1836667,2.48363333 67.2505,2.9503 67.2505,3.4503 Z" id="Stroke-42" stroke="#020303" stroke-width="0.404"></path>
            <path d="M72.5837667,2.2003 C72.5837667,1.8338 72.4836,1.55046667 72.2671,1.3503 C72.0669333,1.1503 71.7836,1.05046667 71.4337667,1.05046667 L69.6502667,1.05046667 L69.6502667,3.3338 L71.4337667,3.3338 C71.8169333,3.3338 72.1004333,3.23363333 72.2836,3.03363333 C72.4836,2.8503 72.5837667,2.56696667 72.5837667,2.2003 M73.6004333,2.2003 C73.6004333,2.53363333 73.5504333,2.8503 73.4337667,3.1003 C73.3337667,3.36696667 73.1671,3.5838 72.9836,3.75046667 C72.7836,3.93363333 72.5504333,4.06696667 72.2836,4.1503 C72.0171,4.23363333 71.7171,4.28363333 71.4002667,4.28363333 L69.6671,4.28363333 L69.6671,6.76696667 L68.6837667,6.76696667 L68.6837667,0.1338 L71.4671,0.1338 C71.7671,0.1338 72.0504333,0.183633333 72.3169333,0.266966667 C72.5837667,0.3503 72.8004333,0.483633333 73.0004333,0.667133333 C73.1837667,0.8338 73.3337667,1.05046667 73.4502667,1.31696667 C73.5336,1.56696667 73.6004333,1.86696667 73.6004333,2.2003" id="Fill-44" fill="#020303"></path>
            <path d="M72.5837667,2.2003 C72.5837667,1.8338 72.4836,1.55046667 72.2671,1.3503 C72.0669333,1.1503 71.7836,1.05046667 71.4337667,1.05046667 L69.6502667,1.05046667 L69.6502667,3.3338 L71.4337667,3.3338 C71.8169333,3.3338 72.1004333,3.23363333 72.2836,3.03363333 C72.4836,2.8503 72.5837667,2.56696667 72.5837667,2.2003 Z M73.6004333,2.2003 C73.6004333,2.53363333 73.5504333,2.8503 73.4337667,3.1003 C73.3337667,3.36696667 73.1671,3.5838 72.9836,3.75046667 C72.7836,3.93363333 72.5504333,4.06696667 72.2836,4.1503 C72.0171,4.23363333 71.7171,4.28363333 71.4002667,4.28363333 L69.6671,4.28363333 L69.6671,6.76696667 L68.6837667,6.76696667 L68.6837667,0.1338 L71.4671,0.1338 C71.7671,0.1338 72.0504333,0.183633333 72.3169333,0.266966667 C72.5837667,0.3503 72.8004333,0.483633333 73.0004333,0.667133333 C73.1837667,0.8338 73.3337667,1.05046667 73.4502667,1.31696667 C73.5336,1.56696667 73.6004333,1.86696667 73.6004333,2.2003 Z" id="Stroke-46" stroke="#020303" stroke-width="0.404"></path>
        </g>
    </g>
</svg>