<?xml version="1.0" encoding="UTF-8"?>
<svg width="100px" height="60px" viewBox="0 0 100 60" version="1.1" xmlns="http://www.w3.org/2000/svg" xmlns:xlink="http://www.w3.org/1999/xlink">
    <title>logo/busan_univ</title>
    <defs>
        <polygon id="path-1" points="0 0.8325 17.9175 0.8325 17.9175 18.749625 0 18.749625"></polygon>
        <polygon id="path-3" points="0 19.1675 72.5575 19.1675 72.5575 1.25 0 1.25"></polygon>
    </defs>
    <g id="logo/busan_univ" stroke="none" stroke-width="1" fill="none" fill-rule="evenodd">
        <g id="Group-122" transform="translate(13.000000, 20.000000)">
            <path d="M2.127,8.846375 C2.07575,9.100125 1.91325,9.268875 1.69325,9.225125 C1.467,9.180125 1.36575,8.942625 1.412,8.722625 C1.4195,8.673875 1.43575,8.627625 1.467,8.586375 C1.44325,8.756375 1.51075,8.957625 1.6995,8.995125 C1.872,9.028875 1.9645,8.922625 1.997,8.766375 C2.00575,8.718875 2.01075,8.672625 2.012,8.627625 L1.12575,8.452625 C1.01575,8.430125 0.93825,8.411375 0.85825,8.505125 L0.85075,8.503875 L0.9295,8.115125 L0.93575,8.117625 C0.95075,8.223875 1.09825,8.241375 1.18825,8.257625 L1.92825,8.403875 C2.01575,8.421375 2.15825,8.461375 2.217,8.372625 L2.222,8.372625 L2.127,8.846375 Z" id="Fill-1" fill="#004DA1"></path>
            <path d="M0.812375,10.181875 C0.698625,10.091875 0.656125,9.926875 0.661125,9.788125 C0.666125,9.655625 0.712375,9.518125 0.812375,9.431875 C0.932375,9.330625 1.067375,9.339375 1.211125,9.344375 L1.744875,9.360625 C1.834875,9.364375 1.982375,9.381875 2.022375,9.281875 L2.028625,9.281875 L2.016125,9.659375 L2.011125,9.659375 C1.974875,9.559375 1.829875,9.565625 1.739875,9.564375 L1.203625,9.546875 C0.938625,9.536875 0.811125,9.644375 0.803625,9.848125 C0.799875,9.960625 0.842375,10.075625 0.933625,10.144375 C0.993625,10.189375 1.042375,10.188125 1.114875,10.190625 L1.717375,10.211875 C1.806125,10.213125 1.953625,10.230625 1.994875,10.133125 L2.001125,10.133125 L1.987375,10.509375 L1.982375,10.510625 C1.947375,10.408125 1.801125,10.415625 1.708625,10.413125 L0.953625,10.386875 C0.863625,10.384375 0.717375,10.366875 0.677375,10.468125 L0.669875,10.468125 L0.681125,10.176875 L0.812375,10.181875 Z" id="Fill-3" fill="#004DA1"></path>
            <path d="M1.870125,11.392875 C1.937625,11.306625 1.968875,11.177875 1.953875,11.067875 C1.940125,10.955375 1.876375,10.819125 1.740125,10.837875 C1.467625,10.871625 1.560125,11.549125 1.192625,11.595375 C0.980125,11.624125 0.752625,11.427875 0.712625,11.121625 C0.696375,11.001625 0.698875,10.879125 0.725125,10.761625 L0.966375,10.671625 C0.880125,10.800375 0.838875,10.970375 0.858875,11.124125 C0.872625,11.236625 0.962625,11.396625 1.101375,11.380375 C1.411375,11.339125 1.267625,10.669125 1.688875,10.615375 C1.938875,10.585375 2.067625,10.824125 2.098875,11.065375 C2.112625,11.162875 2.111375,11.265375 2.093875,11.365375 L1.870125,11.392875 Z" id="Fill-5" fill="#004DA1"></path>
            <path d="M1.534375,12.465875 L1.291875,12.645875 C1.170625,12.734625 1.154375,12.754625 1.084375,12.673375 L1.079375,12.675875 L1.191875,13.067125 L1.196875,13.064625 C1.223125,12.940875 1.320625,12.875875 1.418125,12.802125 L2.291875,12.124625 L2.205625,11.822125 L2.199375,11.824625 C2.195625,11.923375 2.105625,11.912125 2.029375,11.904625 L1.133125,11.812125 C1.011875,11.800875 0.893125,11.798375 0.805625,11.703375 L0.800625,11.705875 L0.900625,12.057125 L0.906875,12.054625 C0.915625,11.953375 0.975625,11.950875 1.095625,11.962125 L1.394375,11.982125 L1.534375,12.465875 Z M1.660625,12.369625 L1.551875,11.992125 L2.091875,12.044625 L1.660625,12.369625 Z" id="Fill-7" fill="#004DA1"></path>
            <path d="M1.56425,13.2495 C1.463,13.29825 1.3905,13.33075 1.38175,13.45325 L1.3755,13.45575 L1.2205,13.1395 L1.2255,13.137 C1.328,13.2045 1.4005,13.1695 1.5005,13.1195 L2.21925,12.7745 C2.3205,12.7245 2.393,12.69075 2.4005,12.57075 L2.40675,12.567 L2.53425,12.82825 L2.53175,12.8295 C2.51425,12.847 2.508,12.8595 2.5005,12.87825 L2.47675,12.92075 L1.96675,13.97575 L2.64925,13.64575 C2.7505,13.597 2.823,13.5645 2.8305,13.44325 L2.8355,13.44075 L2.9905,13.75575 L2.9855,13.75825 C2.8855,13.692 2.81425,13.72575 2.71175,13.7745 L1.70175,14.2645 C1.68425,14.11575 1.7155,14.032 1.77925,13.90325 L2.26175,12.912 L1.56425,13.2495 Z" id="Fill-9" fill="#004DA1"></path>
            <path d="M2.69225,15.1855 C2.6085,15.25925 2.54725,15.31175 2.57225,15.4305 L2.5685,15.43425 L2.32975,15.173 L2.33475,15.16925 C2.45225,15.20675 2.511,15.15425 2.59475,15.07925 L3.18975,14.548 C3.27225,14.4755 3.33225,14.42175 3.30725,14.3055 L3.311,14.3005 L3.50725,14.51675 L3.506,14.518 C3.49225,14.538 3.491,14.55175 3.4885,14.57425 L3.47725,14.6205 L3.281,15.77425 L3.84475,15.2705 C3.9285,15.1955 3.98975,15.14425 3.96225,15.0255 L3.9685,15.02175 L4.2035,15.28175 L4.1985,15.28675 C4.08475,15.2505 4.02475,15.30175 3.94225,15.37675 L3.106,16.123 C3.046,15.9855 3.05475,15.8955 3.081,15.7555 L3.26725,14.67175 L2.69225,15.1855 Z" id="Fill-11" fill="#004DA1"></path>
            <path d="M4.29925,16.43925 L4.20925,16.72675 C4.16675,16.86925 4.1655,16.8955 4.06175,16.8705 L4.05675,16.87675 L4.3805,17.1255 L4.3855,17.12175 C4.3305,17.0055 4.37175,16.8955 4.40425,16.77925 L4.708,15.72175 L4.458,15.528 L4.45425,15.533 C4.5105,15.61675 4.42925,15.658 4.363,15.698 L3.58675,16.148 C3.4805,16.20925 3.3855,16.2755 3.25675,16.25175 L3.25425,16.25675 L3.5455,16.4805 L3.548,16.4755 C3.49425,16.38925 3.54175,16.35175 3.64425,16.2905 L3.89925,16.13175 L4.29925,16.43925 Z M4.343,16.28925 L4.03175,16.048 L4.49925,15.77425 L4.343,16.28925 Z" id="Fill-13" fill="#004DA1"></path>
            <path d="M4.97675,17.16675 C4.918,17.26425 4.87675,17.33175 4.938,17.43675 L4.9355,17.44175 L4.59175,17.24425 L4.5955,17.2405 C4.7005,17.25675 4.76425,17.1255 4.80925,17.048 L5.258,16.28175 L5.1055,16.19425 C5.0305,16.15175 4.94175,16.1255 4.85925,16.14425 L4.853,16.1405 L5.03425,15.97175 L5.03925,15.97425 C5.05425,15.9955 5.078,16.008 5.098,16.02425 L5.14175,16.048 L5.788,16.4205 C5.818,16.438 5.8455,16.453 5.87425,16.4555 L5.8805,16.458 L5.70425,16.6305 L5.69925,16.62675 C5.71175,16.55425 5.648,16.5055 5.59175,16.47175 L5.4355,16.38425 L4.97675,17.16675 Z" id="Fill-15" fill="#004DA1"></path>
            <path d="M5.92225,16.781 C5.95975,16.6985 6.031,16.56975 5.95225,16.49475 L5.95475,16.48975 L6.3035,16.64225 L6.30225,16.64725 C6.1935,16.64225 6.146,16.781 6.10975,16.86225 L5.80725,17.5485 C5.76975,17.631 5.701,17.75725 5.776,17.8335 L5.7735,17.83725 L5.426,17.68725 L5.42725,17.681 C5.53475,17.6885 5.58225,17.54725 5.61725,17.46725 L5.92225,16.781 Z" id="Fill-17" fill="#004DA1"></path>
            <path d="M7.086125,16.870125 C6.683625,16.747625 6.278625,16.963875 6.176125,17.327625 C6.064875,17.720125 6.311125,18.081375 6.693625,18.187625 C7.077375,18.293875 7.483625,18.098875 7.592375,17.708875 C7.689875,17.365125 7.491125,16.980125 7.086125,16.870125 M7.032375,17.003875 C7.337375,17.087625 7.441125,17.408875 7.362375,17.686375 C7.282375,17.971375 7.034875,18.132625 6.742375,18.050125 C6.437375,17.967625 6.326125,17.638875 6.399875,17.371375 C6.482375,17.082625 6.733625,16.921375 7.032375,17.003875" id="Fill-19" fill="#004DA1"></path>
            <path d="M7.91925,18.138375 C7.9105,18.249625 7.903,18.328375 8.00425,18.397125 L8.00425,18.403375 L7.6505,18.375875 L7.6505,18.372125 C7.7605,18.318375 7.768,18.238375 7.7755,18.127125 L7.83425,17.337125 C7.84175,17.225875 7.84925,17.147125 7.74925,17.079625 L7.74925,17.073375 L8.04175,17.095875 L8.04175,17.097125 C8.048,17.122125 8.0555,17.130875 8.068,17.149625 L8.093,17.190875 L8.75425,18.160875 L8.81175,17.408375 C8.8205,17.298375 8.82925,17.218375 8.72675,17.152125 L8.72675,17.147125 L9.078,17.172125 L9.07675,17.177125 C8.9705,17.228375 8.96425,17.308375 8.9555,17.419625 L8.873,18.529625 C8.733,18.472125 8.67675,18.403375 8.59675,18.283375 L7.97675,17.372125 L7.91925,18.138375 Z" id="Fill-21" fill="#004DA1"></path>
            <path d="M9.975625,17.91625 L10.111875,18.18375 C10.179375,18.31625 10.198125,18.3375 10.104375,18.39 L10.104375,18.39625 L10.514375,18.355 L10.511875,18.34875 C10.393125,18.3025 10.345625,18.19625 10.288125,18.08875 L9.769375,17.11625 L9.455625,17.14875 L9.455625,17.155 C9.555625,17.17375 9.525625,17.26125 9.504375,17.335 L9.255625,18.1925 C9.224375,18.30875 9.201875,18.42375 9.091875,18.4925 L9.091875,18.49875 L9.459375,18.4625 L9.458125,18.455 C9.359375,18.42875 9.366875,18.37 9.398125,18.255 L9.471875,17.96625 L9.975625,17.91625 Z M9.903125,17.77625 L9.509375,17.815 L9.655625,17.2975 L9.903125,17.77625 Z" id="Fill-23" fill="#004DA1"></path>
            <path d="M11.17425,18.02125 C11.30925,17.99375 11.40925,17.92 11.4855,17.81375 L11.4905,17.8125 L11.4605,18.09375 L10.66425,18.305 L10.66175,18.29875 C10.7505,18.2375 10.70175,18.09875 10.678,18.0125 L10.48425,17.28875 C10.4605,17.20125 10.433,17.0575 10.32425,17.0475 L10.323,17.04125 L10.693,16.94375 L10.69425,16.95 C10.6055,17.01125 10.65675,17.15125 10.6805,17.23625 L10.90675,18.0725 L11.17425,18.02125 Z" id="Fill-25" fill="#004DA1"></path>
            <path d="M13.148125,17.16425 C13.125625,17.30675 13.004375,17.42675 12.881875,17.49425 C12.765625,17.5555 12.623125,17.5855 12.496875,17.543 C12.348125,17.49425 12.286875,17.37425 12.218125,17.248 L11.961875,16.78175 C11.918125,16.7055 11.860625,16.5705 11.751875,16.5855 L11.749375,16.5805 L12.084375,16.4005 L12.086875,16.4055 C12.016875,16.4855 12.096875,16.60925 12.140625,16.6855 L12.396875,17.15175 C12.524375,17.383 12.683125,17.43925 12.863125,17.3405 C12.963125,17.288 13.040625,17.193 13.053125,17.0805 C13.063125,17.00675 13.038125,16.963 13.003125,16.90175 L12.713125,16.3755 C12.670625,16.298 12.610625,16.16425 12.505625,16.178 L12.501875,16.17425 L12.835625,15.993 L12.840625,15.998 C12.769375,16.07925 12.849375,16.2005 12.894375,16.2805 L13.255625,16.938 C13.299375,17.01675 13.358125,17.14925 13.466875,17.13425 L13.470625,17.138 L13.210625,17.27925 L13.148125,17.16425 Z" id="Fill-27" fill="#004DA1"></path>
            <path d="M13.808,16.566125 C13.8805,16.651125 13.9305,16.713625 14.0505,16.693625 L14.0555,16.697375 L13.78175,16.923625 L13.77925,16.918625 C13.8205,16.803625 13.76925,16.743625 13.698,16.657375 L13.18425,16.048625 C13.113,15.964875 13.06175,15.903625 12.943,15.923625 L12.93925,15.918625 L13.16425,15.733625 L13.1655,15.734875 C13.18675,15.748625 13.198,15.751125 13.2205,15.754875 L13.268,15.766125 L14.42425,16.004875 L13.93675,15.427375 C13.86425,15.342375 13.8155,15.279875 13.6955,15.301125 L13.69175,15.296125 L13.963,15.072375 L13.9655,15.078625 C13.92425,15.188625 13.9755,15.249875 14.048,15.334875 L14.768,16.189875 C14.628,16.243625 14.538,16.233625 14.398,16.202375 L13.31175,15.974875 L13.808,16.566125 Z" id="Fill-29" fill="#004DA1"></path>
            <path d="M14.33525,15.037875 C14.2665,14.976625 14.16525,14.869125 14.07025,14.920375 L14.06525,14.916625 L14.319,14.635375 L14.32275,14.639125 C14.284,14.739125 14.404,14.826625 14.47025,14.885375 L15.03525,15.382875 C15.10275,15.442875 15.20275,15.549125 15.299,15.499125 L15.304,15.504125 L15.05025,15.786625 L15.04525,15.781625 C15.08525,15.684125 14.96525,15.594125 14.899,15.535375 L14.33525,15.037875 Z" id="Fill-31" fill="#004DA1"></path>
            <path d="M15.17575,14.056375 C15.09075,13.930125 14.99325,13.782625 14.882,13.855125 L14.877,13.853875 L15.047,13.611375 L15.877,14.821375 C15.722,14.882625 15.68075,14.911375 15.51825,14.867625 L14.67325,14.652625 C14.56825,14.623875 14.4545,14.583875 14.34825,14.615125 L14.34325,14.612625 L14.51075,14.373875 L14.52825,14.390125 C14.56575,14.415125 14.66825,14.440125 14.71325,14.448875 L15.61075,14.685125 L15.17575,14.056375 Z" id="Fill-33" fill="#004DA1"></path>
            <path d="M16.218875,13.79025 L16.352625,13.57275 C16.421375,13.46025 16.443875,13.319 16.408875,13.1915 L16.410125,13.1865 L16.607625,13.38025 L16.240125,14.12525 L16.235125,14.1215 C16.247625,14.01525 16.108875,13.96025 16.027625,13.92025 L15.348875,13.594 C15.266375,13.554 15.140125,13.479 15.061375,13.55525 L15.056375,13.5515 L15.336375,12.9815 C15.351375,12.95025 15.370125,12.92275 15.368875,12.8915 L15.371375,12.8865 L15.582625,12.98775 L15.580125,12.994 C15.487625,13.019 15.445125,13.08775 15.405125,13.169 C15.373875,13.2315 15.343875,13.29525 15.327625,13.3565 L15.661375,13.52025 L15.766375,13.30775 C15.780125,13.279 15.795125,13.25025 15.795125,13.224 L15.796375,13.21775 L15.987625,13.3115 L15.985125,13.3165 C15.920125,13.32025 15.885125,13.3965 15.856375,13.4515 L15.792625,13.58275 L16.218875,13.79025 Z" id="Fill-35" fill="#004DA1"></path>
            <path d="M15.591375,12.27175 C15.675125,12.01925 15.853875,11.9255 16.027625,11.98175 C16.193875,12.0355 16.277625,12.223 16.263875,12.38925 L16.697625,12.22925 C16.822625,12.18175 16.960125,12.09425 17.065125,12.00925 L17.007625,12.183 C16.975125,12.283 16.928875,12.338 16.841375,12.3705 L16.476375,12.508 L16.151375,12.5955 C16.177625,12.43675 16.165125,12.238 15.986375,12.1805 C15.848875,12.13675 15.730125,12.228 15.695125,12.3555 C15.682625,12.4005 15.673875,12.44425 15.667625,12.48925 L16.521375,12.76425 C16.607625,12.793 16.743875,12.84925 16.810125,12.76425 L16.815125,12.76675 L16.697625,13.128 L16.691375,13.12675 C16.688875,13.01925 16.542625,12.9855 16.457625,12.95675 L15.740125,12.7255 C15.652625,12.698 15.517625,12.63925 15.448875,12.723 L15.443875,12.72175 L15.591375,12.27175 Z" id="Fill-37" fill="#004DA1"></path>
            <path d="M16.12725,10.98875 C16.036,11.05375 15.971,11.1675 15.95225,11.2775 C15.9335,11.38875 15.9535,11.53625 16.091,11.55875 C16.361,11.60375 16.4685,10.92875 16.8335,10.9875 C17.046,11.02125 17.20725,11.275 17.15725,11.58 C17.1385,11.69875 17.09975,11.81625 17.03975,11.92125 L16.7835,11.9375 C16.90225,11.83875 16.9935,11.68875 17.0185,11.535 C17.036,11.42375 16.99725,11.24375 16.8585,11.2225 C16.551,11.17125 16.4935,11.85375 16.07475,11.78625 C15.826,11.745 15.7735,11.47875 15.81225,11.2375 C15.8285,11.14125 15.85975,11.0425 15.9035,10.95375 L16.12725,10.98875 Z" id="Fill-39" fill="#004DA1"></path>
            <path d="M16.184625,10.649375 C16.092125,10.644375 15.947125,10.623125 15.902125,10.720625 L15.898375,10.720625 L15.919625,10.345625 L15.924625,10.345625 C15.957125,10.445625 16.107125,10.443125 16.195875,10.448125 L16.949625,10.490625 C17.040875,10.495625 17.184625,10.516875 17.229625,10.419375 L17.234625,10.419375 L17.213375,10.794375 L17.207125,10.794375 C17.177125,10.693125 17.029625,10.696875 16.938375,10.691875 L16.184625,10.649375 Z" id="Fill-41" fill="#004DA1"></path>
            <path d="M16.953125,9.62275 C17.068125,9.6165 17.145625,9.61525 17.201875,9.50525 L17.209375,9.504 L17.229375,9.899 L17.223125,9.899 C17.179375,9.80275 17.033125,9.82025 16.944375,9.8265 L16.051875,9.87275 L16.061875,10.049 C16.065625,10.13275 16.093125,10.2215 16.154375,10.279 L16.154375,10.28525 L15.913125,10.22775 L15.911875,10.2215 C15.921875,10.20025 15.920625,10.17275 15.921875,10.14775 L15.919375,10.0965 L15.879375,9.3565 C15.878125,9.324 15.874375,9.2915 15.860625,9.2665 L15.859375,9.26025 L16.101875,9.31275 L16.101875,9.31775 C16.034375,9.3465 16.028125,9.42775 16.030625,9.49275 L16.040625,9.67025 L16.953125,9.62275 Z" id="Fill-43" fill="#004DA1"></path>
            <path d="M16.7755,8.432625 C16.893,8.408875 16.95175,8.398875 17.003,8.285125 L17.00925,8.282625 L17.088,8.662625 L17.083,8.663875 C17.013,8.577625 16.888,8.616375 16.79675,8.636375 L16.5055,8.695125 L16.048,9.125125 C15.97175,9.193875 15.9155,9.245125 15.88425,9.348875 L15.848,9.172625 C15.8355,9.110125 15.83675,9.050125 15.873,9.016375 L16.3205,8.600125 L15.9055,8.432625 C15.84925,8.408875 15.74675,8.383875 15.7155,8.505125 L15.70925,8.505125 L15.63925,8.165125 L16.46425,8.496375 L16.7755,8.432625 Z" id="Fill-45" fill="#004DA1"></path>
            <path d="M2.135625,7.02275 C2.135625,7.1165 2.058125,7.19525 1.963125,7.19525 C1.865625,7.19525 1.788125,7.1165 1.788125,7.02275 C1.788125,6.92775 1.865625,6.85025 1.963125,6.85025 C2.058125,6.85025 2.135625,6.92775 2.135625,7.02275" id="Fill-47" fill="#004DA1"></path>
            <path d="M16.143125,7.02275 C16.143125,7.1165 16.064375,7.19525 15.969375,7.19525 C15.873125,7.19525 15.795625,7.1165 15.795625,7.02275 C15.795625,6.92775 15.873125,6.85025 15.969375,6.85025 C16.064375,6.85025 16.143125,6.92775 16.143125,7.02275" id="Fill-49" fill="#004DA1"></path>
            <path d="M9.467125,2.11675 L9.297125,2.11675 L9.297125,1.70925 L9.093375,1.70925 L9.093375,2.76675 C9.024625,2.8405 8.907125,2.8355 8.907125,2.8355 L8.334625,2.8355 C8.327125,2.8355 8.320875,2.828 8.320875,2.81925 L8.320875,1.99425 L8.933375,1.99425 L8.933375,1.8305 L8.115875,1.8305 L8.117125,2.81925 C8.117125,2.918 8.197125,2.9955 8.295875,2.9955 L8.902125,2.9955 C8.902125,2.9955 9.002125,3.0055 9.093375,2.953 L9.093375,3.52175 L9.297125,3.52175 L9.297125,2.27925 L9.467125,2.27925 L9.467125,3.52175 L9.669625,3.52175 L9.669625,1.70925 L9.467125,1.70925 L9.467125,2.11675 Z" id="Fill-51" fill="#004DA1"></path>
            <polygon id="Fill-53" fill="#004DA1" points="2.8735 5.9705 3.38975 5.40175 3.846 5.80925 3.98225 5.65925 3.526 5.253 4.04225 4.688 3.91975 4.578 2.751 5.86175"></polygon>
            <path d="M3.2055,4.486125 L3.388,4.648625 C3.393,4.654875 3.39425,4.664875 3.388,4.669875 L2.78925,5.327375 C2.78425,5.333625 2.7755,5.333625 2.768,5.328625 L2.58675,5.164875 L3.2055,4.486125 Z M2.633,5.478625 C2.7055,5.543625 2.81925,5.538625 2.8855,5.464875 L3.53675,4.751125 C3.603,4.677375 3.59675,4.564875 3.523,4.499875 L3.013,4.042375 L2.8755,4.192375 L3.083,4.376125 L2.4655,5.056125 L2.258,4.871125 L2.12175,5.021125 L2.633,5.478625 Z" id="Fill-55" fill="#004DA1"></path>
            <polygon id="Fill-57" fill="#004DA1" points="6.093125 2.203375 5.906875 2.284625 6.448125 3.485875 6.634375 3.404625 6.328125 2.723375 6.573125 2.614625 6.506875 2.465875 6.260625 2.574625"></polygon>
            <path d="M5.7965,4.097875 L5.59525,3.652875 L5.41025,3.734125 L5.6115,4.179125 C5.6515,4.270375 5.75775,4.310375 5.84775,4.270375 L6.829,3.835375 L6.7615,3.687875 L5.8165,4.105375 C5.809,4.109125 5.80025,4.105375 5.7965,4.097875" id="Fill-59" fill="#004DA1"></path>
            <path d="M5.350875,2.7685 L5.278375,2.60725 L5.092125,2.691 L5.165875,2.84975 C5.379625,3.326 4.964625,3.62725 4.935875,3.64725 L5.117125,3.716 C5.212125,3.63225 5.405875,3.43225 5.423375,3.176 C5.627125,3.33475 5.905875,3.32475 6.032125,3.30975 L6.102125,3.131 C6.059625,3.13975 5.563375,3.23975 5.350875,2.7685" id="Fill-61" fill="#004DA1"></path>
            <polygon id="Fill-63" fill="#004DA1" points="14.9475 5.12575 14.81 4.982 14.29125 5.46325 14.12375 5.2845 14.6425 4.80325 14.505 4.65825 13.98625 5.1395 13.69375 4.8295 13.575 4.94075 14.7375 6.17075 14.855 6.06075 14.4275 5.60825"></polygon>
            <path d="M15.097,5.32225 C14.887,5.51725 14.71575,5.5785 14.71575,5.5785 L14.8545,5.726 C14.8545,5.726 15.02575,5.6635 15.2345,5.4685 L15.762,4.981 L15.76075,4.981 L15.762,4.981 L14.842,4.006 L14.7245,4.116 L15.5045,4.9435 L15.097,5.32225 Z" id="Fill-65" fill="#004DA1"></path>
            <polygon id="Fill-67" fill="#004DA1" points="13.092625 3.32525 13.158875 3.17525 12.910125 3.069 13.072625 2.694 12.886375 2.61525 12.457625 3.594 12.645125 3.674 12.845125 3.21775"></polygon>
            <polygon id="Fill-69" fill="#004DA1" points="12.611625 3.7475 11.430375 3.24 11.365375 3.39 12.359125 3.8175 12.159125 4.2775 12.346625 4.3575 12.611625 3.74875"></polygon>
            <path d="M11.841375,3.07125 C11.710125,3.015 11.648875,2.86625 11.705125,2.7375 C11.760125,2.61 11.912625,2.5525 12.043875,2.60875 C12.175125,2.665 12.236375,2.81375 12.180125,2.94125 C12.123875,3.07 11.972625,3.1275 11.841375,3.07125 L11.841375,3.07125 Z M12.675125,2.70125 L12.203875,2.4975 L12.283875,2.3125 L12.097625,2.23125 L12.015125,2.4175 L11.543875,2.21375 L11.477625,2.36625 L11.707625,2.465 C11.623875,2.505 11.555125,2.57125 11.515125,2.65875 C11.423875,2.86875 11.540125,3.12125 11.775125,3.22125 C12.010125,3.3225 12.275125,3.235 12.367625,3.025 C12.406375,2.9375 12.407625,2.84 12.380125,2.7525 L12.610125,2.85125 L12.675125,2.70125 Z" id="Fill-71" fill="#004DA1"></path>
            <g id="Group-75" transform="translate(0.000000, 0.417500)">
                <mask id="mask-2" fill="white">
                    <use xlink:href="#path-1"></use>
                </mask>
                <g id="Clip-74"></g>
                <path d="M8.95875,0.954625 C4.07875,0.954625 0.1225,4.910875 0.1225,9.790875 C0.1225,14.672125 4.07875,18.628375 8.95875,18.628375 C13.83875,18.628375 17.79375,14.672125 17.79375,9.790875 C17.79375,4.910875 13.83875,0.954625 8.95875,0.954625 M17.9175,9.790875 C17.9175,14.738375 13.90625,18.749625 8.95875,18.749625 C4.01125,18.749625 0,14.738375 0,9.790875 C0,4.843375 4.01125,0.832125 8.95875,0.832125 C13.90625,0.832125 17.9175,4.843375 17.9175,9.790875" id="Fill-73" fill="#004DA1" mask="url(#mask-2)"></path>
            </g>
            <path d="M8.95875,3.839125 C5.44,3.839125 2.5875,6.690375 2.5875,10.209125 C2.5875,13.726625 5.44,16.577875 8.95875,16.577875 C12.475,16.577875 15.3275,13.726625 15.3275,10.209125 C15.3275,6.690375 12.475,3.839125 8.95875,3.839125 M15.45,10.209125 C15.45,13.794125 12.54375,16.700375 8.95875,16.700375 C5.3725,16.700375 2.46625,13.794125 2.46625,10.209125 C2.46625,6.624125 5.3725,3.716625 8.95875,3.716625 C12.54375,3.716625 15.45,6.624125 15.45,10.209125" id="Fill-76" fill="#004DA1"></path>
            <path d="M10.039,8.98075 C9.2115,9.007 8.95025,9.492 8.95025,9.492 C8.68775,8.98325 7.8915,8.982 7.8915,8.982 L4.47775,8.982 L4.47775,14.15825 L7.82025,14.15825 C8.27525,14.15825 8.4365,14.372 8.4915,14.527 L9.414,14.527 C9.574,14.13825 10.039,14.16075 10.039,14.16075 L13.43775,14.16075 L13.43775,8.98075 L10.039,8.98075 Z M13.004,13.732 L9.99025,13.73075 C9.059,13.737 8.94275,14.352 8.94275,14.352 C8.7515,13.6545 7.854,13.73075 7.854,13.73075 L4.909,13.73075 L4.909,9.4095 L7.749,9.4095 C8.694,9.427 8.94525,10.1745 8.94525,10.1745 C9.25525,9.41825 10.2315,9.41075 10.2315,9.41075 L13.004,9.41075 L13.004,13.732 Z" id="Fill-78" fill="#009953"></path>
            <mask id="mask-4" fill="white">
                <use xlink:href="#path-3"></use>
            </mask>
            <g id="Clip-81"></g>
            <path d="M10.71625,11.40125 L11.49125,11.40125 L11.49125,10.96125 L10.71625,10.96125 L10.71625,11.40125 Z M8.5725,12.22375 L9.3475,12.22375 L9.3475,11.83125 L8.5725,11.83125 L8.5725,12.22375 Z M6.425,12.22375 L7.20375,12.22375 L7.20375,11.83125 L6.425,11.83125 L6.425,12.22375 Z M7.20375,11.4 L5.95875,11.4 L5.95875,12.65375 L5.95875,12.655 L7.6725,12.655 L7.6725,12.65125 L7.67,12.65125 L7.67,11.83125 L8.10375,11.83125 L8.10375,12.655 L9.815,12.655 L9.815,11.83125 L10.2475,11.83125 L10.2475,12.6525 L11.95875,12.6525 L11.95875,12.22 L10.71625,12.22 L10.71625,11.83125 L11.95875,11.83125 L11.95875,10.53 L10.2475,10.53 L10.2475,11.39875 L9.815,11.39875 L9.815,10.53 L9.345,10.53 L9.345,11.39875 L8.57,11.39875 L8.57,10.53 L8.10375,10.53 L8.10375,11.39875 L7.67125,11.39875 L7.67125,10.53 L5.9575,10.53 L5.9575,10.9625 L7.20375,10.9625 L7.20375,11.4 Z" id="Fill-80" fill="#009953" mask="url(#mask-4)"></path>
            <polygon id="Fill-82" fill="#004DA1" mask="url(#mask-4)" points="8.699875 6.5845 9.114875 6.447 8.699875 6.447"></polygon>
            <path d="M13.0035,8.10175 L10.256,8.10175 C9.5235,8.10175 9.181,8.1505 8.9485,8.40425 C8.69725,8.1605 8.501,8.10175 7.7685,8.10175 L4.90975,8.10175 L4.90975,6.6255 L5.8085,6.6255 C5.89725,6.623 5.97225,6.64425 6.01975,6.66925 C6.056,6.6905 6.121,6.73425 6.1685,6.79925 C6.2285,6.88175 6.75975,7.66175 6.75975,7.66175 L8.296,7.66175 C8.296,7.66175 8.43975,7.3655 8.526,7.1605 C8.61725,6.95175 8.586,6.8055 8.39475,6.79175 C8.236,6.77925 8.13475,6.818 8.11725,6.883 L8.04975,6.6505 C8.0085,6.53175 8.03725,6.44675 8.20225,6.44675 L8.69975,6.44675 C8.69975,6.45175 8.70975,6.2855 8.9835,6.2855 L9.8035,6.2855 L9.57225,6.498 L9.57225,7.66175 L11.16475,7.66175 C11.16475,7.66175 11.671,6.88175 11.72975,6.79925 C11.77725,6.73425 11.84225,6.6905 11.8785,6.66925 C11.926,6.64425 12.001,6.623 12.08975,6.62175 L13.0035,6.62175 L13.0035,8.10175 Z M7.806,7.178 C7.95725,7.018 8.116,7.038 8.116,7.10675 C8.116,7.17425 8.03725,7.2555 8.03725,7.2555 L7.056,7.2555 L6.51725,6.47925 C6.3835,6.2805 6.211,6.19425 5.926,6.19425 L4.4785,6.19425 L4.4785,8.5305 C5.3585,8.5305 7.5235,8.528 7.77725,8.5305 C8.75225,8.5405 8.94225,8.9555 8.94225,8.9555 C9.14725,8.63175 9.541,8.533 10.14725,8.53175 L13.43725,8.53175 L13.4385,6.19425 L11.96975,6.19425 C11.68725,6.19425 11.51475,6.2805 11.381,6.47925 L11.37975,6.47925 L10.831,7.2555 L10.01475,7.2555 L10.01475,6.5655 L10.5735,6.01925 L9.99725,6.01925 L10.14225,5.89175 L8.97475,5.89175 C8.741,5.89175 8.55475,5.988 8.4885,6.12175 L8.07725,6.12175 C7.69975,6.12175 7.561,6.33425 7.6385,6.61425 L7.806,7.178 Z" id="Fill-83" fill="#004DA1" mask="url(#mask-4)"></path>
            <path d="M8.269,13.114 C8.329,13.09275 8.38025,13.05025 8.4115,12.999 L8.414,12.999 L8.414,13.369 C8.414,13.40525 8.41025,13.4365 8.4465,13.45775 L8.4465,13.46025 L8.30775,13.46025 L8.30775,13.45775 C8.349,13.44025 8.3465,13.40775 8.3465,13.369 L8.3465,13.11525 L8.269,13.11525 L8.269,13.114 Z" id="Fill-84" fill="#009953" mask="url(#mask-4)"></path>
            <path d="M8.60775,13.433875 C8.714,13.411375 8.8115,13.315125 8.8115,13.205125 C8.8115,13.140125 8.77275,13.065125 8.6965,13.065125 C8.64025,13.065125 8.60025,13.110125 8.60025,13.163875 C8.60025,13.225125 8.64025,13.271375 8.7015,13.271375 C8.72525,13.271375 8.75025,13.263875 8.77025,13.251375 L8.7265,13.305125 C8.71025,13.311375 8.69025,13.313875 8.6715,13.313875 C8.59525,13.313875 8.534,13.256375 8.534,13.180125 C8.534,13.083875 8.6115,13.020125 8.70525,13.020125 C8.809,13.020125 8.87775,13.100125 8.87775,13.200125 C8.87775,13.273875 8.8365,13.347625 8.77775,13.393875 C8.71775,13.441375 8.65025,13.463875 8.57525,13.473875 L8.60775,13.433875 Z" id="Fill-85" fill="#009953" mask="url(#mask-4)"></path>
            <path d="M9.132,13.371625 L9.132,13.389125 C9.132,13.422875 9.13575,13.446625 9.0995,13.457875 L9.0995,13.460375 L9.22825,13.460375 L9.22825,13.457875 C9.1995,13.445375 9.19825,13.414125 9.19825,13.385375 L9.19825,13.371625 L9.25075,13.371625 L9.28325,13.292875 C9.2595,13.311625 9.2295,13.320375 9.19825,13.320375 L9.19825,13.030375 L9.10575,13.030375 L8.90075,13.371625 L9.132,13.371625 Z M9.132,13.320375 C9.0745,13.320375 9.027,13.316625 8.99075,13.315375 L9.132,13.077875 L9.132,13.320375 Z" id="Fill-86" fill="#009953" mask="url(#mask-4)"></path>
            <path d="M9.599625,13.059125 C9.554625,13.065375 9.502125,13.099125 9.469625,13.129125 C9.424625,13.170375 9.398375,13.226625 9.398375,13.287875 C9.398375,13.355375 9.437125,13.427875 9.514625,13.427875 C9.573375,13.427875 9.605875,13.384125 9.605875,13.327875 C9.605875,13.264125 9.572125,13.219125 9.504625,13.219125 C9.479625,13.219125 9.454625,13.227875 9.432125,13.241625 L9.474625,13.189125 C9.492125,13.180375 9.510875,13.175375 9.532125,13.175375 C9.614625,13.175375 9.673375,13.231625 9.673375,13.314125 C9.673375,13.406625 9.599625,13.471625 9.507125,13.471625 C9.403375,13.471625 9.332125,13.389125 9.332125,13.289125 C9.332125,13.132875 9.489625,13.031625 9.630875,13.019125 L9.599625,13.059125 Z" id="Fill-87" fill="#009953" mask="url(#mask-4)"></path>
            <path d="M21.95,14.1895 C22.43875,14.1895 22.81,14.42575 22.81,14.84575 C22.81,15.2795 22.40875,15.5545 21.985,15.5545 C21.89,15.5545 21.7975,15.542 21.71,15.50075 C22.0325,15.48325 22.38375,15.28325 22.38375,14.922 C22.38375,14.592 22.15,14.46075 21.85,14.46075 C21.7575,14.46075 21.6725,14.46825 21.58625,14.48325 L21.58625,16.177 C21.58625,16.38825 21.58375,16.537 21.78125,16.6495 L21.78125,16.662 L21.035,16.662 L21.035,16.6495 C21.225,16.58075 21.2025,16.30325 21.2025,16.137 L21.2025,14.72075 C21.2025,14.55075 21.225,14.277 21.03875,14.202 L21.03875,14.1895 L21.95,14.1895 Z" id="Fill-88" fill="#004DA1" mask="url(#mask-4)"></path>
            <path d="M24.72775,16.413625 C24.56275,16.631125 24.25525,16.719875 23.9915,16.719875 C23.74275,16.719875 23.4815,16.642375 23.31275,16.458625 C23.11275,16.241125 23.12025,15.989875 23.12025,15.718625 L23.12025,14.716125 C23.12025,14.547375 23.14775,14.272375 22.95525,14.201125 L22.95525,14.189875 L23.66775,14.189875 L23.66775,14.201125 C23.4815,14.272375 23.504,14.547375 23.504,14.716125 L23.504,15.718625 C23.504,16.217375 23.71275,16.451125 24.1015,16.451125 C24.3115,16.451125 24.524,16.364875 24.649,16.187375 C24.7315,16.074875 24.72775,15.981125 24.72775,15.846125 L24.72775,14.716125 C24.72775,14.547375 24.7515,14.272375 24.56275,14.201125 L24.56275,14.189875 L25.27525,14.189875 L25.279,14.201125 C25.089,14.272375 25.109,14.547375 25.109,14.721125 L25.109,16.136125 C25.109,16.303625 25.089,16.578625 25.279,16.648625 L25.279,16.661125 L24.72775,16.661125 L24.72775,16.413625 Z" id="Fill-89" fill="#004DA1" mask="url(#mask-4)"></path>
            <path d="M27.1625,14.63625 C27.01625,14.4875 26.7825,14.4025 26.5725,14.4025 C26.35875,14.4025 26.0875,14.48375 26.0875,14.7425 C26.0875,15.25625 27.37875,15.24875 27.37875,15.94375 C27.37875,16.345 26.95875,16.72 26.37375,16.72 C26.14625,16.72 25.915,16.6875 25.70125,16.60875 L25.5925,16.13875 C25.81375,16.33 26.1225,16.45125 26.41375,16.45125 C26.63,16.45125 26.95375,16.325 26.95375,16.06 C26.95375,15.475 25.66,15.57875 25.66,14.78375 C25.66,14.31125 26.14625,14.13125 26.60375,14.13125 C26.79125,14.13125 26.98375,14.155 27.1625,14.2125 L27.1625,14.63625 Z" id="Fill-90" fill="#004DA1" mask="url(#mask-4)"></path>
            <path d="M29.09425,15.733625 L29.29675,16.263625 C29.39925,16.524875 29.428,16.568625 29.24425,16.648625 L29.24425,16.661125 L30.013,16.661125 L30.013,16.648625 C29.8005,16.541125 29.73175,16.331125 29.64675,16.116125 L28.86425,14.189875 L28.2705,14.189875 L28.2705,14.201125 C28.45175,14.256125 28.3805,14.416125 28.328,14.551125 L27.7005,16.116125 C27.618,16.331125 27.5555,16.541125 27.33675,16.648625 L27.33675,16.661125 L28.028,16.661125 L28.028,16.648625 C27.84675,16.581125 27.873,16.472375 27.95425,16.263625 L28.148,15.733625 L29.09425,15.733625 Z M28.98425,15.454875 L28.2455,15.454875 L28.61675,14.509875 L28.98425,15.454875 Z" id="Fill-91" fill="#004DA1" mask="url(#mask-4)"></path>
            <path d="M30.534,16.171875 C30.534,16.383125 30.529,16.533125 30.729,16.649375 L30.729,16.661875 L30.064,16.661875 L30.064,16.649375 C30.264,16.533125 30.264,16.383125 30.264,16.171875 L30.264,14.673125 C30.264,14.464375 30.264,14.314375 30.06775,14.201875 L30.06775,14.189375 L30.6165,14.189375 L30.6165,14.193125 C30.63275,14.238125 30.6465,14.256875 30.67275,14.285625 L30.724,14.363125 L32.10025,16.095625 L32.10025,14.673125 C32.10025,14.464375 32.10275,14.314375 31.904,14.201875 L31.904,14.189375 L32.564,14.189375 L32.564,14.201875 C32.37025,14.314375 32.37025,14.464375 32.37025,14.673125 L32.37025,16.780625 C32.10275,16.690625 31.98775,16.568125 31.8215,16.353125 L30.534,14.720625 L30.534,16.171875 Z" id="Fill-92" fill="#004DA1" mask="url(#mask-4)"></path>
            <path d="M34.360375,16.171875 C34.360375,16.383125 34.356625,16.533125 34.554125,16.649375 L34.554125,16.661875 L33.890375,16.661875 L33.890375,16.649375 C34.089125,16.533125 34.089125,16.383125 34.089125,16.171875 L34.089125,14.673125 C34.089125,14.464375 34.089125,14.314375 33.892875,14.201875 L33.892875,14.189375 L34.442875,14.189375 L34.442875,14.193125 C34.457875,14.238125 34.471625,14.256875 34.499125,14.285625 L34.551625,14.363125 L35.925375,16.095625 L35.925375,14.673125 C35.925375,14.464375 35.927875,14.314375 35.731625,14.201875 L35.731625,14.189375 L36.390375,14.189375 L36.390375,14.201875 C36.196625,14.314375 36.196625,14.464375 36.196625,14.673125 L36.196625,16.780625 C35.927875,16.690625 35.812875,16.568125 35.647875,16.353125 L34.360375,14.720625 L34.360375,16.171875 Z" id="Fill-93" fill="#004DA1" mask="url(#mask-4)"></path>
            <path d="M38.118875,15.733625 L38.321375,16.263625 C38.422625,16.524875 38.452625,16.568625 38.268875,16.648625 L38.268875,16.661125 L39.038875,16.661125 L39.038875,16.648625 C38.823875,16.541125 38.756375,16.331125 38.670125,16.116125 L37.888875,14.189875 L37.296375,14.189875 L37.296375,14.201125 C37.475125,14.256125 37.406375,14.416125 37.352625,14.551125 L36.725125,16.116125 C36.641375,16.331125 36.578875,16.541125 36.360125,16.648625 L36.360125,16.661125 L37.051375,16.661125 L37.051375,16.648625 C36.872625,16.581125 36.897625,16.472375 36.977625,16.263625 L37.171375,15.733625 L38.118875,15.733625 Z M38.010125,15.454875 L37.270125,15.454875 L37.641375,14.509875 L38.010125,15.454875 Z" id="Fill-94" fill="#004DA1" mask="url(#mask-4)"></path>
            <path d="M39.87675,16.171875 C39.87675,16.388125 39.87425,16.533125 40.07175,16.649375 L40.07175,16.661875 L39.3305,16.661875 L39.3305,16.649375 C39.5155,16.578125 39.49425,16.303125 39.49425,16.136875 L39.49425,14.460625 L39.16425,14.460625 C39.00175,14.460625 38.833,14.501875 38.71675,14.611875 L38.70425,14.611875 L38.83675,14.163125 L38.848,14.163125 C38.89175,14.181875 38.94175,14.181875 38.99175,14.189375 L39.08425,14.189375 L40.4855,14.189375 C40.5505,14.189375 40.60925,14.185625 40.658,14.163125 L40.6705,14.163125 L40.5505,14.611875 L40.538,14.611875 C40.4905,14.479375 40.33925,14.460625 40.21425,14.460625 L39.87675,14.460625 L39.87675,16.171875 Z" id="Fill-95" fill="#004DA1" mask="url(#mask-4)"></path>
            <path d="M41.104125,14.7205 C41.104125,14.54675 41.130375,14.273 40.940375,14.20175 L40.940375,14.18925 L41.651625,14.18925 L41.651625,14.20175 C41.465375,14.273 41.486625,14.5505 41.486625,14.7205 L41.486625,16.13675 C41.486625,16.30425 41.465375,16.578 41.651625,16.64925 L41.651625,16.66175 L40.940375,16.66175 L40.940375,16.64925 C41.124125,16.5805 41.104125,16.30425 41.104125,16.13675 L41.104125,14.7205 Z" id="Fill-96" fill="#004DA1" mask="url(#mask-4)"></path>
            <path d="M43.25075,14.126 C42.46325,14.10725 41.84575,14.70475 41.84575,15.41725 C41.84575,16.18725 42.4695,16.71975 43.212,16.71975 C43.962,16.71975 44.597,16.16475 44.597,15.39975 C44.597,14.7235 44.0395,14.1235 43.25075,14.126 M43.2245,14.39725 C43.81825,14.39725 44.16825,14.926 44.16825,15.47475 C44.16825,16.0335 43.80325,16.451 43.23325,16.451 C42.64325,16.451 42.27325,15.90975 42.27325,15.386 C42.27325,14.8185 42.64325,14.39725 43.2245,14.39725" id="Fill-97" fill="#004DA1" mask="url(#mask-4)"></path>
            <path d="M45.183125,16.171875 C45.183125,16.383125 45.178125,16.533125 45.378125,16.649375 L45.378125,16.661875 L44.714375,16.661875 L44.714375,16.649375 C44.913125,16.533125 44.913125,16.383125 44.913125,16.171875 L44.913125,14.673125 C44.913125,14.464375 44.913125,14.314375 44.718125,14.201875 L44.718125,14.189375 L45.265625,14.189375 L45.265625,14.193125 C45.280625,14.238125 45.295625,14.256875 45.320625,14.285625 L45.373125,14.363125 L46.748125,16.095625 L46.748125,14.673125 C46.748125,14.464375 46.753125,14.314375 46.553125,14.201875 L46.553125,14.189375 L47.214375,14.189375 L47.214375,14.201875 C47.020625,14.314375 47.020625,14.464375 47.020625,14.673125 L47.020625,16.780625 C46.753125,16.690625 46.638125,16.568125 46.471875,16.353125 L45.183125,14.720625 L45.183125,16.171875 Z" id="Fill-98" fill="#004DA1" mask="url(#mask-4)"></path>
            <path d="M48.927,15.733625 L49.1295,16.263625 C49.232,16.524875 49.26075,16.568625 49.07825,16.648625 L49.07825,16.661125 L49.84575,16.661125 L49.84575,16.648625 C49.63325,16.541125 49.56575,16.331125 49.47825,16.116125 L48.69575,14.189875 L48.10325,14.189875 L48.10325,14.201125 C48.2845,14.256125 48.21325,14.416125 48.16075,14.551125 L47.5345,16.116125 C47.45075,16.331125 47.387,16.541125 47.172,16.648625 L47.172,16.661125 L47.86075,16.661125 L47.86075,16.648625 C47.68075,16.581125 47.70575,16.472375 47.78325,16.263625 L47.98075,15.733625 L48.927,15.733625 Z M48.817,15.454875 L48.077,15.454875 L48.4495,14.509875 L48.817,15.454875 Z" id="Fill-99" fill="#004DA1" mask="url(#mask-4)"></path>
            <path d="M51.043125,16.391625 C51.298125,16.405375 51.520625,16.319125 51.708125,16.161625 L51.719375,16.161625 L51.525625,16.661625 L49.980625,16.661625 L49.980625,16.649125 C50.171875,16.580375 50.149375,16.304125 50.149375,16.136625 L50.149375,14.720375 C50.149375,14.546625 50.171875,14.272875 49.980625,14.201625 L49.980625,14.189125 L50.698125,14.189125 L50.698125,14.201625 C50.504375,14.272875 50.533125,14.550375 50.533125,14.720375 L50.533125,16.357875 L51.043125,16.391625 Z" id="Fill-100" fill="#004DA1" mask="url(#mask-4)"></path>
            <path d="M54.525125,16.413625 C54.358875,16.631125 54.052625,16.719875 53.788875,16.719875 C53.538875,16.719875 53.278875,16.642375 53.110125,16.458625 C52.910125,16.241125 52.916375,15.989875 52.916375,15.718625 L52.916375,14.716125 C52.916375,14.547375 52.943875,14.272375 52.752625,14.201125 L52.752625,14.189875 L53.465125,14.189875 L53.465125,14.201125 C53.278875,14.272375 53.301375,14.547375 53.301375,14.716125 L53.301375,15.718625 C53.301375,16.217375 53.510125,16.451125 53.897625,16.451125 C54.107625,16.451125 54.321375,16.364875 54.447625,16.187375 C54.527625,16.074875 54.525125,15.981125 54.525125,15.846125 L54.525125,14.716125 C54.525125,14.547375 54.547625,14.272375 54.358875,14.201125 L54.358875,14.189875 L55.071375,14.189875 L55.076375,14.201125 C54.885125,14.272375 54.907625,14.547375 54.907625,14.721125 L54.907625,16.136125 C54.907625,16.303625 54.885125,16.578625 55.076375,16.648625 L55.076375,16.661125 L54.525125,16.661125 L54.525125,16.413625 Z" id="Fill-101" fill="#004DA1" mask="url(#mask-4)"></path>
            <path d="M55.884375,16.171875 C55.884375,16.383125 55.878125,16.533125 56.078125,16.649375 L56.078125,16.661875 L55.413125,16.661875 L55.413125,16.649375 C55.613125,16.533125 55.613125,16.383125 55.613125,16.171875 L55.613125,14.673125 C55.613125,14.464375 55.613125,14.314375 55.416875,14.201875 L55.416875,14.189375 L55.965625,14.189375 L55.965625,14.193125 C55.979375,14.238125 55.994375,14.256875 56.020625,14.285625 L56.075625,14.363125 L57.446875,16.095625 L57.446875,14.673125 C57.446875,14.464375 57.451875,14.314375 57.253125,14.201875 L57.253125,14.189375 L57.914375,14.189375 L57.914375,14.201875 C57.719375,14.314375 57.719375,14.464375 57.719375,14.673125 L57.719375,16.780625 C57.451875,16.690625 57.336875,16.568125 57.170625,16.353125 L55.884375,14.720625 L55.884375,16.171875 Z" id="Fill-102" fill="#004DA1" mask="url(#mask-4)"></path>
            <path d="M58.463125,14.7205 C58.463125,14.54675 58.490625,14.273 58.296875,14.20175 L58.296875,14.18925 L59.013125,14.18925 L59.013125,14.20175 C58.824375,14.273 58.848125,14.5505 58.848125,14.7205 L58.848125,16.13675 C58.848125,16.30425 58.824375,16.578 59.013125,16.64925 L59.013125,16.66175 L58.296875,16.66175 L58.296875,16.64925 C58.488125,16.5805 58.463125,16.30425 58.463125,16.13675 L58.463125,14.7205 Z" id="Fill-103" fill="#004DA1" mask="url(#mask-4)"></path>
            <path d="M60.903875,14.869375 C61.005125,14.603125 61.132625,14.295625 60.900125,14.201875 L60.900125,14.189375 L61.458875,14.189375 L60.467625,16.774375 C60.206375,16.600625 60.118875,16.570625 60.010125,16.274375 L59.442625,14.739375 C59.370125,14.546875 59.313875,14.328125 59.148875,14.201875 L59.148875,14.189375 L59.698875,14.189375 L59.695125,14.235625 C59.695125,14.318125 59.765125,14.501875 59.796375,14.584375 L60.391375,16.216875 L60.903875,14.869375 Z" id="Fill-104" fill="#004DA1" mask="url(#mask-4)"></path>
            <path d="M62.185625,16.34525 L62.663125,16.3915 C62.909375,16.414 63.169375,16.334 63.356875,16.16775 L63.368125,16.16775 L63.198125,16.6615 L61.633125,16.6615 L61.633125,16.649 C61.825625,16.58025 61.803125,16.304 61.803125,16.1365 L61.803125,14.72025 C61.803125,14.54775 61.825625,14.27275 61.633125,14.2015 L61.633125,14.189 L62.834375,14.189 C62.896875,14.189 62.963125,14.19775 63.011875,14.1715 L63.023125,14.1715 L63.023125,14.6115 L63.011875,14.6115 C62.893125,14.474 62.740625,14.46025 62.568125,14.46025 C62.435625,14.46025 62.304375,14.464 62.185625,14.48775 L62.185625,15.18525 L62.630625,15.18525 C62.691875,15.18525 62.750625,15.18525 62.795625,15.16275 L62.806875,15.16275 L62.806875,15.5615 L62.795625,15.5615 C62.736875,15.45275 62.578125,15.45525 62.463125,15.45525 L62.185625,15.45525 L62.185625,16.34525 Z" id="Fill-105" fill="#004DA1" mask="url(#mask-4)"></path>
            <path d="M64.434125,14.1895 C64.935375,14.1895 65.211625,14.45325 65.211625,14.7945 C65.211625,15.12575 64.922875,15.38575 64.615375,15.45575 L65.156625,16.137 C65.312875,16.33075 65.550375,16.5245 65.764125,16.662 L65.417875,16.662 C65.216625,16.662 65.095375,16.61075 64.981625,16.472 L64.524125,15.90575 L64.177875,15.377 C64.479125,15.33075 64.827875,15.19325 64.827875,14.8395 C64.827875,14.5695 64.594125,14.41325 64.345375,14.42325 C64.256625,14.42575 64.174125,14.437 64.089125,14.45325 L64.089125,16.137 C64.089125,16.307 64.065375,16.58075 64.256625,16.6495 L64.256625,16.662 L63.540375,16.662 L63.540375,16.6495 C63.731625,16.58075 63.704125,16.30325 63.704125,16.137 L63.704125,14.72075 C63.704125,14.547 63.731625,14.272 63.540375,14.202 L63.540375,14.1895 L64.434125,14.1895 Z" id="Fill-106" fill="#004DA1" mask="url(#mask-4)"></path>
            <path d="M67.150875,14.63625 C67.002125,14.4875 66.770875,14.4025 66.558375,14.4025 C66.345875,14.4025 66.075875,14.48375 66.075875,14.7425 C66.075875,15.25625 67.369625,15.24875 67.369625,15.94375 C67.369625,16.345 66.945875,16.72 66.362125,16.72 C66.130875,16.72 65.902125,16.6875 65.688375,16.60875 L65.578375,16.13875 C65.800875,16.33 66.108375,16.45125 66.400875,16.45125 C66.615875,16.45125 66.940875,16.325 66.940875,16.06 C66.940875,15.475 65.645875,15.57875 65.645875,14.78375 C65.645875,14.31125 66.130875,14.13125 66.588375,14.13125 C66.779625,14.13125 66.969625,14.155 67.150875,14.2125 L67.150875,14.63625 Z" id="Fill-107" fill="#004DA1" mask="url(#mask-4)"></path>
            <path d="M67.811875,14.7205 C67.811875,14.54675 67.839375,14.273 67.648125,14.20175 L67.648125,14.18925 L68.359375,14.18925 L68.359375,14.20175 C68.173125,14.273 68.196875,14.5505 68.196875,14.7205 L68.196875,16.13675 C68.196875,16.30425 68.173125,16.578 68.359375,16.64925 L68.359375,16.66175 L67.648125,16.66175 L67.648125,16.64925 C67.835625,16.5805 67.811875,16.30425 67.811875,16.13675 L67.811875,14.7205 Z" id="Fill-108" fill="#004DA1" mask="url(#mask-4)"></path>
            <path d="M69.699125,16.171875 C69.699125,16.388125 69.696625,16.533125 69.895375,16.649375 L69.895375,16.661875 L69.151625,16.661875 L69.151625,16.649375 C69.339125,16.578125 69.315375,16.303125 69.315375,16.136875 L69.315375,14.460625 L68.986625,14.460625 C68.824125,14.460625 68.656625,14.501875 68.539125,14.611875 L68.527875,14.611875 L68.659125,14.163125 L68.671625,14.163125 C68.715375,14.181875 68.765375,14.181875 68.812875,14.189375 L68.907875,14.189375 L70.309125,14.189375 C70.374125,14.189375 70.432875,14.185625 70.481625,14.163125 L70.492875,14.163125 L70.374125,14.611875 L70.361625,14.611875 C70.312875,14.479375 70.160375,14.460625 70.039125,14.460625 L69.699125,14.460625 L69.699125,16.171875 Z" id="Fill-109" fill="#004DA1" mask="url(#mask-4)"></path>
            <path d="M71.635125,16.171875 C71.635125,16.400625 71.635125,16.510625 71.826375,16.649375 L71.826375,16.661875 L71.093875,16.661875 L71.093875,16.649375 C71.277625,16.556875 71.250125,16.313125 71.250125,16.136875 L71.250125,15.578125 L70.627625,14.578125 C70.526375,14.413125 70.451375,14.285625 70.270125,14.189375 L70.612625,14.189375 C70.732625,14.189375 70.845125,14.216875 70.893875,14.295625 L71.493875,15.274375 L71.960125,14.578125 C72.025125,14.483125 72.111375,14.304375 71.901375,14.201875 L71.901375,14.189375 L72.557625,14.189375 L71.635125,15.578125 L71.635125,16.171875 Z" id="Fill-110" fill="#004DA1" mask="url(#mask-4)"></path>
            <path d="M49.370125,5.764125 L48.581375,5.764125 L48.581375,3.846625 L47.631375,3.846625 L47.631375,8.819125 C47.306375,9.169125 46.758875,9.147875 46.758875,9.147875 L44.090125,9.147875 C44.051375,9.147875 44.021375,9.115375 44.021375,9.075375 L44.020125,5.190375 L46.878875,5.190375 L46.878875,4.421625 L43.070125,4.421625 L43.070125,9.075375 C43.070125,9.536625 43.446375,9.905375 43.907625,9.905375 L46.736375,9.905375 C46.736375,9.905375 47.201375,9.949125 47.631375,9.702875 L47.631375,12.380375 L48.581375,12.380375 L48.581375,6.531625 L49.370125,6.531625 L49.370125,12.380375 L50.318875,12.380375 L50.318875,3.846625 L49.370125,3.846625 L49.370125,5.764125 Z" id="Fill-111" fill="#004DA1" mask="url(#mask-4)"></path>
            <polygon id="Fill-112" fill="#004DA1" mask="url(#mask-4)" points="21.032125 9.516625 24.633375 9.516625 24.633375 12.377875 25.584625 12.377875 25.584625 9.516625 29.173375 9.516625 29.173375 8.750375 21.032125 8.750375"></polygon>
            <path d="M27.2565,5.985125 L27.2565,7.131375 C27.2565,7.170125 27.224,7.202625 27.18525,7.202625 L23.019,7.202625 C22.98025,7.202625 22.949,7.170125 22.949,7.131375 L22.94775,5.985125 L27.2565,5.985125 Z M22.83525,7.967625 L27.36775,7.967625 C27.83025,7.967625 28.20525,7.592625 28.20525,7.130125 L28.2065,3.920125 L27.25775,3.920125 L27.2565,5.218875 L22.94775,5.218875 L22.94775,3.920125 L21.99775,3.920125 L21.999,7.130125 C21.999,7.592625 22.374,7.967625 22.83525,7.967625 L22.83525,7.967625 Z" id="Fill-113" fill="#004DA1" mask="url(#mask-4)"></path>
            <polygon id="Fill-114" fill="#004DA1" mask="url(#mask-4)" points="39.002 3.84275 38.052 3.84275 38.052 10.0365 39.002 10.0365 39.002 6.529 40.26075 6.529 40.26075 5.76275 39.002 5.76275"></polygon>
            <path d="M34.103375,11.427 L34.103375,9.127 L33.154625,9.127 L33.153375,11.427 C33.153375,11.887 33.528375,12.262 33.989625,12.262 L39.003375,12.262 L39.003375,11.497 L34.174625,11.497 C34.134625,11.497 34.103375,11.46575 34.103375,11.427" id="Fill-115" fill="#004DA1" mask="url(#mask-4)"></path>
            <path d="M34.75525,4.862 L34.75525,4.03575 L33.8065,4.03575 L33.8065,4.862 C33.8065,7.3145 31.459,7.817 31.29775,7.8495 L31.93775,8.4895 C32.50275,8.3145 33.71525,7.8245 34.2815,6.75325 C34.844,7.82075 36.0515,8.31075 36.61775,8.487 L37.25775,7.8495 C37.06025,7.80825 34.75525,7.292 34.75525,4.862" id="Fill-116" fill="#004DA1" mask="url(#mask-4)"></path>
            <polygon id="Fill-117" fill="#004DA1" mask="url(#mask-4)" points="69.26325 7.48175 68.32575 7.48175 68.32575 10.798 67.18075 10.798 67.18075 7.48175 66.2445 7.48175 66.2445 10.798 64.247 10.798 64.247 11.55675 72.182 11.55675 72.182 10.798 69.26325 10.798"></polygon>
            <path d="M70.41625,7.600125 C70.41625,8.946375 70.0825,9.726375 70.0825,9.726375 L71.03125,9.726375 C71.03125,9.726375 71.35875,8.946375 71.35875,7.600125 L71.35875,4.238875 L71.35625,4.238875 L71.35625,4.237625 L65.0825,4.237625 L65.0825,4.993875 L70.41625,4.993875 L70.41625,7.600125 Z" id="Fill-118" fill="#004DA1" mask="url(#mask-4)"></path>
            <polygon id="Fill-119" fill="#004DA1" mask="url(#mask-4)" points="60.718375 5.763 60.718375 3.84675 59.765875 3.84675 59.765875 8.87425 60.718375 8.87425 60.718375 6.53175 61.980875 6.53175 61.980875 5.763"></polygon>
            <polygon id="Fill-120" fill="#004DA1" mask="url(#mask-4)" points="60.717125 9.25175 54.703375 9.25175 54.703375 10.0205 59.765875 10.0205 59.765875 12.378 60.718375 12.378 60.718375 9.2555 60.717125 9.2555"></polygon>
            <path d="M54.939,6.575875 C54.939,5.919625 55.479,5.388375 56.1465,5.388375 C56.814,5.388375 57.35525,5.919625 57.35525,6.575875 C57.35525,7.229625 56.814,7.762125 56.1465,7.762125 C55.479,7.762125 54.939,7.229625 54.939,6.575875 M58.31275,6.583375 C58.31275,6.130875 58.1415,5.717125 57.8565,5.387125 L59.02775,5.387125 L59.02775,4.613375 L56.62275,4.613375 L56.62275,3.657125 L55.67025,3.657125 L55.67025,4.613375 L53.2665,4.613375 L53.2665,5.387125 L54.43775,5.387125 C54.15275,5.717125 53.98025,6.130875 53.98025,6.583375 C53.98025,7.660875 54.95025,8.534625 56.1465,8.534625 C57.34275,8.534625 58.31275,7.660875 58.31275,6.583375" id="Fill-121" fill="#004DA1" mask="url(#mask-4)"></path>
        </g>
    </g>
</svg>