<?xml version="1.0" encoding="UTF-8"?>
<svg width="100px" height="60px" viewBox="0 0 100 60" version="1.1" xmlns="http://www.w3.org/2000/svg" xmlns:xlink="http://www.w3.org/1999/xlink">
    <!-- Generator: Sketch 59.1 (86144) - https://sketch.com -->
    <title>logo/carrot</title>
    <desc>Created with Sketch.</desc>
    <defs>
        <polygon id="path-1" points="0 0 70 0 70 20 0 20"></polygon>
    </defs>
    <g id="logo/carrot" stroke="none" stroke-width="1" fill="none" fill-rule="evenodd">
        <g id="Group-3" transform="translate(15.000000, 19.000000)">
            <mask id="mask-2" fill="white">
                <use xlink:href="#path-1"></use>
            </mask>
            <g id="Clip-2"></g>
            <path d="M56.9708855,15.7273636 C56.4419662,16.98703 55.4313054,17.5263961 54.347094,17.2378875 C53.5370123,17.0222905 53.1141699,16.2011392 53.1389309,14.6882247 C53.1947532,13.5861847 53.5043395,12.3575954 54.1939858,11.2515214 C54.4990301,10.7622072 54.8771855,10.3322084 55.442294,10.1233348 C56.1008792,9.88009712 56.5928767,9.86231746 56.6867928,10.7877562 C56.737194,11.2863336 56.8752112,11.8164364 57.1203309,12.2461364 C57.8123215,13.4600836 57.4422244,14.6053028 56.9708855,15.7273636 M25.3437076,11.8389971 C25.0877458,12.8578164 24.8344212,13.8802214 24.6509844,14.9139816 C24.3972203,16.3447212 23.4391584,17.2292218 22.04287,17.2286245 C21.1233416,17.2280265 20.4445374,16.5250577 20.56761,15.5268569 C20.7900198,13.7240892 21.5517516,12.178753 22.9856944,11.0302468 C23.3360118,10.7498063 23.7405399,10.5790319 24.1925388,10.5315199 C25.294332,10.4158774 25.6080207,10.7864115 25.3437076,11.8389971 M69.4440047,8.28620304 C68.8778705,8.31713068 68.3092456,8.30129334 67.7426719,8.32564699 C67.1721423,8.35015004 67.0793983,8.13455301 67.3525023,7.65001997 C67.7120503,7.01264162 68.0490349,6.36181648 68.386166,5.71173838 C68.5400068,5.41501232 68.6806613,5.12127443 68.1896893,4.97380785 C66.9865077,4.61238774 64.6783097,5.57727038 64.3026451,6.75461246 C63.9042707,8.00322259 63.3193826,8.74145194 61.9115195,8.45488568 C61.5689673,8.38526113 61.1801164,8.47176888 61.1553553,8.95660075 C61.1317664,9.41648132 61.1754279,9.88189003 61.7204639,10.0318966 C61.9909306,10.1063022 62.2797118,10.1094398 62.558823,10.1544119 C62.6984518,10.1769726 62.8408644,10.1521707 62.8817421,10.3885356 C63.0366085,11.2878277 61.9562066,13.0734134 61.0533808,13.3638643 C60.2085751,13.6354897 60.0041866,13.4899654 59.9956887,12.5945579 C59.9836745,11.3453501 59.6408293,10.2084979 58.9391687,9.1742895 C58.4254869,8.41693582 57.5909372,8.55349555 56.9001188,8.27962905 C55.7133469,7.80943926 54.7511825,8.10272892 53.7416939,8.56679294 C52.7431938,9.02592647 52.0010951,9.800761 51.3158442,10.6549316 C50.7277328,11.3882305 50.4516984,11.3254788 50.0865829,10.4713081 C49.4662382,9.02039834 48.1993226,8.46250553 46.762303,9.06985269 C46.1432769,9.33161707 45.5755311,9.71858611 44.9623656,10.0610313 C44.9623656,9.96615664 44.966468,9.9065425 44.9617796,9.84752598 C44.8945291,8.9961941 44.0818102,8.19924706 43.1716587,8.03908073 C42.2330833,7.87383449 41.9777076,8.5307854 41.7321483,9.21298641 C41.5809448,9.63297481 41.446444,10.059089 41.2989033,10.4804221 C41.2096757,10.735463 41.2505534,11.117651 40.8697608,11.1330401 C40.4728515,11.1490269 40.5188572,10.7439793 40.4135129,10.5031322 C39.7733886,9.04206263 38.5513066,8.48760623 37.0871817,9.08225363 C36.4557019,9.33863929 35.8813629,9.7402504 35.2749371,10.0792592 C35.2003609,9.02891465 34.4679322,8.22793357 33.4686996,8.05312516 C32.3915209,7.86457114 32.2411965,8.70230681 31.9847952,9.41379196 C31.291486,11.3383279 30.7969977,13.3188922 30.3852904,15.3224655 C30.1605363,16.4161386 29.3941161,17.0781694 28.5049163,17.588849 C27.9699898,17.8961831 27.5995998,17.7179383 27.6012114,17.0143718 C27.6034092,16.0829568 27.6984974,15.1645403 27.9024464,14.2562836 C28.2049999,12.907719 28.7345053,11.6480526 29.3133863,10.4021318 C29.6519826,9.6731658 29.2366124,8.86755304 28.3157653,8.30368388 C27.636082,7.8874307 27.037275,7.91835834 26.6469589,8.67810257 C26.380448,9.19670084 26.1107138,9.02338652 25.7579056,8.81511052 C24.6271025,8.14799981 23.4076577,8.03235733 22.2043296,8.49373199 C19.8636052,9.39108181 18.1631515,11.0260633 17.4799519,13.4893678 C17.1804751,14.5689964 16.6228388,15.2175805 15.7131269,15.6707376 C15.1774679,15.9375819 14.638146,16.2115978 14.0745026,16.4038871 C10.4469365,17.6412915 6.60047692,15.9480405 5.53208918,12.5534705 C4.58545545,9.54572002 5.51362829,6.8964015 7.57011351,4.71069879 C9.13591984,3.04658253 11.0954121,2.01595997 13.494303,2.30760613 C14.1794074,2.39067748 14.8154292,2.63167403 14.9830424,3.41666836 C15.1387879,4.14682962 14.6733096,4.58056364 14.1817516,5.02744565 C13.8035963,5.37123551 12.9378388,5.32372348 13.0354179,5.91762384 C13.1143895,6.39901929 13.7001566,6.81258311 14.1001427,7.21628595 C14.4104616,7.52929758 14.7593139,7.81586384 15.1294109,8.05267694 C16.0797075,8.66077114 16.7731633,8.58531964 17.6159178,7.82960946 C18.2415371,7.26857906 18.5382301,6.55051991 18.5744193,5.71472656 C18.6686285,3.53739074 17.4585607,1.75344855 15.2186386,0.762120533 C10.7831885,-1.20126175 4.61329331,0.768843933 1.74027972,5.06554491 C-1.24584349,9.53107794 -0.301114453,15.5468777 3.89917896,18.3394793 C7.18844181,20.5263773 10.6841444,20.3442478 14.2218967,18.9997172 C15.3384879,18.5753959 16.2892241,17.8594285 17.2307298,17.1038677 C18.4314206,20.004492 21.2058296,21.0291382 24.5139928,18.4817166 C25.3067858,19.9090197 25.8066951,20.1477752 27.1263562,19.8187768 C28.2121792,19.5478984 29.0122979,18.8029457 29.8856741,18.0445461 C29.9907254,19.5245907 30.3111538,19.9296382 31.2746367,19.9353157 C32.6622808,19.9435332 33.0653437,19.5779296 33.1645343,18.2369848 C33.3034306,16.3572715 33.7658321,14.5782598 34.8597135,13.0239591 C35.8119148,11.6710615 37.0848375,11.2985852 38.4941658,12.0136561 C39.1819074,12.3625259 39.8664257,12.5929144 40.6986312,12.549287 C40.2482439,14.4833852 39.7934612,16.3441235 39.6785934,18.2643266 C39.6117826,19.3819052 39.9628326,19.873311 40.8829471,19.917536 C42.1686167,19.9792419 42.7580467,19.5461055 42.82896,18.491727 C42.9570141,16.5822813 43.3795635,14.7554587 44.4516142,13.1505084 C45.4971455,11.5848526 46.8270626,11.2595894 48.4637823,12.1189894 C48.8897015,12.3425051 49.3088811,12.57887 49.8007321,12.5101419 C50.4152162,12.4242318 50.3949971,12.7635394 50.2934622,13.1906994 C50.009809,14.3840282 49.8917179,15.5821382 50.1500239,16.8002689 C50.5196814,18.5414801 51.5284375,19.5205566 53.2726992,19.8069735 C55.9240355,20.242351 58.1727485,19.0769616 59.1368175,16.4134492 C59.6066913,15.1152354 60.2295267,14.481144 61.5314594,14.4621691 C61.5603229,14.4618703 61.5891864,14.4691913 61.7211964,14.4863733 C61.668451,15.0332099 61.5875747,15.5068361 61.5831793,15.9812093 C61.5704325,17.3850553 61.818922,18.7089675 63.2092033,19.3934096 C64.7052684,20.1299955 66.2379624,20.104596 67.5933731,19.0805474 C68.8358207,18.1418113 69.3916988,16.80251 69.2177854,15.2138452 C69.1733914,14.8083495 69.0453372,14.29259 68.5561235,14.2809361 C67.8513861,14.2642023 67.3104525,14.6850872 66.9390369,15.2858603 C66.750179,15.5914015 66.5232272,15.8465919 66.905778,16.2773377 C67.4544768,16.8952929 67.0959545,17.6669899 66.2823564,17.8172952 C65.4567441,17.9696923 64.8844563,17.4419801 64.8281946,16.3680289 C64.7571348,15.007661 65.1297225,13.7104929 65.5031894,12.4207954 C66.1198712,10.2914198 66.1206038,10.277226 68.2900521,10.1956487 C69.1267996,10.1641234 69.6390162,9.76520168 69.9195925,8.98976952 C70.0924803,8.51210929 70.0095527,8.25542481 69.4440047,8.28620304" id="Fill-1" fill="#FE2B00" mask="url(#mask-2)"></path>
        </g>
    </g>
</svg>