<?xml version="1.0" encoding="utf-8"?>
<!-- Generator: Adobe Illustrator 25.3.1, SVG Export Plug-In . SVG Version: 6.00 Build 0)  -->
<svg version="1.1" id="레이어_1" xmlns="http://www.w3.org/2000/svg" xmlns:xlink="http://www.w3.org/1999/xlink" x="0px"
	 y="0px" viewBox="0 0 100 60" style="enable-background:new 0 0 100 60;" xml:space="preserve">
<style type="text/css">
	.st0{fill:#686D70;}
	.st1{fill:#626C71;}
	.st2{fill:#AACC03;}
	.st3{fill:url(#SVGID_1_);}
	.st4{fill:#888888;}
	.st5{fill:#231815;}
</style>
<g>
	<polygon class="st0" points="47.9,26.8 47.9,25.6 52.5,25.6 52.5,26.8 50.8,26.8 50.8,28.5 49.5,28.5 49.5,26.8 	"/>
	<path class="st0" d="M51.7,21.5c-0.4-0.4-0.9-0.6-1.5-0.6c-0.6,0-1.1,0.2-1.5,0.6c-0.4,0.4-0.6,0.9-0.6,1.5c0,0.6,0.2,1.1,0.6,1.5
		c0.4,0.4,0.9,0.6,1.5,0.6c0.6,0,1.1-0.2,1.5-0.6c0.4-0.4,0.6-0.9,0.6-1.5C52.3,22.4,52.1,21.9,51.7,21.5z M50.7,23.5
		c-0.2,0.2-0.4,0.3-0.6,0.3c-0.2,0-0.4-0.1-0.6-0.3c-0.2-0.2-0.2-0.4-0.2-0.6c0-0.2,0.1-0.4,0.2-0.6c0.2-0.2,0.4-0.3,0.6-0.3
		c0.2,0,0.4,0.1,0.6,0.3c0.2,0.2,0.3,0.4,0.3,0.6C51,23.2,50.9,23.4,50.7,23.5z"/>
	<polygon class="st0" points="51.2,32.5 51.2,29.2 52.5,29.2 52.5,31.3 55.3,31.3 55.3,32.5 	"/>
	<polygon class="st0" points="52.7,27.5 52.7,26.4 53.9,26.4 53.9,24 55.2,24 55.2,28.5 53.9,28.5 53.9,27.5 	"/>
	<g>
		<polygon class="st0" points="79.9,24.2 81.2,24.2 81.2,25.8 84.8,25.8 84.8,27 77.6,27 77.6,25.8 79.9,25.8 		"/>
		<polygon class="st0" points="83.3,21.3 83.3,24.7 82,24.7 82,22.6 79,22.6 79,21.3 		"/>
		<path class="st0" d="M82.7,28.5c-0.4-0.4-0.9-0.6-1.6-0.6c-0.6,0-1.1,0.2-1.6,0.6C79.2,28.9,79,29.4,79,30c0,0.6,0.2,1.1,0.6,1.5
			c0.4,0.4,0.9,0.6,1.6,0.6c0.6,0,1.1-0.2,1.6-0.6c0.4-0.4,0.6-0.9,0.6-1.5C83.4,29.4,83.2,28.9,82.7,28.5z M81.8,30.6
			c-0.2,0.2-0.4,0.3-0.6,0.3c-0.3,0-0.5-0.1-0.6-0.3c-0.2-0.2-0.3-0.4-0.3-0.6c0-0.3,0.1-0.5,0.3-0.6c0.2-0.2,0.4-0.3,0.6-0.3
			c0.3,0,0.5,0.1,0.6,0.3c0.2,0.2,0.3,0.4,0.3,0.6C82.1,30.2,82,30.4,81.8,30.6z"/>
	</g>
	<path class="st0" d="M90.7,24.1v1.2h-2.4v1.7h2.5v1.2H87v-4.2H90.7z M89.3,32.5v-3.3h1.3v2.1h2.7v1.2H89.3z M93.3,28.5h-1.3V24h1.3
		v1.7h1.3v1.2h-1.3V28.5z"/>
	<path class="st0" d="M43.5,29.7c-0.4-0.4-0.9-0.6-1.6-0.6c-0.6,0-1.1,0.2-1.6,0.6c-0.4,0.4-0.6,0.9-0.6,1.5c0,0.6,0.2,1.1,0.6,1.5
		c0.4,0.4,0.9,0.6,1.6,0.6c0.6,0,1.1-0.2,1.6-0.6c0.4-0.4,0.6-0.9,0.6-1.5C44.1,30.6,43.9,30.1,43.5,29.7z M42.5,31.8
		c-0.2,0.2-0.4,0.3-0.6,0.3c-0.3,0-0.5-0.1-0.6-0.3c-0.2-0.2-0.3-0.4-0.3-0.6c0-0.3,0.1-0.5,0.3-0.6c0.2-0.2,0.4-0.3,0.6-0.3
		c0.3,0,0.5,0.1,0.6,0.3c0.2,0.2,0.3,0.4,0.3,0.6C42.8,31.4,42.7,31.7,42.5,31.8z"/>
	<polygon class="st0" points="43.9,28.5 42.6,28.5 42.6,24 43.9,24 43.9,25.6 45.3,25.6 45.3,26.9 43.9,26.9 	"/>
	<path class="st0" d="M41.5,27.5l-1.6-2.3h1.4V24h-1.4v-1.2h-1.5V24H37v1.1h1.4l-1.6,2.4l1,0.7l0.9-1.3v-0.6c0-0.3,0.2-0.5,0.5-0.5
		c0.3,0,0.5,0.2,0.5,0.5v0.6l0.9,1.3L41.5,27.5z"/>
	<rect x="63.9" y="24" class="st0" width="1.3" height="4.5"/>
	<path class="st0" d="M57.6,27.5l1,0.8l1-1.4v-0.5c0-0.3,0.2-0.5,0.5-0.5c0.3,0,0.5,0.2,0.5,0.5v0.6l1,1.3l1-0.8l-2.5-3.4L57.6,27.5
		z"/>
	<polygon class="st0" points="75.1,29.2 75.1,32.7 72.4,32.7 72.4,33.7 75.1,33.7 75.1,35 71.1,35 71.1,31.5 73.8,31.5 73.8,30.4 
		71.1,30.4 71.1,29.2 	"/>
	<polygon class="st0" points="72.3,26.8 72.3,25.6 73.8,25.6 73.8,24 75.2,24 75.2,28.5 73.8,28.5 73.8,26.8 	"/>
	<path class="st0" d="M72.5,27.5L70,24.1l-2.5,3.4l1,0.8l1.1-1.4v-0.5c0-0.3,0.2-0.5,0.5-0.5c0.3,0,0.5,0.2,0.5,0.5v0.6l0.9,1.3
		L72.5,27.5z"/>
	<g>
		<path class="st1" d="M38.5,38.2l0.3,0.1c-0.1,0.2-0.2,0.4-0.3,0.5c-0.2,0.1-0.3,0.2-0.6,0.2c-0.2,0-0.4,0-0.6-0.1
			c-0.1-0.1-0.3-0.2-0.3-0.4c-0.1-0.2-0.1-0.4-0.1-0.6c0-0.2,0-0.4,0.1-0.6c0.1-0.2,0.2-0.3,0.4-0.4c0.2-0.1,0.3-0.1,0.5-0.1
			c0.2,0,0.4,0.1,0.5,0.2c0.1,0.1,0.2,0.3,0.3,0.5l-0.3,0.1c0-0.2-0.1-0.3-0.2-0.3C38.2,37,38.1,37,37.9,37c-0.2,0-0.3,0-0.4,0.1
			c-0.1,0.1-0.2,0.2-0.2,0.3c0,0.1-0.1,0.3-0.1,0.4c0,0.2,0,0.3,0.1,0.5c0.1,0.1,0.1,0.2,0.2,0.3c0.1,0.1,0.2,0.1,0.4,0.1
			c0.2,0,0.3,0,0.4-0.1C38.4,38.5,38.5,38.3,38.5,38.2z"/>
		<path class="st1" d="M39.4,38.9v-2.1h0.3v0.8c0.1-0.1,0.3-0.2,0.5-0.2c0.1,0,0.2,0,0.3,0.1c0.1,0,0.1,0.1,0.2,0.2
			c0,0.1,0.1,0.2,0.1,0.3v1h-0.3v-1c0-0.1,0-0.2-0.1-0.3c-0.1-0.1-0.1-0.1-0.2-0.1c-0.1,0-0.2,0-0.2,0.1c-0.1,0-0.1,0.1-0.1,0.2
			c0,0.1,0,0.2,0,0.3v0.8H39.4z"/>
		<path class="st1" d="M42.3,38.7c-0.1,0.1-0.2,0.1-0.3,0.2c-0.1,0-0.2,0.1-0.3,0.1c-0.2,0-0.3,0-0.4-0.1c-0.1-0.1-0.1-0.2-0.1-0.3
			c0-0.1,0-0.1,0.1-0.2c0-0.1,0.1-0.1,0.1-0.2c0.1,0,0.1-0.1,0.2-0.1c0.1,0,0.1,0,0.2,0c0.2,0,0.4-0.1,0.5-0.1c0,0,0-0.1,0-0.1
			c0-0.1,0-0.2-0.1-0.2c-0.1-0.1-0.2-0.1-0.3-0.1c-0.1,0-0.2,0-0.3,0.1c-0.1,0-0.1,0.1-0.1,0.2l-0.3,0c0-0.1,0.1-0.2,0.1-0.3
			c0.1-0.1,0.1-0.1,0.2-0.2c0.1,0,0.2-0.1,0.4-0.1c0.1,0,0.2,0,0.3,0c0.1,0,0.1,0.1,0.2,0.1c0,0,0.1,0.1,0.1,0.2c0,0,0,0.1,0,0.2
			v0.3c0,0.2,0,0.4,0,0.5c0,0.1,0,0.1,0.1,0.2h-0.3C42.3,38.9,42.3,38.8,42.3,38.7z M42.3,38.1c-0.1,0-0.2,0.1-0.4,0.1
			c-0.1,0-0.2,0-0.2,0.1c0,0-0.1,0-0.1,0.1c0,0,0,0.1,0,0.1c0,0.1,0,0.1,0.1,0.2c0.1,0,0.1,0.1,0.2,0.1c0.1,0,0.2,0,0.3-0.1
			c0.1,0,0.1-0.1,0.2-0.2C42.3,38.4,42.3,38.3,42.3,38.1L42.3,38.1z"/>
		<path class="st1" d="M43.2,38.9v-1.5h0.2v0.2c0.1-0.2,0.3-0.3,0.5-0.3c0.1,0,0.2,0,0.3,0.1c0.1,0,0.1,0.1,0.2,0.1
			c0,0.1,0.1,0.1,0.1,0.2c0,0,0,0.1,0,0.3v0.9h-0.3V38c0-0.1,0-0.2,0-0.2c0-0.1-0.1-0.1-0.1-0.1c-0.1,0-0.1,0-0.2,0
			c-0.1,0-0.2,0-0.3,0.1c-0.1,0.1-0.1,0.2-0.1,0.4v0.8H43.2z"/>
		<path class="st1" d="M45.1,39l0.3,0c0,0.1,0,0.1,0.1,0.2c0.1,0,0.2,0.1,0.3,0.1c0.1,0,0.2,0,0.3-0.1c0.1,0,0.1-0.1,0.1-0.2
			c0-0.1,0-0.2,0-0.3c-0.1,0.1-0.3,0.2-0.4,0.2c-0.2,0-0.4-0.1-0.5-0.2c-0.1-0.2-0.2-0.3-0.2-0.6c0-0.1,0-0.3,0.1-0.4
			c0.1-0.1,0.1-0.2,0.2-0.3c0.1-0.1,0.2-0.1,0.4-0.1c0.2,0,0.3,0.1,0.5,0.2v-0.2h0.2v1.3c0,0.2,0,0.4-0.1,0.5c0,0.1-0.1,0.2-0.2,0.2
			c-0.1,0.1-0.2,0.1-0.4,0.1c-0.2,0-0.3,0-0.4-0.1C45.1,39.3,45.1,39.2,45.1,39z M45.3,38.1c0,0.2,0,0.4,0.1,0.4
			c0.1,0.1,0.2,0.1,0.3,0.1c0.1,0,0.2,0,0.3-0.1c0.1-0.1,0.1-0.2,0.1-0.4c0-0.2,0-0.3-0.1-0.4c-0.1-0.1-0.2-0.1-0.3-0.1
			c-0.1,0-0.2,0-0.3,0.1C45.3,37.8,45.3,37.9,45.3,38.1z"/>
		<path class="st1" d="M47.3,38.9l-0.5-1.5h0.3l0.2,0.9l0.1,0.3c0,0,0-0.1,0.1-0.3l0.2-0.9H48l0.2,0.9l0.1,0.3l0.1-0.3l0.3-0.9h0.3
			l-0.5,1.5h-0.3L47.9,38l-0.1-0.3l-0.3,1.2H47.3z"/>
		<path class="st1" d="M49.3,38.1c0-0.3,0.1-0.5,0.2-0.6c0.1-0.1,0.3-0.2,0.5-0.2c0.2,0,0.4,0.1,0.5,0.2c0.1,0.1,0.2,0.3,0.2,0.6
			c0,0.2,0,0.4-0.1,0.5c-0.1,0.1-0.1,0.2-0.3,0.3c-0.1,0.1-0.2,0.1-0.4,0.1c-0.2,0-0.4-0.1-0.5-0.2C49.4,38.6,49.3,38.4,49.3,38.1z
			 M49.6,38.1c0,0.2,0,0.3,0.1,0.4c0.1,0.1,0.2,0.1,0.3,0.1c0.1,0,0.2,0,0.3-0.1c0.1-0.1,0.1-0.2,0.1-0.5c0-0.2,0-0.3-0.1-0.4
			c-0.1-0.1-0.2-0.1-0.3-0.1c-0.1,0-0.2,0-0.3,0.1C49.6,37.8,49.6,37.9,49.6,38.1z"/>
		<path class="st1" d="M51.3,38.9v-1.5h0.2v0.2c0.1-0.2,0.3-0.3,0.5-0.3c0.1,0,0.2,0,0.3,0.1c0.1,0,0.1,0.1,0.2,0.1
			c0,0.1,0.1,0.1,0.1,0.2c0,0,0,0.1,0,0.3v0.9h-0.3V38c0-0.1,0-0.2,0-0.2c0-0.1-0.1-0.1-0.1-0.1c-0.1,0-0.1,0-0.2,0
			c-0.1,0-0.2,0-0.3,0.1c-0.1,0.1-0.1,0.2-0.1,0.4v0.8H51.3z"/>
		<path class="st1" d="M54.4,38.9v-2.1h0.3v2.1H54.4z"/>
		<path class="st1" d="M55.4,38.9v-1.5h0.2v0.2c0.1-0.2,0.3-0.3,0.5-0.3c0.1,0,0.2,0,0.3,0.1c0.1,0,0.1,0.1,0.2,0.1
			c0,0.1,0.1,0.1,0.1,0.2c0,0,0,0.1,0,0.3v0.9h-0.3V38c0-0.1,0-0.2,0-0.2c0-0.1-0.1-0.1-0.1-0.1c-0.1,0-0.1,0-0.2,0
			c-0.1,0-0.2,0-0.3,0.1c-0.1,0.1-0.1,0.2-0.1,0.4v0.8H55.4z"/>
		<path class="st1" d="M57.4,38.9v-1.3h-0.2v-0.2h0.2v-0.2c0-0.1,0-0.2,0-0.2c0-0.1,0.1-0.1,0.1-0.2c0.1,0,0.2-0.1,0.3-0.1
			c0.1,0,0.2,0,0.2,0l0,0.2c-0.1,0-0.1,0-0.2,0c-0.1,0-0.1,0-0.2,0.1c0,0,0,0.1,0,0.2v0.1h0.3v0.2h-0.3v1.3H57.4z"/>
		<path class="st1" d="M58.4,38.9v-1.5h0.2v0.2c0.1-0.1,0.1-0.2,0.2-0.2c0.1,0,0.1-0.1,0.2-0.1c0.1,0,0.2,0,0.3,0.1l-0.1,0.2
			c-0.1,0-0.1-0.1-0.2-0.1c-0.1,0-0.1,0-0.2,0.1c0,0-0.1,0.1-0.1,0.1c0,0.1,0,0.2,0,0.3v0.8H58.4z"/>
		<path class="st1" d="M60.6,38.7c-0.1,0.1-0.2,0.1-0.3,0.2c-0.1,0-0.2,0.1-0.3,0.1c-0.2,0-0.3,0-0.4-0.1c-0.1-0.1-0.1-0.2-0.1-0.3
			c0-0.1,0-0.1,0.1-0.2c0-0.1,0.1-0.1,0.1-0.2c0.1,0,0.1-0.1,0.2-0.1c0.1,0,0.1,0,0.2,0c0.2,0,0.4-0.1,0.5-0.1c0,0,0-0.1,0-0.1
			c0-0.1,0-0.2-0.1-0.2c-0.1-0.1-0.2-0.1-0.3-0.1c-0.1,0-0.2,0-0.3,0.1c-0.1,0-0.1,0.1-0.1,0.2l-0.3,0c0-0.1,0.1-0.2,0.1-0.3
			s0.1-0.1,0.2-0.2c0.1,0,0.2-0.1,0.4-0.1c0.1,0,0.2,0,0.3,0c0.1,0,0.1,0.1,0.2,0.1c0,0,0.1,0.1,0.1,0.2c0,0,0,0.1,0,0.2v0.3
			c0,0.2,0,0.4,0,0.5c0,0.1,0,0.1,0.1,0.2h-0.3C60.7,38.9,60.6,38.8,60.6,38.7z M60.6,38.1c-0.1,0-0.2,0.1-0.4,0.1
			c-0.1,0-0.2,0-0.2,0.1c0,0-0.1,0-0.1,0.1c0,0,0,0.1,0,0.1c0,0.1,0,0.1,0.1,0.2s0.1,0.1,0.2,0.1c0.1,0,0.2,0,0.3-0.1
			c0.1,0,0.1-0.1,0.2-0.2C60.6,38.4,60.6,38.3,60.6,38.1L60.6,38.1z"/>
		<path class="st1" d="M61.4,38.4l0.3,0c0,0.1,0.1,0.2,0.1,0.2c0.1,0.1,0.2,0.1,0.3,0.1c0.1,0,0.2,0,0.3-0.1c0.1,0,0.1-0.1,0.1-0.2
			c0-0.1,0-0.1-0.1-0.1c0,0-0.1-0.1-0.3-0.1c-0.2,0-0.3-0.1-0.4-0.1c-0.1,0-0.1-0.1-0.2-0.1c0-0.1-0.1-0.1-0.1-0.2
			c0-0.1,0-0.1,0-0.2s0.1-0.1,0.1-0.1c0,0,0.1-0.1,0.2-0.1c0.1,0,0.1,0,0.2,0c0.1,0,0.2,0,0.3,0.1c0.1,0,0.2,0.1,0.2,0.1
			c0,0.1,0.1,0.1,0.1,0.2l-0.3,0c0-0.1,0-0.1-0.1-0.2c-0.1,0-0.1-0.1-0.2-0.1c-0.1,0-0.2,0-0.3,0.1c-0.1,0-0.1,0.1-0.1,0.1
			c0,0,0,0.1,0,0.1c0,0,0.1,0.1,0.1,0.1c0,0,0.1,0,0.2,0.1c0.2,0,0.3,0.1,0.4,0.1c0.1,0,0.1,0.1,0.2,0.1c0,0.1,0.1,0.1,0.1,0.2
			c0,0.1,0,0.2-0.1,0.2c-0.1,0.1-0.1,0.1-0.2,0.2c-0.1,0-0.2,0.1-0.3,0.1c-0.2,0-0.4,0-0.5-0.1C61.5,38.7,61.5,38.6,61.4,38.4z"/>
		<path class="st1" d="M63.9,38.7l0,0.2c-0.1,0-0.1,0-0.2,0c-0.1,0-0.2,0-0.2,0c-0.1,0-0.1-0.1-0.1-0.1c0,0,0-0.2,0-0.3v-0.9h-0.2
			v-0.2h0.2V37l0.3-0.2v0.5h0.3v0.2h-0.3v0.9c0,0.1,0,0.1,0,0.1c0,0,0,0,0,0.1c0,0,0.1,0,0.1,0C63.8,38.7,63.8,38.7,63.9,38.7z"/>
		<path class="st1" d="M64.4,38.9v-1.5h0.2v0.2c0.1-0.1,0.1-0.2,0.2-0.2c0.1,0,0.1-0.1,0.2-0.1c0.1,0,0.2,0,0.3,0.1l-0.1,0.2
			c-0.1,0-0.1-0.1-0.2-0.1c-0.1,0-0.1,0-0.2,0.1c0,0-0.1,0.1-0.1,0.1c0,0.1,0,0.2,0,0.3v0.8H64.4z"/>
		<path class="st1" d="M66.6,38.9v-0.2c-0.1,0.2-0.3,0.3-0.5,0.3c-0.1,0-0.2,0-0.3-0.1c-0.1,0-0.1-0.1-0.2-0.1
			c0-0.1-0.1-0.1-0.1-0.2c0-0.1,0-0.1,0-0.2v-1h0.3v0.9c0,0.1,0,0.2,0,0.3c0,0.1,0.1,0.1,0.1,0.2c0.1,0,0.1,0.1,0.2,0.1
			c0.1,0,0.2,0,0.2-0.1c0.1,0,0.1-0.1,0.1-0.2c0-0.1,0-0.2,0-0.3v-0.8h0.3v1.5H66.6z"/>
		<path class="st1" d="M68.5,38.3l0.3,0c0,0.2-0.1,0.3-0.2,0.4c-0.1,0.1-0.3,0.2-0.4,0.2c-0.2,0-0.4-0.1-0.5-0.2
			c-0.1-0.1-0.2-0.3-0.2-0.6c0-0.2,0-0.3,0.1-0.4c0.1-0.1,0.1-0.2,0.3-0.3c0.1-0.1,0.2-0.1,0.4-0.1c0.2,0,0.3,0,0.4,0.1
			c0.1,0.1,0.2,0.2,0.2,0.4l-0.3,0c0-0.1-0.1-0.2-0.1-0.2c-0.1-0.1-0.1-0.1-0.2-0.1c-0.1,0-0.2,0-0.3,0.1c-0.1,0.1-0.1,0.2-0.1,0.4
			c0,0.2,0,0.4,0.1,0.5c0.1,0.1,0.2,0.1,0.3,0.1c0.1,0,0.2,0,0.3-0.1C68.5,38.6,68.5,38.5,68.5,38.3z"/>
		<path class="st1" d="M69.8,38.7l0,0.2c-0.1,0-0.1,0-0.2,0c-0.1,0-0.2,0-0.2,0c-0.1,0-0.1-0.1-0.1-0.1c0,0,0-0.2,0-0.3v-0.9h-0.2
			v-0.2h0.2V37l0.3-0.2v0.5h0.3v0.2h-0.3v0.9c0,0.1,0,0.1,0,0.1c0,0,0,0,0,0.1c0,0,0.1,0,0.1,0C69.7,38.7,69.8,38.7,69.8,38.7z"/>
		<path class="st1" d="M71.3,38.9v-0.2c-0.1,0.2-0.3,0.3-0.5,0.3c-0.1,0-0.2,0-0.3-0.1c-0.1,0-0.1-0.1-0.2-0.1
			c0-0.1-0.1-0.1-0.1-0.2c0-0.1,0-0.1,0-0.2v-1h0.3v0.9c0,0.1,0,0.2,0,0.3c0,0.1,0.1,0.1,0.1,0.2c0.1,0,0.1,0.1,0.2,0.1
			c0.1,0,0.2,0,0.2-0.1c0.1,0,0.1-0.1,0.1-0.2c0-0.1,0-0.2,0-0.3v-0.8h0.3v1.5H71.3z"/>
		<path class="st1" d="M72.2,38.9v-1.5h0.2v0.2c0.1-0.1,0.1-0.2,0.2-0.2c0.1,0,0.1-0.1,0.2-0.1c0.1,0,0.2,0,0.3,0.1L73,37.7
			c-0.1,0-0.1-0.1-0.2-0.1c-0.1,0-0.1,0-0.2,0.1c0,0-0.1,0.1-0.1,0.1c0,0.1,0,0.2,0,0.3v0.8H72.2z"/>
		<path class="st1" d="M74.5,38.4l0.3,0c0,0.2-0.1,0.3-0.2,0.4c-0.1,0.1-0.3,0.1-0.4,0.1c-0.2,0-0.4-0.1-0.5-0.2
			c-0.1-0.1-0.2-0.3-0.2-0.6c0-0.3,0.1-0.5,0.2-0.6c0.1-0.1,0.3-0.2,0.5-0.2c0.2,0,0.4,0.1,0.5,0.2c0.1,0.1,0.2,0.3,0.2,0.6
			c0,0,0,0,0,0.1h-1.2c0,0.2,0.1,0.3,0.1,0.4c0.1,0.1,0.2,0.1,0.3,0.1c0.1,0,0.2,0,0.2-0.1C74.5,38.6,74.5,38.5,74.5,38.4z M73.7,38
			h0.9c0-0.1,0-0.2-0.1-0.3c-0.1-0.1-0.2-0.2-0.3-0.2c-0.1,0-0.2,0-0.3,0.1C73.7,37.7,73.7,37.9,73.7,38z"/>
		<path class="st1" d="M78,38.2l0.3,0.1c-0.1,0.2-0.2,0.4-0.3,0.5c-0.2,0.1-0.3,0.2-0.6,0.2c-0.2,0-0.4,0-0.6-0.1
			c-0.1-0.1-0.3-0.2-0.3-0.4c-0.1-0.2-0.1-0.4-0.1-0.6c0-0.2,0-0.4,0.1-0.6c0.1-0.2,0.2-0.3,0.4-0.4c0.2-0.1,0.3-0.1,0.5-0.1
			c0.2,0,0.4,0.1,0.5,0.2c0.1,0.1,0.2,0.3,0.3,0.5L78,37.4c0-0.2-0.1-0.3-0.2-0.3C77.7,37,77.6,37,77.4,37c-0.2,0-0.3,0-0.4,0.1
			c-0.1,0.1-0.2,0.2-0.2,0.3c0,0.1-0.1,0.3-0.1,0.4c0,0.2,0,0.3,0.1,0.5c0.1,0.1,0.1,0.2,0.2,0.3c0.1,0.1,0.2,0.1,0.4,0.1
			c0.2,0,0.3,0,0.4-0.1C77.9,38.5,78,38.3,78,38.2z"/>
		<path class="st1" d="M78.8,38.1c0-0.3,0.1-0.5,0.2-0.6c0.1-0.1,0.3-0.2,0.5-0.2c0.2,0,0.4,0.1,0.5,0.2c0.1,0.1,0.2,0.3,0.2,0.6
			c0,0.2,0,0.4-0.1,0.5c-0.1,0.1-0.1,0.2-0.3,0.3c-0.1,0.1-0.2,0.1-0.4,0.1c-0.2,0-0.4-0.1-0.5-0.2C78.9,38.6,78.8,38.4,78.8,38.1z
			 M79.1,38.1c0,0.2,0,0.3,0.1,0.4c0.1,0.1,0.2,0.1,0.3,0.1c0.1,0,0.2,0,0.3-0.1c0.1-0.1,0.1-0.2,0.1-0.5c0-0.2,0-0.3-0.1-0.4
			c-0.1-0.1-0.2-0.1-0.3-0.1c-0.1,0-0.2,0-0.3,0.1C79.1,37.8,79.1,37.9,79.1,38.1z"/>
		<path class="st1" d="M80.8,38.9v-1.5H81v0.2c0.1-0.1,0.1-0.2,0.2-0.2c0.1,0,0.1-0.1,0.2-0.1c0.1,0,0.2,0,0.3,0.1l-0.1,0.2
			c-0.1,0-0.1-0.1-0.2-0.1c-0.1,0-0.1,0-0.2,0.1c0,0-0.1,0.1-0.1,0.1c0,0.1,0,0.2,0,0.3v0.8H80.8z"/>
		<path class="st1" d="M82,39.5v-2.1h0.2v0.2c0.1-0.1,0.1-0.1,0.2-0.2c0.1,0,0.2-0.1,0.3-0.1c0.1,0,0.2,0,0.3,0.1
			c0.1,0.1,0.2,0.2,0.2,0.3c0.1,0.1,0.1,0.3,0.1,0.4c0,0.2,0,0.3-0.1,0.4c-0.1,0.1-0.1,0.2-0.2,0.3c-0.1,0.1-0.2,0.1-0.3,0.1
			c-0.1,0-0.2,0-0.2-0.1c-0.1,0-0.1-0.1-0.2-0.1v0.8H82z M82.3,38.1c0,0.2,0,0.3,0.1,0.4c0.1,0.1,0.2,0.1,0.3,0.1
			c0.1,0,0.2,0,0.3-0.1c0.1-0.1,0.1-0.3,0.1-0.5c0-0.2,0-0.3-0.1-0.4c-0.1-0.1-0.2-0.1-0.3-0.1c-0.1,0-0.2,0.1-0.3,0.2
			C82.3,37.8,82.3,37.9,82.3,38.1z"/>
		<path class="st1" d="M83.8,38.1c0-0.3,0.1-0.5,0.2-0.6c0.1-0.1,0.3-0.2,0.5-0.2c0.2,0,0.4,0.1,0.5,0.2c0.1,0.1,0.2,0.3,0.2,0.6
			c0,0.2,0,0.4-0.1,0.5c-0.1,0.1-0.1,0.2-0.3,0.3c-0.1,0.1-0.2,0.1-0.4,0.1c-0.2,0-0.4-0.1-0.5-0.2C83.9,38.6,83.8,38.4,83.8,38.1z
			 M84.1,38.1c0,0.2,0,0.3,0.1,0.4c0.1,0.1,0.2,0.1,0.3,0.1c0.1,0,0.2,0,0.3-0.1c0.1-0.1,0.1-0.2,0.1-0.5c0-0.2,0-0.3-0.1-0.4
			c-0.1-0.1-0.2-0.1-0.3-0.1c-0.1,0-0.2,0-0.3,0.1C84.2,37.8,84.1,37.9,84.1,38.1z"/>
		<path class="st1" d="M85.9,38.9v-1.5h0.2v0.2c0.1-0.1,0.1-0.2,0.2-0.2c0.1,0,0.1-0.1,0.2-0.1c0.1,0,0.2,0,0.3,0.1l-0.1,0.2
			c-0.1,0-0.1-0.1-0.2-0.1c-0.1,0-0.1,0-0.2,0.1c0,0-0.1,0.1-0.1,0.1c0,0.1,0,0.2,0,0.3v0.8H85.9z"/>
		<path class="st1" d="M88.1,38.7c-0.1,0.1-0.2,0.1-0.3,0.2c-0.1,0-0.2,0.1-0.3,0.1c-0.2,0-0.3,0-0.4-0.1c-0.1-0.1-0.1-0.2-0.1-0.3
			c0-0.1,0-0.1,0.1-0.2c0-0.1,0.1-0.1,0.1-0.2c0.1,0,0.1-0.1,0.2-0.1c0.1,0,0.1,0,0.2,0c0.2,0,0.4-0.1,0.5-0.1c0,0,0-0.1,0-0.1
			c0-0.1,0-0.2-0.1-0.2c-0.1-0.1-0.2-0.1-0.3-0.1c-0.1,0-0.2,0-0.3,0.1c-0.1,0-0.1,0.1-0.1,0.2l-0.3,0c0-0.1,0.1-0.2,0.1-0.3
			c0.1-0.1,0.1-0.1,0.2-0.2c0.1,0,0.2-0.1,0.4-0.1c0.1,0,0.2,0,0.3,0c0.1,0,0.1,0.1,0.2,0.1c0,0,0.1,0.1,0.1,0.2c0,0,0,0.1,0,0.2
			v0.3c0,0.2,0,0.4,0,0.5c0,0.1,0,0.1,0.1,0.2h-0.3C88.1,38.9,88.1,38.8,88.1,38.7z M88.1,38.1c-0.1,0-0.2,0.1-0.4,0.1
			c-0.1,0-0.2,0-0.2,0.1c0,0-0.1,0-0.1,0.1c0,0,0,0.1,0,0.1c0,0.1,0,0.1,0.1,0.2c0.1,0,0.1,0.1,0.2,0.1c0.1,0,0.2,0,0.3-0.1
			c0.1,0,0.1-0.1,0.2-0.2C88.1,38.4,88.1,38.3,88.1,38.1L88.1,38.1z"/>
		<path class="st1" d="M89.6,38.7l0,0.2c-0.1,0-0.1,0-0.2,0c-0.1,0-0.2,0-0.2,0c-0.1,0-0.1-0.1-0.1-0.1c0,0,0-0.2,0-0.3v-0.9h-0.2
			v-0.2h0.2V37l0.3-0.2v0.5h0.3v0.2h-0.3v0.9c0,0.1,0,0.1,0,0.1c0,0,0,0,0,0.1c0,0,0.1,0,0.1,0C89.5,38.7,89.5,38.7,89.6,38.7z"/>
		<path class="st1" d="M90.1,37.1v-0.3h0.3v0.3H90.1z M90.1,38.9v-1.5h0.3v1.5H90.1z"/>
		<path class="st1" d="M90.9,38.1c0-0.3,0.1-0.5,0.2-0.6c0.1-0.1,0.3-0.2,0.5-0.2c0.2,0,0.4,0.1,0.5,0.2c0.1,0.1,0.2,0.3,0.2,0.6
			c0,0.2,0,0.4-0.1,0.5c-0.1,0.1-0.1,0.2-0.3,0.3c-0.1,0.1-0.2,0.1-0.4,0.1c-0.2,0-0.4-0.1-0.5-0.2C91,38.6,90.9,38.4,90.9,38.1z
			 M91.2,38.1c0,0.2,0,0.3,0.1,0.4c0.1,0.1,0.2,0.1,0.3,0.1c0.1,0,0.2,0,0.3-0.1c0.1-0.1,0.1-0.2,0.1-0.5c0-0.2,0-0.3-0.1-0.4
			c-0.1-0.1-0.2-0.1-0.3-0.1c-0.1,0-0.2,0-0.3,0.1C91.2,37.8,91.2,37.9,91.2,38.1z"/>
		<path class="st1" d="M92.9,38.9v-1.5h0.2v0.2c0.1-0.2,0.3-0.3,0.5-0.3c0.1,0,0.2,0,0.3,0.1c0.1,0,0.1,0.1,0.2,0.1
			c0,0.1,0.1,0.1,0.1,0.2c0,0,0,0.1,0,0.3v0.9h-0.3V38c0-0.1,0-0.2,0-0.2c0-0.1-0.1-0.1-0.1-0.1c-0.1,0-0.1,0-0.2,0
			c-0.1,0-0.2,0-0.3,0.1c-0.1,0.1-0.1,0.2-0.1,0.4v0.8H92.9z"/>
	</g>
	<g>
		<g>
			<path class="st2" d="M27.1,28.2c0.7-1.9-3.7-4.3-10-5.6v-3.2c0.8,0.2,1.7,0.3,2.5,0.5c7.2,1.8,11.9,5.5,10.6,8
				c-1,1.9-5,2.6-9.9,2.2C23.9,30.1,26.6,29.4,27.1,28.2z"/>
			
				<linearGradient id="SVGID_1_" gradientUnits="userSpaceOnUse" x1="304.0359" y1="-1111.6038" x2="321.9489" y2="-1089.1246" gradientTransform="matrix(0.726 0 0 0.726 -214.8924 826.537)">
				<stop  offset="0" style="stop-color:#009FE8"/>
				<stop  offset="1" style="stop-color:#005BAB"/>
			</linearGradient>
			<path class="st3" d="M8.7,25.1c-0.7,2.5,3.7,5.2,10,6.9v4.3c-0.8-0.2-1.7-0.4-2.5-0.7C9,33.3,4.3,28.7,5.6,25.4
				c1-2.4,5-3.5,9.9-2.9C11.9,22.6,9.2,23.5,8.7,25.1z"/>
		</g>
		<g>
			<path class="st4" d="M20.7,38.5L20.7,38.5l0-0.1L20.7,38.5L20.7,38.5z M21,38.1L21,38.1L21,38.1L21,38.1L21,38.1z M20.7,38.2
				c0-0.2,0-0.3,0-0.4c0-0.1-0.1-0.1-0.1-0.1c-0.1,0-0.1,0-0.2,0c0,0-0.1,0-0.2,0c-0.1,0-0.2,0-0.2,0c0,0,0,0-0.1-0.1
				c0-0.1-0.1-0.1-0.1-0.1c0,0,0.1-0.1,0.2-0.1c0.1,0,0.1-0.1,0.1-0.1c0,0,0.1,0,0.2,0c0.1,0,0.2,0,0.2,0c0,0,0.1,0,0.1,0
				c0,0,0.1,0,0.1,0c0-0.1,0-0.2,0-0.3c0-0.1,0-0.3-0.1-0.4c0,0,0.1,0,0.1-0.1c0.1,0,0.1-0.1,0.1-0.1c0,0,0.1,0.1,0.2,0.2
				c0.1,0.1,0.1,0.2,0.2,0.2c0,0,0,0.1,0,0.2c0,0.1,0,0.1,0,0.2c0,0,0,0,0,0c0,0,0,0,0,0c0,0,0,0,0,0c0,0,0,0,0,0v0.1c0,0,0,0,0,0
				l0,0c0,0,0,0,0.1,0c0,0,0,0,0.1,0c0.1,0,0.1,0,0.2,0c0,0,0.2,0,0.4,0c0,0,0.1,0,0.2,0c0.1,0,0.1,0,0.2,0.1c0,0-0.1,0-0.2,0.1
				c-0.1,0-0.1,0.1-0.1,0.1c0,0,0,0,0,0c0,0,0,0,0,0c0,0-0.1,0-0.2,0c-0.1,0-0.2,0-0.3,0.1c0,0,0,0-0.1,0c0,0,0,0-0.1,0
				c0,0,0,0.1,0,0.1c0,0.1,0,0.1,0,0.1v0c0,0,0,0,0,0c0,0,0,0,0,0c0,0,0,0.1,0,0.1c0,0,0,0.1-0.1,0.1l0,0c0,0,0,0,0,0c0,0,0,0,0,0
				c0,0-0.1,0-0.1,0.1c0,0.1,0,0.1,0,0.2c0,0,0,0-0.1,0c0,0-0.1,0-0.1,0c0,0,0,0,0,0c0,0,0,0,0,0C20.8,38.4,20.7,38.3,20.7,38.2
				 M20.8,38.5C20.8,38.5,20.8,38.5,20.8,38.5C20.8,38.5,20.8,38.5,20.8,38.5C20.8,38.5,20.8,38.5,20.8,38.5
				C20.8,38.5,20.8,38.5,20.8,38.5"/>
			<g>
				<path class="st5" d="M27.2,32.9c-0.1,0-0.1,0-0.2,0c-0.1,0-0.2,0-0.2,0c0,0-0.1,0-0.1,0.1c0,0-0.1,0-0.1,0c-0.1,0-0.1,0-0.2,0
					c0-0.1,0-0.1,0-0.2c0-0.1,0-0.1,0-0.2c0-0.1,0-0.2,0.1-0.4c0-0.2,0-0.3,0-0.3c0-0.1-0.1-0.2-0.2-0.3c-0.1-0.1-0.2-0.2-0.4-0.1
					c0,0,0,0-0.1,0c0,0,0,0,0,0.1c0,0,0,0.1,0,0.2c0,0.1,0,0.1,0.1,0.2c0,0,0,0.1,0,0.2c0,0.1,0,0.2,0,0.2c0,0.2,0,0.4,0,0.5
					c0,0.1,0,0.3,0.1,0.4c0.1,0,0.2,0.1,0.2,0.1c0,0,0.1,0,0.2,0c0,0,0,0,0,0c0,0,0,0,0,0c0,0,0,0,0,0c0,0,0,0,0,0c0,0,0,0,0,0
					c0,0,0,0,0,0c0,0,0.1,0,0.1,0c0,0,0,0,0.1,0c0,0,0,0.1-0.1,0.2c-0.1,0.1-0.1,0.1-0.1,0.2c0,0,0,0.1,0,0.1c0,0,0,0,0,0.1
					c0,0,0,0,0,0c0,0,0,0,0,0c0,0,0,0.1-0.1,0.1c0,0.1-0.1,0.1-0.1,0.1c0,0,0,0,0,0c0,0,0,0,0,0c0,0-0.1,0.1-0.1,0.1
					c0,0-0.1,0.1-0.1,0.1c0,0-0.1,0.1-0.2,0.2c-0.1,0.1-0.1,0.2-0.2,0.2c0,0-0.1,0.1-0.2,0.2c-0.1,0.1-0.2,0.2-0.2,0.4
					c0,0,0,0.1,0,0.1c0,0,0,0.1,0.1,0.2c0,0,0.1,0,0.2,0c0.1,0,0.1,0,0.2,0c0.1,0,0.3-0.1,0.7-0.2c0.3-0.2,0.5-0.3,0.5-0.5
					c0-0.1,0-0.2-0.1-0.3c-0.1-0.1-0.2-0.2-0.2-0.2c0,0,0,0,0,0c0,0,0,0,0,0c0,0-0.1,0-0.1,0c-0.1,0-0.1,0-0.1,0c0,0,0,0,0,0
					c0,0,0-0.1,0-0.1c0,0,0.1-0.1,0.1-0.2c0-0.1,0.1-0.2,0.2-0.2c0.1-0.1,0.2-0.2,0.3-0.3c0.1-0.1,0.2-0.2,0.2-0.3
					c0.1,0,0.1-0.1,0.1-0.1c0-0.1,0-0.1,0-0.1C27.3,33,27.3,32.9,27.2,32.9z M26,34.5C26,34.5,26,34.5,26,34.5
					C26,34.5,26,34.6,26,34.5C26,34.6,26,34.6,26,34.5C26,34.5,26,34.5,26,34.5z M26,34.7C26,34.7,26,34.7,26,34.7
					C26,34.7,26,34.7,26,34.7C26,34.7,25.9,34.7,26,34.7C25.9,34.7,26,34.7,26,34.7z M26.3,34.8c0,0,0,0.1,0,0.1
					c0,0.1,0,0.2-0.1,0.2c-0.1,0.1-0.2,0.1-0.2,0.1l-0.2,0c0-0.1,0.1-0.2,0.2-0.3c0.1-0.1,0.1-0.2,0.2-0.3
					C26.2,34.7,26.3,34.7,26.3,34.8z M26.7,33.6C26.6,33.7,26.6,33.7,26.7,33.6C26.6,33.7,26.6,33.7,26.7,33.6
					C26.6,33.7,26.6,33.7,26.7,33.6c0,0.1,0,0.1-0.1,0.2c-0.1,0.1-0.1,0.1-0.1,0.2c0,0,0,0,0,0c0,0,0,0,0,0c0,0,0,0,0,0c0,0,0,0,0,0
					c0,0,0,0,0,0.1c0,0,0,0,0,0c0,0,0,0,0,0c0,0,0,0,0,0.1c0,0,0,0-0.1,0c0,0,0,0-0.1,0c0,0,0,0,0,0l0,0c0,0,0,0-0.1,0
					c0,0-0.1,0-0.1,0c0,0,0,0.1,0,0.1c0,0,0,0.1,0,0.1c0,0,0,0,0,0h0l0-0.2l0,0c0,0,0,0,0,0c0,0,0,0,0,0c0,0,0,0,0-0.1
					c0,0,0,0,0-0.1c0,0,0,0,0,0c0,0,0,0,0,0c0,0,0,0,0,0c0,0,0,0,0,0c0,0,0,0,0,0c0,0,0,0,0,0c0,0,0.1,0,0.1-0.1c0,0,0-0.1,0-0.1
					c0,0,0.1-0.1,0.1-0.1c0,0,0.1-0.1,0.1-0.1c0,0,0-0.1,0.1-0.1C26.6,33.6,26.6,33.6,26.7,33.6L26.7,33.6
					C26.6,33.6,26.6,33.6,26.7,33.6C26.6,33.6,26.6,33.6,26.7,33.6C26.7,33.6,26.7,33.6,26.7,33.6C26.7,33.6,26.7,33.6,26.7,33.6z
					 M26.7,33.5C26.7,33.5,26.7,33.5,26.7,33.5C26.7,33.5,26.7,33.5,26.7,33.5C26.7,33.4,26.8,33.4,26.7,33.5
					C26.7,33.5,26.7,33.5,26.7,33.5z M25.3,33.5c0-0.1,0-0.1,0-0.1c0,0,0,0,0,0c0,0,0,0,0-0.1c0,0,0,0,0-0.1c0,0,0,0,0-0.1
					c0,0,0,0,0,0c0,0,0,0,0-0.1c0,0,0,0,0,0c0,0,0,0,0,0c0,0,0-0.1,0-0.1c0,0,0,0,0.1,0l-0.1-0.2c0-0.2-0.1-0.3-0.2-0.4
					c-0.1-0.1-0.3-0.1-0.4-0.1c0,0-0.1,0-0.2,0c-0.1,0-0.1,0-0.1,0c0,0-0.1,0-0.3,0.1c-0.2,0-0.3,0.1-0.4,0.1c0,0,0,0,0,0.1
					c0,0,0,0,0,0.1c0,0.1,0.1,0.1,0.2,0.2c0.1,0.1,0.2,0.1,0.2,0.1c0,0,0,0,0.1,0c0,0,0.1,0,0.1,0c0,0,0.1,0,0.2-0.1
					c0.1-0.1,0.2-0.1,0.2-0.1c0.1,0,0.2,0,0.2,0c0,0,0,0.1,0,0.2c0,0,0,0.1,0,0.2c0,0.1,0,0.3,0,0.4c0,0,0,0.1,0,0.1
					c0,0.1,0,0.1,0,0.2c0,0,0,0,0.1,0c0,0,0.1,0,0.1,0c0,0,0.1,0,0.1-0.1c0,0,0,0,0,0c0,0,0,0,0,0l0.1,0
					C25.3,33.6,25.3,33.5,25.3,33.5z M26.3,34.1C26.3,34.2,26.3,34.2,26.3,34.1C26.3,34.2,26.3,34.2,26.3,34.1
					C26.3,34.1,26.3,34.1,26.3,34.1C26.3,34.1,26.3,34.1,26.3,34.1z M26.5,33.8C26.5,33.8,26.5,33.8,26.5,33.8c0.1,0,0.1,0,0.1-0.1
					C26.6,33.7,26.5,33.7,26.5,33.8C26.5,33.7,26.5,33.8,26.5,33.8z M23.3,34.8C23,34.9,22.8,35,22.7,35c0,0,0,0,0,0c0,0,0,0,0,0
					c0,0,0,0,0,0c0,0,0,0,0,0c0-0.1,0.1-0.3,0.3-0.5c0.2-0.2,0.2-0.5,0.2-0.6c0,0,0-0.2,0-0.5c0-0.3,0-0.6,0-0.7c0,0,0-0.1,0.1-0.2
					c0-0.2,0.1-0.3,0.1-0.3c0-0.1,0-0.2,0-0.2c0,0-0.1-0.1-0.1-0.1c0,0-0.1,0-0.1,0c0,0-0.1,0-0.1,0c0,0-0.1,0-0.1,0
					c0,0-0.1,0-0.1,0c0,0-0.1,0-0.1,0c0,0,0,0,0,0c-0.1,0.1-0.1,0.2-0.1,0.3c0,0.1,0,0.2,0,0.2c0,0-0.1,0.1-0.2,0.2
					c-0.1,0.1-0.2,0.2-0.3,0.2c0,0,0,0,0,0c0,0,0,0,0-0.1c0,0,0,0,0,0c0,0,0,0,0,0c0-0.2-0.1-0.2-0.2-0.3c-0.1,0-0.3,0-0.4,0
					c0,0-0.1,0-0.1,0c0,0,0,0,0,0c0,0,0,0,0,0c0,0,0,0,0,0c0,0-0.1,0-0.1,0c0,0,0,0,0,0c0,0,0,0,0,0c-0.1,0-0.2,0-0.3,0
					c-0.1,0-0.2,0-0.3,0c0,0,0,0-0.1,0.1c0,0,0,0,0,0.1c0,0.1,0.1,0.2,0.2,0.4c0.1,0.2,0.2,0.2,0.4,0.2c0,0,0.1,0,0.1-0.1l0,0
					c0,0,0,0,0,0c0,0,0,0,0,0c0,0,0.1,0,0.2-0.1c0.1-0.1,0.2-0.1,0.2-0.1l0.1,0.3c0,0,0,0,0,0.1c0,0.1,0,0.1,0,0.2c0,0,0,0.1,0,0.2
					c0,0.1,0,0.2,0,0.3c0,0,0.1,0,0.1,0.1c0,0,0.1,0.1,0.1,0.1c0,0,0.1,0,0.1-0.1c0.1,0,0.1-0.1,0.1-0.1l0-0.3c0,0,0,0,0,0
					c0,0,0,0,0,0l0,0c0,0,0,0,0-0.1c0,0,0,0,0-0.1c0,0,0.1-0.1,0.3-0.3c0.2-0.1,0.3-0.2,0.3-0.2c0,0,0,0,0,0.1c0,0.1,0,0.2,0,0.2
					c0,0,0,0.1,0,0.3c0,0.2,0,0.3,0,0.3c0,0,0,0.1,0,0.2c0,0.1,0,0.1,0,0.2c0,0.2-0.1,0.4-0.3,0.7c-0.2,0.3-0.3,0.5-0.3,0.6
					c0,0.1,0,0.1,0,0.2c0,0.1,0.1,0.1,0.2,0.1c0.1,0,0.2,0,0.3-0.1c0.1-0.1,0.2-0.1,0.3-0.1c0,0,0.2-0.1,0.4-0.2
					c0.2-0.1,0.4-0.2,0.4-0.3c0,0,0,0,0-0.1c0-0.1,0-0.1,0-0.1C23.7,34.6,23.6,34.7,23.3,34.8z"/>
			</g>
			<path class="st4" d="M22,40.1C22,40.1,22,40.1,22,40.1C22,40.1,22,40.1,22,40.1C22,40,22,40,22,40.1C22,40,22,40,22,40.1
				C22,40,22,40,22,40.1C22,40.1,22,40.1,22,40.1C22,40.1,22,40.1,22,40.1C22,40.1,22,40.1,22,40.1 M22.1,39.9
				C22.1,39.9,22.1,39.9,22.1,39.9C22.1,39.8,22.2,39.8,22.1,39.9c0-0.1,0-0.1,0-0.1c0,0,0,0,0,0c0,0,0,0,0,0c0,0,0,0,0,0
				c0,0,0,0,0,0c0,0,0,0,0,0c0,0-0.1,0-0.1-0.1c0,0-0.1-0.1-0.1-0.1c0,0,0,0,0-0.1c0,0,0,0,0-0.1c0,0,0,0,0,0c0,0,0,0,0,0
				c0,0,0,0,0.1-0.1c0.1,0,0.1,0,0.1,0h0h0c0,0,0,0,0,0c0,0,0,0,0.1,0c0,0,0.1,0,0.1,0c0,0,0,0,0,0c0,0,0,0,0,0c0,0,0,0,0,0.1
				c0,0,0,0.1-0.1,0.1c0,0,0,0-0.1,0c0,0,0,0,0,0c0,0,0,0,0,0c0,0,0,0,0,0c0,0,0,0,0,0c0,0,0,0,0,0c0,0,0,0,0,0c0,0,0,0,0,0
				c0,0,0,0,0,0c0,0,0,0,0,0c0,0,0,0,0,0c0,0,0,0,0,0c0,0,0,0,0,0c0,0,0,0,0,0c0,0,0.1,0,0.1,0c0,0,0.1,0,0.1,0c0,0,0,0,0.1,0.1
				c0,0,0,0.1,0,0.1c0,0.1,0,0.1-0.1,0.2c-0.1,0-0.1,0.1-0.2,0.1c0,0,0,0,0,0c0,0,0,0,0,0h0c0,0,0,0,0,0c0,0,0,0,0,0c0,0,0,0,0,0
				c0,0,0,0,0,0c0,0,0,0,0,0c0,0,0,0,0,0c0,0,0,0,0,0c0,0,0,0,0,0c0,0,0,0,0,0c0,0,0,0,0,0c0,0,0,0,0,0c0,0,0,0,0,0c0,0,0,0,0,0
				c0,0,0,0,0,0c0,0-0.1,0-0.1-0.1c0,0,0-0.1,0-0.1c0,0,0,0,0,0c0,0,0,0,0,0c0,0,0,0,0,0c0,0,0,0,0,0c0,0,0,0,0,0c0,0,0,0,0,0
				c0,0,0,0,0,0c0,0,0,0,0,0c0,0,0,0,0,0c0,0,0,0,0,0c0,0,0,0,0,0c0,0,0,0,0,0c0,0,0,0,0,0c0,0,0,0,0,0c0,0,0,0,0,0c0,0,0,0,0,0
				c0,0,0,0,0,0c0,0,0,0,0,0C22,39.9,22,39.9,22.1,39.9C22.1,39.9,22.1,39.9,22.1,39.9L22.1,39.9C22.1,39.9,22.1,39.9,22.1,39.9
				 M21.7,40.1C21.7,40.1,21.7,40.1,21.7,40.1c-0.1,0-0.1,0-0.2-0.1c0-0.1-0.1-0.1-0.1-0.1h0c0,0,0,0,0,0c0,0,0,0,0,0h0l0,0l0,0
				c0,0,0,0,0,0l0,0c0,0,0,0,0,0c0,0,0,0,0,0v0c0,0,0,0,0,0c0,0,0,0,0,0c0,0,0,0,0,0c0,0,0,0,0,0c0,0,0,0,0,0c0,0,0,0,0,0.1
				c0,0,0,0,0,0c0,0,0,0,0,0c0,0,0,0,0,0c0,0,0,0,0,0v0c0,0,0,0,0,0c0,0,0,0,0,0c0,0,0,0,0,0c0,0,0-0.1,0-0.1c0,0,0,0,0-0.1v0
				c0,0,0,0,0,0c0,0,0,0,0,0c0-0.1,0-0.2,0-0.2c0,0,0-0.1,0-0.1c0,0,0,0,0-0.1c0,0,0,0,0-0.1c0,0,0,0,0,0c0,0,0,0,0,0c0,0,0,0,0-0.1
				c0,0,0,0,0,0c0,0,0,0,0-0.1c0,0,0,0,0-0.1c0,0,0.1,0,0.1,0c0,0,0.1,0.1,0.1,0.1c0,0,0,0.1,0.1,0.1c0,0,0,0.1,0,0.1
				c0,0,0,0.1,0,0.1c0,0,0,0.1,0,0.1c0,0,0,0,0,0c0,0,0,0,0,0c0,0,0,0,0,0c0,0,0,0,0,0c0,0,0,0,0,0c0,0,0,0,0,0c0,0,0-0.1,0-0.1
				c0,0,0-0.1,0-0.1c0,0,0,0,0-0.1c0,0,0,0,0-0.1c0,0,0,0,0.1-0.1c0,0,0.1-0.1,0.1-0.1c0,0,0,0,0,0c0,0,0,0,0,0c0,0,0,0,0,0
				c0,0,0,0,0,0c0,0,0,0,0,0c0,0,0,0,0,0c0,0,0,0,0,0c0,0,0,0,0,0c0,0,0,0,0,0.1c0,0,0,0,0,0.1c0,0,0,0,0,0.1c0,0,0,0.1,0,0.1v0.2
				c0,0,0,0,0,0.1c0,0,0,0.1,0,0.1c0,0,0,0.1,0,0.1c0,0,0,0.1,0,0.1c0,0,0,0,0,0c0,0,0,0,0,0v0c0,0,0,0,0,0c0,0,0,0,0,0c0,0,0,0,0,0
				c0,0,0,0,0,0L21.7,40.1L21.7,40.1L21.7,40.1C21.8,40.1,21.8,40.1,21.7,40.1C21.7,40.1,21.7,40.1,21.7,40.1L21.7,40.1L21.7,40.1
				L21.7,40.1L21.7,40.1C21.7,40.1,21.7,40.1,21.7,40.1 M20.9,38.9C20.9,38.9,20.9,38.9,20.9,38.9C20.9,38.9,20.9,39,20.9,38.9
				c0,0.1-0.1,0.2-0.1,0.2c0,0,0,0.1,0,0.1c0,0.1,0,0.1,0,0.2c0,0,0,0.1,0,0.2c0,0.1,0,0.2,0,0.2c0,0.1,0,0.1,0,0.2
				c0,0.1-0.1,0.2-0.2,0.2c0-0.1,0-0.1,0-0.2c0-0.1,0-0.1,0-0.2c0-0.1,0-0.2,0-0.2c0-0.1,0-0.1,0-0.2c0,0,0-0.1,0-0.1
				c0-0.1,0-0.1,0-0.1c0,0,0,0,0,0c0,0,0-0.1,0-0.1c0,0,0,0,0,0c0,0,0,0,0,0c0,0,0,0,0,0c0,0,0,0,0,0c0,0,0,0,0,0c0,0,0,0,0,0
				c0,0,0,0,0,0c0,0,0,0,0.1,0L20.9,38.9C20.8,38.9,20.9,38.9,20.9,38.9 M20.1,39.6C20.1,39.6,20.1,39.6,20.1,39.6
				C20.1,39.6,20.1,39.6,20.1,39.6C20.1,39.6,20,39.6,20.1,39.6c-0.1,0-0.1,0-0.1,0c0,0,0,0,0,0v0.1c0,0,0,0,0,0l0,0.2
				c0,0,0.1-0.1,0.1-0.1C20.2,39.7,20.2,39.7,20.1,39.6C20.2,39.7,20.2,39.7,20.1,39.6C20.2,39.6,20.1,39.6,20.1,39.6
				C20.1,39.6,20.1,39.6,20.1,39.6 M20,40.1C20,40.1,20,40.1,20,40.1c0,0.1,0,0.2,0,0.2c0,0.1,0,0.1,0,0.1c0,0,0,0.1,0,0.1v0
				c0,0,0,0,0,0c0,0,0,0,0,0c0,0,0,0-0.1,0c0,0,0,0-0.1,0c0,0,0,0,0,0c0,0,0,0,0,0c0,0,0,0,0,0c0,0,0,0,0,0c0,0,0,0,0,0c0,0,0,0,0,0
				c0,0,0-0.1,0-0.2c0-0.1,0-0.2,0-0.2c0,0,0,0,0,0c0,0,0,0,0,0c0,0,0,0,0,0c0,0,0,0,0,0c0,0,0,0,0,0c0,0,0-0.1,0-0.2
				c0-0.1,0-0.2-0.1-0.3c0,0,0,0-0.1-0.1c-0.1,0-0.1-0.1-0.1-0.1v0c0,0,0,0,0.1,0c0,0,0.1,0,0.1,0c0,0,0,0,0,0c0,0,0,0,0,0
				c0,0,0.1,0,0.2,0c0.1,0,0.2,0.1,0.2,0.1c0,0,0.1,0,0.1,0c0,0,0.1,0,0.1,0.1c0,0,0,0,0,0c0,0,0,0,0,0c0,0,0,0,0,0c0,0,0,0,0,0
				c0,0,0,0,0,0c0,0,0,0,0,0.1c0,0,0,0,0,0.1c0,0,0,0,0,0c0,0,0,0,0,0c0,0,0,0,0,0c0,0,0,0,0,0c0,0-0.1,0.1-0.1,0.1
				C20.2,40,20.2,40,20,40.1C20.1,40,20.1,40,20,40.1C20.1,40.1,20,40.1,20,40.1C20,40.1,20,40.1,20,40.1"/>
			<path class="st5" d="M29.1,38.4c-0.1-0.1-0.1-0.1-0.2-0.2c-0.1,0-0.2,0-0.3,0c0,0-0.1,0-0.1,0c-0.1,0-0.1,0-0.1,0
				c0,0-0.3,0.1-0.3,0.1c-0.1,0-0.2,0-0.2,0l0,0c0,0,0,0,0,0c0,0,0,0,0,0c0,0,0,0-0.1,0l-0.1,0l0-0.1l0.2-0.1c0.1,0,0.1-0.1,0.1-0.1
				l0,0c0,0,0,0,0,0l0,0l0,0l0,0c0.1,0,0.1-0.1,0.1-0.1c0,0,0.1-0.1,0.1-0.1c0,0,0-0.1,0-0.1c0,0,0,0,0,0l0,0l0,0c0,0,0,0,0,0v0l0,0
				l0.2-0.2c0,0,0,0,0.1-0.1c0,0,0,0,0,0l0-0.1c0,0,0-0.1,0-0.3l0-0.2c0-0.1,0-0.3-0.1-0.4c0-0.1-0.2-0.2-0.5-0.2l-0.1,0
				c-0.1,0-0.1,0-0.1,0l0,0l0,0c-0.1,0-0.1,0-0.1,0c0,0,0,0,0,0c0,0,0.1,0,0.1,0l0,0c0,0,0,0,0,0c0,0,0,0,0,0h0.1c0,0,0,0,0,0
				c0,0,0,0,0,0c0,0,0.1,0.1,0.1,0.1c0,0.1,0,0.1,0,0.2c0,0.1,0,0.1,0,0.2c0,0-0.1,0.1-0.2,0.1l0,0c0,0,0,0,0,0c0,0,0,0,0,0
				c0,0-0.1,0-0.2,0.1C27.1,37,27.1,37.1,27,37l0,0l-0.2-0.2c-0.1-0.1-0.2-0.2-0.2-0.2c-0.1,0-0.1,0-0.1,0c0,0,0,0,0,0c0,0,0,0,0,0
				c0,0,0,0,0,0l0,0c0,0,0,0,0,0l0,0l0,0c0,0,0,0,0,0c0,0,0,0,0,0c0,0,0,0,0,0c0,0,0,0,0,0c0,0,0.1,0.1,0.1,0.1
				c0.1,0.1,0.1,0.1,0.1,0.1c0,0.1,0.1,0.2,0.1,0.4c0.1,0.2,0.2,0.3,0.4,0.3c0,0,0,0,0.1,0l0,0l0.3,0l-0.1,0.1
				c-0.1,0.1-0.2,0.1-0.3,0.2c-0.1,0.1-0.2,0.1-0.3,0.2c-0.1,0-0.2,0.1-0.4,0.1c-0.3,0.1-0.3,0.2-0.3,0.2c0,0,0,0.1,0.1,0.1
				c0.1,0,0.2,0.1,0.2,0.1c0,0,0.1,0,0.1,0c0.1,0,0.1,0,0.2,0l1.1-0.3l0,0c0,0,0,0,0,0l0.2,0l-0.1,0.1c-0.1,0.1-0.2,0.1-0.4,0.2
				c-0.2,0.1-0.3,0.1-0.4,0.2c0,0-0.1,0.1-0.1,0.1c0,0,0,0.1,0,0.1c0,0,0,0,0.1,0.1c0,0.1,0.1,0.1,0.2,0.1c0,0,0.1,0,0.3-0.1
				c0.2-0.1,0.3-0.1,0.4-0.1c0.1,0,0.1,0.1,0.1,0.1c0,0.1,0,0.1,0,0.1l0,0c0,0-0.1,0.6-0.1,0.6c0,0,0,0.1,0,0.1c0.1,0,0.1,0,0.2,0.1
				c0,0,0,0,0,0l0,0l0,0c0,0,0,0,0,0c0,0,0,0,0,0c0,0,0.1,0,0.1,0c0,0,0.1,0,0.1,0c0-0.1,0.1-0.5,0.1-0.6c0-0.2,0-0.2,0-0.2
				c0-0.1,0-0.2-0.1-0.3c0-0.1-0.1-0.1-0.2-0.2c-0.1,0-0.2,0-0.3,0l-0.5,0l0.1-0.1c0.1-0.1,0.2-0.1,0.3-0.2l0.3-0.2c0,0,0,0,0.1,0
				l0.1,0l0.1,0l0,0l0,0l0.1,0c0.1,0,0.1,0,0.1,0C29,38.5,29,38.5,29.1,38.4L29.1,38.4L29.1,38.4L29.1,38.4
				C29,38.5,29.1,38.5,29.1,38.4C29.1,38.5,29.1,38.4,29.1,38.4z M27.6,37.7L27.6,37.7l-0.1,0c-0.2,0-0.2-0.1-0.2-0.1
				c0,0,0-0.1-0.1-0.3l0,0l0.1-0.1h0c0,0,0,0,0.1,0c0,0,0.1,0,0.1,0c0,0,0.1,0,0.1,0c0.1,0,0.1,0,0.1,0h0.1l0,0
				c0.1,0,0.1,0.1,0.1,0.2c0,0.1,0,0.2-0.1,0.2L27.6,37.7C27.7,37.7,27.6,37.7,27.6,37.7z M27.6,36.4L27.6,36.4
				C27.6,36.4,27.6,36.4,27.6,36.4L27.6,36.4z M23,36.3c0.1,0.1,0.1,0.1,0.1,0.2c0,0,0,0.1,0,0.1c0,0,0.1,0,0.1-0.1
				c0.1,0,0.2,0,0.3-0.1c0,0,0.1-0.1,0.1-0.1c0-0.1,0-0.1,0-0.1c0-0.1-0.1-0.2-0.2-0.3l0,0C23.2,36.1,23.1,36,23,36c0,0,0,0-0.1,0
				c0,0,0,0-0.1,0C22.9,36.2,23,36.3,23,36.3z M23.9,36.9L23.9,36.9C23.9,36.9,23.9,36.9,23.9,36.9C23.9,36.9,23.9,36.9,23.9,36.9z
				 M25.7,39.3c-0.2-0.1-0.2-0.1-0.3-0.1l-0.1,0l0-0.1c0,0,0,0,0-0.1c0,0,0-0.1,0-0.1c0,0,0-0.1,0-0.1c0,0,0-0.1,0-0.1l0,0l0.1,0
				c0,0,0,0,0,0c0,0,0,0,0,0l0,0c0,0,0,0,0,0l0,0l0,0l0,0l0,0c0,0,0,0,0,0c0,0,0,0,0,0c0,0,0-0.1,0-0.1c0,0,0,0,0-0.2
				c0,0,0-0.1-0.1-0.3c-0.1-0.3-0.1-0.3-0.1-0.3c0,0,0,0,0-0.1c0,0,0-0.1,0-0.1c0,0,0,0,0-0.1c0,0,0,0,0,0c0-0.1,0-0.2,0.1-0.3
				c0.1-0.2,0.1-0.2,0.1-0.2c0-0.2,0-0.3-0.1-0.3c-0.1,0-0.2-0.1-0.4-0.1c0,0,0,0-0.1,0.1c-0.1,0-0.1,0.1-0.1,0.1
				c0,0.1-0.1,0.2-0.1,0.3c0,0.1-0.1,0.2-0.2,0.3l-0.1,0c0,0,0-0.1,0-0.1c0,0,0-0.1,0-0.1c0-0.1-0.1-0.1-0.3-0.2c0,0-0.2,0-0.3-0.1
				l0,0.1c0.1,0.1,0.1,0.3,0.1,0.4c0,0,0,0,0,0l0,0c0,0.2,0,0.3,0,0.4l-0.1,0c0-0.1-0.1-0.1-0.2-0.2c-0.1,0-0.2,0-0.2-0.1l0,0l0-0.1
				c0,0,0,0,0-0.1c0,0,0,0,0,0c0,0,0-0.1,0-0.1c0,0,0-0.1,0-0.1l0,0l0,0c0,0-0.1-0.1-0.1-0.1c-0.1,0-0.1,0-0.1,0c0,0-0.1,0-0.3,0.1
				c-0.3,0.1-0.3,0.1-0.4,0.1h0l0,0c0,0,0,0-0.1,0c0,0-0.1,0-0.1,0.1c-0.1,0.1-0.1,0.1-0.1,0.1c0,0.1,0,0.1,0.1,0.2
				c0.1,0.1,0.1,0.1,0.2,0.1c0,0,0,0,0,0c0,0,0,0,0,0c0,0,0,0,0,0H23c0,0,0.1,0,0.1,0c0.1,0,0.1,0,0.1,0h0l0,0.1c0,0,0,0.1-0.1,0.1
				c0,0,0,0,0,0c0,0,0,0,0,0l0,0l0,0l0,0c0,0,0,0,0,0l0,0c0,0,0,0,0,0c0,0.1-0.1,0.3-0.1,0.3c0,0.1,0,0.2,0,0.2c0,0,0,0.1,0.1,0.2
				c0,0.1,0.1,0.1,0.2,0.1c0.1,0,0.3-0.1,0.5-0.2c0.2-0.1,0.3-0.2,0.3-0.3c0,0,0,0,0,0l0,0l0.1,0c0,0,0.1,0,0.1,0c0,0,0,0,0,0
				c0,0,0-0.1,0-0.1l0.1,0c0,0,0,0.1,0,0.1c0,0,0,0.1,0,0.1c0,0,0,0,0.1,0.1c0,0,0.1,0,0.1,0c0,0,0.1,0,0.1,0c0,0,0.1,0,0.1,0
				c0,0,0-0.1,0-0.1c0,0,0-0.1,0-0.1c0,0,0,0,0-0.1c0-0.1,0-0.1,0-0.1c0,0,0-0.1,0-0.1l0-0.1l0,0l0,0c0,0,0,0,0.1-0.2
				c0.1-0.1,0.1-0.1,0.1-0.2c0,0,0,0,0,0l0,0c0,0,0,0,0,0c0,0,0,0,0,0s0,0,0,0c0,0,0,0,0,0l0,0l0,0c0,0.1,0,0.3,0,0.4
				c0,0.2,0,0.3,0,0.3c0,0,0,0.1,0.1,0.2c0,0.1,0.1,0.2,0.1,0.3c0,0,0,0-0.1,0.2c-0.1,0.2-0.1,0.2-0.1,0.2l0,0.1l0,0
				c-0.1,0-0.1,0.1-0.2,0.2c0,0-0.1,0.2-0.1,0.2c0,0-0.1,0.2-0.3,0.4c-0.1,0.2-0.2,0.4-0.2,0.5c0,0.1,0,0.1,0,0.2c0,0,0,0.1,0.2,0.1
				c0.2,0,0.4-0.1,0.6-0.2c0.3-0.2,0.3-0.2,0.3-0.2l0,0h0c0,0,0,0,0.1,0c0-0.1,0.1-0.1,0.1-0.1l0,0h0c0,0,0.1,0,0.1-0.1
				c0-0.1,0-0.1,0-0.2C25.9,39.5,25.8,39.3,25.7,39.3z M23.8,38.1c-0.1,0-0.1,0.1-0.2,0.1l-0.1,0l0-0.1c0,0,0-0.1,0.1-0.2l0.1-0.2
				l0-0.1l0.1,0.1c0.1,0,0.1,0.1,0.1,0.1C24,37.9,23.9,38,23.8,38.1z M25.4,39.6C25.4,39.6,25.4,39.7,25.4,39.6c0,0.1,0,0.1,0,0.2
				c0,0,0,0,0,0c0,0,0,0,0,0c0,0,0,0,0,0l0,0l0,0c0,0.1-0.1,0.1-0.2,0.1C25.1,40,25,40,24.9,40l0,0l0,0c0,0,0,0,0,0l0,0c0,0,0,0,0,0
				c0,0,0,0,0,0l0,0c0,0,0,0,0.1-0.1c0,0,0,0,0,0l0,0c0,0,0,0,0.1-0.1c0.1-0.1,0.1-0.1,0.1-0.1c0,0,0,0,0,0c0,0,0-0.1,0.1-0.1
				c0,0,0.1,0,0.1,0.1L25.4,39.6L25.4,39.6L25.4,39.6z"/>
		</g>
	</g>
</g>
</svg>
