<?xml version="1.0" encoding="UTF-8"?>
<svg width="100px" height="60px" viewBox="0 0 100 60" version="1.1" xmlns="http://www.w3.org/2000/svg" xmlns:xlink="http://www.w3.org/1999/xlink">
    <!-- Generator: Sketch 55.2 (78181) - https://sketchapp.com -->
    <title>logo/childfund</title>
    <desc>Created with Sketch.</desc>
    <defs>
        <linearGradient x1="18.8012298%" y1="32.0434284%" x2="98.8206763%" y2="68.2090861%" id="linearGradient-1">
            <stop stop-color="#C9DA2A" offset="0%"></stop>
            <stop stop-color="#98C93C" offset="100%"></stop>
        </linearGradient>
        <linearGradient x1="43.6667833%" y1="52.1108046%" x2="59.6358873%" y2="41.6789077%" id="linearGradient-2">
            <stop stop-color="#00793A" offset="0%"></stop>
            <stop stop-color="#004B1C" offset="100%"></stop>
        </linearGradient>
        <linearGradient x1="1.92834938%" y1="41.4951645%" x2="100.664434%" y2="62.36991%" id="linearGradient-3">
            <stop stop-color="#50B748" offset="0%"></stop>
            <stop stop-color="#00974A" offset="100%"></stop>
        </linearGradient>
        <linearGradient x1="8.57207173%" y1="36.3008467%" x2="100.490347%" y2="64.2416057%" id="linearGradient-4">
            <stop stop-color="#98C93C" offset="0%"></stop>
            <stop stop-color="#50B748" offset="100%"></stop>
        </linearGradient>
    </defs>
    <g id="logo/childfund" stroke="none" stroke-width="1" fill="none" fill-rule="evenodd">
        <g transform="translate(19.000000, 18.000000)" id="Group-45">
            <g transform="translate(0.000000, 0.213289)">
                <path d="M56.6713158,0.954473684 C55.8305263,1.04513158 55.1693421,1.73631579 55.4713158,2.53144737 L55.4713158,2.53144737 C55.9446053,3.77815789 58.4507895,4.01960526 60.9155263,4.46355263 L60.9155263,4.46355263 C65.5501316,5.29657895 67.1015789,7.34815789 67.2925,8.175 L67.2925,8.175 C66.8034211,5.92710526 65.2185526,3.65763158 62.4614474,2.19407895 L62.4614474,2.19407895 L62.5005263,2.11118421 C62.6909211,1.70513158 62.5143421,1.22355263 62.1082895,1.03486842 L62.1082895,1.03486842 C61.7011842,0.845789474 61.2165789,1.02105263 61.0273684,1.42631579 L61.0273684,1.42631579 L60.9756579,1.53631579 C59.8125,1.11934211 58.6309211,0.918289474 57.4972368,0.918289474 L57.4972368,0.918289474 C57.2186842,0.918289474 56.9431579,0.930394737 56.6713158,0.954473684" id="Fill-1" fill="url(#linearGradient-1)"></path>
                <path d="M57.8797368,9.15592105 C58.5726316,9.09328947 58.8021053,9.04763158 59.2386842,9.31855263 L59.2386842,9.31855263 C61.4186842,10.6703947 62.5696053,12.0577632 64.1278947,12.6132895 L64.1278947,12.6132895 C66.1476316,13.3332895 66.9538158,12.3347368 67.2310526,11.3551316 L67.2310526,11.3551316 C67.1501316,10.7743421 65.9844737,9.40210526 63.5960526,8.97263158 L63.5960526,8.97263158 C62.7032895,8.81210526 61.8685526,8.75394737 61.1276316,8.75394737 L61.1276316,8.75394737 C59.1793421,8.75394737 57.8797368,9.15592105 57.8797368,9.15592105" id="Fill-4" fill="url(#linearGradient-2)"></path>
                <path d="M50.7682895,4.72539474 C50.6,5.08447368 50.3142105,5.91881579 50.6672368,6.86828947 L50.6672368,6.86828947 C50.9515789,7.63342105 51.7221053,8.34565789 52.5003947,8.70723684 L52.5003947,8.70723684 C54.1146053,9.45802632 55.7447368,9.35223684 58.5492105,9.09578947 L58.5492105,9.09578947 L58.55,9.09578947 L58.5492105,9.09578947 C61.3544737,8.83881579 62.9484211,8.94618421 64.4018421,9.39184211 L64.4018421,9.39184211 C65.6547368,9.77684211 66.4193421,10.4386842 66.7790789,11.0643421 L66.7790789,11.0643421 C67.0557895,11.5478947 66.9740789,11.9388158 66.8425,12.1694737 L66.8425,12.1694737 C67.1856579,11.7190789 67.3375,11.0631579 67.4113158,10.4271053 L67.4113158,10.4271053 C67.5243421,8.32276316 64.5430263,6.43039474 59.0590789,6.31039474 L59.0590789,6.31039474 C56.4069737,6.25197368 53.6503947,5.84973684 52.6542105,4.45157895 L52.6542105,4.45157895 C51.9206579,3.42223684 52.5046053,2.51592105 53.1019737,2.11473684 L53.1019737,2.11473684 C52.0936842,2.75131579 51.28,3.63065789 50.7682895,4.72539474" id="Fill-7" fill="url(#linearGradient-3)"></path>
                <path d="M59.5347763,13.7579342 C59.2004342,13.4600395 58.6862237,13.4914868 58.3878026,13.8275395 C58.1853026,14.0545132 57.8506974,14.0287237 57.6381974,13.8893816 C57.3847763,13.72425 57.3445132,13.4564868 57.5155658,13.0918816 L58.2243816,11.5785921 C58.41425,11.1726711 58.2141184,10.7396447 57.8083289,10.5503026 C57.4004342,10.3605658 56.9414868,10.48675 56.7505658,10.8928026 L56.0425395,12.4049079 C55.4545132,13.66425 55.9721447,14.7397763 56.7456974,15.2460921 C57.6678026,15.8495132 58.8951711,15.7006974 59.6051711,14.9006974 C59.9022763,14.5666184 59.8712237,14.0538553 59.5347763,13.7579342" id="Fill-10" fill="#00984A"></path>
                <path d="M53.1019737,2.11473684 C52.505,2.51657895 51.9214474,3.42223684 52.6542105,4.45157895 L52.6542105,4.45157895 C53.6492105,5.84973684 56.4069737,6.25276316 59.0590789,6.31039474 L59.0590789,6.31039474 C64.5435526,6.43039474 67.5243421,8.32276316 67.4119737,10.4278947 L67.4119737,10.4278947 C67.4973684,9.70118421 67.4569737,8.93894737 67.2925,8.175 L67.2925,8.175 C67.1015789,7.34815789 65.5501316,5.29657895 60.9155263,4.46355263 L60.9155263,4.46355263 C58.4507895,4.01960526 55.9446053,3.77815789 55.4713158,2.53144737 L55.4713158,2.53144737 C55.1693421,1.73631579 55.8305263,1.04513158 56.6713158,0.954473684 L56.6713158,0.954473684 C55.3535526,1.07144737 54.1267105,1.46789474 53.1019737,2.11473684" id="Fill-12" fill="url(#linearGradient-4)"></path>
                <path d="M48.7941316,3.98975 C48.9491316,3.98975 49.0205789,4.06303947 49.0205789,4.18790789 L49.0205789,4.43711842 C49.0205789,4.56264474 48.9491316,4.63593421 48.7941316,4.63593421 L48.1426842,4.63593421 C48.1017632,4.63593421 48.0766316,4.64014474 48.0680789,4.65040789 C48.0632105,4.66001316 48.0609737,4.69843421 48.0609737,4.76514474 L48.0609737,6.73067105 C48.0609737,6.88698684 47.9868947,6.95777632 47.8620263,6.95777632 L47.5546579,6.95777632 C47.4297895,6.95777632 47.3570263,6.88698684 47.3570263,6.73067105 L47.3570263,2.48040789 C47.3570263,2.32435526 47.4297895,2.25290789 47.5546579,2.25290789 L47.8620263,2.25290789 C47.9868947,2.25290789 48.0609737,2.32435526 48.0609737,2.48040789 L48.0609737,3.86777632 C48.0609737,3.91527632 48.0650526,3.94646053 48.0747895,3.96080263 C48.0874211,3.98014474 48.1197895,3.98975 48.1696579,3.98975 L48.7941316,3.98975 Z M47.9571579,7.64909211 C48.1113684,7.64909211 48.1828158,7.72290789 48.1828158,7.84777632 L48.1828158,8.11080263 C48.1828158,8.23698684 48.1113684,8.30896053 47.9571579,8.30896053 L44.939,8.30896053 C44.7709737,8.30896053 44.6412368,8.24711842 44.5504474,8.12343421 C44.4730789,8.01290789 44.434,7.87185526 44.434,7.70001316 L44.434,6.51988158 C44.434,6.36435526 44.5078158,6.29356579 44.6326842,6.29356579 L44.9408421,6.29356579 C45.0657105,6.29356579 45.1392632,6.36435526 45.1392632,6.51988158 L45.1392632,7.53422368 C45.1392632,7.58172368 45.1451842,7.61290789 45.1595263,7.62790789 C45.1775526,7.64185526 45.2161053,7.64909211 45.2741316,7.64909211 L47.9571579,7.64909211 Z M45.3270789,2.35375 C45.4524737,2.35375 45.5252368,2.42453947 45.5252368,2.57953947 L45.5252368,3.02335526 C45.5252368,3.85519737 46.0777368,4.81427632 46.8620789,5.20401316 C46.9858947,5.26532895 46.9936579,5.37401316 46.9276053,5.46296053 C46.7708947,5.67138158 46.8472105,5.56980263 46.7708947,5.67138158 C46.6989211,5.76861842 46.5762895,5.80230263 46.4568158,5.73019737 C45.8611579,5.36980263 45.4470789,4.80651316 45.1720789,4.25388158 C44.8970789,4.80651316 44.4826053,5.36980263 43.8869474,5.73019737 C43.7678684,5.80230263 43.6456316,5.76861842 43.5733947,5.67138158 C43.4970789,5.56980263 43.5733947,5.67138158 43.4161579,5.46296053 C43.3506316,5.37401316 43.3582632,5.26532895 43.4822105,5.20401316 C44.2660263,4.81427632 44.8185263,3.85519737 44.8185263,3.02335526 L44.8185263,2.57953947 C44.8185263,2.42453947 44.8922105,2.35375 45.0172105,2.35375 L45.3270789,2.35375 Z M30.9157763,6.62684211 C31.0706447,6.62684211 31.1422237,6.69947368 31.1422237,6.825 L31.1422237,7.08868421 C31.1422237,7.21355263 31.0706447,7.2875 30.9157763,7.2875 L25.70025,7.2875 L25.70025,7.28565789 C25.5598553,7.27960526 25.4943289,7.2075 25.4943289,7.08868421 L25.4943289,6.825 C25.4943289,6.70552632 25.5598553,6.63473684 25.70025,6.62868421 L25.70025,6.62684211 L27.8786711,6.62684211 C27.9103816,6.62684211 27.9303816,6.61789474 27.9398553,6.59855263 C27.9536711,6.58355263 27.9597237,6.56013158 27.9597237,6.52644737 L27.9597237,5.69184211 C27.9597237,5.53618421 28.0335395,5.46526316 28.1585395,5.46526316 L28.4665658,5.46526316 C28.5915658,5.46526316 28.6648553,5.53618421 28.6648553,5.69184211 L28.6648553,6.52644737 C28.6648553,6.56013158 28.6695921,6.58355263 28.6780132,6.59855263 C28.6874868,6.61789474 28.7056447,6.62684211 28.7326184,6.62684211 L30.9157763,6.62684211 Z M30.4316053,5.14042105 C30.5488421,5.15726316 30.5987105,5.27134211 30.5481842,5.36686842 C30.4767368,5.49897368 30.4448947,5.53502632 30.3800263,5.65094737 C30.3247632,5.74752632 30.2435789,5.78660526 30.0964737,5.75292105 C29.4035789,5.59568421 28.7247632,5.08871053 28.3079211,4.59568421 C27.8047632,5.19028947 26.9968684,5.64423684 26.5189737,5.75292105 C26.3722632,5.78660526 26.2906842,5.74752632 26.2360789,5.65094737 C26.1712105,5.53502632 26.1387105,5.49897368 26.0679211,5.36686842 C26.0173947,5.27134211 26.0667368,5.15726316 26.1845,5.14042105 C26.722,5.06594737 27.9260789,4.48463158 27.9260789,3.88397368 C27.9260789,3.85028947 27.9188421,3.82936842 27.9056842,3.81976316 C27.8966053,3.80542105 27.8787105,3.79818421 27.8516053,3.79818421 L26.5021316,3.79818421 C26.3466053,3.79818421 26.2756842,3.72542105 26.2756842,3.60055263 L26.2756842,3.33621053 C26.2756842,3.21134211 26.3466053,3.13805263 26.5021316,3.13805263 L30.0725263,3.13805263 C30.2287105,3.13805263 30.3001579,3.21134211 30.3001579,3.33621053 L30.3001579,3.60055263 C30.3001579,3.72542105 30.2287105,3.79818421 30.0725263,3.79818421 L28.7783158,3.79818421 C28.7373947,3.79818421 28.7122632,3.80042105 28.7031842,3.80542105 C28.6935789,3.81502632 28.6893684,3.84068421 28.6893684,3.88397368 C28.6893684,4.48463158 29.8941053,5.06594737 30.4316053,5.14042105 Z M29.3296316,2.09547368 C29.4851579,2.09547368 29.5560789,2.16876316 29.5560789,2.29310526 L29.5560789,2.55731579 C29.5560789,2.68231579 29.4851579,2.75560526 29.3296316,2.75560526 L27.3885789,2.75560526 C27.2329211,2.75560526 27.1621316,2.68231579 27.1621316,2.55731579 L27.1621316,2.29310526 C27.1621316,2.16876316 27.2329211,2.09547368 27.3885789,2.09547368 L29.3296316,2.09547368 Z M42.8935789,5.53977632 C43.0491053,5.53977632 43.1192368,5.61253947 43.1192368,5.73859211 L43.1192368,6.00227632 C43.1192368,6.12648684 43.0491053,6.19990789 42.8935789,6.19990789 L40.8222632,6.19990789 C40.7723947,6.19990789 40.7375263,6.20701316 40.7195,6.22148684 C40.7056842,6.23648684 40.6996316,6.26951316 40.6996316,6.32161842 L40.6996316,8.08319737 C40.6996316,8.23819737 40.6258158,8.30898684 40.5008158,8.30898684 L40.1927895,8.30898684 C40.0684474,8.30898684 39.9946316,8.23819737 39.9946316,8.08319737 L39.9946316,6.30069737 C39.9946316,6.25740789 39.9885789,6.22859211 39.9747632,6.21359211 C39.9609474,6.20464474 39.9291053,6.19990789 39.8787105,6.19990789 L37.8258158,6.19990789 C37.6710789,6.19990789 37.5989737,6.12648684 37.5989737,6.00227632 L37.5989737,5.73859211 C37.5989737,5.61253947 37.6710789,5.53977632 37.8258158,5.53977632 L42.8935789,5.53977632 Z M41.0185789,4.22630263 C41.1904211,4.05696053 41.2768684,3.85393421 41.2768684,3.61669737 C41.2768684,3.36025 41.1885789,3.14775 41.012,2.97840789 C40.8402895,2.80840789 40.6347632,2.72432895 40.3939737,2.72432895 C40.1489737,2.72432895 39.9459474,2.80656579 39.7825263,2.97117105 C39.6143684,3.14472368 39.5302895,3.36025 39.5302895,3.61669737 C39.5302895,3.85393421 39.6168684,4.05696053 39.7885789,4.22630263 C39.9604211,4.39564474 40.1681842,4.47985526 40.4131842,4.47985526 C40.6497632,4.47985526 40.8510789,4.39564474 41.0185789,4.22630263 Z M41.5056842,2.51169737 C41.8275263,2.81617105 41.9884474,3.18498684 41.9884474,3.61669737 C41.9884474,4.03893421 41.8275263,4.40051316 41.5056842,4.69959211 C41.1933158,4.99919737 40.8295,5.14946053 40.4143684,5.14946053 C39.9988421,5.14946053 39.6347632,4.99919737 39.3225263,4.69959211 C39.0012105,4.40051316 38.8396316,4.03893421 38.8396316,3.61669737 C38.8396316,3.18498684 38.9964737,2.81617105 39.3081842,2.51169737 C39.6156842,2.21682895 39.9843684,2.06959211 40.4143684,2.06959211 C40.8295,2.06959211 41.1933158,2.21682895 41.5056842,2.51169737 Z M36.9418158,5.45085526 C37.0968158,5.45085526 37.1689211,5.52427632 37.1689211,5.64848684 L37.1689211,5.91217105 C37.1689211,6.03769737 37.0968158,6.11098684 36.9418158,6.11098684 L31.7469474,6.11098684 C31.5919474,6.11098684 31.5211579,6.03769737 31.5211579,5.91217105 L31.5211579,5.64848684 C31.5211579,5.52361842 31.5919474,5.45085526 31.7469474,5.45085526 L33.9282632,5.45085526 C33.9601053,5.45085526 33.9810263,5.44611842 33.9899737,5.43717105 C33.9990526,5.43217105 34.0032632,5.41059211 34.0032632,5.37151316 L34.0032632,5.00467105 L32.8591842,5.00467105 C32.7001053,5.00467105 32.5769474,4.95309211 32.4910263,4.84730263 C32.4135263,4.75125 32.3751053,4.62690789 32.3751053,4.47440789 L32.3751053,3.78546053 C32.3751053,3.63296053 32.4165526,3.51335526 32.4977368,3.42690789 C32.5841842,3.34111842 32.6976053,3.29848684 32.8382632,3.29848684 L35.4248421,3.29848684 C35.4656316,3.29848684 35.4944474,3.28585526 35.5131316,3.26177632 C35.5305,3.24322368 35.5402368,3.20953947 35.5402368,3.16151316 L35.5402368,3.01967105 C35.5402368,2.97164474 35.5287895,2.93809211 35.5065526,2.91888158 C35.4836579,2.90019737 35.4536579,2.89059211 35.4176053,2.89059211 L32.7372105,2.89059211 C32.5823421,2.89059211 32.5107632,2.81730263 32.5107632,2.69243421 L32.5107632,2.45164474 C32.5107632,2.32677632 32.5823421,2.25282895 32.7372105,2.25282895 L35.7761579,2.25282895 C36.0945789,2.25282895 36.2445789,2.44019737 36.2445789,2.76993421 L36.2445789,3.40651316 C36.2445789,3.75664474 36.0597105,3.93019737 35.7124737,3.93019737 L33.1883947,3.93019737 C33.1426053,3.93019737 33.1131316,3.94046053 33.0994474,3.95901316 C33.0855,3.97888158 33.0790526,4.01427632 33.0790526,4.06651316 L33.0790526,4.24914474 C33.0790526,4.28269737 33.0855,4.30914474 33.0994474,4.32782895 C33.1174737,4.34756579 33.1451053,4.35717105 33.1810263,4.35717105 L35.1011579,4.35717105 C35.9485263,4.35717105 36.4651053,4.24243421 36.4651053,4.24243421 C36.4651053,4.24243421 36.4740526,4.26598684 36.4939211,4.39625 C36.5244474,4.58361842 36.4110263,4.70085526 36.1815526,4.81677632 C35.8614211,4.97940789 35.4056316,5.00401316 34.8147105,5.00467105 L34.7082632,5.00467105 L34.7082632,5.37151316 C34.7082632,5.40519737 34.7149737,5.42677632 34.7281316,5.43717105 C34.7377368,5.44611842 34.7581316,5.45085526 34.7899737,5.45085526 L36.9418158,5.45085526 Z M35.7358947,6.50190789 C35.9040526,6.50190789 36.0332632,6.56375 36.1239211,6.68743421 C36.2014211,6.79730263 36.2410263,6.93848684 36.2410263,7.11085526 L36.2410263,8.29046053 C36.2410263,8.44598684 36.1670789,8.51690789 36.0415526,8.51690789 L35.7347105,8.51690789 C35.6091842,8.51690789 35.5358947,8.44598684 35.5358947,8.29046053 L35.5358947,7.27598684 C35.5358947,7.22796053 35.5299737,7.19677632 35.5161579,7.18296053 C35.4974737,7.16861842 35.4590526,7.16138158 35.4002368,7.16138158 L32.5997105,7.16138158 C32.4447105,7.16138158 32.3732632,7.08861842 32.3732632,6.96256579 L32.3732632,6.69940789 C32.3732632,6.57388158 32.4447105,6.50190789 32.5997105,6.50190789 L35.7358947,6.50190789 Z" id="Combined-Shape" fill="#50B748"></path>
                <path d="M24.8523553,15.4801579 C25.10525,15.1012105 25.2319605,14.5608158 25.2319605,13.8588421 C25.2319605,13.1472632 25.10525,12.6018684 24.8523553,12.2210789 C24.6001184,11.8427895 24.2685395,11.6512105 23.8584079,11.6512105 C23.4566974,11.6512105 23.1298553,11.8427895 22.8764342,12.2210789 C22.6241974,12.6018684 22.4974868,13.1472632 22.4974868,13.8588421 C22.4974868,14.5608158 22.6241974,15.1012105 22.8764342,15.4801579 C23.1298553,15.8610789 23.4566974,16.0508158 23.8584079,16.0508158 C24.2685395,16.0508158 24.6001184,15.8610789 24.8523553,15.4801579 Z M23.8584079,10.6776579 C24.7741974,10.6776579 25.5189342,10.9725263 26.0924868,11.5634474 C26.6672237,12.1514737 26.9544605,12.9184474 26.9544605,13.8576579 C26.9544605,14.7889737 26.6672237,15.5492368 26.0924868,16.1402895 C25.5189342,16.7305526 24.7741974,17.0267368 23.8584079,17.0267368 C22.9430132,17.0267368 22.19775,16.7305526 21.6243289,16.1402895 C21.0501184,15.5492368 20.7636711,14.7889737 20.7636711,13.8576579 C20.7636711,12.9184474 21.0501184,12.1514737 21.6243289,11.5634474 C22.19775,10.9725263 22.9430132,10.6776579 23.8584079,10.6776579 Z M28.8882632,10.1924605 C29.3368158,10.1924605 29.7007632,10.5564079 29.7007632,11.0050921 L29.7007632,19.3628553 C29.7007632,19.8110132 29.3368158,20.1754868 28.8882632,20.1754868 C28.4389211,20.1754868 28.0749737,19.8110132 28.0749737,19.3628553 L28.0749737,11.0050921 C28.0749737,10.5564079 28.4389211,10.1924605 28.8882632,10.1924605 Z M4.08928947,15.4801579 C4.34152632,15.1012105 4.46823684,14.5608158 4.46823684,13.8588421 C4.46823684,13.1472632 4.34152632,12.6018684 4.08928947,12.2210789 C3.83586842,11.8427895 3.50494737,11.6512105 3.09468421,11.6512105 C2.69363158,11.6512105 2.36692105,11.8427895 2.11336842,12.2210789 C1.86060526,12.6018684 1.73389474,13.1472632 1.73389474,13.8588421 C1.73389474,14.5608158 1.86060526,15.1012105 2.11336842,15.4801579 C2.36692105,15.8610789 2.69363158,16.0508158 3.09468421,16.0508158 C3.50494737,16.0508158 3.83586842,15.8610789 4.08928947,15.4801579 Z M8.16363158,10.1923947 C8.61231579,10.1923947 8.97613158,10.5563421 8.97613158,11.0050263 L8.97613158,19.3629211 C8.97613158,19.8109474 8.61231579,20.1755526 8.16363158,20.1755526 C7.71442105,20.1755526 7.35047368,19.8109474 7.35047368,19.3629211 L7.35047368,14.2292368 L6.17323684,14.2292368 C6.10547368,14.9931842 5.82494737,15.6309474 5.32889474,16.1402895 C4.75534211,16.7305526 4.01060526,17.0267368 3.09468421,17.0267368 C2.17942105,17.0267368 1.43481579,16.7305526 0.860605263,16.1402895 C0.286526316,15.5492368 -5.26315803e-05,14.7889737 -5.26315803e-05,13.8576579 C-5.26315803e-05,12.9184474 0.286526316,12.1514737 0.860605263,11.5634474 C1.43481579,10.9725263 2.17942105,10.6776579 3.09468421,10.6776579 C4.01060526,10.6776579 4.75534211,10.9725263 5.32889474,11.5634474 C5.77573684,12.0205526 6.046,12.5863421 6.14507895,13.2559474 L7.35047368,13.2559474 L7.35047368,11.0050263 C7.35047368,10.5563421 7.71442105,10.1923947 8.16363158,10.1923947 Z M36.5437368,15.7846974 L36.5430789,15.7846974 C36.7491316,16.1060132 36.7724211,16.5373289 36.4878158,16.8123289 C36.1671579,17.1210132 35.6891316,17.0645658 35.4872895,16.7619342 C35.4849211,16.7587763 35.4849211,16.7570658 35.4830789,16.7570658 L35.4825526,16.7570658 L35.4818947,16.7540395 C35.3396579,16.5354868 34.7865,15.3221974 34.1353158,14.4525921 C33.6387368,15.3577237 32.8555789,16.2615395 32.0159737,16.77325 C31.7000526,16.9665395 31.5000526,17.0278553 31.2833421,16.8596974 C31.0575526,16.6862763 31.0759737,16.3954868 31.2459737,16.1858816 L31.2466316,16.1840395 L31.2466316,16.1835132 C32.2700526,15.1481184 33.2261053,13.7723289 33.2242632,11.6379868 L31.8695263,11.6379868 C31.6011053,11.6379868 31.3836053,11.4199605 31.3836053,11.1508816 C31.3836053,10.8818026 31.6011053,10.6644342 31.8695263,10.6644342 L36.1671579,10.6644342 C36.4362368,10.6644342 36.6542632,10.8818026 36.6542632,11.1508816 C36.6542632,11.4199605 36.4362368,11.6379868 36.1671579,11.6379868 L34.8122895,11.6379868 C34.8146579,12.2794342 34.7096579,12.9754868 34.5401842,13.5189079 C35.3407105,14.1536447 35.9011053,14.7331184 36.4979474,15.7078553 L36.5437368,15.7846974 Z M40.3483421,10.1924605 C40.7807105,10.1924605 41.1092632,10.5431184 41.1092632,10.9754868 L41.1092632,19.3918026 C41.1092632,19.8246974 40.7807105,20.1754868 40.3483421,20.1754868 C39.9159737,20.1754868 39.5867632,19.8246974 39.5867632,19.3918026 L39.5867632,14.2293026 L38.7929474,14.2293026 L38.7929474,19.3918026 C38.7929474,19.8246974 38.4637368,20.1754868 38.0313684,20.1754868 C37.599,20.1754868 37.2697895,19.8246974 37.2697895,19.3918026 L37.2697895,10.9754868 C37.2697895,10.5431184 37.599,10.1924605 38.0313684,10.1924605 C38.4637368,10.1924605 38.7929474,10.5431184 38.7929474,10.9754868 L38.7929474,13.2558816 L39.5867632,13.2558816 L39.5867632,10.9754868 C39.5867632,10.5431184 39.9153158,10.1924605 40.3483421,10.1924605 Z M16.2719737,15.9888684 C15.7926316,16.2003158 14.9585526,16.2886053 13.8305263,16.2886053 L12.0511842,16.2886053 C11.2102632,16.2886053 10.7226316,15.9313684 10.7226316,15.0976842 L10.7226316,13.594 C10.7226316,13.1118947 11.0109211,12.8301842 11.51,12.8301842 L14.2678947,12.8301842 C14.4271053,12.8301842 14.5056579,12.7545263 14.5056579,12.6013684 L14.5056579,11.6384737 L11.3238158,11.6384737 C11.0548684,11.6384737 10.8373684,11.4199211 10.8373684,11.1521579 C10.8373684,10.8818947 11.0548684,10.6643947 11.3238158,10.6643947 L15.6280263,10.6643947 C15.8185526,10.6643947 15.9403947,10.6992632 16.0143421,10.7720263 C16.0851316,10.8429474 16.1211842,10.9521579 16.1211842,11.0945263 L16.1211842,12.8643947 C16.1211842,13.4908421 15.8077632,13.8041316 15.1813158,13.8041316 L12.6390789,13.8041316 C12.4378947,13.8041316 12.3369737,13.9043947 12.3369737,14.1055789 L12.3369737,14.8303158 C12.3369737,15.0316316 12.4378947,15.1312368 12.6390789,15.1312368 L14.3794737,15.1312368 C15.3753947,15.1312368 16.0575,15.0412368 16.5019737,14.9534737 C16.705,14.9126842 16.8418421,14.9967632 16.8719737,15.1841316 C16.9078947,15.4082105 16.8059211,15.7553158 16.2719737,15.9888684 Z M18.3469737,10.1924211 C18.7961842,10.1924211 19.1601316,10.5563684 19.1601316,11.0050526 L19.1601316,17.1415 C19.1601316,17.5907105 18.7961842,17.9545263 18.3469737,17.9545263 C17.8982895,17.9545263 17.5343421,17.5907105 17.5343421,17.1415 L17.5343421,11.0050526 C17.5343421,10.5563684 17.8982895,10.1924211 18.3469737,10.1924211 Z M18.6736842,19.7105789 C18.9427632,19.7105789 19.1601316,19.9279474 19.1601316,20.1966316 C19.1601316,20.4655789 18.9427632,20.6842632 18.6736842,20.6842632 L13.4444737,20.6842632 C13.0792105,20.6842632 12.8065789,20.5946579 12.6402632,20.4193947 C12.5201316,20.2992632 12.4589474,20.1484737 12.4589474,19.9707105 L12.4589474,17.6434737 C12.4589474,17.1984737 12.8209211,16.8368947 13.2672368,16.8368947 C13.7128947,16.8368947 14.0732895,17.1984737 14.0732895,17.6434737 L14.0732895,19.5107105 C14.0732895,19.5863684 14.0871053,19.6416316 14.1142105,19.6716316 C14.1164474,19.6758421 14.1526316,19.7105789 14.3044737,19.7105789 L18.6736842,19.7105789 Z M48.4104474,15.5090658 C47.9307105,15.7198553 47.0965,15.8086711 45.9684737,15.8086711 L44.1888684,15.8086711 C43.3487368,15.8086711 42.8611053,15.4507763 42.8611053,14.6172237 L42.8611053,11.42775 C42.8611053,10.9455132 43.1493947,10.6644605 43.6491316,10.6644605 L47.6292632,10.6644605 C47.8982105,10.6644605 48.1167632,10.8818289 48.1167632,11.1509079 C48.1167632,11.4199868 47.8982105,11.6385395 47.6292632,11.6385395 L44.7768947,11.6385395 C44.5755789,11.6385395 44.4754474,11.7389342 44.4754474,11.9388026 L44.4754474,14.3498553 C44.4754474,14.5511711 44.5755789,14.6514342 44.7768947,14.6514342 L46.5179474,14.6514342 C47.5133421,14.6514342 48.1953158,14.5601184 48.6409737,14.4724868 C48.8429474,14.4322237 48.9804474,14.5163026 49.0097895,14.7036711 C49.0457105,14.92775 48.9442632,15.2741974 48.4104474,15.5090658 Z M50.8145263,19.7106447 C51.0829474,19.7106447 51.3003158,19.9280132 51.3003158,20.1965658 C51.3003158,20.4656447 51.0829474,20.6841974 50.8145263,20.6841974 L45.5853158,20.6841974 C45.2188684,20.6841974 44.9470263,20.5945921 44.7804474,20.4193289 C44.6604474,20.2991974 44.5992632,20.1485395 44.5992632,19.9706447 L44.5992632,17.6435395 C44.5992632,17.1985395 44.9613684,16.8369605 45.4083421,16.8369605 C45.8526842,16.8369605 46.2142632,17.1985395 46.2142632,17.6435395 L46.2142632,19.5106447 C46.2142632,19.5863026 46.2272895,19.6415658 46.2537368,19.6716974 C46.2574211,19.6757763 46.2920263,19.7106447 46.4447895,19.7106447 L50.8145263,19.7106447 Z M52.2782105,13.33525 C52.5471579,13.33525 52.7651842,13.5538026 52.7651842,13.8215658 C52.7651842,14.0911711 52.5471579,14.3090658 52.2782105,14.3090658 L51.3003158,14.3090658 L51.3003158,17.1414342 C51.3003158,17.5906447 50.9363684,17.9545921 50.4871579,17.9545921 C50.0384737,17.9545921 49.6745263,17.5906447 49.6745263,17.1414342 L49.6745263,11.0051184 C49.6745263,10.5563026 50.0384737,10.1924868 50.4871579,10.1924868 C50.9363684,10.1924868 51.3003158,10.5563026 51.3003158,11.0051184 L51.3003158,13.33525 L52.2782105,13.33525 Z" id="Combined-Shape" fill="#00652E"></path>
            </g>
        </g>
    </g>
</svg>