<?xml version="1.0" encoding="UTF-8"?>
<svg width="100px" height="60px" viewBox="0 0 100 60" version="1.1" xmlns="http://www.w3.org/2000/svg" xmlns:xlink="http://www.w3.org/1999/xlink">
    <!-- Generator: Sketch 63 (92445) - https://sketch.com -->
    <title>logo/coffeebean</title>
    <desc>Created with Sketch.</desc>
    <defs>
        <polygon id="path-1" points="0 0.450904478 40.9211642 0.450904478 40.9211642 41.3726955 0 41.3726955"></polygon>
    </defs>
    <g id="logo/coffeebean" stroke="none" stroke-width="1" fill="none" fill-rule="evenodd">
        <g id="Group-74" transform="translate(29.000000, 9.000000)">
            <g id="Group-3" transform="translate(0.000000, 0.175961)">
                <mask id="mask-2" fill="white">
                    <use xlink:href="#path-1"></use>
                </mask>
                <g id="Clip-2"></g>
                <path d="M20.4612716,0.450904478 C9.15951045,0.450904478 -0.000250746269,9.61129254 -0.000250746269,20.9105463 C-0.000250746269,32.2110537 9.15951045,41.3726955 20.4612716,41.3726955 C31.7598985,41.3726955 40.9215403,32.2110537 40.9215403,20.9105463 C40.9215403,9.61129254 31.7598985,0.450904478 20.4612716,0.450904478" id="Fill-1" fill="#452B2E" mask="url(#mask-2)"></path>
            </g>
            <polygon id="Fill-4" fill="#FEFEFE" points="19.9127642 40.6428358 19.9127642 40.6610149 19.8952119 40.6917313 19.8814209 40.7149254 19.8644955 40.74 19.8419284 40.7531642 19.8093313 40.7713433 19.7892716 40.7751045 19.7554209 40.7751045 19.7309731 40.7751045 19.7171821 40.7638209 19.6996299 40.7600597 19.6870925 40.7531642 19.670794 40.7374925 19.6645254 40.7205672 19.6557493 40.7067761 19.6557493 40.6829552 19.6557493 40.6503582 19.6645254 40.6190149 19.6814507 40.5989552 19.7046448 40.5745075 19.7215701 40.5613433 19.7529134 40.5412836 19.7836299 40.5381493 19.8137194 40.5293731 19.8281373 40.5381493 19.8507045 40.5381493 19.8676299 40.5431642 19.8826746 40.5632239 19.8952119 40.5770149 19.9052418 40.5933134 19.9127642 40.6171343"></polygon>
            <polygon id="Fill-6" fill="#FEFEFE" points="18.7575761 39.8298537 18.7857851 39.8574358 18.809606 39.8743612 18.8171284 39.8950478 18.8227701 39.9094657 18.8284119 39.9295254 18.8284119 39.9495851 18.8284119 39.9646299 18.8227701 39.9746597 18.8171284 39.9903313 18.8033373 39.9991075 18.7958149 40.0034955 18.7807701 40.0141522 18.771994 40.0172866 18.7556955 40.0172866 18.7419045 40.0172866 18.7262328 40.0034955 18.7118149 40.0110179 18.7049194 39.9997343 18.6823522 39.9746597 18.6654269 39.9495851 18.6353373 39.9194955 18.6240537 39.903197 18.6071284 39.8850179 18.5858149 39.8743612 18.561994 39.8687194 18.5319045 39.8586896 18.5005612 39.8492866 18.4855164 39.8574358 18.4548 39.8624507 18.4328597 39.8687194 18.4059045 39.880003 18.3827104 39.8950478 18.3664119 39.9194955 18.3576358 39.9351672 18.3469791 39.9495851 18.3469791 39.9646299 18.3469791 39.9803015 18.3469791 40.0110179 18.3526209 40.0285701 18.3576358 40.0505104 18.3720537 40.0655552 18.3958746 40.0831075 18.4178149 40.0918836 18.4573075 40.1200925 18.5958448 40.1714955 18.6284418 40.187794 18.6685612 40.2166299 18.697397 40.2285403 18.7287403 40.2567493 18.7500537 40.2780627 18.7638448 40.3144209 18.771994 40.3294657 18.7782627 40.3470179 18.7782627 40.3677045 18.7782627 40.3821224 18.7726209 40.4285104 18.7638448 40.4604806 18.7469194 40.4962119 18.7287403 40.5294358 18.7049194 40.5588985 18.6823522 40.5820925 18.6485015 40.6015254 18.6165313 40.617197 18.5858149 40.6347493 18.5532179 40.6504209 18.5130985 40.659197 18.4729791 40.6711075 18.4334866 40.6786299 18.3958746 40.6717343 18.3576358 40.6792567 18.3200239 40.6786299 18.2811582 40.6786299 18.2266209 40.6673463 18.170203 40.6529284 18.1100239 40.6347493 18.0868299 40.6247194 18.0642627 40.6134358 18.0373075 40.5933761 18.0228896 40.5764507 18.0053373 40.561406 17.9921731 40.5357045 17.9840239 40.5131373 17.979009 40.4874358 17.9877851 40.4730179 17.9877851 40.4604806 17.9965612 40.4460627 18.0053373 40.4278836 18.0228896 40.4228687 18.0304119 40.4122119 18.0479642 40.4084507 18.0586209 40.4084507 18.0912179 40.4153463 18.1043821 40.4153463 18.1150388 40.4278836 18.1438746 40.4517045 18.1739642 40.4811672 18.1858746 40.5074955 18.2021731 40.5275552 18.2266209 40.5382119 18.2485612 40.5501224 18.2711284 40.5683015 18.2930687 40.5820925 18.3231582 40.5820925 18.3526209 40.598391 18.3889791 40.5871075 18.4159343 40.5820925 18.4466507 40.5739433 18.4729791 40.5526299 18.4949194 40.5382119 18.5130985 40.5087493 18.5319045 40.4780328 18.5319045 40.4604806 18.5319045 40.4479433 18.5337851 40.4278836 18.5275164 40.3996746 18.5193672 40.3827493 18.5055761 40.3677045 18.4823821 40.3633164 18.4648299 40.3445104 18.4328597 40.3225701 18.3093672 40.2824507 18.2598448 40.2617642 18.2266209 40.2354358 18.1858746 40.2109881 18.1601731 40.187794 18.1357254 40.1539433 18.1225612 40.1182119 18.1175463 40.0831075 18.1175463 40.0404806 18.1213075 40.0034955 18.1288299 39.9746597 18.1388597 39.9495851 18.1570388 39.9213761 18.170203 39.8919134 18.1965313 39.8699731 18.2222328 39.8574358 18.2448 39.8386299 18.2761433 39.8217045 18.3037254 39.8072866 18.3363224 39.7934955 18.3720537 39.7891075 18.4059045 39.7803313 18.4441433 39.7753164 18.4767403 39.7684209 18.5130985 39.7709284 18.5657552 39.7803313 18.6177851 39.7840925 18.6654269 39.7934955 18.697397 39.8035254 18.7419045 39.8217045"></polygon>
            <polygon id="Fill-8" fill="#FEFEFE" points="19.3804925 39.6786537 19.3867612 39.6698776 19.3936567 39.6604746 19.4124627 39.6604746 19.4181045 39.6604746 19.425 39.6711313 19.4331493 39.6805343 19.4331493 39.6849224 19.438791 39.6918179 19.3905224 39.9030716 19.5058657 39.9043254 19.5221642 39.9043254 19.5303134 39.9137284 19.5466119 39.9193701 19.5522537 39.9250119 19.5591493 39.9350418 19.5691791 39.9406836 19.564791 39.9594896 19.564791 39.9645045 19.564791 39.9801761 19.564791 39.990206 19.5591493 40.003997 19.5497463 40.0165343 19.5378358 40.0221761 19.5221642 40.0290716 19.5046119 40.0340866 19.4832985 40.0340866 19.3572985 40.0340866 19.2319254 40.5531313 19.2319254 40.5631612 19.2319254 40.5744448 19.2319254 40.5869821 19.2369403 40.5982657 19.2551194 40.6070418 19.2613881 40.6070418 19.2770597 40.6133104 19.2921045 40.6133104 19.3215672 40.6070418 19.3529104 40.5988925 19.3867612 40.5819672 19.4181045 40.5612806 19.4331493 40.5537582 19.4507015 40.5431015 19.4569701 40.5506239 19.4720149 40.5431015 19.4795373 40.5431015 19.4870597 40.5537582 19.4958358 40.5631612 19.5046119 40.5713104 19.5108806 40.5819672 19.5108806 40.5857284 19.5108806 40.6020269 19.5108806 40.6070418 19.5108806 40.624594 19.5014776 40.6302358 19.5014776 40.6477881 19.4870597 40.6534299 19.4519552 40.6847731 19.425 40.7092209 19.383 40.7205045 19.3497761 40.7468328 19.3109104 40.7531015 19.2732985 40.7712806 19.2369403 40.7637582 19.1980746 40.7737881 19.1504328 40.7637582 19.1040448 40.755609 19.065806 40.7499672 19.0488806 40.7399373 19.0344627 40.7305343 19.0288209 40.7148627 19.0112687 40.6973104 19.0043731 40.6916687 18.9981045 40.6797582 18.9981045 40.6534299 18.9874478 40.6371313 18.9981045 40.6170716 18.9981045 40.5932507 19.1504328 40.0290716 19.1009104 40.0290716 19.0846119 40.0290716 19.0720746 40.0171612 19.0551493 40.0221761 19.0457463 40.0140269 19.0407313 40.003997 19.0344627 40.0002358 19.0344627 39.990206 19.0344627 39.9801761 19.0344627 39.9645045 19.0407313 39.9594896 19.0407313 39.9500866 19.0551493 39.9350418 19.065806 39.9294 19.079597 39.9193701 19.0946418 39.9137284 19.1203433 39.9137284 19.1504328 39.8949224 19.1748806 39.8917881 19.205597 39.8742358 19.2306716 39.8623254 19.2438358 39.8447731 19.2682836 39.822206 19.2996269 39.780206 19.3309701 39.7469821 19.3478955 39.7150119 19.3623134 39.6811612"></polygon>
            <polygon id="Fill-10" fill="#FEFEFE" points="17.554997 39.2660507 17.587594 39.2716925 17.6270866 39.2792149 17.6534149 39.293006 17.6835045 39.3036627 17.7066985 39.3124388 17.7336537 39.3324985 17.7562209 39.3538119 17.7781612 39.3744985 17.7919522 39.3920507 17.8164 39.4183791 17.8283104 39.4415731 17.8427284 39.4722896 17.8728179 39.5393642 17.9010269 39.6139612 17.9079224 39.629006 17.9154448 39.629006 17.9198328 39.6390358 17.9273552 39.6484388 17.9499224 39.6509463 17.9643403 39.6484388 17.9844 39.6402896 18.0019522 39.629006 18.0119821 39.6139612 18.0138627 39.6064388 18.0138627 39.5888866 17.9793851 39.222797 17.2133552 39.1024388 17.0748179 39.0729761 16.9839224 39.0591851 16.8992955 39.0466478 16.8303403 39.0347373 16.7701612 39.0297224 16.7049672 39.0278418 16.6460418 39.0278418 16.5808478 39.0297224 16.523803 39.0466478 16.4755343 39.0541701 16.4216239 39.0804985 16.3815045 39.0993045 16.3382507 39.1275134 16.3025194 39.1532149 16.2667881 39.1845582 16.2335642 39.2290657 16.210997 39.2735731 16.1984597 39.3199612 16.1834149 39.3694836 16.1865493 39.4027075 16.1796537 39.4309164 16.1834149 39.4591254 16.1865493 39.4917224 16.1984597 39.5161701 16.2097433 39.5487672 16.2216537 39.5757224 16.229803 39.5970358 16.2536239 39.6183493 16.2736836 39.6446776 16.2924896 39.6609761 16.3094149 39.6810358 16.3332358 39.6960806 16.3670866 39.7104985 16.3927881 39.7192746 16.4216239 39.7236627 16.4642507 39.7305582 16.5106388 39.7236627 16.5476239 39.722409 16.5946388 39.7042299 16.6360119 39.6898119 16.649803 39.671006 16.6610866 39.6603493 16.6798925 39.6484388 16.6924299 39.6258716 16.6924299 39.6089463 16.7049672 39.5857522 16.7024597 39.5644388 16.6993254 39.5324687 16.6861612 39.5117821 16.6736239 39.4867075 16.668609 39.4867075 16.649803 39.4773045 16.6360119 39.4735433 16.6278627 39.4735433 16.6134448 39.4722896 16.5952657 39.4773045 16.5808478 39.4735433 16.565803 39.4867075 16.5476239 39.4917224 16.5388478 39.5086478 16.5012358 39.5324687 16.4843104 39.5462597 16.4655045 39.5594239 16.4485791 39.5644388 16.4285194 39.5663194 16.3865194 39.5531552 16.3670866 39.5412448 16.3464 39.5117821 16.3288478 39.4961104 16.3144299 39.4628866 16.3050269 39.4359313 16.3025194 39.4083493 16.3081612 39.3744985 16.3094149 39.3456627 16.3244597 39.3093045 16.3464 39.2792149 16.3670866 39.2591552 16.3858925 39.2290657 16.4103403 39.2115134 16.4466985 39.1845582 16.4824299 39.1770358 16.5137731 39.1557224 16.5601612 39.1488269 16.6046687 39.1394239 16.649803 39.1325284 16.6993254 39.1325284 16.7532358 39.1331552 16.8084 39.1331552 16.869206 39.1438119 16.9293851 39.1532149 16.9814149 39.1682597 17.0039821 39.1795433 17.0271761 39.1933343 17.041594 39.2008567 17.0610269 39.213394 17.0748179 39.2290657 17.0810866 39.2466179 17.092997 39.2660507 17.0973851 39.287991 17.092997 39.3093045 17.0911164 39.3450358 17.0848478 39.3744985 17.0723104 39.413991 16.738191 40.221394 16.7181313 40.2514836 16.6993254 40.2690358 16.6798925 40.2822 16.6548179 40.2934836 16.6247284 40.2966179 16.5946388 40.3022597 16.5545194 40.2934836 16.5156537 40.2884687 16.5012358 40.2853343 16.4899522 40.2922299 16.4843104 40.2922299 16.4755343 40.2966179 16.4717731 40.314797 16.4642507 40.3323493 16.4655045 40.3492746 16.4642507 40.3762299 16.4667582 40.3824985 16.4755343 40.3931552 16.6385194 40.4100806 16.7218925 40.4232448 16.8084 40.4282597 17.6358627 40.5592746 17.8728179 40.2333045 17.8841015 40.217006 17.8841015 40.2057224 17.8884896 40.1925582 17.8928776 40.1743791 17.8841015 40.1681104 17.8841015 40.1580806 17.8784597 40.1493045 17.8665493 40.137394 17.8577731 40.137394 17.8527582 40.1304985 17.8370866 40.127991 17.8283104 40.1342597 17.8113851 40.1304985 17.8019821 40.137394 17.7875642 40.1430358 17.7781612 40.1580806 17.7129672 40.2113642 17.6477731 40.2621403 17.6139224 40.2822 17.5813254 40.3072746 17.5368179 40.3229463 17.5048478 40.3448866 17.4634746 40.3505284 17.4214746 40.3680806 17.3838627 40.3718418 17.3349672 40.3787373 17.2854448 40.3787373 17.2327881 40.3787373 17.176997 40.3787373 17.1230866 40.3680806 17.0610269 40.3611851 17.032191 40.347394 17.0008478 40.3448866 16.9876836 40.3292149 16.9770269 40.314797 16.9688776 40.3028866 16.9688776 40.2966179 16.9701313 40.2884687 16.9701313 40.2822 17.1425194 39.8571851 17.1876537 39.8622 17.2327881 39.8684687 17.2722806 39.8747373 17.3149075 39.894797 17.3443701 39.9060806 17.3600418 39.9192448 17.3725791 39.9349164 17.3788478 39.9474537 17.3913851 39.9643791 17.3938925 39.9806776 17.4020418 39.9938418 17.3989075 40.0170358 17.3938925 40.0402299 17.3895045 40.0753343 17.3895045 40.0797224 17.3913851 40.0972746 17.3989075 40.1179612 17.4126985 40.1242299 17.4340119 40.1342597 17.4496836 40.137394 17.4766388 40.1342597 17.4829075 40.1242299 17.4841612 40.1198418 17.4954448 40.1054239 17.5048478 40.0884985 17.6747284 39.6609761 17.6772358 39.6484388 17.6772358 39.6402896 17.6784896 39.6327672 17.671594 39.6258716 17.6678328 39.6064388 17.6465194 39.5945284 17.6289672 39.5907672 17.6139224 39.5945284 17.587594 39.6089463 17.5794448 39.6183493 17.5681612 39.629006 17.5493552 39.6553343 17.5236537 39.684797 17.4954448 39.7042299 17.4590866 39.7305582 17.4252358 39.7474836 17.3838627 39.7587672 17.3443701 39.768797 17.3268179 39.7650358 17.3067582 39.7606478 17.1813851 39.7387075 17.3199224 39.4027075 17.3443701 39.3607075 17.3600418 39.3230955 17.3788478 39.2955134 17.3895045 39.2792149 17.3989075 39.2716925 17.4095642 39.2660507 17.4252358 39.260409 17.457206 39.2591552 17.5023403 39.2591552"></polygon>
            <polygon id="Fill-12" fill="#FEFEFE" points="24.2392657 39.7190239 24.2850269 39.7127552 24.3232657 39.704606 24.3521015 39.6914418 24.3865791 39.6845463 24.4135343 39.6789045 24.4423701 39.6550836 24.4611761 39.6325164 24.4868776 39.6137104 24.5031761 39.5974119 24.5169672 39.5823672 24.5295045 39.5529045 24.5401612 39.5278299 24.5464299 39.5115313 24.5558328 39.4770537 24.5514448 39.4538597 24.5558328 39.4306657 24.5514448 39.4118597 24.5489373 39.3867851 24.5401612 39.3698597 24.5351463 39.3498 24.5282507 39.3378896 24.5144597 39.3228448 24.4981612 39.3096806 24.4686985 39.2883672 24.4354746 39.2714418 24.3947284 39.2607851 24.3577433 39.2595313 24.3232657 39.2595313 24.2806388 39.2658 24.2417731 39.2789642 24.2116836 39.2927552 24.1828478 39.3034119 24.1627881 39.3284866 24.1508776 39.3498 24.1427284 39.3535612 24.1377134 39.3698597 24.1326985 39.3924269 24.1345791 39.3961881 24.1377134 39.4187552 24.1508776 39.4500985 24.1533851 39.4632627 24.1627881 39.4770537 24.1627881 39.5027552 24.1533851 39.5190537 24.1508776 39.5416209 24.1377134 39.5616806 24.1151463 39.5754716 24.1032358 39.5823672 24.0812955 39.5905164 24.0474448 39.5974119 24.0330269 39.6018 24.0104597 39.5974119 23.9935343 39.5905164 23.9772358 39.5855015 23.9678328 39.5754716 23.9552955 39.5591731 23.9465194 39.5334716 23.9433851 39.5234418 23.9377433 39.4839493 23.9383701 39.4500985 23.9496537 39.4187552 23.9678328 39.3867851 23.9904 39.3579493 24.0079522 39.3284866 24.0330269 39.3034119 24.060609 39.2827254 24.0963403 39.2526358 24.1251761 39.2413522 24.1627881 39.2225463 24.1997731 39.204994 24.2361313 39.1930836 24.2724896 39.1799194 24.3044597 39.1774119 24.3445791 39.168009 24.4122806 39.1560985 24.4900119 39.1592328 24.522609 39.1623672 24.5514448 39.168009 24.5871761 39.1774119 24.6204 39.1843075 24.6498627 39.1949642 24.6805791 39.2194119 24.7056537 39.2357104 24.7257134 39.2607851 24.7451463 39.284606 24.7639522 39.3128149 24.7802507 39.3498 24.7821313 39.3886657 24.7871463 39.4143672 24.7821313 39.4287851 24.7871463 39.4500985 24.7821313 39.4732925 24.769594 39.4983672 24.7564299 39.5278299 24.7470269 39.5416209 24.7344896 39.5717104 24.7156836 39.5855015 24.6924896 39.6061881 24.6749373 39.6325164 24.6548776 39.6550836 24.5953254 39.6845463 24.5295045 39.7190239 24.5652358 39.7309343 24.5953254 39.7334418 24.6279224 39.741591 24.6548776 39.7472328 24.6780716 39.7585164 24.7037731 39.7685463 24.7225791 39.7804567 24.7395045 39.8036507 24.7564299 39.8161881 24.769594 39.8312328 24.7890269 39.8650836 24.8015642 39.9045761 24.8178627 39.9396806 24.8178627 39.998606 24.8178627 40.040606 24.8084597 40.092009 24.7934149 40.1302478 24.769594 40.1747552 24.7395045 40.2111134 24.7156836 40.2480985 24.6749373 40.2775612 24.6379522 40.3070239 24.5953254 40.329591 24.5514448 40.3609343 24.5106985 40.376606 24.4555343 40.3910239 24.4122806 40.4004269 24.3652657 40.4211134 24.3144896 40.428009 24.2499224 40.4349045 24.1797134 40.4330239 24.1088776 40.4286358 24.0775343 40.428009 24.0455642 40.4148448 24.0211164 40.4004269 23.9935343 40.3929045 23.9678328 40.371591 23.9496537 40.3509045 23.9195642 40.3364866 23.9107881 40.3032627 23.8982507 40.2775612 23.8907284 40.2480985 23.8882209 40.2111134 23.8882209 40.1816507 23.9007582 40.1490537 23.9139224 40.1239791 23.934609 40.0976507 23.9521612 40.0857403 23.9772358 40.0656806 24.0035642 40.0594119 24.0211164 40.0575313 24.0436836 40.0531433 24.060609 40.0656806 24.0775343 40.0750836 24.0888179 40.0794716 24.093206 40.0976507 24.106997 40.1051731 24.1088776 40.1239791 24.1088776 40.1371433 24.1126388 40.1534418 24.1032358 40.1785164 24.0963403 40.2023373 24.0906985 40.2217701 24.093206 40.2355612 24.0963403 40.2518597 24.106997 40.2675313 24.1088776 40.2781881 24.1251761 40.2850836 24.1345791 40.3026358 24.1508776 40.3032627 24.186609 40.3226955 24.2173254 40.3264567 24.2499224 40.3364866 24.2837731 40.3415015 24.3144896 40.3364866 24.3464597 40.329591 24.3759224 40.3183075 24.3947284 40.3032627 24.424191 40.2919791 24.4555343 40.2781881 24.4743403 40.2618896 24.4981612 40.2424567 24.5169672 40.2167552 24.5295045 40.1985761 24.5401612 40.1728746 24.5514448 40.1490537 24.5614746 40.1120687 24.5652358 40.0832328 24.5664896 40.0575313 24.5715045 40.0174119 24.5652358 39.9866955 24.559594 39.9497104 24.5464299 39.9215015 24.5351463 39.9033224 24.522609 39.8682179 24.5075642 39.8575612 24.4900119 39.840009 24.4686985 39.8224567 24.4442507 39.8218299 24.4204299 39.8074119 24.3947284 39.8036507 24.3464597 39.7936209 24.2931761 39.7936209 24.2392657 39.8036507"></polygon>
            <polygon id="Fill-14" fill="#FEFEFE" points="21.1254985 39.5855642 21.1254985 39.5755343 21.1142149 39.5667582 21.1085731 39.5667582 21.1004239 39.5667582 21.0753493 39.5755343 21.0377373 39.5886985 21.0032597 39.5949672 20.9543642 39.6137731 20.8885433 39.6231761 20.8396478 39.6325791 20.7732 39.6401015 20.6421851 39.6444896 20.6359164 39.6507582 20.6302746 39.6507582 20.6139761 39.6601612 20.6052 39.6714448 20.5995582 39.6896239 20.6077075 39.7103104 20.6139761 39.7222209 20.624006 39.7253552 20.6359164 39.7360119 20.6472 39.7360119 20.6854388 39.7360119 20.717409 39.7416537 20.7562746 39.7485493 20.7851104 39.7548179 20.8120657 39.7711164 20.8252299 39.7792657 20.8314985 39.7936836 20.843409 39.8018328 20.843409 39.8162507 20.843409 39.8312955 20.843409 39.8444597 20.6967224 40.5321313 20.6910806 40.5590866 20.6685134 40.5822806 20.6472 40.5979522 20.624006 40.6217731 20.5826328 40.6349373 20.5563045 40.6531164 20.5149313 40.6675343 20.4672896 40.6675343 20.4434687 40.6788179 20.4290507 40.6919821 20.4221552 40.7089075 20.414006 40.7233254 20.4221552 40.7402507 20.4315582 40.7527881 20.4534985 40.7634448 20.4854687 40.771594 20.540006 40.7747284 20.6177373 40.7747284 20.7719463 40.7741015 20.9186328 40.771594 21.0596776 40.7552955 21.0834985 40.7552955 21.0991701 40.7440119 21.1110806 40.7277134 21.1110806 40.7208179 21.1110806 40.7101612 21.1110806 40.7064 21.1110806 40.6951164 21.1060657 40.6882209 21.0966627 40.6794448 21.0878866 40.6712955 21.0734687 40.6675343 21.0502746 40.6593851 21.0302149 40.6499821 21.0032597 40.6499821 20.9794388 40.6443403 20.9581254 40.6280418 20.9418269 40.6173851 20.9261552 40.5979522 20.9261552 40.5766388 20.9167522 40.5534448 20.9205134 40.5296239"></polygon>
            <path d="M21.9559075,39.5886358 L21.9151612,39.5886358 L21.8856985,39.6018 L21.8524746,39.6086955 L21.8342955,39.6287552 L21.7998179,39.6444269 L21.7778776,39.6701284 L21.7559373,39.6807851 L21.7352507,39.7190239 L21.7145642,39.7384567 L21.6963851,39.7754418 L21.6857284,39.8036507 L21.673191,39.8381284 L21.6662955,39.8682179 L21.6600269,39.9033224 L21.6600269,39.9296507 L21.6531313,39.9597403 L21.6662955,40.0167851 L21.6775791,40.0594119 L21.6945045,40.0989045 L21.7020269,40.1183373 L21.7089224,40.1302478 L21.7271015,40.1434119 L21.7434,40.1496806 L21.7584448,40.1578299 L21.7747433,40.1728746 L21.799191,40.1728746 L21.8129821,40.1785164 L21.8443254,40.1747552 L21.8668925,40.1816507 L21.8994896,40.1728746 L21.9295791,40.1728746 L21.9596687,40.1534418 L21.9891313,40.1490537 L22.0211015,40.1277403 L22.0442955,40.1051731 L22.0631015,40.0794716 L22.0862955,40.0575313 L22.1088627,40.0343373 L22.1232806,39.9998597 L22.135191,39.9785463 L22.1521164,39.947203 L22.1583851,39.909591 L22.1608925,39.8744866 L22.1696687,39.844397 L22.1652806,39.8118 L22.1583851,39.7547552 L22.1477284,39.7127552 L22.1289224,39.6713821 L22.1207731,39.6600985 L22.1113701,39.6444269 L22.0956985,39.6287552 L22.0787731,39.6137104 L22.0631015,39.6061881 L22.0399075,39.6018 L22.0211015,39.5905164 L21.9985343,39.5855015 L21.9784746,39.5855015 L21.9559075,39.5886358 L21.9559075,39.5886358 Z M21.6869821,40.7602478 L21.6293104,40.7633821 L21.5728925,40.7552328 L21.5076985,40.7527254 L21.4606836,40.7326657 L21.439997,40.7276507 L21.4155493,40.7100985 L21.3967433,40.6950537 L21.3798179,40.6831433 L21.3660269,40.6674716 L21.3603851,40.6449045 L21.3491015,40.6298597 L21.346594,40.5985164 L21.3541164,40.5740687 L21.3616388,40.5533821 L21.3660269,40.5295612 L21.3860866,40.5132627 L21.4036388,40.4944567 L21.4243254,40.4812925 L21.4468925,40.470009 L21.4807433,40.4681284 L21.5020567,40.4681284 L21.5189821,40.4731433 L21.5352806,40.4875612 L21.5434299,40.5019791 L21.5503254,40.5207851 L21.5597284,40.5414716 L21.5634896,40.5859791 L21.5634896,40.6016507 L21.5728925,40.619203 L21.5804149,40.6348746 L21.598594,40.6474119 L21.6293104,40.661203 L21.6600269,40.6674716 L21.6945045,40.6674716 L21.7239672,40.6674716 L21.7691015,40.661203 L21.8079672,40.6499194 L21.8443254,40.6348746 L21.8856985,40.619203 L21.9214299,40.5935015 L21.9515194,40.5678 L21.9809821,40.5358299 L22.0085642,40.5019791 L22.0317582,40.460606 L22.0499373,40.4211134 L22.0743851,40.376606 L22.0913104,40.3264567 L22.1044746,40.2781881 L22.1289224,40.2286657 L22.1533701,40.1239791 L22.0988328,40.161591 L22.0555791,40.1985761 L22.0016687,40.2286657 L21.9584149,40.2518597 L21.9038776,40.2675313 L21.8593701,40.2781881 L21.8098478,40.2882179 L21.7634597,40.2963672 L21.7321164,40.2919791 L21.6957582,40.2932328 L21.6644149,40.2850836 L21.6299373,40.2819493 L21.6092507,40.2775612 L21.5766537,40.2587552 L21.5547134,40.2480985 L21.5271313,40.2230239 L21.5058179,40.2111134 L21.4857582,40.1879194 L21.4638179,40.1684866 L21.4537881,40.134009 L21.439997,40.1051731 L21.4293403,40.0750836 L21.4243254,40.0437403 L21.4155493,40.0036209 L21.4224448,39.9497104 L21.4243254,39.9045761 L21.439997,39.8494119 L21.4606836,39.8036507 L21.4807433,39.760397 L21.5189821,39.7240388 L21.5484448,39.6801582 L21.5822955,39.6488149 L21.6299373,39.6137104 L21.6775791,39.5855015 L21.7189522,39.5641881 L21.7634597,39.5491433 L21.8173701,39.5278299 L21.8656388,39.5165463 L21.9151612,39.508397 L21.9646836,39.5027552 L22.0198478,39.4983672 L22.0631015,39.4983672 L22.1044746,39.5115313 L22.1427134,39.5165463 L22.182206,39.5322179 L22.2141761,39.5466358 L22.2461463,39.5666955 L22.2781164,39.5886358 L22.3050716,39.6180985 L22.3213701,39.6488149 L22.3464448,39.6845463 L22.3552209,39.7240388 L22.3765343,39.7585164 L22.3853104,39.8074119 L22.3884448,39.8575612 L22.3978478,39.9058299 L22.3947134,39.9866955 L22.3915791,40.0638 L22.3777881,40.1434119 L22.3583552,40.2111134 L22.3295194,40.2850836 L22.3050716,40.3584269 L22.2687134,40.4148448 L22.2254597,40.4831731 L22.1759373,40.5383373 L22.1533701,40.5634119 L22.1207731,40.5872328 L22.0913104,40.6173224 L22.0631015,40.6373821 L22.0342657,40.6530537 L22.0016687,40.6718597 L21.9646836,40.6919194 L21.9295791,40.7088448 L21.897609,40.7238896 L21.8524746,40.7326657 L21.8211313,40.7439493 L21.7747433,40.7470836 L21.7352507,40.7552328 L21.6869821,40.7602478 Z" id="Fill-16" fill="#FEFEFE"></path>
            <path d="M23.1841853,39.9394299 L23.1517425,39.9500866 L23.1135746,39.9500866 L23.0843125,39.9594896 L23.0486891,39.9801761 L23.0308774,39.9989821 L23.0086128,40.0259373 L22.985712,40.0403552 L22.9653558,40.0754597 L22.9437273,40.0992806 L22.9316408,40.1281164 L22.923371,40.1538179 L22.9163736,40.1876687 L22.90874,40.2177582 L22.8998341,40.251609 L22.9049232,40.2823254 L22.8998341,40.3205642 L22.9163736,40.3713403 L22.923371,40.4214896 L22.9437273,40.456594 L22.9545415,40.4779075 L22.9729894,40.4948328 L22.9869843,40.5086239 L23.004796,40.5130119 L23.0213354,40.5293104 L23.0372387,40.5355791 L23.062684,40.5380866 L23.0855848,40.5431015 L23.1091217,40.5412209 L23.1409283,40.5380866 L23.1714626,40.5380866 L23.211539,40.5274299 L23.2446178,40.5148925 L23.2700631,40.5017284 L23.2916916,40.4735194 L23.3139563,40.456594 L23.3343125,40.4227433 L23.3578494,40.3989224 L23.3686637,40.3656985 L23.3813863,40.3443851 L23.3890199,40.3023851 L23.4011064,40.2685343 L23.4055593,40.2359373 L23.4106484,40.2058478 L23.4100123,40.1745045 L23.4055593,40.1431612 L23.4011064,40.0886239 L23.3890199,40.0434896 L23.3635746,40.0108925 L23.3553049,39.9939672 L23.3432184,39.9801761 L23.3266789,39.9714 L23.3114117,39.9594896 L23.2942362,39.9500866 L23.2776967,39.9475791 L23.250343,39.9406836 L23.2312591,39.9406836 L23.1841853,39.9394299 L23.1841853,39.9394299 Z M23.5442362,39.6711313 L23.5206993,39.6686239 L23.4997069,39.6698776 L23.4793507,39.6554597 L23.4691726,39.6397881 L23.4545415,39.625997 L23.4545415,39.6128328 L23.4430911,39.5883851 L23.442455,39.5639373 L23.4367298,39.5413701 L23.4367298,39.518803 L23.4290962,39.4962358 L23.4189181,39.4918478 L23.4106484,39.4805642 L23.3934728,39.4686537 L23.3756611,39.4623851 L23.3374932,39.4504746 L23.303142,39.4542358 L23.2764245,39.4504746 L23.22617,39.4623851 L23.1854575,39.4724149 L23.1581039,39.4918478 L23.1186637,39.5087731 L23.0894016,39.532594 L23.0601395,39.5595493 L23.0346942,39.6021761 L23.0137018,39.6328925 L22.9927095,39.6711313 L22.9729894,39.7150119 L22.9545415,39.7607731 L22.9437273,39.8121761 L22.9316408,39.8623254 L22.9208265,39.9055791 L22.9049232,40.0108925 L22.9405466,39.9645045 L22.9927095,39.9294 L23.0372387,39.9043254 L23.0843125,39.8742358 L23.1282056,39.8585642 L23.1752794,39.8447731 L23.2140835,39.8309821 L23.250343,39.8297284 L23.2827858,39.8259672 L23.3203176,39.822206 L23.3635746,39.8297284 L23.3947451,39.8447731 L23.4360937,39.8491612 L23.4602667,39.8623254 L23.4920733,39.8704746 L23.5168825,39.8848925 L23.5442362,39.9055791 L23.5671369,39.9294 L23.586857,39.9500866 L23.6040326,39.9801761 L23.6218443,40.0108925 L23.6332947,40.0403552 L23.6371115,40.0773403 L23.6498341,40.1180866 L23.6472896,40.1726239 L23.6415644,40.2177582 L23.6320224,40.2622657 L23.620572,40.3149224 L23.5906738,40.3581761 L23.572226,40.3932806 L23.5353303,40.4346537 L23.5054321,40.4685045 L23.4602667,40.5073701 L23.4240072,40.5318179 L23.3794779,40.5531313 L23.3343125,40.5769522 L23.2878748,40.5988925 L23.2325313,40.6070418 L23.1816408,40.6220866 L23.1326586,40.624594 L23.0766789,40.6283552 L23.0213354,40.6283552 L22.9768061,40.6220866 L22.9348214,40.6170716 L22.8953812,40.6020269 L22.8514881,40.5819672 L22.8247705,40.5587731 L22.7948723,40.5380866 L22.7662463,40.5130119 L22.7420733,40.4735194 L22.7223532,40.4465642 L22.7032692,40.4083254 L22.6886382,40.363191 L22.6803685,40.3149224 L22.6663736,40.2685343 L22.663829,40.2177582 L22.6663736,40.1538179 L22.6593761,40.0917582 L22.6663736,40.0221761 L22.6803685,39.9500866 L22.6956357,39.8886537 L22.7223532,39.8121761 L22.7477985,39.7482358 L22.7815135,39.6811612 L22.8241344,39.6291313 L22.8642107,39.5664448 L22.8953812,39.5413701 L22.9176458,39.518803 L22.9469079,39.4918478 L22.9768061,39.4724149 L23.0137018,39.4542358 L23.0410555,39.4291612 L23.0798596,39.4172507 L23.1186637,39.3965642 L23.1581039,39.3884149 L23.1969079,39.3777582 L23.2446178,39.3702358 L23.2827858,39.3702358 L23.3610301,39.3652209 L23.4240072,39.3702358 L23.4583583,39.3777582 L23.4863481,39.3808925 L23.5206993,39.3884149 L23.5442362,39.4003254 L23.5671369,39.4141164 L23.586857,39.4291612 L23.6040326,39.4435791 L23.620572,39.4630119 L23.6415644,39.4805642 L23.6498341,39.4987433 L23.6498341,39.5238179 L23.6593761,39.5488925 L23.6542871,39.5714597 L23.6498341,39.5946537 L23.6415644,39.6090716 L23.6320224,39.6291313 L23.6116662,39.6441761 L23.5906738,39.6604746 L23.5671369,39.6611015 L23.5442362,39.6711313 Z" id="Fill-18" fill="#FEFEFE"></path>
            <path d="M15.4628955,39.4539851 C7.51361194,37.2768806 1.58597015,30.0560149 1.43677612,21.4077761 C1.25435821,10.9040149 9.64746269,2.21314925 20.1537313,2.02885075 C30.6543582,1.84392537 39.3464776,10.2420448 39.5282687,20.7414179 C39.6856119,29.631 33.6984179,37.2204627 25.4914925,39.459 L25.5729851,39.8746119 C33.9767463,37.5990896 40.1143881,29.8322239 39.9520299,20.736403 C39.7664776,10.0007015 30.8775224,1.41765672 20.1437015,1.60446269 C9.40862687,1.79440299 0.828089552,10.679597 1.01489552,21.4159254 C1.17035821,30.2534776 7.21710448,37.6304328 15.3425373,39.8589403 L15.4628955,39.4539851" id="Fill-20" fill="#FEFEFE"></path>
            <path d="M24.8875701,15.0643343 C24.9377194,15.0630806 24.9784657,15.0680955 25.0154507,15.0919164 C25.0066746,15.0825134 24.3923463,15.5006328 24.3158687,15.5307224 C24.0212418,15.658603 23.7065552,15.765797 23.3899881,15.840394 C22.849003,15.975797 22.2296597,15.8968119 21.6805254,15.8441552 C21.2968836,15.8059164 20.9163761,15.7125134 20.5283463,15.7018567 C20.1434507,15.6968418 19.7654507,15.765797 19.3905851,15.8284836 C19.2344955,15.8516776 19.0796597,15.8736179 18.9223164,15.8886627 C18.2716299,15.9482149 17.6203164,15.9218866 16.9702567,15.8472896 C16.5809731,15.8009015 16.087003,15.7758269 15.853809,15.4128716 C16.3891522,15.7156478 17.0906149,15.6761552 17.6710925,15.5495284 C18.4170627,15.3915582 19.092197,15.1652597 19.8676299,15.1947224 C20.4474806,15.2147821 21.0166746,15.322603 21.5946448,15.3614687 C22.4233612,15.4178866 23.245809,15.3395284 24.0682567,15.2342149 C24.2099284,15.2147821 24.3522269,15.2028716 24.491391,15.1709015 C24.5973313,15.1439463 24.7565552,15.070603 24.8875701,15.0643343 M20.0224657,12.5869612 C20.2901373,12.5850806 20.5565552,12.5869612 20.8223463,12.6051403 C21.1439284,12.6164239 21.4692716,12.6270806 21.7927343,12.6502746 C22.1136896,12.6759761 22.4283761,12.7242448 22.7405552,12.7957075 C23.068406,12.8740657 23.3868537,12.9605731 23.6990328,13.0959761 C24.1754507,13.3072299 24.6092418,13.6012299 24.8863164,14.0538269 C25.3013015,14.7377373 25.3702567,15.5438866 25.0593313,16.2735582 C24.9828537,16.4616179 24.8982269,16.6747522 24.7822567,16.8427522 C24.5327642,17.2038269 24.2726149,17.4921851 23.9184358,17.7517075 C23.8018388,17.8382149 23.6595403,17.8952597 23.5278985,17.9560657 C23.2163463,18.0996179 22.8947642,18.2162149 22.5618985,18.3008418 C21.8673313,18.4776179 21.1376597,18.5528418 20.4205254,18.5484537 C19.9911224,18.5484537 19.5717493,18.5233791 19.1461075,18.4788716 C18.4208239,18.3967522 17.7187343,18.2068119 17.0906149,17.8338269 C16.4549731,17.4520657 15.9164955,16.9023045 15.7196597,16.1776478 C15.6400478,15.8924239 15.5679582,15.6103343 15.6049433,15.3113194 C15.6400478,15.0235881 15.7535104,14.7364836 15.900197,14.492006 C16.0255701,14.2826328 16.1829134,14.0256179 16.3647045,13.8607522 C16.595391,13.6488716 16.8687045,13.4056478 17.1476597,13.2614687 C17.8196597,12.9079164 18.5800478,12.7085731 19.3322866,12.6327224 C19.5636,12.6089015 19.7949134,12.596991 20.0224657,12.5869612" id="Fill-22" fill="#FEFEFE"></path>
            <path d="M20.1374328,2.92708657 C20.2421194,2.91454925 20.351194,2.91642985 20.4496119,2.93837015 C20.6138507,2.97159403 20.7122687,3.04242985 20.7636716,3.19601194 C20.7943881,3.29254925 20.7812239,3.45616119 20.6972239,3.52010149 C20.5624478,3.6185194 20.4032239,3.54454925 20.2822388,3.46431045 C20.1719104,3.39347463 20.0565672,3.21481791 19.9098806,3.23926567 C19.7732239,3.26120597 19.7048955,3.46242985 19.6641493,3.57213134 C19.6165075,3.70314627 19.5807761,3.84231045 19.5525672,3.98272836 C19.5155821,4.17705672 19.4760896,4.40084776 19.4760896,4.60144478 C19.5557015,4.63090746 19.6165075,4.62150448 19.6998806,4.63090746 C19.7951642,4.6465791 19.884806,4.67416119 19.9017313,4.78323582 C19.9167761,4.86723582 19.8559701,4.98571343 19.7650746,5.01078806 C19.6785672,5.03460896 19.5870448,5.03899701 19.5005373,5.06595224 C19.4014925,5.09416119 19.4077612,5.14807164 19.394597,5.23583284 C19.3845672,5.30416119 19.3739104,5.37248955 19.3657612,5.44520597 C19.3444478,5.58060896 19.3243881,5.71914627 19.3024478,5.85392239 C19.2723582,6.06266866 19.2441493,6.27392239 19.2309851,6.48392239 C19.2215821,6.61368358 19.2178209,6.74344478 19.2021493,6.87195224 C19.1933731,6.93777313 19.4472537,6.96911642 19.4836119,6.98980299 C19.6440896,7.07881791 19.5469254,7.22362388 19.4184179,7.25308657 C19.2993134,7.28129552 19.1770746,7.29884776 19.0579701,7.32141493 C18.8981194,7.34962388 18.7363881,7.36216119 18.577791,7.39350448 C18.4436418,7.41419104 18.1703284,7.49819104 18.125194,7.31201194 C18.1026269,7.22362388 18.1490149,7.19416119 18.2217313,7.15654925 C18.2938209,7.12019104 18.3527463,7.07756418 18.4085373,7.01926567 C18.5226269,6.89389254 18.5746567,6.74532537 18.5928358,6.57983284 C18.6166567,6.35792239 18.657403,6.13475821 18.6749552,5.90908657 C18.6799701,5.85392239 18.7301194,5.13177313 18.7188358,5.13177313 C18.5890746,5.13177313 18.3640299,5.14932537 18.3665373,4.95562388 C18.367791,4.7562806 18.6323284,4.75377313 18.7577015,4.67854925 C18.8435821,4.63090746 18.8774328,4.52371343 18.8899701,4.43219104 C18.9062687,4.31496716 18.9169254,4.20150448 18.9451343,4.08616119 C18.9952836,3.91063881 19.0623582,3.73511642 19.1513731,3.5765194 C19.3300299,3.25869851 19.5901791,3.05810149 19.9412239,2.96093731 C20.0039104,2.94338507 20.0703582,2.93147463 20.1374328,2.92708657" id="Fill-24" fill="#FEFEFE"></path>
            <path d="M18.1861254,3.20992836 C18.3265433,3.19613731 18.4675881,3.22246567 18.5904537,3.29768955 C18.7578269,3.39924179 18.7728716,3.7935403 18.5747821,3.87127164 C18.4632,3.91076418 18.3334388,3.84494328 18.2444239,3.77912239 C18.1384836,3.70327164 18.0369313,3.51082388 17.884603,3.53151045 C17.7686328,3.54780896 17.6971701,3.69136119 17.6620657,3.79416716 C17.609409,3.95151045 17.5768119,4.13831642 17.5517373,4.30255522 C17.5454687,4.35145075 17.4420358,4.95198806 17.478394,4.95449552 C17.5824537,4.96389851 17.7028119,4.95951045 17.8037373,4.98207761 C18.0475881,5.03473433 17.9629612,5.33186866 17.7517075,5.36007761 C17.6595582,5.37449552 17.5304239,5.36007761 17.4702448,5.45097313 C17.4125731,5.53873433 17.4294985,6.0834806 17.4294985,6.23016716 C17.4294985,6.44392836 17.4044239,6.65455522 17.4188418,6.87019701 C17.426991,7.00121194 17.432006,7.12658507 17.4294985,7.25885373 C17.4294985,7.27828657 17.5874687,7.31151045 17.604394,7.31840597 C17.6689612,7.33783881 17.7335284,7.36792836 17.7799164,7.41619701 C17.8175284,7.45819701 17.8263045,7.53467463 17.7661254,7.56601791 C17.7285134,7.58419701 17.2840657,7.69389851 17.1072896,7.74404776 C17.0044836,7.77351045 16.4384239,7.9496597 16.3889015,7.7816597 C16.3563045,7.66443582 16.4823045,7.62055522 16.5575284,7.56601791 C16.6145731,7.52589851 16.666603,7.48201791 16.7010806,7.42058507 C16.7700358,7.3014806 16.7888418,7.14915224 16.8032597,7.01374925 C16.8277075,6.74545075 16.834603,6.47213731 16.8377373,6.19945075 C16.8396179,6.04336119 16.8540358,5.88601791 16.8540358,5.72930149 C16.8540358,5.69043582 16.8772299,5.62085373 16.8396179,5.59264478 C16.8139164,5.56819701 16.7625134,5.56255522 16.7299164,5.55503284 C16.7111104,5.55252537 16.6810209,5.56255522 16.6609612,5.56255522 C16.638394,5.56443582 16.6170806,5.56443582 16.5945134,5.56255522 C16.5525134,5.55628657 16.5111403,5.5337194 16.4823045,5.50049552 C16.4522149,5.4735403 16.4384239,5.43028657 16.4415582,5.38828657 C16.4415582,5.35318209 16.4578567,5.29362985 16.4823045,5.26228657 C16.586991,5.15321194 16.7800657,5.19897313 16.8822448,5.08676418 C16.9317672,5.0297194 16.9179761,4.94509254 16.9242448,4.87613731 C16.932394,4.71189851 16.974394,4.55016716 16.9994687,4.38592836 C17.0464836,4.08628657 17.1774985,3.79416716 17.3881254,3.57476418 C17.5918567,3.36225672 17.8933791,3.2274806 18.1861254,3.20992836" id="Fill-26" fill="#FEFEFE"></path>
            <path d="M11.744203,5.38803582 C11.7642627,5.38364776 11.7849493,5.38364776 11.8043821,5.38803582 C11.8959045,5.41060299 12.4613373,6.60979701 12.4851582,6.67561791 C12.5014567,6.72639403 12.5177552,6.75961791 12.4788896,6.8072597 C12.4494269,6.83860299 12.3698149,6.87057313 12.3253075,6.85427463 C12.2231284,6.82418507 12.1428896,6.66997612 12.0676657,6.5972597 C11.9880537,6.52203582 11.9071881,6.4493194 11.8137851,6.3910209 C11.6664716,6.29322985 11.496591,6.24558806 11.3216955,6.25499104 C11.2659045,6.26063284 11.2126209,6.26439403 11.1593373,6.27379701 C11.0834866,6.28884179 10.9988597,6.30012537 10.9267701,6.32770746 C10.7938746,6.37597612 10.6916955,6.46373731 10.5976657,6.56215522 C10.5713373,6.58973731 10.5481433,6.61982687 10.5243224,6.64615522 C10.497994,6.67749851 10.4722925,6.71322985 10.4522328,6.74833433 C10.3801433,6.85803582 10.325606,6.98027463 10.2823522,7.10188657 C10.2528896,7.1833791 10.2209194,7.26675224 10.2021134,7.3532597 C10.1262627,7.68612537 10.148203,8.02964776 10.2121433,8.36564776 C10.2716955,8.66215522 10.3381433,8.95803582 10.4904716,9.2232 C10.6108299,9.4332 10.7606507,9.65134925 10.9342925,9.81809552 C11.1154567,9.98860299 11.3104119,10.034991 11.5442328,10.0857672 C11.6746209,10.1089612 11.809397,10.1258866 11.9416657,10.1064537 C12.1391284,10.0801254 12.3629194,9.96039403 12.5058448,9.82687164 C12.6230687,9.71591642 12.6920239,9.5792597 12.7503224,9.43069254 C12.817397,9.26457313 12.8800836,9.08403582 12.8481134,8.90161791 C12.8048597,8.64209552 12.5359343,8.54806567 12.4343821,8.32176716 C12.4017851,8.24967761 12.4068,8.16693134 12.4431582,8.09672239 C12.565397,7.84346866 12.9383821,7.73063284 13.1233075,7.98639403 C13.382203,8.33743881 13.3577552,8.84958806 13.1979045,9.23636418 C13.1452478,9.3673791 13.0737851,9.48899104 13.0067104,9.61499104 C12.9158149,9.77609552 12.7854269,9.91024478 12.6631881,10.0462746 C12.4826507,10.2061254 12.2939642,10.3264836 12.0708,10.4242746 C11.9071881,10.4932299 11.7304119,10.534603 11.5511284,10.538991 C11.3693373,10.548394 11.1869194,10.5277075 11.0107701,10.4857075 C10.6265015,10.3960657 10.2823522,10.1804239 10.0234567,9.88517015 C9.95324776,9.80430448 9.88303881,9.71591642 9.8209791,9.62752836 C9.74826269,9.51657313 9.7006209,9.38994627 9.64733731,9.2652 C9.59906866,9.15549851 9.55957612,9.03827463 9.52823284,8.92042388 C9.43921791,8.58693134 9.42856119,8.22961791 9.4686806,7.88484179 C9.47933731,7.78579701 9.49626269,7.68424478 9.51632239,7.58645373 C9.53826269,7.47612537 9.57399403,7.3733194 9.60596418,7.26612537 C9.7006209,6.95833433 9.86360597,6.69505075 10.0742328,6.45433433 C10.3613373,6.12272239 10.7299343,5.96224478 11.1574567,5.90018507 C11.253994,5.88388657 11.3680836,5.85881194 11.4476955,5.79800597 C11.5398448,5.73030448 11.5442328,5.61057313 11.585606,5.51403582 C11.6094269,5.45448358 11.6765015,5.4012 11.744203,5.38803582" id="Fill-28" fill="#FEFEFE"></path>
            <path d="M20.619806,8.84714328 C21.4472687,8.85717313 22.2734776,8.92048657 23.0833881,9.09600896 C23.7071194,9.22639701 24.315806,9.41132239 24.9138358,9.62947164 C25.3231791,9.77866567 25.7243731,9.94854627 26.1142836,10.1422478 C26.4189403,10.2958299 26.7173284,10.4512925 27.0138358,10.6249343 C27.3548507,10.8468448 27.6870896,11.0762776 28.0061642,11.3301582 C28.8398955,11.9952627 29.6115672,12.7456209 30.261,13.5931433 C30.4459254,13.8338597 30.625209,14.0883672 30.788194,14.3478896 C30.9411493,14.5986358 31.0903433,14.8531433 31.2288806,15.1101582 C31.5184925,15.6517701 31.7535672,16.2002776 31.9742239,16.7663373 C32.2306119,17.416397 32.3948507,18.0996806 32.5127015,18.7873522 C32.5490597,18.9898299 32.5766418,19.1929343 32.5948209,19.3954119 C32.6023433,19.4530836 32.645597,19.6862776 32.6117463,19.7289045 C32.6198955,19.7370537 31.2138358,19.7276507 31.2138358,19.7370537 C31.1994179,19.3615612 31.0903433,18.9885761 31.0088507,18.624994 C30.9223433,18.233203 30.8314478,17.8451731 30.7142239,17.4646657 C30.5123731,16.7995612 30.2290299,16.1651731 29.869209,15.5709045 C29.6805224,15.2574716 29.4849403,14.9534418 29.271806,14.6569343 C28.7232985,13.9034418 28.0776269,13.2126358 27.3586119,12.6221284 C26.788791,12.1513522 26.1531493,11.7206955 25.501209,11.3746657 C24.8304627,11.0160985 24.1114478,10.7647254 23.3711194,10.5841881 C22.2885224,10.3209045 21.2128209,10.1610537 20.0926119,10.2281284 C19.784194,10.2456806 19.4720149,10.2770239 19.1692388,10.3221582 C18.7454776,10.383591 18.3229701,10.4826358 17.9117463,10.5904567 C17.1375672,10.7910537 16.4060149,11.0994716 15.6938955,11.4586657 C15.3528806,11.6329343 15.0407015,11.8479493 14.7216269,12.059203 C14.0508806,12.5086657 13.432791,13.0415015 12.8842836,13.6382776 C12.7288209,13.8069045 12.579,13.9824269 12.4373284,14.1604567 C12.0091791,14.6926657 11.6368209,15.2530836 11.3177463,15.8542478 C11.1961343,16.0836806 11.0770299,16.3137403 10.973597,16.5463075 C10.6601642,17.248397 10.4282239,18.0131731 10.2740149,18.7660388 C10.2295075,18.9854418 10.1937761,19.2092328 10.1687015,19.4342776 C10.1549104,19.558397 10.143,19.6831433 10.1348507,19.806009 C10.1285821,19.8072627 8.70371642,19.8110239 8.70058209,19.806009 C8.68679104,19.7934716 8.70747761,19.7044567 8.70935821,19.6900388 C8.715,19.6323672 8.72189552,19.5778299 8.72941791,19.5170239 C8.76326866,19.2788149 8.78959701,19.0374716 8.81968657,18.7986358 C8.82908955,18.7259194 8.83849254,18.6563373 8.84977612,18.588009 C8.91183582,18.2382179 8.99834328,17.8990836 9.09613433,17.5580687 C9.15380597,17.3643672 9.21461194,17.1763075 9.27541791,16.9882478 C9.4089403,16.5795313 9.60326866,16.1777104 9.78004478,15.7890537 C9.95180597,15.4029045 10.1404925,15.022397 10.353,14.6569343 C10.7642239,13.9423075 11.2726119,13.296009 11.846194,12.7061284 C12.1615075,12.3789045 12.4874776,12.0422776 12.8360149,11.7495313 C13.2829701,11.3771731 13.7292985,11.0160985 14.2251493,10.7108149 C14.9704925,10.257591 15.7553284,9.85702388 16.5733881,9.55424776 C17.4955075,9.21511343 18.5003731,8.98066567 19.4757761,8.89165075 C19.761,8.86782985 20.0468507,8.85278507 20.330194,8.84714328 L20.619806,8.84714328 Z" id="Fill-30" fill="#FEFEFE"></path>
            <path d="M35.4907522,15.0995642 C35.7013791,15.0049075 35.8612299,15.4756836 35.9051104,15.6016836 C35.9477373,15.7220418 36.1426925,16.0392358 36.0016478,16.1526985 C35.9558866,16.1946985 35.8085731,16.1727582 35.7433791,16.1821612 L35.8562149,16.2924896 C35.8562149,16.2924896 35.9684239,16.4090866 35.9690507,16.4090866 C36.1633791,16.6046687 36.3564537,16.7814448 36.4178866,17.0610269 C36.4680358,17.2835642 36.4498567,17.5418328 36.336394,17.7436836 C36.2856179,17.8383403 36.2191701,17.9342507 36.1332896,18.0000716 C36.0461552,18.0684 35.9352,18.077803 35.8311403,18.1122806 C35.7590507,18.1348478 35.6869612,18.1498925 35.6123642,18.1586687 C35.4575284,18.180609 35.291409,18.1831164 35.1359463,18.1912657 C34.8507224,18.2069373 34.5623642,18.1530269 34.278394,18.1831164 C34.1072597,18.2044299 33.928603,18.2332657 33.7580955,18.2790269 C33.6089015,18.3191463 33.5455881,18.3705493 33.4941851,18.5084597 C33.4703642,18.5742806 33.466603,18.642609 33.4835284,18.7084299 C33.5148716,18.8406985 33.6189313,18.9648179 33.7580955,18.9811164 C34.0019463,19.0168478 34.1630507,18.7535642 34.4025134,18.8062209 C34.5372896,18.8325493 34.6137672,18.9572955 34.6231701,19.0851761 C34.6363343,19.2763701 34.5843045,19.4964 34.3743045,19.5327582 C34.2219761,19.5584597 34.0151104,19.5283701 33.867797,19.4838627 C33.5355582,19.384191 33.2622448,19.0926985 33.2064537,18.7466687 C33.1682149,18.5266388 33.1807522,18.2708776 33.2954687,18.0752955 C33.5763045,17.5850866 34.1712,17.5224 34.6764537,17.5029672 C34.982991,17.4923104 35.3509612,17.5681612 35.6412,17.4315045 C35.8041851,17.3594149 35.916394,17.1801313 35.916394,16.999594 C35.9151403,16.901803 35.837409,16.7544896 35.7916478,16.6692358 C35.7364836,16.5695642 35.6612597,16.4799224 35.5653493,16.4134746 C35.3421851,16.2548776 35.0506925,16.234191 34.7867821,16.2448478 C34.5987224,16.248609 34.4119164,16.2780716 34.2244836,16.2975045 C34.0226328,16.3200716 33.8803343,16.290609 33.7925731,16.5018627 C33.7436776,16.6146985 33.6834985,16.6372657 33.5687821,16.5996537 C33.5211403,16.5852358 33.4678567,16.3451463 33.4509313,16.3037731 C33.3882448,16.1251164 33.3293194,15.9426985 33.2647522,15.7646687 C33.224006,15.6505791 33.1061552,15.4850866 33.2898269,15.4581313 C33.3575284,15.4462209 33.4352597,15.5183104 33.4835284,15.5552955 C33.5593791,15.6167284 33.6277075,15.6386687 33.7273791,15.6355343 C34.0420657,15.6305194 34.3554985,15.5991761 34.6676776,15.5728478 C34.8287821,15.5596836 34.988006,15.5277134 35.1484836,15.5070269 C35.2168119,15.4951164 35.3791701,15.4399522 35.3904537,15.4399522 C35.3954687,15.3239821 35.4092597,15.1365493 35.4907522,15.0995642" id="Fill-32" fill="#FEFEFE"></path>
            <polygon id="Fill-34" fill="#FEFEFE" points="37.1610358 20.8200269 37.1610358 22.0781463 2.80691642 22.060594 2.80691642 20.7886836"></polygon>
            <path d="M30.9879134,23.1187433 L32.3739134,23.1187433 C32.3695254,23.857191 31.9012567,24.8056388 31.6229284,25.4876687 C31.2906896,26.3032209 30.8757045,27.0817881 30.3610478,27.7926537 C29.2239134,29.3510418 27.7319731,30.6323552 25.9993164,31.4823851 C24.9537045,31.9976687 23.8334955,32.3606239 22.6869582,32.5775194 C21.8463313,32.7361164 21.0063313,32.7774896 20.153794,32.7574299 C18.1653761,32.5988328 16.2578239,32.1092507 14.5207791,31.1037582 C12.1769284,29.7503552 10.3715552,27.5550716 9.39740597,25.0432209 C9.16233134,24.440803 8.96674925,23.8289821 8.87961493,23.190206 L10.279406,23.194594 L10.3458537,23.3669821 C10.4693463,23.7725642 10.577794,24.1869224 10.7476746,24.5755791 C11.0748985,25.3315791 11.4121522,26.0562358 11.8791672,26.7338776 C12.0139433,26.9250716 12.1512269,27.1150119 12.2941522,27.2986836 C12.6727791,27.7876388 13.1065701,28.234594 13.5579134,28.6508328 C13.9095851,28.9755493 14.2994955,29.2839672 14.7000627,29.5409821 C15.3526299,29.9647433 16.0603612,30.3872507 16.7975552,30.6467731 C19.2103612,31.506206 21.9391075,31.6635493 24.3550478,30.7006836 C25.4646,30.2568627 26.5120925,29.6425343 27.4254358,28.8708627 C28.3287493,28.1073403 29.1004209,27.1952507 29.7040925,26.1778478 C29.9021821,25.8431015 30.0833463,25.4983254 30.2425701,25.1416388 C30.401794,24.7943552 30.5296746,24.4288925 30.6519134,24.067191 C30.7139731,23.8797582 30.7735254,23.6935791 30.8330776,23.5036388 C30.8493761,23.4528627 30.9220925,23.1187433 30.9879134,23.1187433" id="Fill-36" fill="#FEFEFE"></path>
            <path d="M32.2982507,28.0736776 C32.422997,28.0586328 32.5502507,28.0793194 32.6405194,28.1664537 C32.8549075,28.3814687 32.6894149,28.7055582 32.4173552,28.730006 C32.2481015,28.7412896 32.1045493,28.6027522 31.9258925,28.6441254 C31.6099522,28.7199761 31.8425194,29.2584537 31.8995642,29.4302149 C31.9559821,29.606991 32.040609,29.7605731 32.1202209,29.9229313 C32.1684896,30.0194687 32.2123701,30.1172597 32.2637731,30.2125433 C32.254997,30.1918567 32.5383403,30.068991 32.5659224,30.064603 C32.8229373,30.0012896 32.8549075,30.2971701 32.7144896,30.4488716 C32.6662209,30.498394 32.6029075,30.5466627 32.5546388,30.5999463 C32.4342806,30.7315881 32.5784597,30.8820358 32.6392657,31.0086627 C32.7038328,31.1509612 32.7709075,31.2951403 32.8329672,31.4386925 C32.926997,31.6599761 33.043594,31.8718567 33.1545493,32.0881254 C33.1965493,32.1620955 33.2767881,32.3909015 33.3589075,32.4184836 C33.5005791,32.4654985 33.6428776,32.3194388 33.7713851,32.3733493 C33.9995642,32.4673791 33.6460119,32.7500955 33.5776836,32.817797 C33.4353851,32.9644836 33.2849373,33.1067821 33.1476537,33.2584836 C33.0467284,33.3688119 32.9445493,33.4678567 32.8273254,33.5612597 L32.7790567,33.5763045 L32.7489672,33.5612597 L32.7025791,33.5292896 L32.6681015,33.4778866 C32.6593254,33.4697373 32.7307881,33.3293194 32.7351761,33.3098866 C32.7627582,33.218991 32.7790567,33.1230806 32.7771761,33.0240358 C32.7709075,32.8290806 32.7038328,32.6353791 32.6298627,32.4573493 C32.5145194,32.1840358 32.3571761,31.9326627 32.2380716,31.6643642 C32.1634746,31.4919761 32.0882507,31.328991 31.9741612,31.1766627 C31.8444,31.2211701 31.6325194,31.3985731 31.5397433,31.2142746 C31.452609,31.0387522 31.5792358,30.9503642 31.6807881,30.8362746 C31.8130567,30.6845731 31.6826687,30.4087522 31.6375343,30.2438866 C31.5679522,30.0175881 31.4964896,29.7875284 31.4651463,29.5493194 C31.4212657,29.2258567 31.4218925,28.9199463 31.6036836,28.6353493 C31.7265493,28.4447821 31.8801313,28.2554687 32.082609,28.1476478 C32.1434149,28.1125433 32.2198925,28.0855881 32.2982507,28.0736776" id="Fill-38" fill="#FEFEFE"></path>
            <path d="M12.985397,32.1574567 C13.3226507,32.127994 13.6881134,32.2232776 13.9896358,32.3605612 C14.6208896,32.6495463 15.1794269,33.0344418 15.7887403,33.3635463 C16.1203522,33.5415761 16.4782925,33.7133373 16.8431284,33.8167701 C17.0543821,33.8744418 17.2618746,33.8963821 17.4781433,33.9151881 C17.5163821,33.9170687 17.4192179,34.1245612 17.4041731,34.1433672 C17.3452478,34.2110687 17.250591,34.2468 17.1647104,34.2706209 C16.9841731,34.3182627 16.7873373,34.3157552 16.6068,34.2938149 C16.2795761,34.2511881 15.9379343,34.1201731 15.6094567,34.1527701 C15.3756358,34.1753373 15.207009,34.5470687 15.0753672,34.7156955 C14.8402925,35.012203 14.6008299,35.3049493 14.3569791,35.5970687 C14.1143821,35.8866806 13.779009,36.2063821 13.6078746,36.5499045 C13.5514567,36.654591 13.5395463,36.7592776 13.5821731,36.8664716 C13.6323224,36.9843224 13.7846507,37.1899343 13.5677552,37.205606 C13.3853373,37.2225313 13.1784716,37.0507701 13.027397,36.9699045 C12.840591,36.869606 12.6456358,36.7649194 12.4820239,36.6326507 C12.4055463,36.570591 12.187397,36.4696657 12.2319045,36.3455463 C12.2895761,36.1788 12.6757254,36.2684418 12.8029791,36.2389791 C13.0480836,36.1831881 13.1979045,35.8973373 13.3351881,35.7099045 C13.5263821,35.4478746 13.7326209,35.2021433 13.9307104,34.9463821 C14.1237851,34.6937552 14.2993075,34.4210687 14.516203,34.185994 C14.6553672,34.0399343 14.8076955,33.8963821 14.8685015,33.6951582 C14.9261731,33.5083522 14.697994,33.3579045 14.5763821,33.2488299 C14.3870687,33.0770687 14.1820836,32.9247403 13.9639343,32.7974866 C13.6843522,32.6357552 13.3615164,32.515397 13.0368,32.5360836 C12.7083224,32.5605313 12.3967701,32.7416955 12.2864418,33.0639045 C12.1892776,33.3390985 12.2632478,33.7233672 12.5478448,33.855009 C12.8481134,34.0023224 13.1088896,33.7327701 13.2812776,33.5221433 C13.4950388,33.2588597 13.821009,33.626203 13.7915463,33.8832179 C13.718203,34.5050687 12.7033075,34.4129194 12.345994,34.1753373 C12.084591,34.0023224 11.8883821,33.7076955 11.8501433,33.397397 C11.7724119,32.7655164 12.2789194,32.2765612 12.8800836,32.1718746 C12.9139343,32.1643522 12.9484119,32.1587104 12.985397,32.1574567" id="Fill-40" fill="#FEFEFE"></path>
            <path d="M25.6445104,33.2838716 C25.7824209,33.2650657 25.7899433,33.3942 25.7899433,33.4951254 L25.7748985,33.5415134 L25.693406,33.6405582 C25.3862418,33.8875433 25.0038537,34.0680806 24.974391,34.5075134 C24.9649881,34.6535731 24.9649881,34.8002597 24.9530776,34.9438119 C24.9530776,34.9438119 24.937406,35.1375134 24.937406,35.1425284 C24.9073164,35.4942 24.8872567,35.8972746 24.8722119,36.2683791 C24.8621821,36.5009463 24.652809,37.3679015 24.988809,37.4600507 C25.2050776,37.5233642 25.5692866,37.3290358 25.744809,37.2118119 C26.0225104,37.0275134 26.1986597,36.7529463 26.3052269,36.4407672 C26.3340627,36.3586478 26.4280925,35.8327075 26.5484507,35.8327075 L26.612391,35.8327075 C26.612391,35.8327075 26.6575254,35.8458716 26.659406,35.8458716 C26.8863313,35.9242299 26.7408985,36.2740209 26.7408985,36.4608269 C26.7408985,36.6438716 26.7321224,36.8306776 26.7039134,37.0093343 C26.6938836,37.0858119 26.6988985,37.2030358 26.6631672,37.2757522 C26.584809,37.4255731 26.2475552,37.4744687 26.0983612,37.5246179 C25.8576448,37.607991 25.6163015,37.6894836 25.3749582,37.7747373 C25.0076149,37.9007373 24.6296149,38.0110657 24.2497343,38.0956925 C24.1306299,38.1245284 23.5677045,38.3263791 23.5677045,38.0718716 C23.5677045,37.8775433 23.8416448,37.7935433 23.9406896,37.6506179 C24.0522716,37.491394 24.0560328,37.2832746 24.0729582,37.0964687 C24.0961522,36.8469761 24.1199731,36.6018716 24.1281224,36.3511254 C24.1425403,35.8446179 24.1826597,35.3424985 24.2215254,34.8372448 C24.232809,34.7156328 24.2835851,34.5407373 24.1883015,34.4366776 C24.0052567,34.2323194 23.6034358,34.3282299 23.3671075,34.3470358 C23.1069582,34.3645881 22.8474358,34.4147373 22.5941821,34.4874537 C22.1817045,34.6071851 21.7999433,34.8974239 21.7999433,35.3744687 C21.7999433,35.5882299 21.9698239,35.8264388 22.1522418,35.9223493 C22.3384209,36.0163791 22.6311672,35.9618418 22.6637642,35.7154836 C22.7026299,35.4271254 22.8606,35.1431552 23.1940925,35.3048866 C23.4642716,35.4321403 23.387794,35.7731552 23.2241821,35.9643493 C22.7132866,36.5498418 21.5103313,36.3561403 21.4282119,35.517394 C21.3849582,35.097394 21.4952866,34.7074836 21.8413164,34.4548567 C22.1478537,34.2323194 22.5045403,34.1038119 22.874391,34.0235731 C23.6811672,33.8392746 24.4804209,33.7521403 25.2571075,33.4481104 C25.3191672,33.4249164 25.5116149,33.300797 25.6445104,33.2838716" id="Fill-42" fill="#FEFEFE"></path>
            <path d="M36.0557463,23.1823701 C36.0557463,23.1428776 36.0363134,23.1090269 35.9993284,23.0839522 C35.9623433,23.0582507 35.9065522,23.0438328 35.8350896,23.0438328 L35.5498657,23.0438328 L35.5498657,23.3158925 L35.8545224,23.3158925 C35.9892985,23.3158925 36.0557463,23.2701313 36.0557463,23.1823701 L36.0557463,23.1823701 Z M36.3434776,24.0750269 L36.0200149,24.0750269 L35.6921642,23.5641313 L35.5498657,23.5641313 L35.5498657,24.0750269 L35.3003731,24.0750269 L35.3003731,22.8106388 L35.8545224,22.8106388 C36.0124925,22.8106388 36.1278358,22.8394746 36.206194,22.8971463 C36.2801642,22.9554448 36.3190299,23.0438328 36.3190299,23.1635642 C36.3190299,23.2444299 36.3064925,23.308997 36.285806,23.3560119 C36.2626119,23.4086687 36.2262537,23.4506687 36.1773582,23.4788776 C36.1297164,23.5114746 36.0645224,23.5365493 35.9849104,23.5559821 L36.3434776,24.0750269 Z M36.715209,23.4130567 C36.715209,23.2569672 36.6763433,23.1090269 36.5923433,22.9780119 C36.5083433,22.8432358 36.3961343,22.7379224 36.2563433,22.6595642 C36.1184328,22.5818328 35.9661045,22.5429672 35.8043731,22.5429672 C35.6551791,22.5429672 35.5178955,22.5743104 35.3956567,22.6288478 C35.2721642,22.6890269 35.1681045,22.7661313 35.0828507,22.8589075 C34.9994776,22.9516836 34.9342836,23.0544896 34.8910299,23.1685791 C34.8440149,23.2751463 34.8208209,23.3785791 34.8208209,23.4813851 C34.8277164,23.6293254 34.862194,23.7622209 34.9236269,23.8788179 C34.9869403,23.9910269 35.0671791,24.0875642 35.165597,24.1627881 C35.2652687,24.2405194 35.3630597,24.2963104 35.4658657,24.3351761 C35.5674179,24.3652657 35.6583134,24.3865791 35.7435672,24.3865791 C35.9460448,24.3865791 36.1184328,24.3426985 36.2644925,24.2574448 C36.4105522,24.1734448 36.5246418,24.055594 36.603,23.9082806 C36.6782239,23.7603403 36.715209,23.593594 36.715209,23.4130567 L36.715209,23.4130567 Z M36.9985522,23.4450269 C36.9985522,23.5948478 36.9703433,23.7434149 36.915806,23.8857134 C36.8587612,24.0267582 36.7766418,24.1527582 36.6688209,24.2662209 C36.5591194,24.3765493 36.4287313,24.4611761 36.2726418,24.5295045 C36.1152985,24.592191 35.9385224,24.6266687 35.7435672,24.6279224 C35.5818358,24.6279224 35.4276269,24.592191 35.2828209,24.5257433 C35.1392687,24.4574149 35.0107612,24.3646388 34.9016866,24.2511761 C34.787597,24.1345791 34.7029701,24.009206 34.6446716,23.8719224 C34.5863731,23.7358925 34.5569104,23.6036239 34.5569104,23.4738627 C34.5569104,23.3202806 34.5863731,23.1717134 34.6465522,23.0300418 C34.7079851,22.8852358 34.7944925,22.7592358 34.904194,22.6470269 C35.0176567,22.539206 35.1505522,22.4514448 35.3066418,22.3881313 C35.4639851,22.3248179 35.6326119,22.291594 35.8150299,22.291594 C35.9692388,22.291594 36.1215672,22.3210567 36.2644925,22.3781015 C36.4086716,22.4376537 36.5384328,22.5166388 36.6462537,22.6188179 C36.7559552,22.7247582 36.8424627,22.8482507 36.9051493,22.9867881 C36.9665821,23.1290866 36.9985522,23.2789075 36.9985522,23.4450269 L36.9985522,23.4450269 Z" id="Fill-44" fill="#FEFEFE"></path>
            <path d="M4.23253433,14.5960657 C4.30462388,14.6173791 4.33784776,14.7753493 4.32531045,14.8380358 C4.29772836,14.9878567 4.24507164,15.1301552 4.17360896,15.2643045 C4.13787761,15.3357672 4.09086269,15.4028418 4.04635522,15.4711701 L4.02880299,15.4711701 C3.93853433,15.2530209 3.9115791,14.9753194 4.02692239,14.7646925 C4.06014627,14.7038866 4.1435194,14.570991 4.23253433,14.5960657 M5.33519104,11.6899164 C5.35274328,11.6880358 5.37280299,11.6842746 5.39411642,11.6842746 C5.66868358,11.6723642 5.76835522,12.0002149 5.65363881,12.1989313 C5.57653433,12.3362149 5.41668358,12.3011104 5.28754925,12.3011104 C5.22423582,12.3011104 5.10450448,12.4145731 5.06250448,12.4572 C4.99229552,12.5292896 4.94465373,12.6164239 4.91080299,12.7129612 C4.7553403,13.1831104 4.94026567,13.7460358 5.20919104,14.1397075 C5.31199701,14.2895284 5.43737015,14.4456179 5.57214627,14.5659761 C5.67996716,14.2556776 5.69626567,13.9535284 5.91065373,13.6827224 C6.0592209,13.5015582 6.25354925,13.2852896 6.49677313,13.2495582 C7.04214627,13.1680657 7.41262388,13.6827224 7.79375821,13.9848716 C7.85017612,14.0274985 7.91035522,14.0688716 7.97742985,14.0920657 C8.03572836,14.1158866 8.17301194,14.1685433 8.23507164,14.1522448 C8.29713134,14.1340657 8.3472806,14.0883045 8.40996716,14.0713791 C8.47014627,14.0538269 8.5554,14.1340657 8.56354925,14.1867224 C8.5735791,14.2556776 8.52781791,14.3403045 8.50274328,14.4036179 C8.44193731,14.5597075 8.37611642,14.7120358 8.28208657,14.8499463 C8.26014627,14.8856776 8.2175194,14.9552597 8.17301194,14.9665433 C7.99560896,15.0235881 7.68656418,14.7007522 7.55993731,14.608603 C7.42578806,14.5032896 7.30104179,14.3879463 7.17253433,14.2763642 C6.88354925,14.0256179 6.43408657,13.7460358 6.09808657,14.0908119 C5.92068358,14.272603 5.81348955,14.5753791 5.92068358,14.8154687 C5.96519104,14.912006 6.02975821,14.9934985 6.10748955,15.070603 L6.12316119,15.0875284 L6.17080299,15.1019463 C6.19462388,15.1100955 6.29366866,15.0411403 6.32125075,15.0298567 C6.39772836,14.9953791 6.47859403,14.9665433 6.5594597,14.9464836 C6.71931045,14.9051104 6.89169851,14.8906925 7.05781791,14.9063642 C7.31483284,14.9358269 7.56808657,15.0430209 7.75990746,15.2241851 C8.07710149,15.5307224 8.21563881,15.9356776 8.28647463,16.3669612 C8.32910149,16.6202149 8.31217612,16.8759761 8.27142985,17.1292299 C8.23820597,17.3348418 8.19871343,17.5793194 8.08901194,17.7598567 L7.95862388,17.9836478 L7.81381791,18.1955284 C7.51542985,18.5459463 7.13742985,18.7785134 6.67417612,18.8380657 C6.27862388,18.8850806 5.85737015,18.850603 5.48877313,18.6913791 C5.16719104,18.5497075 4.86504179,18.3785731 4.62307164,18.1203045 C4.37483284,17.8513791 4.16984776,17.5260358 3.98617612,17.2107224 C3.88963881,17.044603 3.8112806,16.8728418 3.74107164,16.6979463 L3.72477313,16.6791403 L3.7072209,16.6659761 C3.7072209,16.6659761 3.65142985,16.7205134 3.64516119,16.7280358 C3.41071343,16.960603 3.21074328,17.2201254 3.08035522,17.5222746 C2.98068358,17.7579761 2.86095224,18.1347224 3.0314597,18.365409 C3.11169851,18.472603 3.27656418,18.5685134 3.4132209,18.5578567 C3.5392209,18.5484537 3.63826567,18.4124239 3.6012806,18.2820358 C3.57056418,18.1610507 3.46775821,18.0751701 3.42262388,17.9598269 C3.33862388,17.7435582 3.61632537,17.5028418 3.81504179,17.6263343 C3.92850448,17.6996776 4.01626567,17.8275582 4.04384776,17.9598269 C4.17172836,18.5528418 3.45772836,19.1703045 2.95372836,18.7026627 C2.84214627,18.598603 2.73244478,18.430603 2.69107164,18.2820358 C2.5732209,17.8758269 2.67853433,17.4294985 2.86095224,17.0552597 C2.99948955,16.7662746 3.21074328,16.5205433 3.36683284,16.2403343 C3.48468358,16.0290806 3.54548955,15.7952597 3.57056418,15.5551701 C3.59375821,15.3044239 3.53671343,15.0480358 3.60566866,14.8010507 C3.6595791,14.5985731 3.7473403,14.3547224 3.92850448,14.230603 C4.14163881,14.0770209 4.32531045,14.1033493 4.48453433,14.3070806 C4.53468358,14.3735284 4.55599701,14.4512597 4.57229552,14.5252299 C4.60614627,14.6869612 4.62871343,14.8455582 4.59423582,15.0104239 C4.51963881,15.3432896 4.32029552,15.616603 4.18614627,15.9287821 C3.97614627,16.414603 4.41996716,16.8866328 4.70644478,17.2339164 C4.87131045,17.426991 5.05498209,17.6031403 5.26623582,17.7517075 C5.47184776,17.8952597 5.69877313,18.0099761 5.93635522,18.0814388 C6.17456418,18.1591701 6.42656418,18.1873791 6.67793731,18.1566627 C6.98572836,18.1152896 7.36435522,17.9961851 7.60319104,17.7962149 C7.82635522,17.6075284 7.94107164,17.3185433 8.00501194,17.0402149 C8.09214627,16.6603343 8.06017612,16.2133791 7.85581791,15.8754985 C7.73796716,15.681797 7.54050448,15.5288418 7.33238507,15.448603 C7.22268358,15.4072299 7.10608657,15.3827821 6.99137015,15.3746328 C6.8553403,15.3627224 6.66477313,15.3207224 6.55695224,15.425409 L6.54378806,15.4398269 L6.54378806,15.458006 C6.54378806,15.458006 7.03274328,15.8924239 7.31483284,15.9707821 C7.3555791,15.9331701 7.41513134,15.8472896 7.46841493,15.8334985 C7.53674328,15.8140657 7.64331045,15.8968119 7.67402687,15.9507224 C7.74611642,16.0930209 7.35119104,17.1768716 7.20262388,17.1436478 C7.09793731,17.1192 7.05969851,16.9731403 7.05969851,16.8816179 C7.05969851,16.7380657 7.05342985,16.6603343 6.9355791,16.5694388 C6.74125075,16.414603 6.5394,16.2735582 6.3294,16.1419164 C6.21217612,16.0710806 6.0955791,15.9958567 5.97898209,15.924394 C5.82414627,16.0453791 5.83542985,16.4503343 5.92820597,16.5945134 C6.03853433,16.7719164 6.2015194,16.6747522 6.36325075,16.6565731 C6.54817612,16.6352597 6.65787761,16.7280358 6.68169851,16.9173493 C6.69235522,16.9950806 6.66289254,17.0615284 6.61148955,17.1185731 C6.50429552,17.2257672 6.34381791,17.273409 6.19713134,17.2445731 C5.68874328,17.1543045 5.51196716,16.6327522 5.57904179,16.1726328 C5.59847463,16.0453791 5.63169851,15.8911701 5.70441493,15.7783343 L5.73575821,15.7300657 C5.46056418,15.4849612 5.22110149,15.2191701 5.02426567,14.9044836 C4.9252209,14.7471403 4.84999701,14.5841552 4.78793731,14.4092597 C4.68387761,14.127797 4.62307164,13.8438269 4.59799701,13.5441851 C4.57668358,13.2940657 4.56853433,13.0564836 4.60990746,12.8088716 C4.6694597,12.4540657 4.89575821,11.766394 5.33519104,11.6899164" id="Fill-46" fill="#FEFEFE"></path>
            <path d="M8.06995522,11.1369582 C8.14204478,11.1206597 8.21162687,11.133197 8.28058209,11.161406 C8.30941791,11.175197 8.34514925,11.1896149 8.37085075,11.2084209 C8.41723881,11.2535552 8.36458209,11.3193761 8.33637313,11.3551075 C8.28747761,11.4146597 8.24108955,11.4767194 8.20097015,11.5419134 C8.11320896,11.6685403 8.0229403,11.7888985 7.9351791,11.912391 C7.88314925,11.9800925 7.83237313,12.052809 7.78222388,12.1205104 C7.65559701,11.8779134 7.59541791,11.5130776 7.81419403,11.2961821 C7.8950597,11.2121821 7.9809403,11.1570179 8.06995522,11.1369582 M8.39592537,10.6592866 C8.46738806,10.6542716 8.54010448,10.6592866 8.61219403,10.6762119 C8.70371642,10.7000328 9.07544776,10.8210179 9.12622388,10.9476448 L9.11870149,10.965197 L7.99222388,12.509794 C7.97592537,12.5311075 8.14455224,12.7417343 8.16649254,12.7674358 C8.23607463,12.8476746 8.31255224,12.9228985 8.39592537,12.9887194 C8.55891045,13.1216149 8.7751791,13.2031075 8.9889403,13.168003 C9.21335821,13.1285104 9.45908955,12.9648985 9.53368657,12.7436149 C9.60891045,12.5279731 9.51926866,12.286003 9.39326866,12.1079731 C9.27729851,11.9468687 9.05162687,11.8177343 9.17135821,11.5845403 C9.23843284,11.4579134 9.39953731,11.3475851 9.54685075,11.3833164 C9.75935821,11.4453761 9.90102985,11.7030179 9.93550746,11.9042418 C9.98314925,12.173794 9.91670149,12.4847194 9.81076119,12.7354657 C9.54685075,13.3742418 8.86168657,13.858809 8.18091045,13.5478836 C7.62613433,13.2977642 7.22243284,12.8326299 7.20049254,12.206391 C7.19673134,12.0634657 7.21867164,11.9255552 7.25064179,11.7845104 C7.3308806,11.4403612 7.57535821,11.0698836 7.85619403,10.858003 C8.01416418,10.7432866 8.20097015,10.6674358 8.39592537,10.6592866" id="Fill-48" fill="#FEFEFE"></path>
            <path d="M14.7729672,5.79330448 C14.7911463,5.79079701 14.8118328,5.79017015 14.8287582,5.79017015 C15.0469075,5.79017015 15.1967284,5.99452836 15.2700716,6.1782 C15.3791463,6.44963284 15.4343104,6.73109552 15.4343104,7.02885672 C15.4324299,7.14858806 15.4418328,7.26706567 15.4343104,7.38491642 C15.4286687,7.48834925 15.4023403,7.58864776 15.3885493,7.68894627 C15.3440418,7.96727463 15.1309075,8.42049851 14.7798627,8.37849851 C14.6200119,8.35279701 14.4720716,8.24309552 14.3849373,8.1083194 C14.1699224,7.77796119 14.1103701,7.33288657 14.1141313,6.95049851 C14.1147582,6.70163284 14.1674149,6.38255821 14.2915343,6.17130448 C14.3843104,6.0083194 14.5773851,5.82464776 14.7729672,5.79330448 M15.0136836,5.45228955 C15.4631463,5.47172239 15.8881612,5.75005075 16.0373552,6.17945373 C16.1376537,6.47345373 16.1903104,6.75052836 16.1715045,7.0620806 C16.159594,7.26142388 16.1207284,7.4563791 16.0561612,7.64569254 C16.0097731,7.78172239 15.9383104,7.91524478 15.851803,8.02996119 C15.7220418,8.20485672 15.5759821,8.37849851 15.3885493,8.49258806 C15.2224299,8.59351343 15.0299821,8.65996119 14.8400418,8.68503582 C14.4601612,8.7383194 14.0959522,8.68252836 13.812609,8.40733433 C13.635206,8.23557313 13.5342806,8.04124478 13.4502806,7.81745373 C13.3882209,7.6500806 13.3531164,7.48396119 13.3380716,7.30843881 C13.3111164,6.98999104 13.3913552,6.66088657 13.541803,6.38067761 C13.6696836,6.14560299 13.8470866,5.97196119 14.0614746,5.81022985 C14.2934149,5.63345373 14.6300418,5.47046866 14.9284299,5.45354328 C14.9560119,5.45228955 14.9829672,5.45228955 15.0136836,5.45228955" id="Fill-50" fill="#FEFEFE"></path>
            <path d="M24.501609,5.35343284 C24.6426537,5.3559403 24.8031313,5.38352239 24.8971612,5.48507463 C24.9767731,5.57032836 25.0118776,5.68253731 24.9842955,5.79349254 C24.9842955,5.79349254 24.9705045,5.85241791 24.9673701,5.85555224 C24.9648627,5.87686567 23.9299075,5.63802985 23.9198776,5.64868657 C24.0458776,5.47504478 24.2057284,5.36346269 24.4314,5.35343284 L24.501609,5.35343284 Z M24.1950716,5.01367164 C24.3354896,5.01053731 24.4740269,5.02495522 24.613191,5.05191045 C24.757997,5.08262687 24.8946537,5.1258806 25.033191,5.18041791 C25.2770418,5.27758209 25.5190119,5.51391045 25.5873403,5.77029851 C25.6412507,5.98468657 25.6569224,6.18277612 25.5334299,6.37459701 L25.4989522,6.40468657 C25.4989522,6.40468657 23.6741463,6.0078806 23.6484448,6.00349254 C23.6233701,5.99722388 23.5224448,6.20910448 23.5174299,6.22289552 C23.4378179,6.38086567 23.3826537,6.55638806 23.3688627,6.73629851 C23.3544448,6.93564179 23.3920567,7.1581791 23.5425045,7.30110448 C23.7637881,7.51486567 24.0809821,7.56250746 24.3655791,7.43964179 C24.5172806,7.3738209 24.5774597,7.266 24.613191,7.10865672 C24.6658478,6.87922388 24.7667731,6.67047761 25.0444746,6.74570149 C25.1936687,6.78268657 25.3234299,6.87922388 25.327191,7.04659701 C25.3284448,7.14501493 25.2444448,7.29671642 25.1848925,7.37131343 C25.1115493,7.46910448 25.0012209,7.5361791 24.8902657,7.59134328 C24.6526836,7.70856716 24.379997,7.77313433 24.1123254,7.76185075 C23.8120567,7.75307463 23.4835791,7.69164179 23.2422358,7.49856716 C23.0886537,7.37319403 22.9639075,7.21146269 22.8774,7.03280597 C22.7463851,6.77829851 22.7545343,6.4899403 22.8140866,6.21035821 C22.8604746,5.99910448 22.933191,5.77531343 23.068594,5.60355224 C23.3074299,5.30077612 23.665997,5.06570149 24.0527731,5.02244776 C24.1004149,5.01868657 24.1461761,5.01367164 24.1950716,5.01367164 L24.1950716,5.01367164 Z" id="Fill-52" fill="#FEFEFE"></path>
            <path d="M29.253,7.9980408 C29.3833881,8.02751642 29.4981045,8.14975522 29.5965224,8.22999403 C29.6855373,8.29832239 29.7670299,8.37793433 29.8347313,8.46757612 C29.9519552,8.63306866 29.9876866,8.82990448 29.9256269,9.02235224 C29.8585522,9.22294925 29.701209,9.39157612 29.5150299,9.48936716 C29.3263433,9.58778507 29.1069403,9.6109791 28.9069701,9.54139701 C28.6844328,9.46366567 28.5051493,9.30318806 28.3371493,9.14208358 C28.3321343,9.13832239 28.2349701,9.0468 28.2381045,9.0468 C28.473806,8.7766209 28.7051194,8.5026806 28.9627612,8.25694925 C29.0223134,8.19990448 29.2373284,7.99617313 29.253,7.9980408 M30.6559254,6.74369552 C30.8314478,6.71924776 31.0025821,6.76187463 31.0878358,6.93551642 C31.1843731,7.11856119 31.2138358,7.38184478 31.1110299,7.56802388 C30.9812687,7.81438209 30.6590597,8.07139701 30.3663134,8.06575522 C30.2171194,8.0588597 30.0654179,8.00244179 29.9331493,7.93348657 C29.9256269,7.93160597 29.5520149,7.69088955 29.5576567,7.67709851 C29.7419552,7.37306866 29.9801642,7.12482985 30.261,6.90417313 C30.3612985,6.82644179 30.5092388,6.75936716 30.6559254,6.74369552 M27.8682537,4.84429254 C28.1359254,4.82172537 28.4086119,4.8888 28.6643731,4.95963582 C29.1476866,5.09002388 29.5557761,5.35205373 29.9601045,5.63351642 C30.0785821,5.71438209 30.195806,5.79838209 30.3149104,5.87987463 C30.5462239,6.03659104 30.7819254,6.18202388 30.9931791,6.36318806 C31.1762239,6.52241194 31.3630299,6.67599403 31.5097164,6.87220299 L31.6538955,7.09850149 C31.7855373,7.38184478 31.9040149,7.67709851 31.8444627,7.99366567 C31.7711194,8.37793433 31.3555075,8.68008358 30.9768806,8.69324776 C30.8364627,8.70014328 30.7110896,8.69199403 30.5750597,8.66002388 L30.541209,8.66002388 C30.5800746,8.89948657 30.639,9.1489791 30.6076567,9.39157612 C30.5800746,9.59593433 30.4860448,9.77835224 30.326194,9.90999403 C30.1450299,10.0610687 29.948194,10.1720239 29.7081045,10.1764119 C29.4128507,10.1851881 29.0467612,10.0899045 28.7859851,9.95324776 C28.6856866,9.89682985 28.5916567,9.83226269 28.4919851,9.77584478 C28.3133284,9.67178507 28.137806,9.53638209 27.9710597,9.40912836 C27.7949104,9.27560597 27.6162537,9.14082985 27.4363433,9.01106866 C27.2520448,8.87942687 27.0545821,8.72208358 26.8483433,8.63181493 C26.7624627,8.58730746 26.835806,8.47133731 26.8809403,8.42306866 C26.9862537,8.31211343 27.2733582,8.52900896 27.3943433,8.54969552 C27.6099851,8.58730746 29.6454179,6.44906866 29.6780149,6.30551642 C29.7068507,6.1707403 29.7200149,6.02405373 29.6209701,5.92312836 C29.3539254,5.64166567 29.0555373,5.4109791 28.697597,5.25677015 C28.3735075,5.12199403 27.9334478,5.08688955 27.6225224,5.27682985 C27.3830597,5.42539701 27.2520448,5.84038209 27.4363433,6.07921791 C27.5742537,6.26163582 27.7867612,6.13877015 27.9691791,6.12309851 C28.1541045,6.11118806 28.3177164,6.18202388 28.3415373,6.3807403 C28.3496866,6.46536716 28.2876269,6.60515821 28.2431194,6.67035224 C28.1860746,6.74620299 28.1039552,6.79259104 28.0099254,6.80951642 C27.8337761,6.84587463 27.5786418,6.78945672 27.418791,6.71047164 C27.2263433,6.62145672 27.0871791,6.45408358 27.0113284,6.2547403 C26.9361045,6.05915821 26.9066418,5.81593433 26.9423731,5.60656119 C26.9781045,5.40408358 27.1128806,5.15584478 27.288403,5.03799403 C27.4100149,4.95336716 27.5686119,4.90196418 27.7134179,4.8668597 C27.7629403,4.85494925 27.8162239,4.85056119 27.8682537,4.84429254" id="Fill-54" fill="#FEFEFE"></path>
            <path d="M32.0711373,10.1801104 C32.245406,10.1669463 32.4240627,10.1794836 32.572003,10.2810358 C32.7111672,10.3775731 32.8641224,10.5894537 32.8026896,10.7649761 C32.7845104,10.8138716 32.6867194,10.937991 32.6403313,10.9561701 C32.6403313,10.9730955 31.8931075,10.2064388 31.8931075,10.2064388 C31.9520328,10.1951552 32.0122119,10.187006 32.0711373,10.1801104 M31.5715254,9.6222 C31.610391,9.61906567 31.6492567,9.61279701 31.6906299,9.61279701 C32.1319433,9.5983791 32.5920627,9.83972239 32.8785403,10.1719612 C32.9525104,10.2597224 33.0465403,10.3713045 33.089794,10.4784985 C33.1587493,10.6502597 33.2402418,10.8138716 33.2352269,11.0050657 C33.2295851,11.2263493 33.127406,11.5009164 32.9431075,11.6331851 C32.8528388,11.6983791 32.7895254,11.703394 32.702391,11.6262896 C32.6165104,11.5491851 31.5307791,10.4559313 31.4774955,10.3543791 C31.2135851,10.4314836 30.9352567,10.6446179 30.7854358,10.8753045 C30.6757343,11.0451851 30.6268388,11.2796328 30.6983015,11.4695731 C30.7685104,11.6726776 30.9590776,11.857603 31.1603015,11.9271851 C31.3997642,12.006797 31.5332866,11.8977224 31.7050478,11.754797 C31.8128687,11.6632746 32.044809,11.5441701 32.1795851,11.6407075 C32.2604507,11.6977522 32.3062119,11.8224985 32.3181224,11.9171552 C32.3626299,12.2863791 32.0122119,12.407991 31.7031672,12.3716328 C31.4950478,12.3490657 31.2944507,12.3089463 31.1076448,12.212409 C30.9220925,12.1146179 30.7522119,11.987991 30.6048985,11.8431851 C30.5672866,11.8018119 30.5271672,11.7591851 30.4920627,11.7153045 C30.3911373,11.5893045 30.3215552,11.4426179 30.2833164,11.2852746 C30.2607493,11.1962597 30.2312866,11.0928269 30.229406,11.0019313 C30.229406,10.937991 30.229406,10.8753045 30.2400627,10.8138716 C30.2513463,10.7493045 30.2626299,10.681603 30.2833164,10.6195433 C30.346003,10.4452746 30.4274955,10.2929463 30.5522418,10.1550358 C30.6983015,9.9983194 30.8575254,9.87670746 31.0512269,9.78643881 C31.102003,9.75760299 31.1540328,9.73817015 31.2073164,9.71560299 C31.3239134,9.66984179 31.4455254,9.63599104 31.5715254,9.6222" id="Fill-56" fill="#FEFEFE"></path>
            <path d="M32.6178269,13.1191701 C32.6554388,13.1097672 32.6980657,13.106006 32.7438269,13.1135284 C32.8221851,13.1285731 32.9055582,13.1530209 32.9776478,13.1881254 C33.134991,13.2639761 33.2409313,13.3818269 33.363797,13.5059463 C33.4578269,13.604991 33.5612597,13.6946328 33.6703343,13.7811403 C33.6872597,13.7968119 33.7048119,13.7968119 33.7142149,13.8269015 C33.7223642,13.8488418 33.3945134,13.9209313 33.3644239,13.9234388 C33.2277672,13.9422448 33.0854687,13.9391104 32.9525731,13.8958567 C32.7582448,13.8375582 32.4937075,13.6864836 32.4385433,13.4727224 C32.3971701,13.3147522 32.4742746,13.1586627 32.6178269,13.1191701 M33.6183045,12.1469015 C33.6985433,12.1268418 33.7900657,12.130603 33.8590209,12.1581851 C34.2978269,12.3149015 34.5968418,12.7010507 34.8312896,13.0815582 C34.9278269,13.2332597 34.982991,13.4257075 35.0061851,13.604991 C35.0224836,13.7460358 35.0325134,13.9209313 34.9541552,14.0488119 C34.7742448,14.3522149 34.3210209,14.4525134 34.0113493,14.5440358 C33.8352,14.5985731 33.6515284,14.6242746 33.4916776,14.7214388 C33.4120657,14.7703343 33.401409,14.8530806 33.4045433,14.9358269 C33.4045433,14.9753194 33.4590806,15.1332896 33.3863642,15.1953493 C33.312394,15.2530209 33.0892299,15.0787522 33.0422149,15.0279761 C32.8698269,14.8443045 32.7043343,14.5615881 32.8272,14.3120955 L32.8434985,14.2807522 L32.8434985,14.249409 L32.668603,14.1679164 L32.4918269,14.0713791 C32.4918269,14.0713791 32.3501552,13.9623045 32.3470209,13.9579164 C32.0824836,13.7554388 31.8154388,13.413797 31.8179287,13.068394 C31.8198269,12.7957075 32.010394,12.6051403 32.2705433,12.5556179 C32.4836776,12.5136179 32.6955582,12.5017075 32.8980358,12.596991 C33.0986328,12.6910209 33.2647522,12.8546328 33.4133194,13.0144836 C33.596991,13.2069313 33.7643642,13.413797 33.951797,13.6012299 C34.0890806,13.7385134 34.2627224,13.7604537 34.4388716,13.7021552 C34.661409,13.6281851 34.6093791,13.2577075 34.5247522,13.1097672 C34.4401254,12.9643343 34.3084836,12.8051104 34.1367224,12.770006 C33.9304836,12.7298866 33.596991,12.9229612 33.4722448,12.6709612 C33.4220955,12.5719164 33.3575284,12.4076776 33.4089313,12.3011104 C33.4496776,12.2183642 33.5292896,12.1707224 33.6183045,12.1469015" id="Fill-58" fill="#FEFEFE"></path>
            <path d="M10.2792806,30.0644776 C10.4008925,30.062597 10.5212507,30.1027164 10.6177881,30.207403 C10.9193104,30.5302388 10.4441463,30.7985373 10.1514,30.7903881 C9.93575821,30.7834925 9.74205672,30.6932239 9.55399701,30.5973134 C9.53393731,30.5866567 9.70068358,30.3666269 9.71510149,30.347194 C9.79596716,30.2657015 9.89563881,30.1998806 9.99531045,30.1428358 C10.086206,30.095194 10.1833701,30.0676119 10.2792806,30.0644776 M8.12348955,30.818597 C8.23820597,30.8160896 8.42187761,30.818597 8.47516119,30.87 L8.48895224,30.8875522 C8.50587761,30.9032239 8.42689254,31.1182388 8.42187761,31.1433134 C8.38990746,31.2586567 8.35981791,31.3808955 8.33223582,31.5056418 C8.27832537,31.7463582 8.23820597,31.9958507 8.21814627,32.2453433 C8.21563881,32.2848358 8.20247463,32.7067164 8.2175194,32.7067164 L8.10342985,32.689791 C7.9272806,32.6672239 7.70035522,32.452209 7.58501194,32.3249552 C7.43393731,32.1644776 7.33238507,31.9419403 7.31483284,31.7200299 C7.29916119,31.4523582 7.44898209,31.1395522 7.6552209,30.9778209 C7.77119104,30.8925672 7.90784776,30.8361493 8.0514,30.8261194 C8.06769851,30.8242388 8.09277313,30.8211045 8.12348955,30.818597 M9.93889254,29.7247164 C10.2592209,29.6814627 10.5858179,29.7692239 10.7970716,30.0237313 C10.9437582,30.2036418 11.0835493,30.3992239 11.0459373,30.6468358 C11.014594,30.8612239 10.8183851,31.0862687 10.6083851,31.1583582 C10.3551313,31.238597 10.0780567,31.192209 9.82104179,31.1508358 C9.6474,31.122 9.47375821,31.0887761 9.29510149,31.0618209 C9.23868358,31.0549254 9.0995194,31.3614627 9.08071343,31.4072239 C9.01614627,31.5501493 8.9735194,31.7062388 8.93653433,31.8610746 C8.88074328,32.1143284 8.83372836,32.4014328 8.82996716,32.6590746 C8.82683284,32.8471343 9.07381791,32.769403 9.20169851,32.7455821 C9.37847463,32.718 9.54898209,32.6302388 9.65993731,32.484806 C9.80223582,32.2973731 9.91444478,31.9594925 10.2084448,31.9814328 C10.2949522,31.9877015 10.4491612,32.1231045 10.4961761,32.1939403 C10.5532209,32.2848358 10.548206,32.3838806 10.5043254,32.4804179 C10.4178179,32.6728657 10.2209821,32.7982388 10.034803,32.8797313 C9.80787761,32.9800299 9.57593731,33.0270448 9.33459403,33.0753134 C9.15969851,33.1047761 8.98605672,33.1254627 8.81366866,33.156806 C8.81366866,33.156806 8.79674328,33.2351642 8.79674328,33.2376716 C8.74910149,33.4909254 8.9114597,33.9334925 9.22426567,33.9021493 C9.45871343,33.8770746 9.72011642,33.5410746 9.93889254,33.8125075 C10.0254,33.9190746 10.0479672,34.1522687 9.9595791,34.2563284 C9.79220597,34.4550448 9.44429552,34.379194 9.23931045,34.3071045 C8.89202687,34.1836119 8.61056418,33.9334925 8.46074328,33.6006269 C8.39993731,33.4652239 8.38426567,33.3141493 8.32972836,33.1756119 L8.29963881,33.1279701 C7.8012806,32.9261194 7.3192209,32.7267761 7.0214597,32.2516119 C6.83904179,31.9594925 6.69925075,31.6021791 6.74438507,31.2536418 C6.81772836,30.6700299 7.18507164,30.2625672 7.78184776,30.1917313 C8.03008657,30.1622687 8.28208657,30.1917313 8.52781791,30.2274627 C8.6412806,30.2475224 8.74910149,30.2782388 8.86381791,30.2813731 C8.99420597,30.2832537 9.02680299,30.2036418 9.11832537,30.1215224 C9.19292239,30.0600896 9.26689254,30.0024179 9.34650448,29.9491343 C9.51199701,29.8494627 9.6912806,29.764209 9.88310149,29.7322388 C9.90065373,29.7278507 9.92008657,29.7253433 9.93889254,29.7247164" id="Fill-60" fill="#FEFEFE"></path>
            <path d="M16.1086925,35.5856597 C16.2610209,35.5800179 16.4214985,35.6226448 16.5318269,35.7279582 C16.6446627,35.8263761 16.754991,36.0570627 16.6076776,36.1717791 C16.2804537,36.0633313 15.9419463,35.976197 15.6115881,35.882794 C15.6115881,35.882794 15.6893194,35.7837493 15.6899463,35.7837493 C15.7908716,35.6533612 15.9488418,35.5881672 16.1086925,35.5856597 M15.7720657,35.2653313 C16.0491403,35.2440179 16.3331104,35.2922866 16.5982746,35.4001075 C16.8433791,35.4941373 17.0590209,35.6872119 17.1856478,35.9229134 C17.258991,36.0608239 17.2909612,36.228197 17.2790507,36.3849134 C17.2721552,36.4237791 17.193797,36.7666746 17.1242149,36.7503761 C16.6578269,36.6362866 16.2102448,36.466406 15.7482448,36.3347642 C15.635409,36.3015403 15.4517373,36.2225552 15.3351403,36.2419881 C15.1715284,36.2708239 15.0630806,36.5936597 15.0229612,36.7309433 C14.9558866,36.9516 14.9502448,37.1960776 15.0737373,37.4010627 C15.2699463,37.7282866 15.7156478,37.824197 16.0184239,37.5816 C16.204603,37.4298985 16.2215284,37.0982866 16.4472,37.0092716 C16.6778866,36.9152418 16.9361552,37.1747642 16.8972896,37.3985552 C16.8433791,37.6919284 16.4841851,37.866197 16.2284239,37.9370328 C15.914991,38.0241672 15.5507821,38.0003463 15.2454985,37.8881373 C14.8775284,37.7596299 14.5314985,37.4869433 14.4312,37.0938985 C14.1992597,36.2024955 14.8706328,35.3374209 15.7720657,35.2653313" id="Fill-62" fill="#FEFEFE"></path>
            <path d="M19.1545701,37.2648448 C19.0981522,37.6710537 18.7552567,38.0590836 18.3289881,38.0515612 C18.2004806,38.0490537 17.9867194,38.0515612 17.9177642,37.9205463 C17.8456746,37.7832627 17.9842119,37.5713821 18.0995552,37.5024269 C18.259406,37.4008746 18.4480925,37.3513522 18.632391,37.3269045 C18.6975851,37.320009 19.145794,37.3269045 19.1545701,37.2648448 M18.6392866,35.8769642 C18.6455552,35.8769642 18.6524507,35.8769642 18.6580925,35.8744567 C19.1677343,35.8368448 20.0729284,36.0631433 20.0309284,36.7194716 C20.0071075,37.0980985 19.8021224,37.4090239 19.6811373,37.7594418 C19.6516746,37.8459493 19.6071672,37.9694418 19.6397642,38.0603373 C19.6679731,38.1493522 19.8246896,38.1656507 19.8698239,38.2427552 C19.9325104,38.3443075 19.8510179,38.4258 19.7588687,38.477203 C19.5946299,38.5699791 19.3789881,38.5624567 19.2059731,38.5010239 C19.1326299,38.4715612 19.0793463,38.4427254 19.0204209,38.3856806 C18.9978537,38.360606 18.8900328,38.1825761 18.847406,38.2026358 C18.6073164,38.2985463 18.4104806,38.406994 18.1434358,38.4427254 C17.8933164,38.4715612 17.6118537,38.4464866 17.3836746,38.3411731 C16.8821821,38.1073522 17.1573761,37.4510239 17.4827194,37.2009045 C17.7516448,36.9965463 18.1384209,37.0046955 18.4631373,36.9846358 C18.7026,36.9670836 18.982809,36.978994 19.1846597,36.8310537 L19.3620627,36.7019194 C19.4648687,36.4518 19.3125403,36.2568448 19.0724507,36.1841284 C18.8950478,36.1415015 18.6925701,36.1145463 18.5339731,36.2242478 C18.389794,36.3301881 18.389794,36.5138597 18.2832269,36.6198 C18.1415552,36.764606 17.9071075,36.7620985 17.7447493,36.6323373 C17.5961821,36.5113522 17.620003,36.3364567 17.7328388,36.1991731 C17.9378239,35.9465463 18.3289881,35.9045463 18.6392866,35.8769642" id="Fill-64" fill="#FEFEFE"></path>
            <path d="M28.1740388,34.2884239 C28.2091433,34.2809015 28.2467552,34.2777672 28.284994,34.2809015 C28.326994,34.2846627 28.649203,34.4213194 28.5764866,34.497797 C28.3088149,34.7660955 27.9778299,34.8914687 27.641203,35.0588418 C27.5346358,34.7159463 27.8411731,34.3435881 28.1740388,34.2884239 M28.332009,33.9192 C28.5614418,33.8847224 28.794009,33.9217075 29.0077701,34.0539761 C29.1143373,34.1223045 29.2428448,34.2558269 29.2848448,34.3837075 L29.3155612,34.4783642 L29.3331134,34.577409 C29.3331134,34.577409 29.2766955,34.6043642 29.2698,34.6074985 C28.8654716,34.8087224 28.4655313,35.0406627 28.0737403,35.2669612 C28.0348746,35.2939164 27.6656507,35.5001552 27.6750537,35.5396478 C27.7590537,35.8769015 27.8668746,36.2417373 28.1821881,36.4316776 C28.4379493,36.5833791 28.7683075,36.5758567 28.9739194,36.3470507 C29.088009,36.2223045 29.2729343,35.9558866 29.1901881,35.7841254 C29.1005463,35.608603 28.9582478,35.4462448 29.0635612,35.2437672 C29.214009,34.9579164 29.6070537,35.0212299 29.7023373,35.3070806 C29.8283373,35.6976179 29.5769642,36.1426925 29.3124269,36.4047224 C29.0253224,36.6868119 28.6460687,36.8792597 28.2354716,36.8792597 C27.8342776,36.8761254 27.5158299,36.672394 27.263203,36.3702448 C27.1271731,36.2066328 27.0500687,36.0141851 27.0162179,35.8073194 C26.9485164,35.3998567 26.9955313,34.917797 27.2538,34.5843045 C27.4982776,34.264603 27.9107552,33.9774985 28.332009,33.9192" id="Fill-66" fill="#FEFEFE"></path>
            <path d="M31.2192896,33.4779493 L31.2669313,33.5763672 C31.3973194,33.8365164 31.3766328,34.2646657 31.2161552,34.5078896 C31.1396776,34.6276209 30.9961254,34.7617701 30.8469313,34.7774418 C30.7228119,34.7862179 30.5723642,34.6758896 30.5541851,34.5467552 C30.5209612,34.3091731 30.662006,34.0991731 30.8112,33.9305463 C30.8494388,33.8847851 31.2506328,33.544397 31.2192896,33.4779493 M31.0575582,32.223591 C31.7339463,32.2505463 31.7502448,33.026606 31.9445731,33.5017701 C31.9947224,33.6171134 32.0498866,33.7136507 32.1200955,33.8170836 C32.2711701,33.7970239 32.5670507,33.6722776 32.4918269,33.9593821 C32.4228716,34.206994 32.1464239,34.3894119 31.9006925,34.4144866 C31.7377075,34.4332925 31.6493194,34.3135612 31.5477672,34.487203 C31.4650209,34.6295015 31.3954388,34.7774418 31.2957672,34.9134716 C31.1020657,35.1792627 30.8369015,35.4011731 30.5009015,35.4557104 C30.2006328,35.504606 29.9799761,35.2419493 29.9235582,34.9861881 C29.864006,34.7247851 29.9235582,34.4527254 30.0589612,34.2258 C30.2702149,33.880397 30.6225134,33.6647552 30.8688716,33.3481881 C31.0130507,33.1714119 31.1164836,32.8849343 30.9058567,32.7069045 C30.7090209,32.5407851 30.4752,32.6743075 30.3053194,32.8046955 C30.1103642,32.9570239 30.0175881,33.1582478 30.0953194,33.3939493 C30.1448418,33.5487851 30.1266627,33.6848149 30.0050507,33.7938896 C29.8872,33.8966955 29.7022746,33.9700388 29.5624836,33.8553224 C29.1474985,33.5124269 29.8784239,32.7959194 30.1266627,32.6034716 C30.3661254,32.4179194 30.6463343,32.2392627 30.956006,32.223591 C30.9911104,32.219203 31.0243343,32.219203 31.0575582,32.223591" id="Fill-68" fill="#FEFEFE"></path>
            <path d="M27.4611672,23.2840478 C27.4348388,23.3868537 27.2881522,23.4520478 27.2242119,23.5247642 C26.8430776,23.959809 26.3503612,24.206794 25.8770776,24.5177194 C25.2934657,24.907003 24.638391,25.1753015 24.0108985,25.4837194 C23.3903015,25.7833612 22.7891373,26.1243761 22.2249582,26.5149134 C21.9127791,26.7336896 21.6118836,26.9706448 21.3304209,27.2289134 C21.2946896,27.2615104 21.0489582,27.5097493 20.9850179,27.4433015 C20.8270478,27.2615104 21.6494955,26.6528239 21.7291075,26.5838687 C22.1290478,26.2340776 22.5521821,25.9319284 23.0035254,25.6554806 C23.2649284,25.4881075 23.5225701,25.3401672 23.8052866,25.2041373 C24.0660627,25.0743761 24.3324806,24.9546448 24.5976448,24.8399284 C24.9054358,24.7070328 25.2176149,24.5597194 25.5116149,24.4061373 C25.7115851,24.2976896 25.9253463,24.2111821 26.1246896,24.1052418 C26.5434358,23.8820776 26.9333463,23.6087642 27.3307791,23.3536299 C27.3727791,23.324794 27.4273164,23.3072418 27.4649284,23.269003 C27.4630478,23.2752716 27.4630478,23.2790328 27.4611672,23.2840478 L27.4611672,23.2840478 Z M15.4178239,23.4633313 C16.0346597,24.1679284 16.6922418,24.8292716 17.1893463,25.630406 C17.4902418,26.1105851 17.8080627,26.5794806 18.0951672,27.0665552 C18.2750776,27.3737194 18.4631373,27.6764955 18.6242418,27.9899284 C18.7044806,28.1478985 18.7903612,28.3046149 18.8774955,28.4613313 C18.9420627,28.5829433 19.061794,28.7321373 19.0724507,28.8713015 C18.796003,28.8813313 18.8173164,28.8186448 18.688809,28.5917194 C18.6167194,28.4613313 18.5414955,28.3328239 18.4631373,28.2043164 C17.8676149,27.2013313 17.218809,26.2340776 16.5787791,25.2636896 C16.3969881,24.9853612 16.215197,24.7070328 16.0346597,24.4287045 C15.9280925,24.2600776 15.8196448,24.0927045 15.7086896,23.9247045 C15.6146597,23.777391 15.5331672,23.5937194 15.4178239,23.4633313 L15.4178239,23.4633313 Z M28.2873761,22.7048239 C28.1168687,23.0439582 27.956391,23.3912418 27.7827493,23.7284955 C27.6529881,23.9804955 27.5138239,24.2111821 27.3552269,24.4443761 C27.1627791,24.7151821 26.9546597,24.9853612 26.7126896,25.2122866 C26.4575552,25.4442269 26.1635552,25.6266448 25.8532567,25.7689433 C25.6695851,25.8548239 25.4815254,25.9457194 25.2915851,26.0065254 C24.8653164,26.143809 24.4315254,26.2403463 24.0033761,26.3757493 C23.7419731,26.4591224 23.4849582,26.5550328 23.2241821,26.6421672 C22.8142119,26.7769433 22.4236746,26.9618687 22.0331373,27.1430328 C21.5479433,27.3668239 21.0621224,27.6200776 20.6559134,27.9673612 C20.5111075,28.0852119 20.373197,28.2419284 20.2566,28.3904955 C20.1575552,28.5108537 20.0923612,28.6537791 20.0227791,28.7935701 C19.9889284,28.9026448 19.9481821,29.0110925 19.9168388,29.1220478 C19.8572866,29.330794 19.8416149,29.5464358 19.8209284,29.7608239 C19.7952269,30.0115701 19.7989881,30.2660776 19.7839433,30.5168239 C19.7820627,30.5682269 19.7795552,30.6202567 19.7776746,30.6697791 C19.7739134,30.7362269 19.813406,30.8697493 19.7526,30.9155104 C19.6924209,30.9625254 19.5494955,30.9029731 19.5206597,30.8459284 C19.472391,30.7562866 19.5250478,30.6465851 19.5162716,30.5513015 C19.5049881,30.4365851 19.4955851,30.329391 19.4761522,30.2171821 C19.4435552,30.0071821 19.3789881,29.8034507 19.2993761,29.6072418 C19.2009582,29.3552418 19.0354657,29.3458388 18.8154358,29.2367642 C18.683794,29.1703164 18.5515254,29.1032418 18.4211373,29.0336597 C18.1666299,28.9026448 17.9114955,28.7616 17.6638836,28.6105254 C17.200003,28.3328239 16.7580627,28.0099881 16.3813164,27.6200776 C16.0221224,27.2489731 15.7325104,26.8214507 15.5262716,26.3450328 C15.3087493,25.8516896 15.1871373,25.3188537 15.1125403,24.7866448 C15.029794,24.2055403 15.0084806,23.6162866 14.9884209,23.0301672 C14.9871672,22.9449134 14.9758836,22.8502567 14.9884209,22.7662567 C15.0028388,22.6741075 15.5883313,23.1530328 15.6159134,23.1768537 C16.2264806,23.6883761 16.8821821,24.1416 17.4632866,24.6882269 C17.8337642,25.0342567 18.1760328,25.4178985 18.4499731,25.8485552 C18.7232866,26.2798388 18.9182418,26.7531224 19.0454955,27.2458388 C19.1501821,27.6583164 19.2059731,28.0814507 19.2486,28.5020776 C19.2849582,28.8706746 19.2755552,29.2656 19.5250478,29.5671224 C19.5006,29.536406 19.5990179,29.2449134 19.6103015,29.1935104 C19.6754955,28.8343164 19.6247194,28.5146149 19.5588985,28.1654507 C19.4761522,27.7097194 19.3802418,27.1405254 19.6447791,26.726794 C19.7350478,26.7556299 19.7839433,26.8822567 19.813406,26.9731522 C19.7895851,26.8822567 19.9011672,26.6258687 19.9513164,26.5594209 C20.0898537,26.7036 20.0002119,26.9731522 20.0428388,27.151809 C20.121197,27.0997791 20.1907791,27.020794 20.2609881,26.9556 C20.3869881,27.4451821 20.0002119,28.0037194 19.8159134,28.4381373 C20.3036149,28.1102866 20.564391,27.5385851 20.8182716,27.0320776 C21.0940925,26.4791821 21.3617642,25.9657791 21.7391373,25.4768239 C22.4186597,24.5960776 23.3420328,23.8858388 24.3719731,23.4702269 C25.0972567,23.1781075 25.8551373,23.1135403 26.6230478,23.0207642 C27.1132567,22.9593313 27.5934358,22.8797194 28.078003,22.7687642 L28.2873761,22.7048239 Z" id="Fill-70" fill="#FEFEFE"></path>
            <path d="M21.3942358,4.89644776 C21.5246239,4.90020896 21.6775791,4.94722388 21.7634597,5.05065672 C21.850594,5.15346269 21.8418179,5.25438806 21.8098478,5.37286567 C21.8098478,5.37286567 20.7598478,5.32710448 20.7485642,5.32585075 C20.7466836,5.32585075 20.7799075,5.24435821 20.7811612,5.23934328 C20.8407134,5.11146269 20.9403851,5.02934328 21.0626239,4.97292537 C21.1704448,4.91776119 21.2832806,4.89268657 21.3942358,4.89644776 M21.2795194,4.6018209 C21.4055194,4.6018209 21.5296388,4.61059701 21.6493701,4.63629851 C21.9013701,4.69647761 22.2079075,4.83689552 22.3583552,5.06068657 C22.4266836,5.16537313 22.4642955,5.27256716 22.4862358,5.3960597 C22.5025343,5.5001194 22.5044149,5.59226866 22.4868627,5.69570149 L22.4555194,5.79349254 C22.4555194,5.79349254 20.5680269,5.71325373 20.5561164,5.71137313 C20.5329224,5.70949254 20.4808925,5.82232836 20.4746239,5.8398806 C20.3812209,6.04549254 20.3492507,6.30250746 20.376206,6.52567164 C20.4075493,6.76638806 20.5360567,6.98140299 20.7717582,7.06414925 C21.0594896,7.16507463 21.3641463,7.1180597 21.5841761,6.90367164 C21.6832209,6.80713433 21.6775791,6.67925373 21.6807134,6.55262687 C21.6857284,6.45797015 21.7408925,6.31191045 21.8148627,6.25110448 C21.9151612,6.16898507 22.1320567,6.18152239 22.2348627,6.25486567 C22.4492507,6.40468657 22.3646239,6.64791045 22.2630716,6.83534328 C22.1991313,6.9500597 22.107609,7.03656716 21.9985343,7.10740299 C21.7891612,7.2459403 21.5321463,7.33307463 21.2776388,7.36191045 C20.8657881,7.40391045 20.3831015,7.34749254 20.0734299,7.0359403 C19.918594,6.87483582 19.801997,6.68301493 19.7593701,6.46361194 C19.7349224,6.34262687 19.7361761,6.21976119 19.7393104,6.09501493 C19.7418179,5.84301493 19.8051313,5.58098507 19.9248627,5.35719403 C20.124206,4.98044776 20.5297881,4.71152239 20.9428925,4.63253731 C21.0519672,4.61561194 21.1654299,4.6018209 21.2795194,4.6018209" id="Fill-72" fill="#FEFEFE"></path>
        </g>
    </g>
</svg>