<?xml version="1.0" encoding="UTF-8"?>
<svg width="100px" height="60px" viewBox="0 0 100 60" version="1.1" xmlns="http://www.w3.org/2000/svg" xmlns:xlink="http://www.w3.org/1999/xlink">
    <!-- Generator: Sketch 55.2 (78181) - https://sketchapp.com -->
    <title>logo/coinzest</title>
    <desc>Created with Sketch.</desc>
    <defs>
        <linearGradient x1="0.000304450527%" y1="50.0014291%" x2="100.000167%" y2="50.0014291%" id="linearGradient-1">
            <stop stop-color="#EB706E" offset="0%"></stop>
            <stop stop-color="#E61C17" offset="100%"></stop>
        </linearGradient>
        <linearGradient x1="-7.49759662e-05%" y1="50.0000785%" x2="99.9999736%" y2="50.0000785%" id="linearGradient-2">
            <stop stop-color="#EB706E" offset="0%"></stop>
            <stop stop-color="#E61D17" offset="100%"></stop>
        </linearGradient>
    </defs>
    <g id="logo/coinzest" stroke="none" stroke-width="1" fill="none" fill-rule="evenodd">
        <g id="coinzest_logo" transform="translate(0.000000, 13.000000)"></g>
        <g id="로고" transform="translate(23.000000, 22.000000)">
            <path d="M4.749968,6.44956267 C4.44906133,6.195856 4.04511467,6.068976 3.53770133,6.068976 C3.10554133,6.068976 2.74362133,6.149136 2.452528,6.308656 C2.161008,6.46870933 1.92842133,6.68012267 1.75482133,6.94294933 C1.58079467,7.206256 1.45642133,7.509136 1.381168,7.851856 C1.30591467,8.195056 1.26858133,8.549776 1.26858133,8.91612267 C1.26858133,9.254416 1.308368,9.58332267 1.38826133,9.902896 C1.46794133,10.2225227 1.59258133,10.5069493 1.76175467,10.7557493 C1.93087467,11.0045493 2.15162133,11.2043893 2.42426133,11.354416 C2.696688,11.5048693 3.02095467,11.5800693 3.396848,11.5800693 C3.988848,11.5800693 4.45151467,11.4251893 4.78511467,11.1149493 C5.11850133,10.8047093 5.32282133,10.3680693 5.39823467,9.80406933 L6.624528,9.80406933 C6.49279467,10.7063093 6.15695467,11.401616 5.61679467,11.8903093 C5.076208,12.379056 4.34111467,12.6229493 3.41087467,12.6229493 C2.85626133,12.6229493 2.36554133,12.5335093 1.937968,12.3554827 C1.51023467,12.176976 1.15327467,11.9232693 0.866821333,11.5943093 C0.579941333,11.2654027 0.364101333,10.8732427 0.218554667,10.417456 C0.072528,9.96166933 -5.33333333e-06,9.46140267 -5.33333333e-06,8.91612267 C-5.33333333e-06,8.37132267 0.0705546667,7.86166933 0.211408,7.38694933 C0.352314667,6.912496 0.565968,6.49894933 0.852581333,6.14668267 C1.139248,5.79436267 1.49866133,5.517296 1.93087467,5.31500267 C2.363088,5.113136 2.865808,5.01206933 3.439088,5.01206933 C3.852368,5.01206933 4.24010133,5.06124267 4.601968,5.16006933 C4.96362133,5.25868267 5.28298133,5.41158933 5.56026133,5.618096 C5.83738133,5.82486933 6.06527467,6.08566933 6.24394133,6.40038933 C6.42223467,6.71526933 6.535088,7.08870933 6.58223467,7.52092267 L5.341968,7.52092267 C5.24778133,7.060496 5.05039467,6.70326933 4.749968,6.44956267 Z M7.79405333,7.330656 C7.94429333,6.86548267 8.16973333,6.46158933 8.47064,6.11838933 C8.77128,5.775456 9.14226667,5.50526933 9.58408,5.308096 C10.0255733,5.110656 10.53304,5.012096 11.10632,5.012096 C11.6889333,5.012096 12.19864,5.110656 12.6357067,5.308096 C13.07256,5.50526933 13.4410933,5.775456 13.7420533,6.11838933 C14.0426933,6.46158933 14.2681333,6.86548267 14.4185867,7.330656 C14.5687733,7.795776 14.6440267,8.296096 14.6440267,8.83156267 C14.6440267,9.367456 14.5687733,9.865536 14.4185867,10.3257493 C14.2681333,10.786016 14.0426933,11.187936 13.7420533,11.530656 C13.4410933,11.873856 13.07256,12.1418027 12.6357067,12.3340693 C12.19864,12.526816 11.6889333,12.622976 11.10632,12.622976 C10.53304,12.622976 10.0255733,12.526816 9.58408,12.3340693 C9.14226667,12.1418027 8.77128,11.873856 8.47064,11.530656 C8.16973333,11.187936 7.94429333,10.786016 7.79405333,10.3257493 C7.6436,9.865536 7.56861333,9.367456 7.56861333,8.83156267 C7.56861333,8.296096 7.6436,7.795776 7.79405333,7.330656 Z M9.0132,10.008416 C9.13069333,10.351616 9.29272,10.6382293 9.49949333,10.8683627 C9.70621333,11.0984427 9.94813333,11.2747627 10.2254133,11.3966827 C10.5025333,11.5190827 10.7962933,11.580096 11.10632,11.580096 C11.4163467,11.580096 11.7101067,11.5190827 11.9871733,11.3966827 C12.2642933,11.2747627 12.5064267,11.0984427 12.7131467,10.8683627 C12.9197067,10.6382293 13.0817333,10.351616 13.19944,10.008416 C13.31672,9.665696 13.3757067,9.273536 13.3757067,8.83156267 C13.3757067,8.390016 13.31672,7.997856 13.19944,7.65470933 C13.0817333,7.311936 12.9197067,7.02286933 12.7131467,6.78782933 C12.5064267,6.55326933 12.2642933,6.37454933 11.9871733,6.25236267 C11.7101067,6.13044267 11.4163467,6.06900267 11.10632,6.06900267 C10.7962933,6.06900267 10.5025333,6.13044267 10.2254133,6.25236267 C9.94813333,6.37454933 9.70621333,6.55326933 9.49949333,6.78782933 C9.29272,7.02286933 9.13069333,7.311936 9.0132,7.65470933 C8.89570667,7.997856 8.83714667,8.390016 8.83714667,8.83156267 C8.83714667,9.273536 8.89570667,9.665696 9.0132,10.008416 Z M16.124,12.4680533 L16.124,5.18122667 L17.3220267,5.18122667 L17.3220267,12.4680533 L16.124,12.4680533 Z M20.3100213,5.181232 L20.3100213,6.336912 L20.3380747,6.336912 C20.8361547,5.453872 21.625328,5.012112 22.7060213,5.012112 C23.1852213,5.012112 23.5844747,5.07776533 23.904048,5.20928533 C24.223408,5.34101867 24.4820213,5.52416533 24.679408,5.758992 C24.8766347,5.99397867 25.015248,6.27349867 25.0951413,6.597552 C25.1748213,6.92181867 25.2148747,7.281232 25.2148747,7.67584533 L25.2148747,12.4680587 L24.016848,12.4680587 L24.016848,7.53493867 C24.016848,7.08384533 23.8851147,6.726832 23.622288,6.463792 C23.3589813,6.200752 22.9971147,6.06901867 22.5369013,6.06901867 C22.1705547,6.06901867 21.8534347,6.125552 21.585488,6.23813867 C21.3177547,6.350992 21.0945013,6.510992 20.916048,6.71749867 C20.737328,6.924272 20.603568,7.166192 20.5143413,7.44325867 C20.424848,7.72053867 20.380368,8.02368533 20.380368,8.352592 L20.380368,12.4680587 L19.1823413,12.4680587 L19.1823413,5.181232 L20.3100213,5.181232 Z" id="Combined-Shape" fill="#2B2C2F"></path>
            <path d="M40.4297867,10.7005493 C40.3216267,10.4468427 40.1760267,10.2282827 39.9926667,10.045136 C39.8097333,9.861936 39.59336,9.71638933 39.34456,9.60828267 C39.0953333,9.500336 38.82072,9.44604267 38.51976,9.44604267 C38.21,9.44604267 37.9300533,9.500336 37.6812533,9.60828267 C37.4324,9.71638933 37.21832,9.86438933 37.04024,10.0522293 C36.86136,10.240336 36.7206667,10.4586293 36.6174667,10.7076427 C36.51368,10.9567093 36.45272,11.221776 36.4340533,11.5039627 L40.62024,11.5039627 C40.6011467,11.221776 40.5378933,10.954256 40.4297867,10.7005493 M40.71864,15.3799627 C40.17384,15.793456 39.4874933,16.000016 38.66088,16.000016 C38.0782667,16.000016 37.5730933,15.906096 37.1457867,15.718256 C36.718,15.530416 36.3588,15.2673227 36.0677067,14.9290827 C35.7761333,14.5907893 35.5575733,14.1866293 35.41208,13.7166027 C35.26648,13.2470027 35.1841867,12.7351093 35.1654667,12.1805493 C35.1654667,11.6263627 35.2500533,11.118736 35.4192267,10.658256 C35.5883467,10.1980427 35.8255733,9.79852267 36.1309067,9.46028267 C36.43624,9.12198933 36.7981067,8.858896 37.21608,8.67084267 C37.6340533,8.48300267 38.0925067,8.389136 38.5905867,8.389136 C39.23864,8.389136 39.7767733,8.52284267 40.2041333,8.79078933 C40.6318133,9.05852267 40.9745867,9.39926933 41.2331467,9.81254933 C41.4913333,10.226096 41.6702667,10.6771893 41.7686667,11.1656693 C41.86744,11.654416 41.9074933,12.119536 41.8888267,12.5610827 L36.4340533,12.5610827 C36.4246667,12.880656 36.4620533,13.1838027 36.54664,13.4699893 C36.6311733,13.757136 36.76744,14.0107893 36.9557067,14.2311627 C37.1435467,14.452336 37.3830133,14.628176 37.6741067,14.7599093 C37.96568,14.891696 38.3084,14.957136 38.7031733,14.957136 C39.21064,14.957136 39.6263733,14.8395893 39.9503733,14.6046027 C40.2748533,14.3699893 40.48856,14.0126027 40.59176,13.5336693 L41.77576,13.5336693 C41.6159733,14.3508427 41.26344,14.9664693 40.71864,15.3799627" id="Fill-9" fill="#E61E18"></path>
            <path d="M44.044944,14.2173493 C44.1575307,14.4002827 44.3057973,14.546256 44.4886773,14.6539893 C44.6720907,14.7621493 44.8785973,14.8395893 45.1091573,14.8867893 C45.339344,14.9339893 45.5765707,14.957136 45.8208907,14.957136 C46.0087307,14.957136 46.2059573,14.942896 46.4128907,14.9148427 C46.6193973,14.8867893 46.8094773,14.8351627 46.9835573,14.7599093 C47.1575307,14.6847093 47.3008907,14.5743093 47.4134773,14.4287627 C47.526064,14.283216 47.5826507,14.0971893 47.5826507,13.8719093 C47.5826507,13.5617227 47.4651573,13.3271627 47.2301173,13.167376 C46.9950773,13.007536 46.701744,12.8780427 46.349264,12.7796427 C45.9971573,12.680816 45.613904,12.5918027 45.2004107,12.511696 C44.7869173,12.432016 44.4040907,12.3194293 44.0520373,12.1734027 C43.699504,12.027856 43.405744,11.823536 43.171184,11.560496 C42.936144,11.297456 42.8186507,10.930896 42.8186507,10.4608693 C42.8186507,10.0945227 42.9009973,9.779856 43.065264,9.51654933 C43.2294773,9.25372267 43.440944,9.039856 43.699504,8.875376 C43.9576907,8.710896 44.2492107,8.58870933 44.573264,8.508816 C44.897744,8.42918933 45.2195573,8.389136 45.538704,8.389136 C45.9521973,8.389136 46.3327307,8.42428267 46.6804107,8.49484267 C47.0280373,8.565136 47.3360373,8.68732267 47.6035573,8.861136 C47.871504,9.03516267 48.0851573,9.26998933 48.244944,9.56598933 C48.4047307,9.861936 48.4986507,10.230736 48.5271307,10.6722827 L47.3288907,10.6722827 C47.3097973,10.4375093 47.248784,10.2425227 47.1455307,10.0874293 C47.0422773,9.93228267 46.9104907,9.80790933 46.751184,9.71398933 C46.5913973,9.62006933 46.4150773,9.55174933 46.222384,9.509456 C46.0296373,9.46716267 45.834704,9.44604267 45.6374773,9.44604267 C45.459024,9.44604267 45.2783307,9.46028267 45.0949173,9.488336 C44.9115573,9.51654933 44.744624,9.56598933 44.5946507,9.63628267 C44.444144,9.70684267 44.321744,9.800976 44.228304,9.91830933 C44.1339573,10.036016 44.087184,10.1884427 44.087184,10.3762827 C44.087184,10.5832693 44.1597173,10.7546293 44.3057973,10.8908427 C44.4512907,11.0272693 44.636944,11.139856 44.8621173,11.2288693 C45.087824,11.3183627 45.3415307,11.3935627 45.6232907,11.454576 C45.9054773,11.516016 46.1872373,11.579216 46.468944,11.6450827 C46.769904,11.7109493 47.063184,11.7906293 47.3503307,11.8845493 C47.6365173,11.9784693 47.890224,12.103056 48.1109707,12.2579893 C48.3317707,12.4128693 48.5102773,12.6082827 48.646864,12.8428427 C48.7830773,13.0778827 48.851184,13.3694027 48.851184,13.7166027 C48.851184,14.158576 48.7594507,14.5249227 48.576144,14.816016 C48.3931573,15.107536 48.153264,15.342576 47.857264,15.5210827 C47.561264,15.6995893 47.2278773,15.824176 46.8566773,15.8945227 C46.4854773,15.9648693 46.116944,16.000016 45.7501707,16.000016 C45.346384,16.000016 44.960944,15.9577227 44.5946507,15.873136 C44.228304,15.7885493 43.903824,15.6501493 43.622064,15.4574027 C43.340304,15.265136 43.1146507,15.0114293 42.9455307,14.6962827 C42.7763573,14.381616 42.6824373,13.9987893 42.6637707,13.5474293 L43.861584,13.5474293 C43.870864,13.8109493 43.932304,14.0339893 44.044944,14.2173493" id="Fill-10" fill="#E61E18"></path>
            <path d="M53.2911413,8.55826133 L53.2911413,9.615168 L51.8391947,9.615168 L51.8391947,14.1394347 C51.8391947,14.2805547 51.850768,14.3931413 51.8743947,14.477728 C51.897968,14.5623147 51.942448,14.6281813 52.0083147,14.6753813 C52.0742347,14.722528 52.165488,14.7528213 52.283408,14.7670613 C52.4004747,14.7808213 52.553168,14.787968 52.7414347,14.787968 L53.2911413,14.787968 L53.2911413,15.845088 L52.3746613,15.845088 C52.0649013,15.845088 51.7991413,15.8241813 51.5783947,15.781888 C51.3575947,15.7395947 51.179088,15.661728 51.042928,15.549088 C50.9067147,15.4365013 50.805648,15.2767147 50.7397813,15.069728 C50.6739147,14.8632213 50.6413813,14.5907947 50.6413813,14.2525013 L50.6413813,9.615168 L49.4009013,9.615168 L49.4009013,8.55826133 L50.6413813,8.55826133 L50.6413813,6.37346133 L51.8391947,6.37346133 L51.8391947,8.55826133 L53.2911413,8.55826133 Z" id="Fill-11" fill="#E61E18"></path>
            <path d="M15.3005333,3.13744 C15.3005333,3.92186667 15.9386667,4.55994667 16.7229867,4.55994667 L16.7229867,4.55994667 C17.50736,4.55994667 18.14544,3.92186667 18.14544,3.13744 L18.14544,3.13744 C18.14544,2.35317333 17.50736,1.71498667 16.7229867,1.71498667 L16.7229867,1.71498667 C15.9386667,1.71498667 15.3005333,2.35317333 15.3005333,3.13744 M16.1241067,3.13749333 C16.1241067,2.80725333 16.3928,2.53866667 16.7229867,2.53866667 L16.7229867,2.53866667 C17.0531733,2.53866667 17.3218667,2.80725333 17.3218667,3.13749333 L17.3218667,3.13749333 C17.3218667,3.46768 17.0531733,3.73637333 16.7229867,3.73637333 L16.7229867,3.73637333 C16.3928,3.73637333 16.1241067,3.46768 16.1241067,3.13749333" id="Fill-13" fill="url(#linearGradient-1)"></path>
            <polygon id="Fill-16" fill="url(#linearGradient-2)" points="53.2911467 0 30.3849067 7.32522667 30.6562133 1.93786667 19.3389333 3.13749333 28.2004267 4.55994667 27.7881067 12.4680533"></polygon>
        </g>
    </g>
</svg>