<?xml version="1.0" encoding="utf-8"?>
<!-- Generator: Adobe Illustrator 26.3.1, SVG Export Plug-In . SVG Version: 6.00 Build 0)  -->
<svg version="1.1" id="_이어_1" xmlns="http://www.w3.org/2000/svg" xmlns:xlink="http://www.w3.org/1999/xlink" x="0px" y="0px"
	 viewBox="0 0 59 24.6" style="enable-background:new 0 0 59 24.6;" xml:space="preserve">
<style type="text/css">
	.st0{fill:#E02535;}
	.st1{fill:#231815;}
	.st2{fill:#EA8B00;}
	.st3{fill:#0079C3;}
</style>
<g>
	<path class="st0" d="M23.8,15.9c-0.2-1.8-1.1-3.2-2-3.3c-0.9,0-2.2,1.5-3,3.3c-0.8,1.8,0.1,3.3,2,3.3C22.8,19.1,24,17.7,23.8,15.9"
		/>
	<path class="st1" d="M14.6,11.1L14.6,11.1c-1.2,0-2,0.9-2,2.1s0.8,2,2,2c0.6,0,1.2-0.3,1.6-0.8c0,0-0.2-0.3-0.5-0.3
		c-0.3,0-0.4,0.3-1.1,0.3s-1.2-0.6-1.2-1.3c0-0.7,0.6-1.3,1.2-1.3c0.6,0,0.8,0.4,1.1,0.4s0.5-0.3,0.5-0.3
		C15.8,11.4,15.2,11.1,14.6,11.1"/>
	<path class="st1" d="M18.7,11.2H17c-0.3,0-0.5,0.2-0.5,0.4v0.2h0.7c0,0,0,2.4,0,2.7l0,0c0,0.2-0.1,0.7-0.6,0.9
		c-0.4,0.2-0.4,0.3-0.4,0.6l0,0c0,0,0,0,0,0h0c0,0,0.4-0.1,0.4-0.1l0,0c0.3-0.1,0.9-0.3,1.1-0.8c0,0,0.2-0.4,0.2-1.1v-2.2h0
		c0.3,0,0.5-0.2,0.5-0.4L18.7,11.2"/>
	<path class="st2" d="M27,9.9c-1.7-0.7-3.4-0.6-3.8,0.2c-0.4,0.8,0.2,2.6,1.4,4.2s2.9,1.5,3.8-0.2C29.3,12.4,28.7,10.6,27,9.9"/>
	<path class="st3" d="M18.4,10.5c1.5,1,3.2,1.3,3.8,0.7c0.6-0.7,0.4-2.6-0.4-4.4C20.9,5,19.3,4.7,18,6.1
		C16.7,7.5,16.9,9.5,18.4,10.5"/>
</g>
<g>
	<path class="st1" d="M31.9,14c-0.2,0-0.4,0.1-0.6,0.1c-0.2,0-0.5,0-0.7,0h-0.7v-2.3c0-0.1,0-0.2,0.1-0.3c0.1-0.1,0.2-0.1,0.3-0.1
		h1.4v0.2c0,0.1,0,0.1,0,0.1c0,0,0,0-0.1,0.1c0,0,0,0-0.1,0c0,0,0,0,0,0h-1v1.9H31c0.1,0,0.3,0,0.4,0c0.2,0,0.4,0,0.5-0.1v-2
		c0-0.1,0-0.2,0.1-0.3c0.1-0.1,0.1-0.1,0.3-0.1h0.3v1.2h0.3v-0.8c0-0.1,0-0.2,0.1-0.3c0.1-0.1,0.1-0.1,0.3-0.1h0.3v3.6
		c0,0.1,0,0.2-0.1,0.3c-0.1,0.1-0.1,0.1-0.3,0.1h-0.3v-2.4h-0.3v2c0,0.1,0,0.2-0.1,0.3c-0.1,0.1-0.1,0.1-0.3,0.1h-0.3L31.9,14
		L31.9,14z"/>
	<path class="st1" d="M38.1,12.7h-0.7v1.1c0,0.1,0,0.2-0.1,0.3s-0.1,0.1-0.3,0.1h-0.3v-2.5c0-0.1,0-0.2,0.1-0.3
		c0.1-0.1,0.1-0.1,0.3-0.1h0.3v1h0.5c0,0,0,0,0,0c0,0,0,0,0.1,0c0,0,0,0,0.1,0.1c0,0,0,0.1,0,0.1L38.1,12.7L38.1,12.7z M35.6,12.5
		c0-0.1,0-0.2,0-0.2c0-0.1-0.1-0.1-0.1-0.2c0-0.1-0.1-0.1-0.2-0.1c-0.1,0-0.1-0.1-0.2-0.1s-0.1,0-0.2,0.1c-0.1,0-0.1,0.1-0.2,0.1
		c0,0.1-0.1,0.1-0.1,0.2c0,0.1,0,0.1,0,0.2c0,0.2,0.1,0.3,0.1,0.4c0.1,0.1,0.2,0.2,0.4,0.2c0.1,0,0.3-0.1,0.4-0.2
		C35.6,12.8,35.6,12.7,35.6,12.5 M37.4,14.8V15c0,0.1,0,0.1,0,0.1c0,0,0,0.1-0.1,0.1c0,0,0,0-0.1,0s0,0,0,0h-2.7v-0.9
		c0-0.1,0-0.2,0.1-0.3c0.1-0.1,0.1-0.1,0.3-0.1h0.3v0.9L37.4,14.8L37.4,14.8z M36.3,11.7c0,0.1,0,0.1,0,0.1s0,0.1-0.1,0.1
		c0,0,0,0-0.1,0c0,0,0,0,0,0H36c0.1,0.1,0.1,0.2,0.2,0.3c0,0.1,0.1,0.2,0.1,0.3c0,0.1,0,0.3-0.1,0.4c-0.1,0.1-0.1,0.2-0.3,0.3
		c-0.1,0.1-0.2,0.2-0.4,0.2s-0.3,0.1-0.4,0.1c-0.2,0-0.3,0-0.4-0.1c-0.1,0-0.3-0.1-0.4-0.2c-0.1-0.1-0.2-0.2-0.2-0.3
		C34,12.8,34,12.6,34,12.5c0-0.1,0-0.2,0.1-0.3c0-0.1,0.1-0.2,0.2-0.3h-0.3v-0.2c0,0,0-0.1,0-0.1s0-0.1,0.1-0.1c0,0,0,0,0.1,0
		c0,0,0,0,0.1,0h0.7v-0.1c0-0.1,0-0.2,0.1-0.2s0.1-0.1,0.2-0.1h0.4v0.4h0.9L36.3,11.7L36.3,11.7z"/>
	<path class="st1" d="M40.9,14.5c0-0.1,0-0.1-0.1-0.2s-0.1-0.1-0.1-0.2c-0.1,0-0.1-0.1-0.2-0.1c-0.1,0-0.2,0-0.3,0s-0.2,0-0.3,0
		c-0.1,0-0.1,0.1-0.2,0.1c-0.1,0-0.1,0.1-0.1,0.2c0,0.1-0.1,0.1-0.1,0.2c0,0.1,0,0.1,0.1,0.2c0,0.1,0.1,0.1,0.1,0.2
		c0.1,0,0.1,0.1,0.2,0.1c0.1,0,0.2,0,0.3,0s0.2,0,0.3,0c0.1,0,0.1-0.1,0.2-0.1c0.1,0,0.1-0.1,0.1-0.2C40.8,14.7,40.9,14.6,40.9,14.5
		 M41.5,14.5L41.5,14.5c0,0.1,0,0.2-0.1,0.4c-0.1,0.1-0.2,0.2-0.3,0.3c-0.1,0.1-0.3,0.1-0.4,0.2c-0.2,0-0.3,0.1-0.5,0.1
		c-0.2,0-0.3,0-0.5-0.1c-0.2,0-0.3-0.1-0.4-0.2c-0.1-0.1-0.2-0.2-0.3-0.3c-0.1-0.1-0.1-0.2-0.1-0.4c0-0.1,0-0.2,0.1-0.3
		c0.1-0.1,0.2-0.2,0.3-0.3c0.1-0.1,0.3-0.1,0.4-0.2c0.2,0,0.3-0.1,0.5-0.1s0.3,0,0.5,0.1c0.2,0,0.3,0.1,0.4,0.2
		c0.1,0.1,0.2,0.2,0.3,0.3C41.5,14.3,41.5,14.4,41.5,14.5 M41.6,12c0,0,0,0.1,0,0.1s0,0-0.1,0.1c0,0,0,0-0.1,0s0,0,0,0h-2.1v0.2h2.4
		v0.2c0,0,0,0.1,0,0.1s0,0.1-0.1,0.1c0,0,0,0-0.1,0c0,0,0,0,0,0h-1v0.3h1.7v0.2c0,0.1,0,0.1,0,0.1s0,0.1-0.1,0.1s-0.1,0-0.1,0
		c0,0,0,0,0,0h-3.8v-0.2c0,0,0-0.1,0-0.1c0,0,0,0,0.1-0.1c0,0,0,0,0.1,0c0,0,0,0,0.1,0h1.5v-0.3h-1.2v-1.2c0-0.1,0.1-0.2,0.1-0.3
		c0.1-0.1,0.2-0.1,0.4-0.1h2.5v0.2c0,0,0,0.1,0,0.1c0,0,0,0-0.1,0.1c0,0,0,0-0.1,0s0,0,0,0h-2.2v0.2h2.3L41.6,12L41.6,12z"/>
	<path class="st1" d="M45.1,12c0-0.1,0-0.2-0.1-0.2c0-0.1-0.1-0.1-0.1-0.2c-0.1-0.1-0.1-0.1-0.2-0.1c-0.1,0-0.2,0-0.2,0
		c-0.1,0-0.2,0-0.3,0c-0.1,0-0.1,0.1-0.2,0.1c-0.1,0.1-0.1,0.1-0.1,0.2c0,0.1-0.1,0.1-0.1,0.2c0,0.1,0,0.2,0.1,0.2
		c0,0.1,0.1,0.1,0.1,0.2c0.1,0.1,0.1,0.1,0.2,0.1c0.1,0,0.2,0,0.3,0s0.2,0,0.2,0c0.1,0,0.1-0.1,0.2-0.1c0.1-0.1,0.1-0.1,0.1-0.2
		C45,12.2,45.1,12.1,45.1,12 M45.7,12c0,0.1,0,0.3-0.1,0.4c-0.1,0.1-0.2,0.2-0.3,0.3c-0.1,0.1-0.3,0.2-0.4,0.2
		c-0.2,0.1-0.3,0.1-0.5,0.1s-0.3,0-0.5-0.1c-0.2,0-0.3-0.1-0.4-0.2c-0.1-0.1-0.2-0.2-0.3-0.3c-0.1-0.1-0.1-0.2-0.1-0.4
		c0-0.1,0-0.3,0.1-0.4c0.1-0.1,0.2-0.2,0.3-0.3c0.1-0.1,0.3-0.2,0.4-0.2c0.2-0.1,0.3-0.1,0.5-0.1c0.2,0,0.3,0,0.5,0.1
		c0.2,0.1,0.3,0.1,0.4,0.2c0.1,0.1,0.2,0.2,0.3,0.3S45.7,11.9,45.7,12 M46,15c0,0.1,0,0.1,0,0.1c0,0,0,0.1-0.1,0.1c0,0,0,0-0.1,0
		s0,0,0,0h-2.8v-0.8c0-0.1,0-0.2,0.1-0.3c0.1-0.1,0.1-0.1,0.3-0.1h0.3v0.8H46C46,14.8,46,15,46,15z M46.4,13.3c0,0,0,0.1,0,0.1
		c0,0,0,0-0.1,0.1s-0.1,0-0.1,0c0,0,0,0,0,0h-1.4v0.3c0,0.1,0,0.2-0.1,0.3c-0.1,0.1-0.1,0.1-0.3,0.1h-0.3v-0.7h-1.7v-0.2
		c0,0,0-0.1,0-0.1s0,0,0.1-0.1c0,0,0.1,0,0.1,0c0,0,0,0,0.1,0h3.8L46.4,13.3L46.4,13.3z"/>
</g>
</svg>
