<?xml version="1.0" encoding="UTF-8"?>
<svg width="100px" height="60px" viewBox="0 0 100 60" version="1.1" xmlns="http://www.w3.org/2000/svg" xmlns:xlink="http://www.w3.org/1999/xlink">
    <!-- Generator: Sketch 55.2 (78181) - https://sketchapp.com -->
    <title>logo/davich</title>
    <desc>Created with Sketch.</desc>
    <defs>
        <radialGradient cx="50%" cy="68.0496298%" fx="50%" fy="68.0496298%" r="60.7736543%" gradientTransform="translate(0.500000,0.680496),scale(1.000000,0.931994),rotate(90.000000),scale(1.000000,0.876177),translate(-0.500000,-0.680496)" id="radialGradient-1">
            <stop stop-color="#FFFFFF" offset="0%"></stop>
            <stop stop-color="#0075BE" offset="44.1881334%"></stop>
            <stop stop-color="#004A8F" offset="100%"></stop>
        </radialGradient>
    </defs>
    <g id="logo/davich" stroke="none" stroke-width="1" fill="none" fill-rule="evenodd">
        <g transform="translate(13.000000, 20.000000)" id="Combined-Shape">
            <path d="M10.1595652,16.9113913 C10.2965217,15.7096522 9.22478261,14.7383478 9.22478261,14.7383478 C9.22478261,14.7383478 11.1286957,15.8970435 10.7565217,17.3661739 C10.4395652,18.6270435 11.3421739,19.1566087 11.3421739,19.1566087 C11.3421739,19.1566087 9.96869565,18.6135652 10.1595652,16.9113913 Z M7.66304348,16.9596522 C8.67347826,16.2153043 8.61043478,14.9044348 8.61043478,14.9044348 C8.61043478,14.9044348 9.13086957,16.8174783 7.77565217,17.6096522 C6.54956522,18.3274783 6.86434783,19.177913 6.86434783,19.177913 C6.86434783,19.177913 6.16869565,18.0622609 7.66304348,16.9596522 Z M5.28913043,15.7661739 C6.84956522,15.8731304 7.88652174,14.7835652 7.88652174,14.7835652 C7.88652174,14.7835652 6.73695652,16.6757391 4.8073913,16.400087 C2.8673913,16.1244348 2.36956522,17.127913 2.36956522,17.127913 C2.36956522,17.127913 2.71217391,15.5892174 5.28913043,15.7661739 Z M0,10.7966087 C0,10.7966087 0.294782609,10.6626957 0.812608696,10.6626957 C1.60782609,10.6626957 2.92782609,10.9787826 4.51347826,12.5809565 C5.8873913,13.970087 7.56391304,14.0105217 7.56391304,14.0105217 C7.56391304,14.0105217 5.16652174,14.4653043 3.49347826,12.6274783 C1.57782609,10.517913 0,10.7966087 0,10.7966087 Z M5.53434783,8.9766087 C5.40869565,5.63443478 3.57695652,3.93530435 3.57695652,3.93530435 C3.57695652,3.93530435 6.16130435,5.61834783 6.45782609,9.88704348 C6.59782609,11.9361739 7.86086957,13.2261739 7.86086957,13.2261739 C7.86086957,13.2261739 5.63608696,11.6687826 5.53434783,8.9766087 Z M10.3713043,6.90834783 C13.1756522,4.12486957 13.216087,0.434869565 13.216087,0.434869565 C13.216087,0.434869565 13.7456522,5.01313043 10.3617391,8.69573913 C8.64130435,10.5687826 8.63956522,12.9322609 8.63956522,12.9322609 C8.63956522,12.9322609 7.9626087,9.29791304 10.3713043,6.90834783 Z M13.49,11.1205217 C15.9169565,11.4896522 17.4882609,9.76052174 17.4882609,9.76052174 C17.4882609,9.76052174 15.7391304,12.2657391 12.6,12.0705217 C10.7269565,11.9522609 9.40782609,13.3309565 9.40782609,13.3309565 C9.40782609,13.3309565 11.0469565,10.7457391 13.49,11.1205217 Z M9.68478261,14.1522609 C9.68478261,14.1522609 10.0086957,14.0926957 10.4769565,14.0926957 C11.3386957,14.0926957 12.6891304,14.294 13.4073913,15.4366087 C14.3813043,16.9913913 15.8813043,16.8470435 15.8813043,16.8470435 C15.8813043,16.8470435 13.9086957,17.3392174 12.4130435,15.4635652 C11.3969565,14.1922609 9.68478261,14.1522609 9.68478261,14.1522609 Z M6.78347826,16.3522609 C7.87565217,15.964 8.27043478,14.8266087 8.27043478,14.8266087 C8.27043478,14.8266087 8.04043478,16.5953043 6.65173913,16.9544348 C5.32695652,17.294 5.29695652,18.1370435 5.29695652,18.1370435 C5.29695652,18.1370435 5.08304348,16.9566087 6.78347826,16.3522609 Z M1.84391304,14.8213913 C1.84391304,14.8213913 2.27695652,14.1631304 3.48695652,14.1631304 C3.93173913,14.1631304 4.48086957,14.2518261 5.1526087,14.4948696 C6.55782609,15.0031304 7.73782609,14.4113913 7.73782609,14.4113913 C7.73782609,14.4113913 6.25,15.6187826 4.52173913,14.8853043 C2.65869565,14.0983478 1.84391304,14.8213913 1.84391304,14.8213913 Z M4.74826087,11.2061739 C3.65,8.73052174 2.00173913,8.24356522 2.00173913,8.24356522 C2.00173913,8.24356522 4.14173913,8.39617391 5.66652174,11.5487826 C6.41956522,13.1061739 7.77565217,13.6757391 7.77565217,13.6757391 C7.77565217,13.6757391 5.65608696,13.247913 4.74826087,11.2061739 Z M7.58782609,7.65226087 C8.85652174,4.08486957 7.64565217,1.14921739 7.64565217,1.14921739 C7.64565217,1.14921739 9.62347826,4.51052174 8.16869565,9.0813913 C7.46521739,11.2944348 8.2326087,13.1887826 8.2326087,13.1887826 C8.2326087,13.1887826 6.55347826,10.5661739 7.58782609,7.65226087 Z M11.4643478,9.52269565 C13.806087,8.69313043 14.5886957,6.24704348 14.5886957,6.24704348 C14.5886957,6.24704348 13.9586957,9.504 11.0613043,10.7831304 C9.46391304,11.4870435 8.9126087,13.2157391 8.9126087,13.2157391 C8.9126087,13.2157391 9.28043478,10.2987826 11.4643478,9.52269565 Z M9.62347826,13.7966087 C9.62347826,13.7966087 10.6956522,12.9196522 11.9065217,12.9196522 C12.28,12.9196522 12.6665217,13.0026957 13.0391304,13.2213913 C14.4921739,14.0718261 15.7886957,13.2692174 15.7886957,13.2692174 C15.7886957,13.2692174 14.2165217,14.5696522 12.2269565,13.6783478 C10.9413043,13.1061739 9.62347826,13.7966087 9.62347826,13.7966087 Z M10.9413043,16.0870435 C10.5730435,14.9309565 9.35391304,14.4196522 9.35391304,14.4196522 C9.35391304,14.4196522 11.3252174,14.8105217 11.6143478,16.3118261 C11.8621739,17.6013913 12.8486957,17.8266087 12.8486957,17.8266087 C12.8486957,17.8266087 11.4656522,17.7353043 10.9413043,16.0870435 Z M8.92478261,16.9892174 C9.40913043,15.9931304 8.89652174,14.8535652 8.89652174,14.8535652 C8.89652174,14.8535652 9.97130435,16.3731304 9.23695652,17.5296522 C8.59434783,18.5413913 9.1173913,19.1992174 9.1173913,19.1992174 C9.1173913,19.1992174 8.23043478,18.4205217 8.92478261,16.9892174 Z" fill="url(#radialGradient-1)"></path>
            <path d="M32.2355269,17.9311398 C32.7146667,17.9311398 33.1675699,17.6188817 33.1675699,16.8300645 C33.1675699,16.0386667 32.7146667,15.7259785 32.2355269,15.7259785 L32.2329462,15.7259785 C31.7563871,15.7259785 31.3034839,16.0386667 31.3034839,16.8300645 C31.3034839,17.6188817 31.7563871,17.9311398 32.2355269,17.9311398 Z M32.2355269,15.5384516 C32.915957,15.5384516 33.4695054,15.9272688 33.4695054,16.8300645 C33.4695054,17.7298495 32.915957,18.1203871 32.2355269,18.1203871 C31.5550968,18.1203871 31.0019785,17.7298495 31.0019785,16.8300645 L31.0019785,16.8274839 C31.0019785,15.9272688 31.5550968,15.5384516 32.2355269,15.5384516 Z M35.1423226,17.7593548 C35.2270538,17.6548387 35.2907097,17.4733333 35.2907097,17.1675269 C35.2907097,16.912043 35.2403871,16.7163441 35.1449032,16.5864516 C35.0524301,16.4647312 34.9117849,16.395914 34.7371613,16.395914 C34.6498495,16.395914 34.5573763,16.4088172 34.4567312,16.4569892 C34.372,16.4991398 34.2821075,16.5731183 34.2076989,16.6711828 L34.2076989,17.6612903 C34.2872688,17.7593548 34.3694194,17.823871 34.4515699,17.8677419 C34.5307097,17.9103226 34.6287742,17.9378495 34.7397419,17.9378495 C34.8911398,17.9378495 35.0365161,17.8836559 35.1423226,17.7593548 Z M34.7874839,16.2212903 C35.0180215,16.2212903 35.2085591,16.2913978 35.3569462,16.4569892 C35.483828,16.6075269 35.5685591,16.8354839 35.5685591,17.1649462 C35.5685591,17.491828 35.4915699,17.7275269 35.3569462,17.8810753 C35.2296344,18.023871 35.0365161,18.1124731 34.7823226,18.1124731 C34.6975914,18.1124731 34.5892043,18.1047312 34.4674839,18.0556989 C34.3853333,18.0212903 34.2924301,17.9653763 34.2132903,17.8995699 L34.2076989,17.8995699 L34.2076989,18.915914 L33.9350108,18.915914 L33.9350108,16.2608602 L34.2076989,16.2608602 L34.2025376,16.4569892 L34.2102796,16.4569892 C34.2713548,16.3997849 34.347914,16.3339785 34.4541505,16.2858065 C34.5492043,16.2462366 34.6554409,16.2212903 34.7874839,16.2212903 Z M36.4685591,17.9471398 C36.5610323,17.9471398 36.6354409,17.9075699 36.6775914,17.8783226 L36.7253333,18.0344516 C36.6539355,18.0688602 36.5507097,18.1127312 36.4182366,18.1127312 C36.148129,18.1127312 35.9786667,17.9630538 35.9786667,17.5527312 L35.9786667,16.4224086 L35.7696344,16.4224086 L35.7696344,16.2606882 L35.9786667,16.2606882 L35.9786667,15.871871 L36.2328602,15.871871 L36.2328602,16.2606882 L36.6169462,16.2606882 L36.6169462,16.4224086 L36.2328602,16.4224086 L36.2328602,17.468 C36.2328602,17.7987527 36.320172,17.9471398 36.4685591,17.9471398 Z M37.0243011,18.072043 L37.0243011,16.2608602 L37.2969892,16.2608602 L37.2969892,18.072043 L37.0243011,18.072043 Z M37.0243011,15.8823656 L37.0243011,15.5886022 L37.2969892,15.5886022 L37.2969892,15.8823656 L37.0243011,15.8823656 Z M38.5546237,17.9513118 C38.8036559,17.9513118 38.9387097,17.8171183 39.0126882,17.6085161 L39.2853763,17.639914 C39.1954839,17.9259355 38.9546237,18.1126022 38.5546237,18.1126022 C38.0595699,18.1126022 37.7180645,17.8467957 37.7180645,17.1637849 C37.7180645,16.5095914 38.0780645,16.2214194 38.5627957,16.2214194 C38.9597849,16.2214194 39.1713978,16.4012043 39.2617204,16.6394839 L38.9916129,16.6661505 C38.9094624,16.5018495 38.7903226,16.3827097 38.5572043,16.3827097 C38.2526882,16.3827097 37.9933333,16.6291613 37.9933333,17.1650753 C37.9933333,17.7672258 38.2608602,17.9513118 38.5546237,17.9513118 Z M40.8843011,17.7286882 L40.8843011,17.0387957 C40.1750538,17.123957 39.8675269,17.2916989 39.8675269,17.5987957 C39.8675269,17.7987957 39.9737634,17.9562151 40.3230108,17.9562151 C40.4632258,17.9562151 40.7122581,17.9076129 40.8843011,17.7286882 Z M41.1595699,16.8856774 L41.1595699,17.7751398 C41.1595699,17.9364301 41.1729032,17.9936344 41.2417204,18.056 L41.2417204,18.071914 L40.9582796,18.071914 C40.9135484,18.0228817 40.8976344,17.9656774 40.8946237,17.8972903 L40.8894624,17.8972903 C40.7466667,18.0375054 40.4924731,18.1127742 40.2778495,18.1127742 C39.7776344,18.1127742 39.5845161,17.9101935 39.5845161,17.6112688 C39.5845161,17.2168602 39.9363441,17.0022366 40.8843011,16.9015914 L40.8843011,16.8327742 C40.8843011,16.5338495 40.7703226,16.372129 40.4313978,16.372129 C40.1324731,16.372129 39.9948387,16.548043 39.9630108,16.7295484 L39.6769892,16.7015914 C39.7354839,16.4568602 39.9341935,16.2211613 40.4395699,16.2211613 C40.9268817,16.2211613 41.1595699,16.3854624 41.1595699,16.8856774 Z M41.7447312,18.072043 L41.7447312,15.5980645 L42.0144086,15.5980645 L42.0144086,18.072043 L41.7447312,18.072043 Z M44.7387097,17.9311398 C45.1572043,17.9311398 45.4032258,17.6188817 45.4931183,17.4008172 L45.7950538,17.4571613 C45.635914,17.7965161 45.2604301,18.1203871 44.7412903,18.1203871 C44.3997849,18.1203871 44.0901075,18.0094194 43.8888172,17.8137204 C43.6587097,17.5978065 43.5184946,17.2765161 43.5184946,16.8249032 C43.5184946,16.4064086 43.656129,16.0808172 43.8810753,15.8614624 C44.1034409,15.6494194 44.4023656,15.5384516 44.752043,15.5384516 C45.2496774,15.5384516 45.5963441,15.7818925 45.7421505,16.1565161 L45.4402151,16.2016774 C45.3292473,15.9302796 45.1172043,15.7259785 44.7494624,15.7259785 C44.2754839,15.7259785 43.8230108,16.0227527 43.8230108,16.8313548 C43.8230108,17.6373763 44.2673118,17.9311398 44.7387097,17.9311398 Z M47.2363871,16.2212473 C47.4178925,16.2212473 47.5645591,16.2659785 47.6574624,16.364043 C47.7434839,16.4595269 47.7886452,16.5915699 47.7886452,16.7984516 L47.7886452,18.072 L47.5172473,18.072 L47.5172473,16.8698495 C47.5172473,16.7296344 47.503914,16.5971613 47.4333763,16.5137204 C47.3796129,16.4513548 47.296172,16.4092043 47.155957,16.4092043 C47.0591828,16.4092043 46.9546667,16.4354409 46.8510108,16.4831828 C46.7482151,16.5339355 46.6049892,16.6289892 46.5125161,16.724043 L46.5125161,18.072 L46.2424086,18.072 L46.2424086,15.5980215 L46.5125161,15.5980215 L46.5125161,16.5124301 L46.5228387,16.5124301 C46.6342366,16.4302796 46.7507957,16.355871 46.8699355,16.3029677 C46.983914,16.2530753 47.1107957,16.2212473 47.2363871,16.2212473 Z M49.5026237,17.7286882 L49.5026237,17.0387957 C48.7946667,17.123957 48.4845591,17.2916989 48.4845591,17.5987957 C48.4845591,17.7987957 48.5916559,17.9562151 48.9413333,17.9562151 C49.0802581,17.9562151 49.3305806,17.9076129 49.5026237,17.7286882 Z M49.7778925,16.8856774 L49.7778925,17.7751398 C49.7778925,17.9364301 49.7895054,17.9936344 49.8587527,18.056 L49.8587527,18.071914 L49.5753118,18.071914 C49.5301505,18.0228817 49.5155269,17.9656774 49.5129462,17.8972903 L49.5064946,17.8972903 C49.3649892,18.0375054 49.1095054,18.1127742 48.8974624,18.1127742 C48.395957,18.1127742 48.2015484,17.9101935 48.2015484,17.6112688 C48.2015484,17.2168602 48.5533763,17.0022366 49.5013333,16.9015914 L49.5013333,16.8327742 C49.5013333,16.5338495 49.3873548,16.372129 49.0497204,16.372129 C48.7495054,16.372129 48.611871,16.548043 48.580043,16.7295484 L48.2940215,16.7015914 C48.3538065,16.4568602 48.552086,16.2211613 49.0578925,16.2211613 C49.5447742,16.2211613 49.7778925,16.3854624 49.7778925,16.8856774 Z M50.3615054,18.072043 L50.3615054,16.2608602 L50.6316129,16.2608602 L50.6316129,18.072043 L50.3615054,18.072043 Z M50.3615054,15.8823656 L50.3615054,15.5886022 L50.6316129,15.5886022 L50.6316129,15.8823656 L50.3615054,15.8823656 Z M52.1618495,16.2212473 C52.3429247,16.2212473 52.4900215,16.2659785 52.5816344,16.364043 C52.6676559,16.4595269 52.7123871,16.5915699 52.7123871,16.7984516 L52.7123871,18.072 L52.4409892,18.072 L52.4409892,16.8685591 C52.4409892,16.7270538 52.4289462,16.5997419 52.3588387,16.5167312 C52.3046452,16.4543656 52.2216344,16.4092043 52.0784086,16.4092043 C51.9816344,16.4092043 51.8796989,16.4371613 51.7764731,16.4831828 C51.671957,16.5339355 51.5317419,16.6289892 51.4405591,16.724043 L51.4405591,18.072 L51.1674409,18.072 L51.1674409,16.2608172 L51.4405591,16.2608172 L51.4336774,16.5154409 L51.4483011,16.5154409 C51.5609892,16.4315699 51.6775484,16.3575914 51.7962581,16.3029677 C51.9102366,16.2530753 52.035828,16.2212473 52.1618495,16.2212473 Z M56.0042581,16.9306667 C56.1341505,17.0287312 56.243828,17.1766882 56.243828,17.3883011 C56.243828,17.5741075 56.1578065,17.7487312 55.9844731,17.879914 C55.8124301,18.008086 55.5543656,18.1207742 55.1956559,18.1207742 C54.6184516,18.1207742 54.3165161,17.9181935 54.1853333,17.6455054 L54.4821075,17.6055054 C54.5904946,17.7753978 54.8197419,17.9310968 55.2033978,17.9310968 C55.4550108,17.9310968 55.6352258,17.851957 55.7633978,17.7569032 C55.8717849,17.672172 55.9367312,17.5526022 55.9367312,17.4231398 C55.9367312,17.2562581 55.8455484,17.1517419 55.7410323,17.0855054 C55.6296344,17.0205591 55.4984516,16.9753978 55.1350108,16.8566882 C54.7522151,16.7375484 54.6184516,16.6790538 54.5018925,16.5994839 C54.3737204,16.512172 54.2532903,16.371957 54.2532903,16.1444301 C54.2532903,15.9857204 54.3233978,15.8283011 54.4911398,15.719914 C54.6606022,15.6042151 54.9018925,15.5384086 55.2283441,15.5384086 C55.7569462,15.5384086 56.0330753,15.7341075 56.1354409,15.9973333 L55.8412473,16.0257204 C55.7595269,15.8743226 55.5810323,15.7289462 55.2141505,15.7289462 C55.0180215,15.7289462 54.8292043,15.7728172 54.7139355,15.8489462 C54.6107097,15.9169032 54.5547957,16.0093763 54.5547957,16.1315269 C54.5547957,16.2687312 54.6339355,16.3788387 54.756086,16.4433548 C54.8765161,16.512172 55.0098495,16.5603441 55.3741505,16.6687312 C55.704043,16.7775484 55.8704946,16.8351828 56.0042581,16.9306667 Z M57.1929032,17.9471398 C57.284086,17.9471398 57.3572043,17.9075699 57.4032258,17.8783226 L57.4496774,18.0344516 C57.3782796,18.0688602 57.2746237,18.1127312 57.1425806,18.1127312 C56.8724731,18.1127312 56.7030108,17.9630538 56.7030108,17.5527312 L56.7030108,16.4224086 L56.4926882,16.4224086 L56.4926882,16.2606882 L56.7030108,16.2606882 L56.7030108,15.871871 L56.955914,15.871871 L56.955914,16.2606882 L57.3412903,16.2606882 L57.3412903,16.4224086 L56.955914,16.4224086 L56.955914,17.468 C56.955914,17.7987527 57.0458065,17.9471398 57.1929032,17.9471398 Z M58.5059355,17.9500645 C58.8689462,17.9500645 59.0977634,17.679957 59.0977634,17.1664086 C59.0977634,16.596086 58.8186237,16.3823226 58.5020645,16.3823226 C58.1842151,16.3823226 57.9050753,16.5969462 57.9050753,17.1664086 C57.9050753,17.7010323 58.1381935,17.9500645 58.5020645,17.9500645 L58.5059355,17.9500645 Z M58.5020645,16.2210323 C59.0074409,16.2210323 59.3743226,16.4889892 59.3743226,17.1664086 L59.3743226,17.1702796 C59.3743226,17.7595269 59.0870108,18.1126452 58.5020645,18.1126452 C57.9115269,18.1126452 57.6285161,17.7754409 57.6285161,17.1664086 C57.6285161,16.4889892 57.9953978,16.2210323 58.5020645,16.2210323 Z M60.4489462,16.2212473 C60.5018495,16.2212473 60.552172,16.2268387 60.5986237,16.2423226 C60.636043,16.2556559 60.6648602,16.2715699 60.6962581,16.2939355 L60.6605591,16.4857634 C60.636043,16.4625376 60.6076559,16.4436129 60.5762581,16.4302796 C60.5349677,16.4143656 60.4928172,16.4066237 60.439914,16.4066237 C60.371957,16.4066237 60.3005591,16.4276989 60.2175484,16.4844731 C60.1444301,16.5347957 60.0691613,16.6087742 60.0003441,16.6952258 L60.0003441,18.072 L59.7384086,18.072 L59.7384086,16.2608172 L60.0003441,16.2608172 L59.9947527,16.4569462 L60.0042151,16.4569462 C60.0691613,16.3907097 60.1315269,16.3313548 60.2067957,16.2874839 C60.2786237,16.247914 60.3564731,16.2212473 60.4489462,16.2212473 Z M61.2020645,17.0629677 L62.3775484,17.0629677 C62.3457204,16.6397419 62.1143226,16.3722151 61.8067957,16.3722151 C61.4855054,16.3722151 61.2235699,16.5786667 61.2020645,17.0629677 Z M62.4106667,16.4526452 C62.5745376,16.6259785 62.6622796,16.8870538 62.6622796,17.2018925 L61.2033548,17.2018925 C61.2222796,17.7803871 61.5250753,17.9618925 61.8149677,17.9618925 C62.0743226,17.9618925 62.2545376,17.8466237 62.3710968,17.6242581 L62.6571183,17.6535054 C62.6102366,17.7537204 62.5259355,17.8676989 62.396043,17.9575914 C62.2627097,18.047914 62.079914,18.1124301 61.8166882,18.1124301 C61.5620645,18.1124301 61.3293763,18.047914 61.1663656,17.8874839 C61.0089462,17.7352258 60.9216344,17.4973763 60.9216344,17.1502796 C60.9216344,16.8406022 61.0089462,16.5945806 61.1796989,16.4384516 C61.331957,16.2982366 61.5409892,16.2212473 61.8110968,16.2212473 C62.048086,16.2212473 62.2515269,16.2982366 62.4106667,16.4526452 Z M25.4611613,13.0735484 C26.6473978,12.5122581 27.1979355,11.3647312 27.1979355,9.93634409 C27.1979355,8.50709677 26.6473978,7.35827957 25.4611613,6.79698925 C24.8869677,6.51655914 24.1613763,6.37634409 23.1265376,6.37634409 L22.4246022,6.37634409 C21.7101935,6.37634409 21.5192258,6.4911828 21.5192258,7.07784946 L21.5192258,12.7931183 C21.5192258,13.3926882 21.7101935,13.4946237 22.4246022,13.4946237 L23.1265376,13.4946237 C24.1613763,13.4946237 24.8869677,13.3539785 25.4611613,13.0735484 Z M27.5420215,7.94580645 C27.9497634,8.64731183 27.9867527,9.24731183 27.9867527,9.93634409 C28.000086,10.6249462 27.9497634,11.2124731 27.5420215,11.9144086 C26.6473978,13.4825806 24.9265376,13.8150538 23.2030968,13.8150538 L19.4147097,13.8150538 C19.083957,13.8150538 19.083957,13.4946237 19.4147097,13.4946237 C20.727828,13.4946237 20.8310538,13.3806452 20.8310538,12.7931183 L20.8310538,7.07784946 C20.8310538,6.4911828 20.727828,6.37634409 19.4147097,6.37634409 C19.083957,6.37634409 19.083957,6.05806452 19.4147097,6.05806452 L23.2030968,6.05806452 C24.9265376,6.05806452 26.6473978,6.37634409 27.5420215,7.94580645 Z M33.4983656,7.01380645 L31.5843871,10.8925161 L35.3332043,10.8925161 L33.4983656,7.01380645 Z M31.444172,13.4826237 C31.7379355,13.4826237 31.7379355,13.8150968 31.444172,13.8150968 L28.688043,13.8150968 C28.4446022,13.8150968 28.4209462,13.4826237 28.688043,13.4826237 C29.620086,13.4826237 29.7869677,13.4069247 30.168043,12.6391828 L33.4850323,5.92950538 C33.5486882,5.80133333 33.5990108,5.80133333 33.6626667,5.92950538 L37.1461075,12.9596129 C37.3633118,13.3927312 37.4772903,13.4826237 38.396,13.4826237 C38.6897634,13.4826237 38.6764301,13.8150968 38.396,13.8150968 L35.4626667,13.8150968 C35.1925591,13.8150968 35.1689032,13.4826237 35.4626667,13.4826237 C36.571914,13.4826237 36.6089032,13.3806882 36.3413763,12.8447742 L35.5366452,11.2499355 L31.3938495,11.2499355 L30.6153548,12.7931613 C30.3082581,13.3927312 30.2712688,13.4826237 31.444172,13.4826237 Z M47.1225806,6.05827957 C47.4163441,6.05827957 47.4296774,6.38946237 47.1225806,6.38946237 C46.2025806,6.38946237 46.0623656,6.44107527 45.6546237,7.25741935 L42.3746237,13.891828 C42.2980645,14.0436559 42.2236559,14.0436559 42.1445161,13.891828 L38.8670968,7.19419355 C38.4963441,6.42731183 38.4197849,6.38946237 37.4270968,6.38946237 C37.12,6.38946237 37.1329032,6.05827957 37.4270968,6.05827957 L40.3733333,6.05827957 C40.6670968,6.05827957 40.6670968,6.38946237 40.36,6.38946237 C39.2511828,6.38946237 39.2511828,6.51634409 39.5182796,7.05268817 L42.3617204,12.8195699 L45.2073118,7.11591398 C45.5277419,6.47935484 45.5380645,6.38946237 44.4051613,6.38946237 C44.0980645,6.38946237 44.0980645,6.05827957 44.391828,6.05827957 L47.1225806,6.05827957 Z M52.6978065,6.37621505 C51.3833978,6.37621505 51.0909247,6.47901075 51.0909247,7.07772043 L51.0909247,12.7929892 C51.0909247,13.3925591 51.3833978,13.4944946 52.6978065,13.4944946 C53.0298495,13.4944946 53.0298495,13.8149247 52.6978065,13.8149247 L48.7812473,13.8149247 C48.4504946,13.8149247 48.4504946,13.4944946 48.7812473,13.4944946 C50.0956559,13.4944946 50.3894194,13.3925591 50.3894194,12.7929892 L50.3894194,7.07772043 C50.3894194,6.47901075 50.0956559,6.37621505 48.7812473,6.37621505 C48.4504946,6.37621505 48.4504946,6.05836559 48.7812473,6.05836559 L52.6978065,6.05836559 C53.0298495,6.05836559 53.0298495,6.37621505 52.6978065,6.37621505 Z M58.7323011,13.9287312 C56.0531613,13.9287312 54.1512258,11.9893763 54.1512258,9.93647312 C54.1512258,7.75410753 55.9766022,5.90464516 58.7189677,5.90464516 C59.6510108,5.90464516 60.7731613,6.27539785 61.3593978,6.81002151 C61.4114409,6.87367742 61.500043,6.84830108 61.5383226,6.7467957 L61.7688602,6.1984086 C61.8707957,5.95496774 62.088,6.03195699 62.1009032,6.26206452 L62.2781075,8.97948387 C62.2914409,9.19539785 62.0363871,9.23367742 61.9976774,9.02980645 C61.6789677,7.46163441 60.4290753,6.32572043 58.7323011,6.32572043 C56.3972473,6.32572043 54.9426237,7.86894624 54.9426237,9.93647312 C54.9426237,11.7472258 56.3340215,13.5076559 58.9107957,13.5076559 C60.2626237,13.5076559 61.4746667,12.5756129 62.0110108,11.3012043 C62.1262796,11.0328172 62.4953118,11.1730323 62.4067097,11.4418495 C61.9723011,12.767871 60.7864946,13.9287312 58.7323011,13.9287312 Z M74.1964301,13.4944086 C74.5276129,13.4944086 74.5276129,13.8148387 74.1964301,13.8148387 L70.6729892,13.8148387 C70.3418065,13.8148387 70.3418065,13.4944086 70.6729892,13.4944086 C71.9882581,13.4944086 72.0906237,13.3929032 72.0906237,12.7929032 L72.0906237,9.97354839 L66.4372903,9.97354839 L66.4372903,12.7929032 C66.4372903,13.3929032 66.5405161,13.4944086 67.8536344,13.4944086 C68.1856774,13.4944086 68.1856774,13.8148387 67.8536344,13.8148387 L64.3323441,13.8148387 C64.0003011,13.8148387 64.0003011,13.4944086 64.3323441,13.4944086 C65.6467527,13.4944086 65.7486882,13.3804301 65.7486882,12.7929032 L65.7486882,7.07763441 C65.7486882,6.49139785 65.6467527,6.37612903 64.3323441,6.37612903 C64.0003011,6.37612903 64.0003011,6.05827957 64.3323441,6.05827957 L67.8536344,6.05827957 C68.1856774,6.05827957 68.1856774,6.37612903 67.8536344,6.37612903 C66.5405161,6.37612903 66.4372903,6.47892473 66.4372903,7.07763441 L66.4372903,9.6027957 L72.0906237,9.6027957 L72.0906237,7.07763441 C72.0906237,6.47892473 71.9882581,6.37612903 70.6729892,6.37612903 C70.3418065,6.37612903 70.3418065,6.05827957 70.6729892,6.05827957 L74.1964301,6.05827957 C74.5276129,6.05827957 74.5276129,6.37612903 74.1964301,6.37612903 C72.8820215,6.37612903 72.780086,6.49139785 72.780086,7.07763441 L72.780086,12.7929032 C72.780086,13.3804301 72.8820215,13.4944086 74.1964301,13.4944086 Z" fill="#231F20"></path>
        </g>
    </g>
</svg>