<?xml version="1.0" encoding="UTF-8"?>
<svg width="100px" height="60px" viewBox="0 0 100 60" version="1.1" xmlns="http://www.w3.org/2000/svg" xmlns:xlink="http://www.w3.org/1999/xlink">
    <!-- Generator: Sketch 52.4 (67378) - http://www.bohemiancoding.com/sketch -->
    <title>logo/dexko</title>
    <desc>Created with Sketch.</desc>
    <g id="logo/dexko" stroke="none" stroke-width="1" fill="none" fill-rule="evenodd">
        <g id="로고" transform="translate(12.000000, 21.000000)">
            <polygon id="Fill-4" fill="#3AA7DF" points="44.9674881 5.14762743 43.0015089 5.14762743 45.5517581 8.70947282 46.5347253 7.33658005"></polygon>
            <polygon id="Fill-6" fill="#235894" points="43.0015044 12.2713272 44.9674836 12.2713272 46.5347208 10.0823746 45.5517536 8.7094818"></polygon>
            <polygon id="Fill-8" fill="#235894" points="48.1019714 5.14762743 45.5517223 8.70947282 47.5177015 8.70947282 50.0679506 5.14762743"></polygon>
            <polygon id="Fill-10" fill="#3AA7DF" points="47.5177238 8.70947731 45.5517447 8.70947731 48.1019938 12.2713227 50.067973 12.2713227"></polygon>
            <polygon id="Fill-14" fill="#3AA7DF" points="73.3446031 8.70947731 75.8523168 12.2713227 73.9256974 12.2713227 71.417939 8.70947731"></polygon>
            <polygon id="Fill-17" fill="#235894" points="59.8780772 5.14762743 57.7954051 5.14762743 55.4364089 8.70947282 57.4340996 8.70947282"></polygon>
            <polygon id="Fill-19" fill="#235894" points="53.7150019 5.14762743 53.7150019 12.2713182 55.4364134 12.2713182 55.4364134 8.70947282 55.4364134 5.14762743"></polygon>
            <polygon id="Fill-21" fill="#3AA7DF" points="55.4364268 8.70947731 57.7953782 12.2713227 59.8780951 12.2713227 57.4341175 8.70947731"></polygon>
            <path d="M3.69530736,5.11221097 L7.4640566,8.89450025 L3.69508373,12.6766549 L3.27174183,12.6766549 L7.04075943,8.89450025 L3.2716971,5.11221097 L3.69530736,5.11221097 Z M2.85450965,5.11221097 L6.62307999,8.89450025 L2.85428602,12.6766549 L2.43098885,12.6766549 L6.19978282,8.89450025 L2.43089939,5.11221097 L2.85450965,5.11221097 Z M2.03671509,5.11221097 L5.80528542,8.89450025 L2.03649145,12.6766549 L1.61319428,12.6766549 L5.38198825,8.89450025 L1.61310483,5.11221097 L2.03671509,5.11221097 Z M1.21869688,5.11221097 L4.98726722,8.89450025 L1.21847325,12.6766549 L0.795176078,12.6766549 L4.56397005,8.89450025 L0.795086624,5.11221097 L1.21869688,5.11221097 Z M0.423632623,5.11221097 L4.19220296,8.89450025 L0.423408988,12.6766549 L0.000111817722,12.6766549 L3.76890579,8.89450025 L-2.23635445e-05,5.11221097 L0.423632623,5.11221097 Z" id="Combined-Shape" fill="#235894"></path>
            <polygon id="Fill-28" fill="#235894" points="9.32301282 14.3391456 5.55435303 17.9551257 5.55435303 14.8378938 9.32301282 11.0556943 13.0916726 14.8378938 13.0916726 17.9551257"></polygon>
            <path d="M9.32301282,3.61596658 L13.0916726,-1.34663342e-05 L13.0916726,3.11721845 L9.32301282,6.89941796 L5.55435303,3.11721845 L5.55435303,-1.34663342e-05 L9.32301282,3.61596658 Z M14.6654131,8.89441945 L18.2684485,12.676619 L15.1623758,12.676619 L11.393716,8.89441945 L15.1623758,5.11221995 L18.2684485,5.11221995 L14.6654131,8.89441945 Z" id="Combined-Shape" fill="#3AA7DF"></path>
            <path d="M35.1407007,5.14762743 L39.3911159,5.14762743 L39.3911159,6.74724838 L36.8833575,6.74724838 L36.8833575,7.85633566 L39.263599,7.85633566 L39.263599,9.49864489 L36.8621121,9.49864489 L36.8621121,10.7356623 L39.3911159,10.7356623 L39.3911159,12.2713182 L35.1407007,12.2713182 L35.1407007,5.14762743 Z M26.9635824,5.14763192 C29.0880744,5.14763192 31.1702099,6.29577157 31.1702099,8.70947731 C31.1702099,11.123183 29.0880744,12.2713227 26.9635824,12.2713227 L25.5383985,12.2713227 L25.5383985,8.70947731 L25.5383985,5.14763192 L26.9635824,5.14763192 Z M27.2173192,10.6930234 C28.2626807,10.6930234 28.8774993,10.1722354 29.2284728,9.66437506 C29.6235024,9.09286384 29.6235024,8.32609077 29.2284728,7.75457955 C28.8774993,7.2467192 28.2626807,6.72593117 27.2173192,6.72593117 L27.2173192,8.70947731 L27.2173192,10.6930234 Z M66.182848,5.14762743 C68.0138855,5.14762743 69.4981987,6.74231072 69.4981987,8.70947282 C69.4981987,10.6766349 68.0138855,12.2713182 66.182848,12.2713182 C64.3518551,12.2713182 62.8675419,10.6766349 62.8675419,8.70947282 C62.8675419,6.74231072 64.3518551,5.14762743 66.182848,5.14762743 Z M66.1829821,10.223807 C66.8859578,10.223807 67.4581067,9.54460998 67.4581067,8.70947282 C67.4581067,7.87433566 66.8859578,7.19513865 66.1829821,7.19513865 C65.4799618,7.19513865 64.9078576,7.87433566 64.9078576,8.70947282 C64.9078576,9.54460998 65.4799618,10.223807 66.1829821,10.223807 Z" id="Combined-Shape" fill="#235894"></path>
        </g>
    </g>
</svg>