<?xml version="1.0" encoding="utf-8"?>
<!-- Generator: Adobe Illustrator 25.3.1, SVG Export Plug-In . SVG Version: 6.00 Build 0)  -->
<svg version="1.1" id="레이어_1" xmlns="http://www.w3.org/2000/svg" xmlns:xlink="http://www.w3.org/1999/xlink" x="0px"
	 y="0px" viewBox="0 0 100 60" style="enable-background:new 0 0 100 60;" xml:space="preserve">
<style type="text/css">
	.st0{fill:#003668;}
	.st1{fill:#E6002D;}
	.st2{fill:#58595B;}
</style>
<g>
	<path class="st0" d="M28.5,29.5c-2.1-1.4-4.7-0.8-6.1,1.3c-1.3,2-3.9,2.6-5.9,1.3c-0.9-0.6-1.5-1.4-1.8-2.5l0,0v0c0,0,0,0,0-0.1
		c-0.2-0.5-0.2-1.1-0.2-1.7c0-3.8,3.9-8.1,9.6-8.1c5.8,0,9.1,4.4,9.9,6.9c0,0,0-0.1,0-0.1c-2.2-6.4-9.1-9.8-15.4-7.6
		c-4.9,1.7-8.3,6.3-8.3,11.6c0,6,4.3,11.1,10.3,11.1c4.8,0,8-2.7,9.5-6.4C31,33.1,30.3,30.8,28.5,29.5z"/>
	<path class="st1" d="M34.1,26.8c-0.7-2.4-4-7.1-10-7.1c-5.6,0-9.6,4.2-9.6,8.1c0,0.6,0.1,1.1,0.2,1.7c-0.1-0.3-0.1-0.6-0.1-0.9
		c0-4,4-6.7,8.1-6.7c5.5,0,10,4.5,10,10c0,4.2-2.4,8-6.1,9.9l0,0c4.8-1.7,8-6.3,8-11.4C34.6,29.2,34.4,28,34.1,26.8z"/>
	<path class="st2" d="M46.2,28.3c0,0.3-0.1,0.7-0.2,1c-0.1,0.3-0.3,0.6-0.6,0.8c-0.3,0.2-0.5,0.4-0.9,0.6c-0.7,0.3-1.4,0.3-2.1,0
		c-0.3-0.1-0.6-0.3-0.9-0.6c-0.2-0.2-0.4-0.5-0.6-0.8c-0.3-0.6-0.3-1.4,0-2c0.1-0.3,0.3-0.6,0.6-0.8c0.3-0.2,0.6-0.4,0.9-0.6
		c0.7-0.3,1.4-0.3,2.1,0c0.3,0.1,0.6,0.3,0.9,0.6c0.2,0.2,0.4,0.5,0.6,0.9C46.1,27.6,46.2,28,46.2,28.3z M41.3,35.1v-3.2h1.2V34h6.8
		v1.1L41.3,35.1z M45,28.3c0-0.2,0-0.4-0.1-0.6c-0.1-0.2-0.2-0.3-0.3-0.5c-0.1-0.1-0.3-0.3-0.5-0.3c-0.2-0.1-0.4-0.1-0.6-0.1
		c-0.4,0-0.8,0.2-1.1,0.5c-0.1,0.1-0.2,0.3-0.3,0.5c-0.1,0.2-0.1,0.4-0.1,0.6c0,0.2,0,0.4,0.1,0.6c0.1,0.2,0.2,0.3,0.3,0.5
		c0.3,0.3,0.7,0.5,1.1,0.5c0.2,0,0.4,0,0.6-0.1c0.2-0.1,0.4-0.2,0.5-0.3c0.1-0.1,0.2-0.3,0.3-0.5C45,28.8,45,28.6,45,28.3z
		 M47.9,31.8v-6.2h1.2v6.2L47.9,31.8z"/>
	<path class="st2" d="M53.5,25.6l3.2,7.9l-1.1,0.5l-2.1-5.3L51.4,34l-1.1-0.5L53.5,25.6z M58.6,35.3h-1.2v-9.7h1.2v3.7H60v1.2h-1.4
		V35.3z"/>
	<path class="st2" d="M66.4,26.1v1h-5.6v-1H63v-0.8h1.3v0.8H66.4z M65.9,29.4c0,0.3-0.1,0.5-0.2,0.8c-0.1,0.2-0.3,0.5-0.5,0.7
		c-0.2,0.2-0.4,0.3-0.7,0.4c-0.3,0.1-0.6,0.2-0.9,0.2c-0.3,0-0.6-0.1-0.9-0.2c-0.3-0.1-0.5-0.3-0.7-0.5c-0.2-0.2-0.4-0.4-0.5-0.7
		c-0.1-0.2-0.2-0.5-0.2-0.8c0-0.3,0.1-0.6,0.2-0.8c0.1-0.2,0.3-0.5,0.5-0.7c0.2-0.2,0.5-0.3,0.7-0.4c0.3-0.1,0.6-0.2,0.9-0.2
		c0.3,0,0.6,0.1,0.9,0.2c0.3,0.1,0.5,0.3,0.7,0.4c0.2,0.2,0.4,0.4,0.5,0.7C65.8,28.8,65.9,29.1,65.9,29.4z M61.6,31.9h7.8v3.2h-1.2
		V33h-6.6L61.6,31.9z M64.7,29.3c0-0.3-0.1-0.6-0.3-0.7c-0.4-0.4-1.1-0.4-1.5,0c-0.2,0.2-0.3,0.5-0.3,0.7c0,0.3,0.1,0.6,0.3,0.7
		c0.4,0.4,1.1,0.4,1.5,0C64.6,29.9,64.7,29.6,64.7,29.3L64.7,29.3z M68.2,28.2h-1.6v-1h1.6v-1.7h1.2v5.7h-1.2v-1.1h-1.6v-1h1.6V28.2
		z"/>
	<path class="st2" d="M74,25.5l3.1,4.8l-1,0.6L74,27.5L71.9,31l-1-0.7L74,25.5z M71.7,35.1v-3.2h1.2V34h6.8v1.1L71.7,35.1z
		 M78.4,31.8v-6.2h1.2v6.2H78.4z"/>
	<path class="st2" d="M83.6,26.5v-1h1.3v1h2.3v1h-2.5l2.7,6l-1,0.4l-2.2-5l-2.2,5.1l-1-0.5l2.7-6.1h-2.6v-1H83.6z M88.5,30.5h-1.8
		v-1.1h1.8v-3.8h1.2v9.7h-1.2L88.5,30.5z"/>
</g>
</svg>
