<?xml version="1.0" encoding="UTF-8"?>
<svg width="100px" height="60px" viewBox="0 0 100 60" version="1.1" xmlns="http://www.w3.org/2000/svg" xmlns:xlink="http://www.w3.org/1999/xlink">
    <!-- Generator: Sketch 63 (92445) - https://sketch.com -->
    <title>logo/doosan</title>
    <desc>Created with Sketch.</desc>
    <defs>
        <polygon id="path-1" points="0.0633835616 0.00189863014 22.0323562 0.00189863014 22.0323562 21.9715425 0.0633835616 21.9715425"></polygon>
    </defs>
    <g id="logo/doosan" stroke="none" stroke-width="1" fill="none" fill-rule="evenodd">
        <g id="Group-8" transform="translate(20.000000, 16.000000)">
            <path d="M11.9800301,14.4156274 C11.3210712,16.2760932 10.5391808,17.9687507 6.97397534,17.9687507 L2.49589315,17.9687507 L5.01224932,10.8636548 L9.49071507,10.8636548 C13.0559205,10.8636548 12.6393726,12.5545863 11.9800301,14.4156274 L11.9800301,14.4156274 Z M25.0801945,6.14412055 L6.14586575,3.83561644e-05 L5.75342466e-05,18.9337918 L18.9347699,25.0786411 L19.8900301,22.1353808 L19.5022493,16.7942849 C18.5755644,17.7140658 17.2843041,18.1077918 15.3459753,18.1077918 C12.1950164,18.1077918 11.483126,17.0731342 12.4245781,14.4156274 C13.3656466,11.7586959 14.8099479,10.7242301 17.9614822,10.7242301 C18.3707425,10.7242301 18.7368521,10.7428329 19.0653726,10.7786959 L18.8651534,8.02088767 L24.6063041,7.60433973 L25.0801945,6.14412055 Z M15.6081397,14.4156274 C14.9286603,16.3370795 14.8446603,16.853737 15.7907151,16.853737 C16.7354274,16.853737 17.0179205,16.3370795 17.6983589,14.4156274 C18.3786055,12.4949425 18.4627973,11.9775178 17.5173178,11.9775178 C16.5716466,11.9775178 16.2893452,12.4949425 15.6081397,14.4156274 L15.6081397,14.4156274 Z M8.23876986,12.1961479 L7.62507123,12.1961479 L6.05304384,16.6352986 L6.66674247,16.6352986 C7.86134521,16.6352986 8.11583836,16.3370795 8.79646849,14.4156274 C9.47594795,12.4949425 9.43260548,12.1961479 8.23876986,12.1961479 L8.23876986,12.1961479 Z" id="Fill-1" fill="#164397"></path>
            <g id="Group-5" transform="translate(37.589041, 4.477123)">
                <mask id="mask-2" fill="white">
                    <use xlink:href="#path-1"></use>
                </mask>
                <g id="Clip-4"></g>
                <path d="M6.00935616,7.83959726 L5.97521918,7.83959726 L4.0620137,10.8547753 L5.78650685,10.8547753 L6.00935616,7.83959726 Z M17.5570548,13.4917616 L14.1734658,13.4917616 L13.6719589,9.10304932 L13.638589,9.10304932 L12.0830548,13.4917616 L9.19809589,13.4917616 L11.7144521,6.38666575 L15.1642055,6.38666575 L15.6039589,10.7652137 L15.6373288,10.7652137 L17.1873014,6.38666575 L20.0737945,6.38666575 L17.5570548,13.4917616 Z M2.24642466,0.00189863014 L1.02861644,11.0392685 L4.56620548,6.38666575 L8.44746575,6.38666575 L8.81683562,13.4917616 L5.53258904,13.4917616 L5.6580137,12.2478712 L3.20341096,12.2478712 L2.44836986,13.4917616 L0.757821918,13.4917616 L0.0633835616,19.7883096 L19.8490274,21.9715425 L22.0324521,2.18493973 L2.24642466,0.00189863014 Z" id="Fill-3" fill="#00AA90" mask="url(#mask-2)"></path>
            </g>
            <path d="M29.4272137,16.1077671 L29.5156247,15.8588356 L32.5012685,15.8588356 L32.4414329,16.0270274 C32.226063,16.6353562 32.5632137,16.8537945 33.160611,16.8537945 C33.7902274,16.8537945 34.2610493,16.5546164 34.3985562,16.167411 C34.8956521,14.7639589 29.8067479,15.461274 30.6977616,12.9431918 C31.2050219,11.5096301 32.7613233,10.7242877 35.3649397,10.7242877 C38.0510219,10.7242877 38.9596795,11.3903425 38.4203918,12.9138493 L35.5346658,12.9138493 L35.5945014,12.7435479 C35.7425562,12.3262329 35.5837616,11.9775753 34.9869397,11.9775753 C34.3239534,11.9775753 33.9156521,12.2863425 33.8025014,12.6045068 C33.3059808,14.0079589 38.5910767,13.3219589 37.6714877,15.9182877 C37.1346932,17.4310548 35.4199808,18.1078493 32.6993781,18.1078493 C30.1452411,18.1078493 28.9053781,17.5804521 29.4272137,16.1077671 L29.4272137,16.1077671 Z M24.2650493,18.1078493 C21.1137068,18.1078493 20.4020082,17.0731918 21.3425014,14.4156849 C22.284337,11.7587534 23.7286384,10.7242877 26.879789,10.7242877 C30.0313233,10.7242877 30.7426384,11.7587534 29.8017616,14.4156849 C28.8608849,17.0731918 27.4162,18.1078493 24.2650493,18.1078493 L24.2650493,18.1078493 Z M40.0227205,24.5269452 L37.6525014,24.2653562 L38.3469397,17.9688082 L36.7526658,17.9688082 L38.6173507,15.5163151 L39.0705288,11.412589 L38.7195699,6.57971233 L18.8652685,8.02094521 L19.0652959,10.7787534 C21.2677068,11.0213562 21.7017068,12.1039589 20.8829945,14.4156849 C20.5205288,15.4388356 20.0823096,16.2188082 19.5023644,16.7943425 L20.3066932,27.8742877 L40.1609945,26.4332466 L40.0227205,24.5269452 Z M26.4354329,11.9775753 C25.4905288,11.9775753 25.2080356,12.4948082 24.5274055,14.4156849 C23.8477342,16.3369452 23.7627753,16.8537945 24.7088301,16.8537945 C25.6541178,16.8537945 25.9369945,16.3369452 26.6172411,14.4156849 C27.2974877,12.4948082 27.3816795,11.9775753 26.4354329,11.9775753 L26.4354329,11.9775753 Z" id="Fill-6" fill="#0097D6"></path>
        </g>
    </g>
</svg>