<?xml version="1.0" encoding="UTF-8"?>
<svg width="100px" height="60px" viewBox="0 0 100 60" version="1.1" xmlns="http://www.w3.org/2000/svg" xmlns:xlink="http://www.w3.org/1999/xlink">
    <!-- Generator: Sketch 55.2 (78181) - https://sketchapp.com -->
    <title>logo/douzone</title>
    <desc>Created with Sketch.</desc>
    <g id="logo/douzone" stroke="none" stroke-width="1" fill="none" fill-rule="evenodd">
        <g transform="translate(19.000000, 26.000000)">
            <path d="M56.3190108,1.65668614 L56.3190108,8.54076535 C56.3190108,8.61457723 56.3790037,8.67442871 56.45299,8.67442871 L62.847222,8.67442871 C62.9212083,8.67442871 62.9812012,8.61457723 62.9812012,8.54076535 L62.9812012,6.86418119 C62.9812012,6.79036931 62.9212083,6.73051782 62.847222,6.73051782 L58.7380798,6.73051782 C58.6640935,6.73051782 58.6041006,6.67069604 58.6041006,6.59685446 L58.6041006,5.49784455 C58.6041006,5.42403267 58.6640935,5.36418119 58.7380798,5.36418119 L62.3964564,5.36418119 C62.4704427,5.36418119 62.5304356,5.30435941 62.5304356,5.23051782 L62.5304356,3.79363663 C62.5304356,3.71982475 62.4704427,3.65997327 62.3964564,3.65997327 L58.7381691,3.65997327 C58.664153,3.65997327 58.6041006,3.60009208 58.6041006,3.52619109 L58.6041006,2.44224059 C58.6041006,2.36836931 58.664153,2.30848812 58.7381691,2.30848812 L62.847222,2.30848812 C62.9212083,2.30848812 62.9812012,2.24866634 62.9812012,2.17482475 L62.9812012,0.478458416 C62.9812012,0.404646535 62.9212083,0.34479505 62.847222,0.34479505 L55.869317,0.34479505 C55.8093241,0.34479505 55.7657064,0.401735644 55.7814564,0.459507921 C55.7906563,0.493191089 55.798844,0.524052475 55.801196,0.53539901 C55.8142664,0.597715842 55.8751228,0.665260396 55.8751228,0.665260396 C56.1664233,0.9663 56.3190108,1.18348812 56.3190108,1.65668614" id="Fill-1" fill="#030303"></path>
            <path d="M52.4038406,2.65501485 L52.4038406,1.65669802 C52.4038406,1.1835 52.2512532,0.966282178 51.9599526,0.665272277 C51.9599526,0.665272277 51.8990963,0.59769802 51.8860259,0.535410891 C51.8836738,0.524064356 51.8754862,0.49320297 51.8662863,0.459519802 C51.8505363,0.401747525 51.894154,0.344806931 51.9541469,0.344806931 L53.3987702,0.344806931 L54.615748,0.344806931 C54.6897343,0.344806931 54.7497272,0.404628713 54.7497272,0.478470297 L54.7497272,8.53813366 C54.7497272,8.61197525 54.6897343,8.67179703 54.615748,8.67179703 L52.8885774,8.67179703 C52.7412598,8.67179703 52.602249,8.60380693 52.5120363,8.48763861 L49.2577409,4.29726238 C49.2229659,4.2525 49.1511233,4.27700495 49.1511233,4.33364851 L49.1511233,8.53813366 C49.1511233,8.61197525 49.0911303,8.67179703 49.017144,8.67179703 L46.9382036,8.67179703 C46.864128,8.67179703 46.8041053,8.61185644 46.8042244,8.53795545 L46.8150023,1.65669802 C46.8150023,1.1835 46.6624148,0.966282178 46.3711143,0.665272277 C46.3711143,0.665272277 46.3102579,0.59769802 46.2972471,0.535410891 C46.2948354,0.524064356 46.2866478,0.49320297 46.2774479,0.459519802 C46.2616979,0.401747525 46.3053156,0.344806931 46.3653383,0.344806931 L48.7482329,0.344806931 C48.8945084,0.344806931 49.0326559,0.411816832 49.1229876,0.526648515 L52.31336,4.58229208 C52.3484328,4.62687624 52.4202159,4.60177723 52.4197395,4.54510396 L52.4038406,2.65501485 Z" id="Fill-4" fill="#030303"></path>
            <path d="M41.1877357,6.71799802 C39.9573897,6.71799802 38.9599592,5.72294851 38.9599592,4.49550297 C38.9599592,3.26805743 39.9573897,2.27297822 41.1877357,2.27297822 C42.4180816,2.27297822 43.4154824,3.26805743 43.4154824,4.49550297 C43.4154824,5.72294851 42.4180816,6.71799802 41.1877357,6.71799802 M41.1877357,1.78217822e-05 C38.6990868,1.78217822e-05 36.6816279,2.01269109 36.6816279,4.49550297 C36.6816279,6.97828515 38.6990868,8.99095842 41.1877357,8.99095842 C43.6763845,8.99095842 45.6938434,6.97828515 45.6938434,4.49550297 C45.6938434,2.01269109 43.6763845,1.78217822e-05 41.1877357,1.78217822e-05" id="Fill-6" fill="#02AEEE"></path>
            <path d="M13.957918,6.71799802 C12.727572,6.71799802 11.7301415,5.72294851 11.7301415,4.49550297 C11.7301415,3.26805743 12.727572,2.27297822 13.957918,2.27297822 C15.1882937,2.27297822 16.1856944,3.26805743 16.1856944,4.49550297 C16.1856944,5.72294851 15.1882937,6.71799802 13.957918,6.71799802 M13.957918,1.78217822e-05 C11.4692691,1.78217822e-05 9.45181021,2.01269109 9.45181021,4.49550297 C9.45181021,6.97828515 11.4692691,8.99095842 13.957918,8.99095842 C16.4465668,8.99095842 18.4640257,6.97828515 18.4640257,4.49550297 C18.4640257,2.01269109 16.4465668,1.78217822e-05 13.957918,1.78217822e-05" id="Fill-8" fill="#02AEEE"></path>
            <path d="M2.88259239,6.65859208 L2.88259239,2.3907802 C2.88259239,2.35798812 2.90923937,2.33137426 2.94213871,2.33137426 L3.95567651,2.33137426 C5.18602245,2.33137426 6.07638871,3.17731485 6.07638871,4.49550297 C6.07638871,5.82087921 5.21871337,6.71799802 3.98836744,6.71799802 L2.94213871,6.71799802 C2.90923937,6.71799802 2.88259239,6.69138416 2.88259239,6.65859208 L2.88259239,6.65859208 Z M0.540784735,8.52955248 C0.540784735,8.60336436 0.600777647,8.66321584 0.674763941,8.66321584 L3.98836744,8.66321584 C6.4770163,8.66321584 8.49447519,7.04612673 8.49447519,4.49550297 C8.49447519,1.90255248 6.4770163,0.33889901 3.98836744,0.33889901 L2.47401536,0.343621782 L0.0911207467,0.343621782 C0.0310980624,0.343621782 -0.0125196125,0.400562376 0.00326016068,0.45830495 C0.012430293,0.492017822 0.0206476843,0.522879208 0.0229997637,0.534225743 C0.0360404064,0.596512871 0.0968967391,0.664087129 0.0968967391,0.664087129 C0.388197306,0.96509703 0.540784735,1.18231485 0.540784735,1.65551287 L0.540784735,8.52955248 Z" id="Fill-10" fill="#030303"></path>
            <path d="M28.8458332,0.345635644 L35.8287401,0.345635644 C35.9027264,0.345635644 35.9627193,0.405516832 35.9627193,0.47929901 L35.9627193,1.9242297 C35.9627193,1.99676436 35.9361021,2.06677426 35.8878994,2.12107129 L31.9033578,6.61129901 C31.8693569,6.64964554 31.8966291,6.71012079 31.947958,6.71012079 L35.8287401,6.71012079 C35.9027264,6.71012079 35.9627193,6.76994257 35.9627193,6.84378416 L35.9627193,8.53813069 C35.9627193,8.61197228 35.9027264,8.67179406 35.8287401,8.67179406 L28.7028328,8.67179406 C28.6288465,8.67179406 28.5688535,8.61197228 28.5688535,8.53813069 L28.5688535,7.10647723 C28.5688535,7.03364554 28.5956792,6.96333861 28.6442392,6.90895248 L32.6392311,2.43339802 C32.6734107,2.39508119 32.6461683,2.33448713 32.59475,2.33448713 L28.8458332,2.33448713 C28.7718469,2.33448713 28.711854,2.27463564 28.711854,2.20082376 L28.711854,0.47929901 C28.711854,0.405516832 28.7718469,0.345635644 28.8458332,0.345635644" id="Fill-12" fill="#030303"></path>
            <path d="M21.5288328,0.343606931 L19.1459382,0.343606931 C19.0859155,0.343606931 19.0422978,0.400547525 19.0580776,0.458290099 C19.0672477,0.49200297 19.0754651,0.522864356 19.0778172,0.534210891 C19.0908578,0.596527723 19.1517142,0.664072277 19.1517142,0.664072277 C19.4430147,0.965111881 19.5956022,1.1823 19.5956022,1.65549802 L19.5956022,5.42590396 C19.5956022,7.3033099 21.121149,8.82523069 23.0029911,8.82523069 L23.9913408,8.82523069 C25.873183,8.82523069 27.3987,7.3033099 27.3987,5.42590396 L27.3987,0.345626733 L26.9542761,0.343606931 L24.5713517,0.343606931 C24.5113588,0.343606931 24.4677411,0.400547525 24.4835209,0.458290099 C24.492691,0.49200297 24.5009084,0.522864356 24.5032605,0.534210891 C24.5163011,0.596527723 24.5771575,0.664072277 24.5771575,0.664072277 C24.868458,0.965111881 25.0210455,1.1823 25.0210455,1.65549802 L25.0210455,5.24608218 C25.0210455,6.09668614 24.3298914,6.78621089 23.4772775,6.78621089 L23.4772775,6.78621089 C22.6246636,6.78621089 21.9335095,6.09668614 21.9335095,5.24608218 L21.9335095,0.338913861 L21.5288328,0.343606931 Z" id="Fill-14" fill="#030303"></path>
        </g>
    </g>
</svg>