<?xml version="1.0" encoding="utf-8"?>
<!-- Generator: Adobe Illustrator 25.4.1, SVG Export Plug-In . SVG Version: 6.00 Build 0)  -->
<svg version="1.1" id="레이어_1" xmlns="http://www.w3.org/2000/svg" xmlns:xlink="http://www.w3.org/1999/xlink" x="0px"
	 y="0px" viewBox="0 0 100 60" style="enable-background:new 0 0 100 60;" xml:space="preserve">
<style type="text/css">
	.st0{fill-rule:evenodd;clip-rule:evenodd;fill:#005083;}
	.st1{fill:#005083;}
	.st2{fill:#F39800;}
	.st3{fill:#A9CE52;}
	.st4{fill:#FFFFFF;}
</style>
<desc>Created with Sketch.</desc>
<g>
	<g>
		<polygon class="st0" points="17,25.6 17,22.1 6.9,22.1 6.9,37.6 17,37.6 17,34.1 11,34.1 11,31.4 16.2,31.4 16.2,28.2 11,28.2 
			11,25.6 		"/>
		<path class="st0" d="M34.3,37.5c0.7,0.1,2.6,0.5,5.2,0.3c2.2-0.2,5.1-1.5,5.1-5c0-1.5-0.4-3.3-2.6-4.2l-3.3-1.2
			C38.3,27.3,38,27,38,26.7c0-0.6,0.4-1.1,1.5-1.2c0.9-0.1,2.4,0,4.2,0.5l0-3.6c-0.6-0.2-2.1-0.6-4.1-0.6c-2.7-0.1-5.3,1.6-5.5,5
			c-0.1,1.7,0.7,3.5,2.6,4.2l3,1.1c0.8,0.3,0.8,0.6,0.8,0.9c0,0.5-0.4,0.8-1,1.1c-0.8,0.3-3.1,0.3-5.2-0.3L34.3,37.5L34.3,37.5z"/>
		<path class="st0" d="M20.1,22.1v15.5h6c5,0,5.8-3,5.8-4.3c0-1.8-0.8-2.9-2-3.5c1.1-0.6,1.8-1.7,1.8-3.4c0-1.5-0.9-4.4-5.6-4.4
			H20.1z M24.1,31.3c1.8-0.3,3.7,0.2,3.7,1.4c0,1.3-2,1.7-3.7,1.4V31.3z M24.1,25.6c1.8-0.3,3.7,0.2,3.7,1.4c0,1.3-2,1.7-3.7,1.4
			V25.6z"/>
	</g>
	<g>
		<g>
			<path class="st1" d="M50.8,30c0-7.7,6.2-13.9,13.9-13.9c7.7,0,13.9,6.2,13.9,13.9c0,7.7-6.2,13.9-13.9,13.9
				C57,43.9,50.8,37.7,50.8,30z"/>
			<path class="st1" d="M81.5,30c0-3.4,2.8-6.2,6.2-6.2c3.4,0,6.2,2.8,6.2,6.2c0,3.4-2.8,6.2-6.2,6.2C84.3,36.2,81.5,33.4,81.5,30z"
				/>
			<path class="st2" d="M66.3,30c0-3.4,2.8-6.2,6.2-6.2c3.4,0,6.2,2.8,6.2,6.2c0,3.4-2.8,6.2-6.2,6.2C69.1,36.2,66.3,33.4,66.3,30z"
				/>
			<path class="st3" d="M58.6,30c0-3.4,2.8-6.2,6.2-6.2c3.4,0,6.2,2.8,6.2,6.2c0,3.4-2.8,6.2-6.2,6.2C61.3,36.2,58.6,33.4,58.6,30z"
				/>
		</g>
		<path class="st4" d="M66.3,30c0,1.9,0.9,3.7,2.3,4.8c1.4-1.1,2.3-2.9,2.3-4.8c0-1.9-0.9-3.7-2.3-4.8C67.2,26.4,66.3,28.1,66.3,30z
			"/>
	</g>
</g>
</svg>
