<?xml version="1.0" encoding="UTF-8"?>
<svg width="100px" height="60px" viewBox="0 0 100 60" version="1.1" xmlns="http://www.w3.org/2000/svg" xmlns:xlink="http://www.w3.org/1999/xlink">
    <!-- Generator: Sketch 55.2 (78181) - https://sketchapp.com -->
    <title>logo/emprain</title>
    <desc>Created with Sketch.</desc>
    <g id="logo/emprain" stroke="none" stroke-width="1" fill="none" fill-rule="evenodd">
        <g transform="translate(17.000000, 23.000000)" fill="#1354A2" id="Combined-Shape">
            <path d="M6.61989277,4.49998147 L6.61989277,5.20923529 C6.61989277,5.33811907 6.5158783,5.44255009 6.38760065,5.44255009 L1.27725649,5.44255009 L1.27725649,6.73887675 L4.57107548,6.73887675 C4.69931193,6.73887675 4.8033264,6.8432664 4.8033676,6.9721088 L4.80361476,7.68032824 C4.80365595,7.80921202 4.69964148,7.91372579 4.57132264,7.91372579 L1.27725649,7.91372579 L1.27725649,9.44887016 L6.38760065,9.44887016 C6.5158783,9.44887016 6.61989277,9.55334256 6.61989277,9.68222633 L6.61989277,10.4333519 C6.61989277,10.5622356 6.5158783,10.6666667 6.38760065,10.6666667 L0.232292116,10.6666667 C0.104014469,10.6666667 0,10.5622356 0,10.4333519 L0,4.49998147 C0,4.37113907 0.104014469,4.26666667 0.232292116,4.26666667 L6.38760065,4.26666667 C6.5158783,4.26666667 6.61989277,4.37113907 6.61989277,4.49998147 Z M13.32558,5.369407 C13.4129109,5.24784664 13.5530524,5.1758124 13.7023389,5.1758124 L14.944869,5.1758124 C15.0731466,5.1758124 15.1771611,5.2802848 15.1771611,5.4091272 L15.1771611,10.410521 C15.1771611,10.5394048 15.0731466,10.6438772 14.944869,10.6438772 L14.1179848,10.6438772 C13.9897072,10.6438772 13.8856927,10.5394048 13.8856927,10.410521 L13.8856927,6.70810187 C13.8856927,6.684518 13.8557036,6.67471208 13.8418625,6.69374467 L12.3667519,8.72315727 C12.2355495,8.90367731 12.0264083,9.01042535 11.8038792,9.01042535 L11.0614012,9.01042535 C10.8388721,9.01042535 10.6297309,8.90367731 10.4985285,8.72315727 L9.02341793,6.69374467 C9.0095768,6.67471208 8.97958768,6.684518 8.97958768,6.70810187 L8.97958768,10.410521 C8.97958768,10.5394048 8.87557321,10.6438772 8.74725437,10.6438772 L7.92041142,10.6438772 C7.79213378,10.6438772 7.68811931,10.5394048 7.68811931,10.410521 L7.68811931,5.4091272 C7.68811931,5.2802848 7.79213378,5.1758124 7.92041142,5.1758124 L9.1629415,5.1758124 C9.31218681,5.1758124 9.45236948,5.24784664 9.53970044,5.369407 L11.3384711,7.87310361 C11.3848141,7.93760756 11.4804663,7.93760756 11.5268093,7.87310361 L13.32558,5.369407 Z M22.5111987,7.69272426 C22.924167,7.96331812 23.1979825,8.43019597 23.1979825,8.96240528 C23.1979825,10.0804048 22.1735327,10.496267 21.330171,10.496267 L16.9518004,10.496267 C16.8234815,10.496267 16.7194671,10.3917946 16.7194671,10.2629522 L16.7194671,5.25791736 C16.7194671,5.12903359 16.8234815,5.02460256 16.9518004,5.02460256 L21.2086904,5.02460256 C22.1625751,5.02460256 22.9834038,5.6667458 22.9834038,6.55842291 C22.9834038,6.99224198 22.7998852,7.38228607 22.5081091,7.65867246 C22.4976047,7.66864388 22.4990465,7.68478022 22.5111987,7.69272426 Z M21.1803078,9.31910095 C21.6108659,9.31910095 21.9192431,9.09128905 21.9192431,8.81022726 C21.9192431,8.52916547 21.6108659,8.30135357 21.1803078,8.30135357 L20.2460725,8.30135357 C20.1177948,8.30135357 20.0137804,8.19688117 20.0137804,8.06803877 L20.0137804,7.37566603 C20.0137804,7.24682363 20.1177948,7.14235123 20.2460725,7.14235123 L21.0034214,7.14235123 C21.4339795,7.14235123 21.7423979,7.0369272 21.7423979,6.70584278 C21.7423979,6.42482237 21.6108659,6.19701047 21.1803078,6.19701047 L17.9919451,6.19701047 L17.9919451,9.31910095 L21.1803078,9.31910095 Z M24.372551,5.41233791 C24.372551,5.28349552 24.4765655,5.17902311 24.6048431,5.17902311 L28.8121357,5.17902311 C29.6252199,5.17902311 30.6142842,5.67825638 30.6142842,7.03941799 C30.6142842,8.4005796 29.4219283,8.62396435 29.4219283,8.62396435 L30.7145089,10.411994 C30.784868,10.5093085 30.7156211,10.6457225 30.5958706,10.6457639 L29.6669493,10.6458467 C29.4648111,10.6458467 29.2753605,10.5469185 29.1592763,10.3807143 L27.2763466,7.68528499 C27.2458632,7.64167552 27.2758523,7.58155735 27.3288688,7.57994371 L28.6041068,7.54067864 C29.1170114,7.50596484 29.3017246,7.31385975 29.3017246,6.98099619 C29.3017246,6.64809127 29.0880109,6.37824216 28.6427466,6.37824216 L25.6760892,6.37824216 L25.6760892,10.4125319 C25.6760892,10.5413743 25.5720747,10.6458467 25.443797,10.6458467 L24.6048431,10.6458467 C24.4765655,10.6458467 24.372551,10.5413743 24.372551,10.4125319 L24.372551,5.41233791 Z M38.2233402,10.3785752 C38.2886736,10.4989771 38.2019194,10.6457349 38.065403,10.6457349 L37.2553671,10.6457349 C37.0570187,10.6457349 36.8746536,10.5364216 36.7804844,10.3611149 L34.7576193,6.59621917 C34.7358689,6.55575421 34.6780739,6.55575421 34.6562824,6.59621917 L32.6334584,10.3611149 C32.5392481,10.5364216 32.3568829,10.6457349 32.1585345,10.6457349 L31.3484987,10.6457349 C31.2119823,10.6457349 31.125228,10.4989771 31.1905615,10.3785752 L33.9277692,5.33485456 C33.9783552,5.24159484 34.0756139,5.1835868 34.1813585,5.1835868 L35.2325843,5.1835868 C35.3382878,5.1835868 35.4355876,5.24159484 35.4861737,5.33485456 L38.2233402,10.3785752 Z M40.0181068,10.6438565 L39.1600389,10.6438565 C39.0317612,10.6438565 38.9277468,10.5394255 38.9277468,10.4105417 L38.9277468,5.39665257 C38.9277468,5.2677688 39.0317612,5.16333777 39.1600389,5.16333777 L40.0181068,5.16333777 C40.1463844,5.16333777 40.2504401,5.2677688 40.2504401,5.39665257 L40.2504401,10.4105417 C40.2504401,10.5394255 40.1463844,10.6438565 40.0181068,10.6438565 Z M41.7119649,5.41233791 C41.7119649,5.28349552 41.8159382,5.17902311 41.944257,5.17902311 L43.3166301,5.17902311 C43.3868244,5.17902311 43.4533113,5.21088202 43.4973887,5.26578693 L46.6917657,9.23933782 C46.7026821,9.25295027 46.7245972,9.24517173 46.7245972,9.22767002 L46.7245972,5.41233791 C46.7245972,5.28349552 46.8286117,5.17902311 46.9568893,5.17902311 L47.7677079,5.17902311 C47.8959855,5.17902311 48,5.28349552 48,5.41233791 L48,10.4108355 C48,10.5395951 47.8961915,10.6439848 47.7679962,10.6441503 L46.4121831,10.6459708 C46.3426479,10.6460949 46.2767377,10.6148566 46.2325367,10.5609861 L43.044174,6.67254402 C43.033134,6.65909707 43.0114249,6.66691699 43.0114249,6.68433595 L43.0114249,10.4127801 C43.0114249,10.5416225 42.9074516,10.6460949 42.7791327,10.6460949 L41.944257,10.6460949 C41.8159382,10.6460949 41.7119649,10.5416225 41.7119649,10.4127801 L41.7119649,5.41233791 Z"></path>
            <path d="M69.0265779,8.75056 L69.9462025,8.74743739 C70.1965791,8.7466 70.4,8.9488 70.4,9.19856 L70.4,15.54884 C70.4,15.798 70.1975414,15.99996 69.9477664,15.99996 L63.5864617,15.99996 C63.3366866,15.99996 63.134228,15.798 63.134228,15.54884 L63.134228,14.6666 C63.134228,14.4174 63.3366866,14.21544 63.5864617,14.21544 L66.5853264,14.21544 C66.7303635,14.21544 66.8029823,14.04052 66.7004499,13.9382 L62.6886909,9.93572 C62.5292583,9.77664 62.2707417,9.77664 62.1113091,9.93572 L58.0995501,13.9382 C57.9969776,14.04052 58.0695964,14.21544 58.2146736,14.21544 L61.2135383,14.21544 C61.4632733,14.21544 61.665772,14.4174 61.665772,14.6666 L61.665772,15.54884 C61.665772,15.798 61.4632733,15.99996 61.2135383,15.99996 L54.8522336,15.99996 C54.6024586,15.99996 54.4,15.798 54.4,15.54884 L54.4,9.19856 C54.4,8.9488 54.6033808,8.7466 54.8537574,8.74743739 L55.7734221,8.75056 C56.0225956,8.75144 56.2241319,8.95316 56.2241319,9.20168 L56.2241319,12.19792 C56.2241319,12.34216 56.3986818,12.41484 56.5014548,12.31332 L59.7311279,9.12496 C59.9730837,8.88608 60.2997682,8.75208 60.6401664,8.75208 L64.1598336,8.75208 C64.5002719,8.75208 64.8269163,8.88608 65.068832,9.12496 L68.2985452,12.31332 C68.4013583,12.41484 68.5758681,12.34216 68.5758681,12.19792 L68.5758681,9.20168 C68.5758681,8.95316 68.7774445,8.75144 69.0265779,8.75056 Z M69.0265779,7.2494 C68.7774445,7.24856 68.5758681,7.0468 68.5758681,6.79828 L68.5758681,3.80208 C68.5758681,3.65776 68.4013583,3.58512 68.2985452,3.68664 L65.068832,6.875 C64.8269163,7.11388 64.5002719,7.24788 64.1598336,7.24788 L60.6401664,7.24788 C60.2997682,7.24788 59.9730837,7.11388 59.7311279,6.875 L56.5014548,3.68664 C56.3986818,3.58512 56.2241319,3.6578 56.2241319,3.80208 L56.2241319,6.79828 C56.2241319,7.0468 56.0225956,7.24856 55.7734221,7.2494 L54.8537574,7.25252261 C54.6033808,7.25336 54.4,7.05112 54.4,6.8014 L54.4,0.45112 C54.4,0.20196 54.6024586,0 54.8522336,0 L61.2135383,0 C61.4632733,0 61.665772,0.20196 61.665772,0.45112 L61.665772,1.3334 C61.665772,1.58252 61.4632733,1.78452 61.2135383,1.78452 L58.2146736,1.78452 C58.0695964,1.78452 57.9969776,1.95944 58.0995501,2.06176 L62.1113091,6.06424 C62.2707417,6.22332 62.5292583,6.22332 62.6886909,6.06424 L66.7004499,2.06176 C66.8029823,1.95944 66.7303635,1.78452 66.5853264,1.78452 L63.5864617,1.78452 C63.3366866,1.78452 63.134228,1.58252 63.134228,1.3334 L63.134228,0.45112 C63.134228,0.20196 63.3366866,0 63.5864617,0 L69.9477664,0 C70.1975414,0 70.4,0.20196 70.4,0.45112 L70.4,6.8014 C70.4,7.05112 70.1965791,7.25336 69.9462025,7.25252261 L69.0265779,7.2494 Z"></path>
        </g>
    </g>
</svg>