<?xml version="1.0" encoding="UTF-8"?>
<svg width="100px" height="60px" viewBox="0 0 100 60" version="1.1" xmlns="http://www.w3.org/2000/svg" xmlns:xlink="http://www.w3.org/1999/xlink">
    <!-- Generator: Sketch 55.2 (78181) - https://sketchapp.com -->
    <title>logo/eugene_superfreeze</title>
    <desc>Created with Sketch.</desc>
    <defs>
        <polygon id="path-1" points="0 0.0586565517 8.86534759 0.0586565517 8.86534759 6.9091531 0 6.9091531"></polygon>
        <path d="M4.48451034,0.140496552 C2.80188966,0.140496552 1.30558621,0.923241379 0.332882759,2.14310345 L0.332882759,2.14310345 C1.45548966,1.44213793 2.18482759,2.10987586 1.83601379,2.95270345 L1.83601379,2.95270345 C1.66638621,3.36402759 0.960717241,3.65169655 0.589903448,4.02402759 L0.589903448,4.02402759 C-0.272496552,4.88536552 -0.0417241379,6.48104828 0.845255172,6.78510345 L0.845255172,6.78510345 C1.66153103,7.06306207 0.89062069,5.58238621 1.66350345,4.93771034 L1.66350345,4.93771034 C2.48251034,4.30881379 4.59284138,5.40623448 2.90157241,6.83775172 L2.90157241,6.83775172 C2.50223448,7.12906207 2.44503448,7.2248 2.18786207,7.48394483 L2.18786207,7.48394483 C0.802013793,8.8697931 3.04844138,10.4407448 4.69449655,10.2397103 L4.69449655,10.2397103 C6.15332414,10.0605241 6.55342069,9.10481379 6.75475862,7.74126897 L6.75475862,7.74126897 C6.93804138,6.49925517 6.68951724,6.06593103 6.88372414,5.16332414 L6.88372414,5.16332414 C7.50382069,3.45369655 9.50384828,4.90812414 9.7856,5.73926897 L9.7856,5.73926897 C9.79151724,5.64398621 9.80031724,5.55082759 9.80031724,5.45433103 L9.80031724,5.45433103 C9.80031724,2.52104828 7.42006897,0.140496552 4.48451034,0.140496552 Z" id="path-3"></path>
        <radialGradient cx="23.6102817%" cy="36.9307173%" fx="23.6102817%" fy="36.9307173%" r="60.2772387%" gradientTransform="translate(0.236103,0.369307),scale(1.000000,0.963880),translate(-0.236103,-0.369307)" id="radialGradient-5">
            <stop stop-color="#00A0C6" offset="0%"></stop>
            <stop stop-color="#081F57" offset="100%"></stop>
        </radialGradient>
        <path d="M1.24322759,0.322413793 C0.517682759,1.23017931 0.0810206897,2.3804 0.0810206897,3.63364138 L0.0810206897,3.63364138 C0.0810206897,6.56828966 2.45944828,8.94823448 5.39485517,8.94823448 L5.39485517,8.94823448 C8.23558621,8.94823448 10.5471034,6.71925517 10.6959448,3.91857931 L10.6959448,3.91857931 C10.4141931,3.08743448 8.41416552,1.6330069 7.79406897,3.34263448 L7.79406897,3.34263448 C7.59986207,4.24524138 7.84838621,4.67856552 7.66510345,5.92057931 L7.66510345,5.92057931 C7.46376552,7.28412414 7.06366897,8.23983448 5.60484138,8.41902069 L5.60484138,8.41902069 C3.95878621,8.62005517 1.71235862,7.04910345 3.0982069,5.66325517 L3.0982069,5.66325517 C3.35537931,5.40411034 3.41257931,5.30837241 3.81191724,5.01706207 L3.81191724,5.01706207 C5.50318621,3.58554483 3.39285517,2.48812414 2.57384828,3.11702069 L2.57384828,3.11702069 C1.80096552,3.76169655 2.57187586,5.24237241 1.7556,4.96441379 L1.7556,4.96441379 C0.86862069,4.66035862 0.637848276,3.06467586 1.50024828,2.20333793 L1.50024828,2.20333793 C1.87106207,1.8310069 2.57673103,1.54333793 2.74635862,1.13201379 L2.74635862,1.13201379 C2.99275862,0.536648276 2.70114483,0.0288275862 2.11306207,0.0286758621 L2.11306207,0.0286758621 C1.86863448,0.0286758621 1.57292414,0.116524138 1.24322759,0.322413793" id="path-6"></path>
        <radialGradient cx="28.8101033%" cy="31.2203186%" fx="28.8101033%" fy="31.2203186%" r="69.601049%" gradientTransform="translate(0.288101,0.312203),scale(0.840285,1.000000),translate(-0.288101,-0.312203)" id="radialGradient-8">
            <stop stop-color="#E6E6E6" offset="0%"></stop>
            <stop stop-color="#667579" offset="100%"></stop>
        </radialGradient>
        <path d="M0.130634483,0.293282759 C-0.113793103,0.632386207 0.0990758621,1.20802759 0.606744828,1.57368276 L0.606744828,1.57368276 C1.11441379,1.93994483 1.72449655,1.96497931 1.97104828,1.62390345 L1.97104828,1.62390345 C2.21744828,1.28297931 2.00351724,0.711586207 1.49478621,0.344413793 L1.49478621,0.344413793 C1.22729655,0.150813793 0.931434483,0.0529517241 0.675475862,0.0529517241 L0.675475862,0.0529517241 C0.444703448,0.0529517241 0.246551724,0.132455172 0.130634483,0.293282759" id="path-9"></path>
        <radialGradient cx="-203.533524%" cy="144.287152%" fx="-203.533524%" fy="144.287152%" r="362.549367%" gradientTransform="translate(-2.035335,1.442872),scale(0.886381,1.000000),translate(2.035335,-1.442872)" id="radialGradient-11">
            <stop stop-color="#E6E6E6" offset="0%"></stop>
            <stop stop-color="#667579" offset="100%"></stop>
        </radialGradient>
        <polygon id="path-12" points="0 21.8482759 76.1039172 21.8482759 76.1039172 0.140496552 0 0.140496552"></polygon>
    </defs>
    <g id="logo/eugene_superfreeze" stroke="none" stroke-width="1" fill="none" fill-rule="evenodd">
        <g transform="translate(16.000000, 16.000000)">
            <g id="Group-14" transform="translate(0.000000, 6.838814)">
                <path d="M52.2854124,0.20642069 L52.2854124,5.81642069 L47.0217986,0.794958621 C47.0208883,0.794503448 46.9911503,0.765372414 46.9911503,0.765372414 C46.4865159,0.269841379 46.4215779,0.20642069 45.2130952,0.20642069 L43.4870814,0.20642069 L43.4870814,7.05873793 L44.9351366,7.05873793 L44.9351366,2.12193793 L45.21704,2.39033793 C46.44904,3.56528966 49.3422676,6.32636552 49.6005021,6.58262759 C49.9808745,6.95571724 50.2520055,7.06465517 51.3136193,7.06465517 C51.3136193,7.06465517 53.1813434,7.0598 53.7334676,7.05873793 L53.7334676,0.20642069 L52.2854124,0.20642069 Z" id="Fill-1" fill="#0C2070"></path>
                <path d="M26.8327172,0.0893806897 L26.8316552,0.0899875862 C23.0377931,0.245808276 21.5592414,1.26357379 21.5592414,3.71953241 C21.5592414,6.48758759 23.5770207,7.12740828 26.8316552,7.26183586 C28.3476828,7.32692552 30.9873793,7.14652552 31.6162759,7.10116 L31.6162759,4.1085531 L28.804069,4.1085531 L28.804069,6.31264966 L28.6523448,6.31553241 C28.1032552,6.3273669 27.6764552,6.31264966 27.3836276,6.2701669 C25.4300276,5.98447034 24.5192276,5.14953241 24.5972138,3.71498069 C24.5192276,2.28558759 25.456731,1.41347724 27.3836276,1.13172552 C28.4364414,0.980304828 30.8928552,1.21487034 31.5788,1.28557379 L31.5788,0.248387586 C30.9027172,0.199077241 28.3270483,0.0241393103 26.8327172,0.0893806897" id="Fill-3" fill="#0C2070"></path>
                <path d="M17.3502621,0.226129655 L17.3502621,5.49641931 C17.3502621,6.2456331 16.2542069,6.51873655 15.3168552,6.52556414 C14.3744966,6.51873655 13.2773793,6.2456331 13.2773793,5.49641931 C13.2773793,5.49641931 13.2822345,0.99704 13.2832966,0.226129655 L10.2838621,0.226129655 C10.2838621,0.444157241 10.2768828,5.28157793 10.2768828,5.28157793 C10.2768828,6.4712469 12.2444414,7.4392469 14.6642897,7.4392469 L15.9613793,7.4392469 C18.3794069,7.4392469 20.3468138,6.4712469 20.3468138,5.28157793 C20.3468138,5.28157793 20.3418069,0.444157241 20.3418069,0.226129655 L17.3502621,0.226129655 Z" id="Fill-5" fill="#0C2070"></path>
                <g id="Group-9" transform="translate(0.000000, 0.151724)">
                    <mask id="mask-2" fill="white">
                        <use xlink:href="#path-1"></use>
                    </mask>
                    <g id="Clip-8"></g>
                    <path d="M3.69337517,5.59856 L3.68063034,5.59704276 C3.24093379,5.54181517 2.98967862,5.3131669 2.98967862,4.96829793 L2.98967862,3.77058759 L8.86534759,3.77058759 L8.86534759,2.45893241 L2.98967862,2.45893241 L2.98967862,1.37213241 L8.86534759,1.37213241 L8.86534759,0.0586565517 L-4.55172414e-05,0.0586565517 L-4.55172414e-05,5.95632552 C-4.55172414e-05,6.48113931 0.587430345,6.9091531 1.31009241,6.9091531 L8.86534759,6.9091531 L8.86534759,5.59856 L3.69337517,5.59856 Z" id="Fill-7" fill="#0C2070" mask="url(#mask-2)"></path>
                </g>
                <path d="M36.8986731,5.75028414 L36.8859283,5.7487669 C36.4462317,5.69353931 36.1939145,5.46489103 36.1939145,5.12002207 L36.1939145,3.92231172 L42.0706455,3.92231172 L42.0706455,2.61065655 L36.1939145,2.61065655 L36.1939145,1.52385655 L42.0706455,1.52385655 L42.0706455,0.21038069 L33.2041903,0.21038069 L33.2041903,6.10804966 C33.2041903,6.63286345 33.7916662,7.06087724 34.5143283,7.06087724 L42.0706455,7.06087724 L42.0706455,5.75028414 L36.8986731,5.75028414 Z" id="Fill-10" fill="#0C2070"></path>
                <path d="M58.9320828,5.75028414 L58.9181241,5.7487669 C58.4796414,5.69353931 58.2271724,5.46489103 58.2271724,5.12002207 L58.2271724,3.92231172 L64.1040552,3.92231172 L64.1040552,2.61065655 L58.2271724,2.61065655 L58.2271724,1.52385655 L64.1040552,1.52385655 L64.1040552,0.21038069 L55.2376,0.21038069 L55.2376,6.10804966 C55.2376,6.63286345 55.8250759,7.06087724 56.5475862,7.06087724 L64.1040552,7.06087724 L64.1040552,5.75028414 L58.9320828,5.75028414 Z" id="Fill-12" fill="#0C2070"></path>
            </g>
            <g id="Group-17" transform="translate(66.303448, 0.011228)">
                <mask id="mask-4" fill="white">
                    <use xlink:href="#path-3"></use>
                </mask>
                <g id="Clip-16"></g>
                <path d="M4.48451034,0.140496552 C2.80188966,0.140496552 1.30558621,0.923241379 0.332882759,2.14310345 L0.332882759,2.14310345 C1.45548966,1.44213793 2.18482759,2.10987586 1.83601379,2.95270345 L1.83601379,2.95270345 C1.66638621,3.36402759 0.960717241,3.65169655 0.589903448,4.02402759 L0.589903448,4.02402759 C-0.272496552,4.88536552 -0.0417241379,6.48104828 0.845255172,6.78510345 L0.845255172,6.78510345 C1.66153103,7.06306207 0.89062069,5.58238621 1.66350345,4.93771034 L1.66350345,4.93771034 C2.48251034,4.30881379 4.59284138,5.40623448 2.90157241,6.83775172 L2.90157241,6.83775172 C2.50223448,7.12906207 2.44503448,7.2248 2.18786207,7.48394483 L2.18786207,7.48394483 C0.802013793,8.8697931 3.04844138,10.4407448 4.69449655,10.2397103 L4.69449655,10.2397103 C6.15332414,10.0605241 6.55342069,9.10481379 6.75475862,7.74126897 L6.75475862,7.74126897 C6.93804138,6.49925517 6.68951724,6.06593103 6.88372414,5.16332414 L6.88372414,5.16332414 C7.50382069,3.45369655 9.50384828,4.90812414 9.7856,5.73926897 L9.7856,5.73926897 C9.79151724,5.64398621 9.80031724,5.55082759 9.80031724,5.45433103 L9.80031724,5.45433103 C9.80031724,2.52104828 7.42006897,0.140496552 4.48451034,0.140496552 Z" id="Fill-15" fill="url(#radialGradient-5)" mask="url(#mask-4)"></path>
            </g>
            <g id="Group-20" transform="translate(65.393103, 1.831917)">
                <mask id="mask-7" fill="white">
                    <use xlink:href="#path-6"></use>
                </mask>
                <g id="Clip-19"></g>
                <path d="M1.24322759,0.322413793 C0.517682759,1.23017931 0.0810206897,2.3804 0.0810206897,3.63364138 L0.0810206897,3.63364138 C0.0810206897,6.56828966 2.45944828,8.94823448 5.39485517,8.94823448 L5.39485517,8.94823448 C8.23558621,8.94823448 10.5471034,6.71925517 10.6959448,3.91857931 L10.6959448,3.91857931 C10.4141931,3.08743448 8.41416552,1.6330069 7.79406897,3.34263448 L7.79406897,3.34263448 C7.59986207,4.24524138 7.84838621,4.67856552 7.66510345,5.92057931 L7.66510345,5.92057931 C7.46376552,7.28412414 7.06366897,8.23983448 5.60484138,8.41902069 L5.60484138,8.41902069 C3.95878621,8.62005517 1.71235862,7.04910345 3.0982069,5.66325517 L3.0982069,5.66325517 C3.35537931,5.40411034 3.41257931,5.30837241 3.81191724,5.01706207 L3.81191724,5.01706207 C5.50318621,3.58554483 3.39285517,2.48812414 2.57384828,3.11702069 L2.57384828,3.11702069 C1.80096552,3.76169655 2.57187586,5.24237241 1.7556,4.96441379 L1.7556,4.96441379 C0.86862069,4.66035862 0.637848276,3.06467586 1.50024828,2.20333793 L1.50024828,2.20333793 C1.87106207,1.8310069 2.57673103,1.54333793 2.74635862,1.13201379 L2.74635862,1.13201379 C2.99275862,0.536648276 2.70114483,0.0288275862 2.11306207,0.0286758621 L2.11306207,0.0286758621 C1.86863448,0.0286758621 1.57292414,0.116524138 1.24322759,0.322413793" id="Fill-18" fill="url(#radialGradient-8)" mask="url(#mask-7)"></path>
            </g>
            <g id="Group-23" transform="translate(72.372414, 1.983641)">
                <mask id="mask-10" fill="white">
                    <use xlink:href="#path-9"></use>
                </mask>
                <g id="Clip-22"></g>
                <path d="M0.130634483,0.293282759 C-0.113793103,0.632386207 0.0990758621,1.20802759 0.606744828,1.57368276 L0.606744828,1.57368276 C1.11441379,1.93994483 1.72449655,1.96497931 1.97104828,1.62390345 L1.97104828,1.62390345 C2.21744828,1.28297931 2.00351724,0.711586207 1.49478621,0.344413793 L1.49478621,0.344413793 C1.22729655,0.150813793 0.931434483,0.0529517241 0.675475862,0.0529517241 L0.675475862,0.0529517241 C0.444703448,0.0529517241 0.246551724,0.132455172 0.130634483,0.293282759" id="Fill-21" fill="url(#radialGradient-11)" mask="url(#mask-10)"></path>
            </g>
            <g id="Group-36" transform="translate(0.000000, 0.011228)">
                <path d="M30.4254993,19.4750979 L30.4254993,20.0005186 L31.6467269,20.0005186 L31.6467269,21.7116634 L32.7782855,21.7116634 L32.7782855,20.0005186 L34.5023269,20.0005186 L34.5023269,21.7116634 L35.6123407,21.7116634 L35.6123407,20.0005186 L36.8394855,20.0005186 L36.8394855,19.4750979 L30.4254993,19.4750979 Z M32.3742441,17.616629 C32.3742441,17.3242566 32.4846993,17.0837738 32.7024234,16.899429 C32.936989,16.7018841 33.2613752,16.6018979 33.668451,16.6018979 C34.0667269,16.6018979 34.388989,16.701429 34.6274993,16.899429 C34.8503821,17.0822566 34.96372,17.3233462 34.96372,17.616629 C34.96372,17.8983807 34.8503821,18.1286979 34.626589,18.3022703 C34.3929338,18.4884359 34.0706717,18.5831117 33.668451,18.5831117 C33.2624372,18.5831117 32.9382028,18.4884359 32.7036372,18.3012083 C32.4846993,18.128091 32.3742441,17.8979255 32.3742441,17.616629 L32.3742441,17.616629 Z M31.8321338,16.5855117 L31.8321338,16.5855117 C31.44372,16.85816 31.2466303,17.2050014 31.2466303,17.6151117 C31.2466303,18.0050428 31.44372,18.3380772 31.8321338,18.606629 C32.2687959,18.911291 32.88692,19.0651393 33.668451,19.0651393 C34.4393614,19.0651393 35.0562717,18.911291 35.4999131,18.606629 C35.8912097,18.3380772 36.0893614,18.0044359 36.0893614,17.6151117 C36.0893614,17.2050014 35.8912097,16.85816 35.4999131,16.5855117 C35.0542993,16.2755393 34.4382993,16.1183531 33.668451,16.1183531 C32.8878303,16.1183531 32.2707683,16.2755393 31.8321338,16.5855117 L31.8321338,16.5855117 Z" id="Fill-24" fill="#0C2070"></path>
                <mask id="mask-13" fill="white">
                    <use xlink:href="#path-12"></use>
                </mask>
                <g id="Clip-27"></g>
                <polygon id="Fill-26" fill="#0C2070" mask="url(#mask-13)" points="42.6718069 20.0093793 43.848731 20.0093793 43.848731 16.2646759 42.6718069 16.2646759"></polygon>
                <path d="M37.724629,16.3613393 L37.724629,16.8979876 L39.0502428,16.8979876 L39.0475117,16.9359186 C38.92416,18.3839738 37.8370566,18.5575462 37.6369324,18.5771186 L37.6369324,19.1981255 C38.9684634,19.1834083 39.5431945,18.3513531 39.7895945,17.6505393 L39.8220634,17.5569255 L39.8557462,17.6505393 C40.1010841,18.3513531 40.6758152,19.1834083 42.0065876,19.1981255 L42.0065876,18.5771186 C41.8073738,18.5575462 40.7201186,18.3839738 40.5969186,16.9359186 L40.5938841,16.8979876 L41.9334566,16.8979876 L41.9334566,16.3613393 L37.724629,16.3613393 Z" id="Fill-28" fill="#0C2070" mask="url(#mask-13)"></path>
                <path d="M38.3524179,19.6820952 L38.3524179,21.0650607 C38.3742662,21.3785228 38.6176317,21.6347848 38.9320041,21.6711986 L43.8624317,21.6711986 L43.8624317,21.1350055 L39.4644041,21.1350055 L39.4644041,19.6820952 L38.3524179,19.6820952 Z" id="Fill-29" fill="#0C2070" mask="url(#mask-13)"></path>
                <path d="M58.2816262,19.8591421 L58.2816262,21.2419559 C58.3034745,21.5555697 58.54684,21.81168 58.8612124,21.8482455 L63.79164,21.8482455 L63.79164,21.3120524 L59.3936124,21.3120524 L59.3936124,19.8591421 L58.2816262,19.8591421 Z" id="Fill-30" fill="#0C2070" mask="url(#mask-13)"></path>
                <path d="M48.1421903,17.4114069 L49.996411,17.4114069 L49.996411,16.6907172 L47.9253766,16.6907172 L47.9253766,16.2646759 L46.8155145,16.2646759 L46.8155145,16.6907172 L44.7443283,16.6907172 L44.7443283,17.4114069 L46.598549,17.4114069 C46.3770317,18.6473517 44.4900386,18.6347586 44.4900386,18.6347586 L44.4900386,19.3175172 C46.3265076,19.3175172 47.1250317,18.6402207 47.3703697,17.9392552 C47.6157076,18.6402207 48.4143834,19.3175172 50.2507007,19.3175172 L50.2507007,18.6347586 C50.2507007,18.6347586 48.3637076,18.6473517 48.1421903,17.4114069" id="Fill-31" fill="#0C2070" mask="url(#mask-13)"></path>
                <polygon id="Fill-32" fill="#0C2070" mask="url(#mask-13)" points="47.9254069 20.4487117 47.9254069 19.2541876 46.8155448 19.2541876 46.8155448 20.4487117 44.1634069 20.4487117 44.1634069 20.9741324 50.5773931 20.9741324 50.5773931 20.4487117"></polygon>
                <path d="M59.626691,17.4774979 C59.626691,17.1851255 59.7371462,16.9446428 59.9548703,16.7602979 C60.1894359,16.5627531 60.5138221,16.4627669 60.9207462,16.4627669 C61.3190221,16.4627669 61.6412841,16.5622979 61.8799462,16.7602979 C62.1026772,16.9432772 62.2160152,17.1842152 62.2160152,17.4774979 C62.2160152,17.7592497 62.1026772,17.9895669 61.8790359,18.1631393 C61.6453807,18.3493048 61.3231186,18.4439807 60.9207462,18.4439807 C60.5148841,18.4439807 60.1904979,18.3493048 59.9559324,18.1620772 C59.7371462,17.98896 59.626691,17.7587945 59.626691,17.4774979 L59.626691,17.4774979 Z M64.0919324,19.0733324 L61.4397945,19.0733324 L61.4397945,18.8996083 C61.9724979,18.844229 62.4132566,18.7003945 62.75236,18.4674979 C63.1436566,18.1989462 63.3416566,17.8653048 63.3416566,17.4759807 C63.3416566,17.0660221 63.1436566,16.719029 62.75236,16.4465324 C62.3067462,16.1364083 61.6907462,15.9792221 60.9207462,15.9792221 C60.1402772,15.9792221 59.5230634,16.1364083 59.084429,16.4465324 C58.6960152,16.719029 58.4989255,17.0660221 58.4989255,17.4759807 C58.4989255,17.8659117 58.6960152,18.1989462 59.084429,18.4674979 C59.4042634,18.6906841 59.8224152,18.832091 60.3299324,18.8921738 L60.3299324,19.0733324 L57.6777945,19.0733324 L57.6777945,19.5986014 L64.0919324,19.5986014 L64.0919324,19.0733324 Z" id="Fill-33" fill="#0C2070" mask="url(#mask-13)"></path>
                <polygon id="Fill-34" fill="#0C2070" mask="url(#mask-13)" points="56.2010483 16.2647366 56.2010483 17.6797159 55.1870759 17.6797159 55.1870759 18.2051366 56.2010483 18.2051366 56.2010483 21.8319503 57.3779724 21.8319503 57.3779724 16.2647366"></polygon>
                <path d="M54.1260993,16.8980028 L55.462789,16.8980028 L55.462789,16.3613545 L53.3513959,16.3613545 L51.2400028,16.3613545 L51.2400028,16.8980028 L52.5765407,16.8980028 C52.5765407,18.0403338 52.0550648,19.5260166 51.1668717,20.0556855 L51.1668717,20.6766924 C52.1972303,20.6766924 53.0723752,19.2005683 53.3177131,18.4997545 L53.3513959,18.405989 L53.3849269,18.4997545 C53.6302648,19.2005683 54.5054097,20.6766924 55.5357683,20.6766924 L55.5357683,20.0556855 C54.6477269,19.5260166 54.1260993,18.0403338 54.1260993,16.8980028" id="Fill-35" fill="#0C2070" mask="url(#mask-13)"></path>
            </g>
        </g>
    </g>
</svg>