<?xml version="1.0" encoding="UTF-8"?>
<svg width="100px" height="60px" viewBox="0 0 100 60" version="1.1" xmlns="http://www.w3.org/2000/svg" xmlns:xlink="http://www.w3.org/1999/xlink">
    <!-- Generator: Sketch 52.4 (67378) - http://www.bohemiancoding.com/sketch -->
    <title>logo/everland</title>
    <desc>Created with Sketch.</desc>
    <g id="logo/everland" stroke="none" stroke-width="1" fill="none" fill-rule="evenodd">
        <g id="로고" transform="translate(5.000000, 20.000000)">
            <path d="M63.940875,10.87345 C63.940875,11.45145 64.014875,11.55795 64.624875,11.5372 L64.624875,11.71895 L62.573125,11.71895 L62.573125,11.5372 C63.136375,11.55795 63.196625,11.4032 63.196625,10.96095 L63.196625,8.27095 C63.196625,7.8347 63.122875,7.7277 62.573125,7.7277 L62.573125,7.54645 C62.727375,7.54645 63.069625,7.5207 63.531875,7.4997 C63.887875,7.48595 64.215875,7.48595 64.350125,7.48595 C65.705625,7.48595 66.167625,8.07645 66.167625,8.6867 C66.167625,9.1827 65.886375,9.5462 65.323125,9.78045 C65.430625,9.85445 65.718875,10.1367 65.826125,10.2432 L66.262375,10.67895 C66.858875,11.2762 67.355375,11.5612 67.870875,11.5097 L67.871875,11.71945 C66.568625,11.7737 66.053125,11.4287 65.618125,10.9877 L65.261875,10.63195 C64.920625,10.2902 64.819625,10.1957 64.537625,9.98845 C64.343625,10.0022 64.115875,10.00845 63.940875,9.98845 L63.940875,10.87345 Z M63.940875,9.8002 L63.940875,7.7007 C64.001375,7.6872 64.162875,7.6747 64.263625,7.6747 C64.994375,7.6747 65.356625,8.07645 65.356625,8.75395 C65.356625,9.4382 65.047625,9.78045 64.156375,9.8207 C64.115875,9.8207 63.987625,9.80745 63.940875,9.8002 Z M67.471625,11.7189 L67.471625,11.53715 C68.015125,11.53715 68.149375,11.4514 68.149375,11.0754 L68.149375,8.18365 C68.149375,7.74115 67.927625,7.72765 67.471625,7.72765 L67.471625,7.54665 L70.899375,7.54665 L70.959875,8.5529 L70.778875,8.5529 L70.744375,8.4124 C70.610375,7.8619 70.502875,7.8484 70.073875,7.8484 L68.893375,7.8484 L68.893375,9.4119 L69.933625,9.4119 C70.321625,9.4119 70.395625,9.3644 70.436125,8.90165 L70.617375,8.90165 L70.617375,10.24965 L70.436125,10.24965 C70.389375,9.77315 70.301875,9.71365 69.933625,9.71365 L68.893375,9.71365 L68.893375,10.93365 C68.893375,11.3499 68.946625,11.41665 69.289375,11.41665 L70.034375,11.41665 C70.710875,11.41665 70.845375,11.32315 71.026625,10.66615 L71.207625,10.66615 L71.106625,11.7189 L67.471625,11.7189 Z M72.008725,10.6193 L72.209725,10.6193 C72.378225,11.23555 72.793725,11.58455 73.370225,11.58455 C73.859475,11.58455 74.201975,11.29605 74.201975,10.8933 C74.201975,9.9553 72.088975,9.5858 72.088975,8.41855 C72.088975,7.84205 72.598725,7.4393 73.316975,7.4393 C73.537725,7.4393 73.699225,7.4663 73.833475,7.49355 C73.966725,7.52055 74.075225,7.54655 74.188475,7.54655 C74.275725,7.54655 74.322725,7.52655 74.376975,7.4663 L74.544475,7.4663 L74.691225,8.50605 L74.490475,8.50605 C74.289475,7.97655 73.873225,7.6548 73.397475,7.6548 C72.967475,7.6548 72.739725,7.9088 72.739725,8.2043 C72.739725,9.1028 74.859725,9.3713 74.859725,10.66605 C74.859725,11.3563 74.275725,11.82655 73.417225,11.82655 C72.914225,11.82655 72.705975,11.7053 72.518725,11.7053 C72.437725,11.7053 72.384475,11.72605 72.337475,11.77905 L72.176475,11.77905 L72.008725,10.6193 Z M78.0688,7.439375 C79.5178,7.439375 80.51705,8.304125 80.51705,9.558875 C80.51705,10.766125 79.55205,11.826625 78.0428,11.826625 C76.64055,11.826625 75.6213,10.947125 75.6213,9.746875 C75.6213,8.405375 76.6468,7.439375 78.0688,7.439375 Z M78.1498,11.611375 C79.0818,11.611375 79.70605,10.853625 79.70605,9.727125 C79.70605,8.512375 79.0013,7.654625 78.01555,7.654625 C77.0498,7.654625 76.4323,8.391875 76.4323,9.565875 C76.4323,10.913875 77.29755,11.611375 78.1498,11.611375 Z M82.382525,10.87345 C82.382525,11.45145 82.456525,11.55795 83.066275,11.5372 L83.066275,11.71895 L81.013525,11.71895 L81.013525,11.5372 C81.577775,11.55795 81.637275,11.4032 81.637275,10.96095 L81.637275,8.27095 C81.637275,7.8347 81.564525,7.7277 81.013525,7.7277 L81.013525,7.54645 C81.168775,7.54645 81.510275,7.5207 81.973275,7.4997 C82.328275,7.48595 82.657275,7.48595 82.791525,7.48595 C84.146025,7.48595 84.609025,8.07645 84.609025,8.6867 C84.609025,9.1827 84.327025,9.5462 83.763775,9.78045 C83.871025,9.85445 84.160275,10.1367 84.266525,10.2432 L84.702775,10.67895 C85.300275,11.2762 85.756275,11.54495 86.313275,11.60495 L86.313275,11.7927 C84.991275,11.8267 84.663025,11.5917 84.059525,10.9877 L83.703525,10.63195 C83.361775,10.2902 83.261025,10.1957 82.979025,9.98845 C82.784275,10.0022 82.556275,10.00845 82.382525,9.98845 L82.382525,10.87345 Z M82.382525,9.8002 C82.429275,9.80745 82.556275,9.8207 82.596775,9.8207 C83.489025,9.78045 83.797025,9.4382 83.797025,8.75395 C83.797025,8.07645 83.435025,7.6747 82.704025,7.6747 C82.603275,7.6747 82.442775,7.6872 82.382525,7.7007 L82.382525,9.8002 Z M85.70405,7.433025 L85.88505,7.433025 C85.91105,7.479775 85.9318,7.513275 85.9923,7.526525 C86.0528,7.540275 86.14655,7.546525 86.3203,7.546525 L89.1578,7.546525 C89.5003,7.546525 89.55355,7.533275 89.59405,7.433025 L89.7753,7.433025 L89.89605,8.586275 L89.7013,8.586275 C89.60755,7.888775 89.4733,7.848275 89.0713,7.848275 L88.1118,7.848275 L88.1118,11.007775 C88.1118,11.463525 88.18555,11.537275 88.8903,11.537275 L88.8903,11.719025 L86.5898,11.719025 L86.5898,11.537275 C87.2603,11.537275 87.3673,11.451275 87.3673,11.007775 L87.3673,7.848275 L86.40855,7.848275 C86.01205,7.848275 85.8778,7.888775 85.7778,8.586275 L85.5833,8.586275 L85.70405,7.433025 Z M24.153875,11.6564 L24.153875,11.47765 C24.689875,11.47765 24.822625,11.3914 24.822625,11.02115 L24.822625,8.16815 C24.822625,7.7314 24.603875,7.71815 24.153875,7.71815 L24.153875,7.53915 L27.536125,7.53915 L27.596125,8.5324 L27.416875,8.5324 L27.383875,8.3934 C27.251625,7.8504 27.146125,7.8374 26.721875,7.8374 L25.557125,7.8374 L25.557125,9.3794 L26.583375,9.3794 C26.966875,9.3794 27.039875,9.33315 27.079625,8.87615 L27.258625,8.87615 L27.258625,10.20715 L27.079625,10.20715 C27.033375,9.7369 26.947375,9.67765 26.583375,9.67765 L25.557125,9.67765 L25.557125,10.88215 C25.557125,11.29265 25.609875,11.35915 25.947875,11.35915 L26.682375,11.35915 C27.351125,11.35915 27.483125,11.2659 27.662375,10.6174 L27.840875,10.6174 L27.741375,11.6564 L24.153875,11.6564 Z M28.871175,8.22745 C28.685675,7.77095 28.612925,7.7182 28.189425,7.7182 L28.189425,7.5392 L30.228425,7.5392 L30.228425,7.7182 C29.685175,7.7247 29.592675,7.86345 29.592675,8.00295 C29.592675,8.0887 29.626175,8.22095 29.698425,8.39995 L30.697925,10.8557 L31.671175,8.51195 C31.790675,8.22745 31.823925,8.1017 31.823925,8.00295 C31.823925,7.7842 31.651175,7.7182 31.227925,7.7182 L31.227925,7.5392 L32.836175,7.5392 L32.836175,7.7182 C32.366175,7.7182 32.280175,7.96245 32.068675,8.4722 L30.697925,11.76295 L30.294175,11.76295 L28.871175,8.22745 Z M33.03425,11.6564 L33.03425,11.47765 C33.57075,11.47765 33.703,11.3914 33.703,11.02115 L33.703,8.16815 C33.703,7.7314 33.485,7.71815 33.03425,7.71815 L33.03425,7.53915 L36.41725,7.53915 L36.477,8.5324 L36.298,8.5324 L36.26475,8.3934 C36.13275,7.8504 36.0265,7.8374 35.60325,7.8374 L34.43825,7.8374 L34.43825,9.3794 L35.464,9.3794 C35.848,9.3794 35.921,9.33315 35.96075,8.87615 L36.13925,8.87615 L36.13925,10.20715 L35.96075,10.20715 C35.9145,9.7369 35.82775,9.67765 35.464,9.67765 L34.43825,9.67765 L34.43825,10.88215 C34.43825,11.29265 34.491,11.35915 34.82825,11.35915 L35.5635,11.35915 C36.23175,11.35915 36.36425,11.2659 36.54275,10.6174 L36.722,10.6174 L36.6225,11.6564 L33.03425,11.6564 Z M38.79035,10.822425 C38.79035,11.391425 38.86335,11.497675 39.4656,11.477675 L39.4656,11.656425 L37.4401,11.656425 L37.4401,11.477675 C37.99585,11.497675 38.05585,11.345425 38.05585,10.908425 L38.05585,8.254175 C38.05585,7.823675 37.9831,7.718175 37.4401,7.718175 L37.4401,7.539175 C37.59235,7.539175 37.9296,7.512675 38.3866,7.493175 C38.7376,7.479175 39.0621,7.479175 39.1941,7.479175 C40.5316,7.479175 40.9881,8.062175 40.9881,8.664175 C40.9881,9.154175 40.7101,9.511675 40.1541,9.743425 C40.2601,9.816425 41.0076,10.747175 41.11385,10.853175 L41.4671,11.236175 C42.05635,11.825675 42.5641,12.322925 43.4141,12.343925 L43.4141,12.473925 C42.11035,12.507175 41.5046,12.136925 40.90885,11.541175 L40.5576,11.190675 C40.18435,10.796425 39.65785,10.153425 39.3796,9.949175 C39.1876,9.962175 38.9621,9.968675 38.79035,9.949175 L38.79035,10.822425 Z M38.79035,9.763675 C38.8366,9.770175 38.9621,9.783175 39.0021,9.783175 C39.8826,9.743425 40.1871,9.405425 40.1871,8.730675 C40.1871,8.062175 39.8296,7.664925 39.1081,7.664925 C39.0086,7.664925 38.85035,7.677925 38.79035,7.691675 L38.79035,9.763675 Z M42.358225,11.6564 L42.358225,11.47765 C42.887725,11.47765 43.000225,11.4314 43.000225,10.9084 L43.000225,8.28715 C43.000225,7.8374 42.954225,7.7044 42.358225,7.71815 L42.358225,7.53915 L44.529475,7.53915 L44.529475,7.71815 C43.814225,7.71815 43.734975,7.7444 43.734975,8.24115 L43.734975,11.03465 C43.734975,11.3059 43.788225,11.35915 44.092975,11.35915 L44.774225,11.35915 C45.336725,11.35915 45.376475,11.33215 45.873475,10.6569 L46.071975,10.6569 L45.561975,11.6564 L42.358225,11.6564 Z M45.95575,11.4777 C46.39925,11.47095 46.48525,11.3982 46.67075,10.8822 L47.869,7.59845 L47.816,7.43295 L48.55725,7.43295 L49.848,10.8822 C50.04,11.3982 50.1065,11.4777 50.5235,11.4777 L50.5235,11.65645 L48.55725,11.65645 L48.55725,11.4777 C49.081,11.4777 49.226,11.42495 49.226,11.2327 C49.226,11.16695 49.1995,11.0542 49.13375,10.8822 L48.81575,10.0612 L47.29975,10.0612 L46.9755,10.94145 C46.92875,11.0672 46.909,11.1537 46.909,11.2197 C46.909,11.4117 47.0415,11.4977 47.57075,11.4777 L47.57075,11.65645 L45.95575,11.65645 L45.95575,11.4777 Z M48.69025,9.73045 L48.054,8.0557 L47.4255,9.73045 L48.69025,9.73045 Z M51.681825,8.287275 L51.681825,10.829025 C51.681825,11.345275 51.748325,11.511025 52.343825,11.477775 L52.343825,11.656525 L50.761575,11.656525 L50.761575,11.477775 C51.238325,11.491275 51.317825,11.338775 51.317825,10.908275 L51.317825,7.929775 C51.158825,7.790525 51.013575,7.737775 50.761575,7.718275 L50.761575,7.539275 L51.959825,7.539275 L54.912325,10.657025 L54.912325,8.287275 C54.912325,7.790525 54.832825,7.711025 54.257325,7.718275 L54.257325,7.539275 L55.859075,7.539275 L55.859075,7.718275 C55.415825,7.718275 55.276325,7.797025 55.276325,8.300525 L55.276325,11.696525 L54.918825,11.696525 L51.681825,8.287275 Z M56.984325,8.30045 C56.984325,7.8172 56.858575,7.7112 56.355325,7.7182 L56.355325,7.5392 C56.547325,7.5392 57.116575,7.5127 57.394575,7.49945 C57.752075,7.48645 58.090075,7.48645 58.341575,7.48645 C59.341075,7.48645 60.062575,7.66495 60.466325,8.0692 C60.876325,8.4787 61.035325,8.98245 61.035325,9.47845 C61.035325,10.45195 60.353575,11.65645 58.414325,11.65645 L56.355325,11.65645 L56.355325,11.4777 C56.917825,11.4777 56.984325,11.38495 56.984325,10.94145 L56.984325,8.30045 Z M57.718825,10.9942 C57.718825,11.4117 57.778825,11.47095 58.209075,11.47095 C59.003575,11.47095 59.413325,11.29895 59.718075,10.9942 C60.121825,10.5907 60.234325,10.03445 60.234325,9.57145 C60.234325,9.09495 60.128825,8.5587 59.725075,8.1552 C59.393825,7.8237 58.977075,7.6712 58.202075,7.6712 C58.090075,7.6712 57.884325,7.6712 57.718825,7.68495 L57.718825,10.9942 Z" id="Combined-Shape" fill="#56237C"></path>
            <path d="M11.326725,9.263575 C11.276225,9.268825 11.275725,9.217075 11.275725,9.217075 C12.009475,7.393075 11.042725,5.004325 9.318725,3.825575 C9.246225,3.776575 9.323225,3.684825 9.393475,3.731575 C11.411475,5.066575 12.396225,7.312325 11.382475,9.211325 C11.382475,9.211325 11.357475,9.260575 11.326725,9.263575 M15.537225,4.636075 C15.577975,4.636075 15.608975,4.688325 15.611225,4.729325 C15.751225,7.387825 14.170475,9.640575 12.041475,9.995825 C12.041475,9.995825 12.005475,9.998075 12.007225,10.028825 C12.009475,10.062075 12.054725,10.066325 12.054725,10.066325 C13.725475,10.197075 15.415475,9.372575 16.268725,7.944575 C17.378725,6.086325 16.913725,3.779325 16.749475,2.957075 C16.491725,1.666325 15.799975,-0.018925 15.638475,7.5e-05 C15.534225,0.011825 15.552475,0.150575 15.483225,0.438575 C14.982725,2.516075 13.278975,3.340825 12.670725,4.844325 C11.573725,2.908575 8.717475,1.423575 5.075475,1.185325 C5.008475,1.180325 4.980725,1.266825 5.012725,1.305575 C5.022225,1.316575 5.029725,1.332575 5.046475,1.343825 C6.839975,2.511325 6.968975,3.696325 7.350975,5.322575 C7.697725,6.801325 8.722225,6.862575 8.722225,6.862575 C8.388975,6.534075 8.259725,6.060575 8.033975,5.073075 C7.758225,3.864825 7.236475,2.580825 5.734725,1.559325 C5.647725,1.500075 5.614475,1.434325 5.777475,1.449325 C7.769225,1.646825 11.470725,2.967075 12.525475,5.811075 C12.982475,7.043075 12.745975,8.677825 11.821225,9.548825 C11.821225,9.548825 11.803975,9.564075 11.817475,9.582325 C11.832725,9.602075 11.874975,9.591825 11.874975,9.591825 C14.057975,9.258075 15.462975,7.047325 15.462975,4.729325 C15.462975,4.688325 15.496225,4.636075 15.537225,4.636075" id="Fill-30" fill="#E56606"></path>
            <path d="M10.184775,10.4191 C10.214525,10.45985 10.169275,10.4866 10.169275,10.4866 C8.223025,10.76285 6.637775,12.7946 6.478775,14.87735 C6.472275,14.9641 6.354275,14.94335 6.359775,14.8591 C6.507525,12.44435 7.959275,10.4681 10.111275,10.3966 C10.111275,10.3966 10.166275,10.39335 10.184775,10.4191 M4.071025,9.0861 C4.051025,9.0506 4.080525,8.99785 4.115025,8.9761 C6.347775,7.52535 9.089275,7.76785 10.461025,9.43385 C10.461025,9.43385 10.480525,9.4641 10.506775,9.4466 C10.534525,9.42835 10.515025,9.38685 10.515025,9.38685 C9.793525,7.87435 8.234275,6.8226 6.570525,6.79835 C4.406775,6.76635 2.641275,8.3221 2.011025,8.87585 C1.022775,9.74435 -0.091225,11.1861 0.006025,11.3166 C0.068275,11.40085 0.179025,11.3156 0.463525,11.23135 C2.513275,10.62635 4.079025,11.68885 5.684775,11.46485 C4.557275,13.3821 4.699025,16.5986 6.314025,19.8716 C6.343525,19.9321 6.432025,19.91335 6.449025,19.86635 C6.454525,19.85185 6.464525,19.8371 6.465775,19.8171 C6.580275,17.68085 7.541775,16.9761 8.759525,15.83235 C9.866525,14.7931 9.407025,13.87485 9.407025,13.87485 C9.289525,14.32785 8.944025,14.6761 8.201775,15.36535 C7.293275,16.20885 6.442025,17.30285 6.308275,19.11335 C6.300275,19.2181 6.259525,19.28035 6.192025,19.13185 C5.366525,17.3081 4.659775,13.4426 6.595025,11.1066 C7.433275,10.09535 8.967025,9.48285 10.184275,9.8481 C10.184275,9.8481 10.206025,9.8551 10.214525,9.83435 C10.224025,9.81135 10.194275,9.77985 10.194275,9.77985 C8.814275,8.0566 6.197025,7.9446 4.189275,9.10385 C4.153525,9.1241 4.091775,9.12135 4.071025,9.0861" id="Fill-33" fill="#7A207F"></path>
            <path d="M11.755925,10.830475 C11.776675,10.783725 11.821675,10.809725 11.821675,10.809725 C13.034675,12.356975 15.586925,12.713975 17.469425,11.810475 C17.548175,11.772725 17.589175,11.885225 17.513675,11.922475 C15.347925,13.002225 12.911425,12.732725 11.773675,10.904475 C11.773675,10.904475 11.743425,10.858725 11.755925,10.830475 M13.658425,16.791225 C13.637425,16.825975 13.577175,16.826475 13.541175,16.808225 C11.168175,15.599975 10.007425,13.104725 10.764675,11.083725 C10.764675,11.083725 10.780675,11.050975 10.752675,11.037225 C10.723175,11.022725 10.697175,11.059725 10.697175,11.059725 C9.747925,12.441225 9.616675,14.316975 10.427425,15.770225 C11.481925,17.660225 13.711675,18.411225 14.506175,18.679725 C15.752925,19.101975 17.558175,19.345975 17.622925,19.196475 C17.664425,19.100225 17.534925,19.046975 17.319925,18.842475 C15.771425,17.370225 15.908925,15.482475 14.910925,14.204225 C17.136175,14.221975 19.850925,12.491225 21.877675,9.456225 C21.915175,9.400475 21.854675,9.332975 21.804925,9.341975 C21.790175,9.344225 21.772175,9.342475 21.754425,9.351725 C19.847175,10.321225 18.755925,9.840225 17.156925,9.357475 C15.703175,8.918975 15.137425,9.775475 15.137425,9.775475 C15.588675,9.651225 16.063175,9.775475 17.031175,10.074475 C18.215675,10.439225 19.588675,10.629975 21.223925,9.840225 C21.318675,9.793975 21.392925,9.798225 21.297425,9.931725 C20.130675,11.558475 17.136675,14.102975 14.146425,13.594975 C12.850925,13.374475 11.553675,12.352225 11.261925,11.116475 C11.261925,11.116475 11.257425,11.093725 11.234175,11.096725 C11.209675,11.099725 11.197925,11.141725 11.197925,11.141725 C10.394675,13.198475 11.606925,15.521225 13.614675,16.679975 C13.650175,16.700225 13.678425,16.755475 13.658425,16.791225" id="Fill-36" fill="#4CA32F"></path>
        </g>
    </g>
</svg>