<?xml version="1.0" encoding="UTF-8"?>
<svg width="100px" height="60px" viewBox="0 0 100 60" version="1.1" xmlns="http://www.w3.org/2000/svg" xmlns:xlink="http://www.w3.org/1999/xlink">
    <title>logo/ewp</title>
    <defs>
        <polygon id="path-1" points="0 0.0444571429 4.53531429 0.0444571429 4.53531429 4.24331429 0 4.24331429"></polygon>
        <polygon id="path-3" points="0 35.9994286 56.06 35.9994286 56.06 0 0 0"></polygon>
    </defs>
    <g id="logo/ewp" stroke="none" stroke-width="1" fill="none" fill-rule="evenodd">
        <g id="Group-62" transform="translate(22.000000, 12.000000)">
            <path d="M35.7282286,0 C32.8636571,0 30.2133714,0.893714286 28.0299429,2.416 C25.8493714,0.893714286 23.1945143,0 20.3322286,0 C12.8916571,0 6.86194286,6.03142857 6.86194286,13.4708571 C6.86194286,20.9114286 12.8916571,26.9428571 20.3322286,26.9428571 C23.1945143,26.9428571 25.8493714,26.0485714 28.0299429,24.5262857 C30.2133714,26.0485714 32.8636571,26.9428571 35.7282286,26.9428571 C43.1682286,26.9428571 49.1990857,20.9114286 49.1990857,13.4708571 C49.1990857,6.03142857 43.1682286,0 35.7282286,0" id="Fill-1" fill="#FEFEFE"></path>
            <path d="M48.1707429,8.34205714 C47.9518857,7.80948571 47.7010286,7.29348571 47.4164571,6.79862857 L33.1278857,17.6809143 L28.0301714,21.5614857 L26.0393143,22.8180571 L19.5570286,26.9106286 C19.8141714,26.9243429 20.0753143,26.9329143 20.3387429,26.9329143 C21.1701714,26.9329143 21.9821714,26.8569143 22.7736,26.7117714 L26.5318857,23.3054857 L28.0301714,21.9472 L32.7073143,18.7877714 L48.1707429,8.34205714 Z" id="Fill-3" fill="#E50120"></path>
            <path d="M48.4096,8.96205714 L28.1638857,24.6094857 C30.3181714,26.0740571 32.9187429,26.9329143 35.7227429,26.9329143 C43.1570286,26.9329143 49.1833143,20.9054857 49.1833143,13.4706286 C49.1833143,11.8900571 48.9101714,10.3729143 48.4096,8.96205714" id="Fill-5" fill="#E50120"></path>
            <path d="M20.3387429,0.0100571429 C12.9027429,0.0100571429 6.87588571,6.03577143 6.87588571,13.4706286 C6.87588571,15.0529143 7.1496,16.5706286 7.65188571,17.9809143 L27.8947429,2.33005714 C25.7404571,0.866057143 23.1398857,0.0100571429 20.3387429,0.0100571429" id="Fill-7" fill="#E50120"></path>
            <path d="M28.0301143,10.8973143 L32.5901143,7.8916 L42.1078286,1.61788571 C41.5495429,1.31617143 40.9666857,1.05274286 40.3655429,0.831028571 L32.2518286,7.20074286 L28.0301143,10.5161714 L22.2906857,14.3618857 L10.2764,22.4127429 C10.6569714,22.8401714 11.0644,23.2441714 11.4964,23.6207429 L22.3769714,15.2464571 L28.0301143,10.8973143 Z" id="Fill-9" fill="#E50120"></path>
            <path d="M28.0301143,13.6624 L33.3735429,10.1052571 L44.1238286,2.95268571 C43.6592571,2.5824 43.1724,2.2424 42.6626857,1.9344 L33.1426857,9.31268571 L28.0301143,13.2755429 L22.6866857,16.8349714 L11.9392571,23.9898286 C12.4021143,24.3606857 12.8889714,24.7006857 13.4009714,25.0075429 L22.9169714,17.6275429 L28.0301143,13.6624 Z" id="Fill-11" fill="#E50120"></path>
            <path d="M28.0301143,16.4218857 L33.7695429,12.5773143 L45.7838286,4.53045714 C45.4026857,4.10245714 44.9969714,3.69845714 44.5655429,3.32188571 L33.6815429,11.6910286 L28.0301143,16.0367429 L23.4684,19.0458857 L13.9506857,25.3236 C14.5101143,25.6247429 15.0929714,25.8887429 15.6958286,26.1104571 L23.8084,19.7396 L28.0301143,16.4218857 Z" id="Fill-13" fill="#E50120"></path>
            <path d="M28.0301143,8.13697143 L31.4706857,5.90268571 L39.6466857,0.591257143 C38.9575429,0.381542857 38.2478286,0.226685714 37.5169714,0.1284 L31.0518286,5.32382857 L28.0301143,7.75068571 L22.3992571,11.5426857 L8.9284,20.6152571 C9.2284,21.0952571 9.5604,21.5564 9.91925714,21.9941143 L22.2946857,12.5249714 L28.0301143,8.13697143 Z" id="Fill-15" fill="#E50120"></path>
            <path d="M28.0301143,5.37274286 L30.0181143,4.11902857 L36.4981143,0.0321714286 C36.2415429,0.0173142857 35.9821143,0.00988571429 35.7226857,0.00988571429 C34.8969714,0.00988571429 34.0861143,0.0853142857 33.3021143,0.2276 L29.5284,3.63788571 L28.0301143,4.99045714 L23.3546857,8.14988571 L7.89068571,18.6007429 C8.10954286,19.1338857 8.3604,19.6493143 8.64382857,20.1447429 L22.9364,9.25388571 L28.0301143,5.37274286 Z" id="Fill-17" fill="#E50120"></path>
            <path d="M28.0301143,19.1869143 L33.6609714,15.3972 L47.1346857,6.32805714 C46.8312571,5.84691429 46.5009714,5.38691429 46.1421143,4.9492 L33.7649714,14.4149143 L28.0301143,18.8012 L24.5884,21.0366286 L16.4118286,26.3497714 C17.1009714,26.5600571 17.8106857,26.7160571 18.5421143,26.8132 L25.0084,21.6154857 L28.0301143,19.1869143 Z" id="Fill-19" fill="#E50120"></path>
            <path d="M15.6261143,13.4104 C15.6261143,15.5469714 17.3575429,17.2778286 19.4924,17.2778286 L23.7146857,17.2784 L23.7146857,15.1858286 L19.6764,15.1858286 C19.0901143,15.1858286 18.5752571,14.8978286 18.2518286,14.4584 L23.7278286,14.4584 L23.7278286,12.3652571 L18.2518286,12.3652571 C18.5741143,11.9258286 19.0901143,11.6372571 19.6764,11.6372571 L23.7558286,11.6378286 L23.7558286,9.54468571 L19.4924,9.54411429 C17.3575429,9.54411429 15.6261143,11.2761143 15.6261143,13.4104" id="Fill-21" fill="#E50120"></path>
            <path d="M15.6261143,13.4104 C15.6261143,15.5469714 17.3575429,17.2778286 19.4924,17.2778286 L23.7146857,17.2784 L23.7146857,15.1858286 L19.6764,15.1858286 C19.0901143,15.1858286 18.5752571,14.8978286 18.2518286,14.4584 L23.7278286,14.4584 L23.7278286,12.3652571 L18.2518286,12.3652571 C18.5741143,11.9258286 19.0901143,11.6372571 19.6764,11.6372571 L23.7558286,11.6378286 L23.7558286,9.54468571 L19.4924,9.54411429 C17.3575429,9.54411429 15.6261143,11.2761143 15.6261143,13.4104 Z" id="Stroke-23" stroke="#E50120" stroke-width="1.378"></path>
            <path d="M39.1891429,9.54965714 L38.2628571,9.54965714 L33.9074286,9.54965714 L33.9074286,11.6428 L38.0788571,11.6428 L39.1891429,11.6428 C39.5908571,11.6428 39.9171429,11.9685143 39.9171429,12.3696571 C39.9171429,12.7708 39.5908571,13.0965143 39.1891429,13.0965143 L33.9325714,13.0965143 L33.9325714,15.1890857 L33.9342857,15.1890857 L33.9342857,17.2776571 L36.3171429,17.2776571 L36.3171429,15.1890857 L39.1891429,15.1890857 C40.7462857,15.1890857 42.0102857,13.9273714 42.0102857,12.3696571 C42.0102857,10.8113714 40.7462857,9.54965714 39.1891429,9.54965714" id="Fill-25" fill="#E50120"></path>
            <path d="M39.1891429,9.54965714 L38.2628571,9.54965714 L33.9074286,9.54965714 L33.9074286,11.6428 L38.0788571,11.6428 L39.1891429,11.6428 C39.5908571,11.6428 39.9171429,11.9685143 39.9171429,12.3696571 C39.9171429,12.7708 39.5908571,13.0965143 39.1891429,13.0965143 L33.9325714,13.0965143 L33.9325714,15.1890857 L33.9342857,15.1890857 L33.9342857,17.2776571 L36.3171429,17.2776571 L36.3171429,15.1890857 L39.1891429,15.1890857 C40.7462857,15.1890857 42.0102857,13.9273714 42.0102857,12.3696571 C42.0102857,10.8113714 40.7462857,9.54965714 39.1891429,9.54965714 Z" id="Stroke-27" stroke="#E50120" stroke-width="1.378"></path>
            <path d="M31.3292571,14.5781143 C31.3292571,14.9798286 31.0058286,15.3044 30.6029714,15.3044 C30.2018286,15.3044 29.8772571,14.9798286 29.8772571,14.5781143 L29.8772571,13.4672571 L29.8772571,9.54382857 L29.8755429,9.54382857 L27.7829714,9.54382857 L27.7829714,13.6524 L27.7829714,14.5781143 C27.7829714,14.9798286 27.4584,15.3044 27.0561143,15.3044 C26.6555429,15.3044 26.3292571,14.9798286 26.3292571,14.5781143 L26.3292571,13.4672571 L26.3292571,9.54382857 L24.2355429,9.54382857 L24.2355429,13.6524 L24.2355429,14.5781143 C24.2355429,16.1352571 25.4978286,17.3986857 27.0561143,17.3986857 C27.7286857,17.3986857 28.3452571,17.1615429 28.8292571,16.7689714 C29.3149714,17.1615429 29.9315429,17.3986857 30.6029714,17.3986857 C32.1595429,17.3986857 33.4235429,16.1352571 33.4235429,14.5781143 L33.4235429,9.54382857 L31.3292571,9.54382857 L31.3292571,14.5781143 Z" id="Fill-29" fill="#E50120"></path>
            <path d="M31.3292571,14.5781143 C31.3292571,14.9798286 31.0058286,15.3044 30.6029714,15.3044 C30.2018286,15.3044 29.8772571,14.9798286 29.8772571,14.5781143 L29.8772571,13.4672571 L29.8772571,9.54382857 L29.8755429,9.54382857 L27.7829714,9.54382857 L27.7829714,13.6524 L27.7829714,14.5781143 C27.7829714,14.9798286 27.4584,15.3044 27.0561143,15.3044 C26.6555429,15.3044 26.3292571,14.9798286 26.3292571,14.5781143 L26.3292571,13.4672571 L26.3292571,9.54382857 L24.2355429,9.54382857 L24.2355429,13.6524 L24.2355429,14.5781143 C24.2355429,16.1352571 25.4978286,17.3986857 27.0561143,17.3986857 C27.7286857,17.3986857 28.3452571,17.1615429 28.8292571,16.7689714 C29.3149714,17.1615429 29.9315429,17.3986857 30.6029714,17.3986857 C32.1595429,17.3986857 33.4235429,16.1352571 33.4235429,14.5781143 L33.4235429,9.54382857 L31.3292571,9.54382857 L31.3292571,14.5781143 Z" id="Stroke-31" stroke="#E50120" stroke-width="1.378"></path>
            <path d="M15.6261143,13.4104 C15.6261143,15.5469714 17.3575429,17.2778286 19.4924,17.2778286 L23.7146857,17.2784 L23.7146857,15.1858286 L19.6764,15.1858286 C19.0901143,15.1858286 18.5752571,14.8978286 18.2518286,14.4584 L23.7278286,14.4584 L23.7278286,12.3652571 L18.2518286,12.3652571 C18.5741143,11.9258286 19.0901143,11.6372571 19.6764,11.6372571 L23.7558286,11.6378286 L23.7558286,9.54468571 L19.4924,9.54411429 C17.3575429,9.54411429 15.6261143,11.2761143 15.6261143,13.4104" id="Fill-33" fill="#FEFEFE"></path>
            <path d="M39.1891429,9.54965714 L38.2628571,9.54965714 L33.9074286,9.54965714 L33.9074286,11.6428 L38.0788571,11.6428 L39.1891429,11.6428 C39.5908571,11.6428 39.9171429,11.9685143 39.9171429,12.3696571 C39.9171429,12.7708 39.5908571,13.0965143 39.1891429,13.0965143 L33.9325714,13.0965143 L33.9325714,15.1890857 L33.9342857,15.1890857 L33.9342857,17.2776571 L36.3171429,17.2776571 L36.3171429,15.1890857 L39.1891429,15.1890857 C40.7462857,15.1890857 42.0102857,13.9273714 42.0102857,12.3696571 C42.0102857,10.8113714 40.7462857,9.54965714 39.1891429,9.54965714" id="Fill-35" fill="#FEFEFE"></path>
            <path d="M31.3292571,14.5781143 C31.3292571,14.9798286 31.0058286,15.3044 30.6029714,15.3044 C30.2018286,15.3044 29.8772571,14.9798286 29.8772571,14.5781143 L29.8772571,13.4672571 L29.8772571,9.54382857 L29.8755429,9.54382857 L27.7829714,9.54382857 L27.7829714,13.6524 L27.7829714,14.5781143 C27.7829714,14.9798286 27.4584,15.3044 27.0561143,15.3044 C26.6555429,15.3044 26.3292571,14.9798286 26.3292571,14.5781143 L26.3292571,13.4672571 L26.3292571,9.54382857 L24.2355429,9.54382857 L24.2355429,13.6524 L24.2355429,14.5781143 C24.2355429,16.1352571 25.4978286,17.3986857 27.0561143,17.3986857 C27.7286857,17.3986857 28.3452571,17.1615429 28.8292571,16.7689714 C29.3149714,17.1615429 29.9315429,17.3986857 30.6029714,17.3986857 C32.1595429,17.3986857 33.4235429,16.1352571 33.4235429,14.5781143 L33.4235429,9.54382857 L31.3292571,9.54382857 L31.3292571,14.5781143 Z" id="Fill-37" fill="#FEFEFE"></path>
            <path d="M14.3526857,31.2463429 C14.3526857,30.7697714 13.9406857,30.3840571 13.4332571,30.3840571 L8.29325714,30.3829143 L8.29325714,31.2366286 L13.2172571,31.2366286 L13.3184,31.2617714 L13.3184,31.9400571 L7.93097143,31.9400571 L7.93097143,32.7920571 L10.9109714,32.7920571 C10.8258286,32.8903429 10.7738286,33.0183429 10.7738286,33.1583429 C10.7738286,33.2949143 10.8229714,33.4200571 10.9041143,33.5177714 L8.29325714,33.5177714 L8.29325714,34.3714857 L13.2172571,34.3714857 L13.3184,34.3966286 L13.3184,35.6314857 L14.3526857,35.6314857 L14.3526857,34.3800571 C14.3526857,33.9040571 13.9406857,33.5183429 13.4332571,33.5183429 L11.7675429,33.5183429 C11.8498286,33.4206286 11.8972571,33.2949143 11.8972571,33.1583429 C11.8972571,33.0183429 11.8452571,32.8903429 11.7618286,32.7920571 L14.7395429,32.7920571 L14.7395429,31.9400571 L14.3526857,31.9400571 L14.3526857,31.2463429 Z" id="Fill-39" fill="#004199"></path>
            <path d="M6.90234286,31.2999429 C6.71605714,31.2999429 6.54977143,31.3879429 6.44062857,31.5239429 L6.44062857,30.1930857 L5.40748571,30.1930857 L5.40748571,34.7776571 L1.51205714,34.7776571 L1.41205714,34.7776571 L1.41205714,33.9348 L0.377771429,33.9348 L0.376628571,34.7690857 C0.376628571,35.2450857 0.788057143,35.6319429 1.29548571,35.6319429 L6.4372,35.6319429 L6.44062857,35.6319429 L6.44062857,32.2548 C6.54977143,32.3908 6.71605714,32.4788 6.90234286,32.4788 C7.22748571,32.4788 7.49148571,32.2148 7.49148571,31.8896571 C7.49148571,31.5633714 7.22748571,31.2999429 6.90234286,31.2999429" id="Fill-41" fill="#004199"></path>
            <g id="Group-45" transform="translate(0.000000, 29.713714)">
                <mask id="mask-2" fill="white">
                    <use xlink:href="#path-1"></use>
                </mask>
                <g id="Clip-44"></g>
                <path d="M2.26674286,3.33702857 C1.91702857,3.33702857 1.6336,3.05302857 1.6336,2.70217143 C1.6336,2.35188571 1.91702857,2.06731429 2.26674286,2.06731429 C2.61817143,2.06731429 2.9016,2.35188571 2.9016,2.70217143 C2.9016,3.05302857 2.61817143,3.33702857 2.26674286,3.33702857 M0.726742857,2.70217143 C0.726742857,3.55302857 1.41588571,4.24331429 2.26674286,4.24331429 C3.1176,4.24331429 3.80845714,3.55302857 3.80845714,2.70217143 C3.80845714,2.42102857 3.73302857,2.15817143 3.60045714,1.93074286 L4.53531429,1.93074286 L4.53531429,1.07931429 L2.57074286,1.07931429 C2.72617143,0.979314286 2.82902857,0.805028571 2.82902857,0.606742857 C2.82902857,0.296457143 2.57817143,0.0444571429 2.26845714,0.0444571429 C1.95702857,0.0444571429 1.70617143,0.296457143 1.70617143,0.606742857 C1.70617143,0.805028571 1.80902857,0.979314286 1.96445714,1.07931429 L-0.000114285714,1.07931429 L-0.000114285714,1.93074286 L0.933028571,1.93074286 C0.802171429,2.15817143 0.726742857,2.42102857 0.726742857,2.70217143" id="Fill-43" fill="#004199" mask="url(#mask-2)"></path>
            </g>
            <polygon id="Fill-46" fill="#004199" points="40.0837143 33.3557143 41.346 31.25 42.6002857 33.3534286 43.7345714 33.3534286 42.4722857 31.2368571 43.6105714 31.2368571 43.6105714 30.3842857 39.0745714 30.3842857 39.0745714 31.2368571 40.2202857 31.2368571 38.9482857 33.3557143"></polygon>
            <path d="M45.5189714,30.1944571 L44.4846857,30.1944571 L44.4846857,31.4344571 C44.3778286,31.2984571 44.2115429,31.2116 44.0252571,31.2116 C43.6995429,31.2116 43.4349714,31.4756 43.4349714,31.8007429 C43.4349714,32.1258857 43.6995429,32.3904571 44.0252571,32.3904571 C44.2115429,32.3904571 44.3778286,32.3030286 44.4846857,32.1676 L44.4846857,34.7778857 L40.5955429,34.7778857 L40.4938286,34.7778857 L40.4938286,33.7476 L39.4595429,33.7476 L39.4595429,34.7693143 C39.4595429,35.2453143 39.8715429,35.6310286 40.3795429,35.6310286 L44.4846857,35.6316 L44.7852571,35.6316 L45.5189714,35.6316 L45.5189714,34.7778857 L45.5189714,30.1944571 Z" id="Fill-48" fill="#004199"></path>
            <path d="M28.8348,31.3328571 C28.7262286,31.1968571 28.5605143,31.1094286 28.3730857,31.1094286 C28.0479429,31.1094286 27.7845143,31.3734286 27.7845143,31.6985714 C27.7845143,32.0237143 28.0479429,32.2877143 28.3730857,32.2877143 C28.5605143,32.2877143 28.7262286,32.2002857 28.8348,32.0637143 L28.8348,35.6317143 L29.8673714,35.6317143 L29.8673714,30.1928571 L28.8348,30.1928571 L28.8348,31.3328571 Z" id="Fill-50" fill="#004199"></path>
            <polygon id="Fill-52" fill="#004199" points="26.0250857 30.3841714 25.3599429 30.3841714 24.8896571 30.3841714 23.2433714 33.1247429 24.3776571 33.1247429 25.6930857 30.9367429 27.0073714 33.1247429 28.1428 33.1247429 26.4953714 30.3841714"></polygon>
            <mask id="mask-4" fill="white">
                <use xlink:href="#path-3"></use>
            </mask>
            <g id="Clip-55"></g>
            <path d="M32.14,31.7794286 L34.6102857,31.7794286 L34.6102857,31.4325714 L32.14,31.4325714 L32.14,31.7794286 Z M35.6445714,32.5268571 L35.6445714,32.264 L35.6445714,30.3834286 L34.6102857,30.3834286 L34.6102857,30.6885714 L32.14,30.6885714 L32.14,30.384 L31.1074286,30.384 L31.1074286,31.7262857 C31.1085714,32.1685714 31.4897143,32.5268571 31.9617143,32.5268571 L35.6445714,32.5268571 Z" id="Fill-54" fill="#004199" mask="url(#mask-4)"></path>
            <path d="M38.0105714,31.2999429 C37.8237143,31.2999429 37.6574286,31.3879429 37.5482857,31.5239429 L37.5482857,30.1930857 L36.5162857,30.1930857 L36.5162857,32.8319429 L31.4871429,32.8319429 L31.4871429,33.5793714 L36.5151429,33.5793714 L36.5151429,33.8610857 L31.4871429,33.8610857 L31.4871429,34.6050857 L31.4871429,34.8330857 C31.4882857,35.2753714 31.8705714,35.6330857 32.3408571,35.6330857 L37.5482857,35.6330857 L37.5482857,34.8850857 L32.5197143,34.8850857 L32.5197143,34.6050857 L37.5482857,34.6050857 L37.5482857,34.5296571 L37.55,34.5296571 L37.55,33.6319429 C37.55,33.6279429 37.5482857,33.6239429 37.5482857,33.6210857 L37.5482857,32.2548 C37.6574286,32.3908 37.8237143,32.4788 38.0105714,32.4788 C38.3368571,32.4788 38.6002857,32.2148 38.6002857,31.8896571 C38.6002857,31.5633714 38.3368571,31.2999429 38.0105714,31.2999429" id="Fill-56" fill="#004199" mask="url(#mask-4)"></path>
            <path d="M19.0513143,35.0929143 C18.7010286,35.0929143 18.4164571,34.8083429 18.4164571,34.4586286 C18.4164571,34.1072 18.7010286,33.8237714 19.0513143,33.8237714 C19.4010286,33.8237714 19.6856,34.1072 19.6856,34.4586286 C19.6856,34.8083429 19.4010286,35.0929143 19.0513143,35.0929143 L19.0513143,35.0929143 Z M19.5673143,32.5632 L22.0798857,32.5632 L22.0798857,31.7094857 L17.1570286,31.7094857 L17.0564571,31.7094857 L17.0564571,31.2357714 L22.0798857,31.2357714 L22.0798857,30.3832 L16.7604571,30.3832 L16.7604571,30.3843429 L16.0221714,30.3843429 L16.0221714,31.7003429 C16.0221714,32.1769143 16.4341714,32.5632 16.9404571,32.5632 L18.5336,32.5632 L18.5336,32.8677714 L15.6484571,32.8677714 L15.6484571,33.7203429 L17.6981714,33.7203429 C17.5781714,33.9392 17.5096,34.1912 17.5096,34.4586286 C17.5096,35.3094857 18.2004571,35.9992 19.0513143,35.9992 C19.9021714,35.9992 20.5924571,35.3094857 20.5924571,34.4586286 C20.5924571,34.1912 20.5227429,33.9392 20.4044571,33.7203429 L22.4581714,33.7203429 L22.4581714,32.8677714 L19.5673143,32.8677714 L19.5673143,32.5632 Z" id="Fill-57" fill="#004199" mask="url(#mask-4)"></path>
            <polygon id="Fill-58" fill="#004199" mask="url(#mask-4)" points="55.7731429 35.8234286 56.0605714 35.8234286 56.0605714 30.0022857 55.7731429 30.0022857"></polygon>
            <polygon id="Fill-59" fill="#004199" mask="url(#mask-4)" points="47.4245714 35.8234286 47.7102857 35.8234286 47.7102857 30.0022857 47.4245714 30.0022857"></polygon>
            <polygon id="Fill-60" fill="#004199" mask="url(#mask-4)" points="48.3381714 34.3702286 51.2250286 34.3702286 51.2250286 35.6313714 52.2581714 35.6313714 52.2581714 34.3702286 55.1461714 34.3702286 55.1461714 33.5182286 48.3381714 33.5182286"></polygon>
            <polygon id="Fill-61" fill="#004199" mask="url(#mask-4)" points="49.856 33.1255429 51.7422857 31.2392571 53.6285714 33.1255429 55.004 33.1255429 53.1148571 31.2358286 54.7714286 31.2358286 54.7714286 30.3832571 48.7137143 30.3832571 48.7137143 31.2358286 50.3691429 31.2358286 48.4805714 33.1255429"></polygon>
        </g>
    </g>
</svg>