<?xml version="1.0" encoding="UTF-8"?>
<svg width="100px" height="60px" viewBox="0 0 100 60" version="1.1" xmlns="http://www.w3.org/2000/svg" xmlns:xlink="http://www.w3.org/1999/xlink">
    <!-- Generator: Sketch 55.2 (78181) - https://sketchapp.com -->
    <title>logo/fila</title>
    <desc>Created with Sketch.</desc>
    <g id="logo/fila" stroke="none" stroke-width="1" fill="none" fill-rule="evenodd">
        <g transform="translate(29.000000, 23.000000)">
            <path d="M1.82635,0.538375 L10.28535,0.538375 C11.27885,0.538375 12.07985,1.307375 12.07985,2.300625 L12.07985,2.428875 C12.07985,3.422125 11.27885,4.223125 10.28535,4.223125 L1.82635,4.223125 C0.8331,4.223125 0.0001,3.422125 0.0001,2.428875 L0.0001,2.300625 C0.0001,1.307375 0.8331,0.538375 1.82635,0.538375" id="Fill-1" fill="#FEFEFE"></path>
            <path d="M5e-05,7.01065 C5e-05,6.0494 0.89705,5.34465 1.89055,5.34465 L9.3883,5.34465 C10.38155,5.34465 11.18255,6.14565 11.18255,7.1389 L11.18255,7.2349 C11.18255,8.2284 10.38155,9.0294 9.3883,9.0294 L4.29355,9.0294 C4.0373,9.0294 3.8128,9.25365 3.8128,9.5099 L3.8128,12.00915 C3.8128,13.00265 3.0118,13.80365 2.0188,13.80365 L1.7943,13.80365 C0.8013,13.80365 5e-05,13.00265 5e-05,12.00915 L5e-05,7.01065 Z" id="Fill-3" fill="#1D355B"></path>
            <path d="M13.2332,12.0092 L13.2012,2.07645 C13.2012,1.08295 13.9702,0.24995 14.99545,0.24995 L15.1877,0.24995 C16.18095,0.24995 16.9822,1.08295 16.9822,2.07645 L17.0142,12.0092 C17.0142,13.0027 16.21295,13.8037 15.2197,13.8037 L14.99545,13.8037 C14.0022,13.8037 13.2332,13.0027 13.2332,12.0092" id="Fill-6" fill="#1D355B"></path>
            <path d="M36.0468,1.435475 L40.05205,7.971975 C40.94905,9.381975 41.14155,9.734225 41.14155,10.791725 C41.14155,12.425725 39.6353,13.675475 38.3218,13.675475 L32.90655,13.675475 C31.91355,13.675475 31.11255,13.002725 31.11255,12.009225 L31.11255,11.913225 C31.11255,10.919975 31.91355,10.118725 32.90655,10.118725 L36.2393,10.118725 C36.4313,10.118725 36.55955,10.086725 36.6238,9.958725 C36.68755,9.798225 36.6558,9.734225 36.55955,9.574225 L34.1883,5.761225 C34.1563,5.696975 34.1243,5.600975 34.0603,5.600975 C33.96405,5.600975 33.93205,5.696975 33.90005,5.761225 L30.2793,11.977225 C29.70255,12.970725 29.0298,13.675475 28.06855,13.675475 L21.11555,13.675475 C19.7698,13.675475 18.45605,12.393725 18.45605,11.047975 L18.45605,2.076225 C18.45605,1.082975 19.25705,0.281975 20.2503,0.281975 L20.47455,0.281975 C21.46805,0.281975 22.26905,1.082975 22.26905,2.076225 L22.26905,9.413725 C22.26905,9.669975 22.46105,9.894475 22.7498,9.894475 L26.21005,9.894475 C26.8188,9.894475 27.1713,9.669975 27.49155,9.125725 L32.1378,1.435475 C32.5863,0.698475 33.2913,0.314225 34.1243,0.314225 C34.92555,0.314225 35.56605,0.666475 36.0468,1.435475" id="Fill-9" fill="#1D355B"></path>
            <path d="M1.82635,0.538375 L10.28535,0.538375 C11.27885,0.538375 12.07985,1.307375 12.07985,2.300625 L12.07985,2.428875 C12.07985,3.422125 11.27885,4.223125 10.28535,4.223125 L1.82635,4.223125 C0.8331,4.223125 0.0001,3.422125 0.0001,2.428875 L0.0001,2.300625 C0.0001,1.307375 0.8331,0.538375 1.82635,0.538375" id="Fill-12" fill="#EC1D24"></path>
        </g>
    </g>
</svg>