<?xml version="1.0" encoding="UTF-8"?>
<svg width="100px" height="60px" viewBox="0 0 100 60" version="1.1" xmlns="http://www.w3.org/2000/svg" xmlns:xlink="http://www.w3.org/1999/xlink">
    <!-- Generator: Sketch 55.2 (78181) - https://sketchapp.com -->
    <title>logo/fnf</title>
    <desc>Created with Sketch.</desc>
    <g id="logo/fnf" stroke="none" stroke-width="1" fill="none" fill-rule="evenodd">
        <g transform="translate(29.000000, 19.000000)" fill="#2B2C2F">
            <path d="M0.199769167,21.7600886 L41.6411252,21.7600886 L41.6411252,0.239876582 L0.199769167,0.239876582 L0.199769167,21.7600886 Z M41.6259727,0.00236708861 C27.8086692,0.00247151899 13.9913657,0.00247151899 0.174027333,0.00236708861 C0.116029833,0.00236708861 0.0580323333,0.000800632911 0,0 L0,22 C0.0580323333,21.9991994 0.116029833,21.9976329 0.174027333,21.9976329 C13.9913657,21.9975285 27.8086692,21.9975285 41.6259727,21.9976329 C41.6839702,21.9976329 41.7420025,21.9991994 41.8,22 L41.8,0 C41.7420025,0.000835443038 41.6839702,0.00236708861 41.6259727,0.00236708861 L41.6259727,0.00236708861 Z" id="Fill-1"></path>
            <polygon id="Fill-3" points="4.90704482 11.5457427 14.1449841 11.5457427 14.1449841 10.118806 4.91477782 10.118806 4.91477782 4.97136297 14.6273562 4.97136297 14.6273562 3.54735032 3.35473215 3.54735032 3.35473215 18.6839421 4.90704482 18.6839421"></polygon>
            <polygon id="Fill-4" points="28.7444736 11.5482943 37.995998 11.5482943 37.995998 10.1232373 28.7574316 10.1232373 28.7574316 4.97381013 38.4788576 4.97381013 38.4788576 3.54896203 27.2081146 3.54896203 27.2081146 18.6829082 28.7444736 18.6829082"></polygon>
            <path d="M16.3723146,12.3060585 C16.9168292,11.6423687 17.6794006,11.305894 18.4563232,11.0036028 C18.4918881,10.9897832 18.5602311,11.0113655 18.5907102,11.0402579 C19.8869631,12.2688117 21.1806731,13.5000807 22.4743134,14.7314541 C22.4818026,14.7385902 22.4833701,14.7519573 22.4933672,14.7759066 C22.1104444,15.1776851 21.6846069,15.5363339 21.1669487,15.7557421 C19.9240606,16.2824541 18.6539327,16.3125649 17.3844667,15.8667516 C16.7662796,15.6496756 16.2776724,15.2443813 16.0270466,14.6223244 C15.6920544,13.7909193 15.8013266,13.0020174 16.3723146,12.3060585 M17.7347507,8.49347943 C17.4645834,8.13284652 17.4045307,7.70008703 17.5682474,7.26920728 C17.7660311,6.74865665 18.1916944,6.49203639 18.7109549,6.38217563 C19.1756664,6.28380222 19.6361979,6.33298892 20.0764912,6.51038133 C20.6171394,6.7282231 20.9061167,7.17159968 20.9068134,7.68003639 C20.9117946,8.17242563 20.7501331,8.52376424 20.4780499,8.82706487 C20.0617916,9.29097943 19.5242087,9.57454272 18.9638797,9.82016297 C18.9302307,9.83492247 18.8582999,9.81821361 18.8340211,9.79026108 C18.4623494,9.36227057 18.0739577,8.94621994 17.7347507,8.49347943 M16.9455319,16.8432104 C18.1222019,17.2455807 19.3269127,17.2517073 20.5345496,16.9964446 C21.4580857,16.8012642 22.2981961,16.4286218 22.9883837,15.7645142 C23.0832349,15.6732073 23.1711194,15.5745902 23.2692449,15.4719699 C23.3240726,15.5215744 23.3716201,15.5624763 23.4167641,15.6057453 C23.8273794,15.9990997 24.2342676,16.3963877 24.6511529,16.7829193 C24.7189386,16.8457864 24.8294996,16.8915269 24.9217034,16.8941725 C25.3335031,16.9060079 25.7457904,16.8997421 26.1578687,16.8988022 C26.2125919,16.898663 26.2672802,16.8915965 26.3675306,16.8845301 C25.5337947,16.0958022 24.7314786,15.3367326 23.9257139,14.5744953 C24.4394011,13.7568402 24.7832409,12.8913908 24.8449307,11.9139921 L23.7557621,11.9139921 C23.6392446,12.5790047 23.5266284,13.2452009 23.1367389,13.8428908 C21.9532067,12.7207516 20.7882407,11.6162959 19.6054749,10.4948877 C19.6884479,10.4569446 19.7462712,10.430837 19.8038507,10.4041377 C20.3866472,10.1339415 20.9309877,9.8102769 21.3713507,9.32986234 C22.4767169,8.12390032 22.1633562,5.93389082 20.2035981,5.4594288 C19.5784094,5.30810918 18.9493891,5.29178323 18.3242004,5.43878639 C16.2414806,5.92853006 16.0031161,7.99593829 16.8546169,9.16709019 C17.1054169,9.51205854 17.4148066,9.81480222 17.7022164,10.1324794 C17.7425882,10.1770712 17.8109661,10.196356 17.8663859,10.2273718 C17.7510179,10.3164161 17.6834412,10.3467706 17.6154814,10.3763244 C17.0084061,10.640568 16.4175979,10.9331123 15.8811297,11.3274066 C14.8422256,12.090932 14.5026006,13.1262199 14.7204831,14.3607611 C14.9463076,15.6403813 15.7483451,16.4338085 16.9455319,16.8432104" id="Fill-5"></path>
        </g>
    </g>
</svg>