<?xml version="1.0" encoding="UTF-8"?>
<svg width="100px" height="60px" viewBox="0 0 100 60" version="1.1" xmlns="http://www.w3.org/2000/svg" xmlns:xlink="http://www.w3.org/1999/xlink">
    <!-- Generator: Sketch 55.2 (78181) - https://sketchapp.com -->
    <title>logo/gangseo</title>
    <desc>Created with Sketch.</desc>
    <defs>
        <radialGradient cx="50%" cy="50%" fx="50%" fy="50%" r="61.883809%" gradientTransform="translate(0.500000,0.500000),scale(1.000000,0.965894),translate(-0.500000,-0.500000)" id="radialGradient-1">
            <stop stop-color="#FFFFFF" offset="0%"></stop>
            <stop stop-color="#307BC1" offset="100%"></stop>
        </radialGradient>
        <radialGradient cx="50%" cy="50%" fx="50%" fy="50%" r="61.883809%" gradientTransform="translate(0.500000,0.500000),scale(1.000000,0.842348),translate(-0.500000,-0.500000)" id="radialGradient-2">
            <stop stop-color="#FFFFFF" offset="0%"></stop>
            <stop stop-color="#307BC1" offset="100%"></stop>
        </radialGradient>
        <radialGradient cx="50%" cy="50%" fx="50%" fy="50%" r="61.883809%" gradientTransform="translate(0.500000,0.500000),scale(1.000000,0.904354),translate(-0.500000,-0.500000)" id="radialGradient-3">
            <stop stop-color="#FFFFFF" offset="0%"></stop>
            <stop stop-color="#307BC1" offset="100%"></stop>
        </radialGradient>
        <radialGradient cx="50%" cy="50%" fx="50%" fy="50%" r="61.883809%" gradientTransform="translate(0.500000,0.500000),scale(1.000000,0.766030),translate(-0.500000,-0.500000)" id="radialGradient-4">
            <stop stop-color="#FFFFFF" offset="0%"></stop>
            <stop stop-color="#307BC1" offset="100%"></stop>
        </radialGradient>
        <polygon id="path-5" points="0.0395 0.0134745763 4.92110169 0.0134745763 4.92110169 0.762711864 0.0395 0.762711864"></polygon>
        <polygon id="path-7" points="0.00541949153 0.0363983051 1.25643644 0.0363983051 1.25643644 1.29495339 0.00541949153 1.29495339"></polygon>
    </defs>
    <g id="logo/gangseo" stroke="none" stroke-width="1" fill="none" fill-rule="evenodd">
        <polygon id="Path" fill="url(#radialGradient-1)" points="51 32.453125 51 21 54.4609375 21 56.5390625 28.8125 58.59375 21 62.0625 21 62.0625 32.453125 59.9140625 32.453125 59.9140625 23.4375 57.640625 32.453125 55.4140625 32.453125 53.1484375 23.4375 53.1484375 32.453125"></polygon>
        <path d="M71.734375,28.4375 L73.9765625,29.1484375 C73.6328108,30.3984437 73.0612019,31.3268199 72.2617188,31.9335938 C71.4622356,32.5403676 70.4479228,32.84375 69.21875,32.84375 C67.6979091,32.84375 66.4479216,32.3242239 65.46875,31.2851562 C64.4895784,30.2460886 64,28.8255298 64,27.0234375 C64,25.117178 64.4921826,23.636724 65.4765625,22.5820312 C66.4609424,21.5273385 67.7552003,21 69.359375,21 C70.7604237,21 71.8984331,21.4140584 72.7734375,22.2421875 C73.2942734,22.7317733 73.6848945,23.4348912 73.9453125,24.3515625 L71.65625,24.8984375 C71.5208327,24.3046845 71.2382834,23.8359392 70.8085938,23.4921875 C70.3789041,23.1484358 69.8567739,22.9765625 69.2421875,22.9765625 C68.3932249,22.9765625 67.7044297,23.281247 67.1757812,23.890625 C66.6471328,24.5 66.3828125,25.4869723 66.3828125,26.8515625 C66.3828125,28.2994864 66.6432266,29.3307261 67.1640625,29.9453125 C67.6848984,30.5598989 68.361975,30.8671875 69.1953125,30.8671875 C69.8098989,30.8671875 70.3385395,30.671877 70.78125,30.28125 C71.2239605,29.890623 71.5416657,29.2760459 71.734375,28.4375 Z" id="Path" fill="url(#radialGradient-2)"></path>
        <path d="M72.3457739,15.5251478 C72.3457739,14.4114087 73.1151652,13.4795826 74.1506435,13.2260174 C73.7812522,12.9877565 73.3419478,12.8479304 72.8696,12.8479304 C71.5607304,12.8479304 70.4998609,13.9088 70.4998609,15.2173217 C70.4998609,16.5258435 71.5607304,17.5870609 72.8696,17.5870609 C73.0643826,17.5870609 73.2525565,17.5609739 73.4337739,17.5164522 C72.7798609,17.094887 72.3457739,16.3613217 72.3457739,15.5251478" id="Fill-1" fill="#0065B1"></path>
        <path d="M75.1041043,14.4349565 C75.350713,14.348 75.6150609,14.2982609 75.8912348,14.2982609 C76.2328,14.2982609 76.5566261,14.372 76.8501913,14.502087 C76.4679304,13.7062609 75.6571478,13.1556522 74.7152348,13.1556522 C74.5204522,13.1556522 74.3319304,13.1817391 74.150713,13.225913 C74.5900174,13.5093913 74.9284522,13.9333913 75.1041043,14.4349565" id="Fill-4" fill="#00A33A"></path>
        <path d="M76.8501913,14.5020174 C76.9990609,14.8122783 77.0849739,15.1580174 77.0849739,15.5249739 C77.0849739,16.8338435 76.0241043,17.894713 74.7152348,17.894713 C74.3736696,17.894713 74.0498435,17.8209739 73.7562783,17.690887 C74.1385391,18.486713 74.9496696,19.0373217 75.8912348,19.0373217 C77.2001043,19.0373217 78.2609739,17.9764522 78.2609739,16.6679304 C78.2609739,15.7006261 77.6808,14.8703652 76.8501913,14.5020174" id="Fill-8" fill="#E50D13"></path>
        <path d="M77.0849043,15.5251478 C77.0849043,15.1581913 76.9989913,14.8121043 76.8501217,14.5021913 C76.5565565,14.3721043 76.2327304,14.2983652 75.8911652,14.2983652 C75.6149913,14.2983652 75.3506435,14.3481043 75.1040348,14.4350609 C75.1899478,14.6802783 75.2389913,14.942887 75.2389913,15.2173217 C75.2389913,16.2496696 74.5777739,17.1254957 73.6567304,17.4503652 C73.6856,17.5324522 73.7189913,17.6128 73.7565565,17.6910609 C74.0497739,17.8211478 74.3736,17.8945391 74.715513,17.8945391 C76.0240348,17.8945391 77.0849043,16.8336696 77.0849043,15.5251478" id="Fill-11" fill="#FDEF15"></path>
        <path d="M73.5217391,16.6677913 C73.5217391,15.6354435 74.1829565,14.7599652 75.104,14.4350957 C74.9283478,13.9335304 74.5902609,13.5091826 74.1509565,13.2260522 C73.1151304,13.4796174 72.3457391,14.4114435 72.3457391,15.5251826 C72.3457391,16.3613565 72.7798261,17.0949217 73.434087,17.516487 C73.509913,17.4980522 73.584,17.4757913 73.6566957,17.4504 C73.5707826,17.2048348 73.5217391,16.9425739 73.5217391,16.6677913" id="Fill-6" fill="#1EA5DF"></path>
        <path d="M47.9611867,31.7670473 C31.8078139,31.7670473 18.8111867,29.5262495 18.8111867,26.6170473 C18.8111867,23.707845 31.8078139,21.4670473 47.9611867,21.4670473 C64.1145596,21.4670473 77.1111867,23.707845 77.1111867,26.6170473 C77.1111867,29.5262495 64.1145596,31.7670473 47.9611867,31.7670473 Z M47.9611867,31.4670473 C63.8403293,31.4670473 76.8111867,29.2306925 76.8111867,26.6170473 C76.8111867,24.003402 63.8403293,21.7670473 47.9611867,21.7670473 C32.0820441,21.7670473 19.1111867,24.003402 19.1111867,26.6170473 C19.1111867,29.2306925 32.0820441,31.4670473 47.9611867,31.4670473 Z" id="Oval" fill="#C69DC6" fill-rule="nonzero" transform="translate(47.961187, 26.617047) rotate(-20.000000) translate(-47.961187, -26.617047) "></path>
        <path d="M31.7265625,28.4375 L31.7265625,26.5078125 L36.7109375,26.5078125 L36.7109375,31.0703125 C36.2265601,31.5390648 35.5247442,31.9518211 34.6054688,32.3085938 C33.6861933,32.6653664 32.755213,32.84375 31.8125,32.84375 C30.6145773,32.84375 29.570317,32.5924504 28.6796875,32.0898438 C27.789058,31.5872371 27.1197939,30.8684943 26.671875,29.9335938 C26.2239561,28.9986932 26,27.9817763 26,26.8828125 C26,25.6900982 26.2499975,24.630213 26.75,23.703125 C27.2500025,22.776037 27.981766,22.0651066 28.9453125,21.5703125 C29.6796912,21.1901023 30.5937445,21 31.6875,21 C33.1093821,21 34.2200481,21.2981741 35.0195312,21.8945312 C35.8190144,22.4908884 36.3333322,23.3150989 36.5625,24.3671875 L34.265625,24.796875 C34.1041659,24.2343722 33.8007835,23.7903662 33.3554688,23.4648438 C32.910154,23.1393213 32.35417,22.9765625 31.6875,22.9765625 C30.6770783,22.9765625 29.8737009,23.2968718 29.2773438,23.9375 C28.6809866,24.5781282 28.3828125,25.5286395 28.3828125,26.7890625 C28.3828125,28.1484443 28.6848928,29.1679654 29.2890625,29.8476562 C29.8932322,30.5273471 30.6848909,30.8671875 31.6640625,30.8671875 C32.1484399,30.8671875 32.6341121,30.7721364 33.1210938,30.5820312 C33.6080754,30.3919261 34.0260399,30.1614597 34.375,29.890625 L34.375,28.4375 L31.7265625,28.4375 Z" id="Path" fill="url(#radialGradient-3)"></path>
        <path d="M39,32.453125 L39,21 L42.7109375,21 C44.1171945,21 45.033852,21.0572911 45.4609375,21.171875 C46.1171908,21.3437509 46.6666645,21.717445 47.109375,22.2929688 C47.5520855,22.8684925 47.7734375,23.6119746 47.7734375,24.5234375 C47.7734375,25.226566 47.6458346,25.8177059 47.390625,26.296875 C47.1354154,26.7760441 46.8111999,27.1523424 46.4179688,27.4257812 C46.0247376,27.6992201 45.625002,27.8802079 45.21875,27.96875 C44.6666639,28.0781255 43.8671927,28.1328125 42.8203125,28.1328125 L41.3125,28.1328125 L41.3125,32.453125 L39,32.453125 Z M41.3125,22.9375 L41.3125,26.1875 L42.578125,26.1875 C43.4895879,26.1875 44.0989568,26.1276048 44.40625,26.0078125 C44.7135432,25.8880202 44.9544262,25.7005221 45.1289062,25.4453125 C45.3033863,25.1901029 45.390625,24.8932309 45.390625,24.5546875 C45.390625,24.1380188 45.2682304,23.7942722 45.0234375,23.5234375 C44.7786446,23.2526028 44.4687519,23.0833337 44.09375,23.015625 C43.817707,22.9635414 43.263025,22.9375 42.4296875,22.9375 L41.3125,22.9375 Z" id="Combined-Shape" fill="url(#radialGradient-4)"></path>
        <path d="M73.5217391,16.6677913 C73.5217391,16.9425739 73.5707826,17.2048348 73.6566957,17.4504 C74.5777391,17.1251826 75.2389565,16.2497043 75.2389565,15.2173565 C75.2389565,14.9429217 75.189913,14.680313 75.104,14.4350957 C74.1829565,14.7599652 73.5217391,15.6354435 73.5217391,16.6677913" id="Fill-13" fill="#FEFEFE"></path>
        <text id="강서구시설관리공단" font-family="AppleSDGothicNeo-Bold, Apple SD Gothic Neo" font-size="5" font-weight="bold" letter-spacing="0.800000012" fill="#2B2C2F">
            <tspan x="30.5" y="44">강서구시설관리공</tspan>
            <tspan x="71.5000001" y="44">단</tspan>
        </text>
        <g transform="translate(23.500000, 39.300000)">
            <path d="M4.86100847,3.66737712 C4.86100847,3.66737712 4.10927119,2.69254661 4.10927119,1.47152966 C4.10927119,1.47152966 3.69151695,2.47008898 4.023,3.69174153 L4.86100847,3.66737712 Z" id="Fill-1" fill="#36348C"></path>
            <path d="M0,3.67048305 L0.907627119,3.67048305 C0.907627119,3.67048305 1.46283898,2.27264407 3.16004237,1.67209322 C3.16004237,1.67209322 1.39004237,1.51654237 0,3.67048305" id="Fill-3" fill="#36348C"></path>
            <path d="M3.38128814,1.69023305 C3.38128814,1.69023305 1.63531356,2.44574153 1.19416949,4.15667373 L2.18772881,4.15667373 C2.18772881,4.15667373 2.25272881,2.68942797 3.38128814,1.69023305" id="Fill-5" fill="#36348C"></path>
            <path d="M4.06427966,1.24906356 C4.06427966,1.24906356 2.76322034,2.25198729 2.6529661,4.11482627 L3.55686441,4.11482627 C3.55686441,4.11482627 3.41504237,2.08889407 3.99491525,1.32906356 C4.01521186,1.30092797 4.03987288,1.27406356 4.06427966,1.24906356" id="Fill-7" fill="#36348C"></path>
            <g id="Group-11" transform="translate(0.042373, 4.497500)">
                <mask id="mask-6" fill="white">
                    <use xlink:href="#path-5"></use>
                </mask>
                <g id="Clip-10"></g>
                <path d="M0.0395,0.762711864 L4.92111017,0.762711864 C4.92111017,0.762711864 4.07250847,0.0134745763 2.21661864,0.0134745763 C2.21661864,0.0134745763 0.525644068,0.175889831 0.0395,0.762711864" id="Fill-9" fill="#21703B" mask="url(#mask-6)"></path>
            </g>
            <g id="Group-14" transform="translate(2.584746, 0.005975)">
                <mask id="mask-8" fill="white">
                    <use xlink:href="#path-7"></use>
                </mask>
                <g id="Clip-13"></g>
                <path d="M1.25643644,0.665673729 C1.25643644,1.01313136 0.976521186,1.29495339 0.630927966,1.29495339 C0.285377119,1.29495339 0.00541949153,1.01313136 0.00541949153,0.665673729 C0.00541949153,0.318258475 0.285377119,0.0363940678 0.630927966,0.0363940678 C0.976521186,0.0363940678 1.25643644,0.318258475 1.25643644,0.665673729" id="Fill-12" fill="#E82E28" mask="url(#mask-8)"></path>
            </g>
        </g>
    </g>
</svg>