<?xml version="1.0" encoding="utf-8"?>
<!-- Generator: Adobe Illustrator 24.1.0, SVG Export Plug-In . SVG Version: 6.00 Build 0)  -->
<svg version="1.1" id="레이어_1" xmlns="http://www.w3.org/2000/svg" xmlns:xlink="http://www.w3.org/1999/xlink" x="0px"
	 y="0px" viewBox="0 0 100 60" style="enable-background:new 0 0 100 60;" xml:space="preserve">
<style type="text/css">
	.st0{fill-rule:evenodd;clip-rule:evenodd;fill:#231F20;}
	.st1{filter:url(#Adobe_OpacityMaskFilter);}
	.st2{fill-rule:evenodd;clip-rule:evenodd;fill:#FFFFFF;}
	.st3{mask:url(#mask-2_1_);fill-rule:evenodd;clip-rule:evenodd;fill:#231F20;}
	.st4{filter:url(#Adobe_OpacityMaskFilter_1_);}
	.st5{mask:url(#mask-2_2_);fill-rule:evenodd;clip-rule:evenodd;fill:#231F20;}
	.st6{filter:url(#Adobe_OpacityMaskFilter_2_);}
	.st7{mask:url(#mask-2_3_);fill-rule:evenodd;clip-rule:evenodd;fill:#231F20;}
	.st8{filter:url(#Adobe_OpacityMaskFilter_3_);}
	.st9{mask:url(#mask-2_4_);fill-rule:evenodd;clip-rule:evenodd;fill:#8FAF3E;}
	.st10{filter:url(#Adobe_OpacityMaskFilter_4_);}
	.st11{mask:url(#mask-2_5_);fill-rule:evenodd;clip-rule:evenodd;fill:#EC1D24;}
	.st12{filter:url(#Adobe_OpacityMaskFilter_5_);}
	.st13{mask:url(#mask-2_6_);fill-rule:evenodd;clip-rule:evenodd;fill:#3676BB;}
</style>
<desc>Created with Sketch.</desc>
<g id="logo_x2F_gjf">
	<g id="Group-32" transform="translate(12.000000, 18.000000)">
		<polygon id="Fill-1" class="st0" points="29.8,12.3 30.8,12.3 30.8,9.1 27.6,9.1 27.6,10.1 29.8,10.1 		"/>
		<polygon id="Fill-2" class="st0" points="31.6,13.1 32.5,13.1 32.5,8.6 31.6,8.6 		"/>
		<polygon id="Fill-3" class="st0" points="55.3,11 57.6,11 57.6,8.3 54.3,8.3 54.3,9.3 56.5,9.3 56.5,10.1 54.3,10.1 54.3,12.9 
			58.1,12.9 58.1,12 55.3,12 		"/>
		<polygon id="Fill-4" class="st0" points="58.8,14 59.7,14 59.7,7.6 58.8,7.6 		"/>
		<polygon id="Fill-5" class="st0" points="35.1,6.6 37.3,6.6 37.3,5.6 34.1,5.6 34.1,9.1 37.3,9.1 37.3,8.1 35.1,8.1 		"/>
		<polygon id="Fill-6" class="st0" points="36.2,9.7 35.3,9.7 35.3,11.3 33.6,11.3 33.6,12.3 38,12.3 38,11.3 36.2,11.3 		"/>
		<polygon id="Fill-7" class="st0" points="70.3,9.4 72.5,9.4 72.5,8.3 69.3,8.3 69.3,12.3 72.5,12.3 72.5,11.3 70.3,11.3 		"/>
		<polygon id="Fill-8" class="st0" points="74.3,7.6 74.3,14 75.2,14 75.2,11.2 76.8,11.2 76.8,10.2 75.2,10.2 75.2,7.6 		"/>
		<polygon id="Fill-9" class="st0" points="72.9,13.3 72,13.3 72,16.6 75.1,16.6 75.1,15.6 72.9,15.6 		"/>
		<polygon id="Fill-10" class="st0" points="66.5,5.8 65.6,5.8 65.6,12.3 66.5,12.3 66.5,9.2 67.5,9.2 67.5,12.3 68.4,12.3 
			68.4,5.8 67.5,5.8 67.5,8.1 66.5,8.1 		"/>
		<polygon id="Fill-11" class="st0" points="63.2,7.5 64.5,7.5 64.5,6.6 60.9,6.6 60.9,7.5 62.2,7.5 62.2,8.7 60.5,10.1 61.1,10.9 
			62.7,9.5 64.3,10.9 64.8,10.1 63.2,8.7 		"/>
		<polygon id="Fill-12" class="st0" points="51.8,7.6 50.9,7.6 50.9,14 51.8,14 51.8,11 53.4,11 53.4,10.1 51.8,10.1 		"/>
		<polygon id="Fill-13" class="st0" points="48.5,9.3 49.7,9.3 49.7,8.3 46.2,8.3 46.2,9.3 47.5,9.3 47.5,10.5 45.8,11.9 46.3,12.7 
			48,11.3 49.6,12.7 50.1,11.9 48.5,10.5 		"/>
		<polygon id="Fill-14" class="st0" points="22.1,11.4 23.1,11.4 23.1,8.2 19.9,8.2 19.9,9.2 22.1,9.2 		"/>
		<polygon id="Fill-15" class="st0" points="25.5,12.3 26.3,12.3 26.3,7.3 25.5,7.3 25.5,8.4 23.9,8.4 23.9,9.4 25.5,9.4 25.5,10.2 
			23.9,10.2 23.9,11.2 25.5,11.2 		"/>
		<g id="Group-31" transform="translate(0.000000, 0.127528)">
			<path id="Fill-16" class="st0" d="M24.8,15.8L24.8,15.8C24.8,15.8,24.8,15.8,24.8,15.8L24.8,15.8L24.8,15.8c0,0-0.1,0-0.1,0
				c-0.1,0-0.1,0-0.2,0c0,0,0,0,0,0h0c-0.4-0.1-0.7-0.4-0.7-0.8c0,0,0-0.1,0-0.1c0-0.4,0.3-0.8,0.7-0.9v0h0c0,0,0,0,0,0
				c0.1,0,0.1,0,0.2,0c0.1,0,0.2,0,0.3,0c0,0,0,0,0,0c0.4,0.1,0.7,0.4,0.8,0.8c0,0,0,0.1,0,0.1C25.6,15.3,25.2,15.7,24.8,15.8
				 M24.7,13c-1.1,0-1.9,0.9-1.9,1.9c0,1,0.9,1.9,1.9,1.9c1.1,0,1.9-0.8,1.9-1.9C26.6,13.8,25.7,13,24.7,13"/>
			<path id="Fill-18" class="st0" d="M25.1,13.9L25.1,13.9C25.1,13.9,25.1,13.9,25.1,13.9C25.1,13.9,25.1,13.9,25.1,13.9"/>
			<path id="Fill-20" class="st0" d="M24.9,15.7L24.9,15.7C24.9,15.7,24.9,15.7,24.9,15.7C24.9,15.7,24.9,15.7,24.9,15.7"/>
			<path id="Fill-22" class="st0" d="M24,14.9C24,14.9,24,14.9,24,14.9C24,14.9,24,14.9,24,14.9"/>
			<g id="Clip-25">
			</g>
			<defs>
				<filter id="Adobe_OpacityMaskFilter" filterUnits="userSpaceOnUse" x="43.9" y="8.5" width="0.9" height="3.7">
					<feColorMatrix  type="matrix" values="1 0 0 0 0  0 1 0 0 0  0 0 1 0 0  0 0 0 1 0"/>
				</filter>
			</defs>
			<mask maskUnits="userSpaceOnUse" x="43.9" y="8.5" width="0.9" height="3.7" id="mask-2_1_">
				<g class="st1">
					<polygon id="path-1_1_" class="st2" points="0,17.8 76.8,17.8 76.8,0 0,0 					"/>
				</g>
			</mask>
			<polygon id="Fill-24" class="st3" points="43.9,12.2 44.8,12.2 44.8,8.5 43.9,8.5 			"/>
			<defs>
				<filter id="Adobe_OpacityMaskFilter_1_" filterUnits="userSpaceOnUse" x="42" y="13.1" width="2.8" height="4.6">
					<feColorMatrix  type="matrix" values="1 0 0 0 0  0 1 0 0 0  0 0 1 0 0  0 0 0 1 0"/>
				</filter>
			</defs>
			<mask maskUnits="userSpaceOnUse" x="42" y="13.1" width="2.8" height="4.6" id="mask-2_2_">
				<g class="st4">
					<polygon id="path-1_2_" class="st2" points="0,17.8 76.8,17.8 76.8,0 0,0 					"/>
				</g>
			</mask>
			<polygon id="Fill-26" class="st5" points="42.9,15.8 44.8,15.8 44.8,13.1 42,13.1 42,14.1 43.8,14.1 43.8,14.9 42,14.9 42,17.7 
				44.8,17.7 44.8,16.8 42.9,16.8 			"/>
			<defs>
				<filter id="Adobe_OpacityMaskFilter_2_" filterUnits="userSpaceOnUse" x="38.8" y="8.4" width="3.9" height="3.8">
					<feColorMatrix  type="matrix" values="1 0 0 0 0  0 1 0 0 0  0 0 1 0 0  0 0 0 1 0"/>
				</filter>
			</defs>
			<mask maskUnits="userSpaceOnUse" x="38.8" y="8.4" width="3.9" height="3.8" id="mask-2_3_">
				<g class="st6">
					<polygon id="path-1_3_" class="st2" points="0,17.8 76.8,17.8 76.8,0 0,0 					"/>
				</g>
			</mask>
			<path id="Fill-27" class="st7" d="M40.8,11.2c-0.5,0-0.9-0.4-0.9-0.9c0-0.5,0.4-0.9,0.9-0.9c0.5,0,0.9,0.4,0.9,0.9
				C41.7,10.8,41.3,11.2,40.8,11.2 M40.8,8.4c-1.1,0-1.9,0.8-1.9,1.9c0,1,0.9,1.9,1.9,1.9c1.1,0,1.9-0.9,1.9-1.9
				C42.7,9.2,41.8,8.4,40.8,8.4"/>
			<defs>
				<filter id="Adobe_OpacityMaskFilter_3_" filterUnits="userSpaceOnUse" x="0" y="0" width="11" height="13.6">
					<feColorMatrix  type="matrix" values="1 0 0 0 0  0 1 0 0 0  0 0 1 0 0  0 0 0 1 0"/>
				</filter>
			</defs>
			<mask maskUnits="userSpaceOnUse" x="0" y="0" width="11" height="13.6" id="mask-2_4_">
				<g class="st8">
					<polygon id="path-1_4_" class="st2" points="0,17.8 76.8,17.8 76.8,0 0,0 					"/>
				</g>
			</mask>
			<polygon id="Fill-28" class="st9" points="7,7.9 9.7,7.7 9.7,10.3 2.2,11.1 2.2,2.1 11,2.5 11,0.9 0,0 0,13.6 11,11.7 11,6.4 
				7,6.5 			"/>
			<defs>
				<filter id="Adobe_OpacityMaskFilter_4_" filterUnits="userSpaceOnUse" x="7" y="3.1" width="10.3" height="2.2">
					<feColorMatrix  type="matrix" values="1 0 0 0 0  0 1 0 0 0  0 0 1 0 0  0 0 0 1 0"/>
				</filter>
			</defs>
			<mask maskUnits="userSpaceOnUse" x="7" y="3.1" width="10.3" height="2.2" id="mask-2_5_">
				<g class="st10">
					<polygon id="path-1_5_" class="st2" points="0,17.8 76.8,17.8 76.8,0 0,0 					"/>
				</g>
			</mask>
			<polygon id="Fill-29" class="st11" points="7,4 7,5.4 14.8,5.1 17.2,3.1 			"/>
			<defs>
				<filter id="Adobe_OpacityMaskFilter_5_" filterUnits="userSpaceOnUse" x="7" y="3.1" width="10.3" height="14.7">
					<feColorMatrix  type="matrix" values="1 0 0 0 0  0 1 0 0 0  0 0 1 0 0  0 0 0 1 0"/>
				</filter>
			</defs>
			<mask maskUnits="userSpaceOnUse" x="7" y="3.1" width="10.3" height="14.7" id="mask-2_6_">
				<g class="st12">
					<polygon id="path-1_6_" class="st2" points="0,17.8 76.8,17.8 76.8,0 0,0 					"/>
				</g>
			</mask>
			<polygon id="Fill-30" class="st13" points="14.8,5.1 14.8,15.5 8.5,15 8.5,13.2 7,13.2 7,16.6 17.2,17.8 17.2,3.1 			"/>
		</g>
	</g>
</g>
</svg>
