<?xml version="1.0" encoding="UTF-8"?>
<svg width="100px" height="60px" viewBox="0 0 100 60" version="1.1" xmlns="http://www.w3.org/2000/svg" xmlns:xlink="http://www.w3.org/1999/xlink">
    <!-- Generator: Sketch 55.2 (78181) - https://sketchapp.com -->
    <title>logo/goodoc</title>
    <desc>Created with Sketch.</desc>
    <g id="logo/goodoc" stroke="none" stroke-width="1" fill="none" fill-rule="evenodd">
        <g transform="translate(23.000000, 22.000000)" fill="#33BCE4" id="Combined-Shape">
            <path d="M6.19781244,8.43174301 C6.226354,8.21901762 6.16174253,8.01483109 6.11450418,7.8179399 C5.93134181,7.0552456 5.50570026,6.48148394 4.71431309,6.28832332 C3.89636985,6.08869637 3.17637795,6.29072746 2.65659061,6.98295544 C2.01072404,7.84289326 1.96820125,9.53922487 3.29807255,10.3621886 C4.16432961,10.8982301 5.23211492,10.6504373 5.7979824,9.80086218 C6.07520782,9.38469637 6.16488624,8.9166342 6.19781244,8.43174301 M6.19698515,11.9588725 C5.96410256,12.0680539 5.79500415,12.1549347 5.62028016,12.2280539 C4.29198071,12.783743 3.02597633,12.5750798 1.83839919,11.8473699 C0.642631866,11.1145202 0.0916556399,9.97876891 0.00934012252,8.60368083 C-0.0595732704,7.45284145 0.249502883,6.40911088 1.03493356,5.55364974 C1.98375433,4.52028187 3.17298605,4.11605389 4.57160528,4.26179482 C5.61788101,4.37072746 6.51102505,4.7780228 7.22729415,5.53516269 C7.94099864,6.28964974 8.36291737,7.18946321 8.36870841,8.2500228 C8.37557493,9.4929658 8.38616427,10.7362404 8.36821204,11.9789347 C8.34182144,13.8061679 7.19329246,15.4633699 5.07890051,15.8690073 C3.93210885,16.089028 2.77737519,16.0435979 1.65995239,15.6431834 C1.46661433,15.5737948 1.27302809,15.4953699 1.09557403,15.3932352 C0.630636138,15.1255461 0.488838352,14.6728207 0.701783218,14.1918259 C0.902566897,13.7385202 1.33548861,13.5355772 1.83045719,13.7080953 C2.56749131,13.9648415 3.32173309,14.0929244 4.09814628,14.0594321 C4.74790113,14.0314114 5.34934215,13.870085 5.77233636,13.3123233 C6.05932382,12.9341264 6.14147388,12.4960746 6.19698515,11.9588725 Z M34.3889413,4.71314404 C34.4593438,4.51757927 34.4318777,4.3644601 34.4322914,4.21449119 C34.4352696,3.19248083 34.4251766,2.17030466 34.4379169,1.1483772 C34.4447007,0.601641451 34.8477572,0.139299482 35.3407403,0.0629471503 C35.9181071,-0.0265865285 36.4231687,0.280729534 36.6064965,0.823817617 C36.6568785,0.973040415 36.6507566,1.12300933 36.6508393,1.27389016 C36.6519148,3.66327876 36.655224,6.05266736 36.6504257,8.44205596 C36.6461238,10.5731233 35.0623567,12.3037762 33.0495561,12.5844808 C31.9385035,12.7395067 30.9105936,12.5693927 29.9922172,11.9045223 C28.9748966,11.167942 28.4268159,10.1587813 28.2932911,8.91136166 C28.1706037,7.76392124 28.428636,6.71704041 29.1281938,5.80114404 C29.7915989,4.93266736 30.6633989,4.41005596 31.7656822,4.27078135 C32.6797568,4.15538238 33.5411328,4.29258446 34.3889413,4.71314404 Z M34.4303059,8.40964145 C34.4475962,8.16665699 34.4138427,7.90734093 34.3341746,7.65631503 C34.0606719,6.79364145 33.4402032,6.22816995 32.4847641,6.22087461 C31.6061804,6.21424249 30.9185356,6.63455337 30.6067294,7.60441865 C30.4560796,8.07322694 30.4372173,8.5508228 30.5410424,9.02908187 C30.7050944,9.78448083 31.1213048,10.3497865 31.8800967,10.5649161 C32.7071401,10.7993617 33.4361495,10.5908642 33.9823274,9.90087461 C34.3188697,9.47567254 34.4505745,8.97279171 34.4303059,8.40964145 Z M18.8584933,8.41667979 C18.7816379,6.4382342 20.3919611,4.24805803 23.0217557,4.23707529 C25.533744,4.22666943 27.2502914,6.27740518 27.2293609,8.47189223 C27.2090096,10.6023793 25.529773,12.6332187 23.0291186,12.6318929 C20.5359098,12.6304 18.775185,10.5477472 18.8584933,8.41667979 Z M25.0023746,8.42695959 C25.0367899,7.95682487 24.9107934,7.52905285 24.6741053,7.12731192 C23.9870396,5.96130155 22.2867898,5.98335337 21.5375945,6.91176788 C20.9940639,7.5852601 20.9718925,9.00975751 21.3446701,9.65895959 C21.7234869,10.3186902 22.2972964,10.6449078 23.034496,10.6486698 C23.7956043,10.6525347 24.373302,10.2948974 24.7411986,9.61833782 C24.9432232,9.24693886 25.0329844,8.8489285 25.0023746,8.42695959 Z M9.43301082,8.41149845 C9.39569997,6.34542591 11.0448231,4.24262798 13.6076071,4.23689584 C16.1729557,4.23110466 17.8061949,6.34310466 17.8099242,8.43761244 C17.813806,10.5902342 16.0742599,12.6409699 13.602147,12.6337765 C11.1464145,12.6265451 9.36500745,10.5824415 9.43301082,8.41149845 Z M11.6633063,8.41506321 C11.6326965,8.78853472 11.7024372,9.15122902 11.8463032,9.49958135 C12.3902475,10.8163896 14.238417,11.0636021 15.1128642,9.93755026 C15.7136434,9.16383005 15.7675828,7.93257617 15.2382817,7.10588187 C14.8482137,6.49655544 14.2762242,6.20192332 13.5712063,6.21643109 C12.8089398,6.23218238 12.2362058,6.60698031 11.8863442,7.28967461 C11.7081455,7.63744663 11.634682,8.01622383 11.6633063,8.41506321 Z M46.0772153,8.45478964 C46.0482601,10.7292767 44.234175,12.6572352 41.8437158,12.6310383 C39.4997504,12.6054218 37.6807843,10.7802611 37.6787972,8.43282073 C37.6768133,6.07385699 39.5316839,4.22581554 41.8854113,4.23539476 C44.2912581,4.24521451 46.0608349,6.15592953 46.0772153,8.45478964 Z M43.8594946,8.47642694 C43.8812524,8.12351503 43.812339,7.7862715 43.6837778,7.46477927 C43.3640296,6.66486218 42.7525784,6.23385699 41.9074173,6.22100725 C41.1655848,6.20973264 40.4694189,6.52981554 40.1158345,7.37209534 C39.8495293,8.00612642 39.8341417,8.64761865 40.04022,9.30519378 C40.4440211,10.5929865 41.9158556,10.9968 42.9205186,10.3462715 C43.5945958,9.90971192 43.8363304,9.24467565 43.8594946,8.47642694 Z M47.0910198,8.45359585 C47.1201405,6.22553368 48.7977224,4.45790674 50.8356726,4.27287047 C51.8930341,4.17687047 52.8907478,4.32136788 53.7790108,4.95092228 C54.0213245,5.1226943 54.2176408,5.33691192 54.2724075,5.63809326 C54.3890557,6.27908808 53.8208718,6.84306736 53.1740952,6.73604145 C52.9274795,6.69525389 52.7036144,6.59320207 52.4833066,6.47581347 C52.0208506,6.22926425 51.5226556,6.12945078 51.0059293,6.21152332 C50.1703647,6.3442487 49.6594294,6.86760622 49.418853,7.65425907 C49.2632394,8.16294301 49.2562075,8.68936788 49.4129792,9.20443523 C49.8196758,10.5407254 51.0824537,10.977285 52.2452948,10.4836891 C52.4836376,10.3825492 52.6984852,10.2246218 52.9213576,10.0881658 C53.1938674,9.92111917 53.4901206,9.86806218 53.7938193,9.94565803 C54.2980536,10.0746528 54.5721353,10.6662383 54.3848365,11.1742591 C54.2695947,11.486715 54.0543335,11.72 53.7838091,11.8916891 C51.1679957,13.5512953 47.8988701,12.2979896 47.1897157,9.31684974 C47.1206368,9.0264456 47.063471,8.72203109 47.0910198,8.45359585 Z"></path>
        </g>
    </g>
</svg>