<?xml version="1.0" encoding="utf-8"?>
<!-- Generator: Adobe Illustrator 26.3.1, SVG Export Plug-In . SVG Version: 6.00 Build 0)  -->
<svg version="1.1" id="_이어_1" xmlns="http://www.w3.org/2000/svg" xmlns:xlink="http://www.w3.org/1999/xlink" x="0px" y="0px"
	 viewBox="0 0 43.6 23.6" style="enable-background:new 0 0 43.6 23.6;" xml:space="preserve">
<style type="text/css">
	.st0{fill:#DB2929;}
	.st1{fill:#FFFFFF;}
</style>
<path class="st0" d="M13.4,14.1c-0.2,0-0.3,0.1-0.4,0.2c-0.1,0.1-0.2,0.3-0.2,0.4s0.1,0.3,0.2,0.4c0.1,0.1,0.2,0.2,0.4,0.2
	c0.2,0,0.3-0.1,0.4-0.2s0.2-0.3,0.2-0.4s-0.1-0.3-0.2-0.4S13.5,14.1,13.4,14.1"/>
<path class="st0" d="M14.9,5.7h-3.7c-0.3,0-0.5,0.2-0.5,0.5v11.1c0,0.3,0.2,0.5,0.5,0.5h3.7c0.3,0,0.5-0.2,0.5-0.5V6.2
	C15.4,6,15.2,5.7,14.9,5.7"/>
<polygon class="st0" points="11.8,11.8 12.8,11.8 12.8,10.8 13.6,10.8 13.6,9 12,9 12,8 14.6,8 14.6,11.1 13.8,11.1 13.8,11.8 
	14.8,11.8 14.8,12.7 11.8,12.7 "/>
<path class="st0" d="M14.7,15.2c-0.1,0.2-0.2,0.3-0.3,0.5S14.1,16,13.9,16c-0.2,0.1-0.4,0.1-0.6,0.1s-0.4,0-0.6-0.1
	c-0.2-0.1-0.3-0.2-0.5-0.3s-0.2-0.3-0.3-0.5c-0.1-0.2-0.1-0.4-0.1-0.6c0-0.2,0-0.4,0.1-0.6c0.1-0.2,0.2-0.3,0.3-0.5
	c0.1-0.1,0.3-0.2,0.5-0.3c0.2-0.1,0.4-0.1,0.6-0.1s0.4,0,0.6,0.1c0.2,0.1,0.3,0.2,0.5,0.3c0.1,0.1,0.2,0.3,0.3,0.5
	c0.1,0.2,0.1,0.4,0.1,0.6S14.8,15.1,14.7,15.2"/>
<path class="st0" d="M17.1,8.2c0.2-0.1,0.4-0.1,0.6-0.1c0.3,0,0.5,0.1,0.7,0.2c0.2,0.1,0.4,0.3,0.5,0.5V8.6h1v-1h1v5.6
	c0.1,0,0.2,0.1,0.3,0.1V6.2c0-0.3-0.2-0.5-0.5-0.5H17c-0.3,0-0.5,0.2-0.5,0.5v2.4c0,0,0.1-0.1,0.1-0.1C16.7,8.4,16.9,8.3,17.1,8.2"
	/>
<path class="st0" d="M20.4,14.1c-0.2,0-0.3,0.1-0.4,0.2c-0.1,0.1-0.2,0.3-0.2,0.4s0.1,0.3,0.2,0.4c0.1,0.1,0.2,0.2,0.4,0.2
	c0.2,0,0.3-0.1,0.4-0.2C21,15,21,14.8,21,14.7s-0.1-0.3-0.2-0.4C20.7,14.1,20.6,14.1,20.4,14.1"/>
<path class="st0" d="M19.9,9.5h-0.8l0,0.1c0,0.1,0,0.1,0,0.2c0,0.1,0,0.1,0,0.2h0.8C19.9,9.9,19.9,9.5,19.9,9.5z"/>
<path class="st0" d="M17.7,9c-0.2,0-0.3,0.1-0.4,0.2s-0.2,0.3-0.2,0.4c0,0.2,0.1,0.3,0.2,0.4c0.1,0.1,0.3,0.2,0.4,0.2
	c0.2,0,0.3-0.1,0.4-0.2c0.1-0.1,0.2-0.3,0.2-0.4s-0.1-0.3-0.2-0.4S17.8,9,17.7,9"/>
<path class="st0" d="M20.4,16.2c-0.2,0-0.4,0-0.6-0.1c-0.2-0.1-0.3-0.2-0.5-0.3s-0.2-0.3-0.3-0.5c-0.1-0.2-0.1-0.4-0.1-0.6
	c0-0.3,0.1-0.6,0.3-0.9c0.2-0.3,0.4-0.4,0.7-0.5v-2.4h-1v-0.4c-0.1,0.2-0.3,0.4-0.5,0.5c-0.2,0.1-0.5,0.2-0.7,0.2
	c-0.2,0-0.4,0-0.6-0.1c-0.2-0.1-0.3-0.2-0.5-0.3c0,0-0.1-0.1-0.1-0.1v6.8c0,0.3,0.2,0.5,0.5,0.5h3.7c0.3,0,0.5-0.2,0.5-0.5V16
	c0,0-0.1,0.1-0.1,0.1C20.9,16.1,20.7,16.2,20.4,16.2"/>
<polygon class="st0" points="24.5,10.8 24.9,10.8 24.9,11.8 25.2,11.8 25.2,10.8 25.5,10.8 25,9.7 "/>
<path class="st0" d="M26.4,5.7h-3.7c-0.3,0-0.5,0.2-0.5,0.5v11.1c0,0.3,0.2,0.5,0.5,0.5h3.7c0.3,0,0.5-0.2,0.5-0.5V6.2
	C26.9,6,26.7,5.7,26.4,5.7 M26.6,12.7h-3.3v-0.9H24v-0.6l-0.6-0.3L25,7.8l1.6,3.1L26,11.2v0.6h0.6C26.6,11.8,26.6,12.7,26.6,12.7z"
	/>
<rect x="29.1" y="9" class="st0" width="0.4" height="1.2"/>
<path class="st0" d="M31.9,16.2c-0.2,0-0.4,0-0.6-0.1c-0.2-0.1-0.3-0.2-0.5-0.3c-0.1-0.1-0.2-0.3-0.3-0.5c-0.1-0.2-0.1-0.4-0.1-0.6
	c0-0.3,0.1-0.6,0.3-0.9c0.2-0.3,0.4-0.4,0.7-0.5V7.6h1v5.6c0.1,0,0.2,0.1,0.3,0.1V6.2c0-0.3-0.2-0.5-0.5-0.5h-3.7
	C28.2,5.7,28,6,28,6.2V8h2.8V9h-0.4v1.2h0.5v0.9H28v6.2c0,0.3,0.2,0.5,0.5,0.5h3.7c0.3,0,0.5-0.2,0.5-0.5V16c0,0-0.1,0.1-0.1,0.1
	C32.3,16.1,32.1,16.2,31.9,16.2"/>
<path class="st0" d="M31.9,14.1c-0.2,0-0.3,0.1-0.4,0.2c-0.1,0.1-0.2,0.3-0.2,0.4s0.1,0.3,0.2,0.4c0.1,0.1,0.2,0.2,0.4,0.2
	s0.3-0.1,0.4-0.2c0.1-0.1,0.2-0.3,0.2-0.4s-0.1-0.3-0.2-0.4C32.2,14.1,32.1,14.1,31.9,14.1"/>
<rect x="28" y="9" class="st0" width="0.3" height="1.2"/>
<polygon class="st1" points="14.8,11.8 13.8,11.8 13.8,11.1 14.6,11.1 14.6,8 12,8 12,9 13.6,9 13.6,10.8 12.8,10.8 12.8,11.8 
	11.8,11.8 11.8,12.7 14.8,12.7 "/>
<path class="st1" d="M14.4,13.6c-0.1-0.1-0.3-0.2-0.5-0.3c-0.2-0.1-0.4-0.1-0.6-0.1s-0.4,0-0.6,0.1c-0.2,0.1-0.3,0.2-0.5,0.3
	s-0.2,0.3-0.3,0.5c-0.1,0.2-0.1,0.4-0.1,0.6s0,0.4,0.1,0.6c0.1,0.2,0.2,0.3,0.3,0.5c0.1,0.1,0.3,0.2,0.5,0.3
	c0.2,0.1,0.4,0.1,0.6,0.1c0.2,0,0.4,0,0.6-0.1c0.2-0.1,0.3-0.2,0.5-0.3c0.1-0.1,0.2-0.3,0.3-0.5c0.1-0.2,0.1-0.4,0.1-0.6
	c0-0.2,0-0.4-0.1-0.6C14.7,13.9,14.6,13.7,14.4,13.6 M13.8,15.1c-0.1,0.1-0.3,0.2-0.4,0.2s-0.3-0.1-0.4-0.2
	c-0.1-0.1-0.2-0.3-0.2-0.4s0.1-0.3,0.2-0.4s0.2-0.2,0.4-0.2s0.3,0.1,0.4,0.2s0.2,0.3,0.2,0.4S13.9,15,13.8,15.1"/>
<path class="st1" d="M20.9,13.2V7.6h-1v1h-1v0.2c-0.1-0.2-0.3-0.4-0.5-0.5c-0.2-0.1-0.5-0.2-0.7-0.2c-0.2,0-0.4,0-0.6,0.1
	c-0.2,0.1-0.3,0.2-0.5,0.3c0,0-0.1,0.1-0.1,0.1v2c0,0,0.1,0.1,0.1,0.1c0.1,0.1,0.3,0.2,0.5,0.3c0.2,0.1,0.4,0.1,0.6,0.1
	c0.3,0,0.5-0.1,0.7-0.2c0.2-0.1,0.4-0.3,0.5-0.5v0.4h1v2.4c-0.3,0.1-0.5,0.3-0.7,0.5s-0.3,0.5-0.3,0.9c0,0.2,0,0.4,0.1,0.6
	c0.1,0.2,0.2,0.3,0.3,0.5c0.1,0.1,0.3,0.2,0.5,0.3c0.2,0.1,0.4,0.1,0.6,0.1c0.2,0,0.4,0,0.6-0.1c0.1,0,0.1,0,0.1-0.1v-2.6
	C21.1,13.3,21,13.3,20.9,13.2 M18.1,10c-0.1,0.1-0.3,0.2-0.4,0.2c-0.2,0-0.3-0.1-0.4-0.2c-0.1-0.1-0.2-0.3-0.2-0.4s0.1-0.3,0.2-0.4
	C17.4,9,17.5,9,17.7,9c0.2,0,0.3,0.1,0.4,0.2c0.1,0.1,0.2,0.3,0.2,0.4S18.2,9.9,18.1,10 M19.1,9.9c0-0.1,0-0.1,0-0.2
	c0-0.1,0-0.1,0-0.2l0-0.1h0.8v0.4H19.1z M20.8,15.1c-0.1,0.1-0.3,0.2-0.4,0.2s-0.3-0.1-0.4-0.2c-0.1-0.1-0.2-0.3-0.2-0.4
	s0.1-0.3,0.2-0.4c0.1-0.1,0.2-0.2,0.4-0.2s0.3,0.1,0.4,0.2s0.2,0.3,0.2,0.4S20.9,15,20.8,15.1"/>
<path class="st1" d="M26,11.2l0.6-0.3L25,7.8l-1.6,3.1l0.6,0.3v0.6h-0.7v0.9h3.3v-0.9H26C26,11.8,26,11.2,26,11.2z M25.2,10.8v1
	h-0.3v-1h-0.4L25,9.7l0.5,1.1H25.2L25.2,10.8z"/>
<path class="st1" d="M30.8,10.2h-0.5V9h0.4V8H28V9h0.3v1.2H28v0.9h2.8V10.2z M29.5,10.2h-0.4V9h0.4V10.2z"/>
<path class="st1" d="M32.4,13.2V7.6h-1v5.6c-0.3,0.1-0.5,0.3-0.7,0.5c-0.2,0.3-0.3,0.5-0.3,0.9c0,0.2,0,0.4,0.1,0.6
	c0.1,0.2,0.2,0.3,0.3,0.5c0.1,0.1,0.3,0.2,0.5,0.3c0.2,0.1,0.4,0.1,0.6,0.1c0.2,0,0.4,0,0.6-0.1c0.1,0,0.1,0,0.1-0.1v-2.6
	C32.6,13.3,32.5,13.3,32.4,13.2 M32.3,15.1c-0.1,0.1-0.3,0.2-0.4,0.2c-0.2,0-0.3-0.1-0.4-0.2c-0.1-0.1-0.2-0.3-0.2-0.4
	s0.1-0.3,0.2-0.4s0.2-0.2,0.4-0.2c0.2,0,0.3,0.1,0.4,0.2c0.1,0.1,0.2,0.3,0.2,0.4S32.4,15,32.3,15.1"/>
</svg>
