<?xml version="1.0" encoding="UTF-8"?>
<svg width="100px" height="60px" viewBox="0 0 100 60" version="1.1" xmlns="http://www.w3.org/2000/svg" xmlns:xlink="http://www.w3.org/1999/xlink">
    <!-- Generator: Sketch 55.2 (78181) - https://sketchapp.com -->
    <title>logo/gsshop</title>
    <desc>Created with Sketch.</desc>
    <g id="logo/gsshop" stroke="none" stroke-width="1" fill="none" fill-rule="evenodd">
        <g transform="translate(20.000000, 25.000000)" id="Combined-Shape">
            <path d="M5.16516863,10.8808959 C1.83820144,10.8808959 5.89400116e-05,8.6922568 5.89400116e-05,5.45664663 C5.89400116e-05,2.20571206 1.99046313,0.0023379538 5.22626977,0.0023379538 C6.51803836,0.0023379538 7.59644411,0.306664881 8.43182054,0.776809707 L8.08250274,3.04128495 C7.29251011,2.53931252 6.36597313,2.14480738 5.28697798,2.14480738 C3.47909136,2.14480738 2.59813465,3.48176331 2.59813465,5.44171516 C2.59813465,7.41679495 3.5095437,8.79893823 5.31762679,8.79893823 C5.89504244,8.79893823 6.30487199,8.6922568 6.73100827,8.46474836 L6.73100827,6.59576059 L4.90779724,6.59576059 L4.60386325,4.66665401 L8.99450118,4.66665401 L8.99450118,9.77144842 C7.90057457,10.4858014 6.60900245,10.8808959 5.16516863,10.8808959 Z M13.9000587,10.8045489 C12.4860878,10.8045489 11.3013936,10.5006149 10.2383123,10.0145563 L10.6180824,7.79625075 C11.6968811,8.37386286 12.8974891,8.76836801 13.9454425,8.76836801 C14.6896584,8.76836801 15.2065623,8.45009194 15.2065623,7.82709602 C15.2065623,7.23435597 14.9024318,6.96067785 13.4287351,6.3985866 C11.3322389,5.59346605 10.4210263,4.90936898 10.4210263,3.17771143 C10.4210263,1.15724784 12.0008151,0.0782526888 14.0059543,0.0782526888 C15.3737555,0.0782526888 16.2545157,0.336017006 17.1665142,0.776888294 L16.7712231,2.96493799 C15.8293618,2.41817115 14.8417236,2.11443362 14.0366031,2.11443362 C13.2466104,2.11443362 12.8668403,2.44842702 12.8668403,2.93448565 C12.8668403,3.46651749 13.1556464,3.72447828 14.4615606,4.22605778 C16.7407708,5.06202361 17.6527692,5.85181976 17.6527692,7.52355496 C17.6527692,9.80237228 15.981427,10.8045489 13.9000587,10.8045489 Z M24.8723706,10.804156 C23.459382,10.804156 22.2748843,10.5004185 21.21141,10.0145563 L21.5905907,7.79585781 C22.6699788,8.37386286 23.8699974,8.76836801 24.9177544,8.76836801 C25.6625597,8.76836801 26.17966,8.45009194 26.17966,7.82670309 C26.17966,7.23435597 25.8755296,6.96048138 24.4018328,6.3985866 C22.3047472,5.59346605 21.3933381,4.90936898 21.3933381,3.17771143 C21.3933381,1.15724784 22.9735199,0.0782526888 24.9792485,0.0782526888 C26.3462638,0.0782526888 27.227417,0.336017006 28.1390225,0.776888294 L27.743535,2.96493799 C26.8018701,2.41777822 25.8150178,2.11404069 25.0089149,2.11404069 C24.2191188,2.11404069 23.8393486,2.44842702 23.8393486,2.93448565 C23.8393486,3.46573162 24.1279582,3.72447828 25.4348547,4.22605778 C27.7138685,5.06182714 28.6252776,5.85142683 28.6252776,7.52276909 C28.6252776,9.80197934 26.9547212,10.804156 24.8723706,10.804156 Z M36.1226828,10.6832897 L36.1226828,6.39835084 L32.4907993,6.39835084 L32.4907993,10.6832897 L29.8927236,10.6832897 L29.8927236,0.199629819 L32.4907993,0.199629819 L32.4907993,4.11953353 L36.1226828,4.11953353 L36.1226828,0.199629819 L38.7207585,0.199629819 L38.7207585,10.6832897 L36.1226828,10.6832897 Z M55.1946097,7.2035107 L54.5262299,7.2035107 L54.5262299,10.683329 L51.9279578,10.683329 L51.9279578,0.199472646 L55.3010946,0.199472646 C57.8531971,0.199472646 59.4188403,1.339176 59.4188403,3.61818979 C59.4188403,5.98875706 57.7321736,7.2035107 55.1946097,7.2035107 Z M55.1496188,2.15981743 L54.4955811,2.15981743 L54.4955811,5.24375531 L55.1034491,5.24375531 C56.2586733,5.24375531 56.8962078,4.74237228 56.8962078,3.66337713 C56.8962078,2.66120047 56.3032713,2.15981743 55.1496188,2.15981743 Z" fill="#58563A"></path>
            <path d="M43.1824388,0.644587614 C42.4392053,1.53634999 42.2676898,3.21221099 42.2472573,5.4409293 C42.2262354,7.66945114 42.4392053,9.34511567 43.1824388,10.237271 C43.3682963,10.4600642 43.5791051,10.6113436 43.7140777,10.6698907 C43.7618191,10.6907161 43.8079888,10.7028971 43.83962,10.7058441 L43.83962,10.8816818 C43.8111323,10.8793242 43.7574969,10.8700902 43.7227223,10.862428 C42.5417609,10.5916969 39.9933913,9.46437096 39.9933913,5.4409293 C39.9933913,1.41748763 42.5417609,0.289965211 43.7227223,0.0190376238 L43.7227223,0.0188411571 C43.7574969,0.011571889 43.8111323,0.0023379538 43.83962,-1.96466705e-05 L43.83962,0.175228655 C43.8079888,0.178765055 43.7618191,0.190356591 43.7140777,0.211378528 C43.5791051,0.270122073 43.3682963,0.421597903 43.1824388,0.644587614 Z M47.3843901,0.644587614 C47.1989256,0.421597903 46.9877239,0.270122073 46.8525548,0.211378528 C46.8044204,0.190356591 46.7590366,0.178765055 46.7270125,0.175228655 L46.7270125,-1.96466705e-05 C46.7555002,0.0023379538 46.8091356,0.011571889 46.8439102,0.0188411571 L46.8439102,0.0190376238 C48.0248716,0.289965211 50.5732412,1.41748763 50.5732412,5.4409293 C50.5732412,9.46437096 48.0248716,10.5916969 46.8439102,10.862428 C46.8091356,10.8700902 46.7555002,10.8793242 46.7270125,10.8816818 L46.7270125,10.7058441 C46.7590366,10.7028971 46.8044204,10.6907161 46.8525548,10.6698907 C46.9877239,10.6113436 47.1989256,10.4600642 47.3843901,10.237271 C48.1274272,9.34511567 48.3405936,7.66945114 48.3197681,5.4409293 C48.2991391,3.21221099 48.1274272,1.53634999 47.3843901,0.644587614 Z" fill="#CADA2A"></path>
        </g>
    </g>
</svg>