<?xml version="1.0" encoding="UTF-8"?>
<svg width="100px" height="60px" viewBox="0 0 100 60" version="1.1" xmlns="http://www.w3.org/2000/svg" xmlns:xlink="http://www.w3.org/1999/xlink">
    <!-- Generator: Sketch 55.2 (78181) - https://sketchapp.com -->
    <title>logo/hancom_mds</title>
    <desc>Created with Sketch.</desc>
    <defs>
        <polygon id="path-1" points="0.0453389831 0.00043220339 9.00432203 0.00043220339 9.00432203 9.45916102 0.0453389831 9.45916102"></polygon>
        <polygon id="path-3" points="0 19.9152542 55.8687288 19.9152542 55.8687288 0.000423728814 0 0.000423728814"></polygon>
    </defs>
    <g id="logo/hancom_mds" stroke="none" stroke-width="1" fill="none" fill-rule="evenodd">
        <g transform="translate(22.000000, 20.000000)">
            <path d="M23.6009661,1.71612712 L23.5975763,4.71138136 L23.8219831,5.09434746 L25.7339322,6.88731356 L25.9620678,7.00333051 L25.9620678,1.71612712 L23.6009661,1.71612712 Z M19.8395254,2.98875424 L19.8395254,8.34570339 L22.4088475,8.34570339 L22.4111356,5.60773729 L22.2638475,5.27502542 L19.8395254,2.98875424 Z M23.5996102,6.53688983 L23.5996102,9.54460169 L18.6449492,9.54460169 L18.6449492,0.226127119 L22.3852881,3.74214407 L22.3852881,0.534262712 L27.1505424,0.534262712 L27.1505424,9.86019492 L23.5996102,6.53688983 Z" id="Fill-1" fill="#05A5E4"></path>
            <g id="Group-20" transform="translate(0.000000, 0.084322)">
                <g id="Group-4" transform="translate(46.864407, 0.000000)">
                    <mask id="mask-2" fill="white">
                        <use xlink:href="#path-1"></use>
                    </mask>
                    <g id="Clip-3"></g>
                    <path d="M1.24372881,3.01644915 L1.24372881,7.75263559 C1.24372881,7.75263559 2.84372881,6.15873729 3.62957627,5.37594068 C2.84830508,4.60322881 1.24372881,3.01644915 1.24372881,3.01644915 L1.24372881,3.01644915 Z M7.84076271,3.10187288 L2.69923729,8.27738136 L7.84076271,8.27738136 L7.84076271,3.10187288 Z M9.00432203,9.45916102 L0.0453389831,9.45916102 L0.0453389831,0.132466102 L4.45508475,4.55966949 L9.00432203,0.00043220339 L9.00432203,9.45916102 Z" id="Fill-2" fill="#EC1E27" mask="url(#mask-2)"></path>
                </g>
                <mask id="mask-4" fill="white">
                    <use xlink:href="#path-3"></use>
                </mask>
                <g id="Clip-6"></g>
                <path d="M1.20516949,6.01059322 L6.90008475,6.01059322 L6.90008475,3.90440678 L1.20516949,3.90440678 L1.20516949,6.01059322 Z M0.016440678,0.471186441 L0.302542373,0.422288136 L1.17533898,0.420762712 L1.17533898,2.63813559 L6.89872881,2.63813559 L6.89872881,0.459491525 L8.0820339,0.432118644 L8.0820339,9.45822034 L6.92567797,9.45822034 L6.92567797,7.26355932 L1.19576271,7.26355932 L1.19576271,9.45822034 L0.016440678,9.45822034 L0.016440678,0.471186441 Z" id="Fill-5" fill="#0F4EA3" mask="url(#mask-4)"></path>
                <path d="M31.8882119,8.32109322 L31.8882119,1.60075424 C30.3619407,1.69982203 29.0192288,3.30736441 29.030839,4.98558475 C29.0424492,6.65168644 30.3981271,8.25007627 31.8882119,8.32109322 M36.5554153,2.83287288 C36.2068559,3.01185593 35.8837203,3.17778814 35.5445678,3.35185593 C34.9829576,2.40016102 34.2021949,1.79270339 33.0934661,1.56982203 L33.0934661,8.36405932 C34.2004153,8.1425339 34.9754153,7.53592373 35.5400763,6.57380508 C35.8830424,6.74914407 36.2149068,6.91880508 36.5459237,7.08812712 C35.6871949,8.90304237 33.5177881,9.90685593 31.4713475,9.45880508 C29.4127881,9.00804237 27.9285508,7.16821186 27.8997373,5.03109322 C27.8705847,2.86897458 29.2987203,1.00083898 31.3767712,0.483042373 C33.4172797,-0.0254322034 35.5986356,0.951262712 36.5554153,2.83287288" id="Fill-7" fill="#7D53A2" mask="url(#mask-4)"></path>
                <path d="M44.9798228,4.95269492 C44.9785508,3.05888136 43.4537203,1.5300678 41.564822,1.52879582 C39.6826186,1.52752542 38.1364322,3.05938983 38.1223644,4.93938983 C38.1082119,6.81947458 39.6886356,8.40150847 41.5720254,8.39256349 C43.4552458,8.38345763 44.9810932,6.84337288 44.9798228,4.95269492 M41.544822,0.324192668 C44.1054153,0.315491525 46.1766017,2.37294915 46.1949068,4.94320339 C46.2131271,7.49167797 44.1310085,9.58413559 41.5718559,9.58922974 C39.0021102,9.59430508 36.9321949,7.53710169 36.9249731,4.971 C36.9178729,2.40515254 38.9782119,0.332779661 41.544822,0.324192668" id="Fill-8" fill="#F69637" mask="url(#mask-4)"></path>
                <path d="M13.3680763,2.61200847 L10.5355339,8.28387288 L16.2022288,8.28387288 L13.3680763,2.61200847 Z M8.64460169,9.43582203 L13.3699407,0.013279661 L18.0801949,9.43582203 L8.64460169,9.43582203 Z" id="Fill-9" fill="#4FB74A" mask="url(#mask-4)"></path>
                <polygon id="Fill-10" fill="#404D53" mask="url(#mask-4)" points="16.1405678 12.9643136 18.1514153 18.0932119 20.1785339 12.9517712 21.3855678 12.9517712 21.3855678 19.2402458 20.5379407 19.2402458 20.5379407 14.5024492 20.4286186 14.474822 18.5901441 19.229822 17.7225169 19.229822 15.885822 14.4934661 15.7884492 14.5049915 15.7884492 19.2337203 14.9187881 19.2337203 14.9187881 12.9643136"></polygon>
                <path d="M23.4064831,13.7344746 L23.4064831,18.4640508 C23.4064831,18.4640508 24.6214831,18.5010847 25.2091102,18.4562542 C26.3792797,18.3669322 27.2688559,17.3368475 27.276822,16.1172712 C27.2850424,14.876339 26.3936864,13.8315085 25.2046186,13.7421864 C24.617161,13.6979492 23.4064831,13.7344746 23.4064831,13.7344746 L23.4064831,13.7344746 Z M22.5580932,12.9257458 C22.5580932,12.9257458 24.5246186,12.8465085 25.4891102,12.9801525 C27.1112288,13.2048136 28.2541949,14.706339 28.1293644,16.3822712 C28.0129237,17.9460847 26.6310593,19.2371864 25.0448729,19.2541356 C24.2269915,19.2628644 22.5580932,19.255661 22.5580932,19.255661 L22.5580932,12.9257458 Z" id="Fill-11" fill="#404D53" mask="url(#mask-4)"></path>
                <polygon id="Fill-12" fill="#404D53" mask="url(#mask-4)" points="7.5460339 12.5746017 10.8720508 12.5746017 10.8720508 13.8755339 12.4538305 13.8755339 12.4538305 12.2377373 13.2884068 12.2377373 13.2884068 16.3312966 12.4725593 16.3274831 12.4725593 14.6844322 10.904339 14.6844322 10.904339 16.182822 10.0434915 16.2435 10.0434915 14.9114661 7.53255932 14.9114661 7.52238983 14.1957034 10.0118814 14.1957034 10.0118814 13.3018051 7.57501695 13.3018051"></polygon>
                <path d="M28.9779322,17.4651864 L29.7698814,17.4651864 C29.8092034,17.5945085 29.8425932,17.7275593 29.8897119,17.8554407 C30.0688644,18.3420508 30.5092881,18.6164576 31.0145424,18.5615424 C31.4753051,18.5114576 31.8372542,18.1484915 31.9002203,17.6734915 C31.9625085,17.2041695 31.6946271,16.8058644 31.1683559,16.6230678 C30.8493729,16.5123898 30.5108983,16.4548475 30.1968305,16.3331525 C29.2403051,15.9622203 28.7809831,15.0960339 29.0299661,14.1731525 C29.2735254,13.2705254 30.1343729,12.7237458 31.1187797,12.8465424 C32.1025085,12.969339 32.7443729,13.6902712 32.7497119,14.6965424 C32.4957288,14.7984915 32.2308136,14.7112881 31.9791186,14.7463729 C31.8942881,14.5267119 31.8403051,14.3213729 31.7404746,14.1416271 C31.5090339,13.7249322 31.0428475,13.5401017 30.5797966,13.6556102 C30.1635254,13.7594237 29.8667458,14.1256949 29.8325085,14.5779831 C29.8004746,15.0023051 30.0462373,15.3749322 30.5062373,15.5434068 C30.8229322,15.659339 31.1587797,15.7223051 31.4771695,15.834339 C32.417339,16.1651864 32.9200508,17.0048475 32.7361525,17.9135763 C32.5542034,18.8128983 31.7518305,19.4056949 30.772339,19.3644237 C29.8250508,19.3245085 29.0821695,18.639339 28.9788644,17.7080678 C28.9714915,17.6412034 28.9779322,17.5728983 28.9779322,17.4651864" id="Fill-13" fill="#404D53" mask="url(#mask-4)"></path>
                <path d="M9.48661017,19.2011864 L12.4138136,19.2011864 L12.4138136,17.6440678 L9.48661017,17.6440678 L9.48661017,19.2011864 Z M13.3001695,16.9438136 L13.3001695,19.9152542 L8.83457627,19.9145763 L8.6170339,19.8972034 L8.6170339,16.9438136 L13.3001695,16.9438136 Z" id="Fill-14" fill="#404D53" mask="url(#mask-4)"></path>
                <path d="M1.20576277,15.6381102 C1.20281356,16.1520085 1.59086441,16.5391271 2.11222034,16.5423475 C2.63552542,16.5455678 3.02671186,16.1648898 3.02918052,15.6500593 C3.03154237,15.1310763 2.65077966,14.7520085 2.124,14.7491098 C1.59840678,14.746161 1.20874576,15.1234492 1.20576277,15.6381102 M2.10255932,14.0634334 C3.13222034,14.0597203 3.87527119,14.7193814 3.8785866,15.6400593 C3.88179661,16.5565 3.13128814,17.2333644 2.11188136,17.2336187 C1.11357627,17.2338729 0.372983051,16.5717542 0.364,15.670822 C0.354762712,14.7362458 1.07849153,14.0670932 2.10255932,14.0634334" id="Fill-15" fill="#404D53" mask="url(#mask-4)"></path>
                <polygon id="Fill-16" fill="#404D53" mask="url(#mask-4)" points="5.79980508 12.2303983 5.79980508 14.5662458 6.88794068 14.5662458 6.90709322 15.3227712 5.81616102 15.3227712 5.81616102 17.9353136 4.98285593 17.9715 4.98285593 12.2472627"></polygon>
                <polygon id="Fill-17" fill="#404D53" mask="url(#mask-4)" points="1.22117797 19.8144068 1.22117797 17.7401695 2.0655 17.7401695 2.0655 19.1378814 5.95024576 19.1378814 5.95024576 19.8144068"></polygon>
                <polygon id="Fill-18" fill="#404D53" mask="url(#mask-4)" points="4.16058475 13.1340508 4.15778814 13.7781186 -8.47457627e-06 13.7781186 -8.47457627e-06 13.1340508"></polygon>
                <path d="M2.10388983,12.8263559 C1.80880508,12.8183051 1.5634661,12.5665254 1.59151695,12.2733051 C1.62304237,11.9432203 1.81778814,11.7630508 2.15355085,11.7782203 C2.47583898,11.7927966 2.63160169,12.0007627 2.64770339,12.3016102 C2.66329661,12.5927966 2.39719492,12.834322 2.10388983,12.8263559" id="Fill-19" fill="#404D53" mask="url(#mask-4)"></path>
            </g>
        </g>
    </g>
</svg>