<?xml version="1.0" encoding="UTF-8"?>
<svg width="100px" height="60px" viewBox="0 0 100 60" version="1.1" xmlns="http://www.w3.org/2000/svg" xmlns:xlink="http://www.w3.org/1999/xlink">
    <!-- Generator: Sketch 55.2 (78181) - https://sketchapp.com -->
    <title>logo/hansalim</title>
    <desc>Created with Sketch.</desc>
    <defs>
        <polygon id="path-1" points="0 0.0688168421 17.3042526 0.0688168421 17.3042526 15.6631579 0 15.6631579"></polygon>
    </defs>
    <g id="logo/hansalim" stroke="none" stroke-width="1" fill="none" fill-rule="evenodd">
        <g transform="translate(21.000000, 22.000000)">
            <path d="M32.0498358,13.0587621 L25.9866779,13.0587621 C25.8047832,13.0587621 25.7441516,13.0222147 25.7441516,12.8524463 L25.7441516,10.7788463 C25.7441516,10.6820042 25.6471411,10.5726989 25.5258779,10.5726989 L24.4102568,10.5726989 C24.3132463,10.5726989 24.2041095,10.6820042 24.2041095,10.7788463 L24.2041095,13.3982989 C24.2041095,14.0893305 24.4345095,14.3320253 25.22272,14.3320253 L32.0498358,14.3320253 C32.1468463,14.3320253 32.2559832,14.2833516 32.2559832,14.1742147 L32.2559832,13.2285305 C32.2559832,13.1436463 32.1468463,13.0587621 32.0498358,13.0587621" id="Fill-1" fill="#58585B"></path>
            <path d="M23.9858526,6.53475368 C23.9858526,5.61298526 24.6770526,4.87344842 25.6229053,4.87344842 C26.5930105,4.87344842 27.2720842,5.61298526 27.2720842,6.53475368 C27.2720842,7.49256421 26.5930105,8.25669053 25.6229053,8.25669053 C24.6770526,8.25669053 23.9858526,7.49256421 23.9858526,6.53475368 L23.9858526,6.53475368 Z M25.6229053,9.54191158 C27.4054737,9.52978526 28.7878737,8.20818526 28.7878737,6.54671158 C28.7878737,5.66165895 28.3755789,4.87344842 27.7328842,4.32776421 L29.0789053,4.32776421 C29.1880421,4.32776421 29.2729263,4.24288 29.2729263,4.12161684 L29.2729263,3.32128 C29.2729263,3.22426947 29.1880421,3.12725895 29.0789053,3.12725895 L26.3989895,3.12725895 L26.3989895,1.76911158 C26.3989895,1.64768 26.3383579,1.59917474 26.2170947,1.59917474 L25.6229053,1.59917474 L25.0408421,1.59917474 C24.9195789,1.59917474 24.8710737,1.64768 24.8710737,1.76911158 L24.8710737,3.12725895 L22.2154105,3.12725895 C22.1062737,3.12725895 21.9850105,3.23639579 21.9850105,3.32128 L21.9850105,4.10949053 C21.9850105,4.23075368 22.0941474,4.32776421 22.2032842,4.32776421 L23.5250526,4.32776421 C22.8823579,4.87344842 22.4821895,5.66165895 22.4821895,6.54671158 C22.4821895,8.22031158 23.8888421,9.54191158 25.6107789,9.54191158 L25.6229053,9.54191158 Z" id="Fill-3" fill="#58585B"></path>
            <path d="M33.6990147,4.44889263 L31.9164463,4.44889263 L31.9164463,2.02379789 C31.9164463,1.90253474 31.8558147,1.85402947 31.7345516,1.85402947 L30.5582989,1.85402947 C30.4370358,1.85402947 30.3885305,1.90253474 30.3885305,2.02379789 L30.3885305,11.0456084 C30.3885305,11.1547453 30.4370358,11.2155453 30.5582989,11.2155453 L31.7345516,11.2155453 C31.8558147,11.2155453 31.9164463,11.1547453 31.9164463,11.0456084 L31.9164463,5.72232421 L33.6990147,5.72232421 C33.8081516,5.72232421 33.9051621,5.64956632 33.9051621,5.56468211 L33.9051621,4.61882947 C33.9051621,4.53377684 33.8081516,4.44889263 33.6990147,4.44889263" id="Fill-5" fill="#58585B"></path>
            <path d="M38.2706358,5.54034526 C38.9497095,6.54682947 39.9319411,7.38354526 40.9990568,7.84434526 C41.1445726,7.91710316 41.2537095,7.88072421 41.35072,7.74733474 L41.7993937,7.01975579 C41.8964042,6.87424 41.8600253,6.76493474 41.7145095,6.69234526 C40.7322779,6.26792421 39.4226358,5.22506105 38.8648253,3.97605053 C38.9982147,3.41824 39.0709726,2.83617684 39.0709726,2.19348211 C39.0709726,2.06009263 39.0224674,1.98733474 38.9012042,1.98733474 L37.7492042,1.98733474 C37.66432,1.98733474 37.5430568,2.06009263 37.5430568,2.18152421 C37.5430568,4.63087158 36.6457095,6.04948211 34.5599832,7.21377684 C34.3902147,7.31095579 34.3902147,7.44417684 34.4872253,7.57756632 L35.0207832,8.23238737 C35.1177937,8.34169263 35.2511832,8.34169263 35.4452042,8.24468211 C36.6820884,7.60181895 37.6521937,6.70447158 38.2706358,5.54034526" id="Fill-7" fill="#58585B"></path>
            <path d="M44.4186611,13.1192926 L38.3191242,13.1192926 C38.1614821,13.1192926 38.1493558,13.1192926 38.1493558,12.9616505 L38.1493558,12.4280926 C38.1493558,12.2825768 38.1614821,12.2461979 38.3069979,12.2461979 L43.5455663,12.2461979 C44.2731453,12.2461979 44.45504,12.0643032 44.45504,11.4458611 L44.45504,9.86944 C44.45504,9.27525053 44.2731453,9.04485053 43.5455663,9.04485053 L36.8154611,9.04485053 C36.7184505,9.04485053 36.6093137,9.12990316 36.6093137,9.22674526 L36.6093137,10.09984 C36.6093137,10.1968505 36.7184505,10.2696084 36.8154611,10.2696084 L42.7937347,10.2696084 C42.9513768,10.2696084 42.9635032,10.2817347 42.9635032,10.4757558 L42.9635032,10.9245979 C42.9635032,11.0820716 42.9513768,11.1305768 42.8058611,11.1305768 L37.5309137,11.1305768 C36.8397137,11.1305768 36.6456926,11.3488505 36.6456926,11.9187874 L36.6456926,13.5194611 C36.6456926,14.0893979 36.85184,14.3319242 37.54304,14.3319242 L44.4307874,14.3319242 C44.5035453,14.3319242 44.6126821,14.24704 44.6126821,14.1500295 L44.6126821,13.3011874 C44.6126821,13.1920505 44.5156716,13.1192926 44.4186611,13.1192926" id="Fill-9" fill="#58585B"></path>
            <path d="M46.2497516,4.33984 L44.4550568,4.33984 L44.4550568,2.02371368 C44.4550568,1.90245053 44.3944253,1.85394526 44.2731621,1.85394526 L43.0969095,1.85394526 C42.9756463,1.85394526 42.9271411,1.90245053 42.9271411,2.02371368 L42.9271411,8.17175579 C42.9271411,8.28072421 42.9998989,8.36577684 43.0969095,8.36577684 L44.2731621,8.36577684 C44.3701726,8.36577684 44.4550568,8.28072421 44.4550568,8.18388211 L44.4550568,5.61310316 L46.2497516,5.61310316 C46.3467621,5.61310316 46.4437726,5.52821895 46.4437726,5.43104 L46.4437726,4.50977684 C46.4437726,4.41259789 46.3467621,4.33984 46.2497516,4.33984" id="Fill-11" fill="#58585B"></path>
            <path d="M55.2110989,8.11105684 L55.0777095,7.29859368 C55.0655832,7.20175158 54.94432,7.18945684 54.8594358,7.20175158 C53.4042779,7.45623579 51.5368253,7.56537263 49.9361516,7.52899368 C49.7663832,7.52899368 49.6814989,7.45623579 49.6814989,7.29859368 L49.6814989,6.25573053 C49.6814989,6.09825684 49.7178779,6.07383579 49.87552,6.07383579 L52.9556042,6.07383579 C53.5255411,6.07383579 53.79232,5.85556211 53.79232,5.21303579 L53.79232,3.22415158 C53.79232,2.59358316 53.5982989,2.35122526 52.9070989,2.35122526 L48.4082358,2.35122526 C48.3112253,2.35122526 48.2263411,2.41168842 48.2263411,2.49657263 L48.2263411,3.36983579 C48.2263411,3.45472 48.3112253,3.53943579 48.4082358,3.53943579 L52.0946358,3.53943579 C52.2644042,3.53943579 52.2765305,3.53943579 52.2765305,3.73345684 L52.2765305,4.73994105 C52.2765305,4.94625684 52.2644042,4.94625684 52.0946358,4.94625684 L48.95392,4.94625684 C48.3839832,4.94625684 48.1657095,5.15240421 48.1657095,5.69792 L48.1657095,7.91720421 C48.1657095,8.48697263 48.3718568,8.69328842 49.0509305,8.74162526 C50.9305095,8.80225684 53.4164042,8.63265684 55.0534568,8.31737263 C55.1504674,8.30507789 55.2232253,8.20806737 55.2110989,8.11105684" id="Fill-13" fill="#58585B"></path>
            <path d="M57.4666105,1.85399579 L56.2903579,1.85399579 C56.1690947,1.85399579 56.1084632,1.90250105 56.1084632,2.02376421 L56.1084632,9.10553263 C56.1084632,9.22662737 56.1690947,9.29955368 56.2903579,9.29955368 L57.4666105,9.29955368 C57.5878737,9.29955368 57.6363789,9.23892211 57.6363789,9.11765895 L57.6363789,2.02376421 C57.6363789,1.90250105 57.5878737,1.85399579 57.4666105,1.85399579" id="Fill-15" fill="#58585B"></path>
            <path d="M56.1326484,12.9373811 C56.1326484,13.0950232 56.0962695,13.1071495 55.9386274,13.1071495 L53.7680168,13.1071495 L51.5974063,13.1071495 C51.4397642,13.1071495 51.4155116,13.0950232 51.4155116,12.9373811 L51.4155116,11.3367074 C51.4155116,11.19136 51.4397642,11.1790653 51.5974063,11.1790653 L53.7680168,11.1790653 L55.9386274,11.1790653 C56.0841432,11.1790653 56.1326484,11.2033179 56.1326484,11.3488337 L56.1326484,12.9373811 Z M56.6177011,9.95430737 L53.7680168,9.95430737 L50.8455747,9.95430737 C50.1665011,9.95430737 49.8997221,10.2210863 49.8997221,10.90016 L49.8997221,13.3860547 C49.8997221,14.0772547 50.1181642,14.3319074 50.9183326,14.3319074 L53.7680168,14.3319074 L56.7025853,14.3319074 C57.3695326,14.3319074 57.6363116,14.0772547 57.6363116,13.3981811 L57.6363116,10.9122863 C57.6363116,10.2091284 57.4301642,9.95430737 56.6177011,9.95430737 L56.6177011,9.95430737 Z" id="Fill-17" fill="#58585B"></path>
            <g id="Group-21" transform="translate(0.000000, 0.099655)">
                <mask id="mask-2" fill="white">
                    <use xlink:href="#path-1"></use>
                </mask>
                <g id="Clip-20"></g>
                <path d="M9.11898947,0.0688168421 L8.18526316,0.0688168421 C2.57077895,0.0688168421 0,2.39690105 0,7.48995368 L0,8.24178526 C0,13.2501221 2.48589474,15.5783747 7.89423158,15.6632589 C7.89423158,14.3657432 7.88210526,10.5459537 7.73658947,10.6187116 C7.53044211,10.7157221 6.49970526,11.0065853 5.2992,10.2185432 C4.08656842,9.43033263 5.33557895,7.55075368 5.33557895,7.55075368 C7.06964211,4.70106947 10.3801263,5.14974316 10.3801263,5.14974316 C12.8053895,5.41652211 12.1263158,7.80540632 12.1263158,7.80540632 C11.3138526,9.49079579 9.00985263,10.1700379 9.00985263,10.1700379 L9.00985263,10.5094063 C10.1012211,10.1821642 9.91932632,14.2928168 9.83444211,15.6511326 C14.9517474,15.4569432 17.3042526,13.1044379 17.3042526,8.24178526 L17.3042526,7.48995368 C17.3042526,2.39690105 14.7334737,0.0688168421 9.11898947,0.0688168421" id="Fill-19" fill="#8CC63F" mask="url(#mask-2)"></path>
            </g>
        </g>
    </g>
</svg>