<?xml version="1.0" encoding="UTF-8"?>
<svg width="100px" height="60px" viewBox="0 0 100 60" version="1.1" xmlns="http://www.w3.org/2000/svg" xmlns:xlink="http://www.w3.org/1999/xlink">
    <title>logo/hanhwa</title>
    <defs>
        <polygon id="path-1" points="8.41666684e-05 0.105862069 19.1559477 0.105862069 19.1559477 16.0230119 8.41666684e-05 16.0230119"></polygon>
    </defs>
    <g id="logo/hanhwa" stroke="none" stroke-width="1" fill="none" fill-rule="evenodd">
        <g id="Group-20" transform="translate(11.000000, 20.000000)">
            <path d="M21.5357241,11.1537931 C21.2129655,8.00413793 17.624,5.42241379 13.5205517,5.38758621 C9.41710345,5.3537931 6.34986207,7.88137931 6.67262069,11.0324138 C6.99503448,14.1844828 10.584,16.7665517 14.6888276,16.7989655 C18.7922759,16.8341379 21.8571034,14.3051724 21.5357241,11.1537931 M7.95882759,10.3651724 C7.67813793,7.82482759 10.3429655,5.78551724 13.9091724,5.81448276 C17.474,5.84206897 20.5926207,7.9237931 20.8715862,10.4641379 C21.1529655,13.0044828 18.4891724,15.0437931 14.9212414,15.0155172 C11.3571034,14.9872414 8.23848276,12.9075862 7.95882759,10.3651724" id="Fill-1" fill="#FBB584"></path>
            <path d="M7.85106897,9.93072414 C5.50210345,12.3862414 5.46313793,16.1617586 7.76348276,18.3655517 C10.0655517,20.5703793 13.836931,20.3652069 16.1862414,17.9117586 C18.5372759,15.4572759 18.5745172,11.6817586 16.2734828,9.47555172 C13.9724483,7.27210345 10.2014138,7.47658621 7.85106897,9.93072414 M15.3383103,16.8641724 C13.3179655,18.9755517 10.0741724,19.1507241 8.0952069,17.2541724 C6.11244828,15.3603793 6.14589655,12.1100345 8.169,9.99727586 C10.1900345,7.88693103 13.4358966,7.71382759 15.4145172,9.60762069 C17.3952069,11.5027931 17.3614138,14.7527931 15.3383103,16.8641724" id="Fill-3" fill="#F89B6C"></path>
            <g id="Group-7" transform="translate(0.000000, 0.239069)">
                <mask id="mask-2" fill="white">
                    <use xlink:href="#path-1"></use>
                </mask>
                <g id="Clip-6"></g>
                <path d="M4.16134483,3.14213793 C-0.201758621,6.59524138 -1.31106897,11.5976552 1.68031034,14.3173103 C4.67134483,17.0355862 10.6334138,16.4414483 14.9961724,12.9876552 C19.3568621,9.5342069 20.4668621,4.53006897 17.4768621,1.81213793 C14.4834138,-0.907517241 8.52237931,-0.312344828 4.16134483,3.14213793 M8.06375862,1.78834483 C12.2678966,0.211793103 16.4244483,1.80662069 17.3499655,5.34765517 C18.2754828,8.89006897 15.6158276,13.0390345 11.4113448,14.6135172 C7.20789655,16.1914483 3.05203448,14.5945517 2.12582759,11.0535172 C1.20168966,7.51248276 3.86134483,3.36386207 8.06375862,1.78834483" id="Fill-5" fill="#F37321" mask="url(#mask-2)"></path>
            </g>
            <path d="M31.7047931,8.22410345 L32.8682414,8.22410345 L32.8682414,9.10582759 L31.7047931,9.10582759 L31.7047931,11.9478966 L30.5882414,11.9478966 L30.5882414,6.16065517 L31.7047931,6.16065517 L31.7047931,8.22410345 Z M26.9965172,10.6906552 C27.2903103,10.6906552 27.5423793,10.6096207 27.7513448,10.4468621 C27.961,10.2847931 28.0651379,10.0813448 28.0651379,9.83755172 C28.0651379,9.59962069 27.961,9.39962069 27.7513448,9.2372069 C27.5423793,9.0747931 27.2903103,8.99306897 26.9965172,8.99306897 C26.7020345,8.99306897 26.4503103,9.0747931 26.2406552,9.2372069 C26.0313448,9.39962069 25.9272069,9.59962069 25.9272069,9.83755172 C25.9272069,10.0813448 26.0313448,10.2847931 26.2406552,10.4468621 C26.4503103,10.6096207 26.7020345,10.6906552 26.9965172,10.6906552 L26.9965172,10.6906552 Z M25.7020345,6.83582759 L28.2903103,6.83582759 L28.2903103,6.01996552 L25.7020345,6.01996552 L25.7020345,6.83582759 Z M27.3813448,13.3358276 L31.7416897,13.3358276 L31.7416897,14.1985862 L27.108931,14.1985862 C26.1085862,14.1985862 25.6075517,13.733069 25.6075517,12.801 L25.6075517,11.901 L26.7337586,11.901 L26.7337586,12.6699655 C26.7337586,13.1141034 26.9492759,13.3358276 27.3813448,13.3358276 L27.3813448,13.3358276 Z M26.9965172,11.4785862 C26.3585862,11.4785862 25.8396207,11.3178966 25.4392759,10.9958276 C25.0392759,10.6737586 24.8396207,10.2875517 24.8396207,9.83755172 C24.8396207,9.39341379 25.0392759,9.01031034 25.4392759,8.68858621 C25.8396207,8.36651724 26.3585862,8.20548276 26.9965172,8.20548276 C27.6341034,8.20548276 28.1527241,8.36651724 28.5527241,8.68858621 C28.9534138,9.01031034 29.1537586,9.39341379 29.1537586,9.83755172 C29.1537586,10.2875517 28.9534138,10.6737586 28.5527241,10.9958276 C28.1527241,11.3178966 27.6341034,11.4785862 26.9965172,11.4785862 L26.9965172,11.4785862 Z M24.473069,7.93341379 L29.5192759,7.93341379 L29.5192759,7.12651724 L24.473069,7.12651724 L24.473069,7.93341379 Z" id="Fill-8" fill="#000000"></path>
            <path d="M36.3471724,10.6907586 C36.6409655,10.6907586 36.8926897,10.6097241 37.1023448,10.4469655 C37.3116552,10.2845517 37.4168276,10.0811034 37.4168276,9.83731034 C37.4168276,9.59972414 37.3116552,9.39972414 37.1023448,9.23696552 C36.8926897,9.07455172 36.6409655,8.99317241 36.3471724,8.99317241 C36.0537241,8.99317241 35.8016552,9.07455172 35.5926897,9.23696552 C35.3826897,9.39972414 35.2778621,9.59972414 35.2778621,9.83731034 C35.2778621,10.0811034 35.3826897,10.2845517 35.5926897,10.4469655 C35.8016552,10.6097241 36.0537241,10.6907586 36.3471724,10.6907586 L36.3471724,10.6907586 Z M35.0526897,6.83593103 L37.6416552,6.83593103 L37.6416552,6.02006897 L35.0526897,6.02006897 L35.0526897,6.83593103 Z M33.8054483,7.93351724 L38.8513103,7.93351724 L38.8513103,7.12662069 L33.8054483,7.12662069 L33.8054483,7.93351724 Z M35.7937241,11.4317931 C35.3937241,11.3631724 35.0526897,11.2131724 34.7713103,10.9817931 C34.3844138,10.6628276 34.1902759,10.2814483 34.1902759,9.83731034 C34.1902759,9.39317241 34.389931,9.01041379 34.7902759,8.68834483 C35.1902759,8.36662069 35.7095862,8.20524138 36.3471724,8.20524138 C36.9851034,8.20524138 37.5037241,8.36662069 37.9044138,8.68834483 C38.3044138,9.01041379 38.5044138,9.39317241 38.5044138,9.83731034 C38.5044138,10.2814483 38.3106207,10.6628276 37.9230345,10.9817931 C37.6475172,11.2066207 37.3130345,11.3569655 36.9188966,11.4317931 L36.9188966,12.2852414 L38.1671724,12.2852414 C39.2923448,12.2852414 39.8547586,11.8507586 39.8547586,10.9817931 L39.8547586,6.16075862 L40.9716552,6.16075862 L40.9716552,8.8617931 L42.1344138,8.8617931 L42.1344138,9.75282759 L40.9716552,9.75282759 L40.9716552,14.2176552 L39.8547586,14.2176552 L39.8547586,12.7076552 C39.5175172,13.0076552 39.0168276,13.1576552 38.354069,13.1576552 L33.6268276,13.1576552 L33.6268276,12.2852414 L35.7937241,12.2852414 L35.7937241,11.4317931 Z" id="Fill-10" fill="#000000"></path>
            <path d="M51.4010345,9.74348276 L50.2003448,9.74348276 L50.2003448,14.2176207 L49.0841379,14.2176207 L49.0841379,6.16072414 L50.2003448,6.16072414 L50.2003448,8.84313793 L51.4010345,8.84313793 L51.4010345,9.74348276 Z M45.0506897,7.52072414 L45.0506897,7.16451724 L43.1372414,7.16451724 L43.1372414,6.29210345 L48.0617241,6.29210345 L48.0617241,7.16451724 L46.157931,7.16451724 L46.157931,7.52072414 C46.157931,8.84003448 46.3889655,9.82796552 46.8517241,10.4845172 C47.2268966,11.0158966 47.6893103,11.4131379 48.2396552,11.6758966 L48.2396552,12.5572759 C47.4144828,12.301069 46.6986207,11.829 46.092069,11.141069 C45.9048276,10.9286552 45.742069,10.6845172 45.6041379,10.4096897 C45.4668966,10.6845172 45.3037931,10.9286552 45.1168966,11.141069 C44.51,11.829 43.7937931,12.301069 42.9689655,12.5572759 L42.9689655,11.6758966 C43.5193103,11.4131379 43.9817241,11.0158966 44.3568966,10.4845172 C44.8196552,9.82796552 45.0506897,8.84003448 45.0506897,7.52072414 L45.0506897,7.52072414 Z" id="Fill-12" fill="#000000"></path>
            <path d="M59.4856207,8.21465517 L60.6676897,8.21465517 L60.6676897,9.10568966 L59.4856207,9.10568966 L59.4856207,11.9477586 L58.3697586,11.9477586 L58.3697586,6.16051724 L59.4856207,6.16051724 L59.4856207,8.21465517 Z M55.264931,13.3263793 L59.6263103,13.3263793 L59.6263103,14.1987931 L54.9928621,14.1987931 C53.9925172,14.1987931 53.4921724,13.732931 53.4921724,12.8012069 L53.4921724,11.5539655 L54.6180345,11.5539655 L54.6180345,12.6608621 C54.6180345,13.1046552 54.8335517,13.3263793 55.264931,13.3263793 L55.264931,13.3263793 Z M55.3680345,6.72362069 C55.3680345,7.86155172 55.6273448,8.73982759 56.1463103,9.3587931 C56.5594138,9.84672414 56.997,10.1656897 57.4597586,10.3156897 L57.4597586,11.1877586 C56.7404483,11.0753448 56.0718276,10.7094828 55.4521724,10.0905172 C55.2021724,9.84051724 54.9894138,9.55603448 54.8142414,9.23706897 C54.639069,9.55603448 54.4273448,9.84051724 54.1766552,10.0905172 C53.5576897,10.7094828 52.8887241,11.0753448 52.1694138,11.1877586 L52.1694138,10.3156897 C52.6321724,10.1656897 53.0701034,9.84672414 53.4832069,9.3587931 C54.0014828,8.73982759 54.2614828,7.86155172 54.2614828,6.72362069 L54.2614828,6.28258621 L55.3680345,6.28258621 L55.3680345,6.72362069 Z" id="Fill-14" fill="#000000"></path>
            <path d="M63.396931,7.93348276 C63.396931,8.25831034 63.581069,8.48968966 63.9496897,8.62762069 C64.3186552,8.76486207 64.8438276,8.83348276 65.5255517,8.83348276 C66.1945172,8.83348276 66.7221034,8.76486207 67.1062414,8.62762069 C67.4907241,8.48968966 67.6827931,8.25831034 67.6827931,7.93348276 C67.6827931,7.60210345 67.4907241,7.36589655 67.1062414,7.2252069 C66.7221034,7.08451724 66.1945172,7.01417241 65.5255517,7.01417241 C64.8500345,7.01417241 64.3265862,7.08451724 63.9541724,7.2252069 C63.5824483,7.36589655 63.396931,7.60210345 63.396931,7.93348276 L63.396931,7.93348276 Z M64.1941724,13.3265862 L68.7617586,13.3265862 L68.7617586,14.1986552 L63.836931,14.1986552 C62.886931,14.1986552 62.4121034,13.7017586 62.4121034,12.7076207 L62.4121034,11.7507241 L63.5372759,11.7507241 L63.5372759,12.6134828 C63.5372759,13.0886552 63.7562414,13.3265862 64.1941724,13.3265862 L64.1941724,13.3265862 Z M62.2427931,7.9427931 C62.2427931,7.35486207 62.5258966,6.91106897 63.0914138,6.61106897 C63.6572759,6.31072414 64.4721034,6.16072414 65.5348621,6.16072414 C66.5976207,6.16072414 67.4138276,6.30762069 67.9834828,6.60175862 C68.5521034,6.89555172 68.8362414,7.33934483 68.8362414,7.93348276 C68.8362414,8.52762069 68.5538276,8.96831034 67.9876207,9.25589655 C67.4214138,9.54348276 66.6045172,9.68727586 65.5348621,9.68727586 C64.4721034,9.68727586 63.6572759,9.54348276 63.0914138,9.25589655 C62.5258966,8.96831034 62.2427931,8.53037931 62.2427931,7.9427931 L62.2427931,7.9427931 Z M69.6531379,11.0848621 L66.2852069,11.0848621 L66.2852069,12.5200345 L65.1600345,12.5200345 L65.1600345,11.0848621 L61.4265862,11.0848621 L61.4265862,10.2031379 L69.6531379,10.2031379 L69.6531379,11.0848621 Z" id="Fill-16" fill="#000000"></path>
            <path d="M75.7861379,9.28417241 C75.4864828,9.309 75.1578621,9.32141379 74.8016552,9.32141379 C74.4513103,9.32141379 74.1295862,9.309 73.8357931,9.28417241 L73.8357931,9.97831034 L75.7861379,9.97831034 L75.7861379,9.28417241 Z M74.8109655,13.4952069 C75.4357931,13.4952069 75.9316552,13.4438276 76.2971724,13.3407241 C76.6630345,13.2372759 76.8461379,13.0638276 76.8461379,12.8200345 C76.8461379,12.5696897 76.6630345,12.3917586 76.2971724,12.2852069 C75.9316552,12.1793448 75.4357931,12.1258966 74.8109655,12.1258966 C74.1982069,12.1258966 73.7071724,12.1793448 73.3382069,12.2852069 C72.9695862,12.3917586 72.7851034,12.5696897 72.7851034,12.8200345 C72.7851034,13.0638276 72.9695862,13.2372759 73.3382069,13.3407241 C73.7071724,13.4438276 74.1982069,13.4952069 74.8109655,13.4952069 L74.8109655,13.4952069 Z M72.6630345,7.74589655 C72.6630345,8.04589655 72.8523448,8.24589655 73.2306207,8.34589655 C73.6088966,8.44589655 74.1295862,8.49624138 74.792,8.49624138 C75.4485517,8.49624138 75.972,8.44589655 76.3633793,8.34589655 C76.754069,8.24589655 76.9492414,8.04589655 76.9492414,7.74589655 C76.9492414,7.45831034 76.754069,7.25658621 76.3633793,7.14072414 C75.972,7.0252069 75.4485517,6.96727586 74.792,6.96727586 C74.1357931,6.96727586 73.6168276,7.0252069 73.2351034,7.14072414 C72.854069,7.25658621 72.6630345,7.45831034 72.6630345,7.74589655 L72.6630345,7.74589655 Z M78.0092414,12.8107241 C78.0092414,13.3358966 77.7278621,13.7234828 77.1647586,13.9738276 C76.6023448,14.2238276 75.8206207,14.349 74.8202759,14.349 C73.8195862,14.349 73.0382069,14.2238276 72.4751034,13.9738276 C71.9130345,13.7234828 71.6313103,13.3358966 71.6313103,12.8107241 C71.6313103,12.2855517 71.9130345,11.8976207 72.4751034,11.6476207 C73.0382069,11.3976207 73.8195862,11.2724483 74.8202759,11.2724483 C75.8206207,11.2724483 76.6023448,11.3976207 77.1647586,11.6476207 C77.7278621,11.8976207 78.0092414,12.2855517 78.0092414,12.8107241 L78.0092414,12.8107241 Z M71.5095862,7.73658621 C71.5095862,7.19244828 71.7923448,6.78934483 72.3585517,6.52658621 C72.9237241,6.26382759 73.7388966,6.13244828 74.8016552,6.13244828 C75.8713103,6.13244828 76.6878621,6.26072414 77.2544138,6.51727586 C77.819931,6.77348276 78.1030345,7.17693103 78.1030345,7.72693103 C78.1030345,8.28968966 77.8213103,8.69624138 77.2588966,8.94658621 C77.1775172,8.98382759 77.0616552,9.02762069 76.9116552,9.07762069 L76.9116552,9.97831034 L78.9192414,9.97831034 L78.9192414,10.8596897 L70.6930345,10.8596897 L70.6930345,9.97831034 L72.7095862,9.97831034 L72.7095862,9.07762069 C72.5851034,9.04003448 72.4692414,8.99624138 72.3626897,8.94658621 C71.7937241,8.69624138 71.5095862,8.2927931 71.5095862,7.73658621 L71.5095862,7.73658621 Z" id="Fill-18" fill="#000000"></path>
        </g>
    </g>
</svg>