<?xml version="1.0" encoding="UTF-8"?>
<svg width="100px" height="60px" viewBox="0 0 100 60" version="1.1" xmlns="http://www.w3.org/2000/svg" xmlns:xlink="http://www.w3.org/1999/xlink">
    <!-- Generator: Sketch 52.4 (67378) - http://www.bohemiancoding.com/sketch -->
    <title>logo/hellomarket</title>
    <desc>Created with Sketch.</desc>
    <defs>
        <polygon id="path-1" points="0 0 11.4885705 0 11.4885705 10.9999823 0 10.9999823"></polygon>
        <polygon id="path-3" points="0.045716 0.040535 3.67532 0.040535 3.67532 8.442995 0.045716 8.442995"></polygon>
    </defs>
    <g id="logo/hellomarket" stroke="none" stroke-width="1" fill="none" fill-rule="evenodd">
        <g id="Group-27" transform="translate(13.000000, 25.000000)">
            <g id="Group-3">
                <mask id="mask-2" fill="white">
                    <use xlink:href="#path-1"></use>
                </mask>
                <g id="Clip-2"></g>
                <path d="M6.8014705,0 L8.5734055,7.859445 L10.5502155,5.82076 L11.4885705,6.1589 C11.4885705,6.1589 9.7594805,9.902915 7.2873405,10.73171 C4.8152005,11.560505 3.1861555,10.28874 2.5430955,9.3599 C1.9103755,8.445965 0.7243005,6.314715 0.0057805,3.22465 C-0.0153945,3.133735 0.0227755,3.038255 0.1008755,2.98705 L0.2557555,2.88541 C0.3529955,2.821555 0.4830705,2.843445 0.5541305,2.93557 L2.1143705,4.95858 L1.7921255,1.401125 C1.7721605,1.18041 1.9199455,0.979495 2.1365355,0.932745 C2.3399805,0.888855 2.5462305,0.99396 2.6303255,1.18437 L3.9435055,4.15833 L3.7076105,0.410025 C3.6960605,0.2266 3.8417005,0.071445 4.0255105,0.071445 C4.2004105,0.071445 4.3577105,0.177815 4.4228855,0.340175 L5.9440755,4.129785 L6.2584555,0 L6.8014705,0 Z" id="Fill-1" fill="#009CDE" mask="url(#mask-2)"></path>
            </g>
            <path d="M26.5787225,2.0386795 L26.5787225,10.1363295 L27.8933875,10.1363295 L27.8933875,0.7240145 C27.1673325,0.7240145 26.5787225,1.3126245 26.5787225,2.0386795" id="Fill-4" fill="#009CDE"></path>
            <path d="M29.684402,2.0386795 L29.684402,10.1363295 L30.999067,10.1363295 L30.999067,0.7240145 C30.273012,0.7240145 29.684402,1.3126245 29.684402,2.0386795" id="Fill-6" fill="#009CDE"></path>
            <path d="M16.823477,3.610585 C16.185202,3.610585 15.537412,3.896365 15.184917,4.267945 L15.184917,0.72402 C14.458807,0.72402 13.870197,1.31263 13.870197,2.038685 L13.870197,10.136335 L15.184917,10.136335 L15.184917,5.52541 C15.184917,5.52541 15.361137,4.849075 16.451952,4.849075 C17.309292,4.849075 17.566527,5.48735 17.566527,6.21137 L17.566527,10.136335 L18.881247,10.136335 L18.881247,6.21137 L18.881247,5.5 C18.881247,5.5 18.681157,3.610585 16.823477,3.610585" id="Fill-8" fill="#009CDE"></path>
            <path d="M24.1208605,6.3256435 L21.4724455,6.3256435 C21.4724455,5.9446035 21.6058205,4.7251985 22.9204855,4.7251985 C24.2352055,4.7251985 24.1208605,6.3256435 24.1208605,6.3256435 M22.9586005,3.6105685 C20.2720705,3.6105685 20.1768655,5.9636335 20.1768655,6.7829135 C20.1768655,7.6022485 20.2530405,10.2315785 23.1110605,10.2315785 C23.1110605,10.2315785 24.4828705,10.2696935 25.1687755,9.6408785 L25.1687755,8.6120485 C25.1687755,8.6120485 24.5019005,9.0121735 23.3587255,9.0121735 C22.2154955,9.0121735 21.4724455,8.4214735 21.4724455,7.2402385 L25.3211805,7.2402385 C25.3211805,7.2402385 25.8356505,3.6105685 22.9586005,3.6105685" id="Fill-10" fill="#009CDE"></path>
            <path d="M35.1717245,9.050294 C34.3524445,9.050294 33.7659795,8.793499 33.7659795,6.921299 C33.7659795,5.049099 34.3524445,4.792359 35.1717245,4.792359 C35.9910045,4.792359 36.5774145,5.049099 36.5774145,6.921299 C36.5774145,8.793499 35.9910045,9.050294 35.1717245,9.050294 M35.1717245,3.610574 C32.8472045,3.610574 32.3518195,5.530404 32.3518195,6.921299 C32.3518195,8.312194 32.8472045,10.232024 35.1717245,10.232024 C37.4961895,10.232024 37.9915745,8.312194 37.9915745,6.921299 C37.9915745,5.530404 37.4961895,3.610574 35.1717245,3.610574" id="Fill-12" fill="#009CDE"></path>
            <path d="M64.437439,10.1363295 L61.789079,6.5710095 L64.304064,3.6105795 L63.408554,3.6105795 L61.201844,6.2685095 L60.112349,6.2685095 L60.112349,0.7430445 C59.744069,0.7430445 59.445474,1.0416395 59.445474,1.4099195 L59.445474,10.1363295 L60.112349,10.1363295 L60.112349,6.8734545 L61.177039,6.8734545 L63.618159,10.1363295 L64.437439,10.1363295 Z" id="Fill-14" fill="#009CDE"></path>
            <path d="M65.590184,6.3637805 C65.590184,5.5349855 65.818764,4.1059755 67.443079,4.1059755 C69.067394,4.1059755 69.296029,5.7826505 69.296029,6.3637805 L65.590184,6.3637805 Z M67.524039,3.4867305 C64.885194,3.4867305 64.885194,6.0255855 64.885194,6.5710205 C64.885194,7.1164005 64.627959,10.2030005 67.647899,10.2030005 C68.533839,10.2030005 69.000679,10.1458555 69.667554,9.6599855 L69.667554,9.0883705 C69.667554,9.0883705 69.048309,9.5837555 67.762244,9.5837555 C66.476124,9.5837555 65.590184,9.0360105 65.590184,6.8734655 L69.877104,6.8734655 C69.877104,6.8734655 70.162939,3.4867305 67.524039,3.4867305 Z" id="Fill-16" fill="#009CDE"></path>
            <g id="Group-20" transform="translate(70.565000, 1.760000)">
                <mask id="mask-4" fill="white">
                    <use xlink:href="#path-3"></use>
                </mask>
                <g id="Clip-19"></g>
                <path d="M3.675331,1.850585 L1.741421,1.850585 L1.741421,0.040535 L1.074546,0.040535 L1.074546,1.850585 L0.045716,1.850585 L0.045716,2.45553 L1.074546,2.45553 L1.074546,6.68536 C1.074546,7.314065 1.327051,8.442995 2.527371,8.442995 C2.856051,8.442995 3.213331,8.38585 3.356166,8.314405 L3.356166,7.77139 C3.356166,7.77139 1.741421,8.34295 1.741421,6.68536 L1.741421,2.45553 L3.070386,2.45553 C3.404511,2.45553 3.675331,2.184655 3.675331,1.850585" id="Fill-18" fill="#009CDE" mask="url(#mask-4)"></path>
            </g>
            <path d="M56.5946755,4.0440565 C55.8587205,4.6085215 55.8063605,5.1515365 55.8063605,5.1515365 L55.8063605,3.6106015 L55.1394855,3.6106015 L55.1394855,10.1363515 L55.8063605,10.1363515 L55.8063605,6.7098515 C55.8063605,6.1419765 55.9636055,5.5799865 56.2867855,5.1130365 C57.1837805,3.8171815 58.4523555,4.3083865 58.4523555,4.3083865 L58.4523555,3.6106015 C57.8164455,3.5200715 57.3306305,3.4795915 56.5946755,4.0440565" id="Fill-21" fill="#009CDE"></path>
            <path d="M45.6700365,3.557246 C44.2410815,3.557246 43.8695015,4.658511 43.8695015,4.658511 C43.8695015,4.501321 43.3264865,3.557246 42.1690115,3.557246 C41.0115365,3.557246 40.4113765,4.372731 40.4113765,4.372731 L40.4113765,3.610596 L39.7445015,3.610596 L39.7445015,10.136346 L40.4113765,10.136346 L40.4113765,5.430161 C40.4113765,4.629911 41.2115715,4.144041 42.0547215,4.144041 C42.8978165,4.144041 43.3550865,4.815701 43.4026615,5.373016 L43.4026615,10.136346 L44.0695365,10.136346 L44.0695365,5.687396 C44.0695365,4.615666 44.7840965,4.144041 45.6414365,4.144041 C46.2844965,4.144041 47.0418465,4.629911 47.0418465,5.601596 L47.0418465,10.136346 L47.7087215,10.136346 L47.7087215,7.310556 L47.7087215,5.996386 C47.7087215,5.347661 47.6913415,4.730286 47.2400665,4.219116 C46.8427465,3.769106 46.2624415,3.557246 45.6700365,3.557246" id="Fill-23" fill="#009CDE"></path>
            <path d="M52.929283,8.275619 C52.929283,8.885349 52.262463,9.679054 51.176433,9.679054 C50.090403,9.679054 49.652163,8.974064 49.652163,8.269074 C49.652163,7.564084 49.976058,6.706744 51.300293,6.706744 C52.371363,6.706744 52.775558,6.956059 52.890948,7.051374 C52.915643,7.071779 52.929283,7.101974 52.929283,7.134039 L52.929283,8.275619 Z M51.519358,3.486714 C50.433328,3.486714 49.747423,3.753464 49.423528,4.105959 L49.423528,4.610859 C49.423528,4.610859 50.204693,3.924954 51.481243,4.105959 C52.757848,4.286964 52.913278,4.695559 52.913278,6.534209 C52.913278,6.534209 52.205318,6.249419 51.195463,6.249419 C50.185608,6.249419 49.004373,6.859149 49.004373,8.250044 C49.004373,9.640884 50.242808,10.202984 50.985858,10.202984 C51.728963,10.202984 52.243378,9.983919 52.967398,9.259899 L52.967398,10.136324 L53.596158,10.136324 L53.596158,5.506369 C53.596158,4.058329 52.605388,3.486714 51.519358,3.486714 Z" id="Fill-25" fill="#009CDE"></path>
        </g>
    </g>
</svg>