<?xml version="1.0" encoding="UTF-8"?>
<svg width="100px" height="60px" viewBox="0 0 100 60" version="1.1" xmlns="http://www.w3.org/2000/svg" xmlns:xlink="http://www.w3.org/1999/xlink">
    <!-- Generator: Sketch 55.2 (78181) - https://sketchapp.com -->
    <title>logo/homeday_mall</title>
    <desc>Created with Sketch.</desc>
    <defs>
        <polygon id="path-1" points="0 0.09056 44.97159 0.09056 44.97159 14.89996 0 14.89996"></polygon>
    </defs>
    <g id="logo/homeday_mall" stroke="none" stroke-width="1" fill="none" fill-rule="evenodd">
        <g transform="translate(9.000000, 21.000000)">
            <polygon id="Fill-1" fill="#202020" points="64.45961 14.59269 62.82061 9.05319 61.16521 14.61219 58.35581 14.61219 61.14341 6.54429 64.41901 6.54429 67.28551 14.59269"></polygon>
            <polygon id="Fill-2" fill="#202020" points="76.36545 6.55678 76.36545 14.61838 81.70625 14.61838 81.70625 11.99428 79.26305 11.99428 79.26305 6.55678"></polygon>
            <polygon id="Fill-3" fill="#202020" points="69.05404 6.54455 71.95174 6.54455 71.95174 12.00235 74.41824 12.00235 74.41824 14.61005 69.05404 14.61005"></polygon>
            <polygon id="Fill-4" fill="#202020" points="19.07172 13.9133 18.68992 13.9133 17.43642 11.4252 17.34882 11.4331 17.34882 14.2365 16.67772 14.2365 16.67772 10.3495 17.69052 10.3495 18.88612 12.7999 20.08512 10.3463 21.08642 10.3463 21.08642 14.2321 20.46092 14.2321 20.46092 11.4457 20.34042 11.4153"></polygon>
            <g id="Group-22" transform="translate(0.000000, 0.009500)">
                <path d="M14.26678,12.2496 C14.26048,11.4511 13.62608,10.8145 12.84678,10.8247 C12.06648,10.8349 11.45538,11.4768 11.4591624,12.2822 C11.46298,13.074 12.10358,13.7169 12.88008,13.708 C13.65678,13.6991 14.27308,13.051 14.26678,12.2496 M12.86398,10.2445989 C14.07148,10.2435 14.93278,11.0785 14.9373975,12.2545 C14.94188,13.4285 14.07908,14.2873 12.88698,14.2952 C11.66468,14.3034 10.78018,13.4416 10.78978,12.2519 C10.79948,11.0656 11.64658,10.2457 12.86398,10.2445989" id="Fill-5" fill="#202020"></path>
                <path d="M29.08866,13.64521 C29.83326,13.62221 30.61876,13.82151 31.10436,13.06781 C31.42356,12.57231 31.42856,11.99921 31.10016,11.50561 C30.60946,10.76811 29.82886,10.95701 29.08866,10.91491 L29.08866,13.64521 Z M28.42846,14.23451 L28.42846,10.37321 C29.10226,10.37321 29.76986,10.30091 30.41516,10.38961 C31.46956,10.53471 32.02416,11.31861 31.96576,12.41551 C31.90946,13.46991 31.26986,14.15461 30.21666,14.22731 C29.63906,14.26721 29.05656,14.23451 28.42846,14.23451 L28.42846,14.23451 Z" id="Fill-7" fill="#202020"></path>
                <polygon id="Fill-9" fill="#202020" points="23.4224 14.22792 23.4224 10.35102 26.1453 10.35102 26.1453 10.94282 24.0857 10.94282 24.0857 11.97032 25.9232 11.97032 25.9232 12.58602 24.0857 12.58602 24.0857 13.63462 26.2053 13.63462 26.2053 14.22792"></polygon>
                <path d="M35.25414,11.11444 L34.53054,12.74204 L35.95784,12.74204 L35.25414,11.11444 Z M37.32904,14.23224 L36.63184,14.23224 L36.24994,13.39724 L34.25724,13.39724 L33.86314,14.23164 L33.17224,14.23164 L34.88404,10.33874 L35.60774,10.33874 L37.32904,14.23224 Z" id="Fill-11" fill="#202020"></path>
                <polygon id="Fill-13" fill="#202020" points="5.82309 10.34081 6.43689 10.34081 6.43689 12.00781 8.41069 12.00781 8.41069 10.34531 9.02839 10.34531 9.02839 14.22771 8.41499 14.22771 8.41499 12.67141 6.45269 12.67141 6.45269 14.21791 5.82309 14.21791"></polygon>
                <g id="Group-17">
                    <mask id="mask-2" fill="white">
                        <use xlink:href="#path-1"></use>
                    </mask>
                    <g id="Clip-16"></g>
                    <polygon id="Fill-15" fill="#F8C111" mask="url(#mask-2)" points="-1e-05 6.19706 -1e-05 14.89996 2.00349 14.89996 2.00349 7.61426 21.97709 2.11776 41.71959 6.60446 44.97159 5.39666 21.86449 0.09056"></polygon>
                </g>
                <polygon id="Fill-18" fill="#202020" points="40.76215 10.34315 39.68225 12.10695 38.60235 10.34315 37.88875 10.34315 39.34815 12.66545 39.34815 14.23225 40.01635 14.23225 40.01635 12.66545 41.47575 10.34315"></polygon>
                <polygon id="Fill-20" fill="#202020" points="55.63324 6.53964 52.61324 6.53964 51.47464 10.59054 50.33604 6.53964 47.31604 6.53964 45.99964 14.60184 48.82994 14.60184 49.25994 10.29114 50.64064 14.60804 52.30864 14.60804 53.68934 10.29114 54.11924 14.60184 56.94964 14.60184"></polygon>
            </g>
        </g>
    </g>
</svg>