<?xml version="1.0" encoding="UTF-8"?>
<svg width="100px" height="60px" viewBox="0 0 100 60" version="1.1" xmlns="http://www.w3.org/2000/svg" xmlns:xlink="http://www.w3.org/1999/xlink">
    <!-- Generator: Sketch 55.2 (78181) - https://sketchapp.com -->
    <title>logo/hostway</title>
    <desc>Created with Sketch.</desc>
    <defs>
        <polygon id="path-1" points="0.0400359961 0.0284465517 10.9479241 0.0284465517 10.9479241 6.87879138 0.0400359961 6.87879138"></polygon>
        <polygon id="path-3" points="0.0464630178 0.024862069 9.00937968 0.024862069 9.00937968 6.87018621 0.0464630178 6.87018621"></polygon>
    </defs>
    <g id="logo/hostway" stroke="none" stroke-width="1" fill="none" fill-rule="evenodd">
        <g transform="translate(12.000000, 27.000000)">
            <polygon id="Fill-1" fill="#F9A31A" points="60.3619958 6.12667759 62.3251368 4.69638448 60.3619958 3.27972931"></polygon>
            <g id="Group-20" transform="translate(0.000000, 0.095864)">
                <path d="M19.2704702,4.60458793 C19.2704702,5.35069138 18.8664859,5.64082931 17.8287394,5.64082931 L13.8195826,5.64082931 C12.7824401,5.64082931 12.3784559,5.35069138 12.3784559,4.60458793 L12.3784559,2.29084655 C12.3784559,1.54607069 12.7824401,1.25545 13.8195826,1.25545 L17.8287394,1.25545 C18.8664859,1.25545 19.2704702,1.54607069 19.2704702,2.29084655 L19.2704702,4.60458793 Z M17.9300979,0.0250189655 L13.7183449,0.0250189655 C11.6998735,0.0250189655 10.8377828,0.796346552 10.8377828,2.60572586 L10.8377828,4.29007069 C10.8377828,6.09896724 11.6998735,6.87041552 13.7183449,6.87041552 L17.9300979,6.87041552 C19.9494149,6.87041552 20.8107808,6.09896724 20.8107808,4.29007069 L20.8107808,2.60572586 C20.8107808,0.796346552 19.9494149,0.0250189655 17.9300979,0.0250189655 L17.9300979,0.0250189655 Z" id="Fill-2" fill="#337AB6"></path>
                <path d="M56.4681509,0.0284465517 L55.102892,0.0284465517 C55.102892,0.0284465517 52.6330794,5.19782586 52.527251,5.41880862 C52.4254093,5.19601552 50.0623915,0.0284465517 50.0623915,0.0284465517 L48.4732742,0.0284465517 C48.4732742,0.0284465517 46.0804167,5.17332586 45.9780917,5.39430862 C45.8732298,5.17429138 43.431928,0.0284465517 43.431928,0.0284465517 L32.4608087,0.0295327586 L32.4608087,1.28494655 L36.2311267,1.28494655 L36.2311267,6.87263621 L37.8011563,6.87263621 L37.8011563,1.28494655 L42.5648841,1.28494655 L45.2058826,6.87927414 L46.7959665,6.87927414 C46.7959665,6.87927414 49.163575,1.72305 49.2672288,1.49711897 C49.372574,1.72305 51.7383703,6.87927414 51.7383703,6.87927414 L53.3270044,6.87927414 L56.56214,0.0284465517 L56.4681509,0.0284465517 Z" id="Fill-4" fill="#337AB6"></path>
                <g id="Group-8" transform="translate(64.391026, 0.000000)">
                    <mask id="mask-2" fill="white">
                        <use xlink:href="#path-1"></use>
                    </mask>
                    <g id="Clip-7"></g>
                    <path d="M10.7854847,0.0284465517 L8.92865533,0.0284465517 C8.92865533,0.0284465517 5.56860355,2.89301552 5.49394379,2.95770517 C5.41747189,2.89301552 2.05838659,0.0284465517 2.05838659,0.0284465517 L0.0400359961,0.0284465517 C0.0400359961,0.0284465517 4.73176183,4.01108448 4.77332002,4.04644655 L4.77332002,6.87879138 L6.21263462,6.87879138 L6.21263462,4.04644655 C6.25528008,4.01108448 10.9479724,0.0284465517 10.9479724,0.0284465517 L10.7854847,0.0284465517 Z" id="Fill-6" fill="#337AB6" mask="url(#mask-2)"></path>
                </g>
                <path d="M61.7481063,0.0284465517 L60.2794352,0.0284465517 L55.4504707,6.87927414 L57.1170264,6.87927414 C57.1170264,6.87927414 60.9339766,1.43073966 61.0294154,1.29423966 C61.1238878,1.43073966 64.9418045,6.87927414 64.9418045,6.87927414 L66.6090851,6.87927414 L61.7798789,0.0284465517 L61.7481063,0.0284465517 Z" id="Fill-9" fill="#337AB6"></path>
                <g id="Group-13" transform="translate(22.349606, 0.000000)">
                    <mask id="mask-4" fill="white">
                        <use xlink:href="#path-3"></use>
                    </mask>
                    <g id="Clip-12"></g>
                    <path d="M5.99761933,2.78097931 L3.06812968,2.78097931 C1.52564448,2.78097931 1.52564448,2.54599655 1.52564448,2.07784138 C1.52564448,1.41175517 1.73911341,1.25582414 3.83623126,1.25582414 L4.88666272,1.25582414 C7.0774073,1.25582414 7.30537327,1.35261724 7.34064941,1.92637586 L8.82707939,1.92637586 L8.82707939,1.92420345 C8.82707939,0.539531034 7.92053107,0.0247896552 5.48237032,0.0247896552 L3.35178846,0.0247896552 C1.67943393,0.0247896552 0.0464630178,0.178548276 0.0464630178,2.01822069 C0.0464630178,3.99258276 1.43745414,4.08020345 4.33118442,4.08020345 L6.20927613,4.08020345 C7.47583432,4.08020345 7.52923176,4.2931 7.52923176,4.77477241 C7.52923176,5.34418621 7.45916272,5.6406 5.94700049,5.6406 L2.87640631,5.6406 C1.53603402,5.6406 1.53603402,5.28275517 1.53603402,5.02158276 L1.53603402,4.82582414 L0.0564901381,4.82582414 L0.0564901381,5.03908276 C0.0564901381,6.87018621 2.15312475,6.87018621 3.04831706,6.87018621 L5.7953856,6.87018621 C6.99731114,6.87018621 9.00937968,6.87018621 9.00937968,4.97004828 L9.00937968,4.57056552 C9.00937968,2.98482414 7.39984566,2.78097931 5.99761933,2.78097931" id="Fill-11" fill="#337AB6" mask="url(#mask-4)"></path>
                </g>
                <polygon id="Fill-14" fill="#337AB6" points="7.74603501 2.99719483 1.57102022 2.99719483 1.57102022 0.0295568966 2.41617357e-05 0.0295568966 2.41617357e-05 6.87266034 1.57102022 6.87266034 1.57102022 4.25840172 7.74603501 4.25840172 7.74603501 6.87266034 9.3161854 6.87266034 9.3161854 0.0295568966 7.74603501 0.0295568966"></polygon>
                <path d="M74.7856359,6.27364565 L74.5987473,6.27364565 L74.5987473,5.88934391 C74.6455298,5.88424707 74.7034049,5.87932013 74.7856359,5.87932013 C75.0752528,5.87932013 75.1784635,5.97921819 75.1784635,6.07962594 C75.1784635,6.21961914 74.9995328,6.27364565 74.7856359,6.27364565 M75.134816,6.34687025 L75.134816,6.33854541 C75.3084414,6.30235785 75.4502356,6.21129431 75.4502356,6.061787 C75.4502356,5.95237484 75.3986302,5.87541255 75.3021716,5.82512373 C75.2054719,5.77551449 75.0446272,5.73881724 74.8008281,5.73881724 C74.6040526,5.73881724 74.4767272,5.75206903 74.3412029,5.76667997 L74.3412029,6.90548391 L74.5987473,6.90548391 L74.5987473,6.41550769 L74.7803306,6.41550769 C74.9869932,6.41550769 75.0880336,6.4695342 75.1287873,6.61462424 C75.1603775,6.76481113 75.1982375,6.86912645 75.2370621,6.90548391 L75.5078696,6.90548391 C75.4827903,6.86912645 75.4446892,6.80099869 75.4049,6.62362866 C75.373551,6.45560283 75.2758867,6.36521887 75.134816,6.34687025" id="Fill-16" fill="#337AB6"></path>
                <path d="M74.6099901,6.76085345 C74.2864645,6.76085345 74.0255178,6.48978448 74.0255178,6.14497414 C74.0255178,5.8070431 74.2864645,5.53259483 74.6068491,5.53259483 L74.6099901,5.53259483 C74.9325493,5.53259483 75.1908383,5.8070431 75.1908383,6.14859483 C75.1908383,6.48978448 74.9325493,6.76399138 74.6099901,6.76085345 M74.6099901,5.42011207 L74.6068491,5.42011207 C74.2092678,5.42011207 73.8867086,5.74187069 73.8867086,6.14497414 C73.8867086,6.55387069 74.2092678,6.8734569 74.6068491,6.8734569 C75.0062426,6.8734569 75.3223989,6.55387069 75.3223989,6.14497414 C75.3223989,5.74187069 75.0062426,5.42011207 74.6099901,5.42011207" id="Fill-18" fill="#337AB6"></path>
            </g>
        </g>
    </g>
</svg>