<?xml version="1.0" encoding="UTF-8"?>
<svg width="100px" height="60px" viewBox="0 0 100 60" version="1.1" xmlns="http://www.w3.org/2000/svg" xmlns:xlink="http://www.w3.org/1999/xlink">
    <title>logo/hundaielevator</title>
    <defs>
        <polygon id="path-1" points="0.20284 0.206836667 3.1152 0.206836667 3.1152 9.51687 0.20284 9.51687"></polygon>
    </defs>
    <g id="logo/hundaielevator" stroke="none" stroke-width="1" fill="none" fill-rule="evenodd">
        <g id="Group-39" transform="translate(4.000000, 25.000000)">
            <polygon id="Fill-1" fill="#FFB300" points="6.22182 3.66666667e-05 -0.000146666667 10.7782033 1.46505333 10.7782033 6.95332 1.26870333"></polygon>
            <polygon id="Fill-2" fill="#008837" points="7.6857 3.66666667e-05 1.46483333 10.7782033 13.9062 10.7782033"></polygon>
            <g id="Group-38" transform="translate(15.766667, 0.878167)">
                <path d="M2.76646333,8.86893333 L2.76646333,7.2127 L1.01086333,7.21196667 L1.00939667,9.3984 C1.00939667,9.66166667 1.20776333,9.87726667 1.45233,9.87726667 L9.52376333,9.87726667 C9.76686333,9.87726667 9.96669667,9.66496667 9.96669667,9.4006 L9.96596333,8.86966667 L2.76646333,8.86893333 Z" id="Fill-3" fill="#0F218B"></path>
                <path d="M1.90780333,4.13702667 C1.90780333,3.21376 2.66203667,2.46502667 3.59117,2.46502667 C4.52213667,2.46502667 5.27563667,3.21522667 5.27563667,4.13812667 C5.27563667,5.06139333 4.52103667,5.80939333 3.59080333,5.80939333 C2.66167,5.80902667 1.90780333,5.05992667 1.90780333,4.13702667 M6.91830333,3.57749333 L8.14297,3.57749333 L8.14297,4.69876 L6.89667,4.69802667 C6.95570333,4.50772667 6.99090333,4.31082667 6.99090333,4.10659333 C6.99090333,3.92509333 6.96487,3.74872667 6.91830333,3.57749333 M6.25537,5.70782667 L8.14297,5.70819333 L8.14260333,7.80002667 L9.89747,7.80002667 L9.89820333,1.04309333 C9.89820333,0.779826667 9.70093667,0.566793333 9.45563667,0.566793333 L8.14370333,0.56386 L8.14297,2.56696 L6.31660333,2.56696 C6.09073667,2.33816 5.82087,2.13759333 5.51030333,1.97516 L6.55897,1.97516 C6.80463667,1.97589333 7.00227,1.76396 7.00227,1.50032667 L7.00300333,0.960593333 L4.46787,0.96426 L4.46493667,0.670926667 C4.46493667,0.406926667 4.26693667,0.194993333 4.02163667,0.194993333 L2.71227,0.191693333 L2.71227,0.96426 L0.17237,0.96316 L0.172003333,1.97332667 L1.68047,1.97332667 C0.78727,2.43899333 0.199503333,3.21999333 0.199503333,4.10476 C0.19877,5.53109333 1.71897,6.68719333 3.59447,6.68792667 C4.67320333,6.68792667 5.63167,6.30512667 6.25537,5.70782667" id="Fill-5" fill="#0F218B"></path>
                <path d="M11.45474,8.44517667 C11.45474,8.73741 11.6520067,8.97537667 11.8962067,8.97537667 L15.9277067,8.97647667 C16.17264,8.97647667 16.36954,8.73887667 16.36954,8.44627667 L16.3677067,7.96997667 L13.2041067,7.96924333 L13.2055733,1.78467667 L15.6354733,1.78651 C15.8793067,1.78651 16.07694,1.54964333 16.0762067,1.25667667 L16.07694,0.76461 L11.4584067,0.76461 L11.45474,8.44517667 Z" id="Fill-7" fill="#0F218B"></path>
                <path d="M21.2195887,1.10377667 C21.22032,0.81081 21.0230533,0.569543333 20.7784867,0.569543333 L19.4694867,0.57101 L19.4694867,3.60114333 L18.5377867,3.60041 L18.53962,1.10267667 C18.53962,0.80971 18.3423533,0.56881 18.0988867,0.56881 L16.79062,0.569543333 L16.7887867,9.86931 L18.5359533,9.86931 L18.5377867,4.61057667 L19.4694867,4.60764333 L19.4709533,9.86931 L21.2195887,9.86894333 L21.2195887,1.10377667 Z" id="Fill-9" fill="#0F218B"></path>
                <path d="M42.7272267,0.563456667 L41.4152933,0.563823333 L41.4141933,9.87239 L43.16796,9.87312333 L43.1694287,1.03865667 C43.17016,0.77649 42.9725267,0.563456667 42.7272267,0.563456667" id="Fill-11" fill="#0F218B"></path>
                <path d="M40.8836633,8.34166667 L40.88293,7.81 L35.70633,7.8089 L35.70633,5.13846667 L39.64323,5.13846667 L39.64213,1.2628 C39.64213,1.00026667 39.4426633,0.7865 39.1980967,0.7865 L33.9499967,0.786133333 L33.9499967,1.79593333 L37.8890967,1.79446667 L37.8890967,4.1316 L33.9499967,4.1305 L33.9499967,8.3391 C33.9499967,8.602 34.14763,8.8154 34.39293,8.8154 L40.43963,8.8176 C40.68493,8.8176 40.8836633,8.6042 40.8836633,8.34166667" id="Fill-13" fill="#0F218B"></path>
                <path d="M46.48017,4.66444 L47.5299367,4.66444 L47.5299367,7.98204 L46.48017,7.98130667 L46.48017,4.66444 Z M45.1675033,8.98817333 L49.28407,8.98817333 L49.2866367,1.24270667 C49.2866367,0.97944 49.08607,0.766406667 48.84187,0.766406667 L47.5299367,0.765673333 L47.5299367,3.65390667 L46.4809033,3.65390667 L46.4809033,1.24270667 C46.4809033,0.97944 46.28327,0.766406667 46.0387033,0.766406667 L44.7264033,0.765673333 L44.7264033,8.45724 C44.7264033,8.75020667 44.9244033,8.98817333 45.1675033,8.98817333 L45.1675033,8.98817333 Z" id="Fill-15" fill="#0F218B"></path>
                <path d="M51.80813,9.88372 L50.0594967,9.88372 L50.0605967,4.62608667 L48.80183,4.62608667 L48.80183,3.61482 L50.0605967,3.61482 L50.0620633,0.585053333 L51.3699633,0.583953333 C51.6141633,0.583953333 51.8117967,0.824486667 51.8117967,1.11782 L51.80813,9.88372 Z" id="Fill-17" fill="#0F218B"></path>
                <path d="M52.74522,9.88302333 L54.4916533,9.88339 L54.4923867,1.11895667 C54.4923867,0.824523333 54.29512,0.584723333 54.0505533,0.584723333 L52.7444867,0.585823333 L52.74522,9.88302333 Z" id="Fill-19" fill="#0F218B"></path>
                <path d="M59.31332,1.55334667 C60.22632,1.55334667 60.93362,2.91294667 60.9328872,4.79358 C60.93252,6.67494667 60.22522,8.11154667 59.3107533,8.11118007 C58.39482,8.11118007 57.6882533,6.67458 57.6882533,4.79284667 C57.6882533,2.91294667 58.39592,1.55334667 59.31332,1.55334667 M59.3107533,9.18221333 C61.4608867,9.18258 62.7555867,7.24951333 62.7559546,4.86398 C62.75742,2.47808 61.46162,0.54428 59.31332,0.543913333 C57.1598867,0.543546667 55.8673867,2.47734667 55.8655533,4.86214667 C55.8651867,7.24768 57.1576867,9.18148 59.3107533,9.18221333" id="Fill-21" fill="#0F218B"></path>
                <path d="M65.22725,0.56309 L63.9145833,0.56419 L63.9131167,9.88009 L65.6690833,9.88082333 L65.670552,1.03902333 C65.6712833,0.77649 65.4718167,0.56309 65.22725,0.56309" id="Fill-23" fill="#0F218B"></path>
                <g id="Group-27" transform="translate(73.333333, 0.366667)">
                    <mask id="mask-2" fill="white">
                        <use xlink:href="#path-1"></use>
                    </mask>
                    <g id="Clip-26"></g>
                    <path d="M3.11344,9.51687 L3.11527333,0.682036667 C3.11527333,0.41987 2.91727333,0.206836667 2.67050667,0.206836667 L1.35930667,0.208303333 L1.35784,3.23110333 L0.20284,3.23110333 L0.203573333,4.24090333 L1.35784,4.24090333 L1.35784,9.51650333 L3.11344,9.51687 Z" id="Fill-25" fill="#0F218B" mask="url(#mask-2)"></path>
                </g>
                <path d="M67.2260233,8.42691667 C67.2260233,8.71915 67.4236567,8.95638333 67.66859,8.95638333 L73.67789,8.95711667 C73.92099,8.95711667 74.1164233,8.71988333 74.1164233,8.42765 L74.1149567,7.95171667 L68.9768567,7.95098333 L68.97759,4.60845 L72.52399,4.60845 C72.77149,4.60845 72.96399,4.36388333 72.96399,4.08888333 L72.96399,3.59755 L68.97759,3.59755 L68.97759,1.76678333 L73.3867567,1.76935 C73.6287567,1.76935 73.82529,1.53028333 73.82529,1.23841667 L73.82529,0.746716667 L67.2304233,0.746716667 L67.2260233,8.42691667 Z" id="Fill-28" fill="#0F218B"></path>
                <path d="M23.4365633,6.83635333 L30.6349633,6.83488667 L30.63423,7.36655333 L23.4343633,7.36472 L23.43363,9.40595333 C23.43363,9.66922 23.63273,9.88372 23.8776633,9.88372 L31.9472633,9.88372 C32.1914633,9.88372 32.39093,9.67105333 32.39093,9.40815333 L32.39093,8.87758667 L25.1906967,8.87575333 L25.1906967,8.37195333 L32.39093,8.37195333 L32.39093,5.82618667 L23.4343633,5.82838667 L23.4365633,6.83635333 Z" id="Fill-30" fill="#0F218B"></path>
                <path d="M32.3919933,1.09644333 C32.3919933,0.80531 32.1936267,0.563676667 31.9505267,0.563676667 L30.6418933,0.564776667 L30.64446,5.39267667 L32.3908933,5.39267667 L32.3919933,1.09644333 Z" id="Fill-32" fill="#0F218B"></path>
                <path d="M27.9606433,3.28372 L27.9584433,5.39242 L29.7081767,5.39242 L29.7118433,1.09765333 C29.7118433,0.805053333 29.5138433,0.563786667 29.27001,0.563786667 L27.9617433,0.56452 L27.9606433,2.27245333 L27.05571,2.27245333 L27.0516767,3.28372 L27.9606433,3.28372 Z" id="Fill-34" fill="#0F218B"></path>
                <path d="M24.1661567,2.89879333 C24.1661567,2.22119333 24.4921233,1.48016 24.89509,1.48016 C25.3006233,1.48016 25.6269567,2.21972667 25.6269567,2.89879333 C25.6258567,3.57749333 25.3006233,4.31486 24.89509,4.31339552 C24.4910233,4.31339552 24.1661567,3.57749333 24.1661567,2.89879333 M24.8987567,0.530493333 C23.50799,0.530493333 22.5935233,1.79072667 22.5935233,2.91126 C22.5935233,4.09009333 23.54759,5.29092667 24.8987567,5.29092667 C26.2499233,5.29092667 27.19959,4.08936 27.19959,2.91126 C27.19959,1.74782667 26.3225233,0.530493333 24.8987567,0.530493333" id="Fill-36" fill="#0F218B"></path>
            </g>
        </g>
    </g>
</svg>