<?xml version="1.0" encoding="utf-8"?>
<!-- Generator: Adobe Illustrator 25.4.1, SVG Export Plug-In . SVG Version: 6.00 Build 0)  -->
<svg version="1.1" id="레이어_1" xmlns="http://www.w3.org/2000/svg" xmlns:xlink="http://www.w3.org/1999/xlink" x="0px"
	 y="0px" viewBox="0 0 100 60" style="enable-background:new 0 0 100 60;" xml:space="preserve">
<style type="text/css">
	.st0{fill:#004181;}
</style>
<g transform="translate(-96.509173 -222.66975)">
	<path class="st0" d="M111.2,244.3h-3.3v-2.7h-1.5v7h1.5v-2.9h3.3v2.9h1.5v-7h-1.5"/>
	<path class="st0" d="M146,243h2.9v2h-3.3v-1.6c0-0.1,0-0.2,0.1-0.3C145.8,243,145.9,243,146,243 M144.5,242
		c-0.3,0.3-0.3,0.8-0.3,1.1v5.5h1.5v-2.2h3.3v2.2h1.5v-7h-4.8C145.2,241.6,144.8,241.7,144.5,242"/>
	<path class="st0" d="M133.6,241.6h-4.8v7h1.5V243h2.9c0.1,0,0.3,0,0.3,0.1c0.1,0.1,0.1,0.2,0.1,0.3v5.2h1.5v-5.5
		c0-0.3,0-0.8-0.3-1.1C134.5,241.7,134.1,241.6,133.6,241.6"/>
	<path class="st0" d="M126,246.8c0,0.1,0,0.2-0.1,0.3c-0.1,0.1-0.2,0.1-0.3,0.1h-2.9v-5.6h-1.5v7h4.8c0.5,0,0.9-0.1,1.2-0.4
		c0.3-0.3,0.3-0.8,0.3-1.1v-5.5H126"/>
	<path class="st0" d="M141.3,246.8c0,0.1,0,0.2-0.1,0.3c-0.1,0.1-0.2,0.1-0.3,0.1h-2.9V243h2.9c0.1,0,0.3,0,0.3,0.1
		c0.1,0.1,0,0.2,0.1,0.3V246.8z M142.8,243.1c0-0.3,0-0.8-0.3-1.1c-0.3-0.3-0.7-0.4-1.2-0.4h-4.8v7h4.8c0.5,0,0.9-0.1,1.2-0.4
		c0.3-0.3,0.3-0.8,0.3-1.1"/>
	<path class="st0" d="M117,244.7l-1.9-3.1h-1.8l2.9,4.4v2.6h1.6V246l2.9-4.4h-1.8"/>
	<path class="st0" d="M152,248.6h1.6v-7H152V248.6z"/>
	<path class="st0" d="M124.9,253.5L124.9,253.5l-0.5,6l3,0.1l-0.2-7.5h-4.1l-4.4,9.7l4-2.2"/>
	<path class="st0" d="M127.6,264.6l-0.1-4.9l-8.9,2.3l-1.2,2.6h3.5l0.8-2.2h2.7l-0.1,2.2"/>
	<path class="st0" d="M133.4,263.6L133.4,263.6c-0.7,0.9-1.7,1.4-2.9,1.4c-1.2,0-2.2-0.7-1.8-2.4l1.6-7.5h3.5l-1.4,6.4
		c-0.1,0.7,0,0.9,0.5,0.9c0.5,0,0.8-0.4,0.9-0.9l1.4-6.4h3.5l-2,9.7h-3.4"/>
	<path class="st0" d="M141.1,252.2h3.5L144,255h1.2l-0.5,2.3h-1.2l-0.9,4.3c-0.1,0.6-0.1,0.9,0.5,0.9c0.3,0,0.4,0,0.6-0.1l-0.5,2.3
		c-0.3,0-1.2,0.1-1.7,0.1c-2,0-3-0.1-2.5-2.3l1.1-5.3H139l0.5-2.3h1.1"/>
	<path class="st0" d="M150.2,254.8c-3.8,0-4.8,2.4-5.3,5.1c-0.6,2.7-0.7,5.1,3.1,5.1c3.8,0,4.8-2.4,5.3-5.1
		C154,257.1,154,254.8,150.2,254.8 M148.4,259.8c0.5-2.3,0.7-2.8,1.4-2.8c0.6,0,0.6,0.6,0.2,2.8c-0.5,2.3-0.7,2.9-1.4,2.9
		S147.9,262.1,148.4,259.8"/>
	<path class="st0" d="M163.2,255h3.6l-0.6,6.7h0l2.3-6.7h3.5l-4.4,9.7h-4.1"/>
	<path class="st0" d="M174.3,260.4h4.8l0-0.2c0.6-3,1.1-5.5-2.8-5.5c-3.8,0-4.7,2.4-5.3,5.1c-0.6,2.7-0.7,5.1,3.2,5.1
		c1.2,0,2.2-0.3,3-0.8c0.8-0.6,1.4-1.5,1.6-2.8h-3.1c-0.2,1-0.4,1.6-1.1,1.6c-0.7,0-0.6-0.7-0.5-1.2L174.3,260.4z M176.2,258.6h-1.5
		l0.1-0.6c0.2-0.9,0.5-1.2,1-1.2c0.5,0,0.7,0.3,0.5,1.2"/>
	<path class="st0" d="M181.3,255h3.4l-0.3,1.4h0c0.5-0.9,1.5-1.7,2.4-1.7c0.4,0,0.5,0,0.6,0.1l-0.7,3.2c-0.1,0-0.3,0-0.4,0
		c-0.2,0-0.3,0-0.7,0c-1.2,0-1.6,0.6-1.9,1.8l-1.1,5h-3.5"/>
	<path class="st0" d="M155.9,252.3h7.3l-0.6,2.6h-4.1l-0.4,2.1h3.8l-0.5,2.5h-3.8l-0.5,2.4h4.2l-0.6,2.6h-7.4"/>
</g>
</svg>
