<?xml version="1.0" encoding="UTF-8"?>
<svg width="100px" height="60px" viewBox="0 0 100 60" version="1.1" xmlns="http://www.w3.org/2000/svg" xmlns:xlink="http://www.w3.org/1999/xlink">
    <!-- Generator: Sketch 52.4 (67378) - http://www.bohemiancoding.com/sketch -->
    <title>logo/server-monitoringnics</title>
    <desc>Created with Sketch.</desc>
    <defs>
        <polygon id="path-1" points="4.34026114e-05 0.0438327939 14.8656971 0.0438327939 14.8656971 14.9079755 4.34026114e-05 14.9079755"></polygon>
        <polygon id="path-3" points="0.0292487846 0.0166821148 6.30358038 0.0166821148 6.30358038 5.82036992 0.0292487846 5.82036992"></polygon>
        <polygon id="path-5" points="0 14.9561963 67.2130725 14.9561963 67.2130725 0.0920245399 0 0.0920245399"></polygon>
    </defs>
    <g id="logo/server-monitoringnics" stroke="none" stroke-width="1" fill="none" fill-rule="evenodd">
        <g id="Group-19" transform="translate(16.000000, 23.000000)">
            <g id="Group-3" transform="translate(0.000000, 0.048221)">
                <mask id="mask-2" fill="white">
                    <use xlink:href="#path-1"></use>
                </mask>
                <g id="Clip-2"></g>
                <path d="M8.13601761,13.4584417 C5.33510105,13.7054356 2.40123251,12.1549141 1.74751357,10.0140552 C3.42822912,11.4929816 5.3111789,12.214454 7.46702529,12.2141779 C9.62001942,12.2138098 11.4949645,11.4761411 13.1386007,10.0291472 C12.8152835,11.3769387 10.8203596,13.2217546 8.13601761,13.4584417 M3.84107034,9.07227607 C6.31701359,10.5513865 9.67780063,10.3329202 11.8790071,8.49068098 C11.9245512,8.45258282 11.9828845,8.42966871 12.0352372,8.39966871 C12.0395616,8.39009816 12.043702,8.38034356 12.0484864,8.37160123 C12.0519827,8.36525153 12.0559391,8.35973006 12.0601714,8.35476074 C12.0645878,8.34960736 12.0693723,8.34528221 12.0751688,8.34252147 C12.0871299,8.33681595 12.1024953,8.33690798 12.1237492,8.34684663 C12.1448191,8.38402454 12.13249,8.40942331 12.110592,8.43123313 C12.1033233,8.43850307 12.0950426,8.44540491 12.0864858,8.45239877 C11.9459891,8.92595706 11.6256163,9.28098773 11.2779169,9.60141718 C10.0069143,10.7722454 8.4896975,11.194638 6.79140837,11.0172147 C5.74886236,10.9081656 4.80494925,10.5408957 3.97770266,9.88926994 C3.45748775,9.47948466 3.05228322,8.98080368 2.79852434,8.35954601 C3.16085301,8.58141718 3.47938573,8.85611043 3.84107034,9.07227607 M3.76681965,6.66095706 C3.76902785,6.66252147 3.77123604,6.66417791 3.77335224,6.66583436 C3.77326023,6.66693865 3.77362826,6.6678589 3.77362826,6.66905521 C3.8317775,6.64476074 3.86784476,6.67973006 3.90087573,6.7226135 C4.60970765,7.11242945 5.33013261,7.46525153 6.13888553,7.61193865 C7.85898063,7.92380982 9.47483033,7.69476074 10.9612244,6.73476074 C11.0109088,6.70264417 11.0698861,6.68497546 11.1245391,6.66058896 C11.1374202,6.62350307 11.1530616,6.59092638 11.201826,6.61218405 C11.2256562,6.66123313 11.1918891,6.67926994 11.1579381,6.69730675 C11.1528776,6.84905521 11.0469761,6.94457669 10.9592002,7.04930061 C10.2500922,7.89509816 9.34528264,8.41227607 8.26022881,8.57746012 C7.06918141,8.75893252 5.94014761,8.56025153 4.92695225,7.87549693 C4.4949733,7.58350307 4.09961365,7.24641718 3.84751092,6.77368712 C3.7962623,6.7571227 3.77307621,6.72123313 3.77362826,6.66905521 C3.77105203,6.67015951 3.7685678,6.67071166 3.76580755,6.672 C3.76608358,6.66841104 3.76645161,6.66463804 3.76681965,6.66095706 C3.74979811,6.64834969 3.73277658,6.63565031 3.71474295,6.62230675 C3.77270818,6.59488344 3.77003994,6.62764417 3.76681965,6.66095706 M7.50649684,1.4666319 C9.02159746,1.48476074 9.76852081,2.77338037 9.75343145,3.73476074 C9.73346565,5.00414724 8.74051211,6.0176135 7.47723821,6.01669325 C6.21690857,6.01577301 5.21346609,4.99880982 5.21769847,3.72666258 C5.2136501,2.55822699 6.09481356,1.44969939 7.50649684,1.4666319 M7.46040069,0.0439325153 C3.34827391,0.0228588957 0.0930203874,3.34466871 0.00202418252,7.30181595 C-0.0911802215,11.3525521 3.11521689,14.9029509 7.43270619,14.9080123 C11.511342,14.9127055 14.8594318,11.6869693 14.8656884,7.48816564 C14.872129,3.11028221 11.3092917,0.0275521472 7.46040069,0.0439325153" id="Fill-1" fill="#F38222" mask="url(#mask-2)"></path>
            </g>
            <polygon id="Fill-4" fill="#2D5FA3" points="25.9245704 8.89338957 23.2212746 4.60661043 21.3812927 4.60661043 21.3812927 10.398911 22.7424634 10.398911 22.7424634 6.19228528 25.4786062 10.398911 27.3080991 10.398911 27.3080991 4.60661043 25.9245704 4.60661043"></polygon>
            <polygon id="Fill-6" fill="#2D5FA3" points="50.9653826 8.89338957 48.2620869 4.60661043 46.422105 4.60661043 46.422105 10.398911 47.7832757 10.398911 47.7832757 6.19228528 50.5194184 10.398911 52.3489114 10.398911 52.3489114 4.60661043 50.9653826 4.60661043"></polygon>
            <g id="Group-10" transform="translate(60.909492, 4.649448)">
                <mask id="mask-4" fill="white">
                    <use xlink:href="#path-3"></use>
                </mask>
                <g id="Clip-9"></g>
                <path d="M4.82393976,2.38390491 C4.48700538,2.3463589 4.15135912,2.35399693 3.81488478,2.34939571 C3.35567137,2.34304601 2.89489383,2.36034663 2.43761259,2.32795399 C2.04685336,2.3002546 1.78766599,2.01230982 1.78987419,1.68120552 C1.79199038,1.36482515 2.08126446,1.07642025 2.45021773,1.03243252 C2.55611928,1.01991718 5.9012649,1.02893558 5.9012649,1.02893558 L5.9012649,0.0204386503 C5.9012649,0.0204386503 3.09482785,0.0108680982 1.74699832,0.0222791411 C1.32228803,0.0258680982 0.946618155,0.199978528 0.611615948,0.463720859 C-0.142668064,1.05773926 -0.223635365,2.44160429 0.72165787,3.03350613 C1.08095027,3.25850613 1.45744821,3.39884356 1.88666692,3.39497853 C2.49935016,3.38945706 3.11267746,3.3806227 3.72499267,3.3997638 C4.2664615,3.41669632 4.6235457,3.63589877 4.61811721,4.16439571 C4.50071462,4.63970245 4.14731075,4.77276994 3.71496377,4.77479448 C2.74979674,4.77921166 0.819462689,4.77875153 0.819462689,4.77875153 L0.430359605,4.77875153 L0.430359605,5.81660429 L2.81374251,5.8162362 C2.81374251,5.8162362 4.07075985,5.83160429 4.69770438,5.80307669 C5.5740834,5.76304601 6.24491589,5.02482515 6.29929279,4.15252454 C6.36958713,3.02384356 5.5762916,2.46764724 4.82393976,2.38390491" id="Fill-8" fill="#2D5FA3" mask="url(#mask-4)"></path>
            </g>
            <path d="M30.0002067,4.69692331 C29.2310173,4.88189264 28.1544282,5.67137117 28.1536002,7.1002362 C28.1530481,7.94336503 28.1535081,9.62971472 28.1535081,9.62971472 L28.1535081,10.3989479 L29.6242608,10.3989479 L29.6242608,7.99747546 L33.5112432,7.99747546 L33.5112432,6.9840092 L29.5997865,6.9840092 C29.5807408,6.50575767 29.7345787,6.13793558 30.092399,5.87290491 C30.3598671,5.67477607 30.6795039,5.59508282 31.0047532,5.59002147 C31.7402676,5.57842638 33.5112432,5.59002147 33.5112432,5.59002147 L33.5112432,4.59854908 C31.7637297,4.60655521 30.802335,4.50394785 30.0002067,4.69692331" id="Fill-11" fill="#2D5FA3"></path>
            <path d="M57.5940283,4.62763804 C56.7797549,4.68193252 56.1339487,5.10506135 55.7851452,5.8642638 C55.2790076,6.96579755 55.2674145,8.09346626 55.771896,9.19923313 C56.0766275,9.86687117 56.5957383,10.3347239 57.3546227,10.368773 C58.3162935,10.4118405 60.2878472,10.3791718 60.2878472,10.3791718 L60.2878472,9.36340491 C60.2878472,9.36340491 58.8635588,9.36846626 58.1749687,9.36340491 C57.5182135,9.35861963 57.1678459,9.12027607 56.9749965,8.50435583 C56.7531645,7.79530675 56.7906119,7.08202454 57.0416105,6.38503067 C57.1986687,5.94911043 57.5078166,5.73855828 57.9881919,5.73855828 L60.2878472,5.73855828 L60.2878472,4.61429448 C60.2878472,4.61429448 58.4759278,4.56883436 57.5940283,4.62763804" id="Fill-13" fill="#2D5FA3"></path>
            <mask id="mask-6" fill="white">
                <use xlink:href="#path-5"></use>
            </mask>
            <g id="Clip-16"></g>
            <polygon id="Fill-15" fill="#2D5FA3" mask="url(#mask-6)" points="18.9746869 10.3989571 20.4907076 10.3989571 20.4907076 4.6252454 18.9746869 4.6252454"></polygon>
            <polygon id="Fill-17" fill="#2D5FA3" mask="url(#mask-6)" points="53.2325959 10.3989571 54.7486166 10.3989571 54.7486166 4.6252454 53.2325959 4.6252454"></polygon>
            <path d="M42.3283707,8.03182822 L43.075386,6.05716564 L43.8224014,8.03182822 L42.3283707,8.03182822 Z M38.173,6.96047853 C37.9978162,7.08848466 37.8005504,7.176 37.5774303,7.17664417 C36.9506698,7.17848466 35.6491204,7.17728834 35.6491204,7.17728834 L35.6491204,5.62455828 C35.6491204,5.62455828 37.0228963,5.616 37.7050458,5.63081595 C37.8689126,5.63431288 38.0278109,5.72707362 38.1655473,5.826 C38.5608149,6.11017178 38.5655994,6.67373006 38.173,6.96047853 Z M42.3151215,4.61799387 C42.3151215,4.61799387 40.8517295,8.17704294 40.091925,10.0247117 C39.6291233,9.3468589 38.7409672,8.07121472 38.7409672,8.07121472 C38.7409672,8.07121472 38.9433854,8.01471166 39.0134038,7.98701227 C39.9283343,7.62415951 40.2823822,6.99277914 40.1117068,6.03231902 C39.958513,5.17023313 39.2652305,4.60271779 38.3584887,4.60152147 C37.1328462,4.59995706 34.2758966,4.59857669 34.2758966,4.59857669 L34.2758966,10.3989755 L35.6618175,10.3989755 L35.6618175,8.17961963 L37.1880512,8.17961963 C37.6775353,8.91020245 38.661012,10.3989755 38.661012,10.3989755 L41.4040553,10.3989755 L41.9197618,9.10759509 L44.2811547,9.10759509 L44.7695348,10.3989755 L46.2366991,10.3989755 L43.7613999,4.61799387 L42.3151215,4.61799387 Z" id="Fill-18" fill="#2D5FA3" mask="url(#mask-6)"></path>
        </g>
    </g>
</svg>