<?xml version="1.0" encoding="UTF-8"?>
<svg width="100px" height="60px" viewBox="0 0 100 60" version="1.1" xmlns="http://www.w3.org/2000/svg" xmlns:xlink="http://www.w3.org/1999/xlink">
    <!-- Generator: Sketch 52.4 (67378) - http://www.bohemiancoding.com/sketch -->
    <title>logo/iriver</title>
    <desc>Created with Sketch.</desc>
    <g id="logo/iriver" stroke="none" stroke-width="1" fill="none" fill-rule="evenodd">
        <g id="Group" transform="translate(26.000000, 26.000000)" fill="#FF062E">
            <path d="M5.32705872,3.79866744 C5.32705872,3.79866744 8.17295199,3.82242955 9.49226915,3.81107311 C9.74487559,3.80891292 10.0030737,3.7660794 10.2483065,3.70195256 C10.9334961,3.52278007 11.2942483,2.95847622 11.2291765,2.2053716 C11.1730144,1.5544132 10.6986477,1.10058774 10.0114918,1.04189223 C9.93007525,1.03497962 9.76625896,1.03331319 9.76625896,1.03331319 L5.32705872,1.03331319 L5.32705872,3.79866744 Z M4.13708638,-5.77315973e-15 C4.13708638,-5.77315973e-15 7.96655329,0.000864891955 9.75802513,8.15189708e-07 C10.2017301,-0.000246063886 10.6362181,0.0555486073 11.0528866,0.213304337 C12.0772607,0.601274804 12.5516275,1.49905056 12.4760483,2.52409249 C12.3903919,3.68559682 11.8390942,4.29514126 10.6989549,4.57460837 C10.6204878,4.59380322 10.5434954,4.61898488 10.4150722,4.65595503 C11.3086268,5.76579991 13.1075337,7.99999383 13.1075337,7.99999383 L11.5443969,7.99246402 L9.07498617,4.8135256 L5.33854921,4.8135256 L5.33854921,7.97907083 L4.13708638,7.97907083 L4.13708638,-5.77315973e-15 Z M36.9558243,6.94212316 L36.9558243,7.98580445 L29.6405606,7.98580445 L29.6405606,0.0239542575 L36.9558243,0.0239542575 L36.9558243,1.0552916 L30.7863529,1.0552916 L30.7863529,3.3238017 L36.7442027,3.33059088 L36.7442027,4.35267025 L30.7867216,4.35267025 L30.7867216,6.9250885 L36.9558243,6.94212316 Z M0,7.98687838 L0,0.00027855415 L1.18530241,0.00027855415 L1.18530241,7.98687838 L0,7.98687838 Z M15.2524886,7.98687838 L15.2524886,0.00027855415 L16.4377296,0.00027855415 L16.4377296,7.98687838 L15.2524886,7.98687838 Z M26.3028375,0.0111597494 L27.6200655,0.0111597494 L23.8702946,7.99788301 L22.2815347,7.99788301 L18.5317638,0.0111597494 L19.8490533,0.0111597494 L23.0759146,7.10121821 L26.3028375,0.0111597494 Z M45.8076,4.6559612 C46.7011546,5.76574436 48.5,8 48.5,8 L46.9369247,7.99247019 L44.4674525,4.81353177 L40.731077,4.81353177 L40.731077,7.979077 L39.5296142,7.979077 L39.5296142,6.52703635e-06 C39.5296142,6.52703635e-06 43.3590811,0.000871063932 45.1505529,6.98716661e-06 C45.5942579,-0.00017817214 46.0286844,0.0554930595 46.4454144,0.213310509 C47.4697885,0.601280976 47.9440938,1.49905674 47.8685761,2.52409866 C47.7828582,3.68560299 47.231622,4.29514743 46.0914827,4.57461454 C46.013077,4.59380939 45.9360231,4.61892934 45.8076,4.6559612 Z M45.6408343,3.70195873 C45.6467946,3.70041574 45.6522633,3.69825554 45.6581008,3.69671255 C45.6596369,3.69628051 45.6611116,3.69591019 45.6625863,3.69547815 C45.666396,3.69442892 45.6698985,3.69300936 45.6735853,3.69196013 C45.7114977,3.68115917 45.7486729,3.66943241 45.7844961,3.6562861 C45.7888588,3.65468139 45.7929758,3.65276807 45.797277,3.65116336 C45.8319943,3.63801705 45.8659742,3.6241301 45.8986637,3.6088236 C45.9073276,3.60475009 45.9154386,3.60018283 45.9239182,3.59598589 C45.9510161,3.58265442 45.9778682,3.56907607 46.0034914,3.5542016 C46.0193446,3.54506708 46.034276,3.53494503 46.0495762,3.52525503 C46.0664125,3.51451579 46.0835561,3.50414687 46.0996551,3.49272871 C46.123865,3.47575578 46.1467845,3.45754844 46.1695197,3.43909423 C46.1754186,3.43421837 46.181809,3.42971283 46.1876464,3.42471353 C46.5125754,3.14981368 46.6676663,2.72444103 46.6220115,2.21056223 C46.6218886,2.20883408 46.6218886,2.20710593 46.6217657,2.20531605 C46.6217043,2.20488401 46.6215814,2.20439026 46.6215814,2.20395822 C46.6209055,2.19698388 46.620844,2.19031815 46.6201681,2.18334381 C46.6174645,2.15655743 46.6129175,2.13057341 46.6087391,2.10446595 C46.6075102,2.09687442 46.6067728,2.08909773 46.605421,2.0815062 C46.6005053,2.05379402 46.5942992,2.02682248 46.5877244,1.99997438 C46.5849593,1.98830934 46.5826858,1.97639743 46.5796135,1.96497927 C46.5741447,1.94485863 46.56757,1.9254169 46.561241,1.90585173 C46.5555879,1.88819988 46.5503649,1.87030115 46.5439745,1.85308133 C46.5400419,1.84246553 46.5353106,1.83228177 46.5310093,1.82178941 C46.3545965,1.38098682 45.9460389,1.08818823 45.4040196,1.04189841 C45.3643866,1.03850382 45.305398,1.03640535 45.2551962,1.03510923 C45.2408792,1.03467719 45.2266236,1.03443031 45.2122452,1.03412172 C45.1806617,1.03350452 45.1587253,1.03331936 45.1587253,1.03331936 L45.1370347,1.03331936 C45.1165116,1.0331342 45.0959884,1.03264044 45.0755268,1.03257872 C43.7152863,1.03085057 42.3550457,1.02961617 40.9948667,1.02998649 C40.9699809,1.02998649 40.945095,1.03134433 40.9202092,1.03331936 L40.7195865,1.03331936 L40.7195865,3.79861189 C40.7195865,3.79861189 40.7271444,3.79873533 40.7411542,3.79879705 C40.801126,3.80836361 40.8296986,3.81589342 40.8578411,3.81589342 C41.9326627,3.8158317 43.0075458,3.81848565 44.082306,3.81410355 C44.3805057,3.81391839 44.6557245,3.81299259 44.8847355,3.81107928 C44.9204973,3.81077068 44.9564435,3.80941285 44.9923897,3.80749953 C45.1954703,3.80040176 45.4013774,3.76374022 45.5991736,3.71232765 C45.6130605,3.70880962 45.6270088,3.7056002 45.6408343,3.70195873 Z" id="Combined-Shape"></path>
        </g>
    </g>
</svg>