<?xml version="1.0" encoding="UTF-8"?>
<svg width="100px" height="60px" viewBox="0 0 100 60" version="1.1" xmlns="http://www.w3.org/2000/svg" xmlns:xlink="http://www.w3.org/1999/xlink">
    <title>logo/kaist</title>
    <defs>
        <linearGradient x1="-0.00218010886%" y1="49.8632676%" x2="99.9930888%" y2="49.8632676%" id="linearGradient-1">
            <stop stop-color="#59BDEC" offset="0%"></stop>
            <stop stop-color="#59BDEC" offset="5%"></stop>
            <stop stop-color="#49B3E6" offset="11.25%"></stop>
            <stop stop-color="#219AD6" offset="28.2%"></stop>
            <stop stop-color="#098BCD" offset="41.71%"></stop>
            <stop stop-color="#0085C9" offset="50%"></stop>
            <stop stop-color="#0080C6" offset="52.71%"></stop>
            <stop stop-color="#006CB7" offset="67.09%"></stop>
            <stop stop-color="#005FAE" offset="81.29%"></stop>
            <stop stop-color="#005BAB" offset="95%"></stop>
            <stop stop-color="#005BAB" offset="100%"></stop>
        </linearGradient>
    </defs>
    <g id="logo/kaist" stroke="none" stroke-width="1" fill="none" fill-rule="evenodd">
        <g id="kaist_logo" transform="translate(15.000000, 20.000000)" fill-rule="nonzero">
            <path d="M0,17.5 C0,17.5 14.9482759,15.0517241 34.8275862,15.0517241 C54.7586207,15.0517241 69.6896552,17.5 69.6896552,17.5 C69.6896552,17.5 54.7586207,19.9482759 34.8275862,19.9482759 C14.9482759,19.9482759 0,17.5 0,17.5 Z" id="Path" fill="url(#linearGradient-1)"></path>
            <g id="Group" transform="translate(7.413793, 0.000000)" fill="#004294">
                <rect id="Rectangle" x="25.7931034" y="0.0689655172" width="3.25862069" height="12.2758621"></rect>
                <polygon id="Path" points="43.2413793 0.0689655172 43.2413793 2.62068966 47.3448276 2.62068966 47.3448276 12.3448276 50.6034483 12.3448276 50.6034483 2.62068966 54.7068966 2.62068966 54.7068966 0.0689655172"></polygon>
                <path d="M38.6896552,4.9137931 L35.9655172,4.9137931 C35.2413793,4.9137931 34.6551724,4.62068966 34.6551724,3.75862069 C34.6551724,2.9137931 35.2413793,2.60344828 35.9655172,2.60344828 L41.8275862,2.60344828 L41.8275862,0.0689655172 L35.5862069,0.0689655172 C33.2586207,0.0689655172 31.362069,1.4137931 31.362069,3.77586207 C31.362069,6.13793103 33.2586207,7.48275862 35.5862069,7.48275862 L38.3965517,7.48275862 C39.1206897,7.48275862 39.7068966,7.77586207 39.7068966,8.63793103 C39.7068966,9.48275862 39.1206897,9.79310345 38.3965517,9.79310345 L31.8275862,9.79310345 L31.8275862,12.3448276 L38.7068966,12.3448276 C41.0344828,12.3448276 42.9310345,11 42.9310345,8.63793103 C42.9137931,6.27586207 41.0172414,4.9137931 38.6896552,4.9137931" id="Path"></path>
                <polygon id="Path" points="15.862069 0.0689655172 11.2586207 11.1034483 6.84482759 6.20689655 12.3448276 0.0689655172 8.62068966 0.0689655172 3.4137931 5.89655172 3.4137931 0.0689655172 0.155172414 0.0689655172 0.155172414 12.3448276 3.4137931 12.3448276 3.4137931 6.51724138 8.62068966 12.3448276 14.0517241 12.3448276 17.7931034 3.0862069 20.5 9.87931034 16.1896552 9.87931034 17.2068966 12.3448276 24.8448276 12.3448276 19.7068966 0.0689655172"></polygon>
            </g>
        </g>
    </g>
</svg>