<?xml version="1.0" encoding="UTF-8"?>
<svg width="100px" height="60px" viewBox="0 0 100 60" version="1.1" xmlns="http://www.w3.org/2000/svg" xmlns:xlink="http://www.w3.org/1999/xlink">
    <!-- Generator: Sketch 59.1 (86144) - https://sketch.com -->
    <title>logo/kb</title>
    <desc>Created with Sketch.</desc>
    <g id="logo/kb" stroke="none" stroke-width="1" fill="none" fill-rule="evenodd">
        <g transform="translate(23.000000, 18.000000)">
            <polygon id="Fill-3" fill="#877E72" points="0.312031158 6.51467462 1.59639396 6.51467462 1.59639396 10.5161518 6.38526422 6.51467462 8.26038937 6.51467462 3.20040061 10.5523379 8.68153575 15.4566827 6.8055202 15.4566827 1.59639396 10.6631302 1.59639396 15.4566827 0.312031158 15.4566827"></polygon>
            <g id="Group-8" transform="translate(9.348915, 0.041994)">
                <path d="M1.60632162,14.3997335 L4.68166937,14.3997335 C6.42012232,14.3997335 6.88044507,13.7193438 6.88044507,12.8517689 C6.88044507,11.8233665 6.17348905,11.2546626 4.60732324,11.2546626 L1.60632162,11.2546626 L1.60632162,14.3997335 Z M1.60632162,10.2392158 L4.77070665,10.2392158 C5.8440511,10.2392158 6.63514735,9.82910573 6.63514735,8.87620283 C6.63514735,8.04570758 6.24560924,7.48951254 4.60732324,7.48951254 L1.60632162,7.48951254 L1.60632162,10.2392158 Z M0.32373956,6.47272545 L4.70214794,6.47272545 C6.78606555,6.47272545 7.87543672,7.16607061 7.87543672,8.68544355 C7.87543672,9.7652214 7.12574278,10.5072616 6.12540891,10.7091894 L6.12540891,10.7476094 C7.5575736,10.9191587 8.23470217,11.8604462 8.23470217,12.9259283 C8.23470217,14.2616898 7.26152464,15.4142868 4.8410461,15.4142868 L0.32373956,15.4142868 L0.32373956,6.47272545 Z" id="Fill-4" fill="#877E72" fill-rule="nonzero"></path>
                <path d="M22.5985528,12.1075844 C22.6314965,14.4239469 22.7481354,17.0686655 23.1545906,19.1705914 C23.1545906,19.1777392 23.1581521,19.195609 23.167501,19.2099048 C23.4902611,19.6834523 23.8254865,21.5669209 24.0903724,22.1566216 C24.1006117,22.1740447 24.1188643,22.1914676 24.1482466,22.2146983 C24.3316635,22.3393396 24.9620474,22.5908559 25.3756256,22.5408206 C25.4125761,22.5381402 25.4250413,22.5149095 25.4272672,22.4952529 C25.519866,22.0091965 25.4606562,21.5535186 25.4050079,20.6573521 C25.2607675,18.4580362 25.1005004,14.959145 25.1263212,12.8389027 C26.8402889,13.7976132 33.2705615,18.4245305 36.6237055,19.3796671 C36.6967161,19.4011108 36.779966,19.3881552 36.8360595,19.3345461 C37.0145792,19.1473607 37.1298825,19.1147485 37.3302164,19.0294206 C37.4232604,18.9860865 37.5327762,18.7390376 37.5082909,18.4544624 C39.6318301,18.3744953 42.578519,17.5574023 44.1242062,15.6073691 C45.1877566,14.2671401 45.1699492,12.401988 44.5066214,11.7716336 C44.4447405,11.7166843 44.3200883,11.6854123 44.2283799,11.5951702 C43.2155808,10.581957 41.8404,10.310784 40.3668329,10.3974521 C38.8692259,10.4885877 37.6703388,11.1162617 36.7398992,11.7050689 C36.7376733,11.7077494 36.7309955,11.7090896 36.7287695,11.6988145 C36.648636,10.2629825 37.2207005,8.43893077 36.7194206,7.25997598 C36.6993872,7.21172774 36.6651079,7.19564499 36.6156922,7.19564499 C36.1678347,7.20323962 35.29705,7.5190869 35.1096265,7.68348832 C35.0659983,7.72056802 35.0446294,7.7585412 35.0406226,7.8367212 C35.0357256,8.17177845 34.9346683,9.91675665 34.7672782,10.0842853 C34.7365603,10.116004 34.7459092,10.1486163 34.7365603,10.2200952 C34.5393427,12.3215743 34.5455754,14.1022919 34.7227596,15.6104963 C34.7294374,15.661425 34.9346683,15.873628 35.175069,15.9607429 C35.3411235,16.0219466 36.0053416,15.8847965 36.5765158,15.6685729 C36.6562042,15.6395346 36.751474,15.6346204 36.7982186,15.6305998 C36.856538,15.6256856 36.8792425,15.5577806 36.8743455,15.4880887 C36.8694484,15.3880183 36.8641062,15.1047832 36.889927,14.9953312 C37.2158035,13.6631435 38.5709509,11.929334 40.2800215,11.6653088 C41.367612,11.4942062 42.0861429,11.8694704 42.5847517,12.4189643 C42.7143009,12.5619221 42.869671,13.6336585 42.2517522,14.7951904 C41.8065658,15.6346204 40.9063989,16.3712997 39.6910399,16.8309983 C38.4115742,17.3188416 37.126321,17.4220393 35.7952136,17.373791 C34.4974952,16.58797 32.3205337,14.7688325 30.4111291,14.0433218 C30.105286,13.9249349 29.5670557,13.4509406 29.3279906,13.2579476 C28.4006673,12.5100998 26.417807,11.2132049 25.2402889,10.418449 C25.2327208,10.4108544 25.2327208,10.4032598 25.2327208,10.3853901 C25.2175844,10.2254561 25.2349467,10.1937374 25.2478571,10.137001 C25.2625483,10.0824983 25.2981631,10.0601612 25.3386751,10.0329098 C25.7518081,9.75816292 27.4942678,8.80213283 27.6438504,8.57697435 C27.695492,8.5251522 27.7987753,8.46484185 27.8397324,8.44339822 C30.4578737,6.85120613 35.0521975,4.69433088 37.0599883,2.60848776 C37.0849187,2.58347015 37.088035,2.53879586 37.088035,2.48608018 C37.088035,2.39762507 37.1058424,2.30425577 37.126321,2.23545735 C37.2117968,1.94060696 37.2207005,1.71991592 37.14769,1.45678428 C37.1374507,1.41702416 37.0969387,1.37503031 37.0693372,1.37100962 C35.9968831,1.26557827 34.5722866,1.91961004 33.247857,3.16691653 C32.8552026,3.53637299 32.538675,3.6735231 32.1892037,3.87321722 C30.6871447,4.72962358 27.1323312,6.94457542 25.4352806,8.03954257 C25.4125761,8.0547318 25.3916523,8.04356325 25.3916523,8.01899235 C25.4944904,6.01669018 25.8786862,3.16334258 26.3016133,0.96134628 C26.3136334,0.885846713 26.2891481,0.830003835 26.2713406,0.801412283 C26.1328877,0.593230043 26.0518638,0.343500701 26.0011125,0.291231768 C25.9939895,0.282296909 25.9899829,0.278276221 25.9779628,0.272021819 C25.6912627,0.125936855 25.4606562,0.179992759 25.2478571,0.230474719 C25.0355032,0.278276221 24.7715077,0.448932051 24.4349467,0.529792536 C24.3864214,0.540961111 24.3632717,0.565085234 24.3463546,0.600824675 C23.516082,2.62367702 22.7850859,6.08727558 22.6470781,8.7713076 C22.6470781,8.7806892 22.6470781,8.79989918 22.6288255,8.78828385 C20.9620475,7.70761245 19.4261544,6.94055473 18.4934888,6.48308989 C18.4681132,6.4728148 18.4529769,6.47058109 18.4298272,6.4665604 C18.1186419,6.42680027 17.7544794,6.19762111 17.4174733,5.99479978 C17.0452974,5.7696413 16.3120754,5.24873895 15.8553142,4.98426709 C15.7965496,4.94674068 15.7453531,4.93914604 15.6990537,4.94674068 C15.3331105,5.00973144 14.5709513,5.52169893 14.359933,5.85228876 C14.2922647,5.95459291 14.4320532,6.1819851 14.4155812,6.32270915 C14.4120198,6.33968538 14.4178072,6.35398116 14.4276013,6.3638095 C14.8531995,6.80251114 15.9732886,7.578057 17.1690592,8.22226042 C18.5491372,8.97010823 19.9550358,9.67908938 20.5373397,10.0503329 C20.5627153,10.0677558 20.5627153,10.0740102 20.5725094,10.0869658 C20.6410681,10.166486 20.6971616,10.2102668 20.8854754,10.3232928 C21.1606006,10.4885877 21.2180297,10.5073509 21.2981632,10.5774895 C21.3351137,10.6127823 21.3177514,10.6520956 21.2799106,10.6784535 C19.8183636,11.6988145 16.9161934,13.5898777 15.5307733,14.5226771 C15.329549,14.6562533 14.5446853,15.0082867 14.3817471,15.073958 C14.0291595,15.2213832 13.7126319,15.4536895 13.5893153,15.7208419 C13.5657204,15.7722173 13.5986642,15.7985752 13.6351695,15.8097437 C13.8582079,15.873628 13.9125206,16.0308815 14.0665551,16.0920853 C14.1155257,16.1095083 14.1667221,16.1095083 14.2419586,16.1121887 C14.5308846,16.1215703 15.0397326,15.9263437 15.9483581,15.5256152 C16.9856425,15.0641297 20.2132439,13.0770167 20.6036725,12.848731 C20.6107954,12.8438169 20.6161377,12.8420299 20.6299384,12.8420299 C20.8164715,12.8424767 20.9905394,12.7004124 21.1632718,12.5681764 C21.352476,12.4189643 21.8074565,12.1388564 22.0799106,12.0191293 L22.6065661,11.7260659 L22.5985528,12.1075844 Z" id="Fill-6" fill="#F7B500"></path>
            </g>
        </g>
    </g>
</svg>