<?xml version="1.0" encoding="utf-8"?>
<!-- Generator: Adobe Illustrator 26.3.1, SVG Export Plug-In . SVG Version: 6.00 Build 0)  -->
<svg version="1.1" id="_이어_1" xmlns="http://www.w3.org/2000/svg" xmlns:xlink="http://www.w3.org/1999/xlink" x="0px" y="0px"
	 viewBox="0 0 84 13.9" style="enable-background:new 0 0 84 13.9;" xml:space="preserve">
<style type="text/css">
	.st0{enable-background:new    ;}
	.st1{fill:#766C61;}
	.st2{fill:#F7B400;}
</style>
<g>
	<g class="st0">
		<g>
			<path class="st1" d="M28,4.1h1v3.1l3.8-3.1h1.5l-4,3.2l4.3,3.9h-1.5l-4.1-3.8v3.8h-1V4.1z"/>
		</g>
		<g>
			<path class="st1" d="M35.4,4.1h3.5c1.6,0,2.5,0.5,2.5,1.7c0,0.8-0.6,1.4-1.4,1.6v0c1.1,0.1,1.7,0.9,1.7,1.7c0,1.1-0.8,2-2.7,2
				h-3.6V4.1z M36.4,7h2.5c0.8,0,1.5-0.3,1.5-1.1c0-0.7-0.3-1.1-1.6-1.1h-2.4V7z M36.4,10.3h2.4c1.4,0,1.7-0.5,1.7-1.2
				c0-0.8-0.6-1.3-1.8-1.3h-2.4V10.3z"/>
		</g>
	</g>
	<path class="st2" d="M14.5,7.7c0,1.1,0.1,2.3,0.3,3.3c0,0,0,0,0,0c0.2,0.2,0.3,1.1,0.4,1.4c0,0,0,0,0,0c0.1,0.1,0.4,0.2,0.6,0.2
		c0,0,0,0,0,0c0-0.2,0-0.4,0-0.9c-0.1-1-0.1-2.7-0.1-3.6c0.8,0.4,3.8,2.6,5.4,3c0,0,0.1,0,0.1,0c0.1-0.1,0.1-0.1,0.2-0.1
		c0,0,0.1-0.1,0.1-0.3c1,0,2.4-0.4,3.1-1.3c0.5-0.6,0.5-1.5,0.2-1.8c0,0-0.1,0-0.1-0.1c-0.5-0.5-1.1-0.6-1.8-0.6
		c-0.7,0-1.3,0.3-1.7,0.6c0,0,0,0,0,0c0-0.7,0.2-1.5,0-2.1c0,0,0,0,0,0c-0.2,0-0.6,0.2-0.7,0.2c0,0,0,0,0,0.1c0,0.2-0.1,1-0.1,1
		c0,0,0,0,0,0.1c-0.1,1-0.1,1.8,0,2.5c0,0,0.1,0.1,0.2,0.2c0.1,0,0.4,0,0.7-0.1c0,0,0.1,0,0.1,0c0,0,0,0,0-0.1c0,0,0-0.2,0-0.2
		c0.2-0.6,0.8-1.4,1.6-1.5c0.5-0.1,0.8,0.1,1.1,0.4c0.1,0.1,0.1,0.6-0.2,1.1c-0.2,0.4-0.6,0.7-1.2,0.9c-0.6,0.2-1.2,0.3-1.8,0.3
		c-0.6-0.4-1.6-1.2-2.5-1.5c-0.1-0.1-0.4-0.3-0.5-0.4c-0.4-0.3-1.4-1-1.9-1.3c0,0,0,0,0,0c0-0.1,0-0.1,0-0.1c0,0,0,0,0,0
		c0.2-0.1,1-0.6,1.1-0.7C16.9,6,16.9,6,17,6c1.2-0.7,3.4-1.7,4.3-2.7c0,0,0,0,0-0.1c0,0,0-0.1,0-0.1c0-0.1,0-0.2,0-0.4c0,0,0,0,0,0
		c-0.5,0-1.2,0.3-1.8,0.8c-0.2,0.2-0.3,0.2-0.5,0.3c-0.7,0.4-2.4,1.4-3.2,1.9c0,0,0,0,0,0c0-0.9,0.2-2.3,0.4-3.3c0,0,0-0.1,0-0.1
		c-0.1-0.1-0.1-0.2-0.1-0.2c0,0,0,0,0,0c-0.1-0.1-0.2,0-0.3,0c-0.1,0-0.2,0.1-0.4,0.1c0,0,0,0,0,0c-0.4,0.9-0.7,2.6-0.8,3.8
		c0,0,0,0,0,0c-0.8-0.5-1.5-0.9-1.9-1.1c0,0,0,0,0,0c-0.1,0-0.3-0.1-0.5-0.2c-0.2-0.1-0.5-0.3-0.7-0.5c0,0-0.1,0-0.1,0
		c-0.2,0-0.5,0.3-0.6,0.4c0,0,0,0.2,0,0.2c0,0,0,0,0,0c0.2,0.2,0.7,0.6,1.3,0.9c0.6,0.3,1.3,0.7,1.6,0.9c0,0,0,0,0,0
		c0,0,0.1,0.1,0.1,0.1C13.8,6.9,13.9,7,13.9,7c0,0,0,0,0,0c-0.7,0.5-2,1.4-2.7,1.8c-0.1,0.1-0.5,0.2-0.5,0.3
		c-0.2,0.1-0.3,0.2-0.4,0.3c0,0,0,0,0,0c0.1,0,0.1,0.1,0.2,0.1c0,0,0,0,0.1,0c0.1,0,0.4-0.1,0.8-0.3c0.5-0.2,2-1.1,2.2-1.2
		c0,0,0,0,0,0c0.1,0,0.2-0.1,0.2-0.1c0.1-0.1,0.3-0.2,0.4-0.3l0.2-0.1L14.5,7.7z"/>
	<g id="YCkxsf.tif" class="st0">
		<g>
			<path class="st1" d="M72.7,4.1C72.8,4.1,72.8,4.1,72.7,4.1c0.3,0,0.6,0,0.9,0c0.1,0,0.1,0,0.1,0.1c0,1.2,0,2.4,0,3.6
				c0,1.1,0,2.1,0,3.2c0,0.1,0,0.1-0.1,0.1c-0.3,0-0.5,0-0.8,0c0,0,0,0-0.1,0c0,0,0-0.1,0-0.1c0-1.2,0-2.5,0-3.7
				c0-0.1,0-0.1-0.1-0.1c-0.3,0-0.6,0-1,0c-0.1,0-0.1,0-0.1,0.1c-0.1,0.4-0.2,0.8-0.5,1.1C70.8,8.7,70.5,9,70,9.1
				c-0.4,0.1-0.7,0.1-1.1,0.1c-0.3,0-0.6-0.1-0.8-0.3c-0.4-0.2-0.6-0.5-0.8-0.9c-0.2-0.3-0.2-0.7-0.3-1c0-0.3,0-0.6,0.1-0.9
				c0.2-0.6,0.6-1.1,1.2-1.4c0.4-0.2,0.9-0.3,1.4-0.2c0.3,0,0.6,0.1,0.8,0.2c0.4,0.2,0.6,0.5,0.8,0.8c0.2,0.3,0.2,0.5,0.3,0.8
				c0,0.1,0,0.1,0.1,0.1c0.3,0,0.7,0,1,0c0.1,0,0.1,0,0.1-0.1C72.7,5.6,72.7,4.9,72.7,4.1C72.7,4.2,72.7,4.2,72.7,4.1z M68,6.8
				C68,6.8,68,6.8,68,6.8C68,7,68,7.2,68,7.4c0.1,0.2,0.2,0.5,0.3,0.6c0.2,0.2,0.4,0.3,0.6,0.3c0.3,0.1,0.5,0.1,0.8,0
				c0.4-0.1,0.7-0.4,0.8-0.8c0.1-0.3,0.1-0.5,0.1-0.8c0-0.3-0.1-0.5-0.2-0.8c-0.2-0.3-0.4-0.5-0.7-0.6c-0.2-0.1-0.5-0.1-0.7-0.1
				c-0.4,0.1-0.8,0.3-0.9,0.7C68,6.2,68,6.5,68,6.8z"/>
			<path class="st1" d="M59.5,9.7C59.5,9.7,59.5,9.7,59.5,9.7c0-0.3,0-0.5,0-0.8c0,0,0-0.1,0.1-0.1c0.3-0.1,0.6-0.2,0.9-0.4
				c0.2-0.2,0.4-0.3,0.6-0.6c0.2-0.3,0.4-0.6,0.5-0.9c0,0,0,0,0-0.1c-0.1,0-0.1,0-0.2,0c-0.6,0.1-1.2,0.1-1.8,0.1c0,0-0.1,0-0.1-0.1
				c0-0.2,0-0.4,0-0.6c0-0.1,0-0.1,0.1-0.1c0.2,0,0.4,0,0.6,0c0.5,0,0.9,0,1.4-0.1c0.1,0,0.1,0,0.2,0c0,0,0,0,0,0c0-0.3,0-0.7,0-1
				c0-0.1,0,0-0.1,0c-0.7,0-1.4,0-2.1,0c-0.1,0-0.1,0-0.1-0.1c0-0.2,0-0.4,0-0.7c0-0.1,0-0.1,0.1-0.1c1,0,2,0,3,0c0,0,0,0,0.1,0
				c0,0.7,0,1.4-0.1,2.1c0,0,0.1,0,0.1,0c0.2,0,0.5,0,0.7,0c0.1,0,0.1,0,0.1-0.1c0-0.7,0-1.4,0-2.2c0-0.1,0-0.1,0.1-0.1
				c0.2,0,0.5,0,0.7,0c0.1,0,0.1,0,0.1,0.1c0,1.4,0,2.8,0,4.3c0,0.8,0,1.2,0,2c0,0.1,0,0.1-0.1,0.1c-0.2,0-0.5,0-0.7,0
				c-0.1,0-0.1,0-0.1-0.1c0-1.2,0-1.9,0-3.1c0-0.1,0-0.1-0.1-0.1c-0.3,0-0.6,0-0.9,0c-0.1,0-0.1,0-0.1,0.1c-0.1,0.3-0.2,0.6-0.4,0.8
				c-0.4,0.6-1,1.1-1.7,1.4C60,9.6,59.8,9.7,59.5,9.7C59.5,9.7,59.5,9.7,59.5,9.7z"/>
			<path class="st1" d="M44.9,8.8c0-0.3,0-0.5,0-0.8c0,0,0,0,0.1,0c1.8,0,3.7,0,5.5,0c0.1,0,0.1,0,0.1,0.1c0,0.6,0,1.2,0,1.7
				c0,0.1,0,0.1-0.1,0.1c-1.5,0-3,0-4.5,0c-0.1,0-0.1,0-0.1,0.1c0,0.1,0,0.2,0,0.2c0,0,0,0.1,0.1,0.1c0,0,0,0,0.1,0c1.5,0,3,0,4.6,0
				c0,0,0.1,0,0.1,0c0,0,0,0,0,0.1c0,0.2,0,0.4,0,0.6c0,0.1,0,0.1-0.1,0.1c-1.9,0-3.7,0-5.6,0c-0.1,0-0.1,0-0.1-0.1
				c0-0.6,0-1.2,0-1.8c0-0.1,0-0.1,0.1-0.1c1.5,0,3,0,4.5,0c0.1,0,0.1,0,0.1-0.1c0-0.1,0-0.1,0-0.2c0,0,0-0.1-0.1-0.1c0,0,0,0-0.1,0
				C48,8.8,46.5,8.8,44.9,8.8C45,8.8,45,8.8,44.9,8.8z"/>
			<path class="st1" d="M44.1,5.3c-0.1,0-0.1,0-0.2,0c-0.1,0-0.3,0-0.4,0c0-0.1,0-0.3,0-0.4c0-0.1,0-0.2,0-0.2c0-0.1,0-0.1,0.1-0.1
				c0.5,0,1,0,1.5,0c0.1,0,0.1,0,0.1-0.1c0-0.2,0-0.4,0-0.6c0,0,0,0,0-0.1c0,0,0,0,0.1,0c0.3,0,0.6,0,0.8,0c0,0,0.1,0,0.1,0.1
				c0,0.2,0,0.4,0,0.6c0,0.1,0,0.1,0.1,0.1c0.5,0,1,0,1.5,0c0.1,0,0.1,0,0.1,0.1c0,0.2,0,0.4,0,0.6c0,0,0,0.1-0.1,0.1
				c-0.2,0-0.4,0-0.5,0c0,0,0,0-0.1,0c0,0,0,0,0,0.1c0.1,0.1,0.1,0.3,0.2,0.5c0,0,0,0.1,0.1,0.1c0.2,0,0.4,0,0.7,0
				c0.1,0,0.1,0,0.1-0.1c0-0.6,0-1.1,0-1.7c0-0.1,0-0.1,0.1-0.1c0.3,0,0.5,0,0.8,0c0.1,0,0.1,0,0.1,0.1c0,1.2,0,2.4,0,3.5
				c0,0,0,0,0,0.1c-0.3,0-0.6,0-0.9,0c0,0,0,0,0-0.1c0-0.3,0-0.6,0-0.9c0-0.1,0-0.1-0.1-0.1c-0.3,0-0.5,0-0.8,0c0,0-0.1,0-0.1,0
				c-0.2,0.4-0.5,0.7-0.9,0.8c-0.3,0.1-0.6,0.1-1,0.1c-0.3,0-0.5-0.1-0.7-0.2c-0.4-0.2-0.6-0.5-0.7-0.9C43.8,6.1,43.9,5.7,44.1,5.3
				C44.1,5.4,44.1,5.3,44.1,5.3z M45.6,5.3c-0.1,0-0.2,0-0.3,0c-0.3,0.1-0.5,0.2-0.5,0.5c0,0.1,0,0.2,0,0.4c0,0.3,0.2,0.4,0.4,0.5
				c0.2,0.1,0.5,0.1,0.7,0c0.2-0.1,0.4-0.2,0.5-0.5c0-0.2,0-0.3,0-0.5c0-0.2-0.1-0.4-0.3-0.5C46,5.4,45.8,5.3,45.6,5.3z"/>
			<path class="st1" d="M55.1,6.6C55.1,6.8,55,6.9,54.9,7c-0.2,0.2-0.4,0.4-0.6,0.6c-0.4,0.3-0.9,0.5-1.3,0.6
				c-0.3,0.1-0.6,0.1-0.8,0.1c0,0,0,0,0,0c0-0.3,0-0.6,0-0.9c0.1,0,0.2,0,0.3,0c0.5-0.1,1-0.3,1.4-0.6c0.4-0.3,0.6-0.7,0.7-1.1
				c0-0.2,0.1-0.3,0.1-0.5c0-0.3,0-0.6,0-0.9c0,0,0,0,0-0.1c0.3,0,0.7,0,1,0c0,0,0,0,0,0.1c0,0.3,0,0.6,0,0.9c0,0.4,0.1,0.8,0.4,1.2
				c0.3,0.4,0.7,0.7,1.3,0.9c0.2,0.1,0.5,0.1,0.7,0.1c0.1,0,0.1,0,0.1,0.1c0,0.2,0,0.5,0,0.7c0,0,0,0,0,0.1c-0.1,0-0.3,0-0.4,0
				C57.3,8.2,57,8.1,56.6,8c-0.5-0.2-0.9-0.5-1.2-0.9C55.3,7,55.2,6.8,55.1,6.6C55.1,6.7,55.1,6.7,55.1,6.6z"/>
			<path class="st1" d="M66,7.6c0,1.1,0,2.3,0,3.4c0,0.1,0,0.1-0.1,0.1c-0.2,0-0.5,0-0.7,0c-0.1,0-0.1,0-0.1-0.1c0-1.4,0-2.7,0-4.1
				c0-0.9,0-1.8,0-2.7c0-0.1,0-0.1,0.1-0.1c0.2,0,0.5,0,0.7,0c0.1,0,0.1,0,0.1,0.1C66,5.4,66,6.5,66,7.6z"/>
			<path class="st1" d="M55.1,9.5c1.1,0,2.3,0,3.4,0c0.1,0,0.1,0,0.1,0.1c0,0.2,0,0.4,0,0.7c0,0.1,0,0.1-0.1,0.1c-2.3,0-4.6,0-6.9,0
				c-0.1,0-0.1,0-0.1-0.1c0-0.2,0-0.5,0-0.7c0-0.1,0-0.1,0.1-0.1C52.8,9.5,53.9,9.5,55.1,9.5z"/>
			<path class="st1" d="M50.6,5.9c0,0.6,0,1.2,0,1.8c0,0.1,0,0.1-0.1,0.1c-0.2,0-0.5,0-0.7,0c0,0-0.1,0-0.1-0.1c0-1.2,0-2.4,0-3.5
				c0-0.1,0-0.1,0.1-0.1c0.2,0,0.5,0,0.7,0c0.1,0,0.1,0,0.1,0.1C50.6,4.7,50.6,5.3,50.6,5.9z"/>
		</g>
	</g>
</g>
</svg>
