<?xml version="1.0" encoding="UTF-8"?>
<svg width="100px" height="60px" viewBox="0 0 100 60" version="1.1" xmlns="http://www.w3.org/2000/svg" xmlns:xlink="http://www.w3.org/1999/xlink">
    <!-- Generator: Sketch 55.2 (78181) - https://sketchapp.com -->
    <title>logo/kcdc</title>
    <desc>Created with Sketch.</desc>
    <defs>
        <polygon id="path-1" points="0 23.5471698 76.8810566 23.5471698 76.8810566 0.0262641509 0 0.0262641509"></polygon>
    </defs>
    <g id="logo/kcdc" stroke="none" stroke-width="1" fill="none" fill-rule="evenodd">
        <g transform="translate(12.000000, 18.000000)">
            <path d="M35.0463396,6.70455849 L36.0067925,6.70455849 L36.0067925,3.03255849 L35.0463396,3.03255849 L35.0463396,6.70455849 Z M29.9248302,7.06953962 L36.0063396,7.06953962 L36.0063396,9.18561509 L30.8848302,9.18561509 L30.8848302,9.84357736 L36.0950943,9.84357736 L36.0950943,10.6260679 L29.9248302,10.6260679 L29.9248302,8.46561509 L35.0463396,8.46561509 L35.0463396,7.82531321 L29.9248302,7.82531321 L29.9248302,7.06953962 Z M29.1953208,4.08176604 L29.1953208,3.25489811 L33.6412075,3.25489811 L33.6412075,4.08176604 L31.7560755,4.08176604 L33.7213585,6.08236981 L33.098717,6.66063396 L31.4540377,4.94440755 L29.8446792,6.7226717 L29.186717,6.13580377 L31.1338868,4.08176604 L29.1953208,4.08176604 Z" id="Fill-1" fill="#58585B"></path>
            <g id="Group-17" transform="translate(0.000000, 0.426521)">
                <path d="M43.1553057,2.60617358 L44.1157585,2.60617358 L44.1157585,6.71424906 L43.1553057,6.71424906 L43.1553057,5.78956981 L42.0259472,5.78956981 L42.0259472,4.99802264 L43.1553057,4.99802264 L43.1553057,4.18021132 L42.0259472,4.18021132 L42.0259472,3.38866415 L43.1553057,3.38866415 L43.1553057,2.60617358 Z M42.5150038,8.69719245 C42.5150038,8.40647547 42.4085887,8.15606038 42.1948528,7.94549434 C41.9815698,7.73538113 41.7297962,7.6298717 41.4390792,7.6298717 C41.1488151,7.6298717 40.8984,7.73538113 40.687834,7.94549434 C40.4772679,8.15606038 40.3722113,8.40647547 40.3722113,8.69719245 C40.3722113,8.9874566 40.4772679,9.23651321 40.687834,9.44390943 C40.8984,9.65130566 41.1488151,9.75500377 41.4390792,9.75500377 C41.7297962,9.75500377 41.9815698,9.65130566 42.1948528,9.44390943 C42.4085887,9.23651321 42.5150038,8.9874566 42.5150038,8.69719245 L42.5150038,8.69719245 Z M43.4573434,8.70579623 C43.4573434,8.96662642 43.4043623,9.21115472 43.2974943,9.43938113 C43.1910792,9.66760755 43.0488906,9.86775849 42.8709283,10.039834 C42.6870792,10.2114566 42.4719849,10.3477585 42.2260981,10.4487396 C41.9802113,10.5492679 41.7207396,10.5995321 41.4481358,10.5995321 C41.1755321,10.5995321 40.9147019,10.5492679 40.6656453,10.4487396 C40.4165887,10.3477585 40.2001358,10.2114566 40.0167396,10.039834 C39.8387774,9.86775849 39.6965887,9.66760755 39.5897208,9.43938113 C39.4833057,9.21115472 39.4294189,8.96662642 39.4294189,8.70579623 C39.4294189,8.44496604 39.4833057,8.19907925 39.5897208,7.96768302 C39.6965887,7.73673962 39.8387774,7.53523019 40.0167396,7.36315472 C40.2001358,7.19107925 40.4165887,7.05523019 40.6656453,6.95424906 C40.9147019,6.85326792 41.1755321,6.80300377 41.4481358,6.80300377 C41.7207396,6.80300377 41.9802113,6.85326792 42.2260981,6.95424906 C42.4719849,7.05523019 42.6870792,7.19107925 42.8709283,7.36315472 C43.0488906,7.53523019 43.1910792,7.73673962 43.2974943,7.96768302 C43.4043623,8.19907925 43.4573434,8.44496604 43.4573434,8.70579623 L43.4573434,8.70579623 Z M38.567683,5.72707925 L40.7281358,5.72707925 L40.7281358,4.59772075 L38.567683,4.59772075 L38.567683,5.72707925 Z M41.6614189,6.52723019 L37.615834,6.52723019 L37.615834,2.77507925 L38.5672302,2.77507925 L38.5672302,3.78851321 L40.7281358,3.78851321 L40.7281358,2.77507925 L41.6614189,2.77507925 L41.6614189,6.52723019 Z" id="Fill-2" fill="#58585B"></path>
                <path d="M51.8956981,7.69213585 L50.9352453,7.69213585 L50.9352453,2.6064 L51.8956981,2.6064 L51.8956981,4.68670189 L52.8914717,4.68670189 L52.8914717,5.56700377 L51.8956981,5.56700377 L51.8956981,7.69213585 Z M45.8671698,10.2175698 L45.8671698,7.89681509 L46.8276226,7.89681509 L46.8276226,9.37258868 L52.0378868,9.37258868 L52.0378868,10.2175698 L45.8671698,10.2175698 Z M48.9618113,5.66481509 L48.9618113,3.60217358 L45.6624906,3.60217358 L45.6624906,2.76624906 L49.9132075,2.76624906 L49.9132075,5.66481509 L48.9618113,5.66481509 Z M50.3397736,6.4029283 L50.3397736,7.24790943 L45.3160755,7.24790943 L45.3160755,6.4029283 L46.8896604,6.4029283 L46.8896604,4.66904151 L47.8410566,4.66904151 L47.8410566,6.4029283 L50.3397736,6.4029283 Z" id="Fill-4" fill="#58585B"></path>
                <mask id="mask-2" fill="white">
                    <use xlink:href="#path-1"></use>
                </mask>
                <g id="Clip-7"></g>
                <path d="M59.3737358,10.3507925 L60.3341887,10.3507925 L60.3341887,2.60603774 L59.3737358,2.60603774 L59.3737358,10.3507925 Z M57.96,9.28392453 L53.8342642,9.28392453 L53.8342642,5.7450566 L56.9107925,5.7450566 L56.9107925,3.93101887 L53.8342642,3.93101887 L53.8342642,3.08649057 L57.8707925,3.08649057 L57.8707925,6.58098113 L54.7856604,6.58098113 L54.7856604,8.4389434 L57.96,8.4389434 L57.96,9.28392453 Z" id="Fill-6" fill="#58585B" mask="url(#mask-2)"></path>
                <path d="M63.1793208,5.11335849 L67.2516226,5.11335849 L67.2516226,4.29554717 L63.1793208,4.29554717 L63.1793208,5.11335849 Z M63.1969811,8.0834717 L63.1969811,9.37267925 L68.3008302,9.37267925 L68.3008302,10.2172075 L62.2279245,10.2172075 L62.2279245,8.0834717 L63.1969811,8.0834717 Z M67.2516226,3.46867925 L67.2516226,2.64181132 L68.2030189,2.64181132 L68.2030189,5.94928302 L65.6956981,5.94928302 L65.6956981,6.74083019 L68.7722264,6.74083019 L68.7722264,7.58535849 L61.658717,7.58535849 L61.658717,6.74083019 L64.7266415,6.74083019 L64.7266415,5.94928302 L62.2279245,5.94928302 L62.2279245,2.64181132 L63.1793208,2.64181132 L63.1793208,3.46867925 L67.2516226,3.46867925 Z" id="Fill-8" fill="#58585B" mask="url(#mask-2)"></path>
                <path d="M71.2886038,5.6205283 L75.3609057,5.6205283 L75.3609057,4.55366038 L71.2886038,4.55366038 L71.2886038,5.6205283 Z M71.2886038,3.71773585 L75.3609057,3.71773585 L75.3609057,2.73962264 L76.3118491,2.73962264 L76.3118491,6.4650566 L70.3372075,6.4650566 L70.3372075,2.73962264 L71.2886038,2.73962264 L71.2886038,3.71773585 Z M69.768,7.50566038 L76.8810566,7.50566038 L76.8810566,8.35879245 L73.8045283,8.35879245 L73.8045283,10.3507925 L72.8354717,10.3507925 L72.8354717,8.35879245 L69.768,8.35879245 L69.768,7.50566038 Z" id="Fill-9" fill="#58585B" mask="url(#mask-2)"></path>
                <polygon id="Fill-10" fill="#58585B" mask="url(#mask-2)" points="30.3781132 16.7290415 32.8944906 13.9101736 34.1126038 13.9101736 31.4182642 16.9156075 34.1035472 19.9654189 32.8496604 19.9654189 30.3781132 17.1470038 30.3781132 19.9654189 29.3642264 19.9654189 29.3642264 13.9101736 30.3781132 13.9101736"></polygon>
                <path d="M37.1270038,19.2187472 C37.760966,19.2187472 38.3392302,19.0140679 38.8608906,18.6051623 L39.2788528,19.3432755 C38.7395321,19.8291623 38.0222491,20.0723321 37.1270038,20.0723321 C36.2557585,20.0723321 35.5176453,19.7716528 34.913117,19.1698415 C34.3081358,18.5680302 34.0060981,17.8258415 34.0060981,16.9423698 C34.0060981,16.0530113 34.3081358,15.3076528 34.913117,14.7062943 C35.5176453,14.104483 36.2557585,13.8038038 37.1270038,13.8038038 C38.0100226,13.8038038 38.7155321,14.0469736 39.2430792,14.5328604 L38.8341736,15.2709736 C38.3184,14.8616151 37.7496453,14.6573887 37.1270038,14.6573887 C36.5519094,14.6573887 36.056966,14.8706717 35.6421736,15.2972377 C35.2269283,15.7478038 35.0195321,16.2961811 35.0195321,16.9423698 C35.0195321,17.5885585 35.2269283,18.133766 35.6421736,18.5784453 C36.056966,19.0050113 36.5519094,19.2187472 37.1270038,19.2187472" id="Fill-11" fill="#58585B" mask="url(#mask-2)"></path>
                <path d="M44.2935849,16.9424151 C44.2935849,16.2667925 44.0920755,15.7333585 43.6890566,15.3416604 C43.2855849,14.9508679 42.7376604,14.7547925 42.0439245,14.7547925 L41.1993962,14.7547925 L41.1993962,19.1209811 L42.0439245,19.1209811 C42.7376604,19.1209811 43.2855849,18.9253585 43.6890566,18.5341132 C44.0920755,18.1428679 44.2935849,17.6121509 44.2935849,16.9424151 M45.3074717,16.9424151 C45.3074717,17.8136604 45.0199245,18.5354717 44.4448302,19.1073962 C43.8697358,19.6793208 43.1198491,19.9655094 42.1951698,19.9655094 L40.1855094,19.9655094 L40.1855094,13.9102642 L42.1951698,13.9102642 C43.1198491,13.9102642 43.8697358,14.1964528 44.4448302,14.7683774 C45.0199245,15.3403019 45.3074717,16.065283 45.3074717,16.9424151" id="Fill-12" fill="#58585B" mask="url(#mask-2)"></path>
                <path d="M49.3173736,19.2187472 C49.9513358,19.2187472 50.5296,19.0140679 51.0512604,18.6051623 L51.4692226,19.3432755 C50.9299019,19.8291623 50.2126189,20.0723321 49.3173736,20.0723321 C48.4461283,20.0723321 47.7080151,19.7716528 47.1034868,19.1698415 C46.4985057,18.5680302 46.1964679,17.8258415 46.1964679,16.9423698 C46.1964679,16.0530113 46.4985057,15.3076528 47.1034868,14.7062943 C47.7080151,14.104483 48.4461283,13.8038038 49.3173736,13.8038038 C50.2003925,13.8038038 50.9059019,14.0469736 51.4334491,14.5328604 L51.0245434,15.2709736 C50.5087698,14.8616151 49.9400151,14.6573887 49.3173736,14.6573887 C48.7422792,14.6573887 48.2473358,14.8706717 47.8325434,15.2972377 C47.4172981,15.7478038 47.2099019,16.2961811 47.2099019,16.9423698 C47.2099019,17.5885585 47.4172981,18.133766 47.8325434,18.5784453 C48.2473358,19.0050113 48.7422792,19.2187472 49.3173736,19.2187472" id="Fill-13" fill="#58585B" mask="url(#mask-2)"></path>
                <path d="M23.5219925,11.7868528 C23.5219925,18.2817962 18.2560302,23.5473057 11.7601811,23.5473057 C5.2661434,23.5473057 0.000181132075,18.2817962 0.000181132075,11.7868528 C0.000181132075,5.29236226 5.2661434,0.0264 11.7601811,0.0264 C18.2560302,0.0264 23.5219925,5.29236226 23.5219925,11.7868528" id="Fill-14" fill="#FEFEFE" mask="url(#mask-2)"></path>
                <path d="M17.2898264,10.9665057 C15.4191849,9.69586415 13.024166,10.2143547 11.7671094,12.1252981 C10.7165434,13.7224302 9.13209057,13.9212226 8.5176,13.9212226 C6.51790189,13.9212226 5.14809057,12.5138264 4.74280755,11.0575245 L4.74144906,11.0575245 C4.73827925,11.0425811 4.73420377,11.0312604 4.73058113,11.0167698 C4.72831698,11.0009208 4.72152453,10.9850717 4.71790189,10.9669585 C4.55895849,10.360166 4.5186566,10.0699019 4.5186566,9.42371321 C4.5186566,5.94144906 8.09193962,2.06431698 13.2379019,2.06431698 C18.507034,2.06431698 21.5219774,6.07593962 22.2981283,8.30567547 C22.2863547,8.26673208 22.2732226,8.22733585 22.2596377,8.18658113 C20.7643925,3.82673208 16.6291472,0.691788679 11.7607698,0.691788679 C5.63443019,0.691788679 0.665524528,5.65888302 0.665524528,11.787034 C0.665524528,17.2644679 4.61737358,21.9530717 10.0970717,21.9530717 C14.4682415,21.9530717 17.4048453,19.5019019 18.7515623,16.1251472 C19.4919396,14.2780528 18.9671094,12.1080906 17.2898264,10.9665057" id="Fill-15" fill="#003963" mask="url(#mask-2)"></path>
                <path d="M22.3682264,8.52149434 C21.7202264,6.3474566 18.6826415,2.06458868 13.2378113,2.06458868 C8.09230189,2.06458868 4.51901887,5.94172075 4.51901887,9.42398491 C4.51901887,10.0697208 4.55886792,10.3604377 4.71781132,10.9672302 C4.65124528,10.7018717 4.61592453,10.4351547 4.61592453,10.175683 C4.61592453,6.54941887 8.24626415,4.03621132 11.9803019,4.03621132 C17.0338868,4.03621132 21.1279245,8.13251321 21.1279245,13.1842868 C21.1279245,17.1456453 18.849283,20.573117 15.5377358,22.2205132 L15.5381887,22.2227774 C19.8079245,20.6768151 22.8563774,16.5882113 22.8563774,11.7868528 C22.8563774,10.6507019 22.7028679,9.64858868 22.3682264,8.52149434" id="Fill-16" fill="#EC1A3A" mask="url(#mask-2)"></path>
            </g>
        </g>
    </g>
</svg>