<?xml version="1.0" encoding="UTF-8"?>
<svg width="100px" height="60px" viewBox="0 0 100 60" version="1.1" xmlns="http://www.w3.org/2000/svg" xmlns:xlink="http://www.w3.org/1999/xlink">
    <!-- Generator: Sketch 55.2 (78181) - https://sketchapp.com -->
    <title>logo/kcpi</title>
    <desc>Created with Sketch.</desc>
    <g id="logo/kcpi" stroke="none" stroke-width="1" fill="none" fill-rule="evenodd">
        <g transform="translate(13.000000, 24.000000)" id="Combined-Shape">
            <path d="M17.930575,0.73718125 L18.4335125,0.73718125 C16.3080125,4.18543125 18.42945,7.48743125 18.42945,7.48743125 L17.9200125,7.48743125 C15.44595,4.02130625 17.930575,0.73718125 17.930575,0.73718125 Z M25.8230375,0.73718125 C25.8230375,0.73718125 28.3109125,4.02130625 25.8344125,7.48743125 L25.3257875,7.48743125 C25.3257875,7.48743125 27.447225,4.18543125 25.321725,0.73718125 L25.8230375,0.73718125 Z M22.7404938,1.98046875 C23.0541188,3.63146875 25.3079938,3.78015625 25.3079938,3.78015625 L25.3079938,4.49921875 C22.8347438,4.47403125 21.8881813,3.27884375 21.8881813,3.27884375 L21.8751813,3.27884375 C21.8751813,3.27884375 20.9286188,4.47403125 18.4301813,4.49921875 L18.4301813,3.78015625 C18.4301813,3.78015625 20.7092438,3.63146875 21.0188063,1.98046875 L18.7072438,1.98046875 L18.7072438,1.25490625 L25.0650563,1.25490625 L25.0650563,1.98046875 L22.7453688,1.98046875 L22.7404938,1.98046875 Z M18.4335937,4.83933125 L25.3008437,4.83933125 L25.3008437,5.56895625 L22.5017812,5.56895625 L22.5017812,7.46858125 L21.2277812,7.46858125 L21.2277812,5.56895625 L18.4335937,5.56895625 L18.4335937,4.83933125 Z M28.0431125,5.10989375 L29.3293,5.10989375 L29.3293,6.74626875 L33.4966125,6.74626875 L33.4966125,1.25864375 L35.5164875,1.25864375 L35.5164875,1.97526875 L34.758425,1.97526875 L34.758425,7.46858125 L28.6931125,7.46858125 C28.6931125,7.46858125 28.0431125,7.46776875 28.0431125,6.81858125 L28.0431125,5.10989375 Z M35.8960063,1.2553125 L41.9483188,1.2553125 C41.9483188,1.2553125 42.5983188,1.2829375 42.5983188,1.9134375 L42.5983188,4.39075 L39.8431313,4.39075 L39.8431313,5.0301875 L41.9621313,5.0301875 C41.9621313,5.0301875 42.5983188,5.057 42.5983188,5.681 L42.5983188,7.4685 L41.3153813,7.4685 L41.3153813,5.7630625 L35.8960063,5.7630625 L35.8960063,5.031 L38.5569438,5.031 L38.5569438,4.405375 L35.8960063,4.405375 L35.8960063,3.664375 L41.3291938,3.664375 L41.3291938,1.980875 L35.8960063,1.980875 L35.8960063,1.2553125 Z M44.7208125,3.0758 L48.849125,3.0758 L48.849125,1.98055 L44.7208125,1.98055 L44.7208125,3.0758 Z M43.4516875,1.25823423 L49.4690625,1.25823423 C49.4690625,1.25823423 50.1320625,1.250925 50.1320625,1.9277375 L50.1320625,3.808675 L44.0480625,3.808675 C44.0480625,3.808675 43.4273125,3.7379875 43.4516875,3.2228625 L43.4516875,1.25823423 Z M43.456075,4.24344375 L50.121825,4.24344375 L50.121825,4.96169375 L47.671325,4.96169375 L47.671325,6.34456875 L46.3957,6.34456875 L46.3957,4.95763125 L43.456075,4.95763125 L43.456075,4.24344375 Z M43.4481125,5.32569375 L44.703425,5.32569375 L44.703425,6.73944375 L50.13255,6.73944375 L50.13255,7.46906875 L44.1143625,7.46906875 C44.1143625,7.46906875 43.4481125,7.37400625 43.4481125,6.81744375 L43.4481125,5.32569375 Z M62.3633562,1.97494375 C62.3633562,1.97494375 62.3633562,3.51300625 64.2345437,4.17438125 L64.2345437,4.88206875 C64.2345437,4.88206875 62.5908562,4.77238125 61.5866062,3.57719375 L61.5719812,3.57719375 C60.5652937,4.77238125 58.9240437,4.88206875 58.9240437,4.88206875 L58.9240437,4.17438125 C60.7944187,3.51300625 60.7944187,1.97494375 60.7944187,1.97494375 L59.0191062,1.97494375 L59.0191062,1.25344375 L64.1492312,1.25344375 L64.1492312,1.98063125 L62.3836687,1.98063125 L62.3633562,1.97494375 Z M59.264075,5.09640625 L60.5397,5.09559375 L60.5397,6.74415625 L64.6777625,6.74415625 L64.6777625,1.25815625 L65.9501375,1.25815625 L65.9501375,7.46240625 L59.920575,7.46240625 C59.920575,7.46240625 59.264075,7.44453125 59.264075,6.82378125 L59.264075,5.09640625 Z M30.3862,4.125225 C30.9590125,4.125225 31.42295,3.6482875 31.42295,3.0600375 C31.42295,2.4701625 30.9590125,1.9981 30.3862,1.9981 C29.81095,1.9981 29.3502625,2.4701625 29.3502625,3.0600375 C29.3502625,3.6482875 29.81095,4.125225 30.3862,4.125225 Z M32.9480125,1.9851 L32.2842,1.9851 C32.565325,2.28735 32.7270125,2.659475 32.7270125,3.0600375 C32.7270125,4.0789125 31.678075,4.901975 30.3862,4.901975 C29.094325,4.901975 28.0453875,4.0789125 28.0453875,3.0600375 C28.0453875,2.659475 28.207075,2.28735 28.4841375,1.9851 L27.8187,1.9851 L27.8187,1.980225 L27.8187,1.255475 L29.7102,1.255475 L29.7102,0.7566 L31.0516375,0.7566 L31.0516375,1.255475 L32.9480125,1.255475 L32.9480125,1.9851 Z M56.59095,1.2536875 L58.5962,1.2536875 L58.5962,1.980875 L57.8527625,1.980875 L57.8527625,7.4685 L56.59095,7.4685 L56.59095,6.8875625 L50.918075,6.8875625 L50.918075,6.1555 L52.82095,6.1555 L52.82095,5.3356875 C51.8402625,5.0821875 51.12445,4.26725 51.12445,3.300375 C51.12445,2.8039375 51.31945,2.3408125 51.639575,1.980875 L50.918075,1.980875 L50.918075,1.2553125 L52.8112,1.2553125 L52.8112,0.7515625 L54.1233875,0.7515625 L54.1233875,1.2553125 L56.0457625,1.2553125 L56.0457625,1.980875 L55.321825,1.980875 C55.6452,2.3408125 55.8402,2.8039375 55.8402,3.300375 C55.8402,4.285125 55.0992,5.109 54.0925125,5.3503125 L54.0925125,6.144125 L56.59095,6.144125 L56.59095,1.2536875 Z M52.4528875,3.300375 C52.4528875,4.0275625 52.9127625,4.6174375 53.4807,4.6174375 C54.0502625,4.6174375 54.512575,4.0275625 54.512575,3.300375 C54.512575,2.5780625 54.0502625,1.98575 53.4807,1.98575 C52.9127625,1.98575 52.4528875,2.5780625 52.4528875,3.300375 Z M73.551075,1.2553125 L73.551075,1.980875 L72.904325,1.980875 C73.2073875,2.20675 73.3837,2.483 73.3837,2.77875 C73.3837,3.6424375 71.9138875,4.3411875 70.106075,4.3411875 C68.2950125,4.3411875 66.8252,3.6424375 66.8252,2.77875 C66.8252,2.483 67.0007,2.20675 67.3070125,1.980875 L66.6732625,1.980875 L66.6732625,1.2553125 L69.485325,1.2553125 L69.485325,0.7661875 L70.759325,0.7661875 L70.759325,1.2553125 L73.551075,1.2553125 Z M68.1422625,2.77875 C68.1422625,3.2329375 69.023825,3.60425 70.106075,3.60425 C71.1875125,3.60425 72.0698875,3.2329375 72.0698875,2.77875 C72.0698875,2.3196875 71.1875125,1.95325 70.106075,1.95325 C69.023825,1.95325 68.1422625,2.3196875 68.1422625,2.77875 Z M70.1059125,6.93964375 C71.18735,6.93964375 72.069725,6.57401875 72.069725,6.11658125 C72.069725,5.66076875 71.18735,5.28945625 70.1059125,5.28945625 C69.0236625,5.28945625 68.1421,5.66076875 68.1421,6.11658125 C68.1421,6.57401875 69.0236625,6.93964375 70.1059125,6.93964375 Z M73.6476,5.31058125 L72.9041625,5.31058125 C73.207225,5.54376875 73.3835375,5.81920625 73.3835375,6.11658125 C73.3835375,6.97539375 71.9145375,7.67495625 70.1059125,7.67495625 C68.29485,7.67495625 66.8250375,6.97539375 66.8250375,6.11658125 C66.8250375,5.81920625 67.00135,5.54376875 67.3076625,5.31058125 L66.5756,5.31058125 L66.5756,4.59233125 L69.892225,4.59233125 C69.9645375,4.59151875 70.035225,4.58664375 70.1059125,4.58664375 C70.1766,4.58664375 70.2456625,4.59151875 70.3171625,4.59233125 L73.6476,4.59233125 L73.6476,5.31058125 Z M25.4700063,12.6072375 L25.1149438,12.6072375 L24.4389438,10.4183625 L24.8208188,10.4183625 L25.2953188,12.04905 L25.7917563,10.4183625 L26.1898813,10.4183625 L26.6903813,12.0531125 L27.1681313,10.4183625 L27.5630063,10.4183625 L26.8626313,12.6072375 L26.5059438,12.6072375 L25.9713188,10.9668 L25.4700063,12.6072375 Z M28.6922187,12.6072375 L28.3355312,12.6072375 L27.6603437,10.4183625 L28.0422187,10.4183625 L28.5142812,12.04905 L29.0099062,10.4183625 L29.4112812,10.4183625 L29.9101562,12.0531125 L30.3895312,10.4183625 L30.7827812,10.4183625 L30.0815937,12.6072375 L29.7257187,12.6072375 L29.1919062,10.9668 L28.6922187,12.6072375 Z M31.91045,12.6072375 L31.5562,12.6072375 L30.8810125,10.4183625 L31.262075,10.4183625 L31.7373875,12.04905 L32.2322,10.4183625 L32.6311375,10.4183625 L33.1316375,12.0531125 L33.608575,10.4183625 L34.0026375,10.4183625 L33.303075,12.6072375 L32.945575,12.6072375 L32.4101375,10.9668 L31.91045,12.6072375 Z M34.3500625,12.541425 L34.3500625,12.1489875 L34.8050625,12.1489875 L34.8050625,12.541425 L34.3500625,12.541425 Z M36.7989375,11.1353938 C36.775375,10.9826438 36.7209375,10.8640188 36.6364375,10.7787063 C36.5365,10.6795813 36.3926875,10.6300188 36.20175,10.6300188 C35.9799375,10.6300188 35.813375,10.6998938 35.7069375,10.8420813 C35.608625,10.9672063 35.5623125,11.1548938 35.5623125,11.4075813 C35.5623125,11.6887063 35.6045625,11.9023938 35.6939375,12.0494563 C35.802,12.2355188 35.9815625,12.3305813 36.2375,12.3305813 C36.40325,12.3305813 36.5365,12.2810188 36.6364375,12.1859563 C36.729875,12.0917063 36.7843125,11.9617063 36.7989375,11.7959563 L37.1970625,11.7959563 C37.175125,12.0267063 37.097125,12.2103313 36.963875,12.3484563 C36.7965,12.5182688 36.54625,12.6043938 36.2155625,12.6043938 C35.87025,12.6043938 35.6045625,12.4890188 35.4176875,12.2623313 C35.247875,12.0575813 35.16175,11.7902688 35.16175,11.4620188 C35.16175,11.1248313 35.2495,10.8599563 35.426625,10.6625188 C35.6135,10.4577688 35.88975,10.3562063 36.2545625,10.3562063 C36.53325,10.3562063 36.755875,10.4293313 36.9273125,10.5772063 C37.0865625,10.7202063 37.175125,10.9062688 37.1889375,11.1353938 L36.7989375,11.1353938 Z M39.1396688,12.5517438 L39.1396688,12.3494313 C39.0762938,12.4241813 38.9844813,12.4826813 38.8569188,12.5281813 C38.7114813,12.5793688 38.5416688,12.6045563 38.3507313,12.6045563 C38.1191688,12.6045563 37.9379813,12.5623063 37.8055438,12.4704938 C37.6446688,12.3648688 37.5642313,12.1966813 37.5642313,11.9675563 L37.5642313,10.4246188 L37.9615438,10.4246188 L37.9615438,11.9204313 C37.9615438,12.0756188 37.9997313,12.1836813 38.0728563,12.2454313 C38.1419188,12.3023063 38.2686688,12.3315563 38.4457938,12.3315563 C38.6732938,12.3315563 38.8487938,12.2706188 38.9763563,12.1487438 C39.0852313,12.0496188 39.1396688,11.9326188 39.1396688,11.7985563 L39.1396688,10.4246188 L39.5361688,10.4246188 L39.5361688,12.5517438 L39.1396688,12.5517438 Z M40.077375,12.541425 L40.077375,9.733425 L40.4755,9.733425 L40.4755,12.541425 L40.077375,12.541425 Z M41.532725,10.6886812 L41.532725,12.1901812 C41.532725,12.2478687 41.555475,12.2884937 41.59935,12.3063687 C41.6286,12.3177437 41.6741,12.3218062 41.73585,12.3218062 L41.7659125,12.3218062 L41.9105375,12.3218062 L41.9105375,12.6078062 L41.594475,12.6078062 C41.4409125,12.6078062 41.3271625,12.5736812 41.2540375,12.5070562 C41.178475,12.4363687 41.1411,12.3218062 41.1411,12.1617437 L41.1411,10.6886812 L40.8356,10.6886812 L40.8356,10.4164937 L41.1411,10.4164937 L41.1411,9.84611875 L41.532725,9.84611875 L41.532725,10.4164937 L41.9105375,10.4164937 L41.9105375,10.6886812 L41.532725,10.6886812 Z M44.3288625,12.5517438 L43.93155,12.5517438 L43.93155,12.3494313 C43.8698,12.4241813 43.7747375,12.4826813 43.6488,12.5281813 C43.5033625,12.5793688 43.3343625,12.6045563 43.1442375,12.6045563 C42.9118625,12.6045563 42.730675,12.5623063 42.5982375,12.4704938 C42.4357375,12.3648688 42.3553,12.1966813 42.3553,11.9675563 L42.3553,10.4246188 L42.7542375,10.4246188 L42.7542375,11.9204313 C42.7542375,12.0756188 42.7908,12.1836813 42.8647375,12.2454313 C42.9338,12.3023063 43.0597375,12.3315563 43.2401125,12.3315563 C43.4659875,12.3315563 43.6414875,12.2706188 43.7682375,12.1487438 C43.8763,12.0496188 43.93155,11.9326188 43.93155,11.7985563 L43.93155,10.4246188 L44.3288625,10.4246188 L44.3288625,12.5517438 Z M45.2802187,10.4387563 L45.2802187,10.6995688 C45.3533437,10.6012563 45.4451562,10.5281313 45.5572812,10.4818188 C45.6954062,10.4216938 45.8774062,10.3924438 46.1049062,10.3924438 L46.1049062,10.6825063 C45.8205312,10.6825063 45.6084687,10.7377563 45.4687187,10.8482563 C45.3509062,10.9400688 45.2932187,11.0562563 45.2932187,11.1960063 L45.2932187,12.5431313 L44.8934687,12.5431313 L44.8934687,10.4387563 L45.2802187,10.4387563 Z M48.1977438,11.2584062 C48.1904313,11.0699062 48.1327438,10.9204062 48.0214313,10.8074687 C47.8987438,10.6888438 47.7224313,10.6303437 47.4957438,10.6303437 C47.2926188,10.6303437 47.1341813,10.6920937 47.0163688,10.8123437 C46.9058688,10.9269062 46.8489938,11.0755937 46.8457438,11.2584062 L48.1977438,11.2584062 Z M48.5999313,11.8791562 C48.5674313,12.0839062 48.4666813,12.2496562 48.2984938,12.3772187 C48.0978063,12.5275312 47.8304938,12.6039062 47.4957438,12.6039062 C47.1585563,12.6039062 46.8985563,12.4893437 46.7141188,12.2618437 C46.5451188,12.0497812 46.4581813,11.7775937 46.4581813,11.4444687 C46.4581813,11.1251562 46.5540563,10.8667812 46.7449938,10.6628438 C46.9473063,10.4580937 47.2154313,10.3565312 47.5518063,10.3565312 C47.8751813,10.3565312 48.1294938,10.4532187 48.3106813,10.6506562 C48.5032438,10.8529687 48.5999313,11.1479063 48.5999313,11.5322187 L46.8498063,11.5322187 C46.8554938,11.7816562 46.9066813,11.9709687 47.0074313,12.1034062 C47.1187438,12.2545312 47.2877438,12.3300937 47.5136188,12.3300937 C47.7143063,12.3300937 47.8743688,12.2910937 47.9905563,12.2114687 C48.1018688,12.1326562 48.1733688,12.0205312 48.2058688,11.8791562 L48.5999313,11.8791562 Z M49.0611875,12.541425 L49.0611875,9.733425 L49.4593125,9.733425 L49.4593125,12.541425 L49.0611875,12.541425 Z M51.4612313,11.45755 C51.4295438,11.4738 51.3694188,11.491675 51.2816688,11.5063 C51.2028563,11.5201125 51.0517313,11.54205 50.8307313,11.5713 C50.6341063,11.6013625 50.4992313,11.6371125 50.4277313,11.6809875 C50.3359188,11.7394875 50.2912313,11.8304875 50.2912313,11.9572375 C50.2912313,12.073425 50.3204813,12.1603625 50.3781688,12.2156125 C50.4545438,12.2919875 50.5861688,12.330175 50.7730438,12.330175 C50.9591063,12.330175 51.1224188,12.287925 51.2548563,12.203425 C51.3921688,12.115675 51.4612313,12.0092375 51.4612313,11.8857375 L51.4612313,11.45755 Z M49.9889813,10.9903625 C50.0060438,10.773425 50.1035438,10.6117375 50.2806688,10.5077375 C50.4512938,10.406175 50.6869188,10.3566125 50.9924188,10.3566125 C51.1939188,10.3566125 51.3742938,10.3988625 51.5359813,10.4833625 C51.7512938,10.5963 51.8593563,10.770175 51.8593563,11.000925 L51.8593563,12.1953 C51.8593563,12.2334875 51.8682938,12.261925 51.8853563,12.2806125 C51.9064813,12.29605 51.9397938,12.3049875 51.9828563,12.3049875 C51.9966688,12.3049875 52.0153563,12.304175 52.0356688,12.300925 C52.0649188,12.2984875 52.0933563,12.2928 52.1193563,12.287925 L52.1193563,12.564175 L52.0933563,12.567425 C52.0551688,12.5747375 52.0234813,12.577175 52.0007313,12.577175 C51.9601063,12.58205 51.9227313,12.5861125 51.8910438,12.5861125 C51.7399188,12.5861125 51.6318563,12.5617375 51.5668563,12.5113625 C51.5172938,12.4788625 51.4880438,12.424425 51.4807313,12.3448 C51.4019188,12.4138625 51.3092938,12.469925 51.2077313,12.5073 C51.0468563,12.5714875 50.8469813,12.6039875 50.6113563,12.6039875 C50.3968563,12.6039875 50.2254188,12.5487375 50.0946063,12.4366125 C49.9597313,12.3179875 49.8922938,12.1619875 49.8922938,11.97105 C49.8922938,11.8053 49.9272313,11.676925 49.9971063,11.585925 C50.0994813,11.4543 50.2806688,11.371425 50.5414813,11.335675 C50.7624813,11.3023625 50.9282313,11.27555 51.0362938,11.2568625 C51.1622313,11.2333 51.2548563,11.21055 51.3157938,11.1869875 C51.3742938,11.169925 51.4157313,11.1479875 51.4352313,11.121175 C51.4531063,11.101675 51.4612313,11.0708 51.4612313,11.03505 C51.4612313,10.8749875 51.4197938,10.7693625 51.3426063,10.7141125 C51.2654188,10.6588625 51.1248563,10.6296125 50.9274188,10.6296125 C50.7137313,10.6296125 50.5666688,10.6588625 50.4837938,10.7141125 C50.4155438,10.763675 50.3716688,10.8554875 50.3505438,10.9903625 L49.9889813,10.9903625 Z M54.56685,12.5429688 L54.168725,12.5429688 L54.168725,11.1210938 C54.168725,10.9512813 54.123225,10.8269688 54.03385,10.7481563 C53.9371625,10.6693438 53.798225,10.6303438 53.609725,10.6303438 C53.460225,10.6303438 53.313975,10.6766563 53.1701625,10.7700938 C53.0044125,10.8749063 52.9231625,11.0032813 52.9231625,11.1519688 L52.9231625,12.5429688 L52.524225,12.5429688 L52.524225,10.4077188 L52.9231625,10.4077188 L52.9231625,10.6482188 C52.988975,10.5767188 53.0661625,10.5174063 53.161225,10.4710938 C53.3156,10.3947188 53.48785,10.3565313 53.6787875,10.3565313 C53.9111625,10.3565313 54.1029125,10.3987813 54.2556625,10.4840938 C54.46285,10.5986563 54.56685,10.7839063 54.56685,11.0365938 L54.56685,12.5429688 Z M55.4142063,11.4964688 C55.4142063,11.7580938 55.4613313,11.9571563 55.5555813,12.0944688 C55.6636438,12.2520938 55.8293938,12.3309063 56.0520188,12.3309063 C56.2275188,12.3309063 56.3721438,12.2683438 56.4858938,12.1424063 C56.6175188,12.0026563 56.6833313,11.8019688 56.6833313,11.5427813 C56.6833313,11.2567813 56.6240188,11.0406563 56.5086438,10.8903438 C56.3916438,10.7375938 56.2177688,10.6628438 55.9902688,10.6628438 C55.7765813,10.6628438 55.6230188,10.7457188 55.5279563,10.9139063 C55.4523938,11.0536563 55.4142063,11.2502813 55.4142063,11.4964688 Z M57.0887688,9.73984375 L57.0887688,12.5437813 L56.6833313,12.5437813 L56.6833313,12.3211563 C56.6158938,12.4178438 56.5265188,12.4885313 56.4168313,12.5324063 C56.3038938,12.5795313 56.1600813,12.6047188 55.9862063,12.6047188 C55.6278938,12.6047188 55.3687063,12.4852813 55.2102688,12.2472188 C55.0851438,12.0538438 55.0225813,11.7857188 55.0225813,11.4452813 C55.0225813,11.1292188 55.1095188,10.8749063 55.2850188,10.6815313 C55.4629563,10.4881563 55.6993938,10.3882188 55.9862063,10.3882188 C56.1657688,10.3882188 56.3160813,10.4182813 56.4387688,10.4759688 C56.5086438,10.5117188 56.5809563,10.5661563 56.6500188,10.6400938 L56.6833313,10.6693438 L56.6833313,9.73984375 L57.0887688,9.73984375 Z M57.6355,12.541425 L57.6355,12.1489875 L58.0905,12.1489875 L58.0905,12.541425 L57.6355,12.541425 Z M60.083725,11.1353938 C60.060975,10.9826438 60.0065375,10.8640188 59.921225,10.7787063 C59.8212875,10.6795813 59.677475,10.6300188 59.48735,10.6300188 C59.2639125,10.6300188 59.0981625,10.6998938 58.9901,10.8420813 C58.8950375,10.9672063 58.8479125,11.1548938 58.8479125,11.4075813 C58.8479125,11.6887063 58.88935,11.9023938 58.9795375,12.0494563 C59.0867875,12.2355188 59.26635,12.3305813 59.5222875,12.3305813 C59.6896625,12.3305813 59.8212875,12.2810188 59.921225,12.1859563 C60.0162875,12.0917063 60.0682875,11.9617063 60.083725,11.7959563 L60.4826625,11.7959563 C60.4599125,12.0267063 60.3811,12.2103313 60.249475,12.3484563 C60.080475,12.5182688 59.8310375,12.6043938 59.50035,12.6043938 C59.1534125,12.6043938 58.88935,12.4890188 58.702475,12.2623313 C58.5326625,12.0575813 58.44735,11.7902688 58.44735,11.4620188 C58.44735,11.1248313 58.5359125,10.8599563 58.7130375,10.6625188 C58.8982875,10.4577688 59.173725,10.3562063 59.53935,10.3562063 C59.817225,10.3562063 60.0422875,10.4293313 60.2112875,10.5772063 C60.37135,10.7202063 60.4599125,10.9062688 60.473725,11.1353938 L60.083725,11.1353938 Z M61.4024937,12.0756188 C61.5138062,12.2454313 61.6876812,12.3299313 61.9249312,12.3299313 C62.1841187,12.3299313 62.3709937,12.2429938 62.4847437,12.0715563 C62.5814312,11.9285563 62.6293687,11.7205563 62.6293687,11.4499938 C62.6293687,11.2119313 62.5814312,11.0226188 62.4847437,10.8844938 C62.3669312,10.7146813 62.1808687,10.6301813 61.9249312,10.6301813 C61.6787437,10.6301813 61.4999937,10.7146813 61.3878687,10.8844938 C61.2984937,11.0250563 61.2538062,11.2159938 61.2538062,11.4597438 C61.2538062,11.7229938 61.3041812,11.9293688 61.4024937,12.0756188 Z M61.1246187,10.6724313 C61.3196187,10.4611813 61.5885562,10.3563688 61.9306187,10.3563688 C62.2897437,10.3563688 62.5635562,10.4538688 62.7504312,10.6504938 C62.9308062,10.8414313 63.0234312,11.1128063 63.0234312,11.4735563 C63.0234312,11.8074938 62.9389312,12.0731813 62.7723687,12.2689938 C62.5846812,12.4924313 62.3051812,12.6037438 61.9306187,12.6037438 C61.5771812,12.6037438 61.3041812,12.4883688 61.1075562,12.2576188 C60.9344937,12.0528688 60.8483687,11.7896188 60.8483687,11.4735563 C60.8483687,11.1412438 60.9401812,10.8731188 61.1246187,10.6724313 Z M63.5505,12.541425 L63.5505,12.1489875 L64.0063125,12.1489875 L64.0063125,12.541425 L63.5505,12.541425 Z M66.590875,12.541425 L66.092,12.541425 L65.2884375,11.462425 L64.923625,11.777675 L64.923625,12.541425 L64.5255,12.541425 L64.5255,9.733425 L64.923625,9.733425 L64.923625,11.32105 L65.98475,10.4183625 L66.525875,10.4183625 L65.599625,11.205675 L66.590875,12.541425 Z M67.0209313,10.4387563 L67.4052438,10.4387563 L67.4052438,10.6995688 C67.4799938,10.6012563 67.5718063,10.5281313 67.6814938,10.4818188 C67.8179938,10.4216938 68.0040563,10.3924438 68.2315563,10.3924438 L68.2315563,10.6825063 C67.9479938,10.6825063 67.7359313,10.7377563 67.5953688,10.8482563 C67.4783688,10.9400688 67.4198688,11.0562563 67.4198688,11.1960063 L67.4198688,12.5431313 L67.0209313,12.5431313 L67.0209313,10.4387563 Z" fill="#231F20"></path>
            <path d="M4.1045875,4.08874375 C4.1045875,5.58374375 4.8334,6.90730625 5.9603375,7.72468125 C5.3980875,8.01068125 4.7643375,8.17805625 4.0883375,8.17805625 C1.8304,8.17805625 -0.0001625,6.34749375 -0.0001625,4.08874375 C-0.0001625,1.82674375 1.8304,0.00024375 4.0883375,0.00024375 C4.7643375,0.00024375 5.3980875,0.16030625 5.9603375,0.45036875 C4.8334,1.26855625 4.1045875,2.59374375 4.1045875,4.08874375 Z M8.60348125,4.08874375 C8.60348125,5.58374375 9.33391875,6.90730625 10.4567937,7.72468125 C9.89535625,8.01068125 9.25998125,8.17805625 8.58641875,8.17805625 C6.32848125,8.17805625 4.49791875,6.34749375 4.49791875,4.08874375 C4.49791875,1.82674375 6.32848125,0.00024375 8.58641875,0.00024375 C9.25998125,0.00024375 9.89535625,0.16030625 10.4567937,0.45036875 C9.33391875,1.26855625 8.60348125,2.59374375 8.60348125,4.08874375 Z M13.1174063,4.08874375 C13.1174063,5.58374375 13.8478438,6.90730625 14.9682813,7.72468125 C14.4084688,8.01068125 13.7763438,8.17805625 13.1027813,8.17805625 C10.8432188,8.17805625 9.01509375,6.34749375 9.01509375,4.08874375 C9.01509375,1.82674375 10.8432188,0.00024375 13.1027813,0.00024375 C13.7763438,0.00024375 14.4084688,0.16030625 14.9682813,0.45036875 C13.8478438,1.26855625 13.1174063,2.59374375 13.1174063,4.08874375 Z" fill="#009A8E"></path>
        </g>
    </g>
</svg>