<?xml version="1.0" encoding="UTF-8"?>
<svg width="100px" height="60px" viewBox="0 0 100 60" version="1.1" xmlns="http://www.w3.org/2000/svg" xmlns:xlink="http://www.w3.org/1999/xlink">
    <title>logo/kdca</title>
    <defs>
        <polygon id="path-1" points="0 0.379806452 26.7168323 0.379806452 26.7168323 27.0967742 0 27.0967742"></polygon>
        <polygon id="path-3" points="0 27.1686258 75.236 27.1686258 75.236 0.451658065 0 0.451658065"></polygon>
    </defs>
    <g id="logo/kdca" stroke="none" stroke-width="1" fill="none" fill-rule="evenodd">
        <g id="Group-18" transform="translate(12.000000, 16.000000)">
            <g id="Group-3" transform="translate(0.000000, 0.071852)">
                <mask id="mask-2" fill="white">
                    <use xlink:href="#path-1"></use>
                </mask>
                <g id="Clip-2"></g>
                <path d="M26.7168323,13.7380645 C26.7168323,21.1156129 20.7352194,27.0967742 13.3585742,27.0967742 C5.98012258,27.0967742 -0.000135483871,21.1156129 -0.000135483871,13.7380645 C-0.000135483871,6.36096774 5.98012258,0.379806452 13.3585742,0.379806452 C20.7352194,0.379806452 26.7168323,6.36096774 26.7168323,13.7380645" id="Fill-1" fill="#FEFEFE" mask="url(#mask-2)"></path>
            </g>
            <path d="M19.6378903,12.8782387 C17.5116968,11.433529 14.7902774,12.0219806 13.3591161,14.1937871 C12.1686645,16.0097226 10.3671806,16.2359806 9.67350323,16.2359806 C7.39692258,16.2359806 5.84427742,14.6359161 5.38227742,12.9807548 L5.38092258,12.9807548 C5.37505161,12.9626903 5.37234194,12.9486903 5.36782581,12.9337871 C5.36285806,12.915271 5.35969677,12.8972065 5.35382581,12.8782387 C5.17227742,12.1863677 5.1262129,11.8575935 5.1262129,11.1241742 C5.1262129,7.16894839 9.18756774,2.76391613 15.0314387,2.76391613 C21.018471,2.76391613 24.4448581,7.32069032 25.330471,9.85469032 C25.3124065,9.80727097 25.2984065,9.76436774 25.2835032,9.72010968 C23.5849871,4.7650129 18.8873097,1.20359355 13.3532452,1.20359355 C6.39479355,1.20359355 0.750535484,6.84514194 0.750535484,13.8094645 C0.750535484,20.0326903 5.23911613,25.3590129 11.4664065,25.3590129 C16.4305355,25.3590129 19.7684065,22.5757226 21.2971161,18.7383677 C22.1380194,16.6383677 21.5441484,14.1730129 19.6378903,12.8782387" id="Fill-4" fill="#003963"></path>
            <path d="M25.4074258,10.0992839 C24.6690387,7.62760645 21.2205226,2.76373548 15.0316194,2.76373548 C9.18729677,2.76373548 5.12639355,7.16876774 5.12639355,11.1239935 C5.12639355,11.8583161 5.17245806,12.1866387 5.35355484,12.8780581 C5.27813548,12.5754774 5.23884516,12.2738 5.23884516,11.9788968 C5.23884516,7.85883226 9.36342581,5.00463871 13.6036194,5.00463871 C19.3449742,5.00463871 23.9983935,9.65805806 23.9983935,15.3967032 C23.9983935,19.8961226 21.4088452,23.7926387 17.6478129,25.6632194 L17.6478129,25.6663806 C22.4976839,23.9105097 25.9606516,19.2643161 25.9606516,13.8092839 C25.9606516,12.5185742 25.7876839,11.3791548 25.4074258,10.0992839" id="Fill-6" fill="#EC1A3A"></path>
            <mask id="mask-4" fill="white">
                <use xlink:href="#path-3"></use>
            </mask>
            <g id="Clip-9"></g>
            <path d="M38.6860645,7.89243226 L39.7369677,7.89243226 L39.7369677,3.87352903 L38.6860645,3.87352903 L38.6860645,7.89243226 Z M33.0806452,8.29120645 L39.7369677,8.29120645 L39.7369677,10.607529 L34.132,10.607529 L34.132,11.3274 L39.8340645,11.3274 L39.8340645,12.1836581 L33.0806452,12.1836581 L33.0806452,9.8190129 L38.6860645,9.8190129 L38.6860645,9.11856129 L33.0806452,9.11856129 L33.0806452,8.29120645 Z M32.2826452,5.02152903 L32.2826452,4.11649677 L37.1483226,4.11649677 L37.1483226,5.02152903 L35.0853548,5.02152903 L37.2359355,7.2114 L36.5549032,7.84365806 L34.7547742,5.9654 L32.9930323,7.91185161 L32.2731613,7.26965806 L34.4043226,5.02152903 L32.2826452,5.02152903 Z" id="Fill-8" fill="#58585B" mask="url(#mask-4)"></path>
            <path d="M47.5609355,3.87330323 L48.6118387,3.87330323 L48.6118387,8.36910968 L47.5609355,8.36910968 L47.5609355,7.35704516 L46.324871,7.35704516 L46.324871,6.49085161 L47.5609355,6.49085161 L47.5609355,5.59575484 L46.324871,5.59575484 L46.324871,4.72956129 L47.5609355,4.72956129 L47.5609355,3.87330323 Z M46.8604839,10.5391097 C46.8604839,10.2216258 46.7435161,9.94749677 46.5095806,9.71672258 C46.2765484,9.48685161 46.0006129,9.37169032 45.6826774,9.37169032 C45.3647419,9.37169032 45.0906129,9.48685161 44.8607419,9.71672258 C44.6299677,9.94749677 44.5148065,10.2216258 44.5148065,10.5391097 C44.5148065,10.8570452 44.6299677,11.1293677 44.8607419,11.356529 C45.0906129,11.5836903 45.3647419,11.6974968 45.6826774,11.6974968 C46.0006129,11.6974968 46.2765484,11.5836903 46.5095806,11.356529 C46.7435161,11.1293677 46.8604839,10.8570452 46.8604839,10.5391097 L46.8604839,10.5391097 Z M47.8915161,10.5490452 C47.8915161,10.8344645 47.8332581,11.102271 47.7162903,11.3520129 C47.5997742,11.6013032 47.4439677,11.8203355 47.2493226,12.0086581 C47.0483548,12.1969806 46.8130645,12.3460129 46.5439032,12.4562065 C46.2747419,12.5668516 45.9906774,12.6219484 45.6926129,12.6219484 C45.3940968,12.6219484 45.1086774,12.5668516 44.8363548,12.4562065 C44.5635806,12.3460129 44.3264839,12.1969806 44.1259677,12.0086581 C43.930871,11.8203355 43.7755161,11.6013032 43.6585484,11.3520129 C43.5420323,11.102271 43.4837742,10.8344645 43.4837742,10.5490452 C43.4837742,10.2636258 43.5420323,9.99446452 43.6585484,9.74110968 C43.7755161,9.48820645 43.930871,9.26781935 44.1259677,9.07949677 C44.3264839,8.89162581 44.5635806,8.74214194 44.8363548,8.63194839 C45.1086774,8.52175484 45.3940968,8.46620645 45.6926129,8.46620645 C45.9906774,8.46620645 46.2747419,8.52175484 46.5439032,8.63194839 C46.8130645,8.74214194 47.0483548,8.89162581 47.2493226,9.07949677 C47.4439677,9.26781935 47.5997742,9.48820645 47.7162903,9.74110968 C47.8332581,9.99446452 47.8915161,10.2636258 47.8915161,10.5490452 L47.8915161,10.5490452 Z M42.5394516,7.28930323 L44.9040968,7.28930323 L44.9040968,6.05323871 L42.5394516,6.05323871 L42.5394516,7.28930323 Z M45.9256452,8.16498065 L41.4980323,8.16498065 L41.4980323,4.05846452 L42.5394516,4.05846452 L42.5394516,5.16762581 L44.9040968,5.16762581 L44.9040968,4.05846452 L45.9256452,4.05846452 L45.9256452,8.16498065 Z" id="Fill-10" fill="#58585B" mask="url(#mask-4)"></path>
            <path d="M57.1265935,9.43974839 L56.0756903,9.43974839 L56.0756903,3.87316774 L57.1265935,3.87316774 L57.1265935,6.15065161 L58.2167871,6.15065161 L58.2167871,7.11394194 L57.1265935,7.11394194 L57.1265935,9.43974839 Z M50.5289806,12.2036194 L50.5289806,9.66374839 L51.5794323,9.66374839 L51.5794323,11.2787161 L57.2824,11.2787161 L57.2824,12.2036194 L50.5289806,12.2036194 Z M53.9151742,7.22097419 L53.9151742,4.96336129 L50.3049806,4.96336129 L50.3049806,4.04839355 L54.9565935,4.04839355 L54.9565935,7.22097419 L53.9151742,7.22097419 Z M55.4235613,8.02845806 L55.4235613,8.95290968 L49.9256258,8.95290968 L49.9256258,8.02845806 L51.6476258,8.02845806 L51.6476258,6.13078065 L52.6890452,6.13078065 L52.6890452,8.02845806 L55.4235613,8.02845806 Z" id="Fill-11" fill="#58585B" mask="url(#mask-4)"></path>
            <path d="M65.3104516,12.3494 L66.3613548,12.3494 L66.3613548,3.87352903 L65.3104516,3.87352903 L65.3104516,12.3494 Z M63.7632258,11.181529 L59.2475484,11.181529 L59.2475484,7.30849677 L62.6147742,7.30849677 L62.6147742,5.32320645 L59.2475484,5.32320645 L59.2475484,4.39875484 L63.666129,4.39875484 L63.666129,8.2230129 L60.2894194,8.2230129 L60.2894194,10.2570774 L63.7632258,10.2570774 L63.7632258,11.181529 Z" id="Fill-12" fill="#58585B" mask="url(#mask-4)"></path>
            <path d="M74.1851419,8.61239355 L74.1851419,6.68536129 L72.7061097,6.68536129 L72.7061097,5.78078065 L74.1851419,5.78078065 L74.1851419,3.87316774 L75.2360452,3.87316774 L75.2360452,8.61239355 L74.1851419,8.61239355 Z M73.4842387,10.5394258 C73.4842387,10.2214903 73.3677226,9.94736129 73.1337871,9.71703871 C72.9007548,9.48671613 72.6248194,9.37155484 72.3068839,9.37155484 C71.9889484,9.37155484 71.7148194,9.48671613 71.4849484,9.71703871 C71.2541742,9.94736129 71.1390129,10.2214903 71.1390129,10.5394258 C71.1390129,10.8573613 71.2541742,11.1296839 71.4849484,11.3568452 C71.7148194,11.5835548 71.9889484,11.6973613 72.3068839,11.6973613 C72.6248194,11.6973613 72.9007548,11.5835548 73.1337871,11.3568452 C73.3677226,11.1296839 73.4842387,10.8573613 73.4842387,10.5394258 L73.4842387,10.5394258 Z M74.5157226,10.5489097 C74.5157226,10.834329 74.4574645,11.1021355 74.3404968,11.3518774 C74.2239806,11.6016194 74.0681742,11.8206516 73.873529,12.0089742 C73.6725613,12.1968452 73.437271,12.3458774 73.1681097,12.456071 C72.8989484,12.5667161 72.6148839,12.6218129 72.3168194,12.6218129 C72.0183032,12.6218129 71.7328839,12.5667161 71.4605613,12.456071 C71.1877871,12.3458774 70.9506903,12.1968452 70.7497226,12.0089742 C70.5550774,11.8206516 70.3997226,11.6016194 70.2827548,11.3518774 C70.1657871,11.1021355 70.107529,10.834329 70.107529,10.5489097 C70.107529,10.2634903 70.1657871,9.99432903 70.2827548,9.74142581 C70.3997226,9.48807097 70.5550774,9.26768387 70.7497226,9.0798129 C70.9506903,8.89149032 71.1877871,8.74245806 71.4605613,8.6318129 C71.7328839,8.52161935 72.0183032,8.46652258 72.3168194,8.46652258 C72.6148839,8.46652258 72.8989484,8.52161935 73.1681097,8.6318129 C73.437271,8.74245806 73.6725613,8.89149032 73.873529,9.0798129 C74.0681742,9.26768387 74.2239806,9.48807097 74.3404968,9.74142581 C74.4574645,9.99432903 74.5157226,10.2634903 74.5157226,10.5489097 L74.5157226,10.5489097 Z M67.7523677,5.4885871 L67.7523677,4.60342581 L69.7376581,4.60342581 L69.7376581,3.77607097 L70.8567548,3.77607097 L70.8567548,4.60342581 L72.7449484,4.60342581 L72.7449484,5.4885871 L70.7014,5.4885871 L72.8226258,7.64910323 L72.1221742,8.30123226 L70.2926903,6.40355484 L68.4921097,8.4565871 L67.7722387,7.78503871 L69.8939161,5.4885871 L67.7523677,5.4885871 Z" id="Fill-13" fill="#58585B" mask="url(#mask-4)"></path>
            <polygon id="Fill-14" fill="#58585B" mask="url(#mask-4)" points="33.3606903 19.1234129 36.0590774 16.0998645 37.3660452 16.0998645 34.4761742 19.3234774 37.3565613 22.5949613 36.0121097 22.5949613 33.3606903 19.5718645 33.3606903 22.5949613 32.2732065 22.5949613 32.2732065 16.0998645 33.3606903 16.0998645"></polygon>
            <path d="M42.4774,19.3522903 C42.4774,18.6274516 42.2610774,18.0548065 41.8284323,17.6357097 C41.3962387,17.2161613 40.8077871,17.0061613 40.0644323,17.0061613 L39.1584968,17.0061613 L39.1584968,21.6889355 L40.0644323,21.6889355 C40.8077871,21.6889355 41.3962387,21.4789355 41.8284323,21.0593871 C42.2610774,20.6398387 42.4774,20.0708065 42.4774,19.3522903 M43.5644323,19.3522903 C43.5644323,20.287129 43.2564323,21.0611935 42.639529,21.6744839 C42.0226258,22.2882258 41.2183032,22.594871 40.2265613,22.594871 L38.0710129,22.594871 L38.0710129,16.0997742 L40.2265613,16.0997742 C41.2183032,16.0997742 42.0226258,16.406871 42.639529,17.0201613 C43.2564323,17.6339032 43.5644323,18.4115806 43.5644323,19.3522903" id="Fill-15" fill="#58585B" mask="url(#mask-4)"></path>
            <path d="M47.8661355,21.7938452 C48.5462645,21.7938452 49.1658774,21.5743613 49.7258774,21.1353935 L50.174329,21.927071 C49.5953613,22.4486839 48.8258129,22.7092645 47.8661355,22.7092645 C46.9317484,22.7092645 46.140071,22.3863613 45.4911032,21.7410065 C44.8430387,21.0961032 44.518329,20.2994581 44.518329,19.3524258 C44.518329,18.3981677 44.8430387,17.5992645 45.4911032,16.9534581 C46.140071,16.3085548 46.9317484,15.9856516 47.8661355,15.9856516 C48.8136194,15.9856516 49.5696194,16.2462323 50.1359419,16.7678452 L49.6969742,17.5595226 C49.1442,17.1205548 48.534071,16.9015226 47.8661355,16.9015226 C47.2492323,16.9015226 46.7181355,17.1300387 46.2737484,17.5879742 C45.8280065,18.0712 45.6058129,18.6592 45.6058129,19.3524258 C45.6058129,20.0452 45.8280065,20.6300387 46.2737484,21.1069419 C46.7181355,21.5648774 47.2492323,21.7938452 47.8661355,21.7938452" id="Fill-16" fill="#58585B" mask="url(#mask-4)"></path>
            <path d="M52.529129,19.7814129 L54.4078387,19.7814129 L53.4734516,17.053671 L52.529129,19.7814129 Z M54.2082258,16.0998645 L56.4780323,22.5945097 L55.371129,22.5945097 L54.7135806,20.6873484 L52.2238387,20.6873484 L51.5662903,22.5945097 L50.4503548,22.5945097 L52.7201613,16.0998645 L54.2082258,16.0998645 Z" id="Fill-17" fill="#58585B" mask="url(#mask-4)"></path>
        </g>
    </g>
</svg>