<?xml version="1.0" encoding="UTF-8"?>
<svg width="100px" height="60px" viewBox="0 0 100 60" version="1.1" xmlns="http://www.w3.org/2000/svg" xmlns:xlink="http://www.w3.org/1999/xlink">
    <!-- Generator: Sketch 55.2 (78181) - https://sketchapp.com -->
    <title>logo/kedi</title>
    <desc>Created with Sketch.</desc>
    <defs>
        <polygon id="path-1" points="0.066484443 0.0496494845 3.1943401 0.0496494845 3.1943401 3.83649756 0.066484443 3.83649756"></polygon>
        <polygon id="path-3" points="0 15.9503835 74.3338557 15.9503835 74.3338557 0.164981443 0 0.164981443"></polygon>
    </defs>
    <g id="logo/kedi" stroke="none" stroke-width="1" fill="none" fill-rule="evenodd">
        <g transform="translate(13.000000, 22.000000)">
            <path d="M9.1286433,10.9179711 C9.1286433,10.9179711 8.54555052,10.1486515 11.8742103,7.7859299 C11.8742103,7.7859299 12.7042309,7.11491959 13.728066,7.85999175 C13.728066,7.85999175 14.5246021,8.40036289 14.1839835,9.15681649 C14.1839835,9.15681649 13.6203546,10.4510021 10.5282309,11.1201979 C10.2822928,11.1724866 9.94711753,11.2490227 9.64229278,11.2381361 C9.64229278,11.2381361 9.28534433,11.2406103 9.1286433,10.9179711" id="Fill-1" fill="#82C62F"></path>
            <path d="M8.83975258,12.9639588 C8.83975258,12.9639588 9.15562887,12.1923299 14.0484948,12.5144742 C14.0484948,12.5144742 15.3514227,12.5448247 15.3976082,13.5346804 C15.3976082,13.5346804 15.4738144,14.2812371 14.4630103,14.5581856 C14.4630103,14.5581856 12.7480412,15.0449485 9.71265979,13.8230103 C9.4716701,13.7263505 9.13896907,13.5950515 8.91678351,13.4279588 C8.91678351,13.4279588 8.6396701,13.241567 8.83975258,12.9639588" id="Fill-3" fill="#FFA300"></path>
            <path d="M9.18437938,4.45694021 C9.18437938,4.45694021 14.7594722,0.387002062 16.3878433,2.19599175 C16.3878433,2.19599175 18.2261938,4.30667216 13.6755959,5.51096082 C13.6755959,5.51096082 6.84178144,6.79228041 7.53555464,10.9209402 C7.53555464,10.9209402 7.70264742,11.9023835 8.00846186,12.8953732 C8.00846186,12.8953732 8.72087423,15.4024247 6.97324536,15.9299299 C6.97324536,15.9299299 4.63097732,16.588734 4.63312165,10.4241155 C4.63312165,10.4241155 4.81604948,7.90122887 2.97538969,6.71673402 C2.97538969,6.71673402 1.25778144,5.3001567 0.865863918,5.08885773 C0.865863918,5.08885773 -0.611249485,3.94395052 0.293162887,2.37694021 C0.293162887,2.37694021 1.31798763,0.960362887 3.12615258,3.37141443 C3.12615258,3.37141443 5.29621443,6.53529072 7.37621443,5.48110515 C7.37621443,5.48110515 8.39394639,4.9859299 9.18437938,4.45694021" id="Fill-5" fill="#157CB5"></path>
            <g id="Group-9" transform="translate(4.453608, 0.115332)">
                <mask id="mask-2" fill="white">
                    <use xlink:href="#path-1"></use>
                </mask>
                <g id="Clip-8"></g>
                <path d="M3.10005773,2.36770309 C2.80611959,3.38708454 1.90863505,4.02279588 1.09741856,3.78757938 C0.285707216,3.55335258 -0.133756701,2.53710515 0.16051134,1.51838351 C0.454779381,0.499661856 1.35127423,-0.13654433 2.16348041,0.098342268 C2.9753567,0.332898969 3.39482062,1.34931134 3.10005773,2.36770309" id="Fill-7" fill="#FF4100" mask="url(#mask-2)"></path>
            </g>
            <path d="M34.4554887,3.82244948 L28.1138804,3.82244948 L28.1138804,4.56042887 L33.0072412,4.56042887 L33.0072412,6.17494433 L32.8587876,6.17494433 L27.7478598,6.17494433 L27.7478598,6.90484124 L30.6298392,6.90484124 L30.6298392,7.81172784 L28.1110763,7.81172784 L28.1110763,8.54261443 L33.0017979,8.54261443 L33.0017979,10.1845113 L33.1639423,10.1845113 C33.4370969,10.1845113 33.6947464,10.1403052 33.935901,10.0530474 C34.2791588,9.93197526 34.4510351,9.75795464 34.4510351,9.52917113 L34.4510351,9.24694433 L34.4554887,9.24694433 L34.4554887,7.81172784 L32.0017155,7.81172784 L32.0017155,6.90484124 L34.8187052,6.90484124 L34.8187052,6.17494433 L34.4554887,6.17494433 L34.4554887,3.82244948 Z" id="Fill-10" fill="#253150"></path>
            <path d="M41.0394887,6.76155052 L41.0389938,6.76155052 L41.0389938,8.67874639 L41.201468,8.67874639 C41.4746227,8.67874639 41.7316124,8.63454021 41.9732619,8.54810722 C42.3158598,8.4268701 42.4875711,8.25185979 42.4875711,8.02340619 L42.4875711,6.76155052 L42.4870763,6.76155052 L42.4870763,3.82249897 L36.145468,3.82249897 L36.145468,4.6195299 L41.0394887,4.6195299 L41.0394887,6.76155052 Z" id="Fill-12" fill="#253150"></path>
            <polygon id="Fill-14" fill="#253150" points="40.3821856 6.07099381 38.9339381 6.07099381 38.9339381 9.00179794 38.4362887 9.00179794 38.4362887 6.07099381 36.988866 6.07099381 36.988866 9.00179794 35.7877113 9.00179794 35.7877113 9.71701443 42.8475052 9.71701443 42.8475052 9.00179794 40.3821856 9.00179794"></polygon>
            <path d="M61.3645526,9.00600412 L65.9321402,9.00600412 L65.9321402,7.16880825 L59.9164701,7.16880825 L59.9164701,7.91454021 L64.4847175,7.91454021 L64.4847175,8.26027216 L59.9164701,8.26027216 L59.9164701,9.38785979 C59.9164701,9.62307629 60.0099959,9.80402474 60.1968825,9.93103505 C60.3898722,10.0626639 60.6671505,10.1288082 61.0308619,10.1288082 L65.9847588,10.1288082 L65.9847588,9.37548866 L61.3645526,9.37548866 L61.3645526,9.00600412 Z" id="Fill-16" fill="#253150"></path>
            <path d="M65.9322062,3.69011134 L64.4836289,3.69011134 L64.4836289,6.84656495 L64.6457732,6.84656495 C64.9192577,6.84656495 65.1762474,6.80235876 65.417732,6.71477113 C65.7614845,6.59402887 65.9322062,6.41934845 65.9322062,6.19122474 L65.9322062,5.78099794 L66.7595876,5.78099794 L66.7595876,4.99633814 L65.9322062,4.99633814 L65.9322062,3.69011134 Z" id="Fill-18" fill="#253150"></path>
            <mask id="mask-4" fill="white">
                <use xlink:href="#path-3"></use>
            </mask>
            <g id="Clip-21"></g>
            <path d="M46.7671753,8.02510515 L47.9788866,8.02510515 L47.9788866,7.29520825 L46.7671753,7.29520825 L46.7671753,8.02510515 Z M43.7717113,7.29520825 L45.2443711,7.29520825 L45.2443711,8.02510515 L44.176,8.02510515 L44.176,8.76341443 L49.0685361,8.76341443 L49.0685361,10.1794969 L49.2306804,10.1794969 C49.504,10.1794969 49.7606598,10.1357856 50.0023093,10.0486928 C50.3454021,9.92795052 50.5167835,9.75277526 50.5167835,9.5238268 L50.5167835,8.11005361 L50.5167835,8.02510515 L49.5015258,8.02510515 L49.5015258,7.29520825 L50.9240412,7.29520825 L50.9240412,6.5641567 L43.7717113,6.5641567 L43.7717113,7.29520825 Z" id="Fill-20" fill="#253150" mask="url(#mask-4)"></path>
            <path d="M46.0226474,4.57840825 C46.3386887,4.4662433 46.7748124,4.40966598 47.3311835,4.40966598 C47.8882144,4.40966598 48.3263175,4.4662433 48.647967,4.57840825 C48.9381113,4.68677938 49.0834309,4.82632577 49.0834309,4.99638763 C49.0834309,5.16348041 48.9381113,5.30170722 48.647967,5.40908866 C48.3263175,5.52603711 47.8882144,5.58525361 47.3311835,5.58525361 C46.7748124,5.58525361 46.3386887,5.52603711 46.0226474,5.40908866 C45.7313485,5.30170722 45.5861938,5.16348041 45.5861938,4.99638763 C45.5861938,4.82632577 45.7313485,4.68677938 46.0226474,4.57840825 M44.9447093,5.92900619 C45.5274722,6.20364536 46.3287918,6.34137732 47.3475134,6.34137732 C48.359967,6.34137732 49.1611216,6.20364536 49.7501526,5.92900619 C50.2840907,5.67663505 50.5518021,5.36570722 50.5518021,4.99638763 C50.5518021,4.62360412 50.2840907,4.31086186 49.7501526,4.05799588 C49.1611216,3.78814021 48.359967,3.65304742 47.3475134,3.65304742 C46.3287918,3.65304742 45.5274722,3.78814021 44.9447093,4.05799588 C44.4158845,4.31086186 44.1516371,4.62360412 44.1516371,4.99638763 C44.1516371,5.36570722 44.4158845,5.67663505 44.9447093,5.92900619" id="Fill-22" fill="#253150" mask="url(#mask-4)"></path>
            <path d="M21.0178969,5.55729485 C21.2003299,5.39515052 21.4541856,5.31416082 21.7796289,5.31416082 C22.1148041,5.31416082 22.3815258,5.39910928 22.5786392,5.57016082 C22.7559588,5.72834639 22.8450309,5.92166598 22.8450309,6.15110928 C22.8450309,6.3673567 22.7508454,6.55028454 22.5634639,6.69840825 C22.3660206,6.86055258 22.1052371,6.94203711 21.7796289,6.94203711 C21.4589691,6.94203711 21.2052784,6.85807835 21.0178969,6.69197526 C20.8498144,6.53890309 20.7660206,6.34888247 20.7660206,6.12455258 C20.7660206,5.89477938 20.8498144,5.70541856 21.0178969,5.55729485 M21.7766598,7.64917113 C22.4202887,7.64917113 22.9595052,7.53486186 23.3944742,7.30508866 C23.7860619,7.09708866 24.0334845,6.83910928 24.137732,6.52834639 C24.2363711,6.14533608 24.1844124,5.8124701 23.980866,5.52892371 C23.7608247,5.21387216 23.3779794,4.99745979 22.8326598,4.88051134 L24.1045773,4.88051134 L24.1045773,4.17337732 L22.4955052,4.17337732 L22.4955052,3.65296495 L21.1236289,3.65296495 L21.1236289,4.17337732 L19.4558351,4.17337732 L19.4558351,4.88051134 L20.7198351,4.88051134 C20.1964536,5.00620206 19.8274639,5.22211959 19.6123711,5.52892371 C19.4088247,5.8124701 19.3598351,6.13708866 19.4640825,6.50162474 C19.5635464,6.81667629 19.8030515,7.08075876 20.1829278,7.29156289 C20.6119588,7.5302433 21.1432577,7.64917113 21.7766598,7.64917113" id="Fill-23" fill="#253150" mask="url(#mask-4)"></path>
            <path d="M26.1703753,3.6867299 L24.7229526,3.6867299 L24.7229526,7.57522474 L24.7229526,8.40178144 L24.8852619,8.40178144 C25.1585814,8.40178144 25.415901,8.35938969 25.6567258,8.27163711 C26.0006433,8.15089485 26.1716948,7.97571959 26.1716948,7.74660619 L26.1716948,6.43493608 L27.0126021,6.43493608 L27.0126021,5.66479175 L26.1703753,5.66479175 L26.1703753,3.6867299 Z" id="Fill-24" fill="#253150" mask="url(#mask-4)"></path>
            <path d="M21.2224825,8.02799175 L19.7750598,8.02799175 L19.7750598,9.44654845 C19.7750598,9.66724948 19.8461526,9.8364866 19.9898227,9.9532701 C20.1275546,10.0611464 20.3200495,10.1149196 20.5673072,10.1149196 L26.2154722,10.1149196 L26.2154722,9.38535258 L21.2224825,9.38535258 L21.2224825,8.02799175 Z" id="Fill-25" fill="#253150" mask="url(#mask-4)"></path>
            <path d="M54.5723381,3.81898557 L51.452668,3.81898557 L51.452668,4.55630515 L53.1461938,4.55630515 L53.1461938,9.84587216 L53.3078433,9.84587216 C53.5818227,9.84587216 53.8383175,9.80216082 54.0794722,9.71473814 C54.4237196,9.59432577 54.5941113,9.41931546 54.5941113,9.1910268 L54.5941113,3.82888247 L54.5723381,3.82888247 L54.5723381,3.81898557 Z" id="Fill-26" fill="#253150" mask="url(#mask-4)"></path>
            <path d="M58.3507794,3.70307629 L56.9972124,3.70307629 L56.9972124,6.1555299 L56.499068,6.1555299 L56.499068,3.70307629 L55.1321402,3.70307629 L55.1321402,7.02068454 L55.1321402,10.1771381 L55.2833979,10.1771381 C55.5374186,10.1771381 55.7780784,10.1337567 56.0024082,10.0458392 C56.3225732,9.92559175 56.4822433,9.74992165 56.5005526,9.52163299 L56.499068,6.90868454 L56.9932536,6.90868454 L56.9912742,10.1771381 L57.1418722,10.1771381 C57.3970474,10.1771381 57.6357278,10.1337567 57.8610474,10.0458392 C58.1812124,9.92559175 58.3408825,9.74992165 58.3522639,9.52163299 L58.3522639,7.02068454 L58.3507794,7.02068454 L58.3507794,3.70307629 Z" id="Fill-27" fill="#253150" mask="url(#mask-4)"></path>
            <path d="M60.9542268,5.99986804 L62.2197113,5.99986804 L62.2197113,5.1241567 L60.9542268,5.1241567 L60.9542268,5.99986804 Z M62.6192165,6.71491959 C62.9809485,6.71491959 63.2453608,6.65916701 63.4109691,6.54683711 C63.5754227,6.42988866 63.6587216,6.24597113 63.6587216,5.99376495 L63.6587216,3.74749691 L62.2197113,3.74749691 L62.2197113,4.40910515 L60.9542268,4.40910515 L60.9542268,3.74749691 L59.5157113,3.74749691 L59.5157113,5.99376495 C59.5157113,6.24597113 59.5978557,6.42988866 59.7637938,6.54683711 C59.9284124,6.65916701 60.1929897,6.71491959 60.5563711,6.71491959 L62.6192165,6.71491959 Z" id="Fill-28" fill="#253150" mask="url(#mask-4)"></path>
            <path d="M69.415934,7.26726598 L67.3796454,7.26726598 L67.3796454,6.54429691 L72.8377897,6.54429691 L72.8377897,3.67419381 L74.2858722,3.67419381 L74.2906557,8.41629691 C74.2906557,8.64458557 74.1182845,8.81976082 73.7753567,8.94182268 C73.5342021,9.02891546 73.2765526,9.07229691 73.0029031,9.07229691 L72.8381196,9.07229691 L72.8377897,8.28813196 L71.6918928,8.28813196 L71.6918928,7.62767835 L72.8377897,7.62767835 L72.8377897,7.26726598 L70.8641814,7.26726598 L70.8641814,8.28813196 L69.4156041,8.28565773 L69.415934,7.26726598 Z" id="Fill-29" fill="#253150" mask="url(#mask-4)"></path>
            <path d="M69.2853773,4.55181856 C69.4790268,4.42612784 69.7492124,4.36328247 70.0918103,4.36328247 C70.4398515,4.36328247 70.7102021,4.42612784 70.905501,4.55181856 C71.0788619,4.6697567 71.1661196,4.82299381 71.1661196,5.01202474 C71.1661196,5.18736495 71.0788619,5.33103505 70.905501,5.44451959 C70.7102021,5.57466392 70.4398515,5.63981856 70.0918103,5.63981856 C69.7492124,5.63981856 69.4790268,5.57466392 69.2853773,5.44451959 C69.1163052,5.33103505 69.0316866,5.18736495 69.0316866,5.01202474 C69.0316866,4.82744742 69.1163052,4.67470515 69.2853773,4.55181856 M68.307068,5.94365361 C68.7417072,6.22324124 69.3365113,6.36278763 70.0901608,6.36278763 C70.8505732,6.36278763 71.4478515,6.22324124 71.8828206,5.94365361 C72.2737485,5.69161237 72.4690474,5.3788701 72.4690474,5.00493196 C72.4690474,4.62291134 72.2737485,4.30736495 71.8828206,4.06027216 C71.4478515,3.78068454 70.8505732,3.64113814 70.0901608,3.64113814 C69.3317278,3.64113814 68.7362639,3.78068454 68.307068,4.06027216 C67.9224082,4.30736495 67.7295835,4.62291134 67.7295835,5.00493196 C67.7295835,5.3788701 67.9224082,5.69161237 68.307068,5.94365361" id="Fill-30" fill="#253150" mask="url(#mask-4)"></path>
            <path d="M69.2912495,9.38543505 L74.2796206,9.38543505 L74.2796206,10.1158268 L68.924899,10.1158268 C68.5352907,10.1158268 68.2533938,10.060734 68.0830021,9.94724948 C67.923332,9.83491959 67.8441567,9.65149691 67.8441567,9.40044536 L67.8441567,8.28819794 L69.2909196,8.28819794 L69.2912495,9.38543505 Z" id="Fill-31" fill="#253150" mask="url(#mask-4)"></path>
            <path d="M19.7629856,11.4256165 L19.9929237,11.4256165 L19.9929237,12.2833485 L20.0010062,12.2833485 C20.0480165,12.2147299 20.0960165,12.1510598 20.1407175,12.0939876 L20.6838928,11.4256165 L20.9689237,11.4256165 L20.3254598,12.1805856 L21.019068,13.2035959 L20.7475629,13.2035959 L20.1648,12.3310186 L19.9929237,12.5259876 L19.9929237,13.2035959 L19.7629856,13.2035959 L19.7629856,11.4256165 Z" id="Fill-32" fill="#253150" mask="url(#mask-4)"></path>
            <path d="M21.8398186,13.0454598 C22.2035299,13.0454598 22.4093856,12.7097897 22.4093856,12.3069856 C22.4093856,11.9543258 22.2246433,11.5848412 21.8426227,11.5848412 C21.4599423,11.5848412 21.2697567,11.9408 21.2697567,12.3256247 C21.2697567,12.7000577 21.4751175,13.0454598 21.8365196,13.0454598 L21.8398186,13.0454598 Z M21.8290969,13.233501 C21.3570144,13.233501 21.0302515,12.8694598 21.0302515,12.331068 C21.0302515,11.7661196 21.3781278,11.3972948 21.8526845,11.3972948 C22.3404371,11.3972948 22.6549938,11.7690887 22.6549938,12.2967588 C22.6549938,12.9059134 22.2828701,13.233501 21.8310763,13.233501 L21.8290969,13.233501 Z" id="Fill-33" fill="#253150" mask="url(#mask-4)"></path>
            <path d="M23.1822845,12.2589691 L23.4173361,12.2589691 C23.6624495,12.2589691 23.8181608,12.1250309 23.8181608,11.9223093 C23.8181608,11.6920412 23.6517278,11.5915876 23.4092536,11.5915876 C23.2975835,11.5915876 23.2215423,11.6029691 23.1822845,11.6135258 L23.1822845,12.2589691 Z M22.9528412,11.4517113 C23.0684701,11.4289485 23.2380371,11.4126186 23.3935835,11.4126186 C23.6393567,11.4126186 23.7993567,11.4604536 23.910532,11.5604124 C23.9968,11.6369485 24.0497485,11.7581856 24.0497485,11.8978969 C24.0497485,12.1301443 23.9004701,12.2858557 23.7155629,12.3483711 L23.7155629,12.3574433 C23.849501,12.4044536 23.9314804,12.531299 23.9761814,12.7160412 C24.0344082,12.9639588 24.0768,13.1351753 24.1107794,13.2036289 L23.8739134,13.2036289 C23.8445526,13.1539794 23.8048,13.0012371 23.7576247,12.7783918 C23.7048412,12.5332784 23.606367,12.4414021 23.3986969,12.4339794 L23.1822845,12.4339794 L23.1822845,13.2036289 L22.9528412,13.2036289 L22.9528412,11.4517113 Z" id="Fill-34" fill="#253150" mask="url(#mask-4)"></path>
            <polygon id="Fill-35" fill="#253150" mask="url(#mask-4)" points="25.2900454 12.3708536 24.6022103 12.3708536 24.6022103 13.0110186 25.3721897 13.0110186 25.3721897 13.2036784 24.369633 13.2036784 24.369633 11.425699 25.3326021 11.425699 25.3326021 11.6185237 24.6022103 11.6185237 24.6022103 12.1805031 25.2900454 12.1805031"></polygon>
            <path d="M26.5403711,12.4653196 L26.3640412,11.9543093 C26.3270928,11.8371959 26.3003711,11.7319588 26.2741443,11.6290309 L26.2662268,11.6290309 C26.2424742,11.7319588 26.2136082,11.8421443 26.179134,11.9516701 L26.0052784,12.4653196 L26.5403711,12.4653196 Z M25.9572784,12.6441237 L25.772866,13.2036289 L25.5348454,13.2036289 L26.1395464,11.4256495 L26.4164948,11.4256495 L27.0228454,13.2036289 L26.7780619,13.2036289 L26.5882062,12.6441237 L25.9572784,12.6441237 Z" id="Fill-36" fill="#253150" mask="url(#mask-4)"></path>
            <path d="M27.2841732,13.2036454 L27.2841732,11.425666 L27.5378639,11.425666 L28.1047918,12.3256247 C28.2344412,12.5332948 28.3393485,12.718532 28.4216577,12.9034392 L28.4290804,12.9009649 C28.4084619,12.6637691 28.4026887,12.4475216 28.4026887,12.1725526 L28.4026887,11.425666 L28.6194309,11.425666 L28.6194309,13.2036454 L28.3870186,13.2036454 L27.8227299,12.3017072 C27.6983588,12.1042639 27.5799258,11.9008825 27.492833,11.7085526 L27.4847505,11.7110268 C27.4984412,11.9353567 27.5005856,12.1494598 27.5005856,12.4445526 L27.5005856,13.2036454 L27.2841732,13.2036454 Z" id="Fill-37" fill="#253150" mask="url(#mask-4)"></path>
            <polygon id="Fill-38" fill="#253150" mask="url(#mask-4)" points="30.4976 12.3708536 29.8086103 12.3708536 29.8086103 13.0110186 30.5790845 13.0110186 30.5790845 13.2036784 29.5766928 13.2036784 29.5766928 11.425699 30.5398268 11.425699 30.5398268 11.6185237 29.8086103 11.6185237 29.8086103 12.1805031 30.4976 12.1805031"></polygon>
            <path d="M31.1069031,13.0252536 C31.1648,13.0351505 31.2492536,13.0351505 31.3389856,13.0351505 C31.8293773,13.0376247 32.096099,12.7606763 32.096099,12.2808412 C32.0985732,11.8562639 31.8612124,11.5949856 31.3756041,11.5949856 C31.2570062,11.5949856 31.1672742,11.6057072 31.1069031,11.6185732 L31.1069031,13.0252536 Z M30.8749856,11.449501 C31.017666,11.4290474 31.1834392,11.4127175 31.3655423,11.4127175 C31.6949443,11.4127175 31.9298309,11.4867794 32.0858722,11.6324289 C32.2460371,11.7770887 32.3387381,11.9854186 32.3387381,12.2734186 C32.3387381,12.5627381 32.2460371,12.799934 32.0827381,12.9638928 C31.9141608,13.129666 31.6395216,13.2197278 31.2939546,13.2197278 C31.1280165,13.2197278 30.9932536,13.2144495 30.8749856,13.1986144 L30.8749856,11.449501 Z" id="Fill-39" fill="#253150" mask="url(#mask-4)"></path>
            <path d="M32.864066,11.4256165 L32.864066,12.4807918 C32.864066,12.8765031 33.040066,13.0454103 33.2775918,13.0454103 C33.5393649,13.0454103 33.7105814,12.8710598 33.7105814,12.4807918 L33.7105814,11.4256165 L33.942334,11.4256165 L33.942334,12.4652866 C33.942334,13.011101 33.6548289,13.2334515 33.2700041,13.2334515 C32.9053031,13.2334515 32.6321485,13.0267711 32.6321485,12.4733691 L32.6321485,11.4256165 L32.864066,11.4256165 Z" id="Fill-40" fill="#253150" mask="url(#mask-4)"></path>
            <path d="M35.5806515,13.1488825 C35.4988371,13.1907794 35.3271258,13.233501 35.1110433,13.233501 C34.6097649,13.233501 34.235167,12.9168 34.235167,12.331068 C34.235167,11.771068 34.612734,11.3972948 35.1638268,11.3972948 C35.3825485,11.3972948 35.5252289,11.4444701 35.5860948,11.4763052 L35.5281979,11.6636866 C35.4437443,11.6214598 35.319868,11.5896247 35.1717443,11.5896247 C34.7552495,11.5896247 34.4781361,11.8563464 34.4781361,12.3231505 C34.4781361,12.7605938 34.7285278,13.0377072 35.1588784,13.0377072 C35.300899,13.0377072 35.4437443,13.0088412 35.5359505,12.9639753 L35.5806515,13.1488825 Z" id="Fill-41" fill="#253150" mask="url(#mask-4)"></path>
            <path d="M36.7523629,12.4653196 L36.5752082,11.9543093 C36.5384247,11.8371959 36.511868,11.7319588 36.4851464,11.6290309 L36.4775588,11.6290309 C36.4538062,11.7319588 36.4251052,11.8421443 36.390466,11.9516701 L36.2162804,12.4653196 L36.7523629,12.4653196 Z M36.1692701,12.6441237 L35.9845278,13.2036289 L35.7470021,13.2036289 L36.3512082,11.4256495 L36.6279918,11.4256495 L37.2350021,13.2036289 L36.9893938,13.2036289 L36.7992082,12.6441237 L36.1692701,12.6441237 Z" id="Fill-42" fill="#253150" mask="url(#mask-4)"></path>
            <polygon id="Fill-43" fill="#253150" mask="url(#mask-4)" points="37.6255835 11.6214103 37.0840577 11.6214103 37.0840577 11.4256165 38.4008412 11.4256165 38.4008412 11.6214103 37.8571711 11.6214103 37.8571711 13.2035959 37.6255835 13.2035959"></polygon>
            <polygon id="Fill-44" fill="#253150" mask="url(#mask-4)" points="38.5966186 13.2036619 38.8275464 13.2036619 38.8275464 11.4256825 38.5966186 11.4256825"></polygon>
            <path d="M39.9334103,13.0454598 C40.2969567,13.0454598 40.5033072,12.7097897 40.5033072,12.3069856 C40.5033072,11.9543258 40.3190598,11.5848412 39.9357196,11.5848412 C39.553534,11.5848412 39.3636784,11.9408 39.3636784,12.3256247 C39.3636784,12.7000577 39.5692041,13.0454598 39.9309361,13.0454598 L39.9334103,13.0454598 Z M39.9225237,13.233501 C39.4506062,13.233501 39.1236784,12.8694598 39.1236784,12.331068 C39.1236784,11.7661196 39.4715546,11.3972948 39.9466062,11.3972948 C40.4345237,11.3972948 40.7485856,11.7690887 40.7485856,12.2967588 C40.7485856,12.9059134 40.3767918,13.233501 39.9251629,13.233501 L39.9225237,13.233501 Z" id="Fill-45" fill="#253150" mask="url(#mask-4)"></path>
            <path d="M41.0467299,13.2036454 L41.0467299,11.425666 L41.3000907,11.425666 L41.8668536,12.3256247 C41.9963381,12.5332948 42.1014103,12.718532 42.1837196,12.9034392 L42.1913072,12.9009649 C42.1698639,12.6637691 42.1654103,12.4475216 42.1654103,12.1725526 L42.1654103,11.425666 L42.3811629,11.425666 L42.3811629,13.2036454 L42.1492454,13.2036454 L41.5849567,12.3017072 C41.4605856,12.1042639 41.3414928,11.9008825 41.2553897,11.7085526 L41.2469773,11.7110268 C41.2600082,11.9353567 41.2628124,12.1494598 41.2628124,12.4445526 L41.2628124,13.2036454 L41.0467299,13.2036454 Z" id="Fill-46" fill="#253150" mask="url(#mask-4)"></path>
            <path d="M43.6532124,12.4653196 L43.4762227,11.9543093 C43.4387794,11.8371959 43.4130474,11.7319588 43.3866557,11.6290309 L43.3787381,11.6290309 C43.3548206,11.7319588 43.3257897,11.8421443 43.2911505,11.9516701 L43.1174598,12.4653196 L43.6532124,12.4653196 Z M43.0704495,12.6441237 L42.8850474,13.2036289 L42.6480165,13.2036289 L43.2518928,11.4256495 L43.5288412,11.4256495 L44.1360165,13.2036289 L43.8905732,13.2036289 L43.7003876,12.6441237 L43.0704495,12.6441237 Z" id="Fill-47" fill="#253150" mask="url(#mask-4)"></path>
            <polygon id="Fill-48" fill="#253150" mask="url(#mask-4)" points="44.3941113 11.4256165 44.6266887 11.4256165 44.6266887 13.011101 45.3857814 13.011101 45.3857814 13.2035959 44.3941113 13.2035959"></polygon>
            <path d="M46.4309113,13.0252536 C46.4889732,13.0351505 46.5726021,13.0351505 46.6629938,13.0351505 C47.1533856,13.0376247 47.4201072,12.7606763 47.4201072,12.2808412 C47.4225814,11.8562639 47.1852206,11.5949856 46.6996124,11.5949856 C46.5813443,11.5949856 46.4914474,11.6057072 46.4309113,11.6185732 L46.4309113,13.0252536 Z M46.198499,11.449501 C46.3408495,11.4290474 46.5076124,11.4127175 46.6895505,11.4127175 C47.0189526,11.4127175 47.2541691,11.4867794 47.4100454,11.6324289 C47.5703753,11.7770887 47.6625814,11.9854186 47.6625814,12.2734186 C47.6625814,12.5627381 47.5703753,12.799934 47.4069113,12.9638928 C47.2380041,13.129666 46.9635299,13.2197278 46.6179629,13.2197278 C46.4515299,13.2197278 46.316932,13.2144495 46.198499,13.1986144 L46.198499,11.449501 Z" id="Fill-49" fill="#253150" mask="url(#mask-4)"></path>
            <polygon id="Fill-50" fill="#253150" mask="url(#mask-4)" points="48.8763052 12.3708536 48.1876454 12.3708536 48.1876454 13.0110186 48.9576247 13.0110186 48.9576247 13.2036784 47.955233 13.2036784 47.955233 11.425699 48.918367 11.425699 48.918367 11.6185237 48.1876454 11.6185237 48.1876454 12.1805031 48.8763052 12.1805031"></polygon>
            <path d="M49.6671505,13.2036454 L49.0843876,11.425666 L49.3356041,11.425666 L49.6123876,12.3017072 C49.6854598,12.5420371 49.7516041,12.7605938 49.8019134,12.9666144 L49.8068619,12.9666144 C49.8570062,12.7605938 49.9287588,12.5365938 50.0102433,12.3045113 L50.3111093,11.425666 L50.5562227,11.425666 L49.9206763,13.2036454 L49.6671505,13.2036454 Z" id="Fill-51" fill="#253150" mask="url(#mask-4)"></path>
            <polygon id="Fill-52" fill="#253150" mask="url(#mask-4)" points="51.6669856 12.3708536 50.9783258 12.3708536 50.9783258 13.0110186 51.7484701 13.0110186 51.7484701 13.2036784 50.7465732 13.2036784 50.7465732 11.425699 51.7097072 11.425699 51.7097072 11.6185237 50.9783258 11.6185237 50.9783258 12.1805031 51.6669856 12.1805031"></polygon>
            <polygon id="Fill-53" fill="#253150" mask="url(#mask-4)" points="52.0439093 11.4256165 52.2764866 11.4256165 52.2764866 13.011101 53.0359093 13.011101 53.0359093 13.2035959 52.0439093 13.2035959"></polygon>
            <path d="M53.8936247,13.0454598 C54.2571711,13.0454598 54.4633567,12.7097897 54.4633567,12.3069856 C54.4633567,11.9543258 54.2784495,11.5848412 53.896099,11.5848412 C53.5137485,11.5848412 53.323233,11.9408 53.323233,12.3256247 C53.323233,12.7000577 53.5295835,13.0454598 53.8904907,13.0454598 L53.8936247,13.0454598 Z M53.8820784,13.233501 C53.4108206,13.233501 53.0835629,12.8694598 53.0835629,12.331068 C53.0835629,11.7661196 53.4311093,11.3972948 53.9064907,11.3972948 C54.3947381,11.3972948 54.7089649,11.7690887 54.7089649,12.2967588 C54.7089649,12.9059134 54.3366763,13.233501 53.8857072,13.233501 L53.8820784,13.233501 Z" id="Fill-54" fill="#253150" mask="url(#mask-4)"></path>
            <path d="M55.2355959,12.3045608 C55.2864,12.3170969 55.3515546,12.3230351 55.4259464,12.3230351 C55.7060289,12.3230351 55.8726268,12.1859629 55.8726268,11.945633 C55.8726268,11.7084371 55.7060289,11.5949526 55.4523381,11.5949526 C55.3515546,11.5949526 55.2758433,11.6056742 55.2355959,11.6135918 L55.2355959,12.3045608 Z M55.0063175,11.449468 C55.1173278,11.4290144 55.2624825,11.4126845 55.4473897,11.4126845 C55.673699,11.4126845 55.8402969,11.4659629 55.945699,11.5603134 C56.0431835,11.6454268 56.1042144,11.7740866 56.1042144,11.932932 C56.1042144,12.0939216 56.0565443,12.2202722 55.9640082,12.3121485 C55.8427711,12.441468 55.6453278,12.5076124 55.4205031,12.5076124 C55.3515546,12.5076124 55.2893691,12.5051381 55.2355959,12.4916124 L55.2355959,13.2036948 L55.0063175,13.2036948 L55.0063175,11.449468 Z" id="Fill-55" fill="#253150" mask="url(#mask-4)"></path>
            <path d="M57.9086845,12.4224825 C57.8951588,12.1748948 57.8793237,11.8745237 57.8793237,11.6562969 L57.8738804,11.6562969 C57.8107052,11.8616577 57.7391175,12.0854928 57.6502103,12.331101 L57.3358186,13.1937814 L57.1619629,13.1937814 L56.8714887,12.3469361 C56.7875299,12.0939052 56.7182515,11.8661113 56.6686021,11.6562969 L56.6631588,11.6562969 C56.6577155,11.8769979 56.6448495,12.1724206 56.6293443,12.4414515 L56.5811794,13.2036784 L56.3627876,13.2036784 L56.4866639,11.425699 L56.7784577,11.425699 L57.0822928,12.2859052 C57.1575093,12.5051216 57.2150763,12.7000907 57.2622515,12.8854928 L57.2672,12.8854928 C57.3150351,12.7050392 57.3780454,12.5099052 57.4572206,12.2859052 L57.7745814,11.425699 L58.0667052,11.425699 L58.1772206,13.2036784 L57.9505814,13.2036784 L57.9086845,12.4224825 Z" id="Fill-56" fill="#253150" mask="url(#mask-4)"></path>
            <polygon id="Fill-57" fill="#253150" mask="url(#mask-4)" points="59.4491216 12.3708536 58.7604619 12.3708536 58.7604619 13.0110186 59.5301113 13.0110186 59.5301113 13.2036784 58.5282144 13.2036784 58.5282144 11.425699 59.4908536 11.425699 59.4908536 11.6185237 58.7604619 11.6185237 58.7604619 12.1805031 59.4491216 12.1805031"></polygon>
            <path d="M59.8290309,13.2036454 L59.8290309,11.425666 L60.081567,11.425666 L60.6494845,12.3256247 C60.7783093,12.5332948 60.8840412,12.718532 60.9656907,12.9034392 L60.9741031,12.9009649 C60.9526598,12.6637691 60.9473814,12.4475216 60.9473814,12.1725526 L60.9473814,11.425666 L61.1636289,11.425666 L61.1636289,13.2036454 L60.9320412,13.2036454 L60.3665979,12.3017072 C60.2430515,12.1042639 60.1244536,11.9008825 60.0373608,11.7085526 L60.0294433,11.7110268 C60.0423093,11.9353567 60.0452784,12.1494598 60.0452784,12.4445526 L60.0452784,13.2036454 L59.8290309,13.2036454 Z" id="Fill-58" fill="#253150" mask="url(#mask-4)"></path>
            <polygon id="Fill-59" fill="#253150" mask="url(#mask-4)" points="61.9024 11.6214103 61.3613691 11.6214103 61.3613691 11.4256165 62.6774928 11.4256165 62.6774928 11.6214103 62.1346474 11.6214103 62.1346474 13.2035959 61.9024 13.2035959"></polygon>
            <polygon id="Fill-60" fill="#253150" mask="url(#mask-4)" points="63.4319175 13.2036619 63.6646598 13.2036619 63.6646598 11.4256825 63.4319175 11.4256825"></polygon>
            <path d="M64.0657485,13.2036454 L64.0657485,11.425666 L64.3184495,11.425666 L64.8858722,12.3256247 C65.0151918,12.5332948 65.120099,12.718532 65.2015835,12.9034392 L65.2104907,12.9009649 C65.1890474,12.6637691 65.1844289,12.4475216 65.1844289,12.1725526 L65.1844289,11.425666 L65.4006763,11.425666 L65.4006763,13.2036454 L65.167934,13.2036454 L64.6033155,12.3017072 C64.4791093,12.1042639 64.3605113,11.9008825 64.2742433,11.7085526 L64.2653361,11.7110268 C64.2791918,11.9353567 64.281666,12.1494598 64.281666,12.4445526 L64.281666,13.2036454 L64.0657485,13.2036454 Z" id="Fill-61" fill="#253150" mask="url(#mask-4)"></path>
            <path d="M65.7720082,12.9242557 C65.8746062,12.9902351 66.0233897,13.0400495 66.1800907,13.0400495 C66.4158021,13.0400495 66.5530392,12.9191423 66.5530392,12.7372041 C66.5530392,12.5742351 66.457534,12.4762557 66.2178639,12.3868536 C65.9275546,12.2809567 65.7485856,12.1283794 65.7485856,11.8796371 C65.7485856,11.6030186 65.9778639,11.3973278 66.3227711,11.3973278 C66.5024,11.3973278 66.6376577,11.4393897 66.713534,11.483266 L66.6505237,11.6711423 C66.5947711,11.6369979 66.476668,11.5866887 66.3150186,11.5866887 C66.0717196,11.5866887 65.9801732,11.7318433 65.9801732,11.8527505 C65.9801732,12.0193485 66.0880495,12.100668 66.3336577,12.1961732 C66.6345237,12.3147711 66.7852866,12.4577814 66.7852866,12.7185649 C66.7852866,12.9928742 66.5842144,13.233534 66.1652454,13.233534 C65.993699,13.233534 65.8063175,13.1804206 65.7116371,13.1170804 L65.7720082,12.9242557 Z" id="Fill-62" fill="#253150" mask="url(#mask-4)"></path>
            <polygon id="Fill-63" fill="#253150" mask="url(#mask-4)" points="67.4384825 11.6214103 66.899101 11.6214103 66.899101 11.4256165 68.2148948 11.4256165 68.2148948 11.6214103 67.6720495 11.6214103 67.6720495 13.2035959 67.4384825 13.2035959"></polygon>
            <polygon id="Fill-64" fill="#253150" mask="url(#mask-4)" points="69.3805031 11.6214103 68.839967 11.6214103 68.839967 11.4256165 70.1555959 11.4256165 70.1555959 11.6214103 69.6122557 11.6214103 69.6122557 13.2035959 69.3805031 13.2035959"></polygon>
            <polygon id="Fill-65" fill="#253150" mask="url(#mask-4)" points="68.4092371 13.2036619 68.6423093 13.2036619 68.6423093 11.4256825 68.4092371 11.4256825"></polygon>
            <path d="M70.5449567,11.4256165 L70.5449567,12.4807918 C70.5449567,12.8765031 70.7214515,13.0454103 70.9588124,13.0454103 C71.2195959,13.0454103 71.3909773,12.8710598 71.3909773,12.4807918 L71.3909773,11.4256165 L71.6237196,11.4256165 L71.6237196,12.4652866 C71.6237196,13.011101 71.3365443,13.2334515 70.9513897,13.2334515 C70.5870186,13.2334515 70.3122144,13.0267711 70.3122144,12.4733691 L70.3122144,11.4256165 L70.5449567,11.4256165 Z" id="Fill-66" fill="#253150" mask="url(#mask-4)"></path>
            <polygon id="Fill-67" fill="#253150" mask="url(#mask-4)" points="72.3586639 11.6214103 71.8186227 11.6214103 71.8186227 11.4256165 73.1350763 11.4256165 73.1350763 11.6214103 72.591901 11.6214103 72.591901 13.2035959 72.3586639 13.2035959"></polygon>
            <polygon id="Fill-68" fill="#253150" mask="url(#mask-4)" points="74.251233 12.3708536 73.5625732 12.3708536 73.5625732 13.0110186 74.3338722 13.0110186 74.3338722 13.2036784 73.3299959 13.2036784 73.3299959 11.425699 74.2928 11.425699 74.2928 11.6185237 73.5625732 11.6185237 73.5625732 12.1805031 74.251233 12.1805031"></polygon>
        </g>
    </g>
</svg>