<?xml version="1.0" encoding="UTF-8"?>
<svg width="100px" height="60px" viewBox="0 0 100 60" version="1.1" xmlns="http://www.w3.org/2000/svg" xmlns:xlink="http://www.w3.org/1999/xlink">
    <!-- Generator: Sketch 55.2 (78181) - https://sketchapp.com -->
    <title>logo/keris</title>
    <desc>Created with Sketch.</desc>
    <defs>
        <radialGradient cx="51.8999236%" cy="50%" fx="51.8999236%" fy="50%" r="67.1795819%" id="radialGradient-1">
            <stop stop-color="#F7F7F8" offset="0%"></stop>
            <stop stop-color="#E9EAEB" offset="100%"></stop>
        </radialGradient>
        <linearGradient x1="22.7447431%" y1="8.83131485%" x2="56.5053013%" y2="57.5478246%" id="linearGradient-2">
            <stop stop-color="#D1DD26" offset="0%"></stop>
            <stop stop-color="#8FBE38" offset="55.1599451%"></stop>
            <stop stop-color="#6BB340" offset="79.8986486%"></stop>
            <stop stop-color="#4AAD44" offset="100%"></stop>
        </linearGradient>
        <linearGradient x1="12.9426825%" y1="4.45472876%" x2="45.3017607%" y2="44.5985079%" id="linearGradient-3">
            <stop stop-color="#48A742" offset="0%"></stop>
            <stop stop-color="#008D3C" offset="100%"></stop>
        </linearGradient>
        <linearGradient x1="80.579603%" y1="50%" x2="0%" y2="50%" id="linearGradient-4">
            <stop stop-color="#F9A64A" offset="0%"></stop>
            <stop stop-color="#FFCC5A" offset="100%"></stop>
        </linearGradient>
        <linearGradient x1="0%" y1="44.4654784%" x2="100%" y2="44.4654784%" id="linearGradient-5">
            <stop stop-color="#BC9D32" offset="0%"></stop>
            <stop stop-color="#AB902C" offset="56.1813767%"></stop>
        </linearGradient>
    </defs>
    <g id="logo/keris" stroke="none" stroke-width="1" fill="none" fill-rule="evenodd">
        <g id="Group-4" transform="translate(19.000000, 16.000000)">
            <path d="M53.7740806,2.79621613 C56.4285968,2.79621613 58.5819839,4.94792581 58.5819839,7.60244194 L58.5819839,17.9479258 L16.8150806,17.9479258 L16.8150806,2.79621613 L53.7740806,2.79621613 Z M31.4917871,11.1743387 L34.6788839,11.1743387 L34.6788839,9.69904839 L31.4917871,9.69904839 L31.4917871,7.95201613 L34.8948516,7.95201613 L34.8948516,6.49266129 L29.4122065,6.49266129 L29.4122065,14.4759194 L34.8956903,14.4759194 L34.8956903,13.0195 L31.4917871,13.0195 L31.4917871,11.1743387 Z M42.6644484,8.95549032 C42.5843516,7.24871613 41.4546097,6.48129677 39.7641903,6.49261935 L36.4324161,6.49261935 L36.4324161,14.4750387 L38.5145129,14.4750387 L38.5145129,10.2944903 L38.5145129,10.2865226 L38.5145129,7.96371613 L38.8986419,7.96371613 C39.6689968,7.96371613 40.5341258,8.20945806 40.5341258,9.13161935 C40.5341258,10.0521032 39.6689968,10.2961677 38.8986419,10.2961677 L38.5191258,10.2944903 L40.7849,14.4750387 L43.1584484,14.4750387 L41.1484806,11.1340387 C42.1205452,11.0048774 42.7168677,10.0458129 42.6644484,8.95549032 Z M44.3564194,14.4741161 L46.4385161,14.4741161 L46.4385161,6.49085806 L44.3564194,6.49085806 L44.3564194,14.4741161 Z M28.1844194,6.49261935 L25.6984839,6.49261935 L23.5190968,10.4534258 L23.5190968,6.45990968 L21.4273548,6.45990968 L21.4273548,14.4742 L23.5190968,14.4742 L23.5190968,10.4559419 L25.6984839,14.4758774 L28.2284516,14.4758774 L25.8016452,10.4634903 L28.1844194,6.49261935 Z M53.9690387,11.9384871 C53.9690387,11.402971 53.8428129,10.9672613 53.5891032,10.6313581 C53.3358129,10.2954548 52.9428774,10.0300032 52.4086194,9.83500323 C52.1343613,9.7377129 51.8806516,9.66139032 51.6445548,9.60603548 C51.4088774,9.55026129 51.1648129,9.49197097 50.9115226,9.43284194 C50.5198452,9.3431 50.2539742,9.24287419 50.1139097,9.13342258 C49.9738452,9.02355161 49.9033935,8.86629355 49.9033935,8.66080968 C49.9033935,8.52535806 49.9474258,8.40416452 50.0359097,8.2984871 C50.1235548,8.19280968 50.2292323,8.11355161 50.3504258,8.06197097 C50.4854581,7.99864839 50.6263613,7.95713226 50.7756516,7.93406774 C50.9245226,7.91184194 51.0738129,7.90051935 51.2226839,7.90051935 C51.6453935,7.90051935 52.0605548,7.98397097 52.4677484,8.15213226 C52.8749419,8.3207129 53.0229742,8.36264839 53.3966194,8.54926129 L53.6914258,8.69519677 L53.6914258,6.98968065 C53.3655871,6.83997097 52.9781032,6.71626129 52.5289742,6.61729355 C52.0802645,6.51790645 51.6265226,6.46800323 51.1694258,6.46800323 C50.2548129,6.46800323 49.5066839,6.69739032 48.9262968,7.1544871 C48.3454903,7.61242258 48.0552968,8.20287419 48.0552968,8.92668065 C48.0552968,9.46597097 48.1832,9.91719677 48.4394258,10.2816161 C48.696071,10.6451968 49.1179419,10.9328742 49.7025226,11.1446484 C49.9595871,11.2390032 50.2334258,11.3170032 50.5248774,11.3773903 C50.8154903,11.4390355 51.0935226,11.5036161 51.3564581,11.573229 C51.6059742,11.6394871 51.7959419,11.7338419 51.9255226,11.8575516 C52.0559419,11.9821 52.1213613,12.1284548 52.1213613,12.2987129 C52.1213613,12.4840677 52.0752323,12.6241323 51.9854903,12.7180677 C51.895329,12.8124226 51.7829419,12.8908419 51.647071,12.9541645 C51.5321677,13.003229 51.3866516,13.0376161 51.2105226,13.0590032 C51.0327161,13.0803903 50.8892968,13.0900355 50.7781677,13.0900355 C50.3537806,13.0900355 49.9155548,12.9973581 49.4437806,12.8510032 C48.9933935,12.7101 48.9762,12.6790677 48.4658452,12.4396161 L48.0087484,12.1695516 L48.0087484,13.926229 C48.3832323,14.0990032 48.7853935,14.2415839 49.2135548,14.353971 C49.6421355,14.4659387 50.1466194,14.5225516 50.7257484,14.5225516 C51.7246516,14.5225516 52.5159742,14.2835194 53.0967806,13.8041968 C53.6784258,13.326971 53.9690387,12.704229 53.9690387,11.9384871 Z M18.7931774,22.5443903 C18.8845968,22.4064226 18.9311452,22.2445516 18.9311452,22.0571 C18.9311452,21.8713258 18.8845968,21.7098742 18.7931774,21.5727452 C18.7005,21.4364548 18.5944032,21.3689387 18.4702742,21.3689387 C18.3520161,21.3689387 18.2459194,21.4364548 18.1524032,21.5727452 C18.057629,21.7098742 18.0115,21.8713258 18.0115,22.0571 C18.0115,22.2445516 18.057629,22.4064226 18.1524032,22.5443903 C18.2459194,22.6811 18.3520161,22.7502935 18.4702742,22.7502935 C18.5944032,22.7502935 18.7005,22.6811 18.7931774,22.5443903 Z M19.2284677,21.2167129 C19.3567903,21.3144226 19.4607903,21.4364548 19.539629,21.5840677 C19.6180484,21.7304226 19.656629,21.8876806 19.656629,22.0571 C19.656629,22.3611323 19.539629,22.6207129 19.3089839,22.8396161 C19.0779194,23.0576806 18.7982097,23.1671323 18.4702742,23.1671323 C18.147371,23.1671323 17.8689194,23.0576806 17.6353387,22.8396161 C17.4017581,22.6207129 17.2847581,22.3611323 17.2847581,22.0571 C17.2847581,21.8876806 17.3254355,21.7304226 17.4017581,21.5840677 C17.4810161,21.4364548 17.5858548,21.3144226 17.7154355,21.2167129 L17.3942097,21.2167129 L17.3942097,21.2154548 L17.1161774,21.2154548 L17.1161774,20.7726161 L18.0542742,20.7726161 L18.0542742,20.3452935 L18.888371,20.3452935 L18.888371,20.7726161 L19.824371,20.7726161 L19.824371,21.2154548 L19.5429839,21.2154548 L19.5429839,21.2167129 L19.2284677,21.2167129 Z M20.8174452,24.6600355 L21.1613161,24.6600355 L21.1613161,25.1083258 L18.5026065,25.1083258 C18.3487032,25.1083258 18.2224774,25.0613581 18.1214129,24.9644871 C18.0216065,24.8713903 17.9717032,24.7418097 17.9717032,24.5799387 L17.9717032,23.5328097 L18.7370258,23.5328097 L18.7370258,24.6600355 L20.814929,24.6600355 L20.8174452,24.6600355 Z M37.2132548,22.5443903 C37.3088677,22.4064226 37.3520613,22.2445516 37.3520613,22.0571 C37.3520613,21.8713258 37.3088677,21.7098742 37.2132548,21.5727452 C37.1235129,21.4364548 37.0178355,21.3689387 36.892029,21.3689387 C36.773771,21.3689387 36.6680935,21.4364548 36.5745774,21.5727452 C36.4798032,21.7098742 36.4328355,21.8713258 36.4328355,22.0571 C36.4328355,22.2445516 36.4798032,22.4064226 36.5745774,22.5443903 C36.6680935,22.6811 36.773771,22.7502935 36.892029,22.7502935 C37.0178355,22.7502935 37.1235129,22.6811 37.2132548,22.5443903 Z M37.6506419,21.2167129 C37.7798032,21.3144226 37.8838032,21.4364548 37.9609645,21.5840677 C38.0406419,21.7304226 38.0792226,21.8876806 38.0792226,22.0571 C38.0792226,22.3611323 37.9651581,22.6207129 37.7311581,22.8396161 C37.4996742,23.0576806 37.2199645,23.1671323 36.892029,23.1671323 C36.5687065,23.1671323 36.2906742,23.0576806 36.0570935,22.8396161 C35.8230935,22.6207129 35.7086097,22.3611323 35.7086097,22.0571 C35.7086097,21.8876806 35.746771,21.7304226 35.8251903,21.5840677 C35.904029,21.4364548 36.0076097,21.3144226 36.1371903,21.2167129 L35.8163839,21.2167129 L35.8163839,21.2154548 L35.5391903,21.2154548 L35.5391903,20.7726161 L36.4772871,20.7726161 L36.4772871,20.3452935 L37.3088677,20.3452935 L37.3088677,20.7726161 L38.2490613,20.7726161 L38.2490613,21.2154548 L37.9651581,21.2154548 L37.9651581,21.2167129 L37.6506419,21.2167129 Z M36.5662323,23.9816452 L36.2240387,23.9816452 L36.2240387,23.5325161 L38.8814903,23.5325161 C39.0358129,23.5325161 39.1620387,23.5799032 39.2618452,23.6742581 C39.3629097,23.771129 39.4132323,23.9002903 39.4132323,24.0617419 L39.4161677,25.1084516 L38.6462323,25.1084516 L38.6466516,23.9816452 L36.5687484,23.9816452 L36.5662323,23.9816452 Z M29.0505968,24.2126258 L30.6487581,24.2096903 L30.6487581,24.6600774 L26.6380484,24.6600774 L26.6380484,24.2096903 L27.3832419,24.2126258 L27.3832419,22.4144323 L28.0223387,22.4144323 L28.0215,24.2126258 L28.4110806,24.2126258 L28.4110806,22.4144323 L29.0505968,22.4144323 L29.0505968,24.2126258 Z M43.3107161,21.3813516 C43.6742968,21.6023516 44.0492,21.7168355 44.4387806,21.7193516 L44.0747806,22.0623839 C43.7640387,22.0623839 43.432329,21.9936097 43.0750387,21.8514484 C42.7194258,21.7118032 42.4854258,21.5272871 42.3768129,21.3020935 C42.2723935,21.5272871 42.0421677,21.7118032 41.6865548,21.8514484 C41.3326194,21.9936097 40.9962968,22.0623839 40.6792645,22.0623839 L40.3152645,21.7193516 C40.7082,21.7168355 41.0843613,21.6023516 41.4462645,21.3813516 C41.8069097,21.1590935 41.9876516,20.8299 41.9876516,20.4898032 L41.9876516,20.369029 L42.7647161,20.369029 L42.7647161,20.4952548 L42.7659742,20.4952548 C42.7668129,20.8319968 42.9488129,21.160771 43.3107161,21.3813516 Z M46.7621742,22.9017226 C46.5147548,22.7205613 46.3591742,22.5259806 46.2908194,22.3179806 C46.2295935,22.5259806 46.0735935,22.7180452 45.8244968,22.9000452 C45.5749806,23.079529 45.3317548,23.1818516 45.0948194,23.2053355 L44.7161419,22.8727871 C45.0298194,22.8136581 45.3057548,22.6861742 45.5452065,22.3951419 C45.7829806,22.103271 45.9024968,21.7694645 45.9024968,21.324529 L45.9024968,21.2243032 L45.0390452,21.2243032 L45.0390452,20.7739161 L47.5534968,20.7739161 L47.5534968,21.2243032 L46.6783032,21.2243032 L46.6783032,21.324529 C46.6783032,21.7711419 46.7994968,22.1091419 47.0393677,22.3980774 C47.2792387,22.6861742 47.5534968,22.8136581 47.8650774,22.8727871 L47.4926903,23.2053355 C47.2536581,23.1847871 47.0104323,23.0845613 46.7621742,22.9017226 Z M48.918329,23.3607903 L48.151329,23.3607903 L48.151329,22.1283065 L47.2446839,22.1283065 L47.2446839,21.6787581 L48.151329,21.6787581 L48.1496516,20.7729516 L48.9179097,20.7729516 L48.918329,23.3607903 Z M50.8710968,22.8993742 L52.5690645,22.8993742 L52.5690645,21.9956645 L50.8710968,21.9956645 L50.8710968,22.8993742 Z M52.1044194,24.2098581 L53.8162258,24.2098581 L53.8162258,24.6598258 L49.6243548,24.6598258 L49.6243548,24.2098581 L51.3361613,24.2098581 L51.3361613,23.3489226 L50.6362581,23.3489226 C50.4748065,23.3489226 50.3477419,23.3011161 50.2479355,23.2071806 C50.1535806,23.1111484 50.1045161,22.9832452 50.1045161,22.8255677 L50.1032581,20.7736645 L50.8710968,20.7736645 L50.8710968,21.5461161 L52.5690645,21.5461161 L52.5690645,20.7736645 L53.3348065,20.7736645 L53.3360645,23.3489226 L52.1044194,23.3489226 L52.1044194,24.2098581 Z M55.2852258,21.1681935 C55.203871,21.2763871 55.1623548,21.4143548 55.1623548,21.5816774 C55.1623548,21.743129 55.203871,21.8798387 55.2852258,21.9918065 C55.3665806,22.1020968 55.4642903,22.157871 55.5817097,22.157871 C55.6970323,22.157871 55.7951613,22.1020968 55.8752581,21.9918065 C55.9587097,21.8798387 56.0002258,21.743129 56.0002258,21.5816774 C56.0002258,21.4143548 55.9587097,21.2763871 55.8752581,21.1681935 C55.7951613,21.06 55.6970323,21.0042258 55.5817097,21.0042258 C55.4642903,21.0042258 55.3665806,21.06 55.2852258,21.1681935 Z M54.763129,22.2895484 C54.5383548,22.0949677 54.4255484,21.8597097 54.4255484,21.5816774 C54.4255484,21.3028065 54.5383548,21.0633548 54.763129,20.8683548 C54.9883226,20.6741935 55.2604839,20.5764839 55.5817097,20.5764839 C55.9054516,20.5764839 56.178871,20.6741935 56.4015484,20.8683548 C56.6263226,21.0633548 56.7382903,21.3028065 56.7382903,21.5816774 C56.7382903,21.8597097 56.6263226,22.0949677 56.4015484,22.2895484 C56.178871,22.482871 55.9054516,22.5797419 55.5817097,22.5797419 C55.2604839,22.5797419 54.9883226,22.482871 54.763129,22.2895484 Z M54.1451258,22.6948968 L57.0718032,22.6948968 L57.0718032,23.1201226 L55.9588355,23.1201226 L55.9588355,23.6409613 L55.1926742,23.6409613 L55.1926742,23.1201226 L54.1451258,23.1201226 L54.1451258,22.6948968 Z M58.2342548,24.2199645 L57.4655774,24.2199645 L57.4672548,23.6362226 L56.8029968,23.6362226 L56.8029968,23.2395129 L57.4672548,23.2395129 L57.4672548,20.7728677 L58.2342548,20.7728677 L58.2342548,24.2199645 Z M55.7660161,24.6600355 L58.3978871,24.6600355 L58.3978871,25.1100032 L55.5307581,25.1100032 C55.3764355,25.1100032 55.2502097,25.0626161 55.1495645,24.9661645 C55.0497581,24.8713903 54.9990161,24.7434871 54.9990161,24.5816161 L54.9977581,23.7768742 L55.7660161,23.7768742 L55.7660161,24.6600355 Z M32.8883226,23.5326 L33.3349355,23.5326 L33.3349355,23.0432129 L32.8883226,23.0432129 L32.8883226,23.5326 Z M32.7059032,21.1766645 C32.5868065,21.3146323 32.5297742,21.4865677 32.5297742,21.6886968 C32.5297742,21.8878903 32.5868065,22.0610839 32.7059032,22.2015677 C32.8229032,22.342471 32.9650645,22.4129226 33.1315484,22.4129226 C33.300129,22.4129226 33.4414516,22.342471 33.5584516,22.2015677 C33.675871,22.0610839 33.7354194,21.8878903 33.7354194,21.6886968 C33.7354194,21.4865677 33.675871,21.3146323 33.5584516,21.1766645 C33.4414516,21.0324065 33.300129,20.9623742 33.1315484,20.9623742 C32.9650645,20.9623742 32.8229032,21.0324065 32.7059032,21.1766645 Z M35.1213871,23.0432129 L34.0033871,23.0432129 L34.0033871,23.5326 L34.390871,23.5326 C34.5439355,23.5326 34.6705806,23.5799871 34.7703871,23.6739226 C34.8714516,23.7712129 34.9217742,23.9003742 34.9217742,24.0618258 L34.9217742,25.1081161 L34.1543548,25.1081161 L34.1543548,23.981729 L31.3765484,23.981729 L31.3765484,23.5326 L32.2152581,23.5326 L32.2152581,23.0432129 L31.1433871,23.0432129 L31.1433871,22.5957613 L32.3196774,22.5957613 C32.2668387,22.5613742 32.2152581,22.525729 32.1657742,22.4850516 C31.8999032,22.2632129 31.7678065,21.9977613 31.7678065,21.6886968 C31.7678065,21.3729226 31.8999032,21.107471 32.1657742,20.887729 C32.4324839,20.665471 32.7537097,20.5564387 33.1315484,20.5564387 C33.5119032,20.5564387 33.8335484,20.665471 34.1002581,20.887729 C34.3652903,21.107471 34.4969677,21.3729226 34.4969677,21.6886968 C34.4969677,21.9977613 34.3652903,22.2632129 34.1002581,22.4850516 C34.0499355,22.525729 33.9975161,22.5613742 33.9446774,22.5957613 L34.0826452,22.5957613 L34.7544516,22.5957613 L35.107129,22.5957613 L35.1213871,22.5957613 L35.1213871,23.0432129 Z M44.3660645,22.8255258 L42.7054194,22.8255258 L42.7054194,23.1958161 L43.9425161,23.1958161 L43.9425161,24.3607839 L41.4859355,24.3607839 L41.4859355,24.6581065 L43.9525806,24.6576871 L43.9525806,25.1080742 L41.2557097,25.1080742 C41.0959355,25.1080742 40.9667742,25.059429 40.8657097,24.9617194 C40.7667419,24.8665258 40.7185161,24.7382032 40.7185161,24.5801065 L40.7180968,23.9372355 L43.1746774,23.9372355 L43.1746774,23.6407516 L40.7214516,23.6399129 L40.7214516,23.1958161 L41.9174516,23.1958161 L41.9413548,23.1958161 L41.9413548,22.8255258 L40.3905806,22.8255258 L40.3905806,22.3772355 L43.3273226,22.3772355 L43.999129,22.3772355 L44.3539032,22.3772355 L44.3660645,22.3772355 L44.3660645,22.8255258 Z M47.1123355,23.9425194 C46.9965935,24.0775516 46.9412387,24.2406806 46.9412387,24.4335839 C46.9412387,24.6260677 46.9965935,24.7900355 47.1123355,24.9246484 C47.2243032,25.0605194 47.3618516,25.1255194 47.5228839,25.1255194 C47.6839161,25.1255194 47.8235613,25.0605194 47.9363677,24.9246484 C48.0491742,24.7900355 48.1036903,24.6260677 48.1036903,24.4335839 C48.1036903,24.2406806 48.0491742,24.0775516 47.9363677,23.9425194 C47.8235613,23.8079065 47.6839161,23.739971 47.5228839,23.739971 C47.3618516,23.739971 47.2243032,23.8079065 47.1123355,23.9425194 Z M46.5579484,25.2299387 C46.2916581,25.0097774 46.1599806,24.7451645 46.1599806,24.4335839 C46.1599806,24.1199065 46.2916581,23.8536161 46.5579484,23.6309387 C46.8238194,23.4120355 47.1463032,23.3009065 47.5228839,23.3009065 C47.9015613,23.3009065 48.2232065,23.4120355 48.4915935,23.6309387 C48.7562065,23.8536161 48.8878839,24.1199065 48.8878839,24.4335839 C48.8878839,24.7451645 48.7562065,25.0097774 48.4915935,25.2299387 C48.2232065,25.4496806 47.9015613,25.5595516 47.5228839,25.5595516 C47.1463032,25.5595516 46.8238194,25.4496806 46.5579484,25.2299387 Z M25.9365516,22.8560548 L24.2775839,22.8560548 L24.2775839,23.5324742 L25.208971,23.5324742 C25.3637129,23.5324742 25.4895194,23.5802806 25.5889065,23.6742161 C25.6908097,23.7710871 25.7394548,23.9002484 25.7394548,24.0617 L25.7428097,25.1084097 L24.9732935,25.1084097 L24.9732935,23.9816032 L22.1954871,23.9816032 L22.1954871,23.5324742 L23.5097452,23.5324742 L23.5097452,22.8560548 L21.958971,22.8560548 L21.958971,22.4081839 L24.898229,22.4081839 C24.9355516,22.3058613 24.9615516,22.1876032 24.9732935,22.0563452 C24.9841968,21.9242484 24.9904871,21.7908935 24.9904871,21.6520871 L24.9904871,21.2151194 L22.2181323,21.2151194 L22.2181323,20.7651516 L25.2345516,20.7651516 L25.2345516,20.7685065 C25.2353903,20.7685065 25.2353903,20.7680871 25.2353903,20.7680871 C25.5226484,20.7680871 25.7528742,20.9966355 25.7541323,21.2797 L25.7579065,21.2797 L25.7579065,21.6311194 C25.7579065,21.7695065 25.7394548,21.9158613 25.7021323,22.0706032 C25.6643903,22.2240871 25.6203581,22.3377323 25.5691968,22.4081839 L25.9206161,22.4081839 L25.9365516,22.4081839 L25.9365516,22.8560548 Z M29.9454161,20.7727839 C30.1999645,20.7958484 30.4008355,21.0025903 30.4117387,21.2596548 L30.4117387,22.0790742 C30.4117387,22.4057516 30.3869968,22.6909129 30.3370935,22.9324613 C30.2855129,23.1752677 30.2117065,23.3715258 30.1198677,23.5266871 L29.4463839,23.5266871 C29.5453516,23.3572677 29.6049,23.1547194 29.6254484,22.9182032 C29.6451581,22.6829452 29.6556419,22.3831065 29.6556419,22.0207839 L29.6556419,21.2240097 L26.7939645,21.2168806 L26.7939645,20.7727839 L29.9454161,20.7727839 Z M39.3751548,20.7711484 L40.0046065,20.7711484 L40.0046065,21.2181806 L39.4162516,21.2181806 L39.4149935,23.1635677 L38.6467355,23.1635677 L38.6463161,21.2676645 C38.6568,20.9925677 38.8811548,20.7740839 39.1583484,20.7728258 L39.3751548,20.7728258 L39.3751548,20.7711484 Z M20.9931548,20.7660323 L21.5840258,20.7660323 L21.5840258,21.2126452 L20.9931548,21.2126452 L20.9931548,23.8394839 L20.2244774,23.8394839 L20.2240581,21.2570968 C20.2362194,20.9866129 20.4580581,20.7702258 20.7327355,20.7660323 L20.9931548,20.7660323 Z" id="Combined-Shape" fill="#144373"></path>
            <path d="M4.52785806,-3.55271368e-15 C2.02724516,-3.55271368e-15 8.38709676e-05,2.02716129 8.38709676e-05,4.52735484 L8.38709676e-05,15.1982581 L15.1983419,15.1982581 L15.1983419,-3.55271368e-15 L4.52785806,-3.55271368e-15 Z" id="Fill-1" fill="url(#radialGradient-1)"></path>
            <path d="M3.23783871,9.85739677 C1.94874194,10.0758806 0.913354839,10.5287839 8.73967565e-13,10.9858806 L8.73967565e-13,15.1983 L8.57790323,15.1983 C5.57490323,13.8731387 4.0253871,11.8153645 3.23783871,9.85739677" id="Fill-4" fill="#25A4CF"></path>
            <path d="M2.53843871,4.5063871 C2.53843871,4.5063871 2.12118065,7.08164516 3.23792258,9.85735484 L3.23792258,9.85735484 C4.43266452,9.65480645 5.84547097,9.65229032 7.5899871,10.041871 L7.5899871,10.041871 C11.2153097,10.8512258 12.9053097,15.1982581 12.9053097,15.1982581 L12.9053097,15.1982581 L15.1983419,15.1982581 L15.1983419,11.0294516 C13.4911484,11.3339032 11.1264065,11.302871 9.95430968,9.76509677 L9.95430968,9.76509677 C9.04472903,8.57287097 9.14663226,7.08290323 9.73372903,5.76109677 L9.73372903,5.76109677 C8.11040645,5.00667742 6.11092258,4.46403226 3.71011613,4.46403226 L3.71011613,4.46403226 C3.32976129,4.46403226 2.93934194,4.47787097 2.53843871,4.5063871" id="Fill-7" fill="url(#linearGradient-2)"></path>
            <path d="M7.58990323,10.0419129 C5.84580645,9.65275161 4.433,9.65484839 3.23783871,9.85739677 C4.0253871,11.8153645 5.57490323,13.8731387 8.57790323,15.1983 L12.9052258,15.1983 C12.9052258,15.1983 11.2156452,10.8512677 7.58990323,10.0419129" id="Fill-10" fill="#25A4CF"></path>
            <path d="M8.5779871,15.1982581 L12.9053097,15.1982581 C12.9053097,15.1982581 11.2153097,10.8512258 7.5899871,10.041871 C6.58018065,9.81667742 5.68108387,9.72232258 4.87172903,9.72232258 C4.28253548,9.72232258 3.74114839,9.77222581 3.23792258,9.85735484 C4.02505161,11.8153226 5.5749871,13.8730968 8.5779871,15.1982581 Z" id="Fill-13" fill="url(#linearGradient-3)"></path>
            <path d="M14.100471,1.87158065 C13.2709871,2.2183871 12.4691806,2.65116129 11.7504065,3.1933871 L11.7504065,3.1933871 C10.9494387,3.79725806 10.1933419,4.7273871 9.73372903,5.76109677 L9.73372903,5.76109677 C13.4626323,7.49470968 15.1983419,10.3509355 15.1983419,10.3509355 L15.1983419,10.3509355 L15.1983419,1.4773871 C15.1983419,1.50883871 14.1688258,1.84306452 14.100471,1.87158065" id="Fill-16" fill="url(#linearGradient-4)"></path>
            <path d="M9.95430968,9.76509677 C11.1264065,11.302871 13.4911484,11.3339032 15.1983419,11.0294516 L15.1983419,11.0294516 L15.1983419,10.3509355 C15.1983419,10.3509355 13.4626323,7.49470968 9.73372903,5.76109677 L9.73372903,5.76109677 C9.14663226,7.08290323 9.04472903,8.57287097 9.95430968,9.76509677" id="Fill-19"></path>
            <path d="M9.95430968,9.76509677 C11.1264065,11.302871 13.4911484,11.3339032 15.1983419,11.0294516 L15.1983419,11.0294516 L15.1983419,10.3509355 C15.1983419,10.3509355 13.4626323,7.49470968 9.73372903,5.76109677 L9.73372903,5.76109677 C9.14663226,7.08290323 9.04472903,8.57287097 9.95430968,9.76509677" id="Fill-22" fill="url(#linearGradient-5)"></path>
        </g>
    </g>
</svg>