<?xml version="1.0" encoding="UTF-8"?>
<svg width="100px" height="60px" viewBox="0 0 100 60" version="1.1" xmlns="http://www.w3.org/2000/svg" xmlns:xlink="http://www.w3.org/1999/xlink">
    <!-- Generator: Sketch 55.2 (78181) - https://sketchapp.com -->
    <title>logo/kfocu</title>
    <desc>Created with Sketch.</desc>
    <defs>
        <polygon id="path-1" points="0 12.9709744 79.5569231 12.9709744 79.5569231 -0.000307692308 0 -0.000307692308"></polygon>
    </defs>
    <g id="logo/kfocu" stroke="none" stroke-width="1" fill="none" fill-rule="evenodd">
        <g transform="translate(10.000000, 23.000000)">
            <path d="M2.94317949,0.513025641 C2.74933333,0.513025641 2.32164103,0.893538462 2.21189744,0.985846154 C1.42625641,1.64635897 1.11241026,2.55507692 0.884717949,3.42482051 C0.516512821,4.83405128 0.440615385,6.30482051 0.573948718,7.73866667 C0.684717949,8.93148718 0.888820513,10.1591795 1.49702564,11.2627692 C1.64061538,11.5243077 1.81394872,11.777641 2.05087179,11.9930256 C2.16882051,12.1007179 2.5585641,12.457641 2.75035897,12.457641 L16.9831795,12.457641 C17.2836923,12.457641 17.6590769,12.1355897 17.8344615,11.9848205 C18.670359,11.2617436 18.9811282,10.2278974 19.1452308,9.27917949 C19.3318974,8.19815385 19.3729231,7.11302564 19.3534359,6.02276923 C19.3349744,5.00738462 19.2683077,3.98174359 18.9411282,2.99610256 C18.7585641,2.44841026 18.4785641,1.90994872 18.1144615,1.42276923 C17.830359,1.04533333 17.4518974,0.709948718 16.9513846,0.513025641 L2.94317949,0.513025641 Z" id="Stroke-1" stroke="#3853A4"></path>
            <path d="M8.24420513,1.02789744 C8.24420513,1.02789744 2.86471795,5.50482051 2.86266667,5.50687179 C2.51292308,5.79815385 2.41446154,6.22379487 2.38676923,6.61251282 C2.34779487,7.15815385 2.56317949,7.66789744 3.10369231,8.01661538 L8.24420513,11.9437949 L13.4165128,7.65661538 C13.4165128,7.65661538 14.1724103,7.15507692 13.3365128,5.71302564 C13.3365128,5.71302564 13.0154872,5.08225641 11.6021538,4.74789744 C11.6021538,4.74789744 10.4934359,4.55405128 9.56215385,5.17251282 L9.56215385,5.23712821 C9.56215385,5.21969231 10.0831795,5.40430769 10.1149744,5.42174359 C10.5590769,5.66789744 10.7242051,6.11712821 10.541641,6.52123077 C10.541641,6.52123077 10.4934359,6.71712821 10.2042051,6.89764103 C9.94984615,7.05558974 9.50061538,7.13558974 9.18471795,7.072 C8.65548718,6.96328205 8.28728205,6.56635897 8.29651282,6.13353846 C8.30882051,5.57046154 8.95805128,5.13251282 9.396,4.76225641 C9.80830769,4.41148718 10.2247179,4.08635897 10.6698462,3.7694359 C10.6698462,3.7694359 11.3929231,3.2545641 12.7262564,3.29251282 C12.7262564,3.29251282 13.5775385,3.18994872 14.7826667,4.07815385 C14.7826667,4.07815385 15.570359,4.74789744 15.5857436,5.66174359 C15.5857436,5.66174359 15.810359,6.48533333 14.9590769,7.25764103 L9.46471795,11.9437949 L11.7149744,11.9437949 C11.8421538,11.8309744 11.970359,11.7191795 12.0985641,11.606359 C12.421641,11.3243077 12.7447179,11.0422564 13.0667692,10.7591795 C13.4924103,10.3868718 13.9170256,10.0155897 14.3426667,9.64225641 C14.7775385,9.26174359 15.2134359,8.88020513 15.6493333,8.49866667 C16.0001026,8.19097436 16.3447179,7.87712821 16.7057436,7.57661538 C16.9775385,7.34892308 17.2893333,7.12841026 17.4308718,6.82687179 C17.8154872,6.00635897 17.0349744,5.14276923 16.3365128,4.60533333 C15.7939487,4.18892308 15.2513846,3.77046154 14.7088205,3.35405128 C13.7139487,2.58994872 12.7211282,1.82687179 11.7272821,1.06276923 C11.7262564,1.06174359 11.6821538,1.02789744 11.6821538,1.02789744 C11.6821538,1.02789744 6.66984615,5.06994872 6.66984615,5.06994872 C6.66984615,5.06994872 5.97958974,5.73866667 6.30061538,6.73046154 C6.30061538,6.73046154 6.63805128,7.72123077 7.74676923,8.02994872 C7.74676923,8.02994872 9.04933333,8.48123077 9.98779487,7.77251282 C9.98779487,7.77251282 10.7990769,7.23917949 10.9590769,6.52123077 C10.9590769,6.52123077 11.0401026,5.72635897 10.7826667,5.45558974 C10.8113846,5.48635897 10.9939487,5.49764103 11.0370256,5.50892308 C11.2329231,5.56123077 11.4113846,5.63712821 11.5652308,5.74789744 C12.101641,6.13251282 11.9047179,6.66276923 11.6247179,7.10994872 C11.3806154,7.50174359 11.1190769,7.98071795 10.7190769,8.28738462 C10.7190769,8.28738462 9.65753846,9.13661538 9.51292308,9.16328205 C9.51292308,9.16328205 8.62984615,9.60020513 8.08317949,9.60020513 C8.08317949,9.60020513 7.15189744,9.78071795 6.05958974,9.42071795 C6.05958974,9.42071795 5.49753846,9.29148718 4.88728205,8.66071795 C4.88728205,8.66071795 3.8585641,7.75917949 4.54882051,6.28020513 C4.54882051,6.28020513 4.59805128,5.95815385 5.46574359,5.31405128 L10.5570256,1.02789744 L8.24420513,1.02789744 Z" id="Fill-3" fill="#3853A4"></path>
            <path d="M25.9290256,4.10882051 L24.5454359,4.10882051 L24.5454359,8.116 L26.6654359,8.116 L26.6654359,3.2985641 L27.8633846,3.2985641 L27.8633846,5.77548718 L28.7618462,5.77548718 L28.7618462,3.2985641 L29.9587692,3.2985641 L29.9587692,9.53651282 L28.7618462,9.53651282 L28.7618462,6.48830769 L27.8633846,6.48830769 L27.8633846,9.53651282 L26.6654359,9.53651282 L26.6654359,8.81035897 L24.3751795,8.81035897 C24.0192821,8.81035897 23.7546667,8.74164103 23.582359,8.60215385 C23.4264615,8.47805128 23.3474872,8.28728205 23.3474872,8.03189744 L23.3474872,3.42779487 L25.9290256,3.42779487 L25.9290256,4.10882051 Z" id="Fill-5" fill="#3853A4"></path>
            <path d="M38.0107692,3.29846154 L38.0107692,5.19897436 L38.8364103,5.19897436 L38.8364103,5.9374359 L38.0107692,5.9374359 L38.0107692,7.82461538 L36.8128205,7.82461538 L36.8128205,3.29846154 L38.0107692,3.29846154 Z M32.8723077,5.09435897 C32.6887179,5.23794872 32.5974359,5.41846154 32.5974359,5.63897436 C32.5974359,5.85538462 32.6887179,6.03692308 32.8723077,6.18358974 C33.0774359,6.34461538 33.354359,6.42358974 33.7051282,6.42358974 C34.0610256,6.42358974 34.3482051,6.34666667 34.5635897,6.19076923 C34.7687179,6.04820513 34.8702564,5.87282051 34.8702564,5.66564103 C34.8702564,5.44410256 34.7738462,5.25948718 34.5789744,5.10769231 C34.3635897,4.94358974 34.0723077,4.86153846 33.7051282,4.86153846 C33.3492308,4.86153846 33.0712821,4.93948718 32.8723077,5.09435897 L32.8723077,5.09435897 Z M33.3174359,8.77128205 L38.0589744,8.77128205 L38.0589744,9.47179487 L32.8969231,9.47179487 C32.6538462,9.47179487 32.4651282,9.41948718 32.3297436,9.31589744 C32.1892308,9.20410256 32.1194872,9.04205128 32.1194872,8.82974359 L32.1194872,7.46769231 L33.3174359,7.46769231 L33.3174359,8.77128205 Z M33.1389744,3.76615385 L33.1389744,3.26564103 L34.3358974,3.26564103 L34.3358974,3.76615385 L35.9871795,3.76615385 L35.9871795,4.44615385 L34.7410256,4.44615385 C35.2753846,4.55897436 35.6507692,4.76615385 35.8661538,5.06871795 C36.0661538,5.34153846 36.1174359,5.66153846 36.02,6.02871795 C35.9174359,6.32717949 35.6753846,6.57538462 35.2917949,6.77435897 C34.8661538,6.99487179 34.3358974,7.10461538 33.7051282,7.10461538 C33.085641,7.10461538 32.5646154,6.99076923 32.1441026,6.76102564 C31.7717949,6.55794872 31.5369231,6.30461538 31.4394872,6.00205128 C31.3369231,5.65230769 31.3861538,5.34153846 31.5851282,5.06871795 C31.7953846,4.77435897 32.1564103,4.56717949 32.6692308,4.44615385 L31.4312821,4.44615385 L31.4312821,3.76615385 L33.1389744,3.76615385 Z" id="Fill-7" fill="#3853A4"></path>
            <path d="M42.6311795,8.40164103 L42.6311795,6.67035897 L43.8209231,6.67035897 L43.8209231,8.40164103 L46.7429744,8.40164103 L46.7429744,9.08266667 L39.7347692,9.08266667 L39.7347692,8.40164103 L42.6311795,8.40164103 Z M44.7029744,5.38010256 C45.1829744,5.79446154 45.8875897,6.12369231 46.8147692,6.36574359 L46.2814359,6.91651282 C45.5255385,6.7134359 44.9060513,6.48471795 44.4198974,6.22933333 C43.9122051,5.96164103 43.5101538,5.64574359 43.2137436,5.28266667 C42.9388718,5.64574359 42.5481026,5.96164103 42.0414359,6.22933333 C41.5552821,6.48471795 40.9286154,6.7134359 40.1634872,6.91651282 L39.6855385,6.36574359 C40.5706667,6.12369231 41.2527179,5.79241026 41.7327179,5.37292308 C42.3316923,4.85087179 42.6311795,4.176 42.6311795,3.35035897 L43.8209231,3.35035897 C43.8209231,4.18933333 44.1142564,4.86523077 44.7029744,5.38010256 L44.7029744,5.38010256 Z" id="Fill-9" fill="#3853A4"></path>
            <path d="M54.5843077,3.29846154 L54.5843077,4.77025641 L55.4017436,4.77025641 L55.4017436,5.48307692 L54.5843077,5.48307692 L54.5843077,6.83897436 L53.386359,6.83897436 L53.386359,3.29846154 L54.5843077,3.29846154 Z M50.2140513,7.92820513 C49.9227692,8.04512821 49.7771282,8.19179487 49.7771282,8.36923077 C49.7771282,8.5374359 49.9227692,8.68 50.2140513,8.79692308 C50.5484103,8.93128205 51.0099487,8.99794872 51.597641,8.99794872 C52.2078974,8.99794872 52.6848205,8.93128205 53.0294359,8.79692308 C53.3371282,8.68 53.492,8.5374359 53.492,8.36923077 C53.492,8.19179487 53.3371282,8.04512821 53.0294359,7.92820513 C52.6848205,7.79487179 52.2078974,7.72717949 51.597641,7.72717949 C51.0048205,7.72717949 50.5432821,7.79487179 50.2140513,7.92820513 L50.2140513,7.92820513 Z M49.4848205,5.89846154 L51.1689231,5.89846154 L51.1689231,4.84205128 L49.4848205,4.84205128 L49.4848205,5.89846154 Z M53.9525128,7.44205128 C54.4540513,7.69230769 54.7053333,8.00205128 54.7053333,8.36923077 C54.7053333,8.73230769 54.4540513,9.03692308 53.9525128,9.28307692 C53.386359,9.56410256 52.6171282,9.70461538 51.6468718,9.70461538 C50.6643077,9.70461538 49.8930256,9.56410256 49.332,9.28307692 C48.8355897,9.03692308 48.5873846,8.73230769 48.5873846,8.36923077 C48.5873846,7.99692308 48.8355897,7.68820513 49.332,7.44205128 C49.8930256,7.16102564 50.6643077,7.02051282 51.6468718,7.02051282 C52.6171282,7.02051282 53.386359,7.16102564 53.9525128,7.44205128 L53.9525128,7.44205128 Z M49.4848205,3.34974359 L49.4848205,4.15384615 L51.1689231,4.15384615 L51.1689231,3.34974359 L52.3586667,3.34974359 L52.3586667,6.58666667 L49.3155897,6.58666667 C48.9596923,6.58666667 48.7012308,6.53230769 48.5381538,6.42358974 C48.3771282,6.31179487 48.2961026,6.13435897 48.2961026,5.89230769 L48.2961026,3.34974359 L49.4848205,3.34974359 Z" id="Fill-11" fill="#3853A4"></path>
            <path d="M58.346359,7.86984615 C58.0181538,7.99497436 57.8530256,8.14882051 57.8530256,8.32933333 C57.8530256,8.51189744 58.0181538,8.66471795 58.346359,8.78984615 C58.7084103,8.92830769 59.1966154,8.99805128 59.812,8.99805128 C60.4202051,8.99805128 60.9114872,8.92830769 61.2837949,8.78984615 C61.6243077,8.66061538 61.7935385,8.50779487 61.7935385,8.32933333 C61.7935385,8.14882051 61.6243077,7.99497436 61.2837949,7.86984615 C60.9114872,7.73138462 60.4202051,7.66266667 59.812,7.66266667 C59.1966154,7.66266667 58.7084103,7.73138462 58.346359,7.86984615 L58.346359,7.86984615 Z M62.1822564,7.38369231 C62.7227692,7.64317949 62.9914872,7.95907692 62.9914872,8.32933333 C62.9914872,8.6985641 62.7227692,9.01138462 62.1822564,9.26984615 C61.5894359,9.55907692 60.7996923,9.70471795 59.812,9.70471795 C58.8191795,9.70471795 58.0273846,9.55907692 57.4396923,9.26984615 C56.9114872,9.01138462 56.6478974,8.6985641 56.6478974,8.32933333 C56.6478974,7.95907692 56.9114872,7.64317949 57.4396923,7.38369231 C58.0335385,7.0985641 58.8243077,6.95497436 59.812,6.95497436 C60.7996923,6.95497436 61.5894359,7.0985641 62.1822564,7.38369231 L62.1822564,7.38369231 Z M63.3155897,6.57958974 L56.3084103,6.57958974 L56.3084103,5.87907692 L58.6140513,5.87907692 L58.6140513,4.80933333 L59.812,4.80933333 L59.812,5.87907692 L61.5278974,5.87907692 C61.5925128,5.68933333 61.6407179,5.47087179 61.6725128,5.22471795 C61.7053333,5.00420513 61.7217436,4.76010256 61.7217436,4.49241026 L61.7217436,4.13446154 L56.7032821,4.13446154 L56.7032821,3.42779487 L62.9186667,3.42779487 L62.9186667,4.09651282 C62.9186667,4.39394872 62.8991795,4.69753846 62.8622564,5.00420513 C62.8243077,5.35394872 62.7699487,5.64625641 62.7002051,5.87907692 L63.3155897,5.87907692 L63.3155897,6.57958974 Z" id="Fill-13" fill="#3853A4"></path>
            <mask id="mask-2" fill="white">
                <use xlink:href="#path-1"></use>
            </mask>
            <g id="Clip-16"></g>
            <path d="M70.1928205,9.53610256 L71.3907692,9.53610256 L71.3907692,3.29815385 L70.1928205,3.29815385 L70.1928205,9.53610256 Z M69.5784615,3.29815385 L69.5784615,9.53610256 L68.3815385,9.53610256 L68.3815385,6.22225641 L67.3210256,6.22225641 L67.3210256,5.52892308 L68.3815385,5.52892308 L68.3815385,3.29815385 L69.5784615,3.29815385 Z M67.8225641,3.42841026 L67.8225641,4.11558974 L66.8358974,4.11558974 L66.8358974,5.95764103 C66.8358974,6.51046154 66.9784615,7.02020513 67.2646154,7.48687179 C67.5292308,7.90738462 67.8923077,8.26328205 68.3558974,8.55661538 L67.6533333,9.08276923 C67.2594872,8.82738462 66.9435897,8.56789744 66.705641,8.30430769 C66.4789744,8.04892308 66.3230769,7.78738462 66.2369231,7.51969231 C66.1189744,7.80994872 65.9476923,8.08071795 65.7271795,8.33610256 C65.4687179,8.62225641 65.1517949,8.87046154 64.7805128,9.08276923 L64.2133333,8.55661538 C64.6512821,8.29712821 64.9928205,7.94841026 65.2410256,7.50738462 C65.505641,7.04482051 65.6379487,6.532 65.6379487,5.96994872 L65.6379487,4.11558974 L64.6348718,4.11558974 L64.6348718,3.42841026 L67.8225641,3.42841026 Z" id="Fill-15" fill="#3853A4" mask="url(#mask-2)"></path>
            <path d="M74.3539487,5.21107692 C74.1539487,5.38441026 74.0534359,5.59158974 74.0534359,5.83364103 C74.0534359,6.08492308 74.1488205,6.29415385 74.3365128,6.46235897 C74.5467692,6.65312821 74.8339487,6.74851282 75.1949744,6.74851282 C75.5672821,6.74851282 75.8636923,6.65312821 76.0842051,6.46235897 C76.290359,6.29005128 76.3918974,6.08082051 76.3918974,5.83364103 C76.3918974,5.57415385 76.2954872,5.36287179 76.1006154,5.19876923 C75.8913846,5.02133333 75.6021538,4.93312821 75.2349744,4.93312821 C74.8739487,4.93312821 74.5795897,5.0254359 74.3539487,5.21107692 L74.3539487,5.21107692 Z M78.3580513,8.39466667 L78.3580513,3.29825641 L79.5570256,3.29825641 L79.5570256,9.53620513 L78.3580513,9.53620513 L78.3580513,9.08902564 L72.7918974,9.08902564 L72.7918974,8.39466667 L74.6124103,8.39466667 L74.6124103,7.3905641 C74.0995897,7.31671795 73.6872821,7.15671795 73.3734359,6.9105641 C73.0883077,6.68082051 72.9231795,6.41517949 72.8801026,6.11261538 C72.821641,5.68902564 72.9252308,5.32184615 73.196,5.01005128 C73.4924103,4.67774359 73.9324103,4.46748718 74.5149744,4.38133333 L72.8801026,4.38133333 L72.8801026,3.69415385 L74.5467692,3.69415385 L74.5467692,3.26646154 L75.7447179,3.26646154 L75.7447179,3.69415385 L77.5662564,3.69415385 L77.5662564,4.38133333 L75.8821538,4.38133333 C76.4698462,4.47261538 76.9129231,4.68184615 77.2093333,5.01005128 C77.490359,5.32594872 77.6031795,5.69312821 77.5498462,6.11261538 C77.490359,6.41517949 77.3180513,6.68082051 77.0308718,6.9105641 C76.7190769,7.15671795 76.3108718,7.31466667 75.8093333,7.38338462 L75.8093333,8.39466667 L78.3580513,8.39466667 Z" id="Fill-17" fill="#3853A4" mask="url(#mask-2)"></path>
        </g>
    </g>
</svg>