<?xml version="1.0" encoding="UTF-8"?>
<svg width="100px" height="60px" viewBox="0 0 100 60" version="1.1" xmlns="http://www.w3.org/2000/svg" xmlns:xlink="http://www.w3.org/1999/xlink">
    <!-- Generator: Sketch 52.4 (67378) - http://www.bohemiancoding.com/sketch -->
    <title>logo/khpi</title>
    <desc>Created with Sketch.</desc>
    <defs>
        <linearGradient x1="84.0140029%" y1="80.3354559%" x2="16.5713601%" y2="18.5725538%" id="linearGradient-1">
            <stop stop-color="#00B9EF" offset="0%"></stop>
            <stop stop-color="#004EA2" offset="100%"></stop>
        </linearGradient>
        <linearGradient x1="16.5713601%" y1="18.5725538%" x2="84.0140029%" y2="80.3354559%" id="linearGradient-2">
            <stop stop-color="#00B9EF" offset="0%"></stop>
            <stop stop-color="#004EA2" offset="100%"></stop>
        </linearGradient>
        <linearGradient x1="-21.6844426%" y1="0%" x2="93.8277589%" y2="108.458599%" id="linearGradient-3">
            <stop stop-color="#008CD6" offset="0%"></stop>
            <stop stop-color="#0C3190" offset="100%"></stop>
        </linearGradient>
    </defs>
    <g id="logo/khpi" stroke="none" stroke-width="1" fill="none" fill-rule="evenodd">
        <g id="Group-58" transform="translate(9.000000, 20.000000)">
            <g id="Group-3" transform="translate(5.263959, 3.544162)" fill="url(#linearGradient-1)">
                <path d="M3.32703046,0.0972081218 C1.0892132,0.595304569 0.256472081,2.77423858 0.100888325,4.88883249 C-0.00494923858,6.3321066 0.440862944,7.78350254 1.06307107,9.09111675 C2.2356599,11.5480964 4.35406091,14.0218274 6.2501269,15.2475888 C6.28045685,15.2664975 6.3321066,15.2974619 6.36192893,15.3176396 C6.40888325,15.309264 6.48362944,15.2974619 6.53058376,15.2902284 C7.74847716,15.0619289 9.16725888,14.5139594 10.5366751,13.7675127 C8.50507614,12.405203 6.2893401,9.89225888 5.03045685,7.40659898 C4.33083756,6.02296954 3.82208122,4.48959391 3.92373096,2.9678934 C3.99149746,1.97296954 4.20786802,0.963705584 4.64771574,0.110152284 C4.41116751,0.0579949239 4.1751269,0.0293147208 3.94035533,0.0293147208 C3.73591371,0.0293147208 3.53147208,0.0507614213 3.32703046,0.0972081218" id="Fill-1"></path>
            </g>
            <g id="Group-6" transform="translate(0.568528, 7.478173)" fill="url(#linearGradient-2)">
                <path d="M12.2555838,2.61548223 C11.2986041,3.79835025 9.88401015,4.58172589 8.43134518,5.12258883 C5.81967005,6.09378173 2.48654822,6.43489848 0.0723350254,6.05456853 C0.569162437,7.5322335 1.23959391,8.89911168 1.97893401,9.89175127 C2.00621827,9.92982234 2.05621827,9.98807107 2.08489848,10.0272843 C2.11814721,10.0332487 2.17982234,10.0463198 2.2142132,10.0510152 C4.43781726,10.4397208 7.67411168,10.0606599 10.2013959,9.05126904 C11.5446701,8.51408629 12.8593909,7.75203046 13.7604061,6.6178934 C15.0812183,4.96091371 15.9506345,2.79505076 14.6436548,0.909771574 C14.3892132,0.541243655 14.0564721,0.251142132 13.6640863,0.0205583756 C13.4079949,0.948984772 12.8837563,1.8357868 12.2555838,2.61548223" id="Fill-4"></path>
            </g>
            <g id="Group-9" transform="translate(10.720812, 0.117766)" fill="#ED7700">
                <path d="M4.80993655,3.36307107 C4.31602792,4.62677665 2.89191624,5.25076142 1.62706853,4.75634518 C0.362982234,4.26053299 -0.25998731,2.83654822 0.234555838,1.57170051 C0.730241117,0.309263959 2.15498731,-0.315989848 3.41920051,0.178426396 C4.68277919,0.674238579 5.30689086,2.09822335 4.80993655,3.36307107" id="Fill-7"></path>
            </g>
            <g id="Group-12" transform="translate(6.532995, 11.665990)" fill="url(#linearGradient-3)">
                <path d="M2.46687817,0.934771574 C1.7286802,1.20926396 0.93286802,1.43286802 0.118654822,1.60393401 C0.842005076,2.94124365 1.81967005,4.25482234 2.85977157,5.33172589 C3.3322335,5.19505076 3.7965736,5.03946701 4.23692893,4.86345178 C5.12258883,4.50926396 5.99505076,4.05520305 6.7463198,3.4642132 C5.79885787,2.45875635 4.91573604,1.30444162 4.22208122,0.125253807 C3.66281726,0.443781726 3.06840102,0.708883249 2.46687817,0.934771574" id="Fill-10"></path>
            </g>
            <g id="Group-57" transform="translate(18.000000, 7.117766)">
                <path d="M6.80040609,2.56350254 L7.83467005,2.56350254 L7.83467005,3.36109137 L6.80040609,3.36109137 L6.80040609,5.80994924 L5.85662437,5.80994924 L5.85662437,0.423781726 L6.80040609,0.423781726 L6.80040609,2.56350254 Z M2.70878173,5.41997462 L3.66093909,5.41997462 L3.66093909,6.97365482 L6.91398477,6.97365482 L6.91398477,7.76185279 L2.70878173,7.76185279 L2.70878173,5.41997462 Z M4.02477157,3.02708122 C4.02477157,2.53139594 3.60269036,2.06781726 3.15637056,2.06781726 C2.71715736,2.06781726 2.28568528,2.53139594 2.28568528,3.02708122 C2.28568528,3.5156599 2.72604061,3.97213198 3.15637056,3.97213198 C3.60269036,3.97213198 4.02477157,3.5156599 4.02477157,3.02708122 Z M3.67769036,1.05017766 L5.34418782,1.05017766 L5.34418782,1.8157868 L4.32845178,1.8157868 C4.69406091,2.11654822 4.95548223,2.56350254 4.95548223,3.06159898 C4.95548223,4.00309645 4.14901015,4.77568528 3.15637056,4.77568528 C2.15484772,4.77568528 1.36550761,4.00309645 1.36550761,3.06159898 C1.36550761,2.56350254 1.6186802,2.11654822 1.98492386,1.8157868 L0.952436548,1.8157868 L0.952436548,1.05017766 L2.65954315,1.05017766 L2.65954315,0.23 L3.67769036,0.23 L3.67769036,1.05017766 Z" id="Fill-13" fill="#231916"></path>
                <path d="M12.3613071,3.41810914 C12.4997589,2.90465736 12.6370685,1.90364213 12.6204442,1.46392132 L9.37399746,1.46392132 L9.37399746,0.668616751 L13.6047081,0.668616751 C13.6201904,1.36760152 13.4762817,2.7275 13.3050888,3.41810914 L14.9081345,3.41810914 L14.9081345,4.18130711 L12.0356726,4.18130711 L12.0356726,5.2488198 L13.6623223,5.2488198 L13.6623223,7.88422589 L12.7107995,7.88422589 L12.7107995,6.09755076 L9.18085025,6.09755076 L9.18085025,5.2488198 L11.0335152,5.2488198 L11.0335152,4.18130711 L8.1394797,4.18130711 L8.1394797,3.41810914 L12.3613071,3.41810914 Z" id="Fill-15" fill="#231916"></path>
                <path d="M20.426802,2.31148477 L20.426802,0.423794416 L21.3681726,0.423794416 L21.3681726,5.80996193 L20.426802,5.80996193 L20.426802,3.10082487 L19.0585279,3.10082487 L19.0585279,2.31148477 L20.426802,2.31148477 Z M17.2529442,5.41998731 L18.2051015,5.41998731 L18.2051015,6.97366751 L21.5417766,6.97366751 L21.5417766,7.76186548 L17.2529442,7.76186548 L17.2529442,5.41998731 Z M16.0427919,4.88140863 L15.4971066,4.26326142 C16.1389848,3.97798223 16.7500254,3.59765228 17.2279442,3.1340736 C17.693934,2.67760152 18.0332741,2.14029188 18.1063706,1.57925127 L15.8787056,1.57925127 L15.8787056,0.807677665 L19.2547208,0.807677665 C19.1809898,1.74206853 18.8707107,2.54676396 18.3500254,3.22201777 C17.8002792,3.9376269 17.0104315,4.49993655 16.0427919,4.88140863 Z" id="Fill-17" fill="#231916"></path>
                <path d="M28.1020558,2.0915736 L29.1279442,2.0915736 L29.1279442,2.88916244 L28.1020558,2.88916244 L28.1020558,4.73649746 L27.1582741,4.73649746 L27.1582741,0.433324873 L28.1020558,0.433324873 L28.1020558,2.0915736 Z M27.0787056,6.47558376 C27.0787056,5.96441624 26.6863198,5.56619289 26.2072589,5.56619289 C25.7269289,5.56619289 25.3204569,5.97279188 25.3204569,6.47558376 C25.3204569,6.95705584 25.7020558,7.37177665 26.1822589,7.37177665 C26.6530711,7.37177665 27.0787056,6.95705584 27.0787056,6.47558376 Z M28.018934,6.47558376 C28.018934,7.40388325 27.2058629,8.16111675 26.2072589,8.16111675 C25.2146193,8.16111675 24.3931726,7.40388325 24.3931726,6.47558376 C24.3931726,5.53281726 25.2146193,4.77558376 26.2072589,4.77558376 C27.2058629,4.77558376 28.018934,5.53281726 28.018934,6.47558376 Z M22.9441878,4.88269036 L22.3997716,4.26327411 C23.0429188,3.97799492 23.6515482,3.59766497 24.1317513,3.13535533 C24.5953299,2.67875635 24.9365736,2.14030457 25.0114467,1.57913706 L22.7849239,1.57913706 L22.7849239,0.807690355 L26.1573858,0.807690355 C26.084797,1.74208122 25.7757868,2.54677665 25.2549746,3.22076142 C24.6998985,3.93763959 23.9129695,4.50109137 22.9441878,4.88269036 Z" id="Fill-19" fill="#231916"></path>
                <path d="M33.0186929,7.40281726 C33.5143782,7.40281726 33.9292259,7.02121827 33.9292259,6.55763959 C33.9292259,6.07845178 33.538236,5.69456853 33.0424239,5.69456853 C32.5467386,5.69456853 32.1318909,6.07147208 32.1318909,6.55763959 C32.1318909,7.01411168 32.5289721,7.40281726 33.0186929,7.40281726 Z M33.0424239,4.93974619 C34.0516878,4.93974619 34.8897589,5.66373096 34.8897589,6.55763959 C34.8897589,7.43720812 34.0420431,8.16005076 33.0424239,8.16005076 C32.0497843,8.16005076 31.1952157,7.43720812 31.1952157,6.55763959 C31.1952157,5.66373096 32.0497843,4.93974619 33.0424239,4.93974619 Z M32.4563832,1.4257868 L30.7981345,1.4257868 L30.7981345,0.65319797 L35.2070178,0.65319797 L35.2070178,1.4257868 L33.5535914,1.4257868 C33.6118401,1.72654822 33.8722462,2.04279188 34.1730076,2.26982234 C34.5225,2.53847716 35.1655203,2.83923858 35.5708503,2.96170051 L35.1084137,3.60598985 C34.6127284,3.47527919 34.2372208,3.30408629 33.7912817,3.01043147 C33.3681853,2.72756345 33.0995305,2.51588832 33.0103173,2.36017766 C32.9367132,2.49926396 32.6109518,2.75840102 32.2519416,2.99609137 C31.8548604,3.25649746 31.4471193,3.45979695 30.9348096,3.61322335 L30.4320178,2.95573604 C30.8717386,2.83923858 31.5374746,2.52185279 31.911967,2.22236041 C32.1806218,2.00357868 32.4242766,1.69329949 32.4563832,1.4257868 Z M29.5939467,4.61271574 L36.4421701,4.61271574 L36.4421701,3.87337563 L29.5939467,3.87337563 L29.5939467,4.61271574 Z" id="Fill-21" fill="#231916"></path>
                <path d="M42.1076142,5.78489848 L43.0513959,5.78489848 L43.0513959,0.423730964 L42.1076142,0.423730964 L42.1076142,5.78489848 Z M38.9348985,5.41167513 L39.8870558,5.41167513 L39.8870558,6.97360406 L43.2203046,6.97360406 L43.2203046,7.76180203 L38.9348985,7.76180203 L38.9348985,5.41167513 Z M38.7553299,1.52335025 L37.4538071,1.52335025 L37.4538071,0.749492386 L41.0579949,0.749492386 L41.0579949,1.52335025 L39.7563452,1.52335025 L39.7563452,1.80634518 C39.7563452,2.26979695 39.951269,2.75964467 40.2034264,3.07576142 C40.4708122,3.40152284 40.9439086,3.7356599 41.3908629,3.98756345 L40.9034264,4.63781726 C40.480203,4.44403553 40.2034264,4.25621827 39.9191624,4.00304569 C39.6505076,3.7498731 39.397335,3.49187817 39.2927665,3.31941624 C39.2261421,3.47525381 39.0717005,3.67741117 38.7553299,4.00304569 C38.4214467,4.35126904 38.1623096,4.56535533 37.7129442,4.82449239 L37.1114213,4.19796954 C37.5596447,3.93756345 38.0469543,3.52398477 38.3406091,3.10913706 C38.5676396,2.77626904 38.7553299,2.26979695 38.7553299,1.82411168 L38.7553299,1.52335025 Z" id="Fill-23" fill="#231916"></path>
                <path d="M50.4893655,7.75588832 L49.5788325,7.75588832 L49.5788325,3.93888325 L48.7953299,3.93888325 L48.7953299,7.27200508 L47.8836548,7.27200508 L47.8836548,0.611598985 L48.7953299,0.611598985 L48.7953299,3.14954315 L49.5788325,3.14954315 L49.5788325,0.454619289 L50.4893655,0.454619289 L50.4893655,7.75588832 Z M47.3761675,1.27251269 C47.2750254,3.63926396 45.8141117,5.0443401 44.5337817,5.56743655 L43.971599,4.9730203 C45.4004061,4.38101523 46.1421574,3.29459391 46.4238832,2.06185279 L44.4398731,2.06185279 L44.4398731,1.27251269 L47.3761675,1.27251269 Z" id="Fill-25" fill="#231916"></path>
                <path d="M58.137665,2.81432741 L56.9191371,2.81432741 L56.9191371,4.42270305 L56.0014975,4.42270305 L56.0014975,0.455824873 L56.9191371,0.455824873 L56.9191371,2.01661168 L58.137665,2.01661168 L58.137665,2.81432741 Z M57.0214213,7.82714467 L53.0961675,7.82714467 L53.0961675,5.85151015 L55.9753553,5.85151015 L55.9753553,5.44491117 L53.0570812,5.44491117 L53.0570812,4.67232234 L56.8264975,4.67232234 L56.8264975,6.62536802 L54.0542893,6.62536802 L54.0542893,7.02232234 L57.0214213,7.02232234 L57.0214213,7.82714467 Z M52.5210406,3.29821066 L53.952132,3.29821066 L53.952132,2.64199239 L52.5210406,2.64199239 L52.5210406,3.29821066 Z M54.7879188,4.08615482 L51.6851269,4.08615482 L51.6851269,0.838692893 L52.5209137,0.838692893 L52.5209137,1.85379442 L53.952132,1.85379442 L53.952132,0.838692893 L54.7879188,0.838692893 L54.7879188,4.08615482 Z" id="Fill-26" fill="#231916"></path>
                <path d="M64.8385152,5.94540609 L63.9338198,5.94540609 L63.9338198,5.39032995 L62.3409264,5.39032995 L62.3409264,4.62598985 L63.9338198,4.62598985 L63.9338198,0.454670051 L64.8385152,0.454670051 L64.8385152,5.94540609 Z M64.8170685,7.75695431 L60.3938452,7.75695431 L60.3938452,5.64109137 L61.2295051,5.64109137 L61.2295051,6.96050761 L64.8170685,6.96050761 L64.8170685,7.75695431 Z M61.7584391,2.06659898 C61.7584391,1.59819797 61.4660533,1.33195431 60.9597081,1.33195431 C60.4758249,1.33195431 60.1845812,1.6065736 60.1845812,2.05949239 C60.1845812,2.51951777 60.4984137,2.77751269 60.9751904,2.77751269 C61.4660533,2.77751269 61.7584391,2.50403553 61.7584391,2.06659898 Z M62.594099,2.07370558 C62.594099,2.90225888 61.966434,3.51088832 60.9751904,3.51088832 C60.0145305,3.51088832 59.3560279,2.90225888 59.3560279,2.05949239 C59.3560279,1.23093909 59.9754442,0.605685279 60.9513325,0.605685279 C61.9594543,0.605685279 62.594099,1.19286802 62.594099,2.07370558 Z M63.6223985,4.28944162 C62.988769,4.37510152 62.5287437,4.47738579 61.4505711,4.51647208 L61.4505711,5.45327411 L60.6231599,5.45327411 L60.6231599,4.53195431 L60.3344543,4.53195431 L58.8270939,4.53195431 L58.8270939,3.76647208 L60.5994289,3.76647208 C61.929632,3.76647208 62.7843274,3.67738579 63.6223985,3.50137056 L63.6223985,4.28944162 Z" id="Fill-27" fill="#231916"></path>
                <polygon id="Fill-28" fill="#ED7700" points="4.98125635 8.72303299 4.38024112 8.72430203 3.16945431 10.228236 3.16945431 8.72430203 2.67935279 8.72430203 2.67935279 11.8047589 3.16945431 11.8047589 3.16945431 10.9102157 3.65930203 10.3146574 4.49610406 11.7979061 4.50067259 11.8060279 5.07859137 11.804632 3.98747462 9.93572335"></polygon>
                <path d="M6.61191624,11.0991244 C6.59491117,11.1904949 6.55823604,11.2671447 6.50303299,11.3271701 C6.46508883,11.3696827 6.41521574,11.4042005 6.35455584,11.4299619 C6.23120558,11.4825 6.08805838,11.4802157 5.97270305,11.4317386 C5.91445431,11.4072462 5.86445431,11.371967 5.82422589,11.3271701 C5.76686548,11.2628299 5.72968274,11.1871954 5.71369289,11.102297 C5.69732234,11.0160025 5.68920051,10.8465863 5.68920051,10.5989975 C5.68920051,10.3604188 5.69795685,10.1921447 5.71534264,10.0988706 C5.73234772,10.0076269 5.76889594,9.93097716 5.82422589,9.87082487 C5.86229695,9.82818528 5.91229695,9.79354061 5.97270305,9.76803299 C6.03310914,9.74227157 6.09744924,9.72920051 6.16369289,9.72920051 C6.23196701,9.72920051 6.2961802,9.74176396 6.35468274,9.76638325 C6.41293147,9.79087563 6.46280457,9.82602792 6.50303299,9.87082487 C6.5605203,9.93529188 6.59770305,10.0109264 6.61356599,10.0955711 C6.62993655,10.1819924 6.63818528,10.3514086 6.63818528,10.5989975 C6.63818528,10.837703 6.62930203,11.0061041 6.61191624,11.0991244 M6.79782995,9.63186548 C6.71267766,9.54620558 6.61686548,9.48085025 6.51267766,9.43795685 C6.40836294,9.39493655 6.29110406,9.37310914 6.16369289,9.37310914 C5.91508883,9.37310914 5.70290609,9.46016497 5.53272843,9.63186548 C5.42486041,9.74074873 5.35544416,9.87615482 5.32625635,10.0346574 C5.30848985,10.1308503 5.2996066,10.320698 5.2996066,10.5989975 C5.2996066,10.8797081 5.30848985,11.0705711 5.32625635,11.1666371 C5.35544416,11.3229822 5.42486041,11.4572462 5.53272843,11.5661294 C5.70303299,11.7378299 5.91521574,11.8248858 6.16369289,11.8248858 C6.41420051,11.8248858 6.62752538,11.7378299 6.79782995,11.5661294 C6.90785533,11.4552157 6.97727157,11.3196827 7.00430203,11.1633376 C7.01978426,11.0756472 7.02765228,10.8857995 7.02765228,10.5989975 C7.02765228,10.320698 7.01876904,10.1297081 7.00100254,10.031231 C6.97168782,9.87285533 6.90341371,9.73846447 6.79782995,9.63186548" id="Fill-29" fill="#ED7700"></path>
                <path d="M7.91571066,9.74916244 L8.42992386,9.74916244 C8.54680203,9.74916244 8.64134518,9.78164975 8.71076142,9.84573604 C8.78005076,9.90956853 8.81507614,9.99827411 8.81507614,10.1094416 C8.81507614,10.2204822 8.77954315,10.3085533 8.70936548,10.3711168 C8.6386802,10.4340609 8.54464467,10.4660406 8.42992386,10.4660406 L7.91571066,10.4660406 L7.91571066,9.74916244 Z M9.07027919,10.5236548 C9.15949239,10.4108376 9.20467005,10.2698477 9.20467005,10.1043655 C9.20467005,9.89370558 9.13550761,9.72048223 8.9993401,9.58989848 C8.86317259,9.45944162 8.68055838,9.39319797 8.4564467,9.39319797 L7.52611675,9.39319797 L7.52611675,11.8047462 L7.91571066,11.8047462 L7.91571066,10.8020812 L8.33804569,10.8017005 L8.82916244,11.7963706 L8.83360406,11.8051269 L9.28766497,11.8047462 L8.74121827,10.7459898 C8.87459391,10.7058883 8.98525381,10.6311421 9.07027919,10.5236548 Z" id="Fill-30" fill="#ED7700"></path>
                <polygon id="Fill-31" fill="#ED7700" points="9.69638325 11.8047843 11.2357234 11.8047843 11.2357234 11.4488198 10.0859772 11.4488198 10.0859772 10.7653173 11.0666878 10.7653173 11.0666878 10.4126523 10.0859772 10.4126523 10.0859772 9.74920051 11.2357234 9.74920051 11.2357234 9.39323604 9.69638325 9.39323604"></polygon>
                <path d="M12.7801777,10.9909391 L12.102132,10.9909391 L12.4460406,9.99893401 L12.7801777,10.9909391 Z M12.5927411,9.39322335 L12.282335,9.39322335 L11.4136802,11.7834518 L11.4059391,11.8047716 L11.8210406,11.8047716 L11.9842386,11.3267259 L12.894264,11.3267259 L13.0502284,11.7939848 L13.0539086,11.8047716 L13.4690102,11.8047716 L12.5965482,9.40362944 L12.5927411,9.39322335 Z" id="Fill-32" fill="#ED7700"></path>
                <polygon id="Fill-33" fill="#ED7700" points="16.5206091 10.0260279 15.3255584 10.0260279 15.3255584 8.72425127 14.8354569 8.72425127 14.8354569 11.804835 15.3255584 11.804835 15.3255584 10.4729822 16.5206091 10.4729822 16.5206091 11.804835 17.0107107 11.804835 17.0107107 8.72425127 16.5206091 8.72425127"></polygon>
                <polygon id="Fill-34" fill="#ED7700" points="17.6819543 11.8047843 19.2212944 11.8047843 19.2212944 11.4488198 18.0715482 11.4488198 18.0715482 10.7653173 19.0522589 10.7653173 19.0522589 10.4126523 18.0715482 10.4126523 18.0715482 9.74920051 19.2212944 9.74920051 19.2212944 9.39323604 17.6819543 9.39323604"></polygon>
                <path d="M20.7656853,10.9909391 L20.0876396,10.9909391 L20.4315482,9.99893401 L20.7656853,10.9909391 Z M20.5782487,9.39322335 L20.2678426,9.39322335 L19.3991878,11.7834518 L19.3914467,11.8047716 L19.8065482,11.8047716 L19.9697462,11.3267259 L20.8797716,11.3267259 L21.0394162,11.8047716 L21.4546447,11.8047716 L20.5820558,9.40362944 L20.5782487,9.39322335 Z" id="Fill-35" fill="#ED7700"></path>
                <polygon id="Fill-36" fill="#ED7700" points="22.1403173 9.39323604 21.7508503 9.39323604 21.7508503 11.8047843 23.2768655 11.8047843 23.2768655 11.4488198 22.1403173 11.4488198"></polygon>
                <polygon id="Fill-37" fill="#ED7700" points="23.4439213 9.74916244 24.0932868 9.74916244 24.0932868 11.8047462 24.4830076 11.8047462 24.4830076 9.74916244 25.1323731 9.74916244 25.1323731 9.39319797 23.4439213 9.39319797"></polygon>
                <polygon id="Fill-38" fill="#ED7700" points="26.8234772 10.4093401 25.8975888 10.4093401 25.8975888 9.39322335 25.5079949 9.39322335 25.5079949 11.8047716 25.8975888 11.8047716 25.8975888 10.7653046 26.8234772 10.7653046 26.8234772 11.8047716 27.2129442 11.8047716 27.2129442 9.39322335 26.8234772 9.39322335"></polygon>
                <path d="M29.3580711,9.17128173 L30.0043909,9.17128173 C30.1606091,9.17128173 30.2876396,9.21531726 30.3819289,9.30199239 C30.4758376,9.38841371 30.5234264,9.51049492 30.5234264,9.66506345 C30.5234264,9.8167132 30.4758376,9.93739848 30.3819289,10.0238198 C30.2876396,10.1104949 30.1606091,10.1545305 30.0043909,10.1545305 L29.3580711,10.1545305 L29.3580711,9.17128173 Z M30.0297716,8.72432741 L28.8678426,8.72432741 L28.8678426,11.8047843 L29.3580711,11.8047843 L29.3580711,10.6059264 L30.0297716,10.6059264 C30.321269,10.6059264 30.560736,10.5165863 30.7411929,10.3401904 C30.9219036,10.1635406 31.0135279,9.93651015 31.0135279,9.66506345 C31.0135279,9.39069797 30.922665,9.16303299 30.7433503,8.98790609 C30.5642893,8.81303299 30.3241878,8.72432741 30.0297716,8.72432741 Z" id="Fill-39" fill="#ED7700"></path>
                <path d="M31.8407487,9.74916244 L32.3550888,9.74916244 C32.4718401,9.74916244 32.5662563,9.78164975 32.6359264,9.84573604 C32.7050888,9.90944162 32.7401142,9.99814721 32.7401142,10.1094416 C32.7401142,10.2204822 32.7045812,10.3085533 32.6344036,10.3711168 C32.5637183,10.4340609 32.4696827,10.4660406 32.3550888,10.4660406 L31.8407487,10.4660406 L31.8407487,9.74916244 Z M32.9953173,10.5236548 C33.0844036,10.4108376 33.1295812,10.2698477 33.1295812,10.1043655 C33.1295812,9.89370558 33.0605457,9.72048223 32.9243782,9.58989848 C32.7882107,9.45944162 32.6054695,9.39319797 32.3816117,9.39319797 L31.4511548,9.39319797 L31.4511548,11.8047462 L31.8407487,11.8047462 L31.8407487,10.8020812 L32.2630838,10.8017005 L32.7585152,11.8051269 L33.212703,11.8047462 L32.6662563,10.7459898 C32.799632,10.7058883 32.9102919,10.6311421 32.9953173,10.5236548 Z" id="Fill-40" fill="#ED7700"></path>
                <path d="M34.8476396,11.0991244 C34.8305076,11.1904949 34.7939594,11.2671447 34.7387563,11.3271701 C34.7008122,11.3696827 34.6508122,11.4042005 34.5904061,11.4299619 C34.4670558,11.4825 34.3239086,11.4803426 34.2084264,11.4317386 C34.1501777,11.4071193 34.1001777,11.3718401 34.0599492,11.3271701 C34.0025888,11.2629569 33.9654061,11.1873223 33.9494162,11.102297 C33.9331726,11.0156218 33.9249239,10.8462056 33.9249239,10.5989975 C33.9249239,10.3602919 33.9336802,10.1920178 33.9511929,10.0988706 C33.9680711,10.0076269 34.0046193,9.93097716 34.0600761,9.87082487 C34.0981472,9.82805838 34.1480203,9.79354061 34.2084264,9.76803299 C34.2688325,9.74227157 34.3331726,9.72920051 34.3994162,9.72920051 C34.4676904,9.72920051 34.5319036,9.74176396 34.5904061,9.76638325 C34.6486548,9.79074873 34.6985279,9.82602792 34.7387563,9.87082487 C34.7961168,9.93529188 34.8332995,10.0109264 34.8492893,10.0955711 C34.8656599,10.1822462 34.8739086,10.3515355 34.8739086,10.5989975 C34.8739086,10.8371954 34.8651523,11.0054695 34.8476396,11.0991244 M35.0335533,9.63186548 C34.9486548,9.54620558 34.8525888,9.48097716 34.748401,9.43795685 C34.6440863,9.39493655 34.5268274,9.37310914 34.3994162,9.37310914 C34.1508122,9.37310914 33.9385025,9.46016497 33.7684518,9.63186548 C33.6605838,9.74074873 33.5912944,9.87615482 33.5619797,10.0346574 C33.5442132,10.1307234 33.535203,10.3205711 33.535203,10.5989975 C33.535203,10.8797081 33.5442132,11.070698 33.5619797,11.166764 C33.5912944,11.3229822 33.6605838,11.4572462 33.7684518,11.5661294 C33.9386294,11.7378299 34.1509391,11.8248858 34.3994162,11.8248858 C34.649797,11.8248858 34.8632487,11.7378299 35.0335533,11.5661294 C35.1435787,11.4552157 35.2129949,11.3196827 35.2400254,11.1633376 C35.2557614,11.0748858 35.2633756,10.8902411 35.2633756,10.5989975 C35.2633756,10.3205711 35.2543655,10.1295812 35.236599,10.031231 C35.2074112,9.87272843 35.1391371,9.73833756 35.0335533,9.63186548" id="Fill-41" fill="#ED7700"></path>
                <polygon id="Fill-42" fill="#ED7700" points="36.8245685 10.8520178 36.1499492 9.40239848 36.1456345 9.39326142 35.7617513 9.39326142 35.7617513 11.8048096 36.1513452 11.8048096 36.1513452 10.2650888 36.6798985 11.363566 36.6842132 11.372703 36.9675888 11.3737183 37.4847208 10.2713071 37.4847208 11.8048096 37.8743147 11.8048096 37.8743147 9.39326142 37.4904315 9.39326142"></polygon>
                <path d="M39.6817513,11.0991244 C39.6646193,11.1904949 39.6280711,11.2671447 39.572868,11.3271701 C39.5349239,11.3696827 39.4849239,11.4042005 39.4245178,11.4299619 C39.3011675,11.4825 39.1580203,11.4803426 39.0425381,11.4317386 C38.9842893,11.4071193 38.9342893,11.3718401 38.8940609,11.3271701 C38.8367005,11.2629569 38.7995178,11.1873223 38.7835279,11.102297 C38.7672843,11.0156218 38.7590355,10.8462056 38.7590355,10.5989975 C38.7590355,10.3602919 38.7677919,10.1920178 38.7853046,10.0988706 C38.8021827,10.0076269 38.838731,9.93097716 38.8941878,9.87082487 C38.9322589,9.82805838 38.982132,9.79354061 39.0425381,9.76803299 C39.1029442,9.74227157 39.1672843,9.72920051 39.2335279,9.72920051 C39.301802,9.72920051 39.3660152,9.74176396 39.4245178,9.76638325 C39.4827665,9.79074873 39.5326396,9.82602792 39.572868,9.87082487 C39.6302284,9.93529188 39.6674112,10.0109264 39.683401,10.0955711 C39.6997716,10.1822462 39.7080203,10.3515355 39.7080203,10.5989975 C39.7080203,10.8371954 39.699264,11.0054695 39.6817513,11.0991244 M39.867665,9.63186548 C39.7827665,9.54620558 39.6867005,9.48097716 39.5825127,9.43795685 C39.478198,9.39493655 39.3609391,9.37310914 39.2335279,9.37310914 C38.9849239,9.37310914 38.7726142,9.46016497 38.6025635,9.63186548 C38.4946954,9.74074873 38.4254061,9.87615482 38.3960914,10.0346574 C38.3783249,10.1307234 38.3693147,10.3205711 38.3693147,10.5989975 C38.3693147,10.8797081 38.3783249,11.070698 38.3960914,11.166764 C38.4254061,11.3229822 38.4946954,11.4572462 38.6025635,11.5661294 C38.7727411,11.7378299 38.9850508,11.8248858 39.2335279,11.8248858 C39.4839086,11.8248858 39.6973604,11.7378299 39.867665,11.5661294 C39.9776904,11.4552157 40.0471066,11.3196827 40.0741371,11.1633376 C40.0898731,11.0748858 40.0974873,10.8902411 40.0974873,10.5989975 C40.0974873,10.3205711 40.0884772,10.1295812 40.0707107,10.031231 C40.0415228,9.87272843 39.9732487,9.73833756 39.867665,9.63186548" id="Fill-43" fill="#ED7700"></path>
                <polygon id="Fill-44" fill="#ED7700" points="40.3872843 9.74916244 41.0366497 9.74916244 41.0366497 11.8047462 41.4263706 11.8047462 41.4263706 9.74916244 42.075736 9.74916244 42.075736 9.39319797 40.3872843 9.39319797"></polygon>
                <polygon id="Fill-45" fill="#ED7700" points="42.4513959 11.8048223 42.8409898 11.8048223 42.8409898 9.39327411 42.4513959 9.39327411"></polygon>
                <path d="M44.651802,11.0991244 C44.6346701,11.1904949 44.5981218,11.2671447 44.5429188,11.3271701 C44.5049746,11.3696827 44.4549746,11.4042005 44.3945685,11.4299619 C44.2712183,11.4825 44.1280711,11.4803426 44.0125888,11.4317386 C43.9543401,11.4071193 43.9043401,11.3718401 43.8641117,11.3271701 C43.8067513,11.2629569 43.7695685,11.1873223 43.7535787,11.102297 C43.737335,11.0156218 43.7290863,10.8462056 43.7290863,10.5989975 C43.7290863,10.3602919 43.7378426,10.1920178 43.7553553,10.0988706 C43.7722335,10.0076269 43.8087817,9.93097716 43.8642386,9.87082487 C43.9023096,9.82805838 43.9521827,9.79354061 44.0125888,9.76803299 C44.0729949,9.74227157 44.137335,9.72920051 44.2035787,9.72920051 C44.2718528,9.72920051 44.336066,9.74176396 44.3945685,9.76638325 C44.4528173,9.79074873 44.5026904,9.82602792 44.5429188,9.87082487 C44.6002792,9.93529188 44.6374619,10.0109264 44.6534518,10.0955711 C44.6698223,10.1822462 44.6780711,10.3515355 44.6780711,10.5989975 C44.6780711,10.8371954 44.6693147,11.0054695 44.651802,11.0991244 M44.8377157,9.63186548 C44.7528173,9.54620558 44.6567513,9.48097716 44.5525635,9.43795685 C44.4482487,9.39493655 44.3309898,9.37310914 44.2035787,9.37310914 C43.9549746,9.37310914 43.742665,9.46016497 43.5726142,9.63186548 C43.4647462,9.74074873 43.3954569,9.87615482 43.3661421,10.0346574 C43.3483756,10.1307234 43.3393655,10.3205711 43.3393655,10.5989975 C43.3393655,10.8797081 43.3483756,11.070698 43.3661421,11.166764 C43.3954569,11.3229822 43.4647462,11.4572462 43.5726142,11.5661294 C43.7427919,11.7378299 43.9551015,11.8248858 44.2035787,11.8248858 C44.4539594,11.8248858 44.6674112,11.7378299 44.8377157,11.5661294 C44.9477411,11.4552157 45.0171574,11.3196827 45.0441878,11.1633376 C45.0599239,11.0748858 45.0675381,10.8902411 45.0675381,10.5989975 C45.0675381,10.3205711 45.0585279,10.1295812 45.0407614,10.031231 C45.0115736,9.87272843 44.9432995,9.73833756 44.8377157,9.63186548" id="Fill-46" fill="#ED7700"></path>
                <polygon id="Fill-47" fill="#ED7700" points="46.9841624 11.0262563 45.9223604 9.40087563 45.917665 9.39376904 45.5658883 9.39326142 45.5658883 11.8048096 45.9556091 11.8048096 45.9556091 10.1677538 47.0165228 11.7975761 47.0212183 11.8048096 47.3736294 11.8048096 47.3736294 9.39326142 46.9841624 9.39326142"></polygon>
                <polygon id="Fill-48" fill="#ED7700" points="49.0284264 11.8048223 49.5186548 11.8048223 49.5186548 8.72436548 49.0284264 8.72436548"></polygon>
                <polygon id="Fill-49" fill="#ED7700" points="51.6079569 11.0262563 50.5461548 9.40087563 50.5414594 9.39376904 50.1896827 9.39326142 50.1896827 11.8048096 50.5794036 11.8048096 50.5794036 10.1677538 51.6403173 11.7975761 51.6450127 11.8048096 51.9974239 11.8048096 51.9974239 9.39326142 51.6079569 9.39326142"></polygon>
                <path d="M53.7055838,10.4958376 C53.6374365,10.4675381 53.5486041,10.4453299 53.4417513,10.4295939 L53.1736041,10.3894924 C53.0623096,10.3721066 52.976269,10.3369543 52.9182741,10.284797 C52.8612944,10.2336548 52.8323604,10.1628426 52.8323604,10.074264 C52.8323604,9.97248731 52.8690355,9.88695431 52.9414975,9.82020305 C53.014467,9.75307107 53.1172589,9.71906091 53.247335,9.71906091 C53.3508883,9.71906091 53.4450508,9.7328934 53.5272843,9.76017766 C53.6083756,9.78695431 53.6832487,9.83352792 53.7498731,9.89850254 L53.7610406,9.90941624 L54.0123096,9.65941624 L54.0003807,9.64824873 C53.8059645,9.46576142 53.5558376,9.37312183 53.2572335,9.37312183 C53.0111675,9.37312183 52.8137056,9.43923858 52.6700508,9.56944162 C52.5258883,9.70002538 52.4527919,9.87451777 52.4527919,10.0875888 C52.4527919,10.2853046 52.5124365,10.4420305 52.6299492,10.5537056 C52.7380711,10.6558629 52.8914975,10.7213452 53.0859137,10.7485025 L53.364467,10.7886041 C53.4312183,10.7972335 53.4833756,10.8092893 53.5195431,10.824264 C53.5553299,10.8392386 53.5871827,10.8595431 53.6143401,10.884797 C53.6724619,10.937335 53.7019036,11.0166497 53.7019036,11.1204569 C53.7019036,11.2320051 53.6621827,11.3158883 53.5807107,11.3766751 C53.4989848,11.4379695 53.3810914,11.468934 53.2307107,11.468934 C53.1096447,11.468934 52.9993655,11.451802 52.9029188,11.4180457 C52.8073604,11.3844162 52.7185279,11.3266751 52.6389594,11.2463452 L52.6277919,11.2350508 L52.3667513,11.4944416 L52.377665,11.505736 C52.4892132,11.6207107 52.6138325,11.7035787 52.7480964,11.7519289 C52.8817259,11.8002792 53.0418782,11.8248985 53.2241117,11.8248985 C53.4805838,11.8248985 53.690736,11.7608122 53.8486041,11.6342893 C54.0076142,11.5067513 54.088198,11.3304822 54.088198,11.1104315 C54.088198,10.8949492 54.0217005,10.7266751 53.8906091,10.6105584 C53.8366751,10.5628426 53.7744924,10.5243909 53.7055838,10.4958376" id="Fill-50" fill="#ED7700"></path>
                <polygon id="Fill-51" fill="#ED7700" points="54.3280838 9.74916244 54.9774492 9.74916244 54.9774492 11.8047462 55.3671701 11.8047462 55.3671701 9.74916244 56.0165355 9.74916244 56.0165355 9.39319797 54.3280838 9.39319797"></polygon>
                <polygon id="Fill-52" fill="#ED7700" points="56.3922589 11.8048223 56.7818528 11.8048223 56.7818528 9.39327411 56.3922589 9.39327411"></polygon>
                <polygon id="Fill-53" fill="#ED7700" points="57.1576269 9.74916244 57.8069924 9.74916244 57.8069924 11.8047462 58.1967132 11.8047462 58.1967132 9.74916244 58.8460787 9.74916244 58.8460787 9.39319797 57.1576269 9.39319797"></polygon>
                <path d="M60.520698,10.9699873 C60.520698,11.1231599 60.4770431,11.2460025 60.3910025,11.3349619 C60.3049619,11.4237944 60.1889721,11.4689721 60.0462056,11.4689721 C59.9012817,11.4689721 59.7852919,11.4239213 59.7015355,11.3350888 C59.6176523,11.2461294 59.5750127,11.1232868 59.5750127,10.9699873 L59.5750127,9.39321066 L59.1854188,9.39321066 L59.1854188,10.9867386 C59.1854188,11.2330584 59.2679061,11.4366117 59.4305964,11.591434 C59.5929061,11.7462563 59.8000127,11.8248096 60.0462056,11.8248096 C60.2944289,11.8248096 60.5026777,11.7462563 60.6651142,11.591434 C60.8278046,11.4364848 60.910165,11.2330584 60.910165,10.9867386 L60.910165,9.39321066 L60.520698,9.39321066 L60.520698,10.9699873 Z" id="Fill-54" fill="#ED7700"></path>
                <polygon id="Fill-55" fill="#ED7700" points="61.2496574 9.74916244 61.8990228 9.74916244 61.8990228 11.8047462 62.2887437 11.8047462 62.2887437 9.74916244 62.9381091 9.74916244 62.9381091 9.39319797 61.2496574 9.39319797"></polygon>
                <polygon id="Fill-56" fill="#ED7700" points="64.8531472 9.74916244 64.8531472 9.39319797 63.3138071 9.39319797 63.3138071 11.8047462 64.8531472 11.8047462 64.8531472 11.4489086 63.703401 11.4489086 63.703401 10.7652792 64.6842386 10.7652792 64.6842386 10.4127411 63.703401 10.4127411 63.703401 9.74916244"></polygon>
            </g>
        </g>
    </g>
</svg>