<?xml version="1.0" encoding="UTF-8"?>
<svg width="100px" height="60px" viewBox="0 0 100 60" version="1.1" xmlns="http://www.w3.org/2000/svg" xmlns:xlink="http://www.w3.org/1999/xlink">
    <!-- Generator: Sketch 55.2 (78181) - https://sketchapp.com -->
    <title>logo/kiturami</title>
    <desc>Created with Sketch.</desc>
    <defs>
        <polygon id="path-1" points="0 0.277371429 9.54408533 0.277371429 9.54408533 11.7142266 0 11.7142266"></polygon>
        <polygon id="path-3" points="0.130771429 0.0948857143 4.24542857 0.0948857143 4.24542857 4.20917143 0.130771429 4.20917143"></polygon>
    </defs>
    <g id="logo/kiturami" stroke="none" stroke-width="1" fill="none" fill-rule="evenodd">
        <g transform="translate(19.000000, 21.000000)">
            <g id="Group-3" transform="translate(0.000000, 2.190743)">
                <mask id="mask-2" fill="white">
                    <use xlink:href="#path-1"></use>
                </mask>
                <g id="Clip-2"></g>
                <path d="M2.35597143,3.8248 L2.35597143,2.72994286 L2.35597143,1.46594286 C2.35597143,1.11622857 2.24797143,0.8308 2.02682857,0.609942857 C1.80454286,0.388514286 1.52054286,0.277371429 1.17025714,0.277371429 C0.8214,0.277371429 0.539114286,0.388514286 0.323114286,0.609942857 C0.107114286,0.8308 -2.85714286e-05,1.11622857 -2.85714286e-05,1.46594286 L-2.85714286e-05,10.5093714 C-2.85714286e-05,10.8593714 0.107114286,11.1439429 0.323114286,11.3650857 C0.539114286,11.5865143 0.8214,11.6982286 1.17025714,11.6982286 C1.52054286,11.6982286 1.80454286,11.5865143 2.02682857,11.3650857 C2.24797143,11.1439429 2.35597143,10.8593714 2.35597143,10.5093714 L2.35597143,9.41022857 L2.35597143,8.3148 L2.35597143,8.32022857 C2.35597143,7.20537143 3.21082857,7.20708571 3.21082857,7.20708571 C3.70311429,7.20708571 4.03568571,7.3448 4.5714,7.93537143 L7.60197143,11.4056571 C8.01568571,11.8850857 8.87482857,11.7779429 9.28854286,11.2768 C9.70254286,10.7768 9.55511429,10.0742286 9.09997143,9.59651429 L6.08768571,6.07022857 L9.09311429,3.32022857 C9.61111429,2.8928 9.69511429,2.13965714 9.2814,1.64022857 C8.8694,1.13965714 8.11311429,1.08308571 7.59597143,1.51108571 L4.27854286,4.54137143 C3.97711429,4.81422857 3.5294,4.93137143 3.21082857,4.93251429 C3.21082857,4.93251429 2.35597143,5.01737143 2.35597143,3.8248" id="Fill-1" fill="#007AC2" mask="url(#mask-2)"></path>
            </g>
            <path d="M20.9798571,11.1098571 C21.2021429,10.9358571 21.4907143,10.7638571 21.8181429,10.7638571 C22.4741429,10.7638571 23.0072857,11.295 23.0072857,11.9518571 C23.0072857,12.2995714 22.8547143,12.6087143 22.6181429,12.8258571 C21.9027143,13.5344286 21.0201429,13.891 19.967,13.891 C18.5921429,13.891 17.6132857,13.4475714 16.9241429,12.7587143 C16.2058571,12.0395714 15.8452857,11.1461429 15.8452857,10.0781429 L15.8452857,7.28614286 L15.1192857,7.28614286 C14.7401429,7.28614286 14.4324286,7.17842857 14.1964286,6.96414286 C13.9635714,6.74871429 13.8461429,6.46757143 13.8461429,6.11985714 C13.8461429,5.33014286 14.2712857,4.93642857 15.1192857,4.93642857 L15.8452857,4.93642857 L15.8452857,4.26328571 C15.8452857,3.915 15.9535714,3.631 16.1667143,3.41071429 C16.3838571,3.18957143 16.6644286,3.07985714 17.0141429,3.07985714 C17.3604286,3.07985714 17.6438571,3.18957143 17.8655714,3.41071429 C18.0847143,3.631 18.1952857,3.915 18.1952857,4.26328571 L18.1952857,4.93642857 L21.2467143,4.93642857 C21.5952857,4.93642857 21.8761429,5.04357143 22.0927143,5.25842857 C22.3064286,5.473 22.4144286,5.75442857 22.4144286,6.10157143 C22.4144286,6.89214286 22.0241429,7.28614286 21.2467143,7.28614286 L18.1952857,7.28614286 L18.1952857,10.0781429 C18.1952857,10.4998571 18.3398571,10.837 18.6121429,11.1098571 C18.6121429,11.1098571 19.549,12.117 20.9798571,11.1098571" id="Fill-4" fill="#007AC2"></path>
            <path d="M13.1623429,0.893914286 C13.5663429,1.29848571 13.7689143,1.78105714 13.7689143,2.34305714 C13.7689143,2.90505714 13.5663429,3.3882 13.1623429,3.79448571 C12.7569143,4.19848571 12.2729143,4.39991429 11.7114857,4.39991429 C11.1500571,4.39991429 10.6657714,4.19848571 10.2606286,3.79448571 C9.85605714,3.3882 9.65462857,2.90505714 9.65462857,2.34305714 C9.65462857,1.78105714 9.85605714,1.29848571 10.2606286,0.893914286 C10.6657714,0.4882 11.1500571,0.285628571 11.7114857,0.285628571 C12.2729143,0.285628571 12.7569143,0.4882 13.1623429,0.893914286" id="Fill-6" fill="#F48025"></path>
            <path d="M12.8861143,6.05962857 C12.8861143,5.27391429 12.4926857,4.87991429 11.7024,4.87991429 C11.3564,4.87991429 11.0741143,4.98934286 10.8598286,5.20648571 C10.6449714,5.42334286 10.5375429,5.70762857 10.5375429,6.05962857 L10.5375429,12.7102 C10.5375429,13.0630571 10.6449714,13.3487714 10.8598286,13.5656286 C11.0741143,13.7822 11.3564,13.8916286 11.7024,13.8916286 C12.0512571,13.8916286 12.3358286,13.7822 12.5564,13.5656286 C12.7772571,13.3487714 12.8861143,13.0630571 12.8861143,12.7102 L12.8861143,6.05962857 Z" id="Fill-8" fill="#007AC2"></path>
            <g id="Group-12" transform="translate(59.714286, 0.190743)">
                <mask id="mask-4" fill="white">
                    <use xlink:href="#path-3"></use>
                </mask>
                <g id="Clip-11"></g>
                <path d="M3.63877143,0.703171429 C4.04305714,1.10774286 4.24562857,1.59031429 4.24562857,2.15231429 C4.24562857,2.71431429 4.04305714,3.19745714 3.63877143,3.60374286 C3.23334286,4.00774286 2.74905714,4.20917143 2.18791429,4.20917143 C1.62677143,4.20917143 1.14248571,4.00774286 0.737057143,3.60374286 C0.332485714,3.19745714 0.130771429,2.71431429 0.130771429,2.15231429 C0.130771429,1.59031429 0.332485714,1.10774286 0.737057143,0.703171429 C1.14248571,0.297457143 1.62677143,0.0948857143 2.18791429,0.0948857143 C2.74905714,0.0948857143 3.23334286,0.297457143 3.63877143,0.703171429" id="Fill-10" fill="#F48025" mask="url(#mask-4)"></path>
            </g>
            <path d="M63.0775143,6.05962857 C63.0775143,5.27391429 62.6832286,4.87991429 61.8935143,4.87991429 C61.5475143,4.87991429 61.2643714,4.98934286 61.0500857,5.20648571 C60.8358,5.42334286 60.7275143,5.70762857 60.7275143,6.05962857 L60.7275143,12.7102 C60.7275143,13.0630571 60.8358,13.3487714 61.0500857,13.5656286 C61.2643714,13.7822 61.5475143,13.8916286 61.8935143,13.8916286 C62.2415143,13.8916286 62.5260857,13.7822 62.7466571,13.5656286 C62.9680857,13.3487714 63.0775143,13.0630571 63.0775143,12.7102 L63.0775143,6.05962857 Z" id="Fill-13" fill="#007AC2"></path>
            <path d="M39.7339143,10.6751429 C39.8650571,11.1757143 40.1684857,11.8057143 40.5062,12.1834286 C41.0887714,12.8951429 42.0419143,13.5282857 43.1082,13.6694286 C44.2762,13.8297143 45.1784857,13.5094286 45.3053429,13.4557143 C46.0964857,13.12 46.2996286,12.742 46.3522,12.492 L46.3604857,12.7828571 L46.3627714,12.7757143 C46.3739143,12.904 46.4090571,13.122 46.5127714,13.2928571 C46.5127714,13.2922857 46.5133429,13.2922857 46.5133429,13.2922857 C46.5647714,13.3882857 46.6242,13.4788571 46.7033429,13.5574286 C46.9250571,13.78 47.2170571,13.8917143 47.5796286,13.8917143 C47.9407714,13.8917143 48.2359143,13.78 48.4659143,13.5574286 C48.6936286,13.3354286 48.8084857,13.0422857 48.8084857,12.6808571 L48.8084857,9.40514286 C48.8084857,8.10314286 48.3633429,7.01 47.4710571,6.12428571 C46.5796286,5.23885714 45.4842,4.79628571 44.1847714,4.79571429 C44.1836286,4.79571429 44.1824857,4.79514286 44.1824857,4.79514286 L44.1813429,4.79514286 C42.8776286,4.79514286 41.7844857,5.23828571 40.8984857,6.12428571 C40.1730571,6.85085714 39.7499143,7.71971429 39.6193429,8.726 C39.5847714,8.95142857 39.5236286,9.85885714 39.7339143,10.6751429 M42.5747714,10.9234286 C41.9102,10.3162857 41.9224701,9.39342857 41.9224701,9.39342857 C41.9224701,9.16857143 41.9542,8.95485714 42.0116286,8.75371429 C42.2779143,7.90228571 43.0333429,7.28114286 43.9599143,7.23257143 C43.9973429,7.23085714 44.1424857,7.236 44.1813429,7.236 C44.2222,7.236 44.2633429,7.24 44.3047714,7.24085714 C45.4496286,7.30457143 46.3476286,8.22542857 46.3476286,9.38771429 C46.3476286,9.44514286 46.3567714,9.52885714 46.3522,9.58571429 L46.3522,11.6985714 L46.3522,11.6968571 C46.2896286,11.5271429 46.1456286,11.2048571 45.6879143,11.0785714 C45.5390571,11.038 45.3153429,11.0388571 45.1033429,11.0954286 C44.8639143,11.1717143 44.5736286,11.3231429 44.5736286,11.3231429 C43.7573429,11.6705714 43.0079143,11.3185714 42.5747714,10.9234286" id="Fill-15" fill="#007AC2"></path>
            <path d="M36.4710571,4.938 C35.4153429,4.938 34.5239143,5.28342857 33.7973429,6.01171429 C33.0724857,6.74057143 32.7116286,7.63942857 32.7116286,8.70857143 L32.7116286,12.706 C32.7116286,13.058 32.8167714,13.3431429 33.0330571,13.5614286 C33.2479143,13.7782857 33.5290571,13.8877143 33.8764857,13.8877143 C34.2253429,13.8877143 34.5082,13.7782857 34.7282,13.5614286 C34.9496286,13.3431429 35.0607714,13.058 35.0607714,12.706 L35.0607714,8.70857143 C35.0607714,8.34028571 35.2119143,7.97085714 35.4522,7.69742857 C35.6790571,7.43914286 36.1210571,7.26657143 36.6153429,7.26657143 L38.7924857,7.26657143 C39.4607714,7.26657143 40.0044857,6.75171429 40.0044857,6.106 C40.0044857,5.45914286 39.4607714,4.938 38.7924857,4.938 L36.4710571,4.938 Z" id="Fill-17" fill="#007AC2"></path>
            <path d="M31.8289143,10.5702571 L31.8297714,6.02397143 C31.8297714,5.70197143 31.7209143,5.43197143 31.5046286,5.22082857 C31.2894857,5.00997143 31.0077714,4.90282857 30.6669143,4.90282857 C30.3274857,4.90282857 30.0446286,5.00882857 29.8252,5.21825714 C29.6032,5.42854286 29.4906286,5.70025714 29.4906286,6.02397143 L29.4906286,10.0222571 C29.4906286,11.2188286 28.5012,11.5636857 27.5980571,11.5636857 C26.7929143,11.5636857 25.7049143,11.3045429 25.7049143,10.0222571 L25.7057714,6.02397143 C25.7057714,5.70082857 25.5932,5.43025714 25.3714857,5.21825714 C25.1506286,5.0094 24.8683429,4.90282857 24.5289143,4.90282857 C24.1897714,4.90282857 23.9080571,5.00997143 23.6920571,5.21968571 C23.4760571,5.43025714 23.3672,5.70082857 23.3672,6.02397143 L23.3672,10.5702571 C23.3672,12.2868286 24.9632,13.8865429 27.5869143,13.8865429 C30.0697714,13.8865429 31.8289143,12.2868286 31.8289143,10.5702571" id="Fill-19" fill="#007AC2"></path>
            <path d="M56.6668,4.8582 C55.7119429,4.8582 55.1973714,5.20077143 54.7176571,5.75334286 C54.2379429,5.20077143 53.7233714,4.8582 52.7685143,4.8582 C50.8599429,4.8582 49.7370857,6.37048571 49.7370857,8.05477143 L49.7370857,12.7096286 C49.7370857,13.0619143 49.8425143,13.3470571 50.0585143,13.5653429 C50.2739429,13.7822 50.5542286,13.8916286 50.9030857,13.8916286 C51.2510857,13.8916286 51.5345143,13.7822 51.7539429,13.5653429 C51.9753714,13.3470571 52.0816571,13.0619143 52.0816571,12.7096286 L52.0816571,7.9302 C52.0816571,7.52848571 52.4239429,7.20248571 52.8588,7.20248571 C53.2936571,7.20248571 53.6368,7.52848571 53.6368,7.9302 L53.6368,12.7347714 C53.6368,13.0784857 53.7290857,13.3564857 53.9285143,13.5690571 C54.1276571,13.7810571 54.3868,13.8879143 54.7070857,13.8879143 C55.0290857,13.8879143 55.2902286,13.7810571 55.4928,13.5690571 C55.6973714,13.3564857 55.8002286,13.0784857 55.8002286,12.7347714 L55.7996571,7.90905714 L55.7996571,7.90734286 C55.8125143,7.5162 56.1508,7.20248571 56.5768,7.20248571 C57.0110857,7.20248571 57.3542286,7.52848571 57.3542286,7.9302 L57.3542286,12.7096286 C57.3542286,13.0619143 57.4605143,13.3470571 57.6819429,13.5653429 C57.9010857,13.7822 58.1845143,13.8916286 58.5330857,13.8916286 C58.8810857,13.8916286 59.1613714,13.7822 59.3768,13.5653429 C59.5925143,13.3470571 59.6982286,13.0619143 59.6982286,12.7096286 L59.6982286,8.05477143 C59.6982286,6.37048571 58.5759429,4.8582 56.6668,4.8582" id="Fill-21" fill="#007AC2"></path>
        </g>
    </g>
</svg>