<?xml version="1.0" encoding="utf-8"?>
<!-- Generator: Adobe Illustrator 25.3.1, SVG Export Plug-In . SVG Version: 6.00 Build 0)  -->
<svg version="1.1" id="레이어_1" xmlns="http://www.w3.org/2000/svg" xmlns:xlink="http://www.w3.org/1999/xlink" x="0px"
	 y="0px" viewBox="0 0 100 60" style="enable-background:new 0 0 100 60;" xml:space="preserve">
<style type="text/css">
	.st0{fill:#221E1F;}
	.st1{fill:#6C9BD2;}
	.st2{fill:#6A2C00;}
</style>
<g>
	<g>
		<path class="st0" d="M84.4,27.4v-0.6h6.2v0.6H84.4 M85.1,24.6V24h4.7v0.6h-1.9c0.1,0.7,1.2,1.2,2.2,1.3l-0.4,0.5
			c-0.7,0-1.8-0.4-2.3-0.9c-0.5,0.5-1.6,0.9-2.3,0.9l-0.4-0.5c1-0.1,2.1-0.6,2.2-1.3H85.1 M87.5,30.5c-0.9,0-1.7-0.6-1.7-1.4
			c0-0.8,0.8-1.4,1.7-1.4c0.9,0,1.7,0.6,1.7,1.4C89.1,29.9,88.4,30.5,87.5,30.5 M87.5,28.4c-0.4,0-0.8,0.4-0.8,0.8
			c0,0.4,0.4,0.8,0.8,0.8c0.4,0,0.8-0.3,0.8-0.8C88.3,28.7,87.9,28.4,87.5,28.4z"/>
		<path class="st0" d="M94.8,25.5v-0.7h-2.5v-0.6h3.4v1.1c0,0.3-0.1,0.6-0.1,0.9c0.3,0,0.6,0,0.7-0.1v0.6c-0.2,0.1-0.6,0.2-1.2,0.2
			h-0.8v1.2h-0.9v-1.2h-1.5v-0.6h2.8C94.8,25.9,94.8,25.7,94.8,25.5 M93.6,30.4c-0.1,0-0.2-0.1-0.2-0.2V29c0-0.3,0-0.6-0.1-0.7h1
			v1.4h3.3v0.6H93.6 M97.5,28.6h-0.8v-0.7h-1.4v-0.6h1.4v-2.8c0-0.3,0-0.6-0.1-0.7h1v4C97.6,28.2,97.5,28.4,97.5,28.6z"/>
		<path class="st0" d="M36.5,27.4v-1.1h2.6v-0.7c0-0.2,0-0.6-0.1-0.8h1.7v1.4h2.6v1.1H42c0.4,0.4,0.6,1,0.6,1.5
			c0,1.4-1.2,2.5-2.6,2.5c-1.4,0-2.7-1.1-2.7-2.5c0-0.6,0.2-1.1,0.6-1.5H36.5z M39.1,35.9c-0.2,0-0.4-0.2-0.4-0.4v-2
			c0-0.5-0.1-0.9-0.2-1.1h1.7v2.5h5.6v1.1H39.1z M39.9,27.5c-0.7,0-1.2,0.6-1.2,1.4c0,0.8,0.5,1.4,1.2,1.4c0.7,0,1.2-0.6,1.2-1.4
			C41.1,28.1,40.6,27.5,39.9,27.5z M45.8,29v2.5c0,0.5,0,0.9-0.1,1.3h-1.4v-6.7c0-0.5-0.1-0.9-0.2-1.1h1.7v3h1.5V29H45.8z"/>
		<path class="st0" d="M54.6,28.1v-1.7H49v-1.1h7.2v2.5c0,0.4-0.1,0.9-0.2,1.3h1.6v1.1h-4.4V32H56v2.7c0,0.5,0,0.9-0.1,1.3h-1.4
			v-2.9H49V32h2.7v-1.8h-4.1v-1.1h7C54.6,28.8,54.6,28.4,54.6,28.1z"/>
		<path class="st0" d="M64,32.9v1.6c0,0.5,0,0.9-0.1,1.2h-1.5v-2.8h-4.5v-1.1h10.6v1.1H64z M60.8,29.6h6.4v1.1h-7.5
			c-0.2,0-0.4-0.2-0.4-0.4v-3.6c0-0.5-0.1-1-0.2-1.2h8v1.1h-6.3v0.9h6.2v1h-6.2V29.6z"/>
		<path class="st0" d="M73.6,28.7c0,1.8,1.2,3.8,3,4.4l-0.8,0.9c-1.1-0.4-2.4-1.3-3.1-2.5c-0.7,1.1-1.9,2.1-3.1,2.5L69,33
			c1.7-0.6,3-2.6,3-4.4v-1.4h-2.2v-1.2h6.1v1.2h-2.2V28.7z M78.8,30.2v4.4c0,0.6,0,1-0.1,1.4h-1.5v-9.4c0-0.6-0.1-1-0.2-1.2h1.8V29
			h1.7v1.2H78.8z"/>
	</g>
	<g>
		<path class="st1" d="M17,27.8c0.1,0,0.2,0.1,0.4,0.3c1,1.1,2.1,1.9,3,2.4c0.1,0.1,0.2,0.1,0.2,0.2c0,0.1,0,0.1-0.1,0.1
			c-0.2,0-1.4-0.2-1.7-0.4c-0.3-0.1-1-0.7-1.8-2c-0.1-0.2-0.2-0.3-0.2-0.4C16.8,27.8,16.9,27.8,17,27.8z"/>
		<path class="st2" d="M19.6,23.9c0,0,0.2,0.4-1.7,0.6c0.2-0.6,0.3-1,0.3-1c0.1-0.3-0.1-0.5-0.3-0.5c-0.2,0-0.3,0.1-0.4,0.3
			l-0.6,1.3c-0.7,0-1.3,0-1.5,0c-0.3,0-0.4,0.2-0.4,0.3c0,0.3,0.6,0.7,1,0.6c0.2,0,0.4,0,0.6-0.1l-2.1,4.7c-0.1,0.2-0.1,0.5,0.2,0.5
			c0.4,0,1.2-0.3,1.3-0.7c0.1-0.2,0.5-1.3,0.9-2.6c0.2,0,1.1-0.2,1.3-0.2c0.2,0,0.3,0.1,0.3,0.2c0,0.3-0.7,1.1-1.9,2
			c-0.1,0.1,0,0.2,0,0.2c0.2,0,1.1-0.6,1.5-0.9c0.5-0.4,1.3-1.3,1.3-1.9c0-0.3-0.1-0.5-0.6-0.5c-0.5,0-1.4,0.1-1.6,0.1
			c0.1-0.3,0.2-0.7,0.4-1c1-0.1,1.6-0.2,1.9-0.3c0.5-0.1,0.9-0.4,0.9-0.7C20.3,23.9,19.6,23.9,19.6,23.9z"/>
		<path class="st2" d="M3,26.8H2.4v-0.6H3v-0.8h0.8v0.8h0.8v0.6H3.8v1.4c0,0.3,0.1,0.5,0.4,0.5c0.1,0,0.3,0,0.4-0.1l0,0.6
			c-0.2,0-0.4,0.1-0.6,0.1c-0.6,0-1-0.4-1-1V26.8z"/>
		<path class="st2" d="M5.1,26.3h0.7V27h0c0-0.3,0.4-0.8,0.8-0.8c0.1,0,0.2,0,0.2,0V27C6.9,27,6.7,27,6.6,27c-0.7,0-0.7,0.8-0.7,1.3
			v1.1H5.1V26.3z"/>
		<path class="st2" d="M10.3,29.3H9.5v-0.4h0c-0.2,0.3-0.6,0.5-1,0.5c-0.7,0-1-0.5-1-1.2v-2h0.8v1.6c0,0.4,0,0.9,0.5,0.9
			c0.6,0,0.7-0.6,0.7-1v-1.5h0.8V29.3z"/>
		<path class="st2" d="M13.5,29.2c-0.3,0.2-0.6,0.2-1.1,0.2c-1,0-1.6-0.6-1.6-1.6c0-0.9,0.5-1.6,1.4-1.6c1.1,0,1.5,0.8,1.5,1.9h-2.1
			c0,0.5,0.4,0.8,0.9,0.8c0.4,0,0.7-0.1,1-0.3V29.2 M12.9,27.5c0-0.4-0.2-0.7-0.7-0.7c-0.5,0-0.7,0.3-0.7,0.7H12.9z"/>
		<path class="st2" d="M20,26.3h0.7V27h0c0-0.3,0.4-0.8,0.8-0.8c0.1,0,0.2,0,0.2,0v0.8c-0.1,0-0.2-0.1-0.4-0.1
			c-0.7,0-0.7,0.8-0.7,1.3v1.1H20V26.3z"/>
		<path class="st2" d="M22.3,25h0.8v0.8h-0.8V25 M22.3,26.3h0.8v3.1h-0.8V26.3z"/>
		<path class="st2" d="M26.3,29.2c-0.3,0.2-0.6,0.2-1.1,0.2c-1,0-1.6-0.6-1.6-1.6c0-0.9,0.5-1.6,1.4-1.6c1.1,0,1.5,0.8,1.5,1.9h-2.1
			c0,0.5,0.4,0.8,0.9,0.8c0.4,0,0.7-0.1,1-0.3V29.2 M25.7,27.5c0-0.4-0.2-0.7-0.7-0.7c-0.5,0-0.7,0.3-0.7,0.7H25.7z"/>
		<path class="st2" d="M27,26.3h0.8v0.4h0c0.3-0.4,0.6-0.5,1-0.5c0.7,0,1.1,0.5,1.1,1.2v1.9H29v-1.7c0-0.4,0-0.9-0.5-0.9
			c-0.6,0-0.7,0.6-0.7,1v1.5H27V26.3z"/>
		<path class="st2" d="M32.6,29L32.6,29c-0.3,0.3-0.6,0.4-1,0.4c-0.9,0-1.3-0.8-1.3-1.6c0-0.9,0.3-1.6,1.3-1.6
			c0.4,0,0.7,0.1,0.9,0.4h0v-1.8h0.8v4.5h-0.8V29 M31.8,28.8c0.5,0,0.7-0.6,0.7-1c0-0.4-0.2-1-0.7-1c-0.5,0-0.7,0.6-0.7,1
			C31.1,28.3,31.3,28.8,31.8,28.8z"/>
	</g>
</g>
</svg>
