<?xml version="1.0" encoding="UTF-8"?>
<svg width="100px" height="60px" viewBox="0 0 100 60" version="1.1" xmlns="http://www.w3.org/2000/svg" xmlns:xlink="http://www.w3.org/1999/xlink">
    <!-- Generator: Sketch 52.4 (67378) - http://www.bohemiancoding.com/sketch -->
    <title>logo/koreanair</title>
    <desc>Created with Sketch.</desc>
    <g id="logo/koreanair" stroke="none" stroke-width="1" fill="none" fill-rule="evenodd">
        <g id="로고" transform="translate(17.000000, 26.000000)">
            <path d="M30.88368,4.078864 C30.88368,4.078864 31.31568,3.069264 31.50288,2.779664 C31.50288,2.779664 32.02448,3.498064 32.21168,4.090064 C32.21168,4.090064 31.61808,4.184464 30.88368,4.078864 Z M18.58928,3.312464 L18.58928,2.173264 C18.58928,2.173264 18.60208,1.325264 19.27408,1.325264 C19.94928,1.325264 19.86448,2.147664 19.87088,2.254864 C19.87728,2.360464 19.83408,3.312464 18.58928,3.312464 Z M20.69328,0.464464 L20.85488,0.464464 C22.36848,0.512464 22.40208,1.662864 22.40208,1.662864 C22.58928,3.173264 20.57808,3.510864 20.57808,3.510864 C22.03088,3.555664 22.36848,4.637264 22.36848,4.637264 C22.36848,4.637264 22.38928,4.661264 22.80848,5.485264 C23.22768,6.310864 23.47088,6.206864 23.47088,6.206864 C24.04048,6.206864 23.92368,4.600464 23.92368,4.600464 L23.92368,2.579664 C23.92368,1.371664 23.24048,1.058064 23.24048,1.058064 C23.04368,0.894864 23.14608,0.720464 23.14608,0.720464 C23.19248,0.464464 23.43728,0.522064 23.43728,0.522064 C25.76208,0.709264 28.23728,0.418064 28.63088,0.382864 C29.02768,0.347664 29.06128,0.733264 29.06128,0.733264 C29.25808,1.638864 29.29328,1.766864 29.41168,2.126864 C29.52688,2.486864 29.29328,2.522064 29.29328,2.522064 C28.98928,2.720464 28.87408,2.429264 28.87408,2.429264 C28.74608,2.254864 28.71248,2.056464 28.11728,1.579664 C27.52688,1.104464 26.51568,1.347664 26.43408,1.358864 C26.35248,1.371664 26.36528,1.488464 26.36528,1.488464 L26.36528,3.229264 L26.91248,3.229264 C27.57488,3.229264 27.86448,2.870864 28.00528,2.720464 C28.14288,2.568464 28.33008,2.661264 28.33008,2.661264 C28.56208,2.709264 28.53648,2.915664 28.53648,2.915664 C28.48048,3.613264 28.50288,4.403664 28.52688,4.694864 C28.54928,4.984464 28.25808,5.021264 28.25808,5.021264 C28.00528,5.138064 27.93328,4.834064 27.93328,4.834064 C27.57488,3.859664 26.81808,4.019664 26.81808,4.019664 L26.35248,4.019664 L26.35248,5.891664 C26.35248,6.147664 26.53968,6.125264 26.53968,6.125264 L27.24688,6.125264 C29.05008,6.125264 29.67728,4.661264 30.16528,3.778064 C30.65168,2.893264 30.92048,2.034064 30.92048,2.034064 C30.85168,1.906064 30.63088,1.802064 30.37488,1.709264 C30.11728,1.614864 30.15248,1.440464 30.15248,1.440464 C30.08368,1.208464 30.31728,1.139664 30.31728,1.139664 C31.19888,0.882064 32.05008,0.406864 32.31568,0.254864 C32.58128,0.104464 32.84048,0.093264 32.84048,0.093264 C33.26768,0.093264 33.47728,0.766864 33.47728,0.766864 C34.47728,3.184464 35.09328,4.427664 35.56848,5.299664 C36.04688,6.171664 36.24368,6.042064 36.24368,6.042064 C36.58128,6.206864 36.52048,4.939664 36.52048,4.939664 C36.52048,4.939664 36.53328,1.846864 36.53328,1.694864 C36.53328,1.546064 35.83728,1.104464 35.83728,1.104464 C35.62768,1.000464 35.69648,0.755664 35.69648,0.755664 C35.73008,0.477264 35.97808,0.512464 35.97808,0.512464 C36.85008,0.594064 38.04688,0.533264 38.54288,0.499664 C39.04688,0.464464 39.18288,0.872464 39.18288,0.872464 C40.03408,2.370064 41.35888,4.323664 41.35888,4.323664 C41.35888,4.323664 41.34608,3.080464 41.30928,2.184464 C41.27408,1.290064 40.70608,1.080464 40.54288,1.011664 C40.38128,0.941264 40.43728,0.733264 40.43728,0.733264 C40.46128,0.499664 40.67088,0.499664 40.67088,0.499664 C41.63728,0.579664 42.54288,0.499664 42.70608,0.477264 C42.86768,0.453264 42.86768,0.568464 42.86768,0.568464 L42.93648,0.709264 C43.04368,0.986064 42.80848,1.011664 42.80848,1.011664 C42.17168,1.208464 42.14608,1.906064 42.14608,1.906064 C42.09968,3.034064 42.13648,4.138064 42.14608,4.915664 C42.15888,5.694864 42.70608,5.566864 42.70608,5.566864 C42.94928,5.589264 42.96208,5.670864 42.96208,5.670864 L43.03088,5.811664 C43.12368,6.030864 42.94928,6.112464 42.94928,6.112464 C42.49648,6.426064 41.70608,6.867664 40.97488,7.251664 C40.24368,7.634064 39.87088,6.914064 39.87088,6.914064 C39.87088,6.914064 39.47408,6.346064 38.73008,5.008464 C37.98608,3.672464 37.35888,2.779664 37.35888,2.779664 C37.35888,2.779664 37.34928,3.707664 37.34928,5.021264 C37.34928,6.334864 38.17488,6.520464 38.17488,6.520464 C38.39248,6.622864 38.26448,6.845264 38.26448,6.845264 C38.19568,7.125264 37.98608,7.042064 37.98608,7.042064 C34.85008,6.845264 32.76848,7.042064 32.53648,7.067664 C32.30288,7.088464 32.26768,6.856464 32.26768,6.856464 C32.17808,6.613264 32.37488,6.531664 32.37488,6.531664 C32.37488,6.531664 32.85008,6.403664 32.85008,5.858064 C32.85008,5.310864 32.58128,4.858064 32.58128,4.858064 C31.86128,4.845264 30.53648,4.880464 30.53648,4.880464 C30.38608,5.147664 29.75568,6.834064 29.75568,6.834064 C29.60528,7.216464 29.21168,7.158864 29.21168,7.158864 C25.58608,6.834064 22.16848,7.078864 21.43728,7.147664 C20.70608,7.216464 20.50608,6.798864 20.40208,6.602064 C20.29968,6.403664 19.62448,4.776464 19.62448,4.776464 C19.27408,3.986064 18.75248,4.032464 18.75248,4.032464 L18.60208,4.032464 C18.60208,4.032464 18.56848,4.054864 18.60208,5.090064 C18.63728,6.125264 19.04368,6.370064 19.28688,6.531664 C19.53008,6.691664 19.36848,6.856464 19.36848,6.856464 C19.36848,6.856464 19.35568,6.867664 19.30928,6.973264 C19.26128,7.078864 19.10288,7.067664 19.10288,7.067664 C17.21808,6.939664 15.84688,7.042064 15.60208,7.078864 C15.36208,7.110864 15.34608,6.891664 15.34608,6.891664 C15.25488,6.648464 15.43088,6.589264 15.43088,6.589264 C16.27728,6.125264 16.17168,4.893264 16.17168,4.893264 L16.17168,2.648464 C16.17168,1.488464 15.63728,1.173264 15.45168,1.046864 C15.26768,0.917264 15.38288,0.733264 15.38288,0.733264 C15.44048,0.488464 15.65008,0.546064 15.65008,0.546064 C17.41488,0.709264 20.69328,0.464464 20.69328,0.464464 Z M53.4712,4.560464 L53.4712,2.550864 C53.4712,1.470864 52.9592,1.122064 52.7624,0.970064 C52.5656,0.818064 52.6808,0.634064 52.6808,0.634064 C52.724,0.437264 52.9592,0.446864 52.9592,0.446864 C53.9928,0.574864 56.1896,0.458064 56.3992,0.437264 C56.6088,0.411664 56.6552,0.634064 56.6552,0.634064 C56.7496,0.866064 56.5736,0.946064 56.5736,0.946064 C55.9112,1.274064 55.9592,2.317264 55.9592,2.317264 C55.9592,2.317264 55.9464,4.189264 55.9928,5.178064 C56.0392,6.163664 56.6552,6.445264 56.6552,6.445264 C56.8776,6.582864 56.7496,6.826064 56.7496,6.826064 C56.6904,7.026064 56.4712,7.011664 56.4712,7.011664 C53.3304,6.816464 49.4744,6.979664 49.2392,7.002064 C49.0088,7.026064 48.9736,6.792464 48.9736,6.792464 C48.8808,6.549264 49.0776,6.467664 49.0776,6.467664 C49.0776,6.467664 49.5528,6.339664 49.5528,5.792464 C49.5528,5.245264 49.2872,4.794064 49.2872,4.794064 C48.5656,4.782864 47.2392,4.814864 47.2392,4.814864 C46.5336,6.245264 47.0344,6.373264 47.0344,6.373264 L47.1592,6.539664 C47.1592,6.539664 47.2648,6.629264 47.1832,6.781264 C47.1832,6.781264 47.228,7.026064 46.9272,7.002064 C46.6248,6.979664 46.2184,6.864464 44.884,7.002064 C44.884,7.002064 44.7304,7.082064 44.6488,6.781264 C44.5768,6.514064 44.7992,6.467664 44.7992,6.467664 C45.9528,5.885264 46.38,4.595664 46.868,3.714064 C47.3592,2.830864 47.6248,1.970064 47.6248,1.970064 C47.556,1.842064 47.3336,1.736464 47.0776,1.645264 C46.8216,1.550864 46.8584,1.376464 46.8584,1.376464 C46.7864,1.146064 47.0216,1.075664 47.0216,1.075664 C47.9032,0.818064 48.7528,0.342864 49.0184,0.190864 C49.2872,0.040464 49.5432,0.027664 49.5432,0.027664 C49.9736,0.027664 50.18,0.704464 50.18,0.704464 C51.18,3.120464 51.796,4.362064 52.2712,5.235664 C52.7496,6.106064 52.9464,5.979664 52.9464,5.979664 C53.5144,6.083664 53.4712,4.560464 53.4712,4.560464 Z M48.2056,2.678864 C48.2056,2.678864 47.8344,3.330064 47.5896,3.979664 C47.5896,3.979664 48.4152,4.072464 48.9144,3.992464 C48.9144,3.992464 48.8344,3.573264 48.2056,2.678864 Z M62.72112,0.354864 L63.00272,0.354864 C63.00272,0.354864 64.62672,0.378864 64.62672,1.748464 C64.62672,3.119664 62.80272,3.433264 62.80272,3.433264 C64.12752,3.446064 64.53392,4.457264 64.53392,4.457264 C64.53392,4.457264 64.83632,5.038064 65.03312,5.433264 C65.22992,5.828464 65.43952,6.095664 65.72112,6.153264 C65.99952,6.210864 65.95312,6.407664 65.95312,6.407664 C66.02192,6.663664 65.79952,6.711664 65.79952,6.711664 C64.82672,7.164464 63.83632,7.223664 63.83632,7.223664 C63.23312,7.292464 63.06832,7.142064 63.06832,7.142064 C62.67472,6.919664 62.42992,6.236464 62.42992,6.236464 C62.42992,6.236464 62.17392,5.607664 61.80272,4.746864 C61.42992,3.886064 60.88432,3.956464 60.88432,3.956464 L60.72112,3.956464 C60.72112,3.956464 60.71152,4.538864 60.75792,5.271664 C60.80272,6.001264 61.22032,6.305264 61.45552,6.478064 C61.68752,6.652464 61.53712,6.817264 61.53712,6.817264 C61.47792,7.058864 61.29232,6.991664 61.29232,6.991664 C59.64272,6.850864 57.73712,6.980464 57.73712,6.980464 C57.53712,7.058864 57.46832,6.826864 57.46832,6.826864 C57.35312,6.526064 57.56112,6.478064 57.56112,6.478064 C58.37392,6.129264 58.28112,4.700464 58.28112,4.700464 C58.30512,3.212464 58.28112,3.526064 58.24592,2.434864 C58.21232,1.342064 57.68912,1.028464 57.56112,0.946864 C57.43312,0.865264 57.45552,0.657264 57.45552,0.657264 C57.48912,0.343664 57.79632,0.423664 57.79632,0.423664 C60.16432,0.657264 62.72112,0.354864 62.72112,0.354864 Z M60.72112,3.247664 C61.90832,3.247664 61.96752,2.447664 62.00272,2.214064 C62.03632,1.980464 62.02352,1.260464 61.38352,1.260464 C60.74672,1.260464 60.72112,2.110064 60.72112,2.110064 L60.72112,3.247664 Z M8.49616,6.332784 L8.45616,6.355184 C8.07056,6.683184 7.15216,7.180784 7.15216,7.180784 C5.89936,7.844784 5.30576,6.774384 5.30576,6.774384 C3.63376,4.300784 3.31856,4.172784 3.31856,4.172784 C3.31856,4.172784 3.31856,4.625584 3.32976,5.345584 C3.34256,6.067184 3.80496,6.438384 3.98096,6.566384 C4.15536,6.692784 4.06256,6.855984 4.06256,6.855984 L3.98096,7.020784 C3.92496,7.148784 3.79536,7.100784 3.79536,7.100784 C1.98416,6.961584 0.55216,7.100784 0.35536,7.124784 C0.15856,7.148784 0.09936,7.031984 0.09936,7.031984 L0.01776,6.881584 C-0.05104,6.705584 0.09936,6.588784 0.09936,6.588784 C0.66736,6.089584 0.72816,5.684784 0.80816,4.974384 C0.88976,4.265584 0.83056,2.439984 0.83056,2.439984 C0.80816,1.476784 0.27376,1.161584 0.14576,1.070384 C0.01776,0.975984 0.09936,0.766384 0.09936,0.766384 L0.14576,0.675184 C0.20496,0.558384 0.35536,0.567984 0.35536,0.567984 C2.64336,0.675184 3.79536,0.545584 3.79536,0.545584 C3.99376,0.521584 4.02736,0.708784 4.02736,0.708784 L4.07376,0.825584 C4.13296,0.975984 3.97136,1.046384 3.97136,1.046384 C3.30576,1.476784 3.34256,2.393584 3.34256,2.393584 L3.32976,3.486384 C3.59856,3.347184 3.99376,3.044784 4.63376,2.580784 C5.27056,2.115184 5.17776,1.823984 5.17776,1.823984 C5.17776,1.428784 4.76176,1.139184 4.64336,1.023984 C4.52816,0.905584 4.64336,0.708784 4.64336,0.708784 C4.71536,0.558384 4.89936,0.558384 4.89936,0.558384 C6.10896,0.675184 7.31536,0.580784 7.57456,0.545584 C7.82736,0.511984 7.84016,0.675184 7.84016,0.675184 L7.88656,0.825584 C7.95536,1.079984 7.66416,1.172784 7.66416,1.172784 C6.56176,1.662384 5.43696,2.870384 5.43696,2.870384 C5.43696,2.870384 7.21136,5.020784 7.51536,5.369584 C7.81776,5.716784 7.96816,5.601584 7.96816,5.601584 L7.99856,5.579184 C7.73936,5.060784 7.59696,4.475184 7.59696,3.855984 C7.59696,2.958384 7.90256,2.132784 8.41456,1.476784 L8.41136,1.483184 C8.11856,1.881584 7.91216,2.347184 7.82096,2.854384 L7.81776,2.879984 C7.78416,3.057584 7.76496,3.239984 7.76496,3.431984 C7.76496,4.721584 8.61776,5.814384 9.79376,6.172784 L9.79376,6.175984 C9.93616,6.223984 10.09296,6.247984 10.25296,6.247984 C10.51856,6.247984 10.76496,6.179184 10.98096,6.060784 L10.98416,6.059184 C11.25936,5.907184 11.44656,5.614384 11.44656,5.279984 L11.44336,4.548784 C11.44336,3.609584 12.20176,2.849584 13.14256,2.849584 C13.83056,2.849584 14.42416,3.255984 14.68976,3.843184 L14.69616,3.859184 C14.79856,4.143984 14.85936,4.455984 14.85936,4.777584 C14.85936,5.561584 14.52176,6.263984 13.99056,6.755184 L13.98096,6.761584 C13.30576,7.351984 12.41776,7.708784 11.44976,7.708784 C10.26256,7.708784 9.20176,7.172784 8.49616,6.332784 Z" id="Combined-Shape" fill="#00529B"></path>
            <path d="M13.1024,1.532784 C14.2736,1.894384 15.128,2.987184 15.128,4.278384 C15.128,4.467184 15.1088,4.649584 15.0736,4.828784 L15.0704,4.854384 C14.9808,5.361584 14.7776,5.828784 14.48,6.227184 L14.4768,6.233584 C14.9936,5.575984 15.2992,4.751984 15.2992,3.852784 C15.2992,1.724784 13.5744,-1.6e-05 11.4464,-1.6e-05 C10.4736,-1.6e-05 9.5904,0.356784 8.912,0.948784 L8.9056,0.955184 C8.368,1.444784 8.0336,2.148784 8.0336,2.929584 C8.0336,3.254384 8.0928,3.564784 8.2,3.851184 L8.2016,3.865584 C8.4704,4.452784 9.0624,4.862384 9.752,4.862384 C10.6896,4.862384 11.4496,4.099184 11.4496,3.161584 L11.4464,2.428784 C11.4464,2.094384 11.6336,1.799984 11.9088,1.651184 L11.9152,1.647984 C12.128,1.529584 12.3744,1.462384 12.6432,1.462384 C12.8032,1.462384 12.9552,1.486384 13.0992,1.532784 L13.1024,1.532784 Z" id="Fill-7" fill="#EC1C2D"></path>
        </g>
    </g>
</svg>