<?xml version="1.0" encoding="UTF-8"?>
<svg width="100px" height="60px" viewBox="0 0 100 60" version="1.1" xmlns="http://www.w3.org/2000/svg" xmlns:xlink="http://www.w3.org/1999/xlink">
    <!-- Generator: Sketch 55.2 (78181) - https://sketchapp.com -->
    <title>logo/kpx</title>
    <desc>Created with Sketch.</desc>
    <g id="logo/kpx" stroke="none" stroke-width="1" fill="none" fill-rule="evenodd">
        <g transform="translate(23.000000, 20.000000)">
            <path d="M12.81536,10.36928 C13.38736,9.69728 13.82656,8.91928 13.91836,8.08128 C14.06616,6.74068 13.56836,5.49228 12.67256,4.77208 C12.66556,4.76608 12.65596,4.75828 12.64936,4.75768 C12.64116,4.75688 12.63776,4.76668 12.63416,4.77288 C12.01016,6.01988 10.93976,7.31608 9.52236,8.42208 C9.00736,8.82368 8.47896,9.17428 7.94956,9.47288 C5.27316,10.98528 2.57296,11.16248 1.45976,9.73608 C0.12636,8.02648 1.66696,4.52048 4.69156,2.22888 C6.21436,1.07428 7.85996,0.39468 9.26316,0.12488 C9.43856,0.09088 9.41616,0.03968 9.41616,0.03968 C9.40296,-0.00832 9.24416,0.00068 9.24416,0.00068 C7.68036,0.09588 5.77696,0.82188 4.17156,1.86768 C0.22576,4.43768 -1.08244,8.83908 0.94456,11.63028 C2.92356,14.35668 7.50776,14.44588 11.24276,11.78848 C11.77856,11.40628 12.34276,10.92448 12.81536,10.36928" id="Fill-1" fill="#007DC2"></path>
            <path d="M16.13354,2.72602 C13.76274,-0.12378 9.08054,1.04322 6.46194,2.89502 C5.27334,3.73502 4.19514,4.85362 3.83594,6.30142 C3.78394,6.50822 3.76134,6.72902 3.75983584,6.94502 C3.75574,7.43802 3.87854,7.93422 4.13054,8.35482 C4.14874,8.38482 4.16494,8.41382 4.18554,8.44182 C4.19774,8.45482 4.20454,8.43682 4.20874,8.42542 C4.21754,8.40262 4.22534,8.38002 4.23354,8.35782 C4.63554,7.25382 5.31154,6.13982 6.23394,5.13422 C6.37114,4.98342 6.51294,4.83562 6.66074,4.69042 C9.57314,1.85162 13.46554,1.17222 15.35534,3.17422 C17.24714,5.17622 16.41814,9.10042 13.50534,11.94042 C12.01294,13.39442 10.26354,14.28162 8.65714,14.53102 C8.65714,14.53102 8.55014,14.54862 8.42574,14.56982 C8.42574,14.56982 8.25014,14.59622 8.25654,14.66502 C8.25654,14.66502 8.23874,14.75702 8.65714,14.71342 C10.32454,14.53862 12.10194,13.78522 13.66674,12.49002 C17.08634,9.66142 18.23534,5.25362 16.13354,2.72602" id="Fill-3" fill="#00B159"></path>
            <polygon id="Fill-5" fill="#807E82" points="35.71292 14.73744 35.71292 16.38444 37.65152 16.38444 37.65152 14.73744 38.10672 14.73744 38.10672 18.62024 37.65152 18.62024 37.65152 16.77464 35.71292 16.77464 35.71292 18.62024 35.25752 18.62024 35.25752 14.73744"></polygon>
            <path d="M40.77718,17.1765 C40.77718,16.4435 40.48498,16.0351 39.94198,16.0351 C39.40258,16.0351 39.11018,16.4435 39.11018,17.1765 C39.11018,17.7467 39.30798,18.3233 39.94658,18.3233 C40.58018,18.3233 40.77718,17.7467 40.77718,17.1765 M38.69018,17.1765 C38.69018,16.5823 38.94278,15.6747 39.94658,15.6747 C40.94598,15.6747 41.19758,16.5823 41.19758,17.1765 C41.19758,17.7707 40.94598,18.6843 39.94658,18.6843 C38.94278,18.6843 38.69018,17.7707 38.69018,17.1765" id="Fill-7" fill="#807E82"></path>
            <polygon id="Fill-9" fill="#807E82" points="41.7464 18.6202 42.1664 18.6202 42.1664 14.7374 41.7464 14.7374"></polygon>
            <path d="M44.7137,16.11752 C44.5649,16.06452 44.4121,16.03512 44.2627,16.03512 C43.4375,16.03512 43.1607,16.67572 43.1607,17.28752 C43.1607,17.89252 43.4419,18.32332 43.9367,18.32332 C44.3619,18.32332 44.7137,17.95612 44.7137,17.07152 L44.7137,16.11752 Z M44.7137,18.06732 L44.7045,18.05552 C44.5549,18.46292 44.2591,18.68452 43.8227,18.68452 C43.2001,18.68452 42.7395,18.13152 42.7395,17.26952 C42.7395,16.30412 43.2891,15.67492 44.1743,15.67492 C44.3571,15.67492 44.5353,15.71572 44.7137,15.73292 L44.7137,14.73752 L45.1343,14.73752 L45.1343,18.62032 L44.7137,18.62032 L44.7137,18.06732 Z" id="Fill-11" fill="#807E82"></path>
            <path d="M45.8597367,18.6202 L46.3208527,18.6202 L46.3208527,15.738 L45.8597367,15.738 L45.8597367,18.6202 Z M45.8158,15.1278 L46.3158,15.1278 L46.3158,14.7374 L45.8158,14.7374 L45.8158,15.1278 Z" id="Fill-12" fill="#807E82"></path>
            <path d="M47.34398,16.27474 L47.35438,16.28614 C47.52238,15.83674 47.88898,15.67474 48.30438,15.67474 C48.81818,15.67474 49.27338,15.88454 49.27338,16.62994 L49.27338,18.62034 L48.85278,18.62034 L48.85278,16.75234 C48.85278,16.26834 48.58098,16.06454 48.19578,16.06454 C47.66598,16.06454 47.34398,16.42014 47.34398,17.32834 L47.34398,18.62034 L46.92378,18.62034 L46.92378,15.73794 L47.34398,15.73794 L47.34398,16.27474 Z" id="Fill-13" fill="#807E82"></path>
            <path d="M51.82562,16.10618 C51.66602,16.06478 51.49842,16.03518 51.32102,16.03518 C50.49402,16.03518 50.21782,16.67578 50.21782,17.28738 C50.21782,17.89258 50.49942,18.32318 50.99502,18.32318 C51.40482,18.31878 51.82562,18.02098 51.82562,17.12918 L51.82562,16.10618 Z M52.24562,18.85338 C52.24562,19.42378 52.06162,19.99998 51.10762,19.99998 C50.77702,19.99998 50.45022,19.95258 50.12362,19.85978 L50.08962,19.43518 C50.39582,19.55198 50.70722,19.63898 51.03382,19.63898 C51.46902,19.63898 51.82562,19.51618 51.82562,18.78318 L51.82562,18.05558 L51.81582,18.04438 C51.66222,18.45158 51.31162,18.68438 50.88002,18.68438 C50.25742,18.68438 49.79682,18.13158 49.79682,17.26918 C49.79682,16.30398 50.34662,15.67498 51.23182,15.67498 C51.64242,15.67498 51.94982,15.72718 52.24562,15.79078 L52.24562,18.85338 Z" id="Fill-14" fill="#807E82"></path>
            <path d="M54.33832,16.16928 C54.16472,16.08808 53.98172,16.03508 53.79872,16.03508 C53.60052,16.03508 53.31412,16.09348 53.31412,16.38428 C53.31412,16.87428 54.37752,17.20568 54.37752,17.96868 C54.37752,18.49168 53.93232,18.68448 53.54612,18.68448 C53.30332,18.68448 53.06112,18.63748 52.83552,18.56708 L52.78032,18.13648 C53.00192,18.24208 53.23492,18.32348 53.47752,18.32348 C53.68552,18.32348 53.95672,18.24208 53.95672,17.93948 C53.95672,17.43288 52.89352,17.09548 52.89352,16.36748 C52.89352,15.90728 53.20452,15.67488 53.70472,15.67488 C53.90232,15.67488 54.10052,15.70948 54.28412,15.75068 L54.33832,16.16928 Z" id="Fill-15" fill="#807E82"></path>
            <path d="M24.16772,12.07864 L22.40432,12.07864 C22.14672,12.07864 21.93692,11.85844 21.93692,11.58784 L21.93692,1.94344 C21.93692,1.67244 22.14672,1.45264 22.40432,1.45264 L24.16772,1.45264 L24.16772,12.07864 Z" id="Fill-16" fill="#807E82"></path>
            <path d="M39.90784,4.45336 C39.90784,3.11896 39.27204,1.45236 37.02264,1.45236 L32.56744,1.45276 C32.30964,1.45276 32.10064,1.67236 32.10064,1.94336 L32.10064,11.58776 C32.10064,11.85856 32.30964,12.07856 32.56744,12.07856 L34.22364,12.07856 L34.22364,2.84176 L36.20944,2.84176 C37.05364,2.84176 37.81724,3.08016 37.81724,4.22376 C37.81724,5.31576 37.28204,6.17896 35.71924,6.17896 C35.37644,6.17896 35.02684,6.12836 34.73004,6.09636 L35.22684,7.20256 C35.37704,7.51676 35.70184,7.55376 35.70184,7.55376 C35.94704,7.57876 36.34984,7.56656 36.34984,7.56656 C39.98304,7.44956 39.90784,4.45336 39.90784,4.45336" id="Fill-17" fill="#807E82"></path>
            <path d="M28.92874,12.07532 L31.07374,12.07532 L26.58714,6.41752 L30.48254,1.45252 L28.48474,1.45252 L28.48014,1.45272 C27.99254,1.46052 27.51354,2.05672 27.38654,2.21872 L24.66994,5.93752 C24.42914,6.28752 24.43714,6.63132 24.66994,6.96332 C24.76454,7.09732 26.78294,9.87152 27.80614,11.27692 C27.83954,11.32212 28.39394,12.06332 28.92874,12.07532" id="Fill-18" fill="#807E82"></path>
            <path d="M47.60766,12.07728 L47.60766,12.07888 L49.48586,12.07888 L46.03826,6.61128 L49.39186,1.45248 L47.67866,1.45248 L47.67866,1.45268 C47.02146,1.45268 46.58486,2.21568 46.58486,2.21568 L46.58286,2.21648 L44.91366,5.06788 L43.25706,2.21568 L43.25566,2.21568 C43.25566,2.21568 42.81926,1.45268 42.16166,1.45268 L42.16166,1.45248 L42.15706,1.45248 L40.28046,1.45248 L43.49026,6.48708 L39.74786,12.07888 L41.53946,12.07888 L41.53946,12.07728 C42.19686,12.07728 42.63346,11.31408 42.63346,11.31408 L42.63386,11.31408 L44.60086,7.99268 L46.51186,11.31408 L46.51306,11.31408 C46.51306,11.31408 46.94986,12.07728 47.60766,12.07728" id="Fill-19" fill="#807E82"></path>
        </g>
    </g>
</svg>