<?xml version="1.0" encoding="UTF-8"?>
<svg width="100px" height="60px" viewBox="0 0 100 60" version="1.1" xmlns="http://www.w3.org/2000/svg" xmlns:xlink="http://www.w3.org/1999/xlink">
    <!-- Generator: Sketch 55.2 (78181) - https://sketchapp.com -->
    <title>logo/krivet</title>
    <desc>Created with Sketch.</desc>
    <g id="logo/krivet" stroke="none" stroke-width="1" fill="none" fill-rule="evenodd">
        <g transform="translate(23.000000, 14.000000)">
            <path d="M31.7984559,12.4899839 C35.3134338,7.9092837 36.1272768,2.63346881 33.6154378,0.706515084 C31.1041139,-1.22069618 26.2187376,0.930321925 22.7037597,5.51102213 C19.1887819,10.0919799 18.3754539,15.3677948 20.8867778,17.2944909 C23.3981018,19.2219598 28.2837356,17.0704266 31.7984559,12.4899839" id="Fill-25" fill="#F19100"></path>
            <path d="M10.376499,8.30956942 L10.3602736,8.30956942 L10.3602736,5.71428571 L9.14285714,5.71428571 L9.14285714,11.7781891 L10.3602736,11.7781891 L10.3602736,8.67039034 L10.376499,8.67039034 L11.7711066,11.7781891 L13.1417626,11.7781891 L11.5130463,8.43525151 L13.1417626,5.71428571 L11.8032998,5.71428571 L10.376499,8.30956942 Z M17.1646197,6.6465996 L17.7046922,6.6465996 C18.0917827,6.6465996 18.3256338,6.86499799 18.3256338,7.44447485 C18.3256338,7.83079276 18.1883622,8.33480885 17.7046922,8.33480885 L17.1646197,8.33480885 L17.1646197,6.6465996 Z M17.1646197,9.26712274 L17.4790825,9.26712274 C18.4144869,9.26712274 18.3501006,9.88008048 18.3501006,10.6022374 C18.3501006,10.9970543 18.3176499,11.4083541 18.4788732,11.7781891 L19.672338,11.7781891 C19.5590181,11.5260523 19.5350664,10.3840966 19.5350664,9.99777867 C19.5350664,8.90552918 18.7449175,8.8385674 18.4788732,8.80508652 L18.4788732,8.78808853 C19.2687646,8.65390744 19.5590181,8.07443058 19.5590181,7.30179477 C19.5590181,6.26852314 19.0271871,5.71428571 18.1966036,5.71428571 L15.9472032,5.71428571 L15.9472032,11.7781891 L17.1646197,11.7781891 L17.1646197,9.26712274 Z M23.742326,11.7781891 L24.96,11.7781891 L24.96,5.71428571 L23.742326,5.71428571 L23.742326,11.7781891 Z M29.2246922,11.7781891 L30.6517505,11.7781891 L32.1913561,5.71428571 L30.990165,5.71428571 L29.9744064,10.1237183 L29.9581811,10.1237183 L29.0549698,5.71428571 L27.7891348,5.71428571 L29.2246922,11.7781891 Z M38.2539718,11.7781891 L38.2539718,10.8458753 L36.2306962,10.8458753 L36.2306962,9.07396378 L38.0363461,9.07396378 L38.0363461,8.1416499 L36.2306962,8.1416499 L36.2306962,6.6465996 L38.1895855,6.6465996 L38.1895855,5.71428571 L35.0130221,5.71428571 L35.0130221,11.7781891 L38.2539718,11.7781891 Z M40.8580121,5.71428571 L40.8580121,6.72231791 L42.2124427,6.72231791 L42.2124427,11.7781891 L43.4301167,11.7781891 L43.4301167,6.72231791 L44.7845473,6.72231791 L44.7845473,5.71428571 L40.8580121,5.71428571 Z" id="Fill-26" fill="#231916"></path>
            <path d="M45.9089127,23.1327163 L45.9089127,26.3123702 L45.5341843,26.3123702 L42.8706511,26.3123702 L42.8706511,23.1327163 L43.9273594,23.1327163 L43.9273594,23.7915171 L44.8522044,23.7915171 L44.8522044,23.1327163 L45.9089127,23.1327163 Z M43.9271018,25.3965392 L44.8522044,25.3965392 L44.8522044,24.7230584 L43.9271018,24.7230584 L43.9271018,25.3965392 Z M46.7992467,29.9554254 L44.7092668,29.9510471 L44.7092668,30.2343469 L46.8031099,30.2343469 L46.8031099,31.0420089 L43.6404539,31.0420089 L43.6404539,29.1418398 L45.76546,29.1418398 L45.76546,28.8593127 L43.6404539,28.8593127 L43.6404539,28.0506205 L46.8031099,28.0506205 L46.7992467,29.9554254 Z M48.9687565,24.2411396 L48.9687565,25.1721658 L47.8901569,25.1721658 L47.8901569,28.0239646 L46.8339638,28.0239646 L46.8339638,23.1326648 L47.8901569,23.1326648 L47.8901569,24.2411396 L48.9687565,24.2411396 Z M38.3442672,23.1327163 L38.7292974,23.1327163 L38.7292974,26.3123702 L37.6736193,26.3123702 L37.6736193,24.0637425 L36.0330559,24.0637425 L36.0330559,23.1327163 L37.6736193,23.1327163 L38.3442672,23.1327163 Z M41.1081143,23.1123445 L42.1635348,23.1123445 L42.1635348,31.0475718 L41.1081143,31.0475718 L41.1081143,25.3280064 L40.3808064,25.3280064 L40.3808064,31.0475718 L39.3233256,31.0475718 L39.3233256,23.1123445 L40.3808064,23.1123445 L40.3808064,24.3969803 L41.1081143,24.3969803 L41.1081143,23.1123445 Z M34.249967,23.1123445 L35.3071903,23.1123445 L35.3071903,28.1769722 L34.249967,28.1769722 L34.249967,25.8454149 L33.2187557,25.8454149 L33.2187557,24.9798052 L34.249967,24.9798052 L34.249967,24.5703082 L33.2187557,24.5703082 L33.2187557,23.7028958 L34.249967,23.7028958 L34.249967,23.1123445 Z M33.9534294,28.227039 L34.2344113,28.227039 L34.2344113,31.0474173 L33.1779606,31.0474173 L33.1779606,29.159868 L31.6427332,29.159868 L31.6427332,28.227039 L33.1779606,28.227039 L33.9534294,28.227039 Z M32.8550761,23.3847501 L32.8550761,24.8779976 L32.8530157,24.8779976 L32.8530157,25.3008869 L31.0635911,25.3008869 L31.0635911,25.5208306 L32.8530157,25.5208306 L32.8530157,26.4510841 L29.9911726,26.4510841 L29.9911726,25.5208306 L29.9911726,24.3708909 L31.7981103,24.3708909 L31.7981103,24.0533376 L29.9911726,24.0533376 L29.9911726,23.1228266 L32.8530157,23.1228266 L32.8530157,23.3847501 L32.8550761,23.3847501 Z M11.910928,26.4508781 L10.588433,26.4508781 L10.588433,28.0409626 L11.7448113,28.0409626 L11.7448113,31.0418801 L10.6891332,31.0418801 L10.6891332,28.9925924 L9.53223984,28.9884716 L9.53223984,26.4508781 L7.84789376,26.4508781 L7.84789376,25.5208821 L9.53223984,25.5208821 L9.53223984,24.0423147 L8.16132636,24.0423147 L8.16132636,23.1123187 L10.588433,23.1123187 L10.588433,25.5208821 L11.910928,25.5208821 L11.910928,26.4508781 Z M16.8977256,28.0235525 L16.8977256,23.1124217 L17.9536612,23.1124217 L17.9536612,28.0235525 L16.8977256,28.0235525 Z M16.4119179,25.5831823 L15.6016805,26.2427557 L14.3827187,24.8337256 L13.1640145,26.2427557 L12.3535195,25.5831823 L13.6865738,24.0425465 L12.5703726,24.0425465 L12.5703726,23.112293 L16.1541151,23.112293 L16.1541151,24.0425465 L15.0788636,24.0425465 L16.4119179,25.5831823 Z M14.1890962,28.0409368 L16.8812169,28.0409368 L16.8812169,28.1534841 L16.8812169,28.9717054 L16.8812169,31.0418543 L15.8242511,31.0418543 L15.8242511,28.9717054 L14.1890962,28.9717054 L14.1890962,28.0409368 Z M6.25021167,30.1204089 L6.25021167,31.0419058 L3.996433,31.0419058 L3.996433,28.1532781 L5.05211107,28.1532781 L5.05211107,28.1573988 L5.03871871,30.1204089 L6.25021167,30.1204089 Z M2.62670423,26.3095372 C2.98237425,26.3095372 3.27185513,26.0280402 3.27185513,25.6793239 C3.27185513,25.3329256 2.98237425,25.0524588 2.62670423,25.0524588 C2.26845875,25.0524588 1.9774326,25.3329256 1.9774326,25.6793239 C1.9774326,26.0280402 2.26845875,26.3095372 2.62670423,26.3095372 Z M6.09377867,25.1513561 L7.29909054,25.1513561 L7.29909054,26.0823823 L6.09377867,26.0823823 L6.09377867,28.1363058 L5.03681288,28.1363058 L5.03681288,25.0061006 L4.15652314,25.0061006 C4.25155734,25.2113642 4.30667203,25.4392918 4.30667203,25.6793239 C4.30667203,26.5833078 3.55489738,27.3162817 2.62670423,27.3162817 C1.69722334,27.3162817 0.944160966,26.5833078 0.944160966,25.6793239 C0.944160966,25.4392918 0.999275654,25.2113642 1.09482495,25.0061006 L0,25.0061006 L0,24.0758471 L2.08122334,24.0758471 L2.08122334,23.1123702 L3.13793159,23.1123702 L3.13793159,24.0758471 L5.03681288,24.0758471 L5.03681288,23.1126278 L6.09377867,23.1126278 L6.09377867,25.1513561 Z M24.8061682,27.5437457 L24.8061682,26.6119469 L29.5280032,26.6119469 L29.5280032,27.5437457 L24.8061682,27.5437457 Z M26.7542406,25.1996201 L28.8838825,25.1996201 L28.8838825,26.129101 L25.6972748,26.129101 L25.6972748,26.0654873 L25.6972748,25.1996201 L25.6972748,23.1124732 L26.7542406,23.1124732 L26.7542406,25.1996201 Z M25.5190793,29.5499718 C25.5190793,28.6122495 26.3017594,27.8519759 27.267039,27.8519759 C28.2312885,27.8519759 29.0124233,28.6122495 29.0124233,29.5499718 C29.0124233,30.4869215 28.2312885,31.2474527 27.267039,31.2474527 C26.3017594,31.2474527 25.5190793,30.4869215 25.5190793,29.5499718 Z M27.267039,30.2432837 C27.6613408,30.2432837 27.9796668,29.9324266 27.9796668,29.5499718 C27.9796668,29.1677746 27.6613408,28.8553722 27.267039,28.8553722 C26.8714495,28.8553722 26.5515783,29.1677746 26.5515783,29.5499718 C26.5515783,29.9324266 26.8714495,30.2432837 27.267039,30.2432837 Z M53.6463453,30.1480692 L54.7249449,30.1480692 L54.7249449,31.079868 L52.7160918,31.079868 L52.7160918,31.0641577 L52.5898946,31.0641577 L52.5898946,28.0671034 L53.6463453,28.0671034 L53.6463453,30.1480692 Z M53.205196,26.167192 L53.205196,27.0987332 L51.8631276,27.0987332 L51.8631276,28.1956185 L50.807192,28.1956185 L50.807192,27.0987332 L49.61553,27.0987332 L49.61553,26.167192 L53.205196,26.167192 Z M53.6463453,23.1327163 L54.7033111,23.1327163 L54.7033111,28.0237586 L53.6463453,28.0237586 L53.6463453,25.1722173 L52.745967,25.1722173 C52.4719388,25.6463581 51.9506672,25.9685473 51.3518744,25.9685473 C50.4687517,25.9685473 49.7504579,25.2713722 49.7504579,24.4119437 C49.7504579,23.5527726 50.4687517,22.8571429 51.3518744,22.8571429 C52.1755042,22.8571429 52.8531058,23.4626318 52.9411863,24.2411911 L53.6463453,24.2411911 L53.6463453,23.1327163 Z M51.3518744,25.0480805 C51.7121803,25.0480805 52.0050093,24.7629779 52.0050093,24.4119437 C52.0050093,24.0616821 51.7121803,23.7765795 51.3518744,23.7765795 C50.9902809,23.7765795 50.697967,24.0616821 50.697967,24.4119437 C50.697967,24.7629779 50.9902809,25.0480805 51.3518744,25.0480805 Z M21.9498881,28.0409368 L23.0063388,28.0409368 L23.0063388,31.0418543 L22.4044555,31.0418543 L21.9498881,31.0418543 L20.9083751,31.0418543 L20.4378398,31.0418543 L19.8524394,31.0418543 L19.8524394,28.0409368 L20.9083751,28.0409368 L20.9083751,28.5215163 L21.9498881,28.5215163 L21.9498881,28.0409368 Z M20.9083751,30.1116008 L21.9498881,30.1116008 L21.9498881,29.4525425 L20.9083751,29.4525425 L20.9083751,30.1116008 Z M23.0064934,23.1123445 L24.062429,23.1123445 L24.062429,28.0237328 L23.0064934,28.0237328 L23.0064934,25.2633626 L22.0718616,25.2633626 C21.8797328,25.9986543 21.1956926,26.5443928 20.3808193,26.5443928 C19.4168274,26.5443928 18.6344048,25.7838616 18.6344048,24.8458817 C18.6344048,23.9084169 19.4168274,23.1486584 20.3808193,23.1486584 C21.161439,23.1486584 21.8210125,23.6452056 22.0443042,24.3320789 L23.0064934,24.3320789 L23.0064934,23.1123445 Z M20.3808193,25.5399662 C20.7740909,25.5399662 21.0952499,25.228594 21.0952499,24.8458817 C21.0952499,24.4623968 20.7740909,24.1520547 20.3808193,24.1520547 C19.9857449,24.1520547 19.6671614,24.4623968 19.6671614,24.8458817 C19.6671614,25.228594 19.9857449,25.5399662 20.3808193,25.5399662 Z" id="Combined-Shape" fill="#231916"></path>
        </g>
    </g>
</svg>