<?xml version="1.0" encoding="utf-8"?>
<!-- Generator: Adobe Illustrator 26.3.1, SVG Export Plug-In . SVG Version: 6.00 Build 0)  -->
<svg version="1.1" id="_이어_1" xmlns="http://www.w3.org/2000/svg" xmlns:xlink="http://www.w3.org/1999/xlink" x="0px" y="0px"
	 viewBox="0 0 53.8 19.3" style="enable-background:new 0 0 53.8 19.3;" xml:space="preserve">
<style type="text/css">
	.st0{fill:#231815;}
	.st1{fill:#E60012;}
</style>
<g>
	<path class="st0" d="M17.2,11.8L16,10.3l1.8-2.2h-1c-0.4,0-0.7,0.1-1,0.4l-0.9,1.2V6.5h-0.9c-0.2,0-0.4,0.2-0.4,0.4v6h1
		c0.2,0,0.4-0.2,0.4-0.4v-1.6l0.8,0.9l0.7,0.8c0.1,0.2,0.3,0.2,0.5,0.2h1.3C18.1,12.9,17.2,11.8,17.2,11.8z"/>
	<path class="st0" d="M19.6,12.9c-0.7,0-1.2-0.5-1.2-1.2V6.9c0-0.2,0.2-0.4,0.4-0.4h1v4.9c0,0.2,0.2,0.4,0.4,0.4h1v0.7
		c0,0.2-0.2,0.4-0.4,0.4C20.7,12.9,19.6,12.9,19.6,12.9z"/>
	<path class="st1" d="M14.9,9.6L14.9,9.6z M21.3,7.8L21.3,7.8c-0.1,0.1-0.3,0.4-1.1,0.4h-3.5c-0.5,0-0.8,0.2-1,0.5l-0.1,0.1l0,0
		l-0.7,0.8c0.2-0.2,0.6-0.3,0.9-0.3h4.3c0.5,0,1-0.2,1.1-0.5c0,0,0,0,0,0L21.3,7.8L21.3,7.8z"/>
</g>
<path class="st1" d="M27.1,12.7c-0.1-0.2-0.2-0.4-0.2-0.8V7.7c0-0.1,0.1-0.2,0.2-0.2h0.6v4.4c0,0.2,0.1,0.3,0.2,0.3
	c0.1,0,0.2,0,0.3,0v0.5c0,0,0,0.1,0,0.1c0,0-0.1,0.1-0.1,0.1c-0.1,0-0.2,0.1-0.3,0.1C27.5,13,27.3,12.9,27.1,12.7L27.1,12.7z"/>
<path class="st1" d="M29.2,9.1h0.6v0.2c0.3-0.2,0.6-0.3,0.9-0.3c0.5,0,0.8,0.2,1.1,0.5c0.2,0.3,0.4,0.8,0.4,1.4c0,1.4-0.6,2-1.8,2
	c-0.2,0-0.4,0-0.5-0.1V14c0,0.1-0.1,0.2-0.2,0.2H29V9.3C29,9.2,29.1,9.1,29.2,9.1L29.2,9.1z M31,12c0.2-0.2,0.3-0.5,0.3-1
	c0-0.4-0.1-0.6-0.2-0.8c-0.1-0.2-0.3-0.3-0.6-0.3c-0.1,0-0.2,0-0.4,0.1C30,10,29.9,10,29.8,10.1v2c0.1,0,0.3,0.1,0.5,0.1
	C30.6,12.2,30.8,12.1,31,12L31,12z"/>
<path class="st1" d="M32.8,7.8c0-0.1,0-0.2,0.1-0.3c0,0,0.1-0.1,0.2-0.1h0.7c-0.1,0.2-0.1,0.4-0.1,0.8v1c0.1-0.1,0.3-0.1,0.4-0.2
	c0.2,0,0.3-0.1,0.5-0.1c0.4,0,0.7,0.1,0.9,0.3c0.2,0.2,0.3,0.5,0.3,0.9v2.4c0,0.1-0.1,0.2-0.2,0.2h-0.7v-2.4c0-0.2,0-0.4-0.1-0.5
	c-0.1-0.1-0.2-0.2-0.4-0.2c-0.2,0-0.3,0-0.4,0.1c-0.1,0-0.3,0.1-0.4,0.2v2.6c0,0.1-0.1,0.2-0.2,0.2h-0.6V8.4
	C32.8,8.1,32.8,8,32.8,7.8L32.8,7.8z"/>
<path class="st1" d="M37,12.7c-0.2-0.2-0.3-0.5-0.3-0.8c0-0.5,0.2-0.8,0.5-1s0.8-0.3,1.4-0.3h0.3v-0.1c0-0.2-0.1-0.4-0.2-0.5
	c-0.1-0.1-0.3-0.1-0.6-0.1c-0.1,0-0.3,0-0.5,0c-0.2,0-0.3,0.1-0.4,0.1c0,0-0.1,0-0.1,0c-0.1,0-0.1,0-0.1-0.1V9.3
	c0.4-0.1,0.8-0.2,1.3-0.2c0.4,0,0.8,0.1,1,0.3s0.4,0.5,0.4,1v1.8c0,0.1,0,0.1,0,0.1s0.1,0,0.1,0c0,0,0.1,0,0.1,0v0.4
	c0,0.1,0,0.2-0.1,0.2c-0.1,0-0.2,0.1-0.3,0.1s-0.3,0-0.4-0.1c-0.1-0.1-0.2-0.1-0.2-0.3c-0.1,0.1-0.2,0.2-0.4,0.3
	C38.2,12.9,38,13,37.8,13C37.5,13,37.2,12.9,37,12.7L37,12.7z M38.4,12.2c0.1,0,0.2-0.1,0.3-0.2v-0.9h-0.2c-0.4,0-0.7,0.1-0.9,0.2
	c-0.2,0.1-0.2,0.3-0.2,0.5c0,0.3,0.2,0.4,0.6,0.4C38.2,12.3,38.3,12.2,38.4,12.2L38.4,12.2z"/>
<path class="st1" d="M23,11.9c0-1.1,0.9-1.3,1.9-1.3h0.3v-0.1c0-0.5-0.2-0.6-0.7-0.6c-0.3,0-0.7,0.1-0.9,0.1c-0.1,0-0.2,0-0.2-0.1
	V9.2c0.3-0.1,0.8-0.2,1.3-0.2c0.7,0,1.4,0.2,1.4,1.3v1.8c0,0.1,0,0.1,0.1,0.2c0.1,0,0.1,0,0.1,0v0.4c0,0.2-0.2,0.3-0.4,0.3
	c-0.3,0-0.5-0.1-0.6-0.4c-0.2,0.2-0.6,0.4-0.9,0.4C23.5,13,23,12.6,23,11.9L23,11.9z M25.1,12v-0.9h-0.2c-0.9,0-1.1,0.3-1.1,0.7
	c0,0.3,0.2,0.4,0.6,0.4C24.6,12.3,24.9,12.2,25.1,12L25.1,12z"/>
</svg>
