<?xml version="1.0" encoding="UTF-8"?>
<svg width="100px" height="60px" viewBox="0 0 100 60" version="1.1" xmlns="http://www.w3.org/2000/svg" xmlns:xlink="http://www.w3.org/1999/xlink">
    <!-- Generator: Sketch 55.2 (78181) - https://sketchapp.com -->
    <title>logo/kyungsghin</title>
    <desc>Created with Sketch.</desc>
    <g id="logo/kyungsghin" stroke="none" stroke-width="1" fill="none" fill-rule="evenodd">
        <g transform="translate(14.000000, 20.000000)">
            <path d="M71.5408805,9.65408805 C70.8596646,9.65259958 70.1784277,9.65081761 69.4971908,9.64981132 C69.2703983,9.64947589 69.3033753,9.66490566 69.3032704,9.45922432 C69.3025996,8.35339623 69.3034382,7.24754717 69.3024948,6.14171908 C69.3022851,5.93167715 69.2737736,5.72417191 69.2104612,5.5239413 C69.1113627,5.2106499 68.9168134,4.9827044 68.576478,4.9470021 C68.0172327,4.88834382 67.6531866,5.14492662 67.5219287,5.7018239 C67.4881971,5.84501048 67.4787002,5.99079665 67.478826,6.1378826 C67.4796226,7.24895178 67.4792453,8.36002096 67.4792662,9.47109015 C67.4792662,9.50253669 67.4779245,9.53408805 67.48,9.56540881 C67.4838994,9.62477987 67.4590985,9.6532914 67.3981761,9.64972746 C67.3668344,9.64790356 67.3353249,9.64958071 67.3038784,9.64958071 C66.6644864,9.64976939 66.0250734,9.64995807 65.3856813,9.65010482 C65.3542348,9.65012579 65.3227463,9.64863732 65.2913627,9.65012579 C65.2398113,9.65251572 65.212327,9.6324109 65.2150524,9.57761006 C65.2166247,9.54624738 65.2150105,9.51473795 65.2150105,9.4832914 C65.2149895,7.6227673 65.2149895,5.76224319 65.2149895,3.90174004 C65.2149895,3.88077568 65.2174843,3.85945493 65.2145283,3.83890985 C65.2022432,3.75289308 65.2444654,3.73450734 65.3227463,3.73475891 C66.0040461,3.73710692 66.6853669,3.73568134 67.3666876,3.7366457 C67.4762893,3.73681342 67.4776939,3.7397065 67.4789099,3.85132075 C67.4803983,3.98668763 67.4792662,4.12207547 67.4792662,4.27102725 C67.5453249,4.25283019 67.5739203,4.2075891 67.6080922,4.1729979 C68.0035849,3.77247379 68.481761,3.5597065 69.042956,3.51238994 C69.5494549,3.46966457 70.0350524,3.52582809 70.4886792,3.76442348 C71.0686373,4.06945493 71.4174423,4.5445283 71.5176101,5.19622642 C71.5207966,5.21704403 71.5224738,5.2375891 71.5408805,5.25157233 L71.5408805,9.65408805 Z" id="Fill-1" fill="#026FBA"></path>
            <path d="M4.93710692,0 C5.14343816,0.0768972746 5.3621174,0.102159329 5.57561845,0.14706499 C6.48085954,0.337484277 7.38756813,0.520964361 8.29385744,0.706331237 C9.14888889,0.881215933 10.0041509,1.05490566 10.8591405,1.22993711 C11.1049057,1.28025157 11.3493501,1.33727463 11.5959119,1.3830608 C11.6810692,1.39886792 11.7062264,1.43486373 11.7058123,1.51828092 C11.7028721,2.09469602 11.704696,2.67113208 11.7037945,3.24756813 C11.7036478,3.35727463 11.701174,3.35746331 11.5893082,3.36014675 C11.5578826,3.36090147 11.5264151,3.36027254 11.4949686,3.36027254 C8.91677149,3.36046122 6.33855346,3.36067086 3.76035639,3.36083857 C3.73415094,3.36083857 3.70754717,3.35777778 3.6818239,3.36127883 C3.59387841,3.37327044 3.57838574,3.32832285 3.57855346,3.25106918 C3.58050314,2.32354298 3.58090147,1.39599581 3.57792255,0.468490566 C3.57763103,0.38327044 3.61,0.353522013 3.68727463,0.332243187 C3.99467505,0.247589099 4.30002096,0.155513627 4.60628931,0.0667714885 C4.66616352,0.0494129979 4.72716981,0.0356813417 4.77987421,0 L4.93710692,0 Z" id="Fill-3" fill="#026FBA"></path>
            <path d="M0,10 C0.0595597484,10.0081342 0.0640880503,9.95421384 0.0832704403,9.92171908 C0.367735849,9.43964361 0.650859539,8.95677149 0.9339413,8.47387841 C1.28584906,7.87358491 1.63840671,7.27368973 1.98784067,6.67194969 C2.03184486,6.59620545 2.08075472,6.56228512 2.17274633,6.56419287 C2.47125786,6.57033543 2.77002096,6.56522013 3.06867925,6.56620545 C3.17932914,6.56658281 3.18176101,6.568826 3.18232704,6.67874214 C3.18377358,6.95645702 3.18283019,7.23415094 3.18280922,7.51186583 C3.1827044,8.95805031 3.1827044,10.4042138 3.18209644,11.8503983 C3.18207547,11.9020545 3.19303983,11.9552201 3.16628931,12.0116143 C3.04272537,11.9932704 2.93031447,11.9361006 2.8142348,11.893543 C1.92098532,11.5661216 1.02880503,11.2358491 0.136624738,10.9055346 C0.0918448637,10.8889518 0.0487631027,10.8714885 0,10.8805031 L0,10 Z" id="Fill-5" fill="#026FBA"></path>
            <path d="M48.4576855,17.7411111 C48.3205786,17.7293501 48.1861132,17.7533124 48.0519623,17.7721384 C47.8386709,17.8020964 47.6323606,17.8587631 47.4429686,17.9650734 C47.0369099,18.1929769 47.0051698,18.6468973 47.2515849,18.9225786 C47.3360922,19.0171069 47.4425702,19.0835849 47.5612495,19.1303354 C48.1085241,19.3457862 48.6620881,19.3367925 49.2177275,19.171195 C49.3479371,19.132369 49.4692998,19.0668134 49.5753585,18.9789937 C49.8088176,18.7856813 49.8640587,18.435304 49.695065,18.1890566 C49.5986289,18.0485325 49.4655472,17.9621174 49.3145199,17.8987002 C49.0407463,17.7837526 48.7512075,17.7494969 48.4576855,17.7411111 L48.4576855,17.7411111 Z M47.9559665,20 C47.8553585,19.9521803 47.7434717,19.9614046 47.6377484,19.9377568 C47.2935765,19.8607338 46.9586499,19.7614046 46.6702013,19.5493082 C46.2595723,19.2473585 46.087413,18.8454298 46.1546247,18.3350105 C46.2167212,17.8632914 46.4935765,17.5621593 46.8945199,17.3509644 C47.228021,17.175304 47.5899916,17.0958071 47.9599078,17.0491614 C48.4846038,16.9830189 49.0028847,17.0225786 49.5122138,17.1641719 C49.8433459,17.2562474 50.1523396,17.3919497 50.4011866,17.6401887 C50.9163857,18.1541719 50.8551069,19.056457 50.2776855,19.501153 C49.9710818,19.7373166 49.6165954,19.8518239 49.2467631,19.9361426 C49.1417945,19.9601048 49.0305157,19.9517191 48.9308092,20 L47.9559665,20 Z" id="Fill-7" fill="#0470B9"></path>
            <path d="M0,1.3836478 C0.0821802935,1.40897275 0.154716981,1.36631027 0.227819706,1.34509434 C1.17104822,1.07136268 2.1133543,0.794381551 3.05589099,0.518238994 C3.09104822,0.507945493 3.12624738,0.497253669 3.16396226,0.50721174 C3.19448637,0.543207547 3.18247379,0.586834382 3.18249476,0.627169811 C3.18314465,1.48599581 3.18287212,2.34484277 3.18274633,3.20368973 C3.18274633,3.22987421 3.18125786,3.25610063 3.18234801,3.28222222 C3.18498952,3.34454927 3.15192872,3.36490566 3.09469602,3.36113208 C3.06341719,3.3590566 3.03188679,3.3602935 3.00048218,3.3602935 C2.05259958,3.36027254 1.10471698,3.36020964 0.156855346,3.36048218 C0.104570231,3.36048218 0.0522851153,3.3632914 0,3.36477987 L0,1.3836478 Z" id="Fill-9" fill="#026FBA"></path>
            <path d="M0,3.74213836 C0.586415094,3.74014675 1.17280922,3.73874214 1.75922432,3.73538344 C1.82501048,3.73503145 1.85773585,3.75626834 1.85054507,3.82561845 C1.84784067,3.85150943 1.85012579,3.87794549 1.85012579,3.90412998 C1.85014675,4.61113208 1.849413,5.31813417 1.85121593,6.02513627 C1.85142558,6.111174 1.83620545,6.18672956 1.79138365,6.26293501 C1.22926625,7.21844864 0.670398323,8.17587002 0.108658281,9.13163522 C0.0827253669,9.1757652 0.0773584906,9.2472956 0,9.24532459 L0,3.74213836 Z" id="Fill-11" fill="#026FBA"></path>
            <path d="M71.5408805,19.7169811 C71.4885535,19.7155556 71.4362264,19.7128721 71.3839203,19.7128512 C69.9900419,19.7127254 68.5961635,19.7128721 67.2023061,19.7129769 C67.1813627,19.7129979 67.1602306,19.7114256 67.1394759,19.7134382 C67.06826,19.7203145 67.0365618,19.6960168 67.0368533,19.6174843 C67.039392,18.9677358 67.0396017,18.3179665 67.0371698,17.6681761 C67.0368533,17.5910273 67.0637945,17.5697484 67.1372537,17.5707757 C67.3887421,17.5742977 67.6402935,17.5714465 67.8918029,17.5728092 C68.0113627,17.5734591 68.0131656,17.5752621 68.0134801,17.6938155 C68.0144444,18.0449057 68.0132704,18.3959748 68.014109,18.747065 C68.0144235,18.8697694 68.0159958,18.8722222 68.1298742,18.8722642 C69.256478,18.8727044 70.3831027,18.8722642 71.5097275,18.8718868 C71.5201258,18.8718868 71.5305031,18.8693082 71.5408805,18.8679245 L71.5408805,19.7169811 Z" id="Fill-13" fill="#0470B9"></path>
            <path d="M71.5408805,17.5786164 C71.2791405,17.5772327 71.0173795,17.576457 70.7556394,17.5742138 C70.5883648,17.5727883 70.5922013,17.5969182 70.5922432,17.4156604 C70.592369,16.7715723 70.592327,16.1275052 70.592327,15.4834591 C70.592327,15.4415514 70.5927044,15.3996436 70.5919706,15.3577568 C70.5896855,15.2284067 70.5895178,15.2266876 70.4642767,15.2259958 C70.2233962,15.2246751 69.9825367,15.2254927 69.7416771,15.2253878 C69.7102516,15.2253669 69.6787212,15.2236478 69.6474423,15.2255765 C69.5885115,15.2291824 69.5628092,15.2062055 69.563522,15.1440042 C69.5658491,14.9398323 69.5672327,14.7355346 69.5626834,14.5314046 C69.5608176,14.4484906 69.6021174,14.4373585 69.6691824,14.4379665 C69.8890776,14.439979 70.1090147,14.4387631 70.3289308,14.4387841 C70.3708176,14.438805 70.4127254,14.4392243 70.4546331,14.4387631 C70.5900629,14.4371908 70.5914675,14.437065 70.5919916,14.3008176 C70.5930189,14.0390147 70.5915933,13.7772117 70.5925996,13.5153878 C70.5930608,13.3932075 70.5945702,13.3902725 70.708847,13.390415 C70.9862055,13.3907338 71.263543,13.3940881 71.5408805,13.3962264 L71.5408805,17.5786164 Z" id="Fill-15" fill="#026FBA"></path>
            <path d="M21.9439539,11.9077987 C21.9743522,11.7740461 22.0326751,11.6568344 22.080327,11.5366667 C22.2943522,10.9969182 22.5105996,10.4580084 22.7305577,9.9206499 C22.7611237,9.84603774 22.7584403,9.7851782 22.7288805,9.71287212 C22.3133669,8.69626834 21.8999706,7.6787631 21.4863438,6.66138365 C21.1476226,5.82819706 20.8092998,4.99484277 20.4706205,4.16163522 C20.4588176,4.13262055 20.4449182,4.10444444 20.4281258,4.06740042 C20.34387,4.1348218 20.2867002,4.22136268 20.2228428,4.30016771 C19.7421719,4.89337526 19.2638071,5.48844864 18.7848553,6.08301887 C18.6969937,6.19205451 18.6975178,6.19201258 18.7663857,6.29473795 C19.3583145,7.17765199 19.9499916,8.06071279 20.5420461,8.94352201 C20.673283,9.13924528 20.8058407,9.33408805 20.9373711,9.52960168 C20.9573501,9.55928721 20.9848553,9.58593291 20.9837862,9.6266457 C20.9573291,9.66639413 20.9172243,9.64890985 20.8839748,9.64895178 C20.0716897,9.64989518 19.2593836,9.64815514 18.4471195,9.65157233 C18.3516688,9.65197065 18.301522,9.61991614 18.2496352,9.5384696 C17.6449392,8.58939203 17.0349392,7.64368973 16.4257149,6.69750524 C16.3615849,6.59790356 16.3069308,6.49146751 16.2176436,6.38767296 C16.1900126,6.45607966 16.2019203,6.5130608 16.2018784,6.56689727 C16.2008302,7.51542977 16.2012075,8.46398323 16.2012704,9.41253669 C16.2012704,9.43874214 16.1982096,9.46538784 16.2018574,9.49106918 C16.2143732,9.57943396 16.1805996,9.61631027 16.0896352,9.63888889 C15.5825912,9.76475891 15.0776855,9.89920335 14.57213,10.0311321 C14.4203899,10.0707338 14.2695094,10.1137526 14.1172243,10.1510482 C14.0626541,10.1644235 14.0093208,10.1938784 13.950935,10.1798742 C13.9247925,10.1389937 13.935631,10.0962474 13.9356101,10.0554507 C13.9351908,7.38274633 13.9352327,4.71004193 13.9352537,2.03733753 C13.9352537,2.01113208 13.936239,1.9848847 13.935086,1.95874214 C13.9323187,1.89584906 13.9617736,1.87396226 14.0221509,1.88610063 C14.1399916,1.90979036 14.2583354,1.93113208 14.3760294,1.95555556 C14.9286709,2.07025157 15.4811656,2.18563941 16.0336813,2.3008805 C16.0592579,2.30622642 16.084457,2.3167086 16.1101384,2.31775681 C16.1868679,2.32085954 16.2049392,2.36459119 16.2016268,2.43259958 C16.1980629,2.50578616 16.2012495,2.57928721 16.2012495,2.65266247 C16.2012075,3.80557652 16.2011447,4.95851153 16.2010818,6.11144654 L16.2010818,6.27100629 C16.3255052,6.16708595 16.3920252,6.0548218 16.470348,5.95442348 C17.0204528,5.24918239 17.5684193,4.54224319 18.1132411,3.83291405 C18.1714801,3.75708595 18.2331992,3.73446541 18.3248973,3.73463312 C19.7398449,3.73712788 21.1548134,3.73620545 22.569782,3.73626834 C22.7180419,3.73628931 22.7183564,3.73681342 22.7588595,3.87899371 C23.1169099,5.13593291 23.4748344,6.39289308 23.8327589,7.64987421 C23.8454004,7.69427673 23.8476226,7.74289308 23.8914801,7.78379455 C24.0099287,7.40589099 24.128,7.03251572 24.2439748,6.65849057 C24.5334927,5.7248847 24.8222558,4.79104822 25.1106205,3.85706499 C25.1312914,3.79014675 25.145631,3.73358491 25.240914,3.73419287 C25.8802432,3.73821803 26.5195933,3.73628931 27.1589434,3.7369392 C27.1786499,3.73696017 27.1983354,3.74396226 27.2213124,3.74834382 C27.2185241,3.81731656 27.1888595,3.8736478 27.1664486,3.93071279 C26.6732411,5.1867086 26.1784403,6.44209644 25.6845618,7.69784067 C25.2231992,8.87085954 24.7624864,10.04413 24.3017107,11.2173585 C24.2214382,11.421761 24.1407673,11.6260377 24.0635556,11.8315723 C24.040956,11.89174 24.0136184,11.9253878 23.9410398,11.9249724 C23.2860922,11.9212998 22.6311237,11.9212159 21.9761761,11.9198113 C21.9712704,11.9198113 21.9663648,11.9163312 21.9439539,11.9077987" id="Fill-17" fill="#026FBA"></path>
            <path d="M46.0320231,6.46567296 C46.0320231,6.4082935 46.0340776,6.35083019 46.0316667,6.29355556 C46.0192348,5.99428931 45.968501,5.70395388 45.8479769,5.4264696 C45.5222327,4.67642767 44.6589203,4.69168973 44.261457,5.0447086 C44.0962579,5.19139623 43.9965933,5.37944654 43.9284591,5.58527463 C43.7963836,5.98422642 43.7809329,6.3952327 43.8184382,6.80898532 C43.8406394,7.05378616 43.8905975,7.2940587 43.997935,7.51839832 C44.1171803,7.76764361 44.2863208,7.96391195 44.5578512,8.05644864 C45.0143291,8.21202516 45.6130922,8.09336688 45.8689623,7.46206709 C45.9985849,7.14219287 46.0329245,6.80640671 46.0320231,6.46567296 M46.0415828,8.526826 C45.8669706,8.75751782 45.6731132,8.94976101 45.43326,9.09535849 C45.0760901,9.31217191 44.6837841,9.41183648 44.2719392,9.43623899 C43.8001782,9.46418449 43.3437421,9.39841929 42.9152096,9.18384906 C42.4599895,8.95592453 42.1229874,8.60969811 41.8787736,8.16703564 C41.5474319,7.56644864 41.4469078,6.91745493 41.4767191,6.24244444 C41.4960273,5.80544235 41.5832809,5.38150105 41.7683333,4.98322013 C42.1365514,4.1907044 42.7549371,3.71355556 43.612086,3.55095597 C44.0214361,3.47330398 44.4311845,3.46890147 44.8395283,3.57380713 C45.3127358,3.69537945 45.6830294,3.95353459 45.9381656,4.37257023 C45.962652,4.4128218 45.9874109,4.45290566 46.0175786,4.50208805 C46.0545597,4.46636478 46.0409329,4.42431027 46.0406394,4.38839832 C46.0392558,4.2104109 46.033847,4.03244444 46.0330294,3.85443606 C46.0324843,3.73854507 46.0349161,3.73667925 46.1557128,3.73651153 C46.7059224,3.73579874 47.2561111,3.73619706 47.8062788,3.73619706 C47.9372851,3.73619706 48.0683753,3.73900629 48.1992348,3.73512788 C48.2751258,3.7328847 48.322044,3.75007547 48.3084801,3.83816771 C48.3061111,3.85351363 48.3081447,3.86955136 48.3081447,3.88527463 C48.3080818,5.51485535 48.310808,7.14447799 48.3060273,8.7740587 C48.3048952,9.16577778 48.2775157,9.55709853 48.1851258,9.9407044 C47.9963836,10.7242264 47.5170755,11.2628428 46.7910587,11.5907883 C46.4318344,11.7530524 46.0524633,11.8487338 45.6650839,11.9180419 C45.2504927,11.9922138 44.8331132,12.0035346 44.4152935,11.9749602 C43.8495283,11.9363229 43.293847,11.8475597 42.7833229,11.5773291 C42.3952306,11.3718994 42.0987945,11.0817317 41.9396122,10.6653166 C41.864392,10.4685031 41.8240566,10.263891 41.8188365,10.0531363 C41.8158805,9.93298952 41.8178092,9.93085115 41.9375577,9.93062055 C42.3777044,9.92978197 42.8178721,9.93043187 43.2580189,9.93059958 C43.4518973,9.93066247 43.6457757,9.93078826 43.8396541,9.93124948 C43.8863627,9.93133333 43.9306604,9.92433124 43.9378721,9.99714046 C43.977348,10.3941845 44.2286478,10.5743941 44.5968239,10.6393208 C44.8603249,10.6857987 45.1204088,10.6739539 45.3710377,10.5886289 C45.66913,10.4871405 45.854413,10.2705577 45.9435535,9.96848218 C46.0259644,9.68921593 46.0354403,9.40221384 46.04087,9.11481342 C46.0445807,8.91890147 46.0415828,8.72284277 46.0415828,8.526826" id="Fill-19" fill="#026FBA"></path>
            <path d="M11.7048595,7.26827673 C11.7048595,8.38454507 11.7048595,9.50081342 11.7048595,10.6170818 C11.7048595,10.7792411 11.704587,10.7783187 11.5401426,10.8201635 C11.2462851,10.8949434 10.9511069,10.9652579 10.6599539,11.0494507 C10.554,11.0801006 10.4855933,11.0541887 10.4067044,10.9871027 C9.49857023,10.2148386 8.58777358,9.44574004 7.67789937,8.67557233 C6.77999581,7.91555136 5.88303564,7.15444025 4.9830566,6.39691405 C4.92450314,6.34762683 4.89898952,6.30133753 4.89919788,6.22628512 C4.90121174,5.4349434 4.90010063,4.64360168 4.90077149,3.85225996 C4.90087631,3.73894759 4.90309853,3.73840252 5.01007966,3.73601258 C5.06244864,3.73483857 5.1148805,3.73618029 5.1672914,3.73618029 C7.2897652,3.73618029 9.41225996,3.73613836 11.5347338,3.7361174 C11.5399748,3.7361174 11.5452159,3.73613836 11.550457,3.73609644 C11.7162222,3.73483857 11.7041048,3.72624319 11.7041258,3.88802516 C11.7041468,5.01477568 11.7041468,6.14152621 11.7041468,7.26827673 L11.7048595,7.26827673 Z" id="Fill-21" fill="#026FBA"></path>
            <path d="M57.3220692,4.29662893 C57.7476667,3.83222642 58.2307904,3.57040252 58.8225514,3.51319078 C59.3432013,3.46285535 59.8451509,3.50981551 60.3173732,3.75352621 C60.9248155,4.06700629 61.2662201,4.57025577 61.3808952,5.23700629 C61.4040818,5.37163941 61.4108952,5.50656604 61.4107507,5.64304403 C61.4094906,6.92157652 61.4100985,8.20015094 61.4098679,9.4787044 C61.409847,9.6635891 61.4257589,9.64945912 61.2420482,9.64952201 C60.5975409,9.64971069 59.9530126,9.64960587 59.3085052,9.64956394 C59.2770587,9.64956394 59.2456122,9.64853669 59.2141866,9.64931237 C59.1691971,9.65040252 59.146283,9.63008805 59.1464927,9.58430189 C59.1467023,9.54239413 59.1458428,9.50048637 59.1458428,9.45855765 C59.1458008,8.36340042 59.1472893,7.26824319 59.1445639,6.17310692 C59.1439979,5.9532956 59.1128658,5.73528721 59.049847,5.5238826 C58.9453816,5.17348428 58.6972893,4.95868344 58.3750881,4.93415514 C57.9455912,4.90142977 57.6229916,5.06499371 57.4557589,5.39755136 C57.3621111,5.58375681 57.321566,5.78057023 57.3216918,5.98822222 C57.3225094,7.15149266 57.3219853,8.31478407 57.3219644,9.47805451 C57.3219644,9.66195388 57.3395325,9.64985744 57.1552558,9.64992034 C56.5107484,9.6500645 55.8662201,9.64975262 55.2216918,9.64958491 C55.1902453,9.64958491 55.1587987,9.64883019 55.1273732,9.64952201 C55.0830755,9.65050734 55.058673,9.63132495 55.0585681,9.58528721 C55.0585052,9.54862055 55.0578553,9.51195388 55.0578553,9.47526625 C55.0577925,6.83956394 55.0577715,4.20384067 55.0577296,1.56813836 C55.0577296,1.53671279 55.0585472,1.50524528 55.057641,1.47381971 C55.0564507,1.42734172 55.0798679,1.40809644 55.124543,1.40916562 C55.1559686,1.40989937 55.1874151,1.40910273 55.2188616,1.40908176 C55.8686101,1.40889308 56.5183585,1.4087044 57.1681069,1.40855728 C57.1943124,1.40855728 57.2205178,1.40941719 57.2467023,1.40880922 C57.2978553,1.40761426 57.3250042,1.42956394 57.32274,1.48321174 C57.3214403,1.51459539 57.3220063,1.54608386 57.3220063,1.57750943 C57.3220063,2.41591614 57.3220482,3.25430189 57.3220692,4.0927086 L57.3220692,4.29662893 Z" id="Fill-23" fill="#026FBA"></path>
            <path d="M36.944587,4.29216562 C37.0798281,4.17828721 37.170457,4.07004822 37.2806038,3.98233333 C37.631065,3.70317191 38.0314423,3.56059329 38.4745241,3.51377987 C38.811631,3.47814046 39.1415472,3.50281551 39.4694927,3.57946122 C40.2925325,3.77187212 40.8894927,4.43006918 41.0060126,5.27063522 C41.024021,5.40036268 41.0335597,5.5298805 41.0334147,5.66103354 C41.0321342,6.91862264 41.0326373,8.1762327 41.0326373,9.4338218 C41.0326373,9.46002725 41.0329099,9.4862327 41.0325954,9.51241719 C41.0309182,9.647826 41.0308553,9.64923061 40.8938532,9.64935639 C40.2336017,9.6498805 39.5733711,9.64981761 38.9131195,9.64941929 C38.7697233,9.64933543 38.7686751,9.6483501 38.7686331,9.50342348 C38.7683187,8.39252201 38.7699958,7.28164151 38.7671656,6.17076101 C38.7665577,5.9457086 38.7374801,5.72208176 38.6665996,5.50686164 C38.5125535,5.03918868 38.1668931,4.88113836 37.7100587,4.95522642 C37.3402264,5.01522642 37.1199539,5.24860168 37.0125535,5.59728092 C36.9630356,5.75803564 36.9435807,5.92338155 36.9438113,6.0923543 C36.9453836,7.21369602 36.944608,8.3350587 36.944608,9.45642138 C36.944608,9.49310901 36.9431614,9.5298805 36.9452998,9.56644235 C36.9488428,9.62644235 36.9224486,9.65338155 36.8623648,9.65000629 C36.831044,9.64824528 36.7995136,9.65004822 36.7680671,9.65004822 C36.1340419,9.64992243 35.4999958,9.64975472 34.8659497,9.649587 C34.829283,9.649587 34.7925115,9.64799371 34.7559287,9.64977568 C34.7026373,9.65237526 34.6791572,9.6277631 34.6806876,9.57545702 C34.6815891,9.54405241 34.680478,9.51258491 34.680478,9.48115933 C34.680457,7.62094969 34.680457,5.76074004 34.680457,3.90055136 C34.680457,3.879587 34.6830985,3.85822432 34.6799958,3.83774214 C34.6665577,3.74954507 34.7128889,3.73484906 34.7889686,3.73503774 C35.4701635,3.73675681 36.1513585,3.73516352 36.8325535,3.73581342 C36.9413795,3.73591824 36.942847,3.73876939 36.9441887,3.85241719 C36.9458239,3.98772117 36.944587,4.12306709 36.944587,4.29216562" id="Fill-25" fill="#026FBA"></path>
            <path d="M31.5617945,9.03597694 C31.4586709,9.13356604 31.3717526,9.22302096 31.277392,9.30379665 C30.9370147,9.59513836 30.5376226,9.75834591 30.0960503,9.80239203 C29.677413,9.84415304 29.2588805,9.83102935 28.8569308,9.68119706 C28.0738491,9.38931027 27.6270985,8.82757023 27.5093836,8.0008826 C27.4900964,7.86551572 27.4882306,7.73027463 27.4882516,7.59436268 C27.4885451,6.37337736 27.4884403,5.15237107 27.4884612,3.93138574 C27.4884612,3.89469811 27.4905157,3.8578847 27.4881887,3.82136478 C27.484457,3.76230818 27.5083983,3.73283229 27.5692998,3.73585115 C27.5954214,3.73717191 27.6216897,3.7359979 27.6478952,3.73601887 C28.2976855,3.7360608 28.9474759,3.73593501 29.5972662,3.73631237 C29.7717736,3.73639623 29.7541426,3.72239203 29.7542055,3.89960377 C29.7545409,4.93717191 29.7548973,5.97474004 29.75387,7.01232914 C29.7536604,7.21671069 29.7736394,7.41880713 29.8070356,7.61998113 C29.8304319,7.76094549 29.8776855,7.89467715 29.9500755,8.0166478 C30.0821509,8.23920545 30.2758407,8.36742348 30.5407463,8.36891195 C30.6555052,8.36954088 30.7701174,8.37595597 30.8846457,8.34870231 C31.171543,8.28048428 31.3664486,8.10949895 31.4775597,7.83880713 C31.54387,7.67727673 31.5772243,7.51019078 31.5770356,7.33476101 C31.5757568,6.19237107 31.5761342,5.04998113 31.5767002,3.90759119 C31.576805,3.73530608 31.5482516,3.73553669 31.743304,3.7357673 C32.3878532,3.73650105 33.0324025,3.73608176 33.6769727,3.73610273 C33.7083983,3.73612369 33.7399078,3.7372348 33.7712704,3.73580922 C33.8267421,3.73325157 33.8447925,3.76266457 33.8424654,3.81327254 C33.8410189,3.84465618 33.8424864,3.87614465 33.8424864,3.90757023 C33.8425073,5.7678847 33.8425073,7.62819916 33.8425283,9.48851363 C33.8425283,9.51471908 33.8414801,9.54100839 33.8432411,9.56708805 C33.8473082,9.62719287 33.8210398,9.65480294 33.7602851,9.64983438 C33.7394675,9.6481153 33.7183774,9.64956184 33.697413,9.64956184 C33.0371405,9.64960377 32.376847,9.64981342 31.7165744,9.64951992 C31.5787338,9.64943606 31.5781887,9.64853459 31.5765954,9.51274843 C31.5748973,9.36612369 31.5743941,9.21947799 31.5731153,9.07285325 C31.5730734,9.06790566 31.5702013,9.06297904 31.5617945,9.03597694" id="Fill-27" fill="#026FBA"></path>
            <path d="M53.3824277,5.46714256 C53.0523019,5.46714256 52.7221551,5.46777149 52.3920294,5.46680713 C52.2761803,5.4664717 52.2705828,5.46502516 52.2632034,5.34666038 C52.2389476,4.95668134 51.9926792,4.77680713 51.6096394,4.74529769 C51.5471866,4.74018239 51.4838323,4.7422369 51.421065,4.74487841 C51.1885283,4.75458491 51.0171656,4.89951153 50.9674801,5.12640881 C50.9201426,5.34259329 50.9758449,5.46368344 51.1784025,5.55791824 C51.3352159,5.63087421 51.5020294,5.67707966 51.6704361,5.71569602 C52.1643354,5.82898742 52.6613166,5.92936478 53.1485912,6.07037107 C53.3547128,6.13003564 53.5601635,6.19079036 53.752239,6.28930189 C54.1843145,6.51089518 54.4625325,6.85238365 54.5480042,7.33441719 C54.6182558,7.73072746 54.6146709,8.12525577 54.4693878,8.50881971 C54.291631,8.9780021 53.9461174,9.28395597 53.5015681,9.48536059 C53.1124067,9.66169182 52.6984654,9.7443543 52.2741258,9.78693291 C51.8925535,9.82521384 51.5106247,9.82749895 51.1296813,9.80427044 C50.6171866,9.77303354 50.1115681,9.70242558 49.6429727,9.46626205 C49.1240629,9.20473166 48.821065,8.78659748 48.7134969,8.22091614 C48.6900797,8.09768763 48.6711279,7.97385115 48.6732243,7.84722642 C48.6766625,7.6382327 48.6596813,7.6677086 48.8460964,7.66718449 C49.4172704,7.66557023 49.9884444,7.66649266 50.5596394,7.66642977 C50.6329937,7.66642977 50.7064528,7.66886164 50.7797023,7.66571698 C50.8465577,7.66284486 50.8805618,7.6722369 50.8797442,7.75758281 C50.8762013,8.12345283 51.1880252,8.44777149 51.5776688,8.47601048 C51.7740629,8.49024528 51.9732872,8.45171279 52.1494927,8.34345283 C52.3906457,8.19527673 52.4999329,7.77536059 52.1174172,7.53913417 C51.9607925,7.44242558 51.7910021,7.37324319 51.613413,7.32575891 C51.1845241,7.21108386 50.7536436,7.10362055 50.3260126,6.98450105 C50.0231195,6.90014046 49.7314423,6.78544444 49.4627841,6.61724738 C49.0272285,6.34454298 48.7678155,5.96963732 48.7333711,5.4428239 C48.6997023,4.92731027 48.8388847,4.48433333 49.2165157,4.12383019 C49.4478784,3.90299161 49.7223229,3.75466876 50.0207086,3.64789727 C50.3923857,3.51487841 50.7765996,3.44743606 51.1701216,3.41837945 C51.726369,3.37733124 52.2774172,3.40171279 52.8219455,3.52452201 C53.1772495,3.60466876 53.5126164,3.73487841 53.8006876,3.96510901 C54.1838742,4.2712935 54.3864738,4.67934382 54.4621342,5.15693291 C54.4727421,5.22389308 54.4858239,5.29079036 54.4906876,5.3582327 C54.4976688,5.45487841 54.4876688,5.46502516 54.3885073,5.46663941 C54.2523019,5.46881971 54.1160335,5.46714256 53.9797862,5.46714256 C53.7806667,5.46714256 53.5815472,5.46714256 53.3824277,5.46714256" id="Fill-29" fill="#026FBA"></path>
            <path d="M10.0661782,11.2002096 C9.73332704,11.2868344 9.43091614,11.3657442 9.12837945,11.4442348 C8.13175472,11.7027254 7.13510901,11.9612579 6.13840042,12.219392 C5.69326415,12.3346751 5.24766667,12.4481342 4.80292872,12.5648847 C4.73902935,12.5816771 4.68274004,12.5793501 4.62047589,12.555891 C4.31722642,12.4415723 4.01215304,12.3320545 3.70827463,12.219413 C3.57957442,12.1717191 3.579826,12.1701258 3.579826,12.0301887 C3.57974214,10.3322851 3.5797631,8.63433962 3.5797631,6.93643606 C3.5797631,6.8421174 3.58144025,6.74773585 3.57902935,6.65348008 C3.5776457,6.59830189 3.58852621,6.56490566 3.65502516,6.56536216 C3.94848428,6.56742138 4.24196436,6.56687631 4.53542348,6.56545073 C4.599826,6.56513627 4.64123061,6.60266247 4.68548637,6.64008386 C5.19225786,7.06886792 5.69963732,7.4969392 6.2064717,7.92563941 C6.82915514,8.45236897 7.45131447,8.97972746 8.07401887,9.50645702 C8.69659748,10.0330818 9.31963732,10.5592034 9.94219497,11.08587 C9.97777149,11.1159748 10.0108742,11.1490356 10.0661782,11.2002096" id="Fill-31" fill="#026FBA"></path>
            <path d="M62.164673,6.67631866 C62.164673,5.75940042 62.164673,4.84248218 62.1647149,3.92556394 C62.1647149,3.88365618 62.165847,3.84172746 62.1651132,3.79984067 C62.1642956,3.75269182 62.1888868,3.73518658 62.2331216,3.73650734 C62.2645262,3.73745073 62.2959937,3.73618239 62.3274193,3.73618239 C62.9771258,3.73618239 63.6268113,3.73618239 64.2765178,3.73618239 C64.3079434,3.73618239 64.3394109,3.73736688 64.3708155,3.73661216 C64.4146101,3.73554298 64.4401237,3.75267086 64.4396834,3.79973585 C64.439327,3.83640252 64.4403543,3.87309015 64.4403543,3.90975681 C64.4403981,5.76455765 64.4403981,7.61933753 64.4403753,9.47415933 C64.4403753,9.50558491 64.4384675,9.53709434 64.4400189,9.56843606 C64.4430377,9.6292956 64.4142327,9.6538239 64.3549874,9.64975681 C64.3236876,9.64761845 64.2921153,9.6495891 64.2606688,9.6495891 C63.6214654,9.6495891 62.9822411,9.64961006 62.3430168,9.64956813 C62.3063501,9.64956813 62.2696625,9.64849895 62.2329958,9.64931656 C62.1879434,9.65030189 62.1651342,9.63000839 62.1653648,9.58424319 C62.1655744,9.54233543 62.1647149,9.50042767 62.1647149,9.45851992 C62.164673,8.5311195 62.164673,7.60371908 62.164673,6.67631866" id="Fill-33" fill="#026FBA"></path>
            <path d="M58.587608,16.7602893 C58.8576499,16.6117568 59.1105849,16.4654465 59.3438763,16.2875639 C59.7453857,15.9814843 60.0720524,15.6160126 60.2890126,15.1542516 C60.3932055,14.9325535 60.4141069,14.7044612 60.4036667,14.466914 C60.399935,14.3824067 60.3407945,14.3985912 60.2917379,14.3984235 C59.9826604,14.3974172 59.6735828,14.3987379 59.3644843,14.397522 C59.1630797,14.3967254 59.1774822,14.4289266 59.1771468,14.216348 C59.1768952,14.0591782 59.1789078,13.9019874 59.1762034,13.7448805 C59.1750922,13.6804361 59.193499,13.6446709 59.2644423,13.6520084 C59.2903543,13.6546918 59.3167694,13.6526792 59.3429748,13.6526792 C60.4169161,13.6526373 61.4908574,13.6525954 62.5648197,13.6525535 C62.5910042,13.6525535 62.6174403,13.6548386 62.6433522,13.6521761 C62.7142746,13.6449224 62.73287,13.6802683 62.7319266,13.7452159 C62.7292222,13.9285283 62.7267484,14.1120503 62.7325765,14.2952159 C62.7353857,14.3827631 62.6980692,14.3997862 62.6212767,14.3991572 C62.2807736,14.3964109 61.9402495,14.3979203 61.5997254,14.3979203 C61.5630587,14.3979203 61.5262034,14.400457 61.4897673,14.3976688 C61.4266855,14.3928679 61.4142956,14.4247338 61.4090755,14.4817149 C61.3821992,14.7747757 61.4648616,15.040457 61.6016541,15.2938532 C61.856413,15.765782 62.2302285,16.125195 62.6686352,16.424 C62.8457002,16.5446918 63.0326604,16.6487589 63.2363082,16.7571237 C63.1494319,16.8720503 63.0698302,16.9785702 62.9888449,17.084 C62.934673,17.154566 62.8786352,17.2236646 62.8232474,17.2932872 C62.6961195,17.4531405 62.7313816,17.4660964 62.5450084,17.3454046 C62.1275031,17.0750692 61.7193899,16.792218 61.3474822,16.4595975 C61.1828281,16.3123229 61.0388029,16.1490314 60.9119686,15.9476688 C60.8445891,16.0371447 60.7956373,16.1264528 60.7285933,16.2022809 C60.4243585,16.5464109 60.0556373,16.8127212 59.6836247,17.0748805 C59.5296625,17.183392 59.3680692,17.2810231 59.214044,17.3894507 C59.1408155,17.4410021 59.0956164,17.422805 59.0468323,17.3581929 C58.8988868,17.16226 58.7479224,16.9685702 58.587608,16.7602893" id="Fill-35" fill="#0470B9"></path>
            <path d="M53.9255765,15.6479308 C53.587044,16.1585388 53.1006709,16.4862327 52.6233124,16.8232558 C52.4866457,16.9197547 52.342935,17.0062327 52.2028931,17.0979727 C52.1659539,17.1221447 52.1300629,17.1449539 52.0940042,17.0987065 C51.930566,16.889021 51.7674843,16.6790419 51.6002306,16.4639686 C51.7738365,16.3607191 51.9384696,16.2700901 52.0956184,16.1679937 C52.5167715,15.8943669 52.8834382,15.5635283 53.1512579,15.1328994 C53.2316352,15.0036541 53.2980084,14.8667358 53.3529979,14.7254361 C53.4003983,14.6036541 53.4279245,14.4772809 53.4236897,14.3430461 C53.4172327,14.1389371 53.4244025,13.9344298 53.4212788,13.7301321 C53.4202516,13.6616834 53.4444235,13.6397966 53.5120335,13.6404675 C53.7844444,13.6431719 54.0569392,13.6442201 54.3292872,13.6395031 C54.4186164,13.6379518 54.4316352,13.6795031 54.4302725,13.753717 C54.4269182,13.9370294 54.437673,14.1209287 54.4269392,14.3036751 C54.4118029,14.5611384 54.5014256,14.7863166 54.6194549,15.0040524 C54.9153249,15.5499015 55.3673166,15.9390839 55.8888679,16.2567568 C55.9736897,16.308413 56.0619497,16.3544088 56.1486373,16.4030461 C56.2462683,16.4577841 56.2475052,16.4595451 56.1766667,16.5514109 C56.0457862,16.7211593 55.9106709,16.8877631 55.7833124,17.0600901 C55.736499,17.1234654 55.6995178,17.1360231 55.6303564,17.0922704 C55.2275052,16.8374067 54.8356813,16.5675325 54.472369,16.2580356 C54.2654088,16.0817044 54.0705451,15.8938847 53.9255765,15.6479308" id="Fill-37" fill="#0470B9"></path>
            <path d="M70.088587,16.4626122 C69.9258197,16.670369 69.7707883,16.860914 69.6249602,17.0582306 C69.5705577,17.1318365 69.5273501,17.1301384 69.4582096,17.0847296 C69.1214172,16.8634507 68.7843312,16.6426541 68.471543,16.3877065 C68.2811866,16.2325283 68.0917736,16.0763019 67.9343941,15.8850231 C67.8755472,15.8135136 67.8284193,15.7336184 67.7727799,15.6525702 C67.3183774,16.2848134 66.6798029,16.6777484 66.0589015,17.0914382 C66.0241635,17.1145828 65.9826331,17.155086 65.9370147,17.0963648 C65.7741635,16.8867631 65.6093208,16.6787128 65.4404319,16.4639539 C65.6505157,16.3366792 65.8548973,16.2304319 66.0437023,16.0982306 C66.4425283,15.8190063 66.7882306,15.4900964 67.0337442,15.0643732 C67.1204109,14.9140797 67.1876436,14.7558826 67.2407463,14.5908302 C67.2573501,14.539195 67.258608,14.4883354 67.2586499,14.4361551 C67.2588386,14.2055681 67.260327,13.9749602 67.2579581,13.7443941 C67.2572243,13.6770985 67.2661342,13.6383983 67.3500545,13.6398449 C67.6224864,13.6445199 67.895086,13.6431572 68.1675597,13.6399706 C68.2421509,13.6391111 68.2691321,13.6640587 68.2669727,13.7398658 C68.2623816,13.9021929 68.2758407,14.0655681 68.2631782,14.2270356 C68.2385451,14.5406834 68.3487547,14.8127589 68.5006205,15.0742683 C68.7866373,15.5668889 69.2008721,15.9293627 69.679174,16.225086 C69.8076855,16.3045199 69.9404948,16.3769727 70.088587,16.4626122" id="Fill-39" fill="#0470B9"></path>
            <path d="M47.4195199,14.4296625 L47.2187652,14.4296625 C46.5898973,14.4296625 45.9610294,14.4296415 45.3321614,14.4296625 C45.3007149,14.4296625 45.2692474,14.4290755 45.2378428,14.4301237 C45.1854528,14.4319057 45.1615325,14.4076709 45.1616583,14.3550084 C45.1622034,14.1401447 45.161847,13.9252809 45.1613648,13.7104172 C45.16126,13.6661405 45.1801488,13.6419895 45.2262914,13.6421572 C45.262979,13.6422621 45.2996457,13.64113 45.3363333,13.641109 C46.3163333,13.6410461 47.2963124,13.6410461 48.2763124,13.6410461 C48.3025178,13.6410461 48.3289119,13.643457 48.3548658,13.6410671 C48.4276122,13.6343585 48.4551593,13.6614444 48.4560608,13.738782 C48.4591006,13.9973564 48.4186394,14.249348 48.3528113,14.497608 C48.1185975,15.3805849 47.5693312,16.0059099 46.7724759,16.4305639 C46.3051384,16.6796205 45.8027904,16.8169371 45.2865639,16.9128071 C45.1732725,16.9338344 45.1649916,16.927587 45.1403585,16.8143166 C45.0950335,16.6057212 45.0525597,16.3964969 45.0071719,16.179327 C45.290631,16.1363082 45.5595828,16.0747149 45.8204214,15.979914 C46.3322243,15.7939182 46.7831048,15.5219266 47.1132725,15.0763291 C47.2736289,14.8598931 47.3876541,14.625218 47.4195199,14.4296625" id="Fill-41" fill="#0470B9"></path>
            <path d="M50.7928176,15.2047925 C50.7927966,15.739195 50.7928176,16.2736184 50.7927547,16.8080419 C50.7927547,16.8499497 50.7911614,16.8918784 50.7922516,16.9337652 C50.7935933,16.9860503 50.7704277,17.0088867 50.717304,17.0086289 C50.4501132,17.0075178 50.1829015,17.0067421 49.9157107,17.0088867 C49.8501132,17.0094046 49.8369057,16.9767212 49.8373249,16.9213124 C49.8385618,16.7484403 49.8385828,16.5755262 49.8373459,16.4026331 C49.8358784,16.202717 49.8616855,16.2223606 49.6489602,16.2218994 C49.3083941,16.2211237 48.9678491,16.2221719 48.627304,16.2214801 C48.4970943,16.2212285 48.4960042,16.2200335 48.4951866,16.0941635 C48.4940755,15.9212914 48.494348,15.7483774 48.4948721,15.5754843 C48.4952914,15.4349602 48.4958574,15.4342893 48.6449769,15.4341006 C48.9803019,15.4336604 49.3156059,15.4345828 49.6509308,15.4337652 C49.8586876,15.4332411 49.8358994,15.4545199 49.8375136,15.2502013 C49.8381216,15.1716268 49.8328386,15.0926751 49.8386876,15.0145409 C49.8451447,14.9286918 49.8064444,14.9087547 49.7283312,14.9095723 C49.4296939,14.9127379 49.1310356,14.9113333 48.8323983,14.9105786 C48.707283,14.9102432 48.7064235,14.9090482 48.7057526,14.7806415 C48.7048721,14.6129895 48.7048092,14.4452956 48.7057107,14.2776436 C48.7064235,14.1463438 48.7073249,14.1451279 48.8460881,14.1446876 C49.123761,14.1437652 49.4014549,14.1440377 49.6791279,14.1443732 C49.8545996,14.1445618 49.8373459,14.1490063 49.8375975,13.9795723 C49.8378071,13.8171614 49.8398826,13.6547086 49.836696,13.4923396 C49.8353333,13.4236813 49.8474717,13.3865744 49.9298407,13.388021 C50.1864654,13.3925702 50.4432998,13.3926751 50.6999455,13.3882096 C50.7814759,13.3867841 50.7941174,13.4219832 50.793728,13.491543 C50.7915178,13.8897191 50.7927757,14.2879161 50.7928386,14.6861132 C50.7928595,14.8590063 50.7928386,15.0318994 50.7928176,15.2047925" id="Fill-43" fill="#026FBA"></path>
            <path d="M55.4540922,19.7129895 L53.3641761,19.7129895 C53.3432327,19.7129895 53.3220797,19.7112495 53.3013459,19.7134507 C53.2279287,19.7213333 53.1969853,19.6928008 53.2005073,19.6158616 C53.2055597,19.5061132 53.2021426,19.3959455 53.2021426,19.2859455 C53.2021845,18.7621719 53.2019119,18.2383564 53.2023103,17.7145828 C53.2024151,17.5728428 53.2032746,17.5724444 53.3485786,17.5723187 C53.589543,17.5720671 53.8305073,17.5747715 54.0713878,17.5711027 C54.1518491,17.5698868 54.1801509,17.5945199 54.1791447,17.6783774 C54.1748679,18.0292788 54.1773627,18.3802432 54.1773208,18.7311866 C54.1772998,18.8857987 54.1707589,18.8725702 54.3245535,18.8725912 C55.3773836,18.8727589 56.4302138,18.8727379 57.4830021,18.8727799 C57.5144486,18.8727799 57.5458742,18.8728637 57.5772998,18.8728008 C57.740109,18.8724654 57.7311572,18.8646667 57.7309476,19.0263857 C57.7307379,19.2097191 57.7315556,19.3930314 57.730717,19.5763648 C57.7300881,19.7110818 57.7292075,19.7123816 57.5911572,19.7124864 C56.8788092,19.7129476 56.1664403,19.7126751 55.4540922,19.7126751 L55.4540922,19.7129895 Z" id="Fill-45" fill="#0470B9"></path>
            <path d="M62.4428386,19.7131929 C61.7461929,19.7131929 61.0495052,19.7131929 60.3528595,19.7131719 C60.321434,19.7131719 60.2899455,19.7117463 60.2585828,19.7131509 C60.2063396,19.715478 60.1805325,19.6933816 60.1834675,19.6395241 C60.1848931,19.6134025 60.1834046,19.5871551 60.1834046,19.5609706 C60.1833836,18.9481195 60.1833836,18.3352474 60.1833627,17.7223962 C60.1833627,17.5612222 60.171434,17.5719979 60.3381006,17.5724591 C60.5738449,17.5730881 60.8095472,17.5714319 61.0452495,17.5730042 C61.1553543,17.5737379 61.1577023,17.5761279 61.1581216,17.6874486 C61.1593585,18.0226688 61.1574927,18.3579308 61.1589811,18.6931719 C61.1598826,18.8992725 61.1335514,18.8721656 61.3461719,18.8723543 C62.4095052,18.8732977 63.4728595,18.8726478 64.5361929,18.8728994 C64.7306792,18.8729623 64.711392,18.8565891 64.712,19.0510545 C64.7125236,19.2291468 64.7128595,19.407239 64.7118952,19.5853312 C64.7112453,19.7105723 64.710218,19.7122285 64.5799665,19.7123753 C63.9933208,19.7130461 63.4066541,19.7126688 62.8199874,19.7126897 L62.4428386,19.7126897 L62.4428386,19.7131929 Z" id="Fill-47" fill="#0470B9"></path>
            <path d="M64.7122117,15.4817505 C64.7122956,16.1156289 64.7122956,16.7495493 64.7122746,17.3834277 C64.7122746,17.4200943 64.7104507,17.4568658 64.7123585,17.4934277 C64.7155451,17.5546017 64.6863627,17.575608 64.6274948,17.5752356 C64.3550839,17.5734906 64.082652,17.5733229 63.8102621,17.5745388 C63.7555241,17.5747904 63.7353354,17.5505556 63.7369287,17.4992558 C63.7380818,17.462631 63.736761,17.4259224 63.736761,17.3892558 C63.7367191,16.8391929 63.7367191,16.28913 63.7367191,15.7390252 C63.7367191,15.7023585 63.7375577,15.6656499 63.7364046,15.6290252 C63.7327358,15.5120231 63.7324633,15.5098218 63.6089623,15.5090881 C63.3470335,15.5075157 63.0850839,15.5095073 62.8231551,15.5079769 C62.7122956,15.507327 62.715566,15.5047484 62.7078931,15.395 C62.6939518,15.1956918 62.7401153,14.9990042 62.7299686,14.8001572 C62.72674,14.7369706 62.7593816,14.7178512 62.8165933,14.7213732 C62.8531132,14.7236164 62.8899686,14.7232809 62.9265514,14.7215409 C63.1915409,14.7089413 63.4578092,14.7481866 63.7219182,14.7015618 C63.7557338,14.436153 63.7288155,14.1696122 63.7360901,13.9037002 C63.7396751,13.7728197 63.7371174,13.6417505 63.7366981,13.5107862 C63.7362998,13.3886059 63.7331342,13.3892977 63.8569706,13.3896751 C64.0927149,13.3903669 64.3284591,13.3890881 64.5642034,13.3895493 C64.7109329,13.3898428 64.7118134,13.3906184 64.7121069,13.5329036 C64.712673,13.8053145 64.7121488,14.0777254 64.7121279,14.3501363 C64.7121069,14.727369 64.7121279,15.1045597 64.7122117,15.4817505" id="Fill-49" fill="#0470B9"></path>
            <path d="M56.7556625,15.4881593 C56.7556625,14.8492914 56.7556625,14.2104235 56.7556834,13.5715346 C56.7556834,13.5348889 56.7576122,13.4981384 56.7557463,13.4615975 C56.7529161,13.4064822 56.7801698,13.3893333 56.8317002,13.3897945 C56.978304,13.3911572 57.1249287,13.389522 57.2715535,13.3894363 C57.3972558,13.3893753 57.5229371,13.3909266 57.6485975,13.3895639 C57.7068155,13.388935 57.7372348,13.4096059 57.7314696,13.4721635 C57.7285975,13.5032956 57.7311132,13.5349518 57.7311132,13.5663564 C57.7311342,14.8441132 57.7312809,16.12187 57.7309874,17.3996059 C57.7309455,17.5925409 57.7494151,17.5735681 57.5521405,17.5744277 C57.3322034,17.575413 57.1122662,17.5753291 56.8923291,17.5742809 C56.7574025,17.573673 56.7560189,17.572478 56.7558931,17.4362096 C56.755348,16.7868595 56.7556415,16.1375304 56.7556625,15.4881593" id="Fill-51" fill="#0470B9"></path>
            <path d="M63.310239,1.40914675 C63.6504067,1.40914675 63.9905744,1.41071908 64.3307212,1.40793598 C64.4070314,1.40734382 64.4422725,1.42396855 64.4417337,1.51101258 C64.4382474,2.04478616 64.4406792,2.57858071 64.4394633,3.11237526 C64.4392537,3.21063522 64.4356897,3.21243816 64.314348,3.21254298 C63.6392746,3.21315094 62.9641803,3.21283648 62.289086,3.21283648 C62.2838658,3.21283648 62.2785618,3.21227044 62.2734046,3.21287841 C62.1974088,3.22168344 62.1622306,3.19925157 62.1628717,3.11153669 C62.1666541,2.57778407 62.1666751,2.04394759 62.1629224,1.51019497 C62.1623145,1.42201887 62.1985199,1.40738574 62.2740545,1.40793598 C62.6194423,1.41061426 62.9648512,1.40912579 63.310239,1.40914675" id="Fill-53" fill="#026FBA"></path>
        </g>
    </g>
</svg>