<?xml version="1.0" encoding="UTF-8"?>
<svg width="100px" height="60px" viewBox="0 0 100 60" version="1.1" xmlns="http://www.w3.org/2000/svg" xmlns:xlink="http://www.w3.org/1999/xlink">
    <!-- Generator: Sketch 52.4 (67378) - http://www.bohemiancoding.com/sketch -->
    <title>logo/lendit</title>
    <desc>Created with Sketch.</desc>
    <g id="logo/lendit" stroke="none" stroke-width="1" fill="none" fill-rule="evenodd">
        <g id="로고" transform="translate(22.000000, 24.000000)" fill="#18CBB4">
            <path d="M28.194546,7.96224057 L28.194546,7.35472465 C28.1944661,5.28095331 28.1942263,3.20718197 28.1944261,1.13341063 C28.1944661,0.580064545 28.5674719,0.109688465 29.0699948,0.0271971372 C29.6377757,-0.0659845558 30.1444147,0.227083038 30.3219262,0.768143176 C30.3643659,0.897464687 30.3674429,1.04369931 30.3676028,1.1821555 C30.3707198,4.40581925 30.3670833,7.629483 30.3749558,10.8531069 C30.3765543,11.5120004 29.8591655,12.06766 29.1601093,11.9933061 C28.8271054,11.9578843 28.5735861,11.7884341 28.3806493,11.5284747 C27.2357364,9.98603046 26.0948995,8.44051475 24.9512254,6.89711319 C24.2765859,5.98659721 23.5992291,5.07803581 22.9227514,4.16887608 C22.8878645,4.12196611 22.8496208,4.0775293 22.8106578,4.02918331 C22.7352893,4.13704432 22.7826444,4.24542388 22.7825245,4.34833859 C22.7801667,6.51517196 22.7817652,8.68200532 22.7792076,10.8488387 C22.7783684,11.5558388 22.3038989,12.0177185 21.6143137,11.9941837 C21.0549248,11.9750368 20.6026342,11.4878673 20.601755,10.8953498 C20.5997969,9.55941308 20.5995971,3.04566969 20.6013554,1.12475462 C20.601755,0.69039869 20.7926937,0.343320817 21.1704551,0.13976509 C21.4206975,0.00489894952 21.6799713,-0.0313605363 21.9328912,0.0305877382 C22.1396948,0.0812074164 22.3228409,0.200397013 22.463867,0.359675481 C23.2733385,1.27358206 26.0998548,5.20891301 27.5401274,7.14985257 C27.7444933,7.42528904 27.9492989,7.70040639 28.1539046,7.97564341 C28.174525,7.96886221 28.1739256,7.96902177 28.194546,7.96224057 Z M35.328145,0.0158685409 C35.8588811,0.0394033007 36.514019,-0.0378226229 37.1619638,0.0668073346 C39.2690832,0.407024226 40.7986709,1.54159909 41.7284681,3.45298059 C42.3003252,4.62864157 42.4455873,5.87642262 42.1811983,7.16006426 C41.7510467,9.24851491 40.5281278,10.7036013 38.5862915,11.5577934 C37.9251592,11.8485873 37.220788,11.9921493 36.4939181,11.9947023 C35.5417422,11.9980131 34.5895263,11.9982923 33.6373503,11.996258 C33.0008746,11.9949017 32.5399123,11.5307883 32.5385136,10.8852976 C32.5354365,9.4695821 32.5369551,3.0090512 32.5395926,1.19448133 C32.5404318,0.621389988 32.7758483,0.262425067 33.2566717,0.0693203682 C33.3781964,0.0205356035 33.5029979,0.0164269929 33.6293979,0.0162275458 C34.1554184,0.0153499784 34.6814789,0.0158685409 35.328145,0.0158685409 Z M34.7029785,9.61186767 C34.7024191,9.76839377 34.739344,9.835408 34.9138983,9.83090049 C35.3927636,9.81849488 35.8723483,9.83401187 36.3512136,9.82212482 C37.0827191,9.80393524 37.7718248,9.62351538 38.3836839,9.21205598 C39.8743086,8.20963477 40.498396,6.48525489 39.9210642,4.78732169 C39.4496718,3.40108445 38.4574139,2.5470519 37.0064715,2.25645745 C36.3281555,2.12063396 35.6391297,2.21720626 34.9561781,2.18134567 C34.7447788,2.17025641 34.7005409,2.24389228 34.7017797,2.43755543 C34.7089728,3.62657936 34.7074143,8.40952067 34.7029785,9.61186767 Z M9.80290808,1.18466056 C9.79675392,0.63031724 10.2029682,0.0512424816 10.9235641,0.0555106499 C13.054301,0.0681954865 15.1851579,0.0587018037 17.3159747,0.0603372701 C17.795959,0.0606962749 18.2044911,0.347900123 18.3439188,0.770528564 C18.4785909,1.17895637 18.3318103,1.64654019 17.9743896,1.93135067 C17.7789352,2.08711887 17.5491534,2.13977291 17.3029072,2.13973302 C15.5716309,2.13933413 13.8403147,2.14292417 12.1090785,2.13598341 C11.9249333,2.1352654 11.8770987,2.18456873 11.8794165,2.36654428 C11.8892871,3.13078574 11.8763394,3.89522665 11.8794165,4.65958778 C11.8808951,5.0215843 11.8368569,4.96645712 12.1868047,4.96713524 C13.7249443,4.97016683 15.2631238,4.96522055 16.8012634,4.96968816 C17.4170388,4.97148318 17.8525053,5.42570405 17.842355,6.03589256 C17.832884,6.60611186 17.3741595,7.04417751 16.7758476,7.04505508 C15.2243606,7.04728889 13.6728337,7.04968225 12.1213868,7.04138525 C11.929489,7.04038802 11.8750207,7.08514395 11.8779379,7.28056223 C11.8897667,8.07133016 11.8883281,8.8624571 11.878897,9.6533048 C11.876779,9.83069307 11.9286897,9.87684513 12.1036037,9.8762069 C13.8481873,9.86994426 15.5927709,9.87138028 17.3373544,9.87277641 C17.8374796,9.87317531 18.2693895,10.208765 18.3581053,10.6579199 C18.4653235,11.2007751 18.2241525,11.6728664 17.7358161,11.8750659 C17.611614,11.9265233 17.4828963,11.9511749 17.3474249,11.9510154 C15.1966669,11.948622 13.045869,11.9485821 10.8951111,11.9456303 C10.2462871,11.9447926 9.80910219,11.502738 9.80906223,10.8555321 C9.80890238,9.24040938 9.82073115,2.79296222 9.80290808,1.18466056 Z M56.3992509,10.8643357 C56.3988113,11.5538244 55.9013236,12.0281495 55.2170533,11.9955599 C54.7364696,11.9726634 54.2771058,11.5303694 54.2385424,11.0517761 C54.2331874,10.9856395 54.2342265,10.9189444 54.2342265,10.8524886 C54.2342265,8.04730476 54.2325081,5.24212096 54.2388621,2.43689726 C54.2393416,2.24068118 54.1963424,2.17965037 53.9880202,2.18132572 C52.6362637,2.19229531 51.2843472,2.18914405 49.9324708,2.1874288 C49.3989374,2.18671079 49.0143425,1.90792361 48.8485399,1.41293576 C48.6320255,0.766687212 49.1299927,0.0240658174 49.8113458,0.0200768751 C51.6693017,0.00918706253 53.5273376,0.0116602068 55.3852936,0.0202763222 C55.954593,0.0229090242 56.3983317,0.516381081 56.3988512,1.11260829 C56.4003298,2.74121367 56.4002899,9.242352 56.3992509,10.8643357 Z M0.00373596471,1.14329124 C0.0046950541,0.629475574 0.267045963,0.238519335 0.696438274,0.0850647236 C1.41779338,-0.17270073 2.12767937,0.296598336 2.1705187,1.06020157 C2.17459483,1.13311943 2.17343593,1.20635641 2.17343593,1.27947373 C2.17355581,4.05059197 2.17603346,6.8217501 2.16828082,9.59286834 C2.16772135,9.79638418 2.23437807,9.83268355 2.4167649,9.8317661 C3.76820177,9.82498489 5.1196786,9.82697936 6.47111547,9.82693948 C7.03585927,9.82693948 7.50709185,10.1995865 7.57199024,10.6953322 C7.65475166,11.3273801 7.34964135,11.8098427 6.7587224,11.9715943 C6.67696003,11.9940122 6.58768479,11.9956476 6.50184629,11.9956875 C4.70431297,11.9967645 2.90681961,11.9970438 1.10928629,11.9956476 C0.469453786,11.9951291 0.00253710298,11.5330101 0.0013782033,10.8921067 C-0.00157898897,9.2573584 0.000698848321,2.75809487 0.00373596471,1.14329124 Z M46.6435135,10.851244 C46.6432338,11.7088666 45.8794789,12.2240784 45.0897088,11.9004954 C44.7210588,11.7494342 44.4647821,11.3314728 44.4646223,10.8734624 C44.463823,9.17269709 44.4711761,2.71531745 44.4665804,1.18735309 C44.4654215,0.789296537 44.583909,0.452629804 44.9087206,0.215726519 C45.2619053,-0.0418793773 45.6599674,-0.0640578966 46.0412853,0.123980845 C46.4170885,0.309267217 46.6370397,0.637477392 46.639837,1.06537124 C46.648309,2.36744179 46.644073,9.23021764 46.6435135,10.851244 Z" id="Combined-Shape"></path>
        </g>
    </g>
</svg>