<?xml version="1.0" encoding="UTF-8"?>
<svg width="100px" height="60px" viewBox="0 0 100 60" version="1.1" xmlns="http://www.w3.org/2000/svg" xmlns:xlink="http://www.w3.org/1999/xlink">
    <!-- Generator: Sketch 55.2 (78181) - https://sketchapp.com -->
    <title>logo/lfmall</title>
    <desc>Created with Sketch.</desc>
    <g id="logo/lfmall" stroke="none" stroke-width="1" fill="none" fill-rule="evenodd">
        <g transform="translate(25.000000, 25.000000)" fill="#E0272B" id="Combined-Shape">
            <path d="M0,10.93125 L0,0.00818125 L3.17965326,0.00818125 L3.17965326,10.93125 L0,10.93125 Z M8.61916307,9.02371937 C8.61916307,10.0772444 7.76859881,10.9312569 6.71932761,10.9312569 C5.67012488,10.9312569 4.81949214,10.0772444 4.81949214,9.02371937 C4.81949214,7.97026312 5.67012488,7.11625063 6.71932761,7.11625063 C7.76859881,7.11625063 8.61916307,7.97026312 8.61916307,9.02371937 Z M10.5589248,10.93125 L10.5589248,0.00818125 L13.7386465,0.00818125 L13.7386465,10.93125 L10.5589248,10.93125 Z M19.1781221,7.11624375 C19.1781221,8.1697 18.3275578,9.0237125 17.2782866,9.0237125 C16.2290839,9.0237125 15.3784512,8.1697 15.3784512,7.11624375 C15.3784512,6.06271875 16.2290839,5.20870625 17.2782866,5.20870625 C18.3275578,5.20870625 19.1781221,6.06271875 19.1781221,7.11624375 Z M19.1781221,1.91574625 C19.1781221,2.9692025 18.3275578,3.82328375 17.2782866,3.82328375 C16.2290839,3.82328375 15.3784512,2.9692025 15.3784512,1.91574625 C15.3784512,0.86222125 16.2290839,0.00820875 17.2782866,0.00820875 C18.3275578,0.00820875 19.1781221,0.86222125 19.1781221,1.91574625 Z M23.0110775,3.24764 L24.6375711,3.24764 L24.6375711,4.3453025 C25.2241742,3.542165 26.0241374,2.92637125 27.2773194,2.92637125 C28.5305014,2.92637125 29.4984959,4.25984625 29.4984959,4.25984625 C29.9517148,3.751165 30.6102824,2.92637125 32.1568002,2.92637125 C34.1033339,2.92637125 34.8498885,4.66657125 34.8498885,5.46970875 L34.8498885,10.9312775 L32.9834676,10.9312775 L32.9834676,5.81779 C32.9834676,5.30910875 32.8500834,4.47915875 31.4369498,4.47915875 C30.0237477,4.47915875 29.7570477,5.68393375 29.7570477,5.68393375 L29.7570477,10.9312775 L27.8906268,10.9312775 L27.8906268,5.73749 C27.8906268,5.442965 27.6772667,4.47915875 26.4507205,4.47915875 C25.2241742,4.47915875 24.6375711,5.65712125 24.6375711,5.65712125 L24.6375711,10.9312775 L23.0110775,10.9312775 L23.0110775,3.24764 Z M49.2751422,10.93125 L49.2751422,0.00818125 L50.875,0.00818125 L50.875,10.93125 L49.2751422,10.93125 Z M45.4155579,10.93125 L45.4155579,0.00818125 L47.0154157,0.00818125 L47.0154157,10.93125 L45.4155579,10.93125 Z M40.1560346,2.926385 C41.7411024,2.926385 43.4957079,4.13837875 43.4957079,5.85121625 L43.4957079,10.9312912 L41.8759246,10.9312912 L41.8759246,9.88711625 C41.2759694,10.6100225 40.3426904,10.9312912 39.336146,10.9312912 C38.3428852,10.9312912 36.4763958,10.5296537 36.4763958,8.60211 C36.4763958,6.6744975 38.476201,6.11226 39.7561558,6.11226 C41.0359736,6.11226 41.8759246,6.47367875 41.8759246,6.47367875 C41.8759246,5.06815375 41.1559372,4.52599125 39.8960449,4.44569125 C38.636221,4.36539125 37.8362579,4.88741 37.8362579,4.88741 L37.1563953,3.68270375 C37.1563953,3.68270375 38.0962476,2.926385 40.1560346,2.926385 Z M41.429553,9.1882725 C41.6990604,8.8981475 41.939604,8.43814125 41.8549721,8.04351625 C41.6159349,6.92880375 39.8427734,6.9989975 39.0256921,7.37334125 C38.4903748,7.61850375 38.0488647,8.0283225 38.0875516,8.6957475 C38.133839,9.49510375 38.9585207,9.86030377 39.6160612,9.86030377 C40.2739441,9.8603725 40.9773612,9.6752975 41.429553,9.1882725 Z"></path>
        </g>
    </g>
</svg>