<?xml version="1.0" encoding="UTF-8"?>
<svg width="100px" height="60px" viewBox="0 0 100 60" version="1.1" xmlns="http://www.w3.org/2000/svg" xmlns:xlink="http://www.w3.org/1999/xlink">
    <!-- Generator: Sketch 55.2 (78181) - https://sketchapp.com -->
    <title>logo/lg_academy</title>
    <desc>Created with Sketch.</desc>
    <defs>
        <polygon id="path-1" points="0 0.101659091 13.1781045 0.101659091 13.1781045 13.2692477 0 13.2692477"></polygon>
        <polygon id="path-3" points="0.109136364 0.0633022727 6.17288636 0.0633022727 6.17288636 8.90909091 0.109136364 8.90909091"></polygon>
    </defs>
    <g id="logo/lg_academy" stroke="none" stroke-width="1" fill="none" fill-rule="evenodd">
        <g id="Group-29" transform="translate(10.000000, 23.000000)">
            <g id="Group-3" transform="translate(0.000000, 0.057352)">
                <mask id="mask-2" fill="white">
                    <use xlink:href="#path-1"></use>
                </mask>
                <g id="Clip-2"></g>
                <path d="M6.58919545,13.2692477 C10.2250591,13.2692477 13.1781045,10.3247932 13.1781045,6.68717955 C13.1777864,3.04940682 10.2250591,0.101611364 6.58919545,0.101611364 C2.94760455,0.101611364 -3.18181818e-05,3.04940682 -3.18181818e-05,6.68717955 C-3.18181818e-05,10.3247932 2.94760455,13.2692477 6.58919545,13.2692477" id="Fill-1" fill="#C40452" mask="url(#mask-2)"></path>
            </g>
            <polygon id="Fill-4" fill="#FFFFFF" points="6.32445227 3.85432727 6.32445227 9.63139545 8.16052045 9.63139545 8.16052045 9.11180455 6.85358864 9.11180455 6.85358864 3.85432727"></polygon>
            <path d="M4.48504318,5.430775 C4.92238409,5.430775 5.27445227,5.07568409 5.27445227,4.64168409 C5.27445227,4.20768409 4.92238409,3.850525 4.48504318,3.850525 C4.04849773,3.850525 3.69595227,4.20736591 3.69595227,4.64168409 C3.69595227,5.07600227 4.04849773,5.430775 4.48504318,5.430775" id="Fill-6" fill="#FFFFFF"></path>
            <path d="M6.85322273,1.23413182 C6.78417727,1.23095 6.65372273,1.22649545 6.59088182,1.22649545 C3.54938182,1.22649545 1.07456364,3.70242727 1.07456364,6.74138182 C1.07456364,8.21806364 1.64856364,9.60199545 2.68758636,10.64245 C3.73090455,11.6805182 5.11499545,12.2543591 6.59088182,12.2543591 C8.06104091,12.2543591 9.44513182,11.6805182 10.4867,10.64245 C11.52795,9.60199545 12.1041773,8.21806364 12.1041773,6.74138182 L12.1041773,6.49654091 L11.88145,6.49654091 L8.16524545,6.49654091 L8.16524545,7.00388182 L11.5788591,7.00388182 C11.5788591,7.01517727 11.5788591,7.06879091 11.5766318,7.08310909 C11.4032227,9.68154091 9.23274545,11.7395409 6.59056364,11.7395409 C5.25292727,11.7395409 3.99897273,11.2193136 3.05508636,10.2744727 C2.10833636,9.33408636 1.58667727,8.08045 1.58667727,6.74106364 C1.58667727,5.41058636 2.10833636,4.15058636 3.05508636,3.20733636 C3.99897273,2.26392727 5.25324545,1.7437 6.59056364,1.7437 C6.64799545,1.7437 6.78863182,1.7437 6.85290455,1.74751818 L6.85290455,1.23413182 L6.85322273,1.23413182 Z" id="Fill-8" fill="#FFFFFF"></path>
            <path d="M56.1345909,9.36843409 C55.2048636,9.91172955 54.4210227,9.56554773 54.2741818,8.55882045 C54.2363182,8.30045682 54.2460227,8.03334318 54.2531818,7.77084318 C54.28675,6.51911591 54.8252727,6.09657045 56.1345909,6.35350227 L56.1345909,9.36843409 Z M56.1384091,4.94029773 C55.6574773,4.91357045 55.2362045,4.84945682 54.8203409,4.87507045 C53.6879318,4.94475227 52.9133182,5.55804773 52.6140682,6.60884318 C52.3566591,7.513275 52.3076591,8.43568409 52.5688864,9.34616136 C52.9101364,10.5371159 53.7001818,11.0489114 54.8289318,11.0489114 C55.3464545,11.0489114 55.7942955,10.9878205 56.3542955,10.703525 C56.3953409,10.7950023 56.4508636,10.9050932 56.4508636,10.9050932 L58.0040682,10.9050932 L58.0040682,2.23607045 L56.1384091,2.23607045 L56.1384091,4.94029773 Z" id="Fill-10" fill="#6D6E71"></path>
            <g id="Group-14" transform="translate(73.181818, 4.989170)">
                <mask id="mask-4" fill="white">
                    <use xlink:href="#path-3"></use>
                </mask>
                <g id="Clip-13"></g>
                <path d="M4.37022727,0.0633022727 L3.22875,3.87209773 L2.08377273,0.0633022727 L0.109136364,0.0633022727 C0.109136364,0.0633022727 1.64913636,3.98298409 2.37888636,5.84021136 C2.15727273,6.98725682 1.54334091,7.53755227 0.428113636,7.31593864 L0.274113636,8.868825 C0.913818182,8.90684773 1.54493182,8.98973409 2.18861364,8.69414318 C3.05565909,8.29577955 3.50684091,7.58909773 3.81325,6.74989318 C4.55397727,4.72148409 6.17288636,0.0633022727 6.17288636,0.0633022727 L4.37022727,0.0633022727 Z" id="Fill-12" fill="#6D6E71" mask="url(#mask-4)"></path>
            </g>
            <path d="M49.168,9.73602955 C48.78825,9.81398409 48.4651364,9.61352955 48.3945,9.25637045 C48.3246591,8.903825 48.5370455,8.55796136 48.9083636,8.50227955 C49.1842273,8.46091591 49.4710682,8.49400682 49.7415227,8.49400682 C49.8665682,9.38793864 49.75425,9.61575682 49.168,9.73602955 M51.6991364,8.772575 C51.7139318,8.13859773 51.7242727,7.50191591 51.68625,6.86937045 C51.6164091,5.708325 51.1109773,5.04189318 50.1106136,4.89839318 C48.9708864,4.73484773 47.8518409,4.85321136 46.7396364,5.47652955 C46.8556136,5.86423409 46.9695227,6.24462045 47.0598864,6.54705227 C47.8827045,6.29346136 48.4121591,6.22075682 48.9455909,6.27198409 C49.5544318,6.33021136 49.6995227,6.45096136 49.7945,7.24418864 C49.3415682,7.24418864 48.8956364,7.21221136 48.45575,7.25023409 C47.1109545,7.36621136 46.4249545,8.14337045 46.4970227,9.42946136 C46.5515909,10.4016659 47.1163636,10.9594386 48.0974773,11.0477341 C48.8353409,11.1142341 49.5094091,10.9605523 50.1107727,10.5106432 C50.7310682,11.019575 51.4030682,11.1073932 52.1595455,10.9557795 L52.1595455,9.63755227 C51.7010455,9.52412045 51.6900682,9.16600682 51.6991364,8.772575" id="Fill-15" fill="#6D6E71"></path>
            <path d="M61.4736182,6.14436136 C61.9443682,6.12129318 62.2176864,6.43486136 62.3503682,7.19992955 L60.6648,7.19992955 C60.6856409,6.51933864 60.9651636,6.16902045 61.4736182,6.14436136 M63.2503455,9.40938409 C62.7059364,9.49338409 62.1580273,9.62399773 61.6129818,9.61652045 C60.9265045,9.60729318 60.69455,9.28561136 60.6851636,8.495725 L64.0472318,8.495725 C64.0472318,7.87590682 64.0410273,7.27581591 63.95655,6.73506591 C63.8073227,5.77686136 63.2762773,5.13508864 62.2929364,4.97520227 C61.8037318,4.89549773 61.4483227,4.841725 60.9611864,4.90281591 C59.8197091,5.04631591 59.1022091,5.71449773 58.8390727,6.84802045 C58.6319364,7.74179318 58.65055,8.63349773 58.9248227,9.50642955 C59.2081636,10.406725 59.8704591,10.9018159 60.7841182,11.0119068 C61.7353227,11.1262932 62.6874818,11.1000432 63.5892091,10.705975 C63.7742318,10.6249977 63.9446182,10.5102932 64.1422091,10.399725 C64.0101636,9.98767955 63.89355,9.62383864 63.7678682,9.23167955 C63.5438682,9.31058864 63.4010045,9.38615682 63.2503455,9.40938409" id="Fill-17" fill="#6D6E71"></path>
            <path d="M43.4267432,6.51163864 C43.7398341,6.28970682 44.2053341,6.20204773 44.5799932,6.27236591 C44.8673114,6.32629773 45.1271068,6.49397955 45.3552432,6.66882045 C45.6605386,6.342525 45.8592432,6.12982045 46.2206977,5.74338864 C45.9472205,5.46259318 45.650675,5.22443409 45.347925,5.09763864 C44.616425,4.79138864 43.863925,4.81843409 43.0936068,4.98261591 C42.0840159,5.19754773 41.4508341,5.76947955 41.2016977,6.77191136 C40.9800841,7.66234318 40.9918568,8.55150227 41.2411523,9.43063864 C41.4237886,10.0751159 41.8170614,10.5997977 42.4543795,10.8088432 C43.6943341,11.2150023 44.9347659,11.2024341 46.2087659,10.5865932 C46.1051977,10.1335023 46.0086295,9.71175227 45.9010841,9.24132045 C45.5725614,9.34170682 45.3288341,9.43175227 45.0776295,9.48854773 C44.796675,9.55186591 44.5091977,9.62266136 44.2242659,9.62361591 C43.4913341,9.62568409 43.0166068,9.21236591 42.9365841,8.49454773 C42.8958568,8.12911591 42.8968114,7.75079773 42.9408795,7.38568409 C42.9827205,7.04093409 43.1386295,6.71559318 43.4267432,6.51163864" id="Fill-19" fill="#6D6E71"></path>
            <path d="M36.9103,7.19397955 L35.9178909,7.19397955 L36.8993227,3.80534318 L37.9027091,7.19397955 L36.9103,7.19397955 Z M35.7923682,2.45132045 L32.9875955,10.8756614 L34.7854818,10.8756614 L35.4457091,8.86268409 L36.9103,8.86268409 L38.3748909,8.86268409 L39.0351182,10.8756614 L40.8330045,10.8756614 L38.0282318,2.45132045 L35.7923682,2.45132045 Z" id="Fill-21" fill="#6D6E71"></path>
            <path d="M71.465275,4.88545909 C70.8709114,4.88673182 70.2768659,5.05282273 69.4557977,5.18025455 C69.3840477,5.19139091 69.2107977,5.08177727 69.1390477,5.05489091 C69.0442295,5.01941364 68.9490932,4.98552727 68.8523659,4.95561818 C68.6881841,4.90502727 68.520025,4.86620909 68.3482068,4.85364091 C68.051025,4.83168636 67.7516159,4.88084545 67.4652523,4.95816364 C67.4117977,4.97264091 66.6634341,5.23386818 66.6941386,5.27602727 L66.4626614,4.96245909 L64.9256841,4.96245909 L64.9256841,5.02355 L64.9256841,7.36648182 L64.9256841,10.9224818 L66.7813205,10.9224818 L66.7813205,6.70561818 C67.7053205,6.22118636 68.1062295,6.42355 68.124525,7.33450455 C68.1372523,7.96975455 68.124525,10.9224818 68.124525,10.9224818 L69.9849341,10.9224818 L69.9849341,6.63482273 C70.8823659,6.26795909 71.3146159,6.49593636 71.3146159,7.33498182 L71.3146159,10.9224818 L73.162775,10.9224818 C73.162775,10.9224818 73.2095477,7.90850455 73.1459114,6.43325455 C73.1051841,5.48539091 72.4249114,4.88307273 71.465275,4.88545909" id="Fill-23" fill="#6D6E71"></path>
            <polygon id="Fill-25" fill="#6D6E71" points="18.1382727 2.38147955 16.1588636 2.38147955 16.1588636 10.9518659 22.2393182 10.9518659 22.2393182 9.28363864 18.1382727 9.28363864"></polygon>
            <path d="M26.5949568,7.68601591 L28.2071841,7.68601591 L28.2071841,9.18481136 C27.9096841,9.297925 27.3304341,9.41103864 26.7787068,9.41103864 C24.9967295,9.41103864 24.4030023,8.50533409 24.4030023,6.66815227 C24.4030023,4.91433409 24.9682523,3.881675 26.7503886,3.881675 C27.7407295,3.881675 28.3062977,4.19222045 28.772275,4.78658409 L30.0030023,3.65449318 C29.2532068,2.58062955 27.9376841,2.25497045 26.7075932,2.25497045 C23.9354341,2.25497045 22.4794341,3.76872045 22.4794341,6.65303864 C22.4794341,9.523675 23.7943205,11.0792659 26.6937523,11.0792659 C28.0231159,11.0792659 29.3238432,10.7400841 30.0306841,10.2454705 L30.0306841,6.08731136 L26.5949568,6.08731136 L26.5949568,7.68601591 Z" id="Fill-27" fill="#6D6E71"></path>
        </g>
    </g>
</svg>