<?xml version="1.0" encoding="UTF-8"?>
<svg width="100px" height="60px" viewBox="0 0 100 60" version="1.1" xmlns="http://www.w3.org/2000/svg" xmlns:xlink="http://www.w3.org/1999/xlink">
    <!-- Generator: Sketch 55.2 (78181) - https://sketchapp.com -->
    <title>logo/lg_electronics</title>
    <desc>Created with Sketch.</desc>
    <defs>
        <polygon id="path-1" points="0.0192230769 0.236201923 3.63930769 0.236201923 3.63930769 10.8935673 0.0192230769 10.8935673"></polygon>
    </defs>
    <g id="logo/lg_electronics" stroke="none" stroke-width="1" fill="none" fill-rule="evenodd">
        <g transform="translate(18.000000, 22.000000)">
            <path d="M8.477475,16.9556365 C13.1586865,16.9556365 16.9575327,13.1620212 16.9575327,8.47950192 C16.9575327,3.79632885 13.1586865,9.80769231e-05 8.477475,9.80769231e-05 C3.79626346,9.80769231e-05 3.26923077e-05,3.79632885 3.26923077e-05,8.47950192 C3.26923077e-05,13.1620212 3.79626346,16.9556365 8.477475,16.9556365" id="Fill-1" fill="#C30452"></path>
            <polygon id="Fill-3" fill="#FEFEFE" points="8.13920769 4.75761346 8.13920769 12.1902096 10.50515 12.1902096 10.50515 11.5291712 8.81822692 11.5291712 8.81822692 4.75761346"></polygon>
            <path d="M5.77333077,6.78669423 C6.33171538,6.78669423 6.78679231,6.33063654 6.78679231,5.77094423 C6.78679231,5.20994423 6.33171538,4.75519423 5.77333077,4.75519423 C5.21102308,4.75519423 4.75496538,5.20994423 4.75496538,5.77094423 C4.75496538,6.33063654 5.21102308,6.78669423 5.77333077,6.78669423" id="Fill-5" fill="#FEFEFE"></path>
            <path d="M8.81812885,1.38383269 C8.73018654,1.38121731 8.56149423,1.37860192 8.477475,1.37860192 C4.56584038,1.37860192 1.379975,4.56348654 1.379975,8.47414038 C1.379975,10.3738904 2.11980192,12.1539865 3.46345577,13.4963327 C4.80024423,14.8357365 6.581975,15.5716404 8.477475,15.5716404 C10.3742827,15.5716404 12.1547058,14.8357365 13.4954173,13.4963327 C14.8351481,12.1539865 15.574975,10.3738904 15.574975,8.47414038 L15.574975,8.15539038 L15.2885904,8.15539038 L10.5063596,8.15539038 L10.5063596,8.81119808 L14.9002058,8.81119808 C14.8988981,8.82656346 14.8988981,8.896525 14.8988981,8.90960192 C14.6746288,12.2550058 11.8823788,14.9109288 8.477475,14.9109288 C6.76080192,14.9109288 5.14645577,14.2397558 3.92964808,13.0271981 C2.71316731,11.8094096 2.04460962,10.1947365 2.04460962,8.47414038 C2.04460962,6.75812115 2.71316731,5.14115962 3.92964808,3.92696731 C5.14645577,2.71048654 6.76080192,2.04192885 8.477475,2.04192885 C8.55528269,2.04192885 8.73541731,2.04192885 8.81812885,2.04585192 L8.81812885,1.38383269 Z" id="Fill-7" fill="#FEFEFE"></path>
            <polygon id="Fill-9" fill="#77787B" points="21.1942923 13.5609327 28.5484269 13.5609327 28.5484269 11.3427596 24.1107731 11.3427596 23.8930423 11.3427596 23.8930423 11.1250288 23.8930423 3.39068269 21.1942923 3.39068269"></polygon>
            <path d="M37.4288673,4.10602308 C36.5880212,3.45283077 35.5010019,3.12263846 34.2054058,3.12263846 C32.6685404,3.12263846 31.3834058,3.59438846 30.4892712,4.48688846 C29.5604827,5.41861923 29.0629058,6.79169615 29.0629058,8.46129231 C29.0629058,10.2417154 29.5836942,11.7445808 30.5320981,12.6929846 C31.2771558,13.4367346 32.2696942,13.8306769 33.4018288,13.8306769 C35.8923288,13.8306769 36.4673865,12.3379462 36.4673865,12.3379462 L36.4673865,13.0218692 L36.4673865,13.5609654 L38.7140019,13.5609654 L38.7140019,7.81529231 L34.2390788,7.81529231 L34.2390788,9.61435 L36.0374827,9.61435 L36.2964058,9.61435 C36.2964058,9.61435 36.3173288,11.8766577 34.1897135,11.8766577 C33.6506173,11.8766577 33.1687327,11.67985 32.8006173,11.3091192 C32.2255596,10.73635 31.9195596,9.76211923 31.9195596,8.50281154 C31.9195596,6.41867692 32.7476558,5.17211923 34.1380596,5.17211923 C35.0021173,5.17211923 35.6549827,5.70631154 35.8220404,6.51185 L38.6855596,6.51185 C38.5381173,5.34081154 38.2167519,4.72783077 37.4288673,4.10602308" id="Fill-11" fill="#77787B"></path>
            <path d="M58.9301077,9.78023077 C57.9235115,9.30357692 56.5994731,7.78305769 56.5994731,6.03271154 L56.5994731,4.80936538 L58.4779731,4.80936538 L58.5351846,4.80936538 L58.7009346,4.80936538 L58.7009346,4.65146154 L58.7009346,4.59457692 L58.7009346,3.58373077 L58.7009346,3.52161538 L58.7009346,3.36371154 L58.5351846,3.36371154 L58.4779731,3.36371154 L52.6786846,3.36371154 L52.6165692,3.36371154 L52.4504923,3.36371154 L52.4504923,3.52161538 L52.4504923,3.58373077 L52.4504923,4.59457692 L52.4504923,4.65146154 L52.4504923,4.80936538 L52.6165692,4.80936538 L52.6786846,4.80936538 L54.5519538,4.80936538 L54.5519538,6.03271154 C54.5519538,7.78305769 53.2305308,9.30357692 52.2252423,9.78023077 L52.1889538,9.79592308 L52.1006846,9.83973077 L52.1006846,9.94107692 L52.1006846,9.97736538 L52.1006846,11.0447692 L52.1006846,11.1251923 L52.1006846,11.3350769 L52.3053385,11.2781923 L52.3844538,11.2572692 C53.4430308,10.9669615 54.7324154,10.0885192 55.5794731,8.94330769 C56.4206462,10.0885192 57.7110115,10.9669615 58.7682808,11.2572692 L58.8483769,11.2781923 L59.0546654,11.3350769 L59.0546654,11.1251923 L59.0546654,11.0447692 L59.0546654,9.97736538 L59.0546654,9.94107692 L59.0546654,9.83973077 L58.9650885,9.79592308 L58.9301077,9.78023077 Z" id="Fill-13" fill="#77787B"></path>
            <g id="Group-17" transform="translate(59.826923, 2.897944)">
                <mask id="mask-2" fill="white">
                    <use xlink:href="#path-1"></use>
                </mask>
                <g id="Clip-16"></g>
                <polygon id="Fill-15" fill="#77787B" mask="url(#mask-2)" points="3.47610769 2.91435577 3.41399231 2.91435577 1.90589615 2.91435577 1.90589615 0.455240385 1.90589615 0.395740385 1.90589615 0.236201923 1.73981923 0.236201923 1.67770385 0.236201923 0.246107692 0.236201923 0.183992308 0.236201923 0.0192230769 0.236201923 0.0192230769 0.395740385 0.0192230769 0.455240385 0.0192230769 10.6758365 0.0192230769 10.7382788 0.0192230769 10.8935673 0.183992308 10.8935673 0.246107692 10.8935673 1.67770385 10.8935673 1.73981923 10.8935673 1.90589615 10.8935673 1.90589615 10.7382788 1.90589615 10.6758365 1.90589615 4.36295192 3.41399231 4.36295192 3.47610769 4.36295192 3.63956923 4.36295192 3.63956923 4.20210577 3.63956923 4.14260577 3.63956923 3.12947115 3.63956923 3.07225962 3.63956923 2.91435577"></polygon>
            </g>
            <path d="M47.0036269,3.36358077 L47.0036269,3.52148462 L47.0036269,3.58392692 L47.0036269,4.59444615 L47.0036269,4.65133077 L47.0036269,4.80956154 L46.8378769,4.80956154 L46.7793577,4.80956154 L44.9021654,4.80956154 L44.9021654,4.82885 C44.9021654,6.52754231 46.1977615,7.50700385 47.1759154,7.70675385 L47.2265885,7.71688846 L47.3547423,7.74042692 L47.3547423,7.86988846 L47.3547423,7.91925385 L47.3547423,8.91735 L47.3547423,8.98469615 L47.3547423,9.15567692 L47.1798385,9.14292692 L47.1151077,9.13769615 C46.0578385,9.06511923 44.7880692,8.52079231 43.8785692,7.47333077 C42.9703769,8.52079231 41.6953769,9.06511923 40.6394154,9.13769615 L40.5773,9.14292692 L40.4037038,9.15567692 L40.4037038,8.98469615 L40.4037038,8.91735 L40.4037038,7.91925385 L40.4037038,7.86988846 L40.4037038,7.74042692 L40.5292423,7.71688846 L40.5799154,7.70675385 C41.5567615,7.50700385 42.8536654,6.54323462 42.8536654,4.82885 L42.8536654,4.80956154 L40.9787615,4.80956154 L40.9166462,4.80956154 L40.7535115,4.80956154 L40.7535115,4.65133077 L40.7535115,4.59444615 L40.7535115,3.58392692 L40.7535115,3.52148462 L40.7535115,3.36358077 L47.0036269,3.36358077 Z" id="Fill-18" fill="#77787B"></path>
            <polygon id="Fill-20" fill="#77787B" points="47.164375 5.37700192 47.1022596 5.37700192 46.9387981 5.37700192 46.9387981 5.53490577 46.9387981 5.59734808 46.9387981 6.60786731 46.9387981 6.66475192 46.9387981 6.82559808 47.1022596 6.82559808 47.164375 6.82559808 48.6763942 6.82559808 48.6763942 9.91240577 48.6763942 9.97190577 48.6763942 10.1301365 48.8382212 10.1301365 48.9006635 10.1301365 50.3335673 10.1301365 50.3930673 10.1301365 50.5588173 10.1301365 50.5588173 9.97190577 50.5588173 9.91240577 50.5588173 3.35334808 50.5588173 3.29352115 50.5588173 3.13430962 50.3930673 3.13430962 50.3335673 3.13430962 48.9006635 3.13430962 48.8382212 3.13430962 48.6763942 3.13430962 48.6763942 3.29352115 48.6763942 3.35334808 48.6763942 5.37700192"></polygon>
            <path d="M50.3983308,12.3431115 L50.3336,12.3431115 L44.1220615,12.3431115 L44.1220615,9.90459231 L44.1220615,9.84509231 L44.1220615,9.68686154 L43.9576192,9.68686154 L43.8994269,9.68686154 L42.4648885,9.68686154 L42.4014654,9.68686154 L42.2409462,9.68686154 L42.2409462,9.84509231 L42.2409462,9.90459231 L42.2409462,12.5866692 C42.2409462,12.9521692 42.3524269,13.2578423 42.5727731,13.4703423 C42.7901769,13.6802269 43.1036962,13.7917077 43.4835808,13.7917077 L50.3336,13.7917077 L50.3983308,13.7917077 L50.5640808,13.7917077 L50.5640808,13.6360923 L50.5640808,13.5739769 L50.5640808,12.5634577 L50.5640808,12.5036308 L50.5640808,12.3431115 L50.3983308,12.3431115 Z" id="Fill-22" fill="#77787B"></path>
        </g>
    </g>
</svg>