<?xml version="1.0" encoding="UTF-8"?>
<svg width="100px" height="60px" viewBox="0 0 100 60" version="1.1" xmlns="http://www.w3.org/2000/svg" xmlns:xlink="http://www.w3.org/1999/xlink">
    <title>lgacademy</title>
    <defs>
        <polygon id="path-1" points="0 0.668430769 13.5257846 0.668430769 13.5257846 14.1822769 0 14.1822769"></polygon>
    </defs>
    <g id="lgacademy" stroke="none" stroke-width="1" fill="none" fill-rule="evenodd">
        <g id="Group-28" transform="translate(9.000000, 22.000000)">
            <g id="Group-3" transform="translate(0.000000, 0.563077)">
                <mask id="mask-2" fill="white">
                    <use xlink:href="#path-1"></use>
                </mask>
                <g id="Clip-2"></g>
                <path d="M6.76270769,14.1822769 C10.4944,14.1822769 13.5257846,11.1607385 13.5257846,7.42781538 C13.5257846,3.69366154 10.4944,0.668430769 6.76270769,0.668430769 C3.02486154,0.668430769 -0.000369230769,3.69366154 -0.000369230769,7.42781538 C-0.000369230769,11.1607385 3.02486154,14.1822769 6.76270769,14.1822769" id="Fill-1" fill="#B7154F" mask="url(#mask-2)"></path>
            </g>
            <polygon id="Fill-4" fill="#FEFEFE" points="6.49107692 5.02301538 6.49107692 10.9528615 8.37538462 10.9528615 8.37538462 10.4199385 7.03384615 10.4199385 7.03384615 5.02301538"></polygon>
            <g id="Group-27" transform="translate(0.000000, 1.793846)">
                <path d="M4.60344615,4.84812308 C5.05267692,4.84812308 5.41329231,4.48258462 5.41329231,4.03827692 C5.41329231,3.59150769 5.05267692,3.22596923 4.60344615,3.22596923 C4.15544615,3.22596923 3.7936,3.59150769 3.7936,4.03827692 C3.7936,4.48381538 4.15544615,4.84812308 4.60344615,4.84812308" id="Fill-5" fill="#FEFEFE"></path>
                <path d="M7.03372308,0.540430769 C6.96233846,0.536738462 6.82941538,0.531815385 6.76418462,0.531815385 C3.64295385,0.531815385 1.10264615,3.07458462 1.10264615,6.19335385 C1.10264615,7.70843077 1.69218462,9.12996923 2.75803077,10.1970462 C3.8288,11.2628923 5.25033846,11.8512 6.76418462,11.8512 C8.27310769,11.8512 9.69464615,11.2628923 10.7629538,10.1970462 C11.8312615,9.12996923 12.4232615,7.70843077 12.4232615,6.19335385 L12.4232615,5.94227692 L12.1943385,5.94227692 L8.38018462,5.94227692 L8.38018462,6.46289231 L11.8841846,6.46289231 C11.8841846,6.47396923 11.8841846,6.52812308 11.8817231,6.54412308 C11.7032615,9.2112 9.47556923,11.3232 6.76418462,11.3232 C5.39187692,11.3232 4.10449231,10.7890462 3.13587692,9.8192 C2.16356923,8.85427692 1.62818462,7.56689231 1.62818462,6.19335385 C1.62818462,4.82596923 2.16356923,3.53366154 3.13587692,2.56627692 C4.10449231,1.59643077 5.39187692,1.06350769 6.76418462,1.06350769 C6.82326154,1.06350769 6.96726154,1.06350769 7.03372308,1.0672 L7.03372308,0.540430769 Z" id="Fill-7" fill="#FEFEFE"></path>
                <path d="M57.6184615,4.34449231 C57.1249231,4.31741538 56.6929231,4.25095385 56.2658462,4.2768 C55.104,4.34941538 54.3089231,4.97833846 54.0012308,6.05772308 C53.7366154,6.98572308 53.6873846,7.93218462 53.9544615,8.86633846 C54.3052308,10.0884923 55.1163077,10.6140308 56.2744615,10.6140308 C56.8049231,10.6140308 57.2652308,10.5512615 57.84,10.2595692 C57.8818462,10.3531077 57.9396923,10.4663385 57.9396923,10.4663385 L59.5335385,10.4663385 L59.5335385,1.56910769 L57.6184615,1.56910769 L57.6184615,4.34449231 Z M57.6147692,8.88849231 C56.6609231,9.44726154 55.856,9.09033846 55.7046154,8.05895385 C55.6664615,7.79310769 55.6763077,7.51864615 55.6836923,7.24910769 C55.7181538,5.96418462 56.2707692,5.53095385 57.6147692,5.79556923 L57.6147692,8.88849231 Z" id="Fill-9" fill="#6D6E71"></path>
                <path d="M79.5969231,4.45993846 L78.4252308,8.36886154 L77.2498462,4.45993846 L75.2227692,4.45993846 C75.2227692,4.45993846 76.8030769,8.48332308 77.5526154,10.3885538 C77.3249231,11.5651692 76.696,12.1300923 75.5501538,11.9036308 L75.3926154,13.4974769 C76.0498462,13.5356308 76.6972308,13.6205538 77.3581538,13.3177846 C78.2467692,12.9091692 78.7107692,12.1830154 79.0246154,11.3227077 C79.7852308,9.24024615 81.4467692,4.45993846 81.4467692,4.45993846 L79.5969231,4.45993846 Z" id="Fill-11" fill="#6D6E71"></path>
                <path d="M53.0620308,8.27729231 C53.0768,7.62744615 53.0878769,6.97267692 53.0484923,6.32406154 C52.9771077,5.13267692 52.4589538,4.4496 51.4312615,4.30190769 C50.2620308,4.13329231 49.1137231,4.25390769 47.9715692,4.89513846 C48.0909538,5.29267692 48.2078769,5.68406154 48.3001846,5.99421538 C49.1444923,5.73329231 49.6884923,5.65821538 50.2361846,5.71113846 C50.8601846,5.77144615 51.0103385,5.89452308 51.1075692,6.70929231 C50.6423385,6.70929231 50.1844923,6.67606154 49.7328,6.71421538 C48.3531077,6.8336 47.6491077,7.63236923 47.7229538,8.95175385 C47.7795692,9.94867692 48.3580308,10.5222154 49.3660308,10.6120615 C50.1229538,10.6809846 50.8146462,10.5234462 51.4324923,10.0619077 C52.0688,10.5837538 52.7580308,10.6736 53.5346462,10.5185231 L53.5346462,9.16590769 C53.0632615,9.04898462 53.0534154,8.68098462 53.0620308,8.27729231 M50.4638769,9.26683077 C50.0749538,9.34683077 49.7426462,9.14006154 49.6700308,8.77329231 C49.5986462,8.41144615 49.8164923,8.05698462 50.1980308,8.00036923 C50.4811077,7.95729231 50.7752615,7.99175385 51.0534154,7.99175385 C51.1814154,8.90990769 51.0657231,9.14252308 50.4638769,9.26683077" id="Fill-13" fill="#6D6E71"></path>
                <path d="M64.9177846,8.93107692 C64.3590154,9.01723077 63.7965538,9.15138462 63.2377846,9.144 C62.5325538,9.13415385 62.2950154,8.80307692 62.2851692,7.99323077 L65.7362462,7.99323077 C65.7362462,7.35815385 65.7300923,6.74153846 65.6427077,6.18646154 C65.4888615,5.20307692 64.9436308,4.54461538 63.9356308,4.38092308 C63.4334769,4.29846154 63.0691692,4.24307692 62.5682462,4.30584615 C61.3965538,4.45230769 60.6605538,5.13907692 60.3897846,6.30215385 C60.1780923,7.21907692 60.1965538,8.136 60.4784,9.03076923 C60.7688615,9.95507692 61.4494769,10.4633846 62.3860923,10.5766154 C63.3633231,10.6935385 64.3405538,10.6664615 65.2660923,10.2615385 C65.4556308,10.1790769 65.6304,10.0609231 65.8334769,9.94769231 C65.6980923,9.52430769 65.5787077,9.15138462 65.4494769,8.74892308 C65.2193231,8.83015385 65.0716308,8.90646154 64.9177846,8.93107692 M63.0950154,5.57969231 C63.5774769,5.55630769 63.8580923,5.87876923 63.9947077,6.66276923 L62.2642462,6.66276923 C62.2851692,5.96492308 62.5719385,5.60553846 63.0950154,5.57969231" id="Fill-15" fill="#6D6E71"></path>
                <path d="M44.5715692,5.95753846 C44.8928,5.72861538 45.3703385,5.63876923 45.7555692,5.71138462 C46.0497231,5.76676923 46.3168,5.93907692 46.5506462,6.11876923 C46.8644923,5.78276923 47.0675692,5.56615385 47.4392615,5.16861538 C47.1586462,4.88061538 46.8534154,4.63569231 46.5432615,4.50523077 C45.7924923,4.19138462 45.0208,4.21969231 44.2294154,4.38830769 C43.1931077,4.60738462 42.5432615,5.19569231 42.2884923,6.22461538 C42.0595692,7.13784615 42.0731077,8.05107692 42.3278769,8.95323077 C42.5161846,9.61538462 42.9198769,10.1532308 43.5734154,10.3673846 C44.8460308,10.7846154 46.1198769,10.7710769 47.4269538,10.1384615 C47.3211077,9.67446154 47.2214154,9.24123077 47.1106462,8.75876923 C46.7746462,8.86092308 46.5235692,8.95446154 46.2663385,9.01230769 C45.9783385,9.07753846 45.6829538,9.15015385 45.3900308,9.15138462 C44.6380308,9.15384615 44.1506462,8.72923077 44.0681846,7.992 C44.0263385,7.61784615 44.0275692,7.22892308 44.0731077,6.85476923 C44.1161846,6.50030769 44.2761846,6.16676923 44.5715692,5.95753846" id="Fill-17" fill="#6D6E71"></path>
                <path d="M36.7362462,1.78929231 L33.8574769,10.4354462 L35.7024,10.4354462 L36.3805538,8.37021538 L37.8833231,8.37021538 L39.3860923,8.37021538 L40.0642462,10.4354462 L41.9091692,10.4354462 L39.0304,1.78929231 L36.7362462,1.78929231 Z M37.8833231,6.65698462 L36.8642462,6.65698462 L37.8722462,3.18006154 L38.9024,6.65698462 L37.8833231,6.65698462 Z" id="Fill-19" fill="#6D6E71"></path>
                <path d="M73.3492923,4.288 C72.7388308,4.28923077 72.1296,4.46030769 71.2865231,4.59076923 C71.2139077,4.60184615 71.0354462,4.48984615 70.9616,4.46276923 C70.8643692,4.42461538 70.7671385,4.39015385 70.6674462,4.36061538 C70.4988308,4.30892308 70.3265231,4.26830769 70.1505231,4.256 C69.8452923,4.23261538 69.5376,4.28307692 69.2446769,4.36307692 C69.1892923,4.37661538 68.4212923,4.64615385 68.4520615,4.68923077 L68.2145231,4.36676923 L66.6366769,4.36676923 L66.6366769,4.42953846 L66.6366769,6.83446154 L66.6366769,10.4836923 L68.5419077,10.4836923 L68.5419077,6.15630769 C69.4908308,5.65907692 69.9019077,5.86584615 69.9203692,6.80123077 C69.9339077,7.45353846 69.9203692,10.4836923 69.9203692,10.4836923 L71.8305231,10.4836923 L71.8305231,6.08369231 C72.7511385,5.70707692 73.1954462,5.94092308 73.1954462,6.80246154 L73.1954462,10.4836923 L75.0920615,10.4836923 C75.0920615,10.4836923 75.1400615,7.39076923 75.0748308,5.87692308 C75.0329846,4.90338462 74.3339077,4.28553846 73.3492923,4.288" id="Fill-21" fill="#6D6E71"></path>
                <polygon id="Fill-23" fill="#6D6E71" points="18.6167385 1.71827692 16.5847385 1.71827692 16.5847385 10.5133538 22.8259692 10.5133538 22.8259692 8.80258462 18.6167385 8.80258462"></polygon>
                <path d="M27.2963692,7.16184615 L28.9505231,7.16184615 L28.9505231,8.70030769 C28.6452923,8.81723077 28.0508308,8.93292308 27.4846769,8.93292308 C25.6557538,8.93292308 25.0465231,8.00369231 25.0465231,6.11692308 C25.0465231,4.31753846 25.6262154,3.25784615 27.4551385,3.25784615 C28.4717538,3.25784615 29.0526769,3.57661538 29.5302154,4.18707692 L30.7942154,3.02523077 C30.0249846,1.92246154 28.6748308,1.58892308 27.4120615,1.58892308 C24.5665231,1.58892308 23.0723692,3.14092308 23.0723692,6.10215385 C23.0723692,9.04861538 24.4212923,10.6449231 27.3972923,10.6449231 C28.7622154,10.6449231 30.0963692,10.2966154 30.8225231,9.78953846 L30.8225231,5.52123077 L27.2963692,5.52123077 L27.2963692,7.16184615 Z" id="Fill-25" fill="#6D6E71"></path>
            </g>
        </g>
    </g>
</svg>