<?xml version="1.0" encoding="UTF-8"?>
<svg width="100px" height="60px" viewBox="0 0 100 60" version="1.1" xmlns="http://www.w3.org/2000/svg" xmlns:xlink="http://www.w3.org/1999/xlink">
    <!-- Generator: Sketch 55.2 (78181) - https://sketchapp.com -->
    <title>logo/lguplus</title>
    <desc>Created with Sketch.</desc>
    <g id="logo/lguplus" stroke="none" stroke-width="1" fill="none" fill-rule="evenodd">
        <g transform="translate(19.000000, 22.000000)" fill-rule="nonzero">
            <path d="M8.40846154,16.8029744 C3.76135897,16.8029744 0,13.0455385 0,8.40366667 C0,3.76135897 3.76135897,0 8.40846154,0 C13.0481538,0 16.8160513,3.76135897 16.8164872,8.40366667 C16.8164872,13.0455385 13.0481538,16.8029744 8.40846154,16.8029744 Z M8.07064103,4.71553846 L8.07064103,12.0874359 L10.4135897,12.0874359 L10.4135897,11.4244359 L8.74584615,11.4244359 L8.74584615,4.71553846 L8.07064103,4.71553846 Z M5.72333333,6.72720513 C6.28128205,6.72720513 6.73069231,6.27387179 6.73069231,5.72028205 C6.73069231,5.16625641 6.28128205,4.71074359 5.72333333,4.71074359 C5.16625641,4.71074359 4.71641026,5.16582051 4.71641026,5.72028205 C4.71641026,6.27430769 5.16625641,6.72720513 5.72333333,6.72720513 Z M8.74541026,1.37176923 C8.65735897,1.36784615 8.49084615,1.36217949 8.41064103,1.36217949 C4.52941026,1.36217949 1.37133333,4.5215641 1.37133333,8.39974359 C1.37133333,10.2841282 2.10364103,12.0499487 3.42964103,13.3776923 C4.76087179,14.7023846 6.52712821,15.4346923 8.41064103,15.4346923 C10.2867436,15.4346923 12.053,14.7023846 13.3820513,13.3776923 C14.7106667,12.0499487 15.4460256,10.2841282 15.4460256,8.39974359 L15.4460256,8.08720513 L15.1618205,8.08720513 L10.4196923,8.08720513 L10.4196923,8.73451282 L14.7756154,8.73451282 C14.7756154,8.74889744 14.7756154,8.81733333 14.773,8.83564103 C14.5515641,12.1515128 11.7818718,14.7777949 8.41020513,14.7777949 C6.70323077,14.7777949 5.10305128,14.1139231 3.89866667,12.9082308 C2.69035897,11.7082051 2.02474359,10.1084615 2.02474359,8.39930769 C2.02474359,6.70148718 2.69035897,5.09346154 3.89866667,3.88994872 C5.10305128,2.686 6.70366667,2.02212821 8.41020513,2.02212821 C8.4834359,2.02212821 8.66302564,2.02212821 8.74497436,2.02692308 L8.74497436,1.37176923 L8.74541026,1.37176923 Z" id="Combined-Shape" fill="#C00C3F"></path>
            <path d="M23.1461538,2.83594872 L20.6201282,2.83594872 L20.6201282,13.7726154 L28.3795385,13.7726154 L28.3795385,11.6436923 L23.1461538,11.6436923 L23.1461538,2.83594872 Z M33.9376667,9.605 L35.9951026,9.605 L35.9951026,11.5177179 C35.6154359,11.662 34.8761538,11.8062821 34.1721795,11.8062821 C31.8981026,11.8062821 31.1405128,10.6507179 31.1405128,8.30602564 C31.1405128,6.06812821 31.8619231,4.75041026 34.136,4.75041026 C35.3996667,4.75041026 36.1215128,5.14664103 36.7160769,5.90510256 L38.2866154,4.46053846 C37.3298205,3.09007692 35.6511795,2.67466667 34.0815128,2.67466667 C30.5437692,2.67466667 28.6859744,4.60612821 28.6859744,8.28684615 C28.6859744,11.9501282 30.3637436,13.9352051 34.063641,13.9352051 C35.7601538,13.9352051 37.4200513,13.502359 38.3219231,12.8711795 L38.3219231,7.565 L33.9376667,7.565 L33.9376667,9.605 Z" id="Shape" fill="#6D6E71"></path>
            <polygon id="Shape" fill="#6D6E71" points="58.2616154 2.81894872 58.2616154 0.0636410256 56.2285897 0.0636410256 56.2285897 2.81894872 53.5412821 2.81894872 53.5412821 4.76261538 56.2285897 4.76261538 56.2285897 7.48566667 58.2616154 7.48566667 58.2616154 4.76261538 60.9672308 4.76261538 60.9672308 2.81894872"></polygon>
            <path d="M49.3261538,2.83115385 L49.3261538,9.14948718 C49.3261538,10.8956923 48.4591538,11.7544103 46.992359,11.7544103 C45.5255641,11.7544103 44.6585641,10.8956923 44.6585641,9.14948718 L44.6585641,2.83115385 L42.1791795,2.83115385 L42.1791795,9.18653846 C42.1791795,12.635359 44.0138718,13.9299744 46.9034359,13.9299744 C46.9335128,13.9299744 46.9627179,13.9295385 46.992359,13.9295385 C47.0224359,13.9295385 47.051641,13.9299744 47.0812821,13.9299744 C49.9712821,13.9299744 51.8064103,12.6349231 51.8064103,9.18653846 L51.8064103,2.83115385 L49.3261538,2.83115385 Z" id="Shape" fill="#4D4D4D"></path>
        </g>
    </g>
</svg>