<?xml version="1.0" encoding="UTF-8"?>
<svg width="100px" height="60px" viewBox="0 0 100 60" version="1.1" xmlns="http://www.w3.org/2000/svg" xmlns:xlink="http://www.w3.org/1999/xlink">
    <!-- Generator: Sketch 55.2 (78181) - https://sketchapp.com -->
    <title>logo/lotte_duty_free</title>
    <desc>Created with Sketch.</desc>
    <defs>
        <polygon id="path-1" points="0 14.8272356 72.9785273 14.8272356 72.9785273 0 0 0"></polygon>
    </defs>
    <g id="logo/lotte_duty_free" stroke="none" stroke-width="1" fill="none" fill-rule="evenodd">
        <g transform="translate(13.000000, 22.000000)" id="Group-30">
            <g transform="translate(0.000000, 0.533333)">
                <path d="M4.5743035,0.310784 C5.08677501,0.310784 5.4760811,0.830037333 5.4760811,1.467904 C5.4760811,2.10164622 5.08677501,2.61535289 4.5743035,2.61535289 C4.05623356,2.61535289 3.66707102,2.10164622 3.66707102,1.467904 C3.66707102,0.830037333 4.05623356,0.310784 4.5743035,0.310784 M4.5743035,2.93037511 C5.68695523,2.93037511 6.35015366,2.27714844 6.35015366,1.467904 C6.35015366,0.655815111 5.68695523,2.84444444e-05 4.5743035,2.84444444e-05 C3.45892432,2.84444444e-05 2.79299845,0.655815111 2.79299845,1.467904 C2.79299845,2.27714844 3.45892432,2.93037511 4.5743035,2.93037511" id="Fill-1" fill="#EC1C24"></path>
                <polygon id="Fill-3" fill="#EC1C24" points="7.49302255 2.812032 8.37542098 2.812032 8.37542098 0.430236444 9.48850337 0.430236444 9.48850337 0.108672 6.38324181 0.108672 6.38324181 0.430236444 7.49302255 0.430236444"></polygon>
                <polygon id="Fill-5" fill="#EC1C24" points="10.8833302 2.812032 11.7630012 2.812032 11.7630012 0.430236444 12.8783804 0.430236444 12.8783804 0.108672 9.77082206 0.108672 9.77082206 0.430236444 10.8833302 0.430236444"></polygon>
                <path d="M13.5718678,2.812032 L15.7671694,2.812032 L15.7671694,2.49302756 L14.3036828,2.49302756 C14.1144847,2.48093867 14.0351018,2.40200533 14.0351018,2.18966756 L14.0351018,1.45580089 L15.7454934,1.45580089 L15.7454934,1.13793422 L14.0351018,1.13793422 L14.0351018,0.732316444 C14.0351018,0.514574222 14.1144847,0.437347556 14.3036828,0.424832 L15.7671694,0.424832 L15.7671694,0.106112 L13.5718678,0.106112 C13.3746308,0.115640889 13.1583018,0.191303111 13.1583018,0.537614222 L13.1583018,2.37768533 C13.1583018,2.72655644 13.3746308,2.80364089 13.5718678,2.812032" id="Fill-7" fill="#EC1C24"></path>
                <path d="M0.811456293,2.812032 L2.81224843,2.812032 L2.81224843,2.48762311 L1.54585525,2.48762311 C1.35952807,2.47382756 1.27741779,2.40200533 1.27741779,2.18966756 L1.27741779,0.108672 L0.400187138,0.108672 L0.400187138,2.37768533 C0.400187138,2.72655644 0.616659699,2.80364089 0.811456293,2.812032" id="Fill-9" fill="#EC1C24"></path>
                <path d="M6.94505126,11.0899484 C7.0656328,11.003904 7.12592356,10.8645262 7.12592356,10.6617173 C7.12592356,10.5898951 7.1150138,10.5223396 7.09563463,10.4621796 C7.0766861,10.4011662 7.04912461,10.3439929 7.00261459,10.2954951 C6.95883201,10.246144 6.89854124,10.2100196 6.82432618,10.1841351 C6.75068532,10.1566862 6.65996207,10.1434596 6.55029029,10.1434596 L6.2271605,10.1434596 C6.150218,10.1434596 6.09265467,10.173184 6.05719796,10.224384 C6.0213106,10.2792818 6.00508951,10.3631929 6.00508951,10.4839396 L6.00508951,11.2162418 L6.41076024,11.2162418 C6.65177975,11.2162418 6.82992461,11.1722951 6.94505126,11.0899484" id="Fill-11" fill="#EC1C24"></path>
                <path d="M1.88022496,10.2792533 C1.88022496,10.17856 1.88855083,10.0976356 1.9105139,10.0306489 C1.93233341,9.97262222 1.95673682,9.91914667 1.98989674,9.88359111 C2.02305666,9.84903111 2.06124081,9.82144 2.10229595,9.80807111 C2.14335109,9.79555556 2.18426269,9.78446222 2.22560492,9.78446222 L4.07279916,9.78446222 L4.07279916,10.1404444 L2.83956589,10.1404444 C2.76262339,10.1404444 2.70506007,10.1693156 2.67233079,10.2243556 C2.63658698,10.2751289 2.61749491,10.3631644 2.61749491,10.4839111 L2.61749491,10.9471289 L4.04839576,10.9471289 L4.04839576,11.3042489 L2.61749491,11.3042489 L2.61749491,12.8177778 L1.88022496,12.8177778 L1.88022496,10.2792533 Z M1.88022496,5.89895111 C1.88022496,5.83011556 1.89960414,5.76725333 1.93506085,5.71605333 C1.96779012,5.66670222 2.02018567,5.64295111 2.08851521,5.64295111 L3.22585745,5.64295111 C3.42582182,5.64295111 3.60956511,5.67921778 3.7793841,5.74620444 C3.94389176,5.82044444 4.09217834,5.92099556 4.20974533,6.04871111 C4.33018331,6.18183111 4.42650499,6.33500444 4.49225064,6.52686222 C4.55498174,6.71402667 4.5908691,6.92280889 4.5908691,7.16046222 C4.5908691,7.36981333 4.55498174,7.56650667 4.48406832,7.75281778 C4.40985325,7.93457778 4.31410578,8.09827556 4.19065325,8.23153778 C4.06447329,8.36608 3.92207225,8.47886222 3.75498069,8.55480889 C3.59061658,8.63502222 3.41505561,8.67555556 3.22585745,8.67555556 L2.08851521,8.67555556 C2.02018567,8.67555556 1.96779012,8.65152 1.93506085,8.60088889 C1.89960414,8.55480889 1.88022496,8.49251556 1.88022496,8.42083556 L1.88022496,5.89895111 Z M5.26784828,10.2751289 C5.26784828,10.176 5.27890158,10.0976356 5.29785011,10.0306489 C5.31708574,9.96835556 5.34436013,9.91914667 5.3773765,9.88359111 C5.41010578,9.84903111 5.44828993,9.82144 5.48977572,9.81048889 C5.53083086,9.79555556 5.57174245,9.79015111 5.61322824,9.79015111 L6.85751481,9.79015111 C7.00809818,9.79015111 7.13384749,9.80508444 7.24107893,9.82570667 C7.35060715,9.85144889 7.43817231,9.88359111 7.51511481,9.92455111 C7.58889923,9.96295111 7.65220453,10.0155733 7.69570001,10.0687644 C7.74264068,10.1240889 7.77809739,10.1815467 7.80020401,10.2407111 C7.82733485,10.3051378 7.84384304,10.3672889 7.84944147,10.4312889 C7.86049477,10.4989867 7.86322221,10.5598578 7.86322221,10.6184533 C7.86322221,10.7215644 7.84671403,10.8248178 7.81915253,10.9182578 C7.79187814,11.0134044 7.74809556,11.0967467 7.69340322,11.1698489 C7.6358399,11.2428089 7.56722326,11.3042489 7.47922745,11.34592 C7.39453328,11.3954133 7.29318737,11.4211556 7.17806072,11.4279822 C7.28213407,11.4211556 7.36424435,11.4400711 7.43271743,11.4872889 C7.50133407,11.53536 7.56449582,11.6013511 7.61100584,11.6771556 C7.6602433,11.7563733 7.69570001,11.8407111 7.7261325,11.9433956 C7.750823,12.0426667 7.77264251,12.1405156 7.7891507,12.2365156 L7.88504173,12.8246044 L7.09566334,12.8246044 C7.08776812,12.7748267 7.08216969,12.7229156 7.07384382,12.6776889 C7.06838895,12.6334578 7.06293407,12.5828267 7.06006308,12.5344711 C7.05188076,12.4808533 7.04355489,12.4259556 7.03810001,12.3602489 C7.02991769,12.2968178 7.02144828,12.2183111 7.0162805,12.1308444 C7.0026433,12.0152178 6.97264147,11.9216356 6.92024592,11.8461156 C6.8737359,11.7774222 6.81344513,11.7182578 6.74238816,11.6801422 C6.67377153,11.6410311 6.60242745,11.61216 6.52031717,11.6013511 C6.43791979,11.5807289 6.3583934,11.5753244 6.27915411,11.5753244 L6.00511822,11.5753244 L6.00511822,12.8246044 L5.26784828,12.8246044 L5.26784828,10.2751289 Z M5.29512267,5.62929778 L6.03239261,5.62929778 L6.03239261,7.84896 C6.03239261,7.92376889 6.0489008,7.99800889 6.07890263,8.06613333 C6.10904802,8.13383111 6.15024671,8.19399111 6.2022116,8.24945778 C6.25704749,8.29838222 6.31733826,8.33464889 6.38595489,8.36608 C6.45729897,8.39196444 6.52821239,8.41116444 6.60515489,8.41116444 C6.68712162,8.41116444 6.76133669,8.39196444 6.82980977,8.36608 C6.90129739,8.33464889 6.95871717,8.29838222 7.01355306,8.24945778 C7.06566151,8.19399111 7.10671665,8.13383111 7.13384749,8.06613333 C7.16700741,7.99800889 7.17806072,7.92376889 7.17806072,7.84896 L7.17806072,5.62929778 L7.9180581,5.62929778 L7.9180581,7.74741333 C7.9180581,7.91125333 7.88776917,8.05532444 7.82460741,8.1856 C7.76187631,8.31473778 7.67129661,8.42339556 7.55616995,8.51143111 C7.43817231,8.59832889 7.2987858,8.66588444 7.13944592,8.71651556 C6.97809635,8.76003556 6.79952084,8.78833778 6.60515489,8.78833778 C6.41078895,8.78833778 6.23494088,8.76003556 6.07086386,8.71651556 C5.91166753,8.66588444 5.77199392,8.59832889 5.65701082,8.51143111 C5.54188417,8.42339556 5.45403191,8.31473778 5.39115725,8.1856 C5.3254116,8.05532444 5.29512267,7.91125333 5.29512267,7.74741333 L5.29512267,5.62929778 Z M8.60853092,5.64494222 L11.220413,5.64494222 L11.220413,6.00504889 L10.2804513,6.00504889 L10.2804513,8.67555556 L9.54318135,8.67555556 L9.54318135,6.00504889 L8.60853092,6.00504889 L8.60853092,5.64494222 Z M12.5826973,5.64295111 L13.3498255,7.04938667 L14.0899664,5.64295111 L14.6627287,5.64295111 L13.6542939,7.48515556 L13.6542939,8.67555556 L12.8677865,8.67555556 L12.8677865,7.47264 L11.7933189,5.64295111 L12.5826973,5.64295111 Z M14.3612749,10.1404444 L13.1306255,10.1404444 C13.0513862,10.1404444 12.9962632,10.1693156 12.9579355,10.2243556 C12.9252062,10.2751289 12.908698,10.3631644 12.908698,10.4839111 L12.908698,10.9471289 L14.3391683,10.9471289 L14.3391683,11.3042489 L12.908698,11.3042489 L12.908698,12.1224533 C12.908698,12.2420622 12.9252062,12.3342222 12.9579355,12.3861333 C12.9962632,12.4408889 13.0513862,12.46592 13.1306255,12.46592 L14.3612749,12.46592 L14.3612749,12.8177778 L12.5168081,12.8177778 C12.4786239,12.8177778 12.4344107,12.8122311 12.3934991,12.7958756 C12.3497165,12.7836444 12.3165566,12.7596089 12.2810999,12.7229156 C12.251098,12.6830933 12.2235366,12.6334578 12.1987025,12.5745778 C12.179754,12.5122844 12.1714281,12.4337778 12.1714281,12.3308089 L12.1714281,10.2792533 C12.1714281,10.17856 12.179754,10.0976356 12.1987025,10.0306489 C12.2235366,9.97262222 12.251098,9.91914667 12.2810999,9.88359111 C12.3165566,9.84903111 12.3497165,9.82144 12.3934991,9.80807111 C12.4344107,9.79555556 12.4786239,9.78446222 12.5168081,9.78446222 L14.3612749,9.78446222 L14.3612749,10.1404444 Z M11.0122664,10.1404444 L9.77888954,10.1404444 C9.70209058,10.1404444 9.64179982,10.1693156 9.60907054,10.2243556 C9.57045574,10.2751289 9.55423466,10.3631644 9.55423466,10.4839111 L9.55423466,10.9471289 L10.9874323,10.9471289 L10.9874323,11.3042489 L9.55423466,11.3042489 L9.55423466,12.1224533 C9.55423466,12.2420622 9.57045574,12.3342222 9.60907054,12.3861333 C9.64179982,12.4408889 9.70209058,12.46592 9.77888954,12.46592 L11.0122664,12.46592 L11.0122664,12.8177778 L9.16478502,12.8177778 C9.12372988,12.8177778 9.08267473,12.8122311 9.03889215,12.7958756 C9.000708,12.7836444 8.9620932,12.7596089 8.92936393,12.7229156 C8.89620401,12.6830933 8.8718006,12.6334578 8.84983754,12.5745778 C8.83045836,12.5122844 8.81696472,12.4337778 8.81696472,12.3308089 L8.81696472,10.2792533 C8.81696472,10.17856 8.83045836,10.0976356 8.84983754,10.0306489 C8.8718006,9.97262222 8.89620401,9.91914667 8.92936393,9.88359111 C8.9620932,9.84903111 9.000708,9.82144 9.03889215,9.80807111 C9.08267473,9.79555556 9.12372988,9.78446222 9.16478502,9.78446222 L11.0122664,9.78446222 L11.0122664,10.1404444 Z M0.408556071,4.03640889 C0.128921755,4.31744 1.43549443e-05,4.71153778 1.43549443e-05,5.41084444 L1.43549443e-05,14.8272356 L14.3721846,14.8272356 C15.0795963,14.8272356 15.4737831,14.6993778 15.7615997,14.4187733 C16.0439614,14.1334756 16.1699979,13.7426489 16.1699979,13.0432 L16.1699979,3.62965333 L1.79825823,3.62965333 C1.09371756,3.62965333 0.693501716,3.75523556 0.408556071,4.03640889 L0.408556071,4.03640889 Z" id="Fill-13" fill="#EC1C24"></path>
                <path d="M2.83952283,8.31064178 L3.13566533,8.31775289 C3.22581438,8.31775289 3.31625053,8.28461511 3.40137535,8.22189511 C3.48650017,8.16386844 3.56301202,8.07995733 3.62890122,7.97257956 C3.69751785,7.86946844 3.75221019,7.74744178 3.79053789,7.60450844 C3.83432047,7.46328178 3.8535561,7.31437511 3.8535561,7.15508622 C3.8535561,6.98498844 3.83432047,6.83480178 3.79053789,6.68945067 C3.75221019,6.55220622 3.69751785,6.42975289 3.62890122,6.326784 C3.56301202,6.22353067 3.48650017,6.145024 3.40137535,6.08898844 C3.31625053,6.02968178 3.22581438,6.00507733 3.13566533,6.00507733 L2.83952283,6.00507733 C2.76530777,6.00507733 2.705017,6.02683733 2.67228773,6.07874844 C2.63927136,6.12994844 2.62032283,6.21940622 2.62032283,6.33489067 L2.62032283,7.97257956 C2.62032283,8.098304 2.63927136,8.18321067 2.67228773,8.23441067 C2.705017,8.28461511 2.76530777,8.31064178 2.83952283,8.31064178" id="Fill-15" fill="#EC1C24"></path>
                <mask id="mask-2" fill="white">
                    <use xlink:href="#path-1"></use>
                </mask>
                <g id="Clip-18"></g>
                <path d="M67.4049331,11.5120356 L71.5705944,11.5120356 L71.5705944,9.74307556 L67.4049331,9.74307556 L67.4049331,11.5120356 Z M65.9971437,8.73187556 L65.9971437,11.7242311 C65.9971437,12.1171911 66.3184073,12.4356267 66.7150344,12.4356267 L73,12.4356267 L73,8.73187556 L65.9971437,8.73187556 Z" id="Fill-17" fill="#EC1C24" mask="url(#mask-2)"></path>
                <path d="M26.4619475,6.88022756 L29.4998843,6.88022756 L29.4998843,6.15375644 L23.5903844,6.15375644 C23.4864546,6.15375644 23.4143928,6.13284978 23.3739118,6.08989867 C23.3330002,6.04538311 23.3118985,5.96858311 23.3118985,5.85850311 L23.3118985,5.18892089 L29.3669575,5.18892089 L29.3669575,2.79361422 L21.8716669,2.79361422 L21.8716669,3.49647644 L27.9366309,3.49647644 L27.9366309,4.47439644 L21.8716669,4.47439644 L21.8716669,6.15375644 C21.8716669,6.36794311 21.9455949,6.54188089 22.0931637,6.67798756 C22.2413067,6.81252978 22.4145709,6.88022756 22.6138175,6.88022756 L24.9090296,6.88022756 L24.9090296,7.84719644 L20.8296415,7.84719644 L20.8296415,8.55062756 L30.5760745,8.55062756 L30.5760745,7.84719644 L26.4619475,7.84719644 L26.4619475,6.88022756 Z" id="Fill-19" fill="#EC1C24" mask="url(#mask-2)"></path>
                <path d="M28.1418635,11.1262009 C27.7828464,10.9030542 27.4509601,10.6257209 27.1436207,10.2976142 C26.8368555,9.96694756 26.6246895,9.58252089 26.5062612,9.14390756 L24.7988841,9.14390756 C24.6805993,9.58252089 24.4684333,9.96694756 24.1612375,10.2976142 C23.8537546,10.6257209 23.521294,10.9030542 23.1635688,11.1262009 C22.8035468,11.350912 22.449841,11.5238542 22.0991497,11.6482987 C21.7477407,11.7727431 21.4676757,11.848832 21.2618258,11.8789831 L21.6720901,12.4943787 C21.8869836,12.4714809 22.1578614,12.4175787 22.4871639,12.3289742 C22.815605,12.2415076 23.1635688,12.1160676 23.5284715,11.9552142 C23.8948097,11.7946453 24.2628705,11.595392 24.6319361,11.3563164 C25.0025807,11.1178098 25.3384864,10.8394809 25.6412322,10.5170631 C25.9446957,10.8394809 26.2820369,11.1178098 26.6561268,11.3563164 C27.029786,11.595392 27.4024403,11.7946453 27.7755253,11.9552142 C28.1496152,12.1160676 28.4997323,12.2415076 28.8291783,12.3289742 C29.1583371,12.4175787 29.4264875,12.4714809 29.6330551,12.4943787 L30.0437501,11.8789831 C29.8367518,11.848832 29.5571175,11.7727431 29.2067133,11.6482987 C28.8550172,11.5238542 28.4997323,11.350912 28.1418635,11.1262009" id="Fill-20" fill="#EC1C24" mask="url(#mask-2)"></path>
                <polygon id="Fill-21" fill="#EC1C24" mask="url(#mask-2)" points="39.3568073 12.4391822 40.7647403 12.4391822 40.7647403 2.64035556 39.3568073 2.64035556"></polygon>
                <path d="M36.9625749,5.68244622 L34.9324987,5.68244622 L34.9324987,6.40792178 L36.9625749,6.40792178 L36.9625749,8.70381511 C36.8358207,8.80706844 36.6899745,8.865664 36.524462,8.87945956 C36.3580882,8.893824 36.1337204,8.90164622 35.8533683,8.90164622 L33.779366,8.90164622 C33.6465827,8.90164622 33.554424,8.86907733 33.5028897,8.80365511 C33.4509248,8.73709511 33.4249424,8.64877511 33.4249424,8.53841067 L33.4249424,3.74978844 L36.0415617,3.74978844 L36.0415617,3.01321956 L32.0059561,3.01321956 L32.0059561,8.90164622 C32.0059561,9.09905067 32.0741421,9.27128178 32.2103706,9.41777067 C32.3477474,9.56525511 32.5564683,9.63793067 32.8369639,9.63793067 L35.8533683,9.63793067 C36.1337204,9.63793067 36.3631124,9.62427733 36.5405395,9.59369956 C36.7178231,9.56525511 36.8580709,9.521024 36.9625749,9.46242844 L36.9625749,12.4391396 L38.3702207,12.4391396 L38.3702207,2.64017067 L36.9625749,2.64017067 L36.9625749,5.68244622 Z" id="Fill-22" fill="#EC1C24" mask="url(#mask-2)"></path>
                <path d="M46.7046009,7.13745067 L44.5510722,7.13745067 C44.374937,7.13745067 44.2865105,7.05140622 44.2865105,6.87618844 L44.2865105,3.73151289 L46.7046009,3.73151289 L46.7046009,7.13745067 Z M48.1591874,6.09240178 L50.0172914,6.09240178 L50.0172914,4.77115733 L48.1591874,4.77115733 L48.1591874,6.09240178 Z M48.1591874,7.16162844 L50.0172914,7.16162844 L50.0172914,9.67455289 L51.5595866,9.67455289 L51.5595866,2.57595733 L50.0172914,2.57595733 L50.0172914,3.92066844 L48.1591874,3.92066844 L48.1591874,2.98157511 L42.8093868,2.98157511 L42.8093868,6.96763733 C42.8093868,7.247104 42.8873341,7.47053511 43.0442337,7.637504 C43.200559,7.80404622 43.4318172,7.88539733 43.7378646,7.88539733 L48.1591874,7.88539733 L48.1591874,7.16162844 Z" id="Fill-23" fill="#EC1C24" mask="url(#mask-2)"></path>
                <path d="M45.9637135,8.9312 L44.1762359,8.9312 L44.1762359,11.6834844 C44.1762359,12.1179733 44.5316643,12.4704 44.9703514,12.4704 L51.7555029,12.4704 L51.7555029,11.4493867 L45.9637135,11.4493867 L45.9637135,8.9312 Z" id="Fill-24" fill="#EC1C24" mask="url(#mask-2)"></path>
                <polygon id="Fill-25" fill="#EC1C24" mask="url(#mask-2)" points="69.6371843 5.76203378 71.6036682 5.76203378 71.6036682 8.07485156 73 8.07485156 73 2.65220267 71.5771115 2.65220267 71.5771115 4.96445156 69.5979953 4.96445156"></polygon>
                <path d="M67.2869785,5.799808 C68.1924884,7.006848 70.1354301,7.90640356 70.1354301,7.90640356 L70.6822099,7.25431467 C68.3871414,5.91259022 68.136217,4.24915911 68.1357864,3.95390578 L70.3829093,3.95390578 L70.3829093,2.95351467 L64.2214801,2.95351467 L64.2214801,3.95390578 L66.4381706,3.95390578 C66.4378835,4.24915911 66.1869591,5.91259022 63.8918906,7.25431467 L64.4386704,7.90640356 C64.4386704,7.90640356 66.5914814,6.90771911 67.2869785,5.799808" id="Fill-26" fill="#EC1C24" mask="url(#mask-2)"></path>
                <path d="M56.7607706,3.00189867 L55.8934448,3.00189867 L55.0259755,3.00189867 C55.0259755,6.280832 55.0009979,7.52129422 53.2280188,8.85974756 C53.4772206,9.17036089 54.0034728,9.63756089 54.0034728,9.63756089 C54.0034728,9.63756089 54.4855119,9.55308089 55.8934448,7.87713422 C57.3013778,9.55308089 57.7834168,9.63756089 57.7834168,9.63756089 C57.7834168,9.63756089 58.3096691,9.17036089 58.5588709,8.85974756 C56.7858917,7.52129422 56.7607706,6.280832 56.7607706,3.00189867" id="Fill-27" fill="#EC1C24" mask="url(#mask-2)"></path>
                <polygon id="Fill-28" fill="#EC1C24" mask="url(#mask-2)" points="61.1662743 12.4511289 62.5742072 12.4511289 62.5742072 2.65230222 61.1662743 2.65230222"></polygon>
                <polygon id="Fill-29" fill="#EC1C24" mask="url(#mask-2)" points="58.7558781 5.35203556 57.2447331 5.35203556 57.2447331 6.35413333 58.7558781 6.35413333 58.7558781 12.4510578 60.1638111 12.4510578 60.1638111 2.65223111 58.7558781 2.65223111"></polygon>
            </g>
        </g>
    </g>
</svg>