<?xml version="1.0" encoding="UTF-8"?>
<svg width="100px" height="60px" viewBox="0 0 100 60" version="1.1" xmlns="http://www.w3.org/2000/svg" xmlns:xlink="http://www.w3.org/1999/xlink">
    <!-- Generator: Sketch 55.2 (78181) - https://sketchapp.com -->
    <title>logo/lotte_e_commerce</title>
    <desc>Created with Sketch.</desc>
    <defs>
        <polygon id="path-1" points="5.14021888e-05 0.0576 17.6719311 0.0576 17.6719311 17.7428057 5.14021888e-05 17.7428057"></polygon>
        <polygon id="path-3" points="0 17.9424514 88.1922774 17.9424514 88.1922774 0.257194286 0 0.257194286"></polygon>
    </defs>
    <g id="logo/lotte_e_commerce" stroke="none" stroke-width="1" fill="none" fill-rule="evenodd">
        <g transform="translate(6.000000, 21.000000)">
            <path d="M84.4093333,7.37503714 C84.6398721,7.58306571 85.5882425,8.84280857 87.4011977,9.21772286 C87.4613382,9.09326571 87.550264,8.91300857 87.5988391,8.81246571 C85.38983,7.95438 84.9256683,6.01989429 84.9256683,5.16515143 L83.8929983,5.16515143 C83.8929983,6.01989429 83.4288365,7.95438 81.2198275,8.81246571 C81.2684025,8.91300857 81.3760901,9.11898 81.4362307,9.24343714 C83.2489289,8.86878 84.1787945,7.58306571 84.4093333,7.37503714" id="Fill-1" fill="#EC1C24"></path>
            <g id="Group-5" transform="translate(0.000000, 0.199594)">
                <mask id="mask-2" fill="white">
                    <use xlink:href="#path-1"></use>
                </mask>
                <g id="Clip-4"></g>
                <path d="M13.2367575,12.0532629 C12.4862856,13.23972 11.4926813,14.0805771 10.5838906,14.28912 C10.5782363,14.28912 10.5725821,14.2952914 10.5669279,14.2952914 C10.3970436,14.3240914 10.2330706,14.3354057 10.0811772,14.3354057 C9.49390716,14.3354057 9.07575036,14.1147771 8.78250087,13.9226914 C8.48925139,13.7295771 8.22375908,13.4708914 7.97497249,13.1602629 C6.4113179,11.1496629 6.30337331,7.38689143 6.29771907,6.96363429 C6.28101335,5.95717714 6.4277666,4.60769143 7.20753781,3.82186286 C7.59099814,3.44926286 8.06518333,3.25203429 8.62983637,3.25203429 L8.72081825,3.25203429 C9.28521428,3.25203429 9.76453969,3.44926286 10.1428598,3.82186286 C10.9275142,4.60769143 11.0688702,5.95717714 11.0524215,6.96363429 C11.0354588,8.00789143 10.8432146,10.0298057 9.76453969,11.8442057 C9.67432885,11.9846057 9.51086989,12.0812914 9.34124266,12.0812914 C9.25103182,12.0812914 9.16647522,12.0532629 9.08705884,12.0134057 C8.85574899,11.8712057 8.78250087,11.56752 8.91794564,11.3355771 C9.67432885,10.0640057 10.0413405,8.66823429 10.0755229,6.94614857 C10.0924857,5.79980571 9.87248429,4.94017714 9.44841623,4.51692 C9.25668606,4.32509143 9.01946496,4.23380571 8.72081825,4.23380571 L8.62983637,4.23380571 C8.33093264,4.23380571 8.09371154,4.32509143 7.89632714,4.51692 C7.47791332,4.94017714 7.25791195,5.79980571 7.27487468,6.94614857 C7.30340289,8.35323429 7.63648907,11.1267771 8.74831842,12.5505771 C8.92925412,12.7876629 9.1212413,12.9684343 9.31836869,13.1031771 C9.51678114,13.23972 9.7365255,13.3628914 10.0811772,13.3628914 C10.171388,13.3628914 10.2729073,13.3515771 10.3800809,13.3348629 C11.0128418,13.1828914 11.8088047,12.47112 12.4071262,11.5274057 C12.4975941,11.3867486 12.6502586,11.29032 12.8191148,11.29032 C12.9157509,11.29032 13.0003075,11.3180914 13.0848641,11.36952 C13.1920376,11.4422914 13.270683,11.5500343 13.2992112,11.6793771 C13.3274824,11.8046057 13.3048654,11.9393486 13.2367575,12.0532629 L13.2367575,12.0532629 Z M6.66498771,14.3354057 L6.64288476,14.3354057 C6.34912126,14.3354057 6.11190015,14.1032057 6.09468042,13.8033771 C6.08902618,13.66272 6.14017136,13.5266914 6.24169068,13.4140629 C6.33755576,13.30632 6.47325754,13.23972 6.6202678,13.23972 C6.91917153,13.2284057 7.1792666,13.4595771 7.19057509,13.7640343 C7.20188357,14.06412 6.96466247,14.31792 6.66498771,14.3354057 L6.66498771,14.3354057 Z M12.4747201,1.55720571 C10.475946,-0.442337143 7.19622933,-0.442337143 5.1971982,1.55720571 L1.49932474,5.25672 C-0.499706378,7.26217714 -0.499706378,10.53252 1.49932474,12.5444057 L5.1971982,16.2392914 C7.19622933,18.2439771 10.475946,18.2439771 12.4747201,16.2392914 L16.1728506,12.5444057 C18.1716247,10.53252 18.1716247,7.26217714 16.1728506,5.25672 L12.4747201,1.55720571 Z" id="Fill-3" fill="#EC1C24" mask="url(#mask-2)"></path>
            </g>
            <path d="M64.7911739,10.3039457 C64.8189311,10.2903171 64.8821558,10.25946 64.9721096,10.2103457 C64.9124831,10.2430029 64.8525995,10.2751457 64.7911739,10.3039457" id="Fill-6" fill="#EC1C24"></path>
            <mask id="mask-4" fill="white">
                <use xlink:href="#path-3"></use>
            </mask>
            <g id="Clip-9"></g>
            <polygon id="Fill-8" fill="#EC1C24" mask="url(#mask-4)" points="80.6361556 11.4799371 88.1922774 11.4799371 88.1922774 10.7239371 80.6361556 10.7239371"></polygon>
            <path d="M64.7786061,10.3099629 C64.777064,10.3107343 64.7755219,10.3112486 64.7739799,10.3122771 C64.7798911,10.3097057 64.7852884,10.30662 64.7911996,10.3040486 C64.7878585,10.3053343 64.7809192,10.3089343 64.7786061,10.3099629" id="Fill-10" fill="#EC1C24" mask="url(#mask-4)"></path>
            <path d="M75.5113317,10.1388343 L73.8888216,10.1388343 C73.7559469,10.1388343 73.6893811,10.0732629 73.6893811,9.94006286 L73.6893811,6.01992 L75.5113317,6.01992 L75.5113317,10.1388343 Z M78.2161149,5.16517714 L78.2161149,7.77157714 L76.6072264,7.77157714 L76.6072264,5.44957714 L72.5765237,5.44957714 L72.5765237,10.0097486 C72.5765237,10.2221486 72.6353792,10.39212 72.7536043,10.5191486 C72.8713153,10.6461771 73.0455687,10.7078914 73.2761075,10.7078914 L76.6072264,10.7078914 L76.6072264,8.28817714 L78.2161149,8.28817714 L78.2161149,12.87612 L79.3392527,12.87612 L79.3392527,5.16517714 L78.2161149,5.16517714 Z" id="Fill-11" fill="#EC1C24" mask="url(#mask-4)"></path>
            <path d="M69.9549864,5.16522857 L69.9549864,7.77162857 L68.2530599,7.77162857 C68.3797663,7.40057143 68.4635519,7.0416 68.5152111,6.72222857 C68.6329221,5.99142857 68.5969406,5.46557143 68.5969406,5.46557143 L64.5166348,5.46557143 L64.5166348,6.0732 L67.4370502,6.0732 C67.432938,6.51188571 67.3434982,7.23985714 67.1651326,7.56797143 C67.1638475,7.57054286 64.5166348,7.57671429 64.5166348,7.57671429 L64.5166348,8.27562857 L66.8500372,8.27562857 C66.6958306,8.5824 66.5187501,8.85394286 66.330104,9.08434286 C66.3110852,9.10722857 66.2920664,9.12677143 66.2730476,9.14888571 C66.2702205,9.15222857 66.2673934,9.15557143 66.2645662,9.15865714 C65.999588,9.44974286 65.6670158,9.76397143 65.2848405,10.0216286 C65.2763592,10.0272857 65.2681348,10.0332 65.2596535,10.0386 C65.1897465,10.0838571 65.1242087,10.1244857 65.0663812,10.1581714 C65.0352829,10.1761714 65.0036706,10.1931429 64.9720582,10.2103714 C64.8823614,10.2594857 64.8191367,10.2903429 64.7911225,10.3039714 C64.7854683,10.3065429 64.779814,10.3096286 64.7741598,10.3122 C64.6227803,10.3867714 64.5189479,10.4209714 64.6952574,10.7478 C64.6955144,10.7480571 64.6955144,10.7483143 64.6957714,10.7488286 C64.8749081,11.0800286 65.5369683,10.7074286 65.5369683,10.7074286 C66.4251981,10.3505143 67.0553889,9.81102857 67.5049011,9.21265714 C67.7290146,8.91411429 67.9066092,8.60091429 68.0492502,8.28822857 L68.1792978,8.28822857 L69.9318554,8.28822857 L69.9318554,12.8759143 L71.0778672,12.8759143 L71.0778672,5.16522857 L69.9549864,5.16522857 Z" id="Fill-12" fill="#EC1C24" mask="url(#mask-4)"></path>
            <path d="M48.5144138,8.45413714 L49.6989773,8.45413714 L49.6989773,6.09742286 L48.5144138,6.09742286 L48.5144138,8.45413714 Z M53.4523651,9.53773714 L52.4191811,9.53773714 L52.4191811,8.89693714 L46.7919265,8.89693714 L46.7919265,8.49065143 L47.5598752,8.49065143 L47.5598752,6.07196571 L46.7919265,6.07196571 L46.7919265,5.55150857 L51.571045,5.55150857 L51.571045,6.04110857 L50.7930728,6.04110857 C50.7930728,6.04110857 50.6591701,8.33842286 50.6591701,8.44668 C51.3405062,8.44668 52.3783163,8.31168 52.3783163,8.31168 L52.3783163,5.27945143 L53.4523651,5.25605143 L53.4523651,9.53773714 Z" id="Fill-13" fill="#EC1C24" mask="url(#mask-4)"></path>
            <polygon id="Fill-14" fill="#EC1C24" mask="url(#mask-4)" points="38.3409954 11.2704943 38.3409954 10.7374371 40.1919882 10.7374371 40.1919882 9.16449429 41.2506163 9.16449429 41.2506163 10.7374371 42.7309994 10.7374371 42.7309994 9.18018 43.8112163 9.18018 43.8112163 10.7374371 45.5516945 10.7374371 45.5516945 11.2704943"></polygon>
            <path d="M52.0339731,11.3952857 C52.0157253,11.6015143 51.9594399,11.7969429 51.8630608,11.9450571 C51.4857687,12.5256857 50.5638705,12.5208 50.1896626,11.9450571 C50.0932834,11.7969429 50.0369981,11.6015143 50.0187503,11.3952857 C49.988166,11.0496857 50.0644982,10.6729714 50.2382376,10.4340857 C50.6294083,9.89717143 51.4179179,9.8892 51.8144857,10.4340857 C51.9884821,10.6727143 52.0645574,11.0496857 52.0339731,11.3952857 M53.0527645,10.8221143 C52.8381603,9.97997143 51.8371027,9.51428571 51.0264902,9.53305714 C50.4448744,9.54694286 49.7681646,9.7524 49.3528349,10.1795143 C49.1780675,10.3595143 49.0611275,10.5829714 48.9999589,10.8221143 C48.861944,11.3641714 49.0110104,11.9867143 49.4229989,12.3654857 C50.2459479,13.1227714 51.8083175,13.1212286 52.6297245,12.3654857 C53.041713,11.9867143 53.1907793,11.3641714 53.0527645,10.8221143" id="Fill-15" fill="#EC1C24" mask="url(#mask-4)"></path>
            <path d="M42.4886894,5.55935143 L41.4585896,5.55935143 C41.4585896,6.17238 40.9954558,7.91915143 38.792358,8.77492286 C38.8409331,8.87546571 38.9116111,9.01586571 38.9714947,9.13980857 C40.7798237,8.76618 41.7438717,7.71678 41.9736395,7.50926571 C42.2039213,7.71678 43.1677123,8.76618 44.9760413,9.13980857 C45.0359249,9.01586571 45.1066029,8.87546571 45.154921,8.77492286 C42.9518232,7.91915143 42.4886894,6.17238 42.4886894,5.55935143" id="Fill-16" fill="#EC1C24" mask="url(#mask-4)"></path>
            <path d="M25.5637477,10.29978 C25.6516455,10.6284086 25.8091932,10.9164086 26.0366479,11.1640371 C26.2646166,11.4101229 26.5110901,11.6176371 26.7773534,11.7850371 C27.0428457,11.9534657 27.306539,12.0830657 27.5674051,12.1761514 C27.8275001,12.2694943 28.034908,12.32658 28.1883435,12.3492086 L27.8837855,12.8102657 C27.730607,12.7930371 27.5314235,12.7526657 27.2872631,12.6863229 C27.0428457,12.6207514 26.7832647,12.5266371 26.5056929,12.4062943 C26.2286351,12.2859514 25.9523483,12.1365514 25.6750335,11.95758 C25.3974617,11.7788657 25.147133,11.5703229 24.9219914,11.3286086 C24.6973639,11.5703229 24.4480632,11.7788657 24.1730615,11.95758 C23.8990879,12.1365514 23.6261422,12.2859514 23.3542247,12.4062943 C23.0835921,12.5266371 22.8255531,12.6207514 22.5816498,12.6863229 C22.3372324,12.7526657 22.1365068,12.7930371 21.976903,12.8102657 L21.6726021,12.3492086 C21.8252666,12.32658 22.0329314,12.2694943 22.2937975,12.1761514 C22.5538926,12.0830657 22.8165578,11.9534657 23.0835921,11.7850371 C23.3490844,11.6176371 23.5955579,11.4101229 23.8237837,11.1640371 C24.0517524,10.9164086 24.2090431,10.6284086 24.2969408,10.29978 L25.5637477,10.29978 Z M28.5836263,9.32829429 L28.5836263,9.85518 L21.3518524,9.85518 L21.3518524,9.32829429 L24.3786703,9.32829429 L24.3786703,8.60366571 L22.6757158,8.60366571 C22.5279345,8.60366571 22.399172,8.55300857 22.2894283,8.45195143 C22.1796846,8.35012286 22.1251983,8.21975143 22.1251983,8.05929429 L22.1251983,6.80109429 L26.6252029,6.80109429 L26.6252029,6.06823714 L22.1251983,6.06823714 L22.1251983,5.54160857 L27.6864011,5.54160857 L27.6864011,7.33646571 L23.1935928,7.33646571 L23.1935928,7.83815143 C23.1935928,7.92043714 23.2092705,7.97803714 23.2398548,8.01146571 C23.2696681,8.04360857 23.3231263,8.05929429 23.4002296,8.05929429 L27.7850933,8.05929429 L27.7850933,8.60366571 L25.5308503,8.60366571 L25.5308503,9.32829429 L28.5836263,9.32829429 Z" id="Fill-17" fill="#EC1C24" mask="url(#mask-4)"></path>
            <path d="M35.6206888,12.7687371 L36.6654383,12.7687371 L36.6654383,5.42653714 L35.6206888,5.42653714 L35.6206888,12.7687371 Z M33.0215371,10.1181086 C33.229459,10.1181086 33.395745,10.1124514 33.5193673,10.1016514 C33.6422185,10.0913657 33.7504201,10.0473943 33.8444861,9.96999429 L33.8444861,8.24970857 L32.338145,8.24970857 L32.338145,7.70610857 L33.8444861,7.70610857 L33.8444861,5.42653714 L34.8887216,5.42653714 L34.8887216,12.7687371 L33.8444861,12.7687371 L33.8444861,10.5385371 C33.7668688,10.5825086 33.6627794,10.6154229 33.5311898,10.6367657 C33.3996002,10.6596514 33.229459,10.6699371 33.0215371,10.6699371 L30.7832288,10.6699371 C30.5753069,10.6699371 30.4203293,10.6154229 30.318296,10.5048514 C30.2172907,10.3953086 30.1666595,10.2662229 30.1666595,10.1181086 L30.1666595,5.70630857 L33.161094,5.70630857 L33.161094,6.25813714 L31.2196334,6.25813714 L31.2196334,9.84605143 C31.2196334,9.92885143 31.2389092,9.99493714 31.2774608,10.0448229 C31.3154985,10.0939371 31.3841204,10.1181086 31.4825556,10.1181086 L33.0215371,10.1181086 Z" id="Fill-18" fill="#EC1C24" mask="url(#mask-4)"></path>
            <path d="M59.6208333,7.79590286 C59.963943,7.37316 60.3743894,7.25358857 60.8907244,7.34178857 C61.3204467,7.41558857 61.6892574,7.84141714 61.7910338,8.24976 C61.8190479,8.36136 61.86788,8.55267429 61.8593987,8.55267429 L59.2651302,8.55267429 C59.3157614,8.28216 59.448379,8.00830286 59.6208333,7.79590286 L59.6208333,7.79590286 Z M63.3747352,9.09447429 C63.3747352,9.09447429 63.2572812,6.65007429 60.6211199,6.65007429 C59.4499211,6.65007429 58.3337225,7.14970286 57.9497482,8.32124571 C57.709957,9.05333143 57.7922005,9.92941714 58.2651006,10.5535029 C58.6200327,11.0220171 59.1607838,11.2909886 59.7246658,11.4172457 C60.0680324,11.4938743 60.4209084,11.52216 60.7719854,11.52216 C62.9298492,11.52216 63.3747352,9.90087429 63.3747352,9.90087429 L62.1744941,9.90087429 C62.172438,9.90087429 61.983535,10.2289886 61.9637451,10.2521314 C61.633229,10.6391314 61.045702,10.8114171 60.5501849,10.7862171 C60.2075893,10.7689886 59.8351805,10.6414457 59.5923051,10.38996 C59.3453176,10.13436 59.2255505,9.76690286 59.2026765,9.41847429 C59.1957372,9.31073143 59.1975363,9.20196 59.2106439,9.09447429 L63.3747352,9.09447429 Z" id="Fill-19" fill="#EC1C24" mask="url(#mask-4)"></path>
        </g>
    </g>
</svg>