<?xml version="1.0" encoding="UTF-8"?>
<svg width="100px" height="60px" viewBox="0 0 100 60" version="1.1" xmlns="http://www.w3.org/2000/svg" xmlns:xlink="http://www.w3.org/1999/xlink">
    <title>logo/lotte_homeshopping</title>
    <defs>
        <polygon id="path-1" points="0.322065574 0.188360656 46.7177049 0.188360656 46.7177049 9.07655738 0.322065574 9.07655738"></polygon>
    </defs>
    <g id="logo/lotte_homeshopping" stroke="none" stroke-width="1" fill="none" fill-rule="evenodd">
        <g id="Group-10" transform="translate(15.000000, 20.000000)">
            <g id="Group-3" transform="translate(23.934426, 5.198689)">
                <mask id="mask-2" fill="white">
                    <use xlink:href="#path-1"></use>
                </mask>
                <g id="Clip-2"></g>
                <path d="M46.7178033,5.30409836 L46.7178033,0.457213115 L45.3823934,0.457213115 L45.3823934,2.43655738 L43.8348525,2.43655738 L43.8348525,3.03983607 L45.3823934,3.03983607 L45.3823934,5.30409836 L46.7178033,5.30409836 Z M42.3905902,1.34245902 L44.2161639,1.34245902 L44.2161639,0.728360656 L39.1391148,0.728360656 L39.1391148,1.34245902 L40.9869836,1.34245902 C40.9489508,2.85393443 39.9702623,4.0795082 38.8807541,4.49590164 L39.3046885,5.0047541 C39.9627213,4.8047541 41.0145246,4.16081967 41.6882951,3.18639344 C42.3623934,4.16081967 43.4158361,4.8047541 44.073541,5.0047541 L44.4971475,4.49590164 C43.4073115,4.0795082 42.4276393,2.85393443 42.3905902,1.34245902 L42.3905902,1.34245902 Z M36.8869836,4.32901639 L38.2771475,4.32901639 L38.2771475,3.71131148 L36.8869836,3.71131148 L36.8869836,0.457213115 L35.5532131,0.457213115 L35.5532131,6.17655738 C35.2879672,6.2552459 34.8007541,6.31491803 34.3348525,6.31491803 L32.7214098,6.31491803 L32.7214098,5.30770492 C33.7315738,5.06540984 34.4692787,4.29983607 34.4692787,3.39229508 C34.4692787,2.65229508 33.978459,2.00704918 33.2499344,1.66245902 L34.7079672,1.66245902 L34.7079672,1.04737705 L32.7214098,1.04737705 L32.7214098,0.188360656 L31.3856721,0.188360656 L31.3856721,1.04737705 L29.4053443,1.04737705 L29.4053443,1.66245902 L30.8269836,1.66245902 C30.0994426,2.00704918 29.6082951,2.65229508 29.6082951,3.39229508 C29.6082951,4.30901639 30.3604262,5.07918033 31.3856721,5.31360656 L31.3856721,6.31491803 L29.293541,6.31491803 L29.293541,6.9047541 L34.3348525,6.9047541 C34.8289508,6.9047541 35.1614098,6.86245902 35.5532131,6.75688525 L35.5532131,9.01131148 L36.8869836,9.01131148 L36.8869836,4.32901639 Z M32.038459,4.81327869 C31.3964918,4.81327869 30.8758361,4.17721311 30.8758361,3.39229508 C30.8758361,2.6057377 31.3964918,1.97032787 32.038459,1.97032787 C32.6797705,1.97032787 33.2007541,2.6057377 33.2007541,3.39229508 C33.2007541,4.17721311 32.6797705,4.81327869 32.038459,4.81327869 L32.038459,4.81327869 Z M26.3151803,9.01131148 L27.5430492,9.01131148 L27.5430492,5.97721311 L20.8027213,5.97721311 L20.8027213,6.59229508 L26.3151803,6.59229508 L26.3151803,9.01131148 Z M26.3151803,5.30409836 L27.5430492,5.30409836 L27.5430492,0.457213115 L26.3151803,0.457213115 L26.3151803,2.42770492 L25.6656721,2.42770492 L25.6656721,0.457213115 L24.4391148,0.457213115 L24.4391148,5.30409836 L25.6656721,5.30409836 L25.6656721,3.03065574 L26.3151803,3.03065574 L26.3151803,5.30409836 Z M20.5643607,5.11754098 L23.6453443,5.11754098 L23.6453443,4.74081967 L23.6453443,0.671967213 L22.418459,0.671967213 L22.418459,2.26639344 L21.0515738,2.26639344 L21.0515738,0.671967213 L19.8240328,0.671967213 L19.8240328,4.37655738 C19.8240328,4.78606557 20.1561639,5.11754098 20.5643607,5.11754098 L20.5643607,5.11754098 Z M21.0515738,2.86868852 L22.418459,2.86868852 L22.418459,4.50934426 L21.298459,4.50934426 C21.1623934,4.50934426 21.0515738,4.39885246 21.0515738,4.26147541 L21.0515738,2.86868852 Z M16.7823934,9.01032787 L18.0617377,9.01032787 L18.0617377,0.457213115 L16.7823934,0.457213115 L16.7823934,9.01032787 Z M14.7345246,9.01032787 L16.0132131,9.01032787 L16.0132131,0.457213115 L14.7345246,0.457213115 L14.7345246,3.54311475 L13.1325574,3.54311475 L13.1325574,4.30606557 L14.7345246,4.30606557 L14.7345246,6.1047541 C14.4223934,6.22737705 14.1417377,6.29491803 13.7266557,6.29491803 L11.9076393,6.29491803 C11.7368197,6.29491803 11.5994426,6.15655738 11.5994426,5.98672131 L11.5994426,1.72836066 L13.9368197,1.72836066 L13.9368197,1.11262295 L10.2748525,1.11262295 L10.2748525,6.29819672 C10.2748525,6.63786885 10.5502623,6.91163934 10.8879672,6.91163934 L13.7266557,6.91163934 C14.1594426,6.91163934 14.5076393,6.8352459 14.7345246,6.69163934 L14.7345246,9.01032787 Z M0.322065574,5.58934426 L8.68206557,5.58934426 L8.68206557,4.97295082 L5.15452459,4.97295082 L5.15452459,4.13065574 L7.96698361,4.13065574 L7.96698361,3.51819672 L2.66731148,3.51819672 C2.4964918,3.51819672 2.35681967,3.38180328 2.35681967,3.21032787 L2.35681967,2.67229508 L7.85288525,2.67229508 L7.85288525,0.601147541 L1.03780328,0.601147541 L1.03780328,1.2152459 L6.53091803,1.2152459 L6.53091803,2.05491803 L1.03780328,2.05491803 L1.03780328,3.51655738 C1.03780328,3.85655738 1.31157377,4.13065574 1.65059016,4.13065574 L3.82862295,4.13065574 L3.82862295,4.97295082 L0.322065574,4.97295082 L0.322065574,5.58934426 Z M0.684360656,8.53065574 L1.05354098,9.07655738 C1.7755082,8.98934426 3.42042623,8.39786885 4.45059016,7.27295082 C5.48042623,8.39786885 7.12567213,8.98934426 7.84731148,9.07655738 L8.21747541,8.53065574 C7.5102623,8.42901639 5.58304918,7.60836066 5.1912459,5.98278689 L3.70927869,5.98278689 C3.31813115,7.60836066 1.3912459,8.42901639 0.684360656,8.53065574 L0.684360656,8.53065574 Z M46.7128852,5.97721311 L39.9574754,5.97721311 L39.9574754,8.27098361 C39.9574754,8.6795082 40.2866557,9.01098361 40.6958361,9.01098361 L46.7128852,9.01098361 L46.7128852,5.97721311 Z M45.3899344,8.42213115 L41.5912459,8.42213115 C41.4227213,8.42213115 41.286,8.28737705 41.286,8.11655738 L41.286,6.56639344 L45.3899344,6.56639344 L45.3899344,8.42213115 Z" id="Fill-1" fill="#867A6B" mask="url(#mask-2)"></path>
            </g>
            <path d="M14.0838361,18.2579672 C11.8251475,20.5176393 8.12777049,20.5176393 5.86842623,18.2579672 L1.69432787,14.0838689 C-0.564688525,11.8248525 -0.564688525,8.12747541 1.69432787,5.86845902 L5.86842623,1.69436066 C8.12777049,-0.564655738 11.8251475,-0.564655738 14.0838361,1.69436066 L18.2579344,5.86845902 C20.5176066,8.12747541 20.5176066,11.8248525 18.2579344,14.0838689 L14.0838361,18.2579672 Z" id="Fill-4" fill="#867A6B"></path>
            <path d="M7.50065574,16.1076066 C7.16852459,16.1076066 6.89836066,15.8479344 6.88491803,15.5161311 C6.87803279,15.351541 6.9357377,15.1941639 7.04754098,15.0725246 C7.15868852,14.9508852 7.31081967,14.8803934 7.47540984,14.8738361 C7.81508197,14.8574426 8.1042623,15.1243279 8.11868852,15.4656393 C8.13245902,15.8043279 7.86721311,16.0928525 7.52721311,16.106623 C7.51836066,16.1076066 7.5095082,16.1076066 7.50065574,16.1076066" id="Fill-6" fill="#FEFEFE"></path>
            <path d="M9.74645902,4.71386885 C9.40777049,4.71386885 9.13695082,4.81944262 8.91760656,5.03780328 C8.44416393,5.50829508 8.19563934,6.47944262 8.2182623,7.77157377 C8.2444918,9.36567213 8.62383607,12.4915738 9.87727869,14.1017377 C10.0802295,14.3617377 10.2995738,14.5705902 10.526459,14.7207541 C10.7471148,14.8666557 10.9949836,15.0089508 11.3818689,15.0089508 C11.4861311,15.0089508 11.598918,14.998459 11.7162951,14.9771475 C12.4353115,14.8050164 13.3356393,14.0053443 14.0048197,12.9397705 C14.1071148,12.778459 14.2821967,12.681082 14.4743279,12.681082 C14.5779344,12.681082 14.6795738,12.7102623 14.7677705,12.7663279 C14.8933443,12.8453443 14.9799016,12.9682951 15.0130164,13.1115738 C15.0461311,13.2568197 15.0205574,13.4046885 14.9421967,13.5299344 C14.0953115,14.8755082 12.9772787,15.8220656 11.9517049,16.0587869 C11.9480984,16.0607541 11.9376066,16.0623934 11.926459,16.0646885 C11.7385902,16.0994426 11.5530164,16.1164918 11.3772787,16.1164918 C10.7159672,16.1164918 10.249082,15.8646885 9.91662295,15.6446885 C9.58777049,15.4276393 9.28088525,15.1374754 9.00383607,14.7820656 C7.2392459,12.5161639 7.11891803,8.26796721 7.11104918,7.79091803 C7.09170492,6.66042623 7.25465574,5.12829508 8.13760656,4.25255738 C8.56809836,3.82501639 9.10809836,3.60796721 9.74252459,3.60796721 L9.84481967,3.60796721 C10.4802295,3.60796721 11.0208852,3.82501639 11.4520328,4.25255738 C12.3349836,5.12829508 12.4972787,6.66042623 12.4785902,7.79091803 C12.4585902,8.96862295 12.2428525,11.2502623 11.0218689,13.2958361 C10.921541,13.4627213 10.7395738,13.5656721 10.5454754,13.5656721 C10.4458033,13.5656721 10.3477705,13.538459 10.2625246,13.4876393 C10.0005574,13.3305902 9.91465574,12.9905902 10.0707213,12.7273115 C10.9258033,11.2961639 11.338918,9.7217377 11.371377,7.77157377 C11.3933443,6.47911475 11.1444918,5.50829508 10.6710492,5.03780328 C10.4520328,4.81944262 10.1818689,4.71386885 9.84383607,4.71386885 L9.74645902,4.71386885 Z" id="Fill-8" fill="#FEFEFE"></path>
        </g>
    </g>
</svg>