<?xml version="1.0" encoding="UTF-8"?>
<svg width="100px" height="60px" viewBox="0 0 100 60" version="1.1" xmlns="http://www.w3.org/2000/svg" xmlns:xlink="http://www.w3.org/1999/xlink" style="background: #FFFFFF;">
    <!-- Generator: Sketch 58 (84663) - https://sketch.com -->
    <title>logo/lottemembers</title>
    <desc>Created with Sketch.</desc>
    <g id="logo/lottemembers" stroke="none" stroke-width="1" fill="none" fill-rule="evenodd">
        <rect fill="#FFFFFF" x="0" y="0" width="100" height="60"></rect>
        <g id="Group-33" transform="translate(3.000000, 22.000000)">
            <path d="M27.6704774,10.1837161 C26.6488,10.1837161 25.8722839,9.14861935 25.8722839,7.87326452 C25.8722839,6.59842581 26.6488,5.56203871 27.6704774,5.56203871 C28.692671,5.56203871 29.4699613,6.59842581 29.4699613,7.87326452 C29.4699613,9.14861935 28.692671,10.1837161 27.6704774,10.1837161 M27.6704774,4.93003871 C25.4601548,4.93003871 24.1360258,6.24797419 24.1360258,7.87326452 C24.1360258,9.49752258 25.4601548,10.8157161 27.6704774,10.8157161 C29.8828645,10.8157161 31.2075097,9.49752258 31.2075097,7.87326452 C31.2075097,6.24797419 29.8828645,4.93003871 27.6704774,4.93003871" id="Fill-1" fill="#E50013"></path>
            <polygon id="Fill-3" fill="#E50013" points="37.4541419 5.14668387 31.2716903 5.14668387 31.2716903 5.79907097 33.4835613 5.79907097 33.4835613 10.5763613 35.2378839 10.5763613 35.2378839 5.79907097 37.4541419 5.79907097"></polygon>
            <polygon id="Fill-5" fill="#E50013" points="44.1948129 5.14668387 38.0128774 5.14668387 38.0128774 5.79907097 40.2257806 5.79907097 40.2257806 10.5763613 41.9785548 10.5763613 41.9785548 5.79907097 44.1948129 5.79907097"></polygon>
            <path d="M47.0274581,5.78490323 L49.9464258,5.78490323 L49.9464258,5.14490323 L45.5776516,5.14490323 C45.1838452,5.16167742 44.7533935,5.30929032 44.7533935,6.01354839 L44.7533935,9.70206452 C44.7533935,10.4070968 45.1838452,10.5562581 45.5776516,10.5709677 L49.9464258,10.5709677 L49.9464258,9.93096774 L47.0274581,9.93096774 C46.6566194,9.90851613 46.5015226,9.75187097 46.5015226,9.32296774 L46.5015226,7.85380645 L49.8958452,7.85380645 L49.8958452,7.21793548 L46.5015226,7.21793548 L46.5015226,6.39264516 C46.5015226,5.96296774 46.6566194,5.80812903 47.0274581,5.78490323" id="Fill-7" fill="#E50013"></path>
            <path d="M21.6483097,9.92162581 C21.277471,9.89943226 21.1223742,9.75285161 21.1223742,9.32317419 L21.1223742,5.14743226 L19.373471,5.14743226 L19.373471,9.7020129 C19.373471,10.4075613 19.8031484,10.5562065 20.197729,10.5724645 L24.1675355,10.5724645 L24.1675355,9.92162581 L21.6483097,9.92162581 Z" id="Fill-9" fill="#E50013"></path>
            <path d="M53.9591742,6.6188129 L53.9591742,10.4438452 L53.0131097,10.4438452 L53.0131097,5.81545806 C53.0131097,5.50139355 53.2673032,5.24694194 53.5811097,5.24642581 L54.5186581,5.24461822 C54.802529,5.24410323 55.0567226,5.41984516 55.1565935,5.68565161 L56.2551742,8.61184516 L57.474529,5.66603871 C57.5800774,5.41055484 57.8296258,5.24461822 58.1057548,5.24590968 L59.0913032,5.24642581 C59.4053677,5.24642581 59.6600774,5.50113548 59.6600774,5.81545806 L59.6600774,10.4438452 L58.0020129,10.4438452 L58.0020129,6.66526452 L56.578271,10.2097806 C56.5214968,10.3509419 56.3844645,10.4438452 56.2322065,10.4438452 L55.8564645,10.4438452 C55.6234323,10.4438452 55.4144,10.3013935 55.3287226,10.0848774 L53.9591742,6.6188129 Z" id="Fill-11" fill="#E50013"></path>
            <path d="M93.0173935,7.54990968 L91.8540387,7.54990968 C91.6752,7.14526452 91.3299097,6.9955871 90.8829419,7.04874839 C90.8530065,7.05210323 90.8228129,7.05365161 90.7936516,7.05907097 C90.4821677,7.11790968 90.2881032,7.28229677 90.2855226,7.48900645 C90.2829419,7.68874839 90.4155871,7.82371613 90.7466839,7.90061935 C91.1410065,7.99249032 91.5420387,8.05287742 91.9368774,8.14087742 C92.1410065,8.18629677 92.3459097,8.24307097 92.5361032,8.32745806 C92.9438452,8.50810323 93.1632,8.82732903 93.1614046,9.2828129 C93.159329,9.74087742 92.9921032,10.1130065 92.551329,10.2954581 C92.3051355,10.3971355 92.0395871,10.4660387 91.7761032,10.5091355 C91.2540387,10.5945548 90.7255226,10.6020387 90.2104258,10.4665548 C89.6759742,10.3256516 89.2468129,10.0546839 89.1319742,9.42578065 L90.3025548,9.42578065 C90.5288774,9.99997419 90.9366194,10.1981677 91.511071,10.0533935 C91.7662968,9.98913548 91.8932645,9.80539355 91.9123613,9.6028129 C91.9299097,9.41494194 91.8101677,9.24797419 91.535329,9.1592 C91.2506839,9.06732903 90.9523613,9.0188129 90.6625548,8.94190968 C90.3877161,8.86836129 90.1056516,8.80642581 89.8450065,8.69623226 C89.4434581,8.52668387 89.1959742,8.2355871 89.1931355,7.7635871 C89.1900387,7.27842581 89.4308129,6.97261935 89.8444903,6.77803871 C90.2318452,6.59610323 90.8643613,6.54784516 91.1141677,6.54835721 C91.5897806,6.54965161 92.047071,6.6392 92.5146839,6.8915871 C92.7575226,7.02294194 92.9541677,7.1955871 93.0173935,7.54990968" id="Fill-13" fill="#E50013"></path>
            <path d="M87.0562065,6.76776774 L87.0562065,7.47770323 C87.5098839,6.97499355 88.0391742,6.72131613 88.7261419,6.69938065 L88.7261419,7.64828387 C88.0956903,7.64828387 87.6747871,7.81783226 87.5651097,7.86376774 C87.2959484,7.97550968 87.0562065,8.16209032 87.0562065,8.47176774 L87.0562065,10.4666065 L85.5984,10.4666065 L85.5984,7.33473548 C85.5984,7.02015484 85.8538839,6.7651871 86.1687226,6.76570323 L87.0562065,6.76776774 Z" id="Fill-16" fill="#E50013"></path>
            <path d="M77.6824516,9.47705806 C77.5392258,9.80325161 77.2767742,10.0251871 76.8927742,10.0497032 C76.4806452,10.0757677 76.127871,9.94828387 75.9430968,9.57538065 C75.7513548,9.18854194 75.6734194,8.74492903 75.7552258,8.31860645 C75.8277419,7.93976774 76.0205161,7.50389677 76.4027097,7.35396129 C76.5916129,7.27989677 76.8009032,7.2768 76.999871,7.29950968 C77.8261935,7.39473548 77.8984516,8.38363871 77.8027097,9.02802581 C77.7887742,9.1211871 77.7704516,9.21383226 77.7443871,9.30467097 C77.7270968,9.36454194 77.7064516,9.42234839 77.6824516,9.47705806 M78.6329032,7.10131613 C77.8710968,6.55783226 76.671871,6.53873548 75.9916129,7.02467097 C75.9289032,7.06931613 75.7825806,7.17434839 75.7307097,7.22621935 L75.7307097,4.63705806 L74.8060645,4.63705806 C74.492,4.63705806 74.2370323,4.89176774 74.2370323,5.20609032 L74.2370323,10.4298323 L75.604,10.4298323 C75.604,10.4298323 75.687871,10.1795097 75.7141935,10.0915097 C75.9327742,10.3578323 76.3203871,10.456671 76.6473548,10.4951226 C77.0930323,10.5480258 77.5371613,10.4731871 77.9658065,10.3518968 C78.3299355,10.2484129 78.6313548,10.0182194 78.8837419,9.72428387 C79.4597419,9.05357419 79.4904516,7.71344516 78.6329032,7.10131613" id="Fill-18" fill="#E50013"></path>
            <path d="M82.3087226,7.12929032 C82.9012387,7.09264516 83.2442065,7.38787097 83.4155613,8.13264516 L81.2963355,8.13264516 C81.3675613,7.53109677 81.7461419,7.16412903 82.3087226,7.12929032 L82.3087226,7.12929032 Z M84.902529,8.56309677 C84.9420129,7.80154839 84.4798194,7.18529032 83.9727226,6.9636129 C82.9291097,6.50735484 81.8700129,6.47922581 80.8238194,6.928 C80.0315613,7.26787097 79.5918194,8.18503226 79.7740129,9.02090323 C79.9283355,9.72980645 80.4233032,10.1220645 81.0725935,10.3313548 C81.8919484,10.5956129 82.7304,10.6139355 83.5546581,10.3633548 C83.8640774,10.2694194 84.1528516,10.0913548 84.4331097,9.92129032 C84.6354323,9.79922581 84.7734968,9.60464516 84.8519484,9.34425806 L83.4808516,9.34425806 C83.0421419,10.0157419 82.5311742,10.2190968 81.9311742,9.97135484 C81.3998194,9.75148387 81.1528516,9.22554839 81.3009806,8.56309677 L84.902529,8.56309677 Z" id="Fill-20" fill="#E50013"></path>
            <path d="M63.0993032,7.12929032 C63.6918194,7.09264516 64.0347871,7.38787097 64.2061419,8.13264516 L62.0869161,8.13264516 C62.1581419,7.53109677 62.5367226,7.16412903 63.0993032,7.12929032 L63.0993032,7.12929032 Z M65.6931097,8.56309677 C65.7325935,7.80154839 65.2704,7.18529032 64.7633032,6.9636129 C63.7196903,6.50735484 62.6605935,6.47922581 61.6144,6.928 C60.8221419,7.26787097 60.3824,8.18503226 60.5645935,9.02090323 C60.7189161,9.72980645 61.2138839,10.1220645 61.8631742,10.3313548 C62.682529,10.5956129 63.5209806,10.6139355 64.3452387,10.3633548 C64.6546581,10.2694194 64.9434323,10.0913548 65.2236903,9.92129032 C65.4260129,9.79922581 65.5640774,9.60464516 65.642529,9.34425806 L64.2714323,9.34425806 C63.8327226,10.0157419 63.3217548,10.2190968 62.7217548,9.97135484 C62.1904,9.75148387 61.9434323,9.22554839 62.0915613,8.56309677 L65.6931097,8.56309677 Z" id="Fill-22" fill="#E50013"></path>
            <path d="M73.2762065,7.91659355 C73.2762065,7.57491613 73.0713032,7.25852903 72.7931097,7.02394839 C72.2400774,6.55865806 71.294529,6.58085161 70.7027871,7.07607742 C70.6132387,7.15117419 70.5273032,7.23091613 70.4359484,7.31169032 C70.2860129,7.18007742 70.1618839,7.04923871 70.0173677,6.94781935 C69.4369806,6.54059355 68.4767226,6.58343226 67.862271,7.26394839 L67.862271,6.76330323 L66.3758194,6.76433548 L66.3758194,10.4298839 L67.8630452,10.4298839 L67.8630452,8.06988387 C67.8630452,7.72562581 68.1420129,7.44691613 68.4860129,7.44691613 C68.8300129,7.44691613 69.1092387,7.72562581 69.1092387,8.06988387 L69.1092387,10.4298839 L70.5642065,10.4298839 L70.5642065,8.06988387 C70.5642065,7.72562581 70.8431742,7.44691613 71.1874323,7.44691613 C71.5314323,7.44691613 71.8104,7.72562581 71.8104,8.06988387 L71.8104,10.4298839 L73.2762065,10.4298839 L73.2762065,7.91659355 Z" id="Fill-24" fill="#E50013"></path>
            <path d="M11.1122839,14.4069935 C9.33189677,16.1920258 6.41009032,16.1920258 4.62970323,14.4069935 L1.33550968,11.1174452 C-0.445135484,9.32621935 -0.445135484,6.41447742 1.33550968,4.62892903 L4.62970323,1.33499355 C6.41009032,-0.445135484 9.33189677,-0.445135484 11.1122839,1.33499355 L14.4064774,4.62892903 C16.1871226,6.41447742 16.1871226,9.32621935 14.4064774,11.1174452 L11.1122839,14.4069935 Z" id="Fill-26" fill="#E50013"></path>
            <path d="M5.91734194,12.7116903 C5.65566452,12.7116903 5.44430968,12.5052387 5.42908387,12.2384 C5.42392258,12.1132387 5.4696,11.9922065 5.55992258,11.8918194 C5.6456,11.7955613 5.76637419,11.7364645 5.8972129,11.7364645 C6.16353548,11.7264 6.39501935,11.9320774 6.40508387,12.2033032 C6.41514839,12.4701419 6.20405161,12.6962065 5.93695484,12.7116903 L5.91734194,12.7116903 Z" id="Fill-29" fill="#FFFFFF"></path>
            <path d="M7.68725161,3.71811613 C7.42092903,3.71811613 7.20983226,3.79940645 7.03383226,3.97050323 C6.6611871,4.34727742 6.46531613,5.11243871 6.48028387,6.13308387 C6.50557419,7.38572903 6.80234839,9.85540645 7.7928,11.1227613 C7.95409032,11.3338581 8.12492903,11.4946323 8.30067097,11.6146323 C8.47744516,11.7364387 8.67331613,11.8461161 8.98015484,11.8461161 C9.0604129,11.8461161 9.15099355,11.8360516 9.24647742,11.8210839 C9.81009032,11.6858581 10.5189935,11.0520516 11.0521548,10.2120516 C11.132671,10.0866323 11.268671,10.0006968 11.4191226,10.0006968 C11.5050581,10.0006968 11.5804129,10.025729 11.6557677,10.0714065 C11.7512516,10.1361806 11.8214452,10.2321806 11.8467355,10.3472774 C11.8720258,10.4590194 11.8518968,10.5785032 11.7909935,10.6801806 C11.1226065,11.7364387 10.2374452,12.4850839 9.42789677,12.6708903 C9.42299355,12.6708903 9.41783226,12.6760516 9.41292903,12.6760516 C9.26170323,12.7016 9.11538065,12.7116645 8.98015484,12.7116645 C8.45705806,12.7116645 8.08467097,12.5152774 7.82325161,12.3444387 C7.56209032,12.1723097 7.32544516,11.9423742 7.10402581,11.665471 C5.71125161,9.87553548 5.61499355,6.52534194 5.61009032,6.14856774 C5.59486452,5.25256774 5.72570323,4.05101935 6.42015484,3.35140645 C6.76183226,3.01979355 7.18428387,2.84405161 7.68725161,2.84405161 L7.76828387,2.84405161 C8.27099355,2.84405161 8.69809032,3.01979355 9.03512258,3.35140645 C9.73421935,4.05101935 9.85989677,5.25256774 9.84544516,6.14856774 C9.83021935,7.07837419 9.65886452,8.87889032 8.69809032,10.4936 C8.61757419,10.6190194 8.47228387,10.7052129 8.32105806,10.7052129 C8.2408,10.7052129 8.16544516,10.6801806 8.09473548,10.6443097 C7.88828387,10.5181161 7.82325161,10.2474065 7.94402581,10.0409548 C8.61757419,8.90908387 8.9448,7.66650323 8.97499355,6.13308387 C8.99021935,5.11243871 8.79409032,4.34727742 8.41654194,3.97050323 C8.24570323,3.79940645 8.03460645,3.71811613 7.76828387,3.71811613 L7.68725161,3.71811613 Z" id="Fill-31" fill="#FFFFFF"></path>
        </g>
    </g>
</svg>