<?xml version="1.0" encoding="UTF-8"?>
<svg width="100px" height="60px" viewBox="0 0 100 60" version="1.1" xmlns="http://www.w3.org/2000/svg" xmlns:xlink="http://www.w3.org/1999/xlink">
    <!-- Generator: Sketch 55.2 (78181) - https://sketchapp.com -->
    <title>logo/megazone</title>
    <desc>Created with Sketch.</desc>
    <defs>
        <polygon id="path-1" points="0.0519328861 0.0266395161 5.81295022 0.0266395161 5.81295022 5.85483871 0.0519328861 5.85483871"></polygon>
        <polygon id="path-3" points="0 10.6451613 67.3354629 10.6451613 67.3354629 0 0 0"></polygon>
    </defs>
    <g id="logo/megazone" stroke="none" stroke-width="1" fill="none" fill-rule="evenodd">
        <g transform="translate(16.000000, 25.000000)">
            <polygon id="Fill-1" fill="#2B2C2F" points="0 1.06451613e-05 0 10.5131187 2.62458978 10.5131187 2.62458978 4.96342355 4.98173183 10.5131187 6.18949685 10.5131187 9.04694784 2.8397671 10.1920746 2.8397671 7.5392206 10.5131187 13.7202701 10.5131187 13.7202701 7.57457516 11.2186722 7.57457516 13.7603819 0.00698322581 7.13071732 0.00698322581 5.67819035 4.8247171 5.53920679 5.22045097 5.35724246 4.73556387 3.65756277 1.06451613e-05"></polygon>
            <polygon id="Fill-2" fill="#2B2C2F" points="63.1039979 4.88590016 63.1039979 10.5784534 67.3354523 10.5784534 67.3354523 9.19894694 64.4145661 9.19894694 64.4145661 8.2905421 67.3354523 8.2905421 67.3354523 7.04245016 64.414088 7.04245016 64.414088 6.23368403 67.3354523 6.23368403 67.3354523 4.88590016"></polygon>
            <polygon id="Fill-3" fill="#2B2C2F" points="27.8099144 10.5784747 23.57846 10.5784747 23.57846 4.88586823 27.8099144 4.88586823 27.8099144 6.23370532 24.8885501 6.23370532 24.8885501 7.04241823 27.8099144 7.04241823 27.8099144 8.29056339 24.8890283 8.29056339 24.8890283 9.19896823 27.8099144 9.19896823"></polygon>
            <polygon id="Fill-4" fill="#2B2C2F" points="56.0041641 4.88824742 58.1817857 4.88824742 60.2385405 9.07743774 60.2385405 4.88824742 61.5819951 4.88824742 61.5819951 10.5764894 59.4194088 10.5784587 57.3523471 6.37260871 57.3523471 10.5784587 56.0041641 10.5784587"></polygon>
            <polygon id="Fill-5" fill="#2B2C2F" points="47.8251091 4.89438435 47.8251091 6.28325855 45.033484 9.19337952 47.9236089 9.19337952 47.9236089 10.5723537 42.9227509 10.5723537 42.9227509 9.17938113 45.6719264 6.27032468 42.9913926 6.27032468 42.9913926 4.89438435"></polygon>
            <g id="Group-36">
                <path d="M53.1984866,8.9888221 C52.9829983,9.16590435 52.7884426,9.1597564 51.77263,9.1597564 C50.7568174,9.1597564 50.5622617,9.16590435 50.3467734,8.9888221 C50.1312852,8.81168661 50.1312852,8.35921403 50.1312852,7.73098984 C50.1312852,7.10271242 50.1312852,6.65023984 50.3467734,6.47315758 C50.5622617,6.2960221 50.7568174,6.30217007 51.77263,6.30217007 C52.7884426,6.30217007 52.9829983,6.2960221 53.1984866,6.47315758 C53.414028,6.65023984 53.414028,7.10271242 53.414028,7.73098984 C53.414028,8.35921403 53.414028,8.81168661 53.1984866,8.9888221 M54.3271436,5.22288339 C53.9677308,4.81405597 53.140683,4.81677002 51.77263,4.81677002 C50.404577,4.81677002 49.5775292,4.81405597 49.2181164,5.22288339 C48.8587568,5.63165758 48.7902744,6.22901081 48.7902744,7.73098984 C48.7902744,9.23291565 48.8587568,9.8303221 49.2181164,10.2390963 C49.5775292,10.6478705 50.404577,10.6451564 51.77263,10.6451564 C53.140683,10.6451564 53.9677308,10.6478705 54.3271436,10.2390963 C54.6865032,9.8303221 54.7549856,9.23291565 54.7549856,7.73098984 C54.7549856,6.22901081 54.6865032,5.63165758 54.3271436,5.22288339" id="Fill-6" fill="#2B2C2F"></path>
                <path d="M37.9435107,8.35000597 L38.7612611,6.23710113 L39.0301964,6.23710113 L39.8479468,8.35000597 L37.9435107,8.35000597 Z M39.9236015,4.88851887 L37.8678561,4.88851887 L35.5948161,10.5713318 L37.0930865,10.5713318 L37.475982,9.60853016 L40.3154756,9.60853016 L40.698371,10.5713318 L42.1966415,10.5713318 L39.9236015,4.88851887 Z" id="Fill-8" fill="#2B2C2F"></path>
                <g id="Group-12" transform="translate(29.008037, 4.790323)">
                    <mask id="mask-2" fill="white">
                        <use xlink:href="#path-1"></use>
                    </mask>
                    <g id="Clip-11"></g>
                    <path d="M5.62014772,2.56268952 L3.11849676,2.56268952 L3.11849676,3.696825 L4.49605973,3.696825 C4.47592412,3.98562823 4.53107126,4.19262339 4.40287274,4.31477661 C4.20093218,4.5071879 4.05004789,4.47482661 3.03428845,4.47482661 C2.01847588,4.47482661 1.82386702,4.48105403 1.60837875,4.30391855 C1.39289048,4.12683629 1.38083036,3.67862177 1.38083036,3.05039758 C1.38083036,2.55608952 1.33227112,1.89353468 1.59089955,1.63491048 C1.77690163,1.44899274 2.3227415,1.44196694 2.93244155,1.44196694 C3.5421416,1.44196694 4.16852393,1.46522661 4.32206464,1.5631621 C4.47565848,1.66104435 4.45902933,1.97571532 4.45902933,2.08158145 L5.81295022,2.08158145 C5.81295022,1.06432984 5.66286285,0.70436371 5.41964162,0.445633065 C5.17631413,0.186849194 4.63589334,0.0266395161 2.93244155,0.0266395161 C1.22904289,0.0266395161 0.633793724,0.169550806 0.387437925,0.58391371 C0.107876957,1.05411048 0.0519328861,1.55629597 0.0519328861,2.57360081 L0.0538455039,2.57360081 C0.0526766819,2.69021855 0.0519328861,2.81093468 0.0519328861,2.94069919 C0.0519328861,4.44257177 0.120362101,5.03997823 0.479774863,5.44880565 C0.839134496,5.85752661 1.66623544,5.85486576 3.03428845,5.85486576 C4.40234146,5.85486576 5.02574861,5.85752661 5.38510824,5.44880565 C5.744521,5.03997823 5.81295022,4.44257177 5.81295022,2.94069919 C5.81295022,2.81093468 5.81215329,2.67936048 5.8110376,2.56268952 L5.62014772,2.56268952 Z" id="Fill-10" fill="#2B2C2F" mask="url(#mask-2)"></path>
                </g>
                <polygon id="Fill-13" fill="#2B2C2F" points="19.966986 4.89433113 18.6874447 8.53215532 17.4079034 4.89433113 15.2490361 4.89433113 15.2490361 10.5784747 16.5533352 10.5784747 16.5533352 6.42377468 18.1382578 10.5784747 19.2366317 10.5784747 20.8215012 6.42377468 20.8215012 10.5784747 22.1258003 10.5784747 22.1258003 4.89433113"></polygon>
                <path d="M30.2035928,1.06394661 C30.0310853,1.06394661 29.8926861,1.08976113 29.79238,1.140645 C29.7199661,1.17737081 29.6546183,1.22958532 29.5972929,1.29649016 L29.5972929,1.11493694 L29.2931867,1.11493694 C29.2931867,1.11493694 29.3019529,1.31197887 29.3031748,1.36983532 C29.3042905,1.42801113 29.3049812,1.50939339 29.3049812,1.61360952 L29.3049812,3.15992565 L29.3050874,3.1600321 L29.6227414,3.1600321 L29.6227414,1.93126113 C29.6227414,1.7443321 29.6716725,1.59764177 29.7681003,1.49534177 C29.8638906,1.39368048 30.0066994,1.3421579 30.1926484,1.3421579 C30.3288161,1.3421579 30.4309818,1.38409984 30.5048832,1.47037887 C30.5791034,1.55719016 30.6167714,1.70984177 30.6167714,1.92402242 L30.6167714,3.1600321 L30.9345316,3.1600321 L30.9345316,1.86563371 C30.9345316,1.61456758 30.8727965,1.41646113 30.7510265,1.27669016 C30.6279814,1.13553532 30.4438388,1.06394661 30.2035928,1.06394661" id="Fill-15" fill="#2B2C2F"></path>
                <polygon id="Fill-17" fill="#2B2C2F" points="33.4427864 1.11493694 34.1377042 3.1600321 34.4704997 3.1600321 35.2062731 1.11493694 34.8675804 1.11493694 34.3105836 2.76099823 33.7697909 1.11493694"></polygon>
                <path d="M18.0214978,0.187823226 L17.6892336,0.187823226 C17.6891273,0.187823226 17.6890742,0.187876452 17.6890742,0.187929677 L17.6890742,3.15989903 C17.6890742,3.16000548 17.6891273,3.16005871 17.6892336,3.16005871 L18.0213384,3.16005871 C18.0214447,3.16005871 18.0214978,3.16000548 18.0214978,3.15989903 L18.0214978,0.187823226 Z" id="Fill-19" fill="#2B2C2F"></path>
                <path d="M19.3856884,2.92915984 C19.1957017,2.92915984 19.0437017,2.85581468 18.9218254,2.70619694 C18.868644,2.63428887 18.8269383,2.54950016 18.7978772,2.45401306 C18.7686566,2.35799371 18.7538338,2.25207435 18.7538338,2.13928887 C18.7538338,2.02889855 18.7686566,1.92430984 18.7978772,1.82829048 C18.8270446,1.73269694 18.8688565,1.6464179 18.9204972,1.57419048 C18.9803728,1.50281468 19.0494927,1.44745984 19.1259442,1.40966952 C19.2020239,1.37214532 19.2894199,1.35309048 19.3856884,1.35309048 C19.5779596,1.35309048 19.7299596,1.4253179 19.8486481,1.57152919 C19.8997044,1.64604532 19.9404538,1.73243081 19.9696743,1.82823726 C19.9988949,1.92430984 20.0137177,2.02889855 20.0137177,2.13928887 C20.0137177,2.25207435 19.9988949,2.35799371 19.9696743,2.45401306 C19.9405069,2.54971306 19.8999169,2.63482113 19.8507201,2.70449371 C19.7908446,2.77597597 19.7216184,2.83196952 19.6449012,2.87098403 C19.569034,2.90957274 19.4817443,2.92915984 19.3856884,2.92915984 M19.8043923,1.14545661 C19.6840567,1.09137919 19.5431606,1.0639679 19.3856884,1.0639679 C19.0722316,1.0639679 18.8239631,1.17520984 18.6476835,1.39476629 C18.4951523,1.58760339 18.4178506,1.83813726 18.4178506,2.13928887 C18.4178506,2.28613887 18.4386238,2.42436629 18.4796388,2.54997919 C18.5207601,2.6760179 18.5770761,2.788005 18.6482148,2.88460984 C18.7362484,2.99031629 18.8431956,3.07329532 18.9661875,3.13104532 C19.0893389,3.18906145 19.2305007,3.21849532 19.3856884,3.21849532 C19.5407167,3.21849532 19.6812941,3.18906145 19.8033297,3.13104532 C19.9250466,3.07318887 20.0313563,2.99031629 20.120718,2.88290661 C20.1906348,2.78789855 20.2474289,2.67591145 20.289719,2.55024532 C20.3320092,2.42425984 20.3534198,2.28597919 20.3534198,2.13928887 C20.3534198,1.84298081 20.2748963,1.59255339 20.1199211,1.39471306 C20.0317282,1.28373726 19.9255779,1.19980016 19.8043923,1.14545661" id="Fill-21" fill="#2B2C2F"></path>
                <path d="M22.408448,1.11493694 L22.0906878,1.11493694 L22.0906878,2.21676435 C22.0929192,2.31539177 22.0810716,2.41008048 22.0555169,2.49822242 C22.0301216,2.5862579 21.9927724,2.66418048 21.9443194,2.73002081 C21.8968227,2.79479661 21.8375316,2.84663855 21.7682523,2.88421597 C21.6998231,2.92131435 21.621512,2.94015629 21.5354442,2.94015629 C21.2401573,2.94015629 21.0967109,2.74864984 21.0967109,2.35467242 L21.0967109,1.11493694 L20.7788976,1.11493694 L20.7788976,2.42035306 C20.7788976,2.94994984 21.0199937,3.21847403 21.4953324,3.21847403 C21.6613051,3.21847403 21.8016169,3.18419661 21.9124956,3.11649339 C21.9897972,3.06938855 22.0567388,3.00120629 22.1124173,2.91322403 L22.1124173,3.1600321 L22.4157266,3.1600321 L22.408448,1.11493694 Z" id="Fill-23" fill="#2B2C2F"></path>
                <path d="M24.002243,2.85870484 C23.9345576,2.9054371 23.8548652,2.92917581 23.7652909,2.92917581 C23.6653035,2.92917581 23.5788107,2.90756613 23.5082563,2.86498548 C23.4370113,2.82197903 23.3754357,2.75832097 23.3259732,2.67715161 C23.288996,2.61014032 23.2614224,2.53067419 23.2440494,2.44104194 C23.2262515,2.3498129 23.2172728,2.24714032 23.2172728,2.13573871 C23.2172728,2.02918065 23.2262515,1.92890323 23.2440494,1.83762097 C23.2614224,1.74820161 23.288996,1.66873548 23.3253357,1.60262903 C23.4263326,1.43475484 23.570257,1.35310645 23.7652909,1.35310645 C23.8559278,1.35310645 23.9359389,1.37242742 24.0030399,1.41059032 C24.0711504,1.44933871 24.1291665,1.50346935 24.1754943,1.57143871 C24.222566,1.64057903 24.2589057,1.7240371 24.2833978,1.81947097 C24.3080494,1.91602258 24.3204814,2.02242097 24.3204814,2.13573871 C24.3204814,2.22712742 24.3085806,2.32192258 24.2850979,2.4174629 C24.261934,2.51177903 24.2259662,2.59800484 24.1783632,2.67363871 C24.1312385,2.74852742 24.0719473,2.81080161 24.002243,2.85870484 L24.002243,2.85870484 Z M24.6347351,0.187833871 L24.3206408,0.187833871 L24.3204814,0.187940323 L24.3204814,1.31387903 C24.2697439,1.25650161 24.2046086,1.20710806 24.12566,1.16628387 C24.0082465,1.10555323 23.8723444,1.07478871 23.7216195,1.07478871 C23.1615944,1.07478871 22.8776238,1.43172097 22.8776238,2.13573871 C22.8776238,2.44854677 22.947328,2.70355161 23.0848771,2.89378065 C23.2369303,3.102 23.4511435,3.20749355 23.7216195,3.20749355 C23.981098,3.20749355 24.181976,3.11174032 24.3204814,2.92252258 L24.3204814,3.16006935 L24.6347351,3.16006935 L24.6347351,0.187833871 Z" id="Fill-25" fill="#2B2C2F"></path>
                <mask id="mask-4" fill="white">
                    <use xlink:href="#path-3"></use>
                </mask>
                <g id="Clip-28"></g>
                <polygon id="Fill-27" fill="#2B2C2F" mask="url(#mask-4)" points="26.2079111 3.16006935 26.5548387 3.16006935 26.5548387 0.388548387 26.2079111 0.388548387"></polygon>
                <path d="M27.9955287,1.06394661 C27.8230212,1.06394661 27.684622,1.08976113 27.5843158,1.140645 C27.5119551,1.17737081 27.4465542,1.22958532 27.3892288,1.29649016 L27.3892288,1.11493694 L27.0851226,1.11493694 C27.0851226,1.11493694 27.0938888,1.31197887 27.0951638,1.36983532 C27.0962264,1.42801113 27.0969171,1.50939339 27.0969171,1.61360952 L27.0969171,3.15992565 C27.0969702,3.15997887 27.0969702,3.15997887 27.0970765,3.1600321 L27.4146773,3.1600321 L27.4146773,1.93126113 C27.4146773,1.7443321 27.4636084,1.59764177 27.5600362,1.49534177 C27.6558265,1.39368048 27.7986353,1.3421579 27.9845842,1.3421579 C28.120752,1.3421579 28.2229177,1.38409984 28.2968191,1.47037887 C28.3710393,1.55719016 28.4087072,1.70984177 28.4087072,1.92402242 L28.4087072,3.1600321 L28.7264674,3.1600321 L28.7264674,1.86563371 C28.7264674,1.61456758 28.6647855,1.41646113 28.5429624,1.27669016 C28.4199173,1.13553532 28.2357747,1.06394661 27.9955287,1.06394661" id="Fill-29" fill="#2B2C2F" mask="url(#mask-4)"></path>
                <path d="M32.3277408,2.92915984 C32.1378072,2.92915984 31.9857541,2.85581468 31.8638779,2.70619694 C31.8106965,2.63428887 31.7690439,2.54950016 31.7399827,2.45401306 C31.710709,2.35799371 31.6958863,2.25207435 31.6958863,2.13928887 C31.6958863,2.02889855 31.710709,1.92430984 31.7399827,1.82829048 C31.769097,1.73269694 31.810909,1.6464179 31.8626028,1.57419048 C31.9224783,1.50281468 31.9915451,1.44745984 32.0679967,1.40966952 C32.1440764,1.37214532 32.2314724,1.35309048 32.3277408,1.35309048 C32.5200651,1.35309048 32.672012,1.4253179 32.7907537,1.57152919 C32.84181,1.64604532 32.8825062,1.73243081 32.9117268,1.82823726 C32.9409473,1.92430984 32.9557701,2.02889855 32.9557701,2.13928887 C32.9557701,2.25207435 32.9409473,2.35799371 32.9117268,2.45401306 C32.8825593,2.54971306 32.8419693,2.63482113 32.7927726,2.70449371 C32.732897,2.77597597 32.6636709,2.83196952 32.5869536,2.87098403 C32.5110865,2.90957274 32.4238498,2.92915984 32.3277408,2.92915984 M32.7464447,1.14545661 C32.6261092,1.09137919 32.485213,1.0639679 32.3277408,1.0639679 C32.014284,1.0639679 31.7660156,1.17520984 31.589736,1.39476629 C31.4372047,1.58760339 31.3599031,1.83813726 31.3599031,2.13928887 C31.3599031,2.28613887 31.3806762,2.42436629 31.4216912,2.54997919 C31.4628125,2.6760179 31.5191285,2.788005 31.5903204,2.88460984 C31.6783008,2.99031629 31.785248,3.07329532 31.9082931,3.13104532 C32.0313913,3.18906145 32.1725531,3.21849532 32.3277408,3.21849532 C32.4828222,3.21849532 32.6233465,3.18906145 32.7453822,3.13104532 C32.867099,3.07318887 32.9734618,2.99031629 33.0628236,2.88290661 C33.1326873,2.78789855 33.1894814,2.67591145 33.2317715,2.55024532 C33.2740616,2.42425984 33.2954723,2.28597919 33.2954723,2.13928887 C33.2954723,1.84298081 33.2170018,1.59255339 33.0619735,1.39471306 C32.9737806,1.28373726 32.8676834,1.19980016 32.7464447,1.14545661" id="Fill-30" fill="#2B2C2F" mask="url(#mask-4)"></path>
                <path d="M39.6078176,2.92915984 C39.4178841,2.92915984 39.2658309,2.85581468 39.1440078,2.70619694 C39.0907733,2.63428887 39.0490145,2.54950016 39.0200596,2.45401306 C38.9907327,2.35799371 38.97591,2.25207435 38.97591,2.13928887 C38.97591,2.02889855 38.9907327,1.92430984 39.0200596,1.82829048 C39.0491207,1.73269694 39.0909327,1.6464179 39.1426265,1.57419048 C39.2024489,1.50281468 39.2715688,1.44745984 39.3480204,1.40966952 C39.4241532,1.37214532 39.5116023,1.35309048 39.6078176,1.35309048 C39.8000888,1.35309048 39.9520357,1.4253179 40.0708305,1.57152919 C40.1218868,1.64604532 40.1626362,1.73243081 40.1917505,1.82823726 C40.2210773,1.92430984 40.2358469,2.02889855 40.2358469,2.13928887 C40.2358469,2.25207435 40.2210773,2.35799371 40.1917505,2.45401306 C40.1626362,2.54971306 40.121993,2.63482113 40.0728494,2.70449371 C40.0129207,2.77597597 39.9436414,2.83196952 39.8670305,2.87098403 C39.791057,2.90957274 39.7039267,2.92915984 39.6078176,2.92915984 M40.0266278,1.14545661 C39.9061329,1.09137919 39.765343,1.0639679 39.6078176,1.0639679 C39.294414,1.0639679 39.0461455,1.17520984 38.8697065,1.39476629 C38.7172815,1.58760339 38.6399268,1.83813726 38.6399268,2.13928887 C38.6399268,2.28613887 38.660753,2.42436629 38.7018212,2.54997919 C38.7428894,2.6760179 38.7990991,2.788005 38.870291,2.88460984 C38.9582714,2.99031629 39.0653248,3.07329532 39.1883168,3.13104532 C39.3115213,3.18906145 39.4526299,3.21849532 39.6078176,3.21849532 C39.7628991,3.21849532 39.9034233,3.18906145 40.0255121,3.13104532 C40.1471759,3.07318887 40.2534855,2.99031629 40.3429004,2.88290661 C40.4126578,2.78789855 40.4696113,2.67591145 40.5119014,2.55024532 C40.5540853,2.42425984 40.5755491,2.28597919 40.5755491,2.13928887 C40.5755491,1.84298081 40.4969724,1.59255339 40.3420504,1.39471306 C40.2537512,1.28373726 40.1477071,1.19980016 40.0266278,1.14545661" id="Fill-31" fill="#2B2C2F" mask="url(#mask-4)"></path>
                <path d="M17.1354138,2.81870565 C17.1232475,2.82216532 17.1182003,2.82551855 17.1083184,2.82881855 L17.1061402,2.82961694 C17.0437676,2.85500565 16.9628001,2.87390081 16.8655222,2.88571694 C16.7667036,2.89763952 16.6654411,2.90498468 16.5651881,2.90737984 C16.561416,2.90737984 16.557697,2.90743306 16.553978,2.90743306 C16.2191637,2.90737984 15.9547442,2.80199274 15.7679452,2.59393306 C15.6769365,2.49344274 15.6081885,2.37368468 15.5639327,2.23790565 C15.5191987,2.1010621 15.4964598,1.94505726 15.4964598,1.77430887 C15.4964598,1.43691048 15.5890623,1.16226532 15.7711861,0.958570161 C15.967495,0.748062097 16.2346771,0.641237903 16.5654537,0.641237903 C16.6703821,0.641237903 16.7656942,0.646666935 16.8488399,0.657418548 C16.9308169,0.667957258 17.0192754,0.688928226 17.1102842,0.719266935 L17.2076683,0.432433065 C17.1799353,0.420670161 17.1548057,0.410770161 17.129676,0.403850806 C17.0801073,0.391395968 17.0457864,0.381868548 17.0013181,0.374523387 C16.9569028,0.367018548 16.9118501,0.360844355 16.8661598,0.355841129 C16.8205226,0.350997581 16.7736634,0.347218548 16.7257949,0.344876613 C16.6778732,0.342321774 16.6244261,0.341097581 16.5654537,0.341097581 C16.1471748,0.341097581 15.8029036,0.474800806 15.5419907,0.738641129 C15.2863374,1.00226855 15.1567045,1.35068468 15.1567045,1.77430887 C15.1567045,1.989075 15.1874126,2.18467984 15.248032,2.35542823 C15.308917,2.52734758 15.404176,2.68031855 15.5310463,2.80992339 C15.786912,3.07376371 16.1349553,3.20752016 16.5654537,3.20752016 C16.6945023,3.20752016 16.8039997,3.20123952 16.89113,3.18894435 C16.9778885,3.17643629 17.0633188,3.15626371 17.1449238,3.12906532 C17.176482,3.11852661 17.1892859,3.11022339 17.2076683,3.09287177 L17.1354138,2.81870565 Z" id="Fill-32" fill="#2B2C2F" mask="url(#mask-4)"></path>
                <path d="M36.6067981,2.2196279 C36.6067981,2.33731016 36.592666,2.44248435 36.5647736,2.53222306 C36.5370938,2.62079081 36.4977258,2.69599887 36.4476258,2.75550532 C36.397579,2.81463919 36.3382878,2.86073274 36.2715056,2.89250855 C36.2050421,2.92407145 36.1310876,2.94014565 36.0516077,2.94014565 C35.9389757,2.94014565 35.8482326,2.91326661 35.7802816,2.85897629 C35.7444731,2.83358758 35.7188653,2.79904403 35.7019174,2.75300371 C35.68396,2.70531339 35.6749282,2.65235371 35.6749282,2.59556177 C35.6749282,2.50369403 35.698464,2.42396177 35.7450044,2.35860048 C35.7913854,2.29318597 35.8630023,2.24283435 35.9583675,2.20871661 C36.0259467,2.1829021 36.1124395,2.16203758 36.2152427,2.14665532 C36.2936601,2.13489242 36.3821718,2.12898435 36.4801934,2.12898435 C36.5100515,2.12898435 36.5409722,2.12956984 36.5725835,2.13063435 L36.6067981,2.13063435 L36.6067981,2.2196279 Z M36.7472693,1.24793758 C36.629112,1.12583758 36.4416223,1.06393597 36.1900599,1.06393597 C36.0740278,1.06393597 35.9658055,1.07330371 35.8683683,1.09187952 C35.7694965,1.110615 35.691398,1.13121339 35.6044801,1.1784779 C35.5668653,1.19731984 35.5380698,1.21861016 35.5179342,1.24458435 L35.6075616,1.49149887 C35.6122368,1.48968919 35.6163277,1.48995532 35.6212687,1.48692145 L35.6216937,1.48670855 C35.7053176,1.4354521 35.7951044,1.39814081 35.8884507,1.37583919 C35.9828597,1.35353758 36.0844409,1.34214726 36.1900599,1.34214726 C36.3414224,1.34214726 36.4495384,1.37860694 36.5114329,1.450515 C36.5747618,1.52380694 36.6067981,1.63398435 36.6067981,1.77801339 L36.6067981,1.85231661 L36.5945255,1.85231661 C36.2301718,1.85231661 35.955233,1.88499726 35.7770408,1.94950694 C35.6270596,2.00550048 35.5140027,2.09114081 35.4410576,2.20424565 C35.3683781,2.31665855 35.3315602,2.45195855 35.3315602,2.60657952 C35.3315602,2.67305855 35.3418139,2.74092145 35.3622152,2.80841177 C35.3828821,2.87691339 35.4143872,2.93796339 35.4558272,2.98985855 C35.5763753,3.1415521 35.7670526,3.21846339 36.0224402,3.21846339 C36.1687555,3.21846339 36.3064109,3.18253597 36.4313154,3.11163919 C36.515205,3.06416177 36.5836342,3.00305855 36.6359655,2.92918113 L36.6359655,3.16002145 L36.9247177,3.16002145 L36.9247177,2.71239242 L36.9247177,1.79621661 C36.9247177,1.55430532 36.8650546,1.36982468 36.7472693,1.24793758 L36.7472693,1.24793758 Z" id="Fill-33" fill="#2B2C2F" mask="url(#mask-4)"></path>
                <path d="M38.397699,2.89831016 C38.3168909,2.92609403 38.2433614,2.94014565 38.1794481,2.94014565 C38.0818515,2.94014565 37.9522185,2.91012629 37.9522185,2.65043758 L37.9522185,1.39686339 L38.4076872,1.39686339 L38.4076872,1.11492629 L37.9522185,1.11492629 L37.9522185,0.567445645 L37.634352,0.567445645 L37.634352,1.11492629 L37.240884,1.11492629 L37.240884,1.39686339 L37.634352,1.39686339 L37.634352,2.52620855 C37.634352,2.75513274 37.6556565,2.91166984 37.6998592,3.00534726 C37.7691384,3.14676823 37.9107784,3.21846339 38.1211133,3.21846339 C38.2244477,3.21846339 38.3302261,3.19935532 38.435367,3.161565 L38.4372796,3.16081984 C38.4550776,3.15320855 38.4694222,3.14618274 38.4801541,3.13420694 L38.397699,2.89831016 Z" id="Fill-34" fill="#2B2C2F" mask="url(#mask-4)"></path>
                <path d="M41.793961,1.06394661 C41.5893641,1.06394661 41.4251446,1.17635952 41.3042777,1.39868371 L41.3042777,1.11493694 L40.9936367,1.11493694 C40.9980995,1.21218048 41.0047405,3.1600321 41.0047405,3.1600321 L41.3188349,3.1600321 L41.3188349,2.15028532 C41.3188349,1.94020306 41.3519338,1.76615468 41.4173347,1.63287726 C41.499046,1.46675952 41.6199128,1.38601597 41.7866825,1.38601597 L41.9330508,1.38601597 L41.9330508,1.079595 C41.8866699,1.07012081 41.8400764,1.06394661 41.793961,1.06394661" id="Fill-35" fill="#2B2C2F" mask="url(#mask-4)"></path>
            </g>
        </g>
    </g>
</svg>