<?xml version="1.0" encoding="UTF-8"?>
<svg width="100px" height="60px" viewBox="0 0 100 60" version="1.1" xmlns="http://www.w3.org/2000/svg" xmlns:xlink="http://www.w3.org/1999/xlink">
    <!-- Generator: Sketch 55.2 (78181) - https://sketchapp.com -->
    <title>logo/mnsoft</title>
    <desc>Created with Sketch.</desc>
    <g id="logo/mnsoft" stroke="none" stroke-width="1" fill="none" fill-rule="evenodd">
        <g transform="translate(14.999934, 22.164932)" fill="#033F7A" id="Combined-Shape">
            <path d="M3.42696907,0 L4.52173196,0 L4.52173196,4.98804124 L3.42696907,4.98804124 L3.42696907,2.92371134 L1.09410309,2.92371134 L1.09410309,4.98804124 L8.10018719e-13,4.98804124 L8.10018719e-13,0 L1.09410309,0 L1.09410309,1.94853608 L3.42696907,1.94853608 L3.42696907,0 Z M28.308701,0.976181443 C28.2072577,0.979645361 28.1251134,0.970903093 28.0748041,1.03572784 C28.0216907,1.0979134 28.0348866,1.20150103 28.0332371,1.25873814 L28.0332371,2.42525361 L30.3522474,2.42525361 L30.3522474,0.976181443 L28.308701,0.976181443 Z M27.1834227,0.284057732 C27.4098969,0.0476865979 27.7165361,0.0026556701 28.0373608,1.64948454e-05 L31.4460206,1.64948454e-05 L31.4460206,4.98805773 L30.3522474,4.98805773 L30.3522474,3.39663505 L28.0332371,3.39663505 L28.0332371,4.98805773 L26.9373196,4.98805773 L26.9373196,1.06063505 C26.9458969,0.862531959 26.9536495,0.519274227 27.1834227,0.284057732 Z M19.4449814,1.64948454e-05 C19.7725691,0.0026556701 20.0740948,0.0476865979 20.3022186,0.284057732 C20.531332,0.519274227 20.5422186,0.862531959 20.5441979,1.06063505 L20.5441979,4.98805773 L19.4542186,4.98805773 L19.4542186,1.25873814 C19.4500948,1.20150103 19.4598268,1.0979134 19.4101773,1.03572784 C19.3603629,0.970903093 19.276734,0.979480412 19.1764454,0.976181443 L17.1223423,0.976181443 L17.1223423,4.98805773 L16.0298887,4.98805773 L16.0298887,1.64948454e-05 L19.4449814,1.64948454e-05 Z M13.9682474,3.73004536 L13.9682474,6.59793814e-05 L15.0598763,6.59793814e-05 L15.0598763,3.92484948 C15.0536082,4.12658144 15.0453608,4.47082887 14.8157526,4.70456082 C14.5891134,4.93895258 14.2851134,4.98744742 13.9595052,4.98810722 L10.5427629,4.98810722 L10.5427629,6.59793814e-05 L11.6363711,6.59793814e-05 L11.6363711,4.0140866 L13.6893196,4.0140866 C13.7897732,4.01243711 13.8738969,4.01606598 13.9256907,3.95140619 C13.9764948,3.88839588 13.9621443,3.78711753 13.9682474,3.73004536 Z M24.9411134,3.73004536 L24.9411134,1.25878763 C24.9396289,1.20155052 24.9483711,1.09796289 24.8992165,1.03577732 C24.8469278,0.970787629 24.7628041,0.979529897 24.6628454,0.976230928 L22.6079175,0.976230928 L22.6079175,4.0140866 L24.6628454,4.0140866 C24.7628041,4.01243711 24.8469278,4.01606598 24.8992165,3.95140619 C24.9483711,3.88839588 24.9396289,3.78711753 24.9411134,3.73004536 Z M26.0312577,1.06051959 L26.0312577,3.92484948 C26.0261443,4.12658144 26.0164124,4.47082887 25.7881237,4.70456082 C25.5616495,4.93895258 25.256,4.98744742 24.9335258,4.98810722 L21.5174433,4.98810722 L21.5174433,6.59793814e-05 L22.6079175,6.59793814e-05 L24.9335258,6.59793814e-05 C25.256,0.00254020619 25.5616495,0.0477360825 25.7881237,0.283942268 C26.0164124,0.519323711 26.0261443,0.862416495 26.0312577,1.06051959 Z M7.53477938,2.18236701 L8.85766598,9.89690722e-05 L10.1563052,9.89690722e-05 L8.11721237,3.1436866 L8.11721237,4.98814021 L6.9462433,4.98814021 L6.9462433,3.1436866 L4.90566598,9.89690722e-05 L6.20529485,9.89690722e-05 L7.53477938,2.18236701 Z M32.5441979,1.64948454e-05 L33.7103835,1.64948454e-05 L33.7103835,0.976181443 L33.7103835,4.01403711 L33.7103835,4.98805773 L32.5441979,4.98805773 L32.5441979,4.01403711 L32.5441979,0.976181443 L32.5441979,1.64948454e-05 Z M55.4114639,7.48197938 L69.6687835,7.48197938 L69.6687835,9.40329897 L66.227299,9.40329897 L66.227299,15.6510515 L64.2621031,15.6510515 L64.2621031,9.40329897 L61.0772784,9.40329897 L55.7999175,9.40362887 C55.5892784,9.40362887 55.4185567,9.57484536 55.4185567,9.78515464 L55.4185567,10.9110928 L60.6149278,10.9110928 L60.6149278,12.8330722 L55.4185567,12.8330722 L55.4185567,15.6510515 L53.4538557,15.6510515 L53.4538557,9.39653608 C53.4538557,8.33921649 54.3298969,7.48197938 55.4114639,7.48197938 Z M41.6186392,11.3485361 C42.5096907,11.6228454 43.1150515,12.4726598 43.1150515,13.4377732 C43.1150515,14.6605361 42.1240412,15.6510515 40.9011134,15.6510515 L34.8969897,15.6510515 L34.8969897,13.729732 L40.7336907,13.729732 C40.9049072,13.729732 41.043299,13.5898557 41.043299,13.419134 C41.043299,13.2822268 40.9530722,13.1652784 40.8290309,13.1256907 L36.2535258,11.7841649 C35.3629691,11.5093608 34.7569485,10.6605361 34.7569485,9.69591753 C34.7569485,8.4723299 35.7484536,7.48197938 36.9707216,7.48197938 L42.7368247,7.48197938 L42.7368247,9.40329897 L37.1389691,9.40329897 C36.9679175,9.40329897 36.8300206,9.54284536 36.8300206,9.71290722 C36.8300206,9.85014433 36.9190928,9.96676289 37.043299,10.0078351 L41.6186392,11.3485361 Z M50.3879588,13.4372784 L50.3879588,9.69591753 C50.3879588,9.48494845 50.2172371,9.31439175 50.0059381,9.31439175 L50.0059381,9.31373196 L46.2774433,9.31439175 C46.0663093,9.31439175 45.8955876,9.48494845 45.8955876,9.69591753 L45.8955876,13.4390928 C45.8965773,13.6489072 46.0668041,13.8186392 46.2764536,13.8189691 L50.0135258,13.8183093 C50.220701,13.8145155 50.3879588,13.6456082 50.3879588,13.4372784 Z M50.3945567,7.39208247 C51.4767835,7.39208247 52.3531546,8.24964948 52.3531546,9.30680412 L52.3531546,13.8254021 C52.3531546,14.8830515 51.4767835,15.7406186 50.3945567,15.7406186 L45.888,15.7406186 C44.806433,15.7406186 43.9303918,14.8830515 43.9303918,13.8254021 L43.9303918,9.30680412 C43.9303918,8.24964948 44.806433,7.39208247 45.888,7.39208247 L50.3945567,7.39208247 Z M24.3587629,7.58705155 C24.9659381,7.95274227 25.3144742,8.55991753 25.3144742,9.25418557 L25.3138144,15.6581443 L23.3492784,15.6581443 L23.3492784,9.79604124 C23.3492784,9.72940206 23.2955052,9.67496907 23.2282062,9.67496907 C23.1790515,9.67496907 23.1401237,9.70334021 23.123134,9.73979381 L20.7642062,14.5109278 C20.4668041,15.0763711 19.9449072,15.3943918 19.3987629,15.3943918 C18.8070928,15.3943918 18.3318763,15.0763711 18.0339794,14.5109278 L15.6765361,9.74226804 C15.6534433,9.70465979 15.6171546,9.67496907 15.5699794,9.67496907 C15.5033402,9.67496907 15.4494021,9.72940206 15.4494021,9.79604124 L15.4494021,15.6581443 L13.4842062,15.6581443 L13.4842062,9.25418557 C13.4842062,8.55991753 13.8324124,7.95274227 14.4394227,7.58705155 C15.3740206,7.02490722 16.6799175,7.27645361 17.2516289,8.45435052 L19.3987629,12.8319175 L21.5463918,8.45435052 C22.1187629,7.31026804 23.4246598,7.02490722 24.3587629,7.58705155 Z M31.8154227,9.40395876 C32.8973196,9.40395876 33.7735258,10.2616907 33.7735258,11.3186804 L33.7735258,15.6510515 L31.8083299,15.6510515 L31.8083299,11.7074639 C31.8083299,11.4968247 31.6376082,11.3261031 31.4264742,11.3261031 L31.4264742,11.3254433 L28.9136495,11.3261031 C28.7030103,11.3261031 28.5322887,11.4968247 28.5322887,11.7074639 L28.5322887,15.6510515 L26.5674227,15.6510515 L26.5674227,15.6517113 L26.5670928,15.6517113 L26.5670928,11.3186804 C26.5670928,10.2616907 27.443134,9.40395876 28.5245361,9.40395876 L31.8154227,9.40395876 Z"></path>
        </g>
    </g>
</svg>