<?xml version="1.0" encoding="UTF-8"?>
<svg width="100px" height="60px" viewBox="0 0 100 60" version="1.1" xmlns="http://www.w3.org/2000/svg" xmlns:xlink="http://www.w3.org/1999/xlink">
    <title>mohw</title>
    <defs>
        <polygon id="path-1" points="0 0.132166667 24.5665417 0.132166667 24.5665417 24.2771667 0 24.2771667"></polygon>
    </defs>
    <g id="mohw" stroke="none" stroke-width="1" fill="none" fill-rule="evenodd">
        <g id="Group-12" transform="translate(9.000000, 18.000000)">
            <path d="M33.35625,13.107125 L38.6508333,13.107125 L38.6508333,10.995875 L33.35625,10.995875 L33.35625,13.107125 Z M40.6375,16.2229583 L40.6375,17.3292083 L31.3804167,17.3292083 L31.3804167,16.2229583 L35.3770833,16.2229583 L35.3770833,14.1904583 L32.1254167,14.1904583 L32.1254167,8.43295833 L33.35625,8.43295833 L33.35625,9.912125 L38.6508333,9.912125 L38.6508333,8.43295833 L39.8920833,8.43295833 L39.8920833,14.1904583 L36.6295833,14.1904583 L36.6295833,16.2229583 L40.6375,16.2229583 Z" id="Fill-1" fill="#595757"></path>
            <path d="M49.0950833,8.00433333 L50.3484167,8.00433333 L50.3484167,14.4505833 L49.0950833,14.4505833 L49.0950833,11.5035 L47.44675,11.5035 L47.44675,10.4089167 L49.0950833,10.4089167 L49.0950833,8.00433333 Z M42.2988333,17.8714167 L42.2988333,14.1905833 L43.5525833,14.1905833 L43.5525833,16.76475 L50.5513333,16.76475 L50.5513333,17.8714167 L42.2988333,17.8714167 Z M46.5775833,13.56975 L45.3246667,13.56975 L45.3246667,9.41516667 L41.633,9.41516667 L41.633,8.29766667 L46.5775833,8.29766667 L46.5775833,13.56975 Z" id="Fill-2" fill="#595757"></path>
            <path d="M53.9591667,11.018375 L59.2541667,11.018375 L59.2541667,10.1042083 L53.9591667,10.1042083 L53.9591667,11.018375 Z M60.4954167,14.8454583 L60.4954167,18.0967083 L59.2420833,18.0967083 L59.2420833,15.9067083 L52.4916667,15.9067083 L52.4916667,14.8454583 L60.4954167,14.8454583 Z M61.2404167,12.9487917 L61.2404167,14.0217083 L51.98375,14.0217083 L51.98375,12.9487917 L55.98,12.9487917 L55.98,12.068375 L52.7283333,12.068375 L52.7283333,8.128375 L53.9591667,8.128375 L53.9591667,9.06545833 L59.2541667,9.06545833 L59.2541667,8.128375 L60.4954167,8.128375 L60.4954167,12.068375 L57.2325,12.068375 L57.2325,12.9487917 L61.2404167,12.9487917 Z" id="Fill-3" fill="#595757"></path>
            <path d="M69.9633333,18.0742083 L71.2166667,18.0742083 L71.2166667,8.00420833 L69.9633333,8.00420833 L69.9633333,18.0742083 Z M62.49,9.73129167 L62.49,8.62504167 L68.4958333,8.62504167 L68.4958333,9.73129167 L65.9670833,9.73129167 L68.7666667,16.3129583 L67.6604167,16.787125 L65.5154167,11.6392083 L63.3820833,16.8662917 L62.2529167,16.392125 L65.06375,9.73129167 L62.49,9.73129167 Z" id="Fill-4" fill="#595757"></path>
            <path d="M79.972125,8.16620833 L79.972125,9.44245833 L74.6775417,9.44245833 L74.6775417,8.16620833 L73.4462917,8.16620833 L73.4462917,13.0095417 L81.2137917,13.0095417 L81.2137917,8.16620833 L79.972125,8.16620833 Z M74.6775417,11.9149583 L79.972125,11.9149583 L79.972125,10.5262083 L74.6775417,10.5262083 L74.6775417,11.9149583 Z M72.7012917,14.3645417 L72.7012917,15.4707917 L76.6975417,15.4707917 L76.6975417,18.0674583 L77.950875,18.0674583 L77.950875,15.4707917 L81.958375,15.4707917 L81.958375,14.3645417 L72.7012917,14.3645417 Z" id="Fill-5" fill="#595757"></path>
            <g id="Group-11" transform="translate(0.000000, 0.284625)">
                <g id="Group-8">
                    <mask id="mask-2" fill="white">
                        <use xlink:href="#path-1"></use>
                    </mask>
                    <g id="Clip-7"></g>
                    <path d="M18.8777917,11.8009167 C16.7540417,10.3575833 14.0344583,10.9463333 12.6069583,13.1171667 C11.4144583,14.9305 9.61445833,15.1555 8.91695833,15.1555 C6.64570833,15.1555 5.09070833,13.5575833 4.629875,11.9038333 L4.628625,11.9038333 C4.62445833,11.8875833 4.62070833,11.87425 4.616125,11.858 C4.612375,11.83925 4.606125,11.8209167 4.60195833,11.8013333 C4.42070833,11.11175 4.376125,10.7821667 4.376125,10.0488333 C4.376125,6.09425 8.432375,1.69175 14.2769583,1.69175 C20.2607083,1.69175 23.6844583,6.24675 24.5665417,8.77883333 C24.5515417,8.73425 24.537375,8.69008333 24.5219583,8.64383333 C22.823625,3.69258333 18.1282083,0.132166667 12.6002917,0.132166667 C5.64279167,0.132166667 -0.000125,5.773 -0.000125,12.7321667 C-0.000125,18.9521667 4.48654167,24.2771667 10.7094583,24.2771667 C15.6732083,24.2771667 19.008625,21.4934167 20.5382083,17.6588333 C21.378625,15.5613333 20.783625,13.0959167 18.8777917,11.8009167" id="Fill-6" fill="#003668" mask="url(#mask-2)"></path>
                </g>
                <path d="M24.645,9.02445833 C23.91,6.55445833 20.4595833,1.69154167 14.2766667,1.69154167 C8.43208333,1.69154167 4.37625,6.093625 4.37625,10.048625 C4.37625,10.7819583 4.42083333,11.1119583 4.60166667,11.8015417 C4.52625,11.499875 4.48583333,11.197375 4.48583333,10.9027917 C4.48583333,6.78445833 8.60958333,3.93070833 12.8479167,3.93070833 C18.5858333,3.93070833 23.2375,8.582375 23.2375,14.3194583 C23.2375,18.817375 20.64875,22.709875 16.8879167,24.5802917 L16.8895833,24.5832083 C21.7370833,22.8277917 25.1995833,18.1852917 25.1995833,12.7319583 C25.1995833,11.4419583 25.02625,10.303625 24.645,9.02445833" id="Fill-9" fill="#E5002D"></path>
            </g>
        </g>
    </g>
</svg>