<?xml version="1.0" encoding="UTF-8"?>
<svg width="100px" height="60px" viewBox="0 0 100 60" version="1.1" xmlns="http://www.w3.org/2000/svg" xmlns:xlink="http://www.w3.org/1999/xlink">
    <title>logo/mokpo_univ</title>
    <defs>
        <polygon id="path-1" points="0.000576923077 1.13538462 88.3315385 1.13538462 88.3315385 13.8460385 0.000576923077 13.8460385"></polygon>
    </defs>
    <g id="logo/mokpo_univ" stroke="none" stroke-width="1" fill="none" fill-rule="evenodd">
        <g id="Group-41" transform="translate(6.000000, 23.000000)">
            <polygon id="Fill-1" fill="#004098" points="39.8270769 10.6821923 39.8270769 11.8037308 46.4351538 11.8037308 46.4351538 13.6118077 48.0932308 13.6118077 48.0932308 10.6821923"></polygon>
            <g id="Group-40" transform="translate(0.000000, 0.018923)">
                <mask id="mask-2" fill="white">
                    <use xlink:href="#path-1"></use>
                </mask>
                <g id="Clip-3"></g>
                <path d="M31.9153846,12.4003846 L36.6773077,12.4003846 L36.6773077,11.6215385 L31.9153846,11.6215385 L31.9153846,12.4003846 Z M36.6611538,4.04076923 L36.6576923,8.04346154 L31.3373077,8.04346154 L31.3257692,7.19653846 L35.1057692,7.19653846 L35.1057692,4.25076923 L29.7207692,4.25076923 L29.7161538,5.35384615 L33.4857692,5.35384615 L33.4880769,6.10384615 L29.7334615,6.10384615 L29.745,8.07692308 C29.745,8.43461538 29.8684615,8.70115385 30.1107692,8.88115385 C30.3565385,9.06346154 30.7176923,9.18807692 31.1976923,9.18807692 L36.6669231,9.18807692 L36.6669231,10.4884615 L31.9153846,10.4884615 L31.9153846,9.72923077 L30.2723077,9.72923077 L30.2723077,12.5896154 C30.2723077,12.8607692 30.3692308,13.08 30.5630769,13.2461538 C30.765,13.4238462 31.0373077,13.5138462 31.3823077,13.5138462 L38.2707692,13.5138462 L38.2661538,4.04076923 L36.6611538,4.04076923 Z" id="Fill-2" fill="#004098" mask="url(#mask-2)"></path>
                <path d="M41.4207692,6.68307692 L46.5,6.68307692 L46.5,5.35846154 L41.4207692,5.35846154 L41.4207692,6.68307692 Z M44.9388462,7.79192308 L48.0934615,7.79192308 L48.0934615,4.25076923 L39.8273077,4.25076923 L39.8273077,6.69 C39.8273077,7.04076923 39.9346154,7.31307692 40.1503846,7.50346154 C40.3707692,7.69730769 40.7030769,7.79192308 41.1403846,7.79192308 L43.1642308,7.79192308 L43.1642308,8.67692308 L39.3934615,8.67692308 L39.3957692,9.79615385 L48.5688462,9.79615385 L48.5688462,8.67692308 L44.9388462,8.67692308 L44.9388462,7.79192308 Z" id="Fill-4" fill="#004098" mask="url(#mask-2)"></path>
                <path d="M28.1792308,5.30526923 C28.1423077,4.84026923 27.9992308,4.22757692 26.5926923,4.25065385 L19.9869231,4.25065385 L19.9869231,5.33296154 L26.5973077,5.33296154 L26.5984615,7.70526923 L19.6592308,7.70526923 L19.6592308,8.77834615 L23.2696154,8.77834615 L23.2696154,10.1168077 L19.9869231,10.1168077 L19.9869231,11.1898846 L26.4888462,11.1898846 L26.4888462,13.5921923 L28.0811538,13.5921923 L28.0811538,10.1168077 L24.8619231,10.1168077 L24.8619231,8.77834615 L28.8496154,8.77834615 L28.8496154,7.70526923 L28.1792308,7.70526923 L28.1792308,5.30526923 Z" id="Fill-5" fill="#004098" mask="url(#mask-2)"></path>
                <path d="M87.5843077,11.8654615 L87.5831538,5.30238462 C87.5196923,4.37930769 86.7477692,4.26046154 85.9954615,4.25007692 L79.5073846,4.25007692 L79.5073846,5.42123077 L86.0127692,5.42123077 L86.0127692,11.8654615 L84.6454615,11.8654615 L84.6454615,7.55584615 L83.0739231,7.55584615 L83.0739231,11.8654615 L81.8877692,11.8654615 L81.8877692,7.55584615 L80.3577692,7.55584615 L80.3577692,11.8654615 L79.0343077,11.8654615 L79.0343077,12.9166154 L88.332,12.9166154 L88.332,11.8654615 L87.5843077,11.8654615 Z" id="Fill-6" fill="#004098" mask="url(#mask-2)"></path>
                <polygon id="Fill-7" fill="#004098" mask="url(#mask-2)" points="79.0870385 6.32953846 77.7255 6.32953846 77.7255 4.05069231 76.1978077 4.05069231 76.1978077 10.4764615 69.7708846 10.4764615 69.7708846 11.5483846 76.1978077 11.5483846 76.1978077 13.2745385 77.7255 13.2745385 77.7255 7.52261538 79.0870385 7.52261538"></polygon>
                <path d="M52.4273077,8.7 L55.365,8.7 L55.365,5.31346154 L52.4273077,5.31346154 L52.4273077,8.7 Z M54.7419231,9.75 L58.1757692,9.75 L58.1757692,8.69884615 L56.9584615,8.69884615 L56.9584615,5.31346154 L58.1757692,5.31346154 L58.1757692,4.25076923 L49.6188462,4.25076923 L49.6188462,5.31346154 L50.835,5.31346154 L50.835,8.69884615 L49.6188462,8.69884615 L49.6188462,9.75 L53.1496154,9.75 L53.1496154,12.0369231 L49.2196154,12.0369231 L49.2196154,13.0892308 L58.5403846,13.0892308 L58.5403846,12.0369231 L54.7419231,12.0369231 L54.7419231,9.75 Z" id="Fill-8" fill="#004098" mask="url(#mask-2)"></path>
                <path d="M72.2901923,6.174 C73.1394231,6.174 73.8317308,6.69784615 73.8317308,7.34169231 C73.8317308,7.98438462 73.1394231,8.50823077 72.2901923,8.50823077 C71.4398077,8.50823077 70.7475,7.98438462 70.7475,7.34169231 C70.7475,6.69784615 71.4398077,6.174 72.2901923,6.174 M69.2301923,7.449 C69.2913462,8.65246154 70.6044231,9.62169231 72.2901923,9.62169231 C73.9736538,9.62169231 75.3121154,8.60515385 75.3305769,7.449 C75.3605769,6.55938462 74.6094231,5.72976923 73.8028846,5.63861538 L75.4575,5.62938462 L75.4575,4.59438462 L73.1071154,4.59438462 L73.1071154,3.89169231 L71.5413462,3.89169231 L71.5413462,4.59438462 L69.1425,4.59438462 L69.1425,5.62938462 L70.7613462,5.62938462 C69.9490385,5.74361538 69.1967308,6.594 69.2301923,7.449" id="Fill-9" fill="#004098" mask="url(#mask-2)"></path>
                <path d="M66.6308077,6.36553846 L65.3927308,6.36553846 L65.3927308,4.05207692 L63.8419615,4.05207692 L63.8419615,10.9809231 L60.9804231,10.9809231 L60.9804231,5.29246154 L62.8208077,5.29246154 L62.8208077,4.25053846 L59.3881154,4.25053846 L59.3881154,10.8528462 C59.3881154,11.2416923 59.4919615,11.5336154 59.7008077,11.7263077 C59.9292692,11.9386154 60.2811923,12.0436154 60.7542692,12.0436154 L63.8419615,12.0436154 L63.8419615,13.4063077 L65.3927308,13.4063077 L65.3927308,7.58053846 L66.6308077,7.58053846 L66.6308077,13.4074615 L68.1815769,13.4074615 L68.1815769,4.05207692 L66.6308077,4.05207692 L66.6308077,6.36553846 Z" id="Fill-10" fill="#004098" mask="url(#mask-2)"></path>
                <polygon id="Fill-11" fill="#009992" mask="url(#mask-2)" points="7.95876923 2.76426923 7.90453846 1.63811538 7.90915385 1.63696154 8.58761538 2.73542308 8.90723077 2.71926923 8.83107692 1.13503846 8.53338462 1.15003846 8.58646154 2.25196154 8.58184615 2.25196154 7.92069231 1.17888462 7.58030769 1.19619231 7.65646154 2.78042308"></polygon>
                <polygon id="Fill-12" fill="#009992" mask="url(#mask-2)" points="16.6126154 11.7708462 15.3514615 11.4466154 15.2706923 11.7593077 16.533 12.0835385 16.443 12.4585385 16.7176154 12.5277692 16.998 11.4477692 16.7245385 11.3762308"></polygon>
                <polygon id="Fill-13" fill="#009992" mask="url(#mask-2)" points="11.5188462 3.04719231 10.8957692 2.81065385 11.3584615 1.59796154 11.0573077 1.48373077 10.4919231 2.96526923 11.4161538 3.31603846"></polygon>
                <path d="M7.02692308,6.33853846 L7.09730769,7.98161538 C7.51384615,8.26430769 7.91538462,8.652 8.14153846,9.13546154 C8.10461538,7.89969231 7.84384615,6.57161538 7.02692308,6.33853846" id="Fill-14" fill="#009992" mask="url(#mask-2)"></path>
                <path d="M9.86526923,1.62738462 L9.86873077,1.62738462 L9.96219231,2.27815385 L9.56873077,2.21469231 L9.86526923,1.62738462 Z M9.43719231,2.46853846 L10.0106538,2.562 L10.0591154,2.90238462 L10.4041154,2.95892308 L10.1121923,1.30546154 L9.74526923,1.24661538 L8.93988462,2.72123077 L9.2745,2.77546154 L9.43719231,2.46853846 Z" id="Fill-15" fill="#009992" mask="url(#mask-2)"></path>
                <path d="M6.24323077,1.81211538 C6.29515385,1.72326923 6.37361538,1.66442308 6.47861538,1.63788462 C6.58130769,1.60903846 6.67707692,1.62173077 6.76592308,1.67365385 C6.88246154,1.74057692 6.96553846,1.86865385 7.01630769,2.06019231 C7.06707692,2.24942308 7.05784615,2.40288462 6.98861538,2.51711538 C6.939,2.60711538 6.86284615,2.66596154 6.759,2.69365385 C6.65284615,2.72134615 6.55592308,2.70865385 6.46592308,2.65557692 C6.35169231,2.58980769 6.26861538,2.46057692 6.219,2.27134615 C6.16823077,2.07980769 6.17630769,1.9275 6.24323077,1.81211538 M6.36669231,2.94634615 C6.51207692,3.00403846 6.66784615,3.01211538 6.83169231,2.96942308 C6.99323077,2.92557692 7.12476923,2.84365385 7.22284615,2.72019231 C7.37284615,2.53557692 7.40861538,2.28634615 7.32553846,1.97826923 C7.24361538,1.66673077 7.09130769,1.46942308 6.86746154,1.38173077 C6.72207692,1.32634615 6.56861538,1.32057692 6.40592308,1.36326923 C6.24323077,1.40711538 6.11053846,1.49019231 6.01130769,1.60788462 C5.86015385,1.79480769 5.82669231,2.04288462 5.90861538,2.35442308 C5.99053846,2.6625 6.14284615,2.86096154 6.36669231,2.94634615" id="Fill-16" fill="#009992" mask="url(#mask-2)"></path>
                <polygon id="Fill-17" fill="#009992" mask="url(#mask-2)" points="4.31469231 2.60769231 4.96315385 3.73730769 5.24353846 3.57692308 4.59507692 2.44730769 4.97584615 2.22576923 4.83507692 1.98115385 3.79315385 2.57884615 3.93392308 2.82346154"></polygon>
                <polygon id="Fill-18" fill="#009992" mask="url(#mask-2)" points="5.97276923 3.21161538 5.34853846 1.75315385 5.052 1.88123077 5.67507692 3.33853846"></polygon>
                <polygon id="Fill-19" fill="#009992" mask="url(#mask-2)" points="14.643 6.27542308 16.2814615 5.82196154 16.1003077 5.54273077 14.8864615 5.94426923 14.8853077 5.94311538 15.7460769 4.99811538 15.5568462 4.70619231 14.4756923 6.01926923"></polygon>
                <path d="M16.6796538,7.94423077 L16.7477308,8.29269231 C16.7627308,8.37230769 16.7581154,8.43692308 16.7200385,8.48307692 C16.6923462,8.52 16.6496538,8.54423077 16.5954231,8.55576923 C16.5215769,8.57423077 16.4627308,8.56615385 16.4188846,8.53615385 C16.3773462,8.505 16.3427308,8.44961538 16.3277308,8.36653846 L16.2654231,8.04115385 L16.6796538,7.94423077 Z M15.4023462,8.24423077 L16.0069615,8.10230769 L16.0588846,8.38384615 C16.0796538,8.49230769 16.0796538,8.56615385 16.0415769,8.60769231 C16.0138846,8.64 15.9411923,8.66884615 15.8246538,8.69653846 C15.7496538,8.71384615 15.6885,8.73115385 15.6400385,8.74730769 C15.5985,8.76115385 15.5592692,8.77961538 15.5200385,8.80038462 L15.6008077,9.15 L15.6435,9.13846154 C15.6469615,9.10269231 15.6700385,9.07615385 15.7092692,9.05884615 C15.7381154,9.04615385 15.8131154,9.02538462 15.9331154,8.99769231 C16.0658077,8.96653846 16.1569615,8.92730769 16.2054231,8.88 C16.2411923,8.84653846 16.2654231,8.79230769 16.2804231,8.71730769 C16.3231154,8.78423077 16.3819615,8.83038462 16.4592692,8.85576923 C16.5342692,8.88115385 16.6150385,8.88230769 16.7004231,8.86269231 C16.8031154,8.83846154 16.8861923,8.78884615 16.9496538,8.71269231 C17.0431154,8.60307692 17.0661923,8.46346154 17.0292692,8.29153846 L16.8735,7.57384615 L15.3308077,7.93615385 L15.4023462,8.24423077 Z" id="Fill-20" fill="#009992" mask="url(#mask-2)"></path>
                <path d="M16.6638462,10.1775 L16.6534615,10.4798077 C16.7803846,10.4832692 16.89,10.4440385 16.9869231,10.3655769 C17.1103846,10.2640385 17.1761538,10.1071154 17.1830769,9.89826923 C17.1911538,9.67788462 17.1369231,9.51403846 17.0215385,9.40788462 C16.9396154,9.33288462 16.8380769,9.29365385 16.7169231,9.29019231 C16.635,9.28788462 16.5657692,9.29942308 16.5080769,9.32480769 C16.4561538,9.34673077 16.4123077,9.38365385 16.3753846,9.43096154 C16.3453846,9.47134615 16.3188462,9.52096154 16.2957692,9.58326923 C16.2819231,9.62365385 16.2634615,9.6825 16.2415385,9.76673077 L16.1930769,9.92942308 C16.1665385,10.0263462 16.1423077,10.0932692 16.1215385,10.1278846 C16.0903846,10.1786538 16.0465385,10.2028846 15.99,10.2017308 C15.9173077,10.1994231 15.8642308,10.1613462 15.8319231,10.0921154 C15.8076923,10.0367308 15.7961538,9.96403846 15.7984615,9.87403846 C15.8030769,9.74942308 15.8376923,9.66057692 15.9011538,9.6075 C15.9438462,9.57288462 15.9969231,9.55442308 16.0603846,9.55557692 L16.0707692,9.24519231 C15.9392308,9.24057692 15.8261538,9.2775 15.7315385,9.3525 C15.6011538,9.46096154 15.5307692,9.6375 15.5226923,9.88673077 C15.5180769,10.0182692 15.5411538,10.1371154 15.5930769,10.2432692 C15.675,10.4151923 15.8157692,10.5040385 16.0165385,10.5109615 C16.1469231,10.5155769 16.2484615,10.4775 16.3211538,10.3955769 C16.3742308,10.3390385 16.4180769,10.2478846 16.4526923,10.1209615 L16.5634615,9.75057692 C16.5773077,9.70096154 16.5923077,9.66634615 16.6084615,9.64442308 C16.6384615,9.60865385 16.6788462,9.59019231 16.7307692,9.5925 C16.7965385,9.59480769 16.8438462,9.62480769 16.8761538,9.68596154 C16.9003846,9.73557692 16.9119231,9.79557692 16.9096154,9.86596154 C16.905,9.98711538 16.8726923,10.0736538 16.8103846,10.1232692 C16.7734615,10.1532692 16.7238462,10.1717308 16.6638462,10.1775" id="Fill-21" fill="#009992" mask="url(#mask-2)"></path>
                <polygon id="Fill-22" fill="#009992" mask="url(#mask-2)" points="15.3207692 7.76284615 15.5815385 7.65784615 15.3092308 6.98053846 15.6853846 6.81669231 15.9253846 7.40630769 16.1826923 7.30592308 15.9461538 6.714 16.2519231 6.58592308 16.5173077 7.24476923 16.7792308 7.13976923 16.3961538 6.17284615 14.9353846 6.79130769"></polygon>
                <path d="M12.2102308,3.78634615 C12.3717692,3.90288462 12.5240769,3.95480769 12.6671538,3.93865385 C12.8183077,3.9225 12.9533077,3.8325 13.0721538,3.6675 L13.6698462,2.83903846 L13.4044615,2.6475 L12.7998462,3.4875 C12.7421538,3.56826923 12.6786923,3.61557692 12.6106154,3.62596154 C12.5379231,3.63980769 12.4583077,3.61557692 12.3717692,3.55096154 C12.3036923,3.5025 12.2633077,3.4425 12.2540769,3.37326923 C12.2425385,3.29596154 12.2679231,3.21634615 12.3290769,3.13096154 L12.9244615,2.30134615 L12.6556154,2.10865385 L12.0452308,2.95673077 C12.0002308,3.02365385 11.9667692,3.08711538 11.946,3.14711538 C11.9240769,3.21173077 11.9171538,3.27634615 11.9217692,3.3375 C11.931,3.43096154 11.9656154,3.52211538 12.0267692,3.60865385 C12.0752308,3.67326923 12.1352308,3.73211538 12.2102308,3.78634615" id="Fill-23" fill="#009992" mask="url(#mask-2)"></path>
                <polygon id="Fill-24" fill="#009992" mask="url(#mask-2)" points="13.1516538 4.43653846 13.9293462 3.61961538 13.9316538 3.62307692 13.6074231 4.87038462 13.8393462 5.09192308 14.9331923 3.94269231 14.7174231 3.73730769 13.9570385 4.53692308 13.9535769 4.53461538 14.2731923 3.315 14.0251154 3.07961538 12.9324231 4.22769231"></polygon>
                <polygon id="Fill-25" fill="#009992" mask="url(#mask-2)" points="15.0435 12.4221923 14.9073462 12.7152692 15.4473462 12.9668077 16.1304231 13.8460385 16.2827308 13.5183462 15.7831154 12.9518077 16.5515769 12.9402692 16.7119615 12.5975769 15.5869615 12.6760385"></polygon>
                <polygon id="Fill-26" fill="#009992" mask="url(#mask-2)" points="14.1905769 5.56776923 15.4436538 4.59623077 15.2463462 4.34123077 13.9921154 5.31276923"></polygon>
                <polygon id="Fill-27" fill="#009992" mask="url(#mask-2)" points="15.4796538 10.9595769 17.0465769 11.2065 17.0961923 10.8880385 15.5304231 10.6411154"></polygon>
                <path d="M7.53288462,12.2295 C7.47057692,12.2295 7.42211538,12.2421923 7.38519231,12.2641154 C7.34826923,12.2883462 7.32980769,12.3195 7.32980769,12.3587308 C7.32980769,12.3991154 7.34826923,12.4314231 7.38403846,12.4533462 C7.41865385,12.4775769 7.46826923,12.4902692 7.53057692,12.4902692 C7.59403846,12.4902692 7.64365385,12.4775769 7.68173077,12.4533462 C7.72096154,12.4314231 7.73826923,12.3991154 7.73826923,12.3598846 C7.73826923,12.3195 7.72096154,12.2883462 7.68288462,12.2641154 C7.64711538,12.2421923 7.5975,12.2295 7.53288462,12.2295" id="Fill-28" fill="#009992" mask="url(#mask-2)"></path>
                <polygon id="Fill-29" fill="#009992" mask="url(#mask-2)" points="9.10073077 12.6057692 9.10073077 12.3253846 8.72919231 12.6057692"></polygon>
                <polygon id="Fill-30" fill="#009992" mask="url(#mask-2)" points="1.24130769 13.4103462 1.24015385 13.4080385 2.26246154 12.6684231 2.14015385 12.3788077 0.896307692 12.5980385 0.895153846 12.5945769 2.02707692 12.1134231 1.91053846 11.8365 0.449769231 12.4561154 0.632076923 12.8830385 1.84015385 12.6661154 1.84015385 12.6672692 0.849 13.3953462 1.03246154 13.8280385 2.49207692 13.2084231 2.37323077 12.9315"></polygon>
                <path d="M10.5396923,12.5742692 C10.4762308,12.5742692 10.4243077,12.5869615 10.3873846,12.6100385 C10.3493077,12.6342692 10.3308462,12.6642692 10.3308462,12.7035 C10.3308462,12.7438846 10.3493077,12.7761923 10.3862308,12.7992692 C10.4231538,12.8223462 10.4727692,12.8338846 10.5385385,12.8338846 C10.5996923,12.8338846 10.6493077,12.8223462 10.6862308,12.7992692 C10.722,12.7761923 10.7404615,12.7438846 10.7404615,12.7046538 C10.7404615,12.6642692 10.7231538,12.6331154 10.6873846,12.6088846 C10.6516154,12.5869615 10.6031538,12.5742692 10.5396923,12.5742692" id="Fill-31" fill="#009992" mask="url(#mask-2)"></path>
                <path d="M0.396807692,11.2435385 C0.377192308,11.1373846 0.397961538,11.0439231 0.456807692,10.9608462 C0.532961538,10.8500769 0.667961538,10.7785385 0.862961538,10.7439231 C1.05680769,10.7104615 1.20796154,10.7323846 1.31757692,10.8096923 C1.40296154,10.8662308 1.45488462,10.9481538 1.47334615,11.0543077 C1.49180769,11.1616154 1.47103846,11.2573846 1.41103846,11.3416154 C1.33373077,11.4512308 1.19988462,11.5216154 1.00603846,11.5562308 C0.812192308,11.5908462 0.659884615,11.5689231 0.550269231,11.4927692 C0.467192308,11.4350769 0.415269231,11.352 0.396807692,11.2435385 M1.06142308,11.8723846 C1.37757692,11.8158462 1.58757692,11.682 1.69257692,11.4650769 C1.76296154,11.3243077 1.78257692,11.172 1.75257692,11.0046923 C1.72373077,10.8385385 1.65219231,10.7012308 1.53911538,10.5939231 C1.36719231,10.4266154 1.12257692,10.3723846 0.807576923,10.4277692 C0.491423077,10.4843077 0.280269231,10.6193077 0.175269231,10.8350769 C0.107192308,10.9746923 0.0887307692,11.127 0.117576923,11.2931538 C0.147576923,11.4593077 0.217961538,11.5977692 0.327576923,11.7062308 C0.501807692,11.8735385 0.745269231,11.9277692 1.06142308,11.8723846" id="Fill-32" fill="#009992" mask="url(#mask-2)"></path>
                <path d="M0.902192308,6.43546154 C0.944884615,6.33623077 1.01296154,6.26815385 1.10757692,6.23123077 C1.23219231,6.17930769 1.3845,6.19430769 1.56680769,6.27046154 C1.74796154,6.34776923 1.86219231,6.44930769 1.91180769,6.57276923 C1.95219231,6.66738462 1.95103846,6.76430769 1.90834615,6.86353846 C1.86565385,6.96392308 1.79642308,7.03315385 1.6995,7.07007692 C1.57603846,7.12084615 1.42488462,7.107 1.24373077,7.02969231 C1.06142308,6.95238462 0.946038462,6.85084615 0.896423077,6.72853846 C0.858346154,6.63276923 0.8595,6.53584615 0.902192308,6.43546154 M1.11796154,7.32507692 C1.41219231,7.45084615 1.66257692,7.452 1.86796154,7.32853846 C2.00296154,7.24892308 2.1045,7.13123077 2.17026923,6.97546154 C2.23603846,6.82084615 2.25103846,6.66623077 2.21526923,6.51392308 C2.16103846,6.27969231 1.98680769,6.10084615 1.69257692,5.97623077 C1.39719231,5.84930769 1.14565385,5.84815385 0.940269231,5.97161538 C0.807576923,6.05238462 0.708346154,6.17007692 0.642576923,6.32469231 C0.575653846,6.48046154 0.560653846,6.63392308 0.592961538,6.78623077 C0.647192308,7.01930769 0.822576923,7.19930769 1.11796154,7.32507692" id="Fill-33" fill="#009992" mask="url(#mask-2)"></path>
                <path d="M3.40823077,3.36265385 L3.95630769,3.72380769 L3.64707692,3.9765 L3.40476923,3.36496154 L3.40823077,3.36265385 Z M3.87207692,4.56957692 L3.74976923,4.24419231 L4.20092308,3.87611538 L4.48823077,4.0665 L4.75823077,3.84611538 L3.32861538,2.96688462 L3.04015385,3.20111538 L3.609,4.78188462 L3.87207692,4.56957692 Z" id="Fill-34" fill="#009992" mask="url(#mask-2)"></path>
                <polygon id="Fill-35" fill="#009992" mask="url(#mask-2)" points="2.95915385 5.58357692 2.07876923 4.87973077 2.08107692 4.87626923 3.35261538 5.09203846 3.55338462 4.8405 2.31415385 3.85165385 2.12838462 4.08357692 2.98915385 4.77357692 2.98684615 4.77703846 1.74530769 4.56242308 1.53184615 4.82896154 2.76992308 5.81896154"></polygon>
                <path d="M13.0463077,11.7145385 L12.0459231,11.7145385 L12.0459231,8.28069231 C11.769,8.28992308 11.4401538,8.36723077 11.1032308,8.51261538 L11.1020769,11.6718462 L10.0624615,11.6718462 L10.0624615,9.23838462 C9.37246154,9.89607692 8.994,10.7187692 8.98361538,11.6718462 L8.98246154,11.6718462 L8.98246154,11.6718462 L8.17592308,11.6718462 C8.16553846,10.7187692 7.78707692,9.89607692 7.09707692,9.23838462 L7.09707692,11.6718462 L6.05630769,11.6718462 L6.05630769,8.51261538 C5.71938462,8.36723077 5.39053846,8.28992308 5.11361538,8.28069231 L5.11361538,11.7145385 L4.11323077,11.7145385 L4.11323077,7.20530769 C4.84361538,7.18107692 5.49207692,7.26530769 6.05630769,7.44646154 L6.05630769,7.413 L6.009,4.95184615 C7.239,4.95184615 8.36169231,5.64415385 8.58669231,6.87530769 C8.799,5.64992308 9.91823077,4.95184615 11.1505385,4.95184615 L11.1020769,7.413 L11.1020769,7.44646154 C11.6686154,7.26530769 12.3159231,7.18107692 13.0463077,7.20530769 L13.0463077,11.7145385 Z M11.0247692,12.9572308 C10.9105385,13.0195385 10.7559231,13.0506923 10.5586154,13.0506923 C10.3278462,13.0506923 10.1536154,13.008 10.0370769,12.9237692 C9.91938462,12.8395385 9.86053846,12.7126154 9.86053846,12.5464615 C9.86053846,12.3860769 9.92169231,12.2614615 10.0451538,12.1714615 C10.1663077,12.0814615 10.3382308,12.0376154 10.5586154,12.0376154 C10.7213077,12.0376154 10.8574615,12.0606923 10.9647692,12.108 C11.0720769,12.1553077 11.1401538,12.2199231 11.169,12.3053077 L10.7409231,12.3145385 C10.7293846,12.2891538 10.7074615,12.2683846 10.6774615,12.2568462 C10.6474615,12.243 10.6082308,12.2360769 10.5620769,12.2360769 C10.4859231,12.2360769 10.4259231,12.2556923 10.3866923,12.2914615 C10.3451538,12.3283846 10.3232308,12.3837692 10.3163077,12.4599231 C10.3578462,12.4368462 10.4074615,12.4195385 10.4651538,12.408 C10.524,12.3964615 10.5886154,12.3895385 10.6613077,12.3895385 C10.824,12.3895385 10.9532308,12.4172308 11.0501538,12.4749231 C11.1459231,12.5326154 11.1943846,12.6087692 11.1943846,12.7045385 C11.1943846,12.8118462 11.1378462,12.8960769 11.0247692,12.9572308 L11.0247692,12.9572308 Z M9.714,12.8245385 L9.53053846,12.8245385 L9.53053846,13.0253077 L9.08976923,13.0253077 L9.08976923,12.8245385 L8.38015385,12.8245385 L8.38015385,12.5914615 L9.10130769,12.0641538 L9.53053846,12.0641538 L9.53053846,12.6053077 L9.714,12.6053077 L9.714,12.8245385 Z M8.05823077,12.9145385 C7.93361538,13.0045385 7.76284615,13.0495385 7.54361538,13.0495385 C7.38092308,13.0495385 7.24592308,13.0264615 7.13861538,12.9803077 C7.03246154,12.933 6.96438462,12.8672308 6.93669231,12.783 L7.35784615,12.7726154 C7.37169231,12.7968462 7.39361538,12.8164615 7.42476923,12.8303077 C7.45476923,12.8441538 7.494,12.8499231 7.54015385,12.8499231 C7.61630769,12.8499231 7.674,12.8326154 7.71438462,12.7956923 C7.75592308,12.7576154 7.779,12.7022308 7.78361538,12.6272308 C7.74438462,12.6503077 7.69476923,12.6676154 7.63707692,12.6803077 C7.57823077,12.6918462 7.51361538,12.6976154 7.44092308,12.6976154 C7.27823077,12.6976154 7.149,12.6687692 7.05207692,12.6110769 C6.95630769,12.5545385 6.90669231,12.4772308 6.90669231,12.3814615 C6.90669231,12.2741538 6.96323077,12.1910769 7.07630769,12.1287692 C7.19053846,12.0687692 7.34630769,12.0376154 7.54476923,12.0376154 C7.77438462,12.0376154 7.94976923,12.0791538 8.06746154,12.1645385 C8.184,12.2487692 8.24169231,12.3733846 8.24169231,12.5406923 C8.24169231,12.6999231 8.18053846,12.8256923 8.05823077,12.9145385 L8.05823077,12.9145385 Z M6.58361538,13.0253077 L6.13246154,13.0253077 L6.13246154,12.4645385 L5.78515385,12.4645385 L5.78515385,12.2660769 C5.92823077,12.2649231 6.03438462,12.2476154 6.10361538,12.2176154 C6.17169231,12.1853077 6.21553846,12.1345385 6.234,12.0641538 L6.58361538,12.0641538 L6.58361538,13.0253077 Z M8.57976923,3.27761538 C5.03053846,3.27761538 2.13438462,6.17376923 2.13438462,9.723 C2.13438462,11.1733846 2.61669231,12.513 3.43015385,13.5918462 L13.7293846,13.5918462 C14.5682308,12.4783846 15.024,11.1191538 15.024,9.723 C15.024,6.17376923 12.1301538,3.27761538 8.57976923,3.27761538 L8.57976923,3.27761538 Z" id="Fill-36" fill="#009992" mask="url(#mask-2)"></path>
                <path d="M9.01742308,9.13523077 C9.24473077,8.65176923 9.64626923,8.26407692 10.0639615,7.98138462 L10.1331923,6.33830769 C9.31511538,6.57138462 9.0555,7.89946154 9.01742308,9.13523077" id="Fill-37" fill="#009992" mask="url(#mask-2)"></path>
                <polygon id="Fill-38" fill="#009992" mask="url(#mask-2)" points="1.59173077 9.85638462 1.05519231 9.84715385 0.895961538 9.69253846 1.60326923 9.23446154 1.6125 8.81907692 0.662884615 9.46176923 0.0259615385 8.82253846 0.0178846154 9.23907692 0.653653846 9.83907692 0.00634615385 9.82638462 0.000576923077 10.1471538 1.58596154 10.1783077"></polygon>
                <path d="M0.8745,8.26315385 L0.411807692,8.19161538 L0.448730769,7.95046154 C0.463730769,7.85353846 0.491423077,7.78430769 0.531807692,7.74507692 C0.572192308,7.707 0.632192308,7.69315385 0.708346154,7.70469231 C0.772961538,7.71507692 0.820269231,7.73238462 0.851423077,7.75776923 C0.911423077,7.80507692 0.933346154,7.87892308 0.918346154,7.98046154 L0.8745,8.26315385 Z M1.70757692,8.39007692 L1.14219231,8.30353846 L1.19526923,7.95046154 C1.22296154,7.77392308 1.17680769,7.632 1.05911538,7.52584615 C0.977192308,7.45430769 0.881423077,7.40815385 0.771807692,7.38969231 C0.614884615,7.36661538 0.487961538,7.38969231 0.385269231,7.46007692 C0.282576923,7.53046154 0.219115385,7.64007692 0.197192308,7.78430769 L0.0921923077,8.46969231 L1.65911538,8.71084615 L1.70757692,8.39007692 Z" id="Fill-39" fill="#009992" mask="url(#mask-2)"></path>
            </g>
        </g>
    </g>
</svg>