<?xml version="1.0" encoding="UTF-8"?>
<svg width="100px" height="60px" viewBox="0 0 100 60" version="1.1" xmlns="http://www.w3.org/2000/svg" xmlns:xlink="http://www.w3.org/1999/xlink">
    <!-- Generator: Sketch 55.2 (78181) - https://sketchapp.com -->
    <title>logo/mycreditchain</title>
    <desc>Created with Sketch.</desc>
    <defs>
        <polygon id="path-1" points="0 14.9480571 88.7394857 14.9480571 88.7394857 0 0 0"></polygon>
    </defs>
    <g id="logo/mycreditchain" stroke="none" stroke-width="1" fill="none" fill-rule="evenodd">
        <g id="Group-30" transform="translate(6.000000, 23.000000)">
            <path d="M52.6564714,8.06850857 C52.6593,8.11805143 52.6570714,8.24713714 52.6756714,8.37313714 C52.7446714,8.84182286 53.1464143,9.29345143 53.5990714,9.38628 C54.0705857,9.48288 54.4734429,9.33982286 54.7722429,8.95916571 C55.1702143,8.45199429 55.1777571,7.64928 54.8038714,7.12265143 C54.4687286,6.65053714 53.9039571,6.50088 53.3781,6.74739429 C52.8511286,6.99442286 52.6473,7.43079429 52.6564714,8.06850857 M55.0653857,6.13042286 L55.0653857,3.71893714 L56.4731571,3.71893714 L56.4731571,10.5039943 L55.0805571,10.5039943 C55.0805571,10.5039943 55.0634143,10.1167371 55.0536429,9.89465143 C54.8408143,10.1269371 54.4944429,10.3644514 54.2841,10.4612229 C53.5009286,10.8212229 52.5153857,10.5752229 51.9182143,9.95336571 C50.9339571,8.92882286 50.9893286,7.01696571 51.9868714,6.01513714 C52.4515286,5.54850857 53.2975286,5.33773714 54.0314143,5.48885143 C54.5995286,5.60585143 54.9849857,6.05773714 55.0653857,6.13042286" id="Fill-1" fill="#0A26C2"></path>
            <path d="M41.0136429,4.90444286 C40.7213571,5.23941429 40.4256429,5.57841429 40.1329286,5.9139 C39.1498714,4.94232857 37.7761286,4.99264286 37.0755,5.80915714 C36.3687,6.63278571 36.3761571,7.93375714 37.0922143,8.71144286 C37.8736714,9.56001429 39.1982143,9.59995714 40.1350714,8.5965 C40.4303571,8.88004286 40.7241857,9.16212857 41.0189571,9.44515714 C40.5032143,10.3233857 38.9611286,10.8662143 37.7491286,10.5902143 C36.0434143,10.2019286 35.2282714,9.0309 35.0451857,7.6077 C34.8685286,6.23481429 35.7101571,4.75838571 36.8892429,4.21221429 C38.3018143,3.55787143 40.1781857,3.88075714 41.0136429,4.90444286" id="Fill-3" fill="#0A26C2"></path>
            <polygon id="Fill-5" fill="#848484" points="22.0167943 3.94530857 22.7639657 3.94530857 25.1495657 7.50639429 27.5190514 3.94530857 28.2907371 3.94530857 28.2907371 10.5165086 27.5244514 10.5165086 27.5244514 5.51216571 27.4239086 5.47230857 25.1370514 8.78096571 22.7835943 5.34168 22.7835943 10.51248 22.0167943 10.51248"></polygon>
            <path d="M47.0313857,7.58879143 L49.0569,7.58879143 C48.9361286,6.85053429 48.5709,6.53776286 47.9103,6.58027714 C47.4023571,6.61302 47.0349,7.03233429 47.0313857,7.58879143 M50.3921571,8.53816286 L47.0457,8.54304857 C47.0187,9.36839143 48.3345857,9.92716286 49.4178429,8.98816286 C49.6760143,9.21547714 49.9382143,9.44630571 50.2161857,9.69102 C49.8604714,10.1544771 49.4220429,10.4295343 48.8947286,10.5534771 C47.6539286,10.8449914 46.3080429,10.3793914 45.7776429,9.15093429 C45.2949857,8.03296286 45.5259857,6.25893429 47.0882143,5.60930571 C47.7480429,5.33484857 48.5199,5.33836286 49.1624143,5.66124857 C50.2581857,6.21187714 50.4246429,7.43442 50.3921571,8.53816286" id="Fill-7" fill="#0A26C2"></path>
            <path d="M63.2003314,9.24330857 L63.2003314,10.3167943 C62.6983886,10.5791657 62.1738171,10.70928 61.6069029,10.5667371 C60.9905314,10.4117657 60.6589029,10.0116514 60.6452743,9.37565143 C60.6294171,8.63405143 60.63696,6.75185143 60.63696,6.75185143 L60.0592457,6.75185143 L60.0592457,5.53273714 L60.63216,5.53273714 L60.63216,4.24042286 L62.0260457,4.24042286 L62.0260457,5.53273714 L63.1878171,5.53273714 L63.1878171,6.75185143 L62.0299886,6.75185143 C62.0299886,6.75185143 62.0158457,8.19056571 62.03616,8.88562286 C62.0459314,9.22016571 62.2327029,9.36416571 62.5733314,9.34633714 C62.76876,9.33613714 62.9620457,9.28410857 63.2003314,9.24330857" id="Fill-9" fill="#0A26C2"></path>
            <path d="M70.0389771,4.93252286 C69.87132,5.10935143 69.7162629,5.27280857 69.5355771,5.46343714 C68.84292,4.87432286 68.1046629,4.45475143 67.1648914,4.59498 C66.5148343,4.69200857 65.9810057,4.98009429 65.5612629,5.48572286 C64.7289771,6.48832286 64.75752,8.10412286 65.6472343,9.11023714 C66.1694914,9.70080857 66.8411486,9.94740857 67.6322057,9.92486571 C68.4105771,9.90249429 69.00192,9.50375143 69.5872629,8.99349429 C69.7568914,9.15463714 69.9078343,9.29795143 70.0575771,9.44023714 C69.37032,10.4168657 67.9870629,10.8545229 66.7793486,10.5890657 C65.2862057,10.2606943 64.3115486,9.13303714 64.1649771,7.58940857 C64.0278343,6.14520857 64.7916343,4.75278 66.0737486,4.15552286 C67.3370914,3.56700857 69.1556914,3.86606571 70.0389771,4.93252286" id="Fill-11" fill="#848484"></path>
            <path d="M71.8678543,10.5306943 L71.1468257,10.5306943 L71.1468257,3.70938 L71.8678543,3.70938 L71.8678543,6.43860857 C72.0722829,6.08846571 72.5254543,5.75709429 72.9685114,5.63340857 C74.1595971,5.30092286 75.29214,6.00738 75.3758829,7.23926571 C75.4490829,8.31618 75.39114,10.5132086 75.39114,10.5132086 L74.6426829,10.5132086 C74.6426829,10.5132086 74.62914,8.37352286 74.6137971,7.51783714 C74.6053114,7.04795143 74.42214,6.63703714 73.98114,6.43072286 C73.4161971,6.16638 72.4738543,6.20092286 72.0943114,6.98760857 C71.97474,7.23523714 71.8678543,7.58580857 71.8678543,8.00109429 L71.8678543,10.5306943 Z" id="Fill-13" fill="#848484"></path>
            <path d="M79.9827514,8.34172286 C79.4579229,8.12795143 78.8298086,8.07686571 78.26898,8.14089429 C77.7149229,8.20423714 77.1753514,8.50243714 77.2120371,9.12832286 C77.2332086,9.48918 77.4306086,9.74160857 77.7564086,9.88012286 C78.6724371,10.2696086 79.9827514,9.90163714 79.9827514,8.34172286 L79.9827514,8.34172286 Z M80.6976086,10.5304371 L80.0069229,10.5304371 C80.0069229,10.5304371 79.98918,10.13658 79.9785514,9.90103714 C79.8736371,9.98803714 79.7829514,10.0626943 79.69278,10.1379514 C78.9340371,10.7711229 77.7402086,10.8242657 76.9920943,10.2579514 C76.1690657,9.63489429 76.2330943,8.34480857 77.13678,7.84098 C77.4267514,7.67923714 77.7767229,7.57500857 78.1029514,7.54278 C78.7773514,7.47618 79.4531229,7.57269429 79.9827514,7.69740857 C79.9827514,6.69995143 79.6200943,6.40063714 78.9263229,6.33995143 C78.1077514,6.20915143 77.2308943,6.60129429 77.0760086,6.67569429 L76.8866657,6.02692286 C77.7965229,5.57383714 78.7056943,5.43712286 79.6404086,5.77295143 C80.2728086,6.00018 80.6691514,6.50520857 80.6976086,7.16383714 L80.6976086,10.5304371 Z" id="Fill-15" fill="#848484"></path>
            <path d="M41.9952171,10.5010629 L41.9952171,5.52946286 L43.3982743,5.52946286 L43.3982743,6.41634857 C44.0570743,5.49637714 44.27856,5.44066286 44.9980457,5.43817714 L44.9980457,6.89300571 C44.89596,6.90543429 44.8006457,6.91632 44.7054171,6.92849143 C43.8966171,7.03229143 43.4496171,7.55806286 43.4191886,8.47229143 C43.4017029,8.99926286 43.4128457,10.5010629 43.4128457,10.5010629 L41.9952171,10.5010629 Z" id="Fill-17" fill="#0A26C2"></path>
            <path d="M85.2527571,10.5210686 L84.4971857,10.5210686 L84.4971857,5.69741143 L85.2340714,5.69741143 L85.2340714,6.34164 C85.4624143,6.07644 85.7895857,5.86061143 86.1016714,5.72835429 C87.4172143,5.17104 88.7394429,6.07644 88.7394429,7.38846857 L88.7394429,10.5208971 L87.9745286,10.5208971 C87.9745286,10.5208971 87.9863571,8.54484 87.9745286,7.74598286 C87.9711857,7.52132571 87.9450429,7.28629714 87.8723571,7.07569714 C87.7222714,6.64001143 87.4200429,6.36606857 86.9379857,6.31335429 C86.0416714,6.16266857 85.2617571,6.74809714 85.2541286,7.79424 C85.2485571,8.55041143 85.2527571,10.0630114 85.2527571,10.0630114 L85.2527571,10.5210686 Z" id="Fill-19" fill="#848484"></path>
            <path d="M29.6371629,11.7721286 C29.7149057,11.5903286 29.7911057,11.4122143 29.8655057,11.2382143 C30.8777057,11.5443857 31.18422,11.4135 31.5995914,10.4929286 C30.8874771,8.93087143 29.4177343,5.70664286 29.4177343,5.70664286 L30.2519914,5.70664286 L31.98342,9.65112857 L33.51582,5.69815714 L34.2971057,5.69815714 C34.2971057,5.69815714 34.0988486,6.2709 33.9899057,6.53738571 C33.3980486,7.9845 32.80242,9.43007143 32.2049914,10.8748714 C32.1509914,11.0055 32.0765057,11.1278143 32.0081914,11.2522714 C31.5071914,12.1638429 30.5960486,12.2062714 29.7842486,11.8911 C29.7347057,11.8718143 29.6970771,11.8217571 29.6371629,11.7721286" id="Fill-21" fill="#848484"></path>
            <mask id="mask-2" fill="white">
                <use xlink:href="#path-1"></use>
            </mask>
            <g id="Clip-24"></g>
            <polygon id="Fill-23" fill="#0A26C2" mask="url(#mask-2)" points="57.7620857 10.5159429 59.1242571 10.5159429 59.1242571 5.53268571 57.7620857 5.53268571"></polygon>
            <polygon id="Fill-25" fill="#848484" mask="url(#mask-2)" points="82.1630571 10.5132 82.9566 10.5132 82.9566 5.69022857 82.1630571 5.69022857"></polygon>
            <polygon id="Fill-26" fill="#0A26C2" mask="url(#mask-2)" points="57.6798857 4.94228571 59.1490286 4.94228571 59.1490286 3.72437143 57.6798857 3.72437143"></polygon>
            <polygon id="Fill-27" fill="#848484" mask="url(#mask-2)" points="82.1630571 4.61314286 82.9566 4.61314286 82.9566 3.85234286 82.1630571 3.85234286"></polygon>
            <path d="M7.58373429,11.2212686 L7.58373429,9.77304 L6.04782,4.70081143 L6.04782,10.9900971 C6.04782,11.5858114 5.56490571,12.0687257 4.96919143,12.0687257 C4.37347714,12.0687257 3.89064857,11.5858114 3.89064857,10.9900971 L3.89064857,3.40815429 C3.89064857,2.91581143 4.28973429,2.51672571 4.78199143,2.51672571 L6.73216286,2.51672571 C7.09756286,2.51672571 7.42087714,2.75329714 7.53144857,3.10146857 L7.60610571,3.33666857 C7.73870571,2.05524 8.51373429,0.985782857 9.58259143,0.424697143 C8.87776286,0.0546685714 8.04607714,-0.0947314286 7.18884857,0.0612685714 L2.92276286,0.837411429 C1.23016286,1.14529714 -8.57142857e-06,2.61949714 -8.57142857e-06,4.33986857 L-8.57142857e-06,10.6123543 C-8.57142857e-06,12.33384 1.23196286,13.8087257 2.92593429,14.1153257 L7.19219143,14.8873543 C8.04830571,15.0423257 8.87862,14.8929257 9.58259143,14.5233257 C8.40676286,13.9060114 7.58373429,12.6745543 7.58373429,11.2212686" id="Fill-28" fill="#0A26C2" mask="url(#mask-2)"></path>
            <path d="M16.2424629,0.837368571 L11.9763771,0.0612257143 C9.82032,-0.331002857 7.82652,1.20808286 7.60494857,3.33311143 L9.38583429,8.94182571 L11.2402629,3.10151143 C11.3508343,2.75325429 11.6741486,2.51668286 12.0394629,2.51668286 L13.9896343,2.51668286 C14.4819771,2.51668286 14.8810629,2.91585429 14.8810629,3.40811143 L14.8810629,10.9900543 C14.8810629,11.5857686 14.3981486,12.0686829 13.8024343,12.0686829 C13.20672,12.0686829 12.7238914,11.5857686 12.7238914,10.9900543 L12.7238914,4.70085429 L10.8135771,11.0092543 C10.6230343,11.6384829 10.0431771,12.0686829 9.38583429,12.0686829 C8.72849143,12.0686829 8.14863429,11.6384829 7.95809143,11.0092543 L7.58369143,9.77308286 L7.58369143,11.2212257 C7.58369143,13.5445114 9.68686286,15.30114 11.9729486,14.8873971 L16.2392057,14.1152829 C17.9332629,13.8086829 19.1652343,12.3337971 19.1652343,10.6123114 L19.1652343,4.33982571 C19.1652343,2.61954 17.9349771,1.14534 16.2424629,0.837368571" id="Fill-29" fill="#848484" mask="url(#mask-2)"></path>
        </g>
    </g>
</svg>