<?xml version="1.0" encoding="UTF-8"?>
<svg width="100px" height="60px" viewBox="0 0 100 60" version="1.1" xmlns="http://www.w3.org/2000/svg" xmlns:xlink="http://www.w3.org/1999/xlink">
    <title>logo/nexentire</title>
    <defs>
        <polygon id="path-1" points="0 33.993303 44.5992424 33.993303 44.5992424 0 0 0"></polygon>
    </defs>
    <g id="logo/nexentire" stroke="none" stroke-width="1" fill="none" fill-rule="evenodd">
        <g id="Group-19" transform="translate(28.000000, 13.000000)">
            <path d="M12.4541828,32.8625626 C12.2445162,32.8625626 12.1128091,32.737896 12.1128091,32.5306333 L12.1128091,31.0605626 L10.5393646,31.0605626 L10.5393646,32.9192293 C10.5393646,33.7596131 11.1165061,33.9929768 12.037597,33.9929768 C13.324102,33.9929768 16.2836475,33.9917747 17.1068596,33.9929768 L17.1068596,32.8625626 C16.6303444,32.8654818 13.7868798,32.8625626 12.4541828,32.8625626" id="Fill-1" fill="#231F20"></path>
            <path d="M3.86370505,30.1066909 L3.86370505,29.0271051 L1.89479596,29.0271051 C1.56372525,29.0271051 1.51925051,28.880802 1.51925051,28.7370747 L1.51925051,25.7028323 L6.86868687e-05,25.7028323 L6.86868687e-05,29.0513172 C6.86868687e-05,29.8915293 0.479846465,30.1066909 1.42377576,30.1066909 L3.86370505,30.1066909 Z" id="Fill-3" fill="#231F20"></path>
            <mask id="mask-2" fill="white">
                <use xlink:href="#path-1"></use>
            </mask>
            <g id="Clip-6"></g>
            <polygon id="Fill-5" fill="#231F20" mask="url(#mask-2)" points="15.6995859 31.5808485 17.0801919 31.5808485 17.0801919 25.5965051 15.6995859 25.5965051"></polygon>
            <polygon id="Fill-7" fill="#231F20" mask="url(#mask-2)" points="13.8265808 31.4896667 15.2065 31.4896667 15.2065 25.5965051 13.8265808 25.5965051 13.8265808 26.971101 12.7852879 26.971101 12.7852879 28.0824545 13.8265808 28.0824545"></polygon>
            <polygon id="Fill-8" fill="#231F20" mask="url(#mask-2)" points="6.27935354 30.3479192 7.65944444 30.3479192 7.65944444 25.5963333 6.27935354 25.5963333"></polygon>
            <polygon id="Fill-9" fill="#231F20" mask="url(#mask-2)" points="4.40595354 30.2559475 5.78604444 30.2559475 5.78604444 25.596402 4.40595354 25.596402 4.40595354 26.9476444 2.82649899 26.9476444 2.82649899 28.0596848 4.40595354 28.0596848"></polygon>
            <path d="M25.9499162,25.5964364 L24.4109869,25.5964364 L24.4109869,30.9085071 C23.3152596,30.9088505 21.5925929,30.9074768 20.6490071,30.9074768 C20.4386535,30.9074768 20.2715727,30.7822949 20.2715727,30.5750323 L20.2715727,29.4969919 L23.1150374,29.4969919 L23.1150374,28.369497 L20.2715727,28.369497 L20.2715727,27.0883152 L23.3123404,27.0883152 L23.3123404,25.9603051 L18.6977848,25.9603051 L18.6977848,30.7541333 C18.6977848,31.594002 19.2752697,32.0358303 20.1961889,32.0358303 C21.169997,32.0358303 23.1492091,32.0368606 24.4109869,32.0375475 L24.4109869,33.9932343 L25.9499162,33.9932343 L25.9499162,29.1295172 L27.2695626,29.1295172 L27.2695626,28.0025374 L25.9499162,28.0025374 L25.9499162,25.5964364 Z" id="Fill-10" fill="#231F20" mask="url(#mask-2)"></path>
            <path d="M31.1515727,30.5604707 C30.9690374,30.9418545 30.7013303,31.1276525 30.3331687,31.1276525 C29.978401,31.1276525 29.7101788,30.9406525 29.5142495,30.5575515 C29.3066434,30.1541879 29.2020677,29.6407535 29.2020677,29.0292687 C29.2020677,28.4390768 29.3052697,27.9457333 29.5121889,27.5612586 C29.7091485,27.1961879 29.9778859,27.017602 30.3331687,27.017602 C30.7025323,27.017602 30.9716131,27.1946424 31.1520879,27.5588545 C31.3449263,27.9441879 31.4419465,28.4390768 31.4419465,29.0292687 C31.4419465,29.6428141 31.3449263,30.1581374 31.1515727,30.5604707 M30.311704,25.8559354 C29.4742394,25.8559354 28.8078051,26.1530061 28.3300879,26.7401071 C27.8561485,27.3215414 27.6157444,28.0928949 27.6157444,29.0321879 C27.6157444,29.9701071 27.8559768,30.7543394 28.3278556,31.3620465 C28.8057444,31.9774808 29.4732091,32.288804 30.311704,32.288804 C31.1412697,32.288804 31.8101081,31.9774808 32.2991586,31.3634202 C32.7830576,30.7553697 33.0279263,29.9709657 33.0279263,29.0321879 C33.0279263,28.0928949 32.7830576,27.321198 32.297098,26.7395919 C31.8087343,26.1524909 31.1402394,25.8559354 30.311704,25.8559354" id="Fill-11" fill="#231F20" mask="url(#mask-2)"></path>
            <polygon id="Fill-12" fill="#231F20" mask="url(#mask-2)" points="34.0221515 33.9931313 35.5617677 33.9931313 35.5617677 25.5963333 34.0221515 25.5963333"></polygon>
            <path d="M40.2547636,30.5604707 C40.0763495,30.9418545 39.816198,31.1276525 39.4566222,31.1276525 C39.1109556,31.1276525 38.8490869,30.9406525 38.6576222,30.5575515 C38.456198,30.1541879 38.3545414,29.6407535 38.3545414,29.0292687 C38.3545414,28.4390768 38.4553394,27.9457333 38.6559051,27.5612586 C38.8482283,27.1961879 39.1109556,27.017602 39.4566222,27.017602 C39.8170566,27.017602 40.0778949,27.1946424 40.2557939,27.5588545 C40.4421071,27.9441879 40.5374101,28.4390768 40.5374101,29.0292687 C40.5374101,29.6428141 40.4421071,30.1581374 40.2547636,30.5604707 L40.2547636,30.5604707 Z M43.0702384,25.5968141 L43.0702384,28.2994707 L42.0320364,28.2994707 C41.9365616,27.6854101 41.7181374,27.161501 41.374703,26.7395919 C40.8978444,26.1524909 40.2463495,25.8559354 39.4382485,25.8559354 C38.6212182,25.8559354 37.971097,26.1530061 37.5048848,26.7401071 C37.0431374,27.3215414 36.8084,28.0928949 36.8084,29.0321879 C36.8084,29.9701071 37.0419354,30.7543394 37.5033394,31.3620465 C37.9693798,31.9774808 38.6200162,32.288804 39.4382485,32.288804 C40.2475515,32.288804 40.8988747,31.9774808 41.3767636,31.3634202 C41.7778949,30.8453495 42.0097131,30.1979758 42.0698141,29.437097 L43.0702384,29.437097 L43.0702384,33.9932687 L44.5988646,33.9932687 L44.5988646,25.5968141 L43.0702384,25.5968141 Z" id="Fill-13" fill="#231F20" mask="url(#mask-2)"></path>
            <polygon id="Fill-14" fill="#231F20" mask="url(#mask-2)" points="1.15514141 32.0219212 6.12154545 32.0219212 6.12154545 33.9932343 7.65961616 33.9932343 7.65961616 30.9030121 1.15514141 30.9030121"></polygon>
            <path d="M11.151296,28.8786899 L11.1514677,28.8788616 L11.1518111,28.8786899 C11.2076192,28.9566495 11.6281545,29.5899424 12.7310939,30.3418919 L13.5711343,29.3763263 C13.5711343,29.3763263 11.8580838,28.3752152 11.895003,27.3085081 L11.895003,25.7027808 L10.4082758,25.7027808 L10.4082758,27.3085081 C10.4453667,28.3752152 8.6447404,29.3763263 8.6447404,29.3763263 L9.48478081,30.3418919 C10.5878919,29.5899424 11.0951444,28.9566495 11.151296,28.8786899" id="Fill-15" fill="#231F20" mask="url(#mask-2)"></path>
            <polygon id="Fill-16" fill="#80298F" mask="url(#mask-2)" points="0.00360606061 2.77494949 44.5985556 2.77494949 44.5985556 0 0.00360606061 0"></polygon>
            <polygon id="Fill-17" fill="#80298F" mask="url(#mask-2)" points="0.00360606061 22.2586667 44.5985556 22.2586667 44.5985556 19.4835455 0.00360606061 19.4835455"></polygon>
            <path d="M33.2378333,9.81732828 L33.2378333,10.0000354 L28.3344495,10.0000354 L28.3344495,12.249702 L33.2378333,12.249702 L33.2378333,15.0782273 L27.0857222,15.0782273 L24.0461566,11.178702 L27.1676313,7.17889394 L33.2378333,7.17889394 L33.2378333,9.81732828 Z M17.4942879,15.078399 L11.3645,15.0782273 L11.3645,12.249702 L16.2677121,12.249702 L16.2677121,10.0000354 L11.3645,10.0000354 L11.3645,9.81732828 L11.3645,7.17889394 L17.4190758,7.17889394 L20.5395202,11.178702 L17.4942879,15.078399 Z M41.5853485,4.93111616 L41.5853485,14.3185505 L37.9866717,6.71491414 C37.7277222,6.12935859 37.3997424,5.73543939 37.0721061,5.47082323 C36.3496919,4.88818687 35.6264192,4.93025758 35.6264192,4.93025758 L34.2099242,4.93025758 L33.2433283,4.93025758 L25.4126818,4.92957071 L22.2955,8.9285202 L19.1728232,4.92957071 L10.3922374,4.93025758 C9.65539899,4.93025758 9.1835202,5.1534899 8.88181313,5.44060101 C8.33455051,5.96090404 8.34571212,6.69310606 8.34571212,6.69310606 L8.34571212,14.3185505 L4.74686364,6.71491414 C4.48808586,6.12935859 4.16027778,5.73543939 3.8324697,5.47082323 C3.11005556,4.88818687 2.38661111,4.93025758 2.38661111,4.93025758 L0.00369191919,4.93025758 L0.00369191919,17.3299545 L3.02127778,17.3299545 L3.02127778,8.79990404 C3.02127778,8.79990404 6.43759091,16.0314293 6.55367172,16.2738939 C6.63180303,16.4359949 6.86774242,16.8421061 7.4534697,17.1012273 C7.74367172,17.2295 8.11990404,17.3213687 8.60534848,17.3299545 L19.2447727,17.3335606 L22.2900051,13.4292273 L25.3352374,17.3299545 L33.2433283,17.3299545 L34.2161061,17.3363081 C34.9532879,17.3363081 35.4249949,17.1122172 35.726702,16.8240758 C36.2741364,16.3018838 36.2609141,15.5501061 36.2609141,15.5501061 L36.2609141,8.79732828 C36.2609141,8.79732828 39.6772273,16.0314293 39.7933081,16.2738939 C39.8716111,16.4359949 40.1073788,16.8421061 40.6934495,17.1012273 C40.9833081,17.2295 41.2767727,17.2975 41.8451566,17.323601 C41.8389747,17.3306414 42.4715808,17.3299545 43.1323485,17.3299545 C43.8492677,17.3297828 44.5991566,17.3299545 44.5991566,17.3299545 L44.5991566,4.93111616 L41.5853485,4.93111616 Z" id="Fill-18" fill="#80298F" mask="url(#mask-2)"></path>
        </g>
    </g>
</svg>