<?xml version="1.0" encoding="UTF-8"?>
<svg width="100px" height="60px" viewBox="0 0 100 60" version="1.1" xmlns="http://www.w3.org/2000/svg" xmlns:xlink="http://www.w3.org/1999/xlink">
    <!-- Generator: Sketch 52.4 (67378) - http://www.bohemiancoding.com/sketch -->
    <title>logo/nike</title>
    <desc>Created with Sketch.</desc>
    <g id="logo/nike" stroke="none" stroke-width="1" fill="none" fill-rule="evenodd">
        <g id="Group" transform="translate(26.000000, 18.000000)" fill="#1D1D1B">
            <path d="M38.8783742,0.856645161 L39.1942452,0.856645161 C39.4187613,0.856645161 39.5093419,0.856645161 39.5093419,1.08193548 C39.5093419,1.17174194 39.4187613,1.26232258 39.1942452,1.26232258 L38.8783742,1.26232258 L38.8783742,0.856645161 Z M39.1944,2.61460645 C38.4287226,2.61460645 37.7969806,2.07421935 37.7969806,1.30776774 C37.7969806,0.631122581 38.4287226,0.00015483871 39.1944,0.00015483871 C39.870271,0.00015483871 40.5004645,0.631122581 40.5004645,1.30776774 C40.5004645,2.07421935 39.870271,2.61460645 39.1944,2.61460645 Z M39.1944,0.316025806 C38.5634323,0.316025806 38.0671742,0.766606452 38.0671742,1.30776774 C38.0671742,1.89383226 38.5634323,2.38931613 39.1944,2.38931613 C39.7340129,2.38931613 40.2310452,1.89383226 40.2310452,1.30776774 C40.2310452,0.766606452 39.7340129,0.316025806 39.1944,0.316025806 Z M38.8783742,1.44270968 L38.8783742,1.98309677 L38.5632774,1.98309677 L38.5632774,0.631354839 L39.2399226,0.631354839 C39.5093419,0.631354839 39.5550194,0.631354839 39.689729,0.677032258 C39.9150194,0.856645161 39.8701161,1.17174194 39.5999226,1.308 C39.8701161,1.57819355 39.689729,1.89406452 39.8701161,1.98309677 L39.5093419,1.98309677 C39.4187613,1.93741935 39.4187613,1.89406452 39.4187613,1.80348387 C39.4187613,1.57819355 39.5093419,1.44270968 39.1942452,1.44270968 L38.8783742,1.44270968 Z M18.4661419,12.3024 L15.6271742,12.3024 L20.2684645,-0.000309677419 L23.1972387,-0.000309677419 L18.4661419,12.3024 Z M33.8315613,11.2656 L48.4313032,7.39076129 L12.3833032,22.1252129 C0.261754839,27.037471 -5.32637419,19.5123097 6.65969032,7.30018065 C3.19052903,15.5461161 6.65969032,17.9801806 14.2754323,16.0416 L20.0880774,14.6008258 L29.0547871,12.3022452 L24.1889806,12.3022452 L24.1889806,7.52547097 L22.3417548,12.3022452 L19.3673032,12.3022452 L24.1440774,0.000309677419 L27.1626581,0.000309677419 L25.6754323,3.60572903 L28.7853677,0.000309677419 L37.5716903,0.000309677419 L36.7595613,2.38947097 L33.9678194,2.38947097 L33.0202065,4.91179355 L35.6795613,4.91179355 L34.7784,7.16547097 L32.0741419,7.16547097 L31.038271,9.95953548 L34.3278194,9.95953548 L33.8315613,11.2656 Z M27.1626581,11.7618581 L31.7133677,0.316180645 L27.0728516,5.54353548 L27.1626581,11.7618581 Z M9.72472258,12.3024 L6.57065806,12.3024 L11.3474323,-0.000309677419 L14.6811097,-0.000309677419 L14.2754323,5.27272258 L16.2573677,-0.000309677419 L19.3673032,-0.000309677419 L14.6811097,12.3024 L11.5719484,12.3024 L11.8878194,6.67014194 L9.72472258,12.3024 Z" id="Combined-Shape"></path>
        </g>
    </g>
</svg>