<?xml version="1.0" encoding="UTF-8"?>
<svg width="100px" height="60px" viewBox="0 0 100 60" version="1.1" xmlns="http://www.w3.org/2000/svg" xmlns:xlink="http://www.w3.org/1999/xlink">
    <title>logo/nirs</title>
    <defs>
        <polygon id="path-1" points="0 19.9277895 85.785 19.9277895 85.785 -0.000105263158 0 -0.000105263158"></polygon>
    </defs>
    <g id="logo/nirs" stroke="none" stroke-width="1" fill="none" fill-rule="evenodd">
        <g id="Group-24" transform="translate(7.000000, 19.000000)">
            <path d="M46.9874474,7.00492105 L20.9087632,7.00492105 C20.1240263,7.00492105 19.4877105,6.36886842 19.4877105,5.58413158 L19.4877105,1.42097368 C19.4877105,0.636236842 20.1240263,-7.89473684e-05 20.9087632,-7.89473684e-05 L46.9874474,-7.89473684e-05 C47.7719211,-7.89473684e-05 48.4082368,0.636236842 48.4082368,1.42097368 L48.4082368,5.58413158 C48.4082368,6.36886842 47.7719211,7.00492105 46.9874474,7.00492105" id="Fill-1" fill="#5D7CBD"></path>
            <path d="M15.8308421,12.0125 C15.8308421,16.3838158 12.2866316,19.9277632 7.91557895,19.9277632 C3.54373684,19.9277632 5.26315789e-05,16.3838158 5.26315789e-05,12.0125 C5.26315789e-05,7.64144737 3.54373684,4.0975 7.91557895,4.0975 C12.2866316,4.0975 15.8308421,7.64144737 15.8308421,12.0125" id="Fill-3" fill="#FEFEFE"></path>
            <path d="M11.6279211,11.461 C10.3697632,10.6057368 8.75897368,10.9538947 7.91213158,12.2396842 C7.20765789,13.3141579 6.14160526,13.4481053 5.73055263,13.4481053 C4.38371053,13.4481053 3.4645,12.501 3.19160526,11.5217895 L3.19081579,11.5217895 C3.18739474,11.511 3.18555263,11.5025789 3.18292105,11.4938947 C3.18028947,11.4831053 3.17818421,11.4723158 3.17476316,11.461 C3.06713158,11.0515263 3.04002632,10.8575789 3.04002632,10.4231053 C3.04002632,8.08231579 5.44344737,5.47521053 8.90186842,5.47521053 C12.4447632,5.47521053 14.4726579,8.17231579 14.9966053,9.67152632 C14.9863421,9.64389474 14.9776579,9.61836842 14.9692368,9.59178947 C13.9639737,6.65994737 11.1837105,4.55231579 7.90871053,4.55231579 C3.79081579,4.55231579 0.450289474,7.891 0.450289474,12.0123158 C0.450289474,15.6952105 3.10634211,18.8467895 6.79213158,18.8467895 C9.73002632,18.8467895 11.7052895,17.2004737 12.6097632,14.9288947 C13.1071316,13.6865263 12.7558158,12.2273158 11.6279211,11.461" id="Fill-5" fill="#003863"></path>
            <path d="M15.0422895,9.81676316 C14.6051842,8.35413158 12.5643947,5.47518421 8.90176316,5.47518421 C5.44334211,5.47518421 3.03992105,8.08255263 3.03992105,10.4230789 C3.03992105,10.8575526 3.06728947,11.0515 3.17465789,11.4609737 C3.12939474,11.2812368 3.1065,11.1036053 3.1065,10.9288684 C3.1065,8.49018421 5.54728947,6.8015 8.05676316,6.8015 C11.4546579,6.8015 14.2083421,9.55518421 14.2083421,12.9517632 C14.2083421,15.6138684 12.6757105,17.9199211 10.4504474,19.0270263 L10.4504474,19.0288684 C13.3204474,17.9896579 15.3696579,15.2401842 15.3696579,12.0120263 C15.3696579,11.2478158 15.2670263,10.5743947 15.0422895,9.81676316" id="Fill-7" fill="#E3042E"></path>
            <path d="M25.5270789,8.40281579 L25.5270789,10.5351842 L24.6383947,10.5351842 L24.6383947,9.18492105 L19.9981316,9.18492105 L19.9981316,8.40281579 L25.5270789,8.40281579 Z M22.3262895,12.9372895 L22.3262895,11.8925526 L19.4878684,11.8925526 L19.4878684,11.1104474 L26.0699737,11.1104474 L26.0699737,11.8925526 L23.2231316,11.8925526 L23.2231316,12.9372895 L25.5433947,12.9372895 L25.5433947,15.4380789 L24.6549737,15.4380789 L24.6549737,13.7183421 L19.9320789,13.7183421 L19.9320789,12.9372895 L22.3262895,12.9372895 Z" id="Fill-9" fill="#575756"></path>
            <path d="M32.8000526,11.0369474 L33.8287368,11.0369474 L33.8287368,11.9248421 L32.8000526,11.9248421 L32.8000526,15.4214211 L31.9118947,15.4214211 L31.9118947,8.25589474 L32.8000526,8.25589474 L32.8000526,11.0369474 Z M30.3403158,14.4843158 L29.4513684,14.4843158 L29.4513684,9.49747368 L26.7774211,9.49747368 L26.7774211,8.69957895 L30.3403158,8.69957895 L30.3403158,14.4843158 Z" id="Fill-11" fill="#575756"></path>
            <path d="M39.8843684,12.0561842 L39.8843684,10.5014474 L38.5512105,10.5014474 L38.5512105,9.73697368 L39.8843684,9.73697368 L39.8843684,8.25592105 L40.7725263,8.25592105 L40.7725263,12.0561842 L39.8843684,12.0561842 Z M39.292,13.8919737 C39.292,13.6232895 39.1925263,13.3909211 38.9954211,13.1953947 C38.7980526,13.0019737 38.5643684,12.9038158 38.2956842,12.9038158 C38.027,12.9038158 37.7954211,13.0019737 37.6009474,13.1953947 C37.4059474,13.3909211 37.3085789,13.6232895 37.3085789,13.8919737 C37.3085789,14.1601316 37.4059474,14.3901316 37.6009474,14.5825 C37.7954211,14.7743421 38.027,14.8706579 38.2956842,14.8706579 C38.5643684,14.8706579 38.7980526,14.7743421 38.9954211,14.5825 C39.1925263,14.3901316 39.292,14.1601316 39.292,13.8919737 L39.292,13.8919737 Z M40.1635789,13.8993421 C40.1635789,14.1414474 40.1146316,14.3675 40.0154211,14.5788158 C39.917,14.7896053 39.7851579,14.9738158 39.6204211,15.1332895 C39.4506842,15.2930263 39.2517368,15.4185526 39.0241053,15.5130263 C38.7964737,15.6048684 38.5564737,15.6517105 38.3043684,15.6517105 C38.052,15.6517105 37.8106842,15.6048684 37.5804211,15.5130263 C37.3496316,15.4185526 37.1496316,15.2930263 36.9791053,15.1332895 C36.8148947,14.9738158 36.6830526,14.7896053 36.5846316,14.5788158 C36.4862105,14.3675 36.4364737,14.1414474 36.4364737,13.8993421 C36.4364737,13.6577632 36.4862105,13.4301316 36.5846316,13.2169737 C36.6830526,13.0030263 36.8148947,12.8167105 36.9791053,12.6572368 C37.1496316,12.4980263 37.3496316,12.3722368 37.5804211,12.2790789 C37.8106842,12.1853947 38.052,12.1390789 38.3043684,12.1390789 C38.5564737,12.1390789 38.7964737,12.1853947 39.0241053,12.2790789 C39.2517368,12.3722368 39.4506842,12.4980263 39.6204211,12.6572368 C39.7851579,12.8167105 39.917,13.0030263 40.0154211,13.2169737 C40.1146316,13.4301316 40.1635789,13.6577632 40.1635789,13.8993421 L40.1635789,13.8993421 Z M34.4701579,9.22697368 L34.4701579,8.46092105 L38.5841053,8.46092105 L38.5841053,9.22697368 L36.8312105,9.22697368 L38.6580526,11.4561842 L38.0327895,11.9661842 L36.5680526,10.1398684 L35.1114737,12.0898684 L34.462,11.5630263 L36.2804211,9.22697368 L34.4701579,9.22697368 Z" id="Fill-13" fill="#575756"></path>
            <mask id="mask-2" fill="white">
                <use xlink:href="#path-1"></use>
            </mask>
            <g id="Clip-16"></g>
            <path d="M43.405,11.8748947 L47.1734211,11.8748947 L47.1734211,10.4354211 L43.405,10.4354211 L43.405,11.8748947 Z M47.1734211,9.66252632 L47.1734211,8.55963158 L48.0534211,8.55963158 L48.0534211,12.6572632 L45.7339474,12.6572632 L45.7339474,14.1054211 L48.5802632,14.1054211 L48.5802632,14.8954211 L41.9981579,14.8954211 L41.9981579,14.1054211 L44.8368421,14.1054211 L44.8368421,12.6572632 L42.5247368,12.6572632 L42.5247368,8.55963158 L43.405,8.55963158 L43.405,9.66252632 L47.1734211,9.66252632 Z" id="Fill-15" fill="#575756" mask="url(#mask-2)"></path>
            <path d="M55.3103158,15.4214737 L54.4218947,15.4214737 L54.4218947,8.25594737 L55.3103158,8.25594737 L55.3103158,11.0191053 L56.3387368,11.0191053 L56.3387368,11.9083158 L55.3103158,11.9083158 L55.3103158,15.4214737 Z M49.2716316,9.48094737 L49.2716316,8.69963158 L53.5829474,8.69963158 L53.5829474,9.48094737 L51.7808421,9.48094737 L53.7553158,14.1712105 L52.9737368,14.5077895 L51.4679474,10.8467368 L49.9703158,14.5659474 L49.1558421,14.2209474 L51.139,9.48094737 L49.2716316,9.48094737 Z" id="Fill-17" fill="#575756" mask="url(#mask-2)"></path>
            <path d="M62.3035263,8.25581579 L63.1919474,8.25581579 L63.1919474,13.7271316 L62.3035263,13.7271316 L62.3035263,11.0858158 L61.3085263,11.0858158 L61.3085263,10.3123947 L62.3035263,10.3123947 L62.3035263,8.25581579 Z M60.2390526,9.82660526 C60.2390526,9.57502632 60.1469474,9.36002632 59.9627368,9.18476316 C59.7790526,9.0095 59.5614211,8.92186842 59.3090526,8.92186842 C59.0566842,8.92186842 58.8382632,9.0095 58.6548421,9.18476316 C58.4711579,9.36002632 58.3795789,9.57502632 58.3795789,9.82660526 C58.3795789,10.0797632 58.4711579,10.2937105 58.6548421,10.4689737 C58.8382632,10.6447632 59.0566842,10.7318684 59.3090526,10.7318684 C59.5614211,10.7318684 59.7790526,10.6447632 59.9627368,10.4689737 C60.1469474,10.2937105 60.2390526,10.0797632 60.2390526,9.82660526 L60.2390526,9.82660526 Z M61.1024737,9.82660526 C61.1024737,10.0571316 61.0540526,10.2726579 60.9585263,10.4734474 C60.8624737,10.6734474 60.7345789,10.8495 60.5761579,11.0031842 C60.4116842,11.1518684 60.2203684,11.2689737 60.0048421,11.3576579 C59.7877368,11.4447632 59.5561579,11.4879211 59.3090526,11.4879211 C59.0622105,11.4879211 58.8306316,11.4447632 58.6137895,11.3576579 C58.3969474,11.2689737 58.2064211,11.1518684 58.0422105,11.0031842 C57.8824737,10.8495 57.7553684,10.6734474 57.6595789,10.4734474 C57.5632632,10.2726579 57.5156316,10.0571316 57.5156316,9.82660526 C57.5156316,9.59607895 57.5632632,9.38134211 57.6595789,9.18134211 C57.7553684,8.98107895 57.8824737,8.80397368 58.0422105,8.65081579 C58.2064211,8.50239474 58.3969474,8.38397368 58.6137895,8.29660526 C58.8306316,8.20897368 59.0622105,8.16423684 59.3090526,8.16423684 C59.5561579,8.16423684 59.7877368,8.20897368 60.0048421,8.29660526 C60.2203684,8.38397368 60.4116842,8.50239474 60.5761579,8.65081579 C60.7345789,8.80397368 60.8624737,8.98107895 60.9585263,9.18134211 C61.0540526,9.38134211 61.1024737,9.59607895 61.1024737,9.82660526 L61.1024737,9.82660526 Z M57.4577368,15.2987105 L57.4577368,13.2495 L58.3464211,13.2495 L58.3464211,14.5247632 L63.2745789,14.5247632 L63.2745789,15.2987105 L57.4577368,15.2987105 Z M61.7361579,12.5587105 L59.8351053,12.5587105 L59.8351053,13.6445 L58.9464211,13.6445 L58.9464211,12.5587105 L56.9724737,12.5587105 L56.9724737,11.7768684 L61.7361579,11.7768684 L61.7361579,12.5587105 Z" id="Fill-18" fill="#575756" mask="url(#mask-2)"></path>
            <path d="M70.4817368,12.9615526 L69.5933158,12.9615526 L69.5933158,8.25576316 L70.4817368,8.25576316 L70.4817368,10.1815526 L71.4033158,10.1815526 L71.4033158,10.9955 L70.4817368,10.9955 L70.4817368,12.9615526 Z M64.9038421,15.2986579 L64.9038421,13.1512895 L65.7922632,13.1512895 L65.7922632,14.5162895 L70.6135789,14.5162895 L70.6135789,15.2986579 L64.9038421,15.2986579 Z M67.7667368,11.0857632 L67.7667368,9.17707895 L64.7143684,9.17707895 L64.7143684,8.40286842 L68.6464737,8.40286842 L68.6464737,11.0857632 L67.7667368,11.0857632 Z M69.0425263,11.7681316 L69.0425263,12.5505 L64.3933158,12.5505 L64.3933158,11.7681316 L65.8498947,11.7681316 L65.8498947,10.1636579 L66.7298947,10.1636579 L66.7298947,11.7681316 L69.0425263,11.7681316 Z" id="Fill-19" fill="#575756" mask="url(#mask-2)"></path>
            <path d="M77.4013158,15.4212105 L78.2894737,15.4212105 L78.2894737,8.25568421 L77.4013158,8.25568421 L77.4013158,15.4212105 Z M76.0931579,14.4343684 L72.2755263,14.4343684 L72.2755263,11.1596316 L75.1221053,11.1596316 L75.1221053,9.48094737 L72.2755263,9.48094737 L72.2755263,8.69963158 L76.0105263,8.69963158 L76.0105263,11.9330526 L73.1555263,11.9330526 L73.1555263,13.6522632 L76.0931579,13.6522632 L76.0931579,14.4343684 Z" id="Fill-20" fill="#575756" mask="url(#mask-2)"></path>
            <path d="M84.8140789,8.25581579 L85.7025,8.25581579 L85.7025,13.7271316 L84.8140789,13.7271316 L84.8140789,11.0858158 L83.8185526,11.0858158 L83.8185526,10.3123947 L84.8140789,10.3123947 L84.8140789,8.25581579 Z M82.7490789,9.82660526 C82.7490789,9.57502632 82.6575,9.36002632 82.4730263,9.18476316 C82.2890789,9.0095 82.0717105,8.92186842 81.8190789,8.92186842 C81.5669737,8.92186842 81.3485526,9.0095 81.1659211,9.18476316 C80.9817105,9.36002632 80.8896053,9.57502632 80.8896053,9.82660526 C80.8896053,10.0797632 80.9817105,10.2937105 81.1659211,10.4689737 C81.3485526,10.6447632 81.5669737,10.7318684 81.8190789,10.7318684 C82.0717105,10.7318684 82.2890789,10.6447632 82.4730263,10.4689737 C82.6575,10.2937105 82.7490789,10.0797632 82.7490789,9.82660526 L82.7490789,9.82660526 Z M83.6130263,9.82660526 C83.6130263,10.0571316 83.5648684,10.2726579 83.4693421,10.4734474 C83.3722368,10.6734474 83.2451316,10.8495 83.0869737,11.0031842 C82.9219737,11.1518684 82.7311842,11.2689737 82.5146053,11.3576579 C82.2977632,11.4447632 82.0667105,11.4879211 81.8190789,11.4879211 C81.5725,11.4879211 81.3406579,11.4447632 81.1243421,11.3576579 C80.9067105,11.2689737 80.7169737,11.1518684 80.5522368,11.0031842 C80.3927632,10.8495 80.2656579,10.6734474 80.1696053,10.4734474 C80.0732895,10.2726579 80.0259211,10.0571316 80.0259211,9.82660526 C80.0259211,9.59607895 80.0732895,9.38134211 80.1696053,9.18134211 C80.2656579,8.98107895 80.3927632,8.80397368 80.5522368,8.65081579 C80.7169737,8.50239474 80.9067105,8.38397368 81.1243421,8.29660526 C81.3406579,8.20897368 81.5725,8.16423684 81.8190789,8.16423684 C82.0667105,8.16423684 82.2977632,8.20897368 82.5146053,8.29660526 C82.7311842,8.38397368 82.9219737,8.50239474 83.0869737,8.65081579 C83.2451316,8.80397368 83.3722368,8.98107895 83.4693421,9.18134211 C83.5648684,9.38134211 83.6130263,9.59607895 83.6130263,9.82660526 L83.6130263,9.82660526 Z M79.9680263,15.2987105 L79.9680263,13.2495 L80.8567105,13.2495 L80.8567105,14.5247632 L85.7848684,14.5247632 L85.7848684,15.2987105 L79.9680263,15.2987105 Z M84.2464474,12.5587105 L82.3456579,12.5587105 L82.3456579,13.6445 L81.4575,13.6445 L81.4575,12.5587105 L79.4827632,12.5587105 L79.4827632,11.7768684 L84.2464474,11.7768684 L84.2464474,12.5587105 Z" id="Fill-21" fill="#575756" mask="url(#mask-2)"></path>
            <path d="M31.7862105,2.28631579 C31.7393684,2.33131579 31.7198947,2.37789474 31.7198947,2.44657895 C31.7198947,2.51289474 31.7396316,2.55894737 31.7875263,2.60631579 C31.8372632,2.65447368 31.8872632,2.67473684 31.9567368,2.67473684 C32.0262105,2.67473684 32.077,2.65447368 32.1259474,2.60631579 C32.1738421,2.55894737 32.1930526,2.51289474 32.1930526,2.44657895 C32.1930526,2.37789474 32.1743684,2.33131579 32.127,2.28631579 C32.0777895,2.23868421 32.0272632,2.21815789 31.9567368,2.21815789 C31.887,2.21815789 31.8359474,2.23868421 31.7862105,2.28631579 L31.7862105,2.28631579 Z M27.0035789,2.41657895 L27.0035789,2.41736842 C26.9543684,2.46684211 26.9333158,2.51605263 26.9333158,2.58210526 C26.9333158,2.65236842 26.9525263,2.70052632 27.0017368,2.74894737 C27.0535789,2.79868421 27.1048947,2.82 27.1780526,2.82 C27.2462105,2.82 27.2956842,2.79921053 27.3448947,2.75026316 C27.3941053,2.70236842 27.4135789,2.65236842 27.4135789,2.58210526 C27.4135789,2.51473684 27.3933158,2.46526316 27.3430526,2.41552632 C27.2941053,2.36578947 27.2462105,2.34605263 27.1780526,2.34605263 C27.1062105,2.34605263 27.0543684,2.36684211 27.0035789,2.41657895 L27.0035789,2.41657895 Z M31.3859474,4.64078947 C31.3846316,4.62684211 31.3833158,4.61210526 31.3833158,4.59763158 L31.3833158,4.36868421 L31.2688421,4.36868421 L31.2688421,4.64078947 L31.3859474,4.64078947 L31.3859474,4.64078947 Z M27.2067368,4.64105263 L28.6396316,4.64105263 L28.6396316,4.59342105 L27.2067368,4.59342105 L27.2067368,4.64105263 Z M30.4346316,5.75894737 C30.2451579,5.75894737 30.0912105,5.605 30.0912105,5.41605263 L30.0912105,4.36526316 C29.9585789,4.34447368 29.8506842,4.24894737 29.8135789,4.12289474 L29.8135789,5.40210526 C29.8135789,5.59078947 29.6596316,5.74552632 29.4698947,5.74552632 L26.3767368,5.74552632 C26.1877895,5.74552632 26.0338421,5.59078947 26.0338421,5.40210526 L26.0338421,3.83605263 C26.0338421,3.71131579 26.1004211,3.60210526 26.1998947,3.54210526 C26.1975263,3.53947368 26.1956842,3.53710526 26.1935789,3.53552632 C26.0656842,3.41526316 25.9630526,3.27552632 25.8891053,3.11815789 C25.8114737,2.95394737 25.7722632,2.77368421 25.7722632,2.58210526 C25.7722632,2.39552632 25.8114737,2.21605263 25.8877895,2.04973684 C25.9617368,1.88921053 26.0643684,1.74894737 26.1935789,1.63052632 C26.3154211,1.51026316 26.4622632,1.41447368 26.6291053,1.34552632 C26.7983158,1.27631579 26.9798947,1.24052632 27.1688421,1.24052632 C27.3609474,1.24052632 27.5435789,1.27631579 27.7130526,1.34552632 C27.8791053,1.41394737 28.0254211,1.50947368 28.1464737,1.62815789 C28.2764737,1.74710526 28.3798947,1.88815789 28.4541053,2.04973684 C28.5309474,2.21631579 28.5698947,2.39605263 28.5698947,2.58210526 C28.5698947,2.77368421 28.5304211,2.95315789 28.4530526,3.11815789 C28.3875263,3.25710526 28.2998947,3.38315789 28.1922632,3.49263158 L28.6359474,3.49263158 L28.6359474,1.55736842 C28.6359474,1.36815789 28.7893684,1.21421053 28.9791053,1.21421053 L29.4698947,1.21421053 C29.6596316,1.21421053 29.8135789,1.36815789 29.8135789,1.55736842 L29.8135789,3.50157895 C29.8559474,3.35947368 29.9864737,3.25578947 30.1422632,3.25578947 L30.8367368,3.25578947 C30.7677895,3.17105263 30.7093684,3.07842105 30.662,2.97789474 C30.5827895,2.81026316 30.5430526,2.63184211 30.5430526,2.44657895 C30.5430526,2.26131579 30.5827895,2.08236842 30.662,1.91473684 C30.7380526,1.75447368 30.8417368,1.61157895 30.9701579,1.49131579 C31.0977895,1.37210526 31.2483158,1.27736842 31.4164737,1.20894737 C31.5864737,1.13947368 31.7691053,1.10394737 31.9567368,1.10394737 C32.1451579,1.10394737 32.3272632,1.13947368 32.4975263,1.20894737 C32.6662105,1.27736842 32.8162105,1.37210526 32.9433158,1.49131579 C33.0722632,1.61210526 33.1767368,1.75473684 33.2517368,1.91473684 C33.3306842,2.08236842 33.3706842,2.26157895 33.3706842,2.44657895 C33.3706842,2.63131579 33.3306842,2.81 33.2514737,2.97789474 C33.2043684,3.07842105 33.1459474,3.17105263 33.0777895,3.25578947 L33.7706842,3.25578947 C33.9606842,3.25578947 34.1141053,3.40921053 34.1141053,3.59868421 L34.1141053,4.02526316 C34.1141053,4.21473684 33.9606842,4.36868421 33.7706842,4.36868421 L32.5614737,4.36868421 L32.5614737,4.59763158 C32.5614737,4.61210526 32.5604211,4.62684211 32.5585789,4.64078947 L33.5280526,4.64078947 C33.7175263,4.64078947 33.8706842,4.795 33.8706842,4.98447368 L33.8706842,5.41605263 C33.8706842,5.605 33.7175263,5.75894737 33.5280526,5.75894737 L30.4346316,5.75894737 L30.4346316,5.75894737 Z M23.7101579,2.73526316 L23.7101579,2.64894737 L23.6488421,2.64894737 C23.6793684,2.69131579 23.6793684,2.69210526 23.7101579,2.73526316 L23.7101579,2.73526316 Z M23.002,3.65105263 C22.9280526,3.54605263 22.9183158,3.53263158 22.8377895,3.41921053 C22.7630526,3.53131579 22.7551579,3.545 22.6848947,3.65105263 L23.002,3.65105263 L23.002,3.65105263 Z M24.8898947,5.79026316 C24.7001579,5.79026316 24.5467368,5.63578947 24.5467368,5.44631579 L24.5467368,4.76921053 L22.1596316,4.76921053 C21.9698947,4.76921053 21.8162105,4.615 21.8162105,4.42552632 L21.8162105,4.00368421 C21.7146316,3.93368421 21.607,3.85973684 21.607,3.85973684 C21.5312105,3.80789474 21.4801579,3.72789474 21.4635789,3.63842105 C21.4604211,3.61842105 21.4583158,3.59736842 21.4583158,3.57710526 C21.4583158,3.50736842 21.4793684,3.43894737 21.5188421,3.38078947 C21.5188421,3.38078947 21.7788421,3.00684211 22.0272632,2.64894737 L21.8233158,2.64894737 C21.6341053,2.64894737 21.4801579,2.495 21.4801579,2.305 L21.4801579,1.89605263 C21.4801579,1.70710526 21.6341053,1.55315789 21.8233158,1.55315789 L22.2322632,1.55315789 L22.2322632,1.51368421 C22.2322632,1.32421053 22.3859474,1.17078947 22.5759474,1.17078947 L23.0980526,1.17078947 C23.2875263,1.17078947 23.4409474,1.32421053 23.4409474,1.51368421 L23.4409474,1.55315789 L23.7106842,1.55315789 C23.7154211,1.36736842 23.8672632,1.21921053 24.0541053,1.21921053 L24.5135789,1.21921053 C24.5854211,1.21921053 24.6527895,1.24052632 24.7077895,1.27894737 C24.7635789,1.23815789 24.8327895,1.21421053 24.9075263,1.21421053 L25.3812105,1.21421053 C25.5706842,1.21421053 25.7243684,1.36815789 25.7243684,1.55736842 L25.7243684,3.79236842 C25.7243684,3.82789474 25.7191053,3.86157895 25.7093684,3.89394737 C25.7191053,3.92578947 25.7243684,3.95894737 25.7243684,3.99447368 L25.7243684,5.44631579 C25.7243684,5.63578947 25.5706842,5.79026316 25.3812105,5.79026316 L24.8898947,5.79026316 L24.8898947,5.79026316 Z M41.3777895,5.825 C41.1885789,5.825 41.0351579,5.67105263 41.0351579,5.48131579 L41.0351579,1.55736842 C41.0351579,1.36815789 41.1885789,1.21421053 41.3777895,1.21421053 L41.8685789,1.21421053 C42.0591053,1.21421053 42.2130526,1.36815789 42.2130526,1.55736842 L42.2130526,3.265 C42.2754211,3.18710526 42.3714737,3.13657895 42.4793684,3.13657895 L42.9377895,3.13657895 L42.9377895,2.60473684 C42.9377895,2.53052632 42.9612105,2.46263158 42.9993684,2.40684211 L42.6562105,2.40684211 C42.467,2.40684211 42.3133158,2.25289474 42.3133158,2.06342105 L42.3133158,1.63684211 C42.3133158,1.44736842 42.467,1.29394737 42.6562105,1.29394737 L44.8212105,1.29394737 C44.9077895,1.29394737 44.9875263,1.32657895 45.0483158,1.38052632 C45.1091053,1.28078947 45.2185789,1.21421053 45.3433158,1.21421053 L45.8335789,1.21421053 C46.0235789,1.21421053 46.1772632,1.36815789 46.1772632,1.55736842 L46.1772632,2.27 L46.3388421,2.27 C46.5275263,2.27 46.682,2.42394737 46.682,2.61315789 L46.682,3.05763158 C46.682,3.24736842 46.5275263,3.40131579 46.3388421,3.40131579 L46.1772632,3.40131579 L46.1772632,4.13552632 C46.1772632,4.32526316 46.0235789,4.47894737 45.8335789,4.47894737 L45.3433158,4.47894737 C45.1925263,4.47894737 45.0659474,4.38368421 45.0185789,4.25 L43.5933158,4.25 L43.5933158,4.64078947 L45.9051579,4.64078947 C46.0943684,4.64078947 46.2483158,4.795 46.2483158,4.98447368 L46.2483158,5.41605263 C46.2483158,5.605 46.0943684,5.75894737 45.9051579,5.75894737 L42.7583158,5.75894737 C42.5693684,5.75894737 42.4146316,5.605 42.4146316,5.41605263 L42.4146316,4.24394737 C42.3338421,4.22894737 42.2627895,4.18421053 42.2130526,4.12210526 L42.2130526,5.48131579 C42.2130526,5.67105263 42.0591053,5.825 41.8685789,5.825 L41.3777895,5.825 L41.3777895,5.825 Z M35.252,2.415 C35.2517368,2.415 35.2517368,2.41552632 35.2517368,2.41552632 C35.2017368,2.46526316 35.1812105,2.51605263 35.1812105,2.58684211 C35.1812105,2.66 35.2014737,2.71105263 35.2496316,2.75842105 C35.2991053,2.80789474 35.3501579,2.82842105 35.4214737,2.82842105 C35.4975263,2.82842105 35.5512105,2.80736842 35.6014737,2.75763158 C35.6509474,2.70894737 35.6712105,2.66026316 35.6712105,2.58684211 C35.6712105,2.51736842 35.6501579,2.46684211 35.6004211,2.41736842 C35.5493684,2.36684211 35.4964737,2.34605263 35.4214737,2.34605263 C35.3512105,2.34605263 35.3004211,2.36605263 35.252,2.415 L35.252,2.415 Z M36.3041053,4.465 C36.2575263,4.51263158 36.2388421,4.55763158 36.2388421,4.61921053 C36.2388421,4.68236842 36.2564737,4.72605263 36.3004211,4.76973684 C36.3467368,4.815 36.3956842,4.83447368 36.4622632,4.83447368 C36.5283158,4.83447368 36.5777895,4.81473684 36.6254211,4.76842105 C36.6709474,4.72526316 36.6891053,4.68131579 36.6891053,4.61921053 C36.6891053,4.55815789 36.6696316,4.51421053 36.622,4.46736842 C36.5743684,4.41868421 36.527,4.39921053 36.4622632,4.39921053 C36.3967368,4.39921053 36.3501579,4.41868421 36.3041053,4.465 L36.3041053,4.465 Z M35.927,5.84710526 L35.9275263,5.84710526 C35.7635789,5.77868421 35.6154211,5.68421053 35.4883158,5.565 C35.3622632,5.44842105 35.2609474,5.30868421 35.1864737,5.15026316 C35.1088421,4.98631579 35.0691053,4.80894737 35.0691053,4.62368421 C35.0691053,4.43894737 35.1085789,4.26157895 35.1854211,4.09605263 C35.2141053,4.03526316 35.2464737,3.97657895 35.2833158,3.92263158 C35.1438421,3.90921053 35.0096316,3.87631579 34.8825263,3.82421053 C34.7156842,3.75552632 34.5667368,3.66105263 34.4396316,3.54131579 C34.4385789,3.54026316 34.437,3.53894737 34.4359474,3.53815789 C34.3117368,3.41894737 34.2104211,3.27868421 34.1362105,3.12184211 C34.0567368,2.95631579 34.0162105,2.77421053 34.0162105,2.58210526 C34.0162105,2.39421053 34.0567368,2.21368421 34.1362105,2.04605263 C34.2104211,1.88657895 34.3138421,1.74578947 34.4396316,1.62763158 C34.5667368,1.50921053 34.7156842,1.41447368 34.8825263,1.34552632 C35.0514737,1.27631579 35.2325263,1.24052632 35.4214737,1.24052632 C35.6138421,1.24052632 35.7967368,1.27631579 35.9664737,1.34552632 C36.1327895,1.41447368 36.2806842,1.51026316 36.4067368,1.63052632 C36.4201579,1.64289474 36.4327895,1.65473684 36.4456842,1.66710526 C36.497,1.63684211 36.5572632,1.61921053 36.6214737,1.61921053 L36.902,1.61921053 L36.902,1.55736842 C36.902,1.36815789 37.0551579,1.21421053 37.2451579,1.21421053 L37.7364737,1.21421053 C37.9259474,1.21421053 38.0791053,1.36815789 38.0791053,1.55736842 L38.0791053,1.64605263 C38.1356842,1.53368421 38.2525263,1.45605263 38.3864737,1.45605263 L40.3912105,1.45605263 C40.5806842,1.45605263 40.7343684,1.61052632 40.7343684,1.79973684 L40.7343684,4.96684211 C40.7343684,5.15631579 40.5806842,5.31 40.3912105,5.31 L39.8996316,5.31 C39.7104211,5.31 39.5564737,5.15631579 39.5564737,4.96684211 L39.5564737,2.58210526 L38.3864737,2.58210526 C38.2525263,2.58210526 38.1356842,2.50605263 38.0791053,2.39289474 L38.0791053,3.63842105 C38.0791053,3.82789474 37.9259474,3.98157895 37.7364737,3.98157895 L37.6801579,3.98157895 C37.7027895,4.01868421 37.7227895,4.05815789 37.7409474,4.09815789 C37.8159474,4.26368421 37.8533158,4.44026316 37.8533158,4.62368421 C37.8533158,4.80789474 37.8159474,4.98368421 37.7406842,5.14684211 C37.6672632,5.30710526 37.5659474,5.44710526 37.4391053,5.565 C37.3133158,5.68342105 37.1662105,5.77763158 37.0033158,5.84605263 C36.837,5.91657895 36.6556842,5.95315789 36.4659474,5.95315789 C36.2775263,5.95315789 36.0954211,5.91736842 35.927,5.84710526 L35.927,5.84710526 Z" id="Fill-22" fill="#3953A0" mask="url(#mask-2)"></path>
            <path d="M43.2502895,4.98444737 L45.9052895,4.98444737 L45.9052895,5.41602632 L42.7584474,5.41602632 L42.7584474,4.23707895 L43.2502895,4.23707895 L43.2502895,4.98444737 Z M44.3376579,2.06339474 L42.6560789,2.06339474 L42.6560789,1.63681579 L44.8213421,1.63681579 L44.8213421,3.10602632 L44.3376579,3.10602632 L44.3376579,2.06339474 Z M42.4792368,3.47997368 L43.2808158,3.47997368 L43.2808158,2.60471053 L43.7679211,2.60471053 L43.7679211,3.47997368 L45.0421316,3.47997368 L45.0421316,3.90681579 L42.4792368,3.90681579 L42.4792368,3.47997368 Z M45.8334474,3.05760526 L45.8334474,4.1355 L45.3431842,4.1355 L45.3431842,1.55760526 L45.8334474,1.55760526 L45.8334474,2.61313158 L46.3387105,2.61313158 L46.3387105,3.05760526 L45.8334474,3.05760526 Z M39.8995,2.23997368 L38.3866053,2.23997368 L38.3866053,1.79971053 L40.3910789,1.79971053 L40.3910789,4.96681579 L39.8995,4.96681579 L39.8995,2.23997368 Z M41.3779211,5.48155263 L41.8687105,5.48155263 L41.8687105,1.55760526 L41.3779211,1.55760526 L41.3779211,5.48155263 Z M36.0613421,5.01523684 C36.1713421,5.12313158 36.3055526,5.17786842 36.4623947,5.17786842 C36.6176579,5.17786842 36.7521316,5.12313158 36.8642368,5.01523684 C36.9760789,4.90681579 37.0323947,4.77471053 37.0323947,4.61918421 C37.0323947,4.46655263 36.9760789,4.33418421 36.8642368,4.22365789 C36.7521316,4.11181579 36.6176579,4.05602632 36.4623947,4.05602632 C36.3055526,4.05602632 36.1713421,4.11181579 36.0613421,4.22365789 C35.9502895,4.33418421 35.8952895,4.46655263 35.8952895,4.61918421 C35.8952895,4.77471053 35.9502895,4.90681579 36.0613421,5.01523684 L36.0613421,5.01523684 Z M35.7223947,3.93365789 C35.8200263,3.84207895 35.9321316,3.77023684 36.0584474,3.71760526 C36.1860789,3.66471053 36.3210789,3.63839474 36.4658158,3.63839474 C36.6100263,3.63839474 36.7455526,3.66471053 36.8713421,3.71760526 C36.9963421,3.77023684 37.1071316,3.84207895 37.2052895,3.93365789 C37.2995,4.01865789 37.3742368,4.12102632 37.4281842,4.24128947 C37.4826579,4.36155263 37.5100263,4.48839474 37.5100263,4.62365789 C37.5100263,4.75892105 37.4826579,4.88576316 37.4281842,5.00418421 C37.3742368,5.12313158 37.2995,5.22628947 37.2052895,5.31471053 C37.1071316,5.40523684 36.9963421,5.47707895 36.8713421,5.52971053 C36.7455526,5.58234211 36.6100263,5.60918421 36.4658158,5.60918421 C36.3210789,5.60918421 36.1860789,5.58234211 36.0584474,5.52971053 C35.9321316,5.47707895 35.8200263,5.40523684 35.7223947,5.31471053 C35.6287105,5.22628947 35.5529211,5.12313158 35.4971316,5.00418421 C35.4408158,4.88576316 35.4123947,4.75892105 35.4123947,4.62365789 C35.4123947,4.48839474 35.4408158,4.36155263 35.4971316,4.24128947 C35.5529211,4.12102632 35.6287105,4.01865789 35.7223947,3.93365789 L35.7223947,3.93365789 Z M35.8418684,2.17313158 C35.7268684,2.05865789 35.5868684,2.00207895 35.4216053,2.00207895 C35.2600263,2.00207895 35.1216053,2.05865789 35.0076579,2.17313158 C34.8947632,2.28786842 34.8379211,2.4255 34.8379211,2.58681579 C34.8379211,2.75155263 34.8947632,2.8905 35.0076579,3.00339474 C35.1216053,3.11576316 35.2600263,3.17155263 35.4216053,3.17155263 C35.5868684,3.17155263 35.7268684,3.11576316 35.8418684,3.00339474 C35.9573947,2.8905 36.0150263,2.75155263 36.0150263,2.58681579 C36.0150263,2.4255 35.9573947,2.28786842 35.8418684,2.17313158 L35.8418684,2.17313158 Z M36.1700263,3.29076316 C36.0747632,3.38181579 35.9639737,3.45339474 35.8355526,3.50655263 C35.7068684,3.55918421 35.5684474,3.5855 35.4216053,3.5855 C35.2766053,3.5855 35.1402895,3.55918421 35.0129211,3.50655263 C34.8842368,3.45339474 34.7705526,3.38181579 34.6737105,3.29076316 C34.5792368,3.19997368 34.5037105,3.09444737 34.4460789,2.97418421 C34.3881842,2.85365789 34.3597632,2.72286842 34.3597632,2.58207895 C34.3597632,2.44523684 34.3881842,2.3155 34.4460789,2.19286842 C34.5037105,2.07234211 34.5792368,1.96655263 34.6737105,1.87918421 C34.7705526,1.78734211 34.8842368,1.71602632 35.0129211,1.66286842 C35.1402895,1.6105 35.2766053,1.58365789 35.4216053,1.58365789 C35.5684474,1.58365789 35.7068684,1.6105 35.8355526,1.66286842 C35.9639737,1.71602632 36.0747632,1.78734211 36.1700263,1.87918421 C36.2663421,1.96655263 36.3447632,2.07234211 36.4023947,2.19286842 C36.4592368,2.3155 36.4887105,2.44523684 36.4887105,2.58207895 C36.4887105,2.72286842 36.4592368,2.85365789 36.4023947,2.97418421 C36.3447632,3.09444737 36.2663421,3.19997368 36.1700263,3.29076316 L36.1700263,3.29076316 Z M37.2452895,3.63839474 L37.2452895,3.20707895 L36.6213421,3.20707895 L36.6213421,2.80707895 L37.2452895,2.80707895 L37.2452895,2.36234211 L36.6213421,2.36234211 L36.6213421,1.96234211 L37.2452895,1.96234211 L37.2452895,1.55760526 L37.7363421,1.55760526 L37.7363421,3.63839474 L37.2452895,3.63839474 Z M30.9258158,4.98444737 L33.5279211,4.98444737 L33.5279211,5.41602632 L30.4345,5.41602632 L30.4345,4.34207895 L30.9258158,4.34207895 L30.9258158,4.98444737 Z M32.3663421,2.03918421 C32.2529211,1.92918421 32.1160789,1.87418421 31.9568684,1.87418421 C31.7979211,1.87418421 31.6616053,1.92918421 31.5476579,2.03918421 C31.4337105,2.14892105 31.3768684,2.28444737 31.3768684,2.44655263 C31.3768684,2.60471053 31.4337105,2.73944737 31.5476579,2.85076316 C31.6616053,2.96286842 31.7979211,3.01813158 31.9568684,3.01813158 C32.1160789,3.01813158 32.2529211,2.96286842 32.3663421,2.85076316 C32.4795,2.73944737 32.5366053,2.60471053 32.5366053,2.44655263 C32.5366053,2.28444737 32.4795,2.14892105 32.3663421,2.03918421 L32.3663421,2.03918421 Z M32.7092368,3.14576316 C32.6116053,3.23655263 32.4979211,3.30839474 32.3687105,3.36076316 C32.2387105,3.41392105 32.1008158,3.4405 31.9568684,3.4405 C31.8123947,3.4405 31.6752895,3.41392105 31.5450263,3.36076316 C31.4160789,3.30839474 31.3010789,3.23655263 31.2045,3.14576316 C31.1073947,3.05760526 31.0297632,2.95260526 30.9723947,2.83102632 C30.9147632,2.7105 30.8866053,2.58076316 30.8866053,2.44655263 C30.8866053,2.31181579 30.9147632,2.18286842 30.9723947,2.06128947 C31.0297632,1.93971053 31.1073947,1.83313158 31.2045,1.74260526 C31.3010789,1.65155263 31.4160789,1.57997368 31.5450263,1.52707895 C31.6752895,1.47444737 31.8123947,1.44734211 31.9568684,1.44734211 C32.1008158,1.44734211 32.2387105,1.47444737 32.3687105,1.52707895 C32.4979211,1.57997368 32.6116053,1.65155263 32.7092368,1.74260526 C32.8060789,1.83313158 32.8837105,1.93971053 32.9416053,2.06128947 C32.9989737,2.18286842 33.0276579,2.31181579 33.0276579,2.44655263 C33.0276579,2.58076316 32.9989737,2.7105 32.9416053,2.83102632 C32.8837105,2.95260526 32.8060789,3.05760526 32.7092368,3.14576316 L32.7092368,3.14576316 Z M32.2176579,4.02523684 L32.2176579,4.59760526 L31.7263421,4.59760526 L31.7263421,4.02523684 L30.1423947,4.02523684 L30.1423947,3.59865789 L33.7708158,3.59865789 L33.7708158,4.02523684 L32.2176579,4.02523684 Z M27.5871316,2.17313158 C27.4737105,2.05865789 27.3368684,2.00207895 27.1779211,2.00207895 C27.0158158,2.00207895 26.8766053,2.05865789 26.7621316,2.17313158 C26.6468684,2.28786842 26.5892368,2.42444737 26.5892368,2.58207895 C26.5892368,2.74392105 26.6468684,2.88102632 26.7621316,2.99392105 C26.8766053,3.10655263 27.0158158,3.16365789 27.1779211,3.16365789 C27.3368684,3.16365789 27.4737105,3.10655263 27.5871316,2.99392105 C27.7005526,2.88102632 27.7573947,2.74392105 27.7573947,2.58207895 C27.7573947,2.42444737 27.7005526,2.28786842 27.5871316,2.17313158 L27.5871316,2.17313158 Z M27.9126579,3.28655263 C27.8208158,3.37760526 27.7110789,3.44944737 27.5826579,3.50207895 C27.4539737,3.55497368 27.3160789,3.58128947 27.1687105,3.58128947 C27.0242368,3.58128947 26.8879211,3.55497368 26.7597632,3.50207895 C26.6313421,3.44944737 26.5213421,3.37760526 26.4302895,3.28655263 C26.3326579,3.19602632 26.2555526,3.09155263 26.1997632,2.97234211 C26.1437105,2.85286842 26.1160789,2.72286842 26.1160789,2.58207895 C26.1160789,2.44523684 26.1437105,2.3155 26.1997632,2.19286842 C26.2555526,2.07234211 26.3326579,1.96655263 26.4302895,1.87918421 C26.5213421,1.78734211 26.6313421,1.71602632 26.7597632,1.66286842 C26.8879211,1.6105 27.0242368,1.58365789 27.1687105,1.58365789 C27.3160789,1.58365789 27.4539737,1.6105 27.5826579,1.66286842 C27.7110789,1.71602632 27.8208158,1.78734211 27.9126579,1.87918421 C28.0095,1.96655263 28.0866053,2.07234211 28.1423947,2.19286842 C28.1981842,2.3155 28.2266053,2.44523684 28.2266053,2.58207895 C28.2266053,2.72286842 28.1981842,2.85286842 28.1423947,2.97234211 C28.0866053,3.09155263 28.0095,3.19602632 27.9126579,3.28655263 L27.9126579,3.28655263 Z M28.9789737,3.63392105 L29.4700263,3.63392105 L29.4700263,1.55760526 L28.9789737,1.55760526 L28.9789737,3.63392105 Z M26.8634474,4.98444737 L28.9834474,4.98444737 L28.9834474,4.24997368 L26.8634474,4.24997368 L26.8634474,4.98444737 Z M26.3766053,5.40234211 L29.4697632,5.40234211 L29.4697632,3.83602632 L26.3766053,3.83602632 L26.3766053,5.40234211 Z M23.5229211,3.79234211 L22.8276579,2.81128947 L22.1597632,3.82313158 L21.8013421,3.57707895 L22.6821316,2.30497368 L21.8234474,2.30497368 L21.8234474,1.89602632 L22.5758158,1.89602632 L22.5758158,1.51392105 L23.0979211,1.51392105 L23.0979211,1.89602632 L23.8284474,1.89602632 L23.8284474,2.30497368 L22.9823947,2.30497368 L23.8721316,3.55497368 L23.5229211,3.79234211 Z M24.9076579,2.89497368 L24.5137105,2.89497368 L24.5137105,3.77023684 L24.0542368,3.77023684 L24.0542368,1.56207895 L24.5137105,1.56207895 L24.5137105,2.44655263 L24.9076579,2.44655263 L24.9076579,1.55760526 L25.3810789,1.55760526 L25.3810789,3.79234211 L24.9076579,3.79234211 L24.9076579,2.89497368 Z M24.8897632,5.44628947 L24.8897632,4.4255 L22.1597632,4.4255 L22.1597632,3.99444737 L25.3810789,3.99444737 L25.3810789,5.44628947 L24.8897632,5.44628947 Z" id="Fill-23" fill="#FEFEFE" mask="url(#mask-2)"></path>
        </g>
    </g>
</svg>