<?xml version="1.0" encoding="UTF-8"?>
<svg width="100px" height="60px" viewBox="0 0 100 60" version="1.1" xmlns="http://www.w3.org/2000/svg" xmlns:xlink="http://www.w3.org/1999/xlink">
    <!-- Generator: Sketch 55.2 (78181) - https://sketchapp.com -->
    <title>logo/okpos</title>
    <desc>Created with Sketch.</desc>
    <g id="logo/okpos" stroke="none" stroke-width="1" fill="none" fill-rule="evenodd">
        <g transform="translate(20.000000, 24.000000)">
            <path d="M58.4443692,2.23553 L56.3558328,4.22494111 L49.9688679,4.22494111 L49.4873483,4.80708556 L49.9525246,5.40414111 L56.4779202,5.40414111 L58.5034005,8.06284111 L56.5231694,10.6352522 L46.9048518,10.6352522 L48.8330037,8.69864111 L55.1808176,8.69864111 L55.6817298,8.14057444 L55.1932581,7.45478556 L48.7068914,7.45478556 L46.7189765,4.82065222 L48.6555439,2.23553 L58.4443692,2.23553 Z M14.6111929,5.84884667 L19.5256689,2.24952444 L22.8909397,2.25184667 L17.7135062,6.27259111 L22.7900742,10.6768689 L19.5305475,10.6768689 L14.6133883,6.76905778 L14.6133883,10.6811467 L11.9800322,10.6811467 L11.9800322,2.24952444 L14.6111929,2.24952444 L14.6111929,5.84884667 Z M58.3738976,0.0216577778 L59.6395331,0.0216577778 L59.6395331,0.218313333 L59.1117886,0.218313333 L59.1117886,1.58842444 L58.8918849,1.58842444 L58.8918849,0.218313333 L58.3738976,0.218313333 L58.3738976,0.0216577778 Z M61.4648071,1.58837556 L61.2359999,1.58837556 L61.2359999,0.450486667 L60.8393682,1.58837556 L60.7210617,1.58837556 L60.6028772,1.58837556 L60.2061236,0.450486667 L60.2061236,1.58837556 L59.9773164,1.58837556 L59.9779262,0.0208755556 L60.3013786,0.0195311111 C60.3013786,0.0195311111 60.5748252,0.844897778 60.7210617,1.26118667 C60.8672983,0.844897778 61.1407449,0.0195311111 61.1407449,0.0195311111 L61.4643192,0.0208755556 L61.4648071,1.58837556 Z M1.88132931,2.23903778 L9.11388066,2.23903778 L11.0758169,4.30838222 L11.0758169,8.66389333 L8.9930129,10.6907044 L2.14209144,10.6907044 L1.21965453e-05,8.65387111 L1.21965453e-05,4.20901556 L1.88132931,2.23903778 Z M2.71495098,8.5558 L8.34963294,8.5558 L8.34963294,4.30417778 L2.71495098,4.30417778 L2.71495098,8.5558 Z M32.2687292,2.25188333 L34.4861831,4.87733889 L32.2157962,7.93179444 L26.1503322,7.93179444 L26.1503322,10.6769056 L23.3919615,10.6769056 L23.3919615,2.25188333 L32.2687292,2.25188333 Z M26.1503322,4.27637222 L26.1503322,5.92722778 L31.005289,5.92722778 L31.6106036,5.09086111 L30.9578445,4.27637222 L26.1503322,4.27637222 Z" id="Combined-Shape" fill="#231F20"></path>
            <polygon id="Fill-7" fill="#7DD2F6" points="37.5441375 4.63711111 43.6600951 4.63711111 43.6600951 1.97462222 37.5441375 1.97462222"></polygon>
            <polygon id="Fill-8" fill="#7DD2F6" points="37.5442595 10.8777778 43.6600951 10.8777778 43.6600951 8.21528889 37.5442595 8.21528889"></polygon>
            <polygon id="Fill-9" fill="#015AAB" points="46.3169052 4.63707444 43.6601317 4.63707444 43.6601317 1.97458556"></polygon>
            <polygon id="Fill-10" fill="#2BC3F3" points="43.6601439 8.21533778 43.6601439 10.8778267 46.3169174 8.21533778"></polygon>
            <polygon id="Fill-11" fill="#1D8BCA" points="43.6600951 8.21541111 46.3168686 8.21541111 46.3168686 4.63711111 43.6600951 4.63711111"></polygon>
            <polygon id="Fill-12" fill="#015AAB" points="34.8874128 8.21533778 37.5443082 10.8778267 37.5443082 8.21533778"></polygon>
            <polygon id="Fill-13" fill="#2BC3F3" points="37.5442107 1.97462222 37.5442107 4.63711111 34.8874372 4.63711111"></polygon>
            <polygon id="Fill-14" fill="#1D8BCA" points="34.887364 8.21541111 37.5441375 8.21541111 37.5441375 4.63711111 34.887364 4.63711111"></polygon>
        </g>
    </g>
</svg>