<?xml version="1.0" encoding="UTF-8"?>
<svg width="100px" height="60px" viewBox="0 0 100 60" version="1.1" xmlns="http://www.w3.org/2000/svg" xmlns:xlink="http://www.w3.org/1999/xlink">
    <!-- Generator: Sketch 55.2 (78181) - https://sketchapp.com -->
    <title>logo/opensurvey</title>
    <desc>Created with Sketch.</desc>
    <defs>
        <polygon id="path-1" points="0 0.032739 4.64583608 0.032739 4.64583608 7.451059 0 7.451059"></polygon>
    </defs>
    <g id="logo/opensurvey" stroke="none" stroke-width="1" fill="none" fill-rule="evenodd">
        <g transform="translate(19.000000, 20.000000)">
            <path d="M16.6124616,8.621823 C16.6124616,8.357293 16.5783658,8.100183 16.5101743,7.850843 C16.4420529,7.601363 16.3397656,7.380303 16.2033825,7.187523 C16.0670696,6.994743 15.8965908,6.839903 15.6920161,6.722583 C15.4875117,6.605543 15.2526297,6.546883 14.9875106,6.546883 C14.4420484,6.546883 14.0310752,6.736023 13.7545908,7.113743 C13.477966,7.491883 13.3398291,7.994483 13.3398291,8.621823 C13.3398291,8.916523 13.3756787,9.190643 13.447799,9.443763 C13.5197088,9.697163 13.6276787,9.914373 13.7716386,10.095813 C13.9154582,10.277183 14.0878313,10.420823 14.2886876,10.526593 C14.4892634,10.632573 14.7222511,10.685353 14.9875106,10.685353 C15.2829371,10.685353 15.5329727,10.624943 15.7374772,10.503913 C15.9420518,10.383023 16.1104961,10.226083 16.2431609,10.033303 C16.3756153,9.840663 16.470466,9.621423 16.5272222,9.375793 C16.5840484,9.130163 16.6124616,8.878863 16.6124616,8.621823 L16.6124616,8.621823 Z M12.0898614,5.685183 L13.3170986,5.685183 L13.3170986,6.478843 L13.3398291,6.478843 C13.5216732,6.138783 13.7753569,5.894903 14.1011609,5.747623 C14.4268246,5.600203 14.7790774,5.526423 15.1579894,5.526423 C15.619966,5.526423 16.0233625,5.607763 16.3681787,5.770303 C16.7127845,5.932913 16.9988101,6.155723 17.2261153,6.439223 C17.4533502,6.722583 17.6238291,7.053403 17.7374115,7.431263 C17.851064,7.809403 17.9078903,8.213583 17.9078903,8.644503 C17.9078903,9.037623 17.8567467,9.419403 17.7544594,9.789633 C17.6522422,10.160073 17.4968469,10.486973 17.2886242,10.770263 C17.0801208,11.053763 16.8170362,11.280563 16.4988792,11.450663 C16.180652,11.620693 15.8056687,11.705813 15.3738591,11.705813 C15.1844382,11.705813 14.9949471,11.688733 14.8057366,11.654643 C14.6162455,11.620693 14.4344716,11.565813 14.2602745,11.490353 C14.0858669,11.414823 13.9250696,11.318503 13.7773213,11.201253 C13.6295729,11.084143 13.5063792,10.946103 13.4080206,10.787413 L13.3852901,10.787413 L13.3852901,13.999993 L12.0898614,13.999993 L12.0898614,5.685183 Z" id="Fill-1" fill="#404140"></path>
            <path d="M24.6576458,5.685176 L25.884883,5.685176 L25.884883,6.546876 L25.9076135,6.569556 C26.1045411,6.244616 26.3621536,5.989536 26.6803106,5.804176 C26.9985378,5.619096 27.3507905,5.526416 27.7371391,5.526416 C28.3809598,5.526416 28.8886079,5.692736 29.2598028,6.025376 C29.6309275,6.358016 29.8166302,6.856976 29.8166302,7.521976 L29.8166302,11.546976 L28.5212014,11.546976 L28.5212014,7.862246 C28.5059776,7.401156 28.4075489,7.066696 28.2257749,6.858656 C28.0439308,6.650896 27.7598696,6.546876 27.373521,6.546876 C27.1537226,6.546876 26.956795,6.586496 26.7825979,6.666016 C26.6082605,6.745326 26.4605121,6.855016 26.3394231,6.994736 C26.2181937,7.134736 26.1235533,7.299096 26.0553618,7.487956 C25.9871703,7.676956 25.9530745,7.877296 25.9530745,8.088906 L25.9530745,11.546976 L24.6576458,11.546976 L24.6576458,5.685176 Z" id="Fill-3" fill="#404140"></path>
            <path d="M31.8278315,9.664851 C31.8656455,10.042921 32.0096756,10.307451 32.2596411,10.458511 C32.5096066,10.609851 32.8088215,10.685311 33.157356,10.685311 C33.2784451,10.685311 33.4167224,10.675931 33.5721177,10.657031 C33.7273026,10.638201 33.8732268,10.602291 34.0096099,10.549231 C34.1459228,10.496451 34.257611,10.418891 34.3448148,10.316831 C34.4318783,10.214771 34.4716567,10.080651 34.46415,9.914331 C34.456503,9.748081 34.3959585,9.612071 34.2823059,9.506091 C34.1686533,9.400391 34.0227992,9.315411 33.8448137,9.251011 C33.666758,9.186891 33.4641478,9.132011 33.2369128,9.086651 C33.0096077,9.041291 32.778444,8.992291 32.5437023,8.939231 C32.3012435,8.886451 32.0681856,8.822191 31.8448794,8.746451 C31.6212925,8.670991 31.4205063,8.569071 31.242591,8.440411 C31.0645353,8.311891 30.9224696,8.147531 30.816464,7.947191 C30.7103182,7.746991 30.6574206,7.499261 30.6574206,7.204491 C30.6574206,6.886971 30.735013,6.620691 30.8903382,6.405231 C31.0455231,6.189701 31.242591,6.015891 31.4812614,5.883661 C31.7198616,5.751501 31.9849807,5.658821 32.276689,5.605971 C32.5682569,5.552981 32.8466355,5.526451 33.111895,5.526451 C33.4148282,5.526451 33.7045019,5.558721 33.9811968,5.622771 C34.257611,5.687171 34.5076467,5.791191 34.7311634,5.934621 C34.9545398,6.078331 35.1402424,6.265371 35.2880609,6.495811 C35.4356689,6.726461 35.528415,7.004221 35.5664395,7.329231 L34.2141144,7.329231 C34.1533594,7.019411 34.011434,6.811581 33.7879874,6.705671 C33.5644707,6.599901 33.3087524,6.546911 33.0209729,6.546911 C32.9300509,6.546911 32.8221511,6.554541 32.6971333,6.569591 C32.5721155,6.584851 32.4546043,6.613131 32.3448805,6.654571 C32.2349462,6.696291 32.1420598,6.756771 32.0664317,6.836011 C31.9906634,6.915391 31.9528493,7.019411 31.9528493,7.147931 C31.9528493,7.306551 32.0077112,7.435141 32.1175754,7.533351 C32.2272992,7.631631 32.3713293,7.712901 32.549385,7.777091 C32.7273003,7.841421 32.9300509,7.896091 33.157356,7.941451 C33.384591,7.986811 33.6194028,8.036021 33.8618616,8.088871 C34.0966032,8.141861 34.3277669,8.206191 34.555072,8.281651 C34.7823772,8.357251 34.9848471,8.459241 35.1630431,8.587831 C35.3408883,8.716351 35.4848482,8.878821 35.5948527,9.075311 C35.7045063,9.272011 35.7595086,9.513791 35.7595086,9.800931 C35.7595086,10.148691 35.6800921,10.443531 35.5209084,10.685311 C35.3618649,10.927371 35.1553259,11.123791 34.9016422,11.274851 C34.647748,11.426191 34.365581,11.535741 34.0550709,11.603711 C33.7443504,11.671751 33.4374885,11.705771 33.1346255,11.705771 C32.7633605,11.705771 32.4205086,11.664121 32.1062101,11.581031 C31.7917714,11.497941 31.5190754,11.371311 31.288052,11.201211 C31.0568883,11.031181 30.8750442,10.819571 30.74266,10.566311 C30.6099952,10.313051 30.5398393,10.012611 30.5324028,9.664851 L31.8278315,9.664851 Z" id="Fill-5" fill="#404140"></path>
            <path d="M41.4107208,11.54699 L40.1380226,11.54699 L40.1380226,10.73065 L40.1152921,10.73065 C39.9562487,11.02556 39.7194023,11.26181 39.4051039,11.43933 C39.0906651,11.61678 38.7704736,11.70582 38.4449502,11.70582 C37.672183,11.70582 37.1133912,11.51493 36.7687854,11.13322 C36.4239692,10.75158 36.2517364,10.17513 36.2517364,9.40415 L36.2517364,5.68519 L37.5472353,5.68519 L37.5472353,9.27941 C37.5472353,9.79349 37.6455237,10.15637 37.8426618,10.36777 C38.0395193,10.57959 38.3160037,10.68529 38.672115,10.68529 C38.9449513,10.68529 39.1721863,10.64385 39.3540304,10.56055 C39.5357342,10.4776 39.6834825,10.36609 39.7971351,10.22609 C39.9107175,10.08637 39.9920282,9.91823 40.0414179,9.72153 C40.0906674,9.52511 40.1152921,9.31343 40.1152921,9.0867 L40.1152921,5.68519 L41.4107208,5.68519 L41.4107208,11.54699 Z" id="Fill-7" fill="#404140"></path>
            <path d="M42.0796644,5.685176 L43.2955363,5.685176 L43.2955363,6.819036 L43.3182668,6.819036 C43.3560808,6.660276 43.429955,6.505436 43.5398893,6.354096 C43.6496833,6.203036 43.782278,6.064996 43.9376031,5.940326 C44.0927178,5.815656 44.265161,5.715416 44.4547223,5.639816 C44.6439327,5.564496 44.8371421,5.526416 45.0341399,5.526416 C45.1856065,5.526416 45.2899283,5.530336 45.3466143,5.537896 C45.4035107,5.545456 45.4620909,5.553016 45.5227757,5.560576 L45.5227757,6.807696 C45.4318537,6.792576 45.3390374,6.779416 45.2443971,6.767936 C45.1496165,6.756736 45.0569405,6.750996 44.9660185,6.750996 C44.74622,6.750996 44.5398214,6.794536 44.3466822,6.881336 C44.153543,6.968416 43.984818,7.096796 43.8409984,7.266966 C43.6970385,7.436996 43.5834561,7.646716 43.5001109,7.896126 C43.4166955,8.145536 43.3750931,8.432956 43.3750931,8.757826 L43.3750931,11.546976 L42.0796644,11.546976 L42.0796644,5.685176 Z" id="Fill-9" fill="#404140"></path>
            <polygon id="Fill-11" fill="#404140" points="45.9248111 5.60581 47.3338223 5.60581 48.8225305 10.10716 48.8451909 10.10716 50.2769325 5.60581 51.6178223 5.60581 49.5156708 11.46761 48.0611285 11.46761"></polygon>
            <path d="M57.1175609,5.685176 L58.5380075,5.685176 L60.0720364,10.061716 L60.0948371,10.061716 L61.583405,5.685176 L62.93566,5.685176 L60.6515943,11.864496 C60.5454484,12.129026 60.4414072,12.382146 60.3391199,12.624206 C60.2368326,12.865986 60.111885,13.079486 59.9640665,13.264706 C59.8163883,13.449926 59.63265,13.597346 59.4129919,13.706966 C59.1931934,13.816446 58.9130609,13.871326 58.5720331,13.871326 L57.6743883,13.871326 L57.6743883,12.759026 L58.3232602,12.759026 C58.4747268,12.759026 58.5450932,12.761266 58.6629551,12.737606 C58.7663649,12.716816 58.842905,12.644926 58.9073783,12.573036 C58.9715709,12.501146 59.0266433,12.416166 59.0720342,12.318026 C59.1175609,12.219746 59.1590977,12.106276 59.1971222,11.977826 L59.3448003,11.524366 L57.1175609,5.685176 Z" id="Fill-13" fill="#404140"></path>
            <path d="M23.9133688,7.675052 C23.8034345,7.263102 23.6272731,6.898402 23.3849546,6.580952 C23.1424256,6.263362 22.8375281,6.008282 22.4701918,5.815712 C22.102645,5.622792 21.6878833,5.526472 21.2259067,5.526472 C20.7864501,5.526472 20.3924546,5.609702 20.0441305,5.775952 C19.6955258,5.942272 19.3982051,6.167112 19.1520281,6.450472 C18.905851,6.734042 18.7163599,7.062832 18.5839056,7.437052 C18.4513109,7.811062 18.3850136,8.206212 18.3850136,8.621802 C18.3850136,9.075332 18.4475225,9.491062 18.5726105,9.868992 C18.697488,10.247062 18.8830503,10.571932 19.1293677,10.844022 C19.3754746,11.116252 19.6765837,11.327932 20.0327653,11.478992 C20.3887363,11.630052 20.7978154,11.705792 21.2600024,11.705792 C21.5781595,11.705792 21.883057,11.662112 22.1747653,11.575312 C22.466263,11.488582 22.7295581,11.359992 22.9645102,11.189892 C23.1991817,11.019792 23.4000381,10.810072 23.5667285,10.560592 C23.7332786,10.311252 23.8508599,10.027682 23.9190514,9.710232 L22.6918143,9.710232 C22.5781617,10.035312 22.4057185,10.279122 22.1747653,10.441522 C21.9435314,10.604272 21.638704,10.685332 21.2600024,10.685332 C20.9873065,10.685332 20.7523543,10.638222 20.5554969,10.543582 C20.3583588,10.449152 20.1955971,10.322452 20.0667909,10.163832 C19.9379145,10.005072 19.84138,9.819992 19.7771171,9.608172 C19.6952452,9.338392 19.6760927,9.058532 19.6617107,8.778742 C19.6396817,8.348452 19.6413655,7.891492 19.8111428,7.487942 C19.8906996,7.299082 19.9967051,7.134722 20.1292998,6.994792 C20.2618243,6.855002 20.4208677,6.745312 20.6066405,6.666002 C20.7921327,6.586552 20.9986717,6.546862 21.2259067,6.546862 C21.4455648,6.546862 21.6443866,6.590402 21.8225125,6.677272 C22.0003577,6.764282 22.1520347,6.877682 22.2770526,7.017402 C22.4020002,7.157402 22.5003588,7.321762 22.5724791,7.510622 C22.6443889,7.699692 22.6878855,7.896112 22.7031795,8.100162 L19.7731183,8.100162 L20.5448332,8.950592 L23.9985381,8.950592 C24.0514356,8.512322 24.0230225,8.087212 23.9133688,7.675052" id="Fill-15" fill="#404140"></path>
            <path d="M57.0811781,7.675052 C56.9712438,7.263102 56.7950823,6.898402 56.5527638,6.580952 C56.3102349,6.263362 56.0053373,6.008282 55.638001,5.815712 C55.2703841,5.622792 54.8556925,5.526472 54.3936458,5.526472 C53.9542594,5.526472 53.5601937,5.609702 53.2119398,5.775952 C52.8634052,5.942272 52.5660144,6.167112 52.3199075,6.450472 C52.0735901,6.734042 51.8841692,7.062832 51.7517148,7.437052 C51.6191202,7.811062 51.5528228,8.206212 51.5528228,8.621802 C51.5528228,9.075332 51.6154019,9.491062 51.7403496,9.868992 C51.8652972,10.247062 52.0509297,10.571932 52.2971769,10.844022 C52.5432137,11.116252 52.8443228,11.327932 53.2005745,11.478992 C53.5565455,11.630052 53.9656246,11.705792 54.4278117,11.705792 C54.7459687,11.705792 55.0508663,11.662112 55.3425745,11.575312 C55.6340723,11.488582 55.8973674,11.359992 56.1323195,11.189892 C56.366991,11.019792 56.5678473,10.810072 56.7345378,10.560592 C56.9010879,10.311252 57.018599,10.027682 57.0868607,9.710232 L55.8596235,9.710232 C55.7459709,10.035312 55.5735277,10.279122 55.3425745,10.441522 C55.1113406,10.604272 54.8065133,10.685332 54.4278117,10.685332 C54.1551157,10.685332 53.9200934,10.638222 53.7233061,10.543582 C53.526168,10.449152 53.3634063,10.322452 53.2346703,10.163832 C53.1057237,10.005072 53.0091892,9.819992 52.9448562,9.608172 C52.8629843,9.338392 52.8439019,9.058532 52.8295199,8.778742 C52.807491,8.348452 52.8091046,7.891492 52.978952,7.487942 C53.0584386,7.299082 53.1645144,7.134722 53.297109,6.994792 C53.4296335,6.855002 53.5886769,6.745312 53.7743796,6.666002 C53.959942,6.586552 54.1664108,6.546862 54.3936458,6.546862 C54.6133039,6.546862 54.8121959,6.590402 54.9902516,6.677272 C55.1681669,6.764282 55.319844,6.877682 55.4448618,7.017402 C55.5698095,7.157402 55.668168,7.321762 55.7402883,7.510622 C55.8121981,7.699692 55.8556948,7.896112 55.8709888,8.100162 L52.9409275,8.100162 L53.7126424,8.950592 L57.1663473,8.950592 C57.2192449,8.512322 57.1908317,8.087212 57.0811781,7.675052" id="Fill-17" fill="#404140"></path>
            <path d="M11.1070754,7.374612 C10.9744106,6.996752 10.7812714,6.671672 10.5275175,6.399442 C10.2736233,6.127352 9.96311325,5.913922 9.59577695,5.758802 C9.49783931,5.717572 9.39597294,5.682222 9.29080924,5.651912 L8.34328363,6.547072 C8.62966002,6.547562 8.87864332,6.607972 9.09009321,6.728372 C9.30203419,6.849332 9.47644176,7.006062 9.61282483,7.198842 C9.74913775,7.391622 9.84946069,7.612682 9.91393396,7.862232 C9.97819677,8.111502 10.0105386,8.361052 10.0105386,8.610462 C10.0105386,8.867502 9.97819677,9.118872 9.91393396,9.364432 C9.84946069,9.610132 9.74913775,9.831332 9.61282483,10.027682 C9.47644176,10.224452 9.30203419,10.383072 9.09009321,10.503892 C8.8778716,10.624992 8.62790612,10.685332 8.34012661,10.685332 C8.05213664,10.685332 7.802101,10.624992 7.59016002,10.503892 C7.37793842,10.383072 7.20374131,10.224452 7.06735824,10.027682 C6.93104532,9.831332 6.83051192,9.610132 6.76624911,9.364432 C6.70184599,9.118872 6.66971459,8.867502 6.66971459,8.610462 C6.66971459,8.361052 6.70184599,8.111502 6.76624911,7.862232 C6.83051192,7.612682 6.93104532,7.391622 7.06735824,7.198842 C7.20374131,7.006062 7.37793842,6.849332 7.59016002,6.728372 C7.802101,6.607482 8.05213664,6.546862 8.34012661,6.546862 L8.34012661,5.526472 C7.87029254,5.526472 7.45174243,5.604032 7.08447628,5.758802 C6.71692951,5.913922 6.40641949,6.127352 6.15259543,6.399442 C5.89877138,6.671672 5.70556203,6.996752 5.57310768,7.374612 C5.44051303,7.752682 5.3742157,8.164562 5.3742157,8.610462 C5.3742157,9.063992 5.44051303,9.479722 5.57310768,9.857652 C5.70556203,10.235722 5.89877138,10.560592 6.15259543,10.832682 C6.40641949,11.104912 6.71692951,11.318552 7.08447628,11.473392 C7.45174243,11.628162 7.87029254,11.705792 8.34012661,11.705792 C8.80975022,11.705792 9.22823018,11.628162 9.59577695,11.473392 C9.96311325,11.318552 10.2736233,11.104912 10.5275175,10.832682 C10.7812714,10.560592 10.9744106,10.235722 11.1070754,9.857652 C11.2395297,9.479722 11.3059674,9.063992 11.3059674,8.610462 C11.3059674,8.164562 11.2395297,7.752682 11.1070754,7.374612" id="Fill-19" fill="#404140"></path>
            <g id="Group-23" transform="translate(0.000000, 1.820000)">
                <mask id="mask-2" fill="white">
                    <use xlink:href="#path-1"></use>
                </mask>
                <g id="Clip-22"></g>
                <path d="M1.47170245,2.815519 C1.47170245,2.177469 1.66147416,1.584009 1.98678708,1.086869 L0.930309354,0.032739 C0.346331626,0.807709 -2.80623608e-05,1.771189 -2.80623608e-05,2.815519 C-2.80623608e-05,5.375629 2.08002428,7.451059 4.64583608,7.451059 L4.64583608,5.982529 C2.8927804,5.982529 1.47170245,4.564609 1.47170245,2.815519" id="Fill-21" fill="#2496FE" mask="url(#mask-2)"></path>
            </g>
            <path d="M5.27570278,0.043582 L5.27570278,1.531082 C6.72694777,1.822632 7.81997673,3.101602 7.81997673,4.635512 L9.29163708,4.635512 C9.29163708,2.288692 7.54342216,0.350462 5.27570278,0.043582" id="Fill-24" fill="#79D65B"></path>
            <path d="M4.6458431,0 C3.36290212,0 2.20147116,0.51884 1.36072283,1.35772 L2.40141548,2.39603 C2.97578185,1.82294 3.76931526,1.46846 4.6458431,1.46846 L4.6458431,0 Z" id="Fill-26" fill="#FFDC50"></path>
        </g>
    </g>
</svg>