<?xml version="1.0" encoding="UTF-8"?>
<svg width="100px" height="60px" viewBox="0 0 100 60" version="1.1" xmlns="http://www.w3.org/2000/svg" xmlns:xlink="http://www.w3.org/1999/xlink">
    <!-- Generator: Sketch 55.2 (78181) - https://sketchapp.com -->
    <title>logo/pagoda</title>
    <desc>Created with Sketch.</desc>
    <g id="logo/pagoda" stroke="none" stroke-width="1" fill="none" fill-rule="evenodd">
        <g transform="translate(13.000000, 26.000000)" id="Combined-Shape">
            <path d="M34.4154,4.32933333 C34.4154,5.09216667 34.4137333,5.85483333 34.4160667,6.6175 C34.4172333,7.01283333 34.6145667,7.28616667 34.9634,7.45333333 C35.2677333,7.59933333 35.5924,7.59133333 35.9099,7.52683333 C36.7692333,7.35216667 37.2267333,6.7495 37.4910667,5.972 C37.7840667,5.1105 37.7695667,4.229 37.6019,3.34533333 C37.5039,2.828 37.3214,2.3455 36.9555667,1.95483333 C36.4295667,1.39283333 35.7654,1.295 35.0495667,1.4355 C34.5462333,1.53416667 34.4155667,1.715 34.4154,2.22983333 C34.4150667,2.92983333 34.4152333,3.62966667 34.4154,4.32933333 Z M31.6780667,8.4855 L31.6780667,8.17633333 C31.7662333,8.14333333 31.8472333,8.11633333 31.9257333,8.083 C32.3339,7.90933333 32.5764,7.59733333 32.5792333,7.158 C32.5909,5.37983333 32.5877333,3.6015 32.5815667,1.82333333 C32.5799,1.33566667 32.2817333,1.01316667 31.6832333,0.817 L31.6832333,0.473 L31.9664,0.473 L36.1680667,0.473 C37.8755667,0.473 39.1525667,1.4455 39.5767333,3.09816667 C39.8864,4.30466667 39.8285667,5.48416667 39.1979,6.591 C38.5022333,7.8115 37.4379,8.457 36.0409,8.49033333 C34.6490667,8.5235 33.2557333,8.49883333 31.8630667,8.49883333 C31.8094,8.49883333 31.7557333,8.49133333 31.6780667,8.4855 Z M29.5966333,4.43106667 C29.5359667,3.94106667 29.4994667,3.4464 29.4084667,2.96206667 C29.2979667,2.37456667 29.0694667,1.83056667 28.6214667,1.40973333 C27.8163,0.6534 26.1471333,0.677566667 25.4928,2.1349 C25.2379667,2.7024 25.1294667,3.30156667 25.0914667,3.91623333 C25.0348,4.83406667 25.0871333,5.74106667 25.4393,6.6039 C25.8816333,7.68773333 26.7604667,8.1249 27.8401333,7.87973333 C28.5583,7.71673333 28.9636333,7.1914 29.2216333,6.54123333 C29.4896333,5.86606667 29.5534667,5.1549 29.5966333,4.43106667 Z M27.3019667,8.88273333 C25.1123,8.8694 23.4973,7.4814 23.1764667,5.3049 C22.9809667,3.97756667 23.1521333,2.7144 23.9609667,1.60073333 C24.6478,0.6549 25.6059667,0.176066667 26.7551333,0.0367333333 C27.4713,-0.0501 28.1703,0.0150666667 28.8454667,0.253066667 C29.9179667,0.631066667 30.6976333,1.34906667 31.1279667,2.4019 C31.7064667,3.8164 31.7041333,5.24773333 31.0499667,6.63373333 C30.4261333,7.9554 29.3303,8.65706667 27.8881333,8.82906667 C27.6933,8.85223333 27.4973,8.86506667 27.3019667,8.88273333 Z M22.0394167,8.60635 C21.8174167,8.54768333 21.6309167,8.52768333 21.4724167,8.45018333 C21.22175,8.32718333 20.9714167,8.32918333 20.71425,8.38085 C19.9190833,8.54101667 19.11975,8.67285 18.30575,8.63151667 C16.2159167,8.52551667 14.73275,7.19735 14.4850833,5.12718333 C14.3520833,4.01518333 14.4565833,2.94118333 15.0499167,1.96318333 C15.67225,0.93685 16.6060833,0.36935 17.78125,0.185183333 C18.6385833,0.0506833333 19.47025,0.181516667 20.28925,0.43985 C20.46825,0.49635 20.6519167,0.54135 20.8364167,0.57735 C21.1654167,0.641683333 21.3504167,0.558183333 21.4849167,0.258183333 C21.56425,0.0816833333 21.6824167,0.03235 21.8820833,0.05385 C21.9640833,0.900183333 22.0464167,1.74785 22.1310833,2.62218333 C22.01925,2.64568333 21.90875,2.66885 21.8464167,2.68201667 C21.5675833,2.36951667 21.3409167,2.06501667 21.0644167,1.81535 C20.28925,1.11501667 18.5474167,0.89785 17.6429167,1.58718333 C17.01925,2.06235 16.6850833,2.70085 16.5509167,3.45285 C16.37175,4.45868333 16.4234167,5.44601667 16.9009167,6.37118333 C17.25475,7.05685 17.8104167,7.50935 18.5774167,7.66651667 C18.9454167,7.74201667 19.3129167,7.70868333 19.6680833,7.58018333 C20.1434167,7.40801667 20.3574167,7.02951667 20.3754167,6.56151667 C20.3889167,6.20585 20.3500833,5.83701667 20.26575,5.49085 C20.1410833,4.97935 19.8810833,4.76885 19.3075833,4.60335 L19.3075833,4.29685 L22.5035833,4.29685 L22.5035833,4.61001667 C22.1324167,4.76801667 22.03275,5.07235 22.0364167,5.45101667 C22.0454167,6.38751667 22.0394167,7.32435 22.0394167,8.26101667 L22.0394167,8.60635 Z M2.7274,4.28311667 C3.2839,4.28311667 3.8024,4.30528333 4.31756667,4.27295 C4.55156667,4.25845 4.79806667,4.17061667 5.00523333,4.05545 C5.51023333,3.77495 5.73056667,3.11095 5.5834,2.46328333 C5.4829,2.02111667 5.23656667,1.68611667 4.8044,1.56911667 C4.44023333,1.47045 4.04373333,1.40211667 3.6724,1.43711667 C2.8489,1.51445 2.7274,1.68828333 2.7274,2.51645 L2.7274,4.28311667 Z M6.66666666e-05,0.807116667 L6.66666666e-05,0.473116667 L0.2544,0.473116667 C1.8124,0.473116667 3.37056667,0.460283333 4.92856667,0.478116667 C5.76623333,0.487616667 6.52623333,0.741116667 7.09973333,1.39195 C7.92073333,2.32361667 7.95406667,4.12961667 6.3549,4.88345 C5.8639,5.11478333 5.3454,5.22945 4.8044,5.23411667 C4.20656667,5.23945 3.6084,5.23561667 3.0104,5.23561667 L2.7274,5.23561667 C2.7274,5.49161667 2.7274,5.71728333 2.7274,5.94328333 C2.7274,6.28161667 2.72273333,6.61995 2.72873333,6.95828333 C2.7399,7.57911667 3.00856667,8.01128333 3.6524,8.16111667 L3.6524,8.48278333 L0.00956666667,8.48278333 L0.00956666667,8.17745 C0.0464,8.16161667 0.0875666667,8.13978333 0.131233333,8.12595 C0.6324,7.96778333 0.9239,7.60278333 0.925733333,7.08078333 C0.9319,5.35745 0.931733333,3.63411667 0.926233333,1.91095 C0.9244,1.36061667 0.6439,1.03778333 6.66666666e-05,0.807116667 Z M42.0522,5.31925 L44.1798667,5.31925 C43.8435333,4.43508333 43.5177,3.57908333 43.1918667,2.72291667 C43.1685333,2.72325 43.1450333,2.72375 43.1215333,2.72408333 C42.7687,3.58025 42.4158667,4.43675 42.0522,5.31925 Z M47.9653667,8.15641667 L47.9653667,8.48591667 L44.1712,8.48591667 L44.1712,8.18541667 C44.2927,8.14858333 44.4222,8.11991667 44.5432,8.07058333 C44.8993667,7.92508333 45.0400333,7.63075 44.9157,7.26908333 C44.7960333,6.92125 44.6578667,6.57991667 44.5278667,6.23575 L41.6643667,6.23575 C41.5382,6.57308333 41.3873667,6.91041667 41.2878667,7.26191667 C41.2033667,7.56008333 41.4112,7.87291667 41.7535333,8.02291667 C41.9097,8.09125 42.0785333,8.13058333 42.2493667,8.18558333 L42.2493667,8.48241667 L39.0213667,8.48241667 L39.0213667,8.18858333 C39.0278667,8.18208333 39.0367,8.16375 39.0490333,8.16091667 C39.7530333,7.99508333 40.1423667,7.51025 40.4093667,6.87225 C41.0977,5.22725 41.8040333,3.58958333 42.5018667,1.94858333 C42.7828667,1.28758333 42.5833667,0.933416667 41.8565333,0.82325 L41.8565333,0.489416667 L44.2380333,0.489416667 C44.3308667,0.726916667 44.4312,0.98025 44.5288667,1.23441667 C45.2725333,3.17025 46.0202,5.10458333 46.7562,7.04341667 C46.9758667,7.62241667 47.2868667,8.08325 47.9653667,8.15641667 Z M11.1776833,5.32185 C10.8400167,4.43385 10.5125167,3.57268333 10.1851833,2.71135 C10.1655167,2.70935 10.1460167,2.70735 10.1261833,2.70551667 C9.77018333,3.56968333 9.41401667,4.43385 9.04801667,5.32185 L11.1776833,5.32185 Z M14.9610167,8.18485 L14.9610167,8.48418333 L11.1801833,8.48418333 C11.1751833,8.38918333 11.1705167,8.29951667 11.1645167,8.18718333 C11.25335,8.16285 11.33385,8.14101667 11.41435,8.11835 C11.87985,7.98818333 12.0565167,7.65085 11.8905167,7.19601667 C11.7750167,6.87985 11.6505167,6.56701667 11.52635,6.24268333 L8.66518333,6.24268333 C8.54501667,6.54651667 8.40018333,6.85285 8.30351667,7.17351667 C8.20301667,7.50718333 8.33785,7.79801667 8.65168333,7.96801667 C8.82868333,8.06385 9.02885,8.11735 9.24168333,8.19901667 L9.24168333,8.48451667 L5.99918333,8.48451667 L5.99918333,8.19418333 C6.01018333,8.18385 6.01968333,8.16685 6.03218333,8.16401667 C6.74485,7.99885 7.14035,7.51051667 7.41018333,6.86451667 C8.09468333,5.22651667 8.78018333,3.58851667 9.49918333,1.96535 C9.79751667,1.29218333 9.50918333,0.899183333 8.84201667,0.82185 L8.84201667,0.48935 L11.2370167,0.48935 C11.46635,1.08118333 11.6996833,1.67968333 11.93035,2.27951667 C12.5561833,3.90651667 13.1790167,5.53451667 13.8065167,7.16068333 C14.0421833,7.77118333 14.1956833,7.90301667 14.9610167,8.18485 Z" fill="#D2373B"></path>
            <path d="M52.8599,3.6153 C52.8345667,3.21946667 52.7827333,2.81663333 52.6307333,2.44713333 C52.5087333,2.15013333 52.3000667,1.80096667 51.9704,1.71613333 C51.2354,1.52713333 50.8477333,2.3443 50.7135667,2.93013333 C50.5472333,3.6563 50.6360667,4.47696667 51.0407333,5.11246667 C51.0565667,5.13696667 51.0725667,5.16113333 51.0892333,5.18513333 C51.4347333,5.68313333 52.0510667,5.68146667 52.4044,5.1943 C52.7435667,4.72646667 52.8310667,4.19463333 52.8599,3.6153 Z M54.1104,2.78363333 L55.0764,2.78363333 L55.0764,2.33546667 C55.0764,2.33546667 55.0755667,1.64296667 55.0750667,1.2968 C55.0744,0.902466667 55.0075667,0.8153 54.6187333,0.7178 L54.6187333,0.492466667 L56.4314,0.492466667 C56.4314,0.492466667 56.4325667,5.49246667 56.4317333,7.86113333 C56.4315667,8.1448 56.1794,8.31963333 55.9945667,8.4098 C55.8905667,8.4603 55.7767333,8.4858 55.6612333,8.4858 L55.0847333,8.4858 L55.0847333,3.60546667 L54.2454,3.60546667 C54.2042333,4.07763333 54.1429,4.3523 54.0139,4.7003 C53.4980667,6.09163333 51.9392333,6.73196667 50.6887333,6.06613333 C49.9014,5.64696667 49.4699,4.95613333 49.3115667,4.09213333 C49.1499,3.20896667 49.3840667,2.41163333 49.9584,1.74396667 C50.8190667,0.743633333 52.2327333,0.583633333 53.2582333,1.46946667 C53.6169,1.77913333 53.8795667,2.1483 54.0460667,2.58963333 C54.0707333,2.65463333 54.0942333,2.7168 54.1104,2.78363333 Z M65.0214333,5.44685 C65.0214333,5.44685 65.0247667,7.26985 65.0214333,7.91468333 C65.0194333,8.28801667 64.8229333,8.48218333 64.4544333,8.48518333 C64.2046,8.48735 63.6721,8.48568333 63.6721,8.48568333 L63.6721,6.22885 L58.6842667,6.22885 L58.6842667,5.44685 L65.0214333,5.44685 Z M63.1941167,0.714916667 L63.1941167,0.47925 L65.0212833,0.47925 L65.0212833,2.45041667 L66.03545,2.45041667 L66.03545,3.24191667 L65.02145,3.24191667 L65.02145,3.91658333 C65.02145,3.91658333 65.0261167,4.29458333 65.0192833,4.48325 C65.0097833,4.75041667 64.82995,4.96775 64.5782833,4.98325 C64.28945,5.00141667 63.6721167,4.98758333 63.6721167,4.98758333 L63.6721167,4.69475 C63.6721167,4.69475 63.6731167,2.42758333 63.67095,1.29408333 C63.6701167,0.896083333 63.5997833,0.81025 63.1941167,0.714916667 Z M69.5059667,7.68496667 L74.3101333,7.68496667 L74.3101333,8.48413333 C74.3101333,8.48413333 70.5589667,8.48463333 68.8128,8.4843 C68.3453,8.4843 68.1598,8.29713333 68.1596333,7.8283 C68.1594667,7.56096667 68.1609667,7.29346667 68.1591333,7.02613333 C68.1561333,6.61463333 68.0953,6.53513333 67.6909667,6.4243 L67.6909667,6.2103 L69.5059667,6.2103 L69.5059667,7.68496667 Z M68.9083167,1.52366667 C68.53415,1.9795 68.5724833,2.8935 68.9834833,3.3135 C69.1763167,3.5105 69.4089833,3.607 69.6344833,3.60733333 C69.8599833,3.607 70.0924833,3.5105 70.2854833,3.3135 C70.6964833,2.8935 70.7348167,1.9795 70.36065,1.52366667 C70.1458167,1.262 69.8903167,1.13666667 69.6344833,1.147 C69.37865,1.13666667 69.12315,1.262 68.9083167,1.52366667 Z M69.09915,5.79633333 L69.09915,4.855 L67.03365,4.855 L67.03365,4.02166667 L68.2623167,4.02166667 L68.36865,4.02166667 C68.06165,3.89 67.8609833,3.68016667 67.7294833,3.51983333 C67.08015,2.72716667 67.16115,1.6805 67.9524833,0.9905 C68.4588167,0.548666667 69.0439833,0.340666667 69.6344833,0.352166667 C70.2248167,0.340666667 70.81015,0.548666667 71.3164833,0.9905 C72.1078167,1.6805 72.1888167,2.72716667 71.5394833,3.51983333 C71.4079833,3.68016667 71.2073167,3.89 70.9003167,4.02166667 L71.49665,4.02166667 L72.8333167,4.02166667 L72.8333167,1.16783333 C72.8319833,0.898166667 72.7348167,0.811 72.3758167,0.713666667 L72.3758167,0.493666667 L74.1849833,0.493666667 C74.1849833,0.493666667 74.1854833,4.53833333 74.1849833,6.42716667 C74.1848167,6.8745 74.0069833,7.05833333 73.56265,7.06683333 C73.33515,7.071 72.8333167,7.0675 72.8333167,7.0675 L72.8333167,6.2825 L71.5274833,6.2825 L71.5274833,5.48516667 L72.8333167,5.48516667 L72.8333167,4.8645 L70.4013167,4.8645 C70.4013167,4.8645 70.40515,5.12066667 70.4004833,5.24333333 C70.38715,5.604 70.1953167,5.79216667 69.83815,5.79583333 C69.6038167,5.798 69.09915,5.79633333 69.09915,5.79633333 Z M60.4983167,4.21068333 C61.09315,4.20851667 61.50115,3.76518333 61.4998199,3.12135 C61.4984833,2.48535 61.0979833,2.06101667 60.4983167,2.06018333 C59.8984833,2.06101667 59.49815,2.48535 59.4968134,3.12135 C59.4954833,3.76518333 59.9034833,4.20851667 60.4983167,4.21068333 Z M63.15465,1.08001667 L63.15465,1.87118333 L62.1904833,1.87118333 C62.2864833,1.96968333 62.34015,2.04268333 62.3843167,2.09685 C63.0219833,2.87885 62.86715,3.82668333 62.10115,4.44135 C61.6378167,4.81318333 61.06915,4.99635 60.4983167,4.9946946 C59.9273167,4.99635 59.3588167,4.81318333 58.8953167,4.44135 C58.1294833,3.82668333 57.9744833,2.87885 58.61215,2.09685 C58.6563167,2.04268333 58.7099833,1.96968333 58.8059833,1.87118333 L57.8419833,1.87118333 L57.8419833,1.08001667 L59.84465,1.08001667 L59.84465,0.264683333 L61.1518167,0.264683333 L61.1518167,1.08001667 L63.15465,1.08001667 Z" fill="#7C7D80"></path>
        </g>
    </g>
</svg>