<?xml version="1.0" encoding="UTF-8"?>
<svg width="100px" height="60px" viewBox="0 0 100 60" version="1.1" xmlns="http://www.w3.org/2000/svg" xmlns:xlink="http://www.w3.org/1999/xlink">
    <!-- Generator: Sketch 55.2 (78181) - https://sketchapp.com -->
    <title>logo/parkingcloud</title>
    <desc>Created with Sketch.</desc>
    <defs>
        <polygon id="path-1" points="0 0 12.97638 0 12.97638 11.999988 0 11.999988"></polygon>
        <polygon id="path-3" points="0 12 72 12 72 0 0 0"></polygon>
    </defs>
    <g id="logo/parkingcloud" stroke="none" stroke-width="1" fill="none" fill-rule="evenodd">
        <g transform="translate(14.000000, 24.000000)">
            <g id="Group-3">
                <mask id="mask-2" fill="white">
                    <use xlink:href="#path-1"></use>
                </mask>
                <g id="Clip-2"></g>
                <path d="M0,0.441708 L0,11.558328 C0,11.802228 0.19776,11.999988 0.44172,11.999988 L8.64156,11.999988 C9.28086,11.999988 9.87144,11.658348 10.19016,11.104128 L12.8475,6.482568 C13.01934,6.183828 13.01934,5.816208 12.8475,5.517408 L10.19016,0.895908 C9.87144,0.341688 9.28086,-1.2e-05 8.64156,-1.2e-05 L0.44172,-1.2e-05 C0.19776,-1.2e-05 0,0.197748 0,0.441708" id="Fill-1" fill="#EF3F38" mask="url(#mask-2)"></path>
            </g>
            <mask id="mask-4" fill="white">
                <use xlink:href="#path-3"></use>
            </mask>
            <g id="Clip-5"></g>
            <polygon id="Fill-4" fill="#EF3F38" mask="url(#mask-4)" points="17.2071 9.1821 18.25824 9.1821 18.25824 5.02692 17.2071 5.02692"></polygon>
            <polygon id="Fill-6" fill="#EF3F38" mask="url(#mask-4)" points="51.63126 9.1821 52.6824 9.1821 52.6824 2.95746 51.63126 2.95746"></polygon>
            <path d="M17.732634,2.776848 C17.342634,2.776848 17.026434,3.093048 17.026434,3.483108 C17.026434,3.873108 17.342634,4.189308 17.732634,4.189308 C18.122694,4.189308 18.438894,3.873108 18.438894,3.483108 C18.438894,3.093048 18.122694,2.776848 17.732634,2.776848" id="Fill-7" fill="#EF3F38" mask="url(#mask-4)"></path>
            <path d="M31.801404,6.86637 L32.514024,5.15829 L33.226644,6.86637 L31.801404,6.86637 Z M32.164824,3.22341 L29.492064,9.18213 L30.822384,9.18213 L31.361244,7.91751 L33.666804,7.91751 L34.205664,9.18213 L35.535984,9.18213 L32.743944,2.95749 L32.575524,2.95749 C32.398164,2.95749 32.237364,3.06159 32.164824,3.22341 L32.164824,3.22341 Z" id="Fill-8" fill="#EF3F38" mask="url(#mask-4)"></path>
            <path d="M26.420712,3.04257 C26.071932,3.04713 24.318552,3.03963 24.318552,3.03963 L24.318552,9.18213 L25.369692,9.18213 L25.369692,4.17285 C25.435392,4.16469 25.566792,4.15647 25.829532,4.15647 C26.355132,4.15647 27.439092,4.10301 27.439092,5.03913 C27.439092,5.62569 26.609532,5.80383 26.135532,5.85771 C25.951572,5.87859 25.813152,6.03279 25.813152,6.21789 L25.813152,6.83349 C27.307692,6.83349 28.490232,6.16011 28.490232,4.87905 C28.490232,3.67719 27.549792,3.02787 26.420712,3.04257" id="Fill-9" fill="#EF3F38" mask="url(#mask-4)"></path>
            <path d="M38.771484,5.441604 L38.771484,4.090704 L39.411984,4.090704 C39.937584,4.090704 40.717704,4.172844 40.717704,4.764084 C40.717704,5.293764 40.115064,5.441604 39.953964,5.441604 L38.771484,5.441604 Z M41.891964,4.713204 C41.891964,3.815664 40.951584,3.027864 39.822504,3.042564 C39.473664,3.047124 37.720344,3.039624 37.720344,3.039624 L37.720344,9.182124 L38.771484,9.182124 L38.771484,6.286824 L38.833584,6.286824 L41.432124,9.182124 L42.908844,9.182124 L40.288764,6.235764 C41.237964,6.033324 41.891964,5.534184 41.891964,4.713204 L41.891964,4.713204 Z" id="Fill-10" fill="#EF3F38" mask="url(#mask-4)"></path>
            <polygon id="Fill-11" fill="#EF3F38" mask="url(#mask-4)" points="49.873944 9.182112 46.934064 5.897352 46.741824 5.897352 49.373004 2.957472 48.009864 2.957472 45.882924 5.340972 45.882924 2.957472 44.831844 2.957472 44.831844 9.182112 45.882924 9.182112 45.882924 6.356892 48.404004 9.182112"></polygon>
            <polygon id="Fill-12" fill="#EF3F38" mask="url(#mask-4)" points="59.695314 7.27113 56.341134 2.95749 55.408734 2.95749 55.408734 9.18213 56.459814 9.18213 56.459814 5.05287 56.459514 5.04717 59.818554 9.18213 60.746454 9.18213 60.746454 2.95749 59.695314 2.95749"></polygon>
            <path d="M65.895294,6.422874 L67.447314,6.422874 L67.447314,7.474374 C67.355154,7.664874 67.000074,8.237754 66.067734,8.237754 C65.458014,8.237754 64.383894,8.059914 64.039134,6.868854 C63.774714,5.954694 64.083234,4.714854 65.057094,4.222434 C65.807754,3.842874 66.786954,3.950394 67.492974,4.490334 L68.091534,3.707574 C67.091634,2.942874 65.693634,2.796714 64.612494,3.343014 C63.309894,4.001574 62.656494,5.635134 63.092634,7.142694 C63.469434,8.445414 64.581714,9.223194 66.067734,9.223194 C67.877874,9.223194 68.385834,7.792254 68.406414,7.731414 L68.432754,7.654134 L68.432754,5.437494 L65.895294,5.437494 L65.895294,6.422874 Z" id="Fill-13" fill="#EF3F38" mask="url(#mask-4)"></path>
            <polygon id="Fill-14" fill="#EF3F38" mask="url(#mask-4)" points="69.419298 3.048576 69.824418 3.048576 69.824418 4.273716 69.977358 4.273716 69.977358 3.048576 70.382238 3.048576 70.382238 2.895576 69.419298 2.895576"></polygon>
            <path d="M71.803068,2.895558 L71.376828,3.846078 C71.366808,3.880038 71.332728,3.946338 71.311548,4.021698 L71.299008,4.021698 C71.290188,3.977718 71.267688,3.933858 71.236308,3.858738 L70.809948,2.895678 L70.589328,2.895678 L70.589328,4.275018 L70.743468,4.275018 L70.743468,3.354618 L70.752228,3.353298 C70.752228,3.234078 70.752228,3.136278 70.743468,3.081258 C70.753548,3.146358 70.776108,3.190338 70.786128,3.222918 L71.256468,4.273698 L71.331648,4.273698 L71.803068,3.212778 C71.815728,3.180258 71.825748,3.137538 71.846988,3.081258 C71.836908,3.190338 71.836908,3.277938 71.836908,3.344478 L71.836908,4.272498 L71.999988,4.272498 L71.999988,2.895558 L71.803068,2.895558 Z" id="Fill-16" fill="#EF3F38" mask="url(#mask-4)"></path>
            <path d="M1.520508,10.311738 L1.520508,1.688298 C2.019288,1.688298 2.531448,1.681458 3.035388,1.685598 C3.534408,1.689738 4.047708,1.675278 4.531668,1.814718 C5.222808,2.013918 5.858448,2.425578 6.282708,3.014298 C6.634728,3.502818 6.779628,4.098918 6.761748,4.700778 C6.694728,6.950658 4.407828,7.565478 2.699988,7.565478 L2.730168,7.438878 C2.783448,7.214898 2.976528,7.048338 3.206388,7.034358 C5.563908,6.890718 6.281748,5.422518 6.281748,4.598838 C6.281748,3.669258 5.801748,2.890218 4.957668,2.498538 C4.053948,2.079198 3.014568,2.199978 2.045088,2.199978 L2.024988,2.199978 C2.024988,2.200038 2.001948,10.311738 2.001948,10.311738 L1.520508,10.311738 Z" id="Fill-17" fill="#FFFFFF" mask="url(#mask-4)"></path>
        </g>
    </g>
</svg>