<?xml version="1.0" encoding="UTF-8"?>
<svg width="100px" height="60px" viewBox="0 0 100 60" version="1.1" xmlns="http://www.w3.org/2000/svg" xmlns:xlink="http://www.w3.org/1999/xlink">
    <!-- Generator: Sketch 56.3 (81716) - https://sketch.com -->
    <title>logo/posco</title>
    <desc>Created with Sketch.</desc>
    <defs>
        <polygon id="path-1" points="9.83200707e-06 0.0250344828 8.78511724 0.0250344828 8.78511724 12.1907172 9.83200707e-06 12.1907172"></polygon>
        <polygon id="path-3" points="0 17.9749448 69.5472414 17.9749448 69.5472414 0.206875862 0 0.206875862"></polygon>
    </defs>
    <g id="logo/posco" stroke="none" stroke-width="1" fill="none" fill-rule="evenodd">
        <g id="Group-26" transform="translate(18.000000, 22.000000)">
            <path d="M36.7892276,5.44638621 C36.7892276,5.44638621 36.628469,5.22045517 35.9668138,5.37211034 C35.3018483,5.52811034 35.0128138,6.0468 35.0128138,6.0468 C34.5222621,6.8870069 33.6230897,7.46569655 32.5859172,7.46569655 C31.0176414,7.46569655 29.7679862,6.14755862 29.7679862,4.5945931 C29.7679862,3.02631724 31.0176414,1.7205931 32.5859172,1.7205931 C33.5632966,1.7205931 34.3852966,2.20307586 34.8915724,2.96611034 C34.8915724,2.96611034 35.2884,3.56052414 35.5685379,3.71486897 C35.8455724,3.87562759 36.2473655,3.95962759 36.5229517,3.90148966 C36.7900552,3.84045517 36.9576414,3.78873103 36.8248138,3.33293793 C36.2970207,1.48990345 34.6224,0.206937931 32.5859172,0.206937931 C30.1192966,0.206937931 28.1819172,2.1105931 28.1819172,4.5945931 C28.1819172,7.0785931 30.1192966,8.98473103 32.5859172,8.98473103 C34.5630207,8.98473103 36.1050207,7.86045517 36.7540552,6.04535172 C36.9516414,5.51921379 36.7892276,5.44638621 36.7892276,5.44638621" id="Fill-1" fill="#00578A"></path>
            <path d="M14.0532414,7.46565517 C12.4862069,7.46565517 11.2415172,6.14751724 11.2415172,4.59455172 C11.2415172,3.02627586 12.4862069,1.72055172 14.0532414,1.72055172 C15.6126207,1.72055172 16.8564828,3.02627586 16.8564828,4.59455172 C16.8564828,6.14751724 15.6126207,7.46565517 14.0532414,7.46565517 M14.0532414,0.206896552 C11.592,0.206896552 9.66082759,2.11055172 9.66082759,4.59455172 C9.66082759,7.07855172 11.592,8.98468966 14.0532414,8.98468966 C16.5097241,8.98468966 18.4404828,7.07855172 18.4404828,4.59455172 C18.4404828,2.11055172 16.5097241,0.206896552 14.0532414,0.206896552" id="Fill-3" fill="#00578A"></path>
            <path d="M42.1378138,1.72063448 C43.7017448,1.72063448 44.9454,3.02635862 44.9454,4.59463448 C44.9454,6.1473931 43.7017448,7.46573793 42.1378138,7.46573793 C40.5759517,7.46573793 39.3298138,6.1473931 39.3298138,4.59463448 C39.3298138,3.02635862 40.5759517,1.72063448 42.1378138,1.72063448 M42.1378138,8.98456552 C44.5963655,8.98456552 46.5275379,7.07842759 46.5275379,4.59463448 C46.5275379,2.11063448 44.5963655,0.20697931 42.1378138,0.20697931 C39.6809172,0.20697931 37.7464345,2.11063448 37.7464345,4.59463448 C37.7464345,7.07842759 39.6809172,8.98456552 42.1378138,8.98456552" id="Fill-5" fill="#00578A"></path>
            <path d="M25.6511586,3.89749655 L21.3628138,3.8466 C20.7369517,3.83646207 20.6734345,3.44377241 20.8565379,3.0666 C21.2593655,2.24149655 22.2415034,1.64625517 23.3724,1.65970345 C24.5022621,1.67170345 25.1117793,2.33728966 25.4918483,2.70453103 C25.8890897,3.09494483 26.7232966,3.21618621 27.0901241,3.03349655 C27.2761241,2.94225517 27.2655724,2.68922069 27.0961241,2.36522069 C26.3769517,0.990393103 24.8579172,0.230668966 23.3006069,0.212255172 C21.9739862,0.195910345 20.4710897,0.808117241 19.5655034,2.21397931 C18.8130207,3.37942759 18.8566759,5.31556552 21.5090897,5.3466 L25.2754345,5.39315172 C25.7796414,5.41570345 25.9101931,5.65942759 25.7328828,6.10384138 C25.410331,6.9063931 24.2914345,7.5423931 23.3175724,7.53308276 C22.1173655,7.51611724 21.5175724,6.91197931 21.0626069,6.43363448 C20.6004,5.95115172 19.7587448,5.94308276 19.4866759,6.04694483 C19.212331,6.14749655 19.3404,6.56377241 19.452331,6.78349655 C20.1744,8.18977241 21.7472276,8.96563448 23.2387448,8.98466897 C24.8231586,9.00370345 26.2418483,8.23756552 27.0731586,6.89418621 C27.906331,5.54832414 27.5459172,3.92170345 25.6511586,3.89749655" id="Fill-7" fill="#00578A"></path>
            <g id="Group-11" transform="translate(0.000000, 0.181841)">
                <mask id="mask-2" fill="white">
                    <use xlink:href="#path-1"></use>
                </mask>
                <g id="Clip-10"></g>
                <path d="M4.39415172,7.26926897 C2.83766897,7.26926897 1.57849655,5.98630345 1.57849655,4.40292414 C1.57849655,2.8214069 2.83766897,1.53802759 4.39415172,1.53802759 C5.94918621,1.53802759 7.21063448,2.8214069 7.21063448,4.40292414 C7.21063448,5.98630345 5.94918621,7.26926897 4.39415172,7.26926897 M4.39291034,0.0249931034 C1.93084138,0.0249931034 0.00691034483,1.92885517 0.00691034483,4.41264828 L0.00691034483,10.2256138 C0.00691034483,10.2256138 -0.0710896552,10.997131 0.297393103,11.5360966 C0.5556,11.9099586 0.910013793,12.1762345 1.30125517,12.1907172 C1.57849655,12.1632 1.59256552,11.8193379 1.59256552,11.8193379 L1.59256552,7.82892414 C2.35022069,8.4374069 3.31932414,8.8032 4.39291034,8.8032 C6.85146207,8.8032 8.78511724,6.89706207 8.78511724,4.41264828 C8.78511724,1.92885517 6.85146207,0.0249931034 4.39291034,0.0249931034" id="Fill-9" fill="#00578A" mask="url(#mask-2)"></path>
            </g>
            <mask id="mask-4" fill="white">
                <use xlink:href="#path-3"></use>
            </mask>
            <g id="Clip-13"></g>
            <polygon id="Fill-12" fill="#00578A" mask="url(#mask-4)" points="10.3282759 17.8448069 11.2864138 17.8448069 11.2864138 12.3794276 10.3282759 12.3794276"></polygon>
            <polygon id="Fill-14" fill="#00578A" mask="url(#mask-4)" points="12.4202897 12.3794483 13.4332552 12.3794483 15.9244966 16.4025517 15.9408414 16.4025517 15.9408414 12.3794483 16.8532552 12.3794483 16.8532552 17.8448276 15.8409103 17.8448276 13.3560828 13.8273103 13.3331172 13.8273103 13.3331172 17.8448276 12.4202897 17.8448276"></polygon>
            <polygon id="Fill-15" fill="#00578A" mask="url(#mask-4)" points="17.4690414 12.3794483 21.8902138 12.3794483 21.8902138 13.2066207 20.1599379 13.2066207 20.1599379 17.8448276 19.1993172 17.8448276 19.1993172 13.2066207 17.4690414 13.2066207"></polygon>
            <polygon id="Fill-16" fill="#00578A" mask="url(#mask-4)" points="22.5274966 12.3794483 26.4649448 12.3794483 26.4649448 13.2066207 23.4881172 13.2066207 23.4881172 14.64 26.2460483 14.64 26.2460483 15.4206207 23.4881172 15.4206207 23.4881172 17.0197241 26.5195655 17.0197241 26.5195655 17.8448276 22.5274966 17.8448276"></polygon>
            <path d="M28.312531,14.8714966 L29.8799793,14.8714966 C30.4841172,14.8714966 30.8155655,14.5704621 30.8155655,13.9969448 C30.8155655,13.2999103 30.364531,13.1604621 29.8642552,13.1604621 L28.312531,13.1604621 L28.312531,14.8714966 Z M27.3599793,12.3794276 L29.9639793,12.3794276 C31.1590138,12.3794276 31.7720483,12.932669 31.7720483,13.8568759 C31.7720483,14.9074966 31.0470828,15.1733586 30.8695655,15.2352207 L30.8695655,15.2517724 C31.1977034,15.296669 31.6843241,15.5451517 31.6843241,16.402531 C31.6843241,17.0434966 31.7720483,17.624669 31.9789448,17.8448069 L30.9552207,17.8448069 C30.808531,17.6099793 30.808531,17.3093586 30.808531,17.0434966 C30.808531,16.042531 30.6010138,15.5999793 29.7212897,15.5999793 L28.312531,15.5999793 L28.312531,17.8448069 L27.3599793,17.8448069 L27.3599793,12.3794276 Z" id="Fill-17" fill="#00578A" mask="url(#mask-4)"></path>
            <polygon id="Fill-18" fill="#00578A" mask="url(#mask-4)" points="32.7098897 12.3794483 33.7240966 12.3794483 36.2145103 16.4025517 36.2304414 16.4025517 36.2304414 12.3794483 37.139131 12.3794483 37.139131 17.8448276 36.1305103 17.8448276 33.6473379 13.8273103 33.6227172 13.8273103 33.6227172 17.8448276 32.7098897 17.8448276"></polygon>
            <path d="M39.4037172,15.6764483 L41.076269,15.6764483 L40.2555103,13.323 L40.2308897,13.323 L39.4037172,15.6764483 Z M39.7440621,12.3793448 L40.7586828,12.3793448 L42.8624069,17.8447241 L41.8326828,17.8447241 L41.3208207,16.3972759 L39.1409586,16.3972759 L38.6278552,17.8447241 L37.6426138,17.8447241 L39.7440621,12.3793448 Z" id="Fill-19" fill="#00578A" mask="url(#mask-4)"></path>
            <polygon id="Fill-20" fill="#00578A" mask="url(#mask-4)" points="42.1608621 12.3794483 46.587 12.3794483 46.587 13.2066207 44.8505172 13.2066207 44.8505172 17.8448276 43.8903103 17.8448276 43.8903103 13.2066207 42.1608621 13.2066207"></polygon>
            <polygon id="Fill-21" fill="#00578A" mask="url(#mask-4)" points="47.2253793 17.8448069 48.1797931 17.8448069 48.1797931 12.3794276 47.2253793 12.3794276"></polygon>
            <path d="M50.0184828,15.1135448 C50.0184828,16.1649931 50.5106897,17.1926483 51.6842069,17.1926483 C52.8544138,17.1926483 53.3424828,16.1649931 53.3424828,15.1135448 C53.3424828,14.0654069 52.8544138,13.0344414 51.6842069,13.0344414 C50.5106897,13.0344414 50.0184828,14.0654069 50.0184828,15.1135448 M54.3031034,15.1135448 C54.3031034,16.6737517 53.3195172,17.9749241 51.6842069,17.9749241 C50.0418621,17.9749241 49.0644828,16.6737517 49.0644828,15.1135448 C49.0644828,13.5537517 50.0418621,12.2513379 51.6842069,12.2513379 C53.3195172,12.2513379 54.3031034,13.5537517 54.3031034,15.1135448" id="Fill-22" fill="#00578A" mask="url(#mask-4)"></path>
            <polygon id="Fill-23" fill="#00578A" mask="url(#mask-4)" points="55.1367517 12.3794483 56.1457862 12.3794483 58.6438552 16.4025517 58.6564759 16.4025517 58.6564759 12.3794483 59.5693034 12.3794483 59.5693034 17.8448276 58.5615103 17.8448276 56.0690276 13.8273103 56.0452345 13.8273103 56.0452345 17.8448276 55.1367517 17.8448276"></polygon>
            <path d="M61.8289655,15.6764483 L63.4967586,15.6764483 L62.676,13.323 L62.654069,13.323 L61.8289655,15.6764483 Z M62.1643448,12.3793448 L63.1864138,12.3793448 L65.2901379,17.8447241 L64.262069,17.8447241 L63.75,16.3972759 L61.5670345,16.3972759 L61.0591034,17.8447241 L60.0686897,17.8447241 L62.1643448,12.3793448 Z" id="Fill-24" fill="#00578A" mask="url(#mask-4)"></path>
            <polygon id="Fill-25" fill="#00578A" mask="url(#mask-4)" points="65.8173724 12.3794483 66.7699241 12.3794483 66.7699241 17.0197241 69.5470966 17.0197241 69.5470966 17.8448276 65.8173724 17.8448276"></polygon>
        </g>
    </g>
</svg>