<?xml version="1.0" encoding="UTF-8"?>
<svg width="100px" height="60px" viewBox="0 0 100 60" version="1.1" xmlns="http://www.w3.org/2000/svg" xmlns:xlink="http://www.w3.org/1999/xlink">
    <title>postoffice</title>
    <defs>
        <polygon id="path-1" points="0 9.90737143 89.1914286 9.90737143 89.1914286 -5.71428571e-05 0 -5.71428571e-05"></polygon>
    </defs>
    <g id="postoffice" stroke="none" stroke-width="1" fill="none" fill-rule="evenodd">
        <g id="Group-42" transform="translate(5.000000, 25.000000)">
            <path d="M29.2384571,6.07142857 C29.2650286,6.07142857 29.2850286,6.05085714 29.2850286,6.02542857 L29.2850286,5.42028571 C29.2850286,5.39428571 29.2650286,5.37371429 29.2384571,5.37371429 L21.4584571,5.37371429 C21.4316,5.37371429 21.4104571,5.39428571 21.4104571,5.42028571 L21.4104571,6.02542857 C21.4104571,6.05085714 21.4316,6.07142857 21.4584571,6.07142857 L24.7007429,6.07142857 L24.7007429,8.95485714 C24.7007429,8.98057143 24.7213143,9.00257143 24.7478857,9.00257143 L25.9587429,9.00257143 C25.9850286,9.00257143 26.0058857,8.98057143 26.0058857,8.95485714 L26.0058857,6.07142857 L29.2384571,6.07142857 Z" id="Fill-1" fill="#231916"></path>
            <path d="M24.4277714,1.60911429 C24.6714857,1.33054286 24.9812,1.18854286 25.3474857,1.18854286 C25.7149143,1.18854286 26.0266286,1.33054286 26.2734857,1.60911429 C26.5186286,1.88711429 26.6443429,2.23025714 26.6443429,2.62882857 C26.6443429,3.02082857 26.5186286,3.36168571 26.2734857,3.64311429 C26.0266286,3.92511429 25.7149143,4.06711429 25.3474857,4.06711429 C24.9800571,4.06711429 24.6709143,3.92511429 24.4269143,3.64225714 C24.1849143,3.36168571 24.0634857,3.02082857 24.0634857,2.62882857 C24.0634857,2.22997143 24.1849143,1.88711429 24.4277714,1.60911429 M23.5129143,4.13882857 C24.0186286,4.55568571 24.6354857,4.76568571 25.3474857,4.76568571 C26.0680571,4.76568571 26.6889143,4.55568571 27.1920571,4.13882857 C27.6949143,3.72397143 27.9489143,3.2154 27.9489143,2.62882857 C27.9489143,2.04111429 27.6949143,1.53168571 27.1920571,1.11425714 C26.6889143,0.694257143 26.0680571,0.480542857 25.3474857,0.480542857 C24.6354857,0.480542857 24.0186286,0.694257143 23.5129143,1.11425714 C23.0117714,1.53168571 22.7583429,2.04111429 22.7583429,2.62882857 C22.7583429,3.2154 23.0117714,3.72397143 23.5129143,4.13882857" id="Fill-3" fill="#231916"></path>
            <path d="M35.7792,5.3178 C35.7792,5.34351429 35.7994857,5.3638 35.8269143,5.3638 L37.0372,5.3638 C37.0632,5.3638 37.0846286,5.34351429 37.0846286,5.3178 L37.0846286,0.6538 C37.0846286,0.626657143 37.0632,0.606371429 37.0372,0.606371429 L35.8269143,0.606371429 C35.7994857,0.606371429 35.7792,0.626657143 35.7792,0.6538 L35.7792,2.37351429 L34.2017714,2.37351429 C34.1769143,2.37351429 34.1543429,2.39437143 34.1543429,2.42037143 L34.1543429,3.02608571 C34.1543429,3.05094286 34.1769143,3.07237143 34.2017714,3.07237143 L35.7792,3.07237143 L35.7792,5.3178 Z" id="Fill-5" fill="#231916"></path>
            <path d="M35.2309429,8.25837143 C35.0420857,8.50808571 34.8149429,8.63465714 34.5563714,8.63465714 C34.3032286,8.63465714 34.0775143,8.50808571 33.8852286,8.25837143 C33.6952286,8.01351429 33.5986571,7.73094286 33.5986571,7.42065714 C33.5986571,7.10408571 33.6952286,6.81808571 33.8846571,6.56837143 C34.0775143,6.31494286 34.3026571,6.18722857 34.5563714,6.18722857 C34.8149429,6.18722857 35.0420857,6.31494286 35.2309429,6.56922857 C35.4172286,6.81837143 35.5120857,7.10465714 35.5120857,7.42065714 C35.5120857,7.73008571 35.4172286,8.01237143 35.2309429,8.25837143 M36.1520857,6.04837143 L36.1520857,6.04837143 C35.7155143,5.67037143 35.1789429,5.47865714 34.5563714,5.47865714 C33.9380857,5.47865714 33.4049429,5.67037143 32.9680857,6.04837143 C32.5352286,6.42637143 32.3152286,6.8878 32.3152286,7.42065714 C32.3152286,7.9538 32.5352286,8.41494286 32.9675143,8.78808571 C33.4038,9.16322857 33.9380857,9.35322857 34.5563714,9.35322857 C35.1789429,9.35322857 35.7155143,9.16322857 36.1520857,8.78808571 C36.5872286,8.41494286 36.8069429,7.9538 36.8069429,7.42065714 C36.8069429,6.8878 36.5872286,6.42637143 36.1520857,6.04837143" id="Fill-7" fill="#231916"></path>
            <path d="M46.8122571,2.62891429 L45.4714,2.62891429 L45.4714,0.6412 C45.4714,0.614342857 45.4502571,0.593485714 45.4245429,0.593485714 L44.2131143,0.593485714 C44.1876857,0.593485714 44.1662571,0.614342857 44.1662571,0.6412 L44.1662571,8.97577143 C44.1662571,9.00177143 44.1876857,9.02177143 44.2131143,9.02177143 L45.4245429,9.02177143 C45.4502571,9.02177143 45.4714,9.00177143 45.4714,8.97577143 L45.4714,3.32691429 L46.8122571,3.32691429 C46.8382571,3.32691429 46.8591143,3.30662857 46.8591143,3.28005714 L46.8591143,2.6752 C46.8591143,2.64862857 46.8382571,2.62891429 46.8122571,2.62891429" id="Fill-9" fill="#231916"></path>
            <path d="M43.6385714,5.30191429 C43.4094286,5.24048571 43.1894286,5.13734286 42.9808571,4.99705714 C42.7234286,4.8222 42.4828571,4.58905714 42.2614286,4.29448571 C41.826,3.70848571 41.6065714,2.99934286 41.6065714,2.18505714 L41.6065714,0.641342857 C41.6065714,0.614485714 41.5851429,0.593628571 41.5594286,0.593628571 L40.3174286,0.593628571 C40.2908571,0.593628571 40.2708571,0.614485714 40.2708571,0.641342857 L40.2708571,2.18505714 C40.2708571,2.99934286 40.0491429,3.70848571 39.6145714,4.29448571 C39.394,4.58905714 39.1537143,4.8222 38.8951429,4.99705714 C38.6871429,5.13734286 38.4674286,5.24048571 38.238,5.30191429 C38.2165714,5.30705714 38.2091429,5.3502 38.238,5.3742 C38.3717143,5.49334286 38.6402857,5.7302 38.7428571,5.81962857 C38.7637143,5.83877143 38.8348571,5.84762857 38.8628571,5.84305714 C39.2734286,5.78648571 39.6848571,5.59848571 40.0902857,5.2842 C40.2074286,5.19277143 40.314,5.09591429 40.4114286,4.99705714 C40.6771429,4.72334286 40.8645714,4.42562857 40.9382857,4.1462 C41.0108571,4.42562857 41.1982857,4.72334286 41.4645714,4.99705714 C41.5617143,5.09591429 41.6682857,5.19277143 41.786,5.2842 C42.1911429,5.59848571 42.6028571,5.78648571 43.0128571,5.84305714 C43.0414286,5.84762857 43.112,5.83877143 43.1331429,5.81962857 C43.2331429,5.7302 43.5042857,5.49334286 43.6385714,5.3742 C43.6671429,5.3502 43.6602857,5.30705714 43.6385714,5.30191429" id="Fill-11" fill="#231916"></path>
            <path d="M77.7221429,5.06725714 C77.5241429,5.0144 77.3341429,4.92525714 77.1538571,4.80382857 C76.9312857,4.65297143 76.7238571,4.45154286 76.5321429,4.19697143 C76.1564286,3.69068571 75.9661429,3.07811429 75.9661429,2.37411429 L75.9661429,1.0404 C75.9661429,1.01725714 75.9478571,0.999542857 75.9258571,0.999542857 L74.8527143,0.999542857 C74.8298571,0.999542857 74.8124286,1.01725714 74.8124286,1.0404 L74.8124286,2.37411429 C74.8124286,3.07811429 74.6207143,3.69068571 74.2452857,4.19697143 C74.0547143,4.45154286 73.847,4.65297143 73.6238571,4.80382857 C73.4435714,4.92525714 73.2541429,5.0144 73.0561429,5.06725714 C73.0375714,5.07182857 73.031,5.10897143 73.0561429,5.12982857 C73.1715714,5.23268571 73.4035714,5.43754286 73.4921429,5.51468571 C73.5101429,5.53097143 73.5715714,5.53868571 73.5958571,5.53525714 C73.9504286,5.4864 74.3058571,5.32354286 74.6567143,5.05182857 C74.7575714,4.97325714 74.8498571,4.88925714 74.9338571,4.80382857 C75.1635714,4.56754286 75.3252857,4.3104 75.3892857,4.06897143 C75.4515714,4.3104 75.6138571,4.56754286 75.8438571,4.80382857 C75.9278571,4.88925714 76.0201429,4.97325714 76.1212857,5.05182857 C76.4712857,5.32354286 76.8272857,5.4864 77.1812857,5.53525714 C77.2061429,5.53868571 77.2672857,5.53097143 77.2855714,5.51468571 C77.3715714,5.43754286 77.6061429,5.23268571 77.7221429,5.12982857 C77.7464286,5.10897143 77.7407143,5.07182857 77.7221429,5.06725714" id="Fill-13" fill="#231916"></path>
            <path d="M50.5477429,3.72154286 C50.3454571,3.99782857 50.1037429,4.13925714 49.8306,4.13925714 C49.5571714,4.13925714 49.3177429,3.99782857 49.1194571,3.72154286 C48.9234571,3.44811429 48.8237429,3.1124 48.8237429,2.72154286 C48.8237429,2.32925714 48.9251714,1.99268571 49.1243143,1.72011429 C49.3271714,1.44268571 49.5646,1.30182857 49.8306,1.30182857 C50.1114571,1.30182857 50.3534571,1.44268571 50.5534571,1.72011429 C50.7491714,1.99411429 50.8486,2.33011429 50.8486,2.72154286 C50.8486,3.1124 50.7480286,3.44811429 50.5477429,3.72154286 M54.6457429,0.593542857 L53.4351714,0.593542857 C53.4080286,0.593542857 53.3877429,0.6144 53.3877429,0.641257143 L53.3877429,2.26897143 L52.1446,2.26897143 C52.1251714,2.26897143 52.1083143,2.25582857 52.1040286,2.23697143 C51.9826,1.76182857 51.7117429,1.36582857 51.2974571,1.05897143 C50.8817429,0.749542857 50.3871714,0.593542857 49.8306,0.593542857 C49.2000286,0.593542857 48.6508857,0.802685714 48.1988857,1.21382857 C47.7463143,1.62468571 47.5180286,2.12925714 47.5180286,2.71011429 C47.5180286,3.29211429 47.7463143,3.7944 48.1988857,4.2064 C48.6508857,4.61868571 49.2000286,4.8284 49.8306,4.8284 C50.4223143,4.8284 50.9380286,4.64982857 51.3668857,4.29668571 C51.7954571,3.94697143 52.0537429,3.51068571 52.1348857,3.00154286 C52.1368857,2.98211429 52.1543143,2.96725714 52.1751714,2.96725714 L53.3877429,2.96725714 L53.3877429,4.87382857 C53.3877429,4.89982857 53.4080286,4.91982857 53.4351714,4.91982857 L54.6457429,4.91982857 C54.6720286,4.91982857 54.6937429,4.89982857 54.6937429,4.87382857 L54.6937429,0.641257143 C54.6937429,0.6144 54.6720286,0.593542857 54.6457429,0.593542857" id="Fill-15" fill="#231916"></path>
            <mask id="mask-2" fill="white">
                <use xlink:href="#path-1"></use>
            </mask>
            <g id="Clip-18"></g>
            <path d="M67.0314286,4.46337143 L70.1794286,4.46337143 L70.1794286,3.14708571 L67.0314286,3.14708571 L67.0314286,4.46337143 Z M71.4377143,0.593371429 L70.2248571,0.593371429 C70.2017143,0.593371429 70.1794286,0.614514286 70.1794286,0.641085714 L70.1794286,2.43708571 L67.0317143,2.43708571 L67.0317143,0.641085714 C67.0317143,0.614514286 67.012,0.593371429 66.986,0.593371429 L65.7751429,0.593371429 C65.7494286,0.593371429 65.7288571,0.614514286 65.7288571,0.641085714 L65.7288571,4.28737143 C65.7288571,4.54851429 65.8131429,4.76194286 65.9771429,4.92251429 C66.1445714,5.07965714 66.3671429,5.16108571 66.6417143,5.16108571 L71.4377143,5.16108571 C71.4642857,5.16108571 71.4842857,5.13994286 71.4842857,5.11508571 L71.4842857,0.641085714 C71.4842857,0.614514286 71.4642857,0.593371429 71.4377143,0.593371429 L71.4377143,0.593371429 Z" id="Fill-17" fill="#231916" mask="url(#mask-2)"></path>
            <path d="M50.4377143,8.3128 L53.388,8.3128 L53.388,7.28537143 L50.4377143,7.28537143 L50.4377143,8.3128 Z M54.6457143,5.55822857 L53.4354286,5.55822857 C53.408,5.55822857 53.388,5.57994286 53.388,5.60451429 L53.388,6.57622857 L50.4374286,6.57622857 L50.4374286,5.60451429 C50.4374286,5.57994286 50.4151429,5.55822857 50.3897143,5.55822857 L49.1797143,5.55822857 C49.1531429,5.55822857 49.1317143,5.57994286 49.1317143,5.60451429 L49.1317143,8.13822857 C49.1317143,8.40051429 49.2162857,8.61451429 49.3874286,8.77622857 C49.5565714,8.9388 49.7848571,9.02165714 50.068,9.02165714 L54.6457143,9.02165714 C54.672,9.02165714 54.6937143,9.00165714 54.6937143,8.97565714 L54.6937143,5.60451429 C54.6937143,5.57994286 54.672,5.55822857 54.6457143,5.55822857 L54.6457143,5.55822857 Z" id="Fill-19" fill="#231916" mask="url(#mask-2)"></path>
            <path d="M35.0876571,4.56977143 C35.0173714,4.54891429 34.9482286,4.52234286 34.8770857,4.49891429 C34.7656571,4.46491429 34.6548,4.42091429 34.5510857,4.3672 C34.1613714,4.17262857 33.8370857,3.86691429 33.5733714,3.52377143 C33.3842286,3.27777143 33.2579429,2.99291429 33.1673714,2.69777143 C33.0676571,2.37634286 33.0279429,2.04091429 33.0290857,1.70548571 L33.0290857,1.48948571 L34.5550857,1.48948571 C34.5805143,1.48948571 34.6010857,1.46748571 34.6010857,1.44291429 L34.6010857,0.837771429 C34.6010857,0.812057143 34.5805143,0.7912 34.5550857,0.7912 L30.1819429,0.7912 C30.1568,0.7912 30.1356571,0.812057143 30.1356571,0.837771429 L30.1356571,1.44291429 C30.1356571,1.46748571 30.1568,1.48948571 30.1819429,1.48948571 L31.7076571,1.48948571 L31.7079429,1.70548571 C31.7093714,2.04091429 31.6688,2.37634286 31.5696571,2.69777143 C31.4776571,2.99291429 31.3530857,3.27777143 31.1642286,3.52377143 C30.9005143,3.86691429 30.5753714,4.17262857 30.1870857,4.3672 C30.0808,4.42091429 29.9713714,4.46491429 29.8605143,4.49891429 C29.7899429,4.52234286 29.7202286,4.54891429 29.6493714,4.56977143 C29.6239429,4.57577143 29.6196571,4.59405714 29.6399429,4.61091429 L30.1730857,5.06348571 C30.1933714,5.08034286 30.2293714,5.09005714 30.2550857,5.08691429 C30.6876571,5.01148571 31.1316571,4.82634286 31.4996571,4.57148571 C31.9419429,4.2612 32.2588,3.8812 32.3659429,3.52777143 C32.3659429,3.53205714 32.3673714,3.53348571 32.3690857,3.53605714 C32.3699429,3.53348571 32.3713714,3.53205714 32.3713714,3.52777143 C32.4770857,3.8812 32.7962286,4.2612 33.2365143,4.57148571 C33.6056571,4.82634286 34.0485143,5.01148571 34.4810857,5.08691429 C34.5079429,5.09005714 34.5439429,5.08034286 34.5639429,5.06348571 L35.0973714,4.61091429 C35.1176571,4.59405714 35.1133714,4.57577143 35.0876571,4.56977143" id="Fill-20" fill="#231916" mask="url(#mask-2)"></path>
            <path d="M62.0497143,5.3178 C62.0497143,5.34351429 62.0702857,5.3638 62.0974286,5.3638 L63.3077143,5.3638 C63.3337143,5.3638 63.3551429,5.34351429 63.3551429,5.3178 L63.3551429,0.6538 C63.3551429,0.626657143 63.3337143,0.606371429 63.3077143,0.606371429 L62.0974286,0.606371429 C62.0702857,0.606371429 62.0497143,0.626657143 62.0497143,0.6538 L62.0497143,2.37351429 L60.4722857,2.37351429 C60.4474286,2.37351429 60.4248571,2.39437143 60.4248571,2.42037143 L60.4248571,3.02608571 C60.4248571,3.05094286 60.4474286,3.07237143 60.4722857,3.07237143 L62.0497143,3.07237143 L62.0497143,5.3178 Z" id="Fill-21" fill="#231916" mask="url(#mask-2)"></path>
            <path d="M61.5014286,8.25837143 C61.3125714,8.50808571 61.0854286,8.63465714 60.8268571,8.63465714 C60.5737143,8.63465714 60.348,8.50808571 60.1554286,8.25837143 C59.9657143,8.01351429 59.8691429,7.73094286 59.8691429,7.42065714 C59.8691429,7.10408571 59.9657143,6.81808571 60.1551429,6.56837143 C60.348,6.31494286 60.5731429,6.18722857 60.8268571,6.18722857 C61.0854286,6.18722857 61.3125714,6.31494286 61.5014286,6.56922857 C61.6877143,6.81837143 61.7822857,7.10465714 61.7822857,7.42065714 C61.7822857,7.73008571 61.6877143,8.01237143 61.5014286,8.25837143 M62.4228571,6.04837143 L62.4228571,6.04837143 C61.9857143,5.67037143 61.4491429,5.47865714 60.8268571,5.47865714 C60.2082857,5.47865714 59.6751429,5.67037143 59.2385714,6.04837143 C58.8057143,6.42637143 58.5857143,6.8878 58.5857143,7.42065714 C58.5857143,7.9538 58.8057143,8.41494286 59.238,8.78808571 C59.674,9.16322857 60.2082857,9.35322857 60.8268571,9.35322857 C61.4491429,9.35322857 61.9857143,9.16322857 62.4228571,8.78808571 C62.8577143,8.41494286 63.0774286,7.9538 63.0774286,7.42065714 C63.0774286,6.8878 62.8577143,6.42637143 62.4228571,6.04837143" id="Fill-22" fill="#231916" mask="url(#mask-2)"></path>
            <path d="M61.3580286,4.56977143 C61.2880286,4.54891429 61.2186,4.52234286 61.1474571,4.49891429 C61.0360286,4.46491429 60.9248857,4.42091429 60.8217429,4.3672 C60.4320286,4.17262857 60.1074571,3.86691429 59.8437429,3.52377143 C59.6546,3.27777143 59.5286,2.99291429 59.4377429,2.69777143 C59.3380286,2.37634286 59.2980286,2.04091429 59.2997429,1.70548571 L59.2997429,1.48948571 L60.8257429,1.48948571 C60.8508857,1.48948571 60.8717429,1.46748571 60.8717429,1.44291429 L60.8717429,0.837771429 C60.8717429,0.812057143 60.8508857,0.7912 60.8257429,0.7912 L56.4526,0.7912 C56.4268857,0.7912 56.4063143,0.812057143 56.4063143,0.837771429 L56.4063143,1.44291429 C56.4063143,1.46748571 56.4268857,1.48948571 56.4526,1.48948571 L57.9780286,1.48948571 L57.9783143,1.70548571 C57.9800286,2.04091429 57.9391714,2.37634286 57.8403143,2.69777143 C57.7480286,2.99291429 57.6237429,3.27777143 57.4348857,3.52377143 C57.1708857,3.86691429 56.8460286,4.17262857 56.4574571,4.3672 C56.3514571,4.42091429 56.2420286,4.46491429 56.1306,4.49891429 C56.0603143,4.52234286 55.9908857,4.54891429 55.9197429,4.56977143 C55.8943143,4.57577143 55.8903143,4.59405714 55.9103143,4.61091429 L56.4437429,5.06348571 C56.4637429,5.08034286 56.4997429,5.09005714 56.5257429,5.08691429 C56.9583143,5.01148571 57.4023143,4.82634286 57.7703143,4.57148571 C58.2123143,4.2612 58.5291714,3.8812 58.6366,3.52777143 C58.6366,3.53205714 58.6377429,3.53348571 58.6391714,3.53605714 C58.6400286,3.53348571 58.6417429,3.53205714 58.6417429,3.52777143 C58.7474571,3.8812 59.0668857,4.2612 59.5068857,4.57148571 C59.8763143,4.82634286 60.3188857,5.01148571 60.7517429,5.08691429 C60.7783143,5.09005714 60.8143143,5.08034286 60.8343143,5.06348571 L61.3677429,4.61091429 C61.3877429,4.59405714 61.3840286,4.57577143 61.3580286,4.56977143" id="Fill-23" fill="#231916" mask="url(#mask-2)"></path>
            <path d="M0.0294857143,4.91937143 C-0.00822857143,4.93908571 -0.00994285714,4.9728 0.0249142857,4.99651429 L3.20777143,7.09851429 L4.12005714,2.80937143 L0.0294857143,4.91937143 Z" id="Fill-24" fill="#D72C18" mask="url(#mask-2)"></path>
            <path d="M18.8747714,2.80748571 L18.0702,2.80748571 C18.0284857,2.80748571 17.9639143,2.82377143 17.9262,2.84234286 L13.8924857,4.9212 C13.8550571,4.94034286 13.8536286,4.97462857 13.8879143,4.99777143 L17.0182,7.05777143 C17.0530571,7.08034286 17.1156286,7.09891429 17.1576286,7.09891429 L17.9622,7.09891429 C18.0042,7.09891429 18.0096286,7.08091429 17.9753429,7.05777143 L14.7802,4.95634286 L18.8830571,2.84234286 C18.9202,2.82377143 18.9164857,2.80748571 18.8747714,2.80748571" id="Fill-25" fill="#E47F15" mask="url(#mask-2)"></path>
            <path d="M17.1507143,2.80748571 L11.5435714,2.80748571 L10.6321429,7.09891429 L16.2381429,7.09891429 C16.2804286,7.09891429 16.2852857,7.08091429 16.2512857,7.05777143 L13.0624286,4.95634286 L17.1592857,2.84234286 C17.1964286,2.82377143 17.1924286,2.80748571 17.1507143,2.80748571" id="Fill-26" fill="#D72C18" mask="url(#mask-2)"></path>
            <path d="M20.5958857,2.80748571 L19.7916,2.80748571 C19.7498857,2.80748571 19.6850286,2.82377143 19.6484571,2.84234286 L15.6136,4.9212 C15.5767429,4.94034286 15.5753143,4.97462857 15.6101714,4.99777143 L18.7396,7.05777143 C18.7741714,7.08034286 18.8373143,7.09891429 18.8793143,7.09891429 L19.6838857,7.09891429 C19.7253143,7.09891429 19.7316,7.08091429 19.6967429,7.05777143 L16.5021714,4.95634286 L20.6053143,2.84234286 C20.6421714,2.82377143 20.6387429,2.80748571 20.5958857,2.80748571" id="Fill-27" fill="#EEB81C" mask="url(#mask-2)"></path>
            <path d="M16.9024,0 L3.70211429,0 C2.96525714,0 2.44982857,0.463428571 2.32811429,1.03685714 C2.26125714,1.35085714 2.38097143,1.63057143 2.62325714,1.82257143 L7.36554286,4.95314286 L7.36954286,4.95114286 L7.3704,4.95314286 L16.9109714,0.0345714286 C16.9484,0.0162857143 16.9446857,0 16.9024,0" id="Fill-28" fill="#D72C18" mask="url(#mask-2)"></path>
            <path d="M14.8089143,9.86551429 L14.8089143,9.86551429 L7.37034286,4.95322857 L7.36891429,4.95494286 L7.36548571,4.95322857 L1.29148571,8.0858 C0.968057143,8.27637143 0.729771429,8.55665714 0.662914286,8.87151429 C0.540342857,9.44322857 0.858057143,9.90722857 1.59577143,9.90722857 L14.7963429,9.90722857 C14.8386286,9.90722857 14.8437714,9.88894286 14.8089143,9.86551429" id="Fill-29" fill="#D72C18" mask="url(#mask-2)"></path>
            <polygon id="Fill-30" fill="#231916" mask="url(#mask-2)" points="67.9537143 6.93908571 69.26 6.93908571 69.26 4.91794286 67.9537143 4.91794286"></polygon>
            <polygon id="Fill-31" fill="#231916" mask="url(#mask-2)" points="64.9828571 7.6048 72.2305714 7.6048 72.2305714 6.71737143 64.9828571 6.71737143"></polygon>
            <polygon id="Fill-32" fill="#231916" mask="url(#mask-2)" points="76.5574286 3.21708571 78.7265714 3.21708571 78.7265714 2.4528 76.5574286 2.4528"></polygon>
            <polygon id="Fill-33" fill="#231916" mask="url(#mask-2)" points="77.7408571 6.70537143 78.9117143 6.70537143 78.9117143 0.875085714 77.7408571 0.875085714"></polygon>
            <polygon id="Fill-34" fill="#231916" mask="url(#mask-2)" points="79.4417143 6.70537143 80.6125714 6.70537143 80.6125714 0.875085714 79.4417143 0.875085714"></polygon>
            <path d="M74.9794,6.12557143 L76.2862571,6.12557143 L76.2862571,7.94985714 L80.8588286,7.94985714 L80.8588286,8.64014286 L75.6082571,8.64014286 C75.6082571,8.64014286 74.9856857,8.51642857 74.9856857,8.01728571 C74.9856857,7.51842857 74.9794,6.12557143 74.9794,6.12557143" id="Fill-35" fill="#231916" mask="url(#mask-2)"></path>
            <polygon id="Fill-36" fill="#231916" mask="url(#mask-2)" points="86.4797143 3.79594286 88.4271429 3.79594286 88.4271429 3.03165714 86.4797143 3.03165714"></polygon>
            <polygon id="Fill-37" fill="#231916" mask="url(#mask-2)" points="87.8602857 9.00965714 89.1914286 9.00965714 89.1914286 0.874514286 87.8602857 0.874514286"></polygon>
            <polygon id="Fill-38" fill="#231916" mask="url(#mask-2)" points="82.8588571 1.92251429 86.7971429 1.92251429 86.7971429 1.21994286 82.8588571 1.21994286"></polygon>
            <polygon id="Fill-39" fill="#231916" mask="url(#mask-2)" points="82.8588571 3.89137143 86.1777143 3.89137143 86.1777143 3.1888 82.8588571 3.1888"></polygon>
            <polygon id="Fill-40" fill="#231916" mask="url(#mask-2)" points="84.1256 5.41685714 82.8587429 5.26885714 82.8587429 1.22 84.1256 1.22"></polygon>
            <path d="M82.8588571,5.26897143 C82.8588571,5.26897143 82.8311429,5.98068571 83.6168571,5.98068571 L87.2962857,5.98068571 L87.2962857,5.26897143 L82.8588571,5.26897143 Z" id="Fill-41" fill="#231916" mask="url(#mask-2)"></path>
        </g>
    </g>
</svg>