<?xml version="1.0" encoding="UTF-8"?>
<svg width="100px" height="60px" viewBox="0 0 100 60" version="1.1" xmlns="http://www.w3.org/2000/svg" xmlns:xlink="http://www.w3.org/1999/xlink">
    <!-- Generator: Sketch 55.2 (78181) - https://sketchapp.com -->
    <title>logo/refine</title>
    <desc>Created with Sketch.</desc>
    <defs>
        <path d="M4.84751799,3.16017986 L4.84751799,0.0968345324 L0,0.0968345324 L0,14.1007194 L4.84751799,14.1007194 C4.84751799,14.1007194 3.90492806,3.4631295 16.0910072,4.40571942 L16.0910072,4.40571942 L16.0910072,0.0968345324 C16.0910072,0.0968345324 15.3992806,0.0139928058 14.3270144,0.0139928058 L14.3270144,0.0139928058 C11.9143525,0.0139928058 7.5742446,0.433417266 4.84751799,3.16017986" id="path-1"></path>
        <linearGradient x1="-6.83751333%" y1="-14.1798502%" x2="89.8151693%" y2="95.3417967%" id="linearGradient-3">
            <stop stop-color="#EB6221" offset="0%"></stop>
            <stop stop-color="#D81A1C" offset="100%"></stop>
        </linearGradient>
        <linearGradient x1="24.7919983%" y1="40.2388075%" x2="121.444681%" y2="77.6652967%" id="linearGradient-4">
            <stop stop-color="#EB6221" offset="0%"></stop>
            <stop stop-color="#D81A1C" offset="100%"></stop>
        </linearGradient>
        <polygon id="path-5" points="0.0161043165 0.0160647482 6.42603237 0.0160647482 6.42603237 6.72661871 0.0161043165 6.72661871"></polygon>
        <polygon id="path-7" points="0.014057554 0.0160611511 6.29251079 0.0160611511 6.29251079 6.72661871 0.014057554 6.72661871"></polygon>
        <polygon id="path-9" points="0.000107913669 0.0160611511 5.97794964 0.0160611511 5.97794964 6.72661871 0.000107913669 6.72661871"></polygon>
        <polygon id="path-11" points="0.0258093525 0.0160611511 2.60156475 0.0160611511 2.60156475 6.72661871 0.0258093525 6.72661871"></polygon>
        <polygon id="path-13" points="0.0210899281 0.0160611511 6.97619784 0.0160611511 6.97619784 6.72661871 0.0210899281 6.72661871"></polygon>
        <polygon id="path-15" points="0.00830215827 0.0160611511 6.28646763 0.0160611511 6.28646763 6.72661871 0.00830215827 6.72661871"></polygon>
    </defs>
    <g id="logo/refine" stroke="none" stroke-width="1" fill="none" fill-rule="evenodd">
        <g transform="translate(28.000000, 17.000000)">
            <g id="Group-3" transform="translate(0.000000, 5.827878)">
                <mask id="mask-2" fill="white">
                    <use xlink:href="#path-1"></use>
                </mask>
                <g id="Clip-2"></g>
                <path d="M4.84751799,3.16017986 L4.84751799,0.0968345324 L0,0.0968345324 L0,14.1007194 L4.84751799,14.1007194 C4.84751799,14.1007194 3.90492806,3.4631295 16.0910072,4.40571942 L16.0910072,4.40571942 L16.0910072,0.0968345324 C16.0910072,0.0968345324 15.3992806,0.0139928058 14.3270144,0.0139928058 L14.3270144,0.0139928058 C11.9143525,0.0139928058 7.5742446,0.433417266 4.84751799,3.16017986" id="Fill-1" fill="url(#linearGradient-3)" mask="url(#mask-2)"></path>
            </g>
            <polygon id="Fill-4" fill="url(#linearGradient-4)" points="0 4.81381295 16.0910072 4.81381295 16.0910072 -1.13686838e-13 0 -1.13686838e-13"></polygon>
            <g id="Group-24" transform="translate(11.438849, 13.201978)">
                <g id="Group-8">
                    <mask id="mask-6" fill="white">
                        <use xlink:href="#path-5"></use>
                    </mask>
                    <g id="Clip-7"></g>
                    <path d="M1.97092446,3.07048921 L3.69088849,3.07048921 C4.19847842,3.07048921 4.58534892,2.96581295 4.8517518,2.75541727 C5.11790288,2.54552518 5.2512482,2.24311511 5.2512482,1.84861871 C5.2512482,1.66714388 5.2183705,1.51829496 5.15261511,1.40203597 C5.08660791,1.28631655 4.99747122,1.19692806 4.8846295,1.13433813 C4.77182374,1.0717482 4.64347842,1.02966187 4.49934173,1.00753957 C4.35495324,0.985453237 4.20480935,0.974410072 4.04804676,0.974410072 L2.40329856,0.974410072 L1.97092446,3.07048921 Z M1.40707554,0.0160647482 L4.31132014,0.0160647482 C4.45542086,0.0160647482 4.64635612,0.0286906475 4.8846295,0.0534028777 C5.12265108,0.0786546763 5.35617626,0.14757554 5.58498921,0.260129496 C5.81351439,0.373223022 6.01078058,0.543654676 6.1770036,0.772431655 C6.34293885,1.0012446 6.42603237,1.31894245 6.42603237,1.72660432 C6.42603237,2.25890647 6.29114029,2.67441007 6.02182374,2.97160432 C5.75250719,3.26930216 5.37959353,3.46235971 4.90358633,3.54966187 L4.90358633,3.56861871 C5.18549281,3.67534532 5.37484532,3.83315108 5.47214748,4.04304317 C5.56919784,4.25343885 5.61786691,4.49905036 5.61786691,4.78099281 C5.61786691,5.01293525 5.59891007,5.24491367 5.56132014,5.47635252 C5.52373022,5.70829496 5.50793885,5.94027338 5.51423381,6.1722518 C5.51423381,6.26584892 5.52214748,6.35998561 5.53790288,6.45415827 C5.55344245,6.54779137 5.58628417,6.63876259 5.63653597,6.72664029 L4.40520504,6.72664029 C4.37391007,6.63876259 4.35365827,6.55408633 4.34419784,6.47311511 C4.33470144,6.39156835 4.32998921,6.30372662 4.32998921,6.20958993 C4.32998921,5.95923022 4.34891007,5.71304317 4.38653597,5.47160432 C4.4241259,5.23070504 4.44279496,4.98771942 4.44279496,4.74365468 C4.44279496,4.54955396 4.40678777,4.39915827 4.33470144,4.29235971 C4.26265108,4.18610072 4.16718345,4.10876259 4.04804676,4.06196403 C3.92891007,4.01516547 3.79426978,3.9867482 3.64408993,3.97728777 C3.49365827,3.96779137 3.34009712,3.96361871 3.18333453,3.96361871 L1.78286691,3.96361871 L1.20955755,6.72664029 L0.0161043165,6.72664029 L1.40707554,0.0160647482 Z" id="Fill-6" fill="#2B2C2F" mask="url(#mask-6)"></path>
                </g>
                <g id="Group-11" transform="translate(6.618705, 0.000000)">
                    <mask id="mask-8" fill="white">
                        <use xlink:href="#path-7"></use>
                    </mask>
                    <g id="Clip-10"></g>
                    <polygon id="Fill-9" fill="#2B2C2F" mask="url(#mask-8)" points="1.40502878 0.0160611511 6.29251079 0.0160611511 6.0852446 1.03070144 2.35445324 1.03070144 1.98783453 2.78854317 5.44668345 2.78854317 5.24891367 3.74742806 1.78085612 3.74742806 1.37689928 5.71145683 5.13635971 5.71145683 4.92916547 6.72663669 0.014057554 6.72663669"></polygon>
                </g>
                <g id="Group-14" transform="translate(12.553957, 0.000000)">
                    <mask id="mask-10" fill="white">
                        <use xlink:href="#path-9"></use>
                    </mask>
                    <g id="Clip-13"></g>
                    <polygon id="Fill-12" fill="#2B2C2F" mask="url(#mask-10)" points="1.40028777 0.0160611511 5.97794964 0.0160611511 5.77071942 1.03070144 2.35913669 1.03070144 1.99255396 2.78854317 4.95330935 2.78854317 4.74658273 3.74742806 1.79528777 3.74742806 1.17464029 6.72663669 0.000107913669 6.72663669"></polygon>
                </g>
                <g id="Group-17" transform="translate(18.129496, 0.000000)">
                    <mask id="mask-12" fill="white">
                        <use xlink:href="#path-11"></use>
                    </mask>
                    <g id="Clip-16"></g>
                    <polygon id="Fill-15" fill="#2B2C2F" mask="url(#mask-12)" points="1.42649281 0.0160611511 2.60156475 0.0160611511 1.20088129 6.72663669 0.0258093525 6.72663669"></polygon>
                </g>
                <g id="Group-20" transform="translate(20.719424, 0.000000)">
                    <mask id="mask-14" fill="white">
                        <use xlink:href="#path-13"></use>
                    </mask>
                    <g id="Clip-19"></g>
                    <polygon id="Fill-18" fill="#2B2C2F" mask="url(#mask-14)" points="1.41180935 0.0160611511 2.69997482 0.0160611511 4.75814029 5.02559353 4.77709712 5.02559353 5.80116187 0.0160611511 6.97619784 0.0160611511 5.58501079 6.72663669 4.29738489 6.72663669 2.22972302 1.74498201 2.21080216 1.74498201 1.1956223 6.72663669 0.0210899281 6.72663669"></polygon>
                </g>
                <g id="Group-23" transform="translate(27.517986, 0.000000)">
                    <mask id="mask-16" fill="white">
                        <use xlink:href="#path-15"></use>
                    </mask>
                    <g id="Clip-22"></g>
                    <polygon id="Fill-21" fill="#2B2C2F" mask="url(#mask-16)" points="1.39902158 0.0160611511 6.28646763 0.0160611511 6.07977698 1.03070144 2.34844604 1.03070144 1.98179137 2.78854317 5.44067626 2.78854317 5.24344604 3.74742806 1.77510072 3.74742806 1.37114388 5.71145683 5.13035252 5.71145683 4.9236259 6.72663669 0.00830215827 6.72663669"></polygon>
                </g>
            </g>
        </g>
    </g>
</svg>