<?xml version="1.0" encoding="UTF-8"?>
<svg width="100px" height="60px" viewBox="0 0 100 60" version="1.1" xmlns="http://www.w3.org/2000/svg" xmlns:xlink="http://www.w3.org/1999/xlink" style="background: #FFFFFF;">
    <!-- Generator: Sketch 63 (92445) - https://sketch.com -->
    <title>logo/samsungelectronic</title>
    <desc>Created with Sketch.</desc>
    <defs>
        <polygon id="path-1" points="0.0476576577 0.0057037037 1.77058559 0.0057037037 1.77058559 3.7590463 0.0476576577 3.7590463"></polygon>
        <polygon id="path-3" points="0.0783443046 0.193761518 4.93217494 0.193761518 4.93217494 3.66666667 0.0783443046 3.66666667"></polygon>
        <polygon id="path-5" points="0 0 51 0 51 16.6730769 0 16.6730769"></polygon>
    </defs>
    <g id="logo/samsungelectronic" stroke="none" stroke-width="1" fill="none" fill-rule="evenodd">
        <rect fill="#FFFFFF" x="0" y="0" width="100" height="60"></rect>
        <g id="Group-25" transform="translate(60.300000, 33.400000)">
            <polygon id="Fill-1" fill="#164193" points="23 6.99899977 24.0266791 7 24.0318278 2.84124943 24.9985958 2.84224966 25 2.09447874 24.0329979 2.0938786 24.0353382 0.00120027435 23.0091271 0"></polygon>
            <g id="Group-24">
                <path d="M21.2754766,1.38773148 L21.2756838,0.998453704 L22.593936,0.99987963 L22.5949721,0.24087963 L19.0656117,0.237009259 L19.0651973,0.996212963 L20.383864,0.997638889 L20.3832423,1.38650926 C20.3362063,3.02734259 20.2798459,4.21208333 18.8366477,5.47443519 L19.4261523,6.11752778 C19.4261523,6.11752778 20.6441162,5.00286111 20.8233505,4.00613889 C21.0085937,5.00347222 22.2236568,6.12099074 22.2236568,6.12099074 L22.8146117,5.47871296 C21.3697559,4.21350926 21.3179541,3.02836111 21.2754766,1.38773148" id="Fill-2" fill="#164193"></path>
                <g id="Group-6" transform="translate(4.558559, 0.000000)">
                    <mask id="mask-2" fill="white">
                        <use xlink:href="#path-1"></use>
                    </mask>
                    <g id="Clip-5"></g>
                    <polygon id="Fill-4" fill="#164193" mask="url(#mask-2)" points="1.77058559 1.48958333 0.980504505 1.48917593 0.981954955 0.00702777778 0.0518018018 0.00560185185 0.0476576577 3.75802778 0.977603604 3.7590463 0.979468468 2.25143519 1.77017117 2.25265741"></polygon>
                </g>
                <path d="M2.04871982,4.8100963 L4.63818829,4.81335556 L4.63673784,6.38248519 L2.04623333,6.37963333 L2.04871982,4.8100963 Z M1.15337748,7.13292963 L5.53290901,7.13802222 L5.53622432,4.06861481 L1.15648559,4.06413333 L1.15337748,7.13292963 Z" id="Fill-7" fill="#164193"></path>
                <polygon id="Fill-9" fill="#164193" points="10.9288748 3.76493333 11.8468027 3.76595185 11.8509468 0.0135259259 10.9214153 0.0127111111 10.9201721 1.49506296 9.74489279 1.49322963 9.74385676 2.2563037 10.930118 2.25711852"></polygon>
                <polygon id="Fill-11" fill="#164193" points="17.1619991 1.5015 16.145855 1.50048148 16.1448189 2.26966667 17.1748459 2.2712963 17.1717378 4.64362963 18.0904946 4.64505556 18.0962964 0.0201666667 17.1632423 0.0189444444"></polygon>
                <g id="Group-15" transform="translate(7.045045, 3.666667)">
                    <mask id="mask-4" fill="white">
                        <use xlink:href="#path-3"></use>
                    </mask>
                    <g id="Clip-14"></g>
                    <path d="M2.50370541,2.90037522 C1.67135405,2.89955926 0.996687387,2.46322593 0.99730858,1.92707778 C0.997723423,1.3948 1.67404775,0.958262963 2.50598468,0.959279703 C3.34123694,0.960096296 4.01383153,1.39785556 4.01341731,1.93013333 C4.01238108,2.46607778 3.33916486,2.90118889 2.50370541,2.90037522 M2.50681351,0.193761518 C1.16763333,0.192540741 0.0789666667,0.966614815 0.0783443046,1.92585556 C0.077309009,2.88631852 1.1636964,3.66528148 2.50287658,3.66670885 C3.8433,3.66792963 4.93072342,2.89161481 4.93217494,1.93135556 C4.93341712,0.971911111 3.84702973,0.194985185 2.50681351,0.193761518" id="Fill-13" fill="#164193" mask="url(#mask-4)"></path>
                </g>
                <path d="M1.97344144,1.99743704 C2.24985586,2.86806667 3.46927027,3.66373333 3.46927027,3.66373333 L3.94812613,3.01615926 C2.28922523,2.17180741 2.40961261,0.14027037 2.40961261,0.14027037 L1.54659459,0.139048148 C1.54659459,0.139048148 1.66594595,2.1711963 0,3.01167778 L0.48154955,3.66128889 C0.48154955,3.66128889 1.69785586,2.86745556 1.97344144,1.99743704" id="Fill-16" fill="#164193"></path>
                <path d="M8.17134054,2.0044037 C8.44402523,2.87482963 9.55900721,3.60408889 9.55900721,3.60408889 L10.0364126,2.94979259 C8.47987207,2.17836667 8.60108829,0.14682963 8.60108829,0.14682963 L7.74014234,0.145607407 C7.74014234,0.145607407 7.86218739,2.17755185 6.30005225,2.94612593 L6.77807928,3.60103333 C6.77807928,3.60103333 7.89368288,2.87442222 8.17134054,2.0044037" id="Fill-18" fill="#164193"></path>
                <polygon id="Fill-20" fill="#164193" points="14.5809018 4.07825 13.6886676 4.07723148 13.6849378 7.14643519 14.1590279 7.14684259 14.1590279 7.14725 18.088091 7.15112037 18.0889198 6.38682407 14.5784153 6.3829537"></polygon>
                <path d="M14.6934153,2.2475037 C15.0135505,3.14074444 16.3500369,3.85207778 16.3500369,3.85207778 L16.8156315,3.2263 C15.3633162,2.52352222 15.2143342,1.66104074 15.2093613,0.992892593 L16.5346586,0.994318519 L16.5354874,0.234096296 L12.8902982,0.23042963 L12.889055,0.990651852 L14.1849288,0.991874074 C14.179127,1.66042963 14.0274514,2.5225037 12.5728568,3.22181852 L13.041145,3.8480037 C13.041145,3.8480037 14.3772171,3.13992963 14.6934153,2.2475037" id="Fill-22" fill="#164193"></path>
            </g>
        </g>
        <g id="Group-3" transform="translate(14.000000, 19.000000)">
            <mask id="mask-6" fill="white">
                <use xlink:href="#path-5"></use>
            </mask>
            <g id="Clip-2"></g>
            <path d="M50.9690583,3.99033396 C50.2787398,0.0638739993 38.3173845,-1.1773459 24.2507139,1.22412801 C18.3447426,2.23273163 13.0111734,3.72301802 8.8552063,5.40273888 C9.49216306,5.41816095 9.96669193,5.56184327 10.2556261,5.84458129 C10.4789645,6.06640212 10.5914145,6.37124511 10.5906336,6.75088515 L10.5898527,7.13900734 L9.21259969,7.13772217 L9.21259969,6.79406696 C9.21312029,6.50978674 9.03975977,6.33063365 8.73000148,6.33037661 C8.4689195,6.33037661 8.31013583,6.44501403 8.25755502,6.67326072 C8.24532087,6.73751936 8.24037514,6.8449598 8.26510375,6.94443218 C8.41139296,7.54075236 10.4594419,7.90985399 10.6809581,9.01124709 C10.7103721,9.15235906 10.7475952,9.45411764 10.6851229,9.88670681 C10.5562739,10.773476 9.7673013,11.1135328 8.76384062,11.1125046 C7.36237959,11.1114765 6.79388202,10.4550102 6.79492323,9.55024856 L6.79492323,9.12537043 L8.27395398,9.12742671 L8.27603639,9.65948825 C8.27525549,9.95816241 8.49573051,10.1247208 8.79455615,10.1247208 C9.07776373,10.1252349 9.24565793,10.0123967 9.30500658,9.77952339 C9.32791307,9.67336812 9.34275023,9.51606297 9.29381363,9.39705597 C9.02101809,8.71899879 7.10780513,8.40233221 6.87431506,7.30556574 C6.82173424,7.06035477 6.81861063,6.8508716 6.8610397,6.58715414 C6.88602861,6.44347182 6.92897829,6.32035226 6.98390181,6.20931333 C2.37475053,8.32753515 -0.321448098,10.661923 0.0307392685,12.6814436 C0.723400452,16.610988 12.683194,17.8491235 26.7470013,15.4497058 C32.929152,14.3920086 38.4886626,12.8086757 42.7195964,11.0346232 C42.6594668,11.0384787 42.5998579,11.0425912 42.5373856,11.0425912 C41.5745319,11.0418201 40.7131956,10.6858273 40.6275566,9.71552179 C40.6108973,9.53971015 40.6101164,9.46414199 40.6075134,9.36518368 L40.6121988,7.13078224 C40.6121988,7.03747869 40.6239124,6.86757884 40.6338038,6.77993006 C40.7498981,5.84123984 41.5013873,5.4564591 42.5446741,5.45800131 C43.349525,5.45928648 44.3371073,5.68650503 44.4461735,6.78609889 C44.4591885,6.92129907 44.4586679,7.07089318 44.4586679,7.11767347 L44.4586679,7.11921568 L44.4586679,7.32946995 L43.0655365,7.32869885 L43.0655365,7.01537372 L43.0655365,7.01434558 C43.0655365,7.00637751 43.0629335,6.88916975 43.0483566,6.81565786 C43.023628,6.70410486 42.9296594,6.44347182 42.5303575,6.44295775 C42.1388647,6.44295775 42.0373472,6.70256266 42.0118377,6.81488676 C41.9993433,6.87657505 41.9915342,6.96525198 41.9915342,7.06292511 L41.9891915,9.4880462 C41.9876297,9.57106836 41.9910136,9.63789735 42.0001242,9.68699095 C42.0050699,9.72400393 42.0779542,10.0584059 42.5329605,10.059177 C42.9866653,10.0596911 43.0572069,9.7252891 43.0629335,9.68879019 C43.075428,9.62170417 43.0777707,9.54330863 43.075428,9.48907434 L43.0759486,8.73724825 L42.5261927,8.73647714 L42.5272339,7.92758938 L44.4662167,7.92990269 L44.4646548,9.3698103 C44.4646548,9.46696937 44.4633533,9.53816794 44.4466941,9.71886324 C44.4209243,9.97281338 44.3410118,10.1889794 44.2145055,10.3735303 C48.7039183,8.27715638 51.3173412,5.97901037 50.9690583,3.99033396 L50.9690583,3.99033396 Z M14.4935881,10.9109895 L13.7944194,6.18052546 L13.7696908,6.18052546 L13.0413683,10.9089333 L11.5537476,10.907391 L12.5582495,5.56749803 L14.9871189,5.57058245 L15.9747012,10.9125317 L14.4935881,10.9109895 Z M21.6474428,10.9184435 L21.6188096,6.28025487 L21.5961634,6.28025487 L20.7155649,10.9179295 L19.3203511,10.9161302 L18.4556309,6.27717046 L18.4303817,6.27665639 L18.3921174,10.9151021 L17.0088774,10.9135599 L17.1351235,5.57289576 L19.3606977,5.5754661 L20.0033811,9.54407973 L20.0356584,9.54407973 L20.6892745,5.57649424 L22.9122457,5.57880755 L23.0226134,10.9202428 L21.6474428,10.9184435 Z M28.159395,9.89107639 C28.0073791,10.9256405 26.9823135,11.1040225 26.2568543,11.1029988 C25.0506191,11.1014521 24.3051168,10.5927807 24.3061569,9.55950181 L24.3103228,9.13642292 L25.7687898,9.13822216 L25.7682692,9.66437191 C25.7682692,9.9491662 25.9741674,10.1236927 26.2875699,10.1236927 C26.5679141,10.1239497 26.732945,10.0123967 26.7907319,9.78389298 C26.8152002,9.67902288 26.829777,9.52325994 26.7816213,9.40502404 C26.5116891,8.74161783 24.6151354,8.41544097 24.3863308,7.33820913 C24.3342705,7.09197002 24.3319278,6.8858283 24.3751378,6.62159677 C24.5357436,5.64717875 25.4876646,5.44386441 26.2503468,5.44437751 C26.9370211,5.44540662 27.4336755,5.59191632 27.7322409,5.88879123 C27.9532365,6.10727061 28.0656866,6.41031436 28.0649057,6.78609889 L28.0649057,7.1729359 L26.7006677,7.1713937 L26.7014486,6.82953773 C26.7017089,6.53883164 26.5181966,6.37021697 26.2232755,6.37021697 C25.9616729,6.36944586 25.8031496,6.48331218 25.7518702,6.71001666 C25.7427597,6.75551178 25.730005,6.86732181 25.7591587,6.97810371 C25.9051876,7.56902616 27.9324124,7.93401524 28.1549698,9.02127144 C28.1820412,9.1608412 28.2216069,9.46002943 28.159395,9.89107639 L28.159395,9.89107639 Z M33.2183465,9.41247804 C33.2206892,9.51040821 33.2105375,9.7111522 33.2050712,9.76281615 C33.1207336,10.6411032 32.4816945,11.0873152 31.3095587,11.0865451 C30.1382038,11.085259 29.4973425,10.6372477 29.4161286,9.75896063 C29.4137859,9.70755372 29.4038944,9.50629565 29.4059769,9.40810845 L29.4096211,5.58420528 L30.8048349,5.58549045 L30.7996289,9.5304569 C30.7996289,9.61733458 30.8030128,9.68262136 30.8147263,9.72863055 C30.8313856,9.81550823 30.9196277,10.1021018 31.3111205,10.1026158 C31.7067781,10.103644 31.7937187,9.8167934 31.8158443,9.73017276 C31.8220915,9.68416357 31.8246945,9.61656348 31.8246945,9.53174208 L31.8291196,5.58651859 L33.2225113,5.58857487 L33.2183465,9.41247804 Z M39.2365076,10.8832298 L37.2936203,10.8809165 L35.993937,6.64961354 L35.9715511,6.64961354 L36.0387088,10.8796313 L34.6838416,10.877318 L34.6895683,5.59165928 L36.7139298,5.59397259 L37.9170414,9.65871715 L37.9441127,9.65871715 L37.8790374,5.5947437 L39.2419739,5.59602887 L39.2365076,10.8832298 Z" id="Fill-1" fill="#164193" mask="url(#mask-6)"></path>
        </g>
    </g>
</svg>