<?xml version="1.0" encoding="UTF-8"?>
<svg width="100px" height="60px" viewBox="0 0 100 60" version="1.1" xmlns="http://www.w3.org/2000/svg" xmlns:xlink="http://www.w3.org/1999/xlink">
    <!-- Generator: Sketch 55.2 (78181) - https://sketchapp.com -->
    <title>logo/samsungcnt</title>
    <desc>Created with Sketch.</desc>
    <defs>
        <polygon id="path-1" points="0 21.9096568 71.4359527 21.9096568 71.4359527 0 0 0"></polygon>
    </defs>
    <g id="logo/samsungcnt" stroke="none" stroke-width="1" fill="none" fill-rule="evenodd">
        <g transform="translate(14.000000, 19.000000)">
            <path d="M44.6359692,10.1989657 C53.6628686,5.57271716 52.5324071,1.15019645 43.3469515,0.237912426 C33.4492947,-0.745318343 18.9891763,1.38295385 8.91408757,5.45165207 L7.51728284,6.05046864 C-2.97593609,10.7420663 -1.98203077,15.7066462 7.38476213,16.6125515 C17.6187976,17.6028118 33.1768331,15.5799834 43.3640047,10.8360544 L44.6359692,10.1989657 Z" id="Fill-1" fill="#044DA1"></path>
            <path d="M42.6872509,11.1056911 C42.6872509,11.1056911 40.9631799,11.2452414 40.9219136,9.85494556 L40.9219136,7.16521775 C40.9219136,7.16521775 40.7075112,5.68314675 42.6398663,5.68314675 C42.6398663,5.68314675 43.8977716,5.64201065 44.2295941,6.38883905 C44.2295941,6.38883905 44.3938781,6.58840118 44.350529,7.4138568 L43.0099609,7.4138568 L43.0099609,6.99117041 C43.0099609,6.99117041 43.0080083,6.64932426 42.6603041,6.64932426 C42.6603041,6.64932426 42.2972391,6.66494556 42.2972391,6.95081538 L42.2972391,9.73179763 C42.2972391,9.73179763 42.2817479,10.1055373 42.6907657,10.1055373 C42.6907657,10.1055373 43.0262331,10.0978568 43.0262331,9.70550178 L43.0262331,8.90087456 L42.6610852,8.90087456 L42.6610852,8.15209349 L44.3824225,8.15209349 L44.3824225,9.73179763 C44.3824225,9.73179763 44.3781266,10.0645314 44.2402686,10.2583657 C44.2402686,10.2583657 44.1000675,10.4701645 44.046955,10.5097385 C44.046955,10.5097385 43.5832627,11.1056911 42.6872509,11.1056911" id="Fill-3" fill="#FEFEFE"></path>
            <polygon id="Fill-5" fill="#FEFEFE" points="39.1404213 5.88410178 37.7994627 5.88410178 37.8951432 8.96527337 37.837084 8.96527337 36.4765988 5.88488284 34.8500308 5.88488284 34.8500308 10.9629775 36.1744568 10.9629775 36.0950485 7.85746272 36.1544095 7.85746272 37.5624095 10.9629775 39.1404213 10.9629775"></polygon>
            <path d="M30.8360722,5.86223195 L29.3843325,5.86223195 L29.3843325,9.67109586 C29.3843325,9.67109586 29.2348888,11.1120493 31.269303,11.1120493 C31.269303,11.1120493 33.037374,11.1332497 33.037374,9.73774675 L33.037374,5.86288284 L31.6180485,5.86288284 L31.6180485,9.69153373 C31.6180485,9.69153373 31.6377053,10.1105751 31.2489953,10.1105751 C31.2489953,10.1105751 30.8407586,10.1317941 30.8407586,9.70207811 L30.8360722,5.86223195 Z" id="Fill-7" fill="#FEFEFE"></path>
            <path d="M27.7159385,7.43428166 L27.7132047,6.79797396 C27.7132047,6.79797396 27.8156544,5.75473136 26.138968,5.70851834 C26.138968,5.70851834 24.8194888,5.62168994 24.4414533,6.33219882 C24.4414533,6.33219882 24.2930509,6.49088521 24.2930509,7.04296805 L24.2930509,7.44209231 C24.2930509,7.44209231 24.2780805,7.90200947 24.5130509,8.19868402 C24.5130509,8.19868402 24.6460923,8.39264852 24.9730982,8.60718107 C24.9730982,8.60718107 25.6377846,8.96529941 26.0363882,9.16993846 C26.0363882,9.16993846 26.4391574,9.39996213 26.3859148,9.76497988 C26.3859148,9.76497988 26.3533704,10.1409325 25.9647905,10.1254414 C25.9647905,10.1254414 25.6091456,10.1098201 25.6091456,9.74167811 L25.6091456,9.3092284 L24.1847432,9.3092284 L24.1847432,9.93642367 C24.1847432,9.93642367 24.1450391,11.1374414 25.9750746,11.1374414 C25.9750746,11.1374414 27.7234888,11.1738911 27.8051101,9.90596213 L27.8051101,9.39423432 C27.8051101,9.39423432 27.866684,8.61772544 27.1865065,8.20857751 C27.1865065,8.20857751 26.8237018,7.98350059 26.5990154,7.89732308 C26.5990154,7.89732308 25.9036071,7.57422249 25.7654888,7.42139408 C25.7654888,7.42139408 25.4948497,7.16533491 25.6534059,6.86944142 C25.6534059,6.86944142 25.7196663,6.67482604 26.0059266,6.67482604 C26.0059266,6.67482604 26.3788852,6.69526391 26.3788852,7.00261302 L26.3788852,7.43428166 L27.7159385,7.43428166 Z" id="Fill-9" fill="#FEFEFE"></path>
            <polygon id="Fill-11" fill="#FEFEFE" points="17.1319077 5.88346391 17.0200852 10.9620793 18.3419077 10.9629905 18.3577893 7.13551124 18.4619314 7.13551124 19.1626769 10.9612982 20.5536237 10.9612982 21.2457775 7.13707337 21.3372923 7.13707337 21.369316 10.9620793 22.698168 10.9620793 22.5552331 5.88346391 20.3446888 5.88346391 19.8966178 8.66314438 19.7923456 8.66314438 19.3643219 5.88346391"></polygon>
            <polygon id="Fill-13" fill="#FEFEFE" points="15.6005385 10.9570805 14.7214497 5.87924615 12.4751065 5.87924615 11.5961479 10.9570805 13.0187278 10.9570805 13.539568 7.01960118 13.656858 7.01960118 14.1774379 10.9570805"></polygon>
            <path d="M10.2001373,7.43428166 L10.1972734,6.79797396 C10.1972734,6.79797396 10.2999834,5.75473136 8.62290651,5.70851834 C8.62290651,5.70851834 7.30368757,5.62168994 6.92578225,6.33219882 C6.92578225,6.33219882 6.7772497,6.49088521 6.7772497,7.04296805 L6.7772497,7.44209231 C6.7772497,7.44209231 6.76201893,7.90200947 6.9972497,8.19868402 C6.9972497,8.19868402 7.12990059,8.39264852 7.45729704,8.60718107 C7.45729704,8.60718107 8.12211361,8.96529941 8.52058698,9.16993846 C8.52058698,9.16993846 8.92322604,9.39996213 8.87011361,9.76497988 C8.87011361,9.76497988 8.83769941,10.1409325 8.44898935,10.1254414 C8.44898935,10.1254414 8.09334438,10.1098201 8.09334438,9.74167811 L8.09334438,9.3092284 L6.66894201,9.3092284 L6.66894201,9.93642367 C6.66894201,9.93642367 6.62923787,11.1374414 8.4591432,11.1374414 C8.4591432,11.1374414 10.2076876,11.1738911 10.2894391,9.90596213 L10.2894391,9.39423432 C10.2894391,9.39423432 10.351013,8.61772544 9.67070533,8.20857751 C9.67070533,8.20857751 9.30764024,7.98350059 9.0832142,7.89732308 C9.0832142,7.89732308 8.38754556,7.57422249 8.24942722,7.42139408 C8.24942722,7.42139408 7.97878817,7.16533491 8.13682367,6.86944142 C8.13682367,6.86944142 8.20373491,6.67482604 8.49012544,6.67482604 C8.49012544,6.67482604 8.86308402,6.69526391 8.86308402,7.00261302 L8.86308402,7.43428166 L10.2001373,7.43428166 Z" id="Fill-15" fill="#FEFEFE"></path>
            <mask id="mask-2" fill="white">
                <use xlink:href="#path-1"></use>
            </mask>
            <g id="Clip-18"></g>
            <polygon id="Fill-17" fill="#044DA1" mask="url(#mask-2)" points="59.4990651 16.8816805 60.4070533 16.8816805 60.4070533 14.4903195 59.4990651 14.4903195"></polygon>
            <polygon id="Fill-19" fill="#044DA1" mask="url(#mask-2)" points="63.3517988 16.8816805 64.2592663 16.8816805 64.2592663 14.4903195 63.3517988 14.4903195"></polygon>
            <polygon id="Fill-20" fill="#044DA1" mask="url(#mask-2)" points="59.9809822 15.2673491 63.9204142 15.2673491 63.9204142 14.4886272 59.9809822 14.4886272"></polygon>
            <polygon id="Fill-21" fill="#044DA1" mask="url(#mask-2)" points="59.9809822 16.8816805 63.9204142 16.8816805 63.9204142 16.1032189 59.9809822 16.1032189"></polygon>
            <polygon id="Fill-22" fill="#044DA1" mask="url(#mask-2)" points="58.9576568 18.1121183 64.7868757 18.1121183 64.7868757 17.3333964 58.9576568 17.3333964"></polygon>
            <polygon id="Fill-23" fill="#044DA1" mask="url(#mask-2)" points="61.3906746 19.0628047 62.2982722 19.0628047 62.2982722 17.7888876 61.3906746 17.7888876"></polygon>
            <polygon id="Fill-24" fill="#044DA1" mask="url(#mask-2)" points="63.3502367 20.4843432 64.2577041 20.4843432 64.2577041 18.5816686 63.3502367 18.5816686"></polygon>
            <polygon id="Fill-25" fill="#044DA1" mask="url(#mask-2)" points="59.4981538 21.717645 60.4057515 21.717645 60.4057515 19.716426 59.4981538 19.716426"></polygon>
            <polygon id="Fill-26" fill="#044DA1" mask="url(#mask-2)" points="59.4804497 19.3615621 63.9178107 19.3615621 63.9178107 18.5828402 59.4804497 18.5828402"></polygon>
            <polygon id="Fill-27" fill="#044DA1" mask="url(#mask-2)" points="59.5852426 20.4955385 64.2577041 20.4955385 64.2577041 19.717858 59.5852426 19.717858"></polygon>
            <polygon id="Fill-28" fill="#044DA1" mask="url(#mask-2)" points="59.5852426 21.7177751 64.2577041 21.7177751 64.2577041 20.9398343 59.5852426 20.9398343"></polygon>
            <polygon id="Fill-29" fill="#044DA1" mask="url(#mask-2)" points="69.6802485 19.3792663 70.587716 19.3792663 70.587716 14.3002604 69.6802485 14.3002604"></polygon>
            <polygon id="Fill-30" fill="#044DA1" mask="url(#mask-2)" points="69.9353964 16.7504615 71.4359527 16.7504615 71.4359527 15.9721302 69.9353964 15.9721302"></polygon>
            <polygon id="Fill-31" fill="#044DA1" mask="url(#mask-2)" points="66.154 21.6998107 67.0614675 21.6998107 67.0614675 18.5237396 66.154 18.5237396"></polygon>
            <polygon id="Fill-32" fill="#044DA1" mask="url(#mask-2)" points="66.2412189 21.6999408 70.6216923 21.6999408 70.6216923 20.922 66.2412189 20.922"></polygon>
            <path d="M67.0564947,16.2949964 C66.7771337,17.1847598 65.6474533,17.929245 65.6474533,17.929245 L65.1637136,17.261174 C66.7435479,16.4694343 66.6201396,14.3923219 66.6201396,14.3923219 L67.4929799,14.3923219 C67.4929799,14.3923219 67.3689207,16.4694343 68.9484947,17.261174 L68.4646249,17.929245 C68.4646249,17.929245 67.3357254,17.1847598 67.0564947,16.2949964" id="Fill-33" fill="#044DA1" mask="url(#mask-2)"></path>
            <polygon id="Fill-34" fill="#044DA1" mask="url(#mask-2)" points="50.9077527 14.3676272 50.9077527 18.2039586 51.8322734 18.2039586 51.8322734 16.7738284 52.6516107 16.7738284 52.6516107 15.9889882 51.8491964 15.9889882 51.8491964 14.3676272"></polygon>
            <path d="M47.4197633,21.6573728 L51.8491834,21.6573728 L51.8491834,18.5178817 L47.4197633,18.5178817 L47.4197633,21.6573728 Z M48.3246272,20.8910178 L50.9445799,20.8910178 L50.9445799,19.2843669 L48.3246272,19.2843669 L48.3246272,20.8910178 Z" id="Fill-35" fill="#044DA1" mask="url(#mask-2)"></path>
            <path d="M55.9301444,21.9096568 C54.5545586,21.9096568 53.4391976,21.070142 53.4391976,20.0353609 C53.4391976,19.0000592 54.5545586,18.1609349 55.9301444,18.1609349 C57.3057302,18.1609349 58.4216118,19.0000592 58.4216118,20.0353609 C58.4216118,21.070142 57.3057302,21.9096568 55.9301444,21.9096568 M57.4792568,20.0353609 C57.4792568,19.4572426 56.7858012,18.988213 55.9301444,18.988213 C55.0744876,18.988213 54.3809018,19.4572426 54.3809018,20.0353609 C54.3809018,20.6133491 55.0744876,21.0821183 55.9301444,21.0821183 C56.7858012,21.0821183 57.4792568,20.6133491 57.4792568,20.0353609" id="Fill-36" fill="#044DA1" mask="url(#mask-2)"></path>
            <path d="M48.6843077,14.5072166 C48.6843077,14.5072166 48.5608994,16.5819858 50.2422722,17.4424592 L49.7587929,18.1100095 C49.7587929,18.1100095 48.5274438,17.2975716 48.248213,16.4076781 C47.9691124,17.2975716 46.7376331,18.1100095 46.7376331,18.1100095 L46.2541538,17.4424592 C47.9353964,16.5819858 47.8121183,14.5072166 47.8121183,14.5072166 L48.6843077,14.5072166 Z" id="Fill-37" fill="#044DA1" mask="url(#mask-2)"></path>
            <path d="M54.5126805,16.407626 C54.2335799,17.2975195 53.105071,18.0412237 53.105071,18.0412237 L52.6219822,17.3728923 C54.1998639,16.5819337 54.0763254,14.5071645 54.0763254,14.5071645 L54.9483846,14.5071645 C54.9483846,14.5071645 54.8249763,16.5819337 56.4032485,17.3728923 L55.9202899,18.0412237 C55.9202899,18.0412237 54.7917811,17.2975195 54.5126805,16.407626" id="Fill-38" fill="#044DA1" mask="url(#mask-2)"></path>
            <polygon id="Fill-39" fill="#044DA1" mask="url(#mask-2)" points="58.2404047 14.3620296 58.2404047 18.2012249 57.3156237 18.2012249 57.3156237 16.4386213 56.1114817 16.4386213 56.1114817 15.6532604 57.2980497 15.6532604 57.2980497 14.3620296"></polygon>
        </g>
    </g>
</svg>