<?xml version="1.0" encoding="UTF-8"?>
<svg width="100px" height="60px" viewBox="0 0 100 60" version="1.1" xmlns="http://www.w3.org/2000/svg" xmlns:xlink="http://www.w3.org/1999/xlink">
    <title>logo/samsung_fire</title>
    <defs>
        <polygon id="path-1" points="0.000110763699 0.816 41.916356 0.816 41.916356 14.7333333 0.000110763699 14.7333333"></polygon>
    </defs>
    <g id="logo/samsung_fire" stroke="none" stroke-width="1" fill="none" fill-rule="evenodd">
        <g id="Group-6" transform="translate(10.000000, 22.000000)">
            <g id="Group-3" transform="translate(0.000000, 0.317673)">
                <mask id="mask-2" fill="white">
                    <use xlink:href="#path-1"></use>
                </mask>
                <g id="Clip-2"></g>
                <path d="M41.8902667,4.12986667 C41.3236,0.855666667 31.4885333,-0.165466667 19.9251333,1.84733333 C15.0699333,2.6928 10.6850667,3.9406 7.2726,5.34253333 C7.79733333,5.3584 8.18606667,5.47626667 8.4218,5.712 C8.6054,5.89673333 8.70173333,6.15173333 8.70173333,6.46793333 L8.70173333,6.79206667 L7.56613333,6.79206667 L7.56613333,6.50533333 C7.56613333,6.26846667 7.4222,6.11773333 7.16946667,6.11773333 C6.9564,6.11773333 6.82493333,6.2152 6.78186667,6.4022 C6.77166667,6.45546667 6.76713333,6.5484 6.78866667,6.63113333 C6.9088,7.12753333 8.5918,7.43353333 8.77426667,8.34926667 C8.80033333,8.466 8.83206667,8.71873333 8.77993333,9.078 C8.67453333,9.81693333 8.0274,10.1036667 7.20233333,10.1036667 C6.0486,10.1036667 5.58166667,9.55626667 5.58166667,8.80486667 L5.58393333,8.44786667 L6.79546667,8.44786667 L6.8,8.891 C6.8,9.14146667 6.97906667,9.27973333 7.22613333,9.27973333 C7.4596,9.27973333 7.5956,9.18453333 7.64433333,8.993 C7.66473333,8.90233333 7.6772,8.77426667 7.63526667,8.6734 C7.40973333,8.109 5.84006667,7.84606667 5.64513333,6.93486667 C5.60093333,6.72746667 5.59753333,6.55406667 5.6338,6.33306667 C5.6542,6.21406667 5.6916,6.11093333 5.73466667,6.018 C1.94706667,7.7894 -0.267466667,9.73646667 0.0260666667,11.4217333 C0.595,14.6936667 10.4300667,15.7148 21.9889333,13.7008667 C27.0708,12.8168667 31.6415333,11.4897333 35.1197333,10.0073333 C35.0687333,10.0096 35.0177333,10.0152667 34.9667333,10.0152667 C34.1756667,10.0152667 33.4696,9.7206 33.3959333,8.9114 C33.3857333,8.7618 33.3800667,8.7006 33.3800667,8.61673333 L33.3800667,6.75693333 C33.3800667,6.6776 33.3902667,6.5382 33.3993333,6.46453333 C33.4934,5.68366667 34.1110667,5.36066667 34.9701333,5.36066667 C35.632,5.36066667 36.4434667,5.54993333 36.5307333,6.46566667 C36.5443333,6.579 36.5443333,6.70253333 36.5443333,6.74446667 L36.5443333,6.92013333 L35.3985333,6.92013333 L35.3985333,6.6572 L35.3985333,6.65606667 C35.3985333,6.65153333 35.3951333,6.55406667 35.3849333,6.49173333 C35.3645333,6.3988 35.2840667,6.18233333 34.9588,6.18233333 C34.6358,6.18233333 34.5530667,6.3988 34.5326667,6.49173333 C34.5202,6.54273333 34.5134,6.6164 34.5134,6.698 L34.5134,8.71873333 C34.5134,8.78786667 34.5168,8.84226667 34.5247333,8.8842 C34.5292667,8.91706667 34.5870667,9.1936 34.9622,9.1936 C35.3362,9.1936 35.3928667,8.91706667 35.3985333,8.8842 C35.4076,8.82866667 35.4098667,8.76406667 35.4076,8.71873333 L35.4076,8.09313333 L34.9576667,8.09313333 L34.9576667,7.4188 L36.55,7.4188 L36.55,8.61673333 C36.55,8.69946667 36.5488667,8.7584 36.533,8.9114 C36.516,9.12333333 36.4491333,9.30126667 36.3426,9.45426667 C40.0327333,7.70326667 42.1804,5.78566667 41.8902667,4.12986667 L41.8902667,4.12986667 Z M11.9136,9.92913333 L11.3333333,5.98966667 L11.3129333,5.98966667 L10.7179333,9.92913333 L9.49506667,9.92913333 L10.3167333,5.47966667 L12.3125333,5.47966667 L13.1262667,9.92913333 L11.9136,9.92913333 Z M17.7933333,9.92913333 L17.7638667,6.06446667 L17.748,6.06446667 L17.0283333,9.92913333 L15.8802667,9.92913333 L15.1628667,6.06446667 L15.1424667,6.06446667 L15.1175333,9.92913333 L13.9819333,9.92913333 L14.0794,5.47966667 L15.9097333,5.47966667 L16.4401333,8.78446667 L16.4673333,8.78446667 L17,5.47966667 L18.8280667,5.47966667 L18.9255333,9.92913333 L17.7933333,9.92913333 Z M23.1449333,9.06666667 C23.0248,9.92913333 22.1782,10.0787333 21.5820667,10.0787333 C20.5926667,10.0787333 19.9795333,9.65486667 19.9795333,8.79353333 L19.9795333,8.4422 L21.1808667,8.4422 L21.1808667,8.87966667 C21.1808667,9.11993333 21.3474667,9.265 21.6081333,9.265 C21.8404667,9.265 21.9742,9.16866667 22.0206667,8.9794 C22.0410667,8.891 22.0524,8.7618 22.0127333,8.66433333 C21.7928667,8.11013333 20.2311333,7.8404 20.0418667,6.94166667 C19.9988,6.7388 19.9942667,6.56426667 20.0316667,6.3478 C20.1642667,5.53293333 20.9428667,5.36406667 21.573,5.36406667 C22.1351333,5.36406667 22.5454,5.48646667 22.7902,5.73353333 C22.9749333,5.91486667 23.0656,6.1676 23.0656,6.47926667 L23.0656,6.80113333 L21.9424667,6.80113333 L21.9424667,6.51893333 C21.9424667,6.2764 21.7928667,6.137 21.5503333,6.137 C21.3372667,6.137 21.2080667,6.23106667 21.1672667,6.4192 C21.1559333,6.45886667 21.148,6.55293333 21.1706667,6.64246667 C21.2896667,7.13546667 22.9579333,7.43806667 23.1415333,8.34586667 C23.1653333,8.46033333 23.1970667,8.70853333 23.1449333,9.06666667 L23.1449333,9.06666667 Z M27.3054,8.66206667 C27.3065333,8.74593333 27.2974667,8.91253333 27.2929333,8.95673333 C27.2238,9.68773333 26.7002,10.0594667 25.7402667,10.0594667 C24.7724,10.0594667 24.2488,9.68773333 24.1808,8.95673333 C24.1762667,8.91253333 24.1660667,8.74593333 24.1683333,8.6632 L24.1683333,5.47853333 L25.3175333,5.47853333 L25.3175333,8.76406667 C25.3175333,8.8366 25.3209333,8.891 25.3288667,8.92726667 C25.3413333,9.0032 25.415,9.24233333 25.7402667,9.24233333 C26.061,9.24233333 26.1335333,9.0032 26.1505333,8.92953333 C26.1550667,8.891 26.1618667,8.8332 26.1618667,8.76406667 L26.1618667,5.47853333 L27.3054,5.47853333 L27.3054,8.66206667 Z M32.2535333,9.88493333 L30.6544,9.88493333 L29.5822667,6.3614 L29.5641333,6.3614 L29.6219333,9.88493333 L28.509,9.88493333 L28.509,5.47966667 L30.1772667,5.47966667 L31.1666667,8.86606667 L31.1893333,8.86606667 L31.1315333,5.47966667 L32.2535333,5.47966667 L32.2535333,9.88493333 Z" id="Fill-1" fill="#004098" mask="url(#mask-2)"></path>
            </g>
            <path d="M51.8743667,6.07784 C51.8743667,6.07784 52.7493,7.73590667 53.6242333,8.01584 L54.2713667,7.36757333 C54.2713667,7.36757333 52.3787,6.19117333 52.4716333,3.65364 L51.2737,3.65364 C51.2737,3.65364 51.5479667,6.12204 49.4286333,7.32110667 L50.0735,8.06117333 C50.0735,8.06117333 51.3179,7.36757333 51.8743667,6.07784 L51.8743667,6.07784 Z M59.6229667,6.07784 C59.6229667,6.07784 60.5001667,7.73590667 61.3762333,8.01584 L62.0211,7.36757333 C62.0211,7.36757333 60.1307,6.19117333 60.2236333,3.65364 L59.0223,3.65364 C59.0223,3.65364 59.2988333,6.12204 57.1795,7.32110667 L57.8221,8.06117333 C57.8221,8.06117333 59.0687667,7.36757333 59.6229667,6.07784 L59.6229667,6.07784 Z M56.3465,6.07784 L57.3155,6.07784 L57.3155,5.01477333 L56.3465,5.01477333 L56.3465,3.47004 L55.1927667,3.47004 L55.1927667,8.15184 L56.3465,8.15184 L56.3465,6.07784 Z M50.8577667,12.5797733 L56.3929667,12.5797733 L56.3929667,8.61310667 L50.8577667,8.61310667 L50.8577667,12.5797733 Z M52.0092333,11.5201067 L55.1939,11.5201067 L55.1939,9.62970667 L52.0092333,9.62970667 L52.0092333,11.5201067 Z M63.0830333,8.24477333 L64.3274333,8.24477333 L64.3274333,3.49384 L63.0830333,3.49384 L63.0830333,5.01477333 L61.6516333,5.01477333 L61.6516333,6.07784 L63.0830333,6.07784 L63.0830333,8.24477333 Z M61.3762333,8.24477333 C59.6943667,8.24477333 58.3298333,9.27837333 58.3298333,10.5511067 C58.3298333,11.8249733 59.6943667,12.8563067 61.3762333,12.8563067 C63.0569667,12.8563067 64.4192333,11.8249733 64.4192333,10.5511067 C64.4192333,9.27837333 63.0569667,8.24477333 61.3762333,8.24477333 L61.3762333,8.24477333 Z M61.3762333,11.84424 C60.3313,11.84424 59.4835667,11.26624 59.4835667,10.5511067 C59.4835667,9.83710667 60.3313,9.25910667 61.3762333,9.25910667 C62.4200333,9.25910667 63.2655,9.83710667 63.2655,10.5511067 C63.2655,11.26624 62.4200333,11.84424 61.3762333,11.84424 L61.3762333,11.84424 Z M69.9544333,4.23050667 L68.2941,4.23050667 L68.2941,3.42357333 L67.0961667,3.42357333 L67.0961667,4.18630667 L65.2964333,4.18630667 L65.2964333,5.15530667 L69.9544333,5.15530667 L69.9544333,4.23050667 Z M72.8149667,6.96864 L71.7088333,6.96864 L71.7088333,3.49384 L70.6015667,3.49384 L70.6015667,12.5797733 L71.7088333,12.5797733 L71.7088333,7.89117333 L72.8149667,7.89117333 L72.8149667,6.96864 Z M75.4907667,4.93430667 L76.8745667,4.93430667 L76.8745667,3.90864 L73.1844333,3.90864 L73.1844333,4.93430667 L74.4764333,4.93430667 C74.4764333,4.93430667 74.7518333,9.16844 72.6325,10.5987067 L73.3691667,11.3829733 C73.3691667,11.3829733 74.5217667,10.64404 74.9377,9.21264 C74.9377,9.21264 75.7684333,10.9217067 76.4597667,11.3829733 L77.2429,10.5987067 C77.2429,10.5987067 75.3649667,9.43930667 75.4907667,4.93430667 L75.4907667,4.93430667 Z M79.0902333,3.49384 L79.0902333,6.73857333 L78.5349,6.73857333 L78.5349,3.49384 L77.4276333,3.49384 L77.4276333,12.5797733 L78.5349,12.5797733 L78.5349,7.65997333 L79.0902333,7.65997333 L79.0902333,12.5797733 L80.2428333,12.5797733 L80.2428333,3.49384 L79.0902333,3.49384 Z M68.2487667,9.45177333 C69.2653667,9.24324 70.0213,8.47144 70.0213,7.55004 C70.0213,6.46997333 68.9843,5.59277333 67.7013667,5.59277333 C66.4195667,5.59277333 65.3825667,6.46997333 65.3825667,7.55004 C65.3825667,8.45557333 66.1101667,9.21264 67.0961667,9.43817333 L67.0961667,10.1839067 L65.2488333,10.1839067 L65.2488333,11.1495067 L70.1403,11.1495067 L70.1403,10.2281067 L68.2487667,10.2281067 L68.2487667,9.45177333 Z M66.4660333,7.55004 C66.4660333,6.96864 67.0202333,6.49717333 67.7013667,6.49717333 C68.3859,6.49717333 68.9344333,6.96864 68.9344333,7.55004 C68.9344333,8.13370667 68.3859,8.60404 67.7013667,8.60404 C67.0202333,8.60404 66.4660333,8.13370667 66.4660333,7.55004 L66.4660333,7.55004 Z" id="Fill-4" fill="#004098"></path>
        </g>
    </g>
</svg>