<?xml version="1.0" encoding="UTF-8"?>
<svg width="100px" height="60px" viewBox="0 0 100 60" version="1.1" xmlns="http://www.w3.org/2000/svg" xmlns:xlink="http://www.w3.org/1999/xlink">
    <title>seedmoneybank</title>
    <defs>
        <path d="M11.7186835,0.233012658 C2.66886076,0.233012658 0.279189873,3.42592405 0.279189873,7.32789873 L0.279189873,7.32789873 L0.279189873,8.74177215 L0.279189873,16.4746329 C0.279189873,20.3763038 2.66886076,23.5692152 11.7186835,23.5692152 L11.7186835,23.5692152 L12.1813671,23.5692152 C21.2314937,23.5692152 23.6202532,20.3763038 23.6202532,16.4746329 L23.6202532,16.4746329 L23.6202532,7.32789873 C23.6202532,3.42592405 21.2305823,0.233012658 12.1813671,0.233012658 L12.1813671,0.233012658 L11.7186835,0.233012658 Z" id="path-1"></path>
        <linearGradient x1="50%" y1="0%" x2="50%" y2="100%" id="linearGradient-3">
            <stop stop-color="#95C51B" offset="0%"></stop>
            <stop stop-color="#00974C" offset="64.534306%"></stop>
            <stop stop-color="#007260" offset="100%"></stop>
        </linearGradient>
    </defs>
    <g id="seedmoneybank" stroke="none" stroke-width="1" fill="none" fill-rule="evenodd">
        <g id="Group-56" transform="translate(14.000000, 18.000000)">
            <g id="Group-27" transform="translate(0.607595, 2.501013)" fill="#007260">
                <path d="M2.14231899,1.16943797 C1.92874937,1.04002025 1.65047089,0.962248101 1.37219241,0.962248101 C0.945053165,0.962248101 0.666774684,1.25358987 0.666774684,1.63546329 C0.666774684,1.92680506 0.783129114,2.10786835 1.43052152,2.48336203 C2.12955949,2.88467848 2.36226835,3.27931139 2.36226835,3.79698228 C2.36226835,4.51546329 1.91568608,5.0784 1.0483443,5.0784 C0.686217722,5.0784 0.34323038,5.00093165 0.103534177,4.88427342 L0.103534177,4.29551392 C0.362673418,4.45075443 0.698977215,4.5868557 0.964496203,4.5868557 C1.47578734,4.5868557 1.76682532,4.24356456 1.76682532,3.87475443 C1.76682532,3.52508354 1.67629367,3.32457722 1.06778734,2.95576709 C0.252394937,2.46391899 0.0713316456,2.18564051 0.0713316456,1.60295696 C0.0713316456,0.858956962 0.640951899,0.4704 1.32692658,0.4704 C1.6246481,0.4704 1.94150886,0.535108861 2.14231899,0.619260759 L2.14231899,1.16943797 Z" id="Fill-1"></path>
                <path d="M5.32001013,3.5446481 L5.32001013,3.25361013 C5.32001013,2.28267342 4.90563038,1.68723038 4.16163038,1.68723038 C3.33955443,1.68723038 2.88659241,2.34738228 2.88659241,3.38272405 C2.88659241,4.41836962 3.33955443,5.07852152 4.21327595,5.07852152 C4.5432,5.07852152 4.87980759,5.00712911 5.13864304,4.88439494 L5.11282025,4.39254684 C4.92507342,4.5283443 4.6273519,4.66444557 4.35575696,4.66444557 C3.75363038,4.66444557 3.45590886,4.30839494 3.45590886,3.5446481 L5.32001013,3.5446481 Z M3.45590886,3.13057215 C3.46897215,2.36044557 3.77975696,2.10161013 4.12912405,2.10161013 C4.56264304,2.10161013 4.77621266,2.44429367 4.77621266,3.13057215 L3.45590886,3.13057215 Z" id="Fill-3"></path>
                <path d="M8.19347848,3.5446481 L8.19347848,3.25361013 C8.19347848,2.28267342 7.77940253,1.68723038 7.03509873,1.68723038 C6.21302278,1.68723038 5.76006076,2.34738228 5.76006076,3.38272405 C5.76006076,4.41836962 6.21302278,5.07852152 7.0867443,5.07852152 C7.41666835,5.07852152 7.75327595,5.00712911 8.01211139,4.88439494 L7.98628861,4.39254684 C7.79854177,4.5283443 7.50082025,4.66444557 7.22922532,4.66444557 C6.62709873,4.66444557 6.32937722,4.30839494 6.32937722,3.5446481 L8.19347848,3.5446481 Z M6.32937722,3.13057215 C6.34244051,2.36044557 6.65322532,2.10161013 7.00259241,2.10161013 C7.43611139,2.10161013 7.64968101,2.44429367 7.64968101,3.13057215 L6.32937722,3.13057215 Z" id="Fill-5"></path>
                <path d="M11.1705114,0.179118987 L10.6267139,0.179118987 L10.6267139,2.18539747 L10.6139544,2.18539747 C10.3940051,1.83603038 10.1479291,1.68716962 9.77243544,1.68716962 C9.0931443,1.68716962 8.63349873,2.24372658 8.63349873,3.38266329 C8.63349873,4.5219038 9.0931443,5.07846076 9.77243544,5.07846076 C10.2515241,5.07846076 10.4976,4.80656203 10.6397772,4.54772658 L10.6528405,4.54772658 L10.6722835,5.03319494 L11.1963342,5.03319494 C11.1899544,4.83238481 11.1705114,4.62549873 11.1705114,4.42499241 L11.1705114,0.179118987 Z M10.6267139,3.38266329 C10.6267139,4.21111899 10.4003848,4.63825823 9.90215696,4.63825823 C9.40362532,4.63825823 9.17699241,4.21111899 9.17699241,3.38266329 C9.17699241,2.55451139 9.40362532,2.12737215 9.90215696,2.12737215 C10.4003848,2.12737215 10.6267139,2.55451139 10.6267139,3.38266329 L10.6267139,3.38266329 Z" id="Fill-7"></path>
                <polygon id="Fill-9" points="13.5649823 0.515726582 14.4450835 0.515726582 15.5776405 4.10782785 15.5907038 4.10782785 16.7490835 0.515726582 17.6036658 0.515726582 17.6036658 5.03319494 17.0598684 5.03319494 17.0598684 1.13699241 17.0468051 1.13699241 15.7656911 5.03319494 15.3513114 5.03319494 14.121843 1.13699241 14.1087797 1.13699241 14.1087797 5.03319494 13.5649823 5.03319494"></polygon>
                <path d="M18.3349671,3.38281519 C18.3349671,4.41846076 18.7879291,5.07861266 19.6616506,5.07861266 C20.5353722,5.07861266 20.9883342,4.41846076 20.9883342,3.38281519 C20.9883342,2.34716962 20.5353722,1.68701772 19.6616506,1.68701772 C18.7879291,1.68701772 18.3349671,2.34716962 18.3349671,3.38281519 M18.9045873,3.38281519 C18.9045873,2.55435949 19.1439797,2.12722025 19.6616506,2.12722025 C20.1793215,2.12722025 20.4190177,2.55435949 20.4190177,3.38281519 C20.4190177,4.21127089 20.1793215,4.63841013 19.6616506,4.63841013 C19.1439797,4.63841013 18.9045873,4.21127089 18.9045873,3.38281519" id="Fill-11"></path>
                <path d="M21.6162228,2.44441519 C21.6162228,2.20471899 21.5967797,1.96532658 21.5904,1.73231392 L22.1147544,1.73231392 L22.1341975,2.22416203 L22.146957,2.22416203 C22.3216405,1.84897215 22.599919,1.6870481 22.9817924,1.6870481 C23.5577924,1.6870481 23.9460456,2.01727595 23.9460456,2.74213671 L23.9460456,5.03307342 L23.4025519,5.03307342 L23.4025519,2.90375696 C23.4025519,2.37970633 23.2084253,2.15307342 22.8587544,2.15307342 C22.431919,2.15307342 22.1600203,2.45079494 22.1600203,3.04623797 L22.1600203,5.03307342 L21.6162228,5.03307342 L21.6162228,2.44441519 Z" id="Fill-13"></path>
                <path d="M27.0074127,3.5446481 L27.0074127,3.25330633 C27.0074127,2.28267342 26.5933367,1.68723038 25.8490329,1.68723038 C25.026957,1.68723038 24.5739949,2.34738228 24.5739949,3.38272405 C24.5739949,4.41836962 25.026957,5.07852152 25.9006785,5.07852152 C26.2306025,5.07852152 26.5675139,5.00712911 26.8260456,4.88439494 L26.8002228,4.39254684 C26.6124759,4.5283443 26.3150582,4.66444557 26.0431595,4.66444557 C25.4413367,4.66444557 25.1433114,4.30839494 25.1433114,3.5446481 L27.0074127,3.5446481 Z M25.1433114,3.13026835 C25.1563747,2.36014177 25.4671595,2.10130633 25.8165266,2.10130633 C26.2503494,2.10130633 26.4636152,2.44429367 26.4636152,3.13026835 L25.1433114,3.13026835 Z" id="Fill-15"></path>
                <path d="M28.6447899,5.70622785 C28.4828658,6.26946835 28.2498532,6.46997468 27.8357772,6.46997468 C27.7063595,6.46997468 27.5638785,6.45691139 27.4669671,6.43108861 L27.4927899,5.93924051 C27.576638,5.97812658 27.674157,6.00394937 27.7902076,6.00394937 C27.9457519,6.00394937 28.0624101,5.93286076 28.1529418,5.58987342 L28.2823595,5.08496203 L27.2403342,1.73225316 L27.8099544,1.73225316 L28.5478785,4.42481013 L28.560638,4.42481013 L29.2469165,1.73225316 L29.7904101,1.73225316 L28.6447899,5.70622785 Z" id="Fill-17"></path>
                <path d="M32.4696911,2.93614177 L33.0201722,2.93614177 C33.5700456,2.93614177 33.828881,3.29219241 33.828881,3.75821772 C33.828881,4.18535696 33.5636658,4.56723038 32.9551595,4.56723038 L32.4696911,4.56723038 L32.4696911,2.93614177 Z M31.9003747,5.0329519 L32.9876658,5.0329519 C33.9710582,5.0329519 34.3985013,4.42474937 34.3985013,3.7968 C34.3985013,3.16277468 34.0488304,2.74839494 33.5569823,2.67730633 L33.5569823,2.66424304 C34.0099443,2.53482532 34.3012861,2.1529519 34.3012861,1.6611038 C34.3012861,0.994572152 33.9194127,0.515787342 33.0456911,0.515787342 L31.9003747,0.515787342 L31.9003747,5.0329519 Z M32.4696911,0.981508861 L32.9035139,0.981508861 C33.498957,0.981508861 33.7316658,1.30535696 33.7316658,1.69361013 C33.7316658,2.17907848 33.4406278,2.47011646 32.8062987,2.47011646 L32.4696911,2.47011646 L32.4696911,0.981508861 Z" id="Fill-19"></path>
                <path d="M35.3433114,2.47020759 C35.5310582,2.26301772 35.8549063,2.12722025 36.1912101,2.12722025 C36.417843,2.12722025 36.6311089,2.18554937 36.7413873,2.33441013 C36.8446785,2.47658734 36.8644253,2.61906835 36.8644253,2.86484051 L36.8644253,3.01400506 L36.5472608,3.01400506 C35.4144,3.01400506 34.9939443,3.48641013 34.9939443,4.12711899 C34.9939443,4.7614481 35.4016405,5.07830886 35.9451342,5.07830886 C36.4503494,5.07830886 36.7219443,4.83891646 36.8708051,4.58646076 L36.8835646,4.58646076 L36.9160709,5.03304304 L37.407919,5.03304304 C37.3951595,4.91668861 37.3820962,4.72256203 37.3820962,4.52813165 L37.3820962,2.80681519 C37.3820962,2.34078987 37.2396152,2.14028354 37.0971342,1.99780253 C36.993843,1.89420759 36.7025013,1.68701772 36.2170329,1.68701772 C35.8934886,1.68701772 35.556881,1.78423291 35.2852861,1.95891646 L35.3433114,2.47020759 Z M36.8644253,3.82939747 C36.8644253,4.28235949 36.5664,4.66423291 36.0942987,4.66423291 C35.7188051,4.66423291 35.5377418,4.4376 35.5377418,4.08823291 C35.5377418,3.70635949 35.841843,3.40225823 36.4825519,3.40225823 C36.6311089,3.40225823 36.7672101,3.40225823 36.8644253,3.41501772 L36.8644253,3.82939747 Z" id="Fill-21"></path>
                <path d="M38.1522532,2.44426329 C38.1522532,2.20487089 38.1328101,1.96547848 38.1264304,1.73246582 L38.6507848,1.73246582 L38.6699241,2.22431392 L38.6829873,2.22431392 C38.8576709,1.84882025 39.1359494,1.6872 39.5178228,1.6872 C40.0938228,1.6872 40.4820759,2.01712405 40.4820759,2.74198481 L40.4820759,5.03292152 L39.9385823,5.03292152 L39.9385823,2.90390886 C39.9385823,2.37955443 39.7441519,2.15322532 39.3947848,2.15322532 C38.9679494,2.15322532 38.6957468,2.45064304 38.6957468,3.04608608 L38.6957468,5.03292152 L38.1522532,5.03292152 L38.1522532,2.44426329 Z" id="Fill-23"></path>
                <polygon id="Fill-25" points="42.9480304 1.73237468 43.5823595 1.73237468 42.2878785 3.20791899 43.6987139 5.03313418 43.0258025 5.03313418 41.8282329 3.36984304 41.8151696 3.36984304 41.8151696 5.03313418 41.2716759 5.03313418 41.2716759 0.179058228 41.8151696 0.179058228 41.8151696 3.05905823"></polygon>
            </g>
            <g id="Group-30" transform="translate(49.215190, 0.070633)">
                <mask id="mask-2" fill="white">
                    <use xlink:href="#path-1"></use>
                </mask>
                <g id="Clip-29"></g>
                <path d="M11.7186835,0.233012658 C2.66886076,0.233012658 0.279189873,3.42592405 0.279189873,7.32789873 L0.279189873,8.74177215 L0.279189873,16.4746329 C0.279189873,20.3763038 2.66886076,23.5692152 11.7186835,23.5692152 L12.1813671,23.5692152 C21.2314937,23.5692152 23.6202532,20.3763038 23.6202532,16.4746329 L23.6202532,7.32789873 C23.6202532,3.42592405 21.2305823,0.233012658 12.1813671,0.233012658 L11.7186835,0.233012658 Z" id="Fill-28" fill="url(#linearGradient-3)" mask="url(#mask-2)"></path>
            </g>
            <g id="Group-55" transform="translate(0.000000, 4.020000)">
                <path d="M63.2458025,2.10753418 C63.2831696,2.10814177 63.4608911,2.10905316 63.4982582,2.11087595 C64.940081,2.1764962 66.0519797,3.40596456 66.0519797,4.81315443 C66.0519797,6.68454684 64.2899544,7.57467342 64.1055494,7.6369519 C64.1875747,7.6369519 66.6258532,8.37426835 66.6258532,10.647281 C66.6258532,12.3932051 65.0470177,13.6591291 63.2458025,13.6591291 L63.2458025,2.10753418 Z M61.3965873,19.6266228 C62.0473215,19.6266228 62.6622076,19.6099139 63.2458025,19.5774076 L63.2458025,15.6265215 C64.9011949,15.613762 67.1259038,14.9490532 68.1159797,12.807281 C69.2895494,10.2672304 68.1308658,8.32292658 67.0107646,7.36961013 C67.7146633,6.49285063 68.1533468,4.8769519 67.556081,3.1723443 C66.5395747,0.277458228 63.6541063,0.125559494 62.6734481,0.121913924 C62.3787646,0.121913924 61.4126886,0.122825316 61.3804861,0.122825316 L61.3804861,15.2786734 L61.3804861,19.6266228 L61.3965873,19.6266228 Z" id="Fill-31" fill="#FEFEFE"></path>
                <path d="M57.5119291,7.48897215 C56.9614481,7.01322532 56.040638,6.0307443 56.0819544,4.80370633 C56.1187139,3.69666835 56.6473215,2.8393519 57.5328911,2.45170633 C58.3245873,2.10598481 59.2879291,2.10082025 59.8721316,2.10203544 C59.9222582,2.10203544 59.9657013,2.09960506 60.0097519,2.09960506 L60.0118785,0.127655696 C59.9669165,0.127655696 59.9599291,0.129782278 59.9098025,0.129782278 C59.1539544,0.126744304 57.8989671,0.121883544 56.7603342,0.62041519 C55.1447392,1.32644051 54.143119,2.88036456 54.0805367,4.77545316 C54.0301063,6.29413671 54.7777519,7.80006076 56.1876759,9.01525063 C57.5295494,10.1736304 58.2146127,10.846238 57.8777013,12.2989975 C57.596081,13.5190481 55.6930937,15.1574278 55.0836759,15.5958076 L57.8293975,15.5958076 C58.4898532,15.0963646 59.5586127,13.8790481 59.8289924,12.7152 C60.4514734,10.0238582 58.8219038,8.61849114 57.5119291,7.48897215" id="Fill-33" fill="#FEFEFE"></path>
                <path d="M28.1294582,7.55407595 C29.2601924,7.55407595 30.0804456,8.244 30.0804456,9.19367089 C30.0804456,10.1375696 29.2601924,10.8220253 28.1294582,10.8220253 C26.9975089,10.8220253 26.1787747,10.1375696 26.1787747,9.19367089 C26.1787747,8.244 26.9975089,7.55407595 28.1294582,7.55407595 M28.1294582,12.1778734 C30.0051038,12.1778734 31.5900152,10.8113924 31.5900152,9.19367089 C31.5900152,7.54253165 30.0391291,6.19853165 28.1294582,6.19853165 C26.2203949,6.19853165 24.6673823,7.54253165 24.6673823,9.19367089 C24.6673823,10.8113924 26.2529013,12.1778734 28.1294582,12.1778734" id="Fill-35" fill="#007260"></path>
                <path d="M40.6001316,17.2713114 C39.5647899,17.2713114 38.7849418,16.6187544 38.7849418,15.755362 C38.7849418,14.8846785 39.5647899,14.2272608 40.6001316,14.2272608 C41.6512709,14.2272608 42.4141063,14.8710076 42.4141063,15.755362 C42.4141063,16.6333367 41.6512709,17.2713114 40.6001316,17.2713114 M40.6001316,12.9771342 C38.810157,12.9771342 37.3540557,14.2251342 37.3540557,15.755362 C37.3540557,17.2552101 38.8402329,18.5211342 40.6001316,18.5211342 C42.359119,18.5211342 43.8462076,17.2552101 43.8462076,15.755362 C43.8462076,14.2242228 42.3888911,12.9771342 40.6001316,12.9771342" id="Fill-37" fill="#007260"></path>
                <path d="M36.7718278,11.6580152 C35.9658532,11.6580152 35.2823089,10.9583696 35.2823089,10.1329519 C35.2823089,9.30419241 35.9658532,8.60515443 36.7718278,8.60515443 C37.5808405,8.60515443 38.2628658,9.30419241 38.2628658,10.1329519 C38.2628658,10.9583696 37.5808405,11.6580152 36.7718278,11.6580152 M39.584081,10.1888506 C39.584081,9.5566481 39.3310177,8.96424304 38.8835241,8.49335696 L39.8322835,8.49335696 L39.8322835,7.19462278 L37.5270684,7.19462278 L37.5270684,6.16535696 L37.4578025,6.16535696 L35.9980557,6.16535696 L35.9980557,7.19462278 L33.6922329,7.19462278 L33.6922329,8.49335696 L34.6616506,8.49335696 C34.2147646,8.96424304 33.9604861,9.5566481 33.9604861,10.1888506 C33.9604861,11.6176101 35.2218532,12.7811544 36.7733468,12.7811544 C38.3224101,12.7811544 39.584081,11.6176101 39.584081,10.1888506" id="Fill-39" fill="#007260"></path>
                <path d="M25.7732354,14.8518987 L24.2360203,14.8518987 L24.2360203,17.5556962 C24.2360203,17.9460759 24.5659443,18.2750886 24.9548051,18.2750886 L32.2520203,18.2750886 L32.2520203,16.9620759 L25.7732354,16.9614684 L25.7732354,14.8518987 Z" id="Fill-41" fill="#007260"></path>
                <polygon id="Fill-43" fill="#007260" points="22.9426633 12.8665215 22.9426633 14.1804456 33.3152203 14.1804456 33.3152203 12.8665215 33.2183089 12.8665215"></polygon>
                <polygon id="Fill-45" fill="#007260" points="8.43603038 9.92676456 5.88291646 9.92676456 5.88291646 11.2394734 8.43603038 11.2394734 8.43603038 18.2748152 9.97324557 18.2748152 9.97324557 6.66215696 8.43603038 6.66215696"></polygon>
                <path d="M4.24471899,9.68940759 L4.24471899,8.22358481 L6.36492152,8.22297722 L6.36492152,6.90814177 L0.570592405,6.90874937 L0.570592405,8.22358481 L2.69079494,8.22358481 L2.69079494,9.68940759 C2.69079494,11.8269266 1.74507342,13.4704709 6.07594937e-05,14.1983696 L0.714896203,15.2896101 C1.91246582,14.7509772 2.85606076,13.845357 3.46851646,12.6784709 C4.07945316,13.845357 5.02395949,14.7509772 6.22061772,15.2896101 L6.93545316,14.1983696 C5.19044051,13.4695595 4.24471899,11.8269266 4.24471899,9.68940759" id="Fill-47" fill="#007260"></path>
                <polygon id="Fill-49" fill="#007260" points="11.4833316 13.1869367 16.1296101 13.1869367 16.1296101 14.2210633 12.8291544 14.2210633 12.8291544 15.4213671 19.3058127 15.4213671 19.3058127 18.2749367 20.8436354 18.2749367 20.8436354 14.2210633 17.6659139 14.2210633 17.6659139 13.1869367 22.3124962 13.1869367 22.3124962 11.9872405 11.4833316 11.9872405"></polygon>
                <path d="M12.4733468,10.2701772 L12.9597266,11.4726076 C14.6698025,11.3304304 15.9891949,10.7401519 16.898157,9.7324557 C17.807119,10.7401519 19.1268152,11.3304304 20.8356759,11.4726076 L21.3229671,10.2701772 C19.7666127,10.152 18.1163848,9.58055696 17.7275241,8.34653165 L21.0298025,8.34653165 L21.0298025,7.0323038 L17.6658532,7.0323038 L17.6658532,6.16556962 L17.5683342,6.16556962 L16.1295494,6.16556962 L16.1295494,7.0323038 L12.7677266,7.0323038 L12.7677266,8.34653165 L16.0684861,8.34653165 C15.6799291,9.58055696 14.0290937,10.152 12.4733468,10.2701772" id="Fill-51" fill="#007260"></path>
                <polygon id="Fill-53" fill="#007260" points="42.5128101 6.65781266 42.5128101 8.95391392 41.6794937 8.95391392 41.6794937 6.65781266 40.2783797 6.65781266 40.2783797 12.4506228 41.6794937 12.4506228 41.6794937 10.267838 42.5128101 10.267838 42.5128101 12.4506228 43.9133165 12.4506228 43.9133165 6.65781266"></polygon>
            </g>
        </g>
    </g>
</svg>