<?xml version="1.0" encoding="utf-8"?>
<!-- Generator: Adobe Illustrator 26.0.1, SVG Export Plug-In . SVG Version: 6.00 Build 0)  -->
<svg version="1.1" id="레이어_1" xmlns="http://www.w3.org/2000/svg" xmlns:xlink="http://www.w3.org/1999/xlink" x="0px"
	 y="0px" viewBox="0 0 100 60" style="enable-background:new 0 0 100 60;" xml:space="preserve">
<style type="text/css">
	.st0{fill:#C2002F;}
	.st1{fill:#0080C8;}
	.st2{fill:#00933B;}
	.st3{fill:#231815;}
</style>
<g>
	<g>
		<path class="st0" d="M22.3,22.8c0,0.1,0.1,0.1,0.1,0.2c0.1,0.2,0.2,0.3,0.2,0.4c0,0.1,0.1,0.1,0.1,0.1c0,0.1,0,0.1,0.1,0.2
			c0,0,0,0.1,0,0.1c0,0,0.1,0.1,0.1,0.1c0.4,0.6,0.4,1.2,0,1.8c-0.1,0.1-0.1,0.2-0.2,0.3c0,0-0.1,0.1-0.1,0.1c0,0.1,0,0.1,0.1,0.1
			c-0.2,0-0.2,0.2-0.3,0.3c0,0-0.1,0-0.1,0c-0.1,0.1-0.2,0.1-0.3,0.2c0,0,0,0.1,0,0.1c-0.2,0.1-0.4,0.2-0.7,0.2c0,0-0.1,0.1-0.1,0.1
			c-0.2,0-0.4,0-0.6,0c-0.1,0-0.1-0.1-0.2-0.1c-0.1,0-0.1,0-0.2,0C20,27,19.9,27,19.8,27c-0.1,0-0.2,0-0.3,0
			c-0.2-0.2-0.5-0.4-0.6-0.6c-0.1-0.1-0.2-0.2-0.3-0.3c0-0.1,0-0.1-0.1-0.2c-0.2,0-0.1-0.1-0.1-0.2c0-0.1-0.1-0.1-0.1-0.2
			c0-0.1,0-0.2,0-0.3c0,0,0-0.1,0-0.1c-0.1-0.2,0-0.4,0-0.5c0-0.1,0-0.2,0-0.3c0.1-0.2,0.2-0.4,0.3-0.6c0,0,0-0.1,0-0.1
			c0,0,0.1,0,0.1-0.1c0.1-0.2,0.1-0.3,0.2-0.4c0.1-0.2,0.3-0.3,0.5-0.5c0.1-0.1,0.2-0.2,0.3-0.3c0,0,0.1,0,0.2,0
			c0.1-0.1,0.2-0.1,0.4-0.2c0.1-0.1,0.1,0.1,0.2,0c0.1,0,0.1,0,0.2-0.1c0.1,0,0.2,0,0.3,0.1c0.1,0,0.2,0,0.3,0.1
			c0.2,0.1,0.5,0.1,0.6,0.3C22,22.5,22.2,22.6,22.3,22.8z"/>
		<path class="st1" d="M28.5,25.1c0-0.1,0-0.1,0-0.2c0-0.1,0.1-0.2,0-0.3c0,0-0.1-0.1-0.1-0.1c0.1-0.2,0.1-0.4,0.1-0.6
			c0-0.1,0-0.1-0.1-0.1c0,0,0-0.1,0-0.1c0-0.2-0.1-0.3-0.1-0.5c0-0.1-0.1-0.1-0.1-0.2c0,0-0.1-0.1-0.1-0.1c0-0.3-0.1-0.5-0.1-0.7
			c-0.1-0.3-0.3-0.5-0.4-0.7c0,0,0.1,0,0.1,0c0.2,0.2,0.4,0.4,0.5,0.7c0,0.1,0,0.2,0.1,0.2c0.2,0.2,0.2,0.5,0.2,0.8c0,0,0.1,0,0.1,0
			c0,0,0,0.1,0,0.1c0.1,0.1,0.1,0.3,0.1,0.5c0,0.1,0,0.1,0.1,0.1c0,0-0.1,0.1-0.1,0.1c0.1,0.1,0.2,0.3,0.1,0.5
			c0.1,0.1,0.1,0.2,0.1,0.3c0,0,0,0,0.1,0c0-0.1,0.1-0.1,0.1-0.2c0-0.2,0-0.4,0-0.6c0-0.1,0-0.2,0-0.3c-0.1,0-0.1-0.1-0.1-0.1
			c-0.1-0.4-0.1-0.8-0.2-1.2c0,0,0,0,0-0.1c0-0.3-0.3-0.6-0.4-1c0-0.1-0.1-0.1-0.2-0.2c0,0,0,0,0-0.1c0.1,0,0.2,0.1,0.3,0.2
			c0.1,0.2,0.3,0.4,0.3,0.6c0.1,0.2,0.2,0.4,0.2,0.6c0,0.1,0.1,0.2,0.2,0.3c0,0.1,0,0.2,0,0.3c0,0.2,0.1,0.4,0.1,0.6
			c0.1,0.2,0.1,0.3,0,0.5c-0.1,0.2,0.1,0.5,0.2,0.7c0,0.1,0,0.2-0.1,0.3c0,0,0,0.1,0,0.1c0,0.1,0,0.2,0,0.3c0,0,0,0.1,0,0.1
			c0,0-0.1,0-0.1,0c0,0.1,0,0.2,0,0.3c-0.1,0.2,0,0.4-0.2,0.5c-0.1,0-0.1,0-0.1,0.1c0,0,0,0,0.1,0.1c0,0-0.1,0-0.1,0
			c0,0.1,0.1,0.1,0.1,0.2c0,0.2-0.2,0.4-0.2,0.7c0,0.1,0,0.1,0,0.2c-0.1,0.1-0.1,0.2-0.2,0.4c0,0.1-0.1,0.1-0.1,0.1
			c-0.1,0.1-0.1,0.2-0.1,0.3c0,0.1-0.1,0-0.2,0.1c-0.1,0.1-0.1,0.2-0.1,0.3c-0.1,0.1-0.2,0.3-0.2,0.4c-0.1,0.2-0.2,0.4-0.4,0.5
			c0,0-0.1,0-0.1,0c-0.1,0.2-0.2,0.3-0.4,0.4c0,0-0.1,0.1-0.1,0.1c-0.1,0.1-0.2,0.2-0.3,0.3c-0.1,0-0.1,0-0.1-0.1
			c-0.2,0.3-0.4,0.6-0.7,0.8c-0.1,0.1-0.3,0.1-0.4,0.2c-0.3,0.3-0.8,0.6-0.9,0.7c0,0-0.1,0.1-0.1,0.1c-0.1,0,0,0-0.1,0
			c0,0,0,0.2-0.1,0.2c-0.3,0.1-0.3,0.4-0.4,0.5c0,0.1-0.1,0-0.1,0c0,0,0,0.1,0,0.1c-0.1,0.1-0.2,0.2-0.3,0.3c0,0-0.1,0-0.1,0
			c0,0-0.2,0.2-0.2,0.4c-0.1,0.3-0.3,0.5-0.4,0.7c0,0,0.1,0.2,0.1,0.3c0,0.1-0.1,0.1-0.2,0.2c0,0.2,0,0.5-0.1,0.7
			c-0.1,0.2,0,0.4,0,0.6c0,0.2,0,0.4,0,0.5c0,0.1,0.1,0.3,0.1,0.4c0,0.2,0,0.2,0,0.3c0,0.1,0,0.2,0,0.3c0,0.1,0,0.2,0,0.3
			c0,0-0.1,0.1-0.1,0.1c0,0.3-0.2,0.6-0.4,0.8c-0.1,0.1-0.3,0.2-0.4,0.2c-0.1,0-0.3,0.2-0.4,0.2c-0.2,0.1-0.4,0.1-0.6,0
			c-0.2-0.1-0.4-0.1-0.6-0.4c-0.1-0.1-0.3-0.1-0.3-0.2c0-0.1-0.2-0.1-0.2-0.1c-0.1-0.1-0.2-0.3-0.3-0.4c-0.1-0.2,0-0.3-0.1-0.5
			C19,38.1,19,38,18.9,37.9c-0.1-0.1,0-0.3-0.1-0.5c-0.1,0-0.1-0.1-0.1-0.2c-0.1-0.1,0-0.3-0.1-0.5c0-0.2,0-0.8,0-0.9
			c0,0-0.1-0.1-0.1-0.1c0-0.2,0.1-0.5,0.1-0.7c0-0.1,0-0.2,0.1-0.3c0,0-0.1,0,0-0.1c0.1-0.2,0.1-0.3,0.1-0.5c0,0,0.1-0.1,0.1-0.1
			c0-0.1,0-0.4,0-0.6c0-0.1,0.2-0.2,0.2-0.2c0,0,0-0.1,0-0.2c0,0,0.1,0,0.1,0c0,0,0-0.1,0-0.1c0-0.1,0.2-0.2,0.2-0.2
			c0.1-0.2,0.2-0.3,0.3-0.5c0-0.1,0.1-0.2,0.1-0.2c0,0,0,0,0.1,0c0,0,0-0.1,0-0.1c0.1-0.1,0.2-0.1,0.2-0.2c0-0.1,0.1-0.2,0.2-0.3
			c0.1-0.1,0.2-0.2,0.3-0.3c0.1-0.1,0.1-0.1,0.2-0.1c0.1-0.1,0.1-0.2,0.2-0.3c0.2-0.2,0.3-0.3,0.5-0.5c0.2-0.1,0.3-0.2,0.5-0.2
			c0.2-0.1,0.2-0.3,0.4-0.4c0.1-0.1,0.2-0.1,0.3-0.1c0.1-0.1,0.2-0.2,0.3-0.2c0.3-0.1,0.1,0,0.4-0.1c0.2-0.1,0.1-0.1,0.3-0.2
			c0.3-0.2,0.4-0.3,0.5-0.3c0,0,0.1,0,0.1-0.1c0.1-0.1,0.4-0.4,0.5-0.4c0.1,0,0.1,0.1,0.2,0c0-0.1,0-0.1,0-0.1
			c0.1-0.1,0.2-0.2,0.3-0.3c0,0,0.1,0,0.2,0c0,0,0-0.1,0.1-0.1c0-0.1,0-0.1,0-0.2c0-0.1,0.1-0.2,0.1-0.2c0.1,0,0.2-0.1,0.2-0.2
			c0-0.1,0.1-0.2,0.2-0.3c0,0,0-0.1,0-0.1c0.1-0.1,0.1-0.1,0.2-0.2c0.1-0.1,0-0.2,0.1-0.3c0.1-0.1,0.3-0.3,0.3-0.5
			c0-0.1-0.1-0.2,0-0.3c0,0,0.1-0.1,0.2-0.1c0-0.1,0-0.2,0-0.4c0-0.1,0.1-0.2,0.1-0.2c0-0.2,0-0.5,0-0.7c0.1,0,0.1-0.1,0.1-0.1
			c0-0.2-0.1-0.3-0.2-0.5c0-0.1,0.1-0.2,0.1-0.3c0-0.1-0.1-0.2-0.2-0.3c-0.1-0.1,0-0.3-0.1-0.4c0-0.2-0.1-0.3-0.2-0.4
			c0-0.1-0.1-0.1-0.2-0.2c0-0.1-0.1-0.2-0.1-0.4c0-0.1-0.1-0.1-0.1-0.1c-0.1-0.2-0.1-0.5-0.3-0.6c0-0.1-0.1-0.1-0.1-0.2
			c0.1,0,0.3,0.1,0.3,0.2c0,0,0.1,0.1,0.1,0.1c0.1,0.1,0.1,0.2,0.1,0.3c0.1,0.1,0.2,0,0.3,0.1c0.1,0.2,0.2,0.2,0.2,0.4
			c0,0,0,0.1,0,0.1c0.1,0.1,0.1,0.2,0.2,0.2c0.2,0.2,0.3,0.4,0.2,0.6c0,0.1,0.1,0.1,0.1,0.1c0.1,0.2,0.1,0.4,0.2,0.5
			c0,0.3,0.1,0.6,0.2,0.8c-0.1,0.2-0.1,0.6,0.1,0.9c0,0,0.1,0,0.1,0c0-0.1,0.3-0.2,0.2-0.3c-0.1-0.2-0.1-0.5-0.1-0.6
			c0-0.2,0-0.4,0-0.7c0,0,0-0.1-0.1-0.1c0-0.1-0.1-0.2,0-0.4c0-0.1-0.1-0.1-0.1-0.2c0,0,0-0.1,0-0.1c0.1,0,0.1,0,0.2,0
			c0,0,0,0.1,0,0.2c0.1,0.1,0.2,0.2,0.2,0.3c0,0,0,0.1,0,0.1c0,0.2,0.1,0.3,0.2,0.5c0,0.1-0.1,0.2,0,0.3c0.1,0.2,0.1,0.5,0.1,0.8
			c0,0.1,0.1,0.2,0.1,0.3c0,0.1,0,0.1,0,0.2c0,0-0.1,0-0.1,0.1c0.1,0.2,0,0.4-0.1,0.6c0,0,0.1,0.1,0.1,0c0-0.1,0.1-0.1,0.2-0.1
			C28.4,25.3,28.5,25.2,28.5,25.1z M29,25.7c0-0.1,0.1-0.2,0-0.4c-0.1-0.2-0.2,0-0.3,0c0,0.2,0,0.3-0.1,0.5c0,0.1-0.1,0.2,0,0.2
			C28.9,26,29,25.8,29,25.7z M28.8,26.4c0,0,0-0.1,0-0.2c-0.1,0-0.2,0-0.2,0.1c0,0.1,0,0.2,0.1,0.2C28.7,26.6,28.7,26.5,28.8,26.4z"
			/>
		<path class="st1" d="M27.3,21.6c0.1,0.1,0.2,0.3,0.3,0.4l0,0.1c-0.2,0.2-0.4-0.1-0.4-0.3c-0.1-0.2-0.2-0.3-0.3-0.4
			c0,0,0-0.1,0-0.1c-0.1-0.1-0.2-0.2-0.1-0.2c0-0.1,0.1,0.1,0.2,0.1C27.1,21.3,27.1,21.5,27.3,21.6z"/>
		<path class="st1" d="M28.1,20.9c0,0,0,0.1-0.1,0.1c-0.1-0.1-0.2-0.2-0.3-0.3c0,0-0.1,0-0.1-0.1c0,0,0,0,0-0.1
			c0.1,0,0.1,0.1,0.2,0.1c0,0,0.1,0,0.1,0C28,20.7,28,20.8,28.1,20.9z"/>
		<path class="st2" d="M16.4,26.1C16.5,26.1,16.5,26.1,16.4,26.1c0.1,0.1,0.2,0.1,0.2,0.1c0,0,0.1,0.1,0.1,0.1
			c0.1,0,0.1,0.1,0.2,0.2c0,0,0.1,0.1,0.1,0.1c0.1,0.1,0.1,0.1,0.2,0.2c0,0.1,0.1,0,0.1,0c0.1,0,0.1,0.2,0.2,0.2
			c0,0,0.1,0.1,0.1,0.1c0,0,0.1,0.1,0.1,0.1c0,0,0,0.1,0,0.1c0.2,0.2,0.4,0.4,0.5,0.7c0,0,0,0,0,0.1c0.2,0.2,0.2,0.4,0.4,0.6
			c0,0.1,0.1,0.2,0.1,0.3c0,0.1,0.1,0.1,0.1,0.1c0.1,0.1,0.1,0.2,0.1,0.3c0,0,0,0.2-0.1,0.1c-0.1-0.1-0.1-0.2-0.2-0.3
			c0,0,0-0.1,0-0.1c0,0-0.1,0-0.1-0.1c0-0.1-0.1-0.1-0.1-0.2c-0.1-0.1-0.3-0.2-0.4-0.3c0,0,0,0-0.1,0c0,0-0.1,0.1,0,0.2
			c0.1,0.1,0.1,0.1,0.2,0.2c0.1,0,0.1,0.2,0.1,0.3c0,0,0.1,0.1,0.1,0.1c0.1,0,0,0.1,0.1,0.2c0,0,0,0,0,0.1c0,0.1,0.1,0.1,0.2,0.1
			c0,0,0.1,0,0.1,0.1c-0.1,0.1-0.1,0.1-0.1,0.2c-0.1,0.1,0.1,0.2,0.2,0.3c0.1,0,0.1,0.1,0.1,0.2c0,0.1,0.1,0.1,0.2,0.2
			c0,0,0,0.1-0.1,0.1c0,0.1,0.1,0.1,0.1,0.1c0,0,0.1,0.1,0.1,0.1c-0.1,0-0.2-0.1-0.3-0.1c0,0-0.1-0.1-0.2-0.1c0,0,0,0.1-0.1,0.1
			c0,0-0.1,0-0.1,0c0,0-0.2-0.1-0.2-0.1c-0.1,0-0.1,0.1-0.2,0.1c-0.2,0-0.2,0-0.3-0.1c-0.1,0-0.1-0.1-0.2-0.1c0,0,0-0.1-0.1-0.1
			c0,0-0.1,0-0.2,0c-0.2-0.1-0.3-0.3-0.4-0.4c-0.1,0-0.2-0.1-0.3-0.1c0,0-0.1-0.1-0.1-0.1c-0.2-0.1-0.3-0.2-0.5-0.2
			c-0.4-0.1-0.7,0.1-1,0.3c0,0-0.1,0-0.1,0C15.1,29.9,15,29.9,15,30c-0.1,0.1-0.2,0.1-0.3,0.2c0,0,0,0.1-0.1,0.1
			c-0.1,0-0.1,0-0.2,0.1c0,0-0.1,0.1-0.1,0.1c-0.1,0.1-0.2,0.1-0.3,0.2c-0.1,0-0.7,0.1-0.8,0.1c-0.2,0-0.3,0.1-0.5,0.1
			c-0.3,0-0.7,0-1-0.2c-0.1-0.1-0.1-0.2-0.1-0.2c-0.1-0.1-0.1-0.2-0.1-0.4c0,0-0.1,0-0.1-0.1c0-0.4,0.2-0.7,0.4-0.9
			c0-0.1,0.2-0.1,0.2-0.2c0,0,0.2-0.3,0.3-0.4c0,0,0-0.1,0-0.2c0.2-0.3,0.5-0.6,0.8-0.9c0.1-0.1,0.1-0.2,0.2-0.2c0,0,0.1,0,0.1,0
			c0.1-0.1,0.1-0.2,0.2-0.2c0.2-0.2,0.5-0.4,0.7-0.5c0,0,0.1-0.1,0.1-0.1c0,0,0.1,0,0.2,0c0.2-0.1,0.4-0.3,0.6-0.3
			c0,0,0.1-0.1,0.1-0.1c0.2,0,0.4-0.2,0.6,0C16.1,26,16.3,26,16.4,26.1z M17.9,28.2C17.9,28.1,17.9,28.1,17.9,28.2
			c-0.1-0.1-0.1-0.3-0.2-0.3c0,0-0.1,0-0.1,0c0,0.1,0.1,0.2,0.1,0.4C17.8,28.2,17.8,28.2,17.9,28.2C17.9,28.2,17.9,28.2,17.9,28.2z"
			/>
	</g>
	<g>
		<path class="st3" d="M38.5,34.8l-1,1l-2.7-2.6c-0.4,0.6-0.8,1.2-1.3,1.6c-0.5,0.4-1,0.8-1.5,1.1l-0.9-1.1c0.5-0.3,1-0.6,1.4-0.9
			c0.4-0.4,0.7-0.7,0.9-1.1c0.2-0.4,0.4-0.8,0.5-1.2c0.1-0.4,0.2-0.8,0.2-1.2v-1.9h1.5V30c0,0.3,0,0.6-0.1,0.9
			c0,0.3-0.1,0.6-0.2,0.8L38.5,34.8z M41.6,39.4h-1.4v-7.2h-3v-1.4h3v-3.6h1.4V39.4z"/>
		<path class="st3" d="M54.5,34.1h-5.1v0.7h2.5v3.1h-4.8v0.6h5.2v1.4h-6.6v-3.3h4.8V36h-4.9v-1.3H48v-0.7h-5v-1.3h11.4V34.1z
			 M51.8,29.8c0,0.4-0.1,0.7-0.2,1c-0.2,0.3-0.4,0.6-0.7,0.8c-0.3,0.2-0.6,0.4-1,0.5c-0.4,0.1-0.8,0.2-1.3,0.2
			c-0.4,0-0.8-0.1-1.2-0.2c-0.4-0.1-0.7-0.3-1-0.5c-0.3-0.2-0.5-0.5-0.7-0.8c-0.2-0.3-0.2-0.7-0.2-1.1c0-0.4,0.1-0.8,0.2-1.1
			c0.2-0.3,0.4-0.6,0.7-0.8c0.3-0.2,0.6-0.4,1-0.5c0.4-0.1,0.8-0.2,1.2-0.2c0.4,0,0.8,0.1,1.2,0.2c0.4,0.1,0.7,0.3,1,0.5
			c0.3,0.2,0.5,0.5,0.7,0.8C51.7,29,51.8,29.4,51.8,29.8z M50.3,29.7c0-0.4-0.2-0.7-0.5-1c-0.3-0.2-0.7-0.4-1.2-0.4
			c-0.5,0-0.9,0.1-1.2,0.4c-0.3,0.2-0.5,0.6-0.5,1c0,0.4,0.2,0.7,0.5,1c0.3,0.2,0.7,0.3,1.2,0.3c0.5,0,0.9-0.1,1.2-0.3
			C50.1,30.5,50.3,30.2,50.3,29.7z"/>
		<path class="st3" d="M66.5,34.9H55v-1.3h11.4V34.9z M64,39.8h-1.4V37h-5.1v-1.4H64V39.8z M64,32.9h-6.5v-5.3h6.4V29h-5v0.6h4.8
			v1.4h-4.8v0.6h5V32.9z"/>
		<path class="st3" d="M72.9,33.4h-5.4v-5.6h1.4v1.6h2.6v-1.6h1.4V33.4z M71.5,32.1v-1.3h-2.6v1.3H71.5z M76.9,39.8h-6.6v-3.4h4.8
			v-0.7h-4.8v-1.3h6.3v3.4h-4.7v0.7h5.1V39.8z M77,34h-1.4v-1.3h-2.3v-1.3h2.3v-1h-2.3v-1.3h2.3v-1.9H77V34z"/>
		<path class="st3" d="M85.7,34.8l-1,1l-2.7-2.7c-0.3,0.6-0.8,1.2-1.3,1.6c-0.5,0.4-1,0.8-1.5,1.1l-0.9-1.1c0.5-0.3,1-0.6,1.4-1
			c0.4-0.4,0.7-0.7,0.9-1.1c0.2-0.4,0.4-0.8,0.5-1.2c0.1-0.4,0.2-0.8,0.2-1.2v-1.9h1.5v1.6c0,0.3,0,0.6-0.1,0.9
			c0,0.3-0.1,0.5-0.2,0.8L85.7,34.8z M88.7,39.4h-1.4V27.2h1.4V39.4z"/>
	</g>
</g>
</svg>
