<?xml version="1.0" encoding="utf-8"?>
<!-- Generator: Adobe Illustrator 25.3.1, SVG Export Plug-In . SVG Version: 6.00 Build 0)  -->
<svg version="1.1" id="레이어_1" xmlns="http://www.w3.org/2000/svg" xmlns:xlink="http://www.w3.org/1999/xlink" x="0px"
	 y="0px" viewBox="0 0 100 60" style="enable-background:new 0 0 100 60;" xml:space="preserve">
<style type="text/css">
	.st0{fill:#73797C;}
	.st1{fill:#0081CC;}
</style>
<g>
	<g>
		<path class="st0" d="M67.3,36.5c-1.6,0-2.8,1.3-2.8,2.8c0,1.6,1.3,2.8,2.8,2.8c1.6,0,2.8-1.3,2.8-2.8
			C70.1,37.7,68.8,36.5,67.3,36.5z M67.3,40.6c-0.7,0-1.3-0.6-1.3-1.3c0-0.7,0.6-1.3,1.3-1.3c0.7,0,1.3,0.6,1.3,1.3
			C68.5,40,68,40.6,67.3,40.6z"/>
		<path class="st0" d="M38.2,27.6c-1.6,0-2.8,1.3-2.8,2.8c0,1.6,1.3,2.8,2.8,2.8c1.6,0,2.8-1.3,2.8-2.8C41,28.9,39.7,27.6,38.2,27.6
			z M38.2,31.7c-0.7,0-1.3-0.6-1.3-1.3c0-0.7,0.6-1.3,1.3-1.3c0.7,0,1.3,0.6,1.3,1.3C39.5,31.2,38.9,31.7,38.2,31.7z"/>
		<path class="st1" d="M75.2,14.3c-7.8,4.8-16.9,4.8-25.4,3.3c-4.9-0.9-10.9-2.9-16.4-2.9c-2.3,0-4.5,0.4-6.5,1.3
			c-6.8,3.2-7.9,9.7-7.9,13.7c0,1,0.1,1.8,0.1,2.4c0.1,0.4,0.1,0.8,0.2,1.3c0.2,0.9,0.6,2.7,1.4,1c0.1-0.3,0.9-1.7,1.4-2.5
			c3.3-5.6,9.9-7.6,16.1-7.7c6.2-0.1,12.3,0.6,18.5,0.1c10.1-0.7,15.8-5.8,19-9.1C77.1,13.5,76.1,13.8,75.2,14.3z"/>
		<rect x="37.4" y="34.5" class="st0" width="1.6" height="2.7"/>
		<rect x="39" y="37.2" class="st0" width="1.6" height="2.6"/>
		<rect x="35.7" y="39.9" class="st0" width="1.6" height="2.6"/>
		<polygon class="st0" points="55.3,36.8 57,39.3 58.3,38.4 55.3,34.1 52.4,38.4 53.7,39.3 		"/>
		<rect x="59.4" y="34.1" class="st0" width="1.6" height="5.7"/>
		<polygon class="st0" points="45.4,36.8 47,39.3 48.3,38.4 45.4,34.1 42.5,38.4 43.8,39.3 		"/>
		<rect x="49.4" y="34.1" class="st0" width="1.6" height="5.7"/>
		<rect x="57.8" y="35.5" class="st0" width="1.9" height="1.5"/>
		<rect x="78" y="34.1" class="st0" width="1.6" height="5.7"/>
		<rect x="79.1" y="35.8" class="st0" width="1.9" height="1.5"/>
		<polygon class="st0" points="27,36.8 28.7,39.3 30,38.4 27,34.1 24.1,38.4 25.4,39.3 		"/>
		<rect x="31.1" y="34.1" class="st0" width="1.6" height="5.7"/>
		<rect x="29.5" y="35.5" class="st0" width="1.9" height="1.5"/>
		<rect x="34.3" y="34.1" class="st0" width="7.7" height="1.5"/>
		<rect x="35.7" y="36.6" class="st0" width="4.8" height="1.5"/>
		<rect x="35.7" y="41.5" class="st0" width="4.9" height="1.5"/>
		<rect x="35.7" y="39" class="st0" width="4.8" height="1.5"/>
		<rect x="60.6" y="40.4" class="st0" width="1.6" height="2.6"/>
		<rect x="57.4" y="43.1" class="st0" width="1.6" height="2.6"/>
		<rect x="57.4" y="39.7" class="st0" width="4.8" height="1.5"/>
		<rect x="57.4" y="44.6" class="st0" width="4.9" height="1.5"/>
		<rect x="57.4" y="42.2" class="st0" width="4.8" height="1.5"/>
		<rect x="65.8" y="32.1" class="st0" width="1.6" height="2.7"/>
		<rect x="68.1" y="29.8" class="st0" width="1.6" height="3.1"/>
		<rect x="63.4" y="34.1" class="st0" width="7.7" height="1.5"/>
		<rect x="64.7" y="28.7" class="st0" width="5" height="1.5"/>
		<rect x="72.7" y="35.4" class="st0" width="1.6" height="2.6"/>
		<rect x="72.7" y="37.7" class="st0" width="4" height="1.5"/>
		<rect x="75.1" y="40.3" class="st0" width="1.6" height="3.2"/>
		<rect x="75.1" y="43.1" class="st0" width="4.6" height="1.5"/>
		<rect x="72.7" y="34.1" class="st0" width="4" height="1.5"/>
	</g>
</g>
</svg>
