<?xml version="1.0" encoding="utf-8"?>
<!-- Generator: Adobe Illustrator 25.3.1, SVG Export Plug-In . SVG Version: 6.00 Build 0)  -->
<svg version="1.1" id="레이어_1" xmlns="http://www.w3.org/2000/svg" xmlns:xlink="http://www.w3.org/1999/xlink" x="0px"
	 y="0px" viewBox="0 0 100 60" style="enable-background:new 0 0 100 60;" xml:space="preserve">
<style type="text/css">
	.st0{fill:#6F7271;}
	.st1{fill:url(#SVGID_1_);}
	.st2{fill:url(#SVGID_2_);}
	.st3{fill:url(#SVGID_3_);}
	.st4{fill:url(#SVGID_4_);}
</style>
<g>
	<g>
		<g>
			<path class="st0" d="M27.4,28.2c1,1.2,2.4,2,3.6,1.9h0.1v-0.8H31c-1.7-0.2-2.7-1.6-2.8-3.9v-0.1H26c-0.1,0-0.4,0-0.4,0.2
				c0,0.1,0,0.2,0.3,0.2c0.1,0,0.2,0,0.3,0c0.1,0,0.2,0.1,0.2,0.4c0,1.8-1.1,3.1-2.6,3.2h-0.1v0.8h0.1
				C24.9,30.1,26.3,29.8,27.4,28.2"/>
			<path class="st0" d="M28.1,34.3c-0.7,0-1-0.4-1-1.1v-2.1h-2.2c-0.1,0-0.4,0-0.4,0.2c0,0.1,0,0.2,0.3,0.2c0.1,0,0.2,0,0.3,0
				c0.1,0,0.2,0.1,0.2,0.4v0.7c0,0.3,0.1,2.5,2,2.5h6.4v-0.9L28.1,34.3L28.1,34.3z"/>
			<path class="st0" d="M31.6,25.2c-0.1,0-0.4,0-0.4,0.2c0,0.1,0,0.2,0.3,0.2c0.1,0,0.2,0,0.3,0c0.1,0,0.2,0.1,0.2,0.3v5.7h1.7v-6.5
				L31.6,25.2L31.6,25.2z"/>
		</g>
		<g>
			<path class="st0" d="M36,28.2c0,1.3,1.5,2.4,3.3,2.4s3.3-1.1,3.3-2.4c0-0.7-0.4-1.3-1.1-1.7h1.4v-0.9h-2.7v-1H38
				c-0.1,0-0.4,0-0.4,0.2c0,0.1,0,0.2,0.3,0.2c0.1,0,0.2,0,0.3,0s0.2,0.1,0.2,0.4v0.1h-3.2l0.5,0.9H37C36.4,26.9,36,27.5,36,28.2
				 M39.3,29.7c-0.9,0-1.6-0.7-1.6-1.5s0.7-1.5,1.6-1.5c0.9,0,1.6,0.7,1.6,1.5C40.9,29,40.2,29.7,39.3,29.7"/>
			<path class="st0" d="M40,34.3c-0.9,0-1-0.4-1-1.1v-2.1h-2.2c-0.1,0-0.4,0-0.4,0.2c0,0.1,0,0.2,0.3,0.2c0.1,0,0.2,0,0.3,0
				s0.2,0.1,0.2,0.4v0.7c0,1.6,0.7,2.5,2,2.5h6.4v-0.9L40,34.3L40,34.3z"/>
			<path class="st0" d="M47.2,27.8v-0.9h-1.4v-1.7h-2.2c-0.1,0-0.4,0-0.4,0.2c0,0.1,0,0.2,0.3,0.2c0.1,0,0.2,0,0.3,0
				s0.2,0.1,0.2,0.3v5.8h1.7v-3.9C45.7,27.8,47.2,27.8,47.2,27.8z"/>
		</g>
		<g>
			<polygon class="st0" points="71.5,31 72,31.9 76.4,31.9 76.4,35.2 78.2,35.2 78.2,31.9 82.3,31.9 82.3,31 			"/>
			<path class="st0" d="M72.1,25.8c0.1,0,0.2,0,0.3,0c0.1,0,0.2,0.1,0.2,0.4v1.5c0,0.4,0.1,2.2,2,2.2h7.2V29h-6.6
				c-0.9,0-1-0.5-1-0.9V28h7.4v-0.9h-7.4v-1h7.5v-0.9H72c-0.1,0-0.4,0-0.4,0.2C71.8,25.7,71.8,25.8,72.1,25.8"/>
		</g>
		<g>
			<g>
				<g>
					<path class="st0" d="M87.5,26.4h1.9v-1h-6.2l0.5,1h2c0.1,3.9-0.7,6-2.5,6.9h-0.1v0.1v0.5v0.2h0.2c1-0.1,2.2-0.6,3.4-3.3
						c0.8,1.6,2.1,3.3,3.5,3.3h0.1V34v-0.5v-0.1h-0.1C88.3,32.6,87.3,29.9,87.5,26.4z"/>
					<path class="st0" d="M94.1,27.9h-1.5v-2.7h-2.2c-0.1,0-0.4,0-0.4,0.2c0,0.1,0,0.2,0.3,0.2c0.1,0,0.2,0,0.3,0
						c0.1,0,0.2,0.1,0.2,0.3v9.2h1.7v-6.4H94L94.1,27.9L94.1,27.9z"/>
				</g>
			</g>
		</g>
		<g>
			<g>
				<path class="st0" d="M65.4,28.7c2.5,0,4.5-0.9,4.5-2s-2-2-4.5-2s-4.5,0.9-4.5,2C60.9,27.8,62.9,28.7,65.4,28.7z M65.4,25.7
					c1.5,0,2.7,0.5,2.7,1.1s-1.2,1.1-2.7,1.1s-2.7-0.5-2.7-1.1C62.7,26.1,63.9,25.7,65.4,25.7z"/>
				<path class="st0" d="M59.7,29.1l0.5,0.9h2.4v1.3c-1.2,0.4-1.9,1.1-1.9,1.9c0,1.3,2,2.3,4.6,2.3c2.6,0,4.6-1,4.6-2.3
					c0-0.8-0.7-1.4-1.8-1.9V30h2.4v-0.9C70.5,29.1,59.7,29.1,59.7,29.1z M65.4,34.5c-1.6,0-2.9-0.6-2.9-1.4c0-0.8,1.2-1.4,2.9-1.4
					c1.6,0,2.9,0.6,2.9,1.4C68.3,33.9,67,34.5,65.4,34.5z M65.4,30.8c-0.4,0-0.8,0-1.1,0.1V30h2.4v0.9
					C66.2,30.8,65.8,30.8,65.4,30.8z"/>
			</g>
			<g>
				<path class="st0" d="M48.8,30.7c-0.1,0-0.4,0-0.4,0.2c0,0.1,0,0.2,0.3,0.2c0.1,0,0.2,0,0.3,0s0.2,0.1,0.2,0.4v1.4
					c0,1.1,0.2,2.2,2,2.2h6.4v-4.4L48.8,30.7z M56,34.2h-4.1c-0.9,0-1-0.1-1-1.1v-1.5h5L56,34.2L56,34.2z"/>
				<path class="st0" d="M57.4,28.9l0.3-2c0-0.5-0.1-0.8-0.4-1.1c-0.4-0.4-1-0.4-1.4-0.4h-7.1l0.5,0.9h6.4c0.2,0,0.3,0,0.3,0.4
					l-0.3,2.2h-7.9l0.5,0.9h10.4v-0.9H57.4z"/>
			</g>
		</g>
	</g>
</g>
<radialGradient id="SVGID_1_" cx="14.8117" cy="31.9175" r="7.3076" gradientTransform="matrix(1 0 0 -1 0 59.8898)" gradientUnits="userSpaceOnUse">
	<stop  offset="0" style="stop-color:#00B8EE"/>
	<stop  offset="0.4067" style="stop-color:#0092D3"/>
	<stop  offset="0.5303" style="stop-color:#0084C9"/>
	<stop  offset="0.8299" style="stop-color:#0066B3"/>
	<stop  offset="1" style="stop-color:#005BAB"/>
</radialGradient>
<path class="st1" d="M13,22.4c-4.2,0.2-7.5,3.8-7.3,8s3.8,7.5,8,7.3s7.5-3.8,7.3-8C20.9,25.5,17.3,22.2,13,22.4L13,22.4z"/>
<g>
	<radialGradient id="SVGID_2_" cx="14.2249" cy="31.9782" r="5.4761" gradientUnits="userSpaceOnUse">
		<stop  offset="0" style="stop-color:#FFFFFF"/>
		<stop  offset="1" style="stop-color:#D2A143"/>
	</radialGradient>
	<path class="st2" d="M14.5,36.7c0,0-0.3,0-0.3,0.2c0,0.2,0.2,0.2,0.3,0.2c1-0.1,1.8-0.3,2.5-0.8c0.9-0.6,1.7-2.5-0.7-4.5
		c0,0-0.7-0.7-2.1-2c-0.7-0.7-1.1-1-1.2-0.9c-0.2-0.3-0.5-0.5-0.7-0.7c-1.8-1.7-2.2-3.3-0.8-4.2c0.4-0.2,0.9-0.3,1.4-0.3
		c0,0,0.3,0,0.3-0.2s-0.1-0.3-0.3-0.3c-1.6-0.2-3.9,0.5-4,3c0,0-0.3,2.1,2.8,4.7c0,0,3.3,2.8,3.6,3.1C16.1,34.7,16.8,36.2,14.5,36.7
		z"/>
	<radialGradient id="SVGID_3_" cx="10.8078" cy="34.5923" r="2.7309" gradientUnits="userSpaceOnUse">
		<stop  offset="0" style="stop-color:#FFFFFF"/>
		<stop  offset="1" style="stop-color:#D2A143"/>
	</radialGradient>
	<path class="st3" d="M9.1,35.5c0.9,0.7,1.9,1,2.8,1.1c0.7,0.1,1.3-0.1,1.3-0.3c0-0.3-1.1-0.2-2-1.1c0.6-0.4,0.8-0.7,1-1
		c0.4-0.6,0.2-0.6-0.2-0.6c-1,0-1.5,0.2-1.7,0.2s0-0.8-0.1-1.6c-0.1-0.6-0.4-0.5-0.6-0.3c-0.4,0.4-0.7,1.1-0.8,1
		c-0.1-0.1-0.3-0.4-0.6-0.8c-0.2-0.4-0.5-1-0.6-1C7.2,31,7.3,32,7.5,32.9C7.8,33.8,8.3,34.8,9.1,35.5z"/>
	<radialGradient id="SVGID_4_" cx="16.9476" cy="27.3219" r="2.5972" gradientUnits="userSpaceOnUse">
		<stop  offset="0" style="stop-color:#FFFFFF"/>
		<stop  offset="1" style="stop-color:#D2A143"/>
	</radialGradient>
	<path class="st4" d="M18.3,26.2c-0.4-0.1-0.5-0.1-0.9-0.5c-0.3-0.4,0.2-0.5,0.6-0.3c0.5,0.3,1-0.2,0.7-0.5
		c-0.4-0.4-1.1-0.6-1.7-0.7c-0.5-0.1-0.8-0.1-1.4-0.1c-0.7-0.1-1.3-0.6-1.5-0.2c-0.1,0.3,0.8,0.8,0.4,1.7c-0.3,0.6-0.5,1-0.6,1.9
		c-0.1,0.4-0.1,0.7,0,1c0,0,0.1,0.7,0.9,0.9c0.2,0,1.7,0,1.1-1.5c-0.3-0.6-0.5-1.3-0.1-1.5c0.4-0.1,0.7,0.2,0.9,0.7
		c0.4,1.1,1.1,1.4,1.9,0.8C19.3,27.4,19.3,26.5,18.3,26.2z"/>
</g>
</svg>
