<?xml version="1.0" encoding="utf-8"?>
<!-- Generator: Adobe Illustrator 26.3.1, SVG Export Plug-In . SVG Version: 6.00 Build 0)  -->
<svg version="1.1" id="_이어_1" xmlns="http://www.w3.org/2000/svg" xmlns:xlink="http://www.w3.org/1999/xlink" x="0px" y="0px"
	 viewBox="0 0 58.9 15.3" style="enable-background:new 0 0 58.9 15.3;" xml:space="preserve">
<style type="text/css">
	.st0{fill:url(#SVGID_1_);}
	.st1{fill:url(#SVGID_00000121965383089673306680000015258761678207225527_);}
	.st2{fill:#707270;}
</style>
<radialGradient id="SVGID_1_" cx="-372.9736" cy="4.4196" r="7.8178" gradientTransform="matrix(0.49 0 0 -0.49 198.94 7.92)" gradientUnits="userSpaceOnUse">
	<stop  offset="0" style="stop-color:#FFFFFF"/>
	<stop  offset="1" style="stop-color:#D3A243"/>
</radialGradient>
<path class="st0" d="M17.8,3.7c-2.2,0.1-3.9,2-3.8,4.2c0.1,2.2,2,3.9,4.2,3.8s3.9-2,3.8-4.2C21.9,5.3,20,3.6,17.8,3.7L17.8,3.7z"/>
<radialGradient id="SVGID_00000088135132615746621880000012594701259941586870_" cx="-338.4923" cy="8.0244" r="17.2584" gradientTransform="matrix(0.49 0 0 -0.49 185.42 10.87)" gradientUnits="userSpaceOnUse">
	<stop  offset="0" style="stop-color:#00B9EF"/>
	<stop  offset="0.22" style="stop-color:#0093D4"/>
	<stop  offset="0.3" style="stop-color:#007AC2"/>
	<stop  offset="0.38" style="stop-color:#0069B6"/>
	<stop  offset="0.47" style="stop-color:#005EAE"/>
	<stop  offset="0.57" style="stop-color:#005BAC"/>
</radialGradient>
<path style="fill:url(#SVGID_00000088135132615746621880000012594701259941586870_);" d="M17.8,3.6c-2.2,0.1-4,2-3.9,4.2
	c0.1,2.2,2,4,4.2,3.9s4-2,3.9-4.2C22,5.2,20.1,3.5,17.8,3.6L17.8,3.6z M18.3,7.5c0.7,0.7,1.1,1,1.1,1c1.3,1.1,0.8,2,0.4,2.4
	c-0.4,0.3-0.8,0.4-1.3,0.4c0,0-0.1,0-0.1-0.1c0-0.1,0.1-0.1,0.1-0.1c1.2-0.2,0.8-1,0.4-1.4C18.7,9.5,17,8.1,17,8.1
	c-1.6-1.4-1.5-2.4-1.5-2.4c0.1-1.3,1.2-1.6,2.1-1.6c0.1,0,0.2,0.1,0.1,0.2c0,0.1-0.2,0.1-0.2,0.1c-0.3,0-0.5,0-0.7,0.2
	c-0.7,0.5-0.5,1.3,0.4,2.2c0.1,0.1,0.2,0.2,0.4,0.4C17.8,7,18,7.2,18.3,7.5L18.3,7.5z M17.8,10.9c0,0.1-0.3,0.2-0.7,0.2
	c-0.4,0-1-0.2-1.4-0.6c-0.4-0.4-0.7-0.9-0.8-1.3c-0.1-0.5-0.2-1,0-0.9c0.1,0,0.2,0.3,0.3,0.5c0.1,0.2,0.2,0.3,0.3,0.4
	c0,0,0.2-0.3,0.4-0.5c0.1-0.1,0.3-0.1,0.3,0.2c0,0.4,0,0.9,0.1,0.9c0.1,0,0.3-0.1,0.9-0.1c0.2,0,0.3,0,0.1,0.3
	c-0.1,0.1-0.2,0.3-0.5,0.5C17.2,10.8,17.8,10.8,17.8,10.9L17.8,10.9z M18.1,6.9c0-0.1,0-0.3,0-0.5c0.1-0.4,0.2-0.7,0.3-1
	c0.2-0.5-0.3-0.7-0.2-0.9c0.1-0.2,0.4,0.1,0.8,0.1c0.3,0,0.5,0,0.7,0c0.3,0,0.7,0.2,0.9,0.3c0.2,0.2-0.1,0.4-0.4,0.3
	c-0.2-0.1-0.5,0-0.3,0.2c0.2,0.2,0.3,0.2,0.5,0.3c0.5,0.1,0.5,0.6,0.2,0.9c-0.4,0.3-0.8,0.2-1-0.4c-0.1-0.3-0.3-0.4-0.5-0.4
	c-0.2,0.1-0.1,0.5,0.1,0.8c0.3,0.8-0.5,0.8-0.6,0.8C18.2,7.2,18.1,6.9,18.1,6.9L18.1,6.9z"/>
<g>
	<path class="st2" d="M36.4,6c-0.6,0-1.2,0-1.8,0c0-0.3,0-0.5,0-0.8c0.1,0,0.1,0.1,0.2,0.1c0.2,0.1,0.3,0.1,0.5,0.1
		c0.6,0,1.2,0,1.8,0c0,0,0,0,0.1,0c0,0,0,0,0,0c0,0.4,0,0.7,0,1.1c0,0.5-0.1,1-0.4,1.5c-0.3,0.7-0.8,1.1-1.4,1.5
		c-0.2,0.1-0.4,0.2-0.7,0.2c-0.1-0.2-0.2-0.5-0.3-0.7c0.1,0,0.1,0,0.2,0c0.4,0,0.8-0.2,1.1-0.6c0.2-0.3,0.4-0.6,0.5-0.9c0,0,0,0,0,0
		c-0.5,0-0.9,0-1.4,0c0-0.2,0-0.5,0-0.7c0,0,0.1,0,0.1,0.1C35,7,35.2,7,35.4,7c0.3,0,0.6,0,0.9,0c0,0,0,0,0.1,0
		c0.1-0.2,0.1-0.4,0.1-0.6C36.4,6.2,36.4,6.1,36.4,6z"/>
	<path class="st2" d="M29.7,6c-0.2,0-0.5,0-0.7,0c0-0.2,0-0.5,0-0.7c0.1,0,0.1,0.1,0.2,0.1c0.2,0.1,0.4,0.1,0.6,0.1
		c0.2,0,0.4,0,0.6,0c0,0,0,0,0,0c0-0.2,0-0.3-0.2-0.5c0.3,0,0.5,0,0.8,0c0,0.2,0,0.3,0,0.5c0.4,0,0.9,0,1.3,0c0,0.2,0,0.3,0,0.5
		c-0.2,0-0.4,0-0.6,0c0.1,0,0.1,0.1,0.1,0.1c0.2,0.2,0.3,0.4,0.3,0.6c0,0.4-0.1,0.8-0.4,1C31.5,7.9,31.3,8,31,8.1
		c-0.3,0-0.6,0-0.9-0.1c-0.3-0.1-0.5-0.3-0.6-0.5c-0.2-0.4-0.2-0.8,0.1-1.2C29.6,6.2,29.6,6.1,29.7,6C29.7,6,29.7,6,29.7,6z
		 M30.7,6.2C30.7,6.2,30.7,6.2,30.7,6.2c-0.3,0-0.4,0.1-0.6,0.2c-0.3,0.2-0.3,0.7,0,1c0.1,0.1,0.3,0.2,0.5,0.2c0.3,0,0.5,0,0.7-0.2
		c0.3-0.3,0.3-0.7,0-1C31.2,6.3,31,6.2,30.7,6.2z"/>
	<path class="st2" d="M40.4,5.2c1.3,0,2.5,0,3.8,0c0,0.2,0,0.4,0,0.6c-1,0-2,0-2.9,0c0,0.6,0,1.2,0,1.8c1,0,2,0,3,0
		c0,0.2,0,0.4,0,0.6c0,0,0,0,0,0c-1,0-1.9,0-2.9,0c-0.1,0-0.3,0-0.4-0.1c-0.2-0.1-0.3-0.3-0.3-0.5c0-0.2,0-0.5,0-0.7
		c0-0.3,0-0.6,0-0.9c0-0.2,0-0.4-0.1-0.5C40.5,5.3,40.4,5.3,40.4,5.2z"/>
	<path class="st2" d="M38.8,7.1c0.2,0,0.4,0,0.7,0c0,0.2,0,0.4,0,0.6c-0.2,0-0.4,0-0.6,0c0,0.9,0,1.8,0,2.7c-0.2,0-0.5,0-0.7,0
		c0,0,0,0,0-0.1c0-1.4,0-2.9,0-4.3c0-0.2,0-0.5-0.1-0.7c0-0.1-0.1-0.2-0.1-0.3c0,0,0,0,0,0c0.3,0,0.6,0,1,0
		C38.8,5.7,38.8,6.4,38.8,7.1z"/>
	<path class="st2" d="M23.5,7.3c0.2,0,0.3,0,0.4-0.1c0.2-0.1,0.4-0.3,0.6-0.5c0.1-0.2,0.2-0.4,0.3-0.6c0-0.3,0-0.6-0.1-0.9
		c0,0,0-0.1,0-0.1c0.3,0,0.6,0,0.9,0c0,0,0,0,0,0.1c0,0.2,0,0.5,0,0.7c0.1,0.3,0.2,0.6,0.4,0.9c0.2,0.3,0.5,0.4,0.8,0.5
		c0,0,0.1,0,0.1,0c-0.1,0.2-0.2,0.5-0.3,0.7c-0.6-0.3-1.1-0.7-1.4-1.3c-0.3,0.6-0.8,1-1.4,1.3C23.7,7.8,23.6,7.5,23.5,7.3z"/>
	<path class="st2" d="M28.4,9.7c0,0.2,0,0.4,0,0.6c0,0,0,0,0,0c-1,0-2.1,0-3.1,0c-0.2,0-0.3,0-0.5-0.2c-0.1-0.1-0.1-0.2-0.1-0.3
		c0-0.2,0-0.4,0-0.5c0-0.2,0-0.4-0.1-0.6c0-0.1-0.1-0.1-0.1-0.2c0.3,0,0.6,0,0.9,0c0,0.4,0,0.9,0,1.3C26.3,9.7,27.4,9.7,28.4,9.7z"
		/>
	<path class="st2" d="M33.6,8.8c-0.2,0-0.5,0-0.7,0c0,0,0,0,0-0.1c0-0.9,0-1.8,0-2.7c0-0.2,0-0.4-0.1-0.6c0-0.1-0.1-0.2-0.2-0.3
		c0.3,0,0.6,0,0.9,0c0,0.5,0,0.9,0,1.4c0.2,0,0.4,0,0.6,0c0,0.2,0,0.4,0,0.6c-0.2,0-0.4,0-0.6,0C33.6,7.6,33.6,8.2,33.6,8.8z"/>
	<path class="st2" d="M29.7,8.6c0.3,0,0.6,0,0.9,0c0,0.4,0,0.8,0,1.2c1,0,2,0,3.1,0c0,0.2,0,0.4,0,0.6c0,0,0,0-0.1,0
		c-1,0-2.1,0-3.1,0c-0.2,0-0.3,0-0.4-0.1c-0.1-0.1-0.2-0.2-0.2-0.3c0-0.2,0-0.4,0-0.5c0-0.1,0-0.2,0-0.3C29.8,8.8,29.8,8.7,29.7,8.6
		C29.7,8.6,29.7,8.6,29.7,8.6C29.7,8.6,29.7,8.6,29.7,8.6z"/>
	<path class="st2" d="M44.8,10.1c-1.6,0-3.2,0-4.9,0c0-0.3,0-0.6,0-0.9c0,0,0,0,0,0c0.2,0.2,0.4,0.3,0.7,0.3c0.2,0,0.4,0,0.6,0
		c1.2,0,2.4,0,3.6,0c0,0,0,0,0.1,0C44.8,9.7,44.8,9.9,44.8,10.1z"/>
	<path class="st2" d="M27.3,5c0.3,0,0.6,0,1,0c0,1.3,0,2.5,0,3.7c-0.2,0-0.5,0-0.7,0c0,0,0,0,0-0.1c0-0.9,0-1.9,0-2.8
		c0-0.1,0-0.3,0-0.4C27.5,5.3,27.5,5.2,27.3,5C27.4,5.1,27.3,5,27.3,5z"/>
</g>
</svg>
