<?xml version="1.0" encoding="UTF-8"?>
<svg width="100px" height="60px" viewBox="0 0 100 60" version="1.1" xmlns="http://www.w3.org/2000/svg" xmlns:xlink="http://www.w3.org/1999/xlink">
    <!-- Generator: Sketch 55.2 (78181) - https://sketchapp.com -->
    <title>logo/shinhyup</title>
    <desc>Created with Sketch.</desc>
    <g id="logo/shinhyup" stroke="none" stroke-width="1" fill="none" fill-rule="evenodd">
        <g transform="translate(27.000000, 23.000000)" fill="#0061AE">
            <path d="M7.67241633,7.42583902 L10.1951025,8.91222927 L10.1951025,8.91632683 L10.1727329,8.90335122 C9.27082934,9.62144878 8.4095979,9.85876585 7.66529872,9.85876585 C6.92032166,9.85876585 6.05942916,9.62144878 5.1571867,8.90335122 L5.13515599,8.91632683 L5.13515599,8.91222927 L7.67241633,7.42583902 Z M6.39056773,2.21647317 L6.40446403,2.21647317 L6.39056773,5.26608293 L3.860425,6.69374146 L3.85669673,6.68930244 C3.34117803,3.05237561 6.39056773,2.21647317 6.39056773,2.21647317 L6.39056773,2.21647317 Z M11.4732228,6.68930244 L11.4694946,6.69374146 L8.9390129,5.26608293 L8.92545554,2.21647317 L8.9390129,2.21647317 C8.9390129,2.21647317 11.9887415,3.05237561 11.4732228,6.68930244 L11.4732228,6.68930244 Z M13.8694866,8.33037561 C13.1916185,10.0274488 12.0565283,10.5072049 12.0565283,10.5072049 C15.3974013,7.09632683 13.3566794,3.1654 13.3566794,3.1654 C12.8631914,2.28408293 13.4912362,1.90027805 13.4912362,1.90027805 C12.0565283,2.26154634 12.5045992,3.45905854 12.5045992,3.45905854 C13.2258508,5.18925366 13.0807871,6.59505854 12.8353988,7.46442439 L12.3629247,7.19774146 L12.3700423,7.18647317 C12.3700423,7.18647317 13.4905583,2.73857073 8.92104939,1.17876585 L8.91698219,0.341497561 L7.9527148,0.341497561 L7.9527148,5.85374146 L12.4374902,8.42905854 C12.3554682,8.59637561 12.2693789,8.75344878 12.1788835,8.90232683 L7.67444994,6.2734 L3.15103603,8.90232683 C3.06087957,8.75344878 2.97445138,8.59637561 2.89242934,8.42905854 L7.37720477,5.85374146 L7.37720477,0.341497561 L6.41293738,0.341497561 L6.40920911,1.17876585 C1.83936123,2.73857073 2.95987722,7.18647317 2.95987722,7.18647317 L2.96733377,7.19774146 L2.49452076,7.46442439 C2.24947144,6.59505854 2.10406873,5.18925366 2.8253204,3.45905854 C2.8253204,3.45905854 3.27373015,2.26154634 1.83868336,1.90027805 C1.83868336,1.90027805 2.46672817,2.28408293 1.97357911,3.1654 C1.97357911,3.1654 -0.0674817706,7.09632683 3.27373015,10.5072049 C3.27373015,10.5072049 2.13830107,10.0274488 1.46077189,8.33037561 C1.46077189,8.33037561 1.07642067,7.50300976 -3.38934056e-05,7.68330244 C-3.38934056e-05,7.68330244 0.40634804,7.86871707 0.644957615,8.6189122 C0.644957615,8.6189122 1.61430902,11.7272537 5.3591914,12.2015463 L5.3591914,13.9184244 L7.19790865,13.9184244 L7.19790865,11.3881805 C7.19790865,11.3881805 5.24734316,11.3728146 3.75806692,9.72183902 L4.22003404,9.45003415 C4.30612329,9.53198537 5.72218977,10.8520829 7.65377496,10.8865707 L7.65377496,10.8875951 C7.65750323,10.8872537 7.66123151,10.8872537 7.66529872,10.8872537 C7.66868806,10.8872537 7.67241633,10.8872537 7.67648354,10.8875951 L7.67648354,10.8865707 C9.60772979,10.8520829 11.0237963,9.53198537 11.1098855,9.45003415 L11.5718526,9.72183902 C10.0825764,11.3728146 8.13201091,11.3881805 8.13201091,11.3881805 L8.13201091,13.9184244 L9.97072817,13.9184244 L9.97072817,12.2015463 C13.7156106,11.7272537 14.6853009,8.6189122 14.6853009,8.6189122 C14.9239105,7.86871707 15.3299535,7.68330244 15.3299535,7.68330244 C14.2538378,7.50300976 13.8694866,8.33037561 13.8694866,8.33037561 L13.8694866,8.33037561 Z" id="Fill-1"></path>
            <path d="M38.0307736,12.471678 L44.4776383,12.471678 L44.4776383,10.9115317 L38.0307736,10.9115317 L38.0307736,12.471678 Z M35.6812827,8.6828 C35.7538146,8.72445854 35.8080441,8.76440976 35.8365145,8.80675122 C35.9032846,8.89621463 35.9453124,9.01094634 35.9642927,9.14650732 L35.9642927,12.5765073 C35.9642927,13.5240683 36.43575,13.643922 37.0139715,13.643922 L45.4941015,13.643922 C46.2075577,13.643922 46.5346291,13.2987024 46.5346291,12.5765073 L46.5346291,1.15387317 C46.5346291,0.83084878 46.3021203,0.668653659 45.8574388,0.668653659 L44.2881742,0.668653659 C44.3281684,0.731482927 44.3600282,0.799434146 44.3807032,0.872507317 C44.4417113,1.09138537 44.47391,1.41509268 44.47391,2.07889756 L44.47391,2.90319024 L42.5338515,2.90319024 L42.5338515,4.07884878 L44.47391,4.07884878 L44.47391,5.29445854 L42.5338515,5.29445854 L42.5338515,6.47011707 L44.47391,6.47011707 L44.47391,9.73553171 L38.0307736,9.73553171 L38.0307736,9.16733659 C38.0307736,8.8432878 37.7992817,8.68177561 37.3549391,8.68177561 L35.6812827,8.6828 Z" id="Fill-4"></path>
            <path d="M38.2982943,6.65570244 C37.1530361,6.65570244 36.2270683,5.96184878 36.2270683,4.9733122 C36.2270683,3.98443415 37.1530361,3.0478 38.2982943,3.0478 C39.4418578,3.0478 40.3695203,3.98443415 40.3695203,4.9733122 C40.3695203,5.96184878 39.4418578,6.65570244 38.2982943,6.65570244 L38.2982943,6.65570244 Z M36.9747568,0.425702439 C37.0469497,0.467360976 37.0991456,0.509702439 37.1310054,0.551702439 C37.2221786,0.676336585 37.2703073,0.848434146 37.2703073,1.06765366 L37.2696294,1.36984878 L34.0626354,1.36984878 L34.0626354,2.54516585 L35.9410079,2.54516585 C34.9567434,3.0693122 34.3171749,3.9233122 34.3171749,4.9275561 C34.3171749,6.60448293 36.0989512,7.71287317 38.2982943,7.71287317 C40.4962816,7.71287317 42.2797526,6.60448293 42.2797526,4.9275561 C42.2797526,3.9233122 41.6398451,3.0693122 40.6542249,2.54516585 L42.5339532,2.54516585 L42.5339532,1.36984878 L39.3513624,1.36984878 L39.3506845,0.846043902 C39.3506845,0.566043902 39.1503745,0.426385366 38.7653454,0.426385366 L36.9747568,0.425702439 Z" id="Fill-6"></path>
            <path d="M21.4968925,0.933356098 C21.5694244,0.976039024 21.6236538,1.01803902 21.6524632,1.05901463 C21.7456701,1.18330732 21.7927819,1.3560878 21.7927819,1.57530732 L21.7927819,2.63691707 C21.7927819,4.5620878 20.6912463,5.92179512 18.0692524,6.14067317 L18.0692524,7.47238049 C20.5953279,7.47238049 21.931406,6.58969756 22.836021,5.11833171 C24.2466645,7.58847805 27.0571057,7.47374634 28.7666891,7.47374634 L28.7666891,12.4434049 L22.8366988,12.4434049 C22.6299491,12.4434049 22.4926808,12.405161 22.4231993,12.3273073 C22.3564293,12.2480878 22.3242305,12.1309659 22.3242305,11.9745756 L22.3242305,9.10867317 C22.3242305,8.96355122 22.2988105,8.85291707 22.2452589,8.77950244 C22.1944188,8.70642927 22.0920607,8.67228293 21.9371678,8.67228293 L20.070658,8.67228293 C20.1625091,8.75491707 20.2191111,8.8611122 20.240464,8.99291707 C20.2624947,9.12164878 20.2723238,9.25003902 20.2723238,9.37433171 L20.2723238,12.7251122 C20.2723238,12.9450146 20.3451946,13.1276976 20.4899194,13.2728195 C20.707854,13.5039902 21.0650905,13.6183805 21.5629846,13.6183805 L29.9146587,13.6170146 C30.4311942,13.6170146 30.8267303,13.3404293 30.8267303,12.5485756 L30.8267303,1.12764878 C30.8267303,0.803941463 30.5955772,0.641404878 30.1505568,0.641404878 L28.5795975,0.641404878 C28.6223032,0.70457561 28.6521294,0.772526829 28.674499,0.8456 C28.7355071,1.06516098 28.7666891,1.38818537 28.7666891,2.05199024 L28.7666891,6.14442927 C26.1928238,6.07238049 23.8596018,5.7380878 24.1395613,2.6796 L24.1395613,1.35301463 C24.1395613,1.07233171 23.9392513,0.932673171 23.5538833,0.932673171 L21.4968925,0.933356098 Z" id="Fill-7"></path>
        </g>
    </g>
</svg>