<?xml version="1.0" encoding="UTF-8"?>
<svg width="100px" height="60px" viewBox="0 0 100 60" version="1.1" xmlns="http://www.w3.org/2000/svg" xmlns:xlink="http://www.w3.org/1999/xlink">
    <!-- Generator: Sketch 55.2 (78181) - https://sketchapp.com -->
    <title>logo/sk_broadband</title>
    <desc>Created with Sketch.</desc>
    <defs>
        <polygon id="path-1" points="0 0.0434 6.87173333 0.0434 6.87173333 10 0 10"></polygon>
        <polygon id="path-3" points="0.389866667 0.663333333 5.5852 0.663333333 5.5852 11.1852112 0.389866667 11.1852112"></polygon>
    </defs>
    <g id="logo/sk_broadband" stroke="none" stroke-width="1" fill="none" fill-rule="evenodd">
        <g transform="translate(15.000000, 14.000000)">
            <g id="Group-3" transform="translate(0.000000, 13.336867)">
                <mask id="mask-2" fill="white">
                    <use xlink:href="#path-1"></use>
                </mask>
                <g id="Clip-2"></g>
                <path d="M4.26173333,3.97073333 C3.45573333,3.5934 2.7944,3.2894 2.7944,2.6734 C2.7944,2.2034 3.17106667,1.86073333 3.91506667,1.86073333 C4.18906667,1.86073333 4.4124,1.8934 4.64306667,1.9354 C4.7644,1.95673333 4.89306667,1.97406667 4.99973333,1.97406667 C5.64973333,1.97406667 6.01706667,1.58673333 6.25973333,0.8514 L6.3604,0.552066667 C6.2564,0.5094 5.19506667,0.0434 3.81106667,0.0434 C1.6104,0.0434 0.447733333,1.45473333 0.4484,2.92006667 C0.4484,3.6594 0.6804,4.19406667 1.0424,4.61606667 C1.50906667,5.15873333 2.17373333,5.5134 2.7964,5.8174 C3.70373333,6.26273333 4.5224,6.5914 4.5224,7.2514 C4.52373333,7.83673333 3.91773333,8.1694 3.10906667,8.1694 C2.00106667,8.1694 1.03306667,7.5354 0.909733333,7.46006667 L-0.000266666667,9.16473333 C0.161733333,9.25606667 1.33306667,10.0000667 3.26106667,10.0000667 C5.31573333,9.99873333 6.87173333,8.8214 6.87173333,7.0074 C6.87173333,5.20473333 5.42973333,4.5354 4.26173333,3.97073333" id="Fill-1" fill="#E21837" mask="url(#mask-2)"></path>
            </g>
            <path d="M12.2982,18.1497333 L16.0248667,13.5797333 L13.3695333,13.5797333 L10.3962,17.5224 L10.3528667,17.5224 L10.3528667,13.5797333 L8.16353333,13.5797333 L8.1642,23.2597333 L8.2942,23.2597333 C9.24086667,23.2597333 10.3675333,22.8217333 10.3675333,21.2404 L10.3675333,19.0190667 L10.4115333,19.0190667 L13.4415333,23.1390667 L16.2268667,23.1390667 L12.2982,18.1497333 Z" id="Fill-4" fill="#E21837"></path>
            <path d="M24.7662667,20.5247333 C24.7662667,21.6500667 24.0616,22.1740667 23.2576,22.1740667 C22.9169333,22.1740667 22.6856,22.1087333 22.6142667,22.0940667 L22.6142667,18.9534 C22.6916,18.9334 22.9289333,18.8720667 23.2576,18.8720667 C24.1349333,18.8720667 24.7662667,19.4494 24.7662667,20.5247333 M26.1969333,20.5620667 C26.1969333,18.6740667 24.9542667,17.7840667 23.5222667,17.7840667 C23.0549333,17.7840667 22.6516,17.8947333 22.6142667,17.9047333 L22.6142667,16.4607333 C22.6142667,15.6480667 22.1036,15.2380667 21.4922667,15.2380667 L21.2822667,15.2380667 L21.2822667,22.9254 C21.4322667,22.9727333 22.2876,23.2567333 23.4296,23.2567333 C25.1769333,23.2567333 26.1969333,22.1494 26.1969333,20.5620667" id="Fill-6" fill="#F48025"></path>
            <path d="M29.7018,17.7825333 C29.0638,17.7825333 28.5024667,18.3045333 28.2738,18.5332 C28.1718,18.2885333 27.9871333,17.8812 27.3124667,17.8812 C27.1338,17.8812 26.9631333,17.9225333 26.9631333,17.9225333 C26.9998,18.1045333 27.1104667,18.4972 27.1104667,19.1885333 L27.1104667,23.1392 L28.4451333,23.1392 L28.4451333,19.4118667 C28.6044667,19.2885333 28.9491333,18.9565333 29.4718,18.9498667 C29.8264667,18.9465333 30.0451333,19.0898667 30.0778,19.1092 L30.5664667,18.0032 C30.5118,17.9678667 30.2738,17.7825333 29.7018,17.7825333" id="Fill-8" fill="#F48025"></path>
            <path d="M33.1855333,22.2298 C34.0088667,22.2298 34.4762,21.5264667 34.4762,20.5218 C34.4762,19.5264667 34.0182,18.8091333 33.1855333,18.8091333 C32.3815333,18.8091333 31.8975333,19.5064667 31.8975333,20.5218 C31.8975333,21.5011333 32.3582,22.2298 33.1855333,22.2298 M33.1855333,23.2564667 C31.5535333,23.2564667 30.5702,22.1784667 30.5702,20.5218 C30.5702,18.8718 31.5402,17.7824667 33.1855333,17.7824667 C34.8362,17.7824667 35.8035333,18.8718 35.8035333,20.5218 C35.8035333,22.0811333 34.9075333,23.2564667 33.1855333,23.2564667" id="Fill-10" fill="#F48025"></path>
            <path d="M39.7578,21.821 C39.6758,21.8696667 39.3164667,22.1943333 38.7804667,22.1943333 C38.3204667,22.1943333 37.9691333,21.915 37.9691333,21.451 C37.9691333,21.0596667 38.3464667,20.7216667 39.0691333,20.7216667 L39.7578,20.7216667 L39.7578,21.821 Z M39.8731333,22.6123333 C39.9664667,22.8536667 40.1911333,23.139 40.6591333,23.139 C40.9058,23.139 41.2244667,23.073 41.2771333,23.053 C41.2371333,22.9003333 41.1144667,22.4916667 41.1144667,21.5723333 L41.1144667,19.7316667 C41.1144667,18.3683333 40.2364667,17.7823333 38.8791333,17.7823333 C37.7378,17.7823333 36.9224667,18.3296667 36.8278,18.393 C36.8278,18.393 36.8831333,18.4896667 36.9204667,18.5556667 C37.0338,18.7503333 37.1351333,19.037 37.4698,19.037 C37.8024667,19.037 38.0884667,18.781 38.7224667,18.781 C39.4198,18.781 39.7578,19.119 39.7578,19.6363333 L39.7578,19.8203333 L39.3204667,19.8203333 C37.5318,19.8203333 36.5898,20.513 36.5898,21.6223333 C36.5898,22.6036667 37.3371333,23.257 38.3711333,23.257 C39.3544667,23.257 39.7871333,22.6836667 39.8731333,22.6123333 L39.8731333,22.6123333 Z" id="Fill-12" fill="#F48025"></path>
            <path d="M45.0572667,18.8717333 C45.3859333,18.8717333 45.6239333,18.9330667 45.7019333,18.9530667 L45.7006,22.0937333 C45.6299333,22.1084 45.3986,22.1737333 45.0572667,22.1737333 C44.2526,22.1737333 43.5486,21.6504 43.5486,20.5244 C43.5486,19.4490667 44.1806,18.8717333 45.0572667,18.8717333 M44.8846,23.2564 C46.0272667,23.2564 46.8826,22.9724 47.0326,22.9244 L47.0326,15.2384 L46.8226,15.2384 C46.2119333,15.2384 45.7006,15.6470667 45.7006,16.4604 L45.7006,17.9044 C45.6626,17.8950667 45.2606,17.7837333 44.7932667,17.7837333 C43.3606,17.7837333 42.1172667,18.6744 42.1172667,20.5624 C42.1172667,22.1484 43.1379333,23.2564 44.8846,23.2564" id="Fill-14" fill="#F48025"></path>
            <path d="M68.5898667,18.8717333 C68.9178667,18.8717333 69.1558667,18.9330667 69.2332,18.9530667 L69.2332,22.0937333 C69.1612,22.1084 68.9312,22.1737333 68.5898667,22.1737333 C67.7852,22.1737333 67.0805333,21.6504 67.0805333,20.5244 C67.0805333,19.4490667 67.7132,18.8717333 68.5898667,18.8717333 M68.4165333,23.2564 C69.5598667,23.2564 70.4152,22.9724 70.5645333,22.9244 L70.5645333,15.2384 L70.3538667,15.2384 C69.7438667,15.2384 69.2332,15.6470667 69.2332,16.4604 L69.2332,17.9044 C69.1952,17.8950667 68.7932,17.7837333 68.3258667,17.7837333 C66.8932,17.7837333 65.6498667,18.6744 65.6498667,20.5624 C65.6498667,22.1484 66.6705333,23.2564 68.4165333,23.2564" id="Fill-16" fill="#F48025"></path>
            <path d="M51.9166667,20.5247333 C51.9166667,21.6500667 51.212,22.1740667 50.408,22.1740667 C50.0673333,22.1740667 49.836,22.1087333 49.7646667,22.0940667 L49.764,18.9534 C49.8426667,18.9334 50.0793333,18.8720667 50.408,18.8720667 C51.2846667,18.8720667 51.9166667,19.4494 51.9166667,20.5247333 M53.3473333,20.5620667 C53.3473333,18.6740667 52.104,17.7840667 50.672,17.7840667 C50.2046667,17.7840667 49.802,17.8947333 49.7646667,17.9047333 L49.7646667,16.4607333 C49.7646667,15.6480667 49.254,15.2380667 48.6433333,15.2380667 L48.4326667,15.2380667 L48.4326667,22.9254 C48.5826667,22.9727333 49.4373333,23.2567333 50.5806667,23.2567333 C52.328,23.2567333 53.3473333,22.1494 53.3473333,20.5620667" id="Fill-18" fill="#F48025"></path>
            <path d="M57.3105333,21.821 C57.2278667,21.8696667 56.8685333,22.1943333 56.3332,22.1943333 C55.8725333,22.1943333 55.5212,21.915 55.5212,21.451 C55.5212,21.0596667 55.8985333,20.7216667 56.6212,20.7216667 L57.3105333,20.7216667 L57.3105333,21.821 Z M57.4252,22.6123333 C57.5192,22.8536667 57.7438667,23.139 58.2112,23.139 C58.4578667,23.139 58.7765333,23.073 58.8292,23.053 C58.7892,22.9003333 58.6672,22.4916667 58.6672,21.5723333 L58.6672,19.7316667 C58.6672,18.3683333 57.7885333,17.7823333 56.4312,17.7823333 C55.2892,17.7823333 54.4745333,18.3296667 54.3798667,18.393 C54.3798667,18.393 54.4352,18.4896667 54.4725333,18.5556667 C54.5858667,18.7503333 54.6872,19.037 55.0218667,19.037 C55.3545333,19.037 55.6405333,18.781 56.2745333,18.781 C56.9718667,18.781 57.3105333,19.119 57.3105333,19.6363333 L57.3105333,19.8203333 L56.8725333,19.8203333 C55.0845333,19.8203333 54.1432,20.513 54.1432,21.6223333 C54.1432,22.6036667 54.8892,23.257 55.9232,23.257 C56.9065333,23.257 57.3398667,22.6836667 57.4252,22.6123333 L57.4252,22.6123333 Z" id="Fill-20" fill="#F48025"></path>
            <path d="M59.9505333,19.5852667 L59.9505333,23.1392667 L61.2852,23.1392667 L61.2852,19.4459333 C61.3565333,19.3779333 61.8305333,18.9259333 62.3565333,18.9259333 C63.0438667,18.9259333 63.4005333,19.4232667 63.4005333,20.0712667 L63.4005333,23.1392667 L64.7305333,23.1392667 L64.7305333,19.7379333 C64.7305333,18.1212667 63.4892,17.7646 62.7945333,17.7646 C61.9625333,17.7646 61.3672,18.2872667 61.1905333,18.4652667 C61.1345333,18.2486 60.8798667,17.8812667 60.2978667,17.8812667 C60.0925333,17.8812667 59.8238667,17.9419333 59.7978667,17.9472667 C59.8398667,18.1499333 59.9505333,18.6259333 59.9505333,19.5852667" id="Fill-22" fill="#F48025"></path>
            <path d="M21.2180667,9.92966667 L21.6307333,9.945 C21.8234,9.957 22.0407333,9.97033333 22.3367333,9.969 C24.3654,9.95966667 25.6840667,9.24366667 26.4054,8.84233333 C24.7387333,7.793 22.3287333,6.73433333 19.3494,6.61433333 C19.1527333,7.17033333 17.6207333,11.431 17.5047333,11.7736667 C17.5227333,11.7943333 17.7907333,12.0963333 18.1254,12.681 C18.5907333,13.4376667 18.8520667,14.087 19.0294,14.5756667 C19.4107333,13.9336667 19.4760667,12.9416667 19.5134,11.8056667 C19.5514,10.8596667 19.7140667,9.935 21.2180667,9.92966667" id="Fill-24" fill="#E21837"></path>
            <path d="M28.9381333,10.9648667 C28.8068,10.7488667 28.1294667,10.0315333 27.0021333,9.23953333 L26.9708,9.25753333 C26.0828,9.74753333 24.5981333,10.5675333 22.4014667,10.5768667 C22.1128,10.5775333 21.9434667,10.5662 21.7948,10.5575333 L21.3954667,10.5428667 C20.3601333,10.5482 20.1514667,10.9868667 20.1154667,11.8475333 L20.1088,12.0808667 L20.0968,12.5128667 C20.0581333,13.4635333 19.9341333,14.5362 19.3194667,15.2815333 L19.2921333,15.3135333 C19.3181333,15.3762 19.3414667,15.4308667 19.3668,15.4728667 C19.4214667,15.5648667 19.4941333,15.6068667 19.5814667,15.6068667 C19.6361333,15.6068667 19.7034667,15.5875333 19.7781333,15.5535333 C19.9601333,15.4702 27.1854667,12.1068667 28.2741333,11.6042 C28.4328,11.5275333 28.7321333,11.3948667 28.8314667,11.3375333 C28.9341333,11.2788667 28.9808,11.1928667 28.9808,11.1068667 C28.9794667,11.0588667 28.9654667,11.0088667 28.9381333,10.9648667" id="Fill-26" fill="#F48025"></path>
            <path d="M16.235,3.2656 L16.1696667,3.27826667 C15.4523333,3.41293333 14.3156667,4.07693333 14.3196667,5.28626667 C14.321,5.79426667 14.519,6.21626667 14.7283333,6.66293333 C14.9696667,7.17826667 15.243,7.7616 15.2443333,8.56493333 C15.249,9.78093333 14.5503333,10.4802667 14.0576667,10.8202667 C14.2816667,10.8049333 14.523,10.7942667 14.783,10.7942667 C15.4576667,10.7916 15.865,10.8569333 15.8896667,10.8609333 L19.3496667,6.61426667 C18.411,5.2096 17.3196667,4.11293333 16.235,3.2656" id="Fill-28" fill="#E21837"></path>
            <g id="Group-32" transform="translate(10.000000, 0.003533)">
                <mask id="mask-4" fill="white">
                    <use xlink:href="#path-3"></use>
                </mask>
                <g id="Clip-31"></g>
                <path d="M3.36653333,10.6058667 C4.00186667,10.2385333 4.62186667,9.60853333 4.6192,8.54586667 C4.61653333,7.9092 4.3912,7.42586667 4.15453333,6.9132 C3.9212,6.4092 3.6792,5.88853333 3.67786667,5.22053333 C3.67253333,3.76853333 4.8472,3.0212 5.5852,2.79186667 C3.24386667,1.17386667 1.0552,0.661866667 0.650533333,0.663197404 C0.509866667,0.663197404 0.389866667,0.7592 0.389866667,0.944533333 C0.389866667,1.0592 0.434533333,1.3792 0.452533333,1.55386667 C0.579866667,2.7532 1.44586667,10.6685333 1.46786667,10.8692 C1.4912,11.0692 1.57853333,11.1865333 1.75453333,11.1852112 C1.78053333,11.1852112 1.8132,11.1838667 1.84853333,11.1805333 C1.97186667,11.1685333 2.22453333,11.1318667 2.51653333,11.0198667 C2.85986667,10.8872 3.0852,10.7672 3.36653333,10.6058667" id="Fill-30" fill="#F48025" mask="url(#mask-4)"></path>
            </g>
        </g>
    </g>
</svg>