<?xml version="1.0" encoding="UTF-8"?>
<svg width="100px" height="60px" viewBox="0 0 100 60" version="1.1" xmlns="http://www.w3.org/2000/svg" xmlns:xlink="http://www.w3.org/1999/xlink">
    <!-- Generator: Sketch 55.2 (78181) - https://sketchapp.com -->
    <title>logo/skt</title>
    <desc>Created with Sketch.</desc>
    <g id="logo/skt" stroke="none" stroke-width="1" fill="none" fill-rule="evenodd">
        <g transform="translate(19.000000, 14.000000)">
            <path d="M59.2573952,17.7804632 C60.384,17.7804632 61.0854471,18.5850947 61.0854471,19.8204632 L61.0854471,23.3446737 L59.691384,23.3446737 L59.691384,20.0377263 C59.691384,19.4010947 59.3999555,18.9362526 58.7666345,18.9362526 C58.1358367,18.9362526 57.6286753,19.4579368 57.6021818,19.4869895 L57.6021818,23.3446737 L56.2119035,23.3446737 L56.2119035,20.0377263 C56.2119035,19.4010947 55.914167,18.9362526 55.2783228,18.9362526 C54.6576178,18.9362526 54.139102,19.4617263 54.1100853,19.4869895 L54.1100853,23.3446737 L52.7273766,23.3446737 L52.7273766,19.5589895 C52.7273766,18.7013053 52.5999555,18.0760421 52.5696772,17.9484632 C52.5949091,17.9434105 52.8825529,17.8815158 53.0806234,17.8815158 C53.7581002,17.8815158 53.9750946,18.3286737 54.0167273,18.4903579 C54.1151317,18.3918316 54.713128,17.7804632 55.7678219,17.7804632 C56.4957625,17.7804632 57.049603,18.1177263 57.3498627,18.6861474 C57.445744,18.5699368 58.0626642,17.7804632 59.2573952,17.7804632 Z M44.0788868,22.3446316 C44.7689796,22.3446316 45.263525,22.0250526 45.3669759,21.9568421 L45.8476438,22.9067368 C45.7277922,22.9951579 45.0250835,23.4675789 43.869462,23.4675789 C42.272282,23.4675789 41.0800742,22.3711579 41.0800742,20.6292632 C41.0800742,19.0301053 42.1221521,17.7795789 43.869462,17.7795789 C45.0591466,17.7795789 45.7593321,18.2557895 45.8287199,18.3 C45.8287199,18.3 45.7744712,18.3985263 45.6874212,18.5715789 C45.5271985,18.8835789 45.3556215,19.0402105 45.0326531,19.0402105 C44.7298701,19.0402105 44.536846,18.9 44.0788868,18.9 C43.2285714,18.9 42.4678293,19.5454737 42.4678293,20.6292632 C42.4678293,21.6006316 43.1377365,22.3446316 44.0788868,22.3446316 Z M28.8982338,17.7809684 C30.4108868,17.7809684 31.3861002,18.8976 31.3861002,20.5952842 L31.3861002,21.0058105 L27.8334471,21.0058105 C27.8599406,21.5578105 28.2270649,22.3877053 29.2880668,22.3877053 C29.9075102,22.3877053 29.964282,22.1969684 30.4222412,22.1969684 C30.6493284,22.1969684 30.8562301,22.2929684 31.0366382,22.5885474 C31.0707013,22.6466526 31.1968609,22.8500211 31.1968609,22.8500211 C31.1173803,22.9030737 30.4499963,23.4689684 29.159384,23.4689684 C27.5394954,23.4689684 26.452,22.4407579 26.452,20.6293895 C26.452,18.8609684 27.5722968,17.7809684 28.8982338,17.7809684 Z M27.8296623,20.0230737 L29.9478813,20.0230737 C29.9377885,19.4180211 29.5605714,18.8230737 28.8780482,18.8230737 C28.267436,18.8230737 27.8296623,19.4003368 27.8296623,20.0230737 Z M33.7519703,21.8129684 C33.7519703,22.1350737 33.946256,22.3220211 34.2667013,22.3220211 C34.4572022,22.3220211 34.6489647,22.2462316 34.685551,22.2247579 C34.685551,22.8285474 34.4168312,23.4689684 33.5173135,23.4689684 C32.7881113,23.4689684 32.3692616,23.0483368 32.3692616,22.3687579 L32.3692616,15.0070737 L32.6657365,15.0070737 C33.3280742,15.0070737 33.7519703,15.5047579 33.7519703,16.1439158 L33.7519703,21.8129684 Z M24.4951391,21.6217263 C24.4951391,22.0183579 24.6742857,22.2924632 25.1246753,22.2924632 C25.4489054,22.2924632 25.7441187,22.1029895 25.7920594,22.0726737 C25.7920594,23.2815158 25.0048237,23.4672 24.3954731,23.4672 C23.6423006,23.4672 23.1124304,22.9998316 23.1124304,22.1017263 L23.1124304,18.9248842 L22.0892764,18.9248842 L22.0892764,17.8815158 L23.1124304,17.8815158 L23.1124304,17.8688842 C23.1124304,16.5147789 23.7520594,16.2520421 24.367718,16.2520421 C24.3715028,16.2507789 24.4951391,16.2520421 24.4951391,16.2520421 L24.4951391,17.8815158 L26.0569944,17.8815158 L25.6532839,18.9261474 L24.4951391,18.9261474 L24.4951391,21.6217263 Z M37.588987,17.7809684 C39.0991169,17.7809684 40.0718071,18.8976 40.0718071,20.5952842 L40.0718071,21.0058105 L36.5216772,21.0058105 C36.5481707,21.5578105 36.9127718,22.3877053 37.9750353,22.3877053 C38.5944787,22.3877053 38.6525121,22.1969684 39.1092096,22.1969684 C39.3350353,22.1969684 39.5444601,22.2929684 39.7248683,22.5885474 C39.7589314,22.6466526 39.8850909,22.8500211 39.8850909,22.8500211 C39.8043488,22.9030737 39.1382263,23.4689684 37.8476141,23.4689684 C36.2264638,23.4689684 35.1414917,22.4407579 35.1414917,20.6293895 C35.1414917,18.8609684 36.2605269,17.7809684 37.588987,17.7809684 Z M36.519154,20.0230737 L38.6386345,20.0230737 C38.6260186,19.4180211 38.2488015,18.8230737 37.5637551,18.8230737 C36.955666,18.8230737 36.519154,19.4003368 36.519154,20.0230737 Z M49.021692,23.4687158 C47.3286308,23.4687158 46.3092616,22.3470316 46.3092616,20.6266105 C46.3092616,18.9099789 47.3134917,17.7794526 49.021692,17.7794526 C50.7336772,17.7794526 51.7391688,18.9099789 51.7391688,20.6266105 C51.7391688,22.2472421 50.8081113,23.4687158 49.021692,23.4687158 Z M49.021692,22.4013474 C49.8720074,22.4013474 50.3602449,21.6699789 50.3602449,20.6266105 C50.3602449,19.5908211 49.8821002,18.8468211 49.021692,18.8468211 C48.1865158,18.8468211 47.6856623,19.5706105 47.6856623,20.6266105 C47.6856623,21.6434526 48.1638071,22.4013474 49.021692,22.4013474 Z" id="Combined-Shape" fill="#EE7623"></path>
            <path d="M4.42302783,17.2845474 C5.63542115,17.8731789 7.13293506,18.5679158 7.13293506,20.4411789 C7.13293506,22.3245474 5.51683117,23.5485474 3.38473469,23.5510737 C1.38510575,23.5510737 0.168927644,22.7780211 -0.000126159555,22.6807579 L0.94354731,20.9098105 C1.07349165,20.9906526 2.07772171,21.6487579 3.22703525,21.6487579 C4.06599629,21.6487579 4.69427087,21.3026526 4.69427087,20.6938105 C4.69427087,20.0079158 3.84395547,19.6656 2.90280519,19.2045474 C2.25686827,18.8887579 1.56551391,18.5199158 1.08232282,17.9565474 C0.706367347,17.5169684 0.466664193,16.9611789 0.466664193,16.1931789 C0.464141002,14.6723368 1.67148794,13.2045474 3.95749907,13.2045474 C5.39319481,13.2045474 6.49330612,13.6883368 6.60054174,13.7312842 L6.49709091,14.0432842 C6.2435102,14.8074947 5.86376994,15.2091789 5.19007792,15.2091789 C5.07905751,15.2091789 4.94532839,15.1927579 4.81916883,15.1700211 C4.57946568,15.1258105 4.3473321,15.0929684 4.0634731,15.0929684 C3.29137662,15.0929684 2.9015436,15.4491789 2.9015436,15.9380211 C2.9015436,16.5771789 3.58658998,16.8917053 4.42302783,17.2845474 Z M12.7638145,18.1604211 L16.8425529,23.3444211 L13.9497143,23.3444211 L10.8058182,19.0648421 L10.7604007,19.0648421 L10.7604007,21.3726316 C10.7604007,23.016 9.58964007,23.4707368 8.60811874,23.4707368 L8.47438961,23.4707368 L8.47312801,13.4109474 L10.744,13.4109474 L10.744,17.5073684 L10.7919406,17.5073684 L13.8765417,13.4109474 L16.6318664,13.4109474 L12.7638145,18.1604211 Z" id="Combined-Shape" fill="#CE0E2D"></path>
            <path d="M16.7616846,2.63494737 C15.961833,2.78652632 14.7759332,3.51410526 14.779718,4.79873684 C14.7809796,5.96589474 15.737269,6.67326316 15.737269,8.20294737 C15.7423154,9.35368421 15.1089944,10.1292632 14.4239481,10.5574737 C14.7014991,10.5334737 15.004282,10.5183158 15.3386048,10.5170526 C16.0375288,10.5157895 16.4601633,10.5814737 16.4853952,10.5865263 L20.0733729,6.17810526 C19.0767124,4.68378947 17.9147829,3.52547368 16.7616846,2.63494737" id="Fill-21" fill="#CE0E2D"></path>
            <path d="M19.7752579,14.5410947 C20.2269091,13.8362526 20.2836809,12.7158316 20.3227904,11.5714105 C20.3656846,10.5053053 20.5864638,9.70446316 22.0095436,9.69814737 C22.3262041,9.69814737 22.628987,9.74109474 23.1702115,9.73856842 C25.2594137,9.72972632 26.6219369,9.01098947 27.4684675,8.53856842 C25.7375584,7.43330526 23.209321,6.30530526 20.0729944,6.17772632 C19.868616,6.75498947 18.2802672,11.1785684 18.1604156,11.5347789 C18.1780779,11.5587789 18.4568905,11.8682526 18.8050909,12.4783579 C19.3172987,13.3133053 19.5910649,14.0232 19.7752579,14.5410947" id="Fill-23" fill="#CE0E2D"></path>
            <path d="M12.1971058,10.9268594 C12.0141744,10.9293474 11.9258627,10.8068211 11.8993692,10.5971368 C11.8766605,10.3899789 10.979666,2.17061053 10.8471985,0.9264 C10.8257514,0.744505263 10.780334,0.411031579 10.780334,0.292294737 C10.780334,0.101557895 10.9064935,0.00176842105 11.051577,0.000505263158 C11.4767347,0.000505263158 13.7955473,0.541136842 16.2531354,2.26787368 C15.5466419,2.46871579 14.2635993,3.2064 14.2699072,4.73355789 C14.273692,6.0864 15.2413358,6.8304 15.2463822,8.18703158 C15.2526902,10.3925053 12.7194063,10.9268594 12.1971058,10.9268594 Z M19.9810241,15.1258105 C20.6345306,14.3363368 20.7354583,13.1552842 20.7695213,12.3013895 C20.7808757,12.0323368 20.7846605,11.7898105 20.7909685,11.6079158 C20.8300779,10.6517053 21.1025826,10.1843368 22.1938627,10.1792842 C22.567295,10.1780211 22.6909314,10.2146526 23.2397254,10.2146526 C25.4740111,10.2045474 26.9765714,9.38475789 27.9391688,8.85423158 C29.1515622,9.69675789 29.875718,10.4672842 30.0170167,10.6946526 C30.0460334,10.7413895 30.0611725,10.7906526 30.0611725,10.8411789 C30.0611725,10.9321263 30.0119703,11.0205474 29.9085195,11.0811789 C29.8050686,11.1418105 29.4947161,11.2794947 29.3294471,11.3590737 C28.2003191,11.8807579 20.7077032,15.3733895 20.5184638,15.4605474 C20.4415065,15.4959158 20.3708571,15.5136 20.3140853,15.5161263 C20.2232505,15.5161263 20.1488163,15.4719158 20.0945677,15.3759158 C20.0567199,15.3152842 20.0201336,15.2293895 19.9810241,15.1258105 Z" id="Combined-Shape" fill="#EE7623"></path>
        </g>
    </g>
</svg>