<?xml version="1.0" encoding="UTF-8"?>
<svg width="100px" height="60px" viewBox="0 0 100 60" version="1.1" xmlns="http://www.w3.org/2000/svg" xmlns:xlink="http://www.w3.org/1999/xlink">
    <!-- Generator: Sketch 55.2 (78181) - https://sketchapp.com -->
    <title>logo/sm</title>
    <desc>Created with Sketch.</desc>
    <g id="logo/sm" stroke="none" stroke-width="1" fill="none" fill-rule="evenodd">
        <g transform="translate(12.000000, 21.000000)" fill="#2B2C2F">
            <path d="M5.59267182,1.50597157 C6.1926419,1.6164404 6.76558953,1.90448529 7.22636259,2.36970224 L11.1072703,6.28809127 C11.3978738,6.58152269 11.7854349,6.74365736 12.1984025,6.74468978 L12.202218,6.74468978 C12.6138389,6.74468978 13.000592,6.58448529 13.2917791,6.29334314 L13.955804,5.62927332 L9.57825786,1.25172718 C8.54121546,0.214595012 6.85374913,0.214595012 5.81666185,1.25172718 C5.73568429,1.33274963 5.66099102,1.41763242 5.59267182,1.50597157 L5.59267182,1.50597157 Z M14.6263377,5.62927332 L15.3294599,6.33239551 C15.9303726,6.93326334 16.9078489,6.93321845 17.5087616,6.33239551 L21.7309511,2.11020599 C21.7809561,2.06029077 21.8324424,2.0127995 21.8852753,1.96795661 C21.842991,1.3839217 21.4882878,0.890425436 20.9383227,0.662575062 C20.3513701,0.419552618 19.7079486,0.547527681 19.2589362,0.996629925 L14.6263377,5.62927332 Z M22.3636893,2.19921845 L22.3636893,10.7637621 C22.3636893,11.6022209 23.0458489,12.2844254 23.8843526,12.2844254 C24.7229012,12.2844254 25.4050608,11.6022209 25.4050608,10.7637621 L25.4050608,3.82846534 C25.4050608,3.02237057 24.9424025,2.33002145 24.1976693,2.02155262 C23.5746718,1.7633581 22.9010409,1.83508878 22.3636893,2.19921845 L22.3636893,2.19921845 Z M9.86033267,16.2139017 C9.87361945,16.2141711 9.88690623,16.2141711 9.90023791,16.2141711 C10.6135047,16.2141711 11.2840833,15.9364055 11.7883975,15.4320464 C12.8296145,14.3908743 12.8296145,12.6968095 11.7883975,11.6556823 L5.48139501,5.34859002 C4.56101596,4.42821097 4.3338389,3.07313865 4.7999985,1.93810623 C4.21165436,1.98896409 3.63727032,2.23737307 3.18578903,2.68391671 L3.12406833,2.74496409 C2.62487132,3.23890923 2.34890125,3.89781696 2.34705113,4.60017606 C2.34517556,5.30271471 2.61777905,5.96310374 3.11450723,6.45987681 L9.26610823,12.6114778 C9.85750474,13.2028743 10.1832105,13.9891287 10.1832105,14.8254778 C10.1832105,15.3151137 10.0715297,15.7876474 9.86033267,16.2139017 L9.86033267,16.2139017 Z M1.68972419,10.2846748 C1.37820299,10.2846748 1.06677157,10.4031786 0.829674314,10.6403656 C0.599893766,10.8701012 0.473355112,11.1755626 0.473355112,11.5004603 C0.473355112,11.8253132 0.599848878,12.1307746 0.829629426,12.3605102 L5.17337506,16.704211 C6.20934015,17.7402209 7.89496608,17.7402658 8.9308414,16.704211 C8.97326035,16.6618369 9.01406334,16.6182509 9.05325037,16.5735426 C8.5377591,16.4302608 8.0653601,16.1559516 7.67676658,15.7673132 L2.54981895,10.6403656 C2.3127217,10.4032234 2.00115561,10.2846748 1.68972419,10.2846748 L1.68972419,10.2846748 Z M7.05210823,17.9551436 C6.25027781,17.9551436 5.44849227,17.6499067 4.83806334,17.0395227 L0.494362594,12.6958219 C-0.164814464,12.0366898 -0.164814464,10.964186 0.494362594,10.3050539 C1.15349476,9.64601147 2.22590873,9.64601147 2.88508579,10.3050539 L8.01203342,15.4320464 C8.38455711,15.804615 8.84784389,16.0535177 9.35193367,16.1581511 C9.58485636,15.7577072 9.70906085,15.3011536 9.70906085,14.8255227 C9.70906085,14.115802 9.43268678,13.44859 8.9308414,12.9467446 L2.7792404,6.79518853 C2.192602,6.20850524 1.87071172,5.42853516 1.87291122,4.5989192 C1.87511072,3.76939302 2.20099601,2.99126334 2.7906419,2.40785686 L2.85236259,2.34680948 C3.45412818,1.75159751 4.24110075,1.4544404 5.02757955,1.4544404 C5.0351207,1.4544404 5.04257207,1.4544404 5.0501581,1.45448529 C5.17122045,1.26353267 5.31499601,1.08285935 5.48139501,0.916460349 C6.70337506,-0.305474813 8.69154464,-0.305474813 9.91356958,0.916460349 L14.2910708,5.29400648 L18.9236693,0.661363092 C19.5108464,0.0741411471 20.3522678,-0.0934249377 21.1197591,0.2245601 C21.7553252,0.487826933 22.1914998,1.02248529 22.3224823,1.67039551 C22.9481731,1.33728329 23.6887317,1.29742294 24.3791057,1.58349277 C25.3044224,1.96674464 25.8791656,2.82697406 25.8791656,3.82846534 L25.8791656,10.7637621 C25.8791656,11.8636923 24.9843277,12.7585302 23.8843526,12.7585302 C22.7844224,12.7585302 21.8895845,11.8636923 21.8895845,10.7637621 L21.8895845,2.62215112 L17.8439835,6.66770723 C17.46338,7.04831072 16.9573601,7.25793666 16.4191107,7.25793666 C15.8808613,7.25793666 15.3748414,7.04831072 14.9942379,6.66770723 L14.2910708,5.96454015 L13.627001,6.62860998 C13.2463077,7.00930324 12.7404224,7.21879451 12.2022628,7.2188394 L12.1972803,7.2188394 C11.6571905,7.21753766 11.1504524,7.00548778 10.7704324,6.62174214 L6.88952469,2.70335312 C6.45133017,2.26093915 5.89310574,2.00772718 5.31755461,1.94425586 C4.8213202,2.9400015 4.9877192,4.18438055 5.81666185,5.01332319 L12.1237092,11.3203706 C13.3497292,12.5464354 13.3497292,14.5412933 12.1237092,15.7673132 C11.5298439,16.3612234 10.7401781,16.6883207 9.90023791,16.6883207 C9.793001,16.6883207 9.68657207,16.6829791 9.58126534,16.6724304 C9.4866419,16.8014828 9.38138005,16.924206 9.26610823,17.0394778 C8.6556793,17.6499067 7.85389377,17.9551436 7.05210823,17.9551436 L7.05210823,17.9551436 Z" id="Fill-1"></path>
            <path d="M23.8833022,14.2328603 C23.0442599,14.2328603 22.3616514,14.9155137 22.3616514,15.7545561 C22.3616514,16.5936434 23.0442599,17.2762519 23.8833022,17.2762519 C24.7223446,17.2762519 25.4050429,16.5936434 25.4050429,15.7545561 C25.4050429,14.9155137 24.7223446,14.2328603 23.8833022,14.2328603 M23.8833022,17.7504015 C22.7827885,17.7504015 21.8875017,16.8550698 21.8875017,15.7545561 C21.8875017,14.6540424 22.7827885,13.7587107 23.8833022,13.7587107 C24.9838608,13.7587107 25.8791925,14.6540424 25.8791925,15.7545561 C25.8791925,16.8550698 24.9838608,17.7504015 23.8833022,17.7504015 Z M32.443411,2.35539651 C32.2398898,2.29057855 32.0606529,2.25816958 31.9057451,2.25816958 C31.7329272,2.25816958 31.5959746,2.29057855 31.4951566,2.35539651 C31.3943835,2.42025935 31.3439746,2.51030424 31.3439746,2.62553117 C31.3439746,2.73007481 31.378987,2.81738155 31.4493262,2.88754115 C31.5195307,2.95779052 31.60778,3.01547132 31.7139845,3.06044888 C31.820189,3.1055611 31.9652663,3.15502743 32.1489022,3.20907232 C32.4046279,3.28466334 32.6144783,3.36034414 32.7784085,3.43593516 C32.9421591,3.51157107 33.081805,3.62329676 33.1970768,3.77093267 C33.3122589,3.91865835 33.3699845,4.113202 33.3699845,4.35442893 C33.3699845,4.58497257 33.3078599,4.7858005 33.1835656,4.95686783 C33.0593162,5.12798005 32.888204,5.2585586 32.6703636,5.3485586 C32.4522988,5.43864838 32.202992,5.48358105 31.9219945,5.48358105 C31.626588,5.48358105 31.3385431,5.42877307 31.0575456,5.31884289 C30.7766379,5.20895761 30.5316853,5.06221945 30.3228224,4.87849377 L30.6253212,4.26254364 C30.8162289,4.43908728 31.0304783,4.57779052 31.2682489,4.67860848 C31.5059746,4.77947132 31.7274958,4.8298803 31.9328125,4.8298803 C32.1344933,4.8298803 32.2929471,4.79118703 32.4082638,4.71371072 C32.5234459,4.63632419 32.5811267,4.53097257 32.5811267,4.39765586 C32.5811267,4.28961097 32.5460693,4.20046384 32.4757751,4.13021446 C32.4055706,4.05996509 32.3164683,4.00322693 32.2084234,3.96004489 C32.1003337,3.91681796 31.9525631,3.86820449 31.765381,3.81420449 C31.5095656,3.73852369 31.3007027,3.66472818 31.1385681,3.5926384 C30.9765232,3.52059352 30.8378648,3.41165087 30.722593,3.26581047 C30.6072763,3.1198803 30.5496853,2.9281197 30.5496853,2.69034913 C30.5496853,2.47071322 30.608219,2.27890773 30.7252863,2.11497756 C30.8423087,1.95113716 31.0079895,1.82414963 31.2223736,1.73405985 C31.4366229,1.64405985 31.6843586,1.59899252 31.9652663,1.59899252 C32.2101292,1.59899252 32.4522988,1.63503741 32.6918648,1.70708229 C32.9314309,1.77917207 33.1448723,1.876399 33.332189,1.99885287 L33.0403736,2.63096259 C32.8459197,2.51205486 32.6468873,2.42025935 32.443411,2.35539651 Z M30.4489302,8.28343392 L33.2205711,8.28343392 L33.2205711,8.91554364 L31.1728803,8.91554364 L31.1728803,9.74269077 L32.7354688,9.74269077 L32.7354688,10.3748454 L31.1728803,10.3748454 L31.1728803,11.4332544 L33.285389,11.4332544 L33.285389,12.065409 L30.4489302,12.065409 L30.4489302,8.28343392 Z M42.543817,8.28343392 L45.3154579,8.28343392 L45.3154579,8.91554364 L43.2677671,8.91554364 L43.2677671,9.74269077 L44.8303556,9.74269077 L44.8303556,10.3748454 L43.2677671,10.3748454 L43.2677671,11.4332544 L45.3802309,11.4332544 L45.3802309,12.065409 L42.543817,12.065409 L42.543817,8.28343392 Z M69.4710494,8.28343392 L72.2426903,8.28343392 L72.2426903,8.91554364 L70.1949995,8.91554364 L70.1949995,9.74269077 L71.757588,9.74269077 L71.757588,10.3748454 L70.1949995,10.3748454 L70.1949995,11.4332544 L72.3075082,11.4332544 L72.3075082,12.065409 L69.4710494,12.065409 L69.4710494,8.28343392 Z M36.979007,8.28343392 L37.6813212,8.28343392 L37.6813212,12.065409 L36.9952115,12.065409 L35.0501342,9.4611995 L35.0501342,12.065409 L34.3424334,12.065409 L34.3424334,8.28343392 L35.0286329,8.28343392 L36.979007,10.892985 L36.979007,8.28343392 Z M38.6214419,8.28343392 L41.7064444,8.28343392 L41.7064444,8.9263616 L40.5285441,8.9263616 L40.5285441,12.065409 L39.7992075,12.065409 L39.7992075,8.9263616 L38.6214419,8.9263616 L38.6214419,8.28343392 Z M50.0320549,8.28343392 L53.1171022,8.28343392 L53.1171022,8.9263616 L51.9391571,8.9263616 L51.9391571,12.065409 L51.2098204,12.065409 L51.2098204,8.9263616 L50.0320549,8.9263616 L50.0320549,8.28343392 Z M56.5855137,12.065391 L56.2505611,11.265805 L54.4028005,11.265805 L54.0678479,12.065391 L53.3168304,12.065391 L54.9754788,8.28341596 L55.7264963,8.28341596 L57.3635536,12.065391 L56.5855137,12.065391 Z M54.6621621,10.6444683 L55.9912444,10.6444683 L55.3321571,9.05602444 L54.6621621,10.6444683 Z M58.1469127,12.0653865 L58.1469127,8.28341147 L58.8708628,8.28341147 L58.8708628,12.0653865 L58.1469127,12.0653865 Z M62.6528424,8.28343392 L63.3551566,8.28343392 L63.3551566,12.065409 L62.6690469,12.065409 L60.7240145,9.4611995 L60.7240145,12.065409 L60.0163137,12.065409 L60.0163137,8.28343392 L60.7024683,8.28343392 L62.6528424,10.892985 L62.6528424,8.28343392 Z M76.0030564,8.28343392 L76.7053706,8.28343392 L76.7053706,12.065409 L76.0192608,12.065409 L74.0742284,9.4611995 L74.0742284,12.065409 L73.3665277,12.065409 L73.3665277,8.28343392 L74.0526823,8.28343392 L76.0030564,10.892985 L76.0030564,8.28343392 Z M77.5374374,8.28343392 L80.6224848,8.28343392 L80.6224848,8.9263616 L79.4445397,8.9263616 L79.4445397,12.065409 L78.715203,12.065409 L78.715203,8.9263616 L77.5374374,8.9263616 L77.5374374,8.28343392 Z M37.6541641,1.57242344 L38.305396,1.57242344 L38.305396,5.52640848 L37.5553212,5.52640848 L37.5553212,2.89881247 L36.3525531,4.53034863 L35.1498299,2.89881247 L35.1498299,5.52640848 L34.3997551,5.52640848 L34.3997551,1.57242344 L35.0509421,1.57242344 L36.3525531,3.37668778 L37.6541641,1.57242344 Z M67.7688239,8.19742893 L68.420011,8.19742893 L68.420011,12.151414 L67.6699362,12.151414 L67.6699362,9.52381796 L66.467213,11.1553541 L65.2644449,9.52381796 L65.2644449,12.151414 L64.5143701,12.151414 L64.5143701,8.19742893 L65.1655571,8.19742893 L66.467213,10.0016933 L67.7688239,8.19742893 Z M48.0350828,10.5419446 L47.0659107,10.5419446 L47.0659107,12.0747277 L46.4055217,12.0747277 L46.4055217,8.2740793 L48.0575267,8.2740793 C48.4959905,8.2740793 48.8344444,8.37247332 49.0728883,8.56930623 C49.3112424,8.76609426 49.4305541,9.05086234 49.4305541,9.42361047 C49.4305541,9.67794464 49.3691476,9.89084738 49.2464693,10.0623636 C49.1237461,10.2339247 48.9528135,10.3658948 48.7335367,10.4581392 L49.6646888,12.0747277 L48.9572574,12.0747277 L48.0350828,10.5419446 Z M47.0659107,10.0104733 L48.1449681,10.0104733 C48.3554469,10.0104733 48.5200055,9.95746085 48.6383297,9.85134613 C48.7567885,9.74527631 48.8159057,9.60010923 48.8159057,9.41593466 C48.8159057,9.22350075 48.7612773,9.07469776 48.6519307,8.96939102 C48.5425392,8.86417406 48.3793721,8.80990474 48.1622499,8.80658304 L47.0659107,8.80658304 L47.0659107,10.0104733 Z" id="Combined-Shape"></path>
        </g>
    </g>
</svg>