<?xml version="1.0" encoding="utf-8"?>
<!-- Generator: Adobe Illustrator 25.4.1, SVG Export Plug-In . SVG Version: 6.00 Build 0)  -->
<svg version="1.1" id="레이어_1" xmlns="http://www.w3.org/2000/svg" xmlns:xlink="http://www.w3.org/1999/xlink" x="0px"
	 y="0px" viewBox="0 0 100 60" style="enable-background:new 0 0 100 60;" xml:space="preserve">
<style type="text/css">
	.st0{fill:#717071;}
	.st1{fill:url(#SVGID_1_);}
	.st2{fill:url(#SVGID_00000052809827822724779230000009298668656828021376_);}
</style>
<g>
	<g>
		<rect x="48.3" y="42.6" class="st0" width="1" height="7.7"/>
		<path class="st0" d="M45.9,42.9v-0.3h-1.1v0.3c0,1.9-0.5,3.1-2,4.1v0.9c1.2-0.4,2.3-1.5,2.5-2.3c0.2,0.8,1.3,2,2.5,2.3V47
			C46.4,46,45.9,44.9,45.9,42.9z"/>
		<polygon class="st0" points="17,46.9 15.9,46.9 15.9,49 12.9,49 12.9,49.8 20,49.8 20,49 17,49 		"/>
		<path class="st0" d="M16.4,45.1c0.4,1,1.7,2.1,3.1,2.4v-0.9C18.3,46,17,45,17,42.9v-0.3h-1.1v0.3c0,2.1-1.3,3.1-2.5,3.7v0.9
			C14.7,47.1,16,46,16.4,45.1z"/>
		<path class="st0" d="M26.5,42.6h-1v4.7c-0.3-0.3-0.8-0.4-1.3-0.4c-1.1,0-2,0.8-2,1.9c0,1,0.9,1.9,2,1.9c1.1,0,2-0.8,2-1.9
			c0-0.5-0.2-0.9-0.5-1.2h0.8v-3h0.7v-0.8h-0.7V42.6z M24.1,49.7c-0.5,0-1-0.5-1-1c0-0.6,0.4-1,1-1c0.5,0,1,0.5,1,1
			C25.1,49.2,24.7,49.7,24.1,49.7z"/>
		<path class="st0" d="M25,46.7v-0.9c-1.1-0.5-1.8-1.3-1.8-2.9v-0.3h-1.1v0.3c0,1.6-0.6,2.4-1.8,2.9v0.9c0.9-0.2,1.9-0.9,2.4-1.8
			C23.1,45.8,24.1,46.5,25,46.7z"/>
		<path class="st0" d="M56.7,42.6h-1v4.7c-0.4-0.3-0.8-0.4-1.3-0.4c-1.1,0-2,0.8-2,1.9c0,1,0.9,1.9,2,1.9c1.1,0,2-0.8,2-1.9
			c0-0.5-0.2-0.9-0.5-1.2h0.8v-3h0.7v-0.8h-0.7V42.6z M54.3,49.7c-0.5,0-1-0.5-1-1c0-0.6,0.4-1,1-1c0.5,0,1,0.5,1,1
			C55.3,49.2,54.9,49.7,54.3,49.7z"/>
		<path class="st0" d="M52.9,44.9c0.5,0.9,1.4,1.6,2.3,1.8v-0.9c-1-0.4-1.6-1.1-1.7-2.3H55v-0.8h-4.2v0.8h1.5
			c-0.1,1.2-0.7,1.9-1.7,2.3v0.9C51.5,46.5,52.4,45.8,52.9,44.9z"/>
		<path class="st0" d="M31.3,46.8c-1.1,0-2,0.8-2,1.9c0,1,0.9,1.9,2,1.9c1.1,0,2-0.8,2-1.9C33.3,47.6,32.4,46.8,31.3,46.8z
			 M31.3,49.7c-0.5,0-1-0.5-1-1c0-0.6,0.4-1,1-1c0.5,0,1,0.5,1,1C32.3,49.2,31.8,49.7,31.3,49.7z"/>
		<path class="st0" d="M34.1,43.5c0-0.4-0.4-0.8-0.8-0.8h-4.8v0.8H33v2.2h-1.7v-1.4h-1v1.4h-2.5v0.8h7v-0.8h-0.7V43.5z"/>
		<rect x="40.8" y="42.6" class="st0" width="1" height="5.6"/>
		<path class="st0" d="M39.9,44.6c0-1.2-1-2.1-2.2-2.1c-1.2,0-2.2,0.9-2.2,2.1c0,1.2,1,2.1,2.2,2.1C38.9,46.7,39.9,45.8,39.9,44.6z
			 M36.6,44.6c0-0.7,0.5-1.2,1.1-1.2c0.6,0,1.1,0.5,1.1,1.2c0,0.7-0.5,1.2-1.1,1.2C37.1,45.8,36.6,45.3,36.6,44.6z"/>
		<path class="st0" d="M37.9,47.4h-1v2v0c0,0.4,0.4,0.8,0.8,0.8h4.3v-0.8h-4V47.4z"/>
		<rect x="63.3" y="42.6" class="st0" width="1" height="5.6"/>
		<path class="st0" d="M60.5,45c0.5,0.9,1.4,1.6,2.3,1.8V46c-1.1-0.5-1.6-1.2-1.7-2.5h1.5v-0.8h-4.2v0.8H60c-0.1,1.3-0.7,2-1.7,2.5
			v0.9C59.1,46.7,60.1,46,60.5,45z"/>
		<path class="st0" d="M60.3,47.4h-1v2v0c0,0.4,0.4,0.8,0.8,0.8h4.4v-0.8h-4.1V47.4z"/>
		<rect x="65.3" y="46.3" class="st0" width="7.1" height="0.8"/>
		<path class="st0" d="M71.7,42.9h-2.3v-0.6h-1.1v0.6l-2.3,0v0.8h1c-0.2,0.2-0.2,0.5-0.2,0.8c0,0.9,0.9,1.7,2.1,1.7
			c1.1,0,2.1-0.8,2.1-1.7c0-0.3-0.1-0.6-0.2-0.8h1V42.9z M68.9,45.2c-0.6,0-1-0.4-1-0.8c0-0.4,0.5-0.8,1-0.8c0.6,0,1,0.4,1,0.8
			C69.9,44.9,69.4,45.2,68.9,45.2z"/>
		<path class="st0" d="M68.9,47.3c-1.2,0-2.1,0.7-2.1,1.6c0,0.9,1,1.6,2.1,1.6c1.2,0,2.1-0.7,2.1-1.6C71,48,70.1,47.3,68.9,47.3z
			 M68.9,49.7c-0.6,0-1.1-0.3-1.1-0.7c0-0.4,0.5-0.7,1.1-0.7c0.6,0,1.1,0.3,1.1,0.7C69.9,49.4,69.5,49.7,68.9,49.7z"/>
		<path class="st0" d="M86.3,43.6v-1.1h-1v3.5h-3.6v-2.6h2.7v-0.8h-3.8v3.4c0,0.4,0.4,0.8,0.8,0.8h3.8v1.2h1v-3.6h0.7v-0.8H86.3z"/>
		<path class="st0" d="M82.4,47.4h-1v2v0c0,0.4,0.4,0.8,0.8,0.8h4.3v-0.8h-4V47.4z"/>
		<path class="st0" d="M76.3,46.8c-1.1,0-2,0.8-2,1.9c0,1,0.9,1.9,2,1.9c1.1,0,2-0.8,2-1.9C78.3,47.6,77.4,46.8,76.3,46.8z
			 M76.3,49.7c-0.5,0-1-0.5-1-1c0-0.6,0.4-1,1-1c0.5,0,1,0.5,1,1C77.3,49.2,76.9,49.7,76.3,49.7z"/>
		<path class="st0" d="M79.1,43.5c0-0.4-0.4-0.8-0.8-0.8h-4.8v0.8h4.6v2.2h-1.7v-1.4h-1v1.4h-2.5v0.8h7v-0.8h-0.7V43.5z"/>
	</g>
	<g>
		<linearGradient id="SVGID_1_" gradientUnits="userSpaceOnUse" x1="54.9294" y1="32.2918" x2="33.6769" y2="11.0393">
			<stop  offset="0" style="stop-color:#00478A"/>
			<stop  offset="0.7" style="stop-color:#0075C1"/>
		</linearGradient>
		<path class="st1" d="M50,11.2c-6.2,2.5-8.9,7.1-8.9,12.2c0,3.3,2.5,6,5.9,6c2.4,0,5.9-1.9,5.9-5.9c0-2.2-1.2-4.1-2.9-5.1
			c0.9-0.5,1.9-0.8,3-0.8c3.3,0,5.9,2.7,5.9,5.9c0,5.8-4.1,10.2-8.8,11.4c-1.1,0.3-2.2,0.4-3.3,0.4C38,35.1,30.8,26.6,35,9.7
			C41.7,8.9,47,10,50,11.2z"/>
		<g>
			
				<linearGradient id="SVGID_00000019650797741473486100000005532676801172287362_" gradientUnits="userSpaceOnUse" x1="45.7316" y1="30.6733" x2="65.8364" y2="10.5685">
				<stop  offset="0" style="stop-color:#FCCF00"/>
				<stop  offset="0.7" style="stop-color:#EF8200"/>
			</linearGradient>
			<path style="fill:url(#SVGID_00000019650797741473486100000005532676801172287362_);" d="M65,9.8L65,9.8C58.7,9,53.7,9.7,50,11.2
				c-6.2,2.5-8.9,7.1-8.9,12.2c0,3.3,2.5,6,5.9,6c0.9,0,2-0.3,2.9-0.8c-1.7-1-2.9-2.9-2.9-5.1c0-2.2,1.2-4.1,2.9-5.1
				c0.9-0.5,1.9-0.8,3-0.8c3.3,0,5.9,2.7,5.9,5.9c0,5.8-4.1,10.2-8.8,11.4c1.1,0.3,2.2,0.4,3.3,0.4C62,35.1,69.2,26.7,65,9.8z"/>
		</g>
	</g>
</g>
</svg>
