<?xml version="1.0" encoding="UTF-8"?>
<svg width="100px" height="60px" viewBox="0 0 100 60" version="1.1" xmlns="http://www.w3.org/2000/svg" xmlns:xlink="http://www.w3.org/1999/xlink">
    <!-- Generator: Sketch 55.2 (78181) - https://sketchapp.com -->
    <title>logo/spoon</title>
    <desc>Created with Sketch.</desc>
    <defs>
        <polygon id="path-1" points="0 0 19.999975 0 19.999975 20 0 20"></polygon>
        <polygon id="path-3" points="0.0661 0.13355 44.51525 0.13355 44.51525 9.14355 0.0661 9.14355"></polygon>
    </defs>
    <g id="logo/spoon" stroke="none" stroke-width="1" fill="none" fill-rule="evenodd">
        <g transform="translate(16.000000, 20.000000)">
            <g id="Group-3">
                <mask id="mask-2" fill="white">
                    <use xlink:href="#path-1"></use>
                </mask>
                <g id="Clip-2"></g>
                <path d="M14.905975,0 L5.093975,0 C2.286725,0 -2.5e-05,2.2605 -2.5e-05,5.03925 L-2.5e-05,14.96075 C-2.5e-05,17.74075 2.286725,20 5.093975,20 L14.905975,20 C17.714475,20 19.999975,17.74075 19.999975,14.96075 L19.999975,5.03925 C19.999975,2.2605 17.714475,0 14.905975,0" id="Fill-1" fill="#FFC400" mask="url(#mask-2)"></path>
            </g>
            <path d="M9.952,6.029675 C8.3415,6.029675 6.912,6.691675 6.02475,7.711175 C5.43125,8.390425 5.082,9.230425 5.082,10.136925 C5.082,11.114175 5.4855,12.010175 6.16,12.715175 C7.05475,13.649675 8.42075,14.248925 9.952,14.248925 C10.258,14.248925 10.5665,14.223675 10.86875,14.175675 L11.00675,14.153675 L12.5875,15.257675 L12.4675,13.663175 L12.6775,13.542925 C13.08625,13.310925 13.44475,13.029675 13.744,12.715175 C14.434,11.992425 14.8235,11.088425 14.8235,10.136925 C14.8235,9.230425 14.47225,8.390425 13.88075,7.711175 C12.99275,6.691675 11.56275,6.029675 9.952,6.029675 M8.778,9.072925 C9.03075,9.072925 9.23475,9.297675 9.23475,9.571675 C9.23475,9.847675 9.03075,10.070425 8.778,10.070425 C8.524,10.070425 8.3195,9.847675 8.3195,9.571675 C8.3195,9.297675 8.524,9.072925 8.778,9.072925 M9.952,11.861175 C9.308,11.861175 8.744,11.448925 8.452,10.843675 L11.45325,10.843675 C11.1605,11.448925 10.5975,11.861175 9.952,11.861175 M11.1275,10.070425 C10.874,10.070425 10.66875,9.847675 10.66875,9.571675 C10.66875,9.297675 10.874,9.072925 11.1275,9.072925 C11.38075,9.072925 11.58625,9.297675 11.58625,9.571675 C11.58625,9.847675 11.38075,10.070425 11.1275,10.070425" id="Fill-4" fill="#FFFFFF"></path>
            <path d="M8.777675,10.0703 C9.031175,10.0703 9.235175,9.84755 9.235175,9.57155 C9.235175,9.2978 9.031175,9.07305 8.777675,9.07305 C8.523675,9.07305 8.319675,9.2978 8.319675,9.57155 C8.319675,9.84755 8.523675,10.0703 8.777675,10.0703" id="Fill-6" fill="#313333"></path>
            <path d="M11.127425,9.072875 C10.873925,9.072875 10.668675,9.297625 10.668675,9.571625 C10.668675,9.847625 10.873925,10.070375 11.127425,10.070375 C11.380925,10.070375 11.586175,9.847625 11.586175,9.571625 C11.586175,9.297625 11.380925,9.072875 11.127425,9.072875" id="Fill-8" fill="#313333"></path>
            <path d="M9.95225,11.8606 C10.59775,11.8606 11.1605,11.4491 11.4535,10.8441 L8.45225,10.8441 C8.74425,11.4491 9.3075,11.8606 9.95225,11.8606" id="Fill-10" fill="#313333"></path>
            <path d="M15.7739,7.710825 L15.3104,7.710825 C15.2474,6.520825 14.7079,5.415575 13.77465,4.574825 C12.7959,3.693575 11.3324,3.207575 9.95265,3.207575 C8.57265,3.207575 7.1099,3.693575 6.13065,4.574825 C5.19715,5.415575 4.6579,6.520825 4.59465,7.710825 L4.2259,7.710825 C3.3079,7.710825 2.5639,8.829575 2.5639,10.212075 C2.5639,11.595075 3.3079,12.714825 4.2259,12.714825 L5.18265,12.714825 C5.41465,13.040325 5.69315,13.347325 6.0159,13.623575 C7.07065,14.530325 8.4679,15.028825 9.95265,15.028825 C10.24915,15.028825 10.5439,15.007575 10.83665,14.967575 L13.44465,16.791575 L13.2379,14.102825 C13.8414,13.722825 14.3414,13.251575 14.72065,12.714825 L15.7739,12.714825 C16.6919,12.714825 17.4354,11.595075 17.4354,10.212075 C17.4354,8.829575 16.6919,7.710825 15.7739,7.710825 M9.95265,3.951575 C12.2054,3.951575 14.20865,5.428825 14.5619,7.347575 C14.36515,7.102075 14.1414,6.868075 13.88865,6.652825 C12.83465,5.746325 11.4354,5.247575 9.95265,5.247575 C8.4679,5.247575 7.07065,5.746325 6.0159,6.652825 C5.76465,6.868075 5.54065,7.102075 5.34265,7.347575 C5.69465,5.428825 7.7019,3.951575 9.95265,3.951575 M13.7439,12.714825 C13.44465,13.030325 13.08665,13.311575 12.67715,13.543075 L12.46715,13.662825 L12.5879,15.257575 L11.0074,14.153575 L10.8694,14.175575 C10.56665,14.224075 10.25815,14.248825 9.95265,14.248825 C8.42115,14.248825 7.05465,13.649325 6.1599,12.714825 C5.48515,12.010325 5.0819,11.115075 5.0819,10.136825 C5.0819,9.230325 5.43115,8.390825 6.02465,7.710825 C6.9119,6.691575 8.3414,6.030075 9.95265,6.030075 C11.56315,6.030075 12.99265,6.691575 13.88065,7.710825 C14.4719,8.390825 14.82315,9.230325 14.82315,10.136825 C14.82315,11.088825 14.4339,11.992075 13.7439,12.714825" id="Fill-12" fill="#313333"></path>
            <path d="M5.2413,13.6316 L4.7493,13.6316 C4.7493,14.32535 5.30605,14.8936 5.99005,14.8936 L5.99005,14.3936 C5.57655,14.3936 5.2413,14.05235 5.2413,13.6316" id="Fill-14" fill="#313333"></path>
            <path d="M4.306375,13.6316 L3.814375,13.6316 C3.814375,14.8501 4.791125,15.8436 5.989625,15.8436 L5.989625,15.3436 C5.061625,15.3436 4.306375,14.57535 4.306375,13.6316" id="Fill-16" fill="#313333"></path>
            <g id="Group-20" transform="translate(24.000000, 5.750000)">
                <mask id="mask-4" fill="white">
                    <use xlink:href="#path-3"></use>
                </mask>
                <g id="Clip-19"></g>
                <path d="M40.4006,0.1338 C42.75385,0.1338 44.51535,2.1883 44.51535,4.50655 L44.51535,9.1433 L42.3551,9.1433 L42.3551,4.50655 C42.3551,3.3963 41.55635,2.32705 40.4006,2.32705 C39.24435,2.32705 38.4461,3.3963 38.4461,4.50655 L38.4461,4.5073 L38.4461,9.1433 L36.2851,9.1433 L36.2851,4.5073 L36.2851,4.50655 L36.2851,0.1338 L38.4461,0.1338 L38.4461,0.65705 C39.02035,0.3253 39.68235,0.1338 40.4006,0.1338 L40.4006,0.1338 Z M14.0401,5.01355 C14.70435,5.01355 15.25485,4.53105 15.36085,3.89805 C15.3731,3.8253 15.38135,3.75105 15.38135,3.67505 C15.38135,3.0098 14.89535,2.46005 14.25935,2.3553 C14.18785,2.3433 14.11485,2.3358 14.0401,2.3358 L13.26485,2.3358 L11.3851,2.3358 L11.3851,2.3553 L11.3851,3.89805 L11.3851,5.01355 L13.26485,5.01355 L14.0401,5.01355 Z M17.26985,2.3553 C17.43035,2.77255 17.5181,3.2253 17.5181,3.69205 C17.5181,3.76055 17.51535,3.82955 17.5116,3.89805 C17.41185,5.7033 16.01035,7.2353 14.1466,7.2353 L11.38635,7.2353 L11.38635,9.14355 L9.15335,9.14355 L9.15335,4.3668 L9.15335,3.89805 L9.15335,2.98255 L9.15335,2.3553 L9.15335,0.13405 L11.3851,0.13405 L13.26485,0.13405 L14.1466,0.13405 C15.6041,0.13405 16.77885,1.0788 17.26985,2.3553 L17.26985,2.3553 Z M5.88085,3.5073 C7.36235,3.5073 8.5621,4.73105 8.5621,6.22555 L8.5621,6.4248 C8.5621,7.91955 7.36235,9.1433 5.88085,9.1433 L0.74435,9.1433 L0.74435,6.90355 L5.90935,6.90355 C6.22685,6.90355 6.48335,6.6473 6.48335,6.3308 C6.48335,6.0143 6.22685,5.75755 5.90935,5.75755 L5.7691,5.75755 L2.51335,5.75755 C1.15335,5.63605 0.0661,4.4653 0.0661,3.0513 L0.0661,2.8523 C0.0661,1.35755 1.28035,0.1338 2.74785,0.1338 L7.8986,0.1338 L7.8986,2.3538 L2.76485,2.3538 C2.44785,2.3538 2.19135,2.61055 2.19135,2.92705 C2.19135,3.1318 2.29935,3.3093 2.4606,3.4108 C2.52535,3.4703 2.61685,3.5073 2.74785,3.5073 L5.88085,3.5073 Z M31.3861,7.01255 C32.66935,7.01255 33.6321,5.89255 33.6321,4.63855 C33.6321,3.3708 32.66935,2.25155 31.3861,2.25155 C30.10235,2.25155 29.12535,3.3708 29.12535,4.63855 C29.12535,5.89255 30.0881,7.01255 31.3861,7.01255 L31.3861,7.01255 Z M31.3861,0.13355 C33.83335,0.13355 35.73185,2.19755 35.73185,4.63855 C35.73185,7.0663 33.83335,9.14305 31.3861,9.14305 C28.93885,9.14305 27.02635,7.0663 27.02635,4.63855 C27.02635,2.19755 28.93885,0.13355 31.3861,0.13355 L31.3861,0.13355 Z M22.3641,0.13355 C24.8116,0.13355 26.7106,2.19755 26.7106,4.63855 C26.7106,7.0663 24.8116,9.14305 22.3641,9.14305 C19.91685,9.14305 18.00435,7.0663 18.00435,4.63855 C18.00435,2.19755 19.91685,0.13355 22.3641,0.13355 L22.3641,0.13355 Z M22.3641,7.01255 C21.06685,7.01255 20.1036,5.89255 20.1036,4.63855 C20.1036,3.3708 21.08035,2.25155 22.3641,2.25155 C23.64735,2.25155 24.61085,3.3708 24.61085,4.63855 C24.61085,5.89255 23.64735,7.01255 22.3641,7.01255 L22.3641,7.01255 Z" id="Fill-18" fill="#FFC400" mask="url(#mask-4)"></path>
            </g>
        </g>
    </g>
</svg>