<?xml version="1.0" encoding="UTF-8"?>
<svg width="100px" height="60px" viewBox="0 0 100 60" version="1.1" xmlns="http://www.w3.org/2000/svg" xmlns:xlink="http://www.w3.org/1999/xlink">
    <!-- Generator: Sketch 55.2 (78181) - https://sketchapp.com -->
    <title>logo/sweettracker</title>
    <desc>Created with Sketch.</desc>
    <defs>
        <polygon id="path-1" points="0.061949913 0.0212778947 54.1873438 0.0212778947 54.1873438 21.663155 0.061949913 21.663155"></polygon>
    </defs>
    <g id="logo/sweettracker" stroke="none" stroke-width="1" fill="none" fill-rule="evenodd">
        <g transform="translate(14.000000, 15.000000)">
            <path d="M53.2771906,15.3820863 C53.2771906,15.8897495 53.279655,16.4298758 53.2766219,16.9700021 C53.2721355,17.7886547 52.9450092,18.1807389 52.2645964,18.1897705 C51.5621941,18.1991179 51.2345622,17.8276232 51.2339935,17.0054968 C51.2320347,14.23716 51.2319083,11.4688232 51.2340567,8.70048632 C51.2347518,7.87476 51.561815,7.49006526 52.2477251,7.49094795 C52.9059587,7.49183368 53.2733361,7.91916 53.27599,8.70617053 C53.2804764,10.0176442 53.2772538,11.3291811 53.2772538,12.6306758 C54.4071257,12.94116 54.9787912,12.5723179 55.1147726,11.4774126 C55.1956538,10.8265705 55.5270138,10.52436 56.1463234,10.5368021 C56.7505309,10.5489916 57.1551894,10.9533916 57.1660579,11.5828232 C57.1810967,12.4544653 56.8433547,13.1939811 56.2675819,13.8280863 C56.3455564,14.0951811 56.5889581,14.1979389 56.7406103,14.3786337 C57.2139547,14.94276 57.4774503,15.5788863 57.4784613,16.3185916 C57.479346,16.9045705 57.4648758,17.4910547 57.4833268,18.0764653 C57.5112561,18.9634547 57.8917135,19.3636863 58.7622602,19.4613284 C59.4973941,19.5438758 59.8433506,19.9336863 59.7812364,20.6096653 C59.7262625,21.2082758 59.2563935,21.5600021 58.5719999,21.5149074 C56.6880376,21.3908653 55.4632567,20.0791389 55.4570642,18.1778968 C55.4555477,17.7131811 55.4610451,17.2483389 55.4558637,16.7836232 C55.444237,15.7214968 54.9976845,15.2817284 53.92999,15.2874126 C53.7337268,15.2884863 53.5272903,15.2350547 53.2771906,15.3820863" id="Fill-1" fill="#E964A1"></path>
            <path d="M43.4777431,15.6208674 C43.4777431,16.1464674 43.5006805,16.6733305 43.4719929,17.1972884 C43.4356596,17.8602568 43.0536857,18.1995411 42.4177576,18.18912 C41.7901703,18.1788253 41.4311338,17.81832 41.421466,17.1463832 C41.40807,16.2165726 41.4353674,15.2860042 41.4113558,14.3565726 C41.3859541,13.3754147 40.6312318,12.6276884 39.6799935,12.5945937 C38.7264805,12.5614358 37.9296115,13.26552 37.825161,14.2335411 C37.7192573,15.2148884 38.4762544,16.0698568 39.5551332,16.1874568 C40.2481205,16.2629937 40.5601448,16.5086779 40.6293361,17.0333305 C40.7202642,17.7230147 40.3096028,18.1949305 39.5952579,18.22152 C37.8823466,18.2853095 36.3282277,17.1049516 35.8843292,15.4032253 C35.4253286,13.6434568 36.1942051,11.8120042 37.7361918,10.9919621 C39.3334051,10.1425516 41.3707257,10.4998358 42.5620799,11.8394779 C43.1977552,12.5543621 43.4561326,13.4097726 43.4797651,14.3472884 C43.4905071,14.7715832 43.4816608,15.19632 43.4816608,15.6208674 L43.4777431,15.6208674 Z" id="Fill-3" fill="#E964A1"></path>
            <path d="M63.0997777,12.6677432 C61.9999835,12.4129011 61.0014172,13.2907326 60.9486548,14.2050063 C60.8864143,15.2840589 61.6197789,16.13568 62.698089,16.1834274 C63.1617024,16.2039537 63.6278432,16.1732589 64.0912038,16.1976379 C64.7615696,16.23288 65.0950148,16.6000168 65.0788386,17.2418905 C65.0639261,17.8343116 64.7089337,18.1982905 64.0778711,18.2162905 C63.4930624,18.2329642 62.9044624,18.2433853 62.3219917,18.1986695 C60.1445192,18.0317432 58.6386131,16.1169853 58.9038148,13.8811326 C59.1563789,11.7517011 61.0949992,10.2658484 63.2073244,10.5669853 C64.0990392,10.6941221 64.872718,11.0421221 65.495503,11.6963116 C65.9356734,12.1585642 65.9491325,12.6947116 65.5011899,13.1473642 C64.8340467,13.8216379 64.147947,14.4777853 63.4541383,15.1247747 C63.0154844,15.5338484 62.4316235,15.5320168 62.0344212,15.1575537 C61.6046769,14.7525221 61.5747256,14.15928 62.0002995,13.7009432 C62.313398,13.3637432 62.6706021,13.0675326 63.0997777,12.6677432" id="Fill-5" fill="#E964A1"></path>
            <path d="M48.5434881,18.1895242 C46.5496411,18.1389979 44.9547026,16.4924084 44.9207072,14.4495032 C44.8853217,12.3224716 46.4233275,10.6253558 48.4786568,10.5234189 C49.2966939,10.4828716 49.7373066,10.7896926 49.7917118,11.4378821 C49.8498452,12.1311032 49.4766544,12.4949558 48.624622,12.5755453 C47.8369153,12.6500716 47.1605466,13.24464 47.0102846,13.9945137 C46.8494069,14.79744 47.2404168,15.5955032 47.9756139,15.9711032 C48.1965837,16.0840295 48.4333507,16.1141558 48.6764365,16.1418821 C49.4813304,16.2336505 49.8389768,16.6047663 49.7915223,17.27664 C49.7470376,17.9062611 49.3324585,18.2094821 48.5434881,18.1895242" id="Fill-7" fill="#E964A1"></path>
            <path d="M67.2463336,15.2880568 C67.24646,14.7024568 67.2345806,14.1166042 67.2487348,13.5313832 C67.288733,11.8718463 68.7783997,10.4794674 70.4424664,10.5356147 C71.0509075,10.5561411 71.4613162,10.9223305 71.5033997,11.4822884 C71.5480739,12.0763516 71.245591,12.4488568 70.6140861,12.5773832 C69.4980525,12.8044989 69.2596426,13.08852 69.2576838,14.2020568 C69.2559145,15.1712779 69.2635603,16.1406253 69.2550299,17.1097832 C69.2486478,17.8335095 68.9059771,18.1899095 68.2451528,18.1893417 C67.5829383,18.1887726 67.2537267,17.8354042 67.2472814,17.1053621 C67.2419736,16.4996779 67.2462072,15.8938042 67.2463336,15.2880568" id="Fill-9" fill="#E964A1"></path>
            <path d="M30.1980298,15.3342505 C30.1987249,14.7285032 30.1785678,14.1219347 30.2025794,13.5170716 C30.2682953,11.8603137 31.691235,10.5211768 33.3492356,10.5359558 C33.9833944,10.5415768 34.4184466,10.9181874 34.4612252,11.4984189 C34.5038141,12.0772611 34.1861028,12.4551347 33.5518176,12.5800611 C32.4586582,12.7953032 32.2155092,13.0923979 32.214435,14.2185032 C32.2134872,15.1877242 32.2203115,16.1570716 32.2117811,17.1262295 C32.2055886,17.8351768 31.8460466,18.1974505 31.1842744,18.1896189 C30.5395631,18.18204 30.2109834,17.8440189 30.1994199,17.1515558 C30.1893098,16.5459979 30.1973347,15.9400611 30.1980298,15.3342505" id="Fill-11" fill="#E964A1"></path>
            <path d="M29.0287663,7.47500842 C28.1198642,7.45915579 27.2105831,7.47241895 26.3014283,7.46907158 C26.1162231,7.46837684 25.9485842,7.50690316 25.7767118,7.58225053 C25.0153547,7.91616632 24.2502694,7.91825053 23.4895442,7.57025053 C23.2184028,7.44620842 22.9959796,7.42435579 22.7889744,7.57208211 C22.4058631,8.28652421 21.6523413,8.77378737 20.7853332,8.77378737 C20.5289147,8.77378737 20.2834277,8.72938737 20.0534851,8.65113474 C20.0292839,8.65631368 20.00483,8.66496632 19.9801866,8.68126105 C19.9760793,8.72016632 19.9595239,8.76273474 19.9697605,8.79740842 C20.1449819,9.39210316 20.6024028,9.52542947 21.1499935,9.52416632 C22.6204509,9.52075579 24.0909083,9.52302947 25.6474283,9.52302947 L25.6474283,10.2819979 C25.6474915,12.5234716 25.643637,14.7649453 25.6495135,17.0064189 C25.6516619,17.8490716 26.0617547,18.2522084 26.8160979,18.1846926 C27.4024231,18.1322716 27.7009883,17.7631768 27.7031367,17.0346505 C27.7098979,14.7528189 27.7034526,12.4709874 27.7097715,10.1891558 C27.7104034,9.97865053 27.6295854,9.74490316 27.8421512,9.52296632 C28.2157842,9.52296632 28.6187367,9.53484 29.0206781,9.52031368 C29.7243442,9.49486105 30.1160492,9.12248211 30.1231507,8.49488211 C30.1299506,7.87631368 29.7307263,7.48726105 29.0287663,7.47500842" id="Fill-13" fill="#E964A1"></path>
            <path d="M26.8169825,2.74631368 C26.86311,2.86884 26.9784289,2.94406105 27.102215,2.94406105 C27.1374109,2.94406105 27.1726068,2.93799789 27.207866,2.92587158 L28.2372051,2.54610316 C28.393786,2.48787158 28.4739089,2.31317684 28.4168497,2.15667158 C28.3585268,1.99896632 28.1837477,1.91881895 28.0271668,1.97705053 L26.9966271,2.35681895 C26.8400463,2.41505053 26.7599234,2.58854526 26.8169825,2.74631368" id="Fill-15" fill="#080607"></path>
            <path d="M26.0218828,2.14208842 C26.075277,2.17973053 26.1372016,2.19792 26.1979257,2.19792 C26.2925819,2.19792 26.3860376,2.15421474 26.445561,2.07053053 L27.1969344,1.01010947 C27.2939918,0.874193684 27.2612602,0.684972632 27.1252787,0.587898947 C26.9881599,0.490825263 26.7987842,0.523604211 26.7016637,0.659456842 L25.9502903,1.71987789 C25.8531697,1.85573053 25.8859645,2.04501474 26.0218828,2.14208842" id="Fill-17" fill="#080607"></path>
            <path d="M25.2280532,1.78173474 C25.2341192,1.78173474 25.2413859,1.78053474 25.2486526,1.78053474 C25.4162282,1.76960842 25.5424155,1.62402947 25.5302833,1.45659789 L25.4501604,0.282113684 C25.4392288,0.115945263 25.2947801,-0.0102442105 25.1272677,0.000682105263 C24.9597552,0.0116084211 24.8335048,0.157187368 24.8444995,0.324618947 L24.9257598,1.49904 C24.9366914,1.65920842 25.0690079,1.78173474 25.2280532,1.78173474" id="Fill-19" fill="#080607"></path>
            <path d="M17.6754337,3.44271158 C17.5673815,3.31532211 17.3756047,3.29953263 17.2481537,3.40753263 C17.1195021,3.51673263 17.1049056,3.70721684 17.2129577,3.83460632 L17.9206047,4.66930105 C17.9813288,4.73972211 18.0663172,4.77610105 18.152443,4.77610105 C18.2216974,4.77610105 18.2920893,4.75304842 18.3491485,4.70454316 C18.4765995,4.59654316 18.4923334,4.40479579 18.3830806,4.27746947 L17.6754337,3.44271158 Z" id="Fill-21" fill="#080607"></path>
            <path d="M17.8502191,5.28323368 L16.5939072,4.92778105 C16.4324609,4.88287579 16.2649484,4.97628632 16.2200214,5.13765474 C16.1738939,5.29902316 16.2673496,5.46645474 16.4287959,5.51136 L17.6851078,5.86681263 C17.7130371,5.87533895 17.7409664,5.87893895 17.7676951,5.87893895 C17.9000116,5.87893895 18.0225971,5.79159158 18.0601942,5.65813895 C18.1051212,5.49677053 18.0116655,5.32933895 17.8502191,5.28323368" id="Fill-23" fill="#080607"></path>
            <path d="M17.564974,6.34849895 L16.4567126,6.83626737 C16.3037966,6.90416211 16.2345421,7.08372 16.3013323,7.23662526 C16.3511248,7.34942526 16.4627787,7.41738316 16.5792981,7.41738316 C16.6205601,7.41738316 16.6618853,7.40892 16.7018836,7.39193053 L17.8089445,6.90416211 C17.9631242,6.83626737 18.0323155,6.65784632 17.9643248,6.50380421 C17.8975346,6.35096211 17.71789,6.28174105 17.564974,6.34849895" id="Fill-25" fill="#080607"></path>
            <path d="M20.6335926,6.24050526 C20.4418158,6.24050526 20.2864355,6.08526316 20.2864355,5.89351579 C20.2864355,5.70303158 20.4418158,5.54772632 20.6335926,5.54772632 C20.8241688,5.54772632 20.9795491,5.70303158 20.9795491,5.89351579 C20.9795491,6.08526316 20.8241688,6.24050526 20.6335926,6.24050526 M22.1062616,6.49825263 C22.1161821,6.45966316 22.1237648,6.42018947 22.1294517,6.38008421 C22.1300204,6.37591579 22.1308419,6.37181053 22.1314106,6.36757895 C22.1367816,6.32595789 22.1400042,6.28364211 22.1400042,6.24050526 C22.1400042,5.66905263 21.6775282,5.2068 21.1057995,5.2068 C20.5352714,5.2068 20.0715949,5.66905263 20.0715949,6.24050526 C20.0715949,6.28364211 20.0747543,6.32595789 20.0802517,6.36757895 C20.0807572,6.37181053 20.0815787,6.37591579 20.0821474,6.38008421 C20.0878975,6.42018947 20.0954169,6.45972632 20.1054007,6.49831579 C20.2203404,6.94383158 20.6244303,7.27421053 21.1057995,7.27421053 C21.5881166,7.27421053 21.9915114,6.94383158 22.1062616,6.49825263" id="Fill-27" fill="#080607"></path>
            <path d="M24.4803132,3.8904 C24.7522129,3.8904 24.971919,4.11 24.971919,4.38176842 C24.971919,4.65353684 24.7522129,4.8732 24.4803132,4.8732 C24.209614,4.8732 23.9887074,4.65353684 23.9887074,4.38176842 C23.9887074,4.11 24.209614,3.8904 24.4803132,3.8904 M25.0192471,6.04395789 C25.7256934,6.04395789 26.2986859,5.47130526 26.2986859,4.7652 C26.2986859,4.05783158 25.7256934,3.48517895 25.0192471,3.48517895 C24.3116001,3.48517895 23.7386708,4.05783158 23.7386708,4.7652 C23.7386708,5.47130526 24.3116001,6.04395789 25.0192471,6.04395789" id="Fill-29" fill="#080607"></path>
            <path d="M16.7862907,16.2854463 C16.8381683,15.9715516 16.9450199,15.7341411 17.1053921,15.5819937 C17.4134988,15.2898253 17.928042,15.3290463 18.2072083,15.3781832 C18.5551237,15.4395726 18.7359057,15.88332 18.8241168,16.2854463 L16.7862907,16.2854463 Z M12.5542472,16.2854463 C12.6061249,15.9715516 12.7129765,15.7341411 12.8734118,15.5819937 C13.1813921,15.2898253 13.6961249,15.3290463 13.9752281,15.3781832 C14.3230802,15.4395726 14.5038623,15.88332 14.5920733,16.2854463 L12.5542472,16.2854463 Z M20.113413,16.8920779 C20.113413,15.9971937 19.7563985,14.4195726 18.4183208,14.1834253 C17.5475214,14.0301411 16.7845846,14.2139937 16.2699782,14.7017621 C16.0028176,14.9551516 15.8085133,15.2795305 15.6872547,15.6724989 C15.4615457,14.9826253 15.0100014,14.3288147 14.1862773,14.1834253 C13.3156675,14.0301411 12.5525411,14.2139937 12.0379347,14.7017621 C11.7058797,15.0167305 11.4871214,15.4420989 11.3807121,15.9719937 C11.3814072,15.3892358 11.3822918,14.8554253 11.3822918,14.8552989 L11.3820391,14.8552989 C11.3820391,14.8546674 11.3822918,14.8540989 11.3822918,14.8534674 C11.3822918,14.5184147 11.1105185,14.2468358 10.7753672,14.2468358 C10.4401527,14.2468358 10.1683794,14.5184147 10.1683794,14.8534674 C10.1683794,14.8534674 10.1660414,16.2695937 10.1660414,17.0079095 L10.1666101,17.1539305 C10.1700223,17.8053411 10.1474008,18.3180568 9.82905762,18.4986884 C9.63418458,18.6093411 9.41245646,18.6275937 9.20450342,18.5497832 C8.98953646,18.46932 8.82196081,18.2970884 8.74468139,18.0770463 C8.63707154,17.7709832 8.6285411,17.4352358 8.6285411,17.0281832 C8.6285411,16.6931305 8.35683096,16.4215516 8.02161646,16.4215516 C7.68646516,16.4215516 7.41469183,16.6931305 7.41469183,17.0281832 C7.41469183,17.6504779 7.36515212,18.3846253 6.97894458,18.5385411 C6.73093009,18.63732 6.45643965,18.6248147 6.24437936,18.5047516 C6.12615386,18.4378042 5.97677646,18.3055516 5.93620951,18.0556989 C5.89817009,17.8208779 5.90948081,17.55012 5.92142342,17.2633832 C5.94075907,16.8011937 5.96262226,16.2772989 5.77375212,15.7652779 C5.27506922,14.4137621 3.50762632,14.0840147 2.54684661,14.1063095 C0.330892406,14.1517832 1.23305709e-05,15.1998884 1.23305709e-05,15.8205411 C1.23305709e-05,17.0719516 1.22191212,17.4420568 1.74719733,17.5431726 C1.85126864,17.5631305 1.9675353,17.5808147 2.09031038,17.5991937 C3.05930458,17.7446463 3.1027782,17.8651516 3.0935527,18.0495726 C3.08476951,18.2236989 2.76421472,18.4421621 2.45844603,18.4824568 C1.95660371,18.5478884 1.35814632,18.3982674 0.969664,18.1088779 C0.700797333,17.9085411 0.320529507,17.96412 0.120348638,18.2327305 C-0.0799586087,18.5012779 -0.0244791884,18.8814253 0.244197913,19.0816358 C0.888656464,19.5617621 1.79831675,19.7932989 2.61685936,19.6853621 C3.40248081,19.5818463 4.261464,18.9947937 4.30582226,18.1104568 C4.3758982,16.7155516 2.9540327,16.5020147 2.27071328,16.3994463 C2.16550458,16.3836568 2.06579328,16.3688147 1.97657125,16.3516358 C1.78795386,16.3154463 1.21388719,16.2049832 1.21388719,15.8205411 C1.21388719,15.3812779 2.25327328,15.3258253 2.57174284,15.31932 C3.28962632,15.3071305 4.40553357,15.5634884 4.63484429,16.1850884 C4.73967386,16.4692358 4.72457183,16.8303095 4.70864835,17.2127937 C4.69468371,17.5472779 4.68021357,17.8932568 4.73796777,18.2497832 C4.82965414,18.8152989 5.15223096,19.2808358 5.64623791,19.5604358 C5.94669878,19.7305832 6.29120197,19.8167305 6.64019154,19.8167305 C6.90621472,19.8167305 7.17495501,19.7667095 7.42871965,19.6655305 C7.69297357,19.56012 7.89903096,19.4046253 8.05971907,19.2191937 C8.2601527,19.4231305 8.5043127,19.5832989 8.77886632,19.6860568 C9.32140197,19.8891095 9.92270284,19.8408568 10.4285892,19.5536779 C11.1847017,19.1244568 11.342104,18.3411726 11.3731295,17.6656989 C11.5261086,18.5677832 12.1324014,19.3707726 12.9465208,19.7335516 C13.2190524,19.8548779 13.5306344,19.9077411 13.8491672,19.9077411 C14.5106866,19.9077411 15.2019046,19.6794884 15.6334814,19.3630674 C15.9037382,19.1648147 15.9620611,18.7852358 15.7637759,18.5150463 C15.5653643,18.24492 15.1855388,18.1863726 14.9153452,18.3848779 C14.5382368,18.6613832 13.7939405,18.7825832 13.4406541,18.6253832 C13.0081295,18.4326253 12.6701979,17.98812 12.5750994,17.4987095 L15.2744449,17.4987095 C15.3834449,17.4987095 15.4842936,17.4676989 15.5726941,17.4173621 C15.5771173,17.4595516 15.5808454,17.5011726 15.5860901,17.54412 C15.7028623,18.4951516 16.327922,19.3545411 17.1785011,19.7335516 C17.4510327,19.8548779 17.7625515,19.9077411 18.0810843,19.9077411 C18.7426037,19.9077411 19.4338849,19.6794884 19.8654617,19.3630674 C20.1357185,19.1648147 20.1941046,18.7852358 19.9957562,18.5150463 C19.797471,18.24492 19.4175191,18.1863726 19.1473886,18.3848779 C18.7703434,18.6613832 18.0259208,18.7827095 17.6726344,18.6253832 C17.2401098,18.4326253 16.9021782,17.98812 16.8071428,17.4987095 L19.5064252,17.4987095 C19.8416397,17.4987095 20.113413,17.2271305 20.113413,16.8920779 L20.113413,16.8920779 Z" id="Fill-31" fill="#2B2C2F"></path>
            <path d="M23.7123908,19.0326 C23.6083195,18.7140316 23.2659015,18.5404105 22.9470528,18.6442421 C22.7605838,18.705 22.5236273,18.6594632 22.3429085,18.5286 C22.2530546,18.4634211 22.1023502,18.3216947 22.1023502,18.1048737 L22.1023502,15.4661368 L22.9419346,15.4661368 C23.2770859,15.4661368 23.5488592,15.1945579 23.5488592,14.8595053 C23.5488592,14.5244526 23.2770859,14.2528737 22.9419346,14.2528737 L22.1023502,14.2528737 L22.1023502,13.3327263 C22.1023502,12.9976105 21.8305769,12.7260947 21.4954256,12.7260947 C21.1602743,12.7260947 20.8885009,12.9976105 20.8885009,13.3327263 L20.8885009,14.2528737 L20.4231815,14.2528737 C20.0880302,14.2528737 19.8162569,14.5244526 19.8162569,14.8595053 C19.8162569,15.1945579 20.0880302,15.4661368 20.4231815,15.4661368 L20.8885009,15.4661368 L20.8885009,18.1048737 C20.8885009,18.6564947 21.1588209,19.1688316 21.6301432,19.5105789 C21.9695282,19.7566421 22.3701427,19.8852316 22.7677873,19.8852316 C22.9560256,19.8851053 23.1436951,19.8563053 23.3238453,19.7975053 C23.6425044,19.6934842 23.8164621,19.3510421 23.7123908,19.0326" id="Fill-33" fill="#2B2C2F"></path>
            <g id="Group-37" transform="translate(18.451014, 2.328316)">
                <mask id="mask-2" fill="white">
                    <use xlink:href="#path-1"></use>
                </mask>
                <g id="Clip-36"></g>
                <path d="M52.1630653,10.2490674 C51.0470317,10.4761832 50.8086218,10.7602042 50.806663,11.8737411 C50.8048937,12.8429621 50.8125395,13.8122463 50.804009,14.7814674 C50.7976902,15.5051937 50.4549563,15.8615937 49.7941319,15.8610259 C49.1319174,15.8604568 48.8027059,15.5070253 48.7962606,14.7770463 C48.7909528,14.1713621 48.7951864,13.5654884 48.7951864,12.9597411 C48.7954392,12.3741411 48.783623,11.7882884 48.797714,11.2030042 C48.8377122,9.54353053 50.3273789,8.15115158 51.9914456,8.20729895 C52.5998867,8.22782526 53.0102954,8.59401474 53.0523789,9.15397263 C53.0970531,9.74803579 52.794507,10.1205411 52.1630653,10.2490674 M47.0501754,10.8190674 C46.3830322,11.4932779 45.6969325,12.1494253 45.0031238,12.7964147 C44.5644699,13.2055516 43.980609,13.20372 43.5834067,12.8292568 C43.1536624,12.4241621 43.1237111,11.83092 43.549285,11.3726463 C43.8623835,11.0354463 44.2195876,10.7391726 44.6487632,10.3394463 C43.548969,10.0846042 42.5504027,10.9623726 42.4976403,11.8767095 C42.4353998,12.9557621 43.1687012,13.8073832 44.2470114,13.8551305 C44.7107511,13.8755937 45.1768288,13.8449621 45.6401893,13.8693411 C46.3105551,13.90452 46.6440003,14.27172 46.6278241,14.9135305 C46.6129117,15.5060147 46.2579192,15.8699937 45.6269198,15.8879937 C45.0420479,15.9046042 44.4534479,15.9150253 43.8709772,15.8703726 C41.6935679,15.7034463 40.1875986,13.7886253 40.4528003,11.5528358 C40.7053644,9.42334105 42.6439847,7.93755158 44.7562467,8.23868842 C45.6480879,8.36582526 46.4217035,8.71382526 47.0444885,9.36795158 C47.4846589,9.83026737 47.498118,10.3664147 47.0501754,10.8190674 M41.3302346,18.2812989 C41.2751974,18.8799726 40.8053917,19.2316989 40.120998,19.1866042 C38.2370357,19.0624989 37.0122548,17.7507726 37.0060624,15.8495937 C37.0044827,15.3848147 37.0099801,14.9200358 37.0048618,14.45532 C36.9932351,13.3931305 36.5466195,12.9534253 35.4789882,12.9591095 C35.2826618,12.96012 35.0762885,12.9067516 34.8261888,13.0537832 C34.8261888,13.5613832 34.8286531,14.1015726 34.8256201,14.6416358 C34.8211337,15.4603516 34.4940073,15.8523726 33.8134682,15.8614042 C33.1111922,15.8707516 32.7835603,15.4992568 32.7829917,14.6771305 C32.7810328,11.9087937 32.7809064,9.14045684 32.7830548,6.37212 C32.7836867,5.54645684 33.1107499,5.16176211 33.7967232,5.1626448 C34.4549569,5.16353053 34.8223343,5.59085684 34.8249882,6.37786737 C34.8294746,7.68934105 34.8262519,9.00081474 34.8262519,10.3023726 C35.9561238,10.6127937 36.5277893,10.2440147 36.6637708,9.14910947 C36.7446519,8.49820421 37.0760119,8.19605684 37.6953215,8.20849895 C38.299529,8.22062526 38.7041876,8.62508842 38.715056,9.25445684 C38.7300948,10.1261621 38.3922896,10.8656779 37.8165801,11.4997832 C37.8944914,11.7668779 38.1379563,11.8696358 38.2895453,12.0503305 C38.7629528,12.6144568 39.0264485,13.2505832 39.0274595,13.9902253 C39.0283441,14.5762674 39.013874,15.1626884 39.032325,15.7480989 C39.0602543,16.6350884 39.4407117,17.03532 40.3112583,17.1330253 C41.0463922,17.2155726 41.3923488,17.6053832 41.3302346,18.2812989 M29.5245551,13.6427305 C29.7456514,13.7556568 29.9823551,13.7858463 30.2253777,13.8135726 C31.0303348,13.9053411 31.3879812,14.2764568 31.3405267,14.9483305 C31.2960421,15.5779516 30.881463,15.8812358 30.0924925,15.8612147 C28.0986456,15.8106884 26.503707,14.1640989 26.4697117,12.1211937 C26.4343261,9.99422526 27.9723319,8.29704632 30.0275348,8.19510947 C30.8456983,8.15449895 31.2862479,8.46138316 31.3407163,9.10957263 C31.3988496,9.80279368 31.0255957,10.1666463 30.1736264,10.2472358 C29.3859198,10.3217621 28.7095511,10.9163305 28.559289,11.6662042 C28.3984114,12.4690674 28.7894212,13.2671937 29.5245551,13.6427305 M25.0209911,14.8690042 C24.9846577,15.5319095 24.6026838,15.8712568 23.9666925,15.8608358 C23.3391685,15.8505411 22.9801319,15.4899726 22.9704641,14.8180358 C22.9570682,13.8882884 22.9843656,12.9576568 22.960354,12.0282884 C22.9349522,11.0471305 22.1802299,10.2993411 21.2289917,10.2662463 C20.2754154,10.2330884 19.4786096,10.9371726 19.3741592,11.9051937 C19.2682554,12.8866042 20.0251893,13.7415726 21.1041314,13.8591726 C21.7971186,13.9346463 22.109143,14.1803937 22.1783343,14.7050463 C22.2692624,15.3947305 21.8586009,15.8665832 21.1441928,15.8932358 C19.4313447,15.9569621 17.8772259,14.7766674 17.4333273,13.0748779 C16.9743267,11.3151726 17.7432032,9.48365684 19.2851899,8.66361474 C20.8824032,7.81420421 22.9197238,8.17148842 24.111078,9.51119368 C24.7467534,10.2260779 25.0051308,11.0814253 25.0287632,12.0189411 C25.0395053,12.4432358 25.0305957,12.8679726 25.0305957,13.29252 L25.0267412,13.29252 C25.0267412,13.81812 25.0496786,14.3449832 25.0209911,14.8690042 M15.1007905,10.25172 C14.0076311,10.4669621 13.7644821,10.7640568 13.7634079,11.8901621 C13.7624601,12.8594463 13.7693476,13.8287305 13.760754,14.7978884 C13.7545615,15.5068358 13.3950195,15.8691095 12.7332473,15.8613411 C12.088536,15.8537621 11.7599563,15.5156779 11.7483928,14.8232779 C11.7382827,14.2176568 11.7463076,13.61172 11.7463076,13.0059095 C11.7476977,12.4001621 11.7276038,11.7935937 11.7515522,11.1887305 C11.8172682,9.53197263 13.2402711,8.19289895 14.8982085,8.20761474 C15.5323673,8.21323579 15.9674827,8.58984632 16.010198,9.17007789 C16.052787,9.74898316 15.7350757,10.1267937 15.1007905,10.25172 M10.5696763,7.19203579 C10.1677348,7.20649895 9.76478238,7.19462526 9.39108614,7.19462526 C9.17858354,7.41656211 9.25940151,7.65030947 9.25876962,7.86081474 C9.25245078,10.1426463 9.258896,12.4245411 9.25213484,14.7063726 C9.24998643,15.4348989 8.95142122,15.8039305 8.365096,15.8564147 C7.61075281,15.9239305 7.20066006,15.5207937 7.19844846,14.6780779 C7.19263513,12.4366674 7.19648962,10.1951305 7.19642643,7.95372 L7.19642643,7.19468842 C5.63990643,7.19468842 4.16944904,7.19247789 2.69899165,7.19588842 C2.15140093,7.19715158 1.69398006,7.06376211 1.51875861,6.46913053 C1.50852209,6.43445684 1.52507745,6.39182526 1.5291847,6.35298316 C1.55382817,6.33668842 1.5782189,6.32803579 1.60248325,6.32279368 C1.83236267,6.40110947 2.07791281,6.44550947 2.33433136,6.44550947 C3.20133948,6.44550947 3.95486122,5.95824632 4.33797252,5.24380421 C4.54497774,5.09601474 4.76740093,5.11793053 5.03854238,5.24190947 C5.79926759,5.58990947 6.56435281,5.58782526 7.32570991,5.25397263 C7.49758238,5.17856211 7.66522122,5.14003579 7.85042643,5.14073053 C8.75951803,5.14407789 9.66886238,5.13081474 10.5777644,5.14666737 C11.2797244,5.15898316 11.6789488,5.54803579 11.6721489,6.16654105 C11.6650473,6.79420421 11.2733424,7.16658316 10.5696763,7.19203579 M0.775726145,4.52601474 C0.773261797,4.51704632 0.771050203,4.50801474 0.768712232,4.49898316 C0.760560928,4.46576211 0.752978319,4.43241474 0.746912232,4.39849895 C0.743120928,4.37803579 0.740467014,4.35725684 0.737433971,4.33654105 C0.73389542,4.31108842 0.729788174,4.28588842 0.727387014,4.26012 C0.722711072,4.21104632 0.719867594,4.16146737 0.719867594,4.11119368 C0.719867594,3.22060421 1.44337484,2.49750947 2.33433136,2.49750947 C2.81740672,2.49750947 3.25201658,2.70984632 3.54698006,3.04710947 C3.59670933,3.45599368 3.73629252,3.83576211 3.94753136,4.16696211 C3.94753136,4.16797263 3.9473418,4.16892 3.94727861,4.16999368 C3.9347673,4.52260421 3.80788499,4.84521474 3.60448151,5.10504632 C3.30907571,5.48241474 2.85064383,5.72601474 2.33433136,5.72601474 C2.20567977,5.72601474 2.08094586,5.70997263 1.96107745,5.68142526 C1.38435687,5.54424632 0.927631072,5.09765684 0.775726145,4.52601474 M6.22958064,0.660625263 C7.3693731,0.660625263 8.29312441,1.58393053 8.29312441,2.72317263 C8.29312441,2.79397263 8.28952267,2.86388842 8.28257194,2.93285684 C8.27884383,2.96917263 8.27182991,3.00441474 8.26626933,3.04016211 C8.26134064,3.07205684 8.25805484,3.10445684 8.25167281,3.13590947 C8.24162586,3.18542526 8.22804035,3.23355158 8.21445484,3.28167789 C8.20984209,3.29816211 8.20668267,3.31527789 8.20162759,3.33163579 C8.18399803,3.38879368 8.16308267,3.44456211 8.14071397,3.49950947 C8.13812325,3.50588842 8.13629078,3.51264632 8.13357368,3.51896211 C8.10829832,3.57934105 8.0800531,3.63820421 8.04934354,3.69555158 C8.04902759,3.69612 8.04877484,3.69675158 8.0484589,3.69732 C7.95500325,3.87138316 7.83715687,4.03016211 7.6996589,4.16974105 C7.69959571,4.16980421 7.69953252,4.16986737 7.69946933,4.16999368 C7.32520441,4.54982526 6.80522701,4.78578316 6.22958064,4.78578316 C5.6542502,4.78578316 5.13402006,4.54963579 4.75975513,4.16999368 L4.75975513,4.16993053 C4.70288557,4.11220421 4.64917542,4.05144632 4.59938296,3.98740421 C4.34808267,3.66473053 4.1915018,3.26550947 4.16843803,2.83117263 C4.16723745,2.79599368 4.16603687,2.75961474 4.16603687,2.72317263 C4.16603687,1.58393053 5.08978817,0.660625263 6.22958064,0.660625263 M53.8841279,8.46207789 C53.5666061,7.68119368 52.9582914,7.26144632 52.0989922,7.23997263 C50.6606346,7.20397263 49.5202102,7.78919368 48.6237563,8.89483579 C48.5057835,9.04028842 48.4580131,9.25723579 48.2683215,9.31294105 C47.174783,7.72692 45.6274885,7.13134105 43.8002061,7.25658316 C41.9103041,7.38605684 40.624736,8.47357263 39.7206995,10.1187726 C39.7708711,8.94877263 39.703449,7.83296211 38.4310873,7.37620421 C37.4454746,7.02245684 36.5313279,7.21584632 35.8102218,8.25163579 C35.8102218,7.77782526 35.8104114,7.45919368 35.8102218,7.14056211 C35.809969,6.79685684 35.8215325,6.45270947 35.8067464,6.10963579 C35.7627673,5.09020421 35.0807748,4.32744632 34.1119702,4.19980421 C32.7909534,4.02574105 31.8202531,4.86144632 31.7971893,6.19906737 C31.7887853,6.68633053 31.7958624,7.17384632 31.7958624,7.71990947 C29.6830317,6.51656211 27.5776572,7.41883579 25.7062061,10.2547516 C24.9019441,8.51544632 23.5988096,7.44353053 21.6871708,7.25513053 C19.794678,7.06862526 18.2619801,7.78079368 17.0624114,9.37849895 C16.9079157,8.29193053 16.4906195,7.51199368 15.4633024,7.28772 C14.5236276,7.08252 13.6369047,7.38220421 12.7282554,7.79727789 C12.8042711,7.21622526 12.780449,6.71569895 12.7381128,6.21094105 C12.6187499,4.78578316 11.8069053,4.17049895 10.3679789,4.16999368 C9.79075281,4.16980421 9.21346354,4.16999368 8.62151455,4.16999368 L8.50967107,4.16999368 C8.77638933,3.75132 8.93164325,3.25483579 8.93164325,2.72197263 C8.93164325,1.23087789 7.72139571,0.0212778947 6.22958064,0.0212778947 C4.89308267,0.0212778947 3.78368383,0.991825263 3.56757948,2.26578316 C3.21189194,2.03525684 2.78947745,1.90180421 2.33433136,1.90180421 C1.07922006,1.90180421 0.061949913,2.91852 0.061949913,4.17302526 C0.061949913,4.65637263 0.214107594,5.10372 0.471537159,5.47212 C0.414162087,5.70864632 0.389392232,5.91435158 0.389392232,6.02089895 C0.389392232,6.38096211 0.365254261,7.35946737 0.389392232,7.59056211 C0.523098899,8.87203579 1.33424846,9.65626737 2.61766817,9.66012 C3.56821136,9.66302526 4.51888093,9.65424632 5.46929774,9.66542526 C5.70025136,9.66814105 5.9534473,9.57839368 6.18484325,9.77569895 L6.18484325,10.36932 C6.18484325,12.2897621 6.18800267,14.2102042 6.18294759,16.1306463 C6.18155745,16.6700147 6.26515571,17.1754042 6.62526643,17.6043095 C7.18435745,18.27012 8.09275397,18.5240779 8.93480267,18.2449832 C9.72611107,17.9826884 10.3677261,17.1199516 10.3721493,16.2592358 C10.3823227,14.2983726 10.3735395,12.3374463 10.3782154,10.3766463 C10.3787209,10.1597621 10.3258954,9.93435158 10.4457006,9.69820421 C10.6409528,9.64275158 10.8418919,9.64407789 11.0876317,9.70445684 C10.7328919,10.55052 10.7306172,11.3967095 10.7370624,12.24732 C10.7474253,13.6218884 10.7242983,14.9968358 10.7452137,16.3711516 C10.7629064,17.5360989 11.5500444,18.3157832 12.6865511,18.3468568 C13.8490914,18.3786884 14.706558,17.6186463 14.7572983,16.4392358 C14.7997609,15.4504989 14.7644386,14.4584779 14.7714525,13.4680358 C14.772969,13.2507726 14.7148357,13.02132 14.8795679,12.7837832 C15.3234664,12.7284568 15.777096,12.5847095 16.2574543,12.40692 C16.2210577,13.6360989 16.3141974,14.7875937 16.8760688,15.8657621 C17.9756102,17.9754884 20.8959888,19.0889621 22.631016,17.8853621 C23.3535122,18.4192358 24.1492438,18.5216779 24.9596351,18.1160779 C25.8145111,17.6882463 26.0594293,16.9035095 26.0483714,15.9775516 C26.532205,16.6378042 27.050034,17.2170253 27.7219163,17.6404989 C29.2790682,18.6220358 30.8661714,18.5782042 32.0675725,17.5092568 C32.1102879,17.5428568 32.1600172,17.5732989 32.1992572,17.6139726 C32.8904751,18.3305621 33.769805,18.5498463 34.6162769,18.1862463 C35.4839801,17.8135516 35.8289256,17.1160989 35.8134444,16.1978463 C35.8097163,15.9786884 35.7314259,15.7341411 35.956503,15.5351937 C36.0116664,16.1742253 36.0026937,16.8126884 36.0132461,17.4508989 C36.0498322,19.6578884 37.5395621,21.3322674 39.7225319,21.6292989 C41.194885,21.8295726 42.1320954,21.1365411 42.4188444,19.6770884 C42.5371331,19.0750042 42.4031105,18.4851726 42.3819424,17.8527095 C42.8863122,18.0208989 43.3068943,18.2994884 43.7933818,18.3388989 C44.295856,18.3795095 44.802627,18.3754674 45.3075024,18.37692 C45.9868409,18.3788779 46.709969,18.2865411 47.1413563,17.7024568 C47.2519992,17.5526463 47.3385041,17.3861621 47.4113603,17.2151937 C47.4680403,17.0821832 47.5426659,16.9472779 47.5598531,16.8032147 C47.5789992,16.6435516 47.5873401,16.4828147 47.5906259,16.3220779 C47.5978925,15.9671305 47.5949227,15.6097832 47.5911314,15.2555305 C47.5880983,14.9674042 47.6032003,14.6597621 47.5435505,14.3764358 C47.4890189,14.1175516 47.3675076,13.8637832 47.2149708,13.6489832 C47.207009,13.6376779 47.1985418,13.6252358 47.1994264,13.6114042 C47.2000583,13.60212 47.204987,13.5936568 47.2098525,13.5856989 C47.3359134,13.3799937 47.5265528,13.21452 47.7479018,13.1185832 C47.7175082,13.1320989 47.7508085,13.3427305 47.7529569,13.3702042 C47.7629406,13.4958253 47.772103,13.6201832 47.7760838,13.7463095 C47.789543,14.1669411 47.7978838,14.5878253 47.8009801,15.0087095 C47.8035076,15.3567095 47.8062879,15.7047095 47.8108374,16.0526463 C47.8127963,16.2063726 47.8179146,16.3601621 47.8296676,16.5135095 C47.8302995,16.5216568 47.8308682,16.5298042 47.8315632,16.5379516 C47.8568386,16.8483095 47.9281151,17.1534884 48.0952485,17.4201411 C48.3325841,17.8030042 48.6945273,18.1036989 49.1220601,18.2504147 C49.3072021,18.3139516 49.5018856,18.3481832 49.6974537,18.3534253 C49.8175117,18.3566463 49.937696,18.35052 50.0569957,18.3368147 C51.1297453,18.2132779 51.8064299,17.4133832 51.822543,16.2391516 C51.8300624,15.6934674 51.8239331,15.1475305 51.8239331,14.60172 L51.8239331,12.8236358 C51.9891708,12.7767726 52.0648705,12.7462042 52.1433505,12.7344568 C53.2785302,12.5643726 53.8311128,12.0747726 54.0797592,10.9624989 C54.2693876,10.1141621 54.2108751,9.26550947 53.8841279,8.46207789" id="Fill-35" fill="#080607" mask="url(#mask-2)"></path>
            </g>
        </g>
    </g>
</svg>