<?xml version="1.0" encoding="UTF-8"?>
<svg width="100px" height="60px" viewBox="0 0 100 60" version="1.1" xmlns="http://www.w3.org/2000/svg" xmlns:xlink="http://www.w3.org/1999/xlink">
    <!-- Generator: Sketch 55.2 (78181) - https://sketchapp.com -->
    <title>logo/sycros</title>
    <desc>Created with Sketch.</desc>
    <defs>
        <radialGradient cx="66.4348434%" cy="26.6464969%" fx="66.4348434%" fy="26.6464969%" r="79.764309%" gradientTransform="translate(0.664348,0.266465),scale(1.000000,0.999906),rotate(129.040324),translate(-0.664348,-0.266465)" id="radialGradient-1">
            <stop stop-color="#90C221" offset="0%"></stop>
            <stop stop-color="#00A651" offset="30.3540172%"></stop>
            <stop stop-color="#01419A" offset="100%"></stop>
        </radialGradient>
    </defs>
    <g id="logo/sycros" stroke="none" stroke-width="1" fill="none" fill-rule="evenodd">
        <g transform="translate(21.000000, 20.000000)">
            <path d="M9.97970833,-1.77635684e-15 C9.06578125,0.00478125 8.20657292,0.310515625 7.39066146,0.78040625 C6.45645833,1.3185625 5.60211979,1.97589583 4.79311458,2.69086979 C2.53432812,4.68686458 0.927916667,7.09325 0.151671875,10.0276094 C0.0556041667,10.3908958 0.000885416667,10.7509948 -7.10542736e-14,11.1086146 L-7.10542736e-14,11.125349 C0.000973958333,11.546099 0.076765625,11.9633958 0.247828125,12.3785677 C0.562770833,13.1429479 1.10260937,13.7239583 1.74303125,14.2201458 C2.58984375,14.876151 3.53971875,15.343474 4.53483854,15.7297813 C6.52410417,16.5022188 8.55746354,16.9102188 10.6404062,16.9118125 L10.6614792,16.9118125 C11.3961979,16.9113698 12.1375573,16.8603698 12.8846719,16.7569531 C13.8006354,16.6301615 14.6709115,16.3573646 15.4404271,15.8189427 C16.3980937,15.1489479 16.9785729,13.9884323 16.8696667,12.9529375 C16.2683802,13.7913385 15.7650208,14.1988073 14.8620729,14.5608542 C14.0588229,14.8831458 13.2168802,15.0384479 12.3587344,15.1153021 C10.7485156,15.2595365 9.16423958,15.064125 7.59094271,14.7406823 C7.24509896,14.6695833 6.90483333,14.571125 6.50108333,14.470099 C6.68799479,14.2393594 6.82328646,14.0722813 6.97929687,13.8798802 C7.09661458,13.8867865 7.18435937,13.8828021 7.26873958,13.8982083 C8.73950521,14.1669323 10.2185937,14.2100521 11.7024635,14.0435938 C12.587526,13.9443385 13.4450521,13.747776 14.2520208,13.3408385 C16.030026,12.4443542 16.2919323,10.0723229 15.1907396,9.01115104 C15.1549687,8.97653125 15.1549687,8.97653125 14.8936823,8.69797917 C15.6570885,8.94793229 16.4037604,9.42278125 16.9102187,9.98325 C16.775901,8.78005729 16.4065052,7.69400521 16.0289635,6.61025521 C15.9679583,6.43494271 15.863125,6.32975521 15.6629323,6.28610417 C14.6800312,6.07147917 13.6906667,5.91024479 12.6821771,5.94991146 C12.4062812,5.96080208 12.1308281,6.01844271 11.8506823,6.03756771 C11.5707135,6.05678125 11.2835729,6.16878646 11.0283958,6.29708333 C10.762151,6.43113542 10.5841823,6.66665625 10.5693073,6.99107292 C10.5647917,7.08749479 10.5426562,7.18311979 10.5287552,7.278125 C9.82476042,7.19666667 9.21010417,6.66913542 9.11138021,6.0296875 C9.08083333,5.83135417 9.13413542,5.595125 9.21957812,5.40874479 C9.40923437,4.99534375 9.78872396,4.81020312 10.2100052,4.69191146 C11.0889583,4.44488021 12.5114687,4.68447396 13.7990417,5.01376042 C14.3998854,5.22758854 14.9904583,5.43760937 15.6190156,5.66117708 C15.4916042,5.40378646 15.384026,5.18252083 15.2729948,4.96311458 C14.6005208,3.6348125 13.805151,2.38708333 12.7912604,1.29217708 C12.2724948,0.731885417 11.672625,0.267484375 10.9038177,0.0986354167 C10.6041927,0.0328489583 10.3106771,0.00141666667 10.0223854,-1.77635684e-15 M7.44422917,9.03107292 C8.38144271,9.2830625 9.5593125,9.58764583 10.4896198,9.86292188 C10.9038177,9.98546354 11.3050885,10.1608646 11.6976823,10.3436146 C11.953125,10.462526 11.9959792,10.5539896 12.1609323,10.9372865 C10.4846615,10.5002448 8.81210937,10.2905781 7.50027604,9.09216667 C7.46025521,9.06622396 7.47690104,9.07649479 7.44422917,9.03107292 Z" id="Fill-1" fill="url(#radialGradient-1)"></path>
            <path d="M25.2992318,5.40625677 L25.2992318,6.85639219 C24.8449245,6.69843385 24.4189505,6.49531927 23.9707526,6.41182448 C23.6230495,6.34710052 23.1680339,6.35099635 22.8298047,6.45485573 C22.2750026,6.62529844 22.034612,7.32495469 22.4633307,7.75907448 C22.7282474,8.02744427 23.132263,8.18407448 23.4693411,8.33911094 C24.0763828,8.6184599 24.7051172,8.85592865 25.226362,9.29235052 C25.7390182,9.72142344 26.1494974,10.2181422 26.2847891,10.8969911 C26.5327943,12.1414443 25.9354036,13.3306474 24.7755078,13.8935068 C23.8787578,14.3286891 22.9209141,14.3626005 21.9579349,14.2758297 C21.3075964,14.2172151 20.6636328,14.0899807 20.0202005,13.8007151 C19.8842005,13.2321005 19.7431536,12.6423245 19.5854609,11.9827776 C19.7330599,12.0676891 19.8371849,12.1226734 19.9363516,12.1854495 C20.6237005,12.6209859 21.3671849,12.9057359 22.1826536,12.9419495 C22.5110547,12.9564703 22.8568099,12.9211422 23.1716641,12.8295901 C23.8910651,12.6204547 24.0902839,11.858288 23.5724036,11.3149078 C23.3863776,11.119762 23.1418255,10.9681786 22.9009922,10.8400589 C22.4391589,10.5943557 21.9543932,10.3918609 21.4918516,10.1473089 C21.2109974,9.99882448 20.9455495,9.81678281 20.6876276,9.62978281 C19.2652943,8.59898073 19.3349766,6.07811094 21.3572682,5.32488698 C22.6686589,4.8364026 23.9798724,4.97266823 25.2992318,5.40625677 Z M46.2852005,10.6605672 C46.2123307,11.6520568 46.4893776,13.1237964 47.6792005,13.0767807 C48.1254505,13.0591609 48.4723568,12.8460411 48.6053464,12.4096193 C48.7100026,12.0663432 48.7859714,11.7031453 48.8000495,11.3459682 C48.8234245,10.749463 48.7706536,10.1549943 48.4795286,9.60895781 C48.2576432,9.19272344 47.8987839,8.9886349 47.4473099,9.01077031 C46.6530911,9.04981719 46.4171276,9.71237448 46.3140651,10.3986609 C46.3017578,10.4807391 46.2919297,10.5686609 46.2852005,10.6605672 Z M47.6168672,7.72974948 C48.3501693,7.7242599 49.0838255,7.90922344 49.687237,8.3405099 C50.6793464,9.04981719 51.093013,10.0247495 51.0320078,11.2354682 C50.9459453,12.9475099 49.6930807,14.1734578 47.7419766,14.3017547 C47.1102318,14.3433693 46.4950443,14.2527911 45.9100495,14.0023953 C44.4793932,13.3899526 43.9557578,12.0538589 44.0593516,10.7988693 C44.1203568,10.0594578 44.3685391,9.33084844 44.8872161,8.78622865 C45.4663672,8.17821302 46.3114974,7.85893177 47.1321901,7.76073906 C47.2928047,7.74152552 47.4548359,7.73098906 47.6168672,7.72974948 Z M30.8170865,7.96696146 L32.6818625,7.96696146 C32.4373104,8.60995104 32.205951,9.21823229 31.9746802,9.82651354 C31.3294771,11.5236802 30.6621385,13.2128781 30.046774,14.9209354 C29.628149,16.0829563 28.8467688,16.7519771 27.6283469,16.8813365 C27.1710292,16.9299458 26.7042375,16.8892167 26.2431125,16.8892167 C26.3243938,16.6168625 26.6774979,16.1284667 27.1394198,15.652201 C28.3357063,15.6165188 28.8619979,15.1813365 29.1002635,13.9946125 C29.0417375,13.9464458 28.9639094,13.8826958 28.8863469,13.8185917 C28.4968521,13.4966542 28.2254719,13.0921958 28.0314771,12.6277948 C27.5611438,11.501899 27.0955031,10.373701 26.6032115,9.25736771 C26.4067375,8.81182604 26.1449198,8.39506042 25.9140031,7.96722708 L28.6312583,7.96722708 C29.1054875,9.13872187 29.5779458,10.3061438 30.0858208,11.5607792 C30.1702896,11.3774979 30.2235031,11.28205 30.2595396,11.1806698 C30.4730135,10.5783208 30.6771021,9.97269583 30.8951802,9.37211771 C31.0643833,8.90621146 31.1572635,8.44774271 30.8170865,7.96696146 Z M56.5536167,8.0325 L56.5536167,9.31839062 C56.3911427,9.24808854 56.2520438,9.18929687 56.1140958,9.12776042 C55.598075,8.89746354 55.0642573,8.78784896 54.4998927,8.891 C54.1917677,8.9473125 54.0644448,9.05559896 54.0390333,9.27385417 C54.0119396,9.50627604 54.1236792,9.69540104 54.4027625,9.80351042 C54.714075,9.92401562 55.0368094,10.0153021 55.3563563,10.113849 C55.8637885,10.2703906 56.3211063,10.5103385 56.7191896,10.8686667 C57.6652573,11.7202604 57.360851,13.0780469 56.4974813,13.6566667 C55.8440438,14.0945937 55.1034813,14.2270521 54.3466271,14.2935469 C53.4522677,14.3720833 52.57845,14.2039427 51.709325,14.0178281 C51.6697469,14.0092396 51.6361896,13.9725833 51.5812052,13.9369896 C51.4980646,13.4963177 51.4127104,13.0431615 51.3172625,12.5364375 C51.4529083,12.5951406 51.5536688,12.6330365 51.6492938,12.6812031 C52.2673146,12.9925156 52.9133146,13.2060781 53.6113771,13.2105937 C53.8110385,13.2119219 54.0136219,13.1683594 54.2106271,13.1258594 C54.4607573,13.0719375 54.6374865,12.9135365 54.6602417,12.6550833 C54.6813146,12.4144271 54.525924,12.2461979 54.327325,12.131625 C54.1516583,12.0301562 53.9683771,11.9406406 53.7838563,11.8559062 C53.4137521,11.6859062 53.0367417,11.5306927 52.6702677,11.3536979 C52.4749448,11.259224 52.2906896,11.13925 52.1096219,11.0185677 C51.1113146,10.3529115 51.3409917,9.08021354 51.9598094,8.52027604 C52.3261948,8.18877604 52.7446427,7.97229167 53.2221479,7.86675 C54.0995073,7.67275521 55.597101,7.74438542 56.5536167,8.0325 Z M38.7732635,12.3626568 C38.6328365,12.8365318 38.5356177,13.2139849 38.4042219,13.5792193 C38.3611021,13.6991047 38.2489198,13.836787 38.1349667,13.8817661 C36.8265865,14.3984953 35.5059875,14.5344953 34.2114198,13.8586568 C33.2421542,13.3527297 32.6784979,12.5415995 32.5852635,11.4358026 C32.3900292,9.11964115 34.0366385,7.9620474 35.7388521,7.79054219 C36.4657792,7.71731823 37.187925,7.7797401 37.9293729,7.89679219 L37.9293729,9.34276615 C37.7947896,9.28884427 37.6795083,9.25121406 37.5720188,9.1981776 C37.2392792,9.03375573 36.8893625,8.95327135 36.5184615,8.96159427 C35.9207167,8.9750526 35.4584406,9.30965156 35.2768417,9.88163073 C35.0368052,10.6377766 35.1045396,11.3794901 35.4431229,12.0896828 C35.7506281,12.7348859 36.4440865,13.0808182 37.1837635,12.9812089 C37.7237792,12.9086047 38.2255448,12.7247036 38.7732635,12.3626568 Z M41.6367719,7.74751094 L41.6367719,8.5670526 C41.9923552,8.16170885 42.2992406,7.81922969 42.77285,7.78726615 C43.2028083,7.75822448 43.6361313,7.78115677 44.0992927,7.78115677 L44.0992927,9.36764635 C43.7015635,9.34896406 43.3165844,9.33001615 42.9313396,9.31310469 C42.5832823,9.29778698 42.2717042,9.40102656 41.998199,9.61450052 C41.7683448,9.79388594 41.6352667,10.0246255 41.6362406,10.3244276 C41.6393396,11.2693443 41.6408448,12.2143495 41.6422615,13.1592661 C41.6427042,13.5112193 41.7954385,13.8010161 42.0522094,14.0990474 L38.9160635,14.0990474 C39.3349542,13.7041516 39.3287563,13.2124797 39.3252146,12.7136359 C39.3170688,11.565162 39.3160063,10.4165995 39.3265427,9.26812552 C39.3307042,8.80974531 39.3046729,8.36933906 38.9358969,7.97488594 C39.8485844,7.8685474 40.7260323,8.0740526 41.6367719,7.74751094 Z" id="Combined-Shape" fill="#01419A"></path>
        </g>
    </g>
</svg>