<?xml version="1.0" encoding="UTF-8"?>
<svg width="100px" height="60px" viewBox="0 0 100 60" version="1.1" xmlns="http://www.w3.org/2000/svg" xmlns:xlink="http://www.w3.org/1999/xlink">
    <!-- Generator: Sketch 55.2 (78181) - https://sketchapp.com -->
    <title>logo/sysone</title>
    <desc>Created with Sketch.</desc>
    <g id="logo/sysone" stroke="none" stroke-width="1" fill="none" fill-rule="evenodd">
        <g transform="translate(17.000000, 20.000000)" id="Combined-Shape">
            <path d="M8.25387755,11.7533673 L10.117449,11.5722449 C10.2295918,12.1978571 10.4571429,12.6572449 10.800102,12.9504082 C11.1430612,13.2439796 11.6057143,13.3905102 12.1881633,13.3905102 C12.805,13.3905102 13.2697959,13.2602041 13.5826531,12.9990816 C13.8953061,12.7379592 14.0517347,12.4329592 14.0517347,12.0834694 C14.0517347,11.8590816 13.9859184,11.6682653 13.8543878,11.5107143 C13.7227551,11.3532653 13.4929592,11.2163265 13.1652041,11.099898 C12.9408163,11.0222449 12.4296939,10.8841837 11.6317347,10.6856122 C10.604898,10.4312245 9.8844898,10.1185714 9.47030612,9.74744898 C8.88795918,9.2255102 8.59673469,8.58908163 8.59673469,7.83857143 C8.59673469,7.35540816 8.73367347,6.90357143 9.00765306,6.48285714 C9.28163265,6.06244898 9.67632653,5.74193878 10.1918367,5.52204082 C10.7072449,5.30183673 11.3296939,5.19193878 12.0587755,5.19193878 C13.2493878,5.19193878 14.1456122,5.45306122 14.7473469,5.975 C15.3491837,6.49693878 15.665102,7.19367347 15.6954082,8.065 L13.78,8.14928571 C13.6979592,7.66173469 13.5221429,7.31112245 13.252551,7.09765306 C12.9829592,6.88408163 12.5784694,6.7772449 12.0393878,6.7772449 C11.4827551,6.7772449 11.0470408,6.89163265 10.7322449,7.12030612 C10.5292857,7.26693878 10.4280612,7.46326531 10.4280612,7.70918367 C10.4280612,7.93346939 10.5228571,8.12540816 10.7128571,8.28510204 C10.9542857,8.4877551 11.5410204,8.69918367 12.4728571,8.91918367 C13.4046939,9.13918367 14.0937755,9.36663265 14.5403061,9.60173469 C14.9867347,9.83704082 15.3362245,10.1583673 15.5885714,10.5660204 C15.8409184,10.9737755 15.9671429,11.4773469 15.9671429,12.0770408 C15.9671429,12.6206122 15.8160204,13.1295918 15.5141837,13.6040816 C15.2121429,14.0787755 14.785102,14.4314286 14.2329592,14.6621429 C13.6807143,14.8929592 12.9926531,15.0082653 12.1686735,15.0082653 C10.9693878,15.0082653 10.0483673,14.7311224 9.40571429,14.1768367 C8.76285714,13.622551 8.37887755,12.8146939 8.25387755,11.7533673 Z M17.0625714,7.96809184 L18.9973673,7.96809184 L20.6410408,12.8469694 L22.2457347,7.96809184 L24.1287959,7.96809184 L21.7022653,14.5812551 L21.2685918,15.7782959 C21.109,16.1796224 20.9569592,16.4858469 20.8124694,16.6971735 C20.6678776,16.9085 20.5019592,17.0800306 20.3142041,17.2116633 C20.126551,17.3431939 19.8957347,17.4456429 19.6218571,17.5189082 C19.3478776,17.5922755 19.0382857,17.6291122 18.6932857,17.6291122 C18.3437959,17.6291122 18.0009388,17.5922755 17.6643061,17.5189082 L17.5025714,16.0953367 C17.7873673,16.1513571 18.043898,16.1796224 18.2726735,16.1796224 C18.6953265,16.1796224 19.0080816,16.0555408 19.2109388,15.8074796 C19.4136939,15.5594184 19.568898,15.243398 19.6767551,14.8594184 L17.0625714,7.96809184 Z M25.0108469,12.8793061 L26.8356429,12.6010408 C26.9132959,12.9549184 27.0707449,13.2234898 27.3079898,13.4066531 C27.5451327,13.5901224 27.8774796,13.6816531 28.3044184,13.6816531 C28.7746224,13.6816531 29.128398,13.5955306 29.3656429,13.4228776 C29.5252347,13.3022653 29.6051327,13.1404286 29.6051327,12.9375714 C29.6051327,12.7996122 29.5619694,12.6852245 29.4757449,12.5946122 C29.3851327,12.5083878 29.1822755,12.4286939 28.8674796,12.3552245 C27.4006429,12.0316531 26.471051,11.7362449 26.0785,11.4686939 C25.5349286,11.0976735 25.2631939,10.5821633 25.2631939,9.92226531 C25.2631939,9.32685714 25.4981939,8.82655102 25.9685,8.42104082 C26.4387041,8.01542857 27.1676837,7.81277551 28.1556429,7.81277551 C29.096051,7.81277551 29.7949286,7.96583673 30.2522755,8.27216327 C30.7094184,8.5784898 31.0244184,9.03134694 31.1970714,9.63104082 L29.4821735,9.94797959 C29.4088061,9.68063265 29.2696224,9.47573469 29.0648265,9.33338776 C28.8598265,9.19093878 28.5675816,9.11971429 28.1880918,9.11971429 C27.7091122,9.11971429 27.3662551,9.18665306 27.1591122,9.32032653 C27.021051,9.41532653 26.9519694,9.53818367 26.9519694,9.68910204 C26.9519694,9.81869388 27.0124796,9.92859184 27.1331939,10.0193061 C27.2971735,10.1400204 27.8632959,10.3103265 28.8318673,10.5304286 C29.8003367,10.7504286 30.4764592,11.0201224 30.8604388,11.3393061 C31.2400306,11.6627755 31.4299286,12.1136939 31.4299286,12.6916531 C31.4299286,13.321551 31.1667653,13.8629796 30.6404388,14.3158367 C30.1141122,14.768898 29.3355408,14.9953265 28.3044184,14.9953265 C27.368398,14.9953265 26.6273776,14.8055306 26.0817653,14.4258367 C25.535949,14.0463469 25.1791122,13.5308367 25.0108469,12.8793061 Z M34.9778571,10.0904184 C34.9778571,11.164602 35.2258163,11.9789898 35.7219388,12.5331735 C36.2180612,13.0874592 36.8479592,13.3647041 37.6115306,13.3647041 C38.375102,13.3647041 39.0016327,13.0897041 39.4912245,12.5397041 C39.9809184,11.989602 40.2257143,11.164602 40.2257143,10.064602 C40.2257143,8.97745918 39.9873469,8.16643878 39.5107143,7.63143878 C39.0339796,7.09664286 38.4009184,6.82909184 37.6115306,6.82909184 C36.8220408,6.82909184 36.1856122,7.09980612 35.7026531,7.64123469 C35.2193878,8.18256122 34.9778571,8.99909184 34.9778571,10.0904184 Z M33.0042857,10.1552143 C33.0042857,9.18878571 33.1487755,8.37786735 33.4377551,7.72205102 C33.6534694,7.23909184 33.9478571,6.80552041 34.3211224,6.42154082 C34.6941837,6.03756122 35.1029592,5.75286735 35.5472449,5.5672551 C36.1382653,5.3172551 36.8197959,5.19194898 37.5920408,5.19194898 C38.9897959,5.19194898 40.1081633,5.62552041 40.9472449,6.49256122 C41.7862245,7.35970408 42.2058163,8.56552041 42.2058163,10.1098061 C42.2058163,11.6412347 41.7893878,12.8395 40.9569388,13.7045 C40.1243878,14.5695 39.0113265,15.0018469 37.6179592,15.0018469 C36.2073469,15.0018469 35.0856122,14.5714388 34.2530612,13.7109286 C33.4205102,12.8502143 33.0042857,11.6651122 33.0042857,10.1552143 Z M50.2963367,14.84 L48.4780714,14.84 L48.4780714,11.3327551 C48.4780714,10.5908163 48.4391939,10.1110204 48.3616429,9.89316327 C48.2838878,9.67520408 48.1577653,9.50591837 47.9829694,9.38510204 C47.8083776,9.26438776 47.5980714,9.20387755 47.352051,9.20387755 C47.0372551,9.20387755 46.754602,9.29020408 46.5045,9.4627551 C46.2541939,9.63520408 46.0827653,9.86387755 45.9900102,10.1485714 C45.8971531,10.4333673 45.8509286,10.9596939 45.8509286,11.727551 L45.8509286,14.84 L44.0325612,14.84 L44.0325612,7.96806122 L45.7214388,7.96806122 L45.7214388,8.97744898 C46.3210306,8.20091837 47.0759286,7.8127551 47.9862347,7.8127551 C48.3874592,7.8127551 48.7540918,7.88489796 49.0864388,8.02938776 C49.4183776,8.17408163 49.669602,8.35836735 49.8401122,8.58265306 C50.0105204,8.80704082 50.1290918,9.06163265 50.1961327,9.34632653 C50.2628673,9.63102041 50.2963367,10.0385714 50.2963367,10.5691837 L50.2963367,14.84 Z M56.5815102,10.8151735 C56.568551,10.288949 56.4326327,9.88884694 56.1738571,9.61486735 C55.9150816,9.34088776 55.6000816,9.20384694 55.2290612,9.20384694 C54.8321224,9.20384694 54.5043673,9.34854082 54.2454898,9.63752041 C53.9867143,9.92660204 53.8593673,10.319051 53.8637551,10.8151735 L56.5815102,10.8151735 Z M56.4779388,12.6529286 L58.2897755,12.9569082 C58.0568163,13.621398 57.6890612,14.1272143 57.1866122,14.4744592 C56.6839592,14.8217041 56.0551837,14.9953776 55.3001837,14.9953776 C54.1051837,14.9953776 53.220898,14.6049694 52.6471224,13.8241531 C52.1942653,13.1986429 51.9677347,12.4091531 51.9677347,11.4557857 C51.9677347,10.3168061 52.2653878,9.42507143 52.8607959,8.78007143 C53.456102,8.13507143 54.2087551,7.81272449 55.1190612,7.81272449 C56.1415102,7.81272449 56.9481429,8.15027551 57.5392653,8.82537755 C58.1301837,9.50047959 58.4127347,10.5347653 58.3868163,11.9281327 L53.8314082,11.9281327 C53.8442653,12.4674184 53.990898,12.8870102 54.2714082,13.1867041 C54.5517143,13.486602 54.9012041,13.6365 55.3196735,13.6365 C55.6043673,13.6365 55.8438571,13.5588469 56.0380408,13.4034388 C56.2320204,13.2483367 56.3787551,12.9981327 56.4779388,12.6529286 Z" fill="#0868B2"></path>
            <path d="M2.00019388,12.6042755 C-0.912459184,9.30213265 -2.01205102,3.85978571 8.48519388,1.16886735 C22.4812143,-2.4189898 32.3310102,4.1927449 32.3310102,4.1927449 C30.3462143,3.26029592 18.9311122,0.451622449 10.4393776,2.52560204 C-1.77337755,5.50856122 2.00019388,12.6042755 2.00019388,12.6042755 Z M34.2266531,15.9595612 C34.2266531,15.9595612 44.6534898,20.5138469 55.4970612,17.7947653 C66.3405306,15.0757857 65.8177755,11.0247653 64.7805306,7.36568367 C64.7805306,7.36568367 70.3379796,12.3346633 63.3897143,16.7925204 C56.441551,21.2504796 41.6106327,21.0086429 34.2266531,15.9595612 Z" fill="#29AAE1"></path>
        </g>
    </g>
</svg>