<?xml version="1.0" encoding="utf-8"?>
<!-- Generator: Adobe Illustrator 26.0.1, SVG Export Plug-In . SVG Version: 6.00 Build 0)  -->
<svg version="1.1" id="레이어_1" xmlns="http://www.w3.org/2000/svg" xmlns:xlink="http://www.w3.org/1999/xlink" x="0px"
	 y="0px" viewBox="0 0 100 60" style="enable-background:new 0 0 100 60;" xml:space="preserve">
<style type="text/css">
	.st0{fill:#003282;}
	.st1{fill:#FEFEFE;}
	.st2{fill:#FAFBFC;}
	.st3{fill:#FAFAFC;}
	.st4{fill:#CBD5E5;}
	.st5{fill:#E7ECF3;}
	.st6{fill:#E8ECF3;}
	.st7{fill:#EBEFF5;}
	.st8{fill:#CCD6E5;}
	.st9{fill:#19468E;}
	.st10{fill:#E8EDF3;}
	.st11{fill:#5072A9;}
	.st12{fill:#FDFEFE;}
	.st13{fill:#00267A;}
	.st14{fill:#02267A;}
	.st15{fill:#042D7F;}
	.st16{fill:#002B7D;}
	.st17{fill:#002A7D;}
	.st18{fill:#002A7C;}
	.st19{fill:#00287C;}
	.st20{fill:#00297C;}
	.st21{fill:#00277B;}
	.st22{fill:#00297D;}
	.st23{fill:#00257A;}
	.st24{fill:#002B7E;}
</style>
<g>
	<g>
		<path class="st0" d="M11.7,39.2c0-0.1,0-0.2,0-0.2c0.3-0.9,0.2-1.9,0.6-2.8c0.5-1.2,0.9-1.6,2.2-1.6c2.2,0,4.4,0,6.6,0
			c0.4,0,0.9,0.1,1.4-0.3c-0.4-0.5-0.9-0.4-1.3-0.4c-2,0-4,0-6,0c-1.5,0-1.9-0.5-1.3-1.9c0.6-1.7,1-2,2.8-2c2,0,3.9,0,5.9,0
			c0.4,0,0.9,0.1,1.4-0.3c-0.3-0.4-0.8-0.3-1.1-0.3c-1.8,0-3.6,0-5.4,0c-1.4,0-1.9-0.3-2-1.1c-0.1-1,0.8-2.1,1.8-2.3
			c0.4-0.1,0.8,0,1.2-0.1c1.8,0,3.7,0,5.5,0c0.4,0,0.8,0.1,1.3-0.2c-0.4-0.3-0.8-0.2-1.2-0.2c-1.9,0-3.8,0-5.7,0
			c-0.6,0-1.3-0.1-1.4-0.9c-0.1-0.7,0.1-1.4,1-1.5c3.6,0,7.2,0,10.8,0c1.2,0,2.3,0,3.5,0c0.9,0,1.8,0.1,2.4,0.8
			c0.4,0.5,0.8,0.5,1.3,0.1c0.7-0.7,1.5-0.9,2.4-0.9c1.1,0,2.2,0,3.3,0c1.1,0.1,2.2,0.1,3.2,0c4,0,8,0,12.1,0c1,0.1,2,0.2,3,0
			c1,0,2,0,3.1,0c0.9,0,1.7,0.2,2.4,0.9c0.5,0.5,1.1,0.5,1.6,0c0.7-0.7,1.5-0.8,2.4-0.8c1,0,2,0,3,0c0.7,0,1.4,0,1.8,0.5
			c0.6,0.6,1.1,0.5,1.7,0.2c1-0.6,2.2-0.6,3.3-0.6c0.4,0,0.8,0,1.1,0c1.1,0,2.2,0,3.2,0c1,0,2.1,0.1,3,0.7c1.4,0.9,1.7,2.4,1.6,3.8
			c-0.1,1,0.3,2.1-0.9,2.8c-0.3,0.2-0.2,0.6-0.1,0.8c0.6,2.8-0.6,4.8-2.6,6.5c-1.5,1.3-3.3,1.9-5.3,2c-1.4,0-2.8,0.1-4.1,0
			c-1.1-0.1-2.2-0.2-3.2-0.8c-0.6-0.4-1.2-0.4-1.8,0.1c-0.5,0.4-1.2,0.5-1.8,0.5c-0.9,0-1.8,0-2.8,0c-0.9,0-1.8-0.1-2.6-0.7
			c-0.6-0.5-1.4-0.5-2,0c-0.7,0.6-1.5,0.7-2.4,0.7c-1,0-2.1,0-3.1,0c-0.5,0-0.9-0.1-1.3-0.4c-1.4-1-2.8-0.9-4.3,0
			c-0.4,0.3-0.9,0.4-1.4,0.4c-1,0-1.9,0-2.9,0c-1,0-1.8-0.1-2.7-0.7c-0.9-0.6-2.1-0.6-3-0.1c-1.1,0.6-2.2,0.8-3.4,0.8
			c-0.8,0-1.5,0-2.3,0c-0.7,0-1.3-0.1-1.8-0.5c-0.7-0.6-1.5-0.6-2.2,0c-0.6,0.5-1.3,0.6-2.1,0.6c-5,0-9.9,0-14.9,0
			C12.6,39.6,12.1,39.7,11.7,39.2z"/>
		<path class="st1" d="M11.7,39.2c5.5,0,11,0,16.5,0c0.6,0,1.2-0.3,1.7-0.7c0.9-0.9,1.7-0.8,2.7,0.1c0.1,0.1,0.2,0.2,0.3,0.2
			c1.1,0.8,5.5,0.5,6.5-0.4c0.8-0.7,3.2-0.7,3.9,0.1c0.1,0.1,0.2,0.2,0.3,0.3c1.1,0.8,5.4,0.5,6.5-0.5c0.8-0.7,3.2-0.6,3.9,0.1
			c0.1,0.1,0.3,0.3,0.4,0.4c1.1,0.8,5.2,0.4,6.1-0.5c0.7-0.7,2-0.7,2.7,0c0.6,0.5,1.2,0.8,2,0.8c1,0,2,0,3,0c0.7,0,1.4-0.2,1.8-0.8
			c0.5-0.7,1.1-0.7,1.8-0.2c3.8,2.4,10.2,1.6,13.2-1.6c1.9-2,2.3-4.2,1.1-6.5c0.6-0.3,1.6,0,1.7-1.2c0.1-1.7,0.2-3.3-1.2-4.5
			c-0.8-0.7-1.8-1.1-2.9-1.2c-0.2,0-0.2-0.1,0-0.2c1.4,0,2.8,0,4.1,0c0.4,0,0.5,0.1,0.5,0.5c0,5.3,0,10.6,0,15.9
			c0,0.3,0,0.6-0.4,0.5c-0.2,0-0.4,0-0.6,0c-24.9,0-49.8,0-74.7,0C12.2,39.9,11.5,40.1,11.7,39.2z"/>
		<path class="st1" d="M17.7,23.3c-0.2,0.5-0.5,1.1-0.8,1.8c2.6,0,5.1,0,7.6,0c0.6,0,1.6-0.2,1.7,0.7c0,1-1,0.7-1.6,0.7
			c-2.2,0-4.5,0.1-6.7,0c-1.2-0.1-1.8,0.3-2,1.4c-0.1,0.3-0.3,0.6-0.2,1.1c2.2,0,4.5,0,6.7,0c0.5,0,0.9,0,1.4,0c0.5,0,1,0.2,1,0.8
			c0,0.6-0.5,0.7-1,0.7c-1.2,0-2.3,0-3.5,0c-0.9,0-1.8,0-2.8,0c-3,0-3,0-3.7,3.1c1.8,0,3.6,0,5.4,0c0.9,0,1.8,0,2.8,0
			c0.6,0,1.3,0,1.3,0.8c0,0.7-0.7,0.8-1.3,0.8c-2.6,0-5.2,0-7.8,0c-0.8,0-1.2,0.2-1.4,1c-0.3,1-0.8,2-1.2,3c0-5.1,0-10.2,0-15.3
			c0-0.6,0.1-0.7,0.7-0.7c1.8,0,3.5,0,5.3,0C17.9,23.1,17.9,23.2,17.7,23.3z"/>
		<path class="st2" d="M69.2,23.2c-0.6,0.1-1.2,0.4-1.7,0.9c-0.9,1-1.8,1-2.7,0c-0.4-0.5-1-0.7-1.6-0.8c-0.2-0.1-0.2-0.1,0-0.2
			c2,0,4,0,6,0C69.3,23.1,69.3,23.2,69.2,23.2z"/>
		<path class="st2" d="M38,23.2c-0.8,0.2-1.4,0.5-1.8,1.2c-0.4,0.6-1.5,0.6-1.9-0.1c-0.4-0.7-1-1-1.7-1.1c-0.2-0.1-0.2-0.1,0-0.2
			c1.8,0,3.7,0,5.5,0C38.2,23.1,38.2,23.2,38,23.2z"/>
		<path class="st3" d="M79.1,23.3c-1.3,0.1-2.5,0.6-3.6,1.3c-0.5,0.3-0.9,0.4-1.2-0.2c-0.3-0.7-1-0.9-1.6-1.1
			c-0.2-0.1-0.2-0.1,0-0.2c2.2,0,4.3,0,6.5,0C79.2,23.1,79.2,23.2,79.1,23.3z"/>
		<path class="st4" d="M57.2,23.3c-4.2,0-8.5,0-12.7,0c-0.1,0-0.1-0.1-0.1-0.1c0,0,0.1-0.1,0.1-0.1c4.2,0,8.5,0,12.7,0
			C57.3,23.1,57.3,23.1,57.2,23.3C57.2,23.2,57.2,23.3,57.2,23.3z"/>
		<path class="st5" d="M17.7,23.3c0-0.1,0-0.1,0-0.2c3.7,0,7.4,0,11.1,0c0.2,0.1,0.1,0.1,0,0.2C25.1,23.3,21.4,23.3,17.7,23.3z"/>
		<path class="st6" d="M44.5,23.1c0,0.1,0,0.1,0,0.2c-0.9,0.3-1.8,0.4-2.8,0c-0.2-0.1-0.2-0.1,0-0.2C42.6,23.1,43.6,23.1,44.5,23.1z
			"/>
		<path class="st7" d="M57.2,23.3c0-0.1,0-0.1,0-0.2c0.8,0,1.7,0,2.5,0c0.1,0.1,0.1,0.1,0,0.2C58.9,23.6,58,23.8,57.2,23.3z"/>
		<path class="st8" d="M41.7,23.1c0,0.1,0,0.1,0,0.2c-1.2,0-2.5,0-3.7,0c0-0.1,0-0.1,0-0.2C39.2,23.1,40.5,23.1,41.7,23.1z"/>
		<path class="st8" d="M28.8,23.2c0-0.1,0-0.1,0-0.2c1.2,0,2.5,0,3.7,0c0,0.1,0,0.1,0,0.2C31.3,23.2,30,23.2,28.8,23.2z"/>
		<path class="st9" d="M83.7,23.1c0,0.1,0,0.1,0,0.2c-1.2,0-2.4,0-3.5,0c-0.1-0.1-0.1-0.1-0.1-0.1c0,0,0.1-0.1,0.1-0.1
			C81.4,23.1,82.6,23.1,83.7,23.1z"/>
		<path class="st5" d="M72.6,23.1c0,0.1,0,0.1,0,0.2c-1.2,0-2.3,0-3.5,0c0-0.1,0-0.1,0-0.2C70.3,23.1,71.5,23.1,72.6,23.1z"/>
		<path class="st10" d="M59.7,23.3c0-0.1,0-0.1,0-0.2c1.2,0,2.3,0,3.5,0c0,0.1,0,0.1,0,0.2C62,23.3,60.9,23.3,59.7,23.3z"/>
		<path class="st11" d="M80.2,23.1c0,0.1,0,0.1,0,0.2c-0.4,0-0.8,0-1.2,0c0-0.1,0.1-0.1,0-0.2C79.5,23.1,79.9,23.1,80.2,23.1z"/>
		<path class="st1" d="M55.3,37.8c-0.3-0.4-0.1-0.7,0-1.1c1.2-3.6,2.4-7.1,3.5-10.7c0.3-0.9,0.7-1.2,1.7-1.2c3.6,0.1,2.6-0.6,4,2.6
			c0.6,1.4,1.2,2.8,1.9,4.4c0.7-2.2,1.4-4.1,2-6c0.3-0.9,0.7-1.2,1.6-1.1c0.7,0.1,1.4,0,2.1,0c0.8,0,0.9,0.3,0.7,1
			c-1.2,3.7-2.4,7.4-3.6,11c-0.1,0.4-0.3,0.8-0.7,1c-1.2,0.2-2.4,0.3-3.5,0c-0.4-0.3-0.6-0.7-0.8-1.2c-0.8-1.9-1.6-3.7-2.5-5.9
			c-0.7,2.2-1.3,4-1.9,5.9c-0.2,0.5-0.3,1-0.9,1.3C57.6,38,56.5,38.2,55.3,37.8z"/>
		<path class="st1" d="M24.7,37.8c-0.5-0.3-0.4-0.7-0.2-1.1c1.2-3.7,2.5-7.3,3.7-11c0.2-0.7,0.6-1,1.3-0.9c0.9,0,1.8,0,2.7,0
			c0.6,0,0.7,0.3,0.6,0.8c-0.3,1-0.6,2-0.9,2.9c0.1,0.6,0.5,0.6,0.9,0.6c1.1,0,2.2-0.1,3.3,0.1c0.5-0.1,0.5-0.5,0.6-0.8
			c0.3-0.8,0.6-1.6,0.8-2.5c0.2-0.8,0.7-1.1,1.5-1c1,0.1,2.5-0.5,3.1,0.3c0.5,0.7-0.4,1.9-0.7,2.9c-0.9,2.9-1.9,5.8-2.8,8.7
			c-0.2,0.5-0.3,1-0.9,1.2c-1.1,0.2-2.2,0.2-3.4,0c-0.5-0.2-0.5-0.5-0.4-1c0.4-1.1,0.7-2.2,1.1-3.3c0.1-0.3,0.5-0.7-0.1-0.9
			c-1.5,0.1-2.9-0.2-4.4,0.2c-0.7,1.2-0.9,2.5-1.4,3.8c-0.2,0.5-0.3,0.9-0.8,1.2C27.1,38.1,25.9,38.1,24.7,37.8z"/>
		<path class="st1" d="M78.9,35.3c0.5,0,0.8-0.2,1.1-0.5c0.9-0.7,0.8-1.6-0.3-2c-1-0.4-2.1-0.6-3.2-0.9c-1.1-0.4-2.1-1-2.5-2.2
			c-0.2-0.3-0.2-0.5,0-0.8c0.7-2.5,2.5-3.7,4.9-4.2c1.7-0.3,3.5-0.4,5.2,0.1c0.8,0.2,1.6,0.6,1.9,1.5c0.6,1.4,0.2,2.2-1.4,2.2
			c-0.5,0-1.1,0-1.6,0.1c-0.7,0.1-1.2,0-1.3-0.8c-0.1-0.4-0.4-0.7-0.9-0.7c-0.4,0.2-0.8,0.2-1.2,0c-0.7,0-1.3,0.4-1.3,1
			c0,0.6,0.7,0.7,1.2,0.8c1.1,0.3,2.1,0.5,3.2,0.9c1.2,0.4,2.1,1.1,2.4,2.3c0.2,0.2,0.2,0.4,0,0.6c-1.1,3.3-3.5,5.1-7.3,5.3
			c-0.6,0-1.1,0-1.7,0.1c-0.3,0.1-0.6,0.2-0.9-0.1c-0.5-0.1-1-0.2-1.4-0.4c-1.6-0.5-2.5-2-2.1-3.7c0.1-0.4,0.2-0.5,0.6-0.5
			c0.6,0,1.2,0,1.8-0.1c1.1-0.2,2.1-0.1,2.2,1.3l0,0c0.2,0.4,0.5,0.7,0.9,0.7C77.9,35.2,78.4,35.2,78.9,35.3z"/>
		<path class="st12" d="M44.8,37.8c-0.5-0.3-0.3-0.8-0.2-1.2c0.8-2.5,1.6-5.1,2.5-7.6c0.3-0.9,0.1-1.1-0.8-1c-0.8,0-1.7,0-2.5,0
			c-0.6,0-0.8-0.3-0.6-0.9c0-0.1,0.1-0.1,0.1-0.2c0.8-2.6,0.4-2.1,2.9-2.2c3.4,0,6.8,0,10.1,0c0.9,0,1.2,0.3,0.8,1.1
			c-0.2,0.3-0.3,0.7-0.4,1.1c-0.2,0.8-0.7,1.1-1.5,1.1c-0.8,0-1.5,0-2.3,0c-0.9-0.1-1.2,0.3-1.5,1.1c-0.8,2.5-1.6,5-2.4,7.6
			c-0.2,0.5-0.4,1-1,1.2C47,38.1,45.9,38.1,44.8,37.8z"/>
		<path class="st13" d="M56.8,24.6c-4.1,0-8.1,0-12.2,0c0,0,0-0.1,0-0.1c4.1,0,8.1,0,12.2,0C56.8,24.5,56.8,24.6,56.8,24.6z"/>
		<path class="st14" d="M30.4,32.9c0.5-0.6,1.2-0.3,1.8-0.3c0.9,0,1.7-0.2,2.6,0.1C33.4,33.1,31.9,32.7,30.4,32.9z"/>
		<path class="st15" d="M35.9,29.2c-1.2,0.2-2.5,0.1-3.7,0.1c-0.6,0-0.8-0.2-0.4-0.8c0.3,0.4,0.8,0.4,1.3,0.5
			C34.1,29,35,28.8,35.9,29.2z"/>
		<path class="st16" d="M64.9,37.8c1.2,0,2.4,0,3.5,0C67.3,38.4,66,38,64.9,38c0,0,0-0.1,0-0.1C64.8,37.9,64.9,37.8,64.9,37.8z"/>
		<path class="st17" d="M44.8,37.8c1.1,0,2.2,0,3.3,0c0,0,0.1,0,0.1,0c0,0,0.1,0,0.1,0.1C47.1,38.1,45.9,38.3,44.8,37.8z"/>
		<path class="st17" d="M34.1,37.8c1.1,0,2.2,0,3.4,0C36.3,38.4,35.1,38,34,38c0,0,0-0.1,0-0.1C34,37.9,34.1,37.9,34.1,37.8z"/>
		<path class="st18" d="M24.7,37.8c1.2,0,2.4,0,3.6,0c-0.2,0.6-0.8,0.3-1.1,0.2C26.3,38,25.4,38.4,24.7,37.8z"/>
		<path class="st16" d="M55.3,37.8c1.1,0,2.3,0.1,3.4,0.1c0,0,0.1,0,0.1,0c0,0,0.1,0,0.1,0.1C57.7,38.1,56.5,38.4,55.3,37.8z"/>
		<path class="st13" d="M32.3,24.6c-1.1,0-2.1,0-3.2,0c0,0,0-0.1,0-0.1c1.1,0,2.1,0,3.2,0C32.3,24.5,32.3,24.6,32.3,24.6z"/>
		<path class="st13" d="M41.6,24.6c-1.1,0-2.1,0-3.2,0c0,0,0-0.1,0-0.1c1,0,2.1,0,3.1,0C41.6,24.5,41.6,24.6,41.6,24.6z"/>
		<path class="st19" d="M69.3,24.5c1,0,2,0,2.9,0c0,0,0,0.1,0,0.1c-1,0-1.9,0-2.9,0C69.3,24.5,69.3,24.5,69.3,24.5z"/>
		<path class="st19" d="M59.9,24.5c1,0,2,0,2.9,0c0,0,0,0.1,0,0.1c-1,0-2,0-3,0C59.8,24.5,59.9,24.5,59.9,24.5z"/>
		<path class="st17" d="M74,29c0,0.3,0,0.5,0,0.8c-0.6-0.2-0.1-0.7-0.2-1c0,0,0.1,0,0.1,0C74,28.9,74,28.9,74,29z"/>
		<path class="st20" d="M85.3,32.8c0-0.2,0-0.4,0-0.6c0,0,0-0.1,0-0.1c0,0,0-0.1,0.1-0.1c0.3,0.4,0.1,0.8,0.1,1.2c0,0-0.1,0-0.1-0.1
			C85.3,33,85.3,32.9,85.3,32.8z"/>
		<path class="st21" d="M78.9,35.3c-0.5,0.2-0.9,0.2-1.4,0C77.9,35,78.4,35,78.9,35.3z"/>
		<path class="st21" d="M86.7,27.1c0,0.3,0,0.6,0,0.9c0,0-0.1,0-0.1,0c0-0.3,0-0.6,0-0.9C86.6,27,86.6,27,86.7,27.1z"/>
		<path class="st20" d="M75.5,38.1c0.3,0,0.6,0,0.9,0.1c-0.3,0.3-0.7,0.2-1.1,0.2c-0.1,0-0.3,0-0.2-0.1
			C75.1,38.1,75.3,38.1,75.5,38.1z"/>
		<path class="st22" d="M71.6,35c-0.2-0.2-0.2-0.4-0.1-0.7C71.9,34.5,71.5,34.8,71.6,35z"/>
		<path class="st23" d="M79.8,27.2c0.4-0.1,0.8-0.1,1.2,0C80.6,27.5,80.2,27.5,79.8,27.2z"/>
		<path class="st24" d="M76.5,34.7c0-0.3,0-0.6,0-1C76.9,34.2,76.8,34.4,76.5,34.7C76.5,34.7,76.5,34.7,76.5,34.7z"/>
	</g>
</g>
</svg>
