<?xml version="1.0" encoding="utf-8"?>
<!-- Generator: Adobe Illustrator 25.0.1, SVG Export Plug-In . SVG Version: 6.00 Build 0)  -->
<svg version="1.1" id="레이어_1" xmlns="http://www.w3.org/2000/svg" xmlns:xlink="http://www.w3.org/1999/xlink" x="0px"
	 y="0px" viewBox="0 0 100 60" style="enable-background:new 0 0 100 60;" xml:space="preserve">
<style type="text/css">
	.st0{fill:#898989;}
	.st1{fill:url(#SVGID_1_);}
	.st2{fill:url(#SVGID_2_);}
</style>
<g>
	<g>
		<polygon class="st0" points="46.64,30.43 47.97,30.43 47.97,23.51 41.09,23.51 41.09,24.26 46.64,24.26 		"/>
		<path class="st0" d="M93.01,25.22v-1.98h-1.33v3.72c-0.56,0.08-1.53,0.19-2.5,0.19c-1.29,0-1.8-0.09-1.98-0.13l0-2.77h3.12v-0.75
			h-4.45v3.4c0,0.37,0.26,0.64,0.71,0.76l0,0c0,0,0.01,0,0.01,0c0.01,0,0.01,0,0.02,0c0.34,0.09,1.22,0.23,2.63,0.23
			c0.95,0,1.9-0.12,2.44-0.2v1.99h1.33v-3.73h1.22v-0.74H93.01z"/>
		<polygon class="st0" points="66.27,23.25 64.94,23.25 64.94,29.7 66.27,29.7 66.27,25.93 67.56,25.93 67.56,25.19 66.27,25.19 		
			"/>
		<polygon class="st0" points="45.52,26.93 44.19,26.93 44.19,31.18 43.02,31.18 43.02,26.93 41.69,26.93 41.69,31.18 40.49,31.18 
			40.49,31.92 48.76,31.92 48.76,31.18 45.52,31.18 		"/>
		<polygon class="st0" points="83.97,23.51 77.36,23.51 77.36,24.26 82.64,24.26 82.64,27.04 80.74,27.04 80.74,25.57 79.41,25.57 
			79.41,27.04 76.58,27.04 76.58,27.78 84.93,27.78 84.93,27.04 83.97,27.04 		"/>
		<polygon class="st0" points="74.17,29.7 75.5,29.7 75.5,23.25 74.17,23.25 74.17,25.19 72.9,25.19 72.9,25.94 74.17,25.94 		"/>
		<path class="st0" d="M53.73,28.34c-1.85,0-3.34,0.93-3.34,2.09c0,1.15,1.5,2.09,3.34,2.09c1.85,0,3.34-0.93,3.34-2.09
			C57.07,29.27,55.57,28.34,53.73,28.34z M53.73,31.77c-1.05,0-1.91-0.6-1.91-1.34c0-0.74,0.85-1.34,1.91-1.34
			c1.05,0,1.91,0.6,1.91,1.34C55.64,31.17,54.78,31.77,53.73,31.77z"/>
		<path class="st0" d="M88.11,31.33v-2.43h-1.33l0,2.31c0,0-0.04,0.58,0.74,0.77c0.34,0.08,1.22,0.22,2.64,0.22
			c1.46,0,2.91-0.27,2.91-0.27v-0.75c-0.12,0.05-1.55,0.27-2.97,0.27C88.79,31.47,88.29,31.38,88.11,31.33z"/>
		<path class="st0" d="M70.6,31.33v-2.43h-1.33l0,2.31c0,0-0.04,0.58,0.74,0.77c0.34,0.08,1.22,0.22,2.64,0.22
			c1.46,0,2.91-0.27,2.91-0.27v-0.75c-0.12,0.05-1.55,0.27-2.97,0.27C71.29,31.47,70.78,31.38,70.6,31.33z"/>
		<path class="st0" d="M61.37,31.33v-2.43h-1.33l0,2.31c0,0-0.04,0.58,0.74,0.77c0.34,0.08,1.22,0.22,2.63,0.22
			c1.46,0,2.91-0.27,2.91-0.27v-0.75c-0.12,0.05-1.55,0.27-2.97,0.27C62.05,31.47,61.55,31.38,61.37,31.33z"/>
		<path class="st0" d="M63.72,25.79c0-1.4-1.12-2.54-2.5-2.54c-1.38,0-2.5,1.14-2.5,2.54c0,1.4,1.12,2.54,2.5,2.54
			C62.6,28.33,63.72,27.19,63.72,25.79z M60.05,25.79c0-0.99,0.52-1.79,1.17-1.79s1.17,0.8,1.17,1.79c0,0.99-0.52,1.79-1.17,1.79
			S60.05,26.78,60.05,25.79z"/>
		<path class="st0" d="M54.4,26.93c1.51-0.04,2.9-0.27,2.9-0.27v-0.74c-0.14,0.05-1.77,0.27-3.38,0.27c-1.47,0-2.05-0.09-2.44-0.14
			v-0.51h5.82V24.8h-5.82v-0.55h5.82v-0.74l-7.15,0v2.44c0,0-0.04,0.57,0.84,0.77c0.31,0.07,1,0.17,2.08,0.2v0.38h-3.52v0.74h8.35
			V27.3h-3.5V26.93z"/>
		<path class="st0" d="M80.76,28.33c-1.84,0-3.34,0.94-3.34,2.09c0,1.15,1.5,2.09,3.34,2.09c1.85,0,3.34-0.93,3.34-2.09
			C84.1,29.27,82.6,28.33,80.76,28.33z M80.76,31.76c-1.05,0-1.91-0.6-1.91-1.34c0-0.74,0.86-1.34,1.91-1.34
			c1.05,0,1.91,0.6,1.91,1.34C82.67,31.16,81.81,31.76,80.76,31.76z"/>
		<path class="st0" d="M70.48,26.47c0.51,0.75,1.41,1.37,2.1,1.77l0.54-0.65c-1.21-0.81-1.92-1.74-1.92-3.12v-0.21h1.64v-0.75h-4.71
			v0.75h1.64v0.21c0,1.38-0.71,2.32-1.92,3.12l0.54,0.65C69.07,27.84,69.97,27.21,70.48,26.47z"/>
	</g>
	<g>
		<path class="st0" d="M41.09,33.97h0.37v1.04h0.01l0.77-1.04h0.38l-0.83,1.07l0.92,1.28h-0.45l-0.8-1.14h-0.01v1.14h-0.37V33.97z"
			/>
		<path class="st0" d="M43.13,35.51c0-0.3,0.04-0.71,0.34-0.71c0.31,0,0.34,0.41,0.34,0.71c0,0.3-0.04,0.71-0.34,0.71
			C43.17,36.22,43.13,35.81,43.13,35.51z M43.47,36.36c0.48,0,0.72-0.3,0.72-0.85c0-0.55-0.24-0.85-0.72-0.85
			c-0.48,0-0.72,0.3-0.72,0.85C42.75,36.06,42.99,36.36,43.47,36.36z"/>
		<path class="st0" d="M44.55,36.32h0.34v-0.74c0-0.44,0.2-0.55,0.53-0.56v-0.36c-0.3,0.03-0.42,0.23-0.53,0.45h-0.01V34.7h-0.34
			V36.32z"/>
		<path class="st0" d="M45.89,35.17c0.01-0.09,0.06-0.36,0.32-0.36c0.25,0,0.3,0.24,0.3,0.36H45.89z M46.82,36.11
			c-0.1,0.05-0.2,0.07-0.31,0.07c-0.49,0-0.63-0.53-0.63-0.85h0.97c0-0.32-0.1-0.67-0.62-0.67c-0.51,0-0.69,0.33-0.69,0.78
			c0,0.65,0.36,0.92,0.81,0.92c0.2,0,0.33-0.03,0.47-0.09V36.11z"/>
		<path class="st0" d="M48,36.32h0.34v-1.05c0-0.32-0.04-0.62-0.57-0.62c-0.51,0-0.61,0.26-0.63,0.5h0.36
			c0.01-0.19,0.05-0.35,0.26-0.35C48,34.8,48,35.1,48,35.27v0.14c-0.22,0.01-0.91,0.03-0.91,0.53c0,0.23,0.19,0.41,0.44,0.41
			c0.26,0,0.4-0.17,0.46-0.26H48V36.32z M48,35.75c0,0.28-0.22,0.39-0.34,0.39c-0.11,0-0.2-0.1-0.2-0.24c0-0.3,0.39-0.33,0.53-0.34
			V35.75z"/>
		<path class="st0" d="M50.04,36.32h0.38v-2.13h0.57v-0.22h-1.52v0.22h0.57V36.32z"/>
		<path class="st0" d="M51.14,36.32h0.35v-0.74c0-0.44,0.2-0.55,0.53-0.56v-0.36c-0.3,0.03-0.42,0.23-0.52,0.45h-0.01V34.7h-0.35
			V36.32z"/>
		<path class="st0" d="M53.05,35.75c0,0.28-0.22,0.39-0.34,0.39c-0.11,0-0.2-0.1-0.2-0.24c0-0.3,0.39-0.33,0.53-0.34V35.75z
			 M53.05,36.32h0.34v-1.05c0-0.32-0.04-0.62-0.57-0.62c-0.51,0-0.61,0.26-0.63,0.5h0.36c0.01-0.19,0.05-0.35,0.26-0.35
			c0.23,0,0.23,0.29,0.23,0.47v0.14c-0.22,0.01-0.91,0.03-0.91,0.53c0,0.23,0.19,0.41,0.44,0.41c0.26,0,0.4-0.17,0.46-0.26h0.01
			V36.32z"/>
		<path class="st0" d="M53.85,34.7h0.34v0.39h0.01c0.05-0.12,0.21-0.42,0.57-0.42c0.29,0,0.41,0.24,0.41,0.47v1.19h-0.34V35.3
			c0-0.21-0.03-0.39-0.2-0.39c-0.34,0-0.44,0.53-0.44,0.73v0.67h-0.34V34.7z"/>
		<path class="st0" d="M56.47,35.02c-0.12-0.08-0.25-0.16-0.41-0.16c-0.11,0-0.23,0.05-0.23,0.17c0,0.29,0.74,0.32,0.74,0.84
			c0,0.35-0.27,0.49-0.62,0.49c-0.21,0-0.35-0.04-0.43-0.07v-0.32c0.1,0.07,0.26,0.17,0.45,0.17c0.2,0,0.28-0.1,0.28-0.21
			c0-0.29-0.73-0.34-0.73-0.81c0-0.25,0.16-0.47,0.57-0.47c0.17,0,0.32,0.05,0.38,0.07V35.02z"/>
		<path class="st0" d="M56.88,34.7h0.34v0.27h0.01c0.05-0.11,0.16-0.3,0.42-0.3c0.47,0,0.61,0.38,0.61,0.85
			c0,0.48-0.18,0.85-0.61,0.85c-0.27,0-0.37-0.17-0.42-0.26h-0.01v0.96h-0.34V34.7z M57.56,36.16c0.27,0,0.33-0.37,0.33-0.65
			c0-0.27-0.05-0.63-0.33-0.63c-0.28,0-0.32,0.36-0.32,0.63C57.23,35.79,57.26,36.16,57.56,36.16z"/>
		<path class="st0" d="M58.87,35.51c0-0.3,0.04-0.71,0.34-0.71c0.31,0,0.35,0.41,0.35,0.71c0,0.3-0.04,0.71-0.35,0.71
			C58.91,36.22,58.87,35.81,58.87,35.51z M59.21,36.36c0.48,0,0.72-0.3,0.72-0.85c0-0.55-0.24-0.85-0.72-0.85
			c-0.48,0-0.72,0.3-0.72,0.85C58.5,36.06,58.74,36.36,59.21,36.36z"/>
		<path class="st0" d="M60.29,36.32h0.34v-0.74c0-0.44,0.2-0.55,0.53-0.56v-0.36c-0.3,0.03-0.42,0.23-0.53,0.45h-0.01V34.7h-0.34
			V36.32z"/>
		<path class="st0" d="M62.31,36.33c-0.07,0.02-0.16,0.02-0.24,0.02c-0.32,0-0.51-0.1-0.51-0.41v-1.07H61.3V34.7h0.26v-0.38
			l0.34-0.21v0.59h0.44v0.18H61.9v0.93c0,0.24,0.02,0.36,0.25,0.36c0.06,0,0.11-0.01,0.16-0.03V36.33z"/>
		<path class="st0" d="M63.42,35.75c0,0.28-0.22,0.39-0.33,0.39c-0.11,0-0.2-0.1-0.2-0.24c0-0.3,0.39-0.33,0.53-0.34V35.75z
			 M63.42,36.32h0.34v-1.05c0-0.32-0.04-0.62-0.57-0.62c-0.51,0-0.61,0.26-0.63,0.5h0.36c0.01-0.19,0.05-0.35,0.26-0.35
			c0.23,0,0.23,0.29,0.23,0.47v0.14c-0.22,0.01-0.91,0.03-0.91,0.53c0,0.23,0.19,0.41,0.44,0.41c0.26,0,0.4-0.17,0.46-0.26h0.01
			V36.32z"/>
		<path class="st0" d="M65.08,36.14c-0.05,0.02-0.11,0.03-0.16,0.03c-0.22,0-0.25-0.12-0.25-0.36v-0.93h0.44V34.7h-0.44v-0.59
			l-0.34,0.21v0.38h-0.26v0.18h0.26v1.07c0,0.31,0.19,0.41,0.51,0.41c0.08,0,0.17-0.01,0.24-0.02V36.14z"/>
		<path class="st0" d="M65.41,34.7h0.35v1.63h-0.35V34.7z M65.4,33.97h0.37v0.34H65.4V33.97z"/>
		<path class="st0" d="M66.51,35.51c0-0.3,0.04-0.71,0.34-0.71c0.31,0,0.34,0.41,0.34,0.71c0,0.3-0.04,0.71-0.34,0.71
			C66.54,36.22,66.51,35.81,66.51,35.51z M66.85,36.36c0.48,0,0.72-0.3,0.72-0.85c0-0.55-0.24-0.85-0.72-0.85
			c-0.48,0-0.72,0.3-0.72,0.85C66.13,36.06,66.37,36.36,66.85,36.36z"/>
		<path class="st0" d="M67.92,34.7h0.34v0.39h0.01c0.06-0.12,0.21-0.42,0.57-0.42c0.29,0,0.41,0.24,0.41,0.47v1.19h-0.34V35.3
			c0-0.21-0.03-0.39-0.21-0.39c-0.34,0-0.44,0.53-0.44,0.73v0.67h-0.34V34.7z"/>
		<path class="st0" d="M71.84,34.31c-0.09-0.05-0.33-0.16-0.58-0.16c-0.21,0-0.36,0.12-0.36,0.3c0,0.49,1.11,0.48,1.11,1.22
			c0,0.5-0.38,0.69-0.86,0.69c-0.27,0-0.53-0.06-0.6-0.09V35.9c0.11,0.06,0.38,0.21,0.66,0.21c0.25,0,0.42-0.1,0.42-0.34
			c0-0.54-1.11-0.5-1.11-1.24c0-0.38,0.28-0.6,0.77-0.6c0.22,0,0.45,0.04,0.54,0.06V34.31z"/>
		<path class="st0" d="M73.12,36.32h0.34v-1.05c0-0.32-0.04-0.62-0.57-0.62c-0.51,0-0.61,0.26-0.62,0.5h0.36
			c0.01-0.19,0.05-0.35,0.26-0.35c0.23,0,0.23,0.29,0.23,0.47v0.14c-0.21,0.01-0.91,0.03-0.91,0.53c0,0.23,0.19,0.41,0.44,0.41
			c0.26,0,0.4-0.17,0.46-0.26h0.01V36.32z M73.12,35.75c0,0.28-0.21,0.39-0.33,0.39c-0.11,0-0.2-0.1-0.2-0.24
			c0-0.3,0.39-0.33,0.53-0.34V35.75z"/>
		<path class="st0" d="M74.05,34.87h-0.28V34.7h0.28v-0.15c0-0.3,0.07-0.62,0.62-0.62c0.14,0,0.26,0.02,0.34,0.04v0.23
			c-0.07-0.03-0.16-0.07-0.3-0.07c-0.28,0-0.31,0.2-0.31,0.38v0.19h0.46v0.18h-0.46v1.45h-0.34V34.87z"/>
		<path class="st0" d="M76.27,36.11c-0.1,0.05-0.2,0.07-0.31,0.07c-0.49,0-0.63-0.53-0.63-0.85h0.97c0-0.32-0.1-0.67-0.63-0.67
			c-0.51,0-0.69,0.33-0.69,0.78c0,0.65,0.36,0.92,0.81,0.92c0.2,0,0.33-0.03,0.47-0.09V36.11z M75.34,35.17
			c0.01-0.09,0.06-0.36,0.32-0.36c0.26,0,0.3,0.24,0.3,0.36H75.34z"/>
		<path class="st0" d="M77.5,36.14c-0.05,0.02-0.11,0.03-0.16,0.03c-0.22,0-0.25-0.12-0.25-0.36v-0.93h0.44V34.7H77.1v-0.59
			l-0.34,0.21v0.38h-0.26v0.18h0.26v1.07c0,0.31,0.19,0.41,0.51,0.41c0.08,0,0.17-0.01,0.24-0.02V36.14z"/>
		<path class="st0" d="M77.96,37.05h0.28l0.84-2.36h-0.32l-0.38,1.16h-0.01l-0.43-1.16h-0.36l0.62,1.64L77.96,37.05z"/>
		<path class="st0" d="M80.94,34.3L80.94,34.3l0.34,1.09h-0.67L80.94,34.3z M79.99,36.32h0.33l0.21-0.7h0.81l0.22,0.7h0.39
			l-0.79-2.36h-0.39L79.99,36.32z"/>
		<path class="st0" d="M83.18,36.32h0.35V34.7h-0.34v0.67c0,0.2-0.09,0.73-0.44,0.73c-0.17,0-0.2-0.19-0.2-0.39V34.7H82.2v1.19
			c0,0.24,0.12,0.48,0.41,0.48c0.36,0,0.51-0.3,0.57-0.42h0.01V36.32z"/>
		<path class="st0" d="M84.86,36.14c-0.05,0.02-0.11,0.03-0.16,0.03c-0.22,0-0.25-0.12-0.25-0.36v-0.93h0.44V34.7h-0.44v-0.59
			l-0.34,0.21v0.38h-0.26v0.18h0.26v1.07c0,0.31,0.19,0.41,0.51,0.41c0.08,0,0.17-0.01,0.24-0.02V36.14z"/>
		<path class="st0" d="M85.17,33.97h0.35v1.11h0.01c0.05-0.12,0.21-0.42,0.57-0.42c0.29,0,0.41,0.24,0.41,0.47v1.19h-0.34V35.3
			c0-0.21-0.03-0.39-0.21-0.39c-0.34,0-0.44,0.53-0.44,0.73v0.67h-0.35V33.97z"/>
		<path class="st0" d="M87.23,35.51c0-0.3,0.04-0.71,0.34-0.71c0.31,0,0.35,0.41,0.35,0.71c0,0.3-0.04,0.71-0.35,0.71
			C87.26,36.22,87.23,35.81,87.23,35.51z M87.57,36.36c0.48,0,0.72-0.3,0.72-0.85c0-0.55-0.24-0.85-0.72-0.85
			c-0.48,0-0.72,0.3-0.72,0.85C86.85,36.06,87.09,36.36,87.57,36.36z"/>
		<path class="st0" d="M88.64,34.7h0.34v0.41H89c0.11-0.22,0.23-0.43,0.53-0.45v0.36c-0.33,0.01-0.53,0.12-0.53,0.56v0.74h-0.34
			V34.7z"/>
		<path class="st0" d="M89.82,34.31h0.37v-0.34h-0.37V34.31z M89.83,36.32h0.34V34.7h-0.34V36.32z"/>
		<path class="st0" d="M91.52,36.33c-0.07,0.02-0.16,0.02-0.24,0.02c-0.32,0-0.51-0.1-0.51-0.41v-1.07h-0.26V34.7h0.26v-0.38
			l0.35-0.21v0.59h0.44v0.18h-0.44v0.93c0,0.24,0.02,0.36,0.24,0.36c0.06,0,0.11-0.01,0.16-0.03V36.33z"/>
		<path class="st0" d="M92.21,36.34l-0.63-1.64h0.36l0.43,1.16h0.01l0.38-1.16h0.33l-0.84,2.36h-0.28L92.21,36.34z"/>
	</g>
	<linearGradient id="SVGID_1_" gradientUnits="userSpaceOnUse" x1="21.6938" y1="23.7659" x2="35.8483" y2="34.4854">
		<stop  offset="0" style="stop-color:#00AFEC"/>
		<stop  offset="0.1679" style="stop-color:#00ADEB"/>
		<stop  offset="0.3876" style="stop-color:#00A4E4"/>
		<stop  offset="0.6361" style="stop-color:#0096D9"/>
		<stop  offset="0.9038" style="stop-color:#0082C9"/>
		<stop  offset="1" style="stop-color:#0079C3"/>
	</linearGradient>
	<path class="st1" d="M31.63,32.56c1.07,0.43,0.8,1.73-0.47,1.73h-8.12c-0.24,0-0.43,0.22-0.43,0.49v1.04
		c0,0.27,0.19,0.49,0.43,0.49h9.47c2.21,0,3.95-1.08,3.95-3.29c0-1.47-0.65-2.66-2.24-3.38c-0.95-0.44-6.96-2.95-6.96-2.95
		c-1.08-0.43-0.81-1.73,0.46-1.73h8.13c0.23,0,0.43-0.22,0.43-0.49v-1.04c0-0.28-0.2-0.48-0.43-0.48h-9.48
		c-2.21,0-3.95,1.07-3.95,3.28c0,1.47,0.65,2.66,2.24,3.38C25.61,30.05,31.63,32.56,31.63,32.56z"/>
	<linearGradient id="SVGID_2_" gradientUnits="userSpaceOnUse" x1="8.2148" y1="20.5596" x2="18.6794" y2="31.2791">
		<stop  offset="5.618000e-03" style="stop-color:#FDD000"/>
		<stop  offset="1" style="stop-color:#F08300"/>
	</linearGradient>
	<path class="st2" d="M21.89,22.95H6.2c-0.23,0-0.43,0.21-0.43,0.48v1.05c0,0.27,0.2,0.48,0.43,0.48h5.65v10.89
		c0,0.27,0.2,0.49,0.44,0.49l0,0h3.51l0,0c0.24,0,0.43-0.23,0.43-0.49V24.97h5.66c0.23,0,0.43-0.22,0.43-0.48v-1.05
		C22.31,23.16,22.12,22.95,21.89,22.95z"/>
</g>
</svg>
