<?xml version="1.0" encoding="UTF-8"?>
<svg width="100px" height="60px" viewBox="0 0 100 60" version="1.1" xmlns="http://www.w3.org/2000/svg" xmlns:xlink="http://www.w3.org/1999/xlink">
    <!-- Generator: Sketch 55.2 (78181) - https://sketchapp.com -->
    <title>logo/vp</title>
    <desc>Created with Sketch.</desc>
    <defs>
        <radialGradient cx="23.3936993%" cy="16.9519466%" fx="23.3936993%" fy="16.9519466%" r="80.2938664%" gradientTransform="translate(0.233937,0.169519),scale(1.000000,0.905935),translate(-0.233937,-0.169519)" id="radialGradient-1">
            <stop stop-color="#A8A9A4" offset="0%"></stop>
            <stop stop-color="#6E6D61" offset="97.9294617%"></stop>
        </radialGradient>
        <radialGradient cx="24.8295859%" cy="19.3961535%" fx="24.8295859%" fy="19.3961535%" r="54.3602373%" gradientTransform="translate(0.248296,0.193962),scale(1.000000,0.781552),translate(-0.248296,-0.193962)" id="radialGradient-2">
            <stop stop-color="#F79548" offset="0%"></stop>
            <stop stop-color="#EF4130" offset="100%"></stop>
        </radialGradient>
    </defs>
    <g id="logo/vp" stroke="none" stroke-width="1" fill="none" fill-rule="evenodd">
        <g transform="translate(17.000000, 21.000000)">
            <path d="M28.9243862,11.7767172 L28.9243862,10.9896828 L36.3197009,10.9896828 L36.3197009,11.7767172 L28.9243862,11.7767172 Z M34.2950889,4.80264828 L35.3547546,4.80264828 L35.3547546,9.11532414 C35.3547546,9.25646897 35.2282551,9.38954483 35.0933141,9.38954483 L30.151642,9.38954483 C30.0173217,9.38954483 29.8905739,9.25646897 29.8905739,9.11532414 L29.8905739,4.80264828 L30.9501155,4.80264828 L30.9501155,6.40973793 L34.2950889,6.40973793 L34.2950889,4.80264828 Z M30.9502396,8.61057931 L34.2950889,8.61057931 L34.2950889,7.16176552 L30.9502396,7.16176552 L30.9502396,8.61057931 Z M39.2183633,4.76236552 C40.5235795,4.76236552 41.6131631,5.87141379 41.6131631,7.21731724 C41.6131631,8.55328966 40.5235795,9.65253103 39.2183633,9.65253103 C37.9128988,9.65253103 36.8317568,8.55328966 36.8317568,7.21731724 C36.8317568,5.87141379 37.9128988,4.76236552 39.2183633,4.76236552 Z M39.2183633,8.8839931 C39.9584906,8.8839931 40.5202277,8.18397931 40.5202277,7.21731724 C40.5202277,6.25065517 39.9584906,5.53152414 39.2183633,5.53152414 C38.4874224,5.53152414 37.9166231,6.25065517 37.9166231,7.21731724 C37.9166231,8.18397931 38.4874224,8.8839931 39.2183633,8.8839931 Z M42.6776952,4.29719586 L43.7455542,4.29719586 L43.7455542,11.5076234 C43.7455542,11.878051 43.7199812,12.2058993 43.6780216,12.4355545 L42.6776952,12.4355545 L42.6776952,4.29719586 Z M50.8027093,4.29715862 L51.8700718,4.29715862 L51.8700718,11.5075862 C51.8700718,11.8781379 51.8451195,12.2058621 51.8027875,12.4355172 L50.8027093,12.4355172 L50.8027093,9.74693793 C50.4593359,9.8613931 49.9630211,9.95834483 49.4166775,9.95834483 L45.182732,9.95834483 L45.182732,9.17205517 L45.9254663,9.17205517 L45.9254663,5.61537931 L45.182732,5.61537931 L45.182732,4.8276 L49.9371998,4.8276 L49.9371998,5.61537931 L49.1872653,5.61537931 L49.1872653,9.17205517 L49.5090382,9.17205517 C50.0046082,9.17205517 50.4593359,9.10998621 50.8027093,9.02966897 L50.8027093,4.29715862 Z M46.9504967,9.17205517 L48.1618625,9.17205517 L48.1618625,5.61550345 L46.9504967,5.61550345 L46.9504967,9.17205517 Z M55.0568525,12.2589931 C54.1994122,11.0733517 53.4931753,9.73812414 53.4931753,8.32233103 C53.4931753,6.89722759 54.1994122,5.57031724 55.0568525,4.38554483 L55.9975914,4.38554483 C55.1576549,5.69445517 54.5858624,6.95110345 54.5858624,8.32233103 C54.5858624,9.68486897 55.1576549,10.9494621 55.9975914,12.2589931 L55.0568525,12.2589931 Z M57.2427731,5.34945103 L57.2427731,4.56167172 L62.8733024,4.56167172 L62.8733024,5.34945103 L60.6290853,5.34945103 L60.6290853,5.58854069 C60.6290853,6.7209269 61.9912821,7.51752 63.2432419,7.60528552 L62.7897556,8.24298207 C61.9154321,8.20710621 60.6131953,7.6589131 60.0581619,6.94214069 C59.5038733,7.6589131 58.2006434,8.20710621 57.3265681,8.24298207 L56.8733301,7.60528552 C58.125414,7.51752 59.4866177,6.7209269 59.4866177,5.58854069 L59.4866177,5.34945103 L57.2427731,5.34945103 Z M60.5966846,9.72940966 L60.5966846,11.5955752 C60.5966846,11.9229269 60.5717323,12.2412166 60.537097,12.4354924 L59.5207564,12.4354924 L59.5207564,9.72940966 L56.3603804,9.72940966 L56.3603804,8.94125793 L63.7568123,8.94125793 L63.7568123,9.72940966 L60.5966846,9.72940966 Z M64.9559875,12.2589931 L64.0140072,12.2589931 C64.855061,10.9494621 65.4266052,9.68486897 65.4266052,8.32233103 C65.4266052,6.95110345 64.855061,5.69445517 64.0140072,4.38554483 L64.9559875,4.38554483 C65.8130554,5.57031724 66.5186716,6.89722759 66.5186716,8.32233103 C66.5186716,9.73812414 65.8130554,11.0733517 64.9559875,12.2589931 Z" id="Combined-Shape" fill="#4C4C4E"></path>
            <path d="M0,0.0589655172 C0.123641379,2.21002759 0.494813793,4.34495172 1.1457931,6.35710345 L1.1457931,6.35710345 C3.76646897,2.85678621 9.3924,2.15652414 12.8227034,2.07657931 L12.8227034,2.07657931 C12.9109655,1.40784828 12.9748966,0.7344 13.0137517,0.0589655172 L13.0137517,0.0589655172 L0,0.0589655172 Z M4.84448276,6.46473103 C1.67561379,11.0099172 6.18343448,14.0992138 6.68631724,14.4239586 L6.68631724,14.4239586 C10.1789379,11.4395586 12.0873103,7.08293793 12.7682069,2.46004138 L12.7682069,2.46004138 C10.2828414,2.7405931 6.80375172,3.6549931 4.84448276,6.46473103 L4.84448276,6.46473103 Z" id="Fill-11" fill="url(#radialGradient-1)"></path>
            <path d="M12.7682069,2.46004138 L12.7682069,18 L16.4909793,18 L16.4909793,12.8862621 L19.7051586,12.8862621 L19.7051586,12.8768276 C22.5821793,12.8768276 24.9134897,10.5445241 24.9134897,7.66750345 L24.9134897,7.66750345 C24.9134897,4.79147586 22.5821793,2.46004138 19.7051586,2.46004138 L19.7051586,2.46004138 L12.7682069,2.46004138 Z" id="Fill-14" fill="url(#radialGradient-2)"></path>
        </g>
    </g>
</svg>