<?xml version="1.0" encoding="UTF-8"?>
<svg width="100px" height="60px" viewBox="0 0 100 60" version="1.1" xmlns="http://www.w3.org/2000/svg" xmlns:xlink="http://www.w3.org/1999/xlink">
    <!-- Generator: Sketch 55.2 (78181) - https://sketchapp.com -->
    <title>logo/wadiz</title>
    <desc>Created with Sketch.</desc>
    <defs>
        <polygon id="path-1" points="0.0643399734 0.00214354067 10.4000842 0.00214354067 10.4000842 13.8660287 0.0643399734 13.8660287"></polygon>
        <polygon id="path-3" points="0.0311474274 0.0149578947 8.20460287 0.0149578947 8.20460287 8.49024976 0.0311474274 8.49024976"></polygon>
    </defs>
    <g id="logo/wadiz" stroke="none" stroke-width="1" fill="none" fill-rule="evenodd">
        <g transform="translate(23.000000, 23.000000)">
            <path d="M12.7786507,13.5739043 L11.7069474,13.5739043 L9.70220096,7.76363636 L9.64345455,7.76122488 L7.65116746,13.5698852 L6.51107177,13.5698852 L6.04947368,12.5513684 C6.04947368,12.5513684 2.56956938,4.75343541 2.18051675,3.84095694 C1.92309091,3.23721531 1.50396172,2.76838278 1.01791388,2.35146411 C0.730545455,2.10488995 0.122650718,1.53879426 0.122650718,1.53879426 L0,1.53879426 L7.69551196,1.53879426 L7.51954067,1.53879426 C7.51954067,1.53879426 6.97548325,2.12773206 6.71330144,2.3524689 C6.6047177,2.44557895 6.51884211,2.56675598 6.43001914,2.68089952 C6.30616268,2.84019139 6.26657416,3.01951196 6.32418182,3.21698565 C6.42687081,3.56912919 6.49894737,3.9335311 6.63526316,4.27207656 C7.28435407,5.88509091 8.61113876,9.0995311 8.61113876,9.0995311 L8.69125359,9.27590431 L11.2158086,1.92550239 L11.5045837,1.92550239 C11.5045837,1.92550239 13.2575981,6.60130144 14.1473014,8.97440191 C14.1980766,8.89549282 14.2373971,8.85000957 14.2597033,8.79742584 C14.9045742,7.27892823 15.5527943,5.76190431 16.1867464,4.23891866 C16.3140861,3.93286124 16.3840191,3.60315789 16.4840287,3.28544498 C16.5763349,2.99231579 16.4674163,2.75016268 16.2671292,2.55664115 C15.9549761,2.25507177 15.2970431,1.53879426 15.2970431,1.53879426 L15.1218756,1.53879426 L18.7504211,1.53879426 L18.5426986,1.53879426 C18.5426986,1.53879426 17.7302297,2.42595215 17.3892727,2.84327273 C17.154555,3.13050718 16.9604306,3.43924402 16.8189569,3.78334928 C15.4969952,6.99986603 12.8488517,13.4312919 12.8488517,13.4312919 L12.7786507,13.5739043 Z" id="Fill-1" fill="#55E3C3"></path>
            <g id="Group-5" transform="translate(27.598086, 0.064842)">
                <mask id="mask-2" fill="white">
                    <use xlink:href="#path-1"></use>
                </mask>
                <g id="Clip-4"></g>
                <path d="M6.38020861,12.2560287 C6.43339522,11.8636268 6.42013206,6.43336842 6.36774928,6.19342584 C5.30261053,5.54413397 3.82283062,6.0041244 3.2825244,7.12298565 C3.19075407,7.31315789 3.09590239,7.50667943 3.04104115,7.70904306 C2.78006507,8.67336842 2.73806507,9.6474067 3.01625646,10.6130718 C3.30221818,11.6055981 3.91634258,12.2674833 4.98402679,12.417799 C5.4651177,12.4855215 5.93696459,12.4585263 6.38020861,12.2560287 M6.39420861,5.60522488 L6.39420861,2.47933971 L5.21901244,1.52157895 L9.35792153,0.00207655502 C9.35792153,0.00207655502 9.37084976,8.41902392 9.37084976,11.2239809 C9.37084976,11.4994258 9.39918469,11.9588134 9.43750048,12.3239522 C9.48532823,12.7805263 9.66752919,12.9445072 10.1230316,12.9858373 C10.200266,12.9928038 10.2776344,12.9996364 10.3547349,13.0081435 C10.363711,13.0090813 10.3715483,13.0206029 10.4000842,13.043177 L10.4000842,13.449378 L7.06902201,13.8543732 C7.06902201,13.8543732 6.72263923,13.0346029 6.53976842,12.6017416 C6.44270622,12.6612919 6.35964402,12.7087847 6.28013206,12.7615694 C5.90856268,13.0084785 5.53290718,13.2496938 5.16870622,13.5071866 C4.92655311,13.6784019 4.67173971,13.7930144 4.37412249,13.8242967 C3.70259139,13.8950335 3.03648612,13.8951005 2.39067751,13.6706316 C1.2674622,13.2802392 0.574562679,12.4721914 0.274266029,11.3480383 C-0.0695043062,10.061244 0.00116555024,8.7770622 0.543816268,7.55350239 C1.05706029,6.39625837 1.89739522,5.55913876 3.15880191,5.25053589 C4.13712727,5.01119617 5.10661053,5.1002201 6.0409933,5.49369378 C6.13329952,5.53261244 6.22426603,5.57474641 6.31637129,5.61413397 C6.32494545,5.61781818 6.33753876,5.61219139 6.39420861,5.60522488" id="Fill-3" fill="#55E3C3" mask="url(#mask-2)"></path>
            </g>
            <path d="M22.3500086,8.83669952 C22.3020469,8.83669952 22.2685541,8.82919713 22.2398842,8.83783828 C21.6894632,9.00416364 21.1794344,9.25113971 20.7387359,9.62424976 C20.2789464,10.0135033 19.9063722,10.4606995 19.7889464,11.0787761 C19.6731952,11.6880775 19.9817981,12.2673024 20.5590134,12.4720105 C20.8021043,12.5581541 21.0519608,12.5853502 21.3153483,12.5426804 C21.6980373,12.4807856 22.0351091,12.3257139 22.3500086,12.1329962 L22.3500086,8.83669952 Z M22.3439129,8.37068038 C22.3439129,7.95979043 22.3569751,7.55928325 22.3393579,7.16011579 C22.3271665,6.88346507 22.2979608,6.60212536 22.2288986,6.33512057 C22.1745062,6.12458469 22.0714823,5.91652727 21.9478268,5.7362689 C21.7568507,5.45794354 21.4714919,5.2985177 21.1326785,5.26703445 C20.7099321,5.22771388 20.2916067,5.23957033 19.8853388,5.4856756 C19.996066,5.55935981 20.0877694,5.61348421 20.1719033,5.67752249 C20.7042383,6.08211579 20.8818172,6.81929282 20.5940469,7.42022105 C20.3028603,8.02831675 19.6172622,8.3547378 18.9746019,8.19109187 C18.3149273,8.02315885 17.8594249,7.43241244 17.88709,6.76362775 C17.9073196,6.27349378 18.1320565,5.89033589 18.5373866,5.61569474 C19.0543148,5.26549378 19.6307933,5.05649856 20.2415684,4.96044115 C21.3862861,4.78045072 22.511645,4.8850823 23.6007646,5.28384785 C24.177645,5.4949866 24.6744775,5.82596268 24.9984871,6.37243158 C25.2496163,6.79618278 25.3556545,7.2632067 25.376889,7.74456555 C25.4030134,8.335111 25.3951091,8.92726411 25.3979225,9.51868038 C25.4007359,10.099044 25.3926306,10.6795416 25.4008029,11.2598383 C25.4055589,11.5938287 25.4248507,11.9281541 25.4525158,12.2611397 C25.4857407,12.6601732 25.675444,12.7955512 26.0606115,12.6998287 C26.2104584,12.6625847 26.3536067,12.5980775 26.5213388,12.5383933 C26.5589177,12.6011589 26.6008507,12.6620488 26.6331378,12.7278287 C26.6668986,12.796422 26.6912813,12.8697043 26.7227646,12.9483455 C25.8137024,13.6900775 24.8098555,14.0402115 23.640956,13.8026134 C23.1706498,13.7070249 22.8370612,13.4376086 22.6192909,13.0151971 C22.5643627,12.9087569 22.5043435,12.8049292 22.4344775,12.6776565 C22.3287742,12.7538191 22.2399512,12.8155129 22.1535397,12.880355 C21.9036833,13.0679148 21.6453196,13.2455608 21.4082574,13.4481254 C21.1708603,13.6508909 20.9094153,13.7612163 20.6004775,13.8084411 C20.0251378,13.8964603 19.454755,13.9730919 18.8733196,13.8590823 C17.6245732,13.6141158 17.10309,12.6231301 17.2365923,11.5233598 C17.3287646,10.7635416 17.7537885,10.2081636 18.344334,9.76177129 C18.9209464,9.32589569 19.5737885,9.04194354 20.2599225,8.83087177 C20.8893866,8.63721627 21.5319799,8.50116842 22.184956,8.41395311 C22.2384105,8.40685263 22.2899895,8.38575215 22.3439129,8.37068038 L22.3439129,8.37068038 Z" id="Fill-6" fill="#55E3C3"></path>
            <g id="Group-10" transform="translate(45.617225, 5.155751)">
                <mask id="mask-4" fill="white">
                    <use xlink:href="#path-3"></use>
                </mask>
                <g id="Clip-9"></g>
                <path d="M4.56099904,0.462890909 C4.56099904,0.462890909 3.39712344,0.435225837 2.84335311,0.4718 C2.41598469,0.500067943 2.03208995,0.707254545 1.67264498,0.937082297 C1.34387943,1.14728325 0.397238278,1.5903933 0.397238278,1.5903933 L0.397238278,1.77775215 L0.397238278,0.0149578947 L7.95951579,0.0149578947 C7.95951579,0.0149578947 7.99769761,0.415532057 7.88576459,0.605704306 C7.33688421,1.53794354 6.79061627,2.47179043 6.24381244,3.40523541 C5.38123828,4.8775799 4.51893206,6.35012536 3.65702775,7.82280478 C3.64061627,7.85087177 3.63030048,7.88268995 3.60719043,7.9356756 C3.67511388,7.95081435 3.73359234,7.97513014 3.79207081,7.97513014 C4.27195598,7.97526411 4.75210909,7.98075694 5.23159234,7.9655512 C5.9369512,7.943111 6.59327656,7.74918756 7.18462584,7.35584785 C7.46321914,7.17056555 8.20461627,6.67721627 8.20461627,6.67721627 L8.20461627,8.47812536 L0.0311474274,8.49024976 C0.0311474274,8.49024976 0.026338756,7.89575215 0.193869856,7.62305359 C1.40818565,5.64630718 2.61218565,3.66319713 3.81940096,1.68202967 C4.05699904,1.29210622 4.56099904,0.462890909 4.56099904,0.462890909" id="Fill-8" fill="#55E3C3" mask="url(#mask-4)"></path>
            </g>
            <path d="M44.0588507,13.0686986 L44.0588507,13.5319713 L44.0264967,13.5603062 L43.9991665,13.5763828 L39.4152048,13.5862967 L39.269578,13.5675407 L39.269578,13.1563828 C39.3754823,13.1401722 39.4730804,13.1283158 39.5695397,13.1101627 C39.9450612,13.0396938 40.1229081,12.8830813 40.1825923,12.5056172 C40.2397311,12.1436938 40.2863531,11.7760096 40.2897024,11.4104019 C40.3020947,10.0718947 40.2897024,7.19961722 40.2897024,7.19961722 L39.078267,6.24935885 L43.0422096,4.80374163 C43.0422096,4.80374163 43.0402,9.25935885 43.0478364,11.3007464 C43.0492431,11.6670909 43.0795206,12.0358469 43.1304297,12.3987081 C43.1950038,12.8586986 43.3642766,12.9979617 43.8353866,13.0488038 C43.9000278,13.0558373 43.9649368,13.0604593 44.0588507,13.0686986" id="Fill-11" fill="#55E3C3"></path>
            <path d="M43.3432699,2.10833971 C43.3945139,2.87800478 42.712801,3.76770813 41.6557005,3.75277033 C40.9303799,3.74252153 40.019911,3.22217703 40.0177646,2.08563158 C40.0158919,1.0112488 40.9332603,0.415344498 41.6979684,0.418081458 C42.6387818,0.421373206 43.4069062,1.25005263 43.3432699,2.10833971" id="Fill-13" fill="#55E3C3"></path>
        </g>
    </g>
</svg>