<?xml version="1.0" encoding="UTF-8"?>
<svg width="100px" height="60px" viewBox="0 0 100 60" version="1.1" xmlns="http://www.w3.org/2000/svg" xmlns:xlink="http://www.w3.org/1999/xlink">
    <!-- Generator: Sketch 55.2 (78181) - https://sketchapp.com -->
    <title>logo/yeogistudy</title>
    <desc>Created with Sketch.</desc>
    <g id="logo/yeogistudy" stroke="none" stroke-width="1" fill="none" fill-rule="evenodd">
        <g transform="translate(14.000000, 21.000000)">
            <path d="M5.95959677,8.08591935 C5.95959677,8.08591935 14.1734032,-0.449564516 16.8040161,0.676306452 C17.9923065,1.1861129 12.1335968,6.20666129 12.1873065,7.97879032 C12.2410161,9.74830645 14.441371,9.21295161 14.441371,11.1450484 C14.441371,13.0785968 11.4345,16.2460161 9.87779032,16.9979516 C8.32108065,17.7487258 6.12043548,18.3392419 5.95959677,17.1585 C5.7978871,15.9774677 8.53591935,14.9587258 8.48220968,13.0245968 C8.4285,11.0919194 3.16901613,11.199629 5.95959677,8.08591935" id="Fill-1" fill="#0098C8"></path>
            <path d="M5.27376774,3.19636452 C5.27376774,3.19636452 7.66370323,4.80852581 6.41328387,6.25462258 C4.43909032,8.53510645 2.84463871,5.45536452 1.18021935,3.03988065 C-0.483909677,0.624106452 -1.32932903,-1.04379677 5.27376774,3.19636452" id="Fill-3" fill="#00AADA"></path>
            <path d="M8.54442581,3.09344516 C9.0638129,3.09344516 10.4466194,2.08776774 10.4146839,1.13754194 C10.3746194,-0.0469741935 8.57607097,0.000348387097 8.57607097,0.000348387097 C7.13839355,0.000348387097 6.07203871,0.660832258 6.8498129,1.73821935 C7.67810323,2.88615484 8.06771613,3.09344516 8.54442581,3.09344516" id="Fill-6" fill="#00B7EB"></path>
            <path d="M21.6687484,9.9278129 C21.8446839,10.3659097 21.9628452,10.7723613 22.0188774,11.1468774 L22.040071,11.1468774 C22.0824581,10.8995226 22.1350065,10.682071 22.1994581,10.4951032 C22.2618774,10.3087161 22.3501355,10.0726839 22.4645226,9.78990968 C22.4921032,9.72603871 22.5132968,9.67755484 22.5272323,9.64155484 L23.2364903,7.84039355 L24.8599742,7.84039355 L22.7612323,12.408329 L22.7612323,15.7888452 L21.2756516,15.7888452 L21.2756516,12.408329 L19.2100065,7.84039355 L20.8317484,7.84039355 L21.6687484,9.9278129 Z" id="Fill-8" fill="#6C6E70"></path>
            <polygon id="Fill-10" fill="#6C6E70" points="25.1242839 15.7889613 25.1242839 7.84050968 29.3002839 7.84050968 29.3002839 9.00557419 26.6072516 9.00557419 26.6072516 11.0088 29.0871871 11.0088 29.0871871 12.1750258 26.6072516 12.1750258 26.6072516 14.6233161 29.3002839 14.6233161 29.3002839 15.7889613"></polygon>
            <path d="M31.3877613,13.0541516 C31.3877613,13.2739258 31.3973419,13.474829 31.4191161,13.6583129 C31.439729,13.8426677 31.4861806,14.0212161 31.5561484,14.1939581 C31.6281484,14.3669903 31.7364387,14.5080871 31.880729,14.6181194 C32.0250194,14.7278613 32.2172129,14.7827323 32.4578903,14.7827323 C32.7052452,14.7827323 32.9055677,14.7255387 33.0568258,14.6123129 C33.2083742,14.5002484 33.3157935,14.3527645 33.3799548,14.1724742 C33.4426645,13.9918935 33.4841806,13.8066677 33.500729,13.6159258 C33.5193097,13.4254742 33.5288903,13.195829 33.5288903,12.9272806 L33.5288903,10.8921194 C33.5288903,10.6171839 33.5193097,10.3730226 33.500729,10.1613774 C33.4841806,9.94915161 33.4415032,9.74215161 33.3738581,9.54124839 C33.3076645,9.34005484 33.1999548,9.17399032 33.0510194,9.04305484 C32.9029548,8.9127 32.7052452,8.84679677 32.4578903,8.84679677 C32.2172129,8.84679677 32.0250194,8.90253871 31.880729,9.01111935 C31.7364387,9.12115161 31.6281484,9.26863548 31.5561484,9.45647419 C31.4861806,9.64402258 31.439729,9.84899032 31.4191161,10.0719581 C31.3973419,10.2934742 31.3877613,10.5538935 31.3877613,10.8497323 L31.3877613,13.0541516 Z M29.8609548,11.1783774 C29.8836,10.5640548 29.920471,10.0603452 29.9776645,9.6687 C30.0339871,9.27589355 30.145471,8.92663548 30.3106645,8.61860323 C30.4778903,8.31202258 30.7339548,8.0730871 31.0800194,7.90353871 C31.4266645,7.73428065 31.8850839,7.64979677 32.4578903,7.64979677 C33.0301161,7.64979677 33.4899871,7.73428065 33.835471,7.90353871 C34.1824065,8.0730871 34.4376,8.31202258 34.6045355,8.61860323 C34.7703097,8.92663548 34.8812129,9.27589355 34.9378258,9.6687 C34.994729,10.0603452 35.0336323,10.5640548 35.0545355,11.1783774 L35.0545355,12.3117968 C35.0545355,12.9409258 35.0298581,13.4626355 34.9810839,13.8757645 C34.9302774,14.2886032 34.8208258,14.6552806 34.6509871,14.9726032 C34.4831806,15.2902161 34.220729,15.5381516 33.8674065,15.7146677 C33.5137935,15.8908935 33.0446323,15.9794419 32.4578903,15.9794419 C31.8714387,15.9794419 31.4014065,15.8908935 31.0477935,15.7146677 C30.6953419,15.5381516 30.4337613,15.2902161 30.2639226,14.9726032 C30.0949548,14.6552806 29.9852129,14.2886032 29.9352774,13.8757645 C29.8847613,13.4626355 29.8609548,12.9409258 29.8609548,12.3117968 L29.8609548,11.1783774 Z" id="Fill-12" fill="#6C6E70"></path>
            <path d="M35.7431806,11.1784065 C35.7632129,10.5640839 35.8032774,10.0603742 35.860471,9.66872903 C35.9167935,9.27592258 36.0274065,8.92666452 36.1940516,8.61863226 C36.3598258,8.31176129 36.6161806,8.07311613 36.9613742,7.90356774 C37.3080194,7.73430968 37.768471,7.64982581 38.3395355,7.64982581 C39.0319548,7.65708387 39.5806645,7.7822129 39.9830516,8.02608387 C40.3854387,8.26908387 40.6682129,8.71618065 40.8307935,9.3662129 C40.8723097,9.53547097 40.8966968,9.79472903 40.9048258,10.1399226 L40.9048258,10.3300839 L39.4206968,10.3300839 C39.4140194,10.0836 39.4000839,9.88008387 39.3780194,9.72069677 C39.3568258,9.56276129 39.3115355,9.41818065 39.2404065,9.28695484 C39.1701484,9.1566 39.0621484,9.05237419 38.9172774,8.97485806 C38.7732774,8.89676129 38.5805032,8.85437419 38.3395355,8.84682581 C38.1000194,8.84682581 37.9078258,8.90256774 37.7632452,9.01114839 C37.6180839,9.12118065 37.5097935,9.26866452 37.4392452,9.45650323 C37.3686968,9.64405161 37.3228258,9.84901935 37.3019226,10.0716968 C37.2795677,10.2935032 37.2694065,10.5539226 37.2694065,10.8497613 L37.2694065,13.0541806 C37.2694065,13.2739548 37.2795677,13.4748581 37.3019226,13.6583419 C37.3228258,13.8426968 37.3686968,14.0212452 37.4392452,14.1939871 C37.5097935,14.3670194 37.6180839,14.5081161 37.7632452,14.6181484 C37.9078258,14.7278903 38.1000194,14.7827613 38.3395355,14.7827613 C38.7288581,14.7827613 39.0081484,14.6021806 39.1759548,14.2418903 C39.3466645,13.8813097 39.4314387,13.3619226 39.4314387,12.6834387 L38.4042774,12.6834387 L38.4042774,11.5180839 L40.8723097,11.5180839 L40.8723097,15.7890194 L39.7603742,15.7890194 L39.7603742,14.8774065 L39.7388903,14.8774065 C39.6047613,15.2588903 39.4160516,15.5320839 39.1721806,15.698729 C38.9274387,15.8645032 38.650471,15.9582774 38.3395355,15.979471 C37.7533742,15.979471 37.2839226,15.8906323 36.9306,15.7146968 C36.5769871,15.5381806 36.3151161,15.2902452 36.1461484,14.9726323 C35.977471,14.6553097 35.8668581,14.2886323 35.8183742,13.8757935 C35.7681484,13.4626645 35.7431806,12.9409548 35.7431806,12.3118258 L35.7431806,11.1784065 Z" id="Fill-14" fill="#6C6E70"></path>
            <polygon id="Fill-16" fill="#6C6E70" points="41.8366452 15.7889032 43.3193226 15.7889032 43.3193226 7.84045161 41.8366452 7.84045161"></polygon>
            <path d="M47.273429,10.2566903 C47.273429,9.79798065 47.2159452,9.44814194 47.1044613,9.20746452 C46.9918161,8.96765806 46.7578161,8.84688387 46.4042032,8.84688387 C46.1423323,8.84688387 45.9423,8.90581935 45.8003323,9.02194839 C45.6598161,9.13865806 45.5881065,9.32736774 45.5881065,9.58894839 C45.5881065,9.85749677 45.6540097,10.0636258 45.7840742,10.2087871 C45.9150097,10.3542387 46.1254935,10.5214645 46.4143645,10.7124968 L46.4358484,10.7223677 C46.6135258,10.8358839 46.7763968,10.9430129 46.9230097,11.0405613 C47.0719452,11.1395613 47.2249452,11.2440774 47.3808484,11.3538194 C47.5347194,11.4629806 47.6912032,11.578529 47.8508806,11.6984323 C48.011429,11.8174645 48.1388806,11.9277871 48.2387516,12.0264968 C48.4855258,12.2668839 48.6585581,12.516271 48.7575581,12.7740774 C48.8559774,13.0318839 48.9059129,13.3373032 48.9059129,13.6909161 C48.9059129,14.4251419 48.6838161,14.9909806 48.2387516,15.3864 C47.7925258,15.781529 47.1996871,15.979529 46.4579129,15.979529 C46.0262032,15.979529 45.6560419,15.9217548 45.3451065,15.8047548 C45.0330097,15.6880452 44.782171,15.5243032 44.5920097,15.3120774 C44.4021387,15.1001419 44.2627839,14.847271 44.1730742,14.5546258 C44.0856871,14.260529 44.0412677,13.9304323 44.0412677,13.5625935 L44.0412677,12.9804968 L45.5248161,12.9804968 L45.5248161,13.4461742 C45.5248161,13.8848516 45.5965258,14.217271 45.7419774,14.4431419 C45.8877194,14.6693032 46.1254935,14.7828194 46.4579129,14.7828194 C47.0719452,14.7828194 47.3808484,14.4710129 47.3808484,13.8494323 C47.3808484,13.6235613 47.3294613,13.4255613 47.2313323,13.2560129 C47.1317516,13.0864645 46.9831065,12.9349161 46.7868484,12.8002065 C46.616429,12.6660774 46.3478806,12.478529 45.9806226,12.2384323 C45.5979774,11.9916581 45.2943,11.7756581 45.0640742,11.5921742 C44.8341387,11.4081097 44.6283,11.1996581 44.4448161,10.9671097 C44.1890419,10.5917226 44.0615903,10.1855613 44.0615903,9.74746452 C44.0615903,9.06288387 44.2572677,8.54175484 44.6445581,8.18494839 C45.0330097,7.82785161 45.6156871,7.64988387 46.3946226,7.64988387 C46.931429,7.64988387 47.3593645,7.73581935 47.6813323,7.90914194 C48.0021387,8.08246452 48.2355581,8.29991613 48.3815903,8.56120645 C48.5258806,8.82220645 48.6153,9.08088387 48.6513,9.33462581 C48.6870097,9.58894839 48.7055903,9.86823871 48.7055903,10.1724968 L48.7055903,10.2566903 L47.273429,10.2566903 Z" id="Fill-18" fill="#6C6E70"></path>
            <polygon id="Fill-19" fill="#6C6E70" points="49.0641387 7.84039355 54.014429 7.84039355 54.014429 9.00574839 52.2867194 9.00574839 52.2867194 15.7888452 50.8020097 15.7888452 50.8020097 9.00574839 49.0641387 9.00574839"></polygon>
            <path d="M57.9359903,7.84039355 L59.4192484,7.84039355 L59.4192484,13.3829419 C59.4192484,14.2939742 59.2348935,14.955329 58.8679258,15.3649742 C58.5003774,15.7749097 57.8471516,15.9795871 56.9067968,15.9795871 C55.9615065,15.9795871 55.3027645,15.7749097 54.930571,15.3649742 C54.5604097,14.955329 54.3743129,14.2939742 54.3743129,13.3829419 L54.3743129,7.84039355 L55.857571,7.84039355 L55.857571,13.256071 C55.857571,13.4894903 55.8686032,13.6909742 55.8897968,13.8599419 C55.911571,14.0294903 55.9554097,14.183071 56.0230548,14.3209742 C56.0892484,14.4591677 56.1960871,14.5697806 56.3403774,14.6551355 C56.485829,14.739329 56.6774419,14.7828774 56.9184097,14.7828774 C57.1521194,14.7828774 57.3364742,14.739329 57.4746677,14.6551355 C57.6128613,14.5697806 57.7150548,14.4591677 57.7824097,14.3209742 C57.8480226,14.183071 57.8924419,14.0294903 57.9098613,13.8599419 C57.9264097,13.6909742 57.9359903,13.4894903 57.9359903,13.256071 L57.9359903,7.84039355 Z" id="Fill-20" fill="#6C6E70"></path>
            <path d="M62.4929516,14.6234323 C62.8242097,14.6234323 63.0849194,14.5737871 63.2718871,14.4739161 C63.4579839,14.3754968 63.5990806,14.217271 63.6908226,13.9977871 C63.7814032,13.7783032 63.8400484,13.4914645 63.8650161,13.1337871 C63.8896935,12.777271 63.9021774,12.2741419 63.9021774,11.6238194 C63.9021774,10.6483355 63.8290161,9.96898065 63.6844355,9.58372258 C63.5392742,9.19875484 63.2521452,9.00569032 62.8213065,9.00569032 L61.8458226,9.00569032 L61.8458226,14.6234323 L62.4929516,14.6234323 Z M60.3616935,15.7890774 L60.3616935,7.84033548 L63.4576935,7.84033548 C63.5636613,7.84033548 63.6795,7.85252903 63.8057903,7.8777871 C63.9341129,7.90217419 64.0612742,7.9460129 64.1890161,8.00959355 C64.5196935,8.16549677 64.7882419,8.40907742 64.9937903,8.74091613 C65.156371,9.00249677 65.2687258,9.34972258 65.3334677,9.78462581 C65.3964677,10.2201097 65.4278226,10.7868194 65.4278226,11.4859161 C65.4278226,12.0157548 65.4196935,12.460529 65.4025645,12.8208194 C65.3842742,13.1825613 65.3375323,13.5431419 65.2652419,13.9077871 C65.1891774,14.271271 65.0678226,14.5984645 64.8985645,14.8876258 C64.7287258,15.1773677 64.499371,15.4073032 64.2107903,15.5765613 C64.0612742,15.6619161 63.8986935,15.7182387 63.7218871,15.7461097 C63.5456613,15.7748516 63.3406935,15.7890774 63.1072742,15.7890774 L60.3616935,15.7890774 Z" id="Fill-21" fill="#6C6E70"></path>
            <path d="M68.1310161,9.9278129 C68.3072419,10.3659097 68.4230806,10.7723613 68.4808548,11.1468774 L68.5014677,11.1468774 C68.5438548,10.8995226 68.5972742,10.682071 68.6599839,10.4951032 C68.7241452,10.3087161 68.8124032,10.0726839 68.9253387,9.78990968 C68.952629,9.72603871 68.9741129,9.67755484 68.9889194,9.64155484 L69.6993387,7.84039355 L71.3205,7.84039355 L69.2229194,12.408329 L69.2229194,15.7888452 L67.7385,15.7888452 L67.7385,12.408329 L65.6719839,7.84039355 L67.2931452,7.84039355 L68.1310161,9.9278129 Z" id="Fill-22" fill="#6C6E70"></path>
            <path d="M22.0274129,2.27578065 L21.3889935,2.27578065 C21.4043806,2.34284516 21.4154129,2.41368387 21.4215097,2.48626452 C21.4276065,2.55826452 21.4308,2.63316774 21.4308,2.71068387 C21.4308,2.78094194 21.4276065,2.85003871 21.4215097,2.91652258 C21.4154129,2.98271613 21.4075742,3.04803871 21.3982839,3.11307097 L22.0274129,3.11307097 L22.0274129,2.27578065 Z M19.7884452,2.70574839 C19.7884452,2.84132903 19.8006387,2.97284516 19.8250258,3.10145806 C19.8499935,3.2292 19.8854129,3.34242581 19.9315742,3.44113548 C19.9780258,3.54013548 20.0340581,3.6188129 20.1005419,3.67716774 C20.1667355,3.7358129 20.2416387,3.76542581 20.3252516,3.76542581 C20.4082839,3.76542581 20.4828968,3.7358129 20.5493806,3.67716774 C20.6155742,3.6188129 20.6701548,3.5415871 20.7137032,3.44578065 C20.7601548,3.34707097 20.7947032,3.23384516 20.8176387,3.10610323 C20.8402839,2.97749032 20.8524774,2.84452258 20.8524774,2.70574839 C20.8524774,2.57278065 20.8402839,2.44445806 20.8176387,2.31932903 C20.7947032,2.19449032 20.7601548,2.08271613 20.7137032,1.98400645 C20.6701548,1.88529677 20.6155742,1.80603871 20.5493806,1.74565161 C20.4828968,1.68584516 20.4082839,1.65536129 20.3252516,1.65536129 C20.2416387,1.65536129 20.1667355,1.68584516 20.1005419,1.74565161 C20.0340581,1.80603871 19.9780258,1.88529677 19.9315742,1.98400645 C19.8854129,2.08271613 19.8499935,2.19536129 19.8250258,2.32136129 C19.8006387,2.44852258 19.7884452,2.57597419 19.7884452,2.70574839 L19.7884452,2.70574839 Z M22.0274129,3.62607097 L21.2551548,3.62607097 C21.1625419,3.83945806 21.0365419,4.00523226 20.8780258,4.12368387 C20.718929,4.24271613 20.5334129,4.30165161 20.3203161,4.30165161 C20.1510581,4.30165161 19.9977677,4.2642 19.8621871,4.18871613 C19.7263161,4.11265161 19.6096065,4.00407097 19.5106065,3.86210323 C19.4150903,3.72361935 19.3410581,3.55610323 19.2888,3.36042581 C19.2362516,3.16474839 19.2101226,2.94816774 19.2101226,2.71068387 C19.2101226,2.4732 19.2362516,2.25661935 19.2888,2.06036129 C19.3410581,1.86439355 19.4150903,1.69745806 19.5106065,1.55839355 C19.6096065,1.41961935 19.7263161,1.31161935 19.8621871,1.23468387 C19.9977677,1.15745806 20.1510581,1.11913548 20.3203161,1.11913548 C20.5270258,1.11913548 20.7081871,1.17574839 20.8640903,1.28984516 C21.0194129,1.40394194 21.143671,1.5615871 21.2359935,1.76190968 L22.0274129,1.76190968 L22.0274129,1.61384516 C22.0274129,1.51194194 22.0259613,1.40974839 22.0227677,1.30610323 C22.0198645,1.20332903 22.0134774,1.0988129 22.0041871,0.994296774 L22.619671,0.994296774 C22.610671,1.0988129 22.6051548,1.20332903 22.6034129,1.30610323 C22.6019613,1.40974839 22.6013806,1.51194194 22.6013806,1.61384516 L22.6013806,4.5098129 C22.6013806,4.61461935 22.6019613,4.71913548 22.6034129,4.8222 C22.6051548,4.92526452 22.610671,5.02803871 22.619671,5.12994194 L22.0041871,5.12994194 C22.0134774,5.02803871 22.0198645,4.92526452 22.0227677,4.8222 C22.0259613,4.71913548 22.0274129,4.61461935 22.0274129,4.5098129 L22.0274129,3.62607097 Z" id="Fill-23" fill="#85878A"></path>
            <path d="M26.6768129,4.5099 C26.6768129,4.61441613 26.6773935,4.71922258 26.6788452,4.8222871 C26.6808774,4.92535161 26.6861032,5.02812581 26.6953935,5.13002903 L26.0752645,5.13002903 C26.0845548,5.02812581 26.0906516,4.92535161 26.0938452,4.8222871 C26.0970387,4.71922258 26.0984903,4.61441613 26.0984903,4.5099 L26.0984903,1.61364194 C26.0984903,1.51202903 26.0970387,1.40954516 26.0938452,1.30619032 C26.0906516,1.20312581 26.0845548,1.0989 26.0752645,0.994383871 L26.6953935,0.994383871 C26.6861032,1.0989 26.6808774,1.20312581 26.6788452,1.30619032 C26.6773935,1.40954516 26.6768129,1.51202903 26.6768129,1.61364194 L26.6768129,4.5099 Z M23.8272968,1.74806129 C23.750071,1.74806129 23.6795226,1.74864194 23.6159419,1.75038387 C23.5532323,1.75183548 23.4850065,1.75735161 23.4106839,1.76664194 L23.4106839,1.22548065 C23.4850065,1.23477097 23.5532323,1.23999677 23.6159419,1.24202903 C23.6795226,1.24348065 23.750071,1.24348065 23.8272968,1.24348065 L25.4275548,1.24348065 C25.4307484,1.5399 25.4011355,1.8305129 25.3401677,2.1159 C25.278329,2.40099677 25.1828129,2.67506129 25.0524581,2.93693226 C24.9081677,3.23044839 24.7209097,3.50306129 24.4909742,3.75593226 C24.2610387,4.0085129 23.9892968,4.22799677 23.6742968,4.41293226 C23.6496194,4.38825484 23.6173935,4.35864194 23.577329,4.32467419 C23.5372645,4.29070645 23.4957484,4.25557742 23.4524903,4.21841613 C23.406329,4.18473871 23.3607484,4.15077097 23.3157484,4.11680323 C23.2716194,4.08254516 23.2318452,4.05409355 23.1984581,4.02883548 C23.4658452,3.88977097 23.7030387,3.72835161 23.9077161,3.54341613 C24.1129742,3.3579 24.2839742,3.15612581 24.4192645,2.93693226 C24.5304581,2.75838387 24.6158129,2.5685129 24.6762,2.3679 C24.7360065,2.16757742 24.7711355,1.96086774 24.7804258,1.74806129 L23.8272968,1.74806129 Z" id="Fill-24" fill="#85878A"></path>
            <path d="M29.3790484,1.49809355 C29.3790484,1.6865129 29.4202742,1.8639 29.5012742,2.03054516 C29.5825645,2.1969 29.6928871,2.34786774 29.8322419,2.48402903 C29.9707258,2.61931935 30.128371,2.73544839 30.3063387,2.83299677 C30.4837258,2.93054516 30.6677903,3.0005129 30.8591129,3.04319032 C30.7882742,3.11460968 30.7191774,3.18922258 30.6535645,3.2679 C30.5867903,3.34657742 30.5304677,3.41364194 30.4840161,3.46909355 C30.3548226,3.42902903 30.2221452,3.37415806 30.0868548,3.30506129 C29.9506935,3.23509355 29.8197581,3.15322258 29.6928871,3.05741613 C29.5668871,2.96480323 29.4478548,2.86144839 29.3372419,2.74764194 C29.2263387,2.63325484 29.1331452,2.51160968 29.0594032,2.38183548 C28.9174355,2.64719032 28.7168226,2.87219032 28.4558226,3.05741613 C28.1956935,3.24235161 27.9242419,3.38112581 27.6440806,3.47373871 C27.5979194,3.41770645 27.5407258,3.35209355 27.4725,3.27486774 C27.4051452,3.19764194 27.3308226,3.1175129 27.2509839,3.03419032 C27.4542097,2.97902903 27.6464032,2.90412581 27.8264032,2.80977097 C28.0066935,2.71570645 28.1649194,2.60248065 28.3007903,2.47009355 C28.4360806,2.34031935 28.5437903,2.19370645 28.6227581,2.03054516 C28.7002742,1.86709355 28.7403387,1.68912581 28.7403387,1.49809355 C28.7403387,1.43973871 28.7388871,1.37673871 28.7351129,1.3085129 C28.7319194,1.24086774 28.7284355,1.17583548 28.7214677,1.1142871 L29.3970484,1.1142871 C29.3874677,1.17322258 29.3825323,1.23796452 29.3810806,1.3085129 C29.3793387,1.37964194 29.3790484,1.44264194 29.3790484,1.49809355 M30.2897903,4.66725484 L27.8380161,4.66725484 C27.7181129,4.66725484 27.5999516,4.66841613 27.4844032,4.67015806 C27.3682742,4.67160968 27.2509839,4.67654516 27.1299194,4.68554516 L27.1299194,4.14002903 C27.2509839,4.14931935 27.3682742,4.15454516 27.4844032,4.15599677 C27.5999516,4.15773871 27.7181129,4.15831935 27.8380161,4.15831935 L30.2897903,4.15831935 C30.4105645,4.15831935 30.5281452,4.15773871 30.6439839,4.15599677 C30.7595323,4.15454516 30.8774032,4.14931935 30.9981774,4.14002903 L30.9981774,4.68554516 C30.8774032,4.67654516 30.7595323,4.67160968 30.6439839,4.67015806 C30.5281452,4.66841613 30.4105645,4.66725484 30.2897903,4.66725484" id="Fill-25" fill="#85878A"></path>
            <path d="M34.157729,2.95565806 L33.8891806,2.95565806 C33.8334387,2.95565806 33.7759548,2.95681935 33.7161484,2.95798065 C33.6557613,2.9600129 33.599729,2.96465806 33.5468903,2.97394839 L33.5468903,2.39562581 C33.6026323,2.40520645 33.6609871,2.41043226 33.7225355,2.41188387 C33.7843742,2.41362581 33.842729,2.41449677 33.898471,2.41449677 L34.157729,2.41449677 L34.157729,1.6137871 C34.157729,1.51188387 34.1559871,1.40969032 34.1533742,1.30604516 C34.150471,1.20327097 34.1437935,1.09875484 34.1345032,0.99423871 L34.7499871,0.99423871 C34.7406968,1.09875484 34.7351806,1.20327097 34.7334387,1.30604516 C34.7319871,1.40969032 34.7311161,1.51188387 34.7311161,1.6137871 L34.7311161,4.51004516 C34.7311161,4.61456129 34.7319871,4.71907742 34.7334387,4.82243226 C34.7351806,4.92520645 34.7406968,5.02827097 34.7499871,5.12988387 L34.1345032,5.12988387 C34.1437935,5.02827097 34.150471,4.92520645 34.1533742,4.82243226 C34.1559871,4.71907742 34.157729,4.61456129 34.157729,4.51004516 L34.157729,2.95565806 Z M32.9685677,1.70610968 L32.0572452,1.70610968 L32.0572452,2.42843226 L33.3622452,2.42843226 L33.3622452,2.93272258 L32.0572452,2.93272258 L32.0572452,3.69569032 L32.2561161,3.69569032 L32.4320516,3.69569032 C32.4875032,3.69249677 32.5481806,3.69017419 32.6149548,3.68872258 C32.6811484,3.68727097 32.7606968,3.68349677 32.852729,3.67710968 C32.9299548,3.67420645 33.0106645,3.66869032 33.0934065,3.66085161 C33.1770194,3.6530129 33.2588903,3.64459355 33.338729,3.63588387 C33.4159548,3.62630323 33.4894065,3.6170129 33.5611161,3.60830323 C33.6316645,3.59872258 33.6949548,3.58943226 33.7504065,3.58043226 L33.7504065,4.08414194 C33.6885677,4.09343226 33.6244065,4.10185161 33.5587935,4.10969032 C33.4923097,4.11752903 33.4203097,4.12594839 33.3430839,4.13523871 C33.2693419,4.14452903 33.1912452,4.15294839 33.1096645,4.1607871 C33.0280839,4.16862581 32.9436,4.17385161 32.8576645,4.17704516 C32.7775355,4.18343226 32.6950839,4.1877871 32.6123419,4.19098065 C32.5296,4.19417419 32.4346645,4.19707742 32.3304387,4.20027097 C32.2256323,4.20346452 32.1048581,4.20462581 31.9692774,4.20462581 L31.4934387,4.20462581 L31.4934387,1.67881935 C31.4934387,1.60188387 31.4914065,1.52262581 31.4885032,1.44249677 C31.4853097,1.36265806 31.4789226,1.28223871 31.4693419,1.2024 L32.9685677,1.2024 L33.1860194,1.2024 C33.2568581,1.2024 33.3311806,1.19775484 33.4084065,1.18817419 L33.4084065,1.72062581 C33.3683419,1.71685161 33.3300194,1.71481935 33.2943097,1.71336774 C33.2591806,1.71162581 33.2231806,1.70930323 33.1860194,1.70610968 L33.077729,1.70610968 L32.9685677,1.70610968 Z" id="Fill-26" fill="#85878A"></path>
            <path d="M38.7556839,4.5099 C38.7556839,4.61441613 38.7565548,4.71922258 38.7582968,4.8222871 C38.7597484,4.92535161 38.7649742,5.02812581 38.7745548,5.13002903 L38.1547161,5.13002903 C38.1634258,5.02812581 38.1695226,4.92535161 38.1730065,4.8222871 C38.1762,4.71922258 38.1779419,4.61441613 38.1779419,4.5099 L38.1779419,1.61364194 C38.1779419,1.51202903 38.1762,1.40954516 38.1730065,1.30619032 C38.1695226,1.20312581 38.1634258,1.0989 38.1547161,0.994383871 L38.7745548,0.994383871 C38.7649742,1.0989 38.7597484,1.20312581 38.7582968,1.30619032 C38.7565548,1.40954516 38.7556839,1.51202903 38.7556839,1.61364194 L38.7556839,4.5099 Z M35.5592323,1.72948065 C35.5592323,1.65254516 35.5574903,1.57415806 35.5542968,1.49344839 C35.5508129,1.4139 35.5455871,1.33348065 35.5360065,1.25306129 L37.0860387,1.25306129 L37.3037806,1.25306129 C37.3740387,1.25306129 37.4483613,1.24870645 37.5252968,1.23912581 L37.5252968,1.76664194 C37.4855226,1.76344839 37.448071,1.76112581 37.412071,1.75967419 C37.3766516,1.75793226 37.3406516,1.7559 37.3037806,1.75270645 L37.1946194,1.75270645 L37.0860387,1.75270645 L36.1282645,1.75270645 L36.1282645,3.67231935 L36.5953935,3.67231935 C36.7103613,3.67231935 36.8430387,3.66709355 36.9957484,3.65664194 C37.1487484,3.64531935 37.2942,3.63399677 37.4329742,3.62180323 C37.5714581,3.60641613 37.6896194,3.59335161 37.7865871,3.58231935 C37.8841355,3.57215806 37.9361032,3.56460968 37.9422,3.56170645 L37.9422,4.04683548 C37.9361032,4.04683548 37.8809419,4.05525484 37.7772968,4.07006129 C37.6739419,4.08573871 37.5438774,4.10112581 37.3865226,4.11680323 C37.2259742,4.13219032 37.0500387,4.14670645 36.8569742,4.16093226 C36.6644903,4.17486774 36.4754903,4.18125484 36.2902645,4.18125484 L35.5592323,4.18125484 L35.5592323,1.72948065 Z" id="Fill-27" fill="#85878A"></path>
            <path d="M42.6421452,2.53463226 L42.8366613,2.53463226 C42.8918226,2.53463226 42.9504677,2.53376129 43.0120161,2.53172903 C43.0738548,2.53027742 43.1327903,2.52534194 43.1879516,2.51605161 L43.1879516,3.07579355 C43.1327903,3.06650323 43.0732742,3.0609871 43.0102742,3.05982581 C42.9466935,3.05808387 42.8889194,3.05750323 42.8366613,3.05750323 L42.6421452,3.05750323 L42.6421452,4.51434194 C42.6421452,4.61972903 42.6430161,4.72337419 42.6447581,4.82701935 C42.6462097,4.93037419 42.6511452,5.03285806 42.6604355,5.13447097 L42.0452419,5.13447097 C42.0548226,5.03285806 42.0612097,4.93037419 42.0635323,4.82701935 C42.0667258,4.72337419 42.0684677,4.61972903 42.0684677,4.51434194 L42.0684677,1.61372903 C42.0684677,1.51211613 42.0667258,1.40963226 42.0635323,1.30627742 C42.0612097,1.2032129 42.0548226,1.0989871 42.0452419,0.994180645 L42.6604355,0.994180645 C42.6511452,1.0989871 42.6462097,1.2032129 42.6447581,1.30627742 C42.6430161,1.40963226 42.6421452,1.51211613 42.6421452,1.61372903 L42.6421452,2.53463226 Z M40.1857258,1.61837419 C40.1857258,1.53534194 40.1836935,1.45637419 40.1810806,1.38263226 C40.1781774,1.30830968 40.1717903,1.22963226 40.1625,1.14689032 L40.8197903,1.14689032 C40.8102097,1.22963226 40.8041129,1.30830968 40.8009194,1.38263226 C40.7977258,1.45637419 40.7965645,1.53534194 40.7965645,1.61837419 L40.7965645,2.1276 C40.7965645,2.35289032 40.8224032,2.55669677 40.8752419,2.74047097 C40.9272097,2.92395484 41.0015323,3.08827742 41.0973387,3.23285806 C41.189371,3.3812129 41.2994032,3.51301935 41.4256935,3.62885806 C41.5519839,3.74440645 41.6872742,3.84543871 41.8330161,3.93166452 C41.7894677,3.96882581 41.7482419,4.00424516 41.7075968,4.0382129 C41.6675323,4.07189032 41.6289194,4.10585806 41.5923387,4.13982581 C41.5551774,4.17089032 41.5200484,4.20166452 41.4881129,4.23243871 C41.4555968,4.26292258 41.4285968,4.29079355 41.4071129,4.31547097 C41.3388871,4.27250323 41.2625323,4.21501935 41.1777581,4.14214839 C41.0929839,4.06956774 41.007629,3.98914839 40.9211129,3.89914839 C40.8345968,3.81030968 40.7550484,3.7142129 40.6801452,3.61230968 C40.6066935,3.51069677 40.5463065,3.40908387 40.5004355,3.30718065 C40.4667581,3.40908387 40.4124677,3.51389032 40.3381452,3.62189032 C40.2644032,3.7296 40.1822419,3.83440645 40.0931129,3.93630968 C40.0036935,4.03472903 39.9128226,4.12530968 39.8202097,4.20718065 C39.7275968,4.28876129 39.6457258,4.35263226 39.5754677,4.39908387 C39.5162419,4.34653548 39.443371,4.2849871 39.3551129,4.21414839 C39.2674355,4.14301935 39.1820806,4.0779871 39.0987581,4.01963226 C39.2805,3.91163226 39.443371,3.78766452 39.5870806,3.64685806 C39.7302097,3.50692258 39.8477903,3.34927742 39.9401129,3.17305161 C40.0208226,3.02469677 40.0817903,2.86385806 40.1230161,2.68966452 C40.1651129,2.51576129 40.1857258,2.32792258 40.1857258,2.1276 L40.1857258,1.61837419 Z" id="Fill-28" fill="#85878A"></path>
            <path d="M46.8889839,4.5099 C46.8889839,4.61441613 46.8898548,4.71922258 46.8918871,4.8222871 C46.8933387,4.92535161 46.8985645,5.02812581 46.9069839,5.13002903 L46.2883065,5.13002903 C46.2973065,5.02812581 46.3031129,4.92535161 46.3063065,4.8222871 C46.3089194,4.71922258 46.3109516,4.61441613 46.3109516,4.5099 L46.3109516,1.61364194 C46.3109516,1.51202903 46.3089194,1.40954516 46.3063065,1.30619032 C46.3031129,1.20312581 46.2973065,1.0989 46.2883065,0.994383871 L46.9069839,0.994383871 C46.8985645,1.0989 46.8933387,1.20312581 46.8918871,1.30619032 C46.8898548,1.40954516 46.8889839,1.51202903 46.8889839,1.61364194 L46.8889839,4.5099 Z M44.0859194,2.70583548 C44.0859194,2.84141613 44.0978226,2.97293226 44.1230806,3.10125484 C44.1474677,3.2292871 44.1831774,3.3425129 44.2290484,3.44093226 C44.2755,3.54022258 44.3315323,3.6189 44.3980161,3.67725484 C44.4642097,3.7359 44.5388226,3.7655129 44.6224355,3.7655129 C44.7060484,3.7655129 44.7797903,3.7359 44.8468548,3.67725484 C44.9124677,3.6189 44.967629,3.54167419 45.0111774,3.44586774 C45.057629,3.34715806 45.0918871,3.23364194 45.1151129,3.10619032 C45.1380484,2.97757742 45.1499516,2.84460968 45.1499516,2.70583548 C45.1499516,2.57286774 45.1380484,2.44454516 45.1151129,2.31941613 C45.0918871,2.1942871 45.057629,2.08280323 45.0111774,1.98409355 C44.967629,1.88538387 44.9124677,1.80612581 44.8468548,1.74573871 C44.7797903,1.68564194 44.7060484,1.65544839 44.6224355,1.65544839 C44.5388226,1.65544839 44.4642097,1.68564194 44.3980161,1.74573871 C44.3315323,1.80612581 44.2755,1.88538387 44.2290484,1.98409355 C44.1831774,2.08280323 44.1474677,2.19515806 44.1230806,2.32144839 C44.0978226,2.44831935 44.0859194,2.57606129 44.0859194,2.70583548 L44.0859194,2.70583548 Z M43.5075968,2.71077097 C43.5075968,2.47299677 43.5331452,2.25641613 43.5859839,2.06015806 C43.6382419,1.86448065 43.7125645,1.69725484 43.8077903,1.55848065 C43.9067903,1.41941613 44.0240806,1.31141613 44.159371,1.23477097 C44.2949516,1.15754516 44.4485323,1.11893226 44.6177903,1.11893226 C44.7870484,1.11893226 44.9409194,1.15841613 45.0779516,1.23709355 C45.2152742,1.31548065 45.3316935,1.42464194 45.4272097,1.56312581 C45.5227258,1.70160968 45.597629,1.86912581 45.6495968,2.06480323 C45.7018548,2.26106129 45.7279839,2.47619032 45.7279839,2.71077097 C45.7279839,2.94825484 45.7018548,3.16367419 45.6495968,3.3579 C45.597629,3.55241613 45.5227258,3.7205129 45.4272097,3.86219032 C45.3316935,4.00096452 45.2152742,4.10896452 45.0779516,4.18648065 C44.9409194,4.26283548 44.7870484,4.30144839 44.6177903,4.30144839 C44.4485323,4.30144839 44.2949516,4.26399677 44.159371,4.18880323 C44.0240806,4.11273871 43.9067903,4.00415806 43.8077903,3.86219032 C43.7125645,3.72370645 43.6382419,3.55619032 43.5859839,3.3605129 C43.5331452,3.16454516 43.5075968,2.94825484 43.5075968,2.71077097 L43.5075968,2.71077097 Z" id="Fill-29" fill="#85878A"></path>
            <path d="M48.2632258,3.67722581 L49.095871,3.67722581 L49.095871,2.67358065 L48.2632258,2.67358065 L48.2632258,3.67722581 Z M49.6649032,2.35393548 L50.3587742,2.35393548 L50.3587742,1.61390323 C50.3587742,1.512 50.3573226,1.40951613 50.3544194,1.30616129 C50.3509355,1.20309677 50.3454194,1.09887097 50.336129,0.994354839 L50.9507419,0.994354839 C50.9417419,1.09887097 50.9365161,1.20309677 50.9353548,1.30616129 C50.9333226,1.40951613 50.9324516,1.512 50.9324516,1.61390323 L50.9324516,4.50987097 C50.9324516,4.6143871 50.9333226,4.71919355 50.9353548,4.82225806 C50.9365161,4.92532258 50.9417419,5.02809677 50.9507419,5.13 L50.336129,5.13 C50.3454194,5.02809677 50.3509355,4.92532258 50.3544194,4.82225806 C50.3573226,4.71919355 50.3587742,4.6143871 50.3587742,4.50987097 L50.3587742,2.89103226 L49.6649032,2.89103226 L49.6649032,4.18645161 L47.6941935,4.18645161 L47.6941935,1.67864516 C47.6941935,1.5956129 47.6933226,1.51693548 47.6912903,1.4426129 C47.690129,1.36887097 47.6849032,1.28990323 47.6761935,1.20658065 L48.2818065,1.20658065 C48.2722258,1.28990323 48.2675806,1.36887097 48.2655484,1.4426129 C48.2643871,1.51693548 48.2632258,1.5956129 48.2632258,1.67864516 L48.2632258,2.15970968 L49.095871,2.15970968 L49.095871,1.67864516 C49.095871,1.5956129 49.095,1.51693548 49.0938387,1.4426129 C49.0918065,1.36887097 49.0865806,1.28990323 49.077,1.20658065 L49.6831935,1.20658065 C49.6741935,1.28990323 49.6686774,1.36887097 49.6669355,1.4426129 C49.6654839,1.51693548 49.6649032,1.5956129 49.6649032,1.67864516 L49.6649032,2.35393548 Z" id="Fill-30" fill="#85878A"></path>
            <path d="M52.6395774,4.35254516 C52.6395774,4.45793226 52.7191258,4.54706129 52.8779323,4.62138387 C53.0367387,4.69512581 53.2553516,4.73199677 53.5326097,4.73199677 C53.8043516,4.73199677 54.019771,4.69570645 54.1803194,4.62370645 C54.3402871,4.55083548 54.4209968,4.46257742 54.4209968,4.35748065 C54.4209968,4.2462871 54.3402871,4.15686774 54.1803194,4.08893226 C54.019771,4.0212871 53.8043516,3.98731935 53.5326097,3.98731935 C53.2553516,3.98731935 53.0367387,4.02186774 52.8779323,4.09125484 C52.7191258,4.16093226 52.6395774,4.24802903 52.6395774,4.35254516 L52.6395774,4.35254516 Z M52.4918032,2.77957742 L52.6491581,2.77957742 L52.7202871,2.77957742 L52.8021581,2.77957742 C52.8323516,2.77957742 52.8642871,2.77899677 52.8965129,2.77754516 C52.9284484,2.7755129 52.9632871,2.77522258 53.0007387,2.77522258 L53.0143839,1.64644839 L52.4778677,1.64644839 L52.4918032,2.77957742 Z M52.0058032,4.35748065 C52.0058032,4.1229 52.1349968,3.92548065 52.3945452,3.7655129 C52.6535129,3.60438387 53.0326742,3.52454516 53.5326097,3.52454516 C54.0293516,3.52454516 54.4070613,3.60438387 54.6657387,3.7655129 C54.9252871,3.92548065 55.0544806,4.1229 55.0544806,4.35748065 C55.0544806,4.59496452 54.9235452,4.79296452 54.6616742,4.95148065 C54.3992226,5.11086774 54.0229645,5.19012581 53.5326097,5.19012581 C53.0361581,5.19012581 52.6575774,5.11086774 52.3965774,4.95148065 C52.1358677,4.79296452 52.0058032,4.59496452 52.0058032,4.35748065 L52.0058032,4.35748065 Z M54.4813839,1.98844839 L54.2871581,1.98844839 C54.2311258,1.98844839 54.1736419,1.98931935 54.1129645,1.99106129 C54.0528677,1.9925129 53.9968355,1.99802903 53.9448677,2.00731935 L53.9448677,1.49809355 C54.000029,1.50738387 54.0583839,1.5129 54.1199323,1.51435161 C54.181771,1.51580323 54.2409968,1.51667419 54.2958677,1.51667419 L54.4813839,1.51667419 L54.4813839,1.46122258 C54.4813839,1.3842871 54.4796419,1.30706129 54.4764484,1.22954516 C54.4732548,1.1529 54.4668677,1.07393226 54.4572871,0.994383871 L55.0733516,0.994383871 C55.0640613,1.07393226 55.0585452,1.1529 55.0568032,1.22954516 C55.0553516,1.30706129 55.0544806,1.3842871 55.0544806,1.46122258 L55.0544806,3.05741613 C55.0544806,3.13754516 55.0553516,3.21622258 55.0568032,3.29344839 C55.0585452,3.37038387 55.0640613,3.44731935 55.0733516,3.52454516 L54.4572871,3.52454516 C54.4668677,3.44731935 54.4732548,3.37038387 54.4764484,3.29344839 C54.4796419,3.21622258 54.4813839,3.13754516 54.4813839,3.05741613 L54.4813839,2.72383548 L54.2726419,2.72383548 C54.235771,2.72383548 54.1989,2.72499677 54.1614484,2.72644839 C54.1248677,2.72848065 54.0877065,2.72877097 54.0505452,2.72877097 L54.0505452,3.19154516 C53.7854806,3.22841613 53.4736742,3.25483548 53.1162871,3.26993226 C52.7586097,3.28560968 52.3730613,3.29344839 51.9596419,3.29344839 C51.8766097,3.29344839 51.7999645,3.29402903 51.7305774,3.29548065 C51.6611903,3.29722258 51.5868677,3.30273871 51.5064484,3.31202903 L51.5064484,2.77057742 C51.5836742,2.77957742 51.6559645,2.78480323 51.7239,2.78480323 L51.9413516,2.78480323 L51.9274161,1.65080323 L51.7628032,1.65080323 C51.7125774,1.65080323 51.6559645,1.65544839 51.5941258,1.66473871 L51.5941258,1.13286774 C51.6591581,1.14215806 51.7189645,1.14767419 51.7747065,1.14912581 C51.8304484,1.15086774 51.8917065,1.15144839 51.9596419,1.15144839 L53.5003839,1.15144839 C53.5648355,1.15144839 53.6252226,1.15086774 53.6806742,1.14912581 C53.7358355,1.14767419 53.7979645,1.14215806 53.8656097,1.13286774 L53.8656097,1.66473871 C53.8101581,1.65864194 53.7599323,1.65486774 53.7152226,1.65312581 C53.6702226,1.65167419 53.6234806,1.65080323 53.5741258,1.65080323 L53.5648355,2.74270645 C53.5964806,2.74270645 53.6272548,2.74125484 53.659771,2.73806129 C53.6922871,2.73544839 53.7236419,2.73225484 53.7547065,2.72877097 C53.7854806,2.72586774 53.8153839,2.72325484 53.8449968,2.71948065 C53.8743194,2.71686774 53.9030613,2.71338387 53.9300613,2.71077097 L53.9300613,2.23406129 C53.9860935,2.24277097 54.0444484,2.24857742 54.1059968,2.25031935 C54.1678355,2.25177097 54.226771,2.25264194 54.2819323,2.25264194 L54.4813839,2.25264194 L54.4813839,1.98844839 Z" id="Fill-31" fill="#85878A"></path>
            <path d="M58.2512516,1.84511613 L58.5801871,1.84511613 L58.5801871,1.53969677 C58.5801871,1.44708387 58.5793161,1.35650323 58.5778645,1.26679355 C58.5761226,1.17737419 58.5706065,1.08650323 58.5610258,0.994180645 L59.1532839,0.994180645 C59.1442839,1.08650323 59.1387677,1.17737419 59.1373161,1.26679355 C59.1358645,1.35650323 59.1349935,1.44708387 59.1349935,1.53969677 L59.1349935,2.94630968 C59.1349935,3.03863226 59.1358645,3.13095484 59.1373161,3.22124516 C59.1387677,3.31269677 59.1442839,3.40269677 59.1532839,3.49211613 L58.556671,3.49211613 C58.5662516,3.40269677 58.5723484,3.31269677 58.5752516,3.22124516 C58.5784452,3.13095484 58.5801871,3.03863226 58.5801871,2.94630968 L58.5801871,2.38627742 L58.2512516,2.38627742 L58.2512516,2.81682581 L58.2512516,3.08972903 C58.2512516,3.17972903 58.2558968,3.26856774 58.2654774,3.3579871 L57.6775742,3.3579871 C57.6839613,3.26856774 57.6888968,3.17972903 57.6918,3.08972903 C57.6949935,3.00030968 57.6964452,2.90943871 57.6964452,2.81682581 L57.6964452,1.60937419 C57.6964452,1.51676129 57.6949935,1.42618065 57.6918,1.33647097 C57.6888968,1.24676129 57.6839613,1.15618065 57.6775742,1.06327742 L58.2654774,1.06327742 C58.2558968,1.15618065 58.2512516,1.24676129 58.2512516,1.33647097 L58.2512516,1.60937419 L58.2512516,1.84511613 Z M56.7108,4.33869677 C56.7108,4.46266452 56.792671,4.55934194 56.9561226,4.63047097 C57.1192839,4.70101935 57.3448645,4.73643871 57.6314129,4.73643871 C57.9083806,4.73643871 58.1307677,4.7016 58.2977032,4.63279355 C58.4643484,4.56311613 58.547671,4.46643871 58.547671,4.34334194 C58.547671,4.21995484 58.4643484,4.12443871 58.2977032,4.0562129 C58.1307677,3.98914839 57.9083806,3.95518065 57.6314129,3.95518065 C57.3448645,3.95518065 57.1192839,3.9879871 56.9561226,4.05418065 C56.792671,4.12066452 56.7108,4.2156 56.7108,4.33869677 L56.7108,4.33869677 Z M56.0683161,4.3479871 C56.0683161,4.09540645 56.198671,3.88753548 56.4611226,3.72611613 C56.7229935,3.56382581 57.1114452,3.48311613 57.6267677,3.48311613 C58.1359935,3.48311613 58.5221226,3.56382581 58.7857355,3.72611613 C59.0493484,3.88753548 59.1814452,4.09540645 59.1814452,4.3479871 C59.1814452,4.59795484 59.0493484,4.80234194 58.7857355,4.96085806 C58.5221226,5.11937419 58.1359935,5.1992129 57.6267677,5.1992129 C57.1114452,5.1992129 56.7229935,5.11937419 56.4611226,4.96085806 C56.198671,4.80234194 56.0683161,4.59795484 56.0683161,4.3479871 L56.0683161,4.3479871 Z M56.8039935,1.47495484 C56.8039935,1.80824516 56.8716387,2.08085806 57.0092516,2.29163226 C57.1462839,2.50269677 57.3370258,2.6829871 57.5806065,2.83076129 C57.546929,2.86153548 57.5141226,2.89230968 57.4830581,2.92308387 C57.4522839,2.95385806 57.4232516,2.98463226 57.3959613,3.01540645 C57.3643161,3.04937419 57.3338323,3.08305161 57.3033484,3.11527742 C57.2719935,3.14750323 57.2412194,3.18118065 57.2107355,3.21456774 C57.0931548,3.14082581 56.9659935,3.03485806 56.828671,2.89782581 C56.6916387,2.76050323 56.585671,2.61766452 56.5122194,2.46989032 C56.4718645,2.56250323 56.4213484,2.65250323 56.3615419,2.74047097 C56.3014452,2.82843871 56.2369935,2.90943871 56.1696387,2.98318065 C56.1046065,3.06069677 56.0378323,3.13008387 55.9684452,3.19163226 C55.8987677,3.25318065 55.8346065,3.3039871 55.7762516,3.34405161 C55.7083161,3.28889032 55.6377677,3.23024516 55.5637355,3.16811613 C55.4894129,3.10685806 55.4110258,3.04327742 55.3274129,2.97882581 C55.4386065,2.91118065 55.5561871,2.82292258 55.6792839,2.71492258 C55.8023806,2.60692258 55.9103806,2.46989032 56.0032839,2.30353548 C56.0590258,2.19843871 56.1046065,2.07766452 56.1417677,1.93976129 C56.178929,1.80272903 56.1975097,1.64769677 56.1975097,1.47495484 C56.1975097,1.41079355 56.1954774,1.34634194 56.1925742,1.28276129 C56.1893806,1.22005161 56.1832839,1.15618065 56.1739935,1.09085806 L56.8263484,1.09085806 C56.8176387,1.15618065 56.8112516,1.22005161 56.8080581,1.28276129 C56.8051548,1.34634194 56.8039935,1.41079355 56.8039935,1.47495484 L56.8039935,1.47495484 Z" id="Fill-32" fill="#85878A"></path>
            <path d="M60.4255355,1.71554516 C60.3268258,1.71554516 60.2379871,1.71641613 60.1601806,1.71786774 C60.0812129,1.71960968 59.9938258,1.72483548 59.8983097,1.73383548 L59.8983097,1.19325484 C59.9938258,1.20225484 60.0812129,1.20748065 60.1601806,1.20922258 C60.2379871,1.21067419 60.3268258,1.21154516 60.4255355,1.21154516 L62.9887935,1.21154516 C62.9795032,1.40896452 62.9696323,1.61364194 62.9583097,1.82702903 C62.9475677,2.03983548 62.9333419,2.25264194 62.914471,2.46486774 C62.8961806,2.68115806 62.8749871,2.89338387 62.849729,3.10125484 C62.8256323,3.30941613 62.797471,3.50625484 62.7666968,3.69119032 L62.1843097,3.69554516 C62.2081161,3.53848065 62.2319226,3.37357742 62.2531161,3.20054516 C62.2748903,3.02809355 62.2928903,2.85709355 62.3082774,2.68725484 C62.3242452,2.5145129 62.3370194,2.34554516 62.3480516,2.18064194 C62.3585032,2.01573871 62.3669226,1.86099677 62.3733097,1.71554516 L60.4255355,1.71554516 Z M61.3142129,4.21406129 L61.3142129,3.1959 L61.3142129,3.09922258 L61.3142129,2.99267419 C61.3110194,2.95870645 61.3084065,2.92473871 61.3069548,2.89106129 C61.3057935,2.85709355 61.3028903,2.82283548 61.2999871,2.78886774 L61.9061806,2.78886774 C61.8968903,2.85070645 61.8925355,2.9195129 61.8925355,2.99470645 L61.8925355,3.1959 L61.8925355,4.21406129 L62.6743742,4.21406129 C62.7942774,4.21406129 62.9121484,4.21348065 63.0279871,4.21202903 C63.1432452,4.2102871 63.2616968,4.20448065 63.382471,4.19548065 L63.382471,4.73199677 C63.2616968,4.72270645 63.1432452,4.71719032 63.0279871,4.71573871 C62.9121484,4.71399677 62.7942774,4.71312581 62.6743742,4.71312581 L60.2220194,4.71312581 C60.1021161,4.71312581 59.9839548,4.71399677 59.8684065,4.71573871 C59.7528581,4.71719032 59.6346968,4.72270645 59.5145032,4.73199677 L59.5145032,4.19548065 C59.6346968,4.20448065 59.7528581,4.2102871 59.8684065,4.21202903 C59.9839548,4.21348065 60.1021161,4.21406129 60.2220194,4.21406129 L60.2916968,4.21406129 L60.2916968,3.1959 L60.2916968,3.09922258 L60.2916968,2.99267419 C60.2885032,2.95870645 60.286471,2.92473871 60.2844387,2.89106129 C60.2832774,2.85709355 60.2806645,2.82283548 60.2777613,2.78886774 L60.878729,2.78886774 C60.869729,2.85070645 60.8653742,2.9195129 60.8653742,2.99470645 L60.8653742,3.1959 L60.8653742,4.21406129 L61.3142129,4.21406129 Z" id="Fill-33" fill="#85878A"></path>
            <path d="M65.061,3.80670968 L65.9264516,3.80670968 L65.9264516,3.40432258 L65.061,3.40432258 L65.061,3.80670968 Z M64.6080968,1.83164516 C64.6080968,1.94835484 64.6859032,2.04532258 64.8418065,2.12080645 C64.9974194,2.196 65.214,2.23403226 65.4918387,2.23403226 C65.7598065,2.23403226 65.9734839,2.19512903 66.132871,2.11848387 C66.2908065,2.04125806 66.3703548,1.94545161 66.3703548,1.83164516 C66.3703548,1.70796774 66.2881935,1.60954839 66.123,1.53522581 C65.9575161,1.46119355 65.7464516,1.4246129 65.4871935,1.4246129 C65.2308387,1.4246129 65.0203548,1.46206452 64.8557419,1.53754839 C64.6905484,1.6136129 64.6080968,1.71116129 64.6080968,1.83164516 L64.6080968,1.83164516 Z M65.4918387,2.67822581 C65.2540645,2.67822581 65.0398065,2.65790323 64.8487742,2.61783871 C64.656871,2.57748387 64.4954516,2.52087097 64.3630645,2.44683871 C64.2266129,2.37251613 64.1232581,2.28280645 64.0506774,2.17829032 C63.9778065,2.07406452 63.9418065,1.95619355 63.9418065,1.827 C63.9418065,1.70941935 63.9778065,1.59967742 64.0506774,1.49574194 C64.1232581,1.39296774 64.2266129,1.30383871 64.3630645,1.22951613 C64.4954516,1.15316129 64.656871,1.09190323 64.8487742,1.04690323 C65.0398065,1.00248387 65.2540645,0.980419355 65.4918387,0.980419355 C65.7290323,0.980419355 65.9432903,1.00248387 66.1346129,1.04690323 C66.3259355,1.09190323 66.4876452,1.15141935 66.6206129,1.22545161 C66.753,1.3023871 66.8557742,1.39296774 66.9283548,1.49574194 C67.0003548,1.59967742 67.0366452,1.71116129 67.0366452,1.83164516 C67.0366452,2.08422581 66.8984516,2.28890323 66.6226452,2.44451613 C66.3465484,2.60012903 65.9694194,2.67822581 65.4918387,2.67822581 L65.4918387,2.67822581 Z M64.4922581,3.4046129 L64.2704516,3.4046129 C64.1496774,3.4046129 64.0315161,3.4046129 63.9162581,3.40635484 C63.8004194,3.40780645 63.6825484,3.4136129 63.5626452,3.4226129 L63.5626452,2.88609677 C63.6825484,2.89567742 63.8004194,2.90090323 63.9162581,2.90264516 C64.0315161,2.90409677 64.1496774,2.90496774 64.2704516,2.90496774 L66.7222258,2.90496774 C66.8424194,2.90496774 66.9602903,2.90409677 67.076129,2.90264516 C67.1913871,2.90090323 67.3098387,2.89567742 67.4300323,2.88609677 L67.4300323,3.4226129 C67.3098387,3.4136129 67.1913871,3.40780645 67.076129,3.40635484 C66.9602903,3.4046129 66.8424194,3.4046129 66.7222258,3.4046129 L66.4957742,3.4046129 L66.4957742,3.80670968 L66.9814839,3.80670968 C66.9724839,3.86825806 66.9666774,3.92777419 66.9652258,3.98525806 C66.9634839,4.04216129 66.9623226,4.09964516 66.9623226,4.15829032 L66.9623226,4.73196774 C66.9623226,4.80309677 66.9643548,4.8753871 66.9675484,4.94941935 C66.9704516,5.02374194 66.9768387,5.09458065 66.986129,5.16193548 L66.3424839,5.16193548 C66.3520645,5.09748387 66.3572903,5.02664516 66.3587419,4.94941935 C66.3604839,4.87219355 66.3613548,4.79990323 66.3613548,4.73196774 L66.3613548,4.311 L64.4739677,4.311 C64.3813548,4.311 64.296,4.31187097 64.2193548,4.31303226 C64.1418387,4.31477419 64.0573548,4.32029032 63.9650323,4.32958065 L63.9650323,3.79306452 C64.0573548,3.80235484 64.1418387,3.80670968 64.2193548,3.80670968 L64.4739677,3.80670968 L64.4922581,3.80670968 L64.4922581,3.4046129 Z" id="Fill-34" fill="#85878A"></path>
            <path d="M70.6727323,3.78383226 L70.140571,3.78383226 C70.0857,3.78383226 70.0276355,3.78470323 69.9675387,3.78557419 C69.9071516,3.78789677 69.8505387,3.79312258 69.7979903,3.80212258 L69.7979903,3.31670323 C69.8537323,3.32599355 69.9126677,3.33121935 69.9750871,3.33267097 C70.0360548,3.3344129 70.0944097,3.33470323 70.149571,3.33470323 L70.6779581,3.33470323 L70.6779581,1.46125161 C70.6779581,1.38431613 70.6756355,1.30709032 70.6727323,1.22957419 C70.6695387,1.15292903 70.6640226,1.07396129 70.6544419,0.994412903 L71.2699258,0.994412903 C71.2603452,1.07396129 71.2554097,1.15292903 71.2536677,1.22957419 C71.2525065,1.30709032 71.2513452,1.38431613 71.2513452,1.46125161 L71.2513452,3.63083226 C71.2513452,3.71125161 71.2525065,3.78992903 71.2536677,3.86657419 C71.2554097,3.94409032 71.2603452,4.02131613 71.2699258,4.09825161 L70.6544419,4.09825161 C70.660829,4.0454129 70.6651839,3.99373548 70.6683774,3.94089677 C70.6712806,3.88834839 70.6727323,3.83638065 70.6727323,3.78383226 L70.6727323,3.78383226 Z M68.5960548,1.7208 C68.5960548,1.78844516 68.6343774,1.86131613 68.7107323,1.93970323 C68.7885387,2.01896129 68.9098935,2.05815484 69.0765387,2.05815484 C69.2431839,2.05815484 69.3654097,2.01896129 69.4420548,1.93970323 C69.5189903,1.86131613 69.5576032,1.78844516 69.5576032,1.7208 C69.5576032,1.64938065 69.5189903,1.5741871 69.4420548,1.49347742 C69.3654097,1.41392903 69.2414419,1.37357419 69.0721839,1.37357419 C68.9023452,1.37357419 68.7804097,1.41392903 68.7069581,1.49347742 C68.6326355,1.5741871 68.5960548,1.64938065 68.5960548,1.7208 L68.5960548,1.7208 Z M68.3501516,5.06009032 L68.3501516,4.34357419 C68.3501516,4.28812258 68.3498613,4.22976774 68.3481194,4.16763871 C68.3463774,4.1058 68.3414419,4.04686452 68.3318613,3.99228387 L68.9566355,3.99228387 C68.9476355,4.04686452 68.941829,4.10492903 68.9406677,4.16531613 C68.9386355,4.2254129 68.9383452,4.28202581 68.9383452,4.33428387 L68.9383452,4.55173548 L70.626571,4.55173548 C70.7467645,4.55173548 70.8626032,4.55086452 70.9737968,4.5494129 C71.0844097,4.54767097 71.2005387,4.54215484 71.3204419,4.53286452 L71.3204419,5.07925161 C71.2005387,5.07025161 71.0844097,5.06444516 70.9737968,5.06299355 C70.8626032,5.06154194 70.7467645,5.06009032 70.626571,5.06009032 L68.3501516,5.06009032 Z M69.0721839,2.4974129 C68.8994419,2.4974129 68.7484742,2.47650968 68.6187,2.43499355 C68.4895065,2.39347742 68.3809258,2.33715484 68.295571,2.26631613 C68.2087645,2.1951871 68.1440226,2.11273548 68.1010548,2.01896129 C68.0572161,1.92460645 68.0360226,1.82502581 68.0360226,1.7208 C68.0360226,1.62150968 68.0572161,1.52599355 68.1010548,1.43338065 C68.1440226,1.34105806 68.2087645,1.2591871 68.295571,1.18834839 C68.3841194,1.11431613 68.4932806,1.05567097 68.6210226,1.01212258 C68.7487645,0.969735484 68.8994419,0.947380645 69.0721839,0.947380645 C69.2446355,0.947380645 69.3961839,0.969735484 69.5256677,1.01212258 C69.6548613,1.05567097 69.7628613,1.11286452 69.8490871,1.18370323 C69.9358935,1.25744516 70.0006355,1.34105806 70.0433129,1.43338065 C70.086571,1.52599355 70.1083452,1.62150968 70.1083452,1.7208 C70.1083452,1.82502581 70.0859903,1.92460645 70.0409903,2.01896129 C69.9959903,2.11273548 69.9309581,2.1951871 69.8444419,2.26631613 C69.7587968,2.33715484 69.6505065,2.39347742 69.5210226,2.43499355 C69.3915387,2.47650968 69.2414419,2.4974129 69.0721839,2.4974129 L69.0721839,2.4974129 Z M69.1552161,3.16370323 L69.1552161,3.44096129 C69.1552161,3.49699355 69.1560871,3.55767097 69.1575387,3.62415484 C69.1592806,3.69034839 69.1642161,3.75160645 69.1735065,3.80676774 L68.5583129,3.80676774 C68.5676032,3.7484129 68.5731194,3.68657419 68.574571,3.62183226 C68.5760226,3.55738065 68.5771839,3.49699355 68.5771839,3.44096129 L68.5771839,3.17299355 L68.2020871,3.17299355 C68.1184742,3.17299355 68.0421194,3.17357419 67.9709903,3.17531613 C67.9001516,3.17676774 67.8226355,3.18228387 67.7396032,3.19157419 L67.7396032,2.67363871 C67.8226355,2.68292903 67.9001516,2.68728387 67.9709903,2.68728387 L68.2020871,2.68728387 L68.9609903,2.68728387 C69.0382161,2.68728387 69.1427323,2.68525161 69.2757,2.68002581 C69.4080871,2.67596129 69.5486032,2.66870323 69.6963774,2.65970323 C69.8444419,2.6504129 69.9910548,2.63967097 70.1362161,2.6271871 C70.2810871,2.61470323 70.4041839,2.60076774 70.5063774,2.58538065 L70.5063774,3.05250968 C70.3362484,3.08676774 70.1362161,3.11202581 69.9051194,3.12915484 C69.6740226,3.14599355 69.4237645,3.15731613 69.1552161,3.16370323 L69.1552161,3.16370323 Z" id="Fill-35" fill="#85878A"></path>
        </g>
    </g>
</svg>