<?xml version="1.0" encoding="UTF-8"?>
<svg width="100px" height="60px" viewBox="0 0 100 60" version="1.1" xmlns="http://www.w3.org/2000/svg" xmlns:xlink="http://www.w3.org/1999/xlink">
    <!-- Generator: Sketch 55.2 (78181) - https://sketchapp.com -->
    <title>logo/youngwoo</title>
    <desc>Created with Sketch.</desc>
    <defs>
        <polygon id="path-1" points="0 0.0814441558 5.62467972 0.0814441558 5.62467972 9.62284675 0 9.62284675"></polygon>
        <polygon id="path-3" points="0.193701779 0.0659220779 16.8867694 0.0659220779 16.8867694 16.6796416 0.193701779 16.6796416"></polygon>
        <polygon id="path-5" points="0 17.9341247 65.9758078 17.9341247 65.9758078 0.233812987 0 0.233812987"></polygon>
    </defs>
    <g id="logo/youngwoo" stroke="none" stroke-width="1" fill="none" fill-rule="evenodd">
        <g transform="translate(19.000000, 17.000000)">
            <g id="Group-3" transform="translate(0.000000, 7.882177)">
                <mask id="mask-2" fill="white">
                    <use xlink:href="#path-1"></use>
                </mask>
                <g id="Clip-2"></g>
                <path d="M1.7738968,0.0814441558 L1.7738968,3.99702857 C1.7738968,4.74297662 2.0512847,5.18269091 2.81228114,5.18269091 C3.57468683,5.18269091 3.85207473,4.74297662 3.85207473,3.99702857 L3.85207473,0.0814441558 L5.62467972,0.0814441558 L5.62467972,4.35539221 C5.62467972,5.59762597 5.01517794,6.56191169 3.74097865,6.83915844 L3.74097865,9.62284675 L1.88499288,9.62284675 L1.88499288,6.83915844 C1.24754093,6.7003013 0.776850534,6.38261299 0.47127758,5.95505455 C0.152786477,5.52866494 -0.000117437722,4.97627532 -0.000117437722,4.35539221 L-0.000117437722,0.0814441558 L1.7738968,0.0814441558 Z" id="Fill-1" fill="#0E5675" mask="url(#mask-2)"></path>
            </g>
            <path d="M8.94917722,10.6385844 C6.85784626,10.6385844 5.5423089,12.2375455 5.5423089,14.1555974 C5.5423089,16.0713117 6.85784626,17.6688701 8.94917722,17.6688701 C11.0416826,17.6688701 12.3567502,16.0713117 12.3567502,14.1555974 C12.3567502,12.2375455 11.0416826,10.6385844 8.94917722,10.6385844 M8.94917722,12.4028182 C9.93377509,12.4028182 10.5848498,13.0374935 10.5848498,14.1555974 C10.5848498,15.2708961 9.93377509,15.9051039 8.94917722,15.9051039 C7.96645836,15.9051039 7.31491388,15.2708961 7.31491388,14.1555974 C7.31491388,13.0374935 7.96645836,12.4028182 8.94917722,12.4028182" id="Fill-4" fill="#0E5675"></path>
            <path d="M14.0754982,10.8043247 L14.0754982,14.830013 C14.0754982,15.5207922 14.4355623,15.9051039 15.086637,15.9051039 C15.7379466,15.9051039 16.0977758,15.5207922 16.0977758,14.830013 L16.0977758,10.8043247 L17.8701459,10.8043247 L17.8701459,15.4375714 C17.8701459,16.8981429 16.7354626,17.6688701 15.086637,17.6688701 C13.4382811,17.6688701 12.3019537,16.8981429 12.3019537,15.4375714 L12.3019537,10.8043247 L14.0754982,10.8043247 Z" id="Fill-6" fill="#0E5675"></path>
            <path d="M18.050953,17.505 L18.050953,12.8722208 C18.050953,11.4111818 19.1872804,10.6385844 20.8358712,10.6385844 C22.4844619,10.6385844 23.6203196,11.4111818 23.6203196,12.8722208 L23.6203196,17.505 L21.8467751,17.505 L21.8467751,13.4779091 C21.8467751,12.7899351 21.4876505,12.4028182 20.8358712,12.4028182 C20.1843267,12.4028182 19.8247324,12.7899351 19.8247324,13.4779091 L19.8247324,17.505 L18.050953,17.505 Z" id="Fill-8" fill="#0E5675"></path>
            <path d="M35.9639872,10.8043247 L35.9639872,14.830013 C35.9639872,15.5207922 36.2258733,15.9051039 36.8778875,15.9051039 C37.5291972,15.9051039 37.8472185,15.5207922 37.8472185,14.830013 L37.8472185,10.8043247 L39.7041438,10.8043247 L39.7041438,15.2708961 C39.7041438,16.8981429 38.4846705,17.6688701 37.1543359,17.6688701 C36.3240512,17.6688701 35.6025139,17.3392597 34.9796242,16.5393117 C34.4675957,17.3392597 33.7472327,17.6688701 32.9155388,17.6688701 C31.5859089,17.6688701 30.3669053,16.8981429 30.3669053,15.2708961 L30.3669053,10.8043247 L32.2235957,10.8043247 L32.2235957,14.830013 C32.2235957,15.5207922 32.5423217,15.9051039 33.1931616,15.9051039 C33.8437665,15.9051039 34.1065922,15.5207922 34.1065922,14.830013 L34.1065922,10.8043247 L35.9639872,10.8043247 Z" id="Fill-10" fill="#0E5675"></path>
            <path d="M43.0978591,10.6385844 C41.0055886,10.6385844 39.6898164,12.2375455 39.6898164,14.1555974 C39.6898164,16.0713117 41.0055886,17.6688701 43.0978591,17.6688701 C45.18919,17.6688701 46.5059018,16.0713117 46.5059018,14.1555974 C46.5059018,12.2375455 45.18919,10.6385844 43.0978591,10.6385844 M43.0978591,12.4028182 C44.0812826,12.4028182 44.732827,13.0374935 44.732827,14.1555974 C44.732827,15.2708961 44.0812826,15.9051039 43.0978591,15.9051039 C42.1144356,15.9051039 41.4638306,15.2708961 41.4638306,14.1555974 C41.4638306,13.0374935 42.1144356,12.4028182 43.0978591,12.4028182" id="Fill-12" fill="#0E5675"></path>
            <path d="M49.6230043,10.6385844 C47.5312036,10.6385844 46.2149616,12.2375455 46.2149616,14.1555974 C46.2149616,16.0713117 47.5312036,17.6688701 49.6230043,17.6688701 C51.7152747,17.6688701 53.0305772,16.0713117 53.0305772,14.1555974 C53.0305772,12.2375455 51.7152747,10.6385844 49.6230043,10.6385844 M49.6230043,12.4028182 C50.6064278,12.4028182 51.2570327,13.0374935 51.2570327,14.1555974 C51.2570327,15.2708961 50.6064278,15.9051039 49.6230043,15.9051039 C48.639111,15.9051039 47.9880363,15.2708961 47.9880363,14.1555974 C47.9880363,13.0374935 48.639111,12.4028182 49.6230043,12.4028182" id="Fill-14" fill="#0E5675"></path>
            <g id="Group-18" transform="translate(49.088968, 0.167891)">
                <mask id="mask-4" fill="white">
                    <use xlink:href="#path-3"></use>
                </mask>
                <g id="Clip-17"></g>
                <polygon id="Fill-16" fill="#E32826" mask="url(#mask-4)" points="14.3820577 16.6796416 0.193701779 14.1886286 2.69888327 0.0658753247 16.8867694 2.55829091"></polygon>
            </g>
            <path d="M53.8562584,5.99715584 L53.8562584,8.75022078 C53.8562584,9.60533766 53.2631979,10.2937792 52.4016747,10.2937792 C51.5514256,10.2937792 50.9588349,9.60533766 50.9588349,8.74928571 C50.9588349,7.95868831 51.5354541,7.21554545 52.3647993,7.21694805 C52.5216961,7.21694805 52.6800021,7.25738961 52.8324363,7.29923377 L52.8324363,8.11484416 C52.7107708,8.06084416 52.5837032,8.02577922 52.4134185,8.02577922 C52.0200021,8.02390909 51.7346285,8.32593506 51.733689,8.75442857 C51.7346285,9.18385714 52.0200021,9.48658442 52.3892263,9.48354545 C52.7955609,9.48658442 53.0814043,9.18385714 53.0814043,8.75536364 L53.0814043,5.99715584 L53.8562584,5.99715584 Z" id="Fill-19" fill="#FEFEFE"></path>
            <path d="M54.9842185,6.41400779 C54.9842185,6.72772208 54.7670931,6.90328052 54.4844733,6.90234917 C54.2013439,6.90234917 53.9842185,6.72772208 53.9842185,6.41400779 C53.9842185,6.10029351 54.2013439,5.92356623 54.4844733,5.92356623 C54.7670931,5.92356623 54.9842185,6.10029351 54.9842185,6.41400779 L54.9842185,6.41400779 Z M54.0634744,10.2222935 L54.0634744,7.28922857 L54.9064917,7.28922857 L54.9049626,10.2222935 L54.0634744,10.2222935 Z" id="Fill-21" fill="#FEFEFE"></path>
            <path d="M55.3425972,10.5847013 C55.6563907,10.7039221 55.9297858,10.7546494 56.2637786,10.7527792 C56.6325331,10.7527792 57.0468534,10.6618442 57.0468534,10.1253506 L57.0468534,8.68909091 C57.0468534,8.21290909 56.7013516,8.00181818 56.3852093,8.00181818 C56.002832,8.00088312 55.7242698,8.28420779 55.7242698,8.70685714 C55.7242698,9.12903896 56.002832,9.38992208 56.3852093,9.38992208 C56.5794512,9.38992208 56.7004121,9.35205195 56.8152662,9.31581818 L56.8152662,10.1181039 C56.6574299,10.1732727 56.4871452,10.1975844 56.3852093,10.1961818 C55.4875153,10.1975844 54.9480064,9.5767013 54.9480064,8.72041558 C54.9480064,7.86085714 55.4875153,7.21706265 56.3852093,7.21706265 C57.1671096,7.21566234 57.8221772,7.86132468 57.8221772,8.58693506 L57.8221772,10.0061299 C57.8221772,11.012961 57.3049815,11.5251429 56.2820989,11.5251429 C55.9664263,11.5251429 55.6385402,11.4842338 55.3425972,11.3731948 L55.3425972,10.5847013 Z" id="Fill-23" fill="#FEFEFE"></path>
            <path d="M58.9743765,6.41583117 C58.9743765,6.72767532 58.7585602,6.90323377 58.4741214,6.90323377 C58.190703,6.90253247 57.9743765,6.72767532 57.9743765,6.41583117 C57.9743765,6.10024675 58.1896826,5.92351948 58.4741214,5.92585714 C58.7585602,5.92351948 58.9743765,6.10024675 58.9743765,6.41583117 L58.9743765,6.41583117 Z M58.0516724,10.2222468 L58.0526928,7.28918182 L58.89555,7.28918182 L58.89555,10.2241169 L58.0516724,10.2222468 Z" id="Fill-25" fill="#FEFEFE"></path>
            <path d="M60.3135011,7.28925195 L60.3135011,8.03753766 L59.7502698,8.03753766 L59.7502698,9.12244675 C59.7502698,9.34008312 59.859252,9.44925195 60.0166185,9.44925195 L60.3135011,9.44925195 L60.3135011,10.2239532 L59.9074014,10.2239532 C59.1910313,10.2220831 58.9740064,9.8013039 58.9740064,9.14792727 L58.9740064,6.5044987 L59.7509744,6.5044987 L59.7502698,7.28925195 L60.3135011,7.28925195 Z" id="Fill-27" fill="#FEFEFE"></path>
            <path d="M62.3824249,10.224 L62.3824249,8.56846753 C62.3824249,8.21922078 62.1134925,7.9898961 61.690247,7.9898961 C61.3196135,7.9898961 61.0356491,8.32698701 61.0356491,8.75618182 C61.0356491,9.14867532 61.3196135,9.46145455 61.7139694,9.46145455 C61.8833146,9.46145455 62.010852,9.42545455 62.1571794,9.37192208 L62.1571794,10.1732727 C61.9819623,10.2167532 61.8236562,10.245974 61.6658199,10.245974 C60.7570868,10.245974 60.2593858,9.55332468 60.2593858,8.78774026 C60.2593858,7.8458961 60.8897915,7.21706494 61.7022256,7.21706494 C62.5874712,7.218 63.1577488,7.77412987 63.1577488,8.532 L63.1577488,10.224 L62.3824249,10.224 Z" id="Fill-29" fill="#FEFEFE"></path>
            <mask id="mask-6" fill="white">
                <use xlink:href="#path-5"></use>
            </mask>
            <g id="Clip-32"></g>
            <polygon id="Fill-31" fill="#FEFEFE" mask="url(#mask-6)" points="63.3576512 10.2240468 64.1339146 10.2240468 64.1339146 5.99708571 63.3576512 5.99708571"></polygon>
            <path d="M26.8608491,13.5597506 L26.8608491,15.0792312 L28.6717388,15.0792312 C28.4659879,15.7120364 27.7705217,16.2417506 27.0635466,16.2417506 C25.9864078,16.2417506 25.143205,15.3800883 25.143205,14.2806857 C25.143205,13.1817506 25.9864078,12.3200883 27.0635466,12.3200883 C27.6798598,12.3200883 28.3417388,12.5996727 28.7102584,13.0155429 L28.8128989,13.1300883 L29.906479,11.8792052 L29.814173,11.7906078 C28.8793687,10.8929455 27.7395181,10.7047636 26.9486925,10.7047636 C24.9393331,10.7047636 23.364963,12.2927377 23.364963,14.3194909 C23.364963,16.3467117 24.9393331,17.9342182 26.9486925,17.9342182 C29.2739594,17.9342182 30.5126925,16.002374 30.5126925,14.6074909 L30.5126925,13.5597506 L26.8608491,13.5597506 Z" id="Fill-33" fill="#0E5675" mask="url(#mask-6)"></path>
            <path d="M52.1974505,11.6941792 L50.676632,12.6766987 C51.0653509,12.9689065 51.2969381,13.4556078 51.2969381,14.1162312 C51.2969381,14.6029325 51.1675217,14.9919195 50.9455644,15.2820234 L52.5070164,16.1242831 C52.8708384,15.5522571 53.0709523,14.8586727 53.0709523,14.1162312 C53.0709523,13.1839714 52.7576285,12.3288545 52.1974505,11.6941792" id="Fill-34" fill="#FFCA05" mask="url(#mask-6)"></path>
        </g>
    </g>
</svg>