<?xml version="1.0" encoding="UTF-8"?>
<svg width="100px" height="60px" viewBox="0 0 100 60" version="1.1" xmlns="http://www.w3.org/2000/svg" xmlns:xlink="http://www.w3.org/1999/xlink">
    <title>zeropay</title>
    <defs>
        <polygon id="path-1" points="0.0237165217 0.0520113043 14.6810696 0.0520113043 14.6810696 14.7093417 0.0237165217 14.7093417"></polygon>
        <polygon id="path-3" points="0 25.948 53.794113 25.948 53.794113 0.113043478 0 0.113043478"></polygon>
    </defs>
    <g id="zeropay" stroke="none" stroke-width="1" fill="none" fill-rule="evenodd">
        <g id="Group-33" transform="translate(23.000000, 17.000000)">
            <path d="M0,11.6786687 L4.12631304,6.50749478 C4.87635652,5.6232687 5.4659913,4.98016435 6.21603478,4.17642522 L6.21603478,4.12272957 L0.311095652,4.12272957 L0.311095652,0.907433913 L11.1729913,0.907433913 L11.1729913,3.3456687 L7.23421739,8.30273826 C6.51085217,9.16006 5.84106957,9.99070348 5.0908,10.7141817 L5.0908,10.7675383 L11.3874348,10.7675383 L11.3874348,14.0098513 L0,14.0098513 L0,11.6786687 Z" id="Fill-1" fill="#2A3694"></path>
            <path d="M22.0840496,5.97157826 C22.0840496,4.98007391 21.3841974,3.45873478 19.50858,3.45873478 C17.7938235,3.45873478 17.0402757,4.87302174 16.9332235,5.97157826 L22.0840496,5.97157826 Z M16.9599017,8.7581 C17.2012496,10.4756826 18.6235626,11.2501435 20.5260843,11.2501435 C21.6660148,11.2501435 22.618067,10.9019696 23.5469452,10.4187087 L25.0478235,12.8315087 C22.9578757,14.0097609 21.81998,14.2776739 20.0515278,14.2776739 C15.6037191,14.2776739 13.2178235,11.2355609 13.2178235,7.60596087 C13.2178235,4.07301304 15.1810496,0.61263913 19.836067,0.61263913 C23.6039191,0.61263913 25.6771365,3.60297826 25.6771365,7.1505087 C25.6771365,7.84719565 25.5967626,8.46339565 25.54318,8.7581 L16.9599017,8.7581 Z" id="Fill-3" fill="#2A3694"></path>
            <path d="M35.5682374,0.933253043 C34.524733,0.933253043 33.2434983,1.02651391 32.4533243,2.17311391 L32.4533243,0.90747913 L28.3874896,0.90747913 L28.3874896,5.22121826 L28.3874896,14.0097835 L32.4533243,14.0097835 L32.4599939,14.0097835 L32.4599939,7.68545304 C32.4599939,7.36384435 32.4870113,7.0423487 32.5404809,6.77432261 C32.808507,5.5151313 33.8266896,4.71116609 35.3271157,4.71116609 C35.7825678,4.71116609 37.2387939,4.71263565 38.4147852,4.71263565 L38.4147852,0.986948696 C36.1308548,0.933253043 35.9433157,0.933253043 35.5682374,0.933253043" id="Fill-5" fill="#2A3694"></path>
            <path d="M47.1884174,7.23918 C47.1884174,7.54880609 47.4670696,7.63867565 47.7473043,7.63867565 C48.344513,7.63867565 48.4784696,7.16988435 48.4784696,6.54599739 C48.3015565,6.65655391 47.9773478,6.67882348 47.7043478,6.75241478 C47.4242261,6.81888435 47.1884174,6.9367887 47.1884174,7.23918" id="Fill-7" fill="#2A3694"></path>
            <path d="M43.5867052,4.21862435 L42.72814,4.21862435 L42.72814,5.5211113 L43.5867052,5.5211113 C44.0089226,5.5211113 44.3144791,5.36386783 44.3144791,4.88445043 C44.3144791,4.39056348 44.0016878,4.21862435 43.5867052,4.21862435" id="Fill-9" fill="#2A3694"></path>
            <g id="Group-13" transform="translate(39.113043, 0.061043)">
                <mask id="mask-2" fill="white">
                    <use xlink:href="#path-1"></use>
                </mask>
                <g id="Clip-12"></g>
                <path d="M9.46137739,8.27671565 C9.41717739,8.15892435 9.40248174,8.04079391 9.38756,7.9154287 C9.0633513,8.25467217 8.58404696,8.38727217 8.12678609,8.38727217 C7.3967513,8.38727217 6.82158609,8.01875043 6.82158609,7.22970696 C6.82158609,5.98351565 8.17856,6.07937652 9.04865565,5.90257652 C9.26230783,5.85826348 9.38021217,5.78455913 9.38021217,5.54852435 C9.38021217,5.26105478 9.03384696,5.15049826 8.7757687,5.15049826 C8.42906435,5.15049826 8.2079513,5.30525478 8.14894261,5.62968957 L6.97668174,5.62968957 C6.99872522,5.1282287 7.23487304,4.80379391 7.57377739,4.60483739 C7.91313391,4.41311565 8.35558609,4.3394113 8.7903513,4.3394113 C9.69752522,4.3394113 10.5748557,4.53848087 10.5748557,5.62234174 L10.5748557,7.29606348 C10.5748557,7.62049826 10.5748557,7.97455043 10.7223774,8.27671565 L9.46137739,8.27671565 Z M4.67749043,6.52194174 L3.61510783,6.52194174 L3.61510783,8.27671565 L2.30244696,8.27671565 L2.30244696,3.05885478 L4.67749043,3.05885478 C5.64548174,3.05885478 6.49353391,3.48152435 6.49353391,4.72760261 C6.49353391,6.03268957 5.82024696,6.52194174 4.67749043,6.52194174 L4.67749043,6.52194174 Z M13.5384035,8.61584609 C13.2360122,9.45655043 12.7864383,9.61662 11.9383861,9.61662 L11.4142035,9.61662 L11.3482991,8.54225478 L11.7835165,8.54225478 C12.0710991,8.54225478 12.2848643,8.37992435 12.2848643,8.1146113 C12.2848643,7.90808087 12.0415948,7.31822 11.9678904,7.11168957 L10.9796643,4.44996783 L12.307247,4.44996783 L13.0294817,6.79528087 L13.0441774,6.79528087 L13.7669774,4.44996783 L14.067673,4.44996783 C12.9346383,1.86387217 10.3517078,0.0520113043 7.35243826,0.0520113043 C3.31136,0.0520113043 0.0237165217,3.33965478 0.0237165217,7.38062 C0.0237165217,11.4216983 3.31136,14.7093417 7.35243826,14.7093417 C11.3934035,14.7093417 14.68116,11.4216983 14.68116,7.38062 C14.68116,6.86943739 14.6281426,6.37057652 14.5279861,5.88867217 L13.5384035,8.61584609 Z" id="Fill-11" fill="#2A3694" mask="url(#mask-2)"></path>
            </g>
            <path d="M43.5867052,5.5211113 L42.72814,5.5211113 L42.72814,4.21862435 L43.5867052,4.21862435 C44.0016878,4.21862435 44.3144791,4.39056348 44.3144791,4.88445043 C44.3144791,5.36386783 44.0089226,5.5211113 43.5867052,5.5211113 M43.7905226,3.11984174 L41.4154791,3.11984174 L41.4154791,8.33781565 L42.72814,8.33781565 L42.72814,6.5829287 L43.7905226,6.5829287 C44.9332791,6.5829287 45.6065661,6.09378957 45.6065661,4.78858957 C45.6065661,3.54262435 44.7585139,3.11984174 43.7905226,3.11984174" id="Fill-14" fill="#FEFEFE"></path>
            <path d="M47.7473496,7.63863043 C47.4671148,7.63863043 47.1884626,7.54876087 47.1884626,7.23913478 C47.1884626,6.93685652 47.4242713,6.81895217 47.704393,6.75248261 C47.97728,6.67877826 48.3014887,6.6565087 48.4785148,6.54595217 C48.4785148,7.16983913 48.3444452,7.63863043 47.7473496,7.63863043 L47.7473496,7.63863043 Z M49.6878539,5.68343043 C49.6878539,4.59956957 48.8105235,4.40038696 47.9034626,4.40038696 C47.4685843,4.40038696 47.0261322,4.4740913 46.6867757,4.66581304 C46.3478713,4.86488261 46.1117235,5.18931739 46.08968,5.69077826 L47.2619409,5.69077826 C47.3210626,5.36623043 47.5421757,5.21147391 47.888767,5.21147391 C48.1468452,5.21147391 48.4933235,5.32203043 48.4933235,5.60961304 C48.4933235,5.84553478 48.3754191,5.91935217 48.1616539,5.96366522 C47.2916713,6.14046522 45.9346974,6.04460435 45.9346974,7.29079565 C45.9346974,8.07972609 46.5098626,8.44836087 47.2398974,8.44836087 C47.6971583,8.44836087 48.1763496,8.31576087 48.5005583,7.97640435 C48.515593,8.10188261 48.5302887,8.2199 48.5743757,8.33780435 L49.8354887,8.33780435 C49.6878539,8.03552609 49.6878539,7.68147391 49.6878539,7.35703913 L49.6878539,5.68343043 Z" id="Fill-16" fill="#FEFEFE"></path>
            <path d="M52.1572548,6.85632435 L52.1425591,6.85632435 L51.4202113,4.5110113 L50.0926287,4.5110113 L51.0809678,7.17273304 C51.1546722,7.37926348 51.3978287,7.96912435 51.3978287,8.17565478 C51.3978287,8.44096783 51.1841765,8.60329826 50.8965939,8.60329826 L50.4613765,8.60329826 L50.5272809,9.67766348 L51.0514635,9.67766348 C51.8995157,9.67766348 52.3489765,9.51759391 52.6514809,8.67688957 L53.6410635,5.94960261 C53.5371765,5.44949826 53.3811765,4.96849826 53.1807504,4.5110113 L52.8800548,4.5110113 L52.1572548,6.85632435 Z" id="Fill-18" fill="#FEFEFE"></path>
            <path d="M12.4500661,19.7875035 L13.8425357,19.7875035 L13.8425357,18.5915035 L9.67349217,18.5915035 L9.67349217,19.7875035 L11.10304,19.7875035 L11.1036052,19.8986252 C11.1091443,20.6731991 11.1205617,22.4780513 9.47668348,24.0092252 L9.39450087,24.0857557 L10.4017183,24.8853122 L10.4626487,24.8283383 C11.27984,24.063147 11.6826139,23.1259035 11.7259096,23.0215643 C11.7519096,22.9588252 11.7746313,22.9012861 11.7943009,22.8500774 C11.8149878,22.8991383 11.8395183,22.9540774 11.8683443,23.0133122 L11.893327,23.0650861 C12.041753,23.37426 12.3893617,24.0986426 13.0393617,24.7395991 L13.1033443,24.8025643 L14.07224,23.9549643 L13.9868922,23.8823904 C12.4522139,22.5748165 12.4500661,20.7588861 12.4500661,19.7875035" id="Fill-20" fill="#2A3694"></path>
            <path d="M23.4535939,23.3883339 C24.4168374,23.3883339 24.5393765,23.3924035 24.8451591,23.3924035 C25.2573157,23.3924035 25.7483765,23.3919513 26.0922548,23.2581078 L25.9243852,22.0950035 C25.8513591,22.1116209 25.6536461,22.2112122 24.7053243,22.2112122 L20.9807678,22.2112122 L20.9807678,21.4689687 L25.8989504,21.4689687 L25.8989504,18.4150991 L19.7197678,18.4150991 L19.7197678,19.5923339 L24.64722,19.5923339 L24.64722,20.2913948 L19.7197678,20.2913948 L19.7197678,23.388447 L22.1741678,23.388447 L22.1741678,24.4196296 L18.9855504,24.4196296 L18.9855504,25.6061339 L26.6580374,25.6061339 L26.6580374,24.4196296 L23.4535939,24.4196296 L23.4535939,23.3883339 Z" id="Fill-22" fill="#2A3694"></path>
            <polygon id="Fill-24" fill="#2A3694" points="32.866227 20.8373496 31.9565661 20.8373496 31.9565661 22.0333496 32.866227 22.0333496 32.866227 25.9015843 34.1458791 25.9015843 34.1458791 18.1365148 32.866227 18.1365148"></polygon>
            <mask id="mask-4" fill="white">
                <use xlink:href="#path-3"></use>
            </mask>
            <g id="Clip-27"></g>
            <polygon id="Fill-26" fill="#2A3694" mask="url(#mask-4)" points="34.5636087 25.948 35.8429217 25.948 35.8429217 18.0900087 34.5636087 18.0900087"></polygon>
            <polygon id="Fill-28" fill="#2A3694" mask="url(#mask-4)" points="14.5343617 20.8373496 13.6247009 20.8373496 13.6247009 22.0333496 14.5343617 22.0333496 14.5343617 25.9015843 15.8140139 25.9015843 15.8140139 18.1365148 14.5343617 18.1365148"></polygon>
            <polygon id="Fill-29" fill="#2A3694" mask="url(#mask-4)" points="16.231687 25.948 17.511113 25.948 17.511113 18.0900087 16.231687 18.0900087"></polygon>
            <path d="M29.6465565,23.8023217 L30.2415043,23.8023217 L30.2415043,19.7874696 L29.6465565,19.7874696 L29.6465565,23.8023217 Z M31.4162522,23.8023217 C31.4162522,23.678087 31.4177217,19.7874696 31.4177217,19.7874696 L32.0695304,19.7874696 L32.0695304,18.5914696 L27.8429478,18.5914696 L27.8429478,19.7874696 L28.4331478,19.7874696 L28.4358609,23.8023217 L27.8057565,23.8023217 L27.8057565,24.9982087 L31.2460087,24.9982087 C32.1828,24.9982087 32.4503739,24.824913 32.4503739,24.824913 L32.2717652,23.6682522 C32.2717652,23.6682522 32.0229565,23.8023217 31.4162522,23.8023217 L31.4162522,23.8023217 Z" id="Fill-30" fill="#2A3694" mask="url(#mask-4)"></path>
            <polygon id="Fill-31" fill="#2A3694" mask="url(#mask-4)" points="43.1108261 25.948 44.3996348 25.948 44.3996348 18.0900087 43.1108261 18.0900087"></polygon>
            <path d="M39.7077878,23.4743261 C39.0057878,23.4743261 38.5697791,22.7395435 38.5697791,21.5565435 C38.5697791,20.3732043 38.9952748,19.6666826 39.7077878,19.6666826 C40.4146487,19.6666826 40.8364139,20.3732043 40.8364139,21.5565435 C40.8364139,22.7572913 40.4146487,23.4743261 39.7077878,23.4743261 M39.7077878,18.4615261 C38.2338139,18.4615261 37.3182748,19.6474652 37.3182748,21.5565435 C37.3182748,23.4887957 38.2115443,24.6422913 39.7077878,24.6422913 C41.1983791,24.6422913 42.0882574,23.4887957 42.0882574,21.5565435 C42.0882574,19.6474652 41.1759965,18.4615261 39.7077878,18.4615261" id="Fill-32" fill="#2A3694" mask="url(#mask-4)"></path>
        </g>
    </g>
</svg>