<?xml version="1.0" encoding="UTF-8"?>
<svg width="100px" height="60px" viewBox="0 0 100 60" version="1.1" xmlns="http://www.w3.org/2000/svg" xmlns:xlink="http://www.w3.org/1999/xlink">
    <!-- Generator: Sketch 55.2 (78181) - https://sketchapp.com -->
    <title>logo/zum_internet</title>
    <desc>Created with Sketch.</desc>
    <defs>
        <polygon id="path-1" points="0.0473295455 0.0809090909 13.0619886 0.0809090909 13.0619886 9.65095455 0.0473295455 9.65095455"></polygon>
        <polygon id="path-3" points="0.100943182 0.0973295455 9.42764773 0.0973295455 9.42764773 9.77272727 0.100943182 9.77272727"></polygon>
    </defs>
    <g id="logo/zum_internet" stroke="none" stroke-width="1" fill="none" fill-rule="evenodd">
        <g transform="translate(15.000000, 25.000000)">
            <path d="M7.80642045,7.08040909 C7.79380682,7.08040909 4.17732955,7.08052273 4.17732955,7.08052273 C4.17732955,7.08052273 8.33346591,2.47518182 8.33528409,2.47268182 C8.70823864,2.0595 8.67539773,1.53052273 8.67539773,1.53052273 C8.67539773,1.53052273 8.67528409,1.52075 8.67448864,1.50427273 C8.66414773,1.19086364 8.543125,0.90575 8.34914773,0.686318182 C8.34789773,0.684840909 8.346875,0.68325 8.34551136,0.681659091 C8.34482955,0.680977273 8.34403409,0.680295455 8.34335227,0.6795 C8.10494318,0.413704545 7.75903409,0.243590909 7.37392045,0.243590909 C7.37164773,0.243590909 7.369375,0.243704545 7.36710227,0.243818182 C7.36403409,0.243704545 7.36107955,0.243590909 7.358125,0.243590909 C7.358125,0.243590909 1.51926136,0.243477273 1.51551136,0.243477273 C1.51153409,0.243477273 1.50619318,0.243818182 1.50607955,0.243818182 C0.991420455,0.243818182 0.559147727,0.542227273 0.350738636,0.972795455 C0.348238636,0.977909091 0.345625,0.983022727 0.343238636,0.988136364 C0.341420455,0.992 0.339602273,0.996090909 0.337784091,1.00006818 C0.260397727,1.16654545 0.216875,1.35211364 0.216875,1.54779545 C0.216875,1.55006818 0.217102273,1.55222727 0.217102273,1.5545 C0.217102273,1.55688636 0.216875,1.55915909 0.216875,1.56154545 C0.216875,2.16972727 0.626306818,2.66154545 1.18494318,2.80620455 C1.18846591,2.80711364 1.191875,2.80813636 1.19539773,2.80904545 C1.20221591,2.81075 1.20903409,2.81211364 1.21585227,2.81370455 C1.31301136,2.83688636 1.414375,2.84688636 1.51857955,2.84688636 C1.51903409,2.84688636 4.43721591,2.84688636 4.43721591,2.84688636 C4.31198864,2.98802273 0.475625,7.26211364 0.305625,7.45154545 C0.083125,7.6995 5.68181818e-05,7.99336364 5.68181818e-05,8.27711364 C5.68181818e-05,8.29006818 0.000965909091,8.30245455 0.00164772727,8.31495455 C0.000625,8.33722727 5.68181818e-05,8.3595 5.68181818e-05,8.382 L5.68181818e-05,8.38290909 L5.68181818e-05,8.38347727 C5.68181818e-05,9.10961364 0.565056818,9.68359091 1.29130682,9.68359091 L1.30005682,9.68359091 L1.30164773,9.68359091 L1.30323864,9.68359091 C1.59653409,9.68359091 7.77176136,9.68381818 7.80642045,9.68381818 C8.53267045,9.68381818 9.109375,9.10825 9.109375,8.382 C9.109375,7.65575 8.53267045,7.08040909 7.80642045,7.08040909" id="Fill-1" fill="#1B52ED"></path>
            <g id="Group-5" transform="translate(20.340909, 0.032727)">
                <mask id="mask-2" fill="white">
                    <use xlink:href="#path-1"></use>
                </mask>
                <g id="Clip-4"></g>
                <path d="M10.0246023,0.0834545455 C8.95255682,0.0834545455 8.14948864,0.742204545 7.63869318,1.69720455 C7.26676136,1.00072727 6.80676136,0.453340909 6.09403409,0.218113636 C5.82948864,0.130840909 5.49835227,0.0834545455 5.20846591,0.0834545455 C4.35789773,0.0834545455 3.37982955,0.604931818 3.08528409,1.51334091 C3.08517045,1.51288636 3.08482955,1.51243182 3.08471591,1.51186364 C2.91914773,0.821409091 2.430625,0.210954545 1.56596591,0.213568182 C1.56392045,0.213568182 1.56198864,0.213681818 1.55994318,0.213681818 C1.55869318,0.213681818 1.55755682,0.213568182 1.55630682,0.213568182 C1.55403409,0.213568182 1.55176136,0.213795455 1.54948864,0.213795455 C1.54914773,0.213795455 1.54892045,0.213795455 1.54857955,0.213795455 C1.54721591,0.213795455 1.54596591,0.213909091 1.54460227,0.214022727 C0.719829545,0.2255 0.0540340909,0.89425 0.0477840909,1.72027273 L0.0473295455,1.72027273 L0.0473295455,1.93606818 C0.0473295455,1.93765909 0.0473295455,1.93993182 0.0473295455,1.94140909 L0.0475568182,8.12970455 C0.0475568182,8.1305 0.0473295455,8.13140909 0.0473295455,8.13243182 C0.0473295455,8.13334091 0.0475568182,8.13436364 0.0475568182,8.13515909 L0.0475568182,8.15879545 C0.0475568182,8.15970455 0.0473295455,8.16061364 0.0473295455,8.16163636 C0.0473295455,8.803 0.459375,9.34106818 1.029375,9.55311364 C1.03539773,9.5555 1.04142045,9.55788636 1.04744318,9.56004545 C1.05176136,9.56152273 1.05619318,9.563 1.060625,9.56447727 C1.21869318,9.62027273 1.38869318,9.65095455 1.56596591,9.65095455 C1.64471591,9.65095455 1.72210227,9.64504545 1.79767045,9.63345455 C2.52198864,9.52584091 3.08460227,8.91493182 3.08460227,8.16163636 L3.08460227,8.13243182 L3.08448864,3.88686364 C3.08448864,3.88686364 3.08460227,3.88345455 3.08460227,3.88175 C3.08460227,3.32538636 3.50392045,2.81447727 4.06039773,2.81447727 C4.616875,2.81447727 5.03630682,3.32538636 5.03630682,3.88175 C5.03630682,3.88345455 5.03573864,3.88515909 5.03573864,3.88686364 L5.03630682,3.88686364 L5.03619318,8.12618182 C5.03619318,8.12822727 5.03607955,8.13038636 5.03607955,8.13243182 C5.03607955,8.13459091 5.03619318,8.13652273 5.03619318,8.13868182 L5.03619318,8.15538636 C5.03619318,8.15754545 5.03585227,8.15947727 5.03585227,8.16163636 C5.03585227,8.87254545 5.53960227,9.45629545 6.20551136,9.61015909 C6.31767045,9.63652273 6.434375,9.65095455 6.55460227,9.65095455 C6.67482955,9.65095455 6.79164773,9.63652273 6.90380682,9.61015909 C7.56960227,9.45618182 8.07323864,8.87254545 8.07323864,8.16163636 C8.07323864,8.16038636 8.073125,8.15925 8.073125,8.15811364 L8.07323864,8.15811364 L8.07210227,3.84743182 L8.07414773,3.84743182 C8.07414773,3.84572727 8.07369318,3.84413636 8.07369318,3.84243182 C8.07369318,3.28595455 8.49244318,2.81481818 9.04892045,2.81481818 C9.60539773,2.81481818 10.0246023,3.08640909 10.0246023,3.64288636 C10.0246023,3.64459091 10.0246023,3.86061364 10.0246023,3.86231818 L10.0247159,8.10868182 C10.0246023,8.11504545 10.0247159,8.12118182 10.0247159,8.12743182 C10.0247159,8.12913636 10.0246023,8.13072727 10.0246023,8.13243182 C10.0246023,8.13390909 10.0247159,8.13538636 10.0247159,8.13686364 C10.0248295,8.14515909 10.0247159,8.15345455 10.0247159,8.16175 C10.0247159,8.87311364 10.5288068,9.45697727 11.1951705,9.6105 C11.3069886,9.63663636 11.4233523,9.65095455 11.543125,9.65095455 C11.6627841,9.65095455 11.7790341,9.63663636 11.890625,9.61061364 C12.5574432,9.45731818 13.0619886,8.87334091 13.0619886,8.16175 L13.0619886,3.46754545 C12.9286932,-0.135409091 10.0246023,0.0834545455 10.0246023,0.0834545455" id="Fill-3" fill="#1B52ED" mask="url(#mask-2)"></path>
            </g>
            <g id="Group-8" transform="translate(9.659091, 0.146364)">
                <mask id="mask-4" fill="white">
                    <use xlink:href="#path-3"></use>
                </mask>
                <g id="Clip-7"></g>
                <path d="M7.909125,0.0973295455 C7.07048864,0.0973295455 6.39060227,0.777215909 6.39060227,1.61585227 C6.39060227,1.61698864 6.39060227,1.618125 6.39060227,1.61926136 C6.39060227,1.62005682 6.39048864,1.62096591 6.39048864,1.62176136 L6.39048864,5.42801136 C6.39151136,6.27585227 5.564125,6.95164773 4.76435227,6.95164773 C3.83707955,6.95164773 3.13730682,6.155625 3.13832955,5.42801136 L3.13810227,1.63732955 C3.13810227,1.63335227 3.13867045,1.62948864 3.13867045,1.62551136 C3.13867045,1.59926136 3.13798864,1.573125 3.13651136,1.54732955 C3.10071591,0.740511364 2.435375,0.0973295455 1.61969318,0.0973295455 C0.781056818,0.0973295455 0.101170455,0.777215909 0.101170455,1.61585227 L0.101170455,1.61653409 C0.101170455,1.61869318 0.101056818,1.62085227 0.101056818,1.623125 L0.100943182,1.623125 L0.100943182,1.49801136 L0.100943182,1.49801136 L0.101056818,4.78460227 C0.101056818,7.01778409 1.36457955,8.86823864 3.24060227,9.51926136 C3.40503409,9.57880682 4.25582955,9.77278409 4.76423864,9.77278409 C5.84196591,9.77278409 6.90605682,9.378125 7.70117045,8.71960227 C7.73242045,8.69471591 7.85719318,8.58403409 7.85867045,8.58335227 C8.89185227,7.65210227 9.42764773,6.345625 9.42764773,4.78460227 L9.42764773,1.62176136 C9.42764773,1.62096591 9.42753409,1.62028409 9.42753409,1.61960227 C9.42753409,1.61835227 9.42764773,1.61710227 9.42764773,1.61585227 C9.42764773,0.777215909 8.74776136,0.0973295455 7.909125,0.0973295455" id="Fill-6" fill="#1B52ED" mask="url(#mask-4)"></path>
            </g>
            <path d="M36.3643864,2.97673864 C36.7230227,2.97673864 37.0149545,2.68492045 37.0149545,2.32628409 C37.0149545,1.96742045 36.7230227,1.675375 36.3643864,1.675375 C36.0056364,1.675375 35.7137045,1.96742045 35.7137045,2.32628409 C35.7137045,2.68492045 36.0056364,2.97673864 36.3643864,2.97673864" id="Fill-9" fill="#1B52ED"></path>
            <path d="M36.3663295,3.63813636 C36.0087159,3.63813636 35.7178068,3.92893182 35.7178068,4.28654545 L35.7178068,9.03609091 C35.7178068,9.39359091 36.0087159,9.68438636 36.3663295,9.68438636 C36.7239432,9.68438636 37.0148523,9.39359091 37.0148523,9.03609091 L37.0148523,4.28654545 C37.0148523,3.92893182 36.7239432,3.63813636 36.3663295,3.63813636" id="Fill-11" fill="#1B52ED"></path>
            <path d="M61.2345909,3.75082955 L61.2345909,3.75082955 C61.2118636,3.736625 61.1735682,3.71332955 61.1715227,3.71185227 C60.7986818,3.49003409 60.3910682,3.36321591 59.9050455,3.36321591 C59.3935682,3.36321591 59.0082273,3.482875 58.6387955,3.70889773 C58.6344773,3.71207955 58.6282273,3.71628409 58.6219773,3.72060227 C58.6128864,3.72719318 58.6043636,3.73310227 58.6019773,3.73469318 C57.8573182,4.201625 57.4118636,5.00594318 57.4118636,5.88071591 L57.4118636,9.03639773 C57.4118636,9.39401136 57.7037955,9.68469318 58.0609545,9.68469318 C58.4186818,9.68469318 58.713,9.39401136 58.713,9.03639773 L58.713,5.89492045 C58.713,5.56810227 58.8185682,5.25855682 59.0690227,5.027875 C59.3608409,4.73367045 59.6066364,4.66469318 59.9050455,4.66469318 C60.7260682,4.67980682 61.0928864,5.25094318 61.0969773,5.90196591 L61.0969773,9.03639773 C61.0969773,9.39401136 61.3924318,9.68469318 61.7505,9.68469318 C62.1074318,9.68469318 62.3982273,9.39401136 62.3982273,9.03639773 L62.3982273,5.88071591 C62.3982273,5.01628409 61.9639091,4.22003409 61.2345909,3.75082955" id="Fill-13" fill="#1B52ED"></path>
            <path d="M48.9719659,5.92129545 C48.8787841,5.91640909 48.8031023,5.89459091 48.8031023,5.74822727 C48.8031023,4.98231818 49.6370795,4.46118182 50.3379886,4.44561364 C51.0388977,4.44561364 51.7849205,4.98231818 51.7849205,5.74822727 C51.7849205,5.89265909 51.7087841,5.91640909 51.6160568,5.92129545 L48.9719659,5.92129545 Z M52.9904886,6.28606818 C52.9775341,5.97777273 52.9388977,5.69072727 52.8579886,5.41754545 C52.4983295,4.19777273 51.5696932,3.38220455 50.3379886,3.36561364 C49.1067386,3.38220455 48.0642386,4.19777273 47.7038977,5.41754545 C47.624125,5.68845455 47.5786705,5.97913636 47.5718523,6.28606818 C47.5709432,6.32788636 47.5690114,6.36925 47.5696932,6.41163636 C47.5696932,6.43061364 47.5681023,6.44890909 47.5686705,6.46811364 L47.5686705,6.58152273 C47.5686705,7.13118182 47.6886705,7.64061364 47.9019659,8.0805 C48.3657159,9.03754545 49.2387841,9.66947727 50.306625,9.68425 C50.3231023,9.68356818 50.3335568,9.68390909 50.3444659,9.68425 C51.2950341,9.68425 52.0156023,9.39709091 52.5386705,8.68038636 C52.5500341,8.66459091 52.5620795,8.64925 52.5729886,8.63265909 C52.629125,8.54356818 52.6625341,8.43936364 52.6625341,8.32709091 C52.6625341,8.23845455 52.6411705,8.1555 52.6056023,8.0805 C52.512875,7.88504545 52.364125,7.79197727 52.1335568,7.79197727 C51.9521932,7.79197727 51.8077614,7.86322727 51.7011705,7.99368182 C51.6868523,8.01436364 51.6473068,8.05334091 51.6320795,8.07390909 C51.2336705,8.48731818 50.8859432,8.60084091 50.369125,8.60084091 C50.3567386,8.60084091 50.3193523,8.59890909 50.3067386,8.59890909 C49.5679886,8.59890909 48.8031023,7.95004545 48.8031023,7.14743182 C48.8031023,7.01140909 48.8627614,6.97618182 48.9732159,6.97515909 L51.5748068,6.97686364 L51.9125341,6.97686364 L52.3857159,6.97686364 C52.7074205,6.97686364 52.9682159,6.72743182 52.992875,6.41163636 C52.9946932,6.36152273 52.9915114,6.32788636 52.9904886,6.28606818 L52.9904886,6.28606818 Z" id="Fill-15" fill="#1B52ED"></path>
            <path d="M64.7776364,5.92129545 C64.6844545,5.91640909 64.6087727,5.89459091 64.6087727,5.74822727 C64.6087727,4.98231818 65.44275,4.46118182 66.1436591,4.44561364 C66.8445682,4.44561364 67.5905909,4.98231818 67.5905909,5.74822727 C67.5905909,5.89265909 67.5144545,5.91640909 67.4217273,5.92129545 L64.7776364,5.92129545 Z M68.7961591,6.28606818 C68.7832045,5.97777273 68.7445682,5.69072727 68.6637727,5.41754545 C68.304,4.19777273 67.3753636,3.38220455 66.1436591,3.36561364 C64.9124091,3.38220455 63.8699091,4.19777273 63.5096818,5.41754545 C63.4297955,5.68845455 63.3843409,5.97913636 63.3775227,6.28606818 C63.3767273,6.32788636 63.3746818,6.36925 63.3753636,6.41163636 C63.3753636,6.43061364 63.3737727,6.44890909 63.3743409,6.46811364 L63.3743409,6.58152273 C63.3743409,7.13118182 63.4943409,7.64061364 63.7076364,8.0805 C64.1713864,9.03754545 65.0444545,9.66947727 66.1122955,9.68425 C66.1288864,9.68356818 66.1392273,9.68390909 66.1501364,9.68425 C67.1007045,9.68425 67.8212727,9.39709091 68.3443409,8.68038636 C68.3557045,8.66459091 68.36775,8.64925 68.3786591,8.63265909 C68.4347955,8.54356818 68.4682045,8.43936364 68.4682045,8.32709091 C68.4682045,8.23845455 68.4468409,8.1555 68.4112727,8.0805 C68.3185455,7.88504545 68.1697955,7.79197727 67.9392273,7.79197727 C67.7578636,7.79197727 67.6134318,7.86322727 67.5069545,7.99368182 C67.4925227,8.01436364 67.4529773,8.05334091 67.43775,8.07390909 C67.0393409,8.48731818 66.6916136,8.60084091 66.1747955,8.60084091 C66.1624091,8.60084091 66.1250227,8.59890909 66.1124091,8.59890909 C65.3736591,8.59890909 64.6087727,7.95004545 64.6087727,7.14743182 C64.6087727,7.01140909 64.6685455,6.97618182 64.7788864,6.97515909 L67.3804773,6.97686364 L67.7182045,6.97686364 L68.1913864,6.97686364 C68.5130909,6.97686364 68.7738864,6.72743182 68.7985455,6.41163636 C68.8003636,6.36152273 68.7972955,6.32788636 68.7961591,6.28606818 L68.7961591,6.28606818 Z" id="Fill-17" fill="#1B52ED"></path>
            <path d="M46.5768409,8.38467045 C46.5679773,8.38376136 46.5585455,8.38319318 46.5484318,8.38319318 C46.5179773,8.38319318 46.4174091,8.38307955 46.3309318,8.38285227 L46.0186591,8.38285227 L46.0186591,8.38251136 C46.0159318,8.382625 46.0133182,8.38296591 46.0107045,8.38296591 C45.7091136,8.38296591 45.4649091,8.087625 45.4649091,7.78614773 L45.4649091,7.78592045 L45.4649091,7.62944318 L45.4647955,7.62944318 L45.4650227,5.98421591 L45.4647955,4.78523864 L46.4032045,4.78523864 L46.4861591,4.78557955 C46.78525,4.76421591 46.9828636,4.51796591 46.9828636,4.21319318 C46.9828636,3.90171591 46.7354773,3.64955682 46.4267273,3.63807955 L46.38525,3.63807955 L45.4647955,3.63796591 L45.4647955,3.11785227 C45.4480909,2.91819318 45.3097955,2.736375 45.1376364,2.63239773 C45.0396818,2.57307955 44.9275227,2.54194318 44.814,2.54194318 C44.7003636,2.54194318 44.5884318,2.57307955 44.4904773,2.63239773 C44.3065,2.74307955 44.17025,2.93773864 44.1633182,3.15330682 L44.1633182,3.16035227 L44.1633182,3.16353409 L44.1633182,3.16717045 L44.1633182,3.17148864 L44.1633182,3.17319318 L44.1633182,3.30523864 L44.1633182,3.31546591 L44.1633182,3.320125 L44.1633182,3.33501136 L44.1636591,7.48978409 L44.1636591,7.516375 L44.1636591,7.61830682 L44.1636591,7.62944318 L44.1636591,7.78603409 L44.1638864,7.78603409 C44.1638864,8.84535227 45.01025,9.68421591 46.0555909,9.68421591 L46.0555909,9.68432955 L46.0616136,9.68432955 L46.0620682,9.68432955 L46.0624091,9.68432955 L46.1910455,9.68432955 C46.1920682,9.68432955 46.1930909,9.68444318 46.1941136,9.68444318 C46.1941136,9.68410227 46.4694545,9.68444318 46.5425227,9.68421591 C46.5445682,9.68410227 46.5463864,9.68444318 46.5484318,9.68444318 C46.784,9.68444318 46.9899091,9.55944318 47.1042273,9.37228409 C47.1643409,9.273875 47.1996818,9.15853409 47.1996818,9.03455682 C47.1996818,8.68444318 46.9232045,8.39967045 46.5768409,8.38467045" id="Fill-19" fill="#1B52ED"></path>
            <path d="M72.1195,8.38467045 C72.1106364,8.38376136 72.1013182,8.38319318 72.0910909,8.38319318 C72.0606364,8.38319318 71.9600682,8.38307955 71.8735909,8.38285227 L71.5613182,8.38285227 L71.5613182,8.38251136 C71.5585909,8.382625 71.5560909,8.38296591 71.5533636,8.38296591 C71.2518864,8.38296591 71.0075682,8.087625 71.0075682,7.78614773 L71.0075682,7.78592045 L71.0075682,7.62944318 L71.0075682,7.62944318 L71.0076818,5.98421591 L71.0079091,4.80478409 C71.0079091,4.79978409 71.0100682,4.79467045 71.0133636,4.79114773 C71.0171136,4.78751136 71.0221136,4.78523864 71.0273409,4.78523864 L71.9459773,4.78523864 L72.0289318,4.78557955 C72.3279091,4.76421591 72.5256364,4.51796591 72.5256364,4.21319318 C72.5256364,3.90171591 72.27825,3.64955682 71.9693864,3.63807955 L71.9279091,3.63807955 L71.0202955,3.63796591 C71.0100682,3.63796591 71.0075682,3.62932955 71.0075682,3.618875 L71.0075682,3.11785227 C70.9908636,2.91819318 70.8524545,2.736375 70.6804091,2.63239773 C70.5823409,2.57307955 70.4701818,2.54194318 70.3566591,2.54194318 C70.2430227,2.54194318 70.1312045,2.57307955 70.0331364,2.63239773 C69.8491591,2.74307955 69.7129091,2.93773864 69.7059773,3.15330682 L69.7059773,3.16035227 L69.7059773,3.16353409 L69.7059773,3.16717045 L69.7059773,3.17148864 L69.7059773,3.17319318 L69.7059773,3.30523864 L69.7059773,3.31546591 L69.7059773,3.320125 L69.7059773,3.33501136 L69.7063182,7.48978409 L69.7063182,7.516375 L69.7063182,7.61830682 L69.7063182,7.62944318 L69.7063182,7.78603409 L69.7065455,7.78603409 C69.7065455,8.84535227 70.5529091,9.68421591 71.59825,9.68421591 L71.59825,9.68432955 L71.6042727,9.68432955 L71.6047273,9.68432955 L71.6051818,9.68432955 L71.7338182,9.68432955 C71.7348409,9.68432955 71.7358636,9.68444318 71.7368864,9.68444318 C71.7367727,9.68410227 72.0121136,9.68444318 72.0852955,9.68421591 C72.0872273,9.68410227 72.0891591,9.68444318 72.0910909,9.68444318 C72.3267727,9.68444318 72.5325682,9.55944318 72.647,9.37228409 C72.7071136,9.273875 72.7423409,9.15853409 72.7423409,9.03455682 C72.7423409,8.68444318 72.4659773,8.39967045 72.1195,8.38467045" id="Fill-21" fill="#1B52ED"></path>
            <path d="M56.9413864,4.01627273 C56.9413864,3.65843182 56.65025,3.36025 56.2919545,3.36025 C56.2900227,3.36025 56.2879773,3.36047727 56.2858182,3.36047727 C56.2843409,3.36047727 56.28275,3.36025 56.2811591,3.36025 C56.2746818,3.36025 56.2682045,3.36115909 56.2617273,3.36115909 C55.4180909,3.36115909 53.8918409,3.64729545 53.8918409,5.87081818 L53.8895682,9.03672727 C53.8895682,9.394 54.1807045,9.68468182 54.5380909,9.68468182 C54.8953636,9.68468182 55.1865,9.394 55.1865,9.03672727 L55.1885455,6.41536364 C55.1885455,5.11354545 55.4183182,4.66684091 56.1470682,4.66684091 C56.1759318,4.66684091 56.3305909,4.65922727 56.3349091,4.65865909 C56.3771818,4.65525 56.4182045,4.64763636 56.4578636,4.6365 C56.7403636,4.56695455 56.9413864,4.32093182 56.9413864,4.01627273" id="Fill-23" fill="#1B52ED"></path>
            <path d="M41.9185227,3.75082955 L41.9185227,3.75082955 C41.8957955,3.736625 41.8575,3.71332955 41.8555682,3.71185227 C41.4826136,3.49003409 41.075,3.36321591 40.5889773,3.36321591 C40.0775,3.36321591 39.6921591,3.482875 39.3227273,3.70889773 C39.3184091,3.71207955 39.3121591,3.71628409 39.3059091,3.72060227 C39.2968182,3.72719318 39.2882955,3.73310227 39.2859091,3.73469318 C38.54125,4.201625 38.0957955,5.00594318 38.0957955,5.88071591 L38.0957955,9.03639773 C38.0957955,9.39401136 38.3877273,9.68469318 38.745,9.68469318 C39.1026136,9.68469318 39.3969318,9.39401136 39.3969318,9.03639773 L39.3969318,5.89492045 C39.3969318,5.56810227 39.5025,5.25855682 39.7529545,5.027875 C40.0447727,4.73367045 40.2906818,4.66469318 40.5889773,4.66469318 C41.41,4.67980682 41.7768182,5.25094318 41.7809091,5.90196591 L41.7809091,9.03639773 C41.7809091,9.39401136 42.0764773,9.68469318 42.4344318,9.68469318 C42.7913636,9.68469318 43.0821591,9.39401136 43.0821591,9.03639773 L43.0821591,5.88071591 C43.0821591,5.01628409 42.6478409,4.22003409 41.9185227,3.75082955" id="Fill-25" fill="#1B52ED"></path>
        </g>
    </g>
</svg>