<?xml version="1.0" encoding="utf-8"?>
<!-- Generator: Adobe Illustrator 26.3.1, SVG Export Plug-In . SVG Version: 6.00 Build 0)  -->
<svg version="1.1" id="레이어_1" xmlns="http://www.w3.org/2000/svg" xmlns:xlink="http://www.w3.org/1999/xlink" x="0px"
	 y="0px" viewBox="0 0 80 80" style="enable-background:new 0 0 80 80;" xml:space="preserve">
<style type="text/css">
	.st0{fill:#0B5567;}
	.st1{fill:#15A9CE;}
</style>
<g id="akka">
	<g id="akka_full_color" transform="translate(10.000000, 19.000000)">
		<path id="Path" class="st0" d="M50.7,41c9.1,7.3,14.9-14.4,0.4-18.4C39,19.2,26.8,24.9,14.5,38.4C14.5,38.4,37.1,30.1,50.7,41
			L50.7,41z"/>
		<path id="Path_00000109732207541503662170000001778829514094041481_" class="st1" d="M14.7,38.2c8.7-9,23.2-19.1,36.7-15.4
			c3.1,0.9,5.4,2.7,6.8,4.9L45.4,2c-1.8-2.9-6.5-2.3-9.1-0.1L2.6,30.2c-3.1,2.6-3.2,7.3-0.4,10.2c2.5,2.5,6.5,2.7,9.2,0.5L14.7,38.2
			z"/>
	</g>
</g>
</svg>
