<?xml version="1.0" encoding="utf-8"?>
<!-- Generator: Adobe Illustrator 26.3.1, SVG Export Plug-In . SVG Version: 6.00 Build 0)  -->
<svg version="1.1" id="레이어_1" xmlns="http://www.w3.org/2000/svg" xmlns:xlink="http://www.w3.org/1999/xlink" x="0px"
	 y="0px" viewBox="0 0 80 80" style="enable-background:new 0 0 80 80;" xml:space="preserve">
<style type="text/css">
	.st0{fill-rule:evenodd;clip-rule:evenodd;fill:#996DAD;}
	.st1{fill-rule:evenodd;clip-rule:evenodd;fill:#86519D;}
</style>
<g id="aks">
	<g id="Group-16">
		<g id="Group-15" transform="translate(5.000000, 14.000000)">
			<polygon id="Fill-1" class="st0" points="21.3,0 21.3,17.3 32,13.2 32,3.7 			"/>
			<path id="Fill-2" class="st1" d="M18.6,15.3l-2.2-0.6v-12L18.6,2V15.3z M15.6,14.5L14,14V3.4l1.6-0.5V14.5z M13.2,13.7L12,13.4
				V3.9l1.2-0.3V13.7z M11.6,2.9v11.5l8,2.8V0.1L11.6,2.9z"/>
			<polygon id="Fill-3" class="st0" points="46.4,0 46.4,17.3 57.1,13.2 57.1,3.7 			"/>
			<path id="Fill-4" class="st1" d="M43.6,15.3l-2.2-0.6v-12L43.6,2V15.3z M40.7,14.5L39,14V3.4l1.6-0.5V14.5z M38.3,13.7l-1.2-0.3
				V3.9l1.2-0.3V13.7z M36.6,2.9v11.5l8,2.8V0.1L36.6,2.9z"/>
			<polygon id="Fill-5" class="st0" points="21.3,51.9 32,47.7 32,38.3 21.3,34.6 			"/>
			<path id="Fill-6" class="st1" d="M11.6,37.5V49l8,2.8V34.7L11.6,37.5z M16.4,49.2v-12l2.2-0.6v13.3L16.4,49.2z M14,48.5V37.9
				l1.6-0.5V49L14,48.5z M12,48v-9.4l1.2-0.3v10.1L12,48z"/>
			<polygon id="Fill-7" class="st0" points="46.4,51.9 57.1,47.7 57.1,38.3 46.4,34.6 			"/>
			<path id="Fill-8" class="st1" d="M36.6,37.5V49l8,2.8V34.7L36.6,37.5z M41.4,49.2v-12l2.2-0.6v13.3L41.4,49.2z M39,48.5V37.9
				l1.6-0.5V49L39,48.5z M37.1,48v-9.4l1.2-0.3v10.1L37.1,48z"/>
			<polygon id="Fill-9" class="st0" points="45.4,20.9 34.8,17.2 34.8,34.5 45.4,30.3 			"/>
			<path id="Fill-10" class="st1" d="M32,32.5l-2.2-0.6v-12l2.2-0.6V32.5z M29,31.6l-1.6-0.5V20.5l1.6-0.5V31.6z M26.6,30.9
				l-1.2-0.3v-9.4l1.2-0.3V30.9z M25,20.1v11.5l8,2.8V17.3L25,20.1z"/>
			<polygon id="Fill-11" class="st0" points="20.4,20.9 9.8,17.2 9.8,34.5 20.4,30.3 			"/>
			<path id="Fill-12" class="st1" d="M0,20.1v11.5l8,2.8V17.3L0,20.1z M4.8,31.8v-12L7,19.2v13.3L4.8,31.8z M2.4,31.1V20.5L4,20.1
				v11.6L2.4,31.1z M0.5,30.6v-9.4l1.2-0.3v10.1L0.5,30.6z"/>
			<polygon id="Fill-13" class="st0" points="59.3,34.5 70,30.3 70,20.9 59.3,17.2 			"/>
			<path id="Fill-14" class="st1" d="M56.6,32.5l-2.2-0.6v-12l2.2-0.6V32.5z M53.6,31.6L52,31.1V20.5l1.6-0.5V31.6z M51.2,30.9
				L50,30.6v-9.4l1.2-0.3V30.9z M49.6,20.1v11.5l8,2.8V17.3L49.6,20.1z"/>
		</g>
	</g>
</g>
</svg>
