<?xml version="1.0" encoding="UTF-8"?>
<svg width="80px" height="80px" viewBox="0 0 80 80" version="1.1" xmlns="http://www.w3.org/2000/svg" xmlns:xlink="http://www.w3.org/1999/xlink">
    <!-- Generator: Sketch 59.1 (86144) - https://sketch.com -->
    <title>altibase</title>
    <desc>Created with Sketch.</desc>
    <defs>
        <polygon id="path-1" points="0 0.802962963 14.7272593 0.802962963 14.7272593 13.2517037 0 13.2517037"></polygon>
        <polygon id="path-3" points="0.926992089 0.731111111 2.40847357 0.731111111 2.40847357 1.48148148 0.926992089 1.48148148"></polygon>
        <polygon id="path-5" points="0.505925926 0.73111947 1.98740741 0.73111947 1.98740741 1.48148148 0.505925926 1.48148148"></polygon>
        <polygon id="path-7" points="0.689314815 0.73362963 2.1707963 0.73362963 2.1707963 1.48148148 0.689314815 1.48148148"></polygon>
        <polygon id="path-9" points="0.827407407 0.73362963 2.30888889 0.73362963 2.30888889 1.48148148 0.827407407 1.48148148"></polygon>
        <polygon id="path-11" points="0.76312164 0.732592593 2.24460312 0.732592593 2.24460312 1.48148148 0.76312164 1.48148148"></polygon>
    </defs>
    <g id="altibase" stroke="none" stroke-width="1" fill="none" fill-rule="evenodd">
        <g id="Group-33" transform="translate(0.000000, 32.000000)">
            <g id="Group-3" transform="translate(0.000000, 0.679215)">
                <mask id="mask-2" fill="white">
                    <use xlink:href="#path-1"></use>
                </mask>
                <g id="Clip-2"></g>
                <path d="M-0.000148148148,13.228 C0.0368888889,13.2294815 0.0546666667,13.1968889 0.0783703704,13.1776296 C1.74503704,11.7672593 3.41318519,10.3568889 5.08133333,8.94651852 C6.85466667,7.44577778 8.62948148,5.94355556 10.4028148,4.44281481 C11.825037,3.23985185 13.2472593,2.03540741 14.670963,0.832444444 C14.6842963,0.822074074 14.6976296,0.813185185 14.7124444,0.802814815 C14.7361481,0.822074074 14.7242963,0.848740741 14.7242963,0.869481481 C14.7257778,4.9642963 14.7257778,9.06059259 14.7272593,13.1568889 C14.7272593,13.2398519 14.7020741,13.2502222 14.6294815,13.2502222 C13.8398519,13.2472593 13.0517037,13.2472593 12.2605926,13.2517037 C12.1657778,13.2517037 12.150963,13.2220741 12.150963,13.1361481 C12.1539259,10.8028148 12.1524444,8.47096296 12.1524444,6.13762963 L12.1524444,6.02651852 C12.0783704,6.08725926 12.0161481,6.13762963 11.9554074,6.19096296 L5.39837037,11.7568889 C4.83392593,12.2354074 4.27096296,12.7124444 3.708,13.1924444 C3.668,13.2265185 3.628,13.2502222 3.56874074,13.2502222 C2.40577778,13.2487407 1.24281481,13.2487407 0.0798518519,13.2487407 C0.0517037037,13.2487407 0.0265185185,13.2472593 -0.000148148148,13.2457778 L-0.000148148148,13.228 Z" id="Fill-1" fill="#013F7E" mask="url(#mask-2)"></path>
            </g>
            <path d="M62.2004444,13.9977333 C61.7974815,13.9710667 61.3974815,13.9281037 61.0108148,13.8036593 C60.3915556,13.6066222 60.0345185,13.1858815 59.9234074,12.5488444 C59.8597037,12.1844 59.8804444,11.8155111 59.876,11.4481037 C59.876,11.4095852 59.8893333,11.3977333 59.9278519,11.3992148 C60.0063704,11.4006963 60.0848889,11.3992148 60.1648889,11.3992148 C60.8271111,11.3992148 61.4908148,11.4021778 62.156,11.3977333 C62.236,11.3977333 62.2582222,11.4199556 62.2552593,11.4999556 C62.2508148,11.5977333 62.2700741,11.6969926 62.2922963,11.7932889 C62.3619259,12.0792148 62.5322963,12.2229185 62.833037,12.261437 C62.953037,12.2747704 63.0715556,12.2806963 63.1915556,12.2806963 L66.236,12.2806963 C66.4019259,12.2806963 66.5678519,12.2732889 66.7308148,12.2303259 C67.0478519,12.1429185 67.1900741,11.9592148 67.1900741,11.627363 C67.1915556,11.2644 67.073037,11.1147704 66.716,11.0362519 C66.4122963,10.9710667 66.1041481,10.9547704 65.7945185,10.9444 C65.0226667,10.9162519 64.2508148,10.9266222 63.478963,10.9192148 C62.8508148,10.9147704 62.2241481,10.8984741 61.6019259,10.8066222 C61.3382222,10.7681037 61.0804444,10.7103259 60.8300741,10.6169926 C60.3337778,10.4318074 60.0478519,10.0762519 59.9545185,9.55921481 C59.8700741,9.07773333 59.8774815,8.59032593 59.8967407,8.10291852 C59.9071111,7.85551111 59.9397037,7.60958519 60.0152593,7.37106667 C60.1797037,6.85699259 60.553037,6.55477037 61.0434074,6.37551111 C61.4197037,6.23921481 61.8108148,6.18143704 62.2078519,6.14736296 C62.8197037,6.09699259 63.4345185,6.11773333 64.0478519,6.11625185 C64.836,6.11328889 65.6271111,6.11032593 66.4152593,6.11773333 C66.956,6.12217778 67.4952593,6.15477037 68.0197037,6.30588148 C68.3011852,6.38736296 68.5663704,6.50588148 68.7900741,6.7044 C69.0848889,6.96662222 69.2122963,7.31032593 69.2685926,7.6881037 C69.3145185,7.98588148 69.3071111,8.2881037 69.3085926,8.58736296 C69.3100741,8.63921481 69.2908148,8.65106667 69.2434074,8.65106667 C68.4952593,8.64958519 67.7456296,8.64958519 66.9974815,8.65106667 C66.9456296,8.65106667 66.9352593,8.63180741 66.9352593,8.58588148 C66.9352593,8.48365926 66.9278519,8.38143704 66.9071111,8.28217778 C66.8700741,8.11477037 66.7693333,8.00958519 66.6137778,7.94884444 C66.393037,7.86588148 66.1619259,7.85254815 65.9322963,7.85106667 C64.9885926,7.84662222 64.0434074,7.8481037 63.0982222,7.85106667 C62.9100741,7.85106667 62.7219259,7.8806963 62.5485926,7.97106667 C62.3782222,8.05995556 62.2804444,8.19773333 62.2641481,8.39328889 C62.2582222,8.47773333 62.2626667,8.56217778 62.2745185,8.64662222 C62.3011852,8.82884444 62.4122963,8.94291852 62.5856296,9.0006963 C62.8256296,9.0806963 63.0774815,9.09551111 63.3278519,9.10736296 C64.0493333,9.14143704 64.7708148,9.1206963 65.4937778,9.12514074 C66.1411852,9.1281037 66.7900741,9.13402963 67.436,9.19773333 C67.8108148,9.23328889 68.1826667,9.29254815 68.5397037,9.42143704 C69.0685926,9.61106667 69.4063704,9.97551111 69.5248889,10.5221778 C69.6774815,11.2110667 69.673037,11.907363 69.5411852,12.5992148 C69.4167407,13.2540296 68.996,13.6318074 68.3663704,13.8021778 C67.9811852,13.9058815 67.5885926,13.9503259 67.1915556,13.9769926 C67.0656296,13.9858815 66.9397037,13.9918074 66.8152593,13.9977333 C66.7737778,14.0095852 66.7337778,14.0006963 66.6908148,14.0036593 L66.5367407,14.0036593 C66.4656296,14.0095852 66.393037,13.9918074 66.3234074,14.0125481 L62.5352593,14.0125481 C62.4537778,13.9932889 62.3722963,14.0081037 62.2922963,14.0036593 C62.2611852,14.0006963 62.2300741,14.0095852 62.2004444,13.9977333" id="Fill-4" fill="#013F7E"></path>
            <g id="Group-8" transform="translate(60.740741, 12.531067)">
                <mask id="mask-4" fill="white">
                    <use xlink:href="#path-3"></use>
                </mask>
                <g id="Clip-7"></g>
                <path d="M1.54651852,1.46518519 C1.62948148,1.46666667 1.71244444,1.45037037 1.79392593,1.48148148 L1.548,1.48148148 C1.54207407,1.47851852 1.54059259,1.47407407 1.54207407,1.47111111 C1.54355556,1.46666667 1.54503704,1.46518519 1.54651852,1.46518519" id="Fill-6" fill="#587FA7" mask="url(#mask-4)"></path>
            </g>
            <g id="Group-11" transform="translate(65.185185, 12.531067)">
                <mask id="mask-6" fill="white">
                    <use xlink:href="#path-5"></use>
                </mask>
                <g id="Clip-10"></g>
                <path d="M1.13851852,1.48177778 C1.20666667,1.44622222 1.27925926,1.46992593 1.35037037,1.46696296 C1.35481481,1.47140741 1.35481481,1.47437037 1.35481481,1.47733333 C1.35185185,1.4802963 1.35037037,1.48177778 1.34888889,1.48177778 L1.13851852,1.48177778 Z" id="Fill-9" fill="#3E6B9C" mask="url(#mask-6)"></path>
            </g>
            <g id="Group-14" transform="translate(65.185185, 12.531067)">
                <mask id="mask-8" fill="white">
                    <use xlink:href="#path-7"></use>
                </mask>
                <g id="Clip-13"></g>
                <path d="M1.3482963,1.48177778 C1.3482963,1.47733333 1.34977778,1.47140741 1.34977778,1.46696296 L1.50681481,1.46696296 C1.51125926,1.46992593 1.51274074,1.47437037 1.51125926,1.47733333 C1.50977778,1.4802963 1.50681481,1.48177778 1.50533333,1.48177778 L1.3482963,1.48177778 Z" id="Fill-12" fill="#7A99B9" mask="url(#mask-8)"></path>
            </g>
            <g id="Group-17" transform="translate(65.185185, 12.531067)">
                <mask id="mask-10" fill="white">
                    <use xlink:href="#path-9"></use>
                </mask>
                <g id="Clip-16"></g>
                <path d="M1.50592593,1.48177778 C1.50592593,1.47733333 1.50592593,1.47140741 1.50740741,1.46696296 L1.63037037,1.46696296 C1.62888889,1.47140741 1.62888889,1.47733333 1.62888889,1.48177778 L1.50592593,1.48177778 Z" id="Fill-15" fill="#BECDDD" mask="url(#mask-10)"></path>
            </g>
            <g id="Group-20" transform="translate(60.740741, 12.531067)">
                <mask id="mask-12" fill="white">
                    <use xlink:href="#path-11"></use>
                </mask>
                <g id="Clip-19"></g>
                <path d="M1.54651852,1.46518519 C1.548,1.46962963 1.54948148,1.47555556 1.548,1.48148148 L1.45911111,1.48148148 C1.46059259,1.47703704 1.45911111,1.47111111 1.45911111,1.46666667 C1.48874074,1.46518519 1.51688889,1.46518519 1.54651852,1.46518519" id="Fill-18" fill="#BECDDD" mask="url(#mask-12)"></path>
            </g>
            <path d="M75.2820741,13.9275111 C73.885037,13.9275111 72.488,13.9275111 71.090963,13.9304741 C70.9976296,13.9304741 70.9842963,13.9023259 70.9842963,13.819363 C70.9872593,11.3156593 70.9872593,8.81047407 70.9842963,6.30528889 C70.9842963,6.22232593 71.0020741,6.20158519 71.088,6.20158519 C73.8420741,6.20306667 76.5961481,6.20306667 79.3487407,6.20158519 C79.4317037,6.20158519 79.4494815,6.22380741 79.4494815,6.30232593 C79.445037,6.83862222 79.4465185,7.3764 79.4494815,7.9126963 C79.4494815,7.98677037 79.4272593,8.00306667 79.3561481,8.00306667 C77.3917037,8.00158519 75.4272593,8.00158519 73.4628148,8.0001037 C73.3783704,8.0001037 73.3561481,8.01788148 73.3576296,8.10380741 C73.3635556,8.44751111 73.3620741,8.7926963 73.3576296,9.13788148 C73.3561481,9.21491852 73.3768889,9.2326963 73.4539259,9.2326963 C75.3102222,9.22973333 77.165037,9.23121481 79.0213333,9.22825185 C79.1087407,9.22825185 79.1324444,9.24751111 79.130963,9.3364 C79.1265185,9.80602963 79.1265185,10.2756593 79.130963,10.7467704 C79.130963,10.8238074 79.1117037,10.8415852 79.0346667,10.8415852 C77.1783704,10.8386222 75.3220741,10.8401037 73.4657778,10.8371407 C73.3754074,10.8371407 73.3561481,10.8608444 73.3576296,10.9467704 C73.3635556,11.2919556 73.3620741,11.6356593 73.3576296,11.9808444 C73.3561481,12.0549185 73.3798519,12.0697333 73.450963,12.0697333 C75.4613333,12.0682519 77.4731852,12.0697333 79.4835556,12.0667704 C79.570963,12.0652889 79.5857778,12.0875111 79.5857778,12.1704741 C79.5813333,12.7245481 79.5813333,13.2801037 79.5857778,13.8341778 C79.5857778,13.9097333 79.570963,13.9289926 79.4924444,13.9289926 C78.0894815,13.9275111 76.685037,13.9275111 75.2820741,13.9275111" id="Fill-21" fill="#013F7E"></path>
            <path d="M27.2945185,6.20321481 C28.7641481,6.20321481 30.2352593,6.20321481 31.7063704,6.20173333 C31.7878519,6.20173333 31.8042094,6.22395556 31.8042094,6.30099259 C31.8011852,6.88025185 31.7997037,7.45802963 31.8042094,8.03580741 C31.8056296,8.11580741 31.7804444,8.12914074 31.7078519,8.12914074 C30.6663704,8.12617778 29.6263704,8.12617778 28.5863704,8.12617778 C28.4693333,8.12617778 28.4693333,8.12617778 28.4693333,8.24025185 C28.4693333,10.1009926 28.4693333,11.9646963 28.4708148,13.8269185 C28.4722963,13.911363 28.4515556,13.9306222 28.3685926,13.9291407 C27.6515556,13.9261778 26.936,13.9276593 26.218963,13.9276593 C26.0915556,13.9276593 26.0915556,13.9276593 26.0915556,13.8046963 C26.0915556,11.9484 26.0915556,10.0921037 26.093037,8.23580741 C26.0945185,8.14099259 26.0663704,8.1246963 25.978963,8.1246963 C24.938963,8.12765926 23.8974815,8.12617778 22.8574815,8.12914074 C22.7774815,8.12914074 22.7626667,8.10691852 22.7626667,8.03284444 C22.7671111,7.45506667 22.7671111,6.87728889 22.7626667,6.29802963 C22.7626667,6.21506667 22.7893333,6.20173333 22.8663704,6.20173333 C24.3419259,6.20321481 25.818963,6.20321481 27.2945185,6.20321481" id="Fill-23" fill="#013F7E"></path>
            <path d="M16.5435556,10.0632148 C16.5435556,8.8084 16.545037,7.55358519 16.5420741,6.29728889 C16.5420741,6.22173333 16.5598519,6.20099259 16.6368889,6.20099259 C17.3687407,6.20543704 18.0991111,6.20543704 18.830963,6.20099259 C18.9094815,6.20099259 18.9257778,6.22173333 18.9257778,6.29728889 C18.9228148,8.14617778 18.9242963,9.99358519 18.9213333,11.8409926 C18.9213333,11.9269185 18.945037,11.9446963 19.028,11.9446963 C20.7346667,11.9417333 22.4413333,11.9432148 24.1494815,11.9402519 C24.2354074,11.9402519 24.2531852,11.9639556 24.2531852,12.0469185 C24.2487407,12.645437 24.2502222,13.2424741 24.2517037,13.8409926 C24.2531852,13.9091407 24.2368889,13.9298815 24.1672593,13.9298815 C21.6546667,13.9269185 19.145037,13.9269185 16.6339259,13.9298815 C16.5613333,13.9298815 16.5420741,13.9106222 16.5420741,13.8380296 C16.545037,12.5802519 16.5435556,11.3224741 16.5435556,10.0632148" id="Fill-25" fill="#013F7E"></path>
            <path d="M33.4894815,10.0624741 C33.4894815,8.80765926 33.4894815,7.55284444 33.4865185,6.29654815 C33.4865185,6.21951111 33.5057778,6.20025185 33.5828148,6.20173333 C34.3117037,6.2046963 35.0391111,6.2046963 35.7665185,6.20173333 C35.850963,6.20025185 35.8657778,6.2284 35.8657778,6.30395556 C35.8642963,8.81358519 35.8642963,11.3246963 35.8657778,13.8343259 C35.8657778,13.9128444 35.8465185,13.9306222 35.768,13.9291407 C35.0405926,13.9261778 34.3131852,13.9261778 33.5842963,13.9291407 C33.5013333,13.9306222 33.4865185,13.9039556 33.4865185,13.8284 C33.4894815,12.5721037 33.4894815,11.3172889 33.4894815,10.0624741" id="Fill-27" fill="#013F7E"></path>
            <path d="M44.9521481,11.621437 C44.921037,11.8110667 44.8084444,11.9340296 44.6277037,11.9992148 C44.484,12.0510667 44.3328889,12.067363 44.1802963,12.067363 C42.7684444,12.0688444 41.3565926,12.067363 39.9462222,12.0703259 C39.8736296,12.0703259 39.8543704,12.0540296 39.8543704,11.9799556 C39.8588148,11.6406963 39.8588148,11.3029185 39.8543704,10.9636593 C39.8543704,10.8881037 39.8721481,10.8658815 39.9506667,10.867363 C40.6751111,10.8703259 41.401037,10.8688444 42.1254815,10.8688444 C42.7965926,10.8688444 43.4691852,10.8688444 44.1402963,10.8688444 C44.2751111,10.8688444 44.4099259,10.8792148 44.5402963,10.9132889 C44.7891852,10.9784741 44.926963,11.1384741 44.9551111,11.3947704 C44.964,11.4688444 44.9654815,11.5458815 44.9521481,11.621437 M39.8543704,8.15180741 C39.8528889,8.07032593 39.8780741,8.05847407 39.9521481,8.05847407 C40.6514074,8.06143704 41.3491852,8.05995556 42.046963,8.05995556 C42.6973333,8.05995556 43.3447407,8.05995556 43.9936296,8.05995556 C44.1047407,8.05995556 44.2158519,8.06588148 44.324,8.09106667 C44.564,8.1444 44.6914074,8.27921481 44.7358519,8.5206963 C44.7551111,8.63328889 44.7506667,8.74736296 44.7284444,8.85847407 C44.681037,9.07180741 44.5165926,9.21254815 44.2736296,9.24662222 C44.1891852,9.25995556 44.1062222,9.26588148 44.0202963,9.26588148 C42.6647407,9.26588148 41.3091852,9.2644 39.9536296,9.26736296 C39.8721481,9.26736296 39.8543704,9.24662222 39.8543704,9.1681037 C39.8588148,8.82884444 39.8588148,8.49106667 39.8543704,8.15180741 M47.3358519,11.1725481 C47.2247407,10.5977333 46.884,10.2332889 46.3121481,10.0925481 C46.204,10.0658815 46.0928889,10.0481037 45.9654815,10.0229185 C46.0499259,9.97402963 46.1299259,9.95773333 46.2054815,9.93254815 C46.6662222,9.77995556 46.9462222,9.46884444 47.0484444,8.99328889 C47.1328889,8.59773333 47.1447407,8.2006963 47.0928889,7.80217778 C47.0054815,7.11921481 46.6365926,6.65847407 45.9847407,6.42736296 C45.5047407,6.25551111 45.004,6.20662222 44.5017778,6.20514074 C42.1965926,6.2006963 39.8899259,6.20365926 37.5817778,6.2006963 C37.5032593,6.2006963 37.484,6.22143704 37.484,6.30143704 C37.4854815,8.81106667 37.4854815,11.3206963 37.484,13.8318074 C37.484,13.9132889 37.5077037,13.9295852 37.5832593,13.9295852 C40.1017778,13.9281037 42.6173333,13.9281037 45.1343704,13.9281037 C45.4351111,13.9281037 45.7343704,13.9029185 46.0306667,13.8377333 C46.7328889,13.6821778 47.1862222,13.2718074 47.3343704,12.5547704 C47.4291852,12.0940296 47.4247407,11.6318074 47.3358519,11.1725481" id="Fill-29" fill="#013F7E"></path>
            <path d="M52.0977778,10.8878074 C52.5911111,9.93077037 53.0844444,8.97373333 53.5851852,8.00336296 C54.0992593,8.97373333 54.602963,9.92632593 55.1140741,10.8878074 L52.0977778,10.8878074 Z M59.3348148,13.8315111 C57.9496296,11.3159556 56.5659259,8.79891852 55.1807407,6.28188148 C55.1496296,6.22262222 55.1140741,6.2004 55.0459259,6.2004 C54.0844444,6.20336296 53.1214815,6.20336296 52.16,6.2004 C52.0725926,6.2004 52.0281481,6.22706667 51.9881481,6.3041037 C50.6311111,8.81225185 49.2711111,11.3189185 47.9111111,13.8255852 C47.8948148,13.8552148 47.8696296,13.8818815 47.8710486,13.923363 C47.8859259,13.9248444 47.9007407,13.9278074 47.9140741,13.9278074 C48.7585185,13.9278074 49.602963,13.9263259 50.4488889,13.9292889 C50.5096296,13.9292889 50.5274074,13.8981778 50.5496296,13.8552148 C50.7555556,13.4492889 50.9614815,13.0463259 51.1644444,12.6389185 C51.197037,12.5766963 51.2311111,12.5604 51.2977778,12.5604 C52.8385185,12.5618815 54.3777778,12.5618815 55.9185185,12.5604 C55.9822222,12.5589185 56.0162963,12.5766963 56.0459259,12.6344741 C56.2651852,13.043363 56.4874074,13.4492889 56.7037037,13.8581778 C56.7333333,13.9144741 56.7659259,13.9292889 56.8251852,13.9292889 C57.4548148,13.9278074 58.082963,13.9278074 58.7111111,13.9278074 C58.9303704,13.9278074 59.1496296,13.9278074 59.3851852,13.9278074 C59.362963,13.8863259 59.3511111,13.8581778 59.3348148,13.8315111 L59.3348148,13.8315111 Z" id="Fill-31" fill="#013F7E"></path>
        </g>
    </g>
</svg>