<?xml version="1.0" encoding="utf-8"?>
<!-- Generator: Adobe Illustrator 26.3.1, SVG Export Plug-In . SVG Version: 6.00 Build 0)  -->
<svg version="1.1" id="레이어_1" xmlns="http://www.w3.org/2000/svg" xmlns:xlink="http://www.w3.org/1999/xlink" x="0px"
	 y="0px" viewBox="0 0 80 80" style="enable-background:new 0 0 80 80;" xml:space="preserve">
<style type="text/css">
	.st0{fill-rule:evenodd;clip-rule:evenodd;fill:#326DE6;}
	.st1{fill-rule:evenodd;clip-rule:evenodd;fill:#FFFFFF;}
</style>
<g id="bare_metal-">
	<g id="Group" transform="translate(9.000000, 10.000000)">
		<path id="Combined-S" class="st0" d="M62.3,36.6l-5.4-23.2c-0.4-1.1-1.2-2.1-2.3-2.6L32.8,0.4C32.3,0.1,31.6,0,31.1,0
			s-1.2,0-1.8,0.1L7.6,10.6c-1.1,0.5-1.9,1.4-2.1,2.6L0.1,36.6C-0.1,37.8,0.1,39,0.9,40l15,18.5c0.9,0.9,2.1,1.4,3.3,1.5h23.9
			c1.3,0.1,2.5-0.4,3.3-1.5l15-18.5C62.1,39,62.4,37.8,62.3,36.6"/>
		<path id="Path" class="st1" d="M53.4,38.1c-0.1,0-0.2,0-0.4-0.1C52.9,38,52.9,38,52.9,38c-0.1,0-0.2-0.1-0.3-0.1
			c-0.3-0.1-0.5-0.2-0.8-0.4c-0.1,0-0.3-0.1-0.4-0.1h-0.1c-0.7-0.3-1.5-0.5-2.3-0.6h-0.1c-0.2,0-0.4,0.1-0.6,0.2c0,0,0,0.1-0.1,0.1
			L47.7,37c-1.3,4-4.1,7.5-7.7,9.7l0.2,0.6c0,0-0.1,0-0.1,0.1C40,47.5,40,47.8,40.1,48c0.3,0.7,0.6,1.4,1.1,2.1v0.1
			c0.1,0.1,0.2,0.2,0.3,0.4c0.2,0.2,0.4,0.4,0.5,0.7c0.1,0.1,0.1,0.1,0.1,0.2c0,0,0.1,0,0.1,0.1c0.1,0.4,0.1,0.7,0.1,1.1
			c-0.1,0.4-0.4,0.6-0.6,0.8c-0.2,0.1-0.4,0.1-0.6,0.1c-0.6,0-1.1-0.4-1.4-0.9c-0.1,0-0.1-0.1-0.1-0.1c-0.1-0.1-0.1-0.1-0.1-0.2
			c-0.1-0.2-0.2-0.5-0.3-0.8l-0.1-0.4v-0.1c-0.2-0.8-0.6-1.5-0.9-2.2c-0.1-0.2-0.4-0.4-0.6-0.4c0-0.1,0-0.1-0.1-0.1l-0.3-0.5
			c-0.7,0.2-1.5,0.5-2.3,0.6c-1.3,0.4-2.6,0.5-3.8,0.5c-2.1,0-4.2-0.4-6.2-1.1l-0.3,0.6c0,0.1,0,0.1-0.1,0.1
			c-0.2,0.1-0.4,0.2-0.6,0.4c-0.4,0.7-0.7,1.4-0.9,2.2l-0.1,0.4c-0.1,0.3-0.2,0.5-0.3,0.8c-0.1,0.1-0.1,0.1-0.1,0.2
			c-0.1,0-0.1,0.1-0.1,0.1c-0.3,0.5-0.8,0.9-1.4,0.9c-0.1,0-0.4-0.1-0.5-0.1c-0.6-0.4-0.9-1.2-0.6-1.9c0.1,0,0.1-0.1,0.1-0.1
			c0.1-0.1,0.1-0.1,0.1-0.2c0.2-0.3,0.4-0.6,0.5-0.7c0.1-0.1,0.2-0.2,0.3-0.4V50c0.4-0.6,0.9-1.3,1.1-2.1c0.1-0.2,0.1-0.5-0.1-0.7
			c0,0-0.1,0-0.1-0.1l0.4-0.5c-0.7-0.4-1.3-0.8-1.9-1.3c-2.8-2.1-4.8-5-5.8-8.3L14,37.2c0,0,0-0.1-0.1-0.1c-0.1-0.1-0.4-0.2-0.6-0.2
			h-0.1c-0.9,0.1-1.6,0.4-2.4,0.6h-0.1c-0.1,0-0.3,0.1-0.4,0.1c-0.2,0.1-0.5,0.2-0.8,0.3c-0.1,0-0.3-0.1-0.3,0c0,0.1,0,0.1-0.1,0.1
			c-0.1,0.1-0.2,0.1-0.4,0.1c-0.6,0.1-1.3-0.4-1.4-1c-0.1-0.8,0.4-1.5,1.1-1.6c0.1-0.1,0.1-0.1,0.1-0.1c0.1,0,0.2-0.1,0.3-0.1
			c0.3,0,0.6-0.1,0.9-0.1c0.1-0.1,0.3-0.1,0.4-0.1c0.9-0.1,1.6-0.2,2.4-0.4c0.2-0.1,0.4-0.3,0.5-0.5c0,0,0.1,0,0.1-0.1l0.6-0.1
			c-0.6-4,0.3-8.2,2.5-11.6c0.1-0.1,0.1-0.2,0.2-0.4l-0.4-0.4c0,0,0,0,0,0.1v-0.1l0,0c0-0.2-0.1-0.5-0.2-0.6c-0.6-0.6-1.3-1-2-1.4
			c-0.1-0.1-0.3-0.1-0.4-0.2c-0.3-0.1-0.6-0.3-0.8-0.4c-0.1,0-0.2-0.1-0.2-0.1s0-0.1-0.1-0.1c-0.6-0.5-0.7-1.3-0.3-2
			c0.2-0.4,0.6-0.5,1-0.5c0.4,0,0.7,0.1,1,0.4l0.1,0.1c0.1,0.1,0.1,0.1,0.2,0.1c0.2,0.2,0.4,0.4,0.6,0.6c0.1,0.1,0.2,0.1,0.3,0.3
			c0.5,0.6,1.1,1.1,1.8,1.6c0.1,0.1,0.3,0.1,0.4,0.1c0.1,0,0.2-0.1,0.3-0.1h0.1l0.4,0.3c2.4-2.5,5.4-4.3,8.8-5
			c0.9-0.1,1.6-0.3,2.4-0.4l0.1-0.6v-0.1c0.2-0.1,0.3-0.4,0.4-0.6c0-0.9,0-1.6-0.1-2.4v-0.1c0-0.1,0-0.3-0.1-0.4
			c-0.1-0.3-0.1-0.6-0.1-0.9V9.1c0-0.4,0.1-0.7,0.4-1c0.4-0.4,0.8-0.6,1.2-0.5c0.7,0.1,1.3,0.8,1.2,1.5v0.4
			c-0.1,0.3-0.1,0.6-0.1,0.9c0,0.1-0.1,0.3-0.1,0.4v0.1c-0.1,0.9-0.1,1.6-0.1,2.4c0.1,0.2,0.1,0.4,0.4,0.6v-0.1l0.1,0.6
			c3.3,0.4,6.6,1.6,9.3,3.7c0.6,0.6,1.2,1.1,1.8,1.7l0.6-0.4h0.1c0.1,0.1,0.2,0.1,0.3,0.1c0.1,0,0.3-0.1,0.4-0.1
			c0.6-0.4,1.3-1,1.8-1.6c0.1-0.1,0.2-0.1,0.3-0.3c0.1-0.2,0.4-0.4,0.6-0.6c0.1,0,0.1-0.1,0.2-0.1l0.1-0.1c0.3-0.2,0.6-0.4,1-0.4
			c0.4,0,0.8,0.2,1,0.5c0.5,0.6,0.4,1.5-0.3,2c0,0.1,0.1,0.1,0,0.1C49.4,19,49.4,19,49.3,19c-0.3,0.1-0.5,0.3-0.8,0.4
			c-0.1,0.1-0.3,0.1-0.4,0.2c-0.7,0.4-1.4,0.9-2,1.4c-0.1,0.1-0.2,0.4-0.2,0.6v0.1l-0.4,0.4c1.1,1.8,2,3.8,2.5,5.8
			c0.4,2.1,0.6,4.2,0.3,6.2l0.6,0.1c0.1,0.2,0.3,0.4,0.5,0.5c0.8,0.2,1.6,0.4,2.4,0.4h0.1c0.1,0.1,0.3,0.1,0.4,0.1
			c0.3,0,0.6,0,0.9,0.1c0.1,0,0.3,0,0.3,0.1s0.1,0.1,0.1,0.1c0.6,0.1,1.2,0.7,1.3,1.5C54.6,37.7,54,38.1,53.4,38.1"/>
		<polygon id="Fill-1" class="st0" points="29.1,33.4 31,34.4 32.9,33.4 33.4,31.4 32.1,29.7 29.9,29.7 28.6,31.4 		"/>
		<path id="Fill-2" class="st0" d="M27.6,26.3c0.6,0,1.2-0.5,1.2-1.1l0.4-7.1l-1.4,0.3C25.3,19,23,20.2,21.2,22l5.9,4.2
			C27.3,26.3,27.4,26.3,27.6,26.3"/>
		<path id="Fill-4" class="st0" d="M33.3,25.8c0.4,0.5,1.1,0.6,1.6,0.3l5.8-4.1c-2.1-2.1-4.9-3.5-8.1-3.8l0.4,7.2
			C33.1,25.6,33.1,25.7,33.3,25.8"/>
		<path id="Fill-6" class="st0" d="M24.5,30.9c0.4-0.5,0.4-1.2-0.1-1.6l-5.3-4.7c-1.6,2.6-2.3,5.7-2.1,8.7l6.9-2
			C24.2,31.2,24.4,31.2,24.5,30.9"/>
		<path id="Fill-8" class="st0" d="M24.9,35.4l-7.1,1.2c1,2.8,3,5.3,5.5,7l2.7-6.5c0.1-0.2,0.1-0.5,0.1-0.7
			C26.1,35.8,25.5,35.4,24.9,35.4"/>
		<path id="Fill-13" class="st0" d="M36.3,35.5c-0.5,0.2-0.8,0.8-0.6,1.3l2.8,6.7c1.7-1.1,3.2-2.6,4.3-4.3c0.6-0.8,1-1.7,1.4-2.7
			L37,35.3C36.8,35.3,36.6,35.4,36.3,35.5"/>
		<path id="Fill-15" class="st0" d="M42.8,24.6l-5.3,4.8c-0.1,0.1-0.2,0.3-0.3,0.5c-0.1,0.6,0.2,1.3,0.9,1.4l6.8,1.9
			c0.1-1.5,0.1-3-0.3-4.5C44.2,27.3,43.6,25.9,42.8,24.6"/>
		<path id="Fill-17" class="st0" d="M31.4,38.5c-0.5-0.3-1.1-0.1-1.4,0.3l-3.5,6.3c1.4,0.4,3,0.7,4.5,0.7c1.1,0,2.1-0.1,3.1-0.4
			c0.5-0.1,0.9-0.2,1.4-0.3L32,39C31.8,38.8,31.6,38.6,31.4,38.5"/>
	</g>
</g>
</svg>
