<?xml version="1.0" encoding="utf-8"?>
<!-- Generator: Adobe Illustrator 26.3.1, SVG Export Plug-In . SVG Version: 6.00 Build 0)  -->
<svg version="1.1" id="레이어_1" xmlns="http://www.w3.org/2000/svg" xmlns:xlink="http://www.w3.org/1999/xlink" x="0px"
	 y="0px" viewBox="0 0 80 80" style="enable-background:new 0 0 80 80;" xml:space="preserve">
<style type="text/css">
	.st0{fill-rule:evenodd;clip-rule:evenodd;}
	.st1{filter:url(#Adobe_OpacityMaskFilter);}
	.st2{fill-rule:evenodd;clip-rule:evenodd;fill:#FFFFFF;}
	
		.st3{mask:url(#mask-2_00000009554232501826093710000004963934687072842140_);fill-rule:evenodd;clip-rule:evenodd;fill:url(#Fill-3_00000144298122292970030570000003860328531559666874_);}
	.st4{filter:url(#Adobe_OpacityMaskFilter_00000135673801913755047700000008523662412047996570_);}
	
		.st5{mask:url(#mask-5_00000138535242508997484450000000070888496983849376_);fill-rule:evenodd;clip-rule:evenodd;fill:url(#Fill-6_00000181068755626988811530000012593277760747312801_);}
	.st6{filter:url(#Adobe_OpacityMaskFilter_00000132052943858731707210000001674644428886625715_);}
	
		.st7{mask:url(#mask-8_00000052799475322762425280000000054371474127181725_);fill-rule:evenodd;clip-rule:evenodd;fill:url(#Fill-9_00000110440624293808835790000018262263831483100849_);}
	.st8{filter:url(#Adobe_OpacityMaskFilter_00000011730301279002077830000016496226019690100381_);}
	
		.st9{mask:url(#mask-11_00000167369485952939024780000009984347754909070991_);fill-rule:evenodd;clip-rule:evenodd;fill:url(#Fill-12_00000024707923661280311350000007818278968645612673_);}
</style>
<g id="bottle">
	<g id="akka">
		<g id="Group-15" transform="translate(2.000000, 27.000000)">
			<path id="Fill-1" class="st0" d="M6.5,14.5c1,0,1.6,0.2,1.8,0.4c0.2,0.2,0.3,0.9,0.3,2v2.3c0,1-0.1,1.7-0.4,1.9
				c-0.2,0.3-0.8,0.4-1.7,0.4V14.5z M68.8,8.5c0.3,0,0.6,0.2,0.7,0.5c0.1,0.3,0.2,1,0.2,2.1v1.5h-1.8V11c0-1.2,0.1-1.9,0.2-2.1
				C68.1,8.6,68.4,8.5,68.8,8.5L68.8,8.5z M6.5,5c0.7,0,1.1,0.1,1.3,0.1c0.2,0.1,0.4,0.3,0.6,0.6c0.1,0.3,0.2,0.9,0.2,1.6
				c0,1.5-0.1,2.4-0.3,2.7c-0.2,0.3-0.6,0.5-1.2,0.5c-0.2,0-0.4,0-0.6,0V5z M68.5,4.9c-1.4,0-2.7,0.3-3.8,0.8
				c-1.1,0.5-1.9,1.3-2.4,2.4c-0.5,1-0.7,2.4-0.7,4.2v6c0,1.5,0.1,2.7,0.3,3.5c0.2,0.8,0.6,1.5,1.2,2.2c0.6,0.7,1.3,1.2,2.4,1.6
				c1,0.4,2.2,0.6,3.5,0.6c1.4,0,2.5-0.2,3.4-0.6c0.9-0.4,1.6-1,2.2-1.7c0.6-0.8,1-1.5,1.1-2.2c0.2-0.7,0.2-1.7,0.2-2.9v-1.5H70v2.7
				c0,1-0.1,1.7-0.2,2.1c-0.2,0.4-0.5,0.5-0.9,0.5c-0.4,0-0.6-0.1-0.8-0.4c-0.1-0.3-0.2-0.9-0.2-1.8v-4.4h8.1v-2.7
				c0-2-0.2-3.5-0.7-4.6c-0.5-1.1-1.2-2-2.4-2.6C71.7,5.2,70.3,4.9,68.5,4.9L68.5,4.9z M43.9,2.5v3.2h-1.3V9h1.3v10.5
				c0,2,0.1,3.3,0.2,3.9c0.1,0.5,0.4,1,0.9,1.5c0.5,0.4,1,0.7,1.6,0.8c0.6,0.1,1.6,0.2,3,0.2h2.5v-3.3c-1,0-1.6-0.1-1.7-0.2
				c-0.1-0.2-0.2-0.9-0.2-2.3V9h1.7V5.7h-1.7V2.5H43.9z M35.5,2.5c0.4,0.2,0.6,0.5,0.9,0.7c0.4,0.4,0.7,0.7,0.7,1.2s-0.2,0.8-0.4,1
				c-0.1,0-0.1,0-0.1,0.1l-2.3,4v10.1c0,2,0.1,3.3,0.2,3.9c0.1,0.5,0.4,1,0.9,1.5c0.5,0.4,1,0.7,1.6,0.8c0.6,0.1,1.6,0.2,3,0.2h2.5
				v-3.3c-1,0-1.6-0.1-1.7-0.2c-0.1-0.2-0.2-0.9-0.2-2.3V9h1.7V5.7h-1.7V2.5H35.5z M53.2,25.8h6.4V0.7h-6.4V25.8z M0,0.7v25.1h7.5
				c2.6,0,4.3-0.2,5.2-0.5c0.8-0.3,1.5-0.9,1.8-1.7c0.3-0.7,0.5-1.6,0.6-2.8c-0.8-1.9-1-4.1-0.4-6.2c-0.1-0.2-0.2-0.4-0.3-0.6
				c-0.5-0.8-1.5-1.4-3-1.7c1.3-0.3,2.2-0.7,2.7-1.3c0.5-0.6,0.7-1.6,0.7-3.1c0-2.2-0.3-3.7-1-4.7c-0.6-1-1.5-1.6-2.6-2
				c-1-0.3-2.6-0.5-4.6-0.5H0z"/>
			<g id="Group-5" transform="translate(14.854545, -0.000035)">
				<g id="Clip-4">
				</g>
				<defs>
					<filter id="Adobe_OpacityMaskFilter" filterUnits="userSpaceOnUse" x="0.1" y="0" width="21.5" height="26.3">
						<feColorMatrix  type="matrix" values="1 0 0 0 0  0 1 0 0 0  0 0 1 0 0  0 0 0 1 0"/>
					</filter>
				</defs>
				
					<mask maskUnits="userSpaceOnUse" x="0.1" y="0" width="21.5" height="26.3" id="mask-2_00000009554232501826093710000004963934687072842140_">
					<g class="st1">
						<path id="path-1_00000065772127424096098140000008682394809743577275_" class="st2" d="M14.3,0c-0.7,0-0.5,0.6-0.5,0.6l0,0
							L9.6,7.9c-3.3-0.1-6.5,1.5-8.3,4.6l0,0c-2.5,4.4-1,10,3.4,12.5l0,0c1.4,0.8,3,1.2,4.5,1.2l0,0h0.1c3.2,0,6.2-1.7,7.9-4.6l0,0
							c1.8-3.1,1.6-6.7-0.2-9.5l0,0l4.2-7.3c0,0,1.7-0.4-2-2.6l0,0l-2.1-1.2C15.6,0.3,14.8,0,14.3,0L14.3,0L14.3,0z M14.6,0.7
							c2.2,0.8,4.3,2.1,6.1,3.5l0,0c-1.2,2.6-3,5.3-4.5,8l0,0c3.1,4.1,1.3,10.6-3.4,12.6l0,0c-4.8,2.4-11.2-1-11.9-6.3l0,0
							C-0.2,13.2,4.7,8,10,8.6l0,0C11.5,6,14.6,0.7,14.6,0.7L14.6,0.7z"/>
					</g>
				</mask>
				
					<linearGradient id="Fill-3_00000158011463242058948980000016338482767575601540_" gradientUnits="userSpaceOnUse" x1="-312.8478" y1="301.0811" x2="-313.4464" y2="299.986" gradientTransform="matrix(21.5275 0 0 -26.2545 6746.9873 7915.3999)">
					<stop  offset="0" style="stop-color:#000000"/>
					<stop  offset="1" style="stop-color:#FFFFFF"/>
				</linearGradient>
				
					<path id="Fill-3" style="mask:url(#mask-2_00000009554232501826093710000004963934687072842140_);fill-rule:evenodd;clip-rule:evenodd;fill:url(#Fill-3_00000158011463242058948980000016338482767575601540_);" d="
					M14.3,0c-0.7,0-0.5,0.6-0.5,0.6l0,0L9.6,7.9c-3.3-0.1-6.5,1.5-8.3,4.6l0,0c-2.5,4.4-1,10,3.4,12.5l0,0c1.4,0.8,3,1.2,4.5,1.2
					l0,0h0.1c3.2,0,6.2-1.7,7.9-4.6l0,0c1.8-3.1,1.6-6.7-0.2-9.5l0,0l4.2-7.3c0,0,1.7-0.4-2-2.6l0,0l-2.1-1.2
					C15.6,0.3,14.8,0,14.3,0L14.3,0L14.3,0z M14.6,0.7c2.2,0.8,4.3,2.1,6.1,3.5l0,0c-1.2,2.6-3,5.3-4.5,8l0,0
					c3.1,4.1,1.3,10.6-3.4,12.6l0,0c-4.8,2.4-11.2-1-11.9-6.3l0,0C-0.2,13.2,4.7,8,10,8.6l0,0C11.5,6,14.6,0.7,14.6,0.7L14.6,0.7z"
					/>
			</g>
			<g id="Group-8" transform="translate(15.890909, 12.090875)">
				<g id="Clip-7">
				</g>
				<defs>
					
						<filter id="Adobe_OpacityMaskFilter_00000114759378135489485290000006718541153975123348_" filterUnits="userSpaceOnUse" x="0.3" y="0.1" width="15.9" height="12.8">
						<feColorMatrix  type="matrix" values="1 0 0 0 0  0 1 0 0 0  0 0 1 0 0  0 0 0 1 0"/>
					</filter>
				</defs>
				
					<mask maskUnits="userSpaceOnUse" x="0.3" y="0.1" width="15.9" height="12.8" id="mask-5_00000138535242508997484450000000070888496983849376_">
					<g style="filter:url(#Adobe_OpacityMaskFilter_00000114759378135489485290000006718541153975123348_);">
						<path id="path-4_00000075158302957567713430000002290408434564248485_" class="st2" d="M7.5,0.6C6.9,1.1,6.8,1.8,6.9,2.4l0,0
							c-0.3,0-0.5,0.1-0.7,0.1l0,0c0-0.1-0.1-0.1-0.1-0.2l0,0C5.6,1.8,4.8,1.8,4.3,2.2l0,0C4.1,2.4,4,2.7,4,3l0,0
							c-1.2,0.3-2.2,0.4-3.4,0l0,0C0.4,3.6,0.3,4.3,0.3,5l0,0c0,4.4,3.6,8,8,8l0,0c4.4,0,8-3.6,8-8l0,0c0-0.2,0-0.4,0-0.6l0,0
							c0,0,0,0,0,0l0,0c-1-0.3-2.1-1-3.5-1.4l0,0c0.1-0.2,0.1-0.5-0.1-0.6l0,0c-0.2-0.2-0.6-0.3-0.9,0l0,0c-0.1,0.1-0.2,0.2-0.2,0.4
							l0,0c-0.3-0.1-0.7-0.1-1-0.2l0,0c0.2-0.6,0-1.2-0.4-1.7l0,0C9.7,0.3,9.2,0.1,8.7,0.1l0,0C8.3,0.1,7.8,0.3,7.5,0.6"/>
					</g>
				</mask>
				
					<linearGradient id="Fill-6_00000179641505358926541070000010773755282525443226_" gradientUnits="userSpaceOnUse" x1="-308.8467" y1="279.3108" x2="-308.8467" y2="278.1643" gradientTransform="matrix(15.9127 0 0 -12.8405 4922.8037 3584.7939)">
					<stop  offset="0" style="stop-color:#00C3A1"/>
					<stop  offset="1" style="stop-color:#006E59"/>
				</linearGradient>
				
					<path id="Fill-6" style="mask:url(#mask-5_00000138535242508997484450000000070888496983849376_);fill-rule:evenodd;clip-rule:evenodd;fill:url(#Fill-6_00000179641505358926541070000010773755282525443226_);" d="
					M7.5,0.6C6.9,1.1,6.8,1.8,6.9,2.4l0,0c-0.3,0-0.5,0.1-0.7,0.1l0,0c0-0.1-0.1-0.1-0.1-0.2l0,0C5.6,1.8,4.8,1.8,4.3,2.2l0,0
					C4.1,2.4,4,2.7,4,3l0,0c-1.2,0.3-2.2,0.4-3.4,0l0,0C0.4,3.6,0.3,4.3,0.3,5l0,0c0,4.4,3.6,8,8,8l0,0c4.4,0,8-3.6,8-8l0,0
					c0-0.2,0-0.4,0-0.6l0,0c0,0,0,0,0,0l0,0c-1-0.3-2.1-1-3.5-1.4l0,0c0.1-0.2,0.1-0.5-0.1-0.6l0,0c-0.2-0.2-0.6-0.3-0.9,0l0,0
					c-0.1,0.1-0.2,0.2-0.2,0.4l0,0c-0.3-0.1-0.7-0.1-1-0.2l0,0c0.2-0.6,0-1.2-0.4-1.7l0,0C9.7,0.3,9.2,0.1,8.7,0.1l0,0
					C8.3,0.1,7.8,0.3,7.5,0.6"/>
			</g>
			<g id="Group-11" transform="translate(26.600000, 10.709056)">
				<g id="Clip-10">
				</g>
				<defs>
					
						<filter id="Adobe_OpacityMaskFilter_00000087390020477060655620000005189064083051800489_" filterUnits="userSpaceOnUse" x="0.3" y="0" width="2.4" height="2.4">
						<feColorMatrix  type="matrix" values="1 0 0 0 0  0 1 0 0 0  0 0 1 0 0  0 0 0 1 0"/>
					</filter>
				</defs>
				
					<mask maskUnits="userSpaceOnUse" x="0.3" y="0" width="2.4" height="2.4" id="mask-8_00000052799475322762425280000000054371474127181725_">
					<g style="filter:url(#Adobe_OpacityMaskFilter_00000087390020477060655620000005189064083051800489_);">
						<path id="path-7_00000007406504501880099590000009824366391077439153_" class="st2" d="M0.7,0.4C0.2,0.8,0.1,1.6,0.6,2.1l0,0
							C1,2.6,1.8,2.6,2.3,2.2l0,0c0.5-0.5,0.5-1.2,0.1-1.7l0,0C2.1,0.2,1.8,0,1.5,0l0,0C1.2,0,0.9,0.1,0.7,0.4"/>
					</g>
				</mask>
				
					<linearGradient id="Fill-9_00000127728560399132530340000002609495619232926082_" gradientUnits="userSpaceOnUse" x1="-212.0597" y1="195.7329" x2="-212.0597" y2="189.7194" gradientTransform="matrix(2.448 0 0 -2.4481 520.6136 478.8411)">
					<stop  offset="0" style="stop-color:#00C3A1"/>
					<stop  offset="1" style="stop-color:#006E59"/>
				</linearGradient>
				
					<path id="Fill-9" style="mask:url(#mask-8_00000052799475322762425280000000054371474127181725_);fill-rule:evenodd;clip-rule:evenodd;fill:url(#Fill-9_00000127728560399132530340000002609495619232926082_);" d="
					M0.7,0.4C0.2,0.8,0.1,1.6,0.6,2.1l0,0C1,2.6,1.8,2.6,2.3,2.2l0,0c0.5-0.5,0.5-1.2,0.1-1.7l0,0C2.1,0.2,1.8,0,1.5,0l0,0
					C1.2,0,0.9,0.1,0.7,0.4"/>
			</g>
			<g id="Group-14" transform="translate(24.527273, 10.018147)">
				<g id="Clip-13">
				</g>
				<defs>
					
						<filter id="Adobe_OpacityMaskFilter_00000183950616614317517840000009816683342874665390_" filterUnits="userSpaceOnUse" x="0" y="0.2" width="1.2" height="1.2">
						<feColorMatrix  type="matrix" values="1 0 0 0 0  0 1 0 0 0  0 0 1 0 0  0 0 0 1 0"/>
					</filter>
				</defs>
				
					<mask maskUnits="userSpaceOnUse" x="0" y="0.2" width="1.2" height="1.2" id="mask-11_00000167369485952939024780000009984347754909070991_">
					<g style="filter:url(#Adobe_OpacityMaskFilter_00000183950616614317517840000009816683342874665390_);">
						<path id="path-10_00000075137486341710141400000017926419638878418086_" class="st2" d="M0.2,0.3C0,0.6-0.1,0.9,0.2,1.2l0,0
							c0.2,0.3,0.6,0.3,0.9,0l0,0c0.3-0.2,0.3-0.6,0-0.9l0,0C0.9,0.2,0.8,0.2,0.6,0.2l0,0C0.5,0.2,0.3,0.2,0.2,0.3"/>
					</g>
				</mask>
				
					<linearGradient id="Fill-12_00000086675103815606171010000008232933905778143679_" gradientUnits="userSpaceOnUse" x1="-82.9787" y1="91.0944" x2="-82.9787" y2="79.0652" gradientTransform="matrix(1.2242 0 0 -1.2238 102.1948 111.8461)">
					<stop  offset="0" style="stop-color:#00C3A1"/>
					<stop  offset="1" style="stop-color:#006E59"/>
				</linearGradient>
				
					<path id="Fill-12" style="mask:url(#mask-11_00000167369485952939024780000009984347754909070991_);fill-rule:evenodd;clip-rule:evenodd;fill:url(#Fill-12_00000086675103815606171010000008232933905778143679_);" d="
					M0.2,0.3C0,0.6-0.1,0.9,0.2,1.2l0,0c0.2,0.3,0.6,0.3,0.9,0l0,0c0.3-0.2,0.3-0.6,0-0.9l0,0C0.9,0.2,0.8,0.2,0.6,0.2l0,0
					C0.5,0.2,0.3,0.2,0.2,0.3"/>
			</g>
		</g>
	</g>
</g>
</svg>
