<?xml version="1.0" encoding="utf-8"?>
<!-- Generator: Adobe Illustrator 26.3.1, SVG Export Plug-In . SVG Version: 6.00 Build 0)  -->
<svg version="1.1" id="레이어_1" xmlns="http://www.w3.org/2000/svg" xmlns:xlink="http://www.w3.org/1999/xlink" x="0px"
	 y="0px" viewBox="0 0 80 80" style="enable-background:new 0 0 80 80;" xml:space="preserve">
<style type="text/css">
	.st0{fill:#D33E44;}
</style>
<g id="cakephp">
	<g id="akka">
		<g id="We-bake-with-CakePHP" transform="translate(8.000000, 16.000000)">
			<path id="Path" class="st0" d="M33.2,20.7l23.2,5.7c4-1.6,6.5-3.6,6.5-5.7c0-2,0-7.3,0-9.2c0-5.1-13.3-9.2-29.6-9.2
				c-16.4,0-29.6,4.1-29.6,9.2c0,2,0,7.3,0,9.2c0,5.1,13.3,9.2,29.6,9.2L33.2,20.7L33.2,20.7z"/>
			<path id="Path_00000123439625725875746820000015023341275307066792_" class="st0" d="M56.3,35.7L33.2,30v9.2L56.3,45
				c4-1.6,6.5-3.6,6.5-5.8c0-2,0-7.3,0-9.2C62.8,32.1,60.4,34.1,56.3,35.7z"/>
			<path id="Path_00000100371044050786124270000009396897418514882957_" class="st0" d="M3.6,30c0,2,0,7.3,0,9.2
				c0,5.1,13.3,9.2,29.6,9.2v-9.2C16.8,39.2,3.6,35.1,3.6,30z"/>
		</g>
	</g>
</g>
</svg>
