<?xml version="1.0" encoding="utf-8"?>
<!-- Generator: Adobe Illustrator 26.3.1, SVG Export Plug-In . SVG Version: 6.00 Build 0)  -->
<svg version="1.1" id="레이어_1" xmlns="http://www.w3.org/2000/svg" xmlns:xlink="http://www.w3.org/1999/xlink" x="0px"
	 y="0px" viewBox="0 0 40 40" style="enable-background:new 0 0 40 40;" xml:space="preserve">
<style type="text/css">
	.st0{fill:#FFFFFF;}
</style>
<g>
	<polygon class="st0" points="14.3,27.4 16.2,29.2 18.8,29.2 18.8,23 	"/>
	<polygon class="st0" points="17.6,19.4 10.1,19.4 10.1,16.8 6.9,20 10.1,23.2 10.1,20.6 17.6,20.6 18.3,20 	"/>
	<polygon class="st0" points="20,21.7 19.4,22.4 19.4,29.9 16.8,29.9 20,33.1 23.2,29.9 20.6,29.9 20.6,22.4 	"/>
	<polygon class="st0" points="12.6,25.7 17,21.2 10.7,21.2 10.7,23.8 	"/>
	<polygon class="st0" points="27.4,25.7 29.2,23.8 29.2,21.2 23,21.2 	"/>
	<polygon class="st0" points="33.1,20 29.9,16.8 29.9,19.4 22.4,19.4 21.7,20 22.4,20.6 29.9,20.6 29.9,23.2 	"/>
	<polygon class="st0" points="25.7,27.4 21.2,23 21.2,29.2 23.8,29.2 	"/>
	<polygon class="st0" points="12.6,14.3 10.7,16.2 10.7,18.8 17,18.8 	"/>
	<polygon class="st0" points="13.5,27.4 18.8,22.1 18.8,21.2 17.9,21.2 12.6,26.5 10.7,24.7 10.7,29.2 15.3,29.2 	"/>
	<polygon class="st0" points="12.6,13.5 17.9,18.8 18.8,18.8 18.8,17.9 13.5,12.6 15.3,10.7 10.7,10.7 10.7,15.3 	"/>
	<polygon class="st0" points="27.4,26.5 22.1,21.2 21.2,21.2 21.2,22.1 26.5,27.4 24.7,29.2 29.2,29.2 29.2,24.7 	"/>
	<polygon class="st0" points="26.5,12.6 21.2,17.9 21.2,18.8 22.1,18.8 27.4,13.5 29.2,15.3 29.2,10.7 24.7,10.7 	"/>
	<polygon class="st0" points="20,18.3 20.6,17.6 20.6,10.1 23.2,10.1 20,6.9 16.8,10.1 19.4,10.1 19.4,17.6 	"/>
	<polygon class="st0" points="14.3,12.6 18.8,17 18.8,10.7 16.2,10.7 	"/>
	<polygon class="st0" points="25.7,12.6 23.8,10.7 21.2,10.7 21.2,17 	"/>
	<polygon class="st0" points="27.4,14.3 23,18.8 29.2,18.8 29.2,16.2 	"/>
</g>
</svg>
