<svg width="40" height="40" viewBox="0 0 40 40" fill="none" xmlns="http://www.w3.org/2000/svg">
<path fill-rule="evenodd" clip-rule="evenodd" d="M29.5531 10.4377H20.9203V19.0707H29.5531V10.4377ZM18.8066 19.9801L17.7972 18.9764H10.6923V15.7058L6.35941 19.9801L10.6923 24.3274V20.9836H17.7972L18.8066 19.9801Z" fill="#932279"/>
<path fill-rule="evenodd" clip-rule="evenodd" d="M20.0109 18.8065L21.0144 17.7972V10.6923H24.285L20.0109 6.35938L15.6635 10.6923H19.0074V17.7972L20.0109 18.8065ZM29.5531 20.9203H20.9203V29.5533H29.5531V20.9203Z" fill="#EFA724"/>
<path fill-rule="evenodd" clip-rule="evenodd" d="M21.1842 20.0109L22.1938 21.0144H29.2985V24.285L33.6316 20.0109L29.2985 15.6635V19.0074H22.1938L21.1842 20.0109ZM19.0705 20.9203H10.4377V29.5533H19.0705V20.9203Z" fill="#262577"/>
<path fill-rule="evenodd" clip-rule="evenodd" d="M19.0705 10.4377H10.4377V19.0707H19.0705V10.4377ZM19.9799 21.1843L18.9764 22.1938V29.2988H15.706L19.9799 33.6317L24.3273 29.2988H20.9836V22.1938L19.9799 21.1843Z" fill="#9CCD2A"/>
<path fill-rule="evenodd" clip-rule="evenodd" d="M19.3789 10.1293H10.1293V19.3788H19.3789V10.1293ZM18.7621 18.7623H10.7459V10.746H18.7621V18.7623ZM20.6122 10.1293H29.8617V19.3788H20.6122V10.1293ZM29.245 18.7623H21.2287V10.746H29.245V18.7623ZM20.6122 20.6121H29.8617V29.8618H20.6122V20.6121ZM29.245 29.2449H21.2287V21.2286H29.245V29.2449ZM10.1293 20.6121H19.3789V29.8618H10.1293V20.6121ZM18.7621 29.2449H10.7459V21.2286H18.7621V29.2449Z" fill="white"/>
<path fill-rule="evenodd" clip-rule="evenodd" d="M19.9954 19.1235L13.455 12.5831L19.9954 6.04248L26.5358 12.5831L19.9954 19.1235ZM6.04251 19.9954L12.5831 26.536L19.1235 19.9954L12.5829 13.455L6.04251 19.9954ZM12.5831 25.6639L6.91464 19.9954L12.5829 14.3271L18.2514 19.9954L12.5831 25.6639ZM19.9954 18.2513L14.3272 12.5831L19.9954 6.91461L25.6639 12.5831L19.9954 18.2513ZM27.4079 26.536L20.8676 19.9954L27.4079 13.455L33.9483 19.9954L27.4079 26.536ZM27.4079 25.6639L21.7395 19.9954L27.4079 14.3271L33.0762 19.9954L27.4079 25.6639ZM19.9954 33.9483L13.455 27.4079L19.9954 20.8675L26.5358 27.4079L19.9954 33.9483ZM19.9954 33.0762L14.3272 27.4079L19.9954 21.7397L25.6639 27.4079L19.9954 33.0762Z" fill="white"/>
</svg>
