<?xml version="1.0" encoding="utf-8"?>
<!-- Generator: Adobe Illustrator 26.3.1, SVG Export Plug-In . SVG Version: 6.00 Build 0)  -->
<svg version="1.1" id="레이어_1" xmlns="http://www.w3.org/2000/svg" xmlns:xlink="http://www.w3.org/1999/xlink" x="0px"
	 y="0px" viewBox="0 0 80 80" style="enable-background:new 0 0 80 80;" xml:space="preserve">
<style type="text/css">
	.st0{filter:url(#Adobe_OpacityMaskFilter);}
	.st1{fill-rule:evenodd;clip-rule:evenodd;fill:#FFFFFF;}
	.st2{mask:url(#mask-2_00000094591211453565601160000002866344193026666134_);fill-rule:evenodd;clip-rule:evenodd;fill:#D02028;}
	.st3{filter:url(#Adobe_OpacityMaskFilter_00000022520636401468013740000002568502020204736657_);}
	.st4{mask:url(#mask-4_00000026858003745564763090000001667036671417861295_);fill-rule:evenodd;clip-rule:evenodd;fill:#461910;}
</style>
<g id="cherrypy">
	<g id="akka">
		<g id="Group-7" transform="translate(21.000000, 4.000000)">
			<g id="Group-3" transform="translate(0.000000, 35.712000)">
				<g id="Clip-2">
				</g>
				<defs>
					<filter id="Adobe_OpacityMaskFilter" filterUnits="userSpaceOnUse" x="0" y="0.1" width="37.3" height="35.9">
						<feColorMatrix  type="matrix" values="1 0 0 0 0  0 1 0 0 0  0 0 1 0 0  0 0 0 1 0"/>
					</filter>
				</defs>
				
					<mask maskUnits="userSpaceOnUse" x="0" y="0.1" width="37.3" height="35.9" id="mask-2_00000094591211453565601160000002866344193026666134_">
					<g class="st0">
						<polygon id="path-1_00000060015284586774683170000014344638529303255976_" class="st1" points="0,0.1 37.3,0.1 37.3,36 0,36 
													"/>
					</g>
				</mask>
				<path id="Fill-1" class="st2" d="M37,14c-0.6-4.7-2.6-8.6-6.3-11.7c-2.4-2.1-5.2-2.7-8.3-1.9c-1.9,0.5-3.7,1.3-5.3,2.3
					c-0.7,0.4-1.3,0.8-2,1.2c-0.3,0.4,0,0.6,0.2,0.8c1.8-0.8,2.6-1.6,4.4-2.6c1.3-0.8,2-1,2.5-0.9c-0.7,0.7-1.1,2.2-1.7,3.1
					c-0.6,0.8-1.1,1.7-1.7,2.4c-1.5,1.8-3.8,2.4-6.1,2.1c-1.6-0.2-2.8-1.4-5.1-2.1c-0.1,0-0.2,0-0.2-0.1c0.1,0,0.1,0,0.2,0.1
					c0.8,0.1,3.6-0.5,4-0.6c0.5-0.1,1-0.3,1.5-0.5c0-0.3-0.1-0.5-0.4-0.6c-1.1,0.3-2.1,0.3-3.2,0.4c-0.3,0-0.7,0.1-1,0.2
					C7.1,6.1,5.9,6.5,4.7,7.1C1.6,8.7,0.1,11.4,0,14.9c-0.1,3.1,0.7,6,1.9,8.8c2.2,5.4,6,9.1,11.5,11.1c3.5,1.3,7,1.7,10.7,0.7
					c3.4-1,6.3-2.8,8.7-5.5c2.2-2.4,3.6-5.2,4.2-8.4C37.4,19,37.3,16.5,37,14"/>
			</g>
			<g id="Group-6" transform="translate(5.032258, 0.099097)">
				<g id="Clip-5">
				</g>
				<defs>
					
						<filter id="Adobe_OpacityMaskFilter_00000073709428614102457810000001056473639591047614_" filterUnits="userSpaceOnUse" x="0.4" y="0.3" width="15.7" height="42.9">
						<feColorMatrix  type="matrix" values="1 0 0 0 0  0 1 0 0 0  0 0 1 0 0  0 0 0 1 0"/>
					</filter>
				</defs>
				
					<mask maskUnits="userSpaceOnUse" x="0.4" y="0.3" width="15.7" height="42.9" id="mask-4_00000026858003745564763090000001667036671417861295_">
					<g style="filter:url(#Adobe_OpacityMaskFilter_00000073709428614102457810000001056473639591047614_);">
						<polygon id="path-3_00000038404118302992652410000007484470825964235705_" class="st1" points="0.4,0.3 16.1,0.3 16.1,43.2 
							0.4,43.2 						"/>
					</g>
				</mask>
				<path id="Fill-4" class="st4" d="M10.1,39.6c0,0.6,0.5,0.8,0.9,1.2c0.4,0.4,0.8,0.8,0.6,1.4c-0.3,0.6-0.8,0.9-1.5,1
					c-0.1,0-0.2,0-0.4,0c-1.2,0-1.7-0.4-1.8-1.6c0-0.3-0.1-0.6-0.2-0.9c-1.9-5.1-4.1-10-5.8-15.2c-1.1-3.2-1.6-6.6-1.4-10
					c0.3-3.4,1.1-6.7,3-9.7c1.5-2.3,3.6-4,5.9-5.4c0.4-0.2,0.8-0.3,1.2,0c0.4,0.3,0.8,0.2,1.2,0.2c0.7,0,1.4-0.1,2.1,0
					c0.5,0.1,1,0.3,1.4,0.6c1.1,0.8,1.1,2.4-0.1,3.1c-0.9,0.5-1.9,0.6-2.9,0.1C11.6,4,11,3.7,10.4,3.3C10,3,9.7,3,9.3,3.2
					C7.4,4.5,5.7,6,4.5,7.9c-1.3,2.1-1.9,4.4-2.2,6.8c-0.5,4.3,0.3,8.5,1.8,12.5c1,2.5,1.9,5.1,3,7.5c0.5,1,1,2.1,1.6,3.1
					C9,38.5,9.6,39,10.1,39.6"/>
			</g>
		</g>
	</g>
</g>
</svg>
