<?xml version="1.0" encoding="utf-8"?>
<!-- Generator: Adobe Illustrator 26.3.1, SVG Export Plug-In . SVG Version: 6.00 Build 0)  -->
<svg version="1.1" id="레이어_1" xmlns="http://www.w3.org/2000/svg" xmlns:xlink="http://www.w3.org/1999/xlink" x="0px"
	 y="0px" viewBox="0 0 80 80" style="enable-background:new 0 0 80 80;" xml:space="preserve">
<style type="text/css">
	.st0{fill:#EE4323;}
</style>
<g id="codeingniiter">
	<g id="akka">
		<g id="codeigniter-seeklogo.com" transform="translate(14.000000, 7.000000)">
			<path id="Shape" class="st0" d="M17.4,62.8c-3.8-1.6-7.3-5.8-7.3-10c0-4.6,2.9-8.5,6.6-11.1c-0.4,1.7-0.7,3.2,0.4,4.6
				c1,1.4,2.8,2,4.4,1.7c3.9-0.9,4.1-5.1,1.8-7.6c-2.3-2.5-4.5-5.3-3.6-8.8c0.4-1.8,1.5-3.5,2.9-4.7c-1.1,2.8,2,5.6,4,7
				c3.5,2.4,7.3,4.2,10.5,7c3.4,3,5.9,7,5.4,11.6c-0.5,5-4.5,8.5-9,10.3c9.5-2.1,19.3-9.5,19.5-20c0.2-8.7-5.8-15.3-13.1-19.1
				l-0.4-0.2c0.2,0.5,0.3,0.9,0.3,1.3c0.1-0.3,0.1-0.6,0.1-0.8c0,0.4,0,0.7-0.1,1l0-0.2c-0.1,0.5-0.3,0.9-0.5,1.3l0.1-0.1
				c-1.5,2.4-5.4,3-7.4,0.4c-3.2-4.1,0.1-8.4,0.5-12.7c0.6-5.4-2.8-10.6-7-13.7c2.3,3.7-0.7,8.7-3.2,11.4c-2.4,2.7-5.2,4.9-7.8,7.3
				c-2.8,2.6-5.5,5.4-7.8,8.4C1.9,33.3-0.9,41,1.2,48.6C3.3,56.3,9.9,61.1,17.4,62.8L17.4,62.8z"/>
		</g>
	</g>
</g>
</svg>
