<?xml version="1.0" encoding="UTF-8"?>
<svg width="80px" height="80px" viewBox="0 0 80 80" version="1.1" xmlns="http://www.w3.org/2000/svg" xmlns:xlink="http://www.w3.org/1999/xlink">
    <!-- Generator: Sketch 59.1 (86144) - https://sketch.com -->
    <title>cubrid</title>
    <desc>Created with Sketch.</desc>
    <defs>
        <polygon id="path-1" points="0 1.93385095 21.2549704 1.93385095 21.2549704 12.6277345 0 12.6277345"></polygon>
    </defs>
    <g id="cubrid" stroke="none" stroke-width="1" fill="none" fill-rule="evenodd">
        <g id="Group-4" transform="translate(10.000000, 11.000000)">
            <g id="Group-2" transform="translate(0.294737, 0.000000)">
                <path d="M58.9826515,33.5714627 L48.007168,33.5714627 C44.7583933,33.5714627 41.5096185,33.5675105 38.2608438,33.575415 C37.9328045,33.5793673 37.7786655,33.5398445 37.7786655,33.1406641 C37.7905224,26.2518389 37.7865701,19.3630136 37.7905224,12.4741884 C37.7905224,12.426761 37.7944747,12.3793336 37.7905224,12.4662838 C44.8216298,19.4657729 51.9080691,26.5284985 58.9826515,33.5714627" id="Fill-4" fill="#F39D18"></path>
                <path d="M46.7918417,35.2598771 C39.6342613,42.3937437 32.5517743,49.4564693 25.465335,56.5231472 C25.3467666,56.4441016 25.4139554,56.3097241 25.4139554,56.1990602 C25.4100031,49.35371 25.4100031,42.5083599 25.4020985,35.666962 C25.4020985,35.3784455 25.4179076,35.2361634 25.7815175,35.2361634 C32.6821996,35.2480202 39.5828817,35.2440679 46.4835638,35.2440679 C46.5547048,35.2440679 46.6258459,35.2519725 46.7918417,35.2598771" id="Fill-6" fill="#38AD37"></path>
                <path d="M25.411584,17.5789541 C25.411584,15.9110916 25.4194886,14.2432292 25.4076317,12.5714145 C25.4036794,12.2789457 25.4708682,12.1761864 25.7830984,12.1801387 C29.0951096,12.1919955 32.4071208,12.1880432 35.7151798,12.1801387 C36.0116008,12.1801387 36.1064556,12.2512797 36.1064556,12.5635099 C36.0945987,15.887378 36.0945987,19.2072938 36.1064556,22.5272095 C36.1064556,22.8038692 36.0392668,22.8988041 35.746798,22.8988041 C32.4189777,22.8868671 29.0951096,22.8868671 25.7712415,22.8988041 C25.4273931,22.9026762 25.4076317,22.7603941 25.4076317,22.491639 C25.4155363,20.8553948 25.411584,19.2151983 25.411584,17.5789541" id="Fill-12" fill="#E84619"></path>
                <path d="M23.6840421,33.4517086 C23.5259509,33.4319472 23.4627144,33.3133788 23.3797165,33.2303809 C20.0202779,29.8788469 16.6687439,26.5194083 13.305353,23.1678742 C13.0919298,22.9544511 13.0405502,22.8398349 13.2855916,22.5947935 C16.6766484,19.2314027 20.0518961,15.8522027 23.4310961,12.4769549 C23.4982849,12.4137185 23.5654737,12.350482 23.6840421,12.2437704 L23.6840421,33.4517086 Z" id="Fill-14" fill="#AB2989"></path>
                <g id="Group-18" transform="translate(0.000000, 20.954202)">
                    <mask id="mask-2" fill="white">
                        <use xlink:href="#path-1"></use>
                    </mask>
                    <g id="Clip-17"></g>
                    <path d="M-0.00039522807,1.93385095 C3.54875284,1.93385095 6.98723705,1.93385095 10.4178167,1.93385095 C10.5798602,1.93385095 10.7102855,1.96546919 10.8328062,2.08798989 C14.2950041,5.55809235 17.7611542,9.02029025 21.2273044,12.4864404 C21.2431135,12.5062018 21.2431135,12.5417724 21.2549704,12.5733906 C21.1482588,12.6603408 21.0217858,12.6168657 20.9071697,12.6168657 C17.6267767,12.6168657 14.3463837,12.6168657 11.0659907,12.620818 C10.8288539,12.620818 10.6351921,12.5971043 10.4454827,12.4034425 C7.05047354,9.00052884 3.64755986,5.60156744 0.248598456,2.20260604 C0.185361965,2.13936954 0.130030035,2.07613305 -0.00039522807,1.93385095" id="Fill-16" fill="#24337D" mask="url(#mask-2)"></path>
                </g>
                <path d="M23.7247506,45.8452705 C20.1716502,42.3040269 16.6580727,38.8062585 13.1326383,35.2966333 C13.2037794,35.1741126 13.3421092,35.2492059 13.4448685,35.2492059 C16.7252615,35.2452536 20.0056545,35.2452536 23.2860474,35.2452536 C23.4797092,35.2452536 23.7287029,35.1503989 23.7287029,35.5298178 C23.7207983,38.9564452 23.7247506,42.3830726 23.7247506,45.8452705" id="Fill-21" fill="#407CBF"></path>
                <path d="M36.1005272,8.74855743e-14 C36.1360977,0.0474273684 36.0926226,0.173900351 36.0926226,0.288516491 C36.0965749,3.54914807 36.0965749,6.80977965 36.0965749,10.0664589 C36.0965749,10.2877867 36.1716682,10.5091144 35.7724879,10.5091144 C32.4011924,10.4933053 29.029897,10.4972575 25.6586015,10.4972575 C25.6190787,10.4972575 25.5756036,10.4814484 25.5835082,10.4814484 C29.0812766,6.99553684 32.5948542,3.49381614 36.1005272,8.74855743e-14" id="Fill-23" fill="#E62132"></path>
            </g>
        </g>
    </g>
</svg>