<svg width="40" height="40" viewBox="0 0 40 40" fill="none" xmlns="http://www.w3.org/2000/svg">
<path fill-rule="evenodd" clip-rule="evenodd" d="M16.9393 21.5314L16.8714 21.8811C17.196 22.3257 17.4528 22.8058 17.866 23.1496C17.5709 22.5657 17.3495 22.3257 16.9393 21.5314ZM17.7087 21.5023C17.5346 21.3097 17.4342 21.0785 17.3191 20.8503C17.4283 21.2534 17.6526 21.6001 17.8622 21.9528L17.7087 21.5023ZM31.3182 18.5314L31.2474 18.7152C31.1146 19.6666 30.8254 20.6061 30.3856 21.4804C30.8726 20.5587 31.1854 19.551 31.3182 18.5314ZM20.565 5.14819C20.8985 5.02371 21.3855 5.08002 21.7396 5C21.2792 5.03853 20.8188 5.06224 20.3643 5.11855L20.565 5.14819ZM8.81157 11.4231C8.8883 12.1403 8.27442 12.416 8.95028 11.9447C9.31034 11.1267 8.80861 11.7195 8.81157 11.4231ZM8.02179 14.7414C8.17821 14.2612 8.20477 13.9767 8.2638 13.6981C7.83585 14.2494 8.06901 14.3679 8.02179 14.7414ZM22.3432 20.8497C21.8474 20.8556 22.4347 21.1046 23.081 21.2054C23.264 21.0661 23.4234 20.9238 23.568 20.7875C23.1637 20.8853 22.7564 20.8882 22.3432 20.8497ZM24.9976 20.1841C25.2957 19.775 25.5112 19.3275 25.585 18.8652C25.52 19.1971 25.34 19.4816 25.1747 19.781C24.248 20.3678 25.0862 19.4342 25.1747 19.0786C24.1801 20.3382 25.036 19.8343 24.9976 20.1841ZM25.9807 17.6213C26.0427 16.7262 25.8036 17.0107 25.7269 17.3516C25.8184 17.399 25.8922 17.9828 25.9807 17.6213ZM20.4641 5.38529C20.7297 5.43271 21.0366 5.46828 20.9924 5.53348C21.2816 5.46828 21.3495 5.41197 20.4641 5.38529ZM20.9915 5.53318L20.8085 5.57171L20.9797 5.55689L20.9915 5.53318ZM29.2316 17.9612C29.2612 18.7644 28.9985 19.1556 28.7594 19.8462L28.3315 20.0596C27.9803 20.7412 28.3669 20.4923 28.116 21.0376C27.57 21.5266 26.4574 22.564 26.1003 22.6588C25.8435 22.6529 26.2773 22.3506 26.3364 22.232C25.6044 22.7359 25.7461 22.9908 24.6246 23.296L24.5951 23.2219C21.8356 24.526 18.0018 21.9445 18.0519 18.4176C18.0224 18.6429 17.9693 18.5866 17.9073 18.6755C17.7627 16.8617 18.7396 15.0419 20.3894 14.298C22.0008 13.4948 23.8867 13.8238 25.0407 14.9056C24.4062 14.0727 23.146 13.1866 21.6526 13.2695C20.1887 13.2933 18.8163 14.2268 18.3589 15.2434C17.6092 15.7176 17.5207 17.0721 17.196 17.3181C16.7533 20.5664 18.0224 21.9682 20.1681 23.6191C20.5045 23.8473 20.2625 23.8829 20.3068 24.0548C19.5925 23.7198 18.9432 23.216 18.4061 22.5966C18.6924 23.0145 18.9964 23.4205 19.3948 23.7406C18.7219 23.5124 17.8247 22.1046 17.565 22.0483C18.7189 24.1318 22.2606 25.6996 24.117 24.9202C23.2581 24.9528 22.1661 24.938 21.204 24.5793C20.7996 24.3719 20.2477 23.9392 20.3451 23.8591C22.8774 24.8076 25.4893 24.5764 27.6792 22.8159C28.2341 22.3772 28.8421 21.6363 29.0191 21.6274C28.7535 22.0275 29.0634 21.8201 28.8598 22.1727C29.4146 21.2747 28.6207 21.8052 29.4323 20.6197L29.7363 21.0376C29.6242 20.2907 30.6571 19.3838 30.5509 18.2072C30.7899 17.8427 30.8165 18.5925 30.5656 19.4253C30.9139 18.5036 30.6571 18.3554 30.7486 17.5937C30.8431 17.8516 30.9729 18.1213 31.0349 18.391C30.8077 17.5018 31.2681 16.8943 31.3832 16.3756C31.271 16.3252 31.032 16.7698 30.9788 15.7206C30.9877 15.2612 31.1057 15.4805 31.15 15.3679C31.0615 15.3146 30.8283 14.9648 30.6837 14.295C30.787 14.135 30.9611 14.704 31.1028 14.7277C31.0113 14.1942 30.8549 13.7852 30.849 13.3762C30.4387 12.5167 30.7044 13.4918 30.3709 13.0058C29.9311 11.6395 30.7339 12.6886 30.787 12.0692C31.4481 13.0295 31.8259 14.5232 32 15.1427C31.8701 14.3869 31.6547 13.6578 31.392 12.9524C31.5957 13.0354 31.0674 11.3994 31.6547 12.4841C31.029 10.1724 28.9778 8.01476 27.0919 7.00115C27.3251 7.21454 27.6143 7.47831 27.511 7.52277C26.5725 6.96262 26.7348 6.9152 26.599 6.67809C25.8376 6.3669 25.7874 6.70477 25.2798 6.68106C23.8395 5.91344 23.5621 5.99346 22.2369 5.51333L22.296 5.79785C21.3427 5.47776 21.1833 5.91937 20.1533 5.79785C20.0913 5.74747 20.4838 5.62002 20.8085 5.5726C19.8847 5.69412 19.929 5.38885 19.0259 5.6052C19.2472 5.44812 19.4833 5.34439 19.7194 5.21102C18.9669 5.25844 17.925 5.65262 18.2438 5.29401C17.019 5.84527 14.8379 6.61585 13.6161 7.76877L13.5747 7.51092C13.0169 8.18666 11.131 9.52629 10.9805 10.4036L10.8329 10.4391C10.5408 10.9341 10.3519 11.4972 10.1187 12.007C9.74094 12.659 9.56091 12.2589 9.61699 12.3597C8.86735 13.886 8.49253 15.1723 8.16788 16.2244C8.39808 16.5682 8.17378 18.2991 8.26232 19.6832C7.8875 26.5177 13.0406 33.1506 18.6717 34.6829C19.4951 34.9793 20.7229 34.9704 21.7677 35C20.537 34.6443 20.3776 34.8133 19.1764 34.3924C18.3117 33.9805 18.1198 33.5151 17.5059 32.9787L17.7509 33.4114C16.5468 32.9817 17.0514 32.8809 16.0745 32.5697L16.3343 32.2289C15.9417 32.2022 15.2983 31.5709 15.1242 31.2212L14.6963 31.239C14.1857 30.6047 13.9141 30.1453 13.9319 29.7926L13.7961 30.0386C13.6397 29.7689 11.9102 27.6557 12.8074 28.1507C12.6392 27.9966 12.4178 27.9017 12.1788 27.4631L12.3588 27.2527C11.9308 26.6955 11.5678 25.9812 11.5914 25.7411C11.8246 26.0523 11.984 26.1116 12.1433 26.165C11.0513 23.4501 10.9894 26.0168 10.1659 23.3998L10.3401 23.3879C10.2073 23.1834 10.1217 22.9641 10.0154 22.7477L10.0951 21.989C9.3071 21.0791 9.87376 18.1153 9.98591 16.4882C10.0656 15.8273 10.6411 15.1249 11.0809 14.0194L10.8152 13.9749C11.3258 13.0828 13.7282 10.3828 14.8438 10.5221C15.3839 9.84045 14.7376 10.5192 14.6313 10.3473C15.8178 9.11729 16.1896 9.4759 16.9895 9.25362C17.8542 8.74089 16.2516 9.45516 16.6559 9.06098C18.1493 8.67865 17.7155 8.18962 19.6604 7.99698C19.8641 8.11256 19.1853 8.17777 19.0141 8.32892C20.2566 7.71838 22.9453 7.85768 24.6925 8.66679C26.7171 9.62113 28.9985 12.4308 29.087 15.0775L29.1903 15.1041C29.1401 16.1563 29.3497 17.3744 28.9837 18.4917L29.2316 17.9612Z" fill="#A80030"/>
</svg>
