<?xml version="1.0" encoding="utf-8"?>
<!-- Generator: Adobe Illustrator 26.3.1, SVG Export Plug-In . SVG Version: 6.00 Build 0)  -->
<svg version="1.1" id="레이어_1" xmlns="http://www.w3.org/2000/svg" xmlns:xlink="http://www.w3.org/1999/xlink" x="0px"
	 y="0px" viewBox="0 0 80 80" style="enable-background:new 0 0 80 80;" xml:space="preserve">
<style type="text/css">
	.st0{fill-rule:evenodd;clip-rule:evenodd;fill:#092E20;}
</style>
<g id="django">
	<path id="django_logo" class="st0" d="M11.7,36.5c-0.5-0.2-0.9-0.2-1.4-0.2c-2,0-3.2,1.3-3.2,3.5c0,2.2,1.1,3.4,3.2,3.4
		c0.4,0,0.8,0,1.4-0.1V36.5z M11.7,27h4v18.8c-2.1,0.4-3.6,0.6-5.3,0.6c-4.9,0-7.5-2.2-7.5-6.6c0-4.1,2.7-6.8,7-6.8
		c0.7,0,1.2,0.1,1.8,0.2V27z M18.2,31.2V27h4v4.2H18.2z M22.2,33.3v9.4c0,3.3-0.2,4.8-0.9,6.2c-0.7,1.3-1.5,2.1-3.3,3l-3.8-1.8
		c1.8-0.8,2.7-1.6,3.2-2.7c0.6-1.2,0.8-2.5,0.8-6.1v-8H22.2z M24.7,34.2c1.8-0.8,3.5-1.2,5.4-1.2c2.1,0,3.4,0.6,4,1.6
		c0.3,0.6,0.4,1.4,0.4,3.1V46c-1.8,0.3-4.1,0.4-5.8,0.4c-3.4,0-4.9-1.2-4.9-3.8c0-2.9,2-4.2,7-4.6v-0.9c0-0.7-0.4-1-1.4-1
		c-1.5,0-3.2,0.4-4.8,1.2V34.2z M31,40.7c-2.7,0.3-3.5,0.7-3.5,1.7c0,0.8,0.5,1.2,1.6,1.2c0.6,0,1.2-0.1,1.9-0.2V40.7z M36.5,33.9
		c2.4-0.6,4.4-0.9,6.4-0.9c2.1,0,3.6,0.5,4.5,1.4c0.8,0.9,1.1,1.8,1.1,3.9v8h-4v-7.8c0-1.6-0.5-2.1-2-2.1c-0.6,0-1.1,0.1-1.9,0.3
		v9.7h-4V33.9z M50,48.5c1.4,0.7,2.8,1.1,4.3,1.1c2.7,0,3.8-1.1,3.8-3.7v-0.1c-0.8,0.4-1.6,0.6-2.6,0.6c-3.5,0-5.8-2.4-5.8-6.1
		c0-4.6,3.3-7.2,9.3-7.2c1.7,0,3.3,0.2,5.3,0.6l-1.4,2.9c-1.1-0.2-0.1,0-0.9-0.1v0.4l0.1,1.7l0,2.2c0,0.6,0,1.1,0.1,1.7v1.1
		c0,3.5-0.3,5.1-1.2,6.5c-1.3,2-3.4,3-6.5,3c-1.6,0-2.9-0.2-4.4-0.8V48.5z M58,36.3h-0.1h-0.3c-0.8,0-1.7,0.2-2.3,0.6
		c-1,0.6-1.5,1.6-1.5,3c0,2,1,3.2,2.8,3.2c0.6,0,1-0.1,1.5-0.3v-0.3v-1.1c0-0.5,0-1,0-1.6l0-1.9l0-1.3V36.3z M70.5,32.9
		c4,0,6.5,2.6,6.5,6.7c0,4.3-2.6,6.9-6.7,6.9c-4,0-6.5-2.6-6.5-6.7C63.8,35.6,66.4,32.9,70.5,32.9z M70.4,43.3
		c1.6,0,2.5-1.3,2.5-3.5c0-2.2-0.9-3.5-2.4-3.5c-1.6,0-2.5,1.3-2.5,3.5C67.9,42,68.8,43.3,70.4,43.3z"/>
</g>
</svg>
