<?xml version="1.0" encoding="utf-8"?>
<!-- Generator: Adobe Illustrator 26.3.1, SVG Export Plug-In . SVG Version: 6.00 Build 0)  -->
<svg version="1.1" id="레이어_1" xmlns="http://www.w3.org/2000/svg" xmlns:xlink="http://www.w3.org/1999/xlink" x="0px"
	 y="0px" viewBox="0 0 80 80" style="enable-background:new 0 0 80 80;" xml:space="preserve">
<style type="text/css">
	.st0{filter:url(#Adobe_OpacityMaskFilter);}
	.st1{fill-rule:evenodd;clip-rule:evenodd;fill:#FFFFFF;}
	.st2{mask:url(#mask-2_00000153671041174994829570000002611114929920108451_);fill-rule:evenodd;clip-rule:evenodd;fill:#377BF6;}
	.st3{fill-rule:evenodd;clip-rule:evenodd;fill:#4163D3;}
</style>
<g id="eks">
	<g id="Group-8" transform="translate(10.000000, 6.000000)">
		<g id="Group-3" transform="translate(0.000000, 0.278684)">
			<g id="Clip-2">
			</g>
			<defs>
				<filter id="Adobe_OpacityMaskFilter" filterUnits="userSpaceOnUse" x="0" y="0" width="58" height="67.7">
					<feColorMatrix  type="matrix" values="1 0 0 0 0  0 1 0 0 0  0 0 1 0 0  0 0 0 1 0"/>
				</filter>
			</defs>
			
				<mask maskUnits="userSpaceOnUse" x="0" y="0" width="58" height="67.7" id="mask-2_00000153671041174994829570000002611114929920108451_">
				<g class="st0">
					<polygon id="path-1_00000051377190270348646600000007273683921047878788_" class="st1" points="0,0 58,0 58,67.7 0,67.7 					
						"/>
				</g>
			</mask>
			<path id="Fill-1" class="st2" d="M44.5,44.3l-12.7,7.3c-1,0.6-2.3,0.6-3.3,0L15,43.8c-1-0.6-1.6-1.7-1.6-2.8V25.4
				c0-1.2,0.6-2.2,1.6-2.8l12.5-7.2c0.4-0.2,0.6-0.6,0.6-1V0.6c0-0.5-0.5-0.8-0.9-0.5L1,15.2c-0.6,0.4-1,1-1,1.8v32.5
				c0,0.7,0.4,1.4,1,1.7l28.1,16.2c0.6,0.4,1.4,0.4,2,0l26.5-15.3c0.4-0.2,0.4-0.8,0-1l-12-6.9C45.3,44.1,44.8,44.1,44.5,44.3"/>
		</g>
		<path id="Fill-4" class="st3" d="M32.8,15.7l12.5,7.2c1,0.6,1.6,1.7,1.6,2.8v14.2c0,0.4,0.2,0.8,0.6,1l12,6.8
			c0.4,0.2,0.9-0.1,0.9-0.5v-30c0-0.7-0.4-1.4-1-1.7L33.1,0.4c-0.4-0.2-0.9,0.1-0.9,0.5v13.8C32.2,15.1,32.4,15.5,32.8,15.7"/>
		<polygon id="Fill-6" class="st3" points="39,43.2 35.3,43.2 26.7,33.6 26.7,43.2 23.9,43.2 23.9,23.7 26.6,23.7 26.6,31.3 
			34.3,23.7 38.4,23.7 29.6,32.8 		"/>
	</g>
</g>
</svg>
