<?xml version="1.0" encoding="utf-8"?>
<!-- Generator: Adobe Illustrator 26.3.1, SVG Export Plug-In . SVG Version: 6.00 Build 0)  -->
<svg version="1.1" id="레이어_1" xmlns="http://www.w3.org/2000/svg" xmlns:xlink="http://www.w3.org/1999/xlink" x="0px"
	 y="0px" viewBox="0 0 80 80" style="enable-background:new 0 0 80 80;" xml:space="preserve">
<style type="text/css">
	.st0{fill-rule:evenodd;clip-rule:evenodd;fill:#222222;}
</style>
<g id="express">
	<g id="akka">
		<path id="Express_logo" class="st0" d="M23.3,47.6l-4.7-6.1l-4.7,6.1H1V29h12.5v1.1H2.1v7.2h10.8v1.1H2.1v8h11.2l4.5-5.9L13,34
			h1.4l4.2,5.7l4.3-5.7h1.4l-5,6.5l5.4,7H23.3z M38.3,47.6V34h1.1v2c0,0,0,0,0-0.1c0.3-0.5,0.6-0.9,1.1-1.2c0.4-0.3,1-0.6,1.6-0.8
			c0.6-0.2,1.2-0.3,1.9-0.3c0.1,0,0.1,0,0.2,0l0.3,0v1.1l-0.3,0c-0.1,0-0.2,0-0.4,0c-0.7,0-1.3,0.1-1.8,0.3
			c-0.6,0.3-1.1,0.7-1.5,1.1c-0.4,0.5-0.7,1-0.9,1.7c-0.2,0.6-0.3,1.3-0.3,2v7.6H38.3z M62.4,47.8c-1.8,0-3.2-0.4-4.1-1.2
			c-0.9-0.8-1.4-2.1-1.4-3.8v-0.3h1.1v0.3c0,1.4,0.4,2.4,1.1,3c0.8,0.6,1.9,0.9,3.3,0.9c0.4,0,0.9-0.1,1.4-0.2
			c0.5-0.1,0.9-0.3,1.3-0.5c0.4-0.2,0.7-0.5,0.9-0.9c0.2-0.3,0.3-0.8,0.3-1.2c0-0.5-0.1-0.9-0.3-1.2c-0.2-0.3-0.5-0.6-0.9-0.8
			c-0.4-0.2-0.8-0.4-1.4-0.5c-0.5-0.1-1.1-0.3-1.6-0.4c-0.6-0.2-1.2-0.3-1.6-0.4c-0.5-0.1-0.9-0.3-1.3-0.5c-0.6-0.3-1-0.6-1.3-1.1
			c-0.3-0.5-0.4-1.1-0.4-1.8c0-0.4,0.1-0.8,0.2-1.2c0.2-0.4,0.4-0.8,0.8-1.2c0.4-0.3,0.9-0.6,1.5-0.8c0.6-0.2,1.3-0.3,2.1-0.3
			c1.5,0,2.7,0.4,3.6,1c0.9,0.7,1.4,1.8,1.4,3.4v0.3h-1.1v-0.3c0-0.6-0.1-1.1-0.3-1.5c-0.2-0.4-0.4-0.7-0.8-1
			c-0.3-0.3-0.7-0.5-1.2-0.6c-0.5-0.1-1-0.2-1.6-0.2c-0.9,0-1.5,0.1-2,0.3c-0.5,0.2-0.8,0.5-1.1,0.7c-0.2,0.3-0.4,0.5-0.4,0.8
			c-0.1,0.4-0.1,0.5-0.1,0.6c0,0.6,0.1,1,0.3,1.3c0.2,0.3,0.5,0.5,0.9,0.7c0.4,0.2,0.9,0.3,1.4,0.5c0.5,0.1,1.1,0.3,1.9,0.5
			c0.5,0.1,1,0.3,1.5,0.4c0.5,0.1,1,0.4,1.4,0.6c0.4,0.3,0.8,0.6,1.1,1c0.3,0.4,0.4,1,0.4,1.7c0,0.7-0.2,1.3-0.5,1.8
			c-0.3,0.5-0.7,0.9-1.2,1.2c-0.5,0.3-1,0.5-1.6,0.7C63.5,47.8,62.9,47.8,62.4,47.8L62.4,47.8z M74,47.8c-1.8,0-3.2-0.4-4.1-1.2
			c-0.9-0.8-1.4-2.1-1.4-3.8v-0.3h1.1v0.3c0,1.4,0.4,2.4,1.1,3c0.8,0.6,1.9,0.9,3.3,0.9c0.4,0,0.9-0.1,1.4-0.2
			c0.5-0.1,0.9-0.3,1.3-0.5c0.4-0.2,0.7-0.5,0.9-0.9c0.2-0.3,0.3-0.8,0.3-1.2c0-0.5-0.1-0.9-0.3-1.2c-0.2-0.3-0.5-0.6-0.9-0.8
			c-0.4-0.2-0.8-0.4-1.4-0.5c-0.5-0.1-1.1-0.3-1.6-0.4C73,41,72.5,40.8,72,40.7c-0.5-0.1-0.9-0.3-1.3-0.5c-0.6-0.3-1-0.6-1.3-1.1
			C69.1,38.7,69,38,69,37.3c0-0.4,0.1-0.8,0.2-1.2c0.2-0.4,0.4-0.8,0.8-1.2c0.4-0.3,0.9-0.6,1.5-0.8c0.6-0.2,1.3-0.3,2.1-0.3
			c1.5,0,2.7,0.4,3.6,1c0.9,0.7,1.4,1.8,1.4,3.4v0.3h-1.1v-0.3c0-0.6-0.1-1.1-0.3-1.5c-0.2-0.4-0.4-0.7-0.8-1
			c-0.3-0.3-0.7-0.5-1.2-0.6c-0.5-0.1-1-0.2-1.6-0.2c-0.9,0-1.5,0.1-2,0.3c-0.5,0.2-0.8,0.5-1.1,0.7c-0.2,0.3-0.4,0.5-0.4,0.8
			c-0.1,0.4-0.1,0.5-0.1,0.6c0,0.6,0.1,1,0.3,1.3c0.2,0.3,0.5,0.5,0.9,0.7c0.4,0.2,0.9,0.3,1.4,0.5c0.5,0.1,1.1,0.3,1.9,0.5
			c0.5,0.1,1,0.3,1.5,0.4c0.5,0.1,1,0.4,1.4,0.6c0.4,0.3,0.8,0.6,1.1,1c0.3,0.4,0.4,1,0.4,1.7c0,0.7-0.2,1.3-0.5,1.8
			c-0.3,0.5-0.7,0.9-1.2,1.2c-0.5,0.3-1,0.5-1.6,0.7C75.2,47.8,74.6,47.8,74,47.8L74,47.8z M54.9,40.1c0-0.6-0.1-1.3-0.3-1.9
			c-0.2-0.7-0.5-1.3-0.9-1.8c-0.4-0.5-0.9-0.9-1.5-1.2c-0.6-0.3-1.3-0.4-2.1-0.4c-0.7,0-1.3,0.1-1.9,0.4c-0.6,0.2-1.1,0.6-1.5,1.1
			c-0.4,0.5-0.8,1.1-1.1,1.8c-0.2,0.6-0.4,1.3-0.5,2H54.9z M49.9,47.8c-1,0-1.9-0.2-2.6-0.5c-0.8-0.4-1.4-0.9-1.9-1.5
			c-0.5-0.6-0.8-1.4-1.1-2.3c-0.2-0.9-0.3-1.8-0.3-2.8c0-1.1,0.2-2.1,0.5-3c0.3-0.9,0.8-1.6,1.3-2.2c0.5-0.6,1.2-1.1,1.9-1.4
			c0.7-0.3,1.5-0.5,2.2-0.5c1.1,0,2,0.2,2.7,0.6c0.8,0.4,1.4,1,1.9,1.6c0.5,0.7,0.8,1.4,1.1,2.3c0.2,0.8,0.3,1.7,0.3,2.7l0,0.3H45.2
			c0,0.7,0.1,1.4,0.3,2.1c0.2,0.7,0.5,1.3,0.8,1.8c0.4,0.5,0.9,0.9,1.5,1.2c0.6,0.3,1.3,0.4,2.2,0.4c1.3,0,2.4-0.3,3.2-1
			c0.8-0.7,1.4-1.7,1.6-3l0-0.3h1.1l0,0.3c-0.2,1.6-0.8,2.8-1.9,3.7c-1.1,0.9-2.4,1.3-3.9,1.3C50,47.8,50,47.8,49.9,47.8L49.9,47.8z
			 M30.8,34.8c-0.8,0-1.5,0.2-2.1,0.5c-0.6,0.3-1.1,0.7-1.5,1.3c-0.4,0.5-0.7,1.2-1,1.9c-0.2,0.7-0.3,1.5-0.3,2.3
			c0,1.9,0.5,3.4,1.4,4.5c0.9,1,2.1,1.5,3.6,1.5c0.8,0,1.5-0.2,2.1-0.5c0.6-0.4,1.1-0.8,1.5-1.4c0.4-0.6,0.7-1.2,0.9-1.9
			c0.2-0.7,0.3-1.5,0.3-2.2c0-0.8-0.1-1.6-0.3-2.3c-0.2-0.7-0.5-1.3-0.9-1.9c-0.4-0.5-0.9-1-1.5-1.3C32.3,35,31.6,34.8,30.8,34.8
			L30.8,34.8z M24.8,52V34h1.1v2.6c0.1-0.1,0.1-0.2,0.2-0.4c0.3-0.5,0.7-0.9,1.2-1.3c0.5-0.4,1-0.7,1.6-0.9c0.6-0.2,1.2-0.3,1.9-0.3
			c0.9,0,1.7,0.2,2.4,0.5c0.7,0.4,1.3,0.9,1.8,1.5c0.5,0.6,0.9,1.4,1.1,2.2c0.3,0.8,0.4,1.8,0.4,2.8c0,0.9-0.1,1.8-0.4,2.7
			c-0.3,0.9-0.6,1.6-1.1,2.3c-0.5,0.7-1.1,1.2-1.8,1.6c-0.7,0.4-1.6,0.6-2.5,0.6c-1.4,0-2.6-0.4-3.6-1.1c-0.6-0.4-1-1-1.3-1.6V52
			H24.8z"/>
	</g>
</g>
</svg>
