<?xml version="1.0" encoding="utf-8"?>
<!-- Generator: Adobe Illustrator 26.3.1, SVG Export Plug-In . SVG Version: 6.00 Build 0)  -->
<svg version="1.1" id="레이어_1" xmlns="http://www.w3.org/2000/svg" xmlns:xlink="http://www.w3.org/1999/xlink" x="0px"
	 y="0px" viewBox="0 0 80 80" style="enable-background:new 0 0 80 80;" xml:space="preserve">
<style type="text/css">
	.st0{fill-rule:evenodd;clip-rule:evenodd;fill:#222222;}
</style>
<g id="flask">
	<g id="akka">
		<path id="flask_logo" class="st0" d="M66.3,62.7c-1.6-0.4,0.7-0.4,1.2-0.4C70.7,62.3,67.7,62.7,66.3,62.7 M65,62.6
			C64.2,63,65,61.7,65,62.6 M61.7,62.7C60.9,62.8,62.1,61.7,61.7,62.7 M55.9,63.2l-0.5,0L55,63.1c0.2-1.6,3.9-0.3,5.4-0.3
			C59.9,64,57.1,62.9,55.9,63.2 M54.6,65.8C52.5,65.6,56.2,65.2,54.6,65.8 M20.9,41C20.5,41.1,20.8,40.6,20.9,41 M22.1,41.3
			C21.3,41.3,22.2,40.3,22.1,41.3 M23.1,41C22.4,40.8,23.4,40.8,23.1,41 M31.8,51.9C31.2,52,31.4,51.1,31.8,51.9 M29.6,51.8
			C28.9,51.9,29.6,51.2,29.6,51.8 M49.9,62.8c-1.6-0.6-4.2-2.3-6-1.1c-2.4,1.5,1.2-1.7-0.7-0.3c-2,2.4-1.3-1.5-3.3-0.3
			c-0.1-0.4-1.7-0.5-0.5-1.1c-1.1-0.1-0.4-0.1,0-1c-0.5-0.1-3.1,0-4.1-0.9c-1.2-1.6,0.2-0.9,1.5-0.7c-2,0.4,0.7,1.5,2,0.9
			c-0.6-0.3-1.3-1.6-2.9-2.7c-2.2-1.4-4.1-2-6.4-3.1c-2.5-1.5,0.6-0.5,1.4,0.3c2.5,1.1,1.5-1.6,0.1-2.3c-1.4,0.1-1.9-1.3-2.8-1.6
			c1.8,0.1,2.8-0.7,0.7-2.6c-2.1-2.5,0.9,1.9-0.4,1.3c-0.6-0.8-0.1-1.8-1.9-2.2c0,0.7-0.2,1.8-0.6,0.3c-0.5,0.1-1.1,0.6-1.5-0.9
			c0.4-1.7-1.7-2.1-2-3.2c1.8,1.1,2.6,0.2,1.3-1c-0.9-1.5-1-0.3-1.5-0.1c-1.8,1.8-0.2-3.1-0.9-1.7c-0.8,0-0.3,0.9-0.3,2
			c-2.6-0.6,0.6,1.4,1.4,2.5c-1.2-1.2-1,0.9-1.9-0.1c-0.3-0.9-0.4-2.3-2-2.6c1.9-0.6-1.1-2-0.9-2c1.1-1,1.2-2.3,2.5-0.2
			c-1.6-0.1,0,2.7,0.3,1.8c-0.1-1.4,0.7-3-1.8-3.6c-0.7,1-2-1.9-0.5-1.3c-0.2-1.9,2.2-0.8,2.1-1.6c1.2-0.5-1.5-2.3,0-3
			c1.1,0.7,4.1-1.1,2.1-1.3c1.2,0,2.2,0.5,2.4-0.7c1,0.2,3.7,1.1,1.3-0.3c0.8-0.4,2.5-0.7,3.4-0.7c2.4-1.9,1.9,3,1.3,4.4
			c0.9-0.6,0.7,2.9,0.4,4.2c0.5-0.7,0.7,1.1,0.1,2.3c0-0.2,1.2-0.4,0.3,1.1c-0.6-1.4-0.9,2.9-0.5,1c1.1-1.8,0.8-0.1,1.2,0.7
			c0.2,1.7,1,3.2,1.2,4.7c1,1.1-0.4,0.3-0.4,1.8c0.3-0.4,1.7,0.6,1.7,2.1c0.1-2.4,0.2-0.6,1.4,0.1c1,1.6,1.7,3,3.1,4.3
			c1.1,1.3-0.1,0.4,0.4,1.2c1.2,2.1,3.9,3.3,6.3,3.9c1,1.4,2.6,2.7,4.7,2.1c-1.8,1.1,5,1.4,2.7,2C52.2,63.8,51.1,62.7,49.9,62.8
			 M51.2,64.1l-0.4,0.3C50.1,63.8,53,62.5,51.2,64.1 M50.2,64.2C48.3,65.3,52,61.8,50.2,64.2 M48.9,64.4
			C47.5,64,51.1,62.3,48.9,64.4 M48.9,63.2L48.9,63.2l-0.3,0.1C48.5,62.1,50.8,61.8,48.9,63.2 M46.6,63.4
			C45.6,62.5,49,61.4,46.6,63.4 M47.8,64.6C47.2,64.7,47.8,64.2,47.8,64.6 M48,63.4L48,63.4C46.2,63.5,49.9,60.9,48,63.4 M44.8,61.6
			C43,62.2,46.7,60.5,44.8,61.6 M44.7,62.1c1.7-1.7,1.8-0.9,1.7,0.5c-1.5,1.9-0.6-0.8-1.5,0.3C44,63.7,44.2,62.4,44.7,62.1
			 M43.4,62.5C42.9,63.1,43.5,61.8,43.4,62.5 M43.4,63.5C43,63.7,43.4,63,43.4,63.5 M42.5,62.6C41.6,63.3,42.6,61.7,42.5,62.6
			 M37.3,60.3C35.5,59.9,39.2,60.3,37.3,60.3 M40.2,63.9c2.8,0.9-1.7,0.3-2.6-0.2C35,62.7,39.7,64,40.2,63.9 M38.4,59.5
			C36.5,59.1,40.3,58.8,38.4,59.5 M36.7,62.7C34.2,62.4,37.4,62,36.7,62.7 M39.4,65.5c-2.8-0.3-5.3-1.5-7.8-2.6
			c-0.4-0.2-0.7-0.4-1.1-0.6c-1.8-1-1.5-1.2,0.2-0.2c0.6,0.5,4.9,2.2,2.8,1.1c-0.9-0.2-5.8-2.9-2.6-1.7c2.6,1.6,5.6,2.4,8.4,3.6
			c2.4,0.3,5,1,7.4,0.4c2,1,4.1-0.3,6.1,0.6C48.4,67.1,43.8,66.1,39.4,65.5 M28.3,53.8C28.4,54,28,53.5,28.3,53.8 M28.7,53.3
			C26.4,51.2,33.4,54.9,28.7,53.3 M31.2,57.3C28.8,56.9,32.3,56.8,31.2,57.3 M30.8,56.1C29.9,56.1,30.6,55.6,30.8,56.1 M30.6,60.3
			C29.8,60,31.1,60.1,30.6,60.3 M31,59.4C28.9,59.4,32.6,58.6,31,59.4 M31.7,60.4C31.1,60.7,31.6,59.7,31.7,60.4 M31.4,54.4
			c1.6,0.1,1.6,0.6-0.2,0.3c-0.3-0.1-0.8-0.1-1-0.4C27.9,53.3,30.5,53.8,31.4,54.4 M34.6,57.3C32.1,57.1,34.9,56.6,34.6,57.3
			 M33.2,59.4C31,59,34.6,59,33.2,59.4 M33.2,61.7C31,61.2,34.7,60.9,33.2,61.7 M32.1,56.9l-0.3-0.2C30.4,54.6,33.6,57.3,32.1,56.9
			 M31.6,59.2C31.2,59.4,31.6,58.8,31.6,59.2 M32.6,57.8L32.6,57.8l-0.4-0.1l-0.4-0.2C29.9,55.7,35.8,58.7,32.6,57.8 M32.1,54.1
			c-1.9-0.5,0.7-0.7,1.2,0.1C36.5,54.9,33.1,55.1,32.1,54.1 M34.8,58.1C34.7,58.2,34.5,57.8,34.8,58.1 M35.6,59.6
			C33.1,59.1,36.2,58.7,35.6,59.6 M27.3,54.5l-0.5-0.1c-2.1-1.1,1-0.8,2.4-0.3C32.2,54.6,28.5,55.1,27.3,54.5 M28.2,56.2
			C25.9,55.7,28.1,55.8,28.2,56.2 M20,45.4C19,45.4,20.4,44.8,20,45.4 M21.8,49.4C19.5,47.6,21.5,48.4,21.8,49.4 M21.8,48.4
			C19.5,46.9,21.5,46.9,21.8,48.4 M22.9,49.4C20.8,48.1,22.3,47.9,22.9,49.4 M26.4,52.9C25.7,52.9,26.3,52.4,26.4,52.9 M25.7,53
			C23.6,52.3,27.2,52.9,25.7,53 M27.9,53C25.7,52.2,29.3,52.9,27.9,53 M28.2,48.4C25.8,47.6,28.2,46.4,28.2,48.4 M26.7,47.9
			c0.1,0.5-2.3,0.4-0.2,1.3c-1.3,0-1.6-0.1,0.2,0.9c-0.7,0.5,1.4,1,0.7,1.7c2.2,1.6-0.4,0.4-1.3-0.2c-0.5-0.4-2.8-1.1-2.4-1.5
			c2.6,1.3,0.7-0.1-0.5-0.9c2.1,0.5-1.7-1.5,0.3-1c0.6,0.1-0.9-1.2,1.1-0.2C22.6,46.5,25.9,47.8,26.7,47.9 M22.9,42
			c1.1-0.5,0.4,2.5,1.5,2.8c2.1,3.1-1.4,0.1-2.6-0.2c0.1,0-1-0.4-0.5-0.5c-0.4-0.4-1.2-2.1,0.7-1C23.5,44,23.6,43.4,22.9,42
			 M18.1,41.2C16.1,40.8,19.9,40.6,18.1,41.2 M18,40C16.2,39.8,19.9,39.7,18,40 M27.2,58.9c-1-0.2-1.7-1.3-2.4-1.9
			c-2.1-1.3-3.5-3.6-4.7-5.7c-1.5-2.2-3.3-4.5-4.3-7.1c-1.2-2.7,0.8,0.2,1,1.2c0.6,2,2.6,3.1,2.8,4.5c2.2,1.3,1.1,3.3,2.9,3.9
			c0.8-0.4,0.9,2.5,2.7,1.9c-1,0.4,0.4,1,0.9,1.8C27.2,57.2,29.6,59.8,27.2,58.9 M14.5,39.9c1.2,1.5,0.7,2.3,1.9,4.2
			c-1.6-1.1-1.9-3.6-2.9-5.2C12.5,36.1,14.3,38.7,14.5,39.9 M14.3,36.6C12.2,36.2,13.7,34.3,14.3,36.6 M13.8,30.6
			C11.8,30.3,15.5,29.8,13.8,30.6 M13.4,32.6C13,32.7,13.4,31.8,13.4,32.6 M16.9,33.7C15.8,33.9,17,32.8,16.9,33.7 M15.9,32.3
			C14,31,17.7,30.8,15.9,32.3 M16.2,35.5l-0.2-0.2C14.1,33.7,17.3,34.6,16.2,35.5 M16.4,36.6C14.1,36.2,16.2,34.3,16.4,36.6
			 M15.3,39.8c-0.6-0.3-0.6-1.5-0.9-2.1C13.7,34.6,15.5,38.8,15.3,39.8 M16.4,35.9C14,35.4,16.5,35.3,16.4,35.9 M16.6,36.6
			C16.4,36.9,16.3,36.4,16.6,36.6 M17.3,32.6C14.9,32.4,18.4,32,17.3,32.6 M18.8,32.5C18.4,32.9,18.6,31.8,18.8,32.5 M18.6,32.3
			c0,0.1-1-0.2-0.6-0.4c3,0.3-2.6-0.8,0.4-0.6C20.3,31.2,19.7,32.2,18.6,32.3 M20.9,29.4C20.3,29.2,21.4,28.8,20.9,29.4 M12,30.1
			l-0.2,0c-2.1-2.6,0.2-3.7,2.8-4.1c-0.5,1.2,0.7,1.6,1.9,1.8c1.9-0.5-1.2-0.9,0.2-1.3c0.8-0.1-2.5-0.8,0.2-1.1
			c2.8-0.5,5.3-1.6,8.1-2.1c2.5-0.5,4.9-0.8,7.1-0.6c0.9,1.1-0.7,2.8-2.3,3c-2,0.8-4.1,0.9-5.9,1.2c-2.4-0.3-4.1,1.8-6.6,2.1
			c0.7-1.2-0.5-0.4-1.8-0.5c0.6,2.5-4.4-0.7-1.4-1.3C11.8,26.4,11.8,28.8,12,30.1 M12.3,33.6C12,33.9,12.3,32.9,12.3,33.6
			 M20.4,21.3c1,0,5.4-1.7,4-0.2c1.2,1.2,0.5,1-0.4,0.2c0.4,0.7-0.2,2.1-1.3,0.9c-0.8-1.2-1.3-0.6-0.7,0.2c-1.1-1.1-3.5-0.5-5.3,0
			C15.4,22.3,19.9,21.5,20.4,21.3 M20.1,20.5c1.8,1.6-1,0-2.1,1C16.2,21.8,20,20.3,20.1,20.5 M18.8,17.5
			C18,17.8,19.3,16.9,18.8,17.5 M16.9,15.1c-1.2-0.6,0-3,1.3-1.9C19.8,15.5,15.4,13,16.9,15.1 M20,17.8l-0.4,0
			C19.5,16.8,21.8,17.5,20,17.8 M23.9,19.6c-1.9-0.8,0.4,0.9-1.2,0.9c-0.9,0-2.4-1.4-1.9-2.1C21.7,18.7,23.6,18.8,23.9,19.6
			 M40.4,55.2C39.5,55.4,40.4,54.2,40.4,55.2 M43.2,56.2L43.2,56.2C41.1,56.2,42.7,55.5,43.2,56.2 M42.3,57.1
			C41.9,57.2,42.2,56.7,42.3,57.1 M48.8,60.3C48.1,60.3,49.3,59.9,48.8,60.3 M57.8,60.5C55.7,60.3,59.4,59.8,57.8,60.5 M36.7,25.8
			c-0.2,0.1-0.2-0.3-0.4-0.4C34.5,24.3,37.2,24.7,36.7,25.8 M59.6,58.4C58.9,58.5,59.7,57.4,59.6,58.4 M64.8,61
			c-1.6,1.9-2.9-0.2-4.9,0.4c-3.3,0.2,0.3-1.5,0.2-3c-1.7-1.3-3.7,1.8-4.8,2.7c-2.8-0.5-5.5-1.3-8-2.5c-2.9-1.5-5.7-3.3-7.8-5.8
			c-2.2-2.6-4.6-5.2-5.6-8.6c-2.1-5.5-2-11.5-2.5-17.2c0.2-3.9,4.3,0.4,6.1-1c-0.6-2-3.9-2.7-5.7-3.5c-1.7-0.1-2.4-1.7-4.2-1.8
			c0.1-2.2-3.4-1-4.7-2.5c1.2-3.2-4.1,0.1-3.7-2.7c1.8-3.6-5.3-3-2.4,0.2c2.8,1.6-2.8,2.8-1.2,3.9c0.5,1.1,0,2.4-1.6,2.6
			c-2.3,0.2-2,3.3,0.2,1.7c2.4-0.8,0.4,0.3-0.7,0.5c-2.6,0.8-4.4,3.3-2.8,5.7c1.4,3.3,1.8,6.9,2.9,10.3c1.8,5.2,4.5,10.2,8.1,14.5
			c1.7,2.4,4.1,4.2,6.4,6c2.3,1.5,4.8,2.9,7.3,3.7c4.5,1.7,9.4,1.8,14.2,2.2c2.9,0,5.8-0.2,8.7-0.7c2.6,0.3,4.4-1.9,6.8-0.8
			c1.4-1.3,3.5-0.7,4.9-1.6C70.9,59.9,66.3,62.8,64.8,61"/>
	</g>
</g>
</svg>
