<?xml version="1.0" encoding="utf-8"?>
<!-- Generator: Adobe Illustrator 26.3.1, SVG Export Plug-In . SVG Version: 6.00 Build 0)  -->
<svg version="1.1" id="레이어_1" xmlns="http://www.w3.org/2000/svg" xmlns:xlink="http://www.w3.org/1999/xlink" x="0px"
	 y="0px" viewBox="0 0 80 80" style="enable-background:new 0 0 80 80;" xml:space="preserve">
<style type="text/css">
	.st0{fill-rule:evenodd;clip-rule:evenodd;fill:#4285F3;}
	.st1{fill-rule:evenodd;clip-rule:evenodd;fill:#3D7CE2;}
</style>
<g id="gke">
	<g id="Group-10" transform="translate(6.000000, 9.000000)">
		<g id="Clip-2">
		</g>
		<path class="st0" d="M67.2,27.9c-0.7-1.3-1.4-2.5-2.1-3.7c-1.5-2.7-3.1-5.3-4.6-8c-1.4-2.5-2.8-4.9-4.2-7.3
			c-1-1.8-2.1-3.6-3.1-5.4c-1.2-2.1-3-3.3-5.5-3.3c-9.2,0-18.4,0-27.6,0c-0.7,0-1.4,0.1-2,0.3C16.5,1,15.4,2,14.6,3.4
			c-1.6,2.8-3.2,5.5-4.8,8.3c-1.4,2.5-2.9,5-4.3,7.5c-1.5,2.7-3,5.3-4.6,8c-1,1.7-1.2,3.6-0.5,5.5c0.4,1,1.1,1.9,1.6,2.9
			c1.5,2.5,2.9,5.1,4.4,7.6c1.7,3,3.5,6.1,5.2,9.1c1,1.9,2,3.7,3.1,5.5c1.3,2.1,3.1,3.3,5.6,3.3c7.3,0,14.6,0,21.9,0
			c0.1,0,0.1,0,0.2,0c0.1,0.1,0.1,0.1,0.2,0.2c1.9,0,3.8,0,5.7,0c0.1,0,0.3,0,0.4,0c1.8-0.4,3.3-1.2,4.3-2.8
			c1.3-2.2,2.5-4.4,3.8-6.6c1.7-2.9,3.3-5.8,5-8.7c0.8-1.4,1.6-2.8,2.4-4.2c0,0,0,0,0,0c0.7-1.1,1.2-2.2,1.9-3.4
			c0.5-0.9,1.2-1.8,1.5-2.9C68.1,31,68,29.4,67.2,27.9z M47.9,24.2c0,4.6,0,9.2,0,13.8c0,0.6-0.3,1.1-0.8,1.4
			c-2.4,1.4-4.8,2.8-7.2,4.2c-1.8,1-3.5,2-5.3,3c-0.4,0.3-0.9,0.3-1.4,0c-1.6-0.9-3.1-1.8-4.7-2.7c-2.4-1.4-4.8-2.8-7.2-4.2
			c-0.1-0.1-0.3-0.2-0.5-0.3c0,0.2,0.2,0.3,0.3,0.4c7.1,7.1,14.1,14.1,21.2,21.2c0,0,0,0,0,0c0,0,0,0,0,0
			c-7.1-7.1-14.1-14.1-21.2-21.2c-0.1-0.1-0.3-0.2-0.3-0.4c-0.7-0.4-0.9-0.9-0.9-1.7c0-4.6,0-9.3,0-13.9c0-0.8,0.3-1.2,0.9-1.6
			c3.7-2.2,7.3-4.3,11-6.4c0.4-0.3,0.9-0.5,1.3-0.8c0.5-0.3,1-0.3,1.5,0c3.8,2.2,7.6,4.4,11.4,6.6c0.3,0.2,0.6,0.3,0.9,0.5
			c0.3,0.2,0.6,0.4,0.8,0.7c0.1,0,0.1,0,0.2,0.1C48,23.2,48,23.6,47.9,24.2z"/>
		<path id="Fill-8" class="st1" d="M44.9,37.7c-1.3,0.7-2.5,1.5-3.8,2.2c-2.3,1.3-4.6,2.6-6.8,3.9c-0.2,0.1-0.3,0.1-0.4,0
			c-3.5-2-7-4-10.5-6l-0.1-0.1c0.7-0.4,1.3-0.8,1.9-1.1c0.7-0.4,1.4-0.8,2.2-1.3c0.2-0.1,0.3-0.1,0.5,0c1.8,1,3.5,2,5.3,3.1
			c0.1,0,0.1,0.1,0.2,0.1v-0.3c0-2.3,0-4.5,0-6.8c0-0.2-0.1-0.4-0.3-0.5c-2-1.2-4.1-2.3-6.2-3.5c0,0.2,0,0.3,0,0.4c0,2,0,3.9,0,5.9
			c0,0.2,0,0.3-0.2,0.4c-1.4,0.8-2.7,1.6-4.1,2.4c0,0,0,0-0.1,0c-0.1-0.1,0-0.2,0-0.3c0-3.9,0-7.9,0-11.8c0-0.3,0.1-0.4,0.3-0.6
			c2.5-1.4,5-2.9,7.5-4.3c1-0.6,2-1.1,3-1.7c0.1,0.1,0.1,0.2,0.1,0.3c0,1.5,0,2.9,0,4.4c0,0.3-0.1,0.4-0.3,0.5c-1.7,1-3.4,2-5.1,3
			c-0.1,0.1-0.2,0.1-0.3,0.2c0.3,0.3,0.7,0.4,1,0.6c1.7,1,3.4,1.9,5.1,2.9c0.2,0.1,0.4,0.2,0.6,0.1c2-1.2,4-2.3,6-3.4
			c0.1,0,0.1-0.1,0.2-0.1c-0.5-0.3-1-0.6-1.4-0.8c-1.4-0.8-2.8-1.6-4.1-2.4c-0.1-0.1-0.2-0.2-0.2-0.3c0-1.5,0-3,0-4.5
			c0-0.2,0-0.3,0.3-0.2c1.7,1,3.5,2,5.2,3s3.3,1.9,5,2.9c0.3,0.2,0.4,0.3,0.4,0.7c0,3.9,0,7.8,0,11.7c0,0.4,0,0.4-0.4,0.2
			c-1.3-0.7-2.5-1.4-3.8-2.2c-0.2-0.1-0.3-0.3-0.3-0.5c0-2,0-4,0-5.9c0-0.1,0.1-0.3-0.1-0.3c-0.1,0-0.2,0.1-0.3,0.1
			c-2,1.1-4,2.3-6,3.4c-0.2,0.1-0.2,0.2-0.2,0.4c0,2.3,0,4.6,0,6.9c0,0.3,0.1,0.3,0.3,0.2c1.8-1,3.5-2,5.3-3.1
			c0.1-0.1,0.2-0.1,0.4,0C42,36.1,43.4,36.9,44.9,37.7"/>
	</g>
</g>
</svg>
