<?xml version="1.0" encoding="utf-8"?>
<!-- Generator: Adobe Illustrator 26.3.1, SVG Export Plug-In . SVG Version: 6.00 Build 0)  -->
<svg version="1.1" id="레이어_1" xmlns="http://www.w3.org/2000/svg" xmlns:xlink="http://www.w3.org/1999/xlink" x="0px"
	 y="0px" viewBox="0 0 80 80" style="enable-background:new 0 0 80 80;" xml:space="preserve">
<style type="text/css">
	.st0{fill-rule:evenodd;clip-rule:evenodd;fill:#FFFFFF;}
</style>
<g id="glassfish">
	<g id="Group-9" transform="translate(4.000000, 24.000000)">
		<path id="Fill-3" class="st0" d="M52.5,16.8c-0.6-0.5-0.6-0.5,0.4-0.4c0.6,0.1,1,0.2,1,0.4C53.7,17.4,53.2,17.4,52.5,16.8
			 M48.9,16.2c0-2.9,0-3.1,0.5-2.6c0.7,0.7,1,3,0.5,4.5C49.3,20.2,48.9,19.5,48.9,16.2 M45.2,17.6c0-1.2-0.1-2.8-0.2-3.5
			c-0.3-1.8,0.3-1.4,1.4,0.9c0.7,1.5,0.8,1.8,0.4,2.3c-0.3,0.3-0.5,0.9-0.6,1.3c-0.1,0.5-0.3,0.9-0.5,1
			C45.3,19.7,45.2,19.2,45.2,17.6 M41.1,18.4c0-1.1-0.1-2.8-0.3-3.8c-0.1-1-0.1-1.9,0-2c0.4-0.2,0.9,0.6,1.2,1.7
			c0.1,0.6,0.6,1.3,1,1.6l0.7,0.6L42.9,17c-0.4,0.3-0.8,0.9-0.8,1.3c0,1-0.3,1.9-0.7,1.9C41.2,20.4,41.1,19.5,41.1,18.4 M36.6,16.6
			c-0.1-2.3-0.1-4.3,0-4.3c0.2-0.3,0.7,0.7,1.2,2.2c0.2,0.7,0.6,1.5,0.7,1.6c0.2,0.1,0.2,0.5,0,0.9c-0.2,0.3-0.4,1.3-0.6,2.1
			C37.2,21.8,36.8,21,36.6,16.6 M32.5,21c-0.1-0.2-0.2-2.4-0.3-4.8c-0.2-3.7-0.1-4.3,0.3-4c0.3,0.2,0.6,0.9,0.7,1.5
			c0.1,0.6,0.5,1.4,0.7,1.9c0.4,0.6,0.4,1,0.2,1.5c-0.2,0.4-0.4,1.4-0.6,2.3C33.2,21,32.7,21.9,32.5,21 M28,18.3
			c-0.1-2.5-0.3-5.1-0.4-5.8s-0.1-1.3,0.1-1.3c0.3,0,1.2,1.8,1.6,3.4c0.1,0.5,0.5,1.1,0.8,1.4c0.5,0.5,0.5,0.7,0,1.2
			c-0.3,0.3-0.6,1.1-0.6,1.8c0,1.4-0.6,3.7-1,3.7C28.4,22.8,28.2,20.7,28,18.3"/>
		<path id="Fill-5" class="st0" d="M51.5,24.8c-1.9,0-4.6,2.7-4.6,4.7c0,0.6-0.1,0.7-0.6,0.5c-4.6-1.9-7.5-2.5-8.7-1.7
			c-1,0.6-1.1,1.8-0.3,2c0.3,0.1,2.1,0.4,4,0.6s3.6,0.5,3.9,0.7c0.4,0.2,0.9,0.3,1.4,0.3c0,0,0,0,0.1,0l0,0c0.4,0,0.8-0.1,1.1-0.3
			l0,0l0,0c0.1,0,0.2-0.1,0.3-0.1c0.4-0.3,0.6-0.9,0.6-2c0-1.6,0.5-2.4,2.6-3.9C52,25,52,24.8,51.5,24.8 M1.1,20.3
			c-0.2,0-0.4,0-0.6,0.1c0,0,0,0-0.1,0.1c-0.3,0.1-0.5,0.5-0.4,1l0,0l0,0c0,0.4,0.1,0.9,0.5,1.2c1.7,1.8,10.1,6.2,13.2,6.8
			c2.1,0.4,3,0.4,5,0c1.9-0.4,4.3-2,4.9-3.2c0.4-1,0-1.6-0.4-0.8c-0.2,0.3-1,1-1.9,1.5c-1.3,0.8-2,0.9-3.8,0.9
			c-3.5-0.1-6.9-1.7-13.2-6.3l-1.5-1.1C2.3,20.4,1.7,20.3,1.1,20.3 M14.2,15.6c0.4-0.1,1.2,0.5,1.3,0.9c0.2,0.6-1.3,0.5-1.5-0.1
			c-0.1-0.3-0.1-0.6,0-0.8C14.1,15.7,14.1,15.7,14.2,15.6 M15.2,14c-0.9,0-1.8,0.5-2.5,1.5c-0.6,0.9-0.4,1.7,0.8,3
			c0.7,0.8,2.3,0.5,3.4-0.6c0.9-1.1,0.9-1.4,0.1-2.8C16.5,14.3,15.9,14,15.2,14 M70.4,7.5c-1.2,0-10.2,4.2-10.2,4.8
			c0,0.5,1.9,0.3,5.9-0.7c1.5-0.4,2.8-0.5,3-0.4s0.3,1.5,0.1,3.6c-0.2,2.7-0.1,4.1,0.5,6.6c0.7,3.4,0.9,5.5,0.4,5.5
			c-0.2,0-0.9-0.7-1.7-1.7c-1.6-1.9-3.6-2.8-5.9-2.7L61,22.6l2.2,0.8c2.5,0.9,3.2,1.5,5.4,4.8c0.8,1.2,1.6,2.3,1.8,2.5
			c0.5,0.4,0.7,0.3,1.2-0.2c0.2-0.2,0.3-0.9,0.3-2.4l0,0c0-1,0-2.4-0.1-4c0-0.5-0.1-0.8-0.1-1.2c-0.2-5.3-0.2-6.4,0.1-9.9
			C72.2,8.6,71.9,7.5,70.4,7.5 M45.3,0c-0.6,0-1.2,0.2-2.1,0.7c-0.8,0.4-2.5,1.1-3.9,1.6s-3.1,1.2-3.8,1.6c-1.1,0.6-1.9,0.8-4.4,0.8
			C21.9,4.8,12.4,8,5.6,13c-3.5,2.6-5.5,5.7-4.3,6.5c0.4,0.2,0.8,0.4,1.9,0.1C3.7,19.3,5,18.1,6,17c3.8-3.9,10.4-7.5,17-9.3
			c2.7-0.7,4.3-0.9,9.6-1c7.1,0,10.2,0.3,16.3,2.1c1.9,0.6,3.6,1,3.6,0.9c0.3-0.3-5.1-2.6-7.9-3.4c-1.7-0.4-3.1-0.9-3.1-1.1
			c-0.1-0.2,0.3-0.5,0.7-0.8c0.5-0.3,1.4-1,2-1.5l1.2-1l1.3,1.3c0.9,0.9,1.8,1.5,3,1.8c0.9,0.2,1.9,0.7,2.3,1c0.5,0.4,0.6,0.5,0.6,0
			c0-0.7-1.2-1.7-2.8-2.4c-0.7-0.3-1.5-1-1.9-1.5C47,0.7,46.3,0,45.3,0"/>
		<path id="Fill-7" class="st0" d="M50.1,10.8c-6.7-2.2-18.6-2.2-26.6-0.1c-1.6,0.4-2,0.4-2.4,0C20.4,10,21.6,9.3,25,8.4
			c6.5-1.3,22.5-1.8,28,2.9C53,11.6,52.3,11.5,50.1,10.8L50.1,10.8z M62.3,19.1c0.2-0.9,0.1-1.8-0.3-2.6c-0.7-1.6-0.7-1.5,0.1-1.5
			c1,0,2.5,1.9,2.2,2.8c-0.3,1-1.3,2.3-1.8,2.5C62.2,20.4,62.2,20.1,62.3,19.1L62.3,19.1z M15.6,26.4L14.4,26l2.1-0.4
			c2.8-0.5,3.5-1.2,3.5-3.3c0-1.8,0.4-2.1,1.2-0.9c1.2,1.7,0.4,4-1.7,4.9C18.2,26.9,17.3,26.9,15.6,26.4L15.6,26.4z"/>
	</g>
</g>
</svg>
