<?xml version="1.0" encoding="utf-8"?>
<!-- Generator: Adobe Illustrator 26.3.1, SVG Export Plug-In . SVG Version: 6.00 Build 0)  -->
<svg version="1.1" id="레이어_1" xmlns="http://www.w3.org/2000/svg" xmlns:xlink="http://www.w3.org/1999/xlink" x="0px"
	 y="0px" viewBox="0 0 80 80" style="enable-background:new 0 0 80 80;" xml:space="preserve">
<style type="text/css">
	.st0{fill-rule:evenodd;clip-rule:evenodd;fill:#FFFFFF;}
</style>
<g id="hapi">
	<g id="akka">
		<g id="Group-153" transform="translate(0.000000, 10.000000)">
			<path id="Fill-57" class="st0" d="M53.4,29.9c0.4,0.1,0.7,0.6,0.7,1.2s-0.3,1.1-0.7,1.2c-0.1,0.1-0.2,0.1-0.3,0.1
				c-0.5,0-0.9-0.5-0.9-1.2s0.4-1.2,0.9-1.2C53.2,29.9,53.3,29.9,53.4,29.9"/>
			<path id="Fill-59" class="st0" d="M51.4,25.5c0.2-0.1,0.5-0.1,0.7,0c0.1,0,0.3,0.1,0.4,0.2c0.2,0.2,0.4,0.4,0.6,0.8
				c0,0.1,0,0.1,0,0.2c0.1,0.3,0.1,0.6,0,0.8c-0.1,0.3-0.3,0.5-0.5,0.6h-0.1c0,0,0,0-0.1,0s-0.2,0.1-0.3,0.1c-0.2,0-0.4-0.1-0.6-0.2
				c-0.3-0.2-0.5-0.5-0.6-0.8C50.7,26.5,50.9,25.7,51.4,25.5"/>
			<path id="Fill-61" class="st0" d="M50.8,24.3c-0.1,0-0.1,0.1-0.2,0.1c-0.1,0.1-0.2,0.1-0.3,0.1c-0.4,0-0.8-0.3-1-0.7
				c-0.3-0.6-0.3-1.3,0.2-1.5c0.2-0.1,0.5-0.1,0.8,0c0.1,0,0.1,0,0.2,0.1c0.2,0.1,0.4,0.3,0.6,0.6C51.3,23.5,51.2,24.1,50.8,24.3"/>
			<polygon id="Fill-63" class="st0" points="26.9,25.8 27.4,24.3 28.2,24.5 27.7,23 28,23.2 28,23.1 29.3,23.7 29.3,22.2 
				30.7,22.4 30.1,18.8 30.2,18.7 30.4,19 30.4,18.9 32.1,20.5 32.6,19.8 32.7,20 32.8,19.9 33.6,21 34.6,19.3 34.8,19.5 34.9,19.4 
				35.7,20.2 35.9,19.2 36.2,19.3 36.2,19.3 38.5,20.2 38.4,20.6 38.2,20.5 38.1,20.7 36.4,20 36.1,21.2 36,21.1 35.9,21.3 
				34.8,20.2 33.8,21.9 33.7,21.8 33.6,22.1 32.7,20.9 32.4,21.4 32.3,21.3 32.2,21.5 31.1,20.3 31.5,23 31.4,23 31.4,23.1 30,22.8 
				30,24.4 29.9,24.3 29.9,24.5 28.7,24 29.1,25.1 28.9,25.1 29,25.2 27.9,24.9 27.5,26 27.4,25.9 27.4,26 			"/>
			<path id="Fill-65" class="st0" d="M25.2,24c0.3-1.1,0.9-2.1,1.7-3.3c1.5-2,3.7-3.2,6.1-3.2c1.4,0,2.6,0.2,3.6,0.6
				c0.4,0.2,0.8,0.3,1.2,0.6c1.1,0.7,1.8,1.5,1.9,2.3c0,0.6-0.3,1-0.9,1.1c-0.1,0.1-0.3,0.1-0.5,0.1c-0.3,0-0.7,0.1-1.1,0.3
				c-1.9,0.7-4.1,2.1-5.8,3.3c-1.1,0.7-2,1.3-2.5,1.5h-0.1h-0.1c-0.3,0.1-0.7,0.2-1.1,0.2c-0.7,0-1.4-0.2-1.8-0.6
				C25.2,26.4,24.8,25.6,25.2,24 M27.5,21c-0.8,1.1-1.3,2.1-1.6,3.1c-0.3,1.1-0.2,1.9,0.3,2.3c0.2,0.1,0.3,0.3,0.5,0.3
				c0.6,0.2,1.2,0.1,1.7,0c0.4-0.1,1.3-0.7,2.4-1.4c2.1-1.4,5.1-3.4,7.3-3.7c0.6-0.1,0.8-0.3,0.8-0.7c0-0.2-0.1-0.5-0.3-0.8
				c-0.8-1-2.8-2.2-5.5-2.2c-0.7,0-1.3,0.1-2,0.4c-0.3,0.1-0.6,0.2-0.8,0.4h-0.1C29.1,19.3,28.2,20.1,27.5,21"/>
			<path id="Fill-69" class="st0" d="M22.9,47.3c0.3-0.8,1.2-1.3,1.8-1l0,0c0.1,0,0.1,0,0.2,0c0.3,0.1,0.6,0.4,0.7,0.8
				c0.1,0.4,0.1,0.8-0.1,1.1c-0.1,0.4-0.4,0.7-0.7,0.9c-0.1,0.1-0.2,0.1-0.4,0.1c-0.2,0.1-0.3,0.1-0.5,0.1c-0.1,0-0.3,0-0.4-0.1
				C22.8,49,22.6,48.1,22.9,47.3"/>
			<path id="Fill-71" class="st0" d="M22.1,43.5c-0.5,0-1-0.2-1.4-0.5s-0.7-0.8-0.8-1.3c-0.1-0.5,0-1,0.3-1.3s0.7-0.5,1.2-0.5
				c0.2,0,0.5,0.1,0.7,0.1c0.3,0.1,0.6,0.2,0.8,0.4c0.4,0.3,0.7,0.8,0.8,1.2c0.1,0.5,0,0.9-0.3,1.3c-0.2,0.2-0.4,0.4-0.7,0.4
				C22.5,43.4,22.3,43.5,22.1,43.5"/>
			<path id="Fill-73" class="st0" d="M15.1,38.4c0-0.7,0.7-1.3,1.6-1.3c0.2,0,0.5,0,0.7,0.1c0.6,0.2,1.1,0.6,1.1,1.2
				c0,0.6-0.4,1-1.1,1.2c-0.2,0.1-0.4,0.1-0.7,0.1C15.9,39.7,15.1,39.1,15.1,38.4"/>
			<path id="Fill-75" class="st0" d="M61.7,20.9L61.7,20.9l-0.5,0.4l-5.4,4c0-0.1-0.1-0.3-0.2-0.4c-0.2-0.5-0.4-0.9-0.7-1.3l6.5-3.1
				c0.1,0,0.1,0,0.2,0.1v0.1l0,0C61.7,20.7,61.7,20.8,61.7,20.9C61.7,20.8,61.7,20.8,61.7,20.9L61.7,20.9z M55.1,30.5
				c0-1.3-0.3-2.9-1-4.9c-0.8-2.3-2-3.4-3-4c1.9,0.4,3.2,1.5,4,3.5C55.9,27,55.7,28.9,55.1,30.5L55.1,30.5z M54.2,32.3
				c-0.7,1.1-1.5,2-2.1,2.5c0.1-0.7,0.1-1.6-0.2-2.7c-0.4-1.5-0.8-3.1-1.5-4.7c-0.7-1.8-1.8-3.7-3.3-5.7c0.4-0.1,0.9-0.2,1.5-0.3
				c0.6,0,3.2,0.1,4.7,4.3c0.1,0.3,0.2,0.5,0.3,0.8C54.6,29.2,54.6,31.3,54.2,32.3L54.2,32.3z M51.3,35.3c-0.8-8.2-5.6-10.4-7-10.8
				c-1.8-5.6-5.4-7.8-7.2-8.6c2.7,0.3,6.7,2.8,9.3,6c3,3.6,4.1,7.3,4.8,10.5C51.6,33.6,51.5,34.6,51.3,35.3L51.3,35.3z M43.9,28.9
				c-0.4-0.2-0.9-0.3-1.4-0.4c-3.9-0.7-10.3,3.5-12.8,5.3c-0.9,0.7-1.6,1.4-1.9,2c0.1-1.2,0.3-2.5,0.5-4.1c0.2-0.3,2.2-3.1,7.5-5.6
				c1.1-0.5,2.1-0.9,2.9-1.2c2.9-1,4.1-0.5,4.7-0.2c0.1,0,0.2,0.1,0.2,0.1l0,0c0.1,0,5.5,1.2,6.8,9.2C49.2,32,46.7,29.8,43.9,28.9
				L43.9,28.9z M21.7,26.4c-1.7-0.6-3.6-0.9-5.6-0.3c1.4-2.5,4.4-4.9,9.7-7.9c1.4-0.8,2.7-1.3,3.8-1.7c3.9-1.3,6-0.6,6-0.6h0.1l0,0
				c0.6,0.1,5.4,1.6,7.8,8.3c-0.1,0-0.2-0.1-0.3-0.1c-1-0.4-3-0.7-7.8,1.6c-4.6,2.2-6.7,4.5-7.4,5.4C27.2,30.1,24.9,27.5,21.7,26.4
				L21.7,26.4z M27.8,42.4c0.5,1.4,1.1,2.3,1.6,2.9c0.1,0.2,0.3,0.4,0.4,0.6c0.7,1.2,0.3,2.7,0.2,3c-0.7,0.8-2.3,0.7-3,0.6
				c0.1-0.1,0.2-0.3,0.3-0.4l0,0c0.1-0.1,0.2-0.3,0.2-0.5v-0.1c0.1-0.1,0.1-0.3,0.2-0.4V48c0-0.1,0.1-0.2,0.1-0.3s0-0.1,0-0.2l0,0
				c0-0.2,0.1-0.4,0.1-0.6l0,0c0.1-0.4,0.1-0.8,0.1-1.2c0,0,0,0,0-0.1c0-0.2,0-0.4,0-0.5V45c0-0.2,0-0.3-0.1-0.5c0-0.1,0-0.1,0-0.1
				c0-0.2-0.1-0.4-0.1-0.6c0-0.1,0-0.2-0.1-0.2c0-0.1-0.1-0.2-0.1-0.4c0-0.1-0.1-0.2-0.1-0.3s-0.1-0.2-0.1-0.3s-0.1-0.2-0.1-0.3
				s-0.1-0.2-0.2-0.4c-0.1-0.1-0.1-0.3-0.2-0.4c-0.1-0.1-0.1-0.2-0.2-0.4c0-0.1-0.1-0.2-0.1-0.2c-0.1-0.1-0.1-0.3-0.2-0.4
				c0-0.1-0.1-0.1-0.1-0.2c-0.1-0.2-0.2-0.4-0.4-0.6c-0.1-0.2-0.2-0.3-0.4-0.5l0,0c-1.4-1.7-3.3-3-5.2-3.7c-0.6-0.2-1.3-0.4-1.9-0.4
				c-0.1,0-0.1,0-0.2,0s-0.2,0-0.3,0h-0.1c-0.1,0-0.1,0-0.2,0h-0.1c-0.1,0-0.2,0-0.3,0h-0.1c-0.1,0-0.2,0-0.3,0.1l0,0
				c-0.3,0.1-0.6,0.2-0.9,0.4l0,0c-0.1,0-0.1,0.1-0.1,0.1c-0.9-3.1-0.9-6.9,0-9c6.4-2.1,11.3,4.1,11.9,5C26.6,37,27,40.3,27.8,42.4
				L27.8,42.4z M26.8,48.6c-0.1,0.1-0.1,0.2-0.2,0.3L26.5,49c-0.1,0.1-0.1,0.2-0.2,0.3c-0.3,0.4-0.7,0.8-1.2,1L20,50.7l0.1-0.1
				c0,0,0-0.1,0.1-0.1c0-0.1,0.1-0.1,0.1-0.2c0,0,0-0.1,0.1-0.1c0-0.1,0.1-0.1,0.1-0.2v-0.1c0-0.1,0.1-0.2,0.1-0.3
				c0.4-1.6-0.2-4-1.6-5.9c-0.1-0.1-0.2-0.2-0.3-0.4l-0.1-0.1c-0.1-0.1-0.1-0.1-0.2-0.2c0-0.1-0.1-0.1-0.1-0.1
				c-0.1-0.1-0.1-0.1-0.2-0.2c0-0.1-0.1-0.1-0.2-0.2c-0.1-0.1-0.1-0.1-0.2-0.2c-0.1-0.1-0.1-0.1-0.2-0.1c-0.1-0.1-0.1-0.1-0.2-0.2
				c-0.1,0-0.1-0.1-0.2-0.1c-0.1-0.1-0.1-0.1-0.2-0.2c-0.1,0-0.1-0.1-0.2-0.1c-0.1-0.1-0.1-0.1-0.2-0.1s-0.1-0.1-0.2-0.1
				c-0.1-0.1-0.1-0.1-0.2-0.1L16,41.2c0-0.1,0-0.1-0.1-0.2l-0.1-0.1c-0.1-0.1-0.2-0.1-0.3-0.1h-0.1c-0.1-0.1-0.2-0.1-0.4-0.2
				c-0.1,0-0.1,0-0.1-0.1c-0.1,0-0.1-0.1-0.2-0.1h-0.1h-0.1c0,0,0,0-0.1,0s-0.2-0.1-0.3-0.1H14c-0.1,0-0.1,0-0.2,0
				c-0.1,0-0.1,0-0.2,0h-0.1l0,0c-0.1,0-0.1,0-0.2,0c0,0,0,0-0.1,0c0,0,0,0-0.1,0H13h-0.1l2.5-3.3c0.1-0.2,0.2-0.3,0.4-0.4
				c0.1-0.1,0.1-0.1,0.2-0.2c0,0,0.1,0,0.1-0.1c0.1,0,0.1-0.1,0.2-0.1h0.1c0.1,0,0.1-0.1,0.2-0.1c0,0,0,0,0.1,0s0.1,0,0.2-0.1
				c0.4-0.1,0.9-0.2,1.4-0.1c1.9,0.1,4.2,1.3,6,3.1c0,0,0,0,0.1,0.1s0.2,0.2,0.3,0.3c0,0.1,0.1,0.1,0.1,0.2c0.1,0.1,0.2,0.2,0.2,0.3
				c0.1,0.1,0.2,0.3,0.3,0.4c0.1,0.2,0.2,0.4,0.4,0.5c0,0.1,0.1,0.1,0.1,0.2c0.1,0.1,0.1,0.2,0.2,0.4c0,0.1,0.1,0.2,0.1,0.2
				c0.1,0.1,0.1,0.2,0.1,0.3c0.1,0.2,0.2,0.4,0.3,0.6c0,0,0,0.1,0.1,0.1c0.1,0.1,0.1,0.3,0.2,0.4v0.1c0.2,0.6,0.4,1.3,0.5,1.9l0,0
				c0.1,0.6,0.1,1.3,0,1.8v0.1c0,0.1,0,0.2-0.1,0.4c0,0.1,0,0.1,0,0.1c0,0.1,0,0.2-0.1,0.3c0,0.1,0,0.1,0,0.1c0,0.1-0.1,0.2-0.1,0.3
				C26.9,48.3,26.9,48.4,26.8,48.6C26.8,48.6,26.8,48.6,26.8,48.6L26.8,48.6z M18.8,50.8c-0.3,0.1-0.9,0.1-1.6-0.1
				c-0.9-0.3-2.1-0.9-3-1.9l0.9-0.4l0,0l0.1-0.1c0.7-0.7,0.5-1.9-0.3-2.7c-0.1-0.1-0.1-0.1-0.2-0.1c0,0,0,0-0.1,0l-0.1-0.1
				c0,0,0,0-0.1,0l-0.1-0.1c0,0,0,0-0.1,0c0,0-0.1,0-0.1-0.1H14h-0.1h-0.1h-0.1c0,0,0,0-0.1,0l0,0h-0.1h-0.1h-0.1h-0.1h-0.1
				c0,0,0,0-0.1,0h-0.1c0,0,0,0-0.1,0h-0.1c0,0,0,0-0.1,0h-0.1c0,0,0,0-0.1,0h-0.1c0,0,0,0-0.1,0h-0.1l0,0c0,0-0.1,0-0.1,0.1l0,0
				l0,0c-0.5-1.9-0.3-3.4-0.1-3.7c0.1-0.1,0.1-0.2,0.2-0.3l0,0l0,0c0.1-0.1,0.2-0.2,0.4-0.2s0.4-0.1,0.6,0l0,0
				c0.7,0.1,1.6,0.5,2.5,1l0,0c0.1,0.1,0.2,0.1,0.3,0.2c0,0,0,0,0.1,0c0.1,0.1,0.2,0.1,0.3,0.2c0,0,0,0,0.1,0.1s0.2,0.1,0.2,0.2
				l0.1,0.1c0.1,0.1,0.1,0.1,0.2,0.2l0.1,0.1c0.1,0.1,0.1,0.1,0.2,0.2l0.1,0.1c0.1,0.1,0.1,0.1,0.2,0.2c0.1,0.1,0.1,0.1,0.2,0.2
				l0.1,0.1c0.1,0.1,0.2,0.2,0.3,0.3c1.3,1.8,1.9,4.1,1.5,5.5C19.7,50.2,19.3,50.6,18.8,50.8L18.8,50.8z M13.3,48.7L5,52.8l-0.1-0.1
				l0,0l7.2-6.7l0.4-0.4c0.1-0.1,0.2-0.2,0.3-0.2c0.5-0.1,1.1,0.1,1.6,0.6c0.1,0.1,0.2,0.2,0.2,0.3c0.5,0.6,0.5,1.4,0.1,1.8l0,0
				L13.3,48.7z M21.5,19.3l4.1-2.5l1.3,0.2c-0.5,0.2-1,0.5-1.6,0.8c-1.4,0.8-2.7,1.6-3.8,2.3V19.3z M17,10.3l-0.3-2.7l-2.1,3.5
				l-1.4-4.5L11,8L9.7,5l1.7,2l2.3-1.4l1.4,4l2.6-4l0.2,4.5l4.9,6.1l-0.5,0.3L17,10.3z M23.5,16.3l0.5,0.9L22.7,18l-0.5-0.9
				L23.5,16.3z M63.5,18c-0.2-0.1-0.5-0.1-0.7-0.1c-1.1,0-2,0.9-2,2c0,0.1,0,0.3,0,0.4l-6.1,2.9c-0.8-1-1.8-1.6-2.8-1.9
				c-1.1-0.4-2.1-0.4-3-0.3c-0.2,0-0.3,0-0.4,0l0,0c-0.8,0.1-1.4,0.2-1.7,0.3c-2.3-2.7-5.5-4.9-8.1-5.7c-1.1-0.4-2.1-0.5-2.9-0.3
				c-0.5-0.2-3.2-0.8-7.9,1.3l-2.4-0.3l-0.9,0.6l-0.8-1.4l-0.7,0.4l-4.9-6L18,4.2l-2.9,4.4l-1.2-3.7l-2.4,1.5L9.9,4.6
				c0.8-0.7,0.9-2,0.2-3c-0.4-0.6-1-1-1.5-1.2C8,0.2,7.3,0.2,6.8,0.6c-1,0.6-1.1,2.1-0.3,3.2C6.9,4.3,7.4,4.7,8,4.9
				C8.1,5,8.3,5,8.5,5s0.4,0,0.6-0.1l1.6,3.7L13,7.4l1.6,5l2-3.7l0.1,1.8l5.1,6.1l-0.5,0.3l0.8,1.4L20.9,19v1.5
				c-3,2.1-4.8,4-5.7,5.9c-1,2.3-1,6.5,0,9.8c-0.1,0.1-0.2,0.2-0.2,0.3l-3.2,4.2l0,0c-0.1,0.1-0.1,0.2-0.2,0.3
				c-0.3,0.5-0.5,2.3,0.1,4.4l-7.3,6.8C4.3,52.1,4.1,52.1,4,52c-0.9-0.4-2.1-0.1-3,0.7c-0.6,0.5-0.9,1.2-1,1.8
				c-0.1,0.7,0,1.3,0.5,1.8c0.4,0.4,0.9,0.6,1.5,0.6c0.3,0,0.6-0.1,1-0.2c0.5-0.1,0.9-0.4,1.3-0.8c0.9-0.8,1.2-1.9,1-2.8l8.5-4.2
				c1.2,1.3,2.8,2,3.9,2.2H18c0.1,0,0.3,0,0.4,0c0.3,0,0.5,0,0.6-0.1l6.2-0.4l0,0c0,0,0,0,0.1,0h0.1l0,0c0.4-0.2,0.8-0.5,1.1-0.8
				l0,0c0,0,0.6,0.1,1.3,0.1c0.5,0,1-0.1,1.5-0.2c0.5-0.1,0.9-0.4,1.2-0.7l0,0l0,0c0-0.1,0.6-1.9-0.3-3.4c-0.1-0.2-0.2-0.4-0.4-0.6
				c-0.8-1.2-2.1-3.1-2.2-7.4l0,0c0,0,0.1-1.8,2.5-3.5c1.4-1,5.1-3.5,8.6-4.7c1.3-0.4,2.6-0.7,3.7-0.5c4.1,0.7,8,4.9,8.3,7.3
				c0,0.1,0,0.2,0,0.3v0.7L51,37v0.1l0.3-0.4c0,0,0.3-0.3,0.5-0.9l0,0c0,0,1.6-1.3,2.9-3.2l0,0c0,0,0,0,0-0.1
				c1.1-1.7,1.9-4.1,1.2-6.7l5.7-4.3c0.3,0.2,0.6,0.3,1,0.3c0.3,0,0.5-0.1,0.7-0.1c0.8-0.2,1.4-1,1.4-1.9
				C64.9,18.9,64.3,18.2,63.5,18L63.5,18z"/>
			<path id="Fill-78" class="st0" d="M74.8,53.8l0.1-7.4l4-0.3L80,54L74.8,53.8z M76,40c-0.6,0-1.1-0.1-1.6-0.4
				c-0.5-0.3-0.8-0.8-0.8-1.3c0-0.4,0.3-0.8,0.9-1.1c0.5-0.3,1-0.4,1.5-0.4c0.6,0,1.1,0.1,1.6,0.4c0.6,0.3,0.9,0.7,0.9,1.2
				c0,0.6-0.3,1-0.8,1.3C77.2,39.9,76.6,40,76,40L76,40z M67.1,47.8c0,0-0.1,0-0.3,0c-0.5,0-1.3,0.1-2.4,0.2
				c-0.4,0.1-0.9,0.1-1.6,0.3l0.3,4.2c0.3,0,0.6,0,0.8-0.1c2-0.2,3.3-0.6,3.9-1.3c0.4-0.4,0.6-1,0.6-1.5C68.5,48.6,68,48,67.1,47.8
				L67.1,47.8z M69.9,51.8c-0.8,0.6-2.2,1-4.1,1.4c-0.5,0.1-1.4,0.3-2.6,0.4l0.5,6.6l-1.8,0.2l-0.8-9l-0.9-0.1l-0.6-8
				c1-0.4,1.8-0.7,2.4-0.9c2-0.6,3.7-0.9,5.1-0.9c3.6,0,5.4,1.4,5.4,4.3C72.6,48.6,71.7,50.6,69.9,51.8L69.9,51.8z M53.2,49.4
				c-0.6,0.1-1.1,0.4-1.5,0.7C51.3,50.5,51,51,51,51.6c0,0.9,0.7,1.4,2,1.4c0.7,0,1.4-0.2,2.1-0.5c0.8-0.4,1.2-1,1.2-1.6
				c0-0.1,0-0.2-0.1-0.3c-0.2-0.7-0.9-1.1-2.1-1.1h-0.4C53.7,49.3,53.5,49.4,53.2,49.4L53.2,49.4z M52.4,53.7
				c-1.3,0-2.5-0.3-3.6-0.9c-1.3-0.7-2-1.7-2-2.9c0-1,0.5-1.9,1.5-2.6c0.8-0.6,1.7-1,2.8-1.3c0.6-0.2,1.3-0.2,2-0.2s1.4,0.1,2.3,0.3
				c0.4,0.1,0.9,0.2,1.3,0.5c-0.3-0.7-1-1.4-1.9-1.9c-0.8-0.5-1.9-0.9-3.4-1.2c-0.5-0.1-1.2-0.3-2.1-0.4l-0.5-2.3
				c0.2,0,0.6,0.1,1.3,0.3c2.5,0.6,4.5,1.6,5.9,2.8c1.5,1.3,2.3,3,2.6,5.1v4.7l-1.2-0.2v-1.6c-0.4,0.4-0.9,0.7-1.4,1
				C55,53.4,53.8,53.7,52.4,53.7L52.4,53.7z M45.6,54.2l-2.9,1.4V44.8l-2.6,2.8L39,53.8l-2.3,1.3l0.9-17.5l2-1.2l-0.3,11.4
				c0.8-1.3,1.5-2.2,2.2-2.9c0.2-0.2,0.5-0.5,1-1c0.6-0.5,1.2-0.8,1.9-0.8s1.2,0.2,1.3,0.5c0.2,0.6,0.3,1.5,0.3,2.6
				c0,1.4-0.1,3-0.2,5L45.6,54.2L45.6,54.2z"/>
		</g>
	</g>
</g>
</svg>
