<?xml version="1.0" encoding="utf-8"?>
<!-- Generator: Adobe Illustrator 26.3.1, SVG Export Plug-In . SVG Version: 6.00 Build 0)  -->
<svg version="1.1" id="레이어_1" xmlns="http://www.w3.org/2000/svg" xmlns:xlink="http://www.w3.org/1999/xlink" x="0px"
	 y="0px" viewBox="0 0 80 80" style="enable-background:new 0 0 80 80;" xml:space="preserve">
<style type="text/css">
	.st0{fill-rule:evenodd;clip-rule:evenodd;fill:#FC0101;}
	.st1{fill:none;stroke:#FC0101;stroke-width:9.400000e-02;}
	.st2{fill-rule:evenodd;clip-rule:evenodd;fill:#F6941E;}
	.st3{fill:none;stroke:#F6941E;stroke-width:9.400000e-02;}
	.st4{fill-rule:evenodd;clip-rule:evenodd;fill:#C7C7B3;}
	.st5{fill:none;stroke:#C7C7B3;stroke-width:9.400000e-02;}
	.st6{fill-rule:evenodd;clip-rule:evenodd;fill:#4E4D3F;}
	.st7{fill:none;stroke:#4E4D3F;stroke-width:9.400000e-02;}
	.st8{fill-rule:evenodd;clip-rule:evenodd;fill:#99987D;}
	.st9{fill:none;stroke:#99987D;stroke-width:9.400000e-02;}
	.st10{fill-rule:evenodd;clip-rule:evenodd;}
	.st11{fill-rule:evenodd;clip-rule:evenodd;fill:#0A0203;}
	.st12{fill:none;stroke:#0A0203;stroke-width:9.400000e-02;}
	.st13{fill-rule:evenodd;clip-rule:evenodd;fill:#7D4B0F;}
	.st14{fill:none;stroke:#7D4B0F;stroke-width:9.400000e-02;}
	.st15{fill-rule:evenodd;clip-rule:evenodd;fill:#65655B;}
</style>
<g id="hapi">
	<g id="akka">
		<g id="Group-153" transform="translate(0.000000, 10.000000)">
			<path id="Fill-1" class="st0" d="M52.4,26.7c0.2,0.5,0,0.9-0.2,1c0,0-0.1,0-0.1,0c-0.2-0.1-0.4-0.3-0.5-0.6
				c-0.1-0.2-0.1-0.5-0.1-0.7c0-0.1,0.1-0.2,0.2-0.3C52,26,52.3,26.3,52.4,26.7"/>
			<path id="Stroke-3" class="st1" d="M52.4,26.7c0.2,0.5,0,0.9-0.2,1c0,0-0.1,0-0.1,0c-0.2-0.1-0.4-0.3-0.5-0.6
				c-0.1-0.2-0.1-0.5-0.1-0.7c0-0.1,0.1-0.2,0.2-0.3C52,26,52.3,26.3,52.4,26.7z"/>
			<path id="Fill-5" class="st0" d="M53.1,30.4c0.2,0,0.4,0.3,0.4,0.7s-0.2,0.7-0.4,0.7c-0.2-0.1-0.3-0.4-0.3-0.7
				S52.9,30.5,53.1,30.4"/>
			<path id="Stroke-7" class="st1" d="M53.1,30.4c0.2,0,0.4,0.3,0.4,0.7s-0.2,0.7-0.4,0.7c-0.2-0.1-0.3-0.4-0.3-0.7
				S52.9,30.5,53.1,30.4z"/>
			<path id="Fill-9" class="st0" d="M49.8,22.7c0.2,0,0.4,0.2,0.6,0.4c0.2,0.4,0.2,0.7,0,0.8c0,0-0.1,0-0.1,0
				c-0.2-0.1-0.3-0.2-0.4-0.4c-0.1-0.2-0.2-0.4-0.1-0.6C49.7,22.9,49.7,22.8,49.8,22.7"/>
			<path id="Stroke-11" class="st1" d="M49.8,22.7c0.2,0,0.4,0.2,0.6,0.4c0.2,0.4,0.2,0.7,0,0.8c0,0-0.1,0-0.1,0
				c-0.2-0.1-0.3-0.2-0.4-0.4c-0.1-0.2-0.2-0.4-0.1-0.6C49.7,22.9,49.7,22.8,49.8,22.7z"/>
			<path id="Fill-13" class="st2" d="M9.4,1.8c0.6,0.9,0.5,2-0.2,2.5C8.9,4.5,8.5,4.6,8.1,4.4C7.7,4.3,7.3,4,7,3.5
				c-0.3-0.5-0.5-1-0.4-1.5c0-0.5,0.3-0.9,0.6-1.1c0.1,0,0.1-0.1,0.2-0.1c0.1,0,0.2,0,0.3,0C8.4,0.8,9,1.2,9.4,1.8"/>
			<path id="Stroke-15" class="st3" d="M9.4,1.8c0.6,0.9,0.5,2-0.2,2.5C8.9,4.5,8.5,4.6,8.1,4.4C7.7,4.3,7.3,4,7,3.5
				c-0.3-0.5-0.5-1-0.4-1.5c0-0.5,0.3-0.9,0.6-1.1c0.1,0,0.1-0.1,0.2-0.1c0.1,0,0.2,0,0.3,0C8.4,0.8,9,1.2,9.4,1.8z"/>
			<polygon id="Fill-17" class="st4" points="23.5,16.3 24,17.2 22.7,17.9 22.2,17.1 			"/>
			<polygon id="Stroke-19" class="st5" points="23.5,16.3 24,17.2 22.7,17.9 22.2,17.1 			"/>
			<path id="Fill-21" class="st4" d="M26.9,17c-0.5,0.2-1,0.5-1.6,0.8c-1.4,0.8-2.7,1.6-3.8,2.3v-0.8l4.1-2.5L26.9,17z"/>
			<path id="Stroke-23" class="st5" d="M26.9,17c-0.5,0.2-1,0.5-1.6,0.8c-1.4,0.8-2.7,1.6-3.8,2.3v-0.8l4.1-2.5L26.9,17z"/>
			<path id="Fill-25" class="st0" d="M23.1,41.7c0.1,0.3,0,0.6-0.2,0.9c-0.3,0.3-0.7,0.4-1.2,0.3c-0.2-0.1-0.3-0.2-0.5-0.3
				c-0.3-0.3-0.5-0.6-0.6-1c-0.1-0.4,0-0.7,0.2-0.9c0.1-0.1,0.2-0.2,0.3-0.3c0.1,0,0.2,0,0.3,0h0c0.4,0,0.7,0.2,1,0.4
				S23,41.4,23.1,41.7"/>
			<path id="Stroke-27" class="st1" d="M23.1,41.7c0.1,0.3,0,0.6-0.2,0.9c-0.3,0.3-0.7,0.4-1.2,0.3c-0.2-0.1-0.3-0.2-0.5-0.3
				c-0.3-0.3-0.5-0.6-0.6-1c-0.1-0.4,0-0.7,0.2-0.9c0.1-0.1,0.2-0.2,0.3-0.3c0.1,0,0.2,0,0.3,0h0c0.4,0,0.7,0.2,1,0.4
				S23,41.4,23.1,41.7z"/>
			<path id="Fill-29" class="st0" d="M24.5,46.8c0.4,0.2,0.6,0.7,0.4,1.3c-0.2,0.5-0.6,0.8-1,0.7c-0.2-0.1-0.3-0.3-0.4-0.5
				c-0.1-0.3-0.1-0.6,0.1-0.9c0.1-0.3,0.3-0.5,0.6-0.7c0,0,0,0,0.1,0C24.3,46.7,24.4,46.7,24.5,46.8"/>
			<path id="Stroke-31" class="st1" d="M24.5,46.8c0.4,0.2,0.6,0.7,0.4,1.3c-0.2,0.5-0.6,0.8-1,0.7c-0.2-0.1-0.3-0.3-0.4-0.5
				c-0.1-0.3-0.1-0.6,0.1-0.9c0.1-0.3,0.3-0.5,0.6-0.7c0,0,0,0,0.1,0C24.3,46.7,24.4,46.7,24.5,46.8z"/>
			<path id="Fill-33" class="st0" d="M16.8,37.5c0.6,0,1.1,0.4,1.1,0.8c0,0.4-0.5,0.8-1.1,0.8c-0.1,0-0.2,0-0.3,0
				c-0.4-0.1-0.6-0.4-0.6-0.8c0-0.3,0.2-0.6,0.6-0.8C16.5,37.6,16.6,37.5,16.8,37.5"/>
			<path id="Stroke-35" class="st1" d="M16.8,37.5c0.6,0,1.1,0.4,1.1,0.8c0,0.4-0.5,0.8-1.1,0.8c-0.1,0-0.2,0-0.3,0
				c-0.4-0.1-0.6-0.4-0.6-0.8c0-0.3,0.2-0.6,0.6-0.8C16.5,37.6,16.6,37.5,16.8,37.5z"/>
			<path id="Fill-37" class="st6" d="M50.5,34c-1.3-2-3.8-4.3-6.6-5.2c-0.4-0.2-0.9-0.3-1.4-0.4c-3.9-0.7-10.3,3.5-12.8,5.3
				c-0.9,0.7-1.6,1.4-1.9,2c0.1-1.2,0.3-2.5,0.5-4.1c0.2-0.3,2.2-3.1,7.5-5.6c1.1-0.5,2.1-0.9,2.9-1.2c2.9-1,4.1-0.5,4.7-0.2
				c0.1,0,0.2,0.1,0.2,0.1l0,0C43.7,24.8,49.1,26,50.5,34"/>
			<path id="Stroke-39" class="st7" d="M50.5,34c-1.3-2-3.8-4.3-6.6-5.2c-0.4-0.2-0.9-0.3-1.4-0.4c-3.9-0.7-10.3,3.5-12.8,5.3
				c-0.9,0.7-1.6,1.4-1.9,2c0.1-1.2,0.3-2.5,0.5-4.1c0.2-0.3,2.2-3.1,7.5-5.6c1.1-0.5,2.1-0.9,2.9-1.2c2.9-1,4.1-0.5,4.7-0.2
				c0.1,0,0.2,0.1,0.2,0.1l0,0C43.7,24.8,49.1,26,50.5,34z"/>
			<path id="Fill-41" class="st2" d="M32.1,20.5l-1.7-1.7l0,0.1l-0.3-0.3c0.3-0.1,0.6-0.3,0.8-0.4c0.6-0.2,1.3-0.3,2-0.4
				c2.7-0.1,4.8,1.1,5.5,2.2l0,0l-2.3-0.9l0,0l-0.3-0.1l-0.3,1l-0.8-0.8l0,0.1l-0.2-0.2L33.6,21l-0.8-1.1L32.7,20l-0.2-0.2
				L32.1,20.5z"/>
			<path id="Stroke-43" class="st3" d="M32.1,20.5l-1.7-1.7l0,0.1l-0.3-0.3c0.3-0.1,0.6-0.3,0.8-0.4c0.6-0.2,1.3-0.3,2-0.4
				c2.7-0.1,4.8,1.1,5.5,2.2l0,0l-2.3-0.9l0,0l-0.3-0.1l-0.3,1l-0.8-0.8l0,0.1l-0.2-0.2L33.6,21l-0.8-1.1L32.7,20l-0.2-0.2
				L32.1,20.5z"/>
			<path id="Fill-45" class="st2" d="M30.1,18.8l0.6,3.6l-1.4-0.3v1.5L28,23.1l0,0L27.7,23l0.5,1.4l-0.8-0.2l-0.5,1.5l0.5,0.2l0-0.1
				l0.1,0l0.4-1l1.1,0.2l0-0.1l0.1,0L28.7,24l1.1,0.5v-0.2l0.1,0.1v-1.6l1.4,0.3l0-0.1l0.1,0l-0.4-2.7l1.2,1.1l0.1-0.2l0.1,0.1
				l0.3-0.5l0.9,1.2l0.1-0.2l0.1,0.1l1.1-1.7l1.1,1.1l0.1-0.2l0.1,0.1l0.3-1.2l1.7,0.7l0.1-0.1l0.2,0.1l0.1-0.4l0,0
				c0.2,0.3,0.3,0.6,0.3,0.8c0,0.4-0.2,0.6-0.8,0.7c-2.2,0.3-5.1,2.2-7.3,3.7c-1,0.7-1.9,1.3-2.4,1.4c-0.5,0.2-1.2,0.2-1.7,0
				c-0.2-0.1-0.4-0.2-0.5-0.3c-0.5-0.5-0.6-1.3-0.3-2.3c0.3-1,0.8-2,1.6-3.1C28.2,20.1,29.1,19.3,30.1,18.8"/>
			<path id="Stroke-47" class="st3" d="M30.1,18.8l0.6,3.6l-1.4-0.3v1.5L28,23.1l0,0L27.7,23l0.5,1.4l-0.8-0.2l-0.5,1.5l0.5,0.2
				l0-0.1l0.1,0l0.4-1l1.1,0.2l0-0.1l0.1,0L28.7,24l1.1,0.5v-0.2l0.1,0.1v-1.6l1.4,0.3l0-0.1l0.1,0l-0.4-2.7l1.2,1.1l0.1-0.2
				l0.1,0.1l0.3-0.5l0.9,1.2l0.1-0.2l0.1,0.1l1.1-1.7l1.1,1.1l0.1-0.2l0.1,0.1l0.3-1.2l1.7,0.7l0.1-0.1l0.2,0.1l0.1-0.4l0,0
				c0.2,0.3,0.3,0.6,0.3,0.8c0,0.4-0.2,0.6-0.8,0.7c-2.2,0.3-5.1,2.2-7.3,3.7c-1,0.7-1.9,1.3-2.4,1.4c-0.5,0.2-1.2,0.2-1.7,0
				c-0.2-0.1-0.4-0.2-0.5-0.3c-0.5-0.5-0.6-1.3-0.3-2.3c0.3-1,0.8-2,1.6-3.1C28.2,20.1,29.1,19.3,30.1,18.8z"/>
			<path id="Fill-49" class="st8" d="M38.7,22.1c0.6-0.2,1-0.6,0.9-1.1c-0.1-0.7-0.8-1.6-1.9-2.3c-0.4-0.2-0.7-0.4-1.2-0.6
				c-1-0.4-2.2-0.7-3.6-0.6c-2.4,0.1-4.6,1.3-6.1,3.2c-0.8,1.1-1.4,2.2-1.7,3.3c-0.4,1.6,0,2.4,0.5,2.8c0.5,0.5,1.2,0.6,1.8,0.6
				c0.4,0,0.8-0.1,1.1-0.2c0,0,0.1,0,0.1,0c0,0,0.1,0,0.1,0c0.5-0.2,1.4-0.8,2.5-1.5c1.7-1.1,3.9-2.6,5.8-3.3
				c0.4-0.1,0.8-0.2,1.1-0.3C38.4,22.2,38.5,22.1,38.7,22.1 M43.5,24.2c-0.1,0-0.2-0.1-0.3-0.1c-1-0.4-3-0.7-7.8,1.6
				c-4.6,2.2-6.7,4.5-7.4,5.4c-0.8-1-3.1-3.5-6.3-4.7c-1.7-0.6-3.6-0.9-5.6-0.3c1.4-2.5,4.4-4.9,9.7-7.9c1.4-0.8,2.7-1.3,3.8-1.7
				c3.9-1.3,6-0.6,6-0.6l0.1,0l0,0C36.3,16,41.2,17.5,43.5,24.2"/>
			<path id="Stroke-51" class="st9" d="M38.7,22.1c0.6-0.2,1-0.6,0.9-1.1c-0.1-0.7-0.8-1.6-1.9-2.3c-0.4-0.2-0.7-0.4-1.2-0.6
				c-1-0.4-2.2-0.7-3.6-0.6c-2.4,0.1-4.6,1.3-6.1,3.2c-0.8,1.1-1.4,2.2-1.7,3.3c-0.4,1.6,0,2.4,0.5,2.8c0.5,0.5,1.2,0.6,1.8,0.6
				c0.4,0,0.8-0.1,1.1-0.2c0,0,0.1,0,0.1,0c0,0,0.1,0,0.1,0c0.5-0.2,1.4-0.8,2.5-1.5c1.7-1.1,3.9-2.6,5.8-3.3
				c0.4-0.1,0.8-0.2,1.1-0.3C38.4,22.2,38.5,22.1,38.7,22.1z M43.5,24.2c-0.1,0-0.2-0.1-0.3-0.1c-1-0.4-3-0.7-7.8,1.6
				c-4.6,2.2-6.7,4.5-7.4,5.4c-0.8-1-3.1-3.5-6.3-4.7c-1.7-0.6-3.6-0.9-5.6-0.3c1.4-2.5,4.4-4.9,9.7-7.9c1.4-0.8,2.7-1.3,3.8-1.7
				c3.9-1.3,6-0.6,6-0.6l0.1,0l0,0C36.3,16,41.2,17.5,43.5,24.2z"/>
			<path id="Fill-53" class="st8" d="M51.3,32.3c0.3,1.3,0.2,2.3,0,3c-0.8-8.2-5.6-10.4-7-10.8c-1.8-5.6-5.4-7.8-7.2-8.6
				c2.7,0.3,6.7,2.8,9.3,6C49.4,25.4,50.5,29.1,51.3,32.3"/>
			<path id="Stroke-55" class="st9" d="M51.3,32.3c0.3,1.3,0.2,2.3,0,3c-0.8-8.2-5.6-10.4-7-10.8c-1.8-5.6-5.4-7.8-7.2-8.6
				c2.7,0.3,6.7,2.8,9.3,6C49.4,25.4,50.5,29.1,51.3,32.3z"/>
			<path id="Fill-57" class="st10" d="M53.4,29.9c0.4,0.1,0.7,0.6,0.7,1.2s-0.3,1.1-0.7,1.2c-0.1,0.1-0.2,0.1-0.3,0.1
				c-0.5,0-0.9-0.5-0.9-1.2s0.4-1.2,0.9-1.2C53.2,29.9,53.3,29.9,53.4,29.9 M53.1,31.8c0.2,0,0.4-0.3,0.4-0.7s-0.2-0.7-0.4-0.7
				c-0.2,0.1-0.3,0.4-0.3,0.7S52.9,31.7,53.1,31.8"/>
			<path id="Fill-59" class="st10" d="M51.4,25.5c0.2-0.1,0.5-0.1,0.7,0c0.1,0,0.3,0.1,0.4,0.2c0.2,0.2,0.4,0.4,0.6,0.8
				c0,0.1,0,0.1,0,0.2c0.1,0.3,0.1,0.6,0,0.8c-0.1,0.3-0.3,0.5-0.5,0.6c0,0-0.1,0-0.1,0c0,0,0,0-0.1,0c-0.1,0-0.2,0.1-0.3,0.1
				c-0.2,0-0.4-0.1-0.6-0.2c-0.3-0.2-0.5-0.5-0.6-0.8C50.7,26.5,50.9,25.7,51.4,25.5 M52.4,26.7C52.3,26.3,52,26,51.7,26
				c-0.1,0.1-0.2,0.2-0.2,0.3c-0.1,0.2,0,0.5,0.1,0.7c0.1,0.3,0.3,0.5,0.5,0.6c0,0,0.1,0,0.1,0C52.4,27.6,52.6,27.2,52.4,26.7"/>
			<path id="Fill-61" class="st10" d="M50.4,23.9c0.2-0.1,0.2-0.5,0-0.8c-0.2-0.3-0.4-0.4-0.6-0.4c-0.1,0.1-0.1,0.2-0.1,0.3
				c0,0.2,0,0.4,0.1,0.6c0.1,0.2,0.2,0.3,0.4,0.4C50.3,24,50.3,24,50.4,23.9 M50.8,24.3c-0.1,0-0.1,0.1-0.2,0.1
				c-0.1,0.1-0.2,0.1-0.3,0.1c-0.4,0-0.8-0.3-1-0.7c-0.3-0.6-0.3-1.3,0.2-1.5c0.2-0.1,0.5-0.1,0.8,0c0.1,0,0.1,0,0.2,0.1
				c0.2,0.1,0.4,0.3,0.6,0.6C51.3,23.5,51.2,24.1,50.8,24.3"/>
			<polygon id="Fill-63" class="st10" points="26.9,25.8 27.4,24.3 28.2,24.5 27.7,23 28,23.2 28,23.1 29.3,23.7 29.3,22.2 
				30.7,22.4 30.1,18.8 30.2,18.7 30.4,19 30.4,18.9 32.1,20.5 32.6,19.8 32.7,20 32.8,19.9 33.6,21 34.6,19.3 34.8,19.5 34.9,19.4 
				35.7,20.2 35.9,19.2 36.2,19.3 36.2,19.3 38.5,20.2 38.4,20.6 38.2,20.5 38.1,20.7 36.4,20 36.1,21.2 36,21.1 35.9,21.3 
				34.8,20.2 33.8,21.9 33.7,21.8 33.6,22.1 32.7,20.9 32.4,21.4 32.3,21.3 32.2,21.5 31.1,20.3 31.5,23 31.4,23 31.4,23.1 30,22.8 
				30,24.4 29.9,24.3 29.9,24.5 28.7,24 29.1,25.1 28.9,25.1 29,25.2 27.9,24.9 27.5,26 27.4,25.9 27.4,26 			"/>
			<path id="Fill-65" class="st11" d="M25.2,24c0.3-1.1,0.9-2.1,1.7-3.3c1.5-2,3.7-3.2,6.1-3.2c1.4,0,2.6,0.2,3.6,0.6
				c0.4,0.2,0.8,0.3,1.2,0.6c1.1,0.7,1.8,1.5,1.9,2.3c0,0.6-0.3,1-0.9,1.1c-0.1,0.1-0.3,0.1-0.5,0.1c-0.3,0-0.7,0.1-1.1,0.3
				c-1.9,0.7-4.1,2.1-5.8,3.3c-1.1,0.7-2,1.3-2.5,1.5c0,0-0.1,0-0.1,0c0,0-0.1,0-0.1,0c-0.3,0.1-0.7,0.2-1.1,0.2
				c-0.7,0-1.4-0.2-1.8-0.6C25.2,26.4,24.8,25.6,25.2,24 M27.5,21c-0.8,1.1-1.3,2.1-1.6,3.1c-0.3,1.1-0.2,1.9,0.3,2.3
				c0.2,0.1,0.3,0.3,0.5,0.3c0.6,0.2,1.2,0.1,1.7,0c0.4-0.1,1.3-0.7,2.4-1.4c2.1-1.4,5.1-3.4,7.3-3.7c0.6-0.1,0.8-0.3,0.8-0.7
				c0-0.2-0.1-0.5-0.3-0.8c-0.8-1-2.8-2.2-5.5-2.2c-0.7,0-1.3,0.1-2,0.4c-0.3,0.1-0.6,0.2-0.8,0.4l-0.1,0
				C29.1,19.3,28.2,20.1,27.5,21"/>
			<path id="Stroke-67" class="st12" d="M25.2,24c0.3-1.1,0.9-2.1,1.7-3.3c1.5-2,3.7-3.2,6.1-3.2c1.4,0,2.6,0.2,3.6,0.6
				c0.4,0.2,0.8,0.3,1.2,0.6c1.1,0.7,1.8,1.5,1.9,2.3c0,0.6-0.3,1-0.9,1.1c-0.1,0.1-0.3,0.1-0.5,0.1c-0.3,0-0.7,0.1-1.1,0.3
				c-1.9,0.7-4.1,2.1-5.8,3.3c-1.1,0.7-2,1.3-2.5,1.5c0,0-0.1,0-0.1,0c0,0-0.1,0-0.1,0c-0.3,0.1-0.7,0.2-1.1,0.2
				c-0.7,0-1.4-0.2-1.8-0.6C25.2,26.4,24.8,25.6,25.2,24z M27.5,21c-0.8,1.1-1.3,2.1-1.6,3.1c-0.3,1.1-0.2,1.9,0.3,2.3
				c0.2,0.1,0.3,0.3,0.5,0.3c0.6,0.2,1.2,0.1,1.7,0c0.4-0.1,1.3-0.7,2.4-1.4c2.1-1.4,5.1-3.4,7.3-3.7c0.6-0.1,0.8-0.3,0.8-0.7
				c0-0.2-0.1-0.5-0.3-0.8c-0.8-1-2.8-2.2-5.5-2.2c-0.7,0-1.3,0.1-2,0.4c-0.3,0.1-0.6,0.2-0.8,0.4l-0.1,0
				C29.1,19.3,28.2,20.1,27.5,21z"/>
			<path id="Fill-69" class="st10" d="M22.9,47.3c0.3-0.8,1.2-1.3,1.8-1c0,0,0,0,0,0c0.1,0,0.1,0,0.2,0c0.3,0.1,0.6,0.4,0.7,0.8
				c0.1,0.4,0.1,0.8-0.1,1.1c-0.1,0.4-0.4,0.7-0.7,0.9c-0.1,0.1-0.2,0.1-0.4,0.1c-0.2,0.1-0.3,0.1-0.5,0.1c-0.1,0-0.3,0-0.4-0.1
				C22.8,49,22.6,48.1,22.9,47.3 M24.9,48.1c0.2-0.6,0.1-1.1-0.4-1.3c-0.1,0-0.3-0.1-0.4,0c0,0,0,0-0.1,0c-0.2,0.1-0.4,0.4-0.6,0.7
				c-0.1,0.3-0.1,0.6-0.1,0.9c0.1,0.2,0.2,0.4,0.4,0.5C24.2,48.9,24.7,48.6,24.9,48.1"/>
			<path id="Fill-71" class="st10" d="M21.2,42.6c0.2,0.1,0.3,0.2,0.5,0.3c0.5,0.1,0.9,0.1,1.2-0.3c0.2-0.2,0.3-0.5,0.2-0.9
				c-0.1-0.4-0.3-0.7-0.6-1s-0.7-0.4-1-0.4h0c-0.1,0-0.2,0-0.3,0c-0.1,0.1-0.2,0.1-0.3,0.3c-0.2,0.2-0.3,0.6-0.2,0.9
				C20.6,42,20.8,42.3,21.2,42.6 M22.1,43.5c-0.5,0-1-0.2-1.4-0.5c-0.4-0.3-0.7-0.8-0.8-1.3c-0.1-0.5,0-1,0.3-1.3
				c0.3-0.3,0.7-0.5,1.2-0.5c0.2,0,0.5,0.1,0.7,0.1c0.3,0.1,0.6,0.2,0.8,0.4c0.4,0.3,0.7,0.8,0.8,1.2c0.1,0.5,0,0.9-0.3,1.3
				c-0.2,0.2-0.4,0.4-0.7,0.4C22.5,43.4,22.3,43.5,22.1,43.5"/>
			<path id="Fill-73" class="st10" d="M15.1,38.4c0-0.7,0.7-1.3,1.6-1.3c0.2,0,0.5,0,0.7,0.1c0.6,0.2,1.1,0.6,1.1,1.2
				c0,0.6-0.4,1-1.1,1.2c-0.2,0.1-0.4,0.1-0.7,0.1C15.9,39.7,15.1,39.1,15.1,38.4 M16.4,39.1c0.1,0,0.2,0,0.3,0
				c0.6,0,1.1-0.4,1.1-0.8c0-0.4-0.5-0.8-1.1-0.8c-0.1,0-0.2,0-0.3,0c-0.4,0.1-0.6,0.4-0.6,0.8C15.8,38.7,16.1,39,16.4,39.1"/>
			<path id="Fill-75" class="st10" d="M62.7,21.3c-0.1,0-0.3,0-0.4-0.1c0,0-0.1,0-0.1,0c0,0,0,0,0,0c0,0,0,0,0,0c0,0,0-0.1,0.1-0.1
				c0,0,0,0,0,0c0,0,0-0.1,0-0.1c0,0,0,0,0,0c0,0,0-0.1,0-0.1c0-0.2,0-0.4-0.1-0.5c0,0-0.1-0.1-0.1-0.1c0,0,0,0,0,0c0,0,0,0-0.1-0.1
				c0,0,0,0,0,0c0,0,0,0-0.1,0c0,0,0,0,0,0c0,0,0,0-0.1,0c0,0,0,0,0,0c0,0,0,0,0,0h0c0,0,0,0,0,0c0,0-0.1,0-0.1,0c0,0,0,0,0,0
				c0,0-0.1,0-0.1,0c0,0,0,0,0,0c0,0-0.1,0-0.1,0c0,0,0,0,0,0c0,0,0-0.1,0-0.1c0-0.6,0.4-1.2,0.9-1.4c0.1,0,0.3-0.1,0.4-0.1
				c0.8,0,1.5,0.7,1.5,1.5C64.2,20.6,63.6,21.3,62.7,21.3L62.7,21.3z M61.7,20.9C61.7,20.9,61.7,20.9,61.7,20.9l-0.5,0.4l-5.4,4
				c0-0.1-0.1-0.3-0.2-0.4c-0.2-0.5-0.4-0.9-0.7-1.3l6.5-3.1c0.1,0,0.1,0,0.2,0.1c0,0,0,0.1,0,0.1c0,0,0,0,0,0
				C61.7,20.7,61.7,20.8,61.7,20.9C61.7,20.8,61.7,20.8,61.7,20.9L61.7,20.9z M55.1,30.5c0-1.3-0.3-2.9-1-4.9c-0.8-2.3-2-3.4-3-4
				c1.9,0.4,3.2,1.5,4,3.5C55.9,27,55.7,28.9,55.1,30.5L55.1,30.5z M54.2,32.3c-0.7,1.1-1.5,2-2.1,2.5c0.1-0.7,0.1-1.6-0.2-2.7
				c-0.4-1.5-0.8-3.1-1.5-4.7c-0.7-1.8-1.8-3.7-3.3-5.7c0.4-0.1,0.9-0.2,1.5-0.3c0.6,0,3.2,0.1,4.7,4.3c0.1,0.3,0.2,0.5,0.3,0.8
				C54.6,29.2,54.6,31.3,54.2,32.3L54.2,32.3z M51.3,35.3c-0.8-8.2-5.6-10.4-7-10.8c-1.8-5.6-5.4-7.8-7.2-8.6c2.7,0.3,6.7,2.8,9.3,6
				c3,3.6,4.1,7.3,4.8,10.5C51.6,33.6,51.5,34.6,51.3,35.3L51.3,35.3z M43.9,28.9c-0.4-0.2-0.9-0.3-1.4-0.4
				c-3.9-0.7-10.3,3.5-12.8,5.3c-0.9,0.7-1.6,1.4-1.9,2c0.1-1.2,0.3-2.5,0.5-4.1c0.2-0.3,2.2-3.1,7.5-5.6c1.1-0.5,2.1-0.9,2.9-1.2
				c2.9-1,4.1-0.5,4.7-0.2c0.1,0,0.2,0.1,0.2,0.1l0,0c0.1,0,5.5,1.2,6.8,9.2C49.2,32,46.7,29.8,43.9,28.9L43.9,28.9z M21.7,26.4
				c-1.7-0.6-3.6-0.9-5.6-0.3c1.4-2.5,4.4-4.9,9.7-7.9c1.4-0.8,2.7-1.3,3.8-1.7c3.9-1.3,6-0.6,6-0.6l0.1,0l0,0
				c0.6,0.1,5.4,1.6,7.8,8.3c-0.1,0-0.2-0.1-0.3-0.1c-1-0.4-3-0.7-7.8,1.6c-4.6,2.2-6.7,4.5-7.4,5.4C27.2,30.1,24.9,27.5,21.7,26.4
				L21.7,26.4z M27.8,42.4c0.5,1.4,1.1,2.3,1.6,2.9c0.1,0.2,0.3,0.4,0.4,0.6c0.7,1.2,0.3,2.7,0.2,3c-0.7,0.8-2.3,0.7-3,0.6
				c0.1-0.1,0.2-0.3,0.3-0.4c0,0,0,0,0,0c0.1-0.1,0.2-0.3,0.2-0.5c0,0,0-0.1,0-0.1c0.1-0.1,0.1-0.3,0.2-0.4c0,0,0-0.1,0-0.1
				c0-0.1,0.1-0.2,0.1-0.3c0-0.1,0-0.1,0-0.2c0,0,0,0,0,0c0-0.2,0.1-0.4,0.1-0.6c0,0,0,0,0,0c0.1-0.4,0.1-0.8,0.1-1.2c0,0,0,0,0-0.1
				c0-0.2,0-0.4,0-0.5c0,0,0-0.1,0-0.1c0-0.2,0-0.3-0.1-0.5c0-0.1,0-0.1,0-0.1c0-0.2-0.1-0.4-0.1-0.6c0-0.1,0-0.2-0.1-0.2
				c0-0.1-0.1-0.2-0.1-0.4c0-0.1-0.1-0.2-0.1-0.3c0-0.1-0.1-0.2-0.1-0.3s-0.1-0.2-0.1-0.3c0-0.1-0.1-0.2-0.2-0.4
				c-0.1-0.1-0.1-0.3-0.2-0.4c-0.1-0.1-0.1-0.2-0.2-0.4c0-0.1-0.1-0.2-0.1-0.2c-0.1-0.1-0.1-0.3-0.2-0.4c0-0.1-0.1-0.1-0.1-0.2
				c-0.1-0.2-0.2-0.4-0.4-0.6c-0.1-0.2-0.2-0.3-0.4-0.5c0,0,0,0,0,0c-1.4-1.7-3.3-3-5.2-3.7c-0.6-0.2-1.3-0.4-1.9-0.4
				c-0.1,0-0.1,0-0.2,0c-0.1,0-0.2,0-0.3,0c0,0-0.1,0-0.1,0c-0.1,0-0.1,0-0.2,0c0,0-0.1,0-0.1,0c-0.1,0-0.2,0-0.3,0c0,0-0.1,0-0.1,0
				c-0.1,0-0.2,0-0.3,0.1c0,0,0,0,0,0c-0.3,0.1-0.6,0.2-0.9,0.4c0,0,0,0,0,0c-0.1,0-0.1,0.1-0.1,0.1c-0.9-3.1-0.9-6.9,0-9
				c6.4-2.1,11.3,4.1,11.9,5C26.6,37,27,40.3,27.8,42.4L27.8,42.4z M26.8,48.6c-0.1,0.1-0.1,0.2-0.2,0.3c0,0-0.1,0.1-0.1,0.1
				c-0.1,0.1-0.1,0.2-0.2,0.3c-0.3,0.4-0.7,0.8-1.2,1L20,50.7c0,0,0.1-0.1,0.1-0.1c0,0,0-0.1,0.1-0.1c0-0.1,0.1-0.1,0.1-0.2
				c0,0,0-0.1,0.1-0.1c0-0.1,0.1-0.1,0.1-0.2c0,0,0-0.1,0-0.1c0-0.1,0.1-0.2,0.1-0.3c0.4-1.6-0.2-4-1.6-5.9
				c-0.1-0.1-0.2-0.2-0.3-0.4c0,0-0.1-0.1-0.1-0.1c-0.1-0.1-0.1-0.1-0.2-0.2c0-0.1-0.1-0.1-0.1-0.1c-0.1-0.1-0.1-0.1-0.2-0.2
				c0-0.1-0.1-0.1-0.2-0.2c-0.1-0.1-0.1-0.1-0.2-0.2c-0.1-0.1-0.1-0.1-0.2-0.1c-0.1-0.1-0.1-0.1-0.2-0.2c-0.1,0-0.1-0.1-0.2-0.1
				c-0.1-0.1-0.1-0.1-0.2-0.2c-0.1,0-0.1-0.1-0.2-0.1c-0.1-0.1-0.1-0.1-0.2-0.1c-0.1,0-0.1-0.1-0.2-0.1c-0.1-0.1-0.1-0.1-0.2-0.1
				c0,0-0.1-0.1-0.1-0.1C16,41.1,16,41.1,15.9,41c0,0-0.1-0.1-0.1-0.1c-0.1-0.1-0.2-0.1-0.3-0.1c0,0-0.1,0-0.1,0
				c-0.1-0.1-0.2-0.1-0.4-0.2c-0.1,0-0.1,0-0.1-0.1c-0.1,0-0.1-0.1-0.2-0.1c0,0-0.1,0-0.1,0c0,0-0.1,0-0.1,0c0,0,0,0-0.1,0
				c-0.1,0-0.2-0.1-0.3-0.1c0,0-0.1,0-0.1,0c-0.1,0-0.1,0-0.2,0c-0.1,0-0.1,0-0.2,0c0,0-0.1,0-0.1,0c0,0,0,0,0,0c-0.1,0-0.1,0-0.2,0
				c0,0,0,0-0.1,0c0,0,0,0-0.1,0c0,0-0.1,0-0.1,0c0,0-0.1,0-0.1,0l2.5-3.3c0.1-0.2,0.2-0.3,0.4-0.4c0.1-0.1,0.1-0.1,0.2-0.2
				c0,0,0.1,0,0.1-0.1c0.1,0,0.1-0.1,0.2-0.1c0,0,0.1,0,0.1,0c0.1,0,0.1-0.1,0.2-0.1c0,0,0,0,0.1,0c0.1,0,0.1,0,0.2-0.1
				c0.4-0.1,0.9-0.2,1.4-0.1c1.9,0.1,4.2,1.3,6,3.1c0,0,0,0,0.1,0.1c0.1,0.1,0.2,0.2,0.3,0.3c0,0.1,0.1,0.1,0.1,0.2
				c0.1,0.1,0.2,0.2,0.2,0.3c0.1,0.1,0.2,0.3,0.3,0.4c0.1,0.2,0.2,0.4,0.4,0.5c0,0.1,0.1,0.1,0.1,0.2c0.1,0.1,0.1,0.2,0.2,0.4
				c0,0.1,0.1,0.2,0.1,0.2c0.1,0.1,0.1,0.2,0.1,0.3c0.1,0.2,0.2,0.4,0.3,0.6c0,0,0,0.1,0.1,0.1c0.1,0.1,0.1,0.3,0.2,0.4
				c0,0,0,0.1,0,0.1c0.2,0.6,0.4,1.3,0.5,1.9c0,0,0,0,0,0c0.1,0.6,0.1,1.3,0,1.8c0,0,0,0.1,0,0.1c0,0.1,0,0.2-0.1,0.4
				c0,0.1,0,0.1,0,0.1c0,0.1,0,0.2-0.1,0.3c0,0.1,0,0.1,0,0.1c0,0.1-0.1,0.2-0.1,0.3c-0.1,0.2-0.1,0.3-0.2,0.4
				C26.8,48.6,26.8,48.6,26.8,48.6L26.8,48.6z M18.8,50.8c-0.3,0.1-0.9,0.1-1.6-0.1c-0.9-0.3-2.1-0.9-3-1.9l0.9-0.4l0,0
				c0,0,0.1-0.1,0.1-0.1c0.7-0.7,0.5-1.9-0.3-2.7c-0.1-0.1-0.1-0.1-0.2-0.1c0,0,0,0-0.1,0c0,0-0.1-0.1-0.1-0.1c0,0,0,0-0.1,0
				c0,0-0.1-0.1-0.1-0.1c0,0,0,0-0.1,0c0,0-0.1,0-0.1-0.1c0,0-0.1,0-0.1,0c0,0-0.1,0-0.1,0c0,0-0.1,0-0.1,0c0,0-0.1,0-0.1,0
				c0,0,0,0-0.1,0c0,0,0,0,0,0c0,0-0.1,0-0.1,0c0,0-0.1,0-0.1,0c0,0-0.1,0-0.1,0c0,0-0.1,0-0.1,0c0,0-0.1,0-0.1,0c0,0,0,0-0.1,0
				c0,0-0.1,0-0.1,0c0,0,0,0-0.1,0c0,0-0.1,0-0.1,0c0,0,0,0-0.1,0c0,0-0.1,0-0.1,0c0,0,0,0-0.1,0c0,0-0.1,0-0.1,0c0,0,0,0-0.1,0
				c0,0-0.1,0-0.1,0c0,0,0,0,0,0c0,0-0.1,0-0.1,0.1c0,0,0,0,0,0c0,0,0,0,0,0c-0.5-1.9-0.3-3.4-0.1-3.7c0.1-0.1,0.1-0.2,0.2-0.3l0,0
				h0c0.1-0.1,0.2-0.2,0.4-0.2c0.2,0,0.4-0.1,0.6,0c0,0,0,0,0,0c0.7,0.1,1.6,0.5,2.5,1c0,0,0,0,0,0c0.1,0.1,0.2,0.1,0.3,0.2
				c0,0,0,0,0.1,0c0.1,0.1,0.2,0.1,0.3,0.2c0,0,0,0,0.1,0.1c0.1,0.1,0.2,0.1,0.2,0.2c0,0,0.1,0.1,0.1,0.1c0.1,0.1,0.1,0.1,0.2,0.2
				c0,0,0.1,0.1,0.1,0.1c0.1,0.1,0.1,0.1,0.2,0.2c0,0,0.1,0.1,0.1,0.1c0.1,0.1,0.1,0.1,0.2,0.2c0.1,0.1,0.1,0.1,0.2,0.2
				c0,0,0.1,0.1,0.1,0.1c0.1,0.1,0.2,0.2,0.3,0.3c1.3,1.8,1.9,4.1,1.5,5.5C19.7,50.2,19.3,50.6,18.8,50.8L18.8,50.8z M13.3,48.7
				L5,52.8c0,0-0.1-0.1-0.1-0.1v0l7.2-6.7l0.4-0.4c0.1-0.1,0.2-0.2,0.3-0.2c0.5-0.1,1.1,0.1,1.6,0.6c0.1,0.1,0.2,0.2,0.2,0.3
				c0.5,0.6,0.5,1.4,0.1,1.8c0,0,0,0,0,0L13.3,48.7z M4.6,54.3c-0.1,0.5-0.4,1.1-0.9,1.5c-0.7,0.6-1.5,0.9-2.2,0.7
				c-0.2-0.1-0.4-0.2-0.5-0.3c-0.3-0.3-0.4-0.8-0.3-1.4c0.1-0.6,0.4-1.1,0.9-1.6c0.3-0.3,0.6-0.5,1-0.6c0.2-0.1,0.4-0.1,0.6-0.1
				c0.4,0,0.8,0.1,1.1,0.4c0,0,0,0,0,0l0.2,0.3C4.7,53.5,4.7,53.9,4.6,54.3L4.6,54.3z M21.5,19.3l4.1-2.5l1.3,0.2
				c-0.5,0.2-1,0.5-1.6,0.8c-1.4,0.8-2.7,1.6-3.8,2.3V19.3z M17,10.3l-0.3-2.7l-2.1,3.5l-1.4-4.5L11,8L9.7,5L11.4,7l2.3-1.4l1.4,4
				l2.6-4l0.2,4.5l4.9,6.1l-0.5,0.3L17,10.3z M9.3,4.3C8.9,4.5,8.5,4.6,8.1,4.4C7.7,4.3,7.3,4,7,3.5c-0.3-0.5-0.5-1-0.4-1.5
				c0-0.5,0.3-0.9,0.6-1.1c0.1,0,0.1-0.1,0.2-0.1c0.1,0,0.2,0,0.3,0c0.6,0,1.2,0.4,1.7,1C10.1,2.7,10,3.8,9.3,4.3L9.3,4.3z
				 M23.5,16.3l0.5,0.9l-1.3,0.8l-0.5-0.9L23.5,16.3z M63.5,18c-0.2-0.1-0.5-0.1-0.7-0.1c-1.1,0-2,0.9-2,2c0,0.1,0,0.3,0,0.4
				l-6.1,2.9c-0.8-1-1.8-1.6-2.8-1.9c-1.1-0.4-2.1-0.4-3-0.3c-0.2,0-0.3,0-0.4,0l0,0c-0.8,0.1-1.4,0.2-1.7,0.3
				c-2.3-2.7-5.5-4.9-8.1-5.7c-1.1-0.4-2.1-0.5-2.9-0.3c-0.5-0.2-3.2-0.8-7.9,1.3l-2.4-0.3l-0.9,0.6l-0.8-1.4l-0.7,0.4l-4.9-6
				L18,4.2l-2.9,4.4l-1.2-3.7l-2.4,1.5L9.9,4.6c0.8-0.7,0.9-2,0.2-3C9.7,1,9.1,0.6,8.6,0.4C8,0.2,7.3,0.2,6.8,0.6
				c-1,0.6-1.1,2.1-0.3,3.2c0.4,0.5,0.9,0.9,1.5,1.1C8.1,5,8.3,5,8.5,5c0.2,0,0.4,0,0.6-0.1l1.6,3.7L13,7.4l1.6,5l2-3.7l0.1,1.8
				l5.1,6.1l-0.5,0.3l0.8,1.4L20.9,19v1.5c-3,2.1-4.8,4-5.7,5.9c-1,2.3-1,6.5,0,9.8c-0.1,0.1-0.2,0.2-0.2,0.3l-3.2,4.2l0,0
				c-0.1,0.1-0.1,0.2-0.2,0.3c-0.3,0.5-0.5,2.3,0.1,4.4l-7.3,6.8c-0.1-0.1-0.3-0.1-0.4-0.2c-0.9-0.4-2.1-0.1-3,0.7
				c-0.6,0.5-0.9,1.2-1,1.8c-0.1,0.7,0,1.3,0.5,1.8c0.4,0.4,0.9,0.6,1.5,0.6c0.3,0,0.6-0.1,1-0.2c0.5-0.1,0.9-0.4,1.3-0.8
				c0.9-0.8,1.2-1.9,1-2.8l8.5-4.2c1.2,1.3,2.8,2,3.9,2.2l0.3,0c0.1,0,0.3,0,0.4,0c0.3,0,0.5,0,0.6-0.1l6.2-0.4l0,0c0,0,0,0,0.1,0
				l0.1,0l0,0c0.4-0.2,0.8-0.5,1.1-0.8l0,0c0,0,0.6,0.1,1.3,0.1c0.5,0,1-0.1,1.5-0.2c0.5-0.1,0.9-0.4,1.2-0.7l0,0l0,0
				c0-0.1,0.6-1.9-0.3-3.4c-0.1-0.2-0.2-0.4-0.4-0.6c-0.8-1.2-2.1-3.1-2.2-7.4h0c0,0,0.1-1.8,2.5-3.5c1.4-1,5.1-3.5,8.6-4.7
				c1.3-0.4,2.6-0.7,3.7-0.5c4.1,0.7,8,4.9,8.3,7.3c0,0.1,0,0.2,0,0.3l0,0.7L51,37l0,0.1l0.3-0.4c0,0,0.3-0.3,0.5-0.9l0,0
				c0,0,1.6-1.3,2.9-3.2l0,0c0,0,0,0,0-0.1c1.1-1.7,1.9-4.1,1.2-6.7l5.7-4.3c0.3,0.2,0.6,0.3,1,0.3c0.3,0,0.5-0.1,0.7-0.1
				c0.8-0.2,1.4-1,1.4-1.9C64.9,18.9,64.3,18.2,63.5,18L63.5,18z"/>
			<path id="Fill-78" class="st11" d="M74.8,53.8l0.1-7.4l4-0.3l1.1,7.9L74.8,53.8z M76,40c-0.6,0-1.1-0.1-1.6-0.4
				c-0.5-0.3-0.8-0.8-0.8-1.3c0-0.4,0.3-0.8,0.9-1.1c0.5-0.3,1-0.4,1.5-0.4c0.6,0,1.1,0.1,1.6,0.4c0.6,0.3,0.9,0.7,0.9,1.2
				c0,0.6-0.3,1-0.8,1.3C77.2,39.9,76.6,40,76,40L76,40z M67.1,47.8c0,0-0.1,0-0.3,0c-0.5,0-1.3,0.1-2.4,0.2
				c-0.4,0.1-0.9,0.1-1.6,0.3l0.3,4.2c0.3,0,0.6,0,0.8-0.1c2-0.2,3.3-0.6,3.9-1.3c0.4-0.4,0.6-1,0.6-1.5C68.5,48.6,68,48,67.1,47.8
				L67.1,47.8z M69.9,51.8c-0.8,0.6-2.2,1-4.1,1.4c-0.5,0.1-1.4,0.3-2.6,0.4l0.5,6.6l-1.8,0.2l-0.8-9l-0.9-0.1l-0.6-8
				c1-0.4,1.8-0.7,2.4-0.9c2-0.6,3.7-0.9,5.1-0.9c3.6,0,5.4,1.4,5.4,4.3C72.6,48.6,71.7,50.6,69.9,51.8L69.9,51.8z M53.2,49.4
				c-0.6,0.1-1.1,0.4-1.5,0.7C51.3,50.5,51,51,51,51.6c0,0.9,0.7,1.4,2,1.4c0.7,0,1.4-0.2,2.1-0.5c0.8-0.4,1.2-1,1.2-1.6
				c0-0.1,0-0.2-0.1-0.3c-0.2-0.7-0.9-1.1-2.1-1.1h-0.4C53.7,49.3,53.5,49.4,53.2,49.4L53.2,49.4z M52.4,53.7
				c-1.3,0-2.5-0.3-3.6-0.9c-1.3-0.7-2-1.7-2-2.9c0-1,0.5-1.9,1.5-2.6c0.8-0.6,1.7-1,2.8-1.3c0.6-0.2,1.3-0.2,2-0.2
				c0.7,0,1.4,0.1,2.3,0.3c0.4,0.1,0.9,0.2,1.3,0.5c-0.3-0.7-1-1.4-1.9-1.9c-0.8-0.5-1.9-0.9-3.4-1.2c-0.5-0.1-1.2-0.3-2.1-0.4
				l-0.5-2.3c0.2,0,0.6,0.1,1.3,0.3c2.5,0.6,4.5,1.6,5.9,2.8c1.5,1.3,2.3,3,2.6,5.1v4.7l-1.2-0.2l0-1.6c-0.4,0.4-0.9,0.7-1.4,1
				C55,53.4,53.8,53.7,52.4,53.7L52.4,53.7z M45.6,54.2l-2.9,1.4l0-10.8l-2.6,2.8L39,53.8l-2.3,1.3l0.9-17.5l2-1.2l-0.3,11.4
				c0.8-1.3,1.5-2.2,2.2-2.9c0.2-0.2,0.5-0.5,1-1c0.6-0.5,1.2-0.8,1.9-0.8c0.7,0,1.2,0.2,1.3,0.5c0.2,0.6,0.3,1.5,0.3,2.6
				c0,1.4-0.1,3-0.2,5L45.6,54.2L45.6,54.2z"/>
			<path id="Fill-81" class="st2" d="M4.6,53.7c0-0.2-0.1-0.3-0.2-0.5l-0.2-0.3c0,0,0,0,0,0c-0.3-0.3-0.7-0.4-1.1-0.4
				c-0.2,0-0.4,0-0.6,0.1c-0.3,0.1-0.7,0.3-1,0.6c-0.5,0.4-0.8,1-0.9,1.6c-0.1,0.4,0,0.8,0.1,1.1C1.4,55.9,3.1,55.9,4.6,53.7"/>
			<path id="Stroke-83" class="st3" d="M4.6,53.7c0-0.2-0.1-0.3-0.2-0.5l-0.2-0.3c0,0,0,0,0,0c-0.3-0.3-0.7-0.4-1.1-0.4
				c-0.2,0-0.4,0-0.6,0.1c-0.3,0.1-0.7,0.3-1,0.6c-0.5,0.4-0.8,1-0.9,1.6c-0.1,0.4,0,0.8,0.1,1.1C1.4,55.9,3.1,55.9,4.6,53.7z"/>
			<path id="Fill-85" class="st13" d="M0.9,55.9C0.9,56,1,56,1.1,56.1c0.1,0.2,0.3,0.3,0.5,0.3c0.7,0.2,1.5-0.1,2.2-0.7
				c0.5-0.4,0.8-1,0.9-1.5c0-0.2,0-0.4,0-0.6C3.1,55.9,1.4,55.9,0.9,55.9"/>
			<path id="Stroke-87" class="st14" d="M0.9,55.9C0.9,56,1,56,1.1,56.1c0.1,0.2,0.3,0.3,0.5,0.3c0.7,0.2,1.5-0.1,2.2-0.7
				c0.5-0.4,0.8-1,0.9-1.5c0-0.2,0-0.4,0-0.6C3.1,55.9,1.4,55.9,0.9,55.9z"/>
			<path id="Fill-89" class="st2" d="M14.7,46.2c-0.1-0.1-0.1-0.2-0.2-0.3c-0.5-0.5-1.1-0.7-1.6-0.6c-0.1,0-0.2,0.1-0.3,0.2
				l-0.4,0.4l-7.2,6.7v0c0,0,0.1,0.1,0.1,0.1l10-5.9C15,46.7,14.8,46.4,14.7,46.2"/>
			<path id="Stroke-91" class="st3" d="M14.7,46.2c-0.1-0.1-0.1-0.2-0.2-0.3c-0.5-0.5-1.1-0.7-1.6-0.6c-0.1,0-0.2,0.1-0.3,0.2
				l-0.4,0.4l-7.2,6.7v0c0,0,0.1,0.1,0.1,0.1l10-5.9C15,46.7,14.8,46.4,14.7,46.2z"/>
			<path id="Fill-93" class="st13" d="M5,52.8l8.3-4.1l1.4-0.7c0,0,0,0,0,0c0.2-0.2,0.3-0.6,0.2-1L5,52.8z"/>
			<path id="Stroke-95" class="st14" d="M5,52.8l8.3-4.1l1.4-0.7c0,0,0,0,0,0c0.2-0.2,0.3-0.6,0.2-1L5,52.8z"/>
			<path id="Fill-97" class="st2" d="M19.9,48.9c0.1-1.4-0.5-3.3-1.6-4.8c-0.1-0.1-0.2-0.2-0.3-0.3c0,0-0.1-0.1-0.1-0.1
				c-0.1-0.1-0.1-0.1-0.2-0.2c-0.1-0.1-0.1-0.1-0.2-0.2c0,0-0.1-0.1-0.1-0.1c-0.1-0.1-0.1-0.1-0.2-0.2c0,0-0.1-0.1-0.1-0.1
				c-0.1-0.1-0.1-0.1-0.2-0.2c0,0-0.1-0.1-0.1-0.1c-0.1-0.1-0.2-0.1-0.2-0.2c0,0,0,0-0.1-0.1c-0.1-0.1-0.2-0.1-0.3-0.2
				c0,0,0,0-0.1,0c-0.1-0.1-0.2-0.1-0.3-0.2c0,0,0,0,0,0c-0.9-0.6-1.7-1-2.5-1c0,0,0,0,0,0c-0.2,0-0.5,0-0.6,0
				c-0.1,0.1-0.3,0.1-0.4,0.2h0l0,0c-0.1,0.1-0.1,0.2-0.2,0.3c-0.2,0.3-0.4,1.9,0.1,3.7c0,0,0,0,0,0c0,0,0,0,0,0
				c0,0,0.1-0.1,0.1-0.1c0,0,0,0,0,0c0,0,0.1,0,0.1,0c0,0,0,0,0.1,0c0,0,0.1,0,0.1,0c0,0,0,0,0.1,0c0,0,0.1,0,0.1,0c0,0,0,0,0.1,0
				c0,0,0.1,0,0.1,0c0,0,0,0,0.1,0c0,0,0.1,0,0.1,0c0,0,0,0,0.1,0c0,0,0.1,0,0.1,0c0,0,0.1,0,0.1,0c0,0,0.1,0,0.1,0c0,0,0,0,0.1,0
				c0,0,0.1,0,0.1,0c0,0,0,0,0,0c0,0,0,0,0.1,0c0,0,0.1,0,0.1,0c0,0,0.1,0,0.1,0c0,0,0.1,0,0.1,0c0,0,0,0,0.1,0c0,0,0.1,0,0.1,0.1
				c0,0,0,0,0.1,0c0,0,0.1,0,0.1,0.1c0,0,0,0,0.1,0c0,0,0.1,0.1,0.1,0.1c0,0,0,0,0.1,0c0.1,0,0.1,0.1,0.2,0.1
				c0.7,0.7,0.9,1.7,0.6,2.3C16.3,48.3,18.3,49.1,19.9,48.9"/>
			<path id="Stroke-99" class="st3" d="M19.9,48.9c0.1-1.4-0.5-3.3-1.6-4.8c-0.1-0.1-0.2-0.2-0.3-0.3c0,0-0.1-0.1-0.1-0.1
				c-0.1-0.1-0.1-0.1-0.2-0.2c-0.1-0.1-0.1-0.1-0.2-0.2c0,0-0.1-0.1-0.1-0.1c-0.1-0.1-0.1-0.1-0.2-0.2c0,0-0.1-0.1-0.1-0.1
				c-0.1-0.1-0.1-0.1-0.2-0.2c0,0-0.1-0.1-0.1-0.1c-0.1-0.1-0.2-0.1-0.2-0.2c0,0,0,0-0.1-0.1c-0.1-0.1-0.2-0.1-0.3-0.2
				c0,0,0,0-0.1,0c-0.1-0.1-0.2-0.1-0.3-0.2c0,0,0,0,0,0c-0.9-0.6-1.7-1-2.5-1c0,0,0,0,0,0c-0.2,0-0.5,0-0.6,0
				c-0.1,0.1-0.3,0.1-0.4,0.2h0l0,0c-0.1,0.1-0.1,0.2-0.2,0.3c-0.2,0.3-0.4,1.9,0.1,3.7c0,0,0,0,0,0c0,0,0,0,0,0
				c0,0,0.1-0.1,0.1-0.1c0,0,0,0,0,0c0,0,0.1,0,0.1,0c0,0,0,0,0.1,0c0,0,0.1,0,0.1,0c0,0,0,0,0.1,0c0,0,0.1,0,0.1,0c0,0,0,0,0.1,0
				c0,0,0.1,0,0.1,0c0,0,0,0,0.1,0c0,0,0.1,0,0.1,0c0,0,0,0,0.1,0c0,0,0.1,0,0.1,0c0,0,0.1,0,0.1,0c0,0,0.1,0,0.1,0c0,0,0,0,0.1,0
				c0,0,0.1,0,0.1,0c0,0,0,0,0,0c0,0,0,0,0.1,0c0,0,0.1,0,0.1,0c0,0,0.1,0,0.1,0c0,0,0.1,0,0.1,0c0,0,0,0,0.1,0c0,0,0.1,0,0.1,0.1
				c0,0,0,0,0.1,0c0,0,0.1,0,0.1,0.1c0,0,0,0,0.1,0c0,0,0.1,0.1,0.1,0.1c0,0,0,0,0.1,0c0.1,0,0.1,0.1,0.2,0.1
				c0.7,0.7,0.9,1.7,0.6,2.3C16.3,48.3,18.3,49.1,19.9,48.9z"/>
			<path id="Fill-101" class="st13" d="M15.5,47.9c-0.1,0.1-0.1,0.2-0.3,0.4c0,0-0.1,0.1-0.1,0.1l0,0l-0.9,0.4c0.9,1,2,1.6,3,1.9
				c0.7,0.2,1.3,0.2,1.6,0.1c0.5-0.2,0.8-0.6,1-1.3c0.1-0.2,0.1-0.4,0.1-0.7C18.3,49.1,16.3,48.3,15.5,47.9"/>
			<path id="Stroke-103" class="st14" d="M15.5,47.9c-0.1,0.1-0.1,0.2-0.3,0.4c0,0-0.1,0.1-0.1,0.1l0,0l-0.9,0.4c0.9,1,2,1.6,3,1.9
				c0.7,0.2,1.3,0.2,1.6,0.1c0.5-0.2,0.8-0.6,1-1.3c0.1-0.2,0.1-0.4,0.1-0.7C18.3,49.1,16.3,48.3,15.5,47.9z"/>
			<path id="Fill-105" class="st15" d="M25.5,47c0,0.1,0.1,0.1,0.1,0.2c0.1,0.4,0.1,0.8-0.1,1.1c-0.1,0.4-0.4,0.7-0.7,0.9
				c-0.1,0.1-0.2,0.1-0.4,0.1c-0.2,0.1-0.3,0.1-0.5,0.1c-0.1,0-0.3,0-0.4-0.1c-0.5-0.2-0.8-0.7-0.8-1.3c-0.6,0.2-1.3,0.3-2.1,0.5
				c0,0.4,0,0.8-0.1,1.2c0,0.1-0.1,0.2-0.1,0.3c0,0,0,0.1,0,0.1c0,0.1-0.1,0.1-0.1,0.2c0,0,0,0.1-0.1,0.1c0,0.1-0.1,0.1-0.1,0.2
				c0,0,0,0.1-0.1,0.1c0,0-0.1,0.1-0.1,0.1l5.1-0.4c0.5-0.2,0.9-0.6,1.2-1c0.1-0.1,0.1-0.2,0.2-0.3c0,0,0.1-0.1,0.1-0.1
				c0.1-0.1,0.1-0.2,0.2-0.3c0,0,0-0.1,0.1-0.1c0.1-0.1,0.1-0.3,0.2-0.4c0-0.1,0.1-0.2,0.1-0.3c0-0.1,0-0.1,0-0.1
				c0-0.1,0-0.2,0.1-0.3c0,0,0-0.1,0-0.1c0-0.1,0-0.2,0.1-0.4c0,0,0-0.1,0-0.1c0-0.3,0-0.6,0-0.9C27.3,45.8,26.7,46.3,25.5,47"/>
			<path id="Fill-107" class="st4" d="M22.1,43.5c-0.5,0-1-0.2-1.4-0.5c-0.4-0.3-0.7-0.8-0.8-1.3c-0.1-0.5,0-1,0.3-1.3
				c0.3-0.3,0.7-0.5,1.2-0.5c0.2,0,0.5,0.1,0.7,0.1c0.3,0.1,0.6,0.2,0.8,0.4c0.4,0.3,0.7,0.8,0.8,1.2c0.1,0.5,0,0.9-0.3,1.3
				c-0.2,0.2-0.4,0.4-0.7,0.4C22.5,43.4,22.3,43.5,22.1,43.5 M17.4,39.6c-0.2,0.1-0.4,0.1-0.7,0.1c-0.9,0-1.6-0.6-1.6-1.3
				c0-0.7,0.7-1.3,1.6-1.3c0.2,0,0.5,0,0.7,0.1c0.6,0.2,1.1,0.6,1.1,1.2C18.5,38.9,18.1,39.4,17.4,39.6 M22.9,47.3
				c0.3-0.8,1.2-1.3,1.8-1c0,0,0,0,0,0c0.1,0,0.1,0,0.2,0c0.3,0.1,0.5,0.3,0.6,0.6c1.2-0.6,1.8-1.1,1.8-1.2c0-0.3,0-0.6-0.1-1
				c0,0,0,0,0,0c-0.1-0.6-0.2-1.3-0.5-1.9c0,0,0-0.1,0-0.1c0-0.1-0.1-0.3-0.2-0.4c0,0,0-0.1-0.1-0.1c-0.1-0.2-0.2-0.4-0.3-0.6
				c0-0.1-0.1-0.2-0.1-0.3c0-0.1-0.1-0.2-0.1-0.2c-0.1-0.1-0.1-0.2-0.2-0.4c0-0.1-0.1-0.1-0.1-0.2c-0.1-0.2-0.2-0.4-0.4-0.5
				c-0.1-0.2-0.2-0.3-0.3-0.4c-0.1-0.1-0.1-0.2-0.2-0.3c0-0.1-0.1-0.1-0.1-0.2c-0.1-0.1-0.2-0.2-0.3-0.3c0,0,0,0-0.1-0.1
				c-1.7-1.7-4-2.9-6-3.1c-0.5,0-1,0-1.4,0.1c-0.1,0-0.1,0-0.2,0.1c0,0,0,0-0.1,0c-0.1,0-0.2,0.1-0.2,0.1c0,0-0.1,0-0.1,0
				c-0.1,0-0.1,0.1-0.2,0.1c0,0-0.1,0-0.1,0.1c-0.1,0.1-0.1,0.1-0.2,0.2c-0.1,0.1-0.3,0.3-0.4,0.4L13,40.2c0,0,0.1,0,0.1,0
				c0,0,0.1,0,0.1,0c0,0,0,0,0.1,0c0,0,0,0,0.1,0c0.1,0,0.1,0,0.2,0c0,0,0,0,0,0c0,0,0.1,0,0.1,0c0.1,0,0.1,0,0.2,0
				c0.1,0,0.1,0,0.2,0c0,0,0.1,0,0.1,0c0.1,0,0.2,0.1,0.3,0.1c0,0,0,0,0.1,0c0,0,0.1,0,0.1,0c0,0,0.1,0,0.1,0c0.1,0,0.1,0.1,0.2,0.1
				c0,0,0.1,0,0.1,0.1c0.1,0,0.2,0.1,0.4,0.2c0,0,0.1,0,0.1,0c0.1,0,0.2,0.1,0.3,0.1c0,0,0.1,0,0.1,0.1c0.1,0,0.2,0.1,0.2,0.1
				c0,0,0.1,0.1,0.1,0.1c0.1,0,0.1,0.1,0.2,0.1c0.1,0,0.1,0.1,0.2,0.1c0.1,0.1,0.1,0.1,0.2,0.1c0.1,0,0.1,0.1,0.2,0.1
				c0.1,0.1,0.1,0.1,0.2,0.2c0.1,0,0.1,0.1,0.2,0.1c0.1,0.1,0.1,0.1,0.2,0.2c0.1,0,0.1,0.1,0.2,0.1c0.1,0.1,0.1,0.1,0.2,0.2
				c0.1,0.1,0.1,0.1,0.2,0.2c0.1,0.1,0.1,0.1,0.2,0.2c0,0,0.1,0.1,0.1,0.1c0.1,0.1,0.1,0.1,0.2,0.2c0,0,0.1,0.1,0.1,0.1
				c0.1,0.1,0.2,0.2,0.3,0.4c1.1,1.5,1.7,3.3,1.7,4.7c0.8-0.1,1.5-0.3,2.1-0.5C22.7,47.8,22.8,47.5,22.9,47.3"/>
			<path id="Stroke-109" class="st5" d="M22.1,43.5c-0.5,0-1-0.2-1.4-0.5c-0.4-0.3-0.7-0.8-0.8-1.3c-0.1-0.5,0-1,0.3-1.3
				c0.3-0.3,0.7-0.5,1.2-0.5c0.2,0,0.5,0.1,0.7,0.1c0.3,0.1,0.6,0.2,0.8,0.4c0.4,0.3,0.7,0.8,0.8,1.2c0.1,0.5,0,0.9-0.3,1.3
				c-0.2,0.2-0.4,0.4-0.7,0.4C22.5,43.4,22.3,43.5,22.1,43.5z M17.4,39.6c-0.2,0.1-0.4,0.1-0.7,0.1c-0.9,0-1.6-0.6-1.6-1.3
				c0-0.7,0.7-1.3,1.6-1.3c0.2,0,0.5,0,0.7,0.1c0.6,0.2,1.1,0.6,1.1,1.2C18.5,38.9,18.1,39.4,17.4,39.6z M22.9,47.3
				c0.3-0.8,1.2-1.3,1.8-1c0,0,0,0,0,0c0.1,0,0.1,0,0.2,0c0.3,0.1,0.5,0.3,0.6,0.6c1.2-0.6,1.8-1.1,1.8-1.2c0-0.3,0-0.6-0.1-1
				c0,0,0,0,0,0c-0.1-0.6-0.2-1.3-0.5-1.9c0,0,0-0.1,0-0.1c0-0.1-0.1-0.3-0.2-0.4c0,0,0-0.1-0.1-0.1c-0.1-0.2-0.2-0.4-0.3-0.6
				c0-0.1-0.1-0.2-0.1-0.3c0-0.1-0.1-0.2-0.1-0.2c-0.1-0.1-0.1-0.2-0.2-0.4c0-0.1-0.1-0.1-0.1-0.2c-0.1-0.2-0.2-0.4-0.4-0.5
				c-0.1-0.2-0.2-0.3-0.3-0.4c-0.1-0.1-0.1-0.2-0.2-0.3c0-0.1-0.1-0.1-0.1-0.2c-0.1-0.1-0.2-0.2-0.3-0.3c0,0,0,0-0.1-0.1
				c-1.7-1.7-4-2.9-6-3.1c-0.5,0-1,0-1.4,0.1c-0.1,0-0.1,0-0.2,0.1c0,0,0,0-0.1,0c-0.1,0-0.2,0.1-0.2,0.1c0,0-0.1,0-0.1,0
				c-0.1,0-0.1,0.1-0.2,0.1c0,0-0.1,0-0.1,0.1c-0.1,0.1-0.1,0.1-0.2,0.2c-0.1,0.1-0.3,0.3-0.4,0.4L13,40.2c0,0,0.1,0,0.1,0
				c0,0,0.1,0,0.1,0c0,0,0,0,0.1,0c0,0,0,0,0.1,0c0.1,0,0.1,0,0.2,0c0,0,0,0,0,0c0,0,0.1,0,0.1,0c0.1,0,0.1,0,0.2,0
				c0.1,0,0.1,0,0.2,0c0,0,0.1,0,0.1,0c0.1,0,0.2,0.1,0.3,0.1c0,0,0,0,0.1,0c0,0,0.1,0,0.1,0c0,0,0.1,0,0.1,0c0.1,0,0.1,0.1,0.2,0.1
				c0,0,0.1,0,0.1,0.1c0.1,0,0.2,0.1,0.4,0.2c0,0,0.1,0,0.1,0c0.1,0,0.2,0.1,0.3,0.1c0,0,0.1,0,0.1,0.1c0.1,0,0.2,0.1,0.2,0.1
				c0,0,0.1,0.1,0.1,0.1c0.1,0,0.1,0.1,0.2,0.1c0.1,0,0.1,0.1,0.2,0.1c0.1,0.1,0.1,0.1,0.2,0.1c0.1,0,0.1,0.1,0.2,0.1
				c0.1,0.1,0.1,0.1,0.2,0.2c0.1,0,0.1,0.1,0.2,0.1c0.1,0.1,0.1,0.1,0.2,0.2c0.1,0,0.1,0.1,0.2,0.1c0.1,0.1,0.1,0.1,0.2,0.2
				c0.1,0.1,0.1,0.1,0.2,0.2c0.1,0.1,0.1,0.1,0.2,0.2c0,0,0.1,0.1,0.1,0.1c0.1,0.1,0.1,0.1,0.2,0.2c0,0,0.1,0.1,0.1,0.1
				c0.1,0.1,0.2,0.2,0.3,0.4c1.1,1.5,1.7,3.3,1.7,4.7c0.8-0.1,1.5-0.3,2.1-0.5C22.7,47.8,22.8,47.5,22.9,47.3z"/>
			<path id="Fill-111" class="st6" d="M29.7,45.9c-0.1-0.2-0.2-0.4-0.4-0.6c-0.5-0.7-1.1-1.6-1.6-2.9c0-0.1-0.1-0.2-0.1-0.3
				c0.2,0.8,0.5,2,0.3,3c0,0.2,0,0.4,0,0.5c0,0,0,0,0,0.1c0,0.4,0,0.8-0.1,1.2c0,0,0,0,0,0c0,0.2-0.1,0.4-0.1,0.6c0,0,0,0,0,0
				c0,0.1,0,0.1,0,0.2c0,0.1-0.1,0.2-0.1,0.3c0,0,0,0.1,0,0.1c-0.1,0.2-0.1,0.3-0.2,0.4c0,0,0,0.1,0,0.1c-0.1,0.2-0.1,0.3-0.2,0.5
				c0,0,0,0,0,0c-0.1,0.1-0.2,0.3-0.3,0.4c0.7,0.1,2.3,0.2,3-0.6C30,48.7,30.4,47.2,29.7,45.9"/>
			<path id="Stroke-113" class="st7" d="M29.7,45.9c-0.1-0.2-0.2-0.4-0.4-0.6c-0.5-0.7-1.1-1.6-1.6-2.9c0-0.1-0.1-0.2-0.1-0.3
				c0.2,0.8,0.5,2,0.3,3c0,0.2,0,0.4,0,0.5c0,0,0,0,0,0.1c0,0.4,0,0.8-0.1,1.2c0,0,0,0,0,0c0,0.2-0.1,0.4-0.1,0.6c0,0,0,0,0,0
				c0,0.1,0,0.1,0,0.2c0,0.1-0.1,0.2-0.1,0.3c0,0,0,0.1,0,0.1c-0.1,0.2-0.1,0.3-0.2,0.4c0,0,0,0.1,0,0.1c-0.1,0.2-0.1,0.3-0.2,0.5
				c0,0,0,0,0,0c-0.1,0.1-0.2,0.3-0.3,0.4c0.7,0.1,2.3,0.2,3-0.6C30,48.7,30.4,47.2,29.7,45.9z"/>
			<path id="Fill-115" class="st8" d="M27.7,42.1c-0.1-0.2-0.1-0.4-0.2-0.6c0,0,0,0,0,0s0,0,0,0c-0.5-2.1-0.7-5.2,0.1-9.8
				c-0.6-0.8-5.5-7-11.9-5c-0.9,2.1-0.9,6,0,9c0,0,0.1-0.1,0.1-0.1c0,0,0,0,0,0c0.3-0.2,0.6-0.3,0.9-0.4c0,0,0,0,0,0
				c0.1,0,0.2,0,0.3-0.1c0,0,0.1,0,0.1,0c0.1,0,0.2,0,0.3,0c0,0,0.1,0,0.1,0c0.1,0,0.1,0,0.2,0c0,0,0.1,0,0.1,0c0.1,0,0.2,0,0.3,0
				c0.1,0,0.1,0,0.2,0c0.6,0,1.2,0.2,1.9,0.4c1.9,0.6,3.8,2,5.2,3.7c0,0,0,0,0,0c0.1,0.2,0.3,0.3,0.4,0.5c0.1,0.2,0.3,0.4,0.4,0.6
				c0,0.1,0.1,0.1,0.1,0.2c0.1,0.1,0.1,0.2,0.2,0.4c0,0.1,0.1,0.2,0.1,0.2c0.1,0.1,0.1,0.2,0.2,0.4c0.1,0.1,0.1,0.3,0.2,0.4
				c0.1,0.1,0.1,0.2,0.2,0.4c0,0.1,0.1,0.2,0.1,0.3c0,0.1,0.1,0.2,0.1,0.3c0,0.1,0.1,0.2,0.1,0.3c0,0.1,0.1,0.2,0.1,0.4
				c0,0.1,0,0.2,0.1,0.2c0,0.2,0.1,0.4,0.1,0.6c0,0,0,0.1,0,0.1c0,0.2,0.1,0.3,0.1,0.5c0,0,0,0.1,0,0.1
				C28.1,44.1,27.8,42.8,27.7,42.1"/>
			<path id="Stroke-117" class="st9" d="M27.7,42.1c-0.1-0.2-0.1-0.4-0.2-0.6c0,0,0,0,0,0s0,0,0,0c-0.5-2.1-0.7-5.2,0.1-9.8
				c-0.6-0.8-5.5-7-11.9-5c-0.9,2.1-0.9,6,0,9c0,0,0.1-0.1,0.1-0.1c0,0,0,0,0,0c0.3-0.2,0.6-0.3,0.9-0.4c0,0,0,0,0,0
				c0.1,0,0.2,0,0.3-0.1c0,0,0.1,0,0.1,0c0.1,0,0.2,0,0.3,0c0,0,0.1,0,0.1,0c0.1,0,0.1,0,0.2,0c0,0,0.1,0,0.1,0c0.1,0,0.2,0,0.3,0
				c0.1,0,0.1,0,0.2,0c0.6,0,1.2,0.2,1.9,0.4c1.9,0.6,3.8,2,5.2,3.7c0,0,0,0,0,0c0.1,0.2,0.3,0.3,0.4,0.5c0.1,0.2,0.3,0.4,0.4,0.6
				c0,0.1,0.1,0.1,0.1,0.2c0.1,0.1,0.1,0.2,0.2,0.4c0,0.1,0.1,0.2,0.1,0.2c0.1,0.1,0.1,0.2,0.2,0.4c0.1,0.1,0.1,0.3,0.2,0.4
				c0.1,0.1,0.1,0.2,0.2,0.4c0,0.1,0.1,0.2,0.1,0.3c0,0.1,0.1,0.2,0.1,0.3c0,0.1,0.1,0.2,0.1,0.3c0,0.1,0.1,0.2,0.1,0.4
				c0,0.1,0,0.2,0.1,0.2c0,0.2,0.1,0.4,0.1,0.6c0,0,0,0.1,0,0.1c0,0.2,0.1,0.3,0.1,0.5c0,0,0,0.1,0,0.1
				C28.1,44.1,27.8,42.8,27.7,42.1z"/>
			<path id="Fill-119" class="st15" d="M54,30.5c0.1,0.2,0.1,0.4,0.1,0.6c0,0.6-0.3,1.1-0.7,1.2c-0.1,0.1-0.2,0.1-0.3,0.1
				c-0.2,0-0.5-0.1-0.6-0.3c-0.1,0.1-0.3,0.2-0.5,0.3c0.2,1,0.2,1.8,0.1,2.5c0.6-0.5,1.4-1.4,2.1-2.5c0.2-0.5,0.3-1.4,0.2-2.5
				C54.3,30,54.2,30.2,54,30.5"/>
			<path id="Fill-121" class="st4" d="M51.5,28c-0.3-0.2-0.5-0.5-0.6-0.8c-0.3-0.7-0.1-1.5,0.5-1.7c0.2-0.1,0.5-0.1,0.7,0
				c0.1,0,0.3,0.1,0.4,0.2c0.2,0.2,0.4,0.4,0.6,0.8c0,0.1,0,0.1,0,0.2c0.1,0.3,0.1,0.6,0,0.8c-0.1,0.3-0.3,0.5-0.5,0.6
				c0,0-0.1,0-0.1,0c0,0,0,0-0.1,0c-0.1,0-0.2,0.1-0.3,0.1C51.9,28.2,51.7,28.2,51.5,28 M50.3,24.5c-0.4,0-0.8-0.3-1-0.7
				c-0.3-0.6-0.3-1.3,0.2-1.5c0.2-0.1,0.5-0.1,0.8,0c0.1,0,0.1,0,0.2,0.1c0.2,0.1,0.4,0.3,0.6,0.6c0.3,0.6,0.3,1.2-0.2,1.4
				c-0.1,0-0.1,0.1-0.2,0.1C50.5,24.5,50.4,24.5,50.3,24.5 M52.2,31.1c0-0.7,0.4-1.2,0.9-1.2c0.1,0,0.2,0,0.3,0.1
				c0.3,0,0.5,0.2,0.6,0.5c0.2-0.2,0.3-0.4,0.4-0.6c-0.1-1-0.3-2.1-0.7-3.4c-0.1-0.2-0.2-0.5-0.3-0.8c-1.5-4.2-4.1-4.3-4.7-4.3
				c-0.6,0.1-1.2,0.2-1.5,0.3c1.5,1.9,2.5,3.8,3.3,5.7c0.7,1.7,1.1,3.3,1.5,4.7c0,0.1,0,0.1,0,0.2c0.2-0.1,0.3-0.2,0.5-0.3
				C52.3,31.8,52.2,31.5,52.2,31.1"/>
			<path id="Stroke-123" class="st5" d="M51.5,28c-0.3-0.2-0.5-0.5-0.6-0.8c-0.3-0.7-0.1-1.5,0.5-1.7c0.2-0.1,0.5-0.1,0.7,0
				c0.1,0,0.3,0.1,0.4,0.2c0.2,0.2,0.4,0.4,0.6,0.8c0,0.1,0,0.1,0,0.2c0.1,0.3,0.1,0.6,0,0.8c-0.1,0.3-0.3,0.5-0.5,0.6
				c0,0-0.1,0-0.1,0c0,0,0,0-0.1,0c-0.1,0-0.2,0.1-0.3,0.1C51.9,28.2,51.7,28.2,51.5,28z M50.3,24.5c-0.4,0-0.8-0.3-1-0.7
				c-0.3-0.6-0.3-1.3,0.2-1.5c0.2-0.1,0.5-0.1,0.8,0c0.1,0,0.1,0,0.2,0.1c0.2,0.1,0.4,0.3,0.6,0.6c0.3,0.6,0.3,1.2-0.2,1.4
				c-0.1,0-0.1,0.1-0.2,0.1C50.5,24.5,50.4,24.5,50.3,24.5z M52.2,31.1c0-0.7,0.4-1.2,0.9-1.2c0.1,0,0.2,0,0.3,0.1
				c0.3,0,0.5,0.2,0.6,0.5c0.2-0.2,0.3-0.4,0.4-0.6c-0.1-1-0.3-2.1-0.7-3.4c-0.1-0.2-0.2-0.5-0.3-0.8c-1.5-4.2-4.1-4.3-4.7-4.3
				c-0.6,0.1-1.2,0.2-1.5,0.3c1.5,1.9,2.5,3.8,3.3,5.7c0.7,1.7,1.1,3.3,1.5,4.7c0,0.1,0,0.1,0,0.2c0.2-0.1,0.3-0.2,0.5-0.3
				C52.3,31.8,52.2,31.5,52.2,31.1z"/>
			<path id="Fill-125" class="st2" d="M55.1,25c-0.8-1.9-2.1-3.1-4-3.5c1,0.6,2.2,1.7,3,4c0.5,1.2,0.7,2.4,0.9,3.3
				c0.2-0.4,0.5-1,0.6-1.9C55.5,26.4,55.3,25.7,55.1,25"/>
			<path id="Stroke-127" class="st3" d="M55.1,25c-0.8-1.9-2.1-3.1-4-3.5c1,0.6,2.2,1.7,3,4c0.5,1.2,0.7,2.4,0.9,3.3
				c0.2-0.4,0.5-1,0.6-1.9C55.5,26.4,55.3,25.7,55.1,25z"/>
			<path id="Fill-129" class="st13" d="M55,28.9c0.1,0.6,0.1,1.1,0.1,1.6c0.4-1,0.6-2.2,0.5-3.5C55.5,27.8,55.1,28.5,55,28.9"/>
			<path id="Stroke-131" class="st14" d="M55,28.9c0.1,0.6,0.1,1.1,0.1,1.6c0.4-1,0.6-2.2,0.5-3.5C55.5,27.8,55.1,28.5,55,28.9z"/>
			<path id="Fill-133" class="st13" d="M61.7,20.7l-6.1,4c0,0,0,0.1,0,0.1c0.1,0.1,0.1,0.3,0.2,0.4l5.4-4l0.4-0.3c0,0,0,0,0-0.1
				C61.7,20.8,61.7,20.8,61.7,20.7C61.7,20.8,61.7,20.7,61.7,20.7"/>
			<path id="Stroke-135" class="st14" d="M61.7,20.7l-6.1,4c0,0,0,0.1,0,0.1c0.1,0.1,0.1,0.3,0.2,0.4l5.4-4l0.4-0.3c0,0,0,0,0-0.1
				C61.7,20.8,61.7,20.8,61.7,20.7C61.7,20.8,61.7,20.7,61.7,20.7z"/>
			<path id="Fill-137" class="st2" d="M61.7,20.7C61.7,20.7,61.7,20.6,61.7,20.7c-0.1-0.2-0.2-0.2-0.2-0.2L55,23.6
				c0.2,0.3,0.4,0.7,0.6,1.2L61.7,20.7C61.7,20.7,61.7,20.7,61.7,20.7"/>
			<path id="Stroke-139" class="st3" d="M61.7,20.7C61.7,20.7,61.7,20.6,61.7,20.7c-0.1-0.2-0.2-0.2-0.2-0.2L55,23.6
				c0.2,0.3,0.4,0.7,0.6,1.2L61.7,20.7C61.7,20.7,61.7,20.7,61.7,20.7z"/>
			<path id="Fill-141" class="st2" d="M64.2,20c0-0.1,0-0.1,0-0.2c0-0.8-0.7-1.5-1.5-1.5c-0.1,0-0.3,0-0.4,0.1
				c-0.6,0.2-0.9,0.8-0.9,1.4c0,0,0,0.1,0,0.1c0,0,0,0,0,0c0,0,0.1,0,0.1,0c0,0,0,0,0,0c0,0,0.1,0,0.1,0c0,0,0,0,0,0
				c0,0,0.1,0,0.1,0c0,0,0,0,0,0h0c0,0,0,0,0,0c0,0,0,0,0,0c0,0,0,0,0.1,0c0,0,0,0,0,0c0,0,0,0,0.1,0c0,0,0,0,0,0c0,0,0,0,0.1,0.1
				c0,0,0,0,0,0c0,0,0.1,0.1,0.1,0.1c0.1,0.1,0.1,0.3,0.1,0.4C62.8,20.7,63.6,20.6,64.2,20"/>
			<path id="Stroke-143" class="st3" d="M64.2,20c0-0.1,0-0.1,0-0.2c0-0.8-0.7-1.5-1.5-1.5c-0.1,0-0.3,0-0.4,0.1
				c-0.6,0.2-0.9,0.8-0.9,1.4c0,0,0,0.1,0,0.1c0,0,0,0,0,0c0,0,0.1,0,0.1,0c0,0,0,0,0,0c0,0,0.1,0,0.1,0c0,0,0,0,0,0
				c0,0,0.1,0,0.1,0c0,0,0,0,0,0h0c0,0,0,0,0,0c0,0,0,0,0,0c0,0,0,0,0.1,0c0,0,0,0,0,0c0,0,0,0,0.1,0c0,0,0,0,0,0c0,0,0,0,0.1,0.1
				c0,0,0,0,0,0c0,0,0.1,0.1,0.1,0.1c0.1,0.1,0.1,0.3,0.1,0.4C62.8,20.7,63.6,20.6,64.2,20z"/>
			<path id="Fill-145" class="st13" d="M62.4,20.7c0,0,0,0.1,0,0.1c0,0,0,0.1,0,0.1c0,0,0,0,0,0c0,0,0,0.1,0,0.1c0,0,0,0,0,0
				c0,0,0,0.1-0.1,0.1c0,0,0,0,0,0c0,0,0,0,0,0c0,0,0.1,0,0.1,0c0.1,0,0.2,0.1,0.4,0.1c0.7,0,1.4-0.6,1.5-1.3
				C63.6,20.6,62.8,20.7,62.4,20.7"/>
			<path id="Stroke-147" class="st14" d="M62.4,20.7c0,0,0,0.1,0,0.1c0,0,0,0.1,0,0.1c0,0,0,0,0,0c0,0,0,0.1,0,0.1c0,0,0,0,0,0
				c0,0,0,0.1-0.1,0.1c0,0,0,0,0,0c0,0,0,0,0,0c0,0,0.1,0,0.1,0c0.1,0,0.2,0.1,0.4,0.1c0.7,0,1.4-0.6,1.5-1.3
				C63.6,20.6,62.8,20.7,62.4,20.7z"/>
			<polygon id="Fill-149" class="st8" points="17,10.3 16.8,7.7 14.7,11.2 13.3,6.7 11,8 9.7,5 11.4,7 13.7,5.6 15,9.6 17.6,5.6 
				17.7,10 22.7,16.1 22.2,16.4 			"/>
			<polygon id="Stroke-151" class="st9" points="17,10.3 16.8,7.7 14.7,11.2 13.3,6.7 11,8 9.7,5 11.4,7 13.7,5.6 15,9.6 17.6,5.6 
				17.7,10 22.7,16.1 22.2,16.4 			"/>
		</g>
	</g>
</g>
</svg>
