<?xml version="1.0" encoding="utf-8"?>
<!-- Generator: Adobe Illustrator 26.3.1, SVG Export Plug-In . SVG Version: 6.00 Build 0)  -->
<svg version="1.1" id="레이어_1" xmlns="http://www.w3.org/2000/svg" xmlns:xlink="http://www.w3.org/1999/xlink" x="0px"
	 y="0px" viewBox="0 0 80 80" style="enable-background:new 0 0 80 80;" xml:space="preserve">
<style type="text/css">
	.st0{fill:#5382A1;}
	.st1{fill:#E76F00;}
	.st2{fill:#4E7896;}
</style>
<g id="java">
	<g id="app_java">
		<g id="Group" transform="translate(22.222222, 4.444444)">
			<path id="Shape" class="st0" d="M11.6,36.9c0,0-1.7,1.1,1.2,1.4c3.6,0.4,5.4,0.4,9.3-0.4c0,0,1,0.7,2.5,1.3
				C15.8,43.2,4.7,39,11.6,36.9 M10.6,31.7c0,0-1.9,1.5,1,1.8c3.8,0.4,6.8,0.4,12-0.6c0,0,0.7,0.8,1.8,1.2
				C14.8,37.4,3,34.4,10.6,31.7"/>
			<path id="Path" class="st1" d="M19.6,22.9c2.2,2.6-0.6,5-0.6,5s5.5-3,3-6.8c-2.4-3.5-4.2-5.2,5.6-11.2
				C27.6,9.9,12.3,14,19.6,22.9"/>
			<path id="Shape_00000124842957140307773470000003293837696543657613_" class="st2" d="M31.2,40.8c0,0,1.3,1.1-1.4,2
				c-5.1,1.6-21.1,2.1-25.6,0.1c-1.6-0.7,1.4-1.8,2.3-2c1-0.2,1.5-0.2,1.5-0.2c-1.8-1.3-11.5,2.6-4.9,3.7
				C21.1,47.4,35.9,43,31.2,40.8 M12.5,26.3c0,0-8.2,2-2.9,2.8c2.2,0.3,6.7,0.2,10.8-0.1c3.4-0.3,6.8-0.9,6.8-0.9s-1.2,0.5-2.1,1.2
				c-8.3,2.3-24.3,1.2-19.7-1.1C9.3,26.1,12.5,26.3,12.5,26.3 M27.1,35c8.4-4.6,4.5-9.1,1.8-8.5c-0.7,0.1-1,0.3-1,0.3
				s0.2-0.4,0.7-0.6c5.4-2,9.5,5.9-1.7,9C26.9,35.2,27.1,35.1,27.1,35"/>
			<path id="Path_00000152254870201861432990000004555568343312807571_" class="st1" d="M22,0.2c0,0,4.7,4.9-4.4,12.5
				c-7.3,6.1-1.7,9.6,0,13.5c-4.3-4.1-7.4-7.6-5.3-10.9C15.4,10.4,23.9,8.1,22,0.2"/>
			<path id="Path_00000104692535025533568310000006573714801962785446_" class="st0" d="M13.3,47.5c8.1,0.5,20.5-0.3,20.8-4.3
				c0,0-0.6,1.5-6.7,2.7c-6.9,1.4-15.4,1.2-20.5,0.3C6.9,46.3,8,47.2,13.3,47.5"/>
			<path id="Shape_00000096747120425218889750000000875162821162705044_" class="st2" d="M14.1,65.5v-7.8c0-2-1.1-3.3-3.7-3.3
				c-1.5,0-2.8,0.4-3.9,0.9l0.3,1.4c0.8-0.3,1.9-0.6,3-0.6c1.5,0,2.1,0.6,2.1,1.9v1h-0.7C7.6,59,6,60.5,6,62.7c0,1.9,1.1,3,3.1,3
				c1.3,0,2.3-0.6,3.2-1.4l0.2,1.2L14.1,65.5L14.1,65.5z M12,63c-0.8,0.7-1.6,1.1-2.3,1.1c-1,0-1.6-0.7-1.6-1.7c0-1.1,0.6-2,3-2H12
				V63L12,63z M21.1,65.5h-2.6l-3.2-10.9h2.3l2,6.7l0.4,2c1-2.9,1.7-5.8,2-8.7h2.2C23.7,58.2,22.6,62.1,21.1,65.5L21.1,65.5z
				 M33.3,65.5v-7.8c0-2-1.1-3.3-3.7-3.3c-1.5,0-2.8,0.4-3.9,0.9l0.3,1.4c0.8-0.3,1.9-0.6,3-0.6c1.5,0,2.1,0.6,2.1,1.9v1h-0.7
				c-3.6,0-5.2,1.5-5.2,3.7c0,1.9,1.1,3,3.1,3c1.3,0,2.3-0.6,3.2-1.4l0.2,1.2L33.3,65.5L33.3,65.5z M31.2,63
				c-0.8,0.7-1.6,1.1-2.3,1.1c-1,0-1.6-0.7-1.6-1.7c0-1.1,0.6-2,3-2h0.9V63L31.2,63z M3.7,67.3C3.1,68.3,2.1,69,1,69.4l-1-1.3
				c0.8-0.4,1.5-1.1,1.8-1.8c0.3-0.6,0.4-1.3,0.4-3.1V50.8h2.2V63C4.5,65.4,4.3,66.4,3.7,67.3L3.7,67.3z"/>
		</g>
	</g>
</g>
</svg>
