<?xml version="1.0" encoding="utf-8"?>
<!-- Generator: Adobe Illustrator 26.3.1, SVG Export Plug-In . SVG Version: 6.00 Build 0)  -->
<svg version="1.1" id="레이어_1" xmlns="http://www.w3.org/2000/svg" xmlns:xlink="http://www.w3.org/1999/xlink" x="0px"
	 y="0px" viewBox="0 0 80 80" style="enable-background:new 0 0 80 80;" xml:space="preserve">
<style type="text/css">
	.st0{fill-rule:evenodd;clip-rule:evenodd;fill:#CC0000;}
	.st1{fill-rule:evenodd;clip-rule:evenodd;fill:#61615C;}
</style>
<g id="jboss">
	<g id="Group-20" transform="translate(0.000000, 19.000000)">
		<path id="Fill-1" class="st0" d="M36.9,25.6h-3.6v-4h3.6c1.4,0,2.5,0.5,2.5,2.1C39.3,25.1,38.3,25.6,36.9,25.6L36.9,25.6z
			 M33.2,15.3h3.5c1,0,1.9,0.4,1.9,1.7c0,1.3-1.1,1.7-1.9,1.7h-3.5V15.3z M40.9,19.7c1.4-0.7,2.3-2,2.3-3.5c0-3.7-3.3-4.5-6.3-4.4
			h-8.1h0h-4.5v11.7c0,1.7-0.6,2.3-1.6,2.3c-1.1,0-1.8-0.6-1.8-1.8v-1.6h-4.3V23c0,3.9,1.5,6.6,6.1,6.6c3.8,0,5.8-1.7,6.1-5v4.6h8.4
			c3.7,0,6.8-1.3,6.8-5.5C43.9,21.8,42.7,20.2,40.9,19.7L40.9,19.7z"/>
		<path id="Combined-Shape" class="st0" d="M29.2,36.4c3,0,5.4,2.4,5.4,5.4c0,3-2.4,5.4-5.4,5.4c-3,0-5.4-2.4-5.4-5.4
			C23.9,38.8,26.3,36.4,29.2,36.4z M15.6,35.3c2.6,0,4.7,2.1,4.7,4.8c0,2.6-2.1,4.8-4.7,4.8s-4.7-2.1-4.7-4.8
			C10.9,37.4,13,35.3,15.6,35.3z M5.4,27.2c2.4,0,4.3,1.9,4.3,4.3c0,2.4-1.9,4.3-4.3,4.3c-2.4,0-4.3-1.9-4.3-4.3
			C1.1,29.1,3,27.2,5.4,27.2z M3.8,23.3c-2.1,0-3.8-1.7-3.8-3.8c0-2.1,1.7-3.8,3.8-3.8c2.1,0,3.8,1.7,3.8,3.8
			C7.6,21.6,5.9,23.3,3.8,23.3z M13,8.8c0,1.8-1.4,3.2-3.2,3.2C8,12,6.6,10.5,6.6,8.8C6.6,7,8,5.5,9.8,5.5C11.6,5.5,13,7,13,8.8z
			 M19.3,6.9c-1.6,0-2.9-1.3-2.9-2.9c0-1.6,1.3-2.9,2.9-2.9c1.6,0,2.9,1.3,2.9,2.9C22.2,5.6,20.9,6.9,19.3,6.9z M29.4,4.9
			c-1.4,0-2.4-1.1-2.4-2.5C26.9,1.1,28,0,29.4,0c1.4,0,2.4,1.1,2.4,2.5C31.8,3.8,30.7,4.9,29.4,4.9z"/>
		<path id="Fill-17" class="st1" d="M73.8,26.9c-0.6,0-1.2-0.1-1.5-0.4c-0.4-0.3-0.7-0.8-0.7-1.4h-3.4c0-1.1-0.7-2.9-3.2-3.4
			c-1.9-0.4-4.7-0.6-4.7-1.8c0-0.9,1.2-1,1.9-1c0.5,0,1,0.1,1.3,0.3c0.3,0.2,0.5,0.6,0.5,1.1h3.7c0.1,3.2,3.5,3.3,6,4
			c0.7,0.2,2,0.4,2,1.4C75.8,26.6,74.6,26.9,73.8,26.9 M62.1,26.9c-0.6,0-1.2-0.1-1.5-0.4c-0.4-0.3-0.7-0.8-0.7-1.4h-3.6
			c0.2-0.7,0.3-1.4,0.3-2.2c0-0.4,0-0.7-0.1-1c1,1.7,3.4,1.8,5.5,2.4c0.7,0.2,2,0.4,2,1.4C64,26.6,62.9,26.9,62.1,26.9 M49.9,26.4
			c-1.9,0-2.5-1.9-2.5-3.5c0-1.6,0.6-3.6,2.5-3.6c1.9,0,2.5,1.9,2.5,3.6C52.4,24.5,51.8,26.4,49.9,26.4 M76.7,21.6
			c-1.9-0.4-4.8-0.6-4.8-1.8c0-0.9,1.1-1,1.8-1c0.5,0,1,0.1,1.3,0.3c0.3,0.2,0.5,0.6,0.5,1.1h3.8c-0.1-3.3-3.1-4.1-5.9-4.1
			c-2.3,0-5.3,0.7-5.8,3.3c-0.6-2.6-3.2-3.3-5.7-3.3c-2.5,0-5.9,0.8-5.9,3.9c0,0.1,0,0.1,0,0.2c-1-2.4-3.3-4.1-6.2-4.1
			c-3.2,0-5.6,1.9-6.4,4.6c0.6,0.8,0.9,1.9,0.9,3c0,0.9-0.1,1.8-0.4,2.5c1.1,2,3.2,3.3,5.9,3.3c2.8,0,5-1.5,6.1-3.7
			c0.5,2.9,3.4,3.7,6.1,3.7c2.4,0,5-0.8,5.8-3c0.9,2.3,3.4,3,5.9,3c2.9,0,6.1-1.1,6.1-4.5C79.9,24,79.3,22.2,76.7,21.6"/>
	</g>
</g>
</svg>
