<?xml version="1.0" encoding="utf-8"?>
<!-- Generator: Adobe Illustrator 26.3.1, SVG Export Plug-In . SVG Version: 6.00 Build 0)  -->
<svg version="1.1" id="레이어_1" xmlns="http://www.w3.org/2000/svg" xmlns:xlink="http://www.w3.org/1999/xlink" x="0px"
	 y="0px" viewBox="0 0 80 80" style="enable-background:new 0 0 80 80;" xml:space="preserve">
<style type="text/css">
	.st0{fill-rule:evenodd;clip-rule:evenodd;}
	.st1{fill-rule:evenodd;clip-rule:evenodd;fill:#FC390E;}
</style>
<g id="jetty">
	<g id="Group-16" transform="translate(0.000000, 31.000000)">
		<path id="Fill-1" class="st0" d="M43.5,11.3c-0.1,0-0.1,0-0.2,0c-1.5,0-2.7,0-3.2-0.1c0-0.1,0-0.2,0.1-0.3L41.1,7h3.4L43.5,11.3z
			 M15.6,7.4C15.8,7,16,7,16.3,7c0.2,0,0.4,0,0.4,0c0,0,0,0.1,0,0.3H15.6z M59.3,3.9c-0.1-0.2-0.4-0.3-0.6-0.3h-5
			c-0.4,0-0.7,0.2-0.7,0.6l-1.6,7.1h-1.4l1.6-6.7c0.1-0.2,0-0.5-0.1-0.6c-0.1-0.2-0.4-0.3-0.6-0.3h-5c-0.1,0-0.3,0-0.4,0.1
			c-0.1-0.1-0.2-0.1-0.4-0.1h-3.2l0.3-1.2c0.1-0.2,0-0.5-0.1-0.6c-0.1-0.2-0.4-0.3-0.6-0.3h-5c-0.4,0-0.7,0.2-0.7,0.6l-0.4,1.5h-4
			l0.3-1.2c0.1-0.2,0-0.5-0.1-0.6c-0.1-0.2-0.4-0.3-0.6-0.3h-5c-0.4,0-0.7,0.2-0.7,0.6l-0.4,1.5h-1.2c-0.4,0-0.7,0.2-0.7,0.6
			l-0.1,0.5c-0.6-0.7-1.5-1.1-2.6-1.1h-8.1c-0.6,0-1.3,0.2-1.8,0.7C10.1,4.5,9.9,4.7,9.8,5l0.1-0.4c0-0.2,0-0.3,0-0.5
			C9.9,4,10,3.8,10.1,3.7L10.7,1c0.1-0.2,0-0.5-0.1-0.6c-0.1-0.2-0.4-0.3-0.6-0.3h-5c-0.4,0-0.7,0.2-0.7,0.6L3.6,3.3
			c0,0.2,0,0.3,0,0.5C3.5,3.9,3.4,4,3.4,4.2L1,14.6c0,0-0.1,0-0.1,0l-0.1,0c-0.4,0-0.7,0.3-0.7,0.7L0,17.8c0,0.2,0.1,0.4,0.2,0.5
			c0.1,0.1,0.3,0.2,0.5,0.2h0l4.1,0c0,0,0,0,0,0c0.6,0,1.1-0.2,1.5-0.6c0.4-0.3,0.6-0.8,0.8-1.5c0,0,0,0,0,0l0.9-4
			c0,0.7,0.2,1.2,0.5,1.7c0.4,0.6,1.1,0.8,2,0.8h10.3c0.4,0,0.7-0.2,0.7-0.6l0.5-2.1c0.1-0.2,0-0.5-0.1-0.6
			c-0.1-0.2-0.4-0.3-0.6-0.3h-6.8l0.1-0.3h7.1c0.4,0,0.7-0.2,0.7-0.6c0-0.1,0.1-0.2,0.1-0.4c0.2-0.5,0.5-1.4,0.7-3h0.7l-0.8,3.6
			c-0.2,0.9-0.2,2.2,0.6,3.1c0.4,0.5,1.2,1.1,2.6,1.1h6c0.4,0,0.7-0.2,0.7-0.6l0.5-2.1c0.1-0.2,0-0.5-0.1-0.6
			c-0.1-0.2-0.4-0.3-0.6-0.3c-1.5,0-2.7,0-3.2-0.1c0-0.1,0-0.2,0.1-0.3L30.6,7h4l-0.8,3.6c-0.2,0.9-0.2,2.2,0.6,3.1
			c0.4,0.5,1.2,1.1,2.6,1.1h6c0.4,0,0.7-0.2,0.7-0.6l0.1-0.6c0,0,0.1,0.1,0.1,0.1c0.5,0.7,1.5,1,2.7,1h3.3c-0.4,0.1-0.9,0.1-1.6,0.1
			h-5c-0.4,0-0.7,0.2-0.7,0.6l-0.4,1.9c-0.1,0.2,0,0.5,0.1,0.6c0.1,0.2,0.4,0.3,0.6,0.3h7.9c1.9,0,3.2,0,4.1-0.3
			c1.1-0.3,1.7-1,2-2.3l2.6-11.3C59.5,4.3,59.5,4.1,59.3,3.9L59.3,3.9z"/>
		<path id="Fill-4" class="st0" d="M74.2,0.4c-0.1-0.2-0.4-0.3-0.6-0.3H71c-0.3,0-0.6,0.2-0.7,0.4l-5.9,12.6l0.6-2.6
			c0.1-0.2,0-0.5-0.1-0.6c-0.1-0.2-0.4-0.3-0.6-0.3h-5c-0.4,0-0.7,0.2-0.7,0.6L57.7,14c-0.1,0.2,0,0.5,0.1,0.6
			c0.1,0.2,0.4,0.3,0.6,0.3h5c0.1,0,0.1,0,0.2,0l-0.3,0.5c-0.1,0.2-0.1,0.5,0,0.7c0.1,0.2,0.4,0.3,0.6,0.3h2.5
			c0.3,0,0.6-0.2,0.7-0.4l6.9-14.9C74.4,0.9,74.4,0.6,74.2,0.4"/>
		<path id="Fill-7" class="st0" d="M59.2,8.6c0.1,0.2,0.4,0.3,0.6,0.3h5c0.4,0,0.7-0.2,0.7-0.6l0.9-3.7c0.1-0.2,0-0.5-0.1-0.6
			c-0.1-0.2-0.4-0.3-0.6-0.3h-5c-0.4,0-0.7,0.2-0.7,0.6L59.1,8C59,8.2,59.1,8.4,59.2,8.6"/>
		<path id="Fill-9" class="st0" d="M79.9,0.4c-0.1-0.2-0.4-0.3-0.6-0.3h-2.5c-0.3,0-0.6,0.2-0.7,0.4L69,15.4c-0.1,0.2-0.1,0.5,0,0.7
			c0.1,0.2,0.4,0.3,0.6,0.3h2.5c0.3,0,0.6-0.2,0.7-0.4l6.9-14.9C80,0.9,80,0.6,79.9,0.4"/>
		<path id="Fill-12" class="st1" d="M76.7,0.8l-6.9,14.9h2.5l6.9-14.9H76.7z M71,0.8l-6.9,14.9h2.5l6.9-14.9H71z M59.3,10.4
			l-0.9,3.7h5l0.9-3.7H59.3z M60.7,4.4l-0.9,3.7h5l0.9-3.7H60.7z M45.8,4.4L44.1,12c0,0-0.5,2.1,2.5,2.1h5c-0.2,1.1-0.4,1.6-3.3,1.6
			h-5l-0.4,1.9h7.9c3.7,0,5,0,5.4-1.9l2.6-11.3h-5L52,12h-2.9l1.8-7.7H45.8z M16.3,6.3c1.1,0,1.4,0.3,1,1.8h-2.7
			C14.9,6.7,15.4,6.3,16.3,6.3L16.3,6.3z M12.1,4.4c-0.9,0-1.9,0.7-2.1,1.9l-1,3.9c-0.6,2.4-0.3,3.9,1.6,3.9h10.3l0.5-2.1h-7.7
			l0.4-1.8h7.7c0.1-0.5,0.6-1.3,0.9-3.9c0.1-0.3-0.5-1.9-2.5-1.9H12.1z M4.9,0.8L4.3,3.5h5L10,0.8H4.9z M4.1,4.4L1.7,14.9
			c-0.1,0.4-0.4,0.4-0.9,0.4l-0.1,2.4l4.1,0c0.8,0,1.3-0.5,1.6-1.6L9.1,4.4H4.1z M25.9,2.3l-0.5,2.1h-1.8l-0.4,1.9H25l-1.1,4.6
			c-0.3,1.2-0.1,3.3,2.4,3.3h6l0.5-2.1c-4.1,0-4.1,0-3.8-1.3l1-4.4h3.8h0.4h1.4l-1.1,4.6c-0.3,1.2-0.1,3.3,2.4,3.3h6l0.5-2.1
			c-4.1,0-4.1,0-3.8-1.3l1-4.4h4.1l0.4-1.9h-4.1l0.5-2.1h-5L36,4.4h-1.4h-0.4h-3.8l0.5-2.1H25.9z"/>
		<path id="Fill-14" class="st1" d="M76.7,0.8l-6.9,14.9h2.5l6.9-14.9H76.7z M71,0.8l-6.9,14.9h2.5l6.9-14.9H71z M59.3,10.4
			l-0.9,3.7h5l0.9-3.7H59.3z M60.7,4.4l-0.9,3.7h5l0.9-3.7H60.7z M45.8,4.4L44.1,12c0,0-0.5,2.1,2.5,2.1h5c-0.2,1.1-0.4,1.6-3.3,1.6
			h-5l-0.4,1.9h7.9c3.7,0,5,0,5.4-1.9l2.6-11.3h-5L52,12h-2.9l1.8-7.7H45.8z M16.3,6.3c1.1,0,1.4,0.3,1,1.8h-2.7
			C14.9,6.7,15.4,6.3,16.3,6.3L16.3,6.3z M12.1,4.4c-0.9,0-1.9,0.7-2.1,1.9l-1,3.9c-0.6,2.4-0.3,3.9,1.6,3.9h10.3l0.5-2.1h-7.7
			l0.4-1.8h7.7c0.1-0.5,0.6-1.3,0.9-3.9c0.1-0.3-0.5-1.9-2.5-1.9H12.1z M4.9,0.8L4.3,3.5h5L10,0.8H4.9z M4.1,4.4L1.7,14.9
			c-0.1,0.4-0.4,0.4-0.9,0.4l-0.1,2.4l4.1,0c0.8,0,1.3-0.5,1.6-1.6L9.1,4.4H4.1z M25.9,2.3l-0.5,2.1h-1.8l-0.4,1.9H25l-1.1,4.6
			c-0.3,1.2-0.1,3.3,2.4,3.3h6l0.5-2.1c-4.1,0-4.1,0-3.8-1.3l1-4.4h3.8h0.4h1.4l-1.1,4.6c-0.3,1.2-0.1,3.3,2.4,3.3h6l0.5-2.1
			c-4.1,0-4.1,0-3.8-1.3l1-4.4h4.1l0.4-1.9h-4.1l0.5-2.1h-5L36,4.4h-1.4h-0.4h-3.8l0.5-2.1H25.9z"/>
	</g>
</g>
</svg>
