<?xml version="1.0" encoding="utf-8"?>
<!-- Generator: Adobe Illustrator 26.3.1, SVG Export Plug-In . SVG Version: 6.00 Build 0)  -->
<svg version="1.1" id="레이어_1" xmlns="http://www.w3.org/2000/svg" xmlns:xlink="http://www.w3.org/1999/xlink" x="0px"
	 y="0px" viewBox="0 0 80 80" style="enable-background:new 0 0 80 80;" xml:space="preserve">
<style type="text/css">
	.st0{fill-rule:evenodd;clip-rule:evenodd;fill:#FC390E;}
</style>
<g id="jetty">
	<g id="Group-16" transform="translate(0.000000, 31.000000)">
		<path id="Fill-12" class="st0" d="M76.7,0.8l-6.9,14.9h2.5l6.9-14.9C79.2,0.8,76.7,0.8,76.7,0.8z M71,0.8l-6.9,14.9h2.5l6.9-14.9
			C73.5,0.8,71,0.8,71,0.8z M59.3,10.4l-0.9,3.7h5l0.9-3.7H59.3z M60.7,4.4l-0.9,3.7h5l0.9-3.7C65.7,4.4,60.7,4.4,60.7,4.4z
			 M45.8,4.4L44.1,12c0,0-0.5,2.1,2.5,2.1h5c-0.2,1.1-0.4,1.6-3.3,1.6h-5l-0.4,1.9h7.9c3.7,0,5,0,5.4-1.9l2.6-11.3h-5L52,12h-2.9
			l1.8-7.7L45.8,4.4L45.8,4.4z M16.3,6.3c1.1,0,1.4,0.3,1,1.8h-2.7C14.9,6.7,15.4,6.3,16.3,6.3L16.3,6.3z M12.1,4.4
			c-0.9,0-1.9,0.7-2.1,1.9l-1,3.9c-0.6,2.4-0.3,3.9,1.6,3.9h10.3l0.5-2.1h-7.7l0.4-1.8h7.7c0.1-0.5,0.6-1.3,0.9-3.9
			c0.1-0.3-0.5-1.9-2.5-1.9C20.2,4.4,12.1,4.4,12.1,4.4z M4.9,0.8L4.3,3.5h5L10,0.8H4.9z M4.1,4.4L1.7,14.9
			c-0.1,0.4-0.4,0.4-0.9,0.4l-0.1,2.4h4.1c0.8,0,1.3-0.5,1.6-1.6L9.1,4.4H4.1z M25.9,2.3l-0.5,2.1h-1.8l-0.4,1.9H25l-1.1,4.6
			c-0.3,1.2-0.1,3.3,2.4,3.3h6l0.5-2.1c-4.1,0-4.1,0-3.8-1.3l1-4.4h3.8h0.4h1.4L34.5,11c-0.3,1.2-0.1,3.3,2.4,3.3h6l0.5-2.1
			c-4.1,0-4.1,0-3.8-1.3l1-4.4h4.1l0.4-1.9H41l0.5-2.1h-5L36,4.4h-1.4h-0.4h-3.8l0.5-2.1C30.9,2.3,25.9,2.3,25.9,2.3z"/>
		<path id="Fill-14" class="st0" d="M76.7,0.8l-6.9,14.9h2.5l6.9-14.9C79.2,0.8,76.7,0.8,76.7,0.8z M71,0.8l-6.9,14.9h2.5l6.9-14.9
			C73.5,0.8,71,0.8,71,0.8z M59.3,10.4l-0.9,3.7h5l0.9-3.7H59.3z M60.7,4.4l-0.9,3.7h5l0.9-3.7C65.7,4.4,60.7,4.4,60.7,4.4z
			 M45.8,4.4L44.1,12c0,0-0.5,2.1,2.5,2.1h5c-0.2,1.1-0.4,1.6-3.3,1.6h-5l-0.4,1.9h7.9c3.7,0,5,0,5.4-1.9l2.6-11.3h-5L52,12h-2.9
			l1.8-7.7L45.8,4.4L45.8,4.4z M16.3,6.3c1.1,0,1.4,0.3,1,1.8h-2.7C14.9,6.7,15.4,6.3,16.3,6.3L16.3,6.3z M12.1,4.4
			c-0.9,0-1.9,0.7-2.1,1.9l-1,3.9c-0.6,2.4-0.3,3.9,1.6,3.9h10.3l0.5-2.1h-7.7l0.4-1.8h7.7c0.1-0.5,0.6-1.3,0.9-3.9
			c0.1-0.3-0.5-1.9-2.5-1.9C20.2,4.4,12.1,4.4,12.1,4.4z M4.9,0.8L4.3,3.5h5L10,0.8H4.9z M4.1,4.4L1.7,14.9
			c-0.1,0.4-0.4,0.4-0.9,0.4l-0.1,2.4h4.1c0.8,0,1.3-0.5,1.6-1.6L9.1,4.4H4.1z M25.9,2.3l-0.5,2.1h-1.8l-0.4,1.9H25l-1.1,4.6
			c-0.3,1.2-0.1,3.3,2.4,3.3h6l0.5-2.1c-4.1,0-4.1,0-3.8-1.3l1-4.4h3.8h0.4h1.4L34.5,11c-0.3,1.2-0.1,3.3,2.4,3.3h6l0.5-2.1
			c-4.1,0-4.1,0-3.8-1.3l1-4.4h4.1l0.4-1.9H41l0.5-2.1h-5L36,4.4h-1.4h-0.4h-3.8l0.5-2.1C30.9,2.3,25.9,2.3,25.9,2.3z"/>
	</g>
</g>
</svg>
