<?xml version="1.0" encoding="utf-8"?>
<!-- Generator: Adobe Illustrator 26.3.1, SVG Export Plug-In . SVG Version: 6.00 Build 0)  -->
<svg version="1.1" id="레이어_1" xmlns="http://www.w3.org/2000/svg" xmlns:xlink="http://www.w3.org/1999/xlink" x="0px"
	 y="0px" viewBox="0 0 80 80" style="enable-background:new 0 0 80 80;" xml:space="preserve">
<style type="text/css">
	.st0{fill-rule:evenodd;clip-rule:evenodd;fill:#231F20;}
</style>
<g id="jeus">
	<g id="Group-7" transform="translate(8.000000, 23.000000)">
		<path id="Combined-Shape" class="st0" d="M49.3,31.3l1-4.6c0.5,0.6,1,1.1,1.7,1.4c0.6,0.4,1.4,0.5,2.2,0.5c1.5,0,2.3-0.7,2.3-2.1
			c0-0.5-0.2-1-0.6-1.4c-0.4-0.5-0.9-0.9-1.4-1.3c-1.1-0.8-1.9-1.6-2.4-2.4c-0.5-0.8-0.8-1.6-0.8-2.5c0-0.9,0.2-1.8,0.6-2.6
			c0.4-0.8,1-1.6,1.7-2.2c0.7-0.6,1.6-1.1,2.6-1.5c1-0.4,2-0.6,3.2-0.6c0.9,0,1.7,0.1,2.5,0.4c0.8,0.2,1.5,0.6,2.2,1.2L63,18
			c-0.4-0.5-0.9-0.9-1.4-1.2c-0.5-0.3-1.1-0.4-1.8-0.4c-0.8,0-1.3,0.2-1.7,0.6c-0.3,0.4-0.5,0.9-0.5,1.5c0,0.6,0.2,1.2,0.6,1.5
			c0.4,0.4,0.8,0.8,1.4,1.3c0.4,0.4,0.8,0.7,1.2,1.1c0.3,0.3,0.6,0.7,0.9,1.1c0.2,0.4,0.4,0.8,0.6,1.2c0.1,0.4,0.2,1,0.2,1.5
			c0,0.8-0.2,1.6-0.5,2.4c-0.4,0.8-0.9,1.5-1.6,2.1c-0.7,0.6-1.5,1.1-2.5,1.5c-1,0.4-2.1,0.6-3.4,0.6c-1,0-2-0.1-2.8-0.4
			C50.9,32.3,50.1,31.9,49.3,31.3L49.3,31.3z M47.6,25c-0.2,1.5-0.5,2.6-0.8,3.5c-0.3,0.9-0.8,1.6-1.4,2.3c-0.5,0.5-1,0.9-1.6,1.2
			c-0.6,0.3-1.2,0.6-1.8,0.8c-0.6,0.2-1.2,0.3-1.8,0.4c-0.6,0.1-1.1,0.1-1.6,0.1c-0.2,0-0.6,0-1,0c-0.5,0-1-0.1-1.5-0.2
			c-0.5-0.1-1.1-0.3-1.6-0.5c-0.6-0.2-1.1-0.5-1.6-0.8c-0.2-0.1-0.5-0.3-0.7-0.6c-0.2-0.3-0.5-0.6-0.6-1c-0.2-0.4-0.4-0.8-0.5-1.3
			c-0.1-0.5-0.2-1-0.2-1.6c0-0.2,0-0.5,0-0.9c0-0.4,0.1-0.8,0.2-1.3l2.1-12.7h6.2l-2.1,12.7c0,0.1-0.1,0.3-0.1,0.6
			c0,0.4-0.1,0.7-0.1,0.9c0,0.4,0.1,0.7,0.2,0.9c0.2,0.3,0.4,0.5,0.6,0.6c0.3,0.2,0.5,0.3,0.8,0.4c0.3,0.1,0.6,0.1,0.9,0.1
			c0.6,0,1.1-0.1,1.5-0.3c0.4-0.2,0.7-0.5,0.9-0.8c0.2-0.3,0.4-0.7,0.5-1.1c0.1-0.4,0.2-0.8,0.2-1.2l2.1-12.9h4.9L47.6,25L47.6,25z
			 M27.4,32.9H13.5l3.4-20.5h13.5l-0.8,4.5h-7.6l-0.5,3.2H29l-0.7,4.5h-7.4l-0.6,3.6h8L27.4,32.9z M12,25.9
			c-0.1,0.9-0.3,1.7-0.5,2.6c-0.2,0.9-0.6,1.7-1.2,2.4C9.8,31.6,9,32.2,8,32.6c-1,0.4-2.4,0.7-4.2,0.7c-0.4,0-0.8,0-1.2,0
			c-0.3,0-0.6,0-1-0.1c-0.3,0-0.6-0.1-0.8-0.1c-0.3,0-0.5-0.1-0.8-0.2l0.8-4.7c0.3,0.1,0.7,0.1,1.1,0.2c0.4,0.1,0.8,0.1,1.2,0.1
			c0.1,0,0.3,0,0.5,0c0.2,0,0.5-0.1,0.7-0.2C4.6,28.1,4.8,28,5,27.8c0.2-0.2,0.4-0.4,0.5-0.6c0.1-0.2,0.2-0.3,0.2-0.4
			c0.1-0.1,0.1-0.3,0.2-0.5c0-0.2,0.1-0.5,0.2-0.8c0.1-0.3,0.1-0.8,0.2-1.4l1.9-11.6h6L12,25.9z M29.3,5.2l1.4,3.3h-2.2l-0.8-2
			l-1.2,2h-1.7l2.2-3.4l-1.1-2.8H28l0.6,1.5l1-1.5h1.7L29.3,5.2z M20.1,3c0.1-0.1,0.3-0.2,0.5-0.3c0.2-0.1,0.4-0.2,0.6-0.2
			c0.2-0.1,0.4-0.1,0.6-0.2c0.2,0,0.4-0.1,0.6-0.1c0.3,0,0.6,0,0.9,0.1c0.3,0.1,0.5,0.2,0.7,0.3c0.2,0.2,0.3,0.4,0.4,0.7
			c0.1,0.3,0.1,0.7,0,1.1l-0.3,2.3c0,0.2,0,0.4,0.1,0.4c0.1,0,0.1,0.1,0.2,0.1c0.1,0,0.1,0,0.2-0.1l-0.4,1.6c-0.1,0-0.3,0.1-0.4,0.1
			c-0.2,0-0.3,0-0.5,0c-0.6,0-1-0.3-1.3-0.8c-0.2,0.3-0.4,0.5-0.7,0.6c-0.3,0.2-0.6,0.2-0.9,0.2c-0.2,0-0.5,0-0.7-0.1
			c-0.2,0-0.4-0.1-0.5-0.3C19.2,8.4,19.1,8.2,19,8c-0.1-0.2-0.1-0.5-0.1-0.8c0-0.2,0-0.4,0.1-0.6c0.1-0.2,0.1-0.4,0.3-0.6
			c0.1-0.2,0.3-0.4,0.5-0.5c0.2-0.2,0.4-0.3,0.7-0.4c0.3-0.1,0.7-0.2,1-0.3c0.4-0.1,0.7-0.1,1.1-0.1l0-0.3c0-0.2,0-0.3-0.2-0.4
			c-0.1-0.1-0.3-0.1-0.5-0.1c-0.4,0-0.8,0.1-1.1,0.2c-0.3,0.1-0.6,0.3-0.9,0.4L20.1,3z M21.4,7.4c0.3,0,0.5-0.1,0.6-0.2l0.2-1.4
			c-0.2,0-0.3,0.1-0.4,0.1C21.7,6,21.6,6,21.5,6.1c-0.1,0.1-0.2,0.2-0.3,0.3c-0.1,0.1-0.1,0.3-0.1,0.4c0,0.2,0,0.4,0.1,0.4
			C21.2,7.4,21.3,7.4,21.4,7.4z M12.4,2.5L12.3,3c0.2-0.2,0.4-0.4,0.6-0.5c0.3-0.1,0.6-0.2,1-0.2c0.4,0,0.7,0.1,0.9,0.3
			c0.2,0.2,0.4,0.4,0.5,0.6c0.1-0.1,0.1-0.2,0.2-0.3c0.1-0.1,0.2-0.2,0.3-0.3c0.1-0.1,0.3-0.2,0.4-0.2c0.2-0.1,0.4-0.1,0.6-0.1
			c0.5,0,0.9,0.2,1.2,0.5c0.3,0.3,0.4,0.7,0.4,1.3c0,0.1,0,0.2,0,0.3c0,0.1,0,0.2,0,0.3l-0.6,4.2h-2.1L16.4,5c0-0.1,0-0.1,0-0.2
			c0-0.1,0-0.2,0-0.2c0-0.1,0-0.2-0.1-0.4C16.3,4,16.2,4,16,4c-0.1,0-0.2,0-0.3,0.1c-0.1,0.1-0.2,0.2-0.3,0.3l-0.6,4.4h-2L13.3,5
			c0-0.1,0-0.2,0-0.2c0-0.1,0-0.2,0-0.2c0-0.1,0-0.2-0.1-0.3c0-0.1-0.1-0.1-0.1-0.2C13.1,4,13,4,13,4c0,0-0.1,0-0.1,0
			c-0.1,0-0.2,0-0.3,0.1c-0.1,0.1-0.2,0.2-0.3,0.3l-0.7,4.6h-2l0.9-6.4H12.4z M7.1,8.5H4.6l1.1-6.6H3.9L4.2,0h6.2l-0.3,1.9H8.2
			L7.1,8.5z"/>
	</g>
</g>
</svg>
