<?xml version="1.0" encoding="utf-8"?>
<!-- Generator: Adobe Illustrator 26.3.1, SVG Export Plug-In . SVG Version: 6.00 Build 0)  -->
<svg version="1.1" id="레이어_1" xmlns="http://www.w3.org/2000/svg" xmlns:xlink="http://www.w3.org/1999/xlink" x="0px"
	 y="0px" viewBox="0 0 80 80" style="enable-background:new 0 0 80 80;" xml:space="preserve">
<style type="text/css">
	.st0{fill-rule:evenodd;clip-rule:evenodd;fill:#222222;}
</style>
<g id="koa">
	<g id="akka">
		<path id="koa_logo" class="st0" d="M14,26h3v17.8l8-8.9l0.5,0.5l-5.9,6.7l8,11.7h-3.1L17.7,44L17,44.9v8.9h-3V26z M55.6,54
			c-2.8,0-4.7-1.4-5.3-3.7c-0.3-1.4-0.2-2.5,0.3-3.3c0.6-0.8,1.6-1.4,3-1.7c2.2-0.5,4.5-0.6,6.8-0.6l0.8,0c0-0.6,0-1.2,0-1.8
			c0-1,0-1.9,0-2.9c0-0.1,0-0.3,0-0.4c0-1.1,0-2.2-0.9-3c-0.7-0.5-1.6-0.8-2.8-0.8c-0.4,0-0.8,0-1.3,0.1c-1.4,0.2-2.9,0.6-4.3,1.2
			l-0.2,0.1l-0.3-0.6l0.2-0.1c2.1-0.9,4.3-1.4,6.6-1.4c0.2,0,0.4,0,0.7,0c1.6,0.1,3.9,0.4,4.9,2.2c0.4,0.8,0.4,1.7,0.4,2.6
			c0,0,0,1.2,0,2.1c0,2.6,0,6.9,0,8.6l0,0.1c0,0.7,0,1.7,0.5,2.2c0.4,0.4,1,0.4,1.6,0.4c0.1,0,0.3,0,0.4,0c0.1,0,0.3,0.1,0.3,0.3
			l0,0.2l-0.2,0.1c-0.1,0.1-0.4,0.2-1.1,0.2h0c-0.3,0-0.5,0-0.7,0c-0.6,0-1.3-0.1-2-0.4c-1.2-0.4-1.6-1.3-1.9-2.2
			c-0.6,0.8-1.3,1.5-2.3,2C58,53.8,56.9,54,55.6,54L55.6,54z M59.1,45.3c-1.4,0-2.8,0.1-4.2,0.6c-1.8,0.7-2,2.8-1.6,4.5
			c0.2,1,0.9,2.7,2.9,2.7c0.1,0,0.2,0,0.3,0c1.6-0.1,3-1,4.1-2.4c0.5-0.7,0.5-1.5,0.5-2.4l0-0.2c0-0.7,0-1.4,0-2.1l0-0.8
			c-0.3,0-0.6,0-0.9,0C59.8,45.4,59.4,45.3,59.1,45.3z M47.4,41c0.5,2,0.5,4.1,0,6c-1,4.1-3.8,6.6-7.8,7c-0.4,0-0.8,0.1-1.1,0.1h0
			c-2.5,0-4.7-0.8-6.2-2.4c-1.7-1.7-2.6-4.2-2.6-7c0.1-5.6,3.6-9.4,8.9-9.6c0.1,0,0.3,0,0.4,0c2.6,0,4.9,0.9,6.5,2.4
			C46.4,38.3,47,39.5,47.4,41z M44.6,46c0.9-6-1.6-9.7-5-10.3c-3-0.5-6.1,1.7-6.9,7.1c-0.8,5.3,1.3,9.7,5.1,10.4
			C41,53.7,43.8,51.6,44.6,46z"/>
	</g>
</g>
</svg>
