<?xml version="1.0" encoding="utf-8"?>
<!-- Generator: Adobe Illustrator 26.3.1, SVG Export Plug-In . SVG Version: 6.00 Build 0)  -->
<svg version="1.1" id="레이어_1" xmlns="http://www.w3.org/2000/svg" xmlns:xlink="http://www.w3.org/1999/xlink" x="0px"
	 y="0px" viewBox="0 0 80 80" style="enable-background:new 0 0 80 80;" xml:space="preserve">
<style type="text/css">
	.st0{fill:#EF533F;}
</style>
<g id="laravel">
	<g id="akka">
		<g id="laravel-icon" transform="translate(7.000000, 18.000000)">
			<path id="Combined-Shape" class="st0" d="M40.7,44.6l-0.5,0c-0.5,0-1-0.3-1.3-0.7l-7.3-12.1l-13.6,3.7c-0.7,0.2-1.3-0.1-1.7-0.7
				L0.2,4c-0.2-0.4-0.2-0.9,0-1.4s0.6-0.7,1.1-0.8L15.1,0c0.6-0.1,1.2,0.2,1.5,0.7l16.5,27.5l18.4-5l-6.1-8.6
				c-0.3-0.4-0.4-0.9-0.2-1.4s0.5-0.8,1-0.9l9.1-2.1c0.6-0.1,1.1,0.1,1.5,0.5l7.9,9.8c0.3,0.4,0.4,0.9,0.3,1.4c-0.2,0.5-0.5,0.8-1,1
				L56.3,25l6.8,9.6c0.3,0.4,0.3,0.9,0.2,1.3s-0.5,0.8-0.9,1l-21.7,7.6C40.7,44.5,40.7,44.5,40.7,44.6L40.7,44.6z M40.9,41.3
				l18.7-6.5l-6.3-8.9l-18.6,5.1L40.9,41.3z M3.8,4.5l14.7,27.7l11.6-3.2l-15.6-26L3.8,4.5z M54.5,22.4l6.5-1.8l-5.9-7.3l-6,1.4
				L54.5,22.4z"/>
		</g>
	</g>
</g>
</svg>
