<?xml version="1.0" encoding="utf-8"?>
<!-- Generator: Adobe Illustrator 26.3.1, SVG Export Plug-In . SVG Version: 6.00 Build 0)  -->
<svg version="1.1" id="레이어_1" xmlns="http://www.w3.org/2000/svg" xmlns:xlink="http://www.w3.org/1999/xlink" x="0px"
	 y="0px" viewBox="0 0 40 40" style="enable-background:new 0 0 40 40;" xml:space="preserve">
<style type="text/css">
	.st0{fill:#FFFFFF;}
</style>
<g>
	<path class="st0" d="M18.2,14.3c0.4,0.2,0.8,0.4,1.2,0.4c0.5,0,1-0.2,1.5-0.5c0.2-0.1,1-0.5,1-0.6c0-0.4-0.8,0.2-1,0.3
		c-0.4,0.2-0.8,0.5-1.3,0.5c-0.4,0.1-0.8,0-1.2-0.2c-0.1-0.1-0.7-0.7-0.9-0.6C17.4,13.8,18.1,14.2,18.2,14.3z"/>
	<path class="st0" d="M29.9,26.5c-0.2-0.6-0.3-1-0.7-1.5C29,24.9,29,24.8,29,24.6c0-0.3,0.2-0.7,0.2-0.9c0.1-1.5-0.3-2.9-0.9-4.2
		c-0.7-1.4-1.7-2.5-2.6-3.8c-0.9-1.2-0.9-2.4-0.9-3.9c0,0,0,0,0,0c0-1.6,0-3.5-1.2-4.7c-1-1.2-2.9-1.3-4.3-0.9
		c-3.6,1.1-2.1,5.3-2.7,8c-0.3,1.5-1.3,2.5-2.1,3.6c-0.9,1.2-1.7,2.6-2.1,4C12.1,22.6,12,23.3,12,24c0,0.5-0.6,1.3-1.1,1.6
		c-0.5,0.3-1.2,0.3-1.5,0.9c-0.3,0.5-0.3,1.1-0.2,1.6c0.1,0.5,0,0.8-0.1,1.3C9.1,29.6,9,29.9,9,30.2c0.1,0.7,0.7,0.9,1.3,1.1
		c0.8,0.2,1.5,0.2,2.3,0.4c0.6,0.2,1.2,0.6,1.9,0.8c0.7,0.2,1.4,0.2,2.1,0c0.5-0.2,0.7-0.7,1.1-0.9c0.3-0.1,0.7-0.1,1-0.2
		c0.3-0.1,0.6-0.1,1-0.2c0.7-0.1,1.3,0.1,2,0.1c0.7,0.1,1.1-0.1,1.5,0.6c0.3,0.5,0.7,0.9,1.3,1c1.4,0.4,2.4-0.6,3.3-1.5
		c0.5-0.5,1.1-0.8,1.7-1.1c0.5-0.3,1.3-0.5,1.5-1.1C31.3,28.3,30.1,27.3,29.9,26.5z M21.6,9.8c0.7,0.2,1,0.9,1,1.5
		c0,0.5-0.3,1.9-1,1.1c0.1-0.5,0.3-1.2-0.1-1.5c-0.7-0.6-0.7,0.7-1,1C19.5,11.9,20.3,9.5,21.6,9.8z M19.5,12c0.6,0,1.2,0.4,1.7,0.6
		c0.4,0.2,1.1,0.3,1.2,0.8c0.1,0.5-0.4,0.9-0.8,1.1c-0.5,0.3-1.1,0.6-1.6,0.8c-0.5,0.2-1,0-1.5-0.3c-0.4-0.3-1-0.7-1.3-1.1
		c-0.3-0.6,0.4-0.9,0.8-1.2C18.5,12.4,19,11.9,19.5,12z M17.2,11.1c0.1-0.7,0.7-1.4,1.4-0.9c0.4,0.3,0.9,2,0,1.8
		c-0.1-0.3-0.2-1.1-0.6-0.9c-0.4,0.2-0.2,0.9-0.1,1.1c0,0.2,0.2,0.3,0,0.4c-0.2,0.1-0.3-0.1-0.4-0.2C17.1,12.1,17.1,11.4,17.2,11.1z
		 M14.9,31.8c-1-0.1-1.8-0.8-2.8-0.9c-0.7-0.1-2.1,0-2.3-0.9c-0.1-0.5,0.2-1,0.2-1.5c0-0.5-0.2-1-0.1-1.4c0.2-0.8,1.3-0.8,1.8-1.4
		c0.6-0.7,1.1-1.4,2.1-0.6c0.8,0.7,1,1.9,1.6,2.7c0.5,0.8,1.5,1.6,1.4,2.6C17,31.6,15.8,32,14.9,31.8z M22.8,29.3
		c-0.7,0.5-1.6,0.8-2.4,0.9c-0.8,0.1-1.6,0-2.3-0.3c-0.6-0.2-1.4-0.8-1.4-1.4c0.5-0.2,0.8-0.5,0.7-1.1c-0.1-0.6-0.6-1.1-1-1.5
		c-0.5-0.4-1.1-0.7-1.4-1.2c-0.4-0.5-0.4-1.3-0.4-1.9c0.1-1.5,0.8-2.8,1.5-4.1c0.4-0.7,0.7-1.4,1-2.1c0.1-0.3,0.2-0.7,0.3-1.1
		c0-0.2,0-0.7,0.2-0.8c0.7,0.4,1.2,1,2,1c0.7,0,1.5-0.5,2.1-0.9c0.1-0.1,0.8-0.6,0.9-0.5c0.2,0.1,0.2,0.7,0.3,0.9
		c0.2,0.8,0.6,1.7,0.9,2.5c0.4,0.8,0.8,1.6,1.1,2.5c0.2,0.4,0.3,0.8,0.4,1.2c0.1,0.2,0.1,0.7,0.3,0.9c0.2,0.2,0.7,0.2,1,0.2
		c0.3,0.1,0.7,0.2,0.9,0.5c0.5,0.3,1.1,1.1,0.7,1.7c-0.2-0.2-0.2-0.5-0.4-0.7c-0.2-0.3-0.6-0.4-0.9-0.6c-0.5-0.2-1.4-0.5-1.8,0
		c-0.2,0.2-0.2,0.5-0.4,0.7c-0.3,0.2-0.5,0.4-0.7,0.7c-0.4,0.7-0.4,1.6-0.4,2.4C23.5,28,23.5,28.8,22.8,29.3z M30.2,28.9
		c-0.1,0.4-0.5,0.6-0.9,0.8c-0.5,0.3-1,0.5-1.5,0.8c-0.8,0.6-1.4,1.5-2.5,1.7c-1,0.2-1.8-0.4-1.9-1.4c-0.1-1.1,0.5-2.1,0.6-3.2
		c0.1-0.8,0-2.4,0.9-2.7c0.3,0.9,0.8,1.7,1.9,1.1c0.4-0.2,0.7-0.6,1.2-0.6c0.4,0,0.7,0.2,0.9,0.6c0.2,0.5,0.2,1,0.5,1.5
		C29.8,27.9,30.4,28.4,30.2,28.9z"/>
</g>
</svg>
