<svg width="40" height="40" viewBox="0 0 40 40" fill="none" xmlns="http://www.w3.org/2000/svg">
<path fill-rule="evenodd" clip-rule="evenodd" d="M22.837 29.2873C22.1282 29.7524 21.248 30.0592 20.4086 30.161C19.6115 30.2577 18.8059 30.1468 18.0676 29.8297C17.5151 29.5925 16.6976 29.0695 16.6269 28.393C17.131 28.1545 17.4737 27.9296 17.3542 27.2948C17.2435 26.707 16.7348 26.1642 16.3053 25.7797C15.847 25.3696 15.2303 25.0656 14.8692 24.5583C14.5129 24.0577 14.4603 23.2895 14.4907 22.6957C14.5662 21.2189 15.3233 19.9225 15.9728 18.6357C16.3241 17.9397 16.7046 17.2412 16.9827 16.512C17.1142 16.1672 17.2214 15.8127 17.3006 15.4523C17.343 15.2592 17.32 14.8013 17.536 14.6922C18.2389 15.0559 18.719 15.7244 19.5856 15.7296C20.3242 15.7341 21.0702 15.19 21.6981 14.8499C21.8443 14.7707 22.4842 14.2668 22.6434 14.3625C22.8097 14.4624 22.8879 15.1084 22.9396 15.2853C23.1855 16.1263 23.5088 16.9384 23.8632 17.7389C24.2274 18.5612 24.623 19.3698 24.9799 20.1952C25.1426 20.5716 25.2933 20.9532 25.3915 21.3522C25.4511 21.5938 25.4625 22.0598 25.6668 22.2391C25.8723 22.4193 26.3962 22.3898 26.6586 22.4741C26.9944 22.5819 27.3125 22.7236 27.5978 22.9327C28.0612 23.2726 28.6686 24.0259 28.2882 24.6241C28.1009 24.4397 28.0769 24.1493 27.8868 23.9426C27.6461 23.6808 27.2853 23.497 26.9669 23.349C26.4536 23.1103 25.6057 22.8393 25.1923 23.3825C25.0091 23.6233 24.9977 23.9115 24.7622 24.127C24.4909 24.3751 24.2404 24.4783 24.058 24.8232C23.666 25.5649 23.702 26.4189 23.6155 27.229C23.5353 27.98 23.5251 28.8359 22.837 29.2873ZM17.1565 11.0531C17.266 10.3976 17.8315 9.61933 18.5328 10.1659C18.8929 10.4467 19.4461 12.161 18.5232 11.9164C18.4583 11.6457 18.3429 10.7875 17.8826 11.0047C17.5055 11.1824 17.6666 11.8675 17.7327 12.1396C17.7714 12.2995 17.9278 12.4428 17.7414 12.5756C17.5762 12.6933 17.4586 12.5071 17.378 12.3994C17.1231 12.0585 17.0905 11.4472 17.1565 11.0531ZM19.5149 11.9839C20.1441 11.9565 20.6946 12.3716 21.251 12.6113C21.6728 12.7931 22.3554 12.9307 22.4703 13.4611C22.5765 13.9509 22.0843 14.325 21.7057 14.5281C21.1909 14.8042 20.6163 15.1543 20.0639 15.3401C19.5146 15.5251 19.0523 15.3807 18.5954 15.0591C18.1942 14.777 17.5561 14.4043 17.3231 13.9507C17.0094 13.3403 17.7126 13.013 18.1177 12.7008C18.4943 12.4106 18.9966 11.9188 19.5149 11.9839ZM21.6236 9.78567C22.2752 9.94722 22.5948 10.6941 22.64 11.3072C22.6763 11.8007 22.3593 13.2098 21.6596 12.4167C21.7646 11.9476 21.9899 11.2348 21.5121 10.879C20.7719 10.3278 20.7972 11.5561 20.536 11.8562C19.4739 11.9318 20.2928 9.45568 21.6236 9.78567ZM29.8907 26.472C29.7271 25.8411 29.6278 25.4703 29.1812 24.9987C29.0425 24.8523 28.9693 24.8369 28.9673 24.6177C28.9647 24.3385 29.1285 23.9647 29.1558 23.6774C29.2966 22.1983 28.8903 20.8118 28.2268 19.5016C27.5355 18.1365 26.5244 16.985 25.6407 15.7469C24.7742 14.5329 24.6953 13.2974 24.6953 11.8536C24.6943 11.8536 24.6932 11.8536 24.6922 11.8535C24.6922 10.2523 24.656 8.38515 23.5365 7.10884C22.4963 5.92294 20.623 5.7968 19.1956 6.22401C15.6048 7.29886 17.0584 11.5073 16.494 14.2127C16.1858 15.6905 15.2208 16.6842 14.3562 17.859C13.466 19.0682 12.6852 20.4097 12.2769 21.8636C12.0765 22.5775 12.0472 23.2512 12.0115 23.9823C11.985 24.5261 11.4284 25.2607 10.9484 25.5511C10.4252 25.8674 9.79687 25.8707 9.40867 26.4092C9.07001 26.8789 9.15834 27.461 9.22365 28.0004C9.28111 28.4754 9.26654 28.8042 9.14713 29.272C9.06971 29.5749 8.976 29.9043 9.0056 30.2216C9.07076 30.9205 9.693 31.1635 10.2988 31.3003C11.057 31.4714 11.8432 31.4739 12.5887 31.7068C13.2348 31.9086 13.8006 32.2851 14.4598 32.4592C15.1381 32.6384 15.8776 32.6976 16.537 32.4107C17.0145 32.203 17.1888 31.7199 17.6171 31.5014C17.8989 31.3578 18.3119 31.3865 18.6173 31.3367C18.9425 31.2836 19.266 31.2176 19.5939 31.1835C20.2907 31.1108 20.9331 31.2413 21.6198 31.3247C22.3222 31.41 22.7261 31.273 23.0908 31.9159C23.3792 32.4242 23.8094 32.7675 24.3769 32.9189C25.7675 33.2902 26.8201 32.3162 27.7212 31.423C28.2264 30.9222 28.8232 30.6142 29.4489 30.2909C29.9755 30.0188 30.7065 29.7763 30.9373 29.1693C31.2804 28.2669 30.1143 27.3347 29.8907 26.472ZM17.6553 13.6134C17.3931 13.7636 18.0538 14.2109 18.1885 14.3023C18.5514 14.5483 18.9725 14.6996 19.4107 14.7287C19.9478 14.7039 20.4331 14.4807 20.8989 14.2322C21.0533 14.1497 21.9438 13.7741 21.9313 13.5921C21.9043 13.2004 21.1183 13.804 20.9533 13.9024C20.5724 14.1299 20.1393 14.3616 19.7003 14.4446C19.2904 14.522 18.8979 14.4627 18.5393 14.2483C18.4086 14.1701 17.7907 13.5358 17.6553 13.6134Z" fill="black"/>
<path fill-rule="evenodd" clip-rule="evenodd" d="M30.2451 28.8875C30.1498 29.2733 29.6976 29.4963 29.3799 29.6604C28.8805 29.9182 28.3661 30.1284 27.9159 30.4716C27.1048 31.0899 26.5373 31.9933 25.4598 32.1859C24.4927 32.3589 23.6568 31.7479 23.5908 30.7624C23.5186 29.6866 24.1285 28.6604 24.2352 27.5996C24.314 26.8161 24.1887 25.2243 25.1258 24.8881C25.4159 25.8354 25.9644 26.6251 27.0551 26.0248C27.4596 25.8021 27.7236 25.4286 28.2291 25.4508C28.6257 25.4682 28.9224 25.6757 29.0981 26.0252C29.3361 26.4989 29.3166 27.0491 29.5748 27.5179C29.799 27.9246 30.373 28.3692 30.2451 28.8875Z" fill="#FFCC00"/>
<path fill-rule="evenodd" clip-rule="evenodd" d="M14.8574 31.8162C13.8678 31.6684 13.0282 31.0614 12.0329 30.8941C11.3754 30.7835 9.9295 30.8613 9.78207 30.0067C9.6998 29.5299 9.96948 29.0045 9.98592 28.5294C10.0016 28.0755 9.81943 27.5692 9.92435 27.1214C10.1207 26.2826 11.257 26.3027 11.774 25.7083C12.3817 25.0097 12.9195 24.2893 13.8442 25.1307C14.6043 25.8225 14.8695 26.9843 15.445 27.8182C15.9738 28.5842 16.8984 29.4384 16.8926 30.4381C16.9714 31.551 15.754 31.9502 14.8574 31.8162Z" fill="#FFCC00"/>
</svg>
