<?xml version="1.0" encoding="utf-8"?>
<!-- Generator: Adobe Illustrator 26.3.1, SVG Export Plug-In . SVG Version: 6.00 Build 0)  -->
<svg version="1.1" id="레이어_1" xmlns="http://www.w3.org/2000/svg" xmlns:xlink="http://www.w3.org/1999/xlink" x="0px"
	 y="0px" viewBox="0 0 80 80" style="enable-background:new 0 0 80 80;" xml:space="preserve">
<style type="text/css">
	.st0{fill:#FFFFFF;}
</style>
<g id="mariadb">
	<g id="mariadb-logo-vertical" transform="translate(5.000000, 17.000000)">
		<g id="Group" transform="translate(1.406026, 0.000000)">
			<path class="st0" d="M67,0.1c-1.1,0-0.7,0.4-3,0.9c-2.3,0.6-5.1,0.4-7.6,1.4C49.1,5.6,47.6,16.2,40.8,20
				c-5,2.8-10.1,3.1-14.7,4.5c-3,0.9-6.3,2.8-9,5.2c-2.1,1.8-2.1,3.4-4.4,5.7c-2.4,2.4-9.4,0-12.5,3.8c1,1,1.5,1.3,3.5,1.1
				c-0.4,0.8-2.9,1.4-2.4,2.6c0.5,1.2,6.4,2,11.8-1.2c2.5-1.5,4.5-3.7,8.4-4.2c5.1-0.7,10.9,0.4,16.8,1.3c-0.9,2.6-2.6,4.3-4,6.4
				c-0.4,0.5,0.9,0.5,2.4,0.2c2.7-0.7,4.6-1.2,6.6-2.4c2.5-1.4,2.8-5.1,5.9-5.9c1.7,2.6,6.3,3.2,9.2,1.1c-2.5-0.7-3.2-6-2.4-8.4
				c0.8-2.2,1.6-5.8,2.4-8.8c0.9-3.2,1.2-7.2,2.2-8.8c1.6-2.4,3.3-3.3,4.9-4.6c1.5-1.4,2.9-2.7,2.8-5.8C68.5,0.7,68,0.1,67,0.1z
				 M56.4,38c-1.7,0.4-4.5-0.2-5.2-1.4c0.4-1.7,2.3-3.2,3.3-4.3C54.6,33.9,55.6,37.2,56.4,38z M63.9,7.8c-1.4,1-3,2-4,3.6
				c-1,1.6-1.7,7.1-3.3,12.5c-1.4,4.7-3.4,9.3-7.1,11.4c-0.4-0.9,0.1-2.7-0.7-3.3c-0.5,1.4-1.1,2.7-1.7,4c-2.1,4.1-5.3,7.1-10.6,8.1
				c2.5-3.4,4.9-6.9,5-12.8c-1.8,0.4-1.7,4.5-3.6,5.7C36.8,37,35.7,37,34.5,37c-4.9-0.3-9.8-1.8-14.4-0.3c-3.1,1-5.6,3.4-8.3,4.5
				c-3.1,1.3-5.4,1.9-9.3,1.3C2,41.9,5.3,41,5,39.5c-1.5-0.1-2.4,0.2-3.7-0.4c0.1-0.2,0.4-0.5,0.6-0.7c2.4-1.7,9.2-0.4,11-2.2
				c1.1-1.1,1.9-2.2,2.6-3.4c0.7-1.1,1.5-2.1,2.7-3.1c0.5-0.4,0.9-0.7,1.4-1.1c2-1.4,4.5-2.6,6.9-3.4c3.3-1.2,6.6-1.3,10.2-2.6
				c2.2-0.8,4.5-1.9,6.5-3.3c0.5-0.4,0.9-0.7,1.3-1.1C50.1,13,51.1,3.5,59.7,2.6c1.1-0.1,1.9-0.1,2.7-0.1c0.9,0,1.7-0.1,2.5-0.6
				c0.2,0.8,0.6,1.2,2.4,1.4C67,5.5,65.6,6.7,63.9,7.8z"/>
			<path id="XMLID_24_" class="st0" d="M56.9,6.3c1.2,1.1,3.8,0.2,3.3-1.9C58.4,4.2,57.3,4.9,56.9,6.3z"/>
			<path id="XMLID_25_" class="st0" d="M65.4,3.8c-0.3,0.7-0.9,1.5-0.9,3.3c0,0.3-0.2,0.5-0.2,0c0-1.7,0.5-2.4,0.9-3.4
				C65.4,3.3,65.5,3.5,65.4,3.8z"/>
			<path id="XMLID_26_" class="st0" d="M65.1,3.6c-0.4,0.6-1.3,1.8-1.4,3.6c0,0.3-0.3,0.5-0.2,0c0.2-1.7,0.9-2.7,1.4-3.7
				C65.1,3.1,65.2,3.3,65.1,3.6z"/>
			<path id="XMLID_27_" class="st0" d="M64.8,3.2c-0.4,0.6-1.9,2-2.1,3.7c-0.1,0.3-0.3,0.5-0.2,0c0.3-1.7,1.5-3,2.1-3.8
				C64.8,2.7,64.9,3,64.8,3.2z"/>
			<path id="XMLID_28_" class="st0" d="M64.5,2.8c-0.5,0.6-2.2,2.4-2.7,4c-0.1,0.3-0.4,0.4-0.2,0c0.5-1.6,2-3.3,2.7-4.1
				C64.6,2.4,64.7,2.6,64.5,2.8L64.5,2.8z"/>
		</g>
	</g>
</g>
</svg>
