<?xml version="1.0" encoding="UTF-8"?>
<svg width="80px" height="80px" viewBox="0 0 80 80" version="1.1" xmlns="http://www.w3.org/2000/svg" xmlns:xlink="http://www.w3.org/1999/xlink">
    <!-- Generator: Sketch 59.1 (86144) - https://sketch.com -->
    <title>mariadb</title>
    <desc>Created with Sketch.</desc>
    <g id="mariadb" stroke="none" stroke-width="1" fill="none" fill-rule="evenodd">
        <g id="mariadb-logo-vertical" transform="translate(5.000000, 17.000000)" fill-rule="nonzero">
            <g id="Group" transform="translate(1.406026, 0.000000)">
                <path d="M67.0322812,0.140602582 C65.9777618,0.175753228 66.3292683,0.492109039 64.0444763,1.05451937 C61.7596844,1.6169297 58.9476327,1.44117647 56.4519369,2.49569584 C49.0703013,5.58895265 47.5939742,16.2044476 40.8450502,20.0007174 C35.8185079,22.8479197 30.7568149,23.0588235 26.187231,24.5 C23.1994261,25.4490674 19.9304161,27.3472023 17.1886657,29.7022956 C15.079627,31.5301291 15.0444763,33.1119082 12.8299857,35.3967001 C10.4748924,37.8220947 3.47991392,35.4318508 0.316355811,39.1578192 C1.33572453,40.1771879 1.79268293,40.4935438 3.79626973,40.2123386 C3.37446198,40.9856528 0.913916786,41.6535151 1.40602582,42.8134864 C1.89813486,44.043759 7.83859397,44.8522238 13.2517934,41.6183644 C15.7826399,40.1068867 17.7862267,37.9275466 21.6879484,37.4002869 C26.7496413,36.7324247 32.5846485,37.8220947 38.4548063,38.6657102 C37.5760402,41.266858 35.8536585,42.9892396 34.4476327,45.0631277 C34.025825,45.5200861 35.3263989,45.5903874 36.802726,45.3091822 C39.474175,44.6413199 41.4074605,44.1140603 43.4110473,42.954089 C45.9067432,41.5129125 46.2582496,37.8220947 49.3163558,37.0136298 C51.0035868,39.6147776 55.6083214,40.2474892 58.4906743,38.1384505 C55.9949785,37.4354376 55.2919656,32.0925395 56.1355811,29.7374462 C56.9440459,27.5229555 57.7173601,23.9375897 58.525825,20.9849354 C59.4045911,17.8213773 59.7209469,13.8142037 60.7754663,12.2324247 C62.3572453,9.80703013 64.1147776,8.96341463 65.6262554,7.59253945 C67.1377331,6.22166428 68.543759,4.88593974 68.4734577,1.75753228 C68.5086083,0.667862267 68.0164993,0.105451937 67.0322812,0.140602582 L67.0322812,0.140602582 Z" id="XMLID_21_" fill="#002B64"></path>
                <path d="M2.53084648,42.5322812 C6.36226686,43.0946915 8.71736011,42.5322812 11.8106169,41.1965567 C14.4469154,40.071736 16.9777618,37.7166428 20.0710187,36.697274 C24.6406026,35.2209469 29.6319943,36.697274 34.4827834,36.9784792 C35.6779053,37.0487805 36.8378766,37.0487805 37.9978479,36.9081779 C39.8256815,35.7833572 39.7905308,31.6355811 41.5480631,31.248924 C41.5129125,37.1190818 39.0875179,40.5989957 36.5918221,44.0086083 C41.8644189,43.0595409 45.0631277,40.0014347 47.1721664,35.9239598 C47.804878,34.6936872 48.3672884,33.3579627 48.8593974,31.9519369 C49.6327116,32.5494978 49.1757532,34.3070301 49.5624103,35.2560976 C53.2180775,33.2173601 55.2919656,28.5774749 56.6628407,23.902439 C58.2446198,18.4892396 58.9124821,13.0057389 59.9318508,11.3888092 C60.9512195,9.80703013 62.4978479,8.8579627 63.9390244,7.83859397 C65.5559541,6.71377331 66.9971306,5.51865136 67.2783357,3.33931133 C65.5559541,3.16355811 65.169297,2.776901 64.9232425,1.93328551 C64.079627,2.42539455 63.2711621,2.53084648 62.392396,2.53084648 C61.6190818,2.56599713 60.7754663,2.53084648 59.7209469,2.63629842 C51.1441894,3.51506456 50.0545194,12.9705882 44.535868,18.348637 C44.1492109,18.7352941 43.6922525,19.0868006 43.2352941,19.438307 C41.3020086,20.8794835 38.9469154,21.8988522 36.7675753,22.7424677 C33.2525108,24.0781923 29.9131994,24.1836442 26.6090387,25.3436155 C24.1836442,26.187231 21.723099,27.4175036 19.7195122,28.7883788 C19.2274032,29.1398852 18.7704448,29.4913917 18.3134864,29.8428981 C17.1535151,30.7919656 16.3802009,31.8464849 15.6420373,32.9361549 C14.8687231,34.0609756 14.1305595,35.2209469 13.0057389,36.3106169 C11.1779053,38.1032999 4.35868006,36.8378766 1.96843615,38.489957 C1.68723099,38.6657102 1.47632712,38.9117647 1.33572453,39.1578192 C2.63629842,39.7553802 3.51506456,39.4038737 5.02654232,39.5444763 C5.34289813,41.0208034 2.03873745,41.8995696 2.53084648,42.5322812 L2.53084648,42.5322812 Z" id="XMLID_22_" fill="#C49A6C"></path>
                <path d="M54.5186514,32.2682927 C54.6241033,33.920373 55.5731707,37.1542324 56.4167862,37.9626973 C54.7647059,38.3493544 51.9526542,37.7166428 51.2144907,36.5566714 C51.5659971,34.8342898 53.5344333,33.3228121 54.5186514,32.2682927 Z" id="XMLID_23_" fill="#C49A6C"></path>
                <path d="M56.9088953,6.25681492 C58.1391679,7.31133429 60.6700143,6.46771879 60.213056,4.35868006 C58.3500717,4.18292683 57.2604017,4.8507891 56.9088953,6.25681492 Z" id="XMLID_24_" fill="#002B64"></path>
                <path d="M65.3802009,3.79626973 C65.0638451,4.46413199 64.4311334,5.34289813 64.4311334,7.06527977 C64.4311334,7.34648494 64.2202296,7.55738881 64.1850789,7.10043042 C64.1850789,5.41319943 64.6420373,4.67503587 65.1341463,3.72596844 C65.3802009,3.33931133 65.5208034,3.51506456 65.3802009,3.79626973 Z" id="XMLID_25_" fill="#002B64"></path>
                <path d="M65.0638451,3.55021521 C64.6771879,4.18292683 63.7632712,5.37804878 63.6226686,7.10043042 C63.5875179,7.38163558 63.3414634,7.59253945 63.3766141,7.13558106 C63.5523673,5.44835007 64.2905308,4.3938307 64.8177905,3.47991392 C65.0989957,3.09325681 65.2044476,3.26901004 65.0638451,3.55021521 Z" id="XMLID_26_" fill="#002B64"></path>
                <path d="M64.7826399,3.19870875 C64.3608321,3.79626973 62.9196557,5.2374462 62.6384505,6.92467719 C62.5681492,7.20588235 62.3220947,7.38163558 62.392396,6.92467719 C62.7087518,5.27259684 63.9038737,3.97202296 64.5365854,3.09325681 C64.8177905,2.74175036 64.9232425,2.95265423 64.7826399,3.19870875 Z" id="XMLID_27_" fill="#002B64"></path>
                <path d="M64.5014347,2.81205165 C63.974175,3.37446198 62.286944,5.16714491 61.7596844,6.81922525 C61.6542324,7.10043042 61.4081779,7.241033 61.5136298,6.78407461 C62.0408895,5.20229555 63.5172166,3.47991392 64.2553802,2.70659971 C64.6420373,2.3902439 64.7123386,2.60114778 64.5014347,2.81205165 L64.5014347,2.81205165 Z" id="XMLID_28_" fill="#002B64"></path>
            </g>
        </g>
    </g>
</svg>