<?xml version="1.0" encoding="utf-8"?>
<!-- Generator: Adobe Illustrator 26.3.1, SVG Export Plug-In . SVG Version: 6.00 Build 0)  -->
<svg version="1.1" id="레이어_1" xmlns="http://www.w3.org/2000/svg" xmlns:xlink="http://www.w3.org/1999/xlink" x="0px"
	 y="0px" viewBox="0 0 80 80" style="enable-background:new 0 0 80 80;" xml:space="preserve">
<style type="text/css">
	.st0{fill-rule:evenodd;clip-rule:evenodd;fill:#9E8868;}
	.st1{fill-rule:evenodd;clip-rule:evenodd;fill:#666666;}
	.st2{fill-rule:evenodd;clip-rule:evenodd;fill:#92C54C;}
	.st3{fill-rule:evenodd;clip-rule:evenodd;fill:#323232;}
	.st4{fill-rule:evenodd;clip-rule:evenodd;fill:#DE1B16;}
</style>
<g id="mean">
	<g id="akka">
		<g id="Group-9" transform="translate(14.000000, 13.000000)">
			<polygon id="Fill-1" class="st0" points="24.8,0 0,8.3 2.7,26.1 24.8,26.1 			"/>
			<path id="Fill-2" class="st1" d="M24.8,0L0,8.3l2.7,17.9h22.1V0z M1.7,9.3l21.6-7.2v22.5H4L1.7,9.3z"/>
			<polygon id="Fill-3" class="st2" points="3.1,28.4 5.4,44.1 24.8,54.4 24.8,54.4 24.8,28.4 			"/>
			<path id="Fill-4" class="st1" d="M3.1,28.4l2.3,15.6l19.4,10.3l0,0V28.4H3.1z M6.8,43.1L4.9,30h18.4v21.9L6.8,43.1z"/>
			<polygon id="Fill-5" class="st3" points="27.1,0 27.1,26.1 49.2,26.1 51.9,8.3 			"/>
			<path id="Fill-6" class="st1" d="M27.1,0v26.1h22.1l2.7-17.9L27.1,0z M28.6,2.1l21.6,7.2l-2.3,15.3H28.6V2.1z"/>
			<polygon id="Fill-7" class="st4" points="27.1,28.4 27.1,54.4 27.1,54.4 46.5,44.1 48.8,28.4 			"/>
			<path id="Fill-8" class="st1" d="M27.1,28.4v25.9l0,0l19.4-10.3l2.3-15.6H27.1z M28.6,30h18.4l-1.9,13.1l-16.5,8.8V30z"/>
		</g>
	</g>
</g>
</svg>
