<?xml version="1.0" encoding="utf-8"?>
<!-- Generator: Adobe Illustrator 26.0.3, SVG Export Plug-In . SVG Version: 6.00 Build 0)  -->
<svg version="1.1" id="Layer_1" xmlns="http://www.w3.org/2000/svg" xmlns:xlink="http://www.w3.org/1999/xlink" x="0px" y="0px"
	 viewBox="0 0 80 80" style="enable-background:new 0 0 80 80;" xml:space="preserve">
<style type="text/css">
	.st0{fill:#001E2B;}
</style>
<desc>Created with Sketch.</desc>
<path class="st0" d="M44.8,18.4c-2.3-2.8-4.3-5.6-4.8-6.2c0,0-0.1,0-0.2,0c-0.4,0.6-2.4,3.4-4.8,6.2c-20.1,25.6,3.2,42.8,3.2,42.8
	l0.2,0.1c0.2,2.7,0.6,6.5,0.6,6.5H40h0.9c0,0,0.4-3.8,0.6-6.5l0.2-0.2C41.7,61.2,64.9,43.9,44.8,18.4z M40,60.8c0,0-1-0.9-1.3-1.3v0
	l1.3-27.9c0-0.1,0.1-0.1,0.1,0l1.3,27.9v0C41,59.9,40,60.8,40,60.8z"/>
</svg>
