<?xml version="1.0" encoding="UTF-8"?>
<svg width="80px" height="80px" viewBox="0 0 80 80" version="1.1" xmlns="http://www.w3.org/2000/svg" xmlns:xlink="http://www.w3.org/1999/xlink">
    <!-- Generator: Sketch 59.1 (86144) - https://sketch.com -->
    <title>mssql</title>
    <desc>Created with Sketch.</desc>
    <defs>
        <path d="M24.6805263,6.80842105 L14.2652632,11.4026316 L11.3510526,12.1726316 C10.6105263,12.8763158 9.82947368,13.5910526 8.98947368,14.3168421 L8.98947368,14.3168421 C8.06842105,15.1126316 7.20631579,15.8384211 6.54684211,16.3615789 L6.54684211,16.3615789 C5.81368421,16.94 4.72684211,18.0268421 4.17421053,18.7121053 L4.17421053,18.7121053 C3.35263158,19.7436842 2.69684211,20.8378947 2.42052632,21.6815789 L2.42052632,21.6815789 C1.92315789,23.2031579 2.16997531,24.7431579 3.12789474,26.1615789 L3.12789474,26.1615789 C4.35473684,27.9705263 6.80842105,29.82 9.66368421,31.0763158 L9.66368421,31.0763158 C11.1226316,31.7136842 13.5726316,32.5426316 15.4257895,33.0031579 L15.4257895,33.0031579 C18.4910526,33.7805263 24.4226316,34.6242105 27.6942105,34.7494737 L27.6942105,34.7494737 C28.3536842,34.7752632 29.2378947,34.7752632 29.2747368,34.7494737 L29.2747368,34.7494737 C29.3484211,34.7015789 29.8568421,33.7326316 30.4426316,32.5315789 L30.4426316,32.5315789 C32.4505263,28.4310526 33.9021053,24.5847368 34.6868421,21.3021053 L34.6868421,21.3021053 C35.1584211,19.3126316 35.5268421,16.6563158 35.7736842,13.5210526 L35.7736842,13.5210526 C35.8363158,12.6442105 35.8621053,9.70052632 35.8105263,8.70578947 L35.8105263,8.70578947 C35.7257895,7.07736842 35.5821053,5.75473684 35.3573684,4.46157895 L35.3573684,4.46157895 C35.3205263,4.27368421 35.3094737,4.10052632 35.3278947,4.09315789 L35.3278947,4.09315789 C35.3647368,4.06368421 35.4752632,4.02684211 36.9489474,3.60315789 L36.9489474,3.60315789 L36.6505263,2.89578947 L24.6805263,6.80842105 Z M31.8131579,8.13473684 C30.9068421,7.56736842 29.1863158,6.42526316 28.9136842,6.21157895 L28.9136842,6.21157895 C28.8252632,6.14894737 28.8326316,6.13789474 29.5731579,5.88368421 L29.5731579,5.88368421 C30.8294737,5.45631579 33.8173684,4.49842105 33.9168421,4.49842105 L33.9168421,4.49842105 C34.0273684,4.49842105 34.3147368,7.27631579 34.3884211,9.03 L34.3884211,9.03 C34.4031579,9.40210526 34.3994737,9.64894737 34.3773684,9.64894737 L34.3773684,9.64894737 C34.3073684,9.64894737 32.8484211,8.78684211 31.8131579,8.13473684 L31.8131579,8.13473684 Z M26.7621053,13.7936842 C27.3663158,11.5389474 27.7089474,9.25842105 27.7310526,7.43105263 L27.7310526,7.43105263 C27.7347368,6.52473684 27.7347368,6.52473684 27.8194737,6.49894737 L27.8194737,6.49894737 C27.8010526,6.51 27.8084211,6.51 27.8194737,6.51 L27.8194737,6.51 C27.9005263,6.51 28.1068421,6.62421053 28.6042105,6.93368421 L28.6042105,6.93368421 C30.4684211,8.10157895 33.0031579,9.51263158 34.09,9.98421053 L34.09,9.98421053 C34.4252632,10.1278947 34.4621053,10.0726316 33.6921053,10.5957895 L33.6921053,10.5957895 C32.0452632,11.7194737 29.9894737,12.8247368 27.4731579,13.9373684 L27.4731579,13.9373684 C27.0347368,14.1363158 26.6626316,14.2873684 26.6515789,14.2873684 L26.6515789,14.2873684 C26.6368421,14.2873684 26.6884211,14.0663158 26.7621053,13.7936842 L26.7621053,13.7936842 Z M23.7852632,12.5521053 C23.0778947,11.7378947 22.5252632,10.92 22.12,10.1278947 L22.12,10.1278947 C21.91,9.71894737 21.5857895,8.92684211 21.6115789,8.89736842 L21.6115789,8.89736842 C21.7552632,8.79789474 26.5263158,6.94842105 26.5594737,6.98526316 L26.5594737,6.98526316 C26.6147368,7.04052632 26.5778947,9.06684211 26.5078947,9.62315789 L26.5078947,9.62315789 C26.3421053,10.9421053 26.0915789,12.1726316 25.6752632,13.5578947 L25.6752632,13.5578947 C25.5757895,13.8894737 25.4836842,14.1694737 25.4689474,14.1915789 L25.4689474,14.1915789 C25.4689474,14.1915789 25.4652632,14.1915789 25.4652632,14.1915789 L25.4652632,14.1915789 C25.3878947,14.1915789 24.1831579,13.0126316 23.7852632,12.5521053 L23.7852632,12.5521053 Z M16.3836842,17.6731579 C17.4410526,16.0189474 19.0473684,12.7694737 19.9573684,10.4705263 L19.9573684,10.4705263 C20.1084211,10.0726316 20.2668421,9.67473684 20.2926316,9.58631579 L20.2926316,9.58631579 C20.3294737,9.45736842 20.37,9.41315789 20.4878947,9.35052632 L20.4878947,9.35052632 C20.5505263,9.33210526 20.6168421,9.31368421 20.6426316,9.31368421 L20.6426316,9.31368421 C20.6536842,9.31368421 20.6610526,9.31368421 20.6721053,9.32105263 L20.6721053,9.32105263 C20.6905263,9.33947368 20.7531579,9.48684211 20.8047368,9.64894737 L20.8047368,9.64894737 C21.0957895,10.4336842 21.7478947,11.5905263 22.3078947,12.3347368 L22.3078947,12.3347368 C22.9231579,13.1489474 23.7263158,14.0184211 24.3968421,14.5857895 L24.3968421,14.5857895 C24.6178947,14.7663158 24.8168421,14.9394737 24.8426316,14.9652632 L24.8426316,14.9652632 C24.8978947,15.0242105 24.9126316,15.0131579 23.4389474,15.5731579 L23.4389474,15.5731579 C21.7294737,16.2252632 19.8652632,16.8773684 17.7284211,17.5626316 L17.7284211,17.5626316 C17.22,17.7284211 16.7078947,17.8942105 16.1994737,18.0636842 L16.1994737,18.0636842 C16.1884211,18.0673684 16.1810526,18.0710526 16.1736842,18.0710526 L16.1736842,18.0710526 C16.1331579,18.0710526 16.1810526,17.99 16.3836842,17.6731579 L16.3836842,17.6731579 Z M14.1657895,17.8536842 C13.8563158,17.2494737 13.6057895,16.4684211 13.4694737,15.7573684 L13.4694737,15.7573684 C13.3331579,15.05 13.3589474,13.8194737 13.51,13.0568421 L13.51,13.0568421 C13.6315789,12.5005263 13.6205263,12.5078947 13.8931579,12.3715789 L13.8931579,12.3715789 C15.05,11.7857895 18.7968421,10.0247368 18.8336842,10.0615789 L18.8336842,10.0615789 C18.8594737,10.0836842 18.3989474,11.0526316 17.9494737,11.9368421 L17.9494737,11.9368421 C17.0689474,13.6463158 16.1110526,15.33 14.8252632,17.3747368 L14.8252632,17.3747368 C14.6078947,17.7284211 14.4015789,18.0526316 14.3721053,18.0894737 L14.3721053,18.0894737 C14.3610526,18.1078947 14.35,18.1189474 14.3352632,18.1189474 L14.3352632,18.1189474 C14.3057895,18.1189474 14.2689474,18.0526316 14.1657895,17.8536842 L14.1657895,17.8536842 Z M33.2315789,18.3694737 C31.8757895,17.9457895 30.3984211,17.3194737 29.0684211,16.59 L29.0684211,16.59 C28.1915789,16.1073684 26.9131579,15.3226316 26.95,15.2857895 L26.95,15.2857895 C26.9610526,15.2747368 27.3368421,15.0757895 27.7826316,14.84 L27.7826316,14.84 C29.5584211,13.9189474 31.2568421,12.9242105 32.7342105,11.9368421 L32.7342105,11.9368421 C33.2831579,11.5647368 34.1157895,10.9678947 34.2963158,10.8057895 L34.2963158,10.8057895 L34.44,10.6952632 L34.44,11.0784211 C34.44,13.0936842 34.2263158,15.8642105 33.9094737,17.8831579 L33.9094737,17.8831579 C33.8542105,18.2368421 33.8063158,18.5242105 33.7989474,18.5352632 L33.7989474,18.5352632 C33.7989474,18.5352632 33.5336842,18.4615789 33.2315789,18.3694737 L33.2315789,18.3694737 Z M3.92368421,21.5452632 C4.13,20.2152632 5.14315789,18.48 6.55421053,17.0136842 L6.55421053,17.0136842 C7.49736842,16.0336842 8.24526316,15.4626316 9.53105263,14.7331579 L9.53105263,14.7331579 C10.4557895,14.2063158 11.8778947,13.4215789 11.9847368,13.3847368 L11.9847368,13.3847368 C11.9847368,13.3736842 11.9921053,13.3736842 12.0031579,13.3736842 L12.0031579,13.3736842 C12.04,13.3736842 12.0289474,13.4473684 11.9773684,13.7715789 L11.9773684,13.7715789 C11.9405263,14.0073684 11.8926316,14.4421053 11.8778947,14.7405263 L11.8778947,14.7405263 C11.8005263,16.0594737 12.0178947,17.0394737 12.67,18.3805263 L12.67,18.3805263 C12.8505263,18.7489474 12.9978947,19.0584211 12.9868421,19.0657895 L12.9868421,19.0657895 C12.9242105,19.1210526 6.93368421,20.8747368 5.05473684,21.3942105 L5.05473684,21.3942105 C4.49105263,21.5452632 4.00473684,21.6815789 3.96789474,21.6926316 L3.96789474,21.6926316 C3.95315789,21.6963158 3.94210526,21.6963158 3.93105263,21.6963158 L3.93105263,21.6963158 C3.90157895,21.6963158 3.89789474,21.6668421 3.92368421,21.5452632 L3.92368421,21.5452632 Z M22.7684211,23.4389474 C22.7684211,23.4278947 22.9305263,23.1147368 23.1405263,22.7242105 L23.1405263,22.7242105 C24.2715789,20.6021053 25.4136842,18.0268421 25.9884211,16.2326316 L25.9884211,16.2326316 C26.0657895,16.0594737 26.11,15.9084211 26.1173684,15.9010526 L26.1173684,15.9010526 C26.1284211,15.8936842 26.3421053,16.0078947 26.6073684,16.1626316 L26.6073684,16.1626316 C28.5415789,17.2863158 31.2421053,18.3252632 33.5336842,18.8594737 L33.5336842,18.8594737 L33.7436842,18.9073684 L33.4563158,19.0657895 C32.2515789,19.7363158 28.2947368,21.3831579 24.2531579,22.8936842 L24.2531579,22.8936842 C23.6636842,23.1147368 23.0889474,23.3284211 22.9784211,23.3726316 L22.9784211,23.3726316 C22.8789474,23.4131579 22.7905263,23.4389474 22.7721053,23.4389474 L22.7721053,23.4389474 C22.7684211,23.4389474 22.7684211,23.4389474 22.7684211,23.4389474 L22.7684211,23.4389474 Z M20.1526316,23.8257895 C18.2368421,22.6505263 16.5347368,21.2026316 15.4257895,19.8026316 L15.4257895,19.8026316 L15.26,19.6036842 L16.0852632,19.3752632 C19.0326316,18.5721053 21.5378947,17.7026316 24.0284211,16.6305263 L24.0284211,16.6305263 C24.3821053,16.4905263 24.6694737,16.3689474 24.6805263,16.3689474 L24.6805263,16.3689474 C24.6878947,16.38 24.6178947,16.5678947 24.5257895,16.7889474 L24.5257895,16.7889474 C23.7373684,18.6973684 22.7057895,20.7752632 21.3868421,23.1147368 L21.3868421,23.1147368 C21.0515789,23.7115789 20.7678947,24.1868421 20.7605263,24.1868421 L20.7605263,24.1868421 C20.7531579,24.1868421 20.4805263,24.0247368 20.1526316,23.8257895 L20.1526316,23.8257895 Z M31.1684211,27.7273684 C28.4789474,27.2373684 26.0731579,26.5594737 23.8110526,25.6531579 L23.8110526,25.6531579 C23.1773684,25.4026316 22.2710526,24.9936842 22.2194737,24.9457895 L22.2194737,24.9457895 C22.1973684,24.9310526 22.7426316,24.6805263 23.4278947,24.3784211 L23.4278947,24.3784211 C27.5468421,22.5768421 31.8168421,20.5357895 33.2831579,19.6552632 L33.2831579,19.6552632 C33.4563158,19.5447368 33.5926316,19.4931579 33.6184211,19.4931579 L33.6184211,19.4931579 C33.6294737,19.6994737 33.1689474,21.5673684 32.7857895,22.9121053 L32.7857895,22.9121053 C32.4726316,24.0468421 32.2,24.9310526 31.6989474,26.4968421 L31.6989474,26.4968421 C31.4815789,27.1821053 31.2936842,27.7531579 31.2826316,27.7531579 L31.2826316,27.7531579 C31.2752632,27.7531579 31.22,27.7457895 31.1684211,27.7273684 L31.1684211,27.7273684 Z M7.16947368,27.6352632 C6.69052632,27.2373684 5.85789474,26.3863158 5.48578947,25.9147368 L5.48578947,25.9147368 C4.70842105,24.9457895 4.18526316,23.9252632 3.97526316,22.9931579 L3.97526316,22.9931579 C3.87578947,22.5621053 3.87578947,22.3410526 3.96789474,22.3152632 L3.96789474,22.3152632 C4.10052632,22.2784211 6.51736842,21.7073684 8.78315789,21.1842105 L8.78315789,21.1842105 C10.0394737,20.8968421 11.4947368,20.5505263 12.0178947,20.4252632 L12.0178947,20.4252632 C12.5484211,20.2963158 12.9721053,20.2005263 12.9794737,20.2005263 L12.9794737,20.2005263 C12.9978947,20.2152632 11.8521053,21.8731579 10.2347368,24.1242105 L10.2347368,24.1242105 C9.67842105,24.9126316 9.02631579,25.8373684 8.78315789,26.18 L8.78315789,26.18 C8.53631579,26.5226316 8.16789474,27.0678947 7.95789474,27.3921053 L7.95789474,27.3921053 L7.57473684,27.9815789 L7.16947368,27.6352632 Z M8.19368421,28.4494737 L8.03157895,28.3315789 L8.29315789,27.9521053 C9.14421053,26.7215789 10.2089474,25.3731579 12.5373684,22.5694737 L12.5373684,22.5694737 L14.1363158,20.6389474 L14.4273684,20.9668421 C15.7315789,22.4257895 17.0578947,23.5015789 18.6715789,24.4410526 L18.6715789,24.4410526 C18.9589474,24.6068421 19.18,24.7468421 19.1578947,24.7578947 L19.1578947,24.7578947 C19.0952632,24.8057895 13.5689474,26.7694737 11.0084211,27.6536842 L11.0084211,27.6536842 C9.56789474,28.1621053 8.38157895,28.5673684 8.37052632,28.5673684 L8.37052632,28.5673684 C8.36684211,28.5673684 8.28210526,28.5157895 8.19368421,28.4494737 L8.19368421,28.4494737 Z M16.6563158,32.1889474 C16.6563158,32.1705263 16.87,31.8905263 17.1315789,31.5810526 L17.1315789,31.5810526 C18.4357895,30.0226316 19.7289474,28.2873684 20.8047368,26.6368421 L20.8047368,26.6368421 C21.1031579,26.1873684 21.3573684,25.8189474 21.3573684,25.8078947 L21.3573684,25.8078947 C21.3647368,25.8005263 21.7663158,25.9442105 22.2563158,26.1247368 L22.2563158,26.1247368 C23.4278947,26.5705263 24.36,26.8468421 25.6126316,27.1673684 L25.6126316,27.1673684 C27.1489474,27.5542105 29.3742105,27.9336842 30.6857895,28.0442105 L30.6857895,28.0442105 C30.8847368,28.0626316 30.9952632,28.0773684 30.9584211,28.1068421 L30.9584211,28.1068421 C30.8957895,28.14 29.5621053,28.5857895 28.5894737,28.8915789 L28.5894737,28.8915789 C27.0347368,29.3815789 22.2821053,30.7815789 18.41,31.8978947 L18.41,31.8978947 C17.6915789,32.1078947 17.08,32.2773684 17.0431579,32.2847368 L17.0431579,32.2847368 C17.0321053,32.2884211 17.0210526,32.2884211 17.01,32.2884211 L17.01,32.2884211 C16.8921053,32.2884211 16.6563158,32.2184211 16.6563158,32.1889474 L16.6563158,32.1889474 Z M15.8015789,31.9863158 C15.4773684,31.8978947 13.1857895,31.0910526 12.5815789,30.8478947 L12.5815789,30.8478947 C11.83,30.5494737 11.0526316,30.1847368 10.4742105,29.8826316 L10.4742105,29.8826316 C9.74842105,29.4921053 8.84578947,28.9136842 8.91578947,28.8915789 L8.91578947,28.8915789 C8.93421053,28.8878947 10.1721053,28.5526316 11.6678947,28.14 L11.6678947,28.14 C15.6321053,27.0678947 17.8278947,26.4415789 19.2684211,25.9884211 L19.2684211,25.9884211 C19.53,25.9110526 19.7584211,25.8447368 19.7657895,25.8521053 L19.7657895,25.8521053 C19.7768421,25.8631579 19.1321053,26.8947368 18.0121053,28.6668421 L18.0121053,28.6668421 C17.5294737,29.4184211 16.9952632,30.2694737 16.8073684,30.5678947 L16.8073684,30.5678947 C16.6231579,30.8552632 16.3578947,31.3121053 16.1994737,31.5626316 L16.1994737,31.5626316 L15.9378947,32.0231579 L15.8015789,31.9863158 Z M28.8510526,34.2963158 C28.6926316,34.2889474 26.5705263,33.9905263 25.2773684,33.7989474 L25.2773684,33.7989474 C23.0226316,33.4563158 19.2426316,32.7931579 18.2884211,32.5757895 L18.2884211,32.5757895 L18.0747368,32.5315789 L19.4231579,32.2221053 C22.3189474,31.5736842 23.7115789,31.2163158 25.1226316,30.7815789 L25.1226316,30.7815789 C26.9057895,30.2436842 28.6668421,29.5621053 30.4536842,28.7294737 L30.4536842,28.7294737 C30.7336842,28.6042105 30.9694737,28.5047368 31.0321053,28.4936842 L31.0321053,28.4936842 L31.0394737,28.4936842 C31.0763158,28.5857895 29.6136842,32.6568421 29.0757895,33.9426316 L29.0757895,33.9426316 C28.9652632,34.2152632 28.9173684,34.2963158 28.8621053,34.2963158 L28.8621053,34.2963158 C28.8584211,34.2963158 28.8547368,34.2963158 28.8510526,34.2963158 L28.8510526,34.2963158 Z" id="path-1"></path>
        <linearGradient x1="25.8967422%" y1="76.4204942%" x2="38.3433139%" y2="69.6805135%" id="linearGradient-3">
            <stop stop-color="#9FA0A0" offset="0%"></stop>
            <stop stop-color="#F1F1F1" offset="100%"></stop>
        </linearGradient>
        <path d="M13.2373684,0.781052632 C12.9168421,0.803157895 9.8,1.93052632 7.77,2.75578947 L7.77,2.75578947 C4.97368421,3.89421053 2.80368421,4.98105263 1.46263158,5.92052632 L1.46263158,5.92052632 C0.965263158,6.27421053 0.342631579,6.90052632 0.243157895,7.14 L0.243157895,7.14 C0.206315789,7.23578947 0.191578947,7.33894737 0.191578947,7.44947368 L0.191578947,7.44947368 L1.4,8.59894737 L4.28842105,9.52368421 L11.1557895,10.7505263 L19.0105263,12.1026316 L19.0915789,11.4210526 C19.0657895,11.4210526 19.0473684,11.4136842 19.0178947,11.4136842 L19.0178947,11.4136842 L17.99,11.2478947 L17.78,10.8831579 C16.7115789,8.99684211 15.5363158,6.66473684 14.8473684,5.08789474 L14.8473684,5.08789474 C14.3168421,3.86842105 13.8084211,2.45736842 13.5284211,1.44052632 L13.5284211,1.44052632 C13.37,0.828947368 13.3552632,0.788421053 13.2557895,0.781052632 L13.2557895,0.781052632 L13.2373684,0.781052632 Z M14.0257895,6.43631579 C13.0973684,6.18210526 8.96736842,5.47105263 5.96842105,5.05105263 L5.96842105,5.05105263 C5.49315789,4.98842105 5.08421053,4.92578947 5.08421053,4.91473684 L5.08421053,4.91473684 C5.04736842,4.87789474 7.24684211,3.72842105 8.21578947,3.27894737 L8.21578947,3.27894737 C9.45368421,2.70789474 12.8578947,1.28947368 13.1084211,1.24157895 L13.1084211,1.24157895 L13.1194737,1.24157895 C13.1305263,1.25263158 13.1673684,1.50315789 13.2005263,1.80157895 L13.2005263,1.80157895 C13.3552632,3.06894737 13.6352632,4.29210526 14.0810526,5.61105263 L14.0810526,5.61105263 C14.3205263,6.32210526 14.3868421,6.49894737 14.2652632,6.49894737 L14.2652632,6.49894737 C14.2173684,6.49894737 14.1363158,6.46947368 14.0257895,6.43631579 L14.0257895,6.43631579 Z M9.44631579,9.85526316 L9.08526316,9.80368421 L8.17894737,8.91578947 C6.58736842,7.36473684 5.33842105,6.17473684 4.85947368,5.72157895 L4.85947368,5.72157895 L4.38789474,5.29421053 L4.74157895,5.41210526 C6.66105263,6.06789474 11.48,6.98894737 14.1436842,7.20631579 L14.1436842,7.20631579 C14.4421053,7.23578947 14.6926316,7.26157895 14.7036842,7.26157895 L14.7036842,7.26157895 C14.7147368,7.26894737 14.4568421,7.40157895 14.1326316,7.56 L14.1326316,7.56 C12.8505263,8.20105263 11.4394737,8.98947368 10.4594737,9.59368421 L10.4594737,9.59368421 C10.1721053,9.77421053 9.90684211,9.92157895 9.87368421,9.92157895 L9.87368421,9.92157895 C9.83684211,9.92157895 9.64526316,9.88473684 9.44631579,9.85526316 L9.44631579,9.85526316 Z M4.32157895,8.90473684 C3.33789474,8.68 2.93263158,8.56947368 2.32473684,8.38157895 L2.32473684,8.38157895 L1.82368421,8.21947368 L1.82368421,8.09421053 C1.83473684,7.48631579 2.60473684,6.58 3.90894737,5.65894737 L3.90894737,5.65894737 L4.02315789,5.57789474 L5.30526316,7.16578947 C6.00157895,8.04631579 6.70157895,8.90473684 6.86,9.09631579 L6.86,9.09631579 C7.01105263,9.28789474 7.14,9.43894737 7.13263158,9.45 L7.13263158,9.45 C7.12894737,9.45 7.12526316,9.45 7.12157895,9.45 L7.12157895,9.45 C6.96684211,9.45 5.25,9.11473684 4.32157895,8.90473684 L4.32157895,8.90473684 Z M15.4810526,10.85 C12.4121053,10.3526316 11.4284211,10.1905263 11.4284211,10.1721053 L11.4284211,10.1721053 C11.4284211,10.1647368 11.5168421,10.1021053 11.6384211,10.0394737 L11.6384211,10.0394737 C12.5852632,9.51263158 13.5431579,8.84210526 14.3942105,8.12736842 L14.3942105,8.12736842 C14.6042105,7.95789474 14.7921053,7.79578947 14.8289474,7.76263158 L14.8289474,7.76263158 C14.84,7.74789474 14.8584211,7.73684211 14.8657895,7.74789474 L14.8657895,7.74789474 C14.9026316,7.74789474 14.9505263,7.83263158 15.0573684,8.07210526 L15.0573684,8.07210526 C15.3631579,8.75368421 16.3210526,10.5810526 16.5568421,10.9347368 L16.5568421,10.9347368 C16.59,10.9863158 16.6342105,11.0157895 16.5605263,11.0157895 L16.5605263,11.0157895 C16.4684211,11.0157895 16.1921053,10.9678947 15.4810526,10.85 L15.4810526,10.85 Z" id="path-4"></path>
        <linearGradient x1="0.15634308%" y1="49.9902831%" x2="18.5851988%" y2="49.9902831%" id="linearGradient-6">
            <stop stop-color="#A2A2A3" offset="0%"></stop>
            <stop stop-color="#E3E3E3" offset="100%"></stop>
        </linearGradient>
        <path d="M7.66684211,4.11894737 C7.78473684,4.41 8.13105263,4.76 8.51789474,5.12473684 L8.51789474,5.12473684 C8.51789474,5.12473684 12.5410526,9.05210526 13.0347368,9.61210526 L13.0347368,9.61210526 C15.26,12.18 16.2252632,14.7147368 16.3173684,18.2036842 L16.3173684,18.2036842 C16.3726316,20.4510526 15.9452632,22.4221053 14.8878947,24.7136842 L14.8878947,24.7136842 C13.0089474,28.8178947 9.03,33.3568421 2.90684211,38.3857895 L2.90684211,38.3857895 L3.80210526,38.0873684 C4.38421053,37.6526316 5.16894737,37.1921053 7.01473684,36.1789474 L7.01473684,36.1789474 C11.2773684,33.8431579 16.0742105,31.6989474 21.9542105,29.4921053 L21.9542105,29.4921053 C30.4205263,26.3052632 44.3468421,22.5805263 52.2752632,21.3647368 L52.2752632,21.3647368 L53.0968421,21.2394737 L52.9715789,21.0405263 C52.2494737,19.9168421 51.7521053,19.2205263 51.1552632,18.4763158 L51.1552632,18.4763158 C49.4163158,16.3247368 47.3089474,14.5784211 44.73,13.1305263 L44.73,13.1305263 C41.1821053,11.1484211 36.5952632,9.60105263 30.7852632,8.45526316 L30.7852632,8.45526316 C29.6910526,8.23421053 27.2852632,7.82157895 25.3289474,7.52315789 L25.3289474,7.52315789 C21.1842105,6.87842105 18.5094737,6.43631579 15.5584211,5.93157895 L15.5584211,5.93157895 C14.5010526,5.74736842 12.9131579,5.47473684 11.8668421,5.24631579 L11.8668421,5.24631579 C11.3215789,5.13210526 10.2826316,4.88526316 9.46473684,4.60894737 L9.46473684,4.60894737 C8.81631579,4.35105263 7.87315789,4.10052632 7.67421053,3.33052632 L7.67421053,3.33052632 C7.67421053,3.33052632 7.47526316,3.64736842 7.66684211,4.11894737 L7.66684211,4.11894737 Z M15.1236842,11.2221053 C14.0663158,9.35789474 12.39,7.46421053 10.4521053,5.94631579 L10.4521053,5.94631579 C10.1978947,5.76578947 10.01,5.60368421 10.01,5.59263158 L10.01,5.59263158 C10.0210526,5.58526316 10.1610526,5.64052632 10.3563158,5.70315789 L10.3563158,5.70315789 C10.6952632,5.81736842 11.1410526,5.95736842 11.6642105,6.10105263 L11.6642105,6.10105263 C12.0621053,6.20789474 12.46,6.31473684 12.8615789,6.41789474 L12.8615789,6.41789474 C13.4031579,6.55421053 13.8563158,6.67947368 13.8673684,6.67947368 L13.8673684,6.67947368 C13.93,6.74210526 14.84,9.66368421 15.1494737,10.7873684 L15.1494737,10.7873684 C15.2636842,11.2110526 15.3594737,11.5721053 15.3484211,11.5721053 L15.3484211,11.5721053 C15.3484211,11.5757895 15.3484211,11.5757895 15.3484211,11.5757895 L15.3484211,11.5757895 C15.3336842,11.5757895 15.2342105,11.4247368 15.1236842,11.2221053 L15.1236842,11.2221053 Z M14.4642105,6.82684211 C14.5084211,6.82684211 14.7036842,6.85263158 14.9505263,6.90421053 L14.9505263,6.90421053 C16.4868421,7.25052632 19.2463158,7.77368421 21.0110526,8.07210526 L21.0110526,8.07210526 C21.3094737,8.12 21.5452632,8.17157895 21.5452632,8.19 L21.5452632,8.19 C21.5452632,8.20842105 21.4384211,8.27105263 21.3021053,8.34473684 L21.3021053,8.34473684 C21.0036842,8.49578947 19.8026316,9.21421053 19.4047368,9.48315789 L19.4047368,9.48315789 C18.3989474,10.1536842 17.4926316,10.8757895 16.8405263,11.5278947 L16.8405263,11.5278947 C16.5826316,11.7931579 16.3542105,12.0068421 16.3542105,12.0068421 L16.3542105,12.0068421 C16.3542105,12.0068421 16.2989474,11.8557895 16.2547368,11.6642105 L16.2547368,11.6642105 C15.9268421,10.4078947 15.2489474,8.54368421 14.6336842,7.22842105 L14.6336842,7.22842105 C14.5452632,7.04421053 14.4715789,6.87473684 14.4568421,6.82684211 L14.4568421,6.82684211 C14.4568421,6.82684211 14.4605263,6.82684211 14.4642105,6.82684211 L14.4642105,6.82684211 Z M22.5068421,14.1805263 C21.5378947,13.8710526 19.9647368,13.4105263 18.6126316,13.0310526 L18.6126316,13.0310526 C17.8463158,12.8247368 17.22,12.6368421 17.22,12.6147368 L17.22,12.6147368 C17.22,12.5594737 18.3436842,11.4394737 18.8226316,11.0121053 L18.8226316,11.0121053 C19.7363158,10.2089474 22.2157895,8.28947368 22.2968421,8.31894737 L22.2968421,8.31894737 C22.3557895,8.33368421 22.4442105,8.64315789 22.6247368,9.32105263 L22.6247368,9.32105263 C22.9563158,10.6326316 23.1110526,12.0989474 23.0557895,13.4657895 L23.0557895,13.4657895 C23.0410526,13.8452632 23.0226316,14.1989474 23.0042105,14.2431579 L23.0042105,14.2431579 L22.9784211,14.3315789 L22.5068421,14.1805263 Z M24.01,13.6205263 C24.01,11.9 23.6636842,10.1647368 23.03,8.69842105 L23.03,8.69842105 C22.9673684,8.55473684 22.9121053,8.41842105 22.9231579,8.40736842 L22.9231579,8.40736842 C22.9526316,8.38157895 26.6663158,9.02263158 28.3610526,9.35052632 L28.3610526,9.35052632 C29.6210526,9.59368421 31.4447368,9.97315789 31.5552632,10.0173684 L31.5552632,10.0173684 C31.6068421,10.0357895 31.4189474,10.1463158 30.8110526,10.4152632 L30.8110526,10.4152632 C28.4236842,11.4947368 26.6515789,12.4636842 24.8831579,13.6352632 L24.8831579,13.6352632 C24.4263158,13.9447368 24.0357895,14.1989474 24.0247368,14.1989474 L24.0247368,14.1989474 C24.0136842,14.1989474 24.01,13.9336842 24.01,13.6205263 L24.01,13.6205263 Z M29.1384211,17.0578947 C28.0921053,16.4426316 26.8947368,15.8605263 25.5905263,15.3189474 L25.5905263,15.3189474 C25.2294737,15.1642105 24.9126316,15.0426316 24.9052632,15.0205263 L24.9052632,15.0205263 C24.8426316,14.9652632 27.7568421,13.0384211 29.2931579,12.1173684 L29.2931579,12.1173684 C30.5163158,11.3731579 32.5021053,10.2715789 32.5389474,10.3084211 L32.5389474,10.3084211 C32.5684211,10.3342105 32.4505263,11.0710526 32.34,11.5021053 L32.34,11.5021053 C32.0157895,12.8505263 31.1389474,14.8510526 30.0594737,16.73 L30.0594737,16.73 C29.8715789,17.0652632 29.6984211,17.3378947 29.6836842,17.3452632 L29.6836842,17.3452632 C29.68,17.3452632 29.68,17.3489474 29.68,17.3489474 L29.68,17.3489474 C29.6468421,17.3489474 29.4110526,17.2163158 29.1384211,17.0578947 L29.1384211,17.0578947 Z M31.4189474,16.7484211 C32.3878947,14.6963158 33.0105263,12.5521053 33.1652632,10.7210526 L33.1652632,10.7210526 C33.1726316,10.5515789 33.2021053,10.4152632 33.2315789,10.4152632 L33.2315789,10.4152632 C33.3089474,10.4152632 34.9557895,10.8684211 35.8178947,11.1226316 L35.8178947,11.1226316 C37.9436842,11.7563158 40.3863158,12.6515789 41.9815789,13.3736842 L41.9815789,13.3736842 L42.6410526,13.6721053 L42.1768421,13.7826316 C38.2863158,14.6778947 34.9557895,15.7094737 31.7431579,17.01 L31.7431579,17.01 C31.4815789,17.1205263 31.2457895,17.2089474 31.2273684,17.2089474 L31.2273684,17.2089474 C31.2089474,17.2089474 31.3010526,17.0026316 31.4189474,16.7484211 L31.4189474,16.7484211 Z M17.0063158,20.1194737 C17.2126316,18.5978947 17.1684211,16.6415789 16.8810526,14.6594737 L16.8810526,14.6594737 C16.8515789,14.4089474 16.8221053,14.1915789 16.8294737,14.1805263 L16.8294737,14.1805263 C16.8589474,14.1547368 18.1152632,14.4531579 18.7968421,14.6410526 L18.7968421,14.6410526 C19.8284211,14.9284211 22.0168421,15.6652632 22.0168421,15.7168421 L22.0168421,15.7168421 C22.0168421,15.7278947 21.7736842,15.9378947 21.4826316,16.1884211 L21.4826316,16.1884211 C20.3,17.1757895 19.1578947,18.2147368 17.7910526,19.5373684 L17.7910526,19.5373684 C17.3857895,19.9278947 17.0394737,20.2447368 17.0210526,20.2447368 L17.0210526,20.2447368 C17.0063158,20.2447368 16.9952632,20.1894737 17.0063158,20.1194737 L17.0063158,20.1194737 Z M35.8694737,23.24 C34.86,21.7184211 33.6442105,20.3884211 32.2073684,19.1947368 L32.2073684,19.1947368 C31.9347368,18.9663158 31.6363158,18.7231579 31.5368421,18.6494737 L31.5368421,18.6494737 C31.4373684,18.5757895 31.3526316,18.5057895 31.3526316,18.4984211 L31.3526316,18.4984211 C31.3526316,18.4726316 32.8926316,17.8057895 34.0605263,17.3378947 L34.0605263,17.3378947 C36.1052632,16.5089474 38.8942105,15.5105263 40.9831579,14.8657895 L40.9831579,14.8657895 C42.0773684,14.5268421 43.2452632,14.1915789 43.2636842,14.2063158 L43.2636842,14.2063158 C43.2784211,14.2247368 42.6815789,15.1642105 42.3057895,15.7021053 L42.3057895,15.7021053 C41.7605263,16.4794737 40.9647368,17.5110526 39.1668421,19.7694737 L39.1668421,19.7694737 C38.2126316,20.9668421 37.1478947,22.3152632 36.7905263,22.7684211 L36.7905263,22.7684211 C36.4294737,23.2178947 36.1310526,23.6010526 36.1236842,23.6010526 L36.1236842,23.6010526 C36.1163158,23.6010526 35.9984211,23.4389474 35.8694737,23.24 L35.8694737,23.24 Z M43.96,14.3905263 C43.9968421,14.3794737 44.2105263,14.49 44.4757895,14.6410526 L44.4757895,14.6410526 C46.6752632,15.9010526 48.8268421,17.5184211 50.5289474,19.1836842 L50.5289474,19.1836842 C51.0078947,19.6552632 52.1942105,20.8857895 52.1757895,20.8931579 L52.1757895,20.8931579 C52.1757895,20.8931579 51.7594737,20.93 51.2731579,20.9668421 L51.2731579,20.9668421 C47.46,21.2578947 42.5857895,22.0610526 37.8994737,23.1921053 L37.8994737,23.1921053 C37.5789474,23.2657895 37.2989474,23.3284211 37.2805263,23.3284211 L37.2805263,23.3284211 C37.2657895,23.3284211 37.6157895,22.9784211 38.0615789,22.5510526 L38.0615789,22.5510526 C40.81,19.8984211 42.07,18.2257895 43.5510526,15.2378947 L43.5510526,15.2378947 C43.7610526,14.7957895 43.9415789,14.4163158 43.96,14.3905263 L43.96,14.3905263 C43.9489474,14.3905263 43.9489474,14.3905263 43.96,14.3905263 L43.96,14.3905263 C43.96,14.3905263 43.96,14.3905263 43.96,14.3905263 L43.96,14.3905263 Z M21.8731579,21.6631579 C22.6873684,20.1821053 23.3394737,18.4063158 23.7115789,16.6784211 L23.7115789,16.6784211 C23.7447368,16.5457895 23.7815789,16.45 23.8073684,16.45 L23.8073684,16.45 C23.9363158,16.4794737 25.1115789,17.0321053 25.9994737,17.4742105 L25.9994737,17.4742105 C26.81,17.8794737 28.0331579,18.5352632 28.0957895,18.5868421 L28.0957895,18.5868421 C28.1068421,18.5978947 27.6721053,18.8226316 27.1378947,19.0842105 L27.1378947,19.0842105 C25.4394737,19.9352632 23.9842105,20.7421053 22.4589474,21.6631579 L22.4589474,21.6631579 C22.0278947,21.9247368 21.6631579,22.1421053 21.6557895,22.1421053 L21.6557895,22.1421053 C21.6189474,22.1421053 21.6263158,22.1089474 21.8731579,21.6631579 L21.8731579,21.6631579 Z M19.3457895,22.7942105 C18.76,22.2231579 18.2810526,21.8731579 17.6657895,21.5526316 L17.6657895,21.5526316 C17.4189474,21.4273684 17.2310526,21.3205263 17.2310526,21.3021053 L17.2310526,21.3021053 C17.2310526,21.2284211 18.7784211,19.8284211 19.9647368,18.8115789 L19.9647368,18.8115789 C20.8157895,18.0784211 22.6026316,16.6415789 22.6321053,16.6710526 L22.6321053,16.6710526 C22.6578947,16.6968421 22.3557895,17.8057895 22.1605263,18.4136842 L22.1605263,18.4136842 C21.7921053,19.5668421 21.1657895,21 20.5615789,22.0868421 L20.5615789,22.0868421 C20.4142105,22.3447368 20.2005263,22.7131579 20.0789474,22.9194737 L20.0789474,22.9194737 L19.8542105,23.2805263 L19.3457895,22.7942105 Z M23.4278947,27.1010526 C25.8152632,24.9052632 27.9336842,22.4773684 29.5105263,20.1157895 L29.5105263,20.1157895 L29.8236842,19.6294737 L30.2694737,19.9168421 C31.2826316,20.5763158 32.4763158,21.4568421 33.3936842,22.2231579 L33.3936842,22.2231579 C33.9057895,22.6505263 34.9005263,23.5457895 35.0994737,23.7631579 L35.0994737,23.7631579 L35.21,23.8810526 L34.4768421,24.0873684 C30.3321053,25.2368421 27.1305263,26.2610526 23.3910526,27.6352632 L23.3910526,27.6352632 C22.9784211,27.7863158 22.6247368,27.9152632 22.5952632,27.9152632 L22.5952632,27.9152632 C22.5915789,27.9152632 22.5842105,27.9152632 22.5805263,27.9152632 L22.5805263,27.9152632 C22.54,27.9152632 22.5878947,27.8784211 23.4278947,27.1010526 L23.4278947,27.1010526 Z M21.5305263,27.9336842 C21.5305263,26.8394737 21.2468421,25.6715789 20.7605263,24.6768421 L20.7605263,24.6768421 C20.5505263,24.2605263 20.5173684,24.1610526 20.5615789,24.1168421 L20.5615789,24.1168421 C20.7347368,23.9621053 23.3652632,22.4589474 25.0305263,21.5636842 L25.0305263,21.5636842 C26.1505263,20.9668421 27.9078947,20.0789474 27.9336842,20.0973684 L27.9336842,20.0973684 C27.9521053,20.1194737 26.7142105,21.8621053 25.97,22.8494737 L25.97,22.8494737 C25.0857895,24.0247368 23.5089474,25.9994737 22.4257895,27.2815789 L22.4257895,27.2815789 C21.9726316,27.8194737 21.5821053,28.2578947 21.5636842,28.2689474 L21.5636842,28.2689474 C21.5636842,28.2689474 21.5636842,28.2689474 21.5636842,28.2689474 L21.5636842,28.2689474 C21.5378947,28.2689474 21.5305263,28.1363158 21.5305263,27.9336842 L21.5305263,27.9336842 Z M14.3426316,27.3442105 C14.9394737,26.4305263 15.2378947,25.9184211 15.5584211,25.2589474 L15.5584211,25.2589474 C15.8347368,24.6694737 16.1184211,23.9731579 16.3173684,23.3652632 L16.3173684,23.3652632 C16.3910526,23.1036842 16.4794737,22.9047368 16.4978947,22.9047368 L16.4978947,22.9047368 C16.5236842,22.9047368 16.7336842,23.0115789 16.9694737,23.1405263 L16.9694737,23.1405263 C17.5478947,23.4536842 18.0636842,23.8073684 18.5242105,24.1868421 L18.5242105,24.1868421 C18.5426316,24.2052632 18.3068421,24.3968421 18.0010526,24.6215789 L18.0010526,24.6215789 C17.1389474,25.2368421 15.8347368,26.2242105 15.0794737,26.8284211 L15.0794737,26.8284211 C14.5231579,27.2705263 14.3426316,27.4142105 14.3131579,27.4142105 L14.3131579,27.4142105 C14.2984211,27.4142105 14.3168421,27.3847368 14.3426316,27.3442105 L14.3426316,27.3442105 Z M11.7194737,32.4763158 C11.7194737,32.4652632 11.9994737,32.2626316 12.3421053,32.0047368 L12.3421053,32.0047368 C15.05,30.0410526 17.3931579,27.8894737 19.1468421,25.7342105 L19.1468421,25.7342105 C19.3384211,25.5094737 19.5078947,25.2994737 19.53,25.2921053 L19.53,25.2921053 L19.5447368,25.2921053 C19.5926316,25.2847368 19.6478947,25.3657895 19.8910526,25.7268421 L19.8910526,25.7268421 C20.4031579,26.4931579 20.8047368,27.5247368 20.9042105,28.3573684 L20.9042105,28.3573684 L20.9226316,28.5415789 L19.6810526,29.0205263 C17.4631579,29.8789474 15.4221053,30.73 14.0331579,31.3636842 L14.0331579,31.3636842 C13.6463158,31.5442105 12.9721053,31.8684211 12.5263158,32.0894737 L12.5263158,32.0894737 C12.0915789,32.3105263 11.7342105,32.4763158 11.7194737,32.4763158 L11.7194737,32.4763158 C11.7194737,32.4763158 11.7194737,32.4763158 11.7194737,32.4763158 L11.7194737,32.4763158 Z M11.2405263,31.3563158 C11.8373684,30.7115789 12.2905263,30.17 12.8063158,29.4994737 L12.8063158,29.4994737 C13.1489474,29.0536842 13.2115789,28.9910526 13.7089474,28.6410526 L13.7089474,28.6410526 C15.0426316,27.6831579 18.1115789,25.6015789 18.1484211,25.6347368 L18.1484211,25.6347368 C18.1778947,25.6715789 17.15,26.8394737 16.4426316,27.5542105 L16.4426316,27.5542105 C14.6963158,29.3373684 12.9721053,30.73 10.8242105,32.0894737 L10.8242105,32.0894737 C10.5552632,32.2626316 10.3084211,32.4136842 10.2826316,32.4321053 L10.2826316,32.4321053 C10.2752632,32.4357895 10.2678947,32.4357895 10.2678947,32.4357895 L10.2678947,32.4357895 C10.2457895,32.4357895 10.4042105,32.2663158 11.2405263,31.3563158 L11.2405263,31.3563158 Z" id="path-7"></path>
        <radialGradient cx="44.3479035%" cy="43.8818613%" fx="44.3479035%" fy="43.8818613%" r="12.8101243%" gradientTransform="translate(0.443479,0.438819),scale(0.698451,1.000000),rotate(-171.457413),scale(1.000000,2.000498),translate(-0.443479,-0.438819)" id="radialGradient-9">
            <stop stop-color="#E0382F" offset="0%"></stop>
            <stop stop-color="#A12224" offset="100%"></stop>
        </radialGradient>
    </defs>
    <g id="mssql" stroke="none" stroke-width="1" fill="none" fill-rule="evenodd">
        <g id="Group-18" transform="translate(10.000000, 8.000000)">
            <g id="Group-6" transform="translate(0.526316, 27.114053)">
                <mask id="mask-2" fill="white">
                    <use xlink:href="#path-1"></use>
                </mask>
                <g id="Clip-5"></g>
                <path d="M24.6805263,6.80842105 L14.2652632,11.4026316 L11.3510526,12.1726316 C10.6105263,12.8763158 9.82947368,13.5910526 8.98947368,14.3168421 L8.98947368,14.3168421 C8.06842105,15.1126316 7.20631579,15.8384211 6.54684211,16.3615789 L6.54684211,16.3615789 C5.81368421,16.94 4.72684211,18.0268421 4.17421053,18.7121053 L4.17421053,18.7121053 C3.35263158,19.7436842 2.69684211,20.8378947 2.42052632,21.6815789 L2.42052632,21.6815789 C1.92315789,23.2031579 2.16997531,24.7431579 3.12789474,26.1615789 L3.12789474,26.1615789 C4.35473684,27.9705263 6.80842105,29.82 9.66368421,31.0763158 L9.66368421,31.0763158 C11.1226316,31.7136842 13.5726316,32.5426316 15.4257895,33.0031579 L15.4257895,33.0031579 C18.4910526,33.7805263 24.4226316,34.6242105 27.6942105,34.7494737 L27.6942105,34.7494737 C28.3536842,34.7752632 29.2378947,34.7752632 29.2747368,34.7494737 L29.2747368,34.7494737 C29.3484211,34.7015789 29.8568421,33.7326316 30.4426316,32.5315789 L30.4426316,32.5315789 C32.4505263,28.4310526 33.9021053,24.5847368 34.6868421,21.3021053 L34.6868421,21.3021053 C35.1584211,19.3126316 35.5268421,16.6563158 35.7736842,13.5210526 L35.7736842,13.5210526 C35.8363158,12.6442105 35.8621053,9.70052632 35.8105263,8.70578947 L35.8105263,8.70578947 C35.7257895,7.07736842 35.5821053,5.75473684 35.3573684,4.46157895 L35.3573684,4.46157895 C35.3205263,4.27368421 35.3094737,4.10052632 35.3278947,4.09315789 L35.3278947,4.09315789 C35.3647368,4.06368421 35.4752632,4.02684211 36.9489474,3.60315789 L36.9489474,3.60315789 L36.6505263,2.89578947 L24.6805263,6.80842105 Z M31.8131579,8.13473684 C30.9068421,7.56736842 29.1863158,6.42526316 28.9136842,6.21157895 L28.9136842,6.21157895 C28.8252632,6.14894737 28.8326316,6.13789474 29.5731579,5.88368421 L29.5731579,5.88368421 C30.8294737,5.45631579 33.8173684,4.49842105 33.9168421,4.49842105 L33.9168421,4.49842105 C34.0273684,4.49842105 34.3147368,7.27631579 34.3884211,9.03 L34.3884211,9.03 C34.4031579,9.40210526 34.3994737,9.64894737 34.3773684,9.64894737 L34.3773684,9.64894737 C34.3073684,9.64894737 32.8484211,8.78684211 31.8131579,8.13473684 L31.8131579,8.13473684 Z M26.7621053,13.7936842 C27.3663158,11.5389474 27.7089474,9.25842105 27.7310526,7.43105263 L27.7310526,7.43105263 C27.7347368,6.52473684 27.7347368,6.52473684 27.8194737,6.49894737 L27.8194737,6.49894737 C27.8010526,6.51 27.8084211,6.51 27.8194737,6.51 L27.8194737,6.51 C27.9005263,6.51 28.1068421,6.62421053 28.6042105,6.93368421 L28.6042105,6.93368421 C30.4684211,8.10157895 33.0031579,9.51263158 34.09,9.98421053 L34.09,9.98421053 C34.4252632,10.1278947 34.4621053,10.0726316 33.6921053,10.5957895 L33.6921053,10.5957895 C32.0452632,11.7194737 29.9894737,12.8247368 27.4731579,13.9373684 L27.4731579,13.9373684 C27.0347368,14.1363158 26.6626316,14.2873684 26.6515789,14.2873684 L26.6515789,14.2873684 C26.6368421,14.2873684 26.6884211,14.0663158 26.7621053,13.7936842 L26.7621053,13.7936842 Z M23.7852632,12.5521053 C23.0778947,11.7378947 22.5252632,10.92 22.12,10.1278947 L22.12,10.1278947 C21.91,9.71894737 21.5857895,8.92684211 21.6115789,8.89736842 L21.6115789,8.89736842 C21.7552632,8.79789474 26.5263158,6.94842105 26.5594737,6.98526316 L26.5594737,6.98526316 C26.6147368,7.04052632 26.5778947,9.06684211 26.5078947,9.62315789 L26.5078947,9.62315789 C26.3421053,10.9421053 26.0915789,12.1726316 25.6752632,13.5578947 L25.6752632,13.5578947 C25.5757895,13.8894737 25.4836842,14.1694737 25.4689474,14.1915789 L25.4689474,14.1915789 C25.4689474,14.1915789 25.4652632,14.1915789 25.4652632,14.1915789 L25.4652632,14.1915789 C25.3878947,14.1915789 24.1831579,13.0126316 23.7852632,12.5521053 L23.7852632,12.5521053 Z M16.3836842,17.6731579 C17.4410526,16.0189474 19.0473684,12.7694737 19.9573684,10.4705263 L19.9573684,10.4705263 C20.1084211,10.0726316 20.2668421,9.67473684 20.2926316,9.58631579 L20.2926316,9.58631579 C20.3294737,9.45736842 20.37,9.41315789 20.4878947,9.35052632 L20.4878947,9.35052632 C20.5505263,9.33210526 20.6168421,9.31368421 20.6426316,9.31368421 L20.6426316,9.31368421 C20.6536842,9.31368421 20.6610526,9.31368421 20.6721053,9.32105263 L20.6721053,9.32105263 C20.6905263,9.33947368 20.7531579,9.48684211 20.8047368,9.64894737 L20.8047368,9.64894737 C21.0957895,10.4336842 21.7478947,11.5905263 22.3078947,12.3347368 L22.3078947,12.3347368 C22.9231579,13.1489474 23.7263158,14.0184211 24.3968421,14.5857895 L24.3968421,14.5857895 C24.6178947,14.7663158 24.8168421,14.9394737 24.8426316,14.9652632 L24.8426316,14.9652632 C24.8978947,15.0242105 24.9126316,15.0131579 23.4389474,15.5731579 L23.4389474,15.5731579 C21.7294737,16.2252632 19.8652632,16.8773684 17.7284211,17.5626316 L17.7284211,17.5626316 C17.22,17.7284211 16.7078947,17.8942105 16.1994737,18.0636842 L16.1994737,18.0636842 C16.1884211,18.0673684 16.1810526,18.0710526 16.1736842,18.0710526 L16.1736842,18.0710526 C16.1331579,18.0710526 16.1810526,17.99 16.3836842,17.6731579 L16.3836842,17.6731579 Z M14.1657895,17.8536842 C13.8563158,17.2494737 13.6057895,16.4684211 13.4694737,15.7573684 L13.4694737,15.7573684 C13.3331579,15.05 13.3589474,13.8194737 13.51,13.0568421 L13.51,13.0568421 C13.6315789,12.5005263 13.6205263,12.5078947 13.8931579,12.3715789 L13.8931579,12.3715789 C15.05,11.7857895 18.7968421,10.0247368 18.8336842,10.0615789 L18.8336842,10.0615789 C18.8594737,10.0836842 18.3989474,11.0526316 17.9494737,11.9368421 L17.9494737,11.9368421 C17.0689474,13.6463158 16.1110526,15.33 14.8252632,17.3747368 L14.8252632,17.3747368 C14.6078947,17.7284211 14.4015789,18.0526316 14.3721053,18.0894737 L14.3721053,18.0894737 C14.3610526,18.1078947 14.35,18.1189474 14.3352632,18.1189474 L14.3352632,18.1189474 C14.3057895,18.1189474 14.2689474,18.0526316 14.1657895,17.8536842 L14.1657895,17.8536842 Z M33.2315789,18.3694737 C31.8757895,17.9457895 30.3984211,17.3194737 29.0684211,16.59 L29.0684211,16.59 C28.1915789,16.1073684 26.9131579,15.3226316 26.95,15.2857895 L26.95,15.2857895 C26.9610526,15.2747368 27.3368421,15.0757895 27.7826316,14.84 L27.7826316,14.84 C29.5584211,13.9189474 31.2568421,12.9242105 32.7342105,11.9368421 L32.7342105,11.9368421 C33.2831579,11.5647368 34.1157895,10.9678947 34.2963158,10.8057895 L34.2963158,10.8057895 L34.44,10.6952632 L34.44,11.0784211 C34.44,13.0936842 34.2263158,15.8642105 33.9094737,17.8831579 L33.9094737,17.8831579 C33.8542105,18.2368421 33.8063158,18.5242105 33.7989474,18.5352632 L33.7989474,18.5352632 C33.7989474,18.5352632 33.5336842,18.4615789 33.2315789,18.3694737 L33.2315789,18.3694737 Z M3.92368421,21.5452632 C4.13,20.2152632 5.14315789,18.48 6.55421053,17.0136842 L6.55421053,17.0136842 C7.49736842,16.0336842 8.24526316,15.4626316 9.53105263,14.7331579 L9.53105263,14.7331579 C10.4557895,14.2063158 11.8778947,13.4215789 11.9847368,13.3847368 L11.9847368,13.3847368 C11.9847368,13.3736842 11.9921053,13.3736842 12.0031579,13.3736842 L12.0031579,13.3736842 C12.04,13.3736842 12.0289474,13.4473684 11.9773684,13.7715789 L11.9773684,13.7715789 C11.9405263,14.0073684 11.8926316,14.4421053 11.8778947,14.7405263 L11.8778947,14.7405263 C11.8005263,16.0594737 12.0178947,17.0394737 12.67,18.3805263 L12.67,18.3805263 C12.8505263,18.7489474 12.9978947,19.0584211 12.9868421,19.0657895 L12.9868421,19.0657895 C12.9242105,19.1210526 6.93368421,20.8747368 5.05473684,21.3942105 L5.05473684,21.3942105 C4.49105263,21.5452632 4.00473684,21.6815789 3.96789474,21.6926316 L3.96789474,21.6926316 C3.95315789,21.6963158 3.94210526,21.6963158 3.93105263,21.6963158 L3.93105263,21.6963158 C3.90157895,21.6963158 3.89789474,21.6668421 3.92368421,21.5452632 L3.92368421,21.5452632 Z M22.7684211,23.4389474 C22.7684211,23.4278947 22.9305263,23.1147368 23.1405263,22.7242105 L23.1405263,22.7242105 C24.2715789,20.6021053 25.4136842,18.0268421 25.9884211,16.2326316 L25.9884211,16.2326316 C26.0657895,16.0594737 26.11,15.9084211 26.1173684,15.9010526 L26.1173684,15.9010526 C26.1284211,15.8936842 26.3421053,16.0078947 26.6073684,16.1626316 L26.6073684,16.1626316 C28.5415789,17.2863158 31.2421053,18.3252632 33.5336842,18.8594737 L33.5336842,18.8594737 L33.7436842,18.9073684 L33.4563158,19.0657895 C32.2515789,19.7363158 28.2947368,21.3831579 24.2531579,22.8936842 L24.2531579,22.8936842 C23.6636842,23.1147368 23.0889474,23.3284211 22.9784211,23.3726316 L22.9784211,23.3726316 C22.8789474,23.4131579 22.7905263,23.4389474 22.7721053,23.4389474 L22.7721053,23.4389474 C22.7684211,23.4389474 22.7684211,23.4389474 22.7684211,23.4389474 L22.7684211,23.4389474 Z M20.1526316,23.8257895 C18.2368421,22.6505263 16.5347368,21.2026316 15.4257895,19.8026316 L15.4257895,19.8026316 L15.26,19.6036842 L16.0852632,19.3752632 C19.0326316,18.5721053 21.5378947,17.7026316 24.0284211,16.6305263 L24.0284211,16.6305263 C24.3821053,16.4905263 24.6694737,16.3689474 24.6805263,16.3689474 L24.6805263,16.3689474 C24.6878947,16.38 24.6178947,16.5678947 24.5257895,16.7889474 L24.5257895,16.7889474 C23.7373684,18.6973684 22.7057895,20.7752632 21.3868421,23.1147368 L21.3868421,23.1147368 C21.0515789,23.7115789 20.7678947,24.1868421 20.7605263,24.1868421 L20.7605263,24.1868421 C20.7531579,24.1868421 20.4805263,24.0247368 20.1526316,23.8257895 L20.1526316,23.8257895 Z M31.1684211,27.7273684 C28.4789474,27.2373684 26.0731579,26.5594737 23.8110526,25.6531579 L23.8110526,25.6531579 C23.1773684,25.4026316 22.2710526,24.9936842 22.2194737,24.9457895 L22.2194737,24.9457895 C22.1973684,24.9310526 22.7426316,24.6805263 23.4278947,24.3784211 L23.4278947,24.3784211 C27.5468421,22.5768421 31.8168421,20.5357895 33.2831579,19.6552632 L33.2831579,19.6552632 C33.4563158,19.5447368 33.5926316,19.4931579 33.6184211,19.4931579 L33.6184211,19.4931579 C33.6294737,19.6994737 33.1689474,21.5673684 32.7857895,22.9121053 L32.7857895,22.9121053 C32.4726316,24.0468421 32.2,24.9310526 31.6989474,26.4968421 L31.6989474,26.4968421 C31.4815789,27.1821053 31.2936842,27.7531579 31.2826316,27.7531579 L31.2826316,27.7531579 C31.2752632,27.7531579 31.22,27.7457895 31.1684211,27.7273684 L31.1684211,27.7273684 Z M7.16947368,27.6352632 C6.69052632,27.2373684 5.85789474,26.3863158 5.48578947,25.9147368 L5.48578947,25.9147368 C4.70842105,24.9457895 4.18526316,23.9252632 3.97526316,22.9931579 L3.97526316,22.9931579 C3.87578947,22.5621053 3.87578947,22.3410526 3.96789474,22.3152632 L3.96789474,22.3152632 C4.10052632,22.2784211 6.51736842,21.7073684 8.78315789,21.1842105 L8.78315789,21.1842105 C10.0394737,20.8968421 11.4947368,20.5505263 12.0178947,20.4252632 L12.0178947,20.4252632 C12.5484211,20.2963158 12.9721053,20.2005263 12.9794737,20.2005263 L12.9794737,20.2005263 C12.9978947,20.2152632 11.8521053,21.8731579 10.2347368,24.1242105 L10.2347368,24.1242105 C9.67842105,24.9126316 9.02631579,25.8373684 8.78315789,26.18 L8.78315789,26.18 C8.53631579,26.5226316 8.16789474,27.0678947 7.95789474,27.3921053 L7.95789474,27.3921053 L7.57473684,27.9815789 L7.16947368,27.6352632 Z M8.19368421,28.4494737 L8.03157895,28.3315789 L8.29315789,27.9521053 C9.14421053,26.7215789 10.2089474,25.3731579 12.5373684,22.5694737 L12.5373684,22.5694737 L14.1363158,20.6389474 L14.4273684,20.9668421 C15.7315789,22.4257895 17.0578947,23.5015789 18.6715789,24.4410526 L18.6715789,24.4410526 C18.9589474,24.6068421 19.18,24.7468421 19.1578947,24.7578947 L19.1578947,24.7578947 C19.0952632,24.8057895 13.5689474,26.7694737 11.0084211,27.6536842 L11.0084211,27.6536842 C9.56789474,28.1621053 8.38157895,28.5673684 8.37052632,28.5673684 L8.37052632,28.5673684 C8.36684211,28.5673684 8.28210526,28.5157895 8.19368421,28.4494737 L8.19368421,28.4494737 Z M16.6563158,32.1889474 C16.6563158,32.1705263 16.87,31.8905263 17.1315789,31.5810526 L17.1315789,31.5810526 C18.4357895,30.0226316 19.7289474,28.2873684 20.8047368,26.6368421 L20.8047368,26.6368421 C21.1031579,26.1873684 21.3573684,25.8189474 21.3573684,25.8078947 L21.3573684,25.8078947 C21.3647368,25.8005263 21.7663158,25.9442105 22.2563158,26.1247368 L22.2563158,26.1247368 C23.4278947,26.5705263 24.36,26.8468421 25.6126316,27.1673684 L25.6126316,27.1673684 C27.1489474,27.5542105 29.3742105,27.9336842 30.6857895,28.0442105 L30.6857895,28.0442105 C30.8847368,28.0626316 30.9952632,28.0773684 30.9584211,28.1068421 L30.9584211,28.1068421 C30.8957895,28.14 29.5621053,28.5857895 28.5894737,28.8915789 L28.5894737,28.8915789 C27.0347368,29.3815789 22.2821053,30.7815789 18.41,31.8978947 L18.41,31.8978947 C17.6915789,32.1078947 17.08,32.2773684 17.0431579,32.2847368 L17.0431579,32.2847368 C17.0321053,32.2884211 17.0210526,32.2884211 17.01,32.2884211 L17.01,32.2884211 C16.8921053,32.2884211 16.6563158,32.2184211 16.6563158,32.1889474 L16.6563158,32.1889474 Z M15.8015789,31.9863158 C15.4773684,31.8978947 13.1857895,31.0910526 12.5815789,30.8478947 L12.5815789,30.8478947 C11.83,30.5494737 11.0526316,30.1847368 10.4742105,29.8826316 L10.4742105,29.8826316 C9.74842105,29.4921053 8.84578947,28.9136842 8.91578947,28.8915789 L8.91578947,28.8915789 C8.93421053,28.8878947 10.1721053,28.5526316 11.6678947,28.14 L11.6678947,28.14 C15.6321053,27.0678947 17.8278947,26.4415789 19.2684211,25.9884211 L19.2684211,25.9884211 C19.53,25.9110526 19.7584211,25.8447368 19.7657895,25.8521053 L19.7657895,25.8521053 C19.7768421,25.8631579 19.1321053,26.8947368 18.0121053,28.6668421 L18.0121053,28.6668421 C17.5294737,29.4184211 16.9952632,30.2694737 16.8073684,30.5678947 L16.8073684,30.5678947 C16.6231579,30.8552632 16.3578947,31.3121053 16.1994737,31.5626316 L16.1994737,31.5626316 L15.9378947,32.0231579 L15.8015789,31.9863158 Z M28.8510526,34.2963158 C28.6926316,34.2889474 26.5705263,33.9905263 25.2773684,33.7989474 L25.2773684,33.7989474 C23.0226316,33.4563158 19.2426316,32.7931579 18.2884211,32.5757895 L18.2884211,32.5757895 L18.0747368,32.5315789 L19.4231579,32.2221053 C22.3189474,31.5736842 23.7115789,31.2163158 25.1226316,30.7815789 L25.1226316,30.7815789 C26.9057895,30.2436842 28.6668421,29.5621053 30.4536842,28.7294737 L30.4536842,28.7294737 C30.7336842,28.6042105 30.9694737,28.5047368 31.0321053,28.4936842 L31.0321053,28.4936842 L31.0394737,28.4936842 C31.0763158,28.5857895 29.6136842,32.6568421 29.0757895,33.9426316 L29.0757895,33.9426316 C28.9652632,34.2152632 28.9173684,34.2963158 28.8621053,34.2963158 L28.8621053,34.2963158 C28.8584211,34.2963158 28.8547368,34.2963158 28.8510526,34.2963158 L28.8510526,34.2963158 Z" id="Fill-4" fill="url(#linearGradient-3)" mask="url(#mask-2)"></path>
            </g>
            <g id="Group-9" transform="translate(11.578947, 1.324579)">
                <mask id="mask-5" fill="white">
                    <use xlink:href="#path-4"></use>
                </mask>
                <g id="Clip-8"></g>
                <path d="M13.2373684,0.781052632 C12.9168421,0.803157895 9.8,1.93052632 7.77,2.75578947 L7.77,2.75578947 C4.97368421,3.89421053 2.80368421,4.98105263 1.46263158,5.92052632 L1.46263158,5.92052632 C0.965263158,6.27421053 0.342631579,6.90052632 0.243157895,7.14 L0.243157895,7.14 C0.206315789,7.23578947 0.191578947,7.33894737 0.191578947,7.44947368 L0.191578947,7.44947368 L1.4,8.59894737 L4.28842105,9.52368421 L11.1557895,10.7505263 L19.0105263,12.1026316 L19.0915789,11.4210526 C19.0657895,11.4210526 19.0473684,11.4136842 19.0178947,11.4136842 L19.0178947,11.4136842 L17.99,11.2478947 L17.78,10.8831579 C16.7115789,8.99684211 15.5363158,6.66473684 14.8473684,5.08789474 L14.8473684,5.08789474 C14.3168421,3.86842105 13.8084211,2.45736842 13.5284211,1.44052632 L13.5284211,1.44052632 C13.37,0.828947368 13.3552632,0.788421053 13.2557895,0.781052632 L13.2557895,0.781052632 L13.2373684,0.781052632 Z M14.0257895,6.43631579 C13.0973684,6.18210526 8.96736842,5.47105263 5.96842105,5.05105263 L5.96842105,5.05105263 C5.49315789,4.98842105 5.08421053,4.92578947 5.08421053,4.91473684 L5.08421053,4.91473684 C5.04736842,4.87789474 7.24684211,3.72842105 8.21578947,3.27894737 L8.21578947,3.27894737 C9.45368421,2.70789474 12.8578947,1.28947368 13.1084211,1.24157895 L13.1084211,1.24157895 L13.1194737,1.24157895 C13.1305263,1.25263158 13.1673684,1.50315789 13.2005263,1.80157895 L13.2005263,1.80157895 C13.3552632,3.06894737 13.6352632,4.29210526 14.0810526,5.61105263 L14.0810526,5.61105263 C14.3205263,6.32210526 14.3868421,6.49894737 14.2652632,6.49894737 L14.2652632,6.49894737 C14.2173684,6.49894737 14.1363158,6.46947368 14.0257895,6.43631579 L14.0257895,6.43631579 Z M9.44631579,9.85526316 L9.08526316,9.80368421 L8.17894737,8.91578947 C6.58736842,7.36473684 5.33842105,6.17473684 4.85947368,5.72157895 L4.85947368,5.72157895 L4.38789474,5.29421053 L4.74157895,5.41210526 C6.66105263,6.06789474 11.48,6.98894737 14.1436842,7.20631579 L14.1436842,7.20631579 C14.4421053,7.23578947 14.6926316,7.26157895 14.7036842,7.26157895 L14.7036842,7.26157895 C14.7147368,7.26894737 14.4568421,7.40157895 14.1326316,7.56 L14.1326316,7.56 C12.8505263,8.20105263 11.4394737,8.98947368 10.4594737,9.59368421 L10.4594737,9.59368421 C10.1721053,9.77421053 9.90684211,9.92157895 9.87368421,9.92157895 L9.87368421,9.92157895 C9.83684211,9.92157895 9.64526316,9.88473684 9.44631579,9.85526316 L9.44631579,9.85526316 Z M4.32157895,8.90473684 C3.33789474,8.68 2.93263158,8.56947368 2.32473684,8.38157895 L2.32473684,8.38157895 L1.82368421,8.21947368 L1.82368421,8.09421053 C1.83473684,7.48631579 2.60473684,6.58 3.90894737,5.65894737 L3.90894737,5.65894737 L4.02315789,5.57789474 L5.30526316,7.16578947 C6.00157895,8.04631579 6.70157895,8.90473684 6.86,9.09631579 L6.86,9.09631579 C7.01105263,9.28789474 7.14,9.43894737 7.13263158,9.45 L7.13263158,9.45 C7.12894737,9.45 7.12526316,9.45 7.12157895,9.45 L7.12157895,9.45 C6.96684211,9.45 5.25,9.11473684 4.32157895,8.90473684 L4.32157895,8.90473684 Z M15.4810526,10.85 C12.4121053,10.3526316 11.4284211,10.1905263 11.4284211,10.1721053 L11.4284211,10.1721053 C11.4284211,10.1647368 11.5168421,10.1021053 11.6384211,10.0394737 L11.6384211,10.0394737 C12.5852632,9.51263158 13.5431579,8.84210526 14.3942105,8.12736842 L14.3942105,8.12736842 C14.6042105,7.95789474 14.7921053,7.79578947 14.8289474,7.76263158 L14.8289474,7.76263158 C14.84,7.74789474 14.8584211,7.73684211 14.8657895,7.74789474 L14.8657895,7.74789474 C14.9026316,7.74789474 14.9505263,7.83263158 15.0573684,8.07210526 L15.0573684,8.07210526 C15.3631579,8.75368421 16.3210526,10.5810526 16.5568421,10.9347368 L16.5568421,10.9347368 C16.59,10.9863158 16.6342105,11.0157895 16.5605263,11.0157895 L16.5605263,11.0157895 C16.4684211,11.0157895 16.1921053,10.9678947 15.4810526,10.85 L15.4810526,10.85 Z" id="Fill-7" fill="url(#linearGradient-6)" mask="url(#mask-5)"></path>
            </g>
            <g id="Group-12" transform="translate(4.210526, 5.008789)">
                <mask id="mask-8" fill="white">
                    <use xlink:href="#path-7"></use>
                </mask>
                <g id="Clip-11"></g>
                <path d="M7.66684211,4.11894737 C7.78473684,4.41 8.13105263,4.76 8.51789474,5.12473684 L8.51789474,5.12473684 C8.51789474,5.12473684 12.5410526,9.05210526 13.0347368,9.61210526 L13.0347368,9.61210526 C15.26,12.18 16.2252632,14.7147368 16.3173684,18.2036842 L16.3173684,18.2036842 C16.3726316,20.4510526 15.9452632,22.4221053 14.8878947,24.7136842 L14.8878947,24.7136842 C13.0089474,28.8178947 9.03,33.3568421 2.90684211,38.3857895 L2.90684211,38.3857895 L3.80210526,38.0873684 C4.38421053,37.6526316 5.16894737,37.1921053 7.01473684,36.1789474 L7.01473684,36.1789474 C11.2773684,33.8431579 16.0742105,31.6989474 21.9542105,29.4921053 L21.9542105,29.4921053 C30.4205263,26.3052632 44.3468421,22.5805263 52.2752632,21.3647368 L52.2752632,21.3647368 L53.0968421,21.2394737 L52.9715789,21.0405263 C52.2494737,19.9168421 51.7521053,19.2205263 51.1552632,18.4763158 L51.1552632,18.4763158 C49.4163158,16.3247368 47.3089474,14.5784211 44.73,13.1305263 L44.73,13.1305263 C41.1821053,11.1484211 36.5952632,9.60105263 30.7852632,8.45526316 L30.7852632,8.45526316 C29.6910526,8.23421053 27.2852632,7.82157895 25.3289474,7.52315789 L25.3289474,7.52315789 C21.1842105,6.87842105 18.5094737,6.43631579 15.5584211,5.93157895 L15.5584211,5.93157895 C14.5010526,5.74736842 12.9131579,5.47473684 11.8668421,5.24631579 L11.8668421,5.24631579 C11.3215789,5.13210526 10.2826316,4.88526316 9.46473684,4.60894737 L9.46473684,4.60894737 C8.81631579,4.35105263 7.87315789,4.10052632 7.67421053,3.33052632 L7.67421053,3.33052632 C7.67421053,3.33052632 7.47526316,3.64736842 7.66684211,4.11894737 L7.66684211,4.11894737 Z M15.1236842,11.2221053 C14.0663158,9.35789474 12.39,7.46421053 10.4521053,5.94631579 L10.4521053,5.94631579 C10.1978947,5.76578947 10.01,5.60368421 10.01,5.59263158 L10.01,5.59263158 C10.0210526,5.58526316 10.1610526,5.64052632 10.3563158,5.70315789 L10.3563158,5.70315789 C10.6952632,5.81736842 11.1410526,5.95736842 11.6642105,6.10105263 L11.6642105,6.10105263 C12.0621053,6.20789474 12.46,6.31473684 12.8615789,6.41789474 L12.8615789,6.41789474 C13.4031579,6.55421053 13.8563158,6.67947368 13.8673684,6.67947368 L13.8673684,6.67947368 C13.93,6.74210526 14.84,9.66368421 15.1494737,10.7873684 L15.1494737,10.7873684 C15.2636842,11.2110526 15.3594737,11.5721053 15.3484211,11.5721053 L15.3484211,11.5721053 C15.3484211,11.5757895 15.3484211,11.5757895 15.3484211,11.5757895 L15.3484211,11.5757895 C15.3336842,11.5757895 15.2342105,11.4247368 15.1236842,11.2221053 L15.1236842,11.2221053 Z M14.4642105,6.82684211 C14.5084211,6.82684211 14.7036842,6.85263158 14.9505263,6.90421053 L14.9505263,6.90421053 C16.4868421,7.25052632 19.2463158,7.77368421 21.0110526,8.07210526 L21.0110526,8.07210526 C21.3094737,8.12 21.5452632,8.17157895 21.5452632,8.19 L21.5452632,8.19 C21.5452632,8.20842105 21.4384211,8.27105263 21.3021053,8.34473684 L21.3021053,8.34473684 C21.0036842,8.49578947 19.8026316,9.21421053 19.4047368,9.48315789 L19.4047368,9.48315789 C18.3989474,10.1536842 17.4926316,10.8757895 16.8405263,11.5278947 L16.8405263,11.5278947 C16.5826316,11.7931579 16.3542105,12.0068421 16.3542105,12.0068421 L16.3542105,12.0068421 C16.3542105,12.0068421 16.2989474,11.8557895 16.2547368,11.6642105 L16.2547368,11.6642105 C15.9268421,10.4078947 15.2489474,8.54368421 14.6336842,7.22842105 L14.6336842,7.22842105 C14.5452632,7.04421053 14.4715789,6.87473684 14.4568421,6.82684211 L14.4568421,6.82684211 C14.4568421,6.82684211 14.4605263,6.82684211 14.4642105,6.82684211 L14.4642105,6.82684211 Z M22.5068421,14.1805263 C21.5378947,13.8710526 19.9647368,13.4105263 18.6126316,13.0310526 L18.6126316,13.0310526 C17.8463158,12.8247368 17.22,12.6368421 17.22,12.6147368 L17.22,12.6147368 C17.22,12.5594737 18.3436842,11.4394737 18.8226316,11.0121053 L18.8226316,11.0121053 C19.7363158,10.2089474 22.2157895,8.28947368 22.2968421,8.31894737 L22.2968421,8.31894737 C22.3557895,8.33368421 22.4442105,8.64315789 22.6247368,9.32105263 L22.6247368,9.32105263 C22.9563158,10.6326316 23.1110526,12.0989474 23.0557895,13.4657895 L23.0557895,13.4657895 C23.0410526,13.8452632 23.0226316,14.1989474 23.0042105,14.2431579 L23.0042105,14.2431579 L22.9784211,14.3315789 L22.5068421,14.1805263 Z M24.01,13.6205263 C24.01,11.9 23.6636842,10.1647368 23.03,8.69842105 L23.03,8.69842105 C22.9673684,8.55473684 22.9121053,8.41842105 22.9231579,8.40736842 L22.9231579,8.40736842 C22.9526316,8.38157895 26.6663158,9.02263158 28.3610526,9.35052632 L28.3610526,9.35052632 C29.6210526,9.59368421 31.4447368,9.97315789 31.5552632,10.0173684 L31.5552632,10.0173684 C31.6068421,10.0357895 31.4189474,10.1463158 30.8110526,10.4152632 L30.8110526,10.4152632 C28.4236842,11.4947368 26.6515789,12.4636842 24.8831579,13.6352632 L24.8831579,13.6352632 C24.4263158,13.9447368 24.0357895,14.1989474 24.0247368,14.1989474 L24.0247368,14.1989474 C24.0136842,14.1989474 24.01,13.9336842 24.01,13.6205263 L24.01,13.6205263 Z M29.1384211,17.0578947 C28.0921053,16.4426316 26.8947368,15.8605263 25.5905263,15.3189474 L25.5905263,15.3189474 C25.2294737,15.1642105 24.9126316,15.0426316 24.9052632,15.0205263 L24.9052632,15.0205263 C24.8426316,14.9652632 27.7568421,13.0384211 29.2931579,12.1173684 L29.2931579,12.1173684 C30.5163158,11.3731579 32.5021053,10.2715789 32.5389474,10.3084211 L32.5389474,10.3084211 C32.5684211,10.3342105 32.4505263,11.0710526 32.34,11.5021053 L32.34,11.5021053 C32.0157895,12.8505263 31.1389474,14.8510526 30.0594737,16.73 L30.0594737,16.73 C29.8715789,17.0652632 29.6984211,17.3378947 29.6836842,17.3452632 L29.6836842,17.3452632 C29.68,17.3452632 29.68,17.3489474 29.68,17.3489474 L29.68,17.3489474 C29.6468421,17.3489474 29.4110526,17.2163158 29.1384211,17.0578947 L29.1384211,17.0578947 Z M31.4189474,16.7484211 C32.3878947,14.6963158 33.0105263,12.5521053 33.1652632,10.7210526 L33.1652632,10.7210526 C33.1726316,10.5515789 33.2021053,10.4152632 33.2315789,10.4152632 L33.2315789,10.4152632 C33.3089474,10.4152632 34.9557895,10.8684211 35.8178947,11.1226316 L35.8178947,11.1226316 C37.9436842,11.7563158 40.3863158,12.6515789 41.9815789,13.3736842 L41.9815789,13.3736842 L42.6410526,13.6721053 L42.1768421,13.7826316 C38.2863158,14.6778947 34.9557895,15.7094737 31.7431579,17.01 L31.7431579,17.01 C31.4815789,17.1205263 31.2457895,17.2089474 31.2273684,17.2089474 L31.2273684,17.2089474 C31.2089474,17.2089474 31.3010526,17.0026316 31.4189474,16.7484211 L31.4189474,16.7484211 Z M17.0063158,20.1194737 C17.2126316,18.5978947 17.1684211,16.6415789 16.8810526,14.6594737 L16.8810526,14.6594737 C16.8515789,14.4089474 16.8221053,14.1915789 16.8294737,14.1805263 L16.8294737,14.1805263 C16.8589474,14.1547368 18.1152632,14.4531579 18.7968421,14.6410526 L18.7968421,14.6410526 C19.8284211,14.9284211 22.0168421,15.6652632 22.0168421,15.7168421 L22.0168421,15.7168421 C22.0168421,15.7278947 21.7736842,15.9378947 21.4826316,16.1884211 L21.4826316,16.1884211 C20.3,17.1757895 19.1578947,18.2147368 17.7910526,19.5373684 L17.7910526,19.5373684 C17.3857895,19.9278947 17.0394737,20.2447368 17.0210526,20.2447368 L17.0210526,20.2447368 C17.0063158,20.2447368 16.9952632,20.1894737 17.0063158,20.1194737 L17.0063158,20.1194737 Z M35.8694737,23.24 C34.86,21.7184211 33.6442105,20.3884211 32.2073684,19.1947368 L32.2073684,19.1947368 C31.9347368,18.9663158 31.6363158,18.7231579 31.5368421,18.6494737 L31.5368421,18.6494737 C31.4373684,18.5757895 31.3526316,18.5057895 31.3526316,18.4984211 L31.3526316,18.4984211 C31.3526316,18.4726316 32.8926316,17.8057895 34.0605263,17.3378947 L34.0605263,17.3378947 C36.1052632,16.5089474 38.8942105,15.5105263 40.9831579,14.8657895 L40.9831579,14.8657895 C42.0773684,14.5268421 43.2452632,14.1915789 43.2636842,14.2063158 L43.2636842,14.2063158 C43.2784211,14.2247368 42.6815789,15.1642105 42.3057895,15.7021053 L42.3057895,15.7021053 C41.7605263,16.4794737 40.9647368,17.5110526 39.1668421,19.7694737 L39.1668421,19.7694737 C38.2126316,20.9668421 37.1478947,22.3152632 36.7905263,22.7684211 L36.7905263,22.7684211 C36.4294737,23.2178947 36.1310526,23.6010526 36.1236842,23.6010526 L36.1236842,23.6010526 C36.1163158,23.6010526 35.9984211,23.4389474 35.8694737,23.24 L35.8694737,23.24 Z M43.96,14.3905263 C43.9968421,14.3794737 44.2105263,14.49 44.4757895,14.6410526 L44.4757895,14.6410526 C46.6752632,15.9010526 48.8268421,17.5184211 50.5289474,19.1836842 L50.5289474,19.1836842 C51.0078947,19.6552632 52.1942105,20.8857895 52.1757895,20.8931579 L52.1757895,20.8931579 C52.1757895,20.8931579 51.7594737,20.93 51.2731579,20.9668421 L51.2731579,20.9668421 C47.46,21.2578947 42.5857895,22.0610526 37.8994737,23.1921053 L37.8994737,23.1921053 C37.5789474,23.2657895 37.2989474,23.3284211 37.2805263,23.3284211 L37.2805263,23.3284211 C37.2657895,23.3284211 37.6157895,22.9784211 38.0615789,22.5510526 L38.0615789,22.5510526 C40.81,19.8984211 42.07,18.2257895 43.5510526,15.2378947 L43.5510526,15.2378947 C43.7610526,14.7957895 43.9415789,14.4163158 43.96,14.3905263 L43.96,14.3905263 C43.9489474,14.3905263 43.9489474,14.3905263 43.96,14.3905263 L43.96,14.3905263 C43.96,14.3905263 43.96,14.3905263 43.96,14.3905263 L43.96,14.3905263 Z M21.8731579,21.6631579 C22.6873684,20.1821053 23.3394737,18.4063158 23.7115789,16.6784211 L23.7115789,16.6784211 C23.7447368,16.5457895 23.7815789,16.45 23.8073684,16.45 L23.8073684,16.45 C23.9363158,16.4794737 25.1115789,17.0321053 25.9994737,17.4742105 L25.9994737,17.4742105 C26.81,17.8794737 28.0331579,18.5352632 28.0957895,18.5868421 L28.0957895,18.5868421 C28.1068421,18.5978947 27.6721053,18.8226316 27.1378947,19.0842105 L27.1378947,19.0842105 C25.4394737,19.9352632 23.9842105,20.7421053 22.4589474,21.6631579 L22.4589474,21.6631579 C22.0278947,21.9247368 21.6631579,22.1421053 21.6557895,22.1421053 L21.6557895,22.1421053 C21.6189474,22.1421053 21.6263158,22.1089474 21.8731579,21.6631579 L21.8731579,21.6631579 Z M19.3457895,22.7942105 C18.76,22.2231579 18.2810526,21.8731579 17.6657895,21.5526316 L17.6657895,21.5526316 C17.4189474,21.4273684 17.2310526,21.3205263 17.2310526,21.3021053 L17.2310526,21.3021053 C17.2310526,21.2284211 18.7784211,19.8284211 19.9647368,18.8115789 L19.9647368,18.8115789 C20.8157895,18.0784211 22.6026316,16.6415789 22.6321053,16.6710526 L22.6321053,16.6710526 C22.6578947,16.6968421 22.3557895,17.8057895 22.1605263,18.4136842 L22.1605263,18.4136842 C21.7921053,19.5668421 21.1657895,21 20.5615789,22.0868421 L20.5615789,22.0868421 C20.4142105,22.3447368 20.2005263,22.7131579 20.0789474,22.9194737 L20.0789474,22.9194737 L19.8542105,23.2805263 L19.3457895,22.7942105 Z M23.4278947,27.1010526 C25.8152632,24.9052632 27.9336842,22.4773684 29.5105263,20.1157895 L29.5105263,20.1157895 L29.8236842,19.6294737 L30.2694737,19.9168421 C31.2826316,20.5763158 32.4763158,21.4568421 33.3936842,22.2231579 L33.3936842,22.2231579 C33.9057895,22.6505263 34.9005263,23.5457895 35.0994737,23.7631579 L35.0994737,23.7631579 L35.21,23.8810526 L34.4768421,24.0873684 C30.3321053,25.2368421 27.1305263,26.2610526 23.3910526,27.6352632 L23.3910526,27.6352632 C22.9784211,27.7863158 22.6247368,27.9152632 22.5952632,27.9152632 L22.5952632,27.9152632 C22.5915789,27.9152632 22.5842105,27.9152632 22.5805263,27.9152632 L22.5805263,27.9152632 C22.54,27.9152632 22.5878947,27.8784211 23.4278947,27.1010526 L23.4278947,27.1010526 Z M21.5305263,27.9336842 C21.5305263,26.8394737 21.2468421,25.6715789 20.7605263,24.6768421 L20.7605263,24.6768421 C20.5505263,24.2605263 20.5173684,24.1610526 20.5615789,24.1168421 L20.5615789,24.1168421 C20.7347368,23.9621053 23.3652632,22.4589474 25.0305263,21.5636842 L25.0305263,21.5636842 C26.1505263,20.9668421 27.9078947,20.0789474 27.9336842,20.0973684 L27.9336842,20.0973684 C27.9521053,20.1194737 26.7142105,21.8621053 25.97,22.8494737 L25.97,22.8494737 C25.0857895,24.0247368 23.5089474,25.9994737 22.4257895,27.2815789 L22.4257895,27.2815789 C21.9726316,27.8194737 21.5821053,28.2578947 21.5636842,28.2689474 L21.5636842,28.2689474 C21.5636842,28.2689474 21.5636842,28.2689474 21.5636842,28.2689474 L21.5636842,28.2689474 C21.5378947,28.2689474 21.5305263,28.1363158 21.5305263,27.9336842 L21.5305263,27.9336842 Z M14.3426316,27.3442105 C14.9394737,26.4305263 15.2378947,25.9184211 15.5584211,25.2589474 L15.5584211,25.2589474 C15.8347368,24.6694737 16.1184211,23.9731579 16.3173684,23.3652632 L16.3173684,23.3652632 C16.3910526,23.1036842 16.4794737,22.9047368 16.4978947,22.9047368 L16.4978947,22.9047368 C16.5236842,22.9047368 16.7336842,23.0115789 16.9694737,23.1405263 L16.9694737,23.1405263 C17.5478947,23.4536842 18.0636842,23.8073684 18.5242105,24.1868421 L18.5242105,24.1868421 C18.5426316,24.2052632 18.3068421,24.3968421 18.0010526,24.6215789 L18.0010526,24.6215789 C17.1389474,25.2368421 15.8347368,26.2242105 15.0794737,26.8284211 L15.0794737,26.8284211 C14.5231579,27.2705263 14.3426316,27.4142105 14.3131579,27.4142105 L14.3131579,27.4142105 C14.2984211,27.4142105 14.3168421,27.3847368 14.3426316,27.3442105 L14.3426316,27.3442105 Z M11.7194737,32.4763158 C11.7194737,32.4652632 11.9994737,32.2626316 12.3421053,32.0047368 L12.3421053,32.0047368 C15.05,30.0410526 17.3931579,27.8894737 19.1468421,25.7342105 L19.1468421,25.7342105 C19.3384211,25.5094737 19.5078947,25.2994737 19.53,25.2921053 L19.53,25.2921053 L19.5447368,25.2921053 C19.5926316,25.2847368 19.6478947,25.3657895 19.8910526,25.7268421 L19.8910526,25.7268421 C20.4031579,26.4931579 20.8047368,27.5247368 20.9042105,28.3573684 L20.9042105,28.3573684 L20.9226316,28.5415789 L19.6810526,29.0205263 C17.4631579,29.8789474 15.4221053,30.73 14.0331579,31.3636842 L14.0331579,31.3636842 C13.6463158,31.5442105 12.9721053,31.8684211 12.5263158,32.0894737 L12.5263158,32.0894737 C12.0915789,32.3105263 11.7342105,32.4763158 11.7194737,32.4763158 L11.7194737,32.4763158 C11.7194737,32.4763158 11.7194737,32.4763158 11.7194737,32.4763158 L11.7194737,32.4763158 Z M11.2405263,31.3563158 C11.8373684,30.7115789 12.2905263,30.17 12.8063158,29.4994737 L12.8063158,29.4994737 C13.1489474,29.0536842 13.2115789,28.9910526 13.7089474,28.6410526 L13.7089474,28.6410526 C15.0426316,27.6831579 18.1115789,25.6015789 18.1484211,25.6347368 L18.1484211,25.6347368 C18.1778947,25.6715789 17.15,26.8394737 16.4426316,27.5542105 L16.4426316,27.5542105 C14.6963158,29.3373684 12.9721053,30.73 10.8242105,32.0894737 L10.8242105,32.0894737 C10.5552632,32.2626316 10.3084211,32.4136842 10.2826316,32.4321053 L10.2826316,32.4321053 C10.2752632,32.4357895 10.2678947,32.4357895 10.2678947,32.4357895 L10.2678947,32.4357895 C10.2457895,32.4357895 10.4042105,32.2663158 11.2405263,31.3563158 L11.2405263,31.3563158 Z" id="Fill-10" fill="url(#radialGradient-9)" mask="url(#mask-8)"></path>
            </g>
            <g id="Group-17" transform="translate(30.000000, 56.587737)" fill="#23201F">
                <polygon id="Fill-13" points="2.13647368 5.38226316 2.33173684 5.38226316 2.33173684 3.83121053 2.84384211 3.83121053 2.84384211 3.63594737 1.62068421 3.63594737 1.62068421 3.83121053 2.13647368 3.83121053"></polygon>
                <path d="M3.31284211,4.21473684 C3.31284211,4.06368421 3.31284211,3.93842105 3.30178947,3.87210526 C3.31284211,3.95315789 3.34231579,4.00842105 3.35705263,4.05263158 L3.95021053,5.38263158 L4.046,5.38263158 L4.64652632,4.03789474 C4.66126316,3.99368421 4.676,3.94210526 4.70178947,3.87210526 C4.69073684,4.00842105 4.69073684,4.11894737 4.69073684,4.20368421 L4.69073684,5.37894737 L4.89705263,5.37894737 L4.89705263,3.63631579 L4.64652632,3.63631579 L4.10494737,4.84105263 C4.09021053,4.88526316 4.04968421,4.97 4.02021053,5.06210526 L4.00547368,5.06210526 C3.99442105,5.00684211 3.96494737,4.95157895 3.92810526,4.85578947 L3.38652632,3.63631579 L3.10652632,3.63631579 L3.10652632,5.38263158 L3.30178947,5.38263158 L3.30178947,4.21473684 L3.31284211,4.21473684 Z" id="Fill-15"></path>
            </g>
        </g>
    </g>
</svg>