<?xml version="1.0" encoding="utf-8"?>
<!-- Generator: Adobe Illustrator 26.3.1, SVG Export Plug-In . SVG Version: 6.00 Build 0)  -->
<svg version="1.1" id="레이어_1" xmlns="http://www.w3.org/2000/svg" xmlns:xlink="http://www.w3.org/1999/xlink" x="0px"
	 y="0px" viewBox="0 0 80 80" style="enable-background:new 0 0 80 80;" xml:space="preserve">
<style type="text/css">
	.st0{filter:url(#Adobe_OpacityMaskFilter);}
	.st1{fill-rule:evenodd;clip-rule:evenodd;fill:#FFFFFF;}
	.st2{mask:url(#mask-2_00000087386831157440564420000003277854799746782385_);fill-rule:evenodd;clip-rule:evenodd;fill:#FFFFFF;}
	.st3{filter:url(#Adobe_OpacityMaskFilter_00000113349393924199155740000013185221305648061586_);}
	.st4{mask:url(#mask-5_00000150788531787094109090000004722181931917131405_);fill-rule:evenodd;clip-rule:evenodd;fill:#FFFFFF;}
	.st5{filter:url(#Adobe_OpacityMaskFilter_00000116951435647454208580000015046594040385586330_);}
	.st6{mask:url(#mask-8_00000039839357555908184150000009762623463536484030_);fill-rule:evenodd;clip-rule:evenodd;fill:#FFFFFF;}
</style>
<g id="mssql">
	<g id="Group-18" transform="translate(10.000000, 8.000000)">
		<g id="Group-6" transform="translate(0.526316, 27.114053)">
			<g id="Clip-5">
			</g>
			<defs>
				<filter id="Adobe_OpacityMaskFilter" filterUnits="userSpaceOnUse" x="2.2" y="2.9" width="34.8" height="31.9">
					<feColorMatrix  type="matrix" values="1 0 0 0 0  0 1 0 0 0  0 0 1 0 0  0 0 0 1 0"/>
				</filter>
			</defs>
			
				<mask maskUnits="userSpaceOnUse" x="2.2" y="2.9" width="34.8" height="31.9" id="mask-2_00000087386831157440564420000003277854799746782385_">
				<g class="st0">
					<path id="path-1_00000031184710050291723020000005076660385574109326_" class="st1" d="M24.7,6.8l-10.4,4.6l-2.9,0.8
						c-0.7,0.7-1.5,1.4-2.4,2.1l0,0c-0.9,0.8-1.8,1.5-2.4,2l0,0c-0.7,0.6-1.8,1.7-2.4,2.4l0,0c-0.8,1-1.5,2.1-1.8,3l0,0
						c-0.5,1.5-0.3,3.1,0.7,4.5l0,0c1.2,1.8,3.7,3.7,6.5,4.9l0,0c1.5,0.6,3.9,1.5,5.8,1.9l0,0c3.1,0.8,9,1.6,12.3,1.7l0,0
						c0.7,0,1.5,0,1.6,0l0,0c0.1,0,0.6-1,1.2-2.2l0,0c2-4.1,3.5-7.9,4.2-11.2l0,0c0.5-2,0.8-4.6,1.1-7.8l0,0c0.1-0.9,0.1-3.8,0-4.8
						l0,0c-0.1-1.6-0.2-3-0.5-4.2l0,0c0-0.2,0-0.4,0-0.4l0,0c0,0,0.1-0.1,1.6-0.5l0,0l-0.3-0.7L24.7,6.8z M31.8,8.1
						c-0.9-0.6-2.6-1.7-2.9-1.9l0,0c-0.1-0.1-0.1-0.1,0.7-0.3l0,0c1.3-0.4,4.2-1.4,4.3-1.4l0,0c0.1,0,0.4,2.8,0.5,4.5l0,0
						c0,0.4,0,0.6,0,0.6l0,0C34.3,9.6,32.8,8.8,31.8,8.1L31.8,8.1z M26.8,13.8c0.6-2.3,0.9-4.5,1-6.4l0,0c0-0.9,0-0.9,0.1-0.9l0,0
						c0,0,0,0,0,0l0,0c0.1,0,0.3,0.1,0.8,0.4l0,0c1.9,1.2,4.4,2.6,5.5,3.1l0,0c0.3,0.1,0.4,0.1-0.4,0.6l0,0
						c-1.6,1.1-3.7,2.2-6.2,3.3l0,0c-0.4,0.2-0.8,0.4-0.8,0.4l0,0C26.6,14.3,26.7,14.1,26.8,13.8L26.8,13.8z M23.8,12.6
						c-0.7-0.8-1.3-1.6-1.7-2.4l0,0c-0.2-0.4-0.5-1.2-0.5-1.2l0,0c0.1-0.1,4.9-1.9,4.9-1.9l0,0c0.1,0.1,0,2.1-0.1,2.6l0,0
						c-0.2,1.3-0.4,2.5-0.8,3.9l0,0c-0.1,0.3-0.2,0.6-0.2,0.6l0,0h0l0,0C25.4,14.2,24.2,13,23.8,12.6L23.8,12.6z M16.4,17.7
						c1.1-1.7,2.7-4.9,3.6-7.2l0,0c0.2-0.4,0.3-0.8,0.3-0.9l0,0c0-0.1,0.1-0.2,0.2-0.2l0,0c0.1,0,0.1,0,0.2,0l0,0c0,0,0,0,0,0l0,0
						c0,0,0.1,0.2,0.1,0.3l0,0c0.3,0.8,0.9,1.9,1.5,2.7l0,0c0.6,0.8,1.4,1.7,2.1,2.3l0,0c0.2,0.2,0.4,0.4,0.4,0.4l0,0
						c0.1,0.1,0.1,0-1.4,0.6l0,0c-1.7,0.7-3.6,1.3-5.7,2l0,0c-0.5,0.2-1,0.3-1.5,0.5l0,0c0,0,0,0,0,0l0,0
						C16.1,18.1,16.2,18,16.4,17.7L16.4,17.7z M14.2,17.9c-0.3-0.6-0.6-1.4-0.7-2.1l0,0c-0.1-0.7-0.1-1.9,0-2.7l0,0
						c0.1-0.6,0.1-0.5,0.4-0.7l0,0c1.2-0.6,4.9-2.3,4.9-2.3l0,0c0,0-0.4,1-0.9,1.9l0,0c-0.9,1.7-1.8,3.4-3.1,5.4l0,0
						c-0.2,0.4-0.4,0.7-0.5,0.7l0,0c0,0,0,0,0,0l0,0C14.3,18.1,14.3,18.1,14.2,17.9L14.2,17.9z M33.2,18.4c-1.4-0.4-2.8-1.1-4.2-1.8
						l0,0c-0.9-0.5-2.2-1.3-2.1-1.3l0,0c0,0,0.4-0.2,0.8-0.4l0,0c1.8-0.9,3.5-1.9,5-2.9l0,0c0.5-0.4,1.4-1,1.6-1.1l0,0l0.1-0.1v0.4
						c0,2-0.2,4.8-0.5,6.8l0,0c-0.1,0.4-0.1,0.6-0.1,0.7l0,0C33.8,18.5,33.5,18.5,33.2,18.4L33.2,18.4z M3.9,21.5
						c0.2-1.3,1.2-3.1,2.6-4.5l0,0c0.9-1,1.7-1.6,3-2.3l0,0c0.9-0.5,2.3-1.3,2.5-1.3l0,0c0,0,0,0,0,0l0,0c0,0,0,0.1,0,0.4l0,0
						c0,0.2-0.1,0.7-0.1,1l0,0c-0.1,1.3,0.1,2.3,0.8,3.6l0,0c0.2,0.4,0.3,0.7,0.3,0.7l0,0c-0.1,0.1-6.1,1.8-7.9,2.3l0,0
						c-0.6,0.2-1,0.3-1.1,0.3l0,0c0,0,0,0,0,0l0,0C3.9,21.7,3.9,21.7,3.9,21.5L3.9,21.5z M22.8,23.4c0,0,0.2-0.3,0.4-0.7l0,0
						c1.1-2.1,2.3-4.7,2.8-6.5l0,0c0.1-0.2,0.1-0.3,0.1-0.3l0,0c0,0,0.2,0.1,0.5,0.3l0,0c1.9,1.1,4.6,2.2,6.9,2.7l0,0l0.2,0
						l-0.3,0.2c-1.2,0.7-5.2,2.3-9.2,3.8l0,0c-0.6,0.2-1.2,0.4-1.3,0.5l0,0C22.9,23.4,22.8,23.4,22.8,23.4L22.8,23.4
						C22.8,23.4,22.8,23.4,22.8,23.4L22.8,23.4z M20.2,23.8c-1.9-1.2-3.6-2.6-4.7-4l0,0l-0.2-0.2l0.8-0.2c2.9-0.8,5.5-1.7,7.9-2.7
						l0,0c0.4-0.1,0.6-0.3,0.7-0.3l0,0c0,0-0.1,0.2-0.2,0.4l0,0c-0.8,1.9-1.8,4-3.1,6.3l0,0c-0.3,0.6-0.6,1.1-0.6,1.1l0,0
						C20.8,24.2,20.5,24,20.2,23.8L20.2,23.8z M31.2,27.7c-2.7-0.5-5.1-1.2-7.4-2.1l0,0c-0.6-0.3-1.5-0.7-1.6-0.7l0,0
						c0,0,0.5-0.3,1.2-0.6l0,0c4.1-1.8,8.4-3.8,9.9-4.7l0,0c0.2-0.1,0.3-0.2,0.3-0.2l0,0c0,0.2-0.4,2.1-0.8,3.4l0,0
						c-0.3,1.1-0.6,2-1.1,3.6l0,0c-0.2,0.7-0.4,1.3-0.4,1.3l0,0C31.3,27.8,31.2,27.7,31.2,27.7L31.2,27.7z M7.2,27.6
						c-0.5-0.4-1.3-1.2-1.7-1.7l0,0c-0.8-1-1.3-2-1.5-2.9l0,0c-0.1-0.4-0.1-0.7,0-0.7l0,0c0.1,0,2.5-0.6,4.8-1.1l0,0
						c1.3-0.3,2.7-0.6,3.2-0.8l0,0c0.5-0.1,1-0.2,1-0.2l0,0c0,0-1.1,1.7-2.7,3.9l0,0c-0.6,0.8-1.2,1.7-1.5,2.1l0,0
						c-0.2,0.3-0.6,0.9-0.8,1.2l0,0L7.6,28L7.2,27.6z M8.2,28.4L8,28.3L8.3,28c0.9-1.2,1.9-2.6,4.2-5.4l0,0l1.6-1.9l0.3,0.3
						c1.3,1.5,2.6,2.5,4.2,3.5l0,0c0.3,0.2,0.5,0.3,0.5,0.3l0,0c-0.1,0-5.6,2-8.1,2.9l0,0c-1.4,0.5-2.6,0.9-2.6,0.9l0,0
						C8.4,28.6,8.3,28.5,8.2,28.4L8.2,28.4z M16.7,32.2c0,0,0.2-0.3,0.5-0.6l0,0c1.3-1.6,2.6-3.3,3.7-4.9l0,0
						c0.3-0.4,0.6-0.8,0.6-0.8l0,0c0,0,0.4,0.1,0.9,0.3l0,0c1.2,0.4,2.1,0.7,3.4,1l0,0c1.5,0.4,3.8,0.8,5.1,0.9l0,0
						c0.2,0,0.3,0,0.3,0.1l0,0c-0.1,0-1.4,0.5-2.4,0.8l0,0c-1.6,0.5-6.3,1.9-10.2,3l0,0c-0.7,0.2-1.3,0.4-1.4,0.4l0,0c0,0,0,0,0,0
						l0,0C16.9,32.3,16.7,32.2,16.7,32.2L16.7,32.2z M15.8,32c-0.3-0.1-2.6-0.9-3.2-1.1l0,0c-0.8-0.3-1.5-0.7-2.1-1l0,0
						c-0.7-0.4-1.6-1-1.6-1l0,0c0,0,1.3-0.3,2.8-0.8l0,0c4-1.1,6.2-1.7,7.6-2.2l0,0c0.3-0.1,0.5-0.1,0.5-0.1l0,0c0,0-0.6,1-1.8,2.8
						l0,0c-0.5,0.8-1,1.6-1.2,1.9l0,0c-0.2,0.3-0.4,0.7-0.6,1l0,0L15.9,32L15.8,32z M28.9,34.3c-0.2,0-2.3-0.3-3.6-0.5l0,0
						c-2.3-0.3-6-1-7-1.2l0,0l-0.2,0l1.3-0.3c2.9-0.6,4.3-1,5.7-1.4l0,0c1.8-0.5,3.5-1.2,5.3-2.1l0,0c0.3-0.1,0.5-0.2,0.6-0.2l0,0h0
						c0,0.1-1.4,4.2-2,5.4l0,0C29,34.2,28.9,34.3,28.9,34.3L28.9,34.3C28.9,34.3,28.9,34.3,28.9,34.3L28.9,34.3z"/>
				</g>
			</mask>
			<path id="Fill-4" class="st2" d="M24.7,6.8l-10.4,4.6l-2.9,0.8c-0.7,0.7-1.5,1.4-2.4,2.1l0,0c-0.9,0.8-1.8,1.5-2.4,2l0,0
				c-0.7,0.6-1.8,1.7-2.4,2.4l0,0c-0.8,1-1.5,2.1-1.8,3l0,0c-0.5,1.5-0.3,3.1,0.7,4.5l0,0c1.2,1.8,3.7,3.7,6.5,4.9l0,0
				c1.5,0.6,3.9,1.5,5.8,1.9l0,0c3.1,0.8,9,1.6,12.3,1.7l0,0c0.7,0,1.5,0,1.6,0l0,0c0.1,0,0.6-1,1.2-2.2l0,0c2-4.1,3.5-7.9,4.2-11.2
				l0,0c0.5-2,0.8-4.6,1.1-7.8l0,0c0.1-0.9,0.1-3.8,0-4.8l0,0c-0.1-1.6-0.2-3-0.5-4.2l0,0c0-0.2,0-0.4,0-0.4l0,0
				c0,0,0.1-0.1,1.6-0.5l0,0l-0.3-0.7L24.7,6.8z M31.8,8.1c-0.9-0.6-2.6-1.7-2.9-1.9l0,0c-0.1-0.1-0.1-0.1,0.7-0.3l0,0
				c1.3-0.4,4.2-1.4,4.3-1.4l0,0c0.1,0,0.4,2.8,0.5,4.5l0,0c0,0.4,0,0.6,0,0.6l0,0C34.3,9.6,32.8,8.8,31.8,8.1L31.8,8.1z M26.8,13.8
				c0.6-2.3,0.9-4.5,1-6.4l0,0c0-0.9,0-0.9,0.1-0.9l0,0c0,0,0,0,0,0l0,0c0.1,0,0.3,0.1,0.8,0.4l0,0c1.9,1.2,4.4,2.6,5.5,3.1l0,0
				c0.3,0.1,0.4,0.1-0.4,0.6l0,0c-1.6,1.1-3.7,2.2-6.2,3.3l0,0c-0.4,0.2-0.8,0.4-0.8,0.4l0,0C26.6,14.3,26.7,14.1,26.8,13.8
				L26.8,13.8z M23.8,12.6c-0.7-0.8-1.3-1.6-1.7-2.4l0,0c-0.2-0.4-0.5-1.2-0.5-1.2l0,0c0.1-0.1,4.9-1.9,4.9-1.9l0,0
				c0.1,0.1,0,2.1-0.1,2.6l0,0c-0.2,1.3-0.4,2.5-0.8,3.9l0,0c-0.1,0.3-0.2,0.6-0.2,0.6l0,0h0l0,0C25.4,14.2,24.2,13,23.8,12.6
				L23.8,12.6z M16.4,17.7c1.1-1.7,2.7-4.9,3.6-7.2l0,0c0.2-0.4,0.3-0.8,0.3-0.9l0,0c0-0.1,0.1-0.2,0.2-0.2l0,0c0.1,0,0.1,0,0.2,0
				l0,0c0,0,0,0,0,0l0,0c0,0,0.1,0.2,0.1,0.3l0,0c0.3,0.8,0.9,1.9,1.5,2.7l0,0c0.6,0.8,1.4,1.7,2.1,2.3l0,0c0.2,0.2,0.4,0.4,0.4,0.4
				l0,0c0.1,0.1,0.1,0-1.4,0.6l0,0c-1.7,0.7-3.6,1.3-5.7,2l0,0c-0.5,0.2-1,0.3-1.5,0.5l0,0c0,0,0,0,0,0l0,0
				C16.1,18.1,16.2,18,16.4,17.7L16.4,17.7z M14.2,17.9c-0.3-0.6-0.6-1.4-0.7-2.1l0,0c-0.1-0.7-0.1-1.9,0-2.7l0,0
				c0.1-0.6,0.1-0.5,0.4-0.7l0,0c1.2-0.6,4.9-2.3,4.9-2.3l0,0c0,0-0.4,1-0.9,1.9l0,0c-0.9,1.7-1.8,3.4-3.1,5.4l0,0
				c-0.2,0.4-0.4,0.7-0.5,0.7l0,0c0,0,0,0,0,0l0,0C14.3,18.1,14.3,18.1,14.2,17.9L14.2,17.9z M33.2,18.4c-1.4-0.4-2.8-1.1-4.2-1.8
				l0,0c-0.9-0.5-2.2-1.3-2.1-1.3l0,0c0,0,0.4-0.2,0.8-0.4l0,0c1.8-0.9,3.5-1.9,5-2.9l0,0c0.5-0.4,1.4-1,1.6-1.1l0,0l0.1-0.1v0.4
				c0,2-0.2,4.8-0.5,6.8l0,0c-0.1,0.4-0.1,0.6-0.1,0.7l0,0C33.8,18.5,33.5,18.5,33.2,18.4L33.2,18.4z M3.9,21.5
				c0.2-1.3,1.2-3.1,2.6-4.5l0,0c0.9-1,1.7-1.6,3-2.3l0,0c0.9-0.5,2.3-1.3,2.5-1.3l0,0c0,0,0,0,0,0l0,0c0,0,0,0.1,0,0.4l0,0
				c0,0.2-0.1,0.7-0.1,1l0,0c-0.1,1.3,0.1,2.3,0.8,3.6l0,0c0.2,0.4,0.3,0.7,0.3,0.7l0,0c-0.1,0.1-6.1,1.8-7.9,2.3l0,0
				c-0.6,0.2-1,0.3-1.1,0.3l0,0c0,0,0,0,0,0l0,0C3.9,21.7,3.9,21.7,3.9,21.5L3.9,21.5z M22.8,23.4c0,0,0.2-0.3,0.4-0.7l0,0
				c1.1-2.1,2.3-4.7,2.8-6.5l0,0c0.1-0.2,0.1-0.3,0.1-0.3l0,0c0,0,0.2,0.1,0.5,0.3l0,0c1.9,1.1,4.6,2.2,6.9,2.7l0,0l0.2,0l-0.3,0.2
				c-1.2,0.7-5.2,2.3-9.2,3.8l0,0c-0.6,0.2-1.2,0.4-1.3,0.5l0,0C22.9,23.4,22.8,23.4,22.8,23.4L22.8,23.4
				C22.8,23.4,22.8,23.4,22.8,23.4L22.8,23.4z M20.2,23.8c-1.9-1.2-3.6-2.6-4.7-4l0,0l-0.2-0.2l0.8-0.2c2.9-0.8,5.5-1.7,7.9-2.7l0,0
				c0.4-0.1,0.6-0.3,0.7-0.3l0,0c0,0-0.1,0.2-0.2,0.4l0,0c-0.8,1.9-1.8,4-3.1,6.3l0,0c-0.3,0.6-0.6,1.1-0.6,1.1l0,0
				C20.8,24.2,20.5,24,20.2,23.8L20.2,23.8z M31.2,27.7c-2.7-0.5-5.1-1.2-7.4-2.1l0,0c-0.6-0.3-1.5-0.7-1.6-0.7l0,0
				c0,0,0.5-0.3,1.2-0.6l0,0c4.1-1.8,8.4-3.8,9.9-4.7l0,0c0.2-0.1,0.3-0.2,0.3-0.2l0,0c0,0.2-0.4,2.1-0.8,3.4l0,0
				c-0.3,1.1-0.6,2-1.1,3.6l0,0c-0.2,0.7-0.4,1.3-0.4,1.3l0,0C31.3,27.8,31.2,27.7,31.2,27.7L31.2,27.7z M7.2,27.6
				c-0.5-0.4-1.3-1.2-1.7-1.7l0,0c-0.8-1-1.3-2-1.5-2.9l0,0c-0.1-0.4-0.1-0.7,0-0.7l0,0c0.1,0,2.5-0.6,4.8-1.1l0,0
				c1.3-0.3,2.7-0.6,3.2-0.8l0,0c0.5-0.1,1-0.2,1-0.2l0,0c0,0-1.1,1.7-2.7,3.9l0,0c-0.6,0.8-1.2,1.7-1.5,2.1l0,0
				c-0.2,0.3-0.6,0.9-0.8,1.2l0,0L7.6,28L7.2,27.6z M8.2,28.4L8,28.3L8.3,28c0.9-1.2,1.9-2.6,4.2-5.4l0,0l1.6-1.9l0.3,0.3
				c1.3,1.5,2.6,2.5,4.2,3.5l0,0c0.3,0.2,0.5,0.3,0.5,0.3l0,0c-0.1,0-5.6,2-8.1,2.9l0,0c-1.4,0.5-2.6,0.9-2.6,0.9l0,0
				C8.4,28.6,8.3,28.5,8.2,28.4L8.2,28.4z M16.7,32.2c0,0,0.2-0.3,0.5-0.6l0,0c1.3-1.6,2.6-3.3,3.7-4.9l0,0c0.3-0.4,0.6-0.8,0.6-0.8
				l0,0c0,0,0.4,0.1,0.9,0.3l0,0c1.2,0.4,2.1,0.7,3.4,1l0,0c1.5,0.4,3.8,0.8,5.1,0.9l0,0c0.2,0,0.3,0,0.3,0.1l0,0
				c-0.1,0-1.4,0.5-2.4,0.8l0,0c-1.6,0.5-6.3,1.9-10.2,3l0,0c-0.7,0.2-1.3,0.4-1.4,0.4l0,0c0,0,0,0,0,0l0,0
				C16.9,32.3,16.7,32.2,16.7,32.2L16.7,32.2z M15.8,32c-0.3-0.1-2.6-0.9-3.2-1.1l0,0c-0.8-0.3-1.5-0.7-2.1-1l0,0
				c-0.7-0.4-1.6-1-1.6-1l0,0c0,0,1.3-0.3,2.8-0.8l0,0c4-1.1,6.2-1.7,7.6-2.2l0,0c0.3-0.1,0.5-0.1,0.5-0.1l0,0c0,0-0.6,1-1.8,2.8
				l0,0c-0.5,0.8-1,1.6-1.2,1.9l0,0c-0.2,0.3-0.4,0.7-0.6,1l0,0L15.9,32L15.8,32z M28.9,34.3c-0.2,0-2.3-0.3-3.6-0.5l0,0
				c-2.3-0.3-6-1-7-1.2l0,0l-0.2,0l1.3-0.3c2.9-0.6,4.3-1,5.7-1.4l0,0c1.8-0.5,3.5-1.2,5.3-2.1l0,0c0.3-0.1,0.5-0.2,0.6-0.2l0,0h0
				c0,0.1-1.4,4.2-2,5.4l0,0C29,34.2,28.9,34.3,28.9,34.3L28.9,34.3C28.9,34.3,28.9,34.3,28.9,34.3L28.9,34.3z"/>
		</g>
		<g id="Group-9" transform="translate(11.578947, 1.324579)">
			<g id="Clip-8">
			</g>
			<defs>
				
					<filter id="Adobe_OpacityMaskFilter_00000083777320447834551610000006954468162802950322_" filterUnits="userSpaceOnUse" x="0.2" y="0.8" width="18.9" height="11.3">
					<feColorMatrix  type="matrix" values="1 0 0 0 0  0 1 0 0 0  0 0 1 0 0  0 0 0 1 0"/>
				</filter>
			</defs>
			
				<mask maskUnits="userSpaceOnUse" x="0.2" y="0.8" width="18.9" height="11.3" id="mask-5_00000150788531787094109090000004722181931917131405_">
				<g style="filter:url(#Adobe_OpacityMaskFilter_00000083777320447834551610000006954468162802950322_);">
					<path id="path-4_00000119110282799685404930000011304991432265277599_" class="st1" d="M13.2,0.8c-0.3,0-3.4,1.1-5.5,2l0,0
						C5,3.9,2.8,5,1.5,5.9l0,0C1,6.3,0.3,6.9,0.2,7.1l0,0c0,0.1-0.1,0.2-0.1,0.3l0,0l1.2,1.1l2.9,0.9l6.9,1.2l7.9,1.4l0.1-0.7
						c0,0,0,0-0.1,0l0,0l-1-0.2l-0.2-0.4c-1.1-1.9-2.2-4.2-2.9-5.8l0,0c-0.5-1.2-1-2.6-1.3-3.6l0,0C13.4,0.8,13.4,0.8,13.2,0.8
						L13.2,0.8L13.2,0.8z M14,6.4C13.1,6.2,9,5.5,6,5.1l0,0C5.5,5,5.1,4.9,5.1,4.9l0,0c0,0,2.2-1.2,3.1-1.6l0,0c1.2-0.6,4.6-2,4.9-2
						l0,0h0c0,0,0,0.3,0.1,0.6l0,0c0.2,1.3,0.4,2.5,0.9,3.8l0,0c0.2,0.7,0.3,0.9,0.2,0.9l0,0C14.2,6.5,14.1,6.5,14,6.4L14,6.4z
						 M9.4,9.9L9.1,9.8L8.2,8.9C6.6,7.4,5.3,6.2,4.9,5.7l0,0L4.4,5.3l0.4,0.1c1.9,0.7,6.7,1.6,9.4,1.8l0,0c0.3,0,0.5,0.1,0.6,0.1
						l0,0c0,0-0.2,0.1-0.6,0.3l0,0c-1.3,0.6-2.7,1.4-3.7,2l0,0c-0.3,0.2-0.6,0.3-0.6,0.3l0,0C9.8,9.9,9.6,9.9,9.4,9.9L9.4,9.9z
						 M4.3,8.9c-1-0.2-1.4-0.3-2-0.5l0,0L1.8,8.2V8.1c0-0.6,0.8-1.5,2.1-2.4l0,0L4,5.6l1.3,1.6C6,8,6.7,8.9,6.9,9.1l0,0
						C7,9.3,7.1,9.4,7.1,9.5l0,0c0,0,0,0,0,0l0,0C7,9.5,5.2,9.1,4.3,8.9L4.3,8.9z M15.5,10.9c-3.1-0.5-4.1-0.7-4.1-0.7l0,0
						c0,0,0.1-0.1,0.2-0.1l0,0c0.9-0.5,1.9-1.2,2.8-1.9l0,0c0.2-0.2,0.4-0.3,0.4-0.4l0,0c0,0,0,0,0,0l0,0c0,0,0.1,0.1,0.2,0.3l0,0
						c0.3,0.7,1.3,2.5,1.5,2.9l0,0c0,0.1,0.1,0.1,0,0.1l0,0C16.5,11,16.2,11,15.5,10.9L15.5,10.9z"/>
				</g>
			</mask>
			<path id="Fill-7" class="st4" d="M13.2,0.8c-0.3,0-3.4,1.1-5.5,2l0,0C5,3.9,2.8,5,1.5,5.9l0,0C1,6.3,0.3,6.9,0.2,7.1l0,0
				c0,0.1-0.1,0.2-0.1,0.3l0,0l1.2,1.1l2.9,0.9l6.9,1.2l7.9,1.4l0.1-0.7c0,0,0,0-0.1,0l0,0l-1-0.2l-0.2-0.4
				c-1.1-1.9-2.2-4.2-2.9-5.8l0,0c-0.5-1.2-1-2.6-1.3-3.6l0,0C13.4,0.8,13.4,0.8,13.2,0.8L13.2,0.8L13.2,0.8z M14,6.4
				C13.1,6.2,9,5.5,6,5.1l0,0C5.5,5,5.1,4.9,5.1,4.9l0,0c0,0,2.2-1.2,3.1-1.6l0,0c1.2-0.6,4.6-2,4.9-2l0,0h0c0,0,0,0.3,0.1,0.6l0,0
				c0.2,1.3,0.4,2.5,0.9,3.8l0,0c0.2,0.7,0.3,0.9,0.2,0.9l0,0C14.2,6.5,14.1,6.5,14,6.4L14,6.4z M9.4,9.9L9.1,9.8L8.2,8.9
				C6.6,7.4,5.3,6.2,4.9,5.7l0,0L4.4,5.3l0.4,0.1c1.9,0.7,6.7,1.6,9.4,1.8l0,0c0.3,0,0.5,0.1,0.6,0.1l0,0c0,0-0.2,0.1-0.6,0.3l0,0
				c-1.3,0.6-2.7,1.4-3.7,2l0,0c-0.3,0.2-0.6,0.3-0.6,0.3l0,0C9.8,9.9,9.6,9.9,9.4,9.9L9.4,9.9z M4.3,8.9c-1-0.2-1.4-0.3-2-0.5l0,0
				L1.8,8.2V8.1c0-0.6,0.8-1.5,2.1-2.4l0,0L4,5.6l1.3,1.6C6,8,6.7,8.9,6.9,9.1l0,0C7,9.3,7.1,9.4,7.1,9.5l0,0c0,0,0,0,0,0l0,0
				C7,9.5,5.2,9.1,4.3,8.9L4.3,8.9z M15.5,10.9c-3.1-0.5-4.1-0.7-4.1-0.7l0,0c0,0,0.1-0.1,0.2-0.1l0,0c0.9-0.5,1.9-1.2,2.8-1.9l0,0
				c0.2-0.2,0.4-0.3,0.4-0.4l0,0c0,0,0,0,0,0l0,0c0,0,0.1,0.1,0.2,0.3l0,0c0.3,0.7,1.3,2.5,1.5,2.9l0,0c0,0.1,0.1,0.1,0,0.1l0,0
				C16.5,11,16.2,11,15.5,10.9L15.5,10.9z"/>
		</g>
		<g id="Group-12" transform="translate(4.210526, 5.008789)">
			<g id="Clip-11">
			</g>
			<defs>
				
					<filter id="Adobe_OpacityMaskFilter_00000103240328468050311060000015312977087705856418_" filterUnits="userSpaceOnUse" x="2.9" y="3.3" width="50.2" height="35.1">
					<feColorMatrix  type="matrix" values="1 0 0 0 0  0 1 0 0 0  0 0 1 0 0  0 0 0 1 0"/>
				</filter>
			</defs>
			
				<mask maskUnits="userSpaceOnUse" x="2.9" y="3.3" width="50.2" height="35.1" id="mask-8_00000039839357555908184150000009762623463536484030_">
				<g style="filter:url(#Adobe_OpacityMaskFilter_00000103240328468050311060000015312977087705856418_);">
					<path id="path-7_00000052071313058964278710000007053719574476472221_" class="st1" d="M7.7,4.1c0.1,0.3,0.5,0.6,0.9,1l0,0
						c0,0,4,3.9,4.5,4.5l0,0c2.2,2.6,3.2,5.1,3.3,8.6l0,0c0.1,2.2-0.4,4.2-1.4,6.5l0,0C13,28.8,9,33.4,2.9,38.4l0,0l0.9-0.3
						c0.6-0.4,1.4-0.9,3.2-1.9l0,0c4.3-2.3,9.1-4.5,14.9-6.7l0,0c8.5-3.2,22.4-6.9,30.3-8.1l0,0l0.8-0.1L53,21
						c-0.7-1.1-1.2-1.8-1.8-2.6l0,0c-1.7-2.2-3.8-3.9-6.4-5.3l0,0c-3.5-2-8.1-3.5-13.9-4.7l0,0c-1.1-0.2-3.5-0.6-5.5-0.9l0,0
						c-4.1-0.6-6.8-1.1-9.8-1.6l0,0c-1.1-0.2-2.6-0.5-3.7-0.7l0,0c-0.5-0.1-1.6-0.4-2.4-0.6l0,0C8.8,4.4,7.9,4.1,7.7,3.3l0,0
						C7.7,3.3,7.5,3.6,7.7,4.1L7.7,4.1z M15.1,11.2c-1.1-1.9-2.7-3.8-4.7-5.3l0,0C10.2,5.8,10,5.6,10,5.6l0,0c0,0,0.2,0,0.3,0.1l0,0
						c0.3,0.1,0.8,0.3,1.3,0.4l0,0c0.4,0.1,0.8,0.2,1.2,0.3l0,0c0.5,0.1,1,0.3,1,0.3l0,0c0.1,0.1,1,3,1.3,4.1l0,0
						c0.1,0.4,0.2,0.8,0.2,0.8l0,0c0,0,0,0,0,0l0,0C15.3,11.6,15.2,11.4,15.1,11.2L15.1,11.2z M14.5,6.8c0,0,0.2,0,0.5,0.1l0,0
						c1.5,0.3,4.3,0.9,6.1,1.2l0,0c0.3,0,0.5,0.1,0.5,0.1l0,0c0,0-0.1,0.1-0.2,0.2l0,0c-0.3,0.2-1.5,0.9-1.9,1.1l0,0
						c-1,0.7-1.9,1.4-2.6,2l0,0c-0.3,0.3-0.5,0.5-0.5,0.5l0,0c0,0-0.1-0.2-0.1-0.3l0,0c-0.3-1.3-1-3.1-1.6-4.4l0,0
						C14.5,7,14.5,6.9,14.5,6.8L14.5,6.8C14.5,6.8,14.5,6.8,14.5,6.8L14.5,6.8z M22.5,14.2c-1-0.3-2.5-0.8-3.9-1.1l0,0
						c-0.8-0.2-1.4-0.4-1.4-0.4l0,0c0-0.1,1.1-1.2,1.6-1.6l0,0c0.9-0.8,3.4-2.7,3.5-2.7l0,0c0.1,0,0.1,0.3,0.3,1l0,0
						c0.3,1.3,0.5,2.8,0.4,4.1l0,0c0,0.4,0,0.7-0.1,0.8l0,0l0,0.1L22.5,14.2z M24,13.6c0-1.7-0.3-3.5-1-4.9l0,0
						c-0.1-0.1-0.1-0.3-0.1-0.3l0,0c0,0,3.7,0.6,5.4,0.9l0,0c1.3,0.2,3.1,0.6,3.2,0.7l0,0c0.1,0-0.1,0.1-0.7,0.4l0,0
						c-2.4,1.1-4.2,2-5.9,3.2l0,0c-0.5,0.3-0.8,0.6-0.9,0.6l0,0C24,14.2,24,13.9,24,13.6L24,13.6z M29.1,17.1
						c-1-0.6-2.2-1.2-3.5-1.7l0,0c-0.4-0.2-0.7-0.3-0.7-0.3l0,0c-0.1-0.1,2.9-2,4.4-2.9l0,0c1.2-0.7,3.2-1.8,3.2-1.8l0,0
						c0,0-0.1,0.8-0.2,1.2l0,0c-0.3,1.3-1.2,3.3-2.3,5.2l0,0c-0.2,0.3-0.4,0.6-0.4,0.6l0,0c0,0,0,0,0,0l0,0
						C29.6,17.3,29.4,17.2,29.1,17.1L29.1,17.1z M31.4,16.7c1-2.1,1.6-4.2,1.7-6l0,0c0-0.2,0-0.3,0.1-0.3l0,0c0.1,0,1.7,0.5,2.6,0.7
						l0,0c2.1,0.6,4.6,1.5,6.2,2.3l0,0l0.7,0.3l-0.5,0.1c-3.9,0.9-7.2,1.9-10.4,3.2l0,0c-0.3,0.1-0.5,0.2-0.5,0.2l0,0
						C31.2,17.2,31.3,17,31.4,16.7L31.4,16.7z M17,20.1c0.2-1.5,0.2-3.5-0.1-5.5l0,0c0-0.3-0.1-0.5-0.1-0.5l0,0c0,0,1.3,0.3,2,0.5
						l0,0c1,0.3,3.2,1,3.2,1.1l0,0c0,0-0.2,0.2-0.5,0.5l0,0c-1.2,1-2.3,2-3.7,3.3l0,0c-0.4,0.4-0.8,0.7-0.8,0.7l0,0
						C17,20.2,17,20.2,17,20.1L17,20.1z M35.9,23.2c-1-1.5-2.2-2.9-3.7-4l0,0c-0.3-0.2-0.6-0.5-0.7-0.5l0,0
						c-0.1-0.1-0.2-0.1-0.2-0.2l0,0c0,0,1.5-0.7,2.7-1.2l0,0c2-0.8,4.8-1.8,6.9-2.5l0,0c1.1-0.3,2.3-0.7,2.3-0.7l0,0
						c0,0-0.6,1-1,1.5l0,0c-0.5,0.8-1.3,1.8-3.1,4.1l0,0c-1,1.2-2,2.5-2.4,3l0,0c-0.4,0.4-0.7,0.8-0.7,0.8l0,0
						C36.1,23.6,36,23.4,35.9,23.2L35.9,23.2z M44,14.4c0,0,0.3,0.1,0.5,0.3l0,0c2.2,1.3,4.4,2.9,6.1,4.5l0,0
						c0.5,0.5,1.7,1.7,1.6,1.7l0,0c0,0-0.4,0-0.9,0.1l0,0c-3.8,0.3-8.7,1.1-13.4,2.2l0,0c-0.3,0.1-0.6,0.1-0.6,0.1l0,0
						c0,0,0.3-0.4,0.8-0.8l0,0c2.7-2.7,4-4.3,5.5-7.3l0,0C43.8,14.8,43.9,14.4,44,14.4L44,14.4C43.9,14.4,43.9,14.4,44,14.4L44,14.4
						L44,14.4L44,14.4z M21.9,21.7c0.8-1.5,1.5-3.3,1.8-5l0,0c0-0.1,0.1-0.2,0.1-0.2l0,0c0.1,0,1.3,0.6,2.2,1l0,0
						c0.8,0.4,2,1.1,2.1,1.1l0,0c0,0-0.4,0.2-1,0.5l0,0c-1.7,0.9-3.2,1.7-4.7,2.6l0,0c-0.4,0.3-0.8,0.5-0.8,0.5l0,0
						C21.6,22.1,21.6,22.1,21.9,21.7L21.9,21.7z M19.3,22.8c-0.6-0.6-1.1-0.9-1.7-1.2l0,0c-0.2-0.1-0.4-0.2-0.4-0.3l0,0
						c0-0.1,1.5-1.5,2.7-2.5l0,0c0.9-0.7,2.6-2.2,2.7-2.1l0,0c0,0-0.3,1.1-0.5,1.7l0,0c-0.4,1.2-1,2.6-1.6,3.7l0,0
						c-0.1,0.3-0.4,0.6-0.5,0.8l0,0l-0.2,0.4L19.3,22.8z M23.4,27.1c2.4-2.2,4.5-4.6,6.1-7l0,0l0.3-0.5l0.4,0.3
						c1,0.7,2.2,1.5,3.1,2.3l0,0c0.5,0.4,1.5,1.3,1.7,1.5l0,0l0.1,0.1l-0.7,0.2c-4.1,1.1-7.3,2.2-11.1,3.5l0,0
						c-0.4,0.2-0.8,0.3-0.8,0.3l0,0c0,0,0,0,0,0l0,0C22.5,27.9,22.6,27.9,23.4,27.1L23.4,27.1z M21.5,27.9c0-1.1-0.3-2.3-0.8-3.3
						l0,0c-0.2-0.4-0.2-0.5-0.2-0.6l0,0c0.2-0.2,2.8-1.7,4.5-2.6l0,0c1.1-0.6,2.9-1.5,2.9-1.5l0,0c0,0-1.2,1.8-2,2.8l0,0
						c-0.9,1.2-2.5,3.1-3.5,4.4l0,0c-0.5,0.5-0.8,1-0.9,1l0,0l0,0l0,0C21.5,28.3,21.5,28.1,21.5,27.9L21.5,27.9z M14.3,27.3
						c0.6-0.9,0.9-1.4,1.2-2.1l0,0c0.3-0.6,0.6-1.3,0.8-1.9l0,0c0.1-0.3,0.2-0.5,0.2-0.5l0,0c0,0,0.2,0.1,0.5,0.2l0,0
						c0.6,0.3,1.1,0.7,1.6,1l0,0c0,0-0.2,0.2-0.5,0.4l0,0c-0.9,0.6-2.2,1.6-2.9,2.2l0,0C14.5,27.3,14.3,27.4,14.3,27.3L14.3,27.3
						C14.3,27.4,14.3,27.4,14.3,27.3L14.3,27.3z M11.7,32.5c0,0,0.3-0.2,0.6-0.5l0,0c2.7-2,5.1-4.1,6.8-6.3l0,0
						c0.2-0.2,0.4-0.4,0.4-0.4l0,0h0c0,0,0.1,0.1,0.3,0.4l0,0c0.5,0.8,0.9,1.8,1,2.6l0,0l0,0.2L19.7,29c-2.2,0.9-4.3,1.7-5.6,2.3
						l0,0c-0.4,0.2-1.1,0.5-1.5,0.7l0,0C12.1,32.3,11.7,32.5,11.7,32.5L11.7,32.5L11.7,32.5L11.7,32.5z M11.2,31.4
						c0.6-0.6,1.1-1.2,1.6-1.9l0,0c0.3-0.4,0.4-0.5,0.9-0.9l0,0c1.3-1,4.4-3,4.4-3l0,0c0,0-1,1.2-1.7,1.9l0,0
						c-1.7,1.8-3.5,3.2-5.6,4.5l0,0c-0.3,0.2-0.5,0.3-0.5,0.3l0,0c0,0,0,0,0,0l0,0C10.2,32.4,10.4,32.3,11.2,31.4L11.2,31.4z"/>
				</g>
			</mask>
			<path id="Fill-10" class="st6" d="M7.7,4.1c0.1,0.3,0.5,0.6,0.9,1l0,0c0,0,4,3.9,4.5,4.5l0,0c2.2,2.6,3.2,5.1,3.3,8.6l0,0
				c0.1,2.2-0.4,4.2-1.4,6.5l0,0C13,28.8,9,33.4,2.9,38.4l0,0l0.9-0.3c0.6-0.4,1.4-0.9,3.2-1.9l0,0c4.3-2.3,9.1-4.5,14.9-6.7l0,0
				c8.5-3.2,22.4-6.9,30.3-8.1l0,0l0.8-0.1L53,21c-0.7-1.1-1.2-1.8-1.8-2.6l0,0c-1.7-2.2-3.8-3.9-6.4-5.3l0,0
				c-3.5-2-8.1-3.5-13.9-4.7l0,0c-1.1-0.2-3.5-0.6-5.5-0.9l0,0c-4.1-0.6-6.8-1.1-9.8-1.6l0,0c-1.1-0.2-2.6-0.5-3.7-0.7l0,0
				c-0.5-0.1-1.6-0.4-2.4-0.6l0,0C8.8,4.4,7.9,4.1,7.7,3.3l0,0C7.7,3.3,7.5,3.6,7.7,4.1L7.7,4.1z M15.1,11.2
				c-1.1-1.9-2.7-3.8-4.7-5.3l0,0C10.2,5.8,10,5.6,10,5.6l0,0c0,0,0.2,0,0.3,0.1l0,0c0.3,0.1,0.8,0.3,1.3,0.4l0,0
				c0.4,0.1,0.8,0.2,1.2,0.3l0,0c0.5,0.1,1,0.3,1,0.3l0,0c0.1,0.1,1,3,1.3,4.1l0,0c0.1,0.4,0.2,0.8,0.2,0.8l0,0c0,0,0,0,0,0l0,0
				C15.3,11.6,15.2,11.4,15.1,11.2L15.1,11.2z M14.5,6.8c0,0,0.2,0,0.5,0.1l0,0c1.5,0.3,4.3,0.9,6.1,1.2l0,0c0.3,0,0.5,0.1,0.5,0.1
				l0,0c0,0-0.1,0.1-0.2,0.2l0,0c-0.3,0.2-1.5,0.9-1.9,1.1l0,0c-1,0.7-1.9,1.4-2.6,2l0,0c-0.3,0.3-0.5,0.5-0.5,0.5l0,0
				c0,0-0.1-0.2-0.1-0.3l0,0c-0.3-1.3-1-3.1-1.6-4.4l0,0C14.5,7,14.5,6.9,14.5,6.8L14.5,6.8C14.5,6.8,14.5,6.8,14.5,6.8L14.5,6.8z
				 M22.5,14.2c-1-0.3-2.5-0.8-3.9-1.1l0,0c-0.8-0.2-1.4-0.4-1.4-0.4l0,0c0-0.1,1.1-1.2,1.6-1.6l0,0c0.9-0.8,3.4-2.7,3.5-2.7l0,0
				c0.1,0,0.1,0.3,0.3,1l0,0c0.3,1.3,0.5,2.8,0.4,4.1l0,0c0,0.4,0,0.7-0.1,0.8l0,0l0,0.1L22.5,14.2z M24,13.6c0-1.7-0.3-3.5-1-4.9
				l0,0c-0.1-0.1-0.1-0.3-0.1-0.3l0,0c0,0,3.7,0.6,5.4,0.9l0,0c1.3,0.2,3.1,0.6,3.2,0.7l0,0c0.1,0-0.1,0.1-0.7,0.4l0,0
				c-2.4,1.1-4.2,2-5.9,3.2l0,0c-0.5,0.3-0.8,0.6-0.9,0.6l0,0C24,14.2,24,13.9,24,13.6L24,13.6z M29.1,17.1c-1-0.6-2.2-1.2-3.5-1.7
				l0,0c-0.4-0.2-0.7-0.3-0.7-0.3l0,0c-0.1-0.1,2.9-2,4.4-2.9l0,0c1.2-0.7,3.2-1.8,3.2-1.8l0,0c0,0-0.1,0.8-0.2,1.2l0,0
				c-0.3,1.3-1.2,3.3-2.3,5.2l0,0c-0.2,0.3-0.4,0.6-0.4,0.6l0,0c0,0,0,0,0,0l0,0C29.6,17.3,29.4,17.2,29.1,17.1L29.1,17.1z
				 M31.4,16.7c1-2.1,1.6-4.2,1.7-6l0,0c0-0.2,0-0.3,0.1-0.3l0,0c0.1,0,1.7,0.5,2.6,0.7l0,0c2.1,0.6,4.6,1.5,6.2,2.3l0,0l0.7,0.3
				l-0.5,0.1c-3.9,0.9-7.2,1.9-10.4,3.2l0,0c-0.3,0.1-0.5,0.2-0.5,0.2l0,0C31.2,17.2,31.3,17,31.4,16.7L31.4,16.7z M17,20.1
				c0.2-1.5,0.2-3.5-0.1-5.5l0,0c0-0.3-0.1-0.5-0.1-0.5l0,0c0,0,1.3,0.3,2,0.5l0,0c1,0.3,3.2,1,3.2,1.1l0,0c0,0-0.2,0.2-0.5,0.5l0,0
				c-1.2,1-2.3,2-3.7,3.3l0,0c-0.4,0.4-0.8,0.7-0.8,0.7l0,0C17,20.2,17,20.2,17,20.1L17,20.1z M35.9,23.2c-1-1.5-2.2-2.9-3.7-4l0,0
				c-0.3-0.2-0.6-0.5-0.7-0.5l0,0c-0.1-0.1-0.2-0.1-0.2-0.2l0,0c0,0,1.5-0.7,2.7-1.2l0,0c2-0.8,4.8-1.8,6.9-2.5l0,0
				c1.1-0.3,2.3-0.7,2.3-0.7l0,0c0,0-0.6,1-1,1.5l0,0c-0.5,0.8-1.3,1.8-3.1,4.1l0,0c-1,1.2-2,2.5-2.4,3l0,0
				c-0.4,0.4-0.7,0.8-0.7,0.8l0,0C36.1,23.6,36,23.4,35.9,23.2L35.9,23.2z M44,14.4c0,0,0.3,0.1,0.5,0.3l0,0
				c2.2,1.3,4.4,2.9,6.1,4.5l0,0c0.5,0.5,1.7,1.7,1.6,1.7l0,0c0,0-0.4,0-0.9,0.1l0,0c-3.8,0.3-8.7,1.1-13.4,2.2l0,0
				c-0.3,0.1-0.6,0.1-0.6,0.1l0,0c0,0,0.3-0.4,0.8-0.8l0,0c2.7-2.7,4-4.3,5.5-7.3l0,0C43.8,14.8,43.9,14.4,44,14.4L44,14.4
				C43.9,14.4,43.9,14.4,44,14.4L44,14.4L44,14.4L44,14.4z M21.9,21.7c0.8-1.5,1.5-3.3,1.8-5l0,0c0-0.1,0.1-0.2,0.1-0.2l0,0
				c0.1,0,1.3,0.6,2.2,1l0,0c0.8,0.4,2,1.1,2.1,1.1l0,0c0,0-0.4,0.2-1,0.5l0,0c-1.7,0.9-3.2,1.7-4.7,2.6l0,0
				c-0.4,0.3-0.8,0.5-0.8,0.5l0,0C21.6,22.1,21.6,22.1,21.9,21.7L21.9,21.7z M19.3,22.8c-0.6-0.6-1.1-0.9-1.7-1.2l0,0
				c-0.2-0.1-0.4-0.2-0.4-0.3l0,0c0-0.1,1.5-1.5,2.7-2.5l0,0c0.9-0.7,2.6-2.2,2.7-2.1l0,0c0,0-0.3,1.1-0.5,1.7l0,0
				c-0.4,1.2-1,2.6-1.6,3.7l0,0c-0.1,0.3-0.4,0.6-0.5,0.8l0,0l-0.2,0.4L19.3,22.8z M23.4,27.1c2.4-2.2,4.5-4.6,6.1-7l0,0l0.3-0.5
				l0.4,0.3c1,0.7,2.2,1.5,3.1,2.3l0,0c0.5,0.4,1.5,1.3,1.7,1.5l0,0l0.1,0.1l-0.7,0.2c-4.1,1.1-7.3,2.2-11.1,3.5l0,0
				c-0.4,0.2-0.8,0.3-0.8,0.3l0,0c0,0,0,0,0,0l0,0C22.5,27.9,22.6,27.9,23.4,27.1L23.4,27.1z M21.5,27.9c0-1.1-0.3-2.3-0.8-3.3l0,0
				c-0.2-0.4-0.2-0.5-0.2-0.6l0,0c0.2-0.2,2.8-1.7,4.5-2.6l0,0c1.1-0.6,2.9-1.5,2.9-1.5l0,0c0,0-1.2,1.8-2,2.8l0,0
				c-0.9,1.2-2.5,3.1-3.5,4.4l0,0c-0.5,0.5-0.8,1-0.9,1l0,0l0,0l0,0C21.5,28.3,21.5,28.1,21.5,27.9L21.5,27.9z M14.3,27.3
				c0.6-0.9,0.9-1.4,1.2-2.1l0,0c0.3-0.6,0.6-1.3,0.8-1.9l0,0c0.1-0.3,0.2-0.5,0.2-0.5l0,0c0,0,0.2,0.1,0.5,0.2l0,0
				c0.6,0.3,1.1,0.7,1.6,1l0,0c0,0-0.2,0.2-0.5,0.4l0,0c-0.9,0.6-2.2,1.6-2.9,2.2l0,0C14.5,27.3,14.3,27.4,14.3,27.3L14.3,27.3
				C14.3,27.4,14.3,27.4,14.3,27.3L14.3,27.3z M11.7,32.5c0,0,0.3-0.2,0.6-0.5l0,0c2.7-2,5.1-4.1,6.8-6.3l0,0
				c0.2-0.2,0.4-0.4,0.4-0.4l0,0h0c0,0,0.1,0.1,0.3,0.4l0,0c0.5,0.8,0.9,1.8,1,2.6l0,0l0,0.2L19.7,29c-2.2,0.9-4.3,1.7-5.6,2.3l0,0
				c-0.4,0.2-1.1,0.5-1.5,0.7l0,0C12.1,32.3,11.7,32.5,11.7,32.5L11.7,32.5L11.7,32.5L11.7,32.5z M11.2,31.4
				c0.6-0.6,1.1-1.2,1.6-1.9l0,0c0.3-0.4,0.4-0.5,0.9-0.9l0,0c1.3-1,4.4-3,4.4-3l0,0c0,0-1,1.2-1.7,1.9l0,0
				c-1.7,1.8-3.5,3.2-5.6,4.5l0,0c-0.3,0.2-0.5,0.3-0.5,0.3l0,0c0,0,0,0,0,0l0,0C10.2,32.4,10.4,32.3,11.2,31.4L11.2,31.4z"/>
		</g>
		<g id="Group-17" transform="translate(30.000000, 56.587737)">
			<polygon id="Fill-13" class="st1" points="2.1,5.4 2.3,5.4 2.3,3.8 2.8,3.8 2.8,3.6 1.6,3.6 1.6,3.8 2.1,3.8 			"/>
			<path id="Fill-15" class="st1" d="M3.3,4.2c0-0.2,0-0.3,0-0.3c0,0.1,0,0.1,0.1,0.2L4,5.4H4L4.6,4c0,0,0-0.1,0.1-0.2
				c0,0.1,0,0.2,0,0.3v1.2h0.2V3.6H4.6L4.1,4.8C4.1,4.9,4,5,4,5.1h0C4,5,4,5,3.9,4.9L3.4,3.6H3.1v1.7h0.2L3.3,4.2L3.3,4.2z"/>
		</g>
	</g>
</g>
</svg>
