<?xml version="1.0" encoding="utf-8"?>
<!-- Generator: Adobe Illustrator 26.3.1, SVG Export Plug-In . SVG Version: 6.00 Build 0)  -->
<svg version="1.1" id="레이어_1" xmlns="http://www.w3.org/2000/svg" xmlns:xlink="http://www.w3.org/1999/xlink" x="0px"
	 y="0px" viewBox="0 0 80 80" style="enable-background:new 0 0 80 80;" xml:space="preserve">
<style type="text/css">
	.st0{fill-rule:evenodd;clip-rule:evenodd;fill:#00678E;}
</style>
<g id="mysql">
	<g id="topology_mysql" transform="translate(5.000000, 5.000000)">
		<g id="Group-9" transform="translate(11.776042, 12.250000)">
			<path id="Fill-1" class="st0" d="M49.9,48.4L49.9,48.4c0-0.1-0.1-0.1-0.1-0.2L49.7,48c-0.4-0.6-0.7-1.1-1.2-1.6
				c-0.6-0.6-1-1.1-1.5-1.5c-1.1-1.1-2.3-2-3.4-2.7c-0.9-0.5-1.9-1.1-2.4-1.7c0.4,0,1-0.2,2.2-0.4c0.1,0,0.2-0.1,0.3-0.1
				c1.5-0.3,2.8-0.6,4.1-1c0.4-0.1,0.4-0.4,0.4-0.6v-0.1c0-0.1,0-0.2-0.1-0.2c-0.4-0.4-0.7-0.8-1-1.1c-0.6-0.6-1.2-1.3-1.9-1.9
				c-1.4-1.2-3-2.3-4.3-3.1c-0.7-0.4-1.5-0.8-2.2-1.1c-0.4-0.2-0.9-0.4-1.3-0.6C37.2,30.1,37,30,36.8,30c-0.3-0.1-0.6-0.2-0.7-0.3
				c-0.4-0.5-0.6-1.1-0.9-1.7c-0.1-0.3-0.3-0.6-0.4-0.9c-0.8-1.5-1.5-3.1-2.2-4.7c-0.5-1.2-1-2.4-1.6-3.5c-1-2.1-2.4-4.1-4-6.2
				c-1.8-2.1-4-4.1-6.5-5.9c-1.3-0.9-3.1-2.1-5.1-2.8c-1.6-0.6-3.2-0.7-5-0.8c-0.2-0.1-0.5-0.3-0.8-0.6C9.4,2.5,9.2,2.3,9,2.2
				c-1.3-0.8-4.7-2.7-6.9-2C1.2,0.4,0.6,1,0.2,1.9c-0.7,1.6,0.2,3.2,1.1,4.4c0.3,0.4,0.6,0.8,0.9,1.1C2.6,7.9,3,8.4,3.3,9
				c0.7,1,1,2.1,1.4,3.3l0.1,0.4c0.4,1.4,1,2.7,1.5,3.8c0.4,0.7,0.8,1.5,1.2,2.1c0.1,0.1,0.2,0.3,0.4,0.4c0.1,0.1,0.2,0.2,0.3,0.3
				c0.1,0.2,0,0.6-0.2,0.9c0,0,0,0.1,0,0.2c-0.2,0.6-0.3,1.2-0.5,1.7c-0.4,1.7-0.6,3.2-0.5,4.6c0,2.6,0.6,4.9,1.7,6.6
				c1.2,2,2.6,2.7,3.9,2.1c1.3-0.5,1.4-1.8,1.6-3c0.1-0.4,0.1-0.9,0.2-1.3c0,0.1,0.1,0.1,0.1,0.2c0.1,0.1,0.1,0.2,0.1,0.2
				c0.2,0.4,0.4,0.8,0.6,1.1c0.4,0.6,0.8,1.2,1.3,1.9c1.5,1.8,3.4,3.3,5.3,4.8l0.1,0.1c0.1,0.1,0.4,0.2,0.6,0.1
				c0.1,0,0.2-0.1,0.2-0.2c0.1-0.3-0.2-0.5-0.5-0.7l-0.1-0.1c-1.6-1.4-2.8-3.2-3.9-4.9c-0.8-1.3-1.5-2.6-2.1-3.8
				c-0.2-0.4-0.4-0.9-0.5-1.5c-0.3-0.9-0.6-1.7-1.1-2.4c-0.1-0.1-0.1-0.2-0.3-0.2c-0.5-0.2-1,0.5-1.4,1.2c0,0.1-0.1,0.1-0.1,0.2
				c-0.4,0.6-0.7,1.3-1,2.1c-0.2,0.6-0.3,1.3-0.4,2.1c0,0.1,0,0.2,0,0.4c0,0.3-0.1,1.1-0.1,1.4c-1.1-0.4-1.6-2.4-1.9-3.5l0,0
				C9.1,28,9,26.4,9.2,24.7c0.1-1.1,0.5-2.3,0.8-3.4c0.1-0.5,0.3-0.9,0.4-1.4c0.1-0.3,0.2-0.6,0.2-0.9c0-0.7-0.6-1.3-1-1.6
				c-0.2-0.2-0.3-0.3-0.4-0.5c-1-1.4-1.6-3-2.1-4.4c-0.1-0.4-0.2-0.7-0.3-1.1C6.4,10.2,6,9,5.3,8C4.9,7.3,4.5,6.8,4,6.2
				s-1-1.3-1.4-2c-0.3-0.4-0.5-1-0.3-1.4c0.1-0.2,0.2-0.3,0.4-0.4c0.5-0.2,1.1,0.1,1.6,0.3c1.3,0.5,2.4,1.2,3.3,1.8
				C7.8,4.6,8,4.7,8.2,4.9c0.4,0.3,0.7,0.6,1.2,0.8h0.1h0.7c2.6,0,5.1,0.8,7.9,2.6c4.9,3.1,8.7,7.7,11.3,13.5
				c0.2,0.4,0.3,0.8,0.5,1.2c0.5,1.2,1,2.4,1.6,3.5c0.2,0.4,0.4,0.9,0.6,1.3c0.5,1,1,2.1,1.6,3s1.4,1.2,2.3,1.5
				c0.7,0.3,1.4,0.6,2.1,0.8c0.8,0.3,1.6,0.6,2.4,1c0.6,0.4,1.2,0.8,1.8,1.2c0.5,0.3,1,0.7,1.5,1c0.4,0.2,1,0.6,1.4,1h-0.1
				c-2.3,0-4.4,0.3-6.3,1.1c-0.6,0.2-0.9,0.5-1,0.9c-0.2,0.9,0.8,2,1.4,2.7c1.2,1.3,2.8,2.2,4.5,3.1c1.2,0.6,2.2,1.2,3.1,1.8
				c0.4,0.3,0.9,0.6,1.3,1c0.2,0.1,0.3,0.2,0.5,0.4c0.6,0.4,1,0.7,1.2,0.7c0.1,0,0.1,0,0.2,0C50,48.8,49.9,48.5,49.9,48.4"/>
			<path id="Fill-7" class="st0" d="M12,8.5c-0.3-0.2-0.7-0.2-1.1-0.2l0,0c-0.3,0-1,0.1-1,0.4C9.8,8.9,9.9,9,10,9.1l0.3,0.4
				c0.6,0.8,1.1,1.5,1.5,2.4c0.1,0.1,0.2,0.2,0.3,0.2l0,0c0.1,0,0.2-0.1,0.2-0.1c0.3-0.3,0.6-0.5,0.7-0.9c0.2-0.6,0.1-1.4-0.3-1.9
				C12.5,8.9,12.3,8.7,12,8.5"/>
		</g>
	</g>
</g>
</svg>
