<?xml version="1.0" encoding="utf-8"?>
<!-- Generator: Adobe Illustrator 26.3.1, SVG Export Plug-In . SVG Version: 6.00 Build 0)  -->
<svg version="1.1" id="레이어_1" xmlns="http://www.w3.org/2000/svg" xmlns:xlink="http://www.w3.org/1999/xlink" x="0px"
	 y="0px" viewBox="0 0 80 80" style="enable-background:new 0 0 80 80;" xml:space="preserve">
<style type="text/css">
	.st0{fill-rule:evenodd;clip-rule:evenodd;fill:#8FA4BB;}
	.st1{fill-rule:evenodd;clip-rule:evenodd;fill:#324051;}
</style>
<g id="netty">
	<g id="Group-8" transform="translate(8.000000, 11.000000)">
		<path id="Fill-1" class="st0" d="M11.1,46.8c0,0,1.5-2.5,7.6-1c3.6,0.9,6-3.8,12.4-2.6c0,0,2.6,0.3,5.3,1.7c0.4,0.1,1,0.3,1.6,0.6
			c-0.9-0.8-1.9-1.7-3.2-2.7c-0.1-0.1-0.3-0.2-0.4-0.3c-0.8-0.5-1.8-0.9-2.8-1.4c-6.4-2.8-12-9.6-9.3-17.2c3.1-8.4-1.5-11-4.1-12.6
			c-1.8-1.1-0.6-4.3-0.6-4.3s9.9,2.4,18.5,8.4c1.7-4,1.3-6.6,0.9-7.2c-2.1-2.6-2.3-5-2.1-6.1c0.1-0.3,0.2-0.6,0.3-0.9
			c-5.6-1.5-11.8-1.2-17.6,1.1C3.2,8-3.7,24.3,2,38.7C5,46,10.6,51.4,17.4,54.2c0.2-0.5,0.5-1,0.9-1.5
			C15.8,51.3,13.4,49.4,11.1,46.8"/>
		<path id="Fill-3" class="st1" d="M55.4,17.3C52,8.8,45.1,2.8,37.1,0.2c-0.3,0.2-1.2,1-1.4,2c-0.2,0.8,0,2.9,1.9,5.4
			c1.1,1.4,1.1,6.4-3.7,13.5C29,28.2,29.6,37.8,35.3,42c9.3,7,7,10.5,7,10.5c-2.6-7.1-6.8-7-6.8-7c-6.7-0.9-7,3.1-12.3,5
			c-6,2.1-5.3,5.4-5.3,5.4c1.4,0.5,2.8,0.9,4.1,1.2c5.5,1.1,11.4,0.7,17-1.5C54.1,49.6,61.4,32.4,55.4,17.3"/>
		<path id="Fill-6" class="st1" d="M63.5,11.8c-0.1-0.1-0.2,0.1-0.2,0.3C64.9,26,59,37.3,54.5,43.7c8.6-14.5,4.8-26.8,4.8-26.8
			c-0.1,0-0.2,0.1-0.1,0.3c3,17.1-7.9,30.2-9.4,31.9c0,0,0,0,0,0c0,0,0,0,0,0c-0.1,0.1-0.1,0.2-0.1,0.2l0,0
			c-3.6,4.6-9.4,6.6-9.4,6.6c6.7,0.9,8.9-4.3,8.9-4.3c0.7-0.4,1-0.9,1.1-1.2C68.1,31.1,63.5,11.8,63.5,11.8"/>
	</g>
</g>
</svg>
