<?xml version="1.0" encoding="utf-8"?>
<!-- Generator: Adobe Illustrator 26.3.1, SVG Export Plug-In . SVG Version: 6.00 Build 0)  -->
<svg version="1.1" id="레이어_1" xmlns="http://www.w3.org/2000/svg" xmlns:xlink="http://www.w3.org/1999/xlink" x="0px"
	 y="0px" viewBox="0 0 80 80" style="enable-background:new 0 0 80 80;" xml:space="preserve">
<style type="text/css">
	.st0{fill:#3F873F;}
	.st1{fill:#333333;}
	.st2{fill:url(#Path_00000132086218334108191910000000861975064312637882_);}
	.st3{fill:url(#Path_00000151524955795711997220000008830826757150185649_);}
	.st4{fill:url(#Path_00000138541704227814349770000012755236665532390829_);}
</style>
<g id="node">
	<g id="app_node">
		<g id="Group" transform="translate(6.400000, 20.000000)">
			<path id="Path" class="st0" d="M34.1,40.3c-0.2,0-0.4-0.1-0.6-0.2l-2-1.2c-0.3-0.2-0.2-0.2-0.1-0.3c0.4-0.1,0.5-0.2,0.9-0.4
				c0,0,0.1,0,0.1,0l1.5,0.9c0.1,0,0.1,0,0.2,0l5.9-3.4c0.1,0,0.1-0.1,0.1-0.2v-6.8c0-0.1,0-0.1-0.1-0.2l-5.9-3.4
				c-0.1,0-0.1,0-0.2,0l-5.9,3.4c-0.1,0-0.1,0.1-0.1,0.2v6.8c0,0.1,0,0.1,0.1,0.2l1.6,0.9c0.9,0.4,1.4-0.1,1.4-0.6v-6.7
				c0-0.1,0.1-0.2,0.2-0.2h0.8c0.1,0,0.2,0.1,0.2,0.2v6.7c0,1.2-0.6,1.8-1.8,1.8c-0.3,0-0.6,0-1.4-0.4l-1.6-0.9
				c-0.4-0.2-0.6-0.6-0.6-1.1v-6.8c0-0.4,0.2-0.9,0.6-1.1l5.9-3.4c0.4-0.2,0.9-0.2,1.2,0l5.9,3.4c0.4,0.2,0.6,0.6,0.6,1.1v6.8
				c0,0.4-0.2,0.9-0.6,1.1l-5.9,3.4C34.6,40.3,34.3,40.3,34.1,40.3"/>
			<path id="Path_00000013895642343881729120000007938209134626697101_" class="st0" d="M36,35.6c-2.6,0-3.1-1.2-3.1-2.2
				c0-0.1,0.1-0.2,0.2-0.2h0.8c0.1,0,0.2,0.1,0.2,0.1c0.1,0.8,0.5,1.2,2,1.2c1.2,0,1.8-0.3,1.8-0.9c0-0.4-0.2-0.7-2.1-0.9
				C34,32.6,33,32.2,33,30.9c0-1.2,1-1.9,2.7-1.9c1.9,0,2.8,0.7,3,2.1c0,0,0,0.1,0,0.1c0,0-0.1,0.1-0.1,0.1h-0.8
				c-0.1,0-0.2-0.1-0.2-0.1c-0.2-0.8-0.6-1.1-1.8-1.1c-1.4,0-1.5,0.5-1.5,0.8c0,0.4,0.2,0.6,2,0.8c1.8,0.2,2.7,0.6,2.7,1.9
				C38.9,34.9,37.8,35.6,36,35.6"/>
			<path id="Shape" class="st0" d="M43.2,28.4h0.2c0.2,0,0.2-0.1,0.2-0.2c0-0.2-0.1-0.2-0.2-0.2h-0.2V28.4z M42.9,27.8h0.4
				c0.2,0,0.4,0,0.4,0.3c0,0.2-0.2,0.3-0.2,0.3c0.2,0,0.2,0.1,0.2,0.3c0,0.1,0,0.3,0.1,0.3h-0.3c0-0.1,0-0.4,0-0.4
				c0-0.1,0-0.1-0.1-0.1h-0.2v0.5h-0.2V27.8z M42.4,28.4c0,0.5,0.4,1,1,1c0.5,0,1-0.4,1-1c0-0.5-0.4-1-1-1
				C42.8,27.5,42.4,27.9,42.4,28.4z M44.5,28.4c0,0.6-0.5,1.1-1.1,1.1c-0.6,0-1.1-0.5-1.1-1.1c0-0.6,0.5-1.1,1.1-1.1
				C44,27.3,44.5,27.8,44.5,28.4z"/>
			<path id="Path_00000128487558867897876310000012146460347129019583_" class="st1" d="M14.7,13.6c0-0.3-0.1-0.5-0.4-0.7L8.1,9.3
				C8,9.2,7.9,9.2,7.7,9.2H7.7c-0.1,0-0.2,0-0.3,0.1l-6.3,3.6c-0.2,0.1-0.4,0.4-0.4,0.7l0,9.7c0,0.1,0.1,0.3,0.2,0.3
				c0.1,0.1,0.3,0.1,0.4,0L5,21.5c0.2-0.1,0.4-0.4,0.4-0.7v-4.5c0-0.3,0.1-0.5,0.4-0.7l1.6-0.9c0.1-0.1,0.2-0.1,0.4-0.1
				c0.1,0,0.3,0,0.4,0.1l1.6,0.9c0.2,0.1,0.4,0.4,0.4,0.7v4.5c0,0.3,0.1,0.5,0.4,0.7l3.7,2.1c0.1,0.1,0.3,0.1,0.4,0
				c0.1-0.1,0.2-0.2,0.2-0.3L14.7,13.6z"/>
			<path id="Shape_00000127041229593049920880000014049296864641193384_" class="st1" d="M44.4,18.6c0,0.1,0,0.1-0.1,0.2L42.1,20
				c-0.1,0-0.1,0-0.2,0l-2.2-1.2c-0.1,0-0.1-0.1-0.1-0.2v-2.5c0-0.1,0-0.1,0.1-0.2l2.2-1.2c0.1,0,0.1,0,0.2,0l2.2,1.2
				c0.1,0,0.1,0.1,0.1,0.2V18.6z M45,0.2c-0.1-0.1-0.3-0.1-0.4,0c-0.1,0.1-0.2,0.2-0.2,0.3v9.6c0,0.1-0.1,0.2-0.1,0.2
				c-0.1,0-0.2,0-0.3,0l-1.6-0.9c-0.2-0.1-0.5-0.1-0.8,0l-6.3,3.6c-0.2,0.1-0.4,0.4-0.4,0.7V21c0,0.3,0.1,0.5,0.4,0.7l6.3,3.6
				c0.2,0.1,0.5,0.1,0.8,0l6.3-3.6c0.2-0.1,0.4-0.4,0.4-0.7V2.9c0-0.3-0.1-0.5-0.4-0.7L45,0.2z"/>
			<path id="Path_00000111170189958577178200000016206634473595745708_" class="st1" d="M65.9,16.1c0.2-0.1,0.4-0.4,0.4-0.7v-1.8
				c0-0.3-0.1-0.5-0.4-0.7l-6.2-3.6c-0.2-0.1-0.5-0.1-0.8,0L52.6,13c-0.2,0.1-0.4,0.4-0.4,0.7v7.2c0,0.3,0.1,0.5,0.4,0.7l6.2,3.6
				c0.2,0.1,0.5,0.1,0.7,0l3.8-2.1c0.1-0.1,0.2-0.2,0.2-0.3c0-0.1-0.1-0.3-0.2-0.3L57,18.8c-0.1-0.1-0.2-0.2-0.2-0.3v-2.3
				c0-0.1,0.1-0.3,0.2-0.3l2-1.1c0.1-0.1,0.3-0.1,0.4,0l2,1.1c0.1,0.1,0.2,0.2,0.2,0.3v1.8c0,0.1,0.1,0.3,0.2,0.3
				c0.1,0.1,0.3,0.1,0.4,0L65.9,16.1z"/>
			<path id="Path_00000073701727393851758670000016384678423896810168_" class="st0" d="M59.2,15.7c0,0,0.1,0,0.1,0l1.2,0.7
				c0,0,0.1,0.1,0.1,0.1V18c0,0.1,0,0.1-0.1,0.1l-1.2,0.7c0,0-0.1,0-0.1,0L58,18.1c0,0-0.1-0.1-0.1-0.1v-1.4c0-0.1,0-0.1,0.1-0.1
				L59.2,15.7z"/>
			
				<linearGradient id="Path_00000024706625967500017590000014907472824673161615_" gradientUnits="userSpaceOnUse" x1="-294.1837" y1="301.6466" x2="-295.1837" y2="301.6466" gradientTransform="matrix(13.9987 0 0 -15.9341 4150.0767 4823.751)">
				<stop  offset="0" style="stop-color:#3F873F"/>
				<stop  offset="1" style="stop-color:#6ABF4B"/>
			</linearGradient>
			
				<path id="Path_00000118372912204477703010000009057280177646451344_" style="fill:url(#Path_00000024706625967500017590000014907472824673161615_);" d="
				M24.5,9.4L18.3,13c-0.2,0.1-0.4,0.4-0.4,0.7v7.2c0,0.3,0.1,0.5,0.4,0.7l6.2,3.6c0.2,0.1,0.5,0.1,0.8,0l6.2-3.6
				c0.2-0.1,0.4-0.4,0.4-0.7v-7.2c0-0.3-0.1-0.5-0.4-0.7l-6.2-3.6c-0.1-0.1-0.2-0.1-0.4-0.1S24.6,9.4,24.5,9.4"/>
			
				<linearGradient id="Path_00000003105270844343305570000002423651409141999008_" gradientUnits="userSpaceOnUse" x1="-294.6014" y1="301.623" x2="-293.6014" y2="301.623" gradientTransform="matrix(13.6412 0 0 -15.9107 4036.7478 4816.3447)">
				<stop  offset="0" style="stop-color:#3F873F"/>
				<stop  offset="1" style="stop-color:#6ABF4B"/>
			</linearGradient>
			
				<path id="Path_00000062156699344659395320000004118428545121629335_" style="fill:url(#Path_00000003105270844343305570000002423651409141999008_);" d="
				M18,21.4c0.1,0.1,0.1,0.1,0.2,0.2l5.4,3.1l0.9,0.5c0.1,0.1,0.3,0.1,0.4,0.1c0.1,0,0.1,0,0.1,0l6.6-12.1c-0.1-0.1-0.1-0.1-0.2-0.1
				l-4.1-2.3l-2.2-1.3c-0.1,0-0.1-0.1-0.2-0.1L18,21.4z"/>
			
				<linearGradient id="Path_00000086690870742846114400000017376747077959452861_" gradientUnits="userSpaceOnUse" x1="-294.363" y1="301.6375" x2="-293.6208" y2="301.6375" gradientTransform="matrix(13.5908 0 0 -15.9251 4020.991 4820.8867)">
				<stop  offset="0" style="stop-color:#3DAE2B"/>
				<stop  offset="1" style="stop-color:#3F873F"/>
			</linearGradient>
			
				<path id="Path_00000094589951923562550110000013290464766745901743_" style="fill:url(#Path_00000086690870742846114400000017376747077959452861_);" d="
				M24.5,9.4L18.3,13L25,25.3c0.1,0,0.2,0,0.3-0.1l6.2-3.6c0.2-0.1,0.3-0.3,0.4-0.5L25,9.3c-0.1,0-0.1,0-0.2,0c0,0,0,0-0.1,0
				C24.7,9.3,24.6,9.4,24.5,9.4z"/>
		</g>
	</g>
</g>
</svg>
