<?xml version="1.0" encoding="utf-8"?>
<!-- Generator: Adobe Illustrator 26.3.1, SVG Export Plug-In . SVG Version: 6.00 Build 0)  -->
<svg version="1.1" id="레이어_1" xmlns="http://www.w3.org/2000/svg" xmlns:xlink="http://www.w3.org/1999/xlink" x="0px"
	 y="0px" viewBox="0 0 80 80" style="enable-background:new 0 0 80 80;" xml:space="preserve">
<style type="text/css">
	.st0{fill:#DA2430;}
	.st1{fill:#E82429;}
	.st2{fill:#C22035;}
	.st3{fill:#AC223B;}
	.st4{fill:#B92135;}
</style>
<g id="openshift">
	<g id="openshift-logo-svg-vector" transform="translate(10.000000, 12.000000)">
		<path id="Shape" class="st0" d="M17.4,25l-9.6,3.5C7.9,30,8.2,31.6,8.6,33l9.1-3.3C17.4,28.2,17.3,26.6,17.4,25L17.4,25z M60,14.3
			c-0.7-1.4-1.4-2.7-2.3-4L48,13.8c1.1,1.1,2.1,2.4,2.8,3.8L60,14.3L60,14.3L60,14.3z"/>
		<path id="Path" class="st0" d="M42.9,14.3c-1.2-1.1-2.6-2-4.1-2.7h0c-8.9-4.2-19.6-0.3-23.8,8.7c-0.2,0.5-0.4,1-0.6,1.5
			c-0.5,1.5-0.8,3.1-0.9,4.6l0,0l0,0l-5.8,2.1l-3.7,1.4l0,0l-0.1,0c-0.4-4.6,0.4-9.3,2.5-13.8c0.3-0.6,0.6-1.1,0.9-1.7
			C14,1.7,29.6-3.6,42.7,2.6c2.7,1.3,5.1,2.9,7.2,5c1.4,1.3,2.6,2.7,3.7,4.2L44,15.3c0-0.1-0.1-0.1-0.1-0.2l0,0
			C43.5,14.9,43.2,14.6,42.9,14.3L42.9,14.3z"/>
		<path id="Path_00000160174203856184900050000014048801370538528162_" class="st1" d="M4.3,45.5L4.3,45.5c-2-2.8-3.5-6-4.3-9.3
			l9.2-3.3l0,0l0,0l0.1,0l0,0c0.5,2.5,1.4,4.9,2.9,7c0.5,0.8,1.2,1.5,1.8,2.2l0,0l0.1,0.1l-9.5,3.5C4.4,45.6,4.4,45.5,4.3,45.5
			L4.3,45.5z"/>
		<path id="Path_00000084498918860189407980000012852861120151320240_" class="st0" d="M40.7,43c-5,3.1-11.3,3.7-17,1
			c-1.9-0.9-3.7-2.2-5.2-3.7l-9.6,3.5l0.1,0.1l0,0c2.6,3.8,6.2,6.9,10.7,9c9.5,4.5,20.4,2.9,28.2-3.1c3.5-2.6,6.4-6.1,8.4-10.4
			c2.1-4.5,2.8-9.2,2.5-13.8l-0.3,0.1c0,0,0-0.1,0-0.1l-9.5,3.5l0,0c-0.2,2.2-0.7,4.3-1.6,6.2C45.8,38.7,43.4,41.2,40.7,43L40.7,43z
			"/>
		<path id="Path_00000011740096897336154370000011947910004816409508_" class="st1" d="M51.3,17.5l0.1-0.1v0
			c1.5,3.1,2.4,6.5,2.7,9.9l-9.6,3.5l0-0.1l-0.2,0.1c0.3-3.6-0.5-7.1-2.2-10.2l9.1-3.4l0,0C51.2,17.4,51.3,17.4,51.3,17.5z"/>
		<path id="Shape_00000102536344419019758860000000478311657213361569_" class="st2" d="M17.4,24.9l-9.6,3.5C8,30,8.3,31.6,8.6,33.1
			l9.1-3.4C17.4,28.1,17.3,26.5,17.4,24.9L17.4,24.9z M59.7,14.2c-0.7-1.4-1.4-2.7-2.3-4l-9.6,3.5c1.1,1.2,2,2.5,2.8,3.8L59.7,14.2
			L59.7,14.2L59.7,14.2z"/>
		<path id="Shape_00000183940223123100619980000006184271275827017098_" class="st3" d="M7.9,28.5l9.5-3.5l0,1.9l-9.2,3.5L7.9,28.5
			L7.9,28.5L7.9,28.5z M47.8,13.7l9.7-3.3l1,1.5l-9.4,3.3L47.8,13.7L47.8,13.7L47.8,13.7z"/>
		<path id="Shape_00000008829669675353595370000005658693629747688881_" class="st4" d="M8.9,43.9l9.6-3.5l2.9,2.7l-10,3.8L8.9,43.9
			L8.9,43.9L8.9,43.9z M58.6,25.7l-9.7,3.5l-0.7,3.9l10.3-3.7L58.6,25.7L58.6,25.7L58.6,25.7z"/>
	</g>
</g>
</svg>
