<?xml version="1.0" encoding="utf-8"?>
<!-- Generator: Adobe Illustrator 26.3.1, SVG Export Plug-In . SVG Version: 6.00 Build 0)  -->
<svg version="1.1" id="레이어_1" xmlns="http://www.w3.org/2000/svg" xmlns:xlink="http://www.w3.org/1999/xlink" x="0px"
	 y="0px" viewBox="0 0 80 80" style="enable-background:new 0 0 80 80;" xml:space="preserve">
<style type="text/css">
	.st0{fill-rule:evenodd;clip-rule:evenodd;fill:#EA1B22;}
</style>
<g id="oracle">
	<g id="oracle-logo" transform="translate(10.000000, 21.000000)">
		<path id="Oracle_logo-Copy-4" class="st0" d="M41,0c10.5,0,19,8.6,19,19.3c0,10.7-8.5,19.3-19,19.3H19c-10.5,0-19-8.6-19-19.3
			C0,8.6,8.5,0,19,0H41z M41,7.1H19.5C12.7,7.1,7,12.4,7,19.3c0,6.9,6.2,12.2,13,12.2h21c6.8,0,12-5.3,12-12.2
			C53,12.4,47.8,7.1,41,7.1z"/>
	</g>
</g>
</svg>
