<?xml version="1.0" encoding="utf-8"?>
<!-- Generator: Adobe Illustrator 26.3.1, SVG Export Plug-In . SVG Version: 6.00 Build 0)  -->
<svg version="1.1" id="레이어_1" xmlns="http://www.w3.org/2000/svg" xmlns:xlink="http://www.w3.org/1999/xlink" x="0px"
	 y="0px" viewBox="0 0 80 80" style="enable-background:new 0 0 80 80;" xml:space="preserve">
<style type="text/css">
	.st0{fill-rule:evenodd;clip-rule:evenodd;fill:#417BA2;}
</style>
<g id="pgsql">
	<g id="topology_postgresql" transform="translate(5.000000, 5.000000)">
		<path id="PostgreSQL_logo-Copy" class="st0" d="M39.4,13c2.7-0.7,5.7-1,8.5-0.5c2.5,0.4,5,1.7,6.9,3.5c0.8,0.8,1.6,1.7,1.9,2.8
			c0.6,2,0.3,4,0,6c-0.9,4.7-2.7,9.3-5.2,13.5c1.1,0,2.1-0.3,3.2-0.4c1-0.1,2.2,0.6,2.4,1.6c0.3,1.1-0.4,2.2-1.2,2.9
			c-2.2,1.9-5.3,2.5-8,2.4c-0.2,2.9-0.2,5.8-1.4,8.6c-0.6,1.2-1.4,2.2-2.5,2.9c-1.1,0.7-2.3,1-3.6,1.2c-1.3,0.2-2.8,0.1-4.1-0.7
			c-1.1-0.7-1.7-1.8-2.1-3c-0.9-2.5-0.8-5.1-1-7.8c-1.9,0.8-4.1,0.8-6,0.1c-0.7-0.2-1.3-0.6-1.8-1.1c-1,0.8-2.3,1.2-3.7,0.9
			c-1.6-0.4-2.7-1.8-3.7-3.1c-1.5-2.4-2.4-5.1-3.2-7.9c-0.9-3.1-1.7-6.2-2.1-9.6c-0.2-2.9,0-5.9,1.6-8.5c1.2-2,3.4-3.4,5.8-3.9
			c3.3-0.7,6.8,0,9.9,0.9c1-0.5,2-1,3.1-1.2C35.4,12.5,37.4,12.7,39.4,13z M48.6,13.5c-2.9-0.4-6.3-0.2-9.3,0.7
			c-0.2,0.1-0.5-0.1-0.7-0.1c-2.7-0.6-5.8-0.3-8.1,1.2c-2.8-1-5.9-1.6-8.9-1.3c-2.2,0.2-4.6,1.3-5.8,3.1c-1.6,2.4-1.8,5.4-1.6,8.2
			c0.5,3.7,1.4,7.4,2.5,10.9c0.8,2.2,1.6,4.4,2.9,6.4c0.7,0.9,1.6,1.9,2.8,2c1.1,0.1,2-0.5,2.7-1.3c1.2-1.4,2.3-2.7,3.6-4
			c0.8,0.4,1.7,0.6,2.5,0.7c-0.5,0.6-0.9,1.3-1.6,1.5c-1,0.4-2.2,0.3-3.1,1c-0.5,0.4-0.6,1.2-0.1,1.6c0.8,0.8,2.1,1,3.2,1.1
			c1.6,0.1,3.2-0.4,4.5-1.5c0,2.5,0,5.1,0.3,7.7c0.1,1.5,0.8,3,1.9,3.9c1,0.9,2.6,1.1,4,0.9c1.3-0.3,2.7-0.7,3.8-1.5
			c1.1-1,1.6-2.4,1.8-3.8c0.4-2.5,0.7-5,1-7.7c2.8,0.5,6.1-0.1,8.2-2.1c0.4-0.4,0.9-1.2,0.4-1.7c-0.4-0.5-1.2-0.4-1.8-0.3
			c-1.4,0.3-3,0.6-4.5-0.1c2.5-4,4.6-8.4,5.7-13c0.4-1.7,0.7-3.5,0.7-5.3c-0.1-1-0.2-2.1-0.8-2.9C53.3,15.6,51,14.2,48.6,13.5z
			 M34.4,15.2c3.1-0.4,6.5,0.5,9,2.4c2,1.6,3.8,3.8,4.6,6.4c-1.4,0-3.1-0.1-4.4,0.9c-1.1,0.9-1.2,2.4-1,3.7c0.6,3.1,2.4,5.7,3.8,8.5
			c0.3,0.7,0.8,1.2,1.3,1.8c-0.6,0.3-1.1,0.5-1.4,1.1c-0.5,0.9-0.3,1.9-0.5,2.9c-0.3,2.7-0.6,5.4-1,8.2c-0.2,1.3-0.8,2.7-2,3.3
			c-1.2,0.6-2.7,1-4.2,0.8c-1.3-0.2-2.2-1.5-2.5-2.7c-0.3-1-0.3-2.1-0.4-3.1c-0.1-2.5-0.1-5-0.1-7.6c0.1-1-0.4-2-1.3-2.5
			c-0.4-0.2-0.9-0.3-1.4-0.3c0.4-1.8,1.5-3.4,1.9-5.3c0.5-2.3,0.2-4.6-0.3-7c-0.2-1.1-1.1-2.1-2.2-2.4c-1.8-0.4-3.6,0.2-5.2,1
			c0.2-2.5,0.9-5.1,2.4-7.3C30.6,16.5,32.5,15.5,34.4,15.2z M33.1,40.3c0.9-0.1,1.7,1.3,0.9,2c-1.4,1.9-4.4,2.3-6.4,1.2
			c1-0.4,2.2-0.4,3.2-1C31.8,42,32.2,40.9,33.1,40.3z M20.9,15.4c2.8-0.5,5.7,0,8.4,0.8c-1.2,1.3-2.1,2.8-2.6,4.5
			c-0.7,2.2-1,4.6-0.9,7.1c0.1,1.7,0.1,3.3-0.2,5c-0.3,2.1,0.6,4.3,2.2,5.8c-1.1,1.3-2.2,2.5-3.3,3.8c-0.5,0.6-1.1,1.2-1.9,1
			c-0.9-0.3-1.5-1.1-2-1.9c-1.4-2.2-2.2-4.7-3-7.3c-0.9-2.9-1.6-5.9-2-9.1c-0.2-2.3-0.1-4.8,1.1-6.9C17.4,16.8,19.1,15.8,20.9,15.4z
			 M47.6,40.5c0.3-0.2,0.8-0.5,1.2-0.2c1.6,0.9,3.6,0.4,5.4,0.2c-1.1,1-2.5,1.5-4.1,1.7c-1,0.1-2,0.2-2.9-0.2
			C47.2,41.5,47.2,40.9,47.6,40.5z M31.1,25.5l0.3,0c0.8,0,1.5,0.6,1.7,1.4c0.7,2.8,0.9,5.9-0.4,8.7c-0.5,1-0.9,2.1-1.2,3.2
			c-2.3,0-4.3-1.9-4.7-4c-0.3-1.2,0.1-2.4,0.1-3.6c0.2-1.5,0.1-2.8,0.1-4.2c1.3-0.8,2.8-1.5,4.4-1.4L31.1,25.5z M41.5,15
			c2.5-0.6,5.4-0.5,7.8,0.4c1.7,0.6,3.2,1.8,4.4,3.2c0.6,0.7,0.6,1.6,0.6,2.4c0,2-0.4,3.9-0.9,5.9c-1,3.5-2.4,7-4.4,10.1
			c-0.2,0.3-0.4,0.6-0.6,0.9c0-0.1-0.1-0.3-0.1-0.3c0.2-0.6,0.6-1.2,0.7-1.8c0.5-1.8,0.1-3.7-0.1-5.5c-0.2-1.7,0.4-3.4,0.4-5.1
			c0.1-0.8-0.3-1.6-0.6-2.4c-1.2-2.6-3-4.9-5.5-6.6C42.8,15.7,42.1,15.4,41.5,15z M44.5,25.8c1-0.7,2.4-0.6,3.6-0.5
			c-0.1,1.6-0.6,3.2-0.4,4.9c0.2,2,0.7,4.2-0.2,6.2c-1.3-2.6-3-5-3.6-8C43.8,27.6,43.8,26.5,44.5,25.8z M32.5,26.6
			c-0.5-0.4-1.2-0.5-1.8-0.3c-0.2,0.1-0.4,0.2-0.4,0.4c0.1,0.8,1.2,1.3,1.9,0.8C32.5,27.3,32.8,26.9,32.5,26.6z M47,26
			c-0.6-0.2-1.4-0.2-2,0.2c-0.3,0.3,0,0.7,0.3,0.8C46,27.4,47,26.8,47,26z"/>
	</g>
</g>
</svg>
