<?xml version="1.0" encoding="utf-8"?>
<!-- Generator: Adobe Illustrator 26.3.1, SVG Export Plug-In . SVG Version: 6.00 Build 0)  -->
<svg version="1.1" id="레이어_1" xmlns="http://www.w3.org/2000/svg" xmlns:xlink="http://www.w3.org/1999/xlink" x="0px"
	 y="0px" viewBox="0 0 80 80" style="enable-background:new 0 0 80 80;" xml:space="preserve">
<style type="text/css">
	.st0{fill:#FEFEFE;}
	.st1{fill:#777AB3;}
</style>
<g id="php">
	<g id="app_php">
		<g transform="translate(1.302222, 1.415556)">
			<path id="Shape_00000154403076452711907010000011715124150376532138_" class="st0" d="M27,36.5c-0.2,1.2-0.7,2.1-1.3,2.6
				c-0.6,0.5-1.7,0.7-3.1,0.7h-1.4l1.2-6.1h2.1c1.7,0,2.3,0.4,2.4,0.6C27.1,34.7,27.2,35.4,27,36.5 M24.3,32.9h-2.8l-1.5,7.8h2.5
				c1.6,0,2.8-0.3,3.6-0.9c0.8-0.6,1.3-1.6,1.6-3.1c0.3-1.4,0.1-2.4-0.4-2.9C26.9,33.2,25.9,32.9,24.3,32.9 M58.5,36.5
				c-0.2,1.2-0.7,2.1-1.3,2.6c-0.6,0.5-1.7,0.7-3.1,0.7h-1.4l1.2-6.1h2.1c1.7,0,2.3,0.4,2.4,0.6C58.6,34.7,58.7,35.4,58.5,36.5
				 M55.9,32.9h-2.8l-1.5,7.8H54c1.6,0,2.8-0.3,3.6-0.9c0.8-0.6,1.3-1.6,1.6-3.1c0.3-1.4,0.1-2.4-0.4-2.9
				C58.4,33.2,57.4,32.9,55.9,32.9"/>
			<path id="Shape_00000005237997583942128180000008645410180906479760_" class="st0" d="M63.5,37c-0.2,0.9-0.5,1.7-0.9,2.5
				c-0.4,0.8-1,1.4-1.6,2.1c-0.8,0.8-1.7,1.3-2.7,1.6c-1,0.3-2.2,0.5-3.8,0.5H51l-1,4.9h-4L49.6,30h7.8c2.3,0,4,0.6,5.1,1.8
				C63.6,33,63.9,34.8,63.5,37L63.5,37z M41.5,43.6l1.6-8.2c0.2-0.9,0.1-1.6-0.2-1.9c-0.3-0.3-1-0.5-2-0.5h-3.2l-2.1,10.6h-4
				L35.2,25h4l-1,4.9h3.6c2.2,0,3.8,0.4,4.6,1.2c0.9,0.8,1.1,2.1,0.8,3.8l-1.7,8.6H41.5z M29.4,41.5c-0.8,0.8-1.7,1.3-2.7,1.6
				c-1,0.3-2.2,0.5-3.8,0.5h-3.5l-1,4.9h-4L18.1,30h7.8c2.3,0,4,0.6,5.1,1.8c1.1,1.2,1.4,2.9,1,5.1c-0.2,0.9-0.5,1.7-0.9,2.5
				C30.6,40.2,30,40.9,29.4,41.5L29.4,41.5z M63.1,31.3c-0.6-0.7-1.4-1.3-2.4-1.6c-0.9-0.3-2.1-0.5-3.3-0.5h-7.8
				c-0.4,0-0.7,0.3-0.8,0.7L48.2,33c-0.1-1-0.5-1.8-1.2-2.5c-1-0.9-2.7-1.4-5.2-1.4h-2.6l0.8-3.9c0-0.2,0-0.5-0.2-0.7
				c-0.2-0.2-0.4-0.3-0.6-0.3h-4c-0.4,0-0.7,0.3-0.8,0.7l-1.7,8.6c-0.2-0.8-0.6-1.6-1.2-2.2c-0.6-0.7-1.4-1.3-2.4-1.6
				c-0.9-0.3-2.1-0.5-3.3-0.5h-7.8c-0.4,0-0.7,0.3-0.8,0.7l-3.6,18.5c0,0.2,0,0.5,0.2,0.7c0.2,0.2,0.4,0.3,0.6,0.3h4
				c0.4,0,0.7-0.3,0.8-0.7l0.8-4.3h2.8c1.6,0,3-0.2,4-0.5c1.1-0.4,2.1-1,3-1.8c0.6-0.5,1-1.1,1.4-1.7l-0.6,3c0,0.2,0,0.5,0.2,0.7
				c0.2,0.2,0.4,0.3,0.6,0.3h4c0.4,0,0.7-0.3,0.8-0.7l1.9-9.9h2.5c1.2,0,1.4,0.2,1.4,0.2c0,0,0.2,0.2,0,1.2l-1.6,8.2
				c0,0.2,0,0.5,0.2,0.7c0.2,0.2,0.4,0.3,0.6,0.3h4.1c0.2,0,0.3,0,0.4-0.1l-0.8,4.1c0,0.2,0,0.5,0.2,0.7c0.2,0.2,0.4,0.3,0.6,0.3h4
				c0.4,0,0.7-0.3,0.8-0.7l0.8-4.3h2.8c1.6,0,3-0.2,4-0.5c1.1-0.4,2.1-1,3-1.8c0.7-0.7,1.3-1.4,1.8-2.3c0.5-0.8,0.8-1.7,1-2.7
				C64.8,34.7,64.4,32.7,63.1,31.3L63.1,31.3z"/>
			<g>
				<path class="st1" d="M55.9,32.9h-2.8l-1.5,7.8H54c1.6,0,2.8-0.3,3.6-0.9c0.8-0.6,1.3-1.6,1.6-3.1c0.3-1.4,0.1-2.4-0.4-2.9
					C58.4,33.2,57.4,32.9,55.9,32.9z"/>
				<path class="st1" d="M24.3,32.9h-2.8l-1.5,7.8h2.5c1.6,0,2.8-0.3,3.6-0.9c0.8-0.6,1.3-1.6,1.6-3.1c0.3-1.4,0.1-2.4-0.4-2.9
					C26.9,33.2,25.9,32.9,24.3,32.9z"/>
				<path class="st1" d="M38.7,19.5c-19.9,0-36,8.5-36,18.9s16.1,18.9,36,18.9c19.9,0,36-8.5,36-18.9S58.6,19.5,38.7,19.5z
					 M29.4,41.5c-0.8,0.8-1.7,1.3-2.7,1.6c-1,0.3-2.2,0.5-3.8,0.5h-3.5l-1,4.9h-4L18.1,30h7.8c2.3,0,4,0.6,5.1,1.8
					c1.1,1.2,1.4,2.9,1,5.1c-0.2,0.9-0.5,1.7-0.9,2.5C30.6,40.2,30,40.9,29.4,41.5z M41.5,43.6l1.6-8.2c0.2-0.9,0.1-1.6-0.2-1.9
					c-0.3-0.3-1-0.5-2-0.5h-3.2l-2.1,10.6h-4L35.2,25h4l-1,4.9h3.6c2.2,0,3.8,0.4,4.6,1.2c0.9,0.8,1.1,2.1,0.8,3.8l-1.7,8.6H41.5z
					 M63.5,37c-0.2,0.9-0.5,1.7-0.9,2.5c-0.4,0.8-1,1.4-1.6,2.1c-0.8,0.8-1.7,1.3-2.7,1.6c-1,0.3-2.2,0.5-3.8,0.5H51l-1,4.9h-4
					L49.6,30h7.8c2.3,0,4,0.6,5.1,1.8C63.6,33,63.9,34.8,63.5,37z"/>
			</g>
		</g>
	</g>
</g>
</svg>
