<?xml version="1.0" encoding="utf-8"?>
<!-- Generator: Adobe Illustrator 26.3.1, SVG Export Plug-In . SVG Version: 6.00 Build 0)  -->
<svg version="1.1" id="레이어_1" xmlns="http://www.w3.org/2000/svg" xmlns:xlink="http://www.w3.org/1999/xlink" x="0px"
	 y="0px" viewBox="0 0 80 80" style="enable-background:new 0 0 80 80;" xml:space="preserve">
<style type="text/css">
	.st0{fill-rule:evenodd;clip-rule:evenodd;fill:#999999;}
	.st1{fill-rule:evenodd;clip-rule:evenodd;fill:#FFFFFF;}
</style>
<g id="play">
	<g id="Group-7" transform="translate(26.000000, 12.000000)">
		<path id="Fill-1" class="st0" d="M13,31.6L1.3,45.7c-1.7,2.1-1.6,5.2,0.3,7.1L3,54.2c2.2,2.2,5.7,2,7.7-0.2l4.2-4.8
			c1.6-3.2,2.5-6.7,2.5-10.5c0-4.7-1.4-9-3.7-12.7C14.6,27.8,14.4,30,13,31.6"/>
		<path id="Fill-4" class="st1" d="M30.3,31.7c1.7-2,1.8-4.9,0-6.9l-19.7-23C8.7-0.5,5.1-0.6,3,1.6L1.5,3c-1.9,1.9-2.1,4.9-0.4,7
			L13,24.9c0.3,0.3,0.5,0.7,0.7,1.1c0,0,0,0,0-0.1c2.4,3.6,3.7,8,3.7,12.7c0,3.8-0.9,7.4-2.5,10.5L30.3,31.7z"/>
	</g>
</g>
</svg>
