<?xml version="1.0" encoding="utf-8"?>
<!-- Generator: Adobe Illustrator 26.3.1, SVG Export Plug-In . SVG Version: 6.00 Build 0)  -->
<svg version="1.1" id="레이어_1" xmlns="http://www.w3.org/2000/svg" xmlns:xlink="http://www.w3.org/1999/xlink" x="0px"
	 y="0px" viewBox="0 0 80 80" style="enable-background:new 0 0 80 80;" xml:space="preserve">
<style type="text/css">
	.st0{fill:#646464;}
	.st1{fill:url(#Shape_00000036245195945452556100000010698359635669390771_);}
	.st2{fill:url(#Shape_00000047749731503699159840000002534649373583033761_);}
</style>
<g id="python">
	<g id="app_python">
		<g id="Group" transform="translate(14.400000, 10.400000)">
			<path id="Shape" class="st0" d="M6.3,49c0-2.5-0.7-3.8-2.1-3.9c-0.6,0-1.1,0.1-1.7,0.3c-0.4,0.2-0.7,0.3-0.9,0.5v6
				c0.9,0.6,1.7,0.8,2.4,0.8C5.5,52.6,6.3,51.4,6.3,49z M8,49.1c0,1.3-0.3,2.3-0.9,3.2c-0.7,0.9-1.6,1.4-2.8,1.5
				c-0.9,0-1.8-0.3-2.8-0.8v5.4l-1.5-0.5v-12c0.3-0.3,0.6-0.6,1-0.8c0.9-0.5,2-0.8,3.3-0.8l0,0c1.2,0,2.1,0.5,2.8,1.5
				C7.7,46.5,8,47.7,8,49.1z M17.4,52.7c0,1.7-0.2,2.9-0.5,3.5c-0.3,0.7-1,1.2-2,1.6c-0.8,0.3-1.6,0.5-2.5,0.5l-0.3-1
				c0.9-0.1,1.6-0.3,1.9-0.4c0.7-0.3,1.3-0.6,1.5-1.2c0.2-0.4,0.3-1.2,0.3-2.4V53c-1,0.5-2.1,0.7-3.3,0.7c-0.8,0-1.4-0.2-2-0.7
				c-0.6-0.5-1-1.2-1-2v-6.4l1.5-0.5v6.4c0,0.7,0.2,1.2,0.7,1.6c0.4,0.4,1,0.5,1.7,0.5c0.7,0,1.5-0.3,2.3-0.8v-7.5h1.5V52.7z
				 M23.3,53.7c-0.2,0-0.3,0-0.5,0c-0.9,0-1.5-0.2-2-0.6c-0.5-0.4-0.7-1-0.7-1.7v-6h-1v-1h1v-2.6l1.5-0.5v3.1h1.7v1h-1.7v6
				c0,0.6,0.2,1,0.5,1.2c0.3,0.2,0.7,0.3,1.3,0.3V53.7z M32.6,53.6h-1.5v-5.9c0-0.6-0.1-1.1-0.4-1.6c-0.3-0.5-0.8-0.7-1.3-0.7
				c-0.7,0-1.6,0.4-2.6,1.1v7.1h-1.5V39.4l1.5-0.5v6.4c1-0.7,2-1.1,3.2-1.1c0.8,0,1.5,0.3,2,0.8c0.5,0.5,0.8,1.2,0.8,2V53.6z
				 M40.7,48.8c0-1-0.2-1.8-0.5-2.4c-0.4-0.8-1.1-1.2-2-1.2c-1.7,0.1-2.5,1.3-2.5,3.6c0,1.1,0.2,1.9,0.5,2.6c0.4,0.9,1.1,1.3,2,1.3
				C39.9,52.8,40.7,51.4,40.7,48.8z M42.4,48.8c0,1.4-0.3,2.5-1,3.4c-0.8,1-1.8,1.5-3.2,1.5c-1.3,0-2.4-0.5-3.1-1.5
				c-0.7-0.9-1-2-1-3.4c0-1.3,0.4-2.4,1.1-3.2c0.8-0.9,1.8-1.4,3.1-1.4c1.3,0,2.3,0.5,3.1,1.4C42,46.4,42.4,47.5,42.4,48.8z
				 M51.2,53.6h-1.5v-6.2c0-0.7-0.2-1.2-0.6-1.6c-0.4-0.4-1-0.6-1.6-0.6c-0.7,0-1.4,0.3-2.1,0.7v7.7h-1.5v-7.9
				c0.9-0.6,1.7-1.1,2.4-1.3c0.7-0.2,1.3-0.3,1.8-0.3c0.4,0,0.7,0,1,0.1c0.6,0.1,1.1,0.4,1.5,0.8c0.4,0.4,0.6,0.9,0.6,1.5V53.6z"/>
			
				<linearGradient id="Shape_00000109711863968053380110000000619511561411959742_" gradientUnits="userSpaceOnUse" x1="-313.3696" y1="318.2585" x2="-314.3681" y2="318.2664" gradientTransform="matrix(28.1914 0 0 -28.2027 8868.8701 8990.041)">
				<stop  offset="0" style="stop-color:#366A96"/>
				<stop  offset="1" style="stop-color:#3679B0"/>
			</linearGradient>
			
				<path id="Shape_00000079478249280746557480000006905751693775788695_" style="fill:url(#Shape_00000109711863968053380110000000619511561411959742_);" d="
				M16.2,5.2c0-2.6,0.7-4.1,4.6-4.7c2.6-0.5,6-0.5,9.2,0c2.5,0.4,4.6,2.3,4.6,4.7v8.7c0,2.5-2,4.6-4.6,4.6h-9.2
				c-3.1,0-5.7,2.7-5.7,5.7v4.2h-3.2c-2.7,0-4.2-1.9-4.9-4.6c-0.9-3.6-0.8-5.8,0-9.2c0.7-3,3.1-4.6,5.7-4.6h3.4h9.2V8.6h-9.2V5.2z
				 M18.5,4.6c0,1,0.8,1.7,1.7,1.7c0.9,0,1.7-0.8,1.7-1.7c0-1-0.8-1.7-1.7-1.7C19.3,2.9,18.5,3.6,18.5,4.6z"/>
			
				<linearGradient id="Shape_00000041258299531553828760000000494662464663904130_" gradientUnits="userSpaceOnUse" x1="-313.3907" y1="318.3301" x2="-315.3662" y2="318.3301" gradientTransform="matrix(28.2488 0 0 -28.4119 8897.376 9068.3496)">
				<stop  offset="0" style="stop-color:#FFC836"/>
				<stop  offset="1" style="stop-color:#FFE873"/>
			</linearGradient>
			
				<path id="Shape_00000115503317892015286060000006890934504879171220_" style="fill:url(#Shape_00000041258299531553828760000000494662464663904130_);" d="
				M34.6,32.9c0,2.6-2.3,4-4.6,4.6c-3.5,1-6.3,0.8-9.2,0c-2.4-0.7-4.6-2.2-4.6-4.6v-8.7c0-2.5,2.1-4.6,4.6-4.6H30
				c3.1,0,5.7-2.6,5.7-5.8v-4h3.4c2.7,0,3.9,2,4.6,4.6c0.9,3.7,1,6.4,0,9.2c-0.9,2.8-1.9,4.6-4.6,4.6h-4.6h-9.2v1.2h9.2V32.9z
				 M28.8,33.5c0,1,0.8,1.7,1.7,1.7c1,0,1.7-0.8,1.7-1.7c0-1-0.8-1.7-1.7-1.7C29.6,31.7,28.8,32.5,28.8,33.5z"/>
		</g>
	</g>
</g>
</svg>
