<svg width="40" height="40" viewBox="0 0 40 40" fill="none" xmlns="http://www.w3.org/2000/svg">
<path fill-rule="evenodd" clip-rule="evenodd" d="M32.3179 27.9179C31.7811 27.7916 31.2379 27.7284 30.6821 27.7221C29.7284 27.7221 28.8568 27.8863 28.2126 28.1579C28.1368 28.1958 28.0926 28.2716 28.0926 28.3537C28.0926 28.3853 28.099 28.4169 28.1116 28.4421C28.1874 28.6632 28.0611 28.9032 27.4421 29.0358C26.52 29.2379 25.939 30.1853 25.6042 30.5011C25.2126 30.8737 24.1137 31.1011 24.2779 30.88C24.4105 30.7095 24.9032 30.1663 25.2063 29.5853C25.4779 29.0674 25.7179 28.9158 26.0463 28.4232C26.1411 28.2779 26.52 27.7663 26.6274 27.3621C26.7537 26.9642 26.7095 26.4716 26.76 26.2632C26.8295 25.9663 27.1074 25.3284 27.1263 24.9684C27.139 24.7663 26.2737 25.259 25.8632 25.259C25.4526 25.259 25.0547 25.0126 24.6884 24.9937C24.2337 24.9747 23.9432 25.3411 23.5326 25.2779C23.299 25.24 23.1032 25.0316 22.6926 25.019C22.1116 25 21.3979 25.3411 20.059 25.2969C18.7453 25.2526 17.5263 23.6358 17.3621 23.3769C17.1663 23.0737 16.9263 23.0737 16.6737 23.3137C16.4147 23.5537 16.0926 23.3642 16.0042 23.2063C15.8337 22.9032 15.3663 22.019 14.6526 21.8358C13.6674 21.5769 13.1621 22.379 13.2253 23.0232C13.2947 23.6737 13.7116 23.8505 13.9074 24.1979C14.1032 24.5453 14.2042 24.7663 14.5642 24.9179C14.8232 25.0253 14.9179 25.1832 14.8421 25.3979C14.7726 25.5811 14.5074 25.6253 14.3242 25.6316C13.9453 25.6505 13.6863 25.5495 13.4905 25.4232C13.2695 25.2842 13.0863 25.0821 12.8905 24.7474C12.6632 24.3747 12.3095 24.2105 11.8926 24.2105C11.6968 24.2105 11.5074 24.2611 11.3432 24.3495C10.6421 24.7095 9.87158 24.8926 9.08211 24.8863H8.16001C7.69264 23.4969 7.45264 22.0379 7.45264 20.5663C7.45264 13.1011 13.5032 7.05054 20.9684 7.05054C28.4337 7.05054 34.4842 13.1011 34.4842 20.5663C34.4905 23.1811 33.7326 25.7326 32.3179 27.9179Z" fill="#020002"/>
<path fill-rule="evenodd" clip-rule="evenodd" d="M23.9432 26.68C24.0126 26.7495 24.1326 26.9768 23.9874 27.2674C23.9053 27.4189 23.7979 27.5516 23.6589 27.6526C23.4695 27.8042 23.0968 27.981 22.5853 27.6589C22.3137 27.4821 22.2947 27.4253 21.9158 27.4758C21.6442 27.5137 21.5368 27.2421 21.6379 27.0084C21.7326 26.781 22.1305 26.5979 22.6295 26.8884C22.8505 27.021 23.1979 27.2989 23.5074 27.0526C23.6337 26.9516 23.7095 26.8821 23.8863 26.68C23.8926 26.6737 23.9053 26.6674 23.9179 26.6674C23.9242 26.6674 23.9368 26.6737 23.9432 26.68Z" fill="#020002"/>
<path fill-rule="evenodd" clip-rule="evenodd" d="M28.5979 16.9727C28.4653 17.4211 28.2758 17.9958 27.4295 18.4316C27.3032 18.4948 27.259 18.3937 27.3158 18.2927C27.6379 17.7495 27.6947 17.6106 27.7832 17.4022C27.9158 17.0864 27.979 16.6443 27.72 15.7158C27.2147 13.8843 26.1537 11.4401 25.3832 10.6506C24.6379 9.88637 23.2926 9.67164 22.0737 9.98111C21.6253 10.0948 20.7474 10.5558 19.1179 10.1832C16.3011 9.55164 15.8842 10.9601 15.72 11.5727C15.5558 12.1853 15.1705 13.9348 15.1705 13.9348C15.0442 14.6485 14.8737 15.8801 19.2442 16.7137C21.2842 17.099 21.3853 17.6295 21.4737 18.0085C21.6379 18.6906 21.8905 19.0758 22.1874 19.2716C22.4779 19.4674 22.1874 19.6253 21.8653 19.6569C21 19.7453 17.7916 18.8295 15.8905 17.7495C14.3369 16.8022 14.3116 15.9432 14.6653 15.2232C12.3221 14.9706 10.56 15.4443 10.2379 16.5558C9.70106 18.4569 14.4379 21.7158 19.8316 23.3453C25.4905 25.0632 31.3137 23.8632 31.9579 20.3074C32.2547 18.6906 30.8905 17.4906 28.5979 16.9727Z" fill="#C1342C"/>
<path fill-rule="evenodd" clip-rule="evenodd" d="M21.5495 10.9095H21.5558L21.5558 10.9095C21.6442 10.8969 21.7326 10.8842 21.821 10.8779C22.661 10.7895 23.3684 10.9285 23.4 11.1874C23.4253 11.3832 23.0653 11.5853 22.5221 11.7116C22.4968 11.7179 22.4779 11.7432 22.4779 11.7685C22.4779 11.7937 22.4968 11.819 22.5221 11.8253C22.7747 11.8948 23.0337 11.9327 23.2926 11.939C24.1579 11.9579 24.8653 11.6421 24.8779 11.2379C24.8905 10.8337 24.1958 10.4864 23.3305 10.4674C23.1537 10.4674 22.9768 10.4737 22.8 10.4927C22.2821 10.5495 21.8337 10.6758 21.5305 10.8337C21.5179 10.84 21.5053 10.8527 21.5053 10.8716C21.5053 10.8906 21.5242 10.9095 21.5495 10.9095ZM17.8989 14.0864C18.1895 13.7769 18.3537 13.6064 19.9137 13.4927C20.6589 13.4358 20.7347 13.2653 20.7095 13.0821C20.6842 12.8674 20.2358 12.6211 19.5663 12.6211C19.1668 12.6211 18.8351 12.6515 18.5441 12.6781C18.3566 12.6953 18.1861 12.7109 18.0253 12.7158C17.6147 12.7285 17.2989 12.4253 17.1537 12.2421C17.0337 12.0906 16.6421 11.9453 16.4337 12.4316C16.2253 12.9242 16.6168 13.4485 16.9453 13.5179C16.9453 13.5179 17.4884 14.5221 17.8989 14.0864Z" fill="#020002"/>
</svg>
