<?xml version="1.0" encoding="utf-8"?>
<!-- Generator: Adobe Illustrator 26.3.1, SVG Export Plug-In . SVG Version: 6.00 Build 0)  -->
<svg version="1.1" id="레이어_1" xmlns="http://www.w3.org/2000/svg" xmlns:xlink="http://www.w3.org/1999/xlink" x="0px"
	 y="0px" viewBox="0 0 40 40" style="enable-background:new 0 0 40 40;" xml:space="preserve">
<style type="text/css">
	.st0{fill-rule:evenodd;clip-rule:evenodd;fill:#FFFFFF;}
</style>
<path class="st0" d="M23.9,26.7c0.1,0.1,0.2,0.3,0,0.6c-0.1,0.2-0.2,0.3-0.3,0.4c-0.2,0.2-0.6,0.3-1.1,0c-0.3-0.2-0.3-0.2-0.7-0.2
	c-0.3,0-0.4-0.2-0.3-0.5c0.1-0.2,0.5-0.4,1-0.1c0.2,0.1,0.6,0.4,0.9,0.2C23.6,27,23.7,26.9,23.9,26.7C23.9,26.7,23.9,26.7,23.9,26.7
	C23.9,26.7,23.9,26.7,23.9,26.7z"/>
<path class="st0" d="M21,7.1c-7.5,0-13.5,6.1-13.5,13.5c0,1.5,0.2,2.9,0.7,4.3h0.9c0.8,0,1.6-0.2,2.3-0.5c0.2-0.1,0.4-0.1,0.5-0.1
	c0.4,0,0.8,0.2,1,0.5c0.2,0.3,0.4,0.5,0.6,0.7c0.2,0.1,0.5,0.2,0.8,0.2c0.2,0,0.4-0.1,0.5-0.2c0.1-0.2,0-0.4-0.3-0.5
	c-0.4-0.2-0.5-0.4-0.7-0.7c-0.2-0.3-0.6-0.5-0.7-1.2c-0.1-0.6,0.4-1.4,1.4-1.2c0.7,0.2,1.2,1.1,1.4,1.4c0.1,0.2,0.4,0.3,0.7,0.1
	c0.3-0.2,0.5-0.2,0.7,0.1c0.2,0.3,1.4,1.9,2.7,1.9c1.3,0,2.1-0.3,2.6-0.3c0.4,0,0.6,0.2,0.8,0.3c0.4,0.1,0.7-0.3,1.2-0.3
	c0.4,0,0.8,0.3,1.2,0.3c0.4,0,1.3-0.5,1.3-0.3c0,0.4-0.3,1-0.4,1.3c-0.1,0.2,0,0.7-0.1,1.1c-0.1,0.4-0.5,0.9-0.6,1.1
	c-0.3,0.5-0.6,0.6-0.8,1.2c-0.3,0.6-0.8,1.1-0.9,1.3c-0.2,0.2,0.9,0,1.3-0.4c0.3-0.3,0.9-1.3,1.8-1.5c0.6-0.1,0.7-0.4,0.7-0.6
	c0,0,0-0.1,0-0.1c0-0.1,0-0.2,0.1-0.2c0.6-0.3,1.5-0.4,2.5-0.4c0.6,0,1.1,0.1,1.6,0.2c1.4-2.2,2.2-4.7,2.2-7.4
	C34.5,13.1,28.4,7.1,21,7.1z M32,20.3c-0.6,3.6-6.5,4.8-12.1,3c-5.4-1.6-10.1-4.9-9.6-6.8c0.3-1.1,2.1-1.6,4.4-1.3
	c-0.4,0.7-0.3,1.6,1.2,2.5c1.9,1.1,5.1,2,6,1.9c0.3,0,0.6-0.2,0.3-0.4c-0.3-0.2-0.5-0.6-0.7-1.3c-0.1-0.4-0.2-0.9-2.2-1.3
	c-4.4-0.8-4.2-2.1-4.1-2.8c0,0,0.4-1.7,0.5-2.4c0.2-0.6,0.6-2,3.4-1.4c1.6,0.4,2.5-0.1,3-0.2c1.2-0.3,2.6-0.1,3.3,0.7
	c0.8,0.8,1.8,3.2,2.3,5.1c0.3,0.9,0.2,1.4,0.1,1.7c-0.1,0.2-0.1,0.3-0.5,0.9c-0.1,0.1,0,0.2,0.1,0.1c0.8-0.4,1-1,1.2-1.5
	C30.9,17.5,32.3,18.7,32,20.3z"/>
<path class="st0" d="M21.5,10.9L21.5,10.9L21.5,10.9c0.1,0,0.2,0,0.3,0c0.8-0.1,1.5,0.1,1.6,0.3c0,0.2-0.3,0.4-0.9,0.5
	c0,0,0,0,0,0.1c0,0,0,0.1,0,0.1c0.3,0.1,0.5,0.1,0.8,0.1c0.9,0,1.6-0.3,1.6-0.7c0-0.4-0.7-0.8-1.5-0.8c-0.2,0-0.4,0-0.5,0
	C22.3,10.5,21.8,10.7,21.5,10.9C21.5,10.8,21.5,10.9,21.5,10.9C21.5,10.9,21.5,10.9,21.5,10.9z M17.9,14.1c0.3-0.3,0.5-0.5,2-0.6
	c0.7-0.1,0.8-0.2,0.8-0.4c0-0.2-0.5-0.5-1.1-0.5c-0.4,0-0.7,0-1,0.1c-0.2,0-0.4,0-0.5,0c-0.4,0-0.7-0.3-0.9-0.5
	c-0.1-0.2-0.5-0.3-0.7,0.2c-0.2,0.5,0.2,1,0.5,1.1C16.9,13.5,17.5,14.5,17.9,14.1z"/>
</svg>
