<?xml version="1.0" encoding="utf-8"?>
<!-- Generator: Adobe Illustrator 26.3.1, SVG Export Plug-In . SVG Version: 6.00 Build 0)  -->
<svg version="1.1" id="Layer_1" xmlns="http://www.w3.org/2000/svg" xmlns:xlink="http://www.w3.org/1999/xlink" x="0px" y="0px"
	 viewBox="0 0 80 80" style="enable-background:new 0 0 80 80;" xml:space="preserve">
<style type="text/css">
	.st0{fill:#A32321;}
	.st1{fill:#DC382D;}
	.st2{fill:#741012;}
	.st3{fill:#AC2823;}
</style>
<g>
	<g>
		<g>
			<path class="st0" d="M62.4,51.7C59.8,53,46.5,58.5,43.7,60s-4.4,1.4-6.6,0.4c-2.2-1-16.4-6.8-18.9-8c-1.3-0.6-1.9-1.1-1.9-1.6
				v-4.9c0,0,18.4-4,21.4-5.1s4-1.1,6.5-0.2c2.5,0.9,17.6,3.7,20.1,4.6V50C64.2,50.5,63.7,51,62.4,51.7L62.4,51.7z"/>
			<path class="st1" d="M44.1,36.8c2.5,1,15.7,6.1,18.2,7.1c2.5,0.9,2.6,1.6,0.1,3l0,0c-2.6,1.3-15.8,6.8-18.7,8.3
				c-2.8,1.5-4.4,1.4-6.6,0.4c-2.2-1-16.4-6.8-18.9-8s-2.6-2.1-0.1-3c2.5-1,16.6-6.5,19.5-7.6"/>
			<path class="st0" d="M62.4,43.8c-2.6,1.3-15.8,6.8-18.7,8.3c-2.8,1.5-4.4,1.4-6.6,0.4c-2.2-1-16.4-6.8-18.9-8
				c-1.3-0.6-1.9-1.1-1.9-1.6V38c0,0,45.5-1.7,48-0.7v4.8C64.2,42.6,63.7,43.1,62.4,43.8L62.4,43.8z"/>
		</g>
	</g>
	<path class="st1" d="M62.3,27.7c-2.5-0.9-15.7-6.2-18.2-7.1c-2.5-0.9-3.5-0.9-6.5,0.2c-2.9,1.1-17,6.6-19.5,7.6s-2.5,1.8,0.1,3
		c2.5,1.2,16.7,6.9,18.9,8c2.2,1,3.7,1.1,6.6-0.4c2.9-1.5,16.1-7,18.7-8.3C64.9,29.4,64.8,28.6,62.3,27.7z M24.5,29.6
		c0-1.3,2.6-2.3,5.9-2.3c3.3,0,5.9,1,5.9,2.3c0,1.3-2.7,2.3-5.9,2.3C27.2,31.9,24.5,30.9,24.5,29.6z M41.2,36.9l-7.8-3.2L44.5,32
		L41.2,36.9z M42.4,26.5l-1,2.2l-1.5-2.5l-4.8-0.4l3.6-1.3l-1.1-2l3.4,1.3l3.2-1l-0.9,2.1l3.2,1.2L42.4,26.5z"/>
	<polygon class="st2" points="51.4,26.7 58,29.3 51.4,31.9 51.4,26.7 	"/>
	<polygon class="st3" points="51.4,26.7 51.4,31.9 50.7,32.2 44.2,29.6 51.4,26.7 	"/>
	<path class="st0" d="M64.2,29c0.1,0.5-0.5,1-1.8,1.7C59.8,32,46.6,37.5,43.7,39c-2.9,1.5-4.4,1.4-6.6,0.4c-2.2-1.1-16.4-6.8-18.9-8
		c-1.1-0.5-1.7-0.9-1.9-1.3v4.6c0,0.5,0.6,1,1.9,1.6c2.5,1.2,16.7,6.9,18.9,8c2.2,1,3.7,1.1,6.6-0.4c2.9-1.5,16.1-7,18.7-8.3
		c1.3-0.7,1.8-1.2,1.9-1.8L64.2,29C64.3,29,64.2,29,64.2,29z"/>
	<g>
		<path class="st1" d="M46.4,37.7c0.1,0,0.1-0.1,0.2-0.1C46.5,37.7,46.4,37.7,46.4,37.7z"/>
		<path class="st1" d="M47,37.4c0.1,0,0.2-0.1,0.3-0.1C47.2,37.4,47.1,37.4,47,37.4z"/>
		<path class="st1" d="M44.5,38.6c0.1,0,0.1-0.1,0.2-0.1C44.6,38.6,44.5,38.6,44.5,38.6z"/>
		<path class="st1" d="M47.8,37.1c0.1,0,0.2-0.1,0.2-0.1C48,37,47.9,37.1,47.8,37.1z"/>
		<path class="st1" d="M45,38.4c0.1,0,0.1-0.1,0.2-0.1C45.1,38.3,45.1,38.3,45,38.4z"/>
		<path class="st1" d="M45.7,38C45.7,38,45.8,38,45.7,38C45.8,38,45.7,38,45.7,38z"/>
		<path class="st1" d="M49.6,36.3c0.1,0,0.2-0.1,0.2-0.1C49.8,36.2,49.7,36.3,49.6,36.3z"/>
		<path class="st1" d="M48.8,36.7C48.8,36.7,48.8,36.7,48.8,36.7C48.8,36.7,48.8,36.7,48.8,36.7z"/>
		<path class="st1" d="M52.1,35.2c0.5-0.2,1-0.4,1.5-0.6C53.1,34.8,52.6,35,52.1,35.2z"/>
		<path class="st1" d="M56.1,33.5L56.1,33.5c-0.3,0.1-0.6,0.3-0.9,0.4C55.5,33.8,55.8,33.6,56.1,33.5z"/>
		<path class="st1" d="M51.4,35.5c0,0,0.1,0,0.1,0C51.5,35.5,51.4,35.5,51.4,35.5z"/>
		<path class="st1" d="M44.1,38.8c0,0,0.1,0,0.1-0.1C44.1,38.8,44.1,38.8,44.1,38.8z"/>
		<path class="st1" d="M50.4,36c0.1-0.1,0.3-0.1,0.4-0.2C50.7,35.9,50.5,35.9,50.4,36z"/>
		<path class="st1" d="M30.1,36.4c0.2,0.1,0.3,0.1,0.5,0.2C30.4,36.5,30.3,36.5,30.1,36.4z"/>
		<path class="st1" d="M31.1,36.8c0.1,0,0.2,0.1,0.3,0.1C31.3,36.9,31.2,36.9,31.1,36.8z"/>
		<path class="st1" d="M29.4,36.1c0.1,0.1,0.2,0.1,0.4,0.2C29.6,36.2,29.5,36.1,29.4,36.1z"/>
		<path class="st1" d="M24.6,34.1c1.3,0.5,2.6,1.1,4,1.6C27.2,35.2,25.8,34.6,24.6,34.1z"/>
		<path class="st1" d="M62.3,35.9c-0.1,0-0.2-0.1-0.3-0.1c-3.3,1.6-15.5,6.7-18.3,8.1c-2.9,1.5-4.4,1.4-6.6,0.4
			c-2.1-1.1-15.4-6.4-18.6-7.9l-0.4,0.2c-2.5,0.9-2.5,1.8,0.1,3c2.5,1.2,16.7,7,18.9,8c2.2,1,3.8,1.1,6.6-0.4
			c2.9-1.5,16.1-7,18.7-8.3C64.9,37.6,64.8,36.9,62.3,35.9z"/>
		<path class="st1" d="M32,37.2c0.1,0,0.1,0.1,0.2,0.1C32.1,37.3,32.1,37.2,32,37.2z"/>
		<path class="st1" d="M34.4,38.2c0.1,0,0.1,0.1,0.2,0.1C34.6,38.3,34.5,38.3,34.4,38.2z"/>
		<path class="st1" d="M35.8,38.8c0,0,0.1,0,0.1,0.1C35.9,38.8,35.9,38.8,35.8,38.8z"/>
		<path class="st1" d="M33,37.6c0.1,0,0.2,0.1,0.3,0.1C33.1,37.7,33,37.6,33,37.6z"/>
		<path class="st1" d="M36.3,39c0,0,0.1,0,0.1,0.1C36.4,39.1,36.3,39,36.3,39z"/>
		<path class="st1" d="M35.1,38.5c0,0,0.1,0,0.1,0.1C35.2,38.6,35.2,38.5,35.1,38.5z"/>
		<path class="st1" d="M33.7,37.9c0.1,0,0.2,0.1,0.3,0.1C33.9,38,33.8,37.9,33.7,37.9z"/>
		<path class="st1" d="M36.7,39.2c0,0,0.1,0,0.1,0.1C36.8,39.2,36.7,39.2,36.7,39.2z"/>
	</g>
</g>
</svg>
