<?xml version="1.0" encoding="utf-8"?>
<!-- Generator: Adobe Illustrator 26.3.1, SVG Export Plug-In . SVG Version: 6.00 Build 0)  -->
<svg version="1.1" id="Layer_1" xmlns="http://www.w3.org/2000/svg" xmlns:xlink="http://www.w3.org/1999/xlink" x="0px" y="0px"
	 viewBox="0 0 80 80" style="enable-background:new 0 0 80 80;" xml:space="preserve">
<style type="text/css">
	.st0{fill:#CCCCCC;}
	.st1{fill:#FFFFFF;}
	.st2{fill:#999999;}
</style>
<g>
	<g>
		<g>
			<path class="st0" d="M62.4,51.7C59.8,53,46.5,58.5,43.7,60s-4.4,1.4-6.6,0.4c-2.2-1-16.4-6.8-18.9-8c-1.3-0.6-1.9-1.1-1.9-1.6
				v-4.9c0,0,18.4-4,21.4-5.1s4-1.1,6.5-0.2c2.5,0.9,17.6,3.7,20.1,4.6V50C64.2,50.5,63.7,51,62.4,51.7L62.4,51.7z"/>
			<path class="st1" d="M44.1,36.8c2.5,1,15.7,6.1,18.2,7.1c2.5,0.9,2.6,1.6,0.1,3l0,0c-2.6,1.3-15.8,6.8-18.7,8.3
				c-2.8,1.5-4.4,1.4-6.6,0.4c-2.2-1-16.4-6.8-18.9-8s-2.6-2.1-0.1-3c2.5-1,16.6-6.5,19.5-7.6"/>
			<path class="st0" d="M62.4,43.8c-2.6,1.3-15.8,6.8-18.7,8.3c-2.8,1.5-4.4,1.4-6.6,0.4c-2.2-1-16.4-6.8-18.9-8
				c-1.3-0.6-1.9-1.1-1.9-1.6V38c0,0,45.5-1.7,48-0.7v4.8C64.2,42.6,63.7,43.1,62.4,43.8L62.4,43.8z"/>
		</g>
	</g>
	<path class="st1" d="M62.3,27.7c-2.5-0.9-15.7-6.2-18.2-7.1s-3.5-0.9-6.5,0.2c-2.9,1.1-17,6.6-19.5,7.6s-2.5,1.8,0.1,3
		c2.5,1.2,16.7,6.9,18.9,8c2.2,1,3.7,1.1,6.6-0.4c2.9-1.5,16.1-7,18.7-8.3C64.9,29.4,64.8,28.6,62.3,27.7z M24.5,29.6
		c0-1.3,2.6-2.3,5.9-2.3s5.9,1,5.9,2.3s-2.7,2.3-5.9,2.3S24.5,30.9,24.5,29.6z M41.2,36.9l-7.8-3.2L44.5,32L41.2,36.9z M42.4,26.5
		l-1,2.2l-1.5-2.5l-4.8-0.4l3.6-1.3l-1.1-2l3.4,1.3l3.2-1l-0.9,2.1l3.2,1.2L42.4,26.5z"/>
	<polygon class="st2" points="51.4,26.7 58,29.3 51.4,31.9 	"/>
	<polygon class="st0" points="51.4,26.7 51.4,31.9 50.7,32.2 44.2,29.6 	"/>
	<path class="st0" d="M64.2,29c0.1,0.5-0.5,1-1.8,1.7C59.8,32,46.6,37.5,43.7,39c-2.9,1.5-4.4,1.4-6.6,0.4c-2.2-1.1-16.4-6.8-18.9-8
		c-1.1-0.5-1.7-0.9-1.9-1.3v4.6c0,0.5,0.6,1,1.9,1.6c2.5,1.2,16.7,6.9,18.9,8c2.2,1,3.7,1.1,6.6-0.4c2.9-1.5,16.1-7,18.7-8.3
		c1.3-0.7,1.8-1.2,1.9-1.8L64.2,29C64.3,29,64.2,29,64.2,29z"/>
	<g>
		<path class="st1" d="M62.3,35.9c-0.1,0-0.2-0.1-0.3-0.1c-3.3,1.6-15.5,6.7-18.3,8.1c-2.9,1.5-4.4,1.4-6.6,0.4
			c-2.1-1.1-15.4-6.4-18.6-7.9l-0.4,0.2c-2.5,0.9-2.5,1.8,0.1,3c2.5,1.2,16.7,7,18.9,8s3.8,1.1,6.6-0.4c2.9-1.5,16.1-7,18.7-8.3
			C64.9,37.6,64.8,36.9,62.3,35.9z"/>
	</g>
</g>
</svg>
