<?xml version="1.0" encoding="utf-8"?>
<!-- Generator: Adobe Illustrator 26.3.1, SVG Export Plug-In . SVG Version: 6.00 Build 0)  -->
<svg version="1.1" id="레이어_1" xmlns="http://www.w3.org/2000/svg" xmlns:xlink="http://www.w3.org/1999/xlink" x="0px"
	 y="0px" viewBox="0 0 80 80" style="enable-background:new 0 0 80 80;" xml:space="preserve">
<style type="text/css">
	.st0{fill-rule:evenodd;clip-rule:evenodd;fill:#002D62;}
	.st1{fill-rule:evenodd;clip-rule:evenodd;fill:#5987C6;}
</style>
<g id="resin">
	<g id="Group-16" transform="translate(8.000000, 22.000000)">
		<path id="Combined-Shape" class="st0" d="M0,14.2h3v1.1c0.5-0.6,1-1,1.5-1.2C4.9,14,5.4,13.8,6,13.8c0.8,0,1.6,0.3,2.5,0.8
			l-1.4,2.7c-0.6-0.4-1.1-0.6-1.7-0.6c-1.6,0-2.4,1.2-2.4,3.7v6.7H0V14.2z M18.6,18.9c-0.4-1.6-1.4-2.4-3-2.4c-0.4,0-0.7,0.1-1,0.2
			c-0.3,0.1-0.6,0.3-0.9,0.5c-0.3,0.2-0.5,0.5-0.7,0.7c-0.2,0.3-0.3,0.6-0.4,1H18.6z M21.6,21.3h-9.2c0.1,1.1,0.4,1.9,1,2.5
			c0.6,0.6,1.4,0.9,2.3,0.9c0.7,0,1.4-0.2,1.8-0.5c0.5-0.4,1-1,1.6-2l2.5,1.4c-0.4,0.7-0.8,1.2-1.2,1.7c-0.4,0.5-0.9,0.9-1.4,1.2
			c-0.5,0.3-1,0.5-1.6,0.7c-0.6,0.1-1.2,0.2-1.9,0.2c-1.9,0-3.5-0.6-4.6-1.8c-1.2-1.2-1.7-2.9-1.7-4.9c0-2,0.6-3.7,1.7-4.9
			c1.1-1.2,2.6-1.9,4.5-1.9c1.9,0,3.4,0.6,4.5,1.8c1.1,1.2,1.6,2.9,1.6,5L21.6,21.3z M32.4,16.4l-2.5,1.3c-0.4-0.8-0.9-1.2-1.4-1.2
			c-0.3,0-0.5,0.1-0.7,0.3c-0.2,0.2-0.3,0.4-0.3,0.7c0,0.5,0.6,1,1.7,1.5c1.6,0.7,2.6,1.3,3.2,1.9c0.5,0.6,0.8,1.3,0.8,2.3
			c0,1.2-0.5,2.3-1.4,3.1c-0.9,0.8-2,1.2-3.2,1.2c-2.2,0-3.7-1.1-4.6-3.2l2.5-1.2c0.4,0.6,0.6,1,0.8,1.2c0.4,0.3,0.8,0.5,1.3,0.5
			c1,0,1.5-0.5,1.5-1.4c0-0.5-0.4-1-1.2-1.5c-0.3-0.1-0.6-0.3-0.9-0.4c-0.3-0.1-0.6-0.3-0.9-0.4c-0.9-0.4-1.5-0.8-1.8-1.3
			c-0.4-0.5-0.7-1.2-0.7-2.1c0-1.1,0.4-2,1.1-2.8c0.8-0.7,1.7-1.1,2.9-1.1C30.3,13.8,31.6,14.7,32.4,16.4z M35.9,27.1V14.2h3v12.9
			H35.9z M35.4,8.9c0-0.5,0.2-1,0.6-1.3c0.4-0.4,0.8-0.6,1.4-0.6c0.5,0,1,0.2,1.4,0.6c0.4,0.4,0.6,0.8,0.6,1.4c0,0.5-0.2,1-0.6,1.4
			c-0.4,0.4-0.8,0.6-1.4,0.6c-0.5,0-1-0.2-1.4-0.6C35.6,9.9,35.4,9.4,35.4,8.9z M42.6,14.2h3v1.2c1-1,2.2-1.5,3.5-1.5
			c1.5,0,2.7,0.5,3.5,1.4c0.7,0.8,1.1,2.1,1.1,3.9v7.9h-3v-7.2c0-1.3-0.2-2.1-0.5-2.6c-0.3-0.5-1-0.7-1.9-0.7c-1,0-1.7,0.3-2.1,1
			c-0.4,0.6-0.6,1.8-0.6,3.4v6.2h-3V14.2z"/>
		<path id="Fill-11" class="st1" d="M63.4,10.7c-1.2-0.5-4.8-2.2-4.8-2.2c-0.3,0.2-0.6,0.3-1.1,0.1c0,0-0.7-0.2-1.4,0.5
			c0,0,5.6,3.7,6.1,3.8c0.5,0.1,1-0.1,1.5-0.7C64.2,11.7,64.6,11.2,63.4,10.7"/>
		<path id="Fill-12" class="st1" d="M61.1,7c-0.9,0.4-1.5,0.7-1.7,0.8c-0.3,0.2-0.6,0.5-0.8,0.7c0,0,5,1.6,5.8,1.8
			c0.8,0.3,2-0.6,1.9-1.5S66.2,7,61.1,7"/>
		<path id="Fill-13" class="st1" d="M54.5,5.8c0.2,0,0.4,0,0.6,0c-0.7-1-3-4.4-3.4-5.1c-0.5-0.8-1.4-0.7-2.1-0.5c0,0-1.1,0.9,0,2
			c0.9,0.8,3.3,3.1,4.1,4C53.9,6,54.2,5.8,54.5,5.8"/>
		<path id="Fill-14" class="st1" d="M53.4,6.4c-0.9-0.9-2.6-2.5-4.1-3.1c-1-0.4-1.7-0.4-2.3-0.4C46.3,3,45.8,3.6,46,4.3
			C46,4.6,46.2,4.9,46.6,5c0.9,0.2,4.5,1.7,6.1,2.5C52.8,7.1,53.1,6.7,53.4,6.4"/>
		<path id="Fill-15" class="st0" d="M53.1,11.7c0-0.1-0.1-0.2-0.1-0.3c-0.1-0.2-0.1-0.4-0.1-0.5l0.3-1.4l0.3,0.2L53.1,11.7z
			 M71.6,2.6c-0.4-0.1-1.5,0-2,0.2c-0.4,0.2-8.4,3.3-9.3,3.6c-0.9,0.3-2.2,1-3.3,0.2c-1.1-0.8-1.7-1-2.6-0.9c-0.9,0.2-1.7,1-1.7,1.8
			c0,0,0,0.6-0.4,0.2c-0.3-0.3-0.9-0.4-1.3-0.3c-0.5,0-0.8,1.2-0.5,1.8c0.2,0.3,1.5,1.8,1.9,1.2c0.2-0.3,0.3-1.4,0.5-1.3
			c0.2,0.2-0.2,1.6-0.2,2c0,0.1,0,0.2,0.1,0.3l0.3,0.5c0.1,0.1,0.1,0.1,0.1,0.1c0.3-0.4,0.5-2.3,0.6-2.3c0.2,0.1,0.3,0.1,0.5,0.2
			c0.1,0.4,0.2,1,0.2,1.3c0,0.2-0.8,1.7-0.8,1.7c0,0.5,0.3,0.2,0.3,0.2l0.9-1.9c0,0-0.3-1.5-0.3-1.4c0.2,0,0.5,0,0.5,0l0.4,1.4
			l-1.2,1.5c0,0,0,0.3,0.1,0.3c0.1,0,1.4-1.6,1.4-1.8c0.1-0.2-0.3-1.5-0.3-1.5l0.7-0.7c0.7-0.7,1.4-0.5,1.4-0.5c1,0.3,1.3-0.4,2-0.8
			C60.1,7.3,70.2,3.2,71,3.1C71.8,2.9,72.1,2.7,71.6,2.6L71.6,2.6z"/>
	</g>
</g>
</svg>
