<?xml version="1.0" encoding="utf-8"?>
<!-- Generator: Adobe Illustrator 26.3.1, SVG Export Plug-In . SVG Version: 6.00 Build 0)  -->
<svg version="1.1" id="레이어_1" xmlns="http://www.w3.org/2000/svg" xmlns:xlink="http://www.w3.org/1999/xlink" x="0px"
	 y="0px" viewBox="0 0 80 80" style="enable-background:new 0 0 80 80;" xml:space="preserve">
<style type="text/css">
	.st0{fill-rule:evenodd;clip-rule:evenodd;fill:#77BC1F;}
</style>
<g id="spring">
	<g id="Group-3" transform="translate(12.000000, 12.000000)">
		<path id="Fill-1" class="st0" d="M50.8,40.2c-6.9,9.2-21.7,6.1-31.2,6.6c0,0-1.7,0.1-3.4,0.4c0,0,0.6-0.3,1.5-0.6
			c6.7-2.3,9.8-2.8,13.9-4.8c7.6-3.9,15.1-12.4,16.7-21.2C45.3,29,36.5,36.3,28.5,39.3c-5.5,2-15.4,4-15.4,4l-0.4-0.2
			C6,39.8,5.8,25.2,18,20.4c5.4-2.1,10.5-0.9,16.3-2.3c6.2-1.5,13.4-6.1,16.3-12.2C53.9,15.6,57.8,30.8,50.8,40.2L50.8,40.2z
			 M12.7,48.6c-0.5,0.6-1.1,0.9-1.9,0.9c-1.3,0-2.4-1.1-2.4-2.4c0-1.3,1.1-2.4,2.4-2.4c0.5,0,1.1,0.2,1.5,0.5
			C13.4,46.1,13.5,47.6,12.7,48.6L12.7,48.6z M50.9,2.9c-0.8,1.9-1.8,3.7-3,5.3C42.7,3,35.5,0,28.1,0C12.7,0,0,12.7,0,28.1
			c0,7.7,3.1,15.1,8.7,20.4l1,0.9c5.1,4.3,11.5,6.6,18.1,6.6c14.6,0,26.9-11.5,28-26.1C56.6,22.7,54.5,13.7,50.9,2.9L50.9,2.9z"/>
	</g>
</g>
</svg>
