<?xml version="1.0" encoding="utf-8"?>
<!-- Generator: Adobe Illustrator 26.3.1, SVG Export Plug-In . SVG Version: 6.00 Build 0)  -->
<svg version="1.1" id="레이어_1" xmlns="http://www.w3.org/2000/svg" xmlns:xlink="http://www.w3.org/1999/xlink" x="0px"
	 y="0px" viewBox="0 0 80 80" style="enable-background:new 0 0 80 80;" xml:space="preserve">
<style type="text/css">
	.st0{fill:#202A5A;}
	.st1{fill:#2C448A;}
	.st2{fill:#283A79;}
	.st3{fill:#3558A7;}
	.st4{fill:#416FB5;}
	.st5{fill:#477FC1;}
</style>
<g id="struts">
	<g id="Group" transform="translate(14.000000, 10.000000)">
		<polygon id="Path" class="st0" points="49.9,15.3 27,2 2,16 2,44 27,58 51,44 51,16 51,14.8 		"/>
		<polygon id="Path_00000101805208449206029930000014345145866597737870_" class="st1" points="2,16 27,30 51,16 27,2 		"/>
		<polygon id="Path_00000103224067797550270970000010506205154041551797_" class="st2" points="51,14.8 43,19 42.9,20.8 27,30 
			27,58 51,44 		"/>
		<polygon id="Path_00000077317590097245129110000003252450612227814542_" class="st0" points="2,16 2,44 27,58 27,30 		"/>
		<polygon id="Path_00000021832509946942656660000005778724824667663004_" class="st3" points="0,44 0,35 27,51 27,60 		"/>
		<polygon id="Path_00000152977545966517547860000017962645156946491265_" class="st3" points="0,16 0,21 27,37 27,32 		"/>
		<polygon id="Path_00000147185681506027668600000005982231849458620339_" class="st4" points="53,44 53,39 31.1,29.5 27,32 
			27,36.9 40.3,42.8 27,51 27,60 		"/>
		<polygon id="Path_00000018196328047912925140000008294577248803608994_" class="st5" points="40.3,42.8 38.7,42.2 27,49 2,35 
			2,33.8 0,35 27,51 		"/>
		<polygon id="Path_00000004542155450965617460000004232467250732142271_" class="st5" points="11.8,18 27,9 43,19 51,14.8 27,0 
			0,16 27,32 31.1,29.5 		"/>
		<polygon id="Path_00000014600462996053193450000017982429801028080783_" class="st0" points="42.9,20.8 43,19 27,9 11.8,18 
			13.5,19 27,11 		"/>
	</g>
</g>
</svg>
