<?xml version="1.0" encoding="utf-8"?>
<!-- Generator: Adobe Illustrator 26.3.1, SVG Export Plug-In . SVG Version: 6.00 Build 0)  -->
<svg version="1.1" id="레이어_1" xmlns="http://www.w3.org/2000/svg" xmlns:xlink="http://www.w3.org/1999/xlink" x="0px"
	 y="0px" viewBox="0 0 80 80" style="enable-background:new 0 0 80 80;" xml:space="preserve">
<style type="text/css">
	.st0{fill-rule:evenodd;clip-rule:evenodd;}
</style>
<g id="tibero">
	<g id="topology_tibero">
		<path id="Combined-Shape" class="st0" d="M68.6,42.5c1.1,0,2.2,0.2,3.1,1c1,0.9,1.4,2,1.5,3.2c0.1,2.3-0.3,4.4-1.6,6.4
			c-1.2,1.9-3,2.9-5.3,2.9c-1.4,0-2.7-0.4-3.6-1.6c-0.6-0.8-0.9-1.7-1-2.6c-0.1-2.2,0.3-4.4,1.5-6.3c1-1.6,2.4-2.6,4.3-2.9
			c0.1,0,0.1,0,0.2,0C68,42.5,68.3,42.5,68.6,42.5z M46,42.5c1.1,0.1,2.1,0.4,3,1.1c1,0.8,1.4,1.9,1.6,3.2c0.2,1.1,0.2,2.2,0,3.4
			h-7.2c0,0.5,0,0.9,0,1.3c0,0.4,0.3,0.7,0.6,0.9c0.7,0.4,1.5,0.4,2.2,0.3c1.3-0.1,2.5-0.5,3.7-1.2c0,0,0.1,0,0.2-0.1
			c-0.1,0.4-0.1,0.7-0.1,1.1c-0.1,0.6-0.2,1.2-0.2,1.7c0,0.2-0.1,0.4-0.3,0.5c-1.3,0.8-2.8,1.2-4.4,1.3c-1.5,0-2.9-0.3-4-1.4
			c-0.9-0.9-1.5-1.9-1.7-3.2c-0.4-2.4,0-4.6,1.5-6.6C42.2,43.1,43.9,42.4,46,42.5z M32.8,38.9c-0.2,1.4-0.5,2.7-0.7,4
			c0.6-0.1,1.2-0.4,1.8-0.4c1.6-0.2,2.8,0.5,3.5,2c0.5,1,0.6,2,0.5,3.1c-0.1,1.5-0.4,2.9-1,4.3c-0.8,1.8-2.1,3.1-4.1,3.6
			c-0.6,0.2-1.3,0.2-1.9,0.2c-1.5,0-3.1,0-4.6,0c-0.1,0-0.1,0-0.2,0c1-5.6,1.9-11.2,2.9-16.7H32.8z M61.6,42.7c0.1,0,0.1,0,0.2,0.1
			c0.6,0.3,0.6,0.3,0.3,0.9c-0.5,1.1-1,2.1-1.5,3.2c0,0.1-0.1,0.2-0.1,0.2c-0.2-0.1-0.4-0.2-0.6-0.3c-1.1-0.4-2.1-0.1-2.6,1
			c-0.3,0.7-0.4,1.4-0.6,2.1c-0.3,1.8-0.6,3.7-1,5.5c0,0.1-0.1,0.2-0.2,0.2c-1.2,0-2.5,0-3.7,0c0,0,0,0-0.1,0
			c0.7-4.3,1.5-8.6,2.2-13h4c-0.1,0.5-0.1,1-0.2,1.5c0.4-0.3,0.7-0.7,1.1-1C59.6,42.5,60.5,42.3,61.6,42.7z M20.4,39
			c-0.1,0.7-0.2,1.4-0.4,2.1c-0.1,0.4-0.2,0.9-0.2,1.3c0,0.2-0.1,0.3-0.3,0.3c-1,0-2,0-3,0c-0.1,0-0.1,0-0.2,0
			c-0.7,4.3-1.5,8.6-2.2,13H9.3c0.7-4.3,1.5-8.6,2.2-13H8c0.2-1.3,0.4-2.5,0.6-3.7H20.4z M25.7,42.7c-0.7,4.3-1.5,8.6-2.2,12.9h-4.1
			c0.7-4.3,1.5-8.6,2.2-12.9H25.7z M67.3,46.3c-0.3,0.2-0.5,0.5-0.7,0.9c-0.6,1-0.7,2.2-0.8,3.4c0,0.2,0.1,0.5,0.1,0.8
			c0,0.1,0.1,0.3,0.1,0.4c0.3,0.7,1,0.9,1.6,0.4c0.3-0.3,0.6-0.7,0.8-1.1c0.4-0.8,0.6-1.7,0.6-2.6c0.1-0.6,0.1-1.2-0.2-1.8
			C68.7,46,67.9,45.8,67.3,46.3z M32.5,46.1c-0.3,0-0.6,0.1-0.9,0.2c-0.1,0.1-0.1,0.4-0.2,0.6c-0.2,1.1-0.4,2.2-0.6,3.3
			c-0.1,0.7-0.2,1.4-0.4,2.1c1.5,0.2,2.2-0.3,2.6-1.6c0.2-0.6,0.3-1.2,0.5-1.8c0.1-0.7,0.2-1.3-0.1-2C33.4,46.3,33,46,32.5,46.1z
			 M44.7,45.7c-0.6,0.5-0.8,1.2-0.9,2c0.9,0,1.8,0,2.7,0c0.1,0,0.2-0.1,0.2-0.2c0-0.4,0-0.7-0.1-1.1C46.5,45.4,45.4,45,44.7,45.7z
			 M26.1,39.6c-0.1,1-1.1,1.9-2.2,1.9c-1,0-1.7-0.8-1.6-1.8c0.1-1,0.9-1.9,1.8-2C25.4,37.5,26.3,38.3,26.1,39.6z M35.2,26.8
			c0.9,0.2,1.4,0.8,1.4,1.7c0,0.7-0.1,1.4-0.2,2.1c-0.1,0.7-0.2,1.3-0.2,2c0,0.5,0.1,0.6,0.6,0.5c0,0.2,0,0.3-0.1,0.5
			c-0.1,0.5-0.2,1-0.3,1.5c0,0.1-0.1,0.2-0.2,0.2c-0.5,0.2-1.1,0.2-1.7,0c-0.5-0.2-0.8-0.5-1-1c0,0-0.1,0.1-0.1,0.1
			c-0.7,0.9-1.7,1.1-2.8,0.9c-0.8-0.2-1.3-0.7-1.4-1.5c-0.2-1.4,0.4-2.5,1.6-3.1c0.9-0.5,1.8-0.6,2.8-0.7c0.1,0,0.1,0,0.2,0
			c0.2-0.8,0-1.1-0.8-1.1c-0.8,0-1.5,0.2-2.1,0.6c-0.1,0.1-0.2,0.1-0.4,0.2c0.1-0.7,0.2-1.3,0.4-1.9c0-0.1,0.1-0.1,0.2-0.2
			C32.5,26.8,33.8,26.5,35.2,26.8z M44.8,26.9c0.2,0,0.4,0,0.7,0c-0.6,0.8-1.1,1.6-1.6,2.4c-0.3,0.4-0.5,0.8-0.8,1.2
			c-0.1,0.2-0.1,0.3,0,0.5c0.5,1.3,1,2.5,1.6,3.8c0,0.1,0.1,0.2,0.2,0.4h-0.7c-0.6,0-1.2,0-1.8,0c-0.2,0-0.4-0.1-0.5-0.3
			c-0.3-0.8-0.6-1.6-1-2.4c-0.1,0.1-0.1,0.2-0.2,0.3c-0.4,0.7-0.9,1.5-1.3,2.2c-0.1,0.2-0.2,0.2-0.4,0.2c-0.7,0-1.3,0-2,0
			c0.4-0.6,0.8-1.3,1.2-1.9c0.5-0.8,1.1-1.7,1.6-2.5c0.1-0.2,0.1-0.3,0.1-0.5c-0.4-1-0.8-2-1.2-3c0-0.1-0.1-0.2-0.1-0.3
			c0.9,0,1.8,0,2.7,0c0.1,0,0.2,0.1,0.2,0.2c0.2,0.6,0.5,1.1,0.7,1.7c0.2-0.3,0.3-0.5,0.4-0.7c0.3-0.4,0.5-1,0.8-1.2
			C43.7,26.8,44.3,26.9,44.8,26.9z M11.1,24l7.7,0c0,0.1,0,0.1,0,0.1c-0.1,0.8-0.3,1.6-0.4,2.5h-1.9c-0.6,0-0.6,0-0.7,0.6
			c-0.4,2.6-0.9,5.3-1.3,7.9c0,0,0,0.1,0,0.1h-3.2c0.5-2.9,1-5.7,1.4-8.6h-2.4c0.1-0.8,0.3-1.6,0.4-2.3C10.8,24,10.9,24,11.1,24z
			 M23.1,26.7c0.8,0,1.4,0.4,1.8,1.1c0.3-0.3,0.6-0.6,0.9-0.7c1.2-0.7,3.2-0.3,3.2,1.8c0,0.7-0.1,1.4-0.2,2.1
			c-0.2,1.3-0.4,2.6-0.6,3.9c0,0.1,0,0.2-0.1,0.3h-2.6c0.3-1.7,0.5-3.5,0.7-5.2c0-0.3,0-0.6,0-0.8c-0.1-0.3-0.4-0.4-0.7-0.3
			c-0.3,0.1-0.6,0.4-0.6,0.8c-0.3,1.8-0.5,3.6-0.8,5.4c0,0,0,0.1,0,0.1h-2.6c0.1-1,0.3-1.9,0.4-2.9c0.1-0.8,0.2-1.6,0.4-2.4
			c0-0.1,0-0.2,0-0.3c0-0.5-0.2-0.8-0.6-0.8c-0.4,0-0.8,0.3-0.8,0.7c-0.1,0.6-0.2,1.2-0.3,1.8c-0.2,1.3-0.4,2.6-0.6,3.9h-2.6
			c0.4-2.7,0.8-5.5,1.2-8.2h2.3c0,0.1,0,0.3,0,0.5C21.7,26.9,22.4,26.7,23.1,26.7z M33.8,31.3c-0.9,0-1.6,0.6-1.6,1.5
			c0,0.4,0.1,0.6,0.4,0.6c0.4,0,0.8-0.2,0.9-0.5C33.6,32.3,33.7,31.8,33.8,31.3z"/>
	</g>
</g>
</svg>
