<?xml version="1.0" encoding="utf-8"?>
<!-- Generator: Adobe Illustrator 26.3.1, SVG Export Plug-In . SVG Version: 6.00 Build 0)  -->
<svg version="1.1" id="레이어_1" xmlns="http://www.w3.org/2000/svg" xmlns:xlink="http://www.w3.org/1999/xlink" x="0px"
	 y="0px" viewBox="0 0 80 80" style="enable-background:new 0 0 80 80;" xml:space="preserve">
<style type="text/css">
	.st0{fill-rule:evenodd;clip-rule:evenodd;fill:#D1A41A;}
	.st1{fill-rule:evenodd;clip-rule:evenodd;fill:#FFDC76;}
	.st2{fill-rule:evenodd;clip-rule:evenodd;}
</style>
<g id="tomcat">
	<g id="Group-14" transform="translate(10.000000, 19.000000)">
		<path id="Fill-1" class="st0" d="M10.3,28.1c0.7,0.8,1.4,1.7,2.3,2.5c-2.4,0.7-4,2.1-5,3.3c-1.6,1.9-2.4,4.4-2.2,6.5H1.2
			C2.1,38.7,5.4,33.4,10.3,28.1"/>
		<path id="Fill-3" class="st0" d="M58.7,41.6h-5.1C42,35.5,31.8,31.3,20.9,30.3c0-1.5,0.3-3.2,0.8-5.1l-1-0.3
			c-0.5,2-0.8,3.7-0.8,5.3c-1.1-0.1-2.3-0.1-3.4-0.1c-1,0-1.9,0.1-2.7,0.2c-1.1-1.1-2-2.1-2.7-3c5-5.2,13.3-9.9,20.4-11.7
			c2,6.7,6.4,11.3,11.6,14.4c0.4-0.2,0.8-0.5,1.1-0.7l9.2,9.9l0.4,0c2.5-0.2,3.9,1.1,4.3,1.6C58.4,41.1,58.6,41.4,58.7,41.6"/>
		<path id="Fill-5" class="st1" d="M54.2,8.5c0.2,9.1-4.5,16.4-11,20.1C32.2,23.1,30.1,9.2,32,1.7c0.5,2.9,1.5,4.7,3.5,5.5
			C40,5.9,46.2,5.8,50.7,7.1c1.9-1.4,2.6-3.5,3-5.3C54.3,3.9,54.2,8.5,54.2,8.5"/>
		<path id="Fill-7" class="st2" d="M36.8,11.7L36.8,11.7C36.8,11.7,36.8,11.7,36.8,11.7L36.8,11.7z"/>
		<path id="Fill-9" class="st2" d="M46,14.9c-0.2,0.8-0.1,1.9,0.4,2.9h-6.8c0.4-0.8,0.8-1.8,1.1-2.9H46z M43,20.2l-2.8-1.8l5.5,0
			L43,20.2z M39.3,9.8c0.4,0,0.7,0.2,0.8,0.5c0.5,0.8,0.4,2.3,0,3.9h-3.1v0.7H40c-0.3,1.1-0.7,2.2-1.2,3.1l-0.2,0.3l3.8,2.4L40.3,22
			l0.4,0.6L43,21l2.6,1.7l0.4-0.6l-2.4-1.5c0,0,3.6-2.3,3.8-2.5c0,0,0,0,0,0l0,0c-0.8-1.2-1-2.2-0.7-3.3h0.3l2.9,0l0-0.7h-2.9
			c0.5-1.3,1.3-2.4,4-2.4v-0.7c-2.5,0-4,1-4.7,3.1h-5.4c0.4-1.7,0.4-3.3-0.1-4.3c-0.3-0.5-0.8-0.8-1.4-0.8c-2.2,0-3.1,2.3-3.1,2.4
			l0.6,0.2C36.8,11.6,37.6,9.8,39.3,9.8L39.3,9.8z"/>
		<path id="Fill-11" class="st2" d="M53.6,41.6C42,35.5,31.8,31.2,20.9,30.3c0-1.5,0.3-3.2,0.8-5.1l-1-0.3c-0.5,2-0.8,3.7-0.8,5.3
			c-1.1-0.1-2.3-0.1-3.4-0.1c-1,0-1.9,0.1-2.7,0.2c-1.1-1.1-2-2.1-2.7-3c1.4-1.4,3-2.8,4.7-4.1l2.4,1.7l-0.8-2.8
			c0.7-0.5,1.5-1,2.3-1.4l3.6,1.8l-1.7-2.9c0.5-0.3,1-0.5,1.5-0.8l5,3.4l-1.6-4.9c1.7-0.7,3.4-1.3,5.1-1.7c0.4,1.3,0.9,2.5,1.4,3.6
			h-2.3V20h2.7c0.2,0.4,0.4,0.7,0.6,1h-3.2v0.7h3.7c2.3,3.5,5.3,6.2,8.8,8.3c0.4-0.2,0.8-0.5,1.1-0.7l0.9,1l-1.5,2.3l2.6-1.2
			l1.5,1.6l-2.5,1.9l3.5-0.9l4.7,5.1l0.4,0c2.5-0.2,3.9,1.1,4.3,1.6c0.3,0.3,0.4,0.6,0.5,0.8H53.6z M7.6,33.9
			c-1.6,1.9-2.4,4.4-2.2,6.5H1.2c0.8-1.8,4.2-7.1,9.1-12.4c0.7,0.8,1.4,1.7,2.3,2.5C10.2,31.4,8.6,32.7,7.6,33.9L7.6,33.9z M32,1.7
			c0.5,2.9,1.5,4.7,3.5,5.5c1.8-0.5,3.9-0.8,6.1-1l1.8,3.9l1.1-4c2.2,0.1,4.3,0.4,6.2,0.9c1.9-1.4,2.6-3.5,3-5.3
			c0.5,2.1,0.4,6.8,0.4,6.8c0,1.7-0.1,3.4-0.4,5l-2,0.9l1.8,0.3c-0.1,0.6-0.3,1.2-0.5,1.8l-1.7,0.5l1.4,0.5
			c-0.2,0.6-0.5,1.2-0.8,1.8H49V20h2.5c-0.2,0.4-0.4,0.7-0.6,1H49v0.7h1.4c-1.9,2.9-4.4,5.2-7.3,6.8c-3.3-1.7-5.8-4.1-7.7-6.8h1.1
			v-0.7h-1.6c-0.2-0.3-0.4-0.7-0.6-1h2.2v-0.7h-2.6c-0.4-0.9-0.8-1.8-1.1-2.7l1.3-0.4l-1.6-0.7c-0.2-0.5-0.3-1.1-0.4-1.6l2.5-0.2
			l-2.9-1.5C31.1,8.3,31.2,4.5,32,1.7L32,1.7z M58.9,40.1c-1.1-1.3-3.4-1.9-5.2-1.8c-1.2-1.4-7.5-8-8.7-9.4c2.6-1.8,4.9-4.2,6.6-7.1
			h3.5v-0.7h-3c0.2-0.3,0.4-0.7,0.6-1h2.5v-0.7H53c1.6-3.4,2.4-7.3,2.4-11.5c0,0,0,0,0,0c0-1.2-0.4-6.1-1-7.4
			c-1.8,0.7-5.1,2.9-5.8,5.2C44.9,4.9,40.9,5,37.3,5.6c-0.6-2.5-3.5-4.3-5.8-5.4c-0.9,1.6-1.4,5.3-1.3,7.9c0,0,0,0,0,0
			c0.1,2.4,0.4,4.5,0.9,6.5c-7.7,1.9-16.1,7-20.8,11.8c-2.2-3-3.1-5.4-3.3-7.2c-0.3-2.3,0.2-4.5,1.6-6.2c2.2-2.7,5.2-2.9,8.4-2.3
			c-0.1,0.5,0,1,0.2,1.3c0.8,1.2,5.3,1.7,8,0.5c-2-2.8-6-4.1-7.1-3.6c-0.4,0.2-0.6,0.5-0.8,0.9c-1.1-0.2-2.2-0.3-3-0.3
			c-2.8,0-4.9,1-6.5,3c-1.6,1.9-2.2,4.4-1.8,7c0.3,2.5,1.6,5.1,3.6,7.9c-0.3,0.4-0.7,0.7-1,1.1C3.7,33.9,0,40,0,41v0.5h6.6l-0.1-0.6
			c-0.4-2,0.4-4.4,1.9-6.3c1-1.2,2.6-2.5,5-3.1c2.2,2.2,5.1,4.5,8.2,6.7h4.9v-0.5c0-0.6-0.3-1.1-0.8-1.4c-0.8-0.5-2-0.6-3.1-0.2
			c-1.1-1.2-1.6-2.7-1.8-4.7c10.7,0.9,20.9,5.3,32.4,11.3h6.3l0.1-0.4C59.9,41.6,59.6,40.8,58.9,40.1L58.9,40.1z"/>
	</g>
</g>
</svg>
