<?xml version="1.0" encoding="utf-8"?>
<!-- Generator: Adobe Illustrator 26.3.1, SVG Export Plug-In . SVG Version: 6.00 Build 0)  -->
<svg version="1.1" id="레이어_1" xmlns="http://www.w3.org/2000/svg" xmlns:xlink="http://www.w3.org/1999/xlink" x="0px"
	 y="0px" viewBox="0 0 80 80" style="enable-background:new 0 0 80 80;" xml:space="preserve">
<style type="text/css">
	.st0{fill-rule:evenodd;clip-rule:evenodd;fill:url(#Combined-Shape_00000003062714073738314260000005155495967602940829_);}
</style>
<g id="tornado">
	<g id="akka">
		<g id="Group-10" transform="translate(13.000000, 6.000000)">
			
				<linearGradient id="Combined-Shape_00000035492302533930849260000008654548822573252993_" gradientUnits="userSpaceOnUse" x1="-635.0209" y1="8.1913" x2="-635.0209" y2="9.1913" gradientTransform="matrix(49.8389 0 0 62.748 31676.0273 -511.2853)">
				<stop  offset="0" style="stop-color:#A8DBE1"/>
				<stop  offset="1" style="stop-color:#588FC7"/>
			</linearGradient>
			
				<path id="Combined-Shape" style="fill-rule:evenodd;clip-rule:evenodd;fill:url(#Combined-Shape_00000035492302533930849260000008654548822573252993_);" d="
				M36.2,2.7c0.1,0,0.1,0,0.2,0c0.8,0,1.4,0.6,1.5,1.3c0.1,0.8-0.5,1.6-1.3,1.7C29,6.6,8.7,12.9,5.7,31.1c-1,6.8,0.7,11.7,5.1,14.6
				c5.6,3.7,13.7,3,15.7,1.7c0.7-0.4,1.6-0.2,2.1,0.5c0.4,0.7,0.2,1.6-0.5,2.1c-1.5,0.9-4.2,1.5-7.2,1.5c-0.3,0-0.7,0-1.1,0
				c0.4,0.5,0.9,1.1,1.7,1.6c1.9,1.1,4.6,1,8-0.2c0.5-0.2,1,0.1,1.2,0.6s-0.1,1-0.6,1.2c-1.5,0.5-2.9,0.9-4.1,1
				c0.4,0.5,1,1.1,1.8,1.5c1.7,0.7,3.9,0.5,6.6-0.7c0.5-0.2,1,0,1.2,0.5s0,1-0.5,1.2c-1,0.2-2.1,0.6-3.1,0.8
				c1.1,1.1,2.4,2.6,2.9,4.2c1.8-0.7,5.7-2.7,6.9-7.8l0.1-0.4l0.4-0.2c0.1,0,2.4-1.3,2-4l-0.1-0.5l0.4-0.3c0.2-0.2,4.6-3.8,2.7-9.6
				c-0.7,0.8-1.4,1.6-2.2,2.3c-3.6,3.5-7.2,5.5-7.4,5.6c-0.1,0.1-0.3,0.1-0.4,0.1c-0.3,0-0.6-0.2-0.8-0.5c-0.2-0.4-0.1-1,0.4-1.2
				c0.1-0.1,14-7.7,13.5-18.9c0-0.8-0.2-2.4-1.3-4.1c1.4,4-0.3,8.2-4.6,11.4c-0.2,0.1-0.4,0.2-0.5,0.2c-0.3,0-0.6-0.1-0.7-0.4
				c-0.3-0.4-0.2-1,0.2-1.3c3.6-2.7,5.1-6.2,3.9-9.4c-0.8-2.3-2.8-4-5.3-4.6c-0.1,0-0.1,0-0.2,0c-3.1-0.5-6.9-0.1-10.4,1.1
				c0.5,0.2,1,0.5,1.4,1c1.8,1.8,2.5,4.2,1.7,6.6c-0.6,1.9-1.7,3.5-3.1,4.8c-2.3,2.2-5.5,3.6-8.7,3.5c-2.3-0.1-4.7-1.2-6.1-3
				c-1.2-1.5-1.7-3.3-1.4-5.3C16,23.6,19.9,20,23,17.9c3.6-2.4,8.1-4.2,11.7-4.7c0.5-0.1,1,0.3,1,0.8c0.1,0.5-0.3,1-0.8,1
				c-3.4,0.5-7.6,2.2-10.9,4.5c-5.1,3.5-6.6,6.9-6.9,9.2c-0.2,1.5,0.2,2.8,1,3.9c0.5,0.6,1.1,1,1.7,1.4c-0.3-1-0.4-2.1-0.2-3.3
				c0.8-4.4,3.9-8.2,8.8-10.6c7.5-3.7,23.3-4.1,23.8,7.6c0.2,3.7-1.1,7.4-3.6,11c2.8,6.5-1.2,11.1-2.5,12.4c0.2,2.6-1.5,4.4-2.7,5.2
				c-1.9,7.3-8.7,9-9,9.1l-1.1,0.3v-1.1c0-1.5-2.2-3.9-3.8-5.2c-0.9,0-1.7-0.2-2.4-0.6c-1.8-0.8-2.8-2.3-3.2-3.1
				c-1.3-0.1-2.4-0.4-3.3-1c-1.6-0.9-2.5-2.3-2.9-3.3c-3-0.4-6-1.3-8.6-3c-3.8-2.5-8-7.6-6.4-17.6C6,10.5,28,3.7,36.2,2.7z
				 M36.9,8.4L36.9,8.4c0.6,0,1.1,0.4,1.1,0.9c0.1,0.6-0.3,1.1-0.9,1.2c-9.9,1.3-15.9,5.5-19.2,8.7c-3.7,3.7-5.6,7.9-5.8,10.4
				c-0.1,0.5-0.5,1-1.1,1h-0.1c-0.6-0.1-1-0.6-0.9-1.2C10.7,23.6,18,10.8,36.9,8.4z"/>
		</g>
	</g>
</g>
</svg>
