<svg width="40" height="40" viewBox="0 0 40 40" fill="none" xmlns="http://www.w3.org/2000/svg">
<ellipse cx="9.33801" cy="19.4604" rx="2.29651" ry="2.22134" fill="#FF6309"/>
<ellipse cx="25.8052" cy="28.6541" rx="2.29651" ry="2.22134" fill="#FFB515"/>
<path fill-rule="evenodd" clip-rule="evenodd" d="M20.3159 13.9637C23.1755 13.9637 25.548 16.0175 25.9409 18.6802H29.8755C29.6968 16.5879 28.8 14.6378 27.3006 13.0999C26.3403 13.5729 25.1596 13.5819 24.1566 13.022C23.1528 12.4613 22.5704 11.467 22.5145 10.425C21.8019 10.2643 21.0657 10.181 20.3159 10.181C18.8802 10.181 17.4928 10.4841 16.2311 11.0589L18.2009 14.3591C18.855 14.1044 19.5689 13.9637 20.3159 13.9637Z" fill="#FF6309"/>
<path fill-rule="evenodd" clip-rule="evenodd" d="M25.9411 20.2379C25.5493 22.9016 23.1762 24.9567 20.3159 24.9567C19.5684 24.9567 18.8543 24.816 18.2001 24.5608L16.2301 27.8612C17.4916 28.4362 18.8795 28.7396 20.3157 28.7396C21.066 28.7396 21.8032 28.6558 22.516 28.4951C22.5709 27.4519 23.1536 26.4559 24.1581 25.895C25.1614 25.3345 26.3426 25.3435 27.3031 25.8175C28.8012 24.2794 29.697 22.3295 29.8752 20.2379H25.9411Z" fill="#C90016"/>
<path fill-rule="evenodd" clip-rule="evenodd" d="M14.6335 19.4603C14.6335 17.7091 15.4845 16.1468 16.8072 15.1396L14.8379 11.84C14.376 12.1521 13.9391 12.5053 13.5321 12.8988C12.3924 14.0012 11.5751 15.3322 11.1253 16.7849C12.0315 17.3526 12.6315 18.3382 12.6315 19.4603C12.6315 20.5822 12.0315 21.5679 11.1253 22.1354C11.5751 23.5882 12.3924 24.9192 13.5321 26.0216C13.9388 26.415 14.3753 26.7678 14.8369 27.0801L16.8064 23.7803C15.484 22.7731 14.6335 21.2108 14.6335 19.4603Z" fill="#FFB515"/>
<ellipse cx="25.8032" cy="10.2628" rx="2.29651" ry="2.22134" fill="#C90016"/>
</svg>
