<?xml version="1.0" encoding="utf-8"?>
<!-- Generator: Adobe Illustrator 26.3.1, SVG Export Plug-In . SVG Version: 6.00 Build 0)  -->
<svg version="1.1" id="레이어_1" xmlns="http://www.w3.org/2000/svg" xmlns:xlink="http://www.w3.org/1999/xlink" x="0px"
	 y="0px" viewBox="0 0 80 80" style="enable-background:new 0 0 80 80;" xml:space="preserve">
<style type="text/css">
	.st0{fill-rule:evenodd;clip-rule:evenodd;fill:#EA1B22;}
	.st1{fill-rule:evenodd;clip-rule:evenodd;}
</style>
<g id="weblogic">
	<path id="Combined-Shape" class="st0" d="M30.5,49C21.4,49,14,41.6,14,32.5C14,23.4,21.4,16,30.5,16h19.1C58.6,16,66,23.4,66,32.5
		C66,41.6,58.6,49,49.5,49H30.5z M49.5,42.9c5.9,0,10.4-4.5,10.4-10.4c0-5.9-4.5-10.4-10.4-10.4H30.9c-5.9,0-10.8,4.5-10.8,10.4
		c0,5.9,5.4,10.4,11.3,10.4H49.5z"/>
	<path id="Combined-Shape_00000075858769498028780820000005781805901271281284_" class="st1" d="M14.8,60.2l0.9-5.1h2L16,63.3h-2
		l-1.1-4.6l-1.1,4.6h-2L8,55.1h2l0.9,5.1l1.1-5.1h1.7L14.8,60.2z M24.7,59.8h-3.1v2h3.7v1.5h-5.6v-8.2h5.6v1.5h-3.7v1.7h3.1
		L24.7,59.8L24.7,59.8z M29.2,59.8v2h1.3c0.4,0,0.6-0.1,0.8-0.2c0.2-0.2,0.3-0.4,0.3-0.7c0-0.7-0.3-1-1-1H29.2z M29.2,58.5h1
		c0.4,0,0.7-0.1,0.9-0.2c0.2-0.2,0.3-0.4,0.3-0.7c0-0.3-0.1-0.6-0.3-0.7c-0.2-0.2-0.5-0.2-1-0.2h-1V58.5z M27.2,63.3v-8.2h2.9
		c1,0,1.8,0.2,2.4,0.6c0.5,0.4,0.8,0.9,0.8,1.7c0,0.4-0.1,0.8-0.3,1.1c-0.2,0.3-0.5,0.5-0.9,0.7c0.4,0.1,0.8,0.3,1,0.6
		c0.2,0.3,0.3,0.7,0.3,1.1c0,0.8-0.3,1.4-0.8,1.8c-0.5,0.4-1.3,0.6-2.2,0.6H27.2z M37.7,61.8h3.4v1.5h-5.4v-8.2h2L37.7,61.8
		L37.7,61.8z M47.6,59c0-0.8-0.1-1.4-0.4-1.8c-0.3-0.4-0.7-0.6-1.2-0.6c-1,0-1.5,0.7-1.6,2.2l0,0.6c0,0.8,0.1,1.4,0.4,1.8
		c0.3,0.4,0.7,0.6,1.2,0.6c0.5,0,0.9-0.2,1.1-0.6c0.3-0.4,0.4-1,0.4-1.8V59z M49.6,59.4c0,0.8-0.1,1.5-0.4,2.1
		c-0.3,0.6-0.7,1.1-1.3,1.4c-0.5,0.3-1.2,0.5-1.9,0.5c-0.7,0-1.3-0.2-1.8-0.5c-0.5-0.3-1-0.8-1.3-1.4c-0.3-0.6-0.5-1.3-0.5-2V59
		c0-0.8,0.1-1.5,0.4-2.1c0.3-0.6,0.7-1.1,1.3-1.4c0.5-0.3,1.2-0.5,1.9-0.5c0.7,0,1.3,0.2,1.8,0.5c0.5,0.3,1,0.8,1.3,1.4
		c0.3,0.6,0.5,1.3,0.5,2.1L49.6,59.4L49.6,59.4z M58.5,62.3c-0.3,0.3-0.7,0.6-1.3,0.8s-1.2,0.3-1.9,0.3c-1.1,0-1.9-0.3-2.6-1
		c-0.6-0.7-1-1.6-1-2.7l0-0.7c0-0.8,0.1-1.5,0.4-2.1c0.3-0.6,0.7-1.1,1.2-1.4c0.5-0.3,1.1-0.5,1.8-0.5c1,0,1.8,0.2,2.4,0.7
		c0.6,0.5,0.9,1.2,1,2.1h-1.9c-0.1-0.5-0.2-0.8-0.4-1c-0.2-0.2-0.5-0.3-1-0.3c-0.5,0-0.9,0.2-1.1,0.6c-0.3,0.4-0.4,1-0.4,1.8v0.5
		c0,0.8,0.1,1.4,0.4,1.8c0.3,0.4,0.7,0.6,1.3,0.6c0.5,0,0.9-0.1,1.1-0.3v-1.3h-1.4v-1.3h3.3L58.5,62.3L58.5,62.3z M60.9,63.3v-8.2h2
		v8.2H60.9z M72,60.5c0,0.6-0.2,1.1-0.5,1.5c-0.3,0.4-0.7,0.8-1.2,1c-0.5,0.2-1.1,0.4-1.7,0.4c-1.1,0-1.9-0.3-2.5-1
		c-0.6-0.7-0.9-1.7-0.9-3V59c0-0.8,0.1-1.5,0.4-2.1c0.3-0.6,0.7-1.1,1.2-1.4c0.5-0.3,1.1-0.5,1.8-0.5c1,0,1.8,0.3,2.4,0.8
		c0.6,0.5,0.9,1.2,1,2.2h-2c0-0.5-0.1-0.9-0.4-1.1c-0.2-0.2-0.6-0.3-1.1-0.3c-0.5,0-0.8,0.2-1.1,0.6c-0.2,0.4-0.3,1-0.4,1.8v0.6
		c0,0.9,0.1,1.5,0.3,1.9c0.2,0.4,0.6,0.6,1.1,0.6c0.5,0,0.8-0.1,1-0.3c0.2-0.2,0.4-0.6,0.4-1L72,60.5L72,60.5z"/>
</g>
</svg>
