<?xml version="1.0" encoding="utf-8"?>
<!-- Generator: Adobe Illustrator 26.3.1, SVG Export Plug-In . SVG Version: 6.00 Build 0)  -->
<svg version="1.1" id="레이어_1" xmlns="http://www.w3.org/2000/svg" xmlns:xlink="http://www.w3.org/1999/xlink" x="0px"
	 y="0px" viewBox="0 0 80 80" style="enable-background:new 0 0 80 80;" xml:space="preserve">
<style type="text/css">
	.st0{fill-rule:evenodd;clip-rule:evenodd;fill:#7262A0;}
</style>
<g id="websphere">
	<g id="Group" transform="translate(4.000000, 16.000000)">
		<path id="Combined-Shape" class="st0" d="M56.6,0H66v1.7H56L56.6,0z M39.4,0l9.3,0l0.6,1.7c0,0-9.9,0-9.9,0
			C39.4,1.7,39.4,0,39.4,0z M32,0c1.5,0.1,2.9,0.7,4,1.7c0,0-16.8,0-16.8,0V0L32,0z M6,1.7V0h11.7v1.7H6z M66,5H54.9
			c0,0,0.6-1.7,0.6-1.7H66V5z M50.4,5h-11V3.2h10.4L50.4,5z M37.3,3.2c0.2,0.6,0.5,1,0.5,1.7H19.2V3.2H37.3z M6,5V3.2h11.7V5H6z
			 M53.7,8.2l0.6-1.7l8.4,0v1.7L53.7,8.2z M50.9,6.5l0.6,1.7h-8.9V6.5H50.9z M37.9,6.5c0,0.6-0.1,1.2-0.2,1.7h-5.1V6.5H37.9z
			 M9.3,8.2V6.5h5v1.7H9.3z M22.6,8.2V6.5h5v1.7H22.6z M47.6,10.1c0,0,0,1.3,0,1.3h-4.9V9.6h9.4l0.6,1.6c0,0,0.6-1.6,0.6-1.6h9.5
			v1.7h-4.9c0,0,0-1.3,0-1.3l-0.5,1.3l-9.3,0L47.6,10.1z M22.6,9.6H37v0c-0.3,0.6-0.9,1.3-1.4,1.7c0,0-13,0-13,0
			C22.6,11.4,22.6,9.6,22.6,9.6z M9.3,11.4V9.6h5v1.7H9.3z M57.8,14.6v-1.7h4.9v1.7H57.8z M47.6,12.9c0,0,0,1.7,0,1.7
			c0,0-4.9,0-4.9,0v-1.7H47.6z M56.8,12.9c0,0-0.6,1.7-0.6,1.7l-7,0c0,0-0.6-1.7-0.6-1.7H56.8z M22.6,12.9h12.9
			c0.6,0.5,1.1,1.1,1.5,1.7c0,0-14.5,0-14.5,0C22.6,14.6,22.6,12.9,22.6,12.9z M14.3,14.6c0,0-5,0-5,0c0,0,0-1.7,0-1.7h5V14.6z
			 M57.8,17.8v-1.7h4.9v1.7H57.8z M42.7,17.8v-1.7h4.9v1.7H42.7z M55,17.8c0,0-4.7,0-4.7,0s-0.6-1.7-0.6-1.7h5.9
			C55.7,16.1,55,17.8,55,17.8z M22.6,17.8c0,0,0-1.7,0-1.7h5.1c0,0,0,1.7,0,1.7C27.7,17.8,22.6,17.8,22.6,17.8z M37.8,16.1
			c0.2,0.5,0.3,1.1,0.3,1.7h-5.4v-1.7H37.8z M9.3,17.8v-1.7h5v1.7H9.3z M57.8,21v-1.7H66V21H57.8z M39.4,21v-1.7h8.2V21H39.4z
			 M53.9,21h-2.5l-0.6-1.7h3.7L53.9,21z M6,19.3c0,0,11.7,0,11.7,0c0,0,0,1.7,0,1.7H6V19.3z M37.9,19.3c-0.1,0.6-0.2,1.3-0.6,1.7
			l-0.2,0H19.2v-1.7H37.9z M52.8,24.2h-0.2L52,22.5h1.4L52.8,24.2z M57.8,24.2v-1.7H66v1.7H57.8z M19.2,24.2v-1.7c0,0,16.9,0,16.9,0
			c-1.1,1.1-2.7,1.7-4.4,1.7L19.2,24.2L19.2,24.2z M39.4,24.2v-1.7h8.2v1.7H39.4z M17.7,22.5c0,0,0,1.7,0,1.7c0,0-11.7,0-11.7,0
			c0,0,0-1.7,0-1.7C6,22.5,17.7,22.5,17.7,22.5z"/>
		<path id="Combined-Shape_00000068646691544386174290000000209433113201312959_" class="st0" d="M39.5,37.3c0.4,0,0.7,0.2,0.8,0.6
			c0.1,0.4,0.2,1,0.2,1.8s-0.1,1.4-0.2,1.8c-0.1,0.4-0.4,0.6-0.8,0.6c-0.4,0-0.7-0.2-0.8-0.6c-0.1-0.4-0.2-1-0.2-1.8
			s0.1-1.4,0.2-1.8C38.8,37.5,39.1,37.3,39.5,37.3z M19.5,37.6c0.1,0.2,0.1,0.3,0.1,0.5c0,0.2,0,0.5,0.1,0.7h-1.9v-0.3
			c0-0.2,0-0.3,0-0.5c0-0.2,0.1-0.3,0.2-0.5c0.1-0.1,0.2-0.3,0.3-0.3c0.1-0.1,0.3-0.1,0.5-0.1c0.2,0,0.3,0,0.5,0.1
			C19.4,37.3,19.4,37.4,19.5,37.6z M53.7,37.6c0.1,0.2,0.1,0.3,0.1,0.5c0,0.2,0,0.5,0.1,0.7H52v-0.3c0-0.2,0-0.3,0-0.5
			c0-0.2,0.1-0.3,0.2-0.5c0.1-0.1,0.2-0.3,0.3-0.3c0.1-0.1,0.3-0.1,0.5-0.1c0.2,0,0.3,0,0.5,0.1C53.6,37.3,53.7,37.4,53.7,37.6z
			 M25.4,37.3c0.4,0,0.7,0.2,0.8,0.6c0.1,0.4,0.2,1,0.2,1.8s-0.1,1.4-0.2,1.8c-0.1,0.4-0.4,0.6-0.8,0.6c-0.4,0-0.7-0.2-0.8-0.6
			c-0.1-0.4-0.2-1-0.2-1.8s0.1-1.4,0.2-1.8C24.8,37.5,25,37.3,25.4,37.3z M66.7,40v-0.4c0-0.6,0-1.1-0.1-1.5
			c-0.1-0.5-0.2-0.9-0.4-1.2c-0.2-0.3-0.5-0.6-0.8-0.8c-0.4-0.2-0.8-0.3-1.3-0.3c-0.6,0-1.1,0.1-1.5,0.3c-0.4,0.2-0.7,0.5-0.9,0.8
			c-0.2,0.4-0.3,0.8-0.4,1.2c-0.1,0.5-0.1,0.9-0.1,1.4c0,0.5,0,0.9,0.1,1.4c0,0.5,0.2,0.9,0.3,1.3c0.2,0.4,0.5,0.7,0.8,0.9
			c0.4,0.2,0.9,0.3,1.6,0.3c0.9,0,1.6-0.2,2-0.7c0.4-0.4,0.6-1.1,0.7-2h-1.7c-0.1,0.5-0.2,0.8-0.3,1s-0.4,0.3-0.7,0.3
			c-0.2,0-0.3,0-0.4-0.1c-0.1-0.1-0.2-0.2-0.3-0.4c-0.1-0.2-0.1-0.3-0.2-0.5c0-0.2,0-0.4,0-0.6V40H66.7z M60.7,37.7v-1.8
			c-0.1,0-0.1,0-0.2,0c-0.1,0-0.1,0-0.2,0c-0.4,0-0.7,0.1-1,0.3c-0.3,0.2-0.5,0.5-0.7,0.9h0v-1h-1.8v7.3h1.9V39c0-0.2,0-0.5,0.1-0.6
			c0.1-0.2,0.2-0.3,0.3-0.4c0.1-0.1,0.3-0.2,0.5-0.2c0.2,0,0.3-0.1,0.5-0.1c0.1,0,0.2,0,0.3,0C60.5,37.7,60.6,37.7,60.7,37.7z
			 M55.7,40v-0.4c0-0.6,0-1.1-0.1-1.5c-0.1-0.5-0.2-0.9-0.4-1.2c-0.2-0.3-0.5-0.6-0.8-0.8c-0.4-0.2-0.8-0.3-1.3-0.3
			c-0.6,0-1.1,0.1-1.5,0.3c-0.4,0.2-0.7,0.5-0.9,0.8c-0.2,0.4-0.3,0.8-0.4,1.2c-0.1,0.5-0.1,0.9-0.1,1.4c0,0.5,0,0.9,0.1,1.4
			s0.2,0.9,0.3,1.3c0.2,0.4,0.5,0.7,0.8,0.9c0.4,0.2,0.9,0.3,1.6,0.3c0.9,0,1.6-0.2,2-0.7c0.4-0.4,0.6-1.1,0.7-2h-1.7
			c-0.1,0.5-0.2,0.8-0.3,1c-0.1,0.2-0.4,0.3-0.7,0.3c-0.2,0-0.3,0-0.4-0.1c-0.1-0.1-0.2-0.2-0.3-0.4c-0.1-0.2-0.1-0.3-0.2-0.5
			c0-0.2,0-0.4,0-0.6V40H55.7z M49.1,43.4v-5.4c0-0.7-0.2-1.3-0.5-1.6c-0.3-0.3-0.8-0.5-1.4-0.5c-0.8,0-1.4,0.3-1.8,0.9h0v-3.2h-1.9
			v9.7h1.9v-4.9c0-0.8,0.3-1.2,1-1.2c0.3,0,0.5,0.1,0.6,0.2c0.1,0.2,0.2,0.4,0.2,0.8v5.1H49.1z M41.8,42.6c0.4-0.6,0.5-1.6,0.5-2.9
			c0-1.4-0.2-2.3-0.5-3c-0.4-0.6-0.9-0.9-1.7-0.9c-0.4,0-0.7,0.1-1,0.2c-0.3,0.2-0.5,0.4-0.7,0.7h0V36h-1.8v9.7h1.9v-3h0
			c0.2,0.3,0.4,0.5,0.7,0.6c0.3,0.1,0.6,0.2,0.9,0.2C40.9,43.5,41.4,43.2,41.8,42.6z M34.7,42.8c0.6-0.5,0.9-1.2,0.9-2.2
			c0-0.3,0-0.6-0.1-0.8c-0.1-0.2-0.2-0.5-0.3-0.7c-0.1-0.2-0.3-0.4-0.6-0.6c-0.2-0.2-0.5-0.3-0.9-0.5l-1.5-0.7
			c-0.4-0.2-0.7-0.4-0.8-0.6c-0.1-0.2-0.2-0.5-0.2-0.8c0-0.1,0-0.3,0-0.4c0-0.1,0.1-0.3,0.2-0.4c0.1-0.1,0.2-0.2,0.3-0.3
			c0.1-0.1,0.3-0.1,0.5-0.1c0.4,0,0.7,0.1,0.8,0.4c0.2,0.3,0.2,0.6,0.2,1.1h1.9v-0.3c0-0.5-0.1-0.9-0.2-1.2
			c-0.2-0.3-0.4-0.6-0.6-0.8c-0.3-0.2-0.6-0.4-1-0.5c-0.4-0.1-0.8-0.1-1.2-0.1c-0.9,0-1.7,0.2-2.2,0.7c-0.5,0.5-0.8,1.2-0.8,2.2
			c0,0.4,0,0.8,0.2,1.1c0.1,0.3,0.3,0.6,0.5,0.8c0.2,0.2,0.5,0.4,0.8,0.6c0.3,0.2,0.7,0.3,1.1,0.5c0.3,0.1,0.6,0.2,0.8,0.3
			c0.2,0.1,0.4,0.2,0.5,0.3c0.1,0.1,0.2,0.3,0.3,0.4c0.1,0.2,0.1,0.3,0.1,0.6c0,0.4-0.1,0.7-0.4,0.9c-0.2,0.2-0.5,0.3-0.8,0.3
			c-0.3,0-0.5,0-0.6-0.1c-0.2-0.1-0.3-0.2-0.4-0.3c-0.1-0.1-0.2-0.3-0.2-0.5c0-0.2-0.1-0.4-0.1-0.6v-0.3h-2v0.4
			c0,0.9,0.2,1.6,0.7,2.1c0.5,0.5,1.3,0.7,2.4,0.7C33.3,43.5,34.1,43.3,34.7,42.8z M27.8,42.6c0.4-0.6,0.5-1.6,0.5-2.9
			c0-1.4-0.2-2.3-0.5-3c-0.4-0.6-0.9-0.9-1.7-0.9c-0.4,0-0.7,0.1-0.9,0.2c-0.3,0.1-0.5,0.4-0.7,0.7h0v-3.1h-1.9v9.7h1.8v-0.8h0
			c0.2,0.3,0.4,0.6,0.7,0.7c0.3,0.1,0.6,0.2,1,0.2C26.8,43.5,27.4,43.2,27.8,42.6z M21.5,40v-0.4c0-0.6,0-1.1-0.1-1.5
			c-0.1-0.5-0.2-0.9-0.4-1.2c-0.2-0.3-0.5-0.6-0.8-0.8c-0.4-0.2-0.8-0.3-1.3-0.3c-0.6,0-1.1,0.1-1.5,0.3c-0.4,0.2-0.7,0.5-0.9,0.8
			c-0.2,0.4-0.3,0.8-0.4,1.2c-0.1,0.5-0.1,0.9-0.1,1.4c0,0.5,0,0.9,0.1,1.4c0,0.5,0.2,0.9,0.3,1.3c0.2,0.4,0.5,0.7,0.8,0.9
			c0.4,0.2,0.9,0.3,1.6,0.3c0.9,0,1.6-0.2,2-0.7c0.4-0.4,0.6-1.1,0.7-2h-1.7c-0.1,0.5-0.2,0.8-0.3,1c-0.1,0.2-0.4,0.3-0.7,0.3
			c-0.2,0-0.3,0-0.4-0.1c-0.1-0.1-0.2-0.2-0.3-0.4c-0.1-0.2-0.1-0.3-0.2-0.5c0-0.2,0-0.4,0-0.6V40H21.5z M13.8,43.4l1.8-9.7h-1.9
			l-1.1,7.2h0l-1.1-7.2H9.6l-1.1,7.2h0l-1.1-7.2H5.5l1.8,9.7h2.2l1.1-7.1h0l1.1,7.1H13.8z M0,48.3V29h72v19.3H0z M64.7,37.6
			c0.1,0.2,0.1,0.3,0.1,0.5c0,0.2,0,0.5,0.1,0.7H63v-0.3c0-0.2,0-0.3,0-0.5c0-0.2,0.1-0.3,0.2-0.5c0.1-0.1,0.2-0.3,0.3-0.3
			c0.1-0.1,0.3-0.1,0.5-0.1c0.2,0,0.3,0,0.5,0.1C64.6,37.3,64.7,37.4,64.7,37.6z"/>
	</g>
</g>
</svg>
