<?xml version="1.0" encoding="utf-8"?>
<!-- Generator: Adobe Illustrator 26.3.1, SVG Export Plug-In . SVG Version: 6.00 Build 0)  -->
<svg version="1.1" id="레이어_1" xmlns="http://www.w3.org/2000/svg" xmlns:xlink="http://www.w3.org/1999/xlink" x="0px"
	 y="0px" viewBox="0 0 80 80" style="enable-background:new 0 0 80 80;" xml:space="preserve">
<style type="text/css">
	.st0{fill:#464342;}
</style>
<g id="wordpress">
	<g id="akka">
		<g id="Group" transform="translate(10.000000, 10.000000)">
			<path id="Path" class="st0" d="M4.2,29.9C4.2,40,10.1,48.8,18.7,53L6.5,19.4C5,22.6,4.2,26.2,4.2,29.9z"/>
			<path id="Path_00000098214429109978284770000004477408051939524796_" class="st0" d="M47.2,28.6c0-3.2-1.1-5.4-2.1-7.1
				c-1.3-2.1-2.5-3.9-2.5-6c0-2.4,1.8-4.6,4.3-4.6c0.1,0,0.2,0,0.3,0c-4.6-4.2-10.6-6.7-17.3-6.7c-9,0-16.8,4.6-21.4,11.6
				c0.6,0,1.2,0,1.6,0c2.7,0,6.8-0.3,6.8-0.3c1.4-0.1,1.5,1.9,0.2,2.1c0,0-1.4,0.2-2.9,0.2l9.3,27.8l5.6-16.8l-4-10.9
				c-1.4-0.1-2.7-0.2-2.7-0.2c-1.4-0.1-1.2-2.2,0.2-2.1c0,0,4.2,0.3,6.8,0.3c2.7,0,6.8-0.3,6.8-0.3c1.4-0.1,1.5,1.9,0.2,2.1
				c0,0-1.4,0.2-2.9,0.2l9.3,27.6l2.6-8.5C46.3,33.3,47.2,30.8,47.2,28.6z"/>
			<path id="Path_00000137841837778279347360000006298529337754376099_" class="st0" d="M30.3,32.1l-7.7,22.4c2.3,0.7,4.7,1,7.2,1
				c3,0,5.8-0.5,8.5-1.5c-0.1-0.1-0.1-0.2-0.2-0.4L30.3,32.1z"/>
			<path id="Path_00000075138087088396224080000002281616394842995902_" class="st0" d="M52.4,17.6c0.1,0.8,0.2,1.7,0.2,2.6
				c0,2.6-0.5,5.5-1.9,9.2L42.8,52c7.6-4.4,12.7-12.7,12.7-22.2C55.5,25.4,54.4,21.2,52.4,17.6z"/>
			<path id="Shape" class="st0" d="M29.9,0C13.4,0,0,13.4,0,29.9c0,16.5,13.4,29.9,29.9,29.9c16.5,0,29.9-13.4,29.9-29.9
				C59.8,13.4,46.4,0,29.9,0z M29.9,58.4c-15.7,0-28.5-12.8-28.5-28.5c0-15.7,12.8-28.5,28.5-28.5c15.7,0,28.5,12.8,28.5,28.5
				C58.4,45.6,45.6,58.4,29.9,58.4z"/>
		</g>
	</g>
</g>
</svg>
