<svg width="35" height="19" viewBox="0 0 35 19" fill="none" xmlns="http://www.w3.org/2000/svg">
<path d="M0.537354 0.013916H34.037V18.1994H0.537354V0.013916Z" fill="white"/>
<path d="M10.3892 3.29427C10.3892 3.29427 9.92828 5.10411 9.00653 8.72378L9.24733 8.31986C9.47 7.9522 9.72374 7.63632 10.0085 7.37223C10.2934 7.10295 10.5264 6.96832 10.7076 6.96832H10.7387C10.8215 6.96832 10.9536 7.03046 11.1348 7.15474C11.3161 7.27384 11.4896 7.43695 11.6553 7.64409C11.8261 7.84604 11.9452 8.05577 12.0126 8.27326C12.0799 8.49075 12.0695 8.9335 11.9815 9.60151C11.8986 10.2695 11.6475 11.1628 11.228 12.2813C10.8086 13.3946 10.3969 14.1377 9.99301 14.5106C9.5891 14.8782 9.07903 15.0621 8.46281 15.0621C8.1055 15.0621 7.76891 14.9663 7.45303 14.7747C7.37018 14.9249 7.22518 14.9999 7.01805 14.9999H6.74618C6.55458 14.9999 6.41995 14.9533 6.34227 14.8601C6.26978 14.7617 6.25165 14.6375 6.2879 14.4873L9.20072 3.27874C9.26286 3.04571 9.4208 2.9292 9.67454 2.9292H10.0396C10.3296 2.9292 10.4461 3.05089 10.3892 3.29427ZM7.70159 13.8814C8.21943 14.1766 8.6311 14.2232 8.93663 14.0212C9.24215 13.8141 9.53473 13.4024 9.81436 12.7862C10.2908 11.7557 10.6196 10.7382 10.8008 9.73355C10.8837 9.28822 10.9173 8.97234 10.9018 8.78592C10.8863 8.59432 10.8086 8.45968 10.6688 8.382C10.529 8.30433 10.3425 8.3587 10.1095 8.54512C9.8765 8.73154 9.63312 9.01376 9.37938 9.39178C9.13081 9.7698 8.88225 10.2721 8.63369 10.8987C8.39031 11.5253 8.09514 12.4729 7.74819 13.7416L7.70159 13.8814Z" fill="#333333"/>
<path d="M14.5371 11.7686C15.6142 11.3026 16.3469 10.6708 16.7353 9.87337C16.932 9.46428 17.0304 9.06296 17.0304 8.6694C17.0304 8.27585 16.9165 8.07907 16.6887 8.07907C16.1915 8.07907 15.7617 8.46745 15.3993 9.2442C15.0419 10.021 14.7545 10.8624 14.5371 11.7686ZM14.3351 12.8173C14.2574 13.2626 14.2626 13.5759 14.3506 13.7571C14.4387 13.9332 14.5785 14.0445 14.7701 14.0911C15.1636 13.9461 15.6452 13.55 16.2148 12.9027C16.3132 12.8043 16.4194 12.794 16.5333 12.8716L16.8362 13.0581C16.8984 13.0943 16.9424 13.1513 16.9683 13.2289C16.9994 13.3014 17.002 13.361 16.9761 13.4076C16.7793 13.7908 16.4064 14.1999 15.8575 14.6349C15.3138 15.0647 14.8762 15.2459 14.5448 15.1786C13.794 14.9974 13.3538 14.6038 13.2243 13.9979C13.126 13.5163 13.1441 12.8716 13.2787 12.0638C13.4185 11.256 13.6749 10.4223 14.0477 9.56267C14.5914 8.30433 15.2206 7.50945 15.9352 7.17804C16.4997 6.91394 17.0149 6.88546 17.481 7.09259C17.9522 7.29973 18.1878 7.81497 18.1878 8.63833C18.1878 9.11474 18.0713 9.58338 17.8383 10.0443C17.4188 10.8676 16.6783 11.59 15.6167 12.2114C15.2025 12.4548 14.7753 12.6567 14.3351 12.8173Z" fill="#333333"/>
<path d="M22.8473 4.46717C22.8473 4.46717 22.6376 5.28535 22.2182 6.92171H23.0571C23.1762 6.92171 23.2538 6.9476 23.2901 6.99938C23.3263 7.05117 23.3263 7.14179 23.2901 7.27125L23.1813 7.68293C23.114 7.91595 22.9768 8.03246 22.7697 8.03246H21.9385L20.253 14.6504C20.1908 14.8834 20.0329 14.9999 19.7792 14.9999H19.4762C19.3053 14.9999 19.1837 14.9507 19.1112 14.8524C19.0438 14.754 19.0257 14.6323 19.0568 14.4873L20.7035 8.03246H20.0821C19.9734 8.03246 19.9009 8.00657 19.8646 7.95479C19.8335 7.89783 19.8361 7.79685 19.8724 7.65186L19.9967 7.22464C20.0536 7.02269 20.1701 6.92171 20.3462 6.92171H20.9909L21.6201 4.45164C21.6822 4.21861 21.8427 4.1021 22.1017 4.1021H22.4978C22.7878 4.1021 22.9043 4.22379 22.8473 4.46717Z" fill="#333333"/>
<path d="M27.739 8.12568C27.2264 7.83569 26.8173 7.79426 26.5118 8.0014C26.2063 8.20335 25.9137 8.60985 25.634 9.2209C25.1576 10.2566 24.8262 11.2767 24.6398 12.2813C24.5569 12.7266 24.5233 13.0451 24.5388 13.2367C24.5595 13.4231 24.6398 13.5552 24.7796 13.6329C24.9194 13.7105 25.1033 13.6562 25.3311 13.4697C25.5641 13.2833 25.8049 13.0011 26.0535 12.6231C26.3072 12.2451 26.5532 11.7479 26.7914 11.1317C27.0348 10.5103 27.3507 9.5083 27.739 8.12568ZM27.9798 7.23241C28.0368 6.98903 28.1585 6.86734 28.3449 6.86734L28.71 6.8518C28.9016 6.8518 29.0362 6.90359 29.1139 7.00715C29.1916 7.11072 29.2019 7.25054 29.145 7.4266L27.2419 13.7882C27.5682 13.55 27.8944 13.2005 28.2206 12.7396C28.3346 12.5739 28.4666 12.5376 28.6168 12.6308L28.9974 12.8872C29.1631 12.9959 29.189 13.128 29.0751 13.2833C28.6453 13.796 28.2465 14.1921 27.8789 14.4717C27.5112 14.7462 27.0788 14.943 26.5817 15.0621C26.5144 15.0776 26.4522 15.0673 26.3953 15.031C26.3435 14.9948 26.3098 14.9482 26.2943 14.8912L25.9914 14.0057C25.8256 14.2439 25.6185 14.4769 25.3699 14.7048C25.1266 14.9326 24.9143 15.0465 24.733 15.0465H24.7019C24.6191 15.0465 24.487 14.987 24.3058 14.8679C24.1297 14.7436 23.9899 14.6193 23.8864 14.495C23.788 14.3708 23.7181 14.2827 23.6766 14.231C23.6404 14.1792 23.599 14.1144 23.5523 14.0368C23.5057 13.9539 23.4721 13.8736 23.4514 13.796C23.4307 13.7183 23.4125 13.6277 23.397 13.5241C23.3659 13.3429 23.3711 13.0762 23.4125 12.7241C23.5265 11.8593 23.7931 10.8728 24.2126 9.76462C24.6372 8.65128 25.0515 7.9056 25.4554 7.52758C25.8593 7.14438 26.3668 6.95278 26.9778 6.95278C27.3351 6.95278 27.6691 7.04599 27.9798 7.23241Z" fill="#333333"/>
</svg>
