<svg width="282" height="282" viewBox="0 0 282 282" fill="none" xmlns="http://www.w3.org/2000/svg">
<path d="M48 36.351C72.7284 14.3593 105.304 1 141 1C218.32 1 281 63.6801 281 141C281 218.32 218.32 281 141 281C63.6801 281 1 218.32 1 141C1 106.964 13.1458 75.7647 33.3396 51.5" stroke="url(#paint0_linear_2146_1441)" stroke-width="1.3" stroke-linecap="round"/>
<path d="M46 43.5C46 46.5376 43.5376 49 40.5 49C37.4624 49 35 46.5376 35 43.5C35 40.4624 37.4624 38 40.5 38C43.5376 38 46 40.4624 46 43.5Z" fill="url(#paint1_linear_2146_1441)"/>
<defs>
<linearGradient id="paint0_linear_2146_1441" x1="141" y1="1" x2="141" y2="281" gradientUnits="userSpaceOnUse">
<stop stop-color="#01CC6A"/>
<stop offset="1" stop-color="#01B494"/>
</linearGradient>
<linearGradient id="paint1_linear_2146_1441" x1="40.5" y1="38" x2="40.5" y2="49" gradientUnits="userSpaceOnUse">
<stop stop-color="#01C673"/>
<stop offset="1" stop-color="#01B494"/>
</linearGradient>
</defs>
</svg>
