<svg width="60" height="60" viewBox="0 0 60 60" fill="none" xmlns="http://www.w3.org/2000/svg">
<path d="M27.6423 5.14294L27.6426 12.6967C19.1618 13.9098 12.6426 21.2033 12.6426 30.0194C12.6426 39.6844 20.4776 47.5194 30.1426 47.5194C34.0733 47.5194 37.7016 46.2234 40.6231 44.0354L45.9648 49.3764C41.6551 52.9034 36.1461 55.0194 30.1426 55.0194C16.3355 55.0194 5.14258 43.8266 5.14258 30.0194C5.14258 17.0562 15.0091 6.39737 27.6423 5.14294ZM32.6453 5.14319C44.4551 6.31702 53.8463 15.7092 55.0191 27.5191L47.4653 27.5189C46.3688 19.8558 40.3078 13.7943 32.6451 12.697L32.6453 5.14319Z" fill="#666666"/>
<path d="M49.5024 45.8402C52.5329 42.1364 54.5214 37.5472 55.0207 32.5197L47.4669 32.5194C47.0429 35.4844 45.8757 38.2094 44.1602 40.4999L49.5024 45.8402Z" fill="#5F7DFF"/>
</svg>
