<svg width="60" height="60" viewBox="0 0 60 60" fill="none" xmlns="http://www.w3.org/2000/svg">
<g clip-path="url(#clip0_3490_2414)">
<path d="M30 33.333L6.94337 48.704C6.36897 49.087 5.59288 48.9318 5.20993 48.3573C5.07305 48.152 5 47.9108 5 47.664V12.3352C5 11.6449 5.55965 11.0852 6.25 11.0852C6.49678 11.0852 6.73805 11.1583 6.94337 11.2952L30 26.6663V12.3352C30 11.6449 30.5598 11.0852 31.25 11.0852C31.4968 11.0852 31.738 11.1583 31.9435 11.2952L58.44 28.9595C59.0143 29.3425 59.1695 30.1185 58.7865 30.693C58.695 30.8303 58.5773 30.948 58.44 31.0395L31.9435 48.704C31.369 49.087 30.593 48.9318 30.21 48.3573C30.073 48.152 30 47.9108 30 47.664V33.333Z" fill="#666666"/>
<mask id="mask0_3490_2414" style="mask-type:alpha" maskUnits="userSpaceOnUse" x="29" y="4" width="34" height="53">
<rect x="29" y="4" width="34" height="53" fill="#D9D9D9"/>
</mask>
<g mask="url(#mask0_3490_2414)">
<path d="M30 33.333L6.94337 48.704C6.36897 49.087 5.59288 48.9318 5.20993 48.3573C5.07305 48.152 5 47.9108 5 47.664V12.3352C5 11.6449 5.55965 11.0852 6.25 11.0852C6.49678 11.0852 6.73805 11.1583 6.94337 11.2952L30 26.6663V12.3352C30 11.6449 30.5597 11.0852 31.25 11.0852C31.4968 11.0852 31.738 11.1583 31.9435 11.2952L58.44 28.9595C59.0143 29.3425 59.1695 30.1185 58.7865 30.693C58.695 30.8303 58.5773 30.948 58.44 31.0395L31.9435 48.704C31.369 49.087 30.593 48.9318 30.21 48.3573C30.073 48.152 30 47.9108 30 47.664V33.333Z" fill="#5F7DFF"/>
</g>
</g>
<defs>
<clipPath id="clip0_3490_2414">
<rect width="60" height="60" fill="white"/>
</clipPath>
</defs>
</svg>
