<svg width="60" height="60" viewBox="0 0 60 60" fill="none" xmlns="http://www.w3.org/2000/svg">
<path d="M13.3352 11.3623C15.8735 9.09093 18.8786 7.3305 22.1889 6.24268C24.0214 8.532 26.8395 9.9982 30 9.9982C33.1605 9.9982 35.9785 8.532 37.8113 6.24268C41.1215 7.3305 44.1265 9.09093 46.6647 11.3623C45.6012 14.0925 45.7415 17.2633 47.3205 19.9982C48.9005 22.7347 51.5785 24.442 54.4765 24.8848C54.8197 26.5355 55 28.2458 55 29.9983C55 31.7505 54.8197 33.461 54.4765 35.1115C51.5785 35.5545 48.9005 37.2618 47.3205 39.9983C45.7415 42.733 45.6012 45.904 46.6647 48.634C44.1265 50.9055 41.1215 52.666 37.8113 53.7537C35.9785 51.4645 33.1605 49.9983 30 49.9983C26.8395 49.9983 24.0214 51.4645 22.1889 53.7537C18.8786 52.666 15.8735 50.9055 13.3352 48.634C14.3988 45.904 14.2585 42.733 12.6795 39.9983C11.0996 37.2618 8.42155 35.5545 5.52338 35.1115C5.1803 33.461 5 31.7505 5 29.9983C5 28.2458 5.1803 26.5355 5.52338 24.8848C8.42155 24.442 11.0996 22.7347 12.6795 19.9982C14.2585 17.2633 14.3988 14.0925 13.3352 11.3623ZM33.75 36.4935C37.3373 34.4222 38.5662 29.8355 36.4952 26.2483C34.424 22.661 29.8373 21.4319 26.25 23.503C22.6628 25.574 21.4338 30.161 23.5048 33.7483C25.576 37.3355 30.1627 38.5645 33.75 36.4935Z" fill="#666666"/>
<circle cx="45" cy="13" r="9" fill="#5F7DFF" stroke="white" stroke-width="4"/>
</svg>
