<svg width="105" height="171" viewBox="0 0 105 171" fill="none" xmlns="http://www.w3.org/2000/svg">
<path fill-rule="evenodd" clip-rule="evenodd" d="M0 97.1491H4.05732V101.596H11.278V97.1491H15.2665V109.642H11.278V104.393H3.98855V109.596H0V97.1491ZM15.725 97.1491H19.6677L23.8167 101.963L27.9199 97.1491H31.8167L25.811 104.782V109.642H21.8224V104.439L15.7479 97.1491H15.725ZM32.2981 97.1491H36.2867V106.8H42.705C43.7136 106.8 44.3784 105.791 44.3784 104.737V97.1491H48.3669V107.098C48.3669 108.656 46.6019 109.573 45.5933 109.573H32.2981V97.1262V97.1491ZM49.238 97.1491H62.5332C64.0919 97.1491 65.3756 98.1119 65.3756 100.06V109.619H61.387V102.055C61.387 101 61.0432 100.358 59.6678 100.358H53.6621V109.665H49.2609V97.1491H49.238ZM66.5905 97.1491H78.2123C80.5504 97.1491 82.3384 99.0288 82.3384 100.45V106.181C82.3155 107.189 80.8943 109.619 79.1292 109.619H66.5905V97.1262V97.1491ZM70.6707 106.845H76.814C77.708 106.845 78.3728 106.181 78.3728 105.378V101.734C78.3728 100.84 77.6393 100.312 76.7223 100.312H70.6707V106.823V106.845ZM87.2897 97.0804H99.7597V109.619H95.3127V106.387H87.6565V109.619H83.1636V101.482C83.0719 98.7537 85.4788 97.0804 87.3126 97.0804H87.2897ZM87.5877 101.527V103.545H95.2668V100.358H88.8026C88.0462 100.358 87.5877 100.817 87.5877 101.527ZM100.562 97.1033H104.551V109.986H100.562V97.1033ZM52.5159 61C35.9428 61 22.5101 67.6247 22.5101 75.8081C22.5101 83.9915 35.9428 90.6162 52.5159 90.6162C69.0891 90.6162 82.5218 83.9915 82.5218 75.8081C82.5218 67.6247 69.0891 61 52.5159 61ZM49.6735 64.3009C53.089 63.086 63.2667 64.3009 67.2323 66.2035C68.4931 67.4184 61.5933 71.3152 53.3641 73.0115C41.6047 75.3725 47.1979 66.3181 49.6735 64.3009ZM29.4786 81.8597C26.8883 80.0259 21.8224 74.7536 30.2121 69.2522C34.6362 66.6619 37.1119 66.0888 40.1835 65.447C41.6506 65.1261 42.705 65.4929 41.3984 66.6161C38.6019 69.5043 32.8024 79.1089 32.2752 81.2178C31.8626 82.639 31.0144 83.0058 29.4786 81.8597ZM53.6162 87.98C48.6649 88.5073 37.6391 86.8797 37.4328 85.4585C37.6391 82.0201 54.9458 76.3353 58.0403 79.4986C59.3698 81.9743 56.8254 87.8196 53.6162 87.98ZM78.8083 78.0087C77.5476 80.9198 73.2839 84.1749 64.3211 86.3984C62.9458 86.7193 62.4644 85.8711 63.3813 85.0689C64.8484 84.1749 71.9773 72.2551 72.8713 69.894C73.3985 68.6791 74.4071 69.1605 75.0261 69.6419C77.8685 71.4757 80.0232 74.5015 78.8312 78.0316L78.8083 78.0087Z" fill="#999999"/>
</svg>
