<svg width="201" height="171" viewBox="0 0 201 171" fill="none" xmlns="http://www.w3.org/2000/svg">
<path d="M138.913 109.357V101.786H136.177V109.357H134.332V101.786H131.596V109.357H127.906V111.488H144.734V109.357H138.913Z" fill="#999999"/>
<path d="M140.44 107.29H142.222C142.89 103.854 143.367 99.5915 143.653 96.7286C143.812 95.17 143.812 94.3748 142.413 94.3748H129.752V96.506H140.472V107.29H140.44Z" fill="#999999"/>
<path d="M157.364 109.357V105.699H154.31V109.357H147.375V111.489H164.203V109.357H157.364Z" fill="#999999"/>
<path d="M160.164 104.554C161.437 104.554 161.85 103.854 161.85 102.868V94.1841H158.797V97.6831H152.784V94.1841H149.73V102.868C149.73 103.854 150.176 104.554 151.416 104.554H160.133H160.164ZM152.784 102.709V99.8144H158.797V102.709H152.784Z" fill="#999999"/>
<path d="M198.145 105.794C197.031 105.063 195.631 104.745 194.105 104.745C192.578 104.745 191.178 105.063 190.065 105.794C188.824 106.59 188.283 107.671 188.283 108.848C188.283 110.025 188.856 111.138 190.065 111.934C191.178 112.665 192.578 112.952 194.105 112.952C195.631 112.952 197.031 112.633 198.145 111.934C199.385 111.138 199.926 110.057 199.926 108.848C199.926 107.639 199.353 106.558 198.145 105.794ZM196.268 110.311C195.695 110.788 194.963 110.979 194.105 110.979C193.246 110.979 192.514 110.788 191.973 110.311C191.464 109.898 191.305 109.389 191.305 108.848C191.305 108.307 191.464 107.798 191.973 107.385C192.546 106.94 193.309 106.717 194.105 106.717C194.9 106.717 195.695 106.908 196.268 107.385C196.777 107.798 196.936 108.307 196.936 108.848C196.936 109.389 196.777 109.898 196.268 110.311Z" fill="#999999"/>
<path d="M196.937 93.5159V95.838H194.646V97.9692H196.937V99.4007H194.646V101.532H196.937V104.268H199.991V93.5159H196.937Z" fill="#999999"/>
<path d="M191.974 103.345C193.247 103.345 193.66 102.645 193.66 101.659V94.3748H185.357V101.659C185.357 102.645 185.771 103.345 187.043 103.345H191.974ZM190.638 96.506V101.214H188.411V96.506H190.638Z" fill="#999999"/>
<path d="M172.632 103.822L174 102.805C171.741 100.26 171.105 97.5877 171.105 94.1841H168.274C168.274 97.5877 167.637 100.26 165.379 102.805L166.747 103.822C168.115 102.645 168.942 101.373 169.673 99.8462C170.405 101.373 171.264 102.645 172.6 103.822H172.632Z" fill="#999999"/>
<path d="M179.377 105.921C178.264 105.222 176.864 104.904 175.337 104.904C173.81 104.904 172.41 105.222 171.297 105.921C170.056 106.685 169.516 107.766 169.516 108.912C169.516 110.057 170.088 111.138 171.297 111.933C172.41 112.633 173.81 112.951 175.337 112.951C176.864 112.951 178.264 112.633 179.377 111.933C180.618 111.17 181.158 110.089 181.158 108.912C181.158 107.735 180.586 106.685 179.377 105.921ZM177.5 110.311C176.928 110.757 176.164 110.947 175.337 110.947C174.51 110.947 173.746 110.757 173.206 110.311C172.697 109.898 172.538 109.421 172.538 108.912C172.538 108.403 172.697 107.925 173.206 107.512C173.778 107.067 174.542 106.876 175.337 106.876C176.132 106.876 176.928 107.067 177.5 107.512C178.009 107.925 178.168 108.371 178.168 108.912C178.168 109.452 178.009 109.898 177.5 110.311Z" fill="#999999"/>
<path d="M178.486 93.5159V97.4921H177.372V93.5159H174.637V104.109H177.372V99.6233H178.486V104.109H181.222V93.5159H178.486Z" fill="#999999"/>
<path d="M55.1929 88.7441C52.1073 88.7441 49.3715 89.7621 47.5265 91.6388C45.427 93.7065 44.25 96.9829 44.25 100.832C44.25 104.681 45.3952 107.957 47.5265 110.025C49.3715 111.902 52.0755 112.951 55.1929 112.951C58.3104 112.951 61.0461 111.933 62.8912 110.025C64.9589 107.957 66.104 104.681 66.104 100.832C66.104 96.9829 64.9589 93.7065 62.8912 91.6388C61.0461 89.7621 58.2786 88.7441 55.1929 88.7441ZM59.6146 107.512C58.5967 108.816 57.0061 109.548 55.1929 109.548C53.3797 109.548 51.7574 108.816 50.803 107.512C49.6578 106.112 49.0852 103.79 49.0852 100.832C49.0852 97.8736 49.6897 95.5832 50.803 94.1518C51.7892 92.8794 53.4115 92.1478 55.1929 92.1478C56.9743 92.1478 58.6285 92.8476 59.6146 94.1518C60.7598 95.5832 61.3324 97.9054 61.3324 100.832C61.3324 103.758 60.7598 106.112 59.6146 107.512Z" fill="#999999"/>
<path d="M114.996 91.6388C113.151 89.7621 110.383 88.7441 107.298 88.7441C104.212 88.7441 101.476 89.7621 99.6314 91.6388C97.5319 93.7065 96.3867 96.9829 96.3867 100.832C96.3867 104.681 97.5319 107.957 99.6314 110.025C101.476 111.902 104.212 112.951 107.298 112.951C110.383 112.951 113.151 111.933 114.996 110.025C117.064 107.957 118.209 104.681 118.209 100.832C118.209 96.9829 117.064 93.7065 114.996 91.6388ZM111.751 107.512C110.733 108.784 109.143 109.548 107.33 109.548C105.516 109.548 103.894 108.816 102.908 107.512C101.795 106.112 101.19 103.79 101.19 100.832C101.19 97.8736 101.795 95.5832 102.908 94.1518C103.894 92.8794 105.516 92.1478 107.33 92.1478C109.143 92.1478 110.733 92.8476 111.751 94.12C112.897 95.5514 113.469 97.8735 113.469 100.8C113.469 103.727 112.897 106.08 111.751 107.48V107.512Z" fill="#999999"/>
<path d="M33.464 112.411C33.2095 112.156 32.8914 111.615 32.8914 110.788V102.391L40.7169 89.2532H35.3408C35.7226 89.6349 35.7544 90.2711 35.309 91.0027L31.0782 98.3508C27.5154 91.8934 27.5154 91.7025 26.8792 90.5255C26.3702 89.6349 25.9567 89.2532 25.0023 89.2532H20.7715C21.0896 89.5713 21.4395 90.0166 22.1712 91.2254L28.4061 102.327V110.788C28.4061 111.615 28.088 112.156 27.8335 112.411H33.4958H33.464Z" fill="#999999"/>
<path d="M73.5787 112.411C73.8332 112.156 74.1513 111.615 74.1513 110.788V90.8755C74.1513 90.0484 73.8332 89.5077 73.5787 89.2532H81.2451C84.9351 89.2532 88.1162 91.0345 88.1162 94.47C88.1162 95.9332 87.4482 98.0009 85.7622 98.8915C87.8299 99.6868 89.9931 101.595 89.9931 104.808C89.9931 107.194 88.8161 109.293 87.1937 110.502C85.7304 111.615 84.0126 112.379 81.2133 112.379H73.5469L73.5787 112.411ZM78.6684 98.0009C79.4955 98.0963 81.2133 98.0008 81.9449 97.6191C82.6766 97.2374 83.5037 96.6648 83.5037 95.2334C83.5037 93.8019 82.2949 92.625 80.5134 92.625C79.8454 92.625 79.3046 92.6568 78.6684 92.8476V98.0327V98.0009ZM83.6945 108.498C85.0306 107.639 85.3169 106.399 85.3169 105.094C85.3169 102.55 83.0901 101.373 80.927 101.373C80.4816 101.373 79.3683 101.373 78.6684 101.5V108.912C80.1317 109.325 82.5175 109.23 83.6945 108.466V108.498Z" fill="#999999"/>
<path d="M0.572596 110.788C0.572596 111.615 0.254487 112.156 0 112.411H5.66233C5.40784 112.156 5.08973 111.615 5.08973 110.788V101.754L11.6746 111.138C12.279 112.029 12.7561 112.411 13.7105 112.411H18.2594C17.8777 112.093 17.496 111.647 16.6371 110.438L9.22515 99.9412L16.7961 89.2849H11.2292C11.5155 89.6666 11.5473 90.1438 11.0066 91.0345L5.12155 99.5277V90.9072C5.12155 90.0801 5.43966 89.5394 5.69414 89.2849H0.0318116C0.286298 89.5076 0.604408 90.0801 0.604408 90.9072V110.82L0.572596 110.788Z" fill="#999999"/>
<path d="M125.493 57.539C123.393 55.4077 119.894 55.7576 117.826 57.9524C115.154 60.7517 113.055 61.8015 110.574 61.706C107.106 61.547 105.388 58.875 103.607 55.5031C101.762 51.9722 98.9308 50 95.368 50C89.8011 50 86.4609 54.517 86.4609 59.5429C86.4609 67.2727 91.9006 71.9169 95.6543 73.8573C98.7717 75.4796 102.271 76.1795 105.357 76.2431C105.166 78.088 104.625 80.5374 104.021 82.2552H110.383C109.746 80.5374 109.206 77.8972 109.047 76.0204C118.367 74.8117 122.821 70.581 125.238 66.5411C126.32 64.7598 126.924 62.9466 126.893 61.2925C126.893 59.8292 126.415 58.5251 125.429 57.539H125.493ZM95.4634 62.3741C93.6502 62.5013 92.1233 61.1335 91.996 59.3203C91.8688 57.5071 93.2366 55.9803 95.0499 55.853C96.8313 55.7258 98.39 57.0936 98.4854 58.9067C98.6127 60.6881 97.2448 62.2468 95.4634 62.3741Z" fill="#999999"/>
</svg>
