<svg width="156" height="171" viewBox="0 0 156 171" fill="none" xmlns="http://www.w3.org/2000/svg">
<path d="M86.8416 76.2905C80.1786 76.2905 76.1895 80.4074 76.1895 85.4935C76.1895 90.5797 80.1786 94.6872 86.8416 94.6872C93.5047 94.6872 97.5063 90.5765 97.5063 85.4935C97.5063 80.4105 93.5047 76.2905 86.8416 76.2905ZM86.8416 92.7145C83.6503 92.7145 81.2164 89.4733 81.2164 85.4935C81.2164 81.5138 83.6472 78.2726 86.8416 78.2726C90.036 78.2726 92.4669 81.5044 92.4669 85.4935C92.4669 89.4827 90.0423 92.7145 86.8416 92.7145Z" fill="#999999"/>
<path d="M98.4102 79.0019H105.429V93.9268H110.717V79.0019H116.635V76.97H98.4102V79.0019Z" fill="#999999"/>
<path d="M118.568 79.0019H124.483V93.9268H129.766V79.0019H136.791V76.97H118.568V79.0019Z" fill="#999999"/>
<path d="M65.6623 90.8882V76.97H60.5918V91.9073C60.5918 93.0262 61.4956 93.93 62.6113 93.93H75.5822V91.898H66.6783C66.1205 91.898 65.6623 91.4492 65.6623 90.8914V90.8882Z" fill="#999999"/>
<path d="M145.757 78.9736H155.518V76.9666H141.687C140.571 76.9666 139.664 77.8641 139.664 78.9829V91.9039C139.664 93.0228 140.571 93.9234 141.687 93.9234H155.518V91.9195H145.757C145.193 91.9195 144.75 91.4645 144.75 90.9129V85.914H155.359V83.9226H144.75V79.9771C144.75 79.4224 145.193 78.9736 145.757 78.9736Z" fill="#999999"/>
<path d="M34.2449 105.395C28.7505 110.89 19.7625 110.89 14.2681 105.395L4.12079 95.248C-1.3736 89.7536 -1.3736 80.7656 4.12079 75.2712L14.2712 65.1208C19.7656 59.6264 28.7536 59.6264 34.248 65.1208L44.3984 75.2712C49.8928 80.7656 49.8928 89.7536 44.3984 95.248L34.248 105.398L34.2449 105.395Z" fill="#999999"/>
<path d="M18.2385 100.166C17.4313 100.166 16.7737 99.533 16.7395 98.7289C16.7239 98.3269 16.8641 97.9467 17.1352 97.6506C17.4064 97.3546 17.7772 97.1832 18.1762 97.1676C19.002 97.1271 19.7032 97.7753 19.7375 98.6043C19.7718 99.4301 19.1267 100.131 18.3008 100.166C18.279 100.166 18.2572 100.166 18.2354 100.166H18.2385Z" fill="white"/>
<path d="M23.6993 72.4634C22.8766 72.4634 22.2159 72.7221 21.6829 73.2519C20.533 74.3956 19.9284 76.7579 19.9813 79.8994C20.0468 83.7732 20.9693 91.3743 24.0172 95.2886C24.5127 95.9213 25.0425 96.4293 25.5973 96.7939C26.1333 97.1492 26.7348 97.4951 27.676 97.4951C27.9315 97.4951 28.2058 97.4702 28.4894 97.4172C30.2377 96.9965 32.4255 95.0518 34.0523 92.4651C34.3016 92.0693 34.7286 91.8356 35.193 91.8356C35.4454 91.8356 35.6916 91.9072 35.9066 92.0412C36.2121 92.2345 36.424 92.5305 36.5019 92.8827C36.5829 93.2349 36.5206 93.5933 36.3305 93.8987C34.2705 97.1741 31.5529 99.471 29.0597 100.048C29.0503 100.051 29.0254 100.057 28.9974 100.06C28.5392 100.144 28.0905 100.188 27.6635 100.188C26.0554 100.188 24.921 99.5738 24.1107 99.0409C23.3129 98.5111 22.5649 97.8068 21.8918 96.9435C17.6003 91.4335 17.3074 81.1055 17.2887 79.943C17.2419 77.1942 17.6377 73.47 19.785 71.3383C20.8321 70.2974 22.1442 69.7708 23.6869 69.7708H23.9362C25.482 69.7708 26.7971 70.2974 27.8443 71.3383C29.9915 73.47 30.3873 77.1942 30.3406 79.943C30.2907 82.8071 29.7671 88.3544 26.7971 93.3284C26.554 93.7335 26.1115 93.9828 25.6409 93.9828C25.3978 93.9828 25.161 93.9174 24.9522 93.7927C24.3164 93.4125 24.1076 92.5835 24.4847 91.9478C26.5634 88.4666 27.5669 84.6396 27.6479 79.8963C27.7009 76.7517 27.0963 74.3925 25.9463 73.2488C25.4134 72.719 24.7558 72.4603 23.9331 72.4603H23.6962L23.6993 72.4634Z" fill="white"/>
</svg>
