<?xml version="1.0" encoding="UTF-8"?>
<svg width="100px" height="60px" viewBox="0 0 100 60" version="1.1" xmlns="http://www.w3.org/2000/svg" xmlns:xlink="http://www.w3.org/1999/xlink">
    <!-- Generator: Sketch 55.2 (78181) - https://sketchapp.com -->
    <title>logo/altos_ventures</title>
    <desc>Created with Sketch.</desc>
    <g id="logo/altos_ventures" stroke="none" stroke-width="1" fill="none" fill-rule="evenodd">
        <g transform="translate(7.000000, 12.000000)">
            <polygon id="Fill-1" fill="#231916" points="-1.47082346e-12 35.7289412 35.7112941 35.7289412 35.7112941 7.10542736e-15 -1.47082346e-12 7.10542736e-15"></polygon>
            <path d="M71.1855176,15.3991059 C71.1855176,15.3991059 72.8619882,15.3549882 73.6744588,15.4114588 C74.4759882,15.4675765 75.0639882,16.0231059 75.2044588,16.7201647 C75.3798706,17.5898118 75.0964588,18.2621647 74.3644588,18.7118118 C74.3291647,18.7333412 74.2945765,18.7562824 74.2222235,18.8021647 C74.6079882,19.4501647 75.4105765,20.7980471 75.4105765,20.7980471 L74.0761059,20.7980471 L73.0091647,18.9938118 L72.3470471,18.9938118 L72.3470471,20.8051059 L71.1855176,20.8051059 L71.1855176,15.3991059 Z M72.3622235,17.9346353 C72.3622235,17.9346353 73.0451647,17.9498118 73.3645765,17.9307529 C73.7941059,17.9053412 73.9959882,17.6833412 74.0143412,17.2591059 C74.0355176,16.7685176 73.8512824,16.4889882 73.4196353,16.4455765 C73.0769294,16.4109882 72.3622235,16.4385176 72.3622235,16.4385176 L72.3622235,17.9346353 Z" id="Fill-2" fill="#231916"></path>
            <polygon id="Fill-4" fill="#231916" points="77.3715529 15.4029529 80.9482588 15.4029529 80.9482588 16.4109529 78.5595529 16.4109529 78.5595529 17.5918941 80.6853176 17.5918941 80.6853176 18.6178941 78.5503765 18.6178941 78.5503765 19.7762471 81.0756706 19.7762471 81.0756706 20.8029529 77.3715529 20.8029529"></polygon>
            <polygon id="Fill-5" fill="#231916" points="46.0062706 15.4122 49.6045059 15.4122 49.6045059 16.4057294 47.2105059 16.4057294 47.2105059 17.5796118 49.3069765 17.5796118 49.3069765 18.6130235 47.2147412 18.6130235 47.2147412 19.7876118 49.6990941 19.7876118 49.6990941 20.8012588 46.0062706 20.8012588"></polygon>
            <polygon id="Fill-6" fill="#231916" points="41.6962235 18.3482824 42.9819882 15.4058118 44.1325765 15.4058118 41.7449294 20.9014588 41.6016353 20.8989882 39.1211647 15.4128706 40.3846941 15.4128706"></polygon>
            <polygon id="Fill-7" fill="#231916" points="61.0720941 20.8178118 59.8840941 20.8178118 59.8840941 16.4371059 58.3706824 16.4371059 58.3706824 15.4149882 62.5675059 15.4149882 62.5675059 16.4095765 61.0720941 16.4095765"></polygon>
            <path d="M23.5170706,20.8275176 C21.9373059,20.8151647 20.7958941,19.6688118 20.8011699,18.0999882 C20.8064824,16.5152824 21.9817765,15.3682235 23.5791882,15.3883412 C25.1469529,15.4081059 26.3134235,16.5742235 26.3113088,18.1190471 C26.3088353,19.6755176 25.1074235,20.8398706 23.5170706,20.8275176 M23.5608353,19.9120031 C24.5388353,19.9084588 25.2500118,19.1344588 25.2408353,18.0844588 C25.2320118,17.0595176 24.5176588,16.3169294 23.5534235,16.3010471 C22.6816588,16.2865765 21.8829529,16.9014 21.8508353,18.1134 C21.8229529,19.1581059 22.5701294,19.9158706 23.5608353,19.9120031" id="Fill-8" fill="#FEFEFE"></path>
            <path d="M86.3293412,16.1964 C86.0801647,16.3584 85.8334588,16.5189882 85.4960471,16.7385176 C85.4371059,16.6464 85.3866353,16.5249882 85.3001647,16.4399294 C85.0859294,16.2292235 84.8056941,16.1953412 84.5561647,16.3199294 C84.4181647,16.3891059 84.3024,16.5281647 84.2688706,16.6838118 C84.2064,16.9725176 84.3962824,17.2029882 84.6362824,17.3229882 C85.0393412,17.5248706 85.4526353,17.7059294 85.8521647,17.9138118 C86.4899294,18.2455765 86.8291059,18.9998118 86.6339294,19.6996941 C86.5040471,20.1652235 86.1616941,20.5245176 85.7042824,20.6738118 C85.0548706,20.8859294 84.3948706,20.8721647 83.7669882,20.5785176 C83.4041647,20.4091059 83.1055765,20.1542824 82.9121647,19.7406353 C83.0399294,19.6605176 83.1648706,19.5779294 83.2936941,19.5020471 C83.4260471,19.4244 83.5619294,19.3531059 83.7122824,19.2701647 C83.8171059,19.3806353 83.9078118,19.4851059 84.0076941,19.5796941 C84.2727529,19.8306353 84.6853412,19.9520471 85.0435765,19.8789882 C85.4092235,19.8048706 85.8221647,19.3721647 85.5451059,19.0015765 C85.4088706,18.8191059 85.1342824,18.7054588 84.9324,18.6098118 C84.5724,18.4389882 84.1982824,18.2893412 83.8672235,18.0648706 C83.0099294,17.4835765 82.9065176,16.1275765 83.8725176,15.5992235 C84.1174588,15.4651059 84.3948706,15.3899294 84.6733412,15.3744 C85.3739294,15.3355765 85.9531059,15.5268706 86.3293412,16.1964" id="Fill-10" fill="#231916"></path>
            <path d="M31.4732471,16.2041294 C31.2240706,16.3661294 30.9773647,16.5267176 30.6399529,16.7462471 C30.5810118,16.6541294 30.5305412,16.5327176 30.4440706,16.4476588 C30.2298353,16.2369529 29.9496,16.2030706 29.7000706,16.3276588 C29.5620706,16.3968353 29.4463059,16.5358941 29.4127765,16.6915412 C29.3506588,16.9802471 29.5401882,17.2107176 29.7801882,17.3310706 C30.1832471,17.5326 30.5965412,17.7136588 30.9960706,17.9215412 C31.6338353,18.2533059 31.9733647,19.0075412 31.7778353,19.7074235 C31.6479529,20.1729529 31.3056,20.5322471 30.8481882,20.6818941 C30.1987765,20.8936588 29.5387765,20.8798941 28.9108941,20.5862471 C28.5480706,20.4168353 28.2494824,20.1620118 28.0560706,19.7483647 C28.1838353,19.6682471 28.3087765,19.5856588 28.4376,19.5097765 C28.5699529,19.4321294 28.7058353,19.3608353 28.8561882,19.2778941 C28.9610118,19.3883647 29.0517176,19.4928353 29.1516,19.5874235 C29.4166588,19.8383647 29.8292471,19.9597765 30.1874824,19.8867176 C30.5531294,19.8122471 30.9660706,19.3798941 30.6890118,19.0093059 C30.5527765,18.8268353 30.2781882,18.7131882 30.0763059,18.6175412 C29.7163059,18.4467176 29.3421882,18.2970706 29.0111294,18.0726 C28.1538353,17.4916588 28.0504235,16.1353059 29.0164235,15.6069529 C29.2613647,15.4728353 29.5387765,15.3976588 29.8172471,15.3821294 C30.5178353,15.3433059 31.0970118,15.5346 31.4732471,16.2041294" id="Fill-12" fill="#FEFEFE"></path>
            <polygon id="Fill-15" fill="#FEFEFE" points="8.40621176 20.7472941 7.3428 20.7472941 7.00997647 20.0601176 4.90009412 20.0601176 4.57609412 20.7518824 3.60127059 20.7518824 5.95503529 15.3416471"></polygon>
            <polygon id="Fill-16" fill="#FEFEFE" points="16.6219412 16.3405059 15.1113529 16.3405059 15.1113529 15.4719176 19.1751176 15.4719176 19.1751176 16.3256824 17.6938235 16.3256824 17.6938235 20.7494471 16.6219412 20.7494471"></polygon>
            <polygon id="Fill-17" fill="#FEFEFE" points="10.4460706 15.4734353 11.4833647 15.4734353 11.4833647 19.8728471 13.8826588 19.8728471 13.8826588 20.7502588 10.4460706 20.7502588"></polygon>
            <polygon id="Fill-18" fill="#231916" points="5.23683529 19.1665765 5.94201176 17.4689294 6.64754118 19.1665765"></polygon>
            <polygon id="Fill-19" fill="#231916" points="51.9272824 15.2248235 55.2805765 18.3568235 55.2805765 15.4228235 56.3743412 15.4228235 56.3743412 21.0112941 53.0118706 17.8690588 53.0118706 20.8101176 51.9272824 20.8101176"></polygon>
            <path d="M68.9390824,15.4180235 L67.7454353,15.4180235 C67.7454353,15.4180235 67.7574353,17.8335529 67.7454353,18.7932 C67.7366118,19.4764941 67.2947294,19.8968471 66.7268471,19.8859059 C66.1593176,19.8968471 65.7174353,19.4764941 65.7086118,18.7932 C65.6962588,17.8335529 65.7086118,15.4180235 65.7086118,15.4180235 L64.5149647,15.4180235 C64.5149647,15.4180235 64.5128471,17.8452 64.5156706,18.8334353 C64.5184941,19.9677882 65.0884941,20.6712 66.1988471,20.8730824 C66.3724941,20.9044941 66.5500235,20.9207294 66.7268471,20.9224941 C66.9040235,20.9207294 67.0815529,20.9044941 67.2548471,20.8730824 C68.3655529,20.6712 68.9355529,19.9677882 68.9383765,18.8334353 C68.9412,17.8452 68.9390824,15.4180235 68.9390824,15.4180235" id="Fill-20" fill="#231916"></path>
        </g>
    </g>
</svg>