<?xml version="1.0" encoding="UTF-8"?>
<svg width="100px" height="60px" viewBox="0 0 100 60" version="1.1" xmlns="http://www.w3.org/2000/svg" xmlns:xlink="http://www.w3.org/1999/xlink">
    <!-- Generator: Sketch 55.2 (78181) - https://sketchapp.com -->
    <title>logo/qualcomm_ventures</title>
    <desc>Created with Sketch.</desc>
    <g id="logo/qualcomm_ventures" stroke="none" stroke-width="1" fill="none" fill-rule="evenodd">
        <g transform="translate(15.000000, 19.000000)" fill="#231916">
            <path d="M65.5566492,5.72559986 C65.4307415,6.05864601 65.3156646,6.36089217 65.2026185,6.66381524 C64.7108338,7.98009217 64.2193877,9.29704601 63.7279415,10.6136614 C63.6128646,10.9216614 63.5279108,10.9802152 63.19588,10.9812306 C62.96268,10.982246 62.72948,10.982246 62.4966185,10.9812306 C62.1865877,10.9798768 62.0938492,10.9169229 61.98588,10.6288922 C61.3928954,9.04895371 60.8005877,7.46867678 60.20828,5.88873832 C60.1883108,5.8352614 60.1669877,5.78212294 60.1331415,5.6944614 C59.9584954,6.16763063 59.7967108,6.60458447 59.6356031,7.04153832 C59.1976338,8.23055371 58.7603415,9.41956909 58.3220338,10.608246 C58.2103415,10.9108306 58.10948,10.9802152 57.7899723,10.9812306 C57.5408646,10.982246 57.2917569,10.9825845 57.0429877,10.9812306 C56.7363415,10.9795383 56.6317569,10.9037229 56.5251415,10.6112922 C55.9497569,9.03643063 55.3747108,7.46123063 54.7993262,5.88636909 C54.7793569,5.83221524 54.7560031,5.77907678 54.7241877,5.70055371 C54.5441262,6.17439986 54.3725262,6.62523063 54.20228,7.07639986 C53.7548338,8.26169217 53.3080646,9.44698447 52.8606185,10.6322768 C52.7550185,10.9128614 52.6626185,10.9785229 52.36308,10.9808922 C52.1143108,10.9832614 51.8652031,10.9832614 51.6160954,10.9808922 C51.3216338,10.9785229 51.2275415,10.9091383 51.1232954,10.625846 C50.5394492,9.04252294 49.9556031,7.45919986 49.3717569,5.87587678 C49.3555108,5.83187678 49.3372338,5.78855371 49.3071108,5.71307678 C49.2759723,5.78415371 49.2543108,5.82815371 49.2373877,5.87384601 C48.6548954,7.45209217 48.0727415,9.02999986 47.4912646,10.6085845 C47.3788954,10.9131999 47.2875108,10.9798768 46.9619108,10.9812306 C46.6918185,10.982246 46.4217262,10.9842768 46.1516338,10.9805537 C45.8612338,10.9764922 45.7644338,10.8383999 45.8663108,10.568646 C46.6948646,8.37135371 47.5247723,6.17473832 48.3553569,3.97812294 C48.4464031,3.73713832 48.5591108,3.66199986 48.8105877,3.6616614 C49.1179108,3.66136054 49.4252338,3.6616614 49.7325569,3.6616614 C50.0757569,3.6616614 50.1603723,3.72156909 50.2808646,4.05123063 C50.7926185,5.45110755 51.3040338,6.85132294 51.8157877,8.25119986 C51.8777262,8.42043063 51.9410185,8.58898447 52.0164954,8.79172294 C52.1589877,8.40723063 52.2892954,8.05624601 52.4189262,7.70492294 C52.86468,6.49627678 53.3100954,5.28763063 53.7558492,4.07864601 C53.8936031,3.70498447 53.9562185,3.6616614 54.3478185,3.6616614 C54.6392338,3.6616614 54.9306492,3.66098447 55.2220646,3.6616614 C55.4786185,3.66199986 55.5876031,3.73950755 55.6813569,3.99504601 C56.0661877,5.04427678 56.4503415,6.09452294 56.8344954,7.14443063 C57.0297877,7.6788614 57.2247415,8.21329217 57.4342492,8.78664601 C57.4677569,8.70304601 57.4897569,8.65261524 57.5087108,8.60116909 C58.0671723,7.07673832 58.6252954,5.55230755 59.1837569,4.02787678 C59.2951108,3.72359986 59.3827723,3.6616614 59.6988954,3.6616614 C59.9957262,3.6616614 60.2922185,3.6616614 60.5890492,3.6616614 C60.8973877,3.6616614 60.9874185,3.72359986 61.0964031,4.01603063 C61.6572338,5.52252294 62.2180646,7.02935371 62.7788954,8.53584601 C62.8046185,8.60523063 62.8316954,8.67393832 62.8729877,8.78258447 C62.9061569,8.6996614 62.9278185,8.64990755 62.9460954,8.59913832 C63.4964338,7.08283063 64.0464338,5.5668614 64.5964338,4.05055371 C64.7169262,3.7188614 64.7984954,3.6616614 65.1444031,3.6616614 C65.4463108,3.6616614 65.7485569,3.66136054 66.0504646,3.6616614 C66.3215723,3.6616614 66.4292031,3.73544601 66.5273569,3.99403063 C66.8252031,4.78061524 67.1220338,5.56753832 67.4192031,6.3544614 C67.9441569,7.74384601 68.4694492,9.13289217 68.9933877,10.5226152 C69.0174185,10.5865845 69.0414492,10.6546152 69.0455108,10.7219691 C69.0539723,10.8668306 68.9795108,10.9659999 68.8349877,10.9687076 C68.4542185,10.9758152 68.0727723,10.9785229 67.6923415,10.9643076 C67.5116031,10.9575383 67.4280031,10.8126768 67.3694492,10.6529229 C66.8363723,9.19821524 66.3012646,7.74452294 65.7664954,6.29049217 C65.7011723,6.11279986 65.6348338,5.93578447 65.5566492,5.72559986" id="Fill-49"></path>
            <path d="M8.57884923,10.3252245 C8.81340308,10.9429168 9.04389538,11.5494399 9.27337231,12.1559629 C9.30891077,12.2503937 9.34884923,12.344486 9.37220308,12.4423014 C9.41789538,12.6321783 9.32346462,12.7865168 9.13020308,12.7939629 C8.76060308,12.8081783 8.38964923,12.8031014 8.01937231,12.7936245 C7.84540308,12.7895629 7.75063385,12.6687322 7.69140308,12.5113476 C7.52521846,12.0679629 7.35564923,11.6255937 7.18675692,11.182886 C7.16238769,11.1192552 7.13463385,11.0566399 7.10891077,10.9940245 C6.82528,11.042086 6.55112615,11.1009783 6.27426462,11.1338091 C3.40512615,11.4743014 0.81928,9.64593217 0.237126154,6.81436294 C-0.100996923,5.16977832 0.167064615,3.61860909 1.16044923,2.25088601 C2.26484923,0.730178321 3.78995692,-0.0212062945 5.65454154,0.000455243973 C7.68835692,0.0238090901 9.26457231,0.923439859 10.3358031,2.67328601 C10.8553415,3.52180909 11.0882031,4.46205524 11.1061415,5.45983986 C11.1301723,6.81571678 10.7510954,8.03553217 9.92084923,9.1071014 C9.58272615,9.54371678 9.18097231,9.91331678 8.72641846,10.2243629 C8.67937231,10.2565168 8.63232615,10.2886706 8.57884923,10.3252245 M8.00414154,8.80823986 C8.07488,8.74799371 8.13140308,8.70839371 8.17743385,8.65897832 C8.30469538,8.52325524 8.43872615,8.39227063 8.55008,8.24402447 C9.31703385,7.22491678 9.54041846,6.0711014 9.35426462,4.82556294 C9.09838769,3.11531678 7.86232615,1.71983986 6.06340308,1.53571678 C4.59346462,1.3851014 3.38177231,1.88534755 2.52580308,3.12445524 C1.88204923,4.05623986 1.70672615,5.11054755 1.84752615,6.22307063 C2.07226462,8.00202447 3.32592615,9.43777832 5.18001846,9.63713217 C5.63964923,9.68654755 6.09657231,9.66488601 6.55451077,9.5427014 C6.54266462,9.50716294 6.53555692,9.48245524 6.52641846,9.45808601 C6.23906462,8.70162447 5.95035692,7.94617832 5.66469538,7.18903986 C5.55029538,6.88543986 5.67214154,6.70774755 5.99232615,6.70537832 C6.26241846,6.70300909 6.53251077,6.70436294 6.80260308,6.70503986 C7.12380308,6.70537832 7.23414154,6.78220909 7.34921846,7.08479371 C7.56481846,7.65137832 7.78008,8.21863986 8.00414154,8.80823986" id="Fill-51"></path>
            <path d="M26.0961969,10.0295106 C26.00312,10.1364645 25.9405046,10.2143106 25.8717969,10.2860645 C25.2253354,10.9616337 24.41912,11.2283414 23.5103508,11.1664029 C21.7080431,11.0438799 20.3406585,9.71778755 20.1220123,7.90803371 C19.9788431,6.72071063 20.2198277,5.63763371 20.99592,4.70652601 C21.9520738,3.55981832 23.6061354,3.13572601 24.9444123,3.68809524 C25.3539508,3.85732601 25.69952,4.11421832 25.9814585,4.45809524 C26.0102277,4.49295678 26.0400123,4.52680294 26.0961969,4.59280294 C26.0961969,4.38092601 26.0948431,4.20763371 26.0965354,4.03400294 C26.0989046,3.80181832 26.2312431,3.6647414 26.4593662,3.66237217 C26.7453662,3.65932601 27.0313662,3.65932601 27.3173662,3.66237217 C27.5214585,3.66440294 27.6510892,3.79437217 27.6632738,4.00049524 C27.6653046,4.03772601 27.6642892,4.07529524 27.6642892,4.11252601 C27.6642892,6.25295678 27.6642892,8.39304909 27.6642892,10.5331414 C27.6642892,10.8716029 27.5553046,10.9805876 27.2165046,10.9812645 C26.9782277,10.9819414 26.7396123,10.9846491 26.5013354,10.9805876 C26.2163508,10.9758491 26.0968738,10.8516337 26.0961969,10.5690183 C26.0958585,10.4038491 26.0961969,10.2390183 26.0961969,10.0295106 M26.1178585,7.24024909 C26.0890892,7.07304909 26.0701354,6.82597217 26.0027815,6.59311063 C25.7695815,5.78655678 25.2642585,5.22640294 24.4448431,5.02027986 C23.6365969,4.81686447 22.9028123,5.00132601 22.3243815,5.6227414 C21.7242892,6.26683371 21.5743508,7.05206447 21.7500123,7.89889524 C22.0461662,9.32821832 23.4737969,10.1026183 24.7673969,9.51775678 C25.6937662,9.09907986 26.0637046,8.30132601 26.1178585,7.24024909" id="Fill-53"></path>
            <path d="M42.1148708,11.1737476 C39.9724092,11.1737476 38.3217323,9.4899014 38.3227472,7.30580909 C38.3237631,5.14879371 39.9937323,3.46291678 42.1284092,3.46393171 C44.2712092,3.46494755 45.9208708,5.15657832 45.9195178,7.3515014 C45.9181631,9.49971678 44.2519169,11.1737476 42.1148708,11.1737476 M39.9121631,7.18227063 C39.9125015,7.67303986 39.9781631,8.02097832 40.1186246,8.35436294 C40.7251477,9.79248601 42.5778862,10.157686 43.6633323,9.04143986 C44.2749323,8.41223986 44.4275785,7.63479371 44.2796708,6.79067063 C44.02244,5.31903986 42.4807477,4.51282447 41.1583785,5.16977832 C40.2885323,5.60199371 39.9473631,6.37300909 39.9121631,7.18227063" id="Fill-55"></path>
            <path d="M17.4644462,10.1100306 C16.4598923,11.5180306 14.1691846,11.3999076 13.1500769,10.5307383 C12.5005692,9.97701524 12.1682,9.25981524 12.1238615,8.42381524 C12.0818923,7.6304614 12.1035538,6.83372294 12.1005077,6.03867678 C12.0981385,5.3820614 12.0994923,4.72544601 12.1005077,4.06883063 C12.1008462,3.7848614 12.2247231,3.66233832 12.5093692,3.6616614 C12.7635538,3.66100034 13.0177385,3.66100034 13.2722615,3.6616614 C13.5555538,3.66233832 13.6733385,3.78316909 13.6733385,4.07424601 C13.6736769,5.32858447 13.6692769,6.58292294 13.6757077,7.83759986 C13.6784154,8.37947678 13.8022923,8.88716909 14.1935538,9.28993832 C14.6074923,9.7160614 15.1344769,9.82775371 15.697,9.78984601 C16.7932769,9.71572294 17.4861077,8.95452294 17.4874615,7.84098447 C17.4888154,6.59713832 17.4878,5.35329217 17.4878,4.10978447 C17.4878,3.77470755 17.6018615,3.6616614 17.9376154,3.6616614 C18.1867231,3.6616614 18.4358308,3.65996909 18.6846,3.66199986 C18.9232154,3.66403063 19.0602923,3.79907678 19.0606308,4.03904601 C19.0616462,6.22753832 19.0616462,8.41636909 19.0606308,10.6048614 C19.0606308,10.8319691 18.9408154,10.9683691 18.7137077,10.9764922 C18.4175538,10.9869845 18.1203846,10.9873229 17.8242308,10.9761537 C17.6049077,10.9680306 17.4918615,10.8336614 17.4881385,10.6116306 C17.4854308,10.4515383 17.4850923,10.291446 17.4834,10.1313537 C17.4834,10.1276306 17.4773077,10.124246 17.4644462,10.1100306" id="Fill-57"></path>
            <path d="M35.2264338,11.1737476 C34.1003723,11.1456552 32.9614492,10.5760245 32.2547415,9.26617832 C31.5053877,7.87645524 31.6824031,5.93943986 32.6659723,4.74331678 C33.3428954,3.9195014 34.23508,3.51707063 35.2829569,3.45580909 C36.1676954,3.40368601 36.9972646,3.58713217 37.7425569,4.0911014 C37.7909569,4.12393217 37.8383415,4.15811678 37.8830185,4.19568601 C38.0383723,4.32700909 38.0708646,4.4783014 37.9598492,4.64787063 C37.8143108,4.87023986 37.6596338,5.08719371 37.4992031,5.29907063 C37.37668,5.46119371 37.2304646,5.4771014 37.0328031,5.37420909 C36.83108,5.26928601 36.6354492,5.14777832 36.4242492,5.06722447 C35.0338492,4.53651678 33.6684954,5.34882447 33.4447723,6.83094755 C33.3598185,7.39245524 33.4072031,7.93805524 33.6404031,8.45894755 C34.13828,9.57282447 35.3831415,10.0263629 36.5152954,9.5075014 C36.6689569,9.43676294 36.8155108,9.35045524 36.9651108,9.27091678 C37.2033877,9.14365524 37.3377569,9.16903986 37.5039415,9.37854755 C37.64948,9.56199371 37.7943415,9.74577832 37.9351415,9.93260909 C38.08068,10.1262091 38.0552954,10.2930706 37.8644031,10.443686 C37.2744646,10.9090706 36.4330492,11.1737476 35.2264338,11.1737476" id="Fill-59"></path>
            <path d="M30.7792185,5.57985832 C30.7792185,7.23459678 30.7792185,8.88933524 30.7792185,10.5440737 C30.7792185,10.866966 30.6698954,10.9796737 30.3530954,10.981366 C30.1094031,10.9828133 29.8657108,10.9840737 29.6220185,10.9806891 C29.3448185,10.976966 29.2114646,10.8422583 29.2114646,10.5667506 C29.2111262,7.24644294 29.2111262,3.92647371 29.2114646,0.606504475 C29.2114646,0.32828909 29.3421108,0.190873706 29.6159262,0.186812167 C29.8751877,0.182750629 30.1347877,0.183427552 30.3943877,0.186473706 C30.6594031,0.189519859 30.77888,0.313396782 30.77888,0.58348909 C30.7795569,2.24905832 30.7792185,3.91428909 30.7792185,5.57985832" id="Fill-61"></path>
            <path d="M5.96609538,19.5771045 C6.02058769,20.4279968 6.73744923,21.0365506 7.58597231,20.9746122 C8.03206462,20.9421199 8.39523385,20.7498737 8.69544923,20.4225814 C8.84504923,20.2597814 8.87280308,20.2580891 9.05692615,20.3789199 C9.15440308,20.4428891 9.25188,20.5068583 9.34901846,20.5715045 C9.54701846,20.7035045 9.55988,20.7806737 9.40588,20.9685199 C9.10329538,21.3374429 8.72218769,21.5895968 8.26221846,21.7070429 C7.35548,21.9392276 6.49308,21.8586737 5.77181846,21.2095045 C4.98083385,20.4973814 4.79637231,19.5757506 5.07086462,18.577966 C5.33757231,17.6089506 5.99960308,17.0152891 6.98689538,16.8375968 C8.56006462,16.5543045 9.88717231,17.7588891 9.79172615,19.3625199 C9.78326462,19.5002737 9.71861846,19.5676276 9.58628,19.5750737 C9.53889538,19.5774429 9.49117231,19.5771045 9.44344923,19.5771045 C8.34717231,19.5771045 7.25089538,19.5771045 6.15428,19.5771045 L5.96609538,19.5771045 Z M8.82609538,18.9042429 C8.73403385,18.1149506 8.12311077,17.5767968 7.37680308,17.6136891 C6.63963385,17.6502429 6.01449538,18.2310429 5.99418769,18.9042429 L8.82609538,18.9042429 Z" id="Fill-63"></path>
            <path d="M29.3459692,19.5771045 C29.3632308,20.3308583 30.0137538,20.9526122 30.7796923,20.975966 C31.2992308,20.9922122 31.7290769,20.8036891 32.0770154,20.417166 C32.2144308,20.2641814 32.2550462,20.2597814 32.4266462,20.3728276 C32.5329231,20.4425506 32.6392,20.5126122 32.7448,20.5836891 C32.9130154,20.6967352 32.9282462,20.7894737 32.7982769,20.9502429 C32.4618462,21.3665506 32.0296308,21.6302122 31.5100923,21.7419045 C30.7143692,21.9124891 29.9555385,21.8329506 29.2887692,21.3289814 C28.6003385,20.808766 28.3282154,20.0834429 28.3417538,19.2322122 C28.3603692,18.0550429 29.1601538,17.0667352 30.3075385,16.8494429 C31.8526154,16.5570122 33.2589231,17.6383968 33.1638154,19.3828276 C33.1573846,19.5002737 33.1001846,19.559166 32.9905231,19.5713506 C32.9329846,19.5777814 32.8744308,19.576766 32.8162154,19.576766 C31.7253538,19.5771045 30.6348308,19.5771045 29.5443077,19.5771045 L29.3459692,19.5771045 Z M29.3683077,18.9018737 L32.1985231,18.9018737 C32.1731385,18.190766 31.5645846,17.6295968 30.8091385,17.6130122 C30.0828,17.5971045 29.4248308,18.1812891 29.3683077,18.9018737 L29.3683077,18.9018737 Z" id="Fill-65"></path>
            <path d="M11.5439754,17.5952091 C12.2229292,16.6817014 13.4708369,16.680686 14.1535138,17.0184706 C14.8070831,17.3420399 15.1546831,17.895086 15.1922523,18.6082245 C15.23456,19.4120706 15.2105292,20.2193014 15.2152677,21.0248399 C15.2159446,21.1744399 15.2142523,21.3240399 15.2152677,21.4733014 C15.2166215,21.6208706 15.1374215,21.6882245 14.9989908,21.6905937 C14.8243446,21.6933014 14.64936,21.6946552 14.4747138,21.6902552 C14.3078523,21.6858552 14.2516677,21.6242552 14.2513292,21.450286 C14.2506523,20.6816399 14.2509908,19.9129937 14.2509908,19.1443476 C14.2513292,18.7960706 14.1924369,18.4630245 13.9802215,18.1770245 C13.6613908,17.7468399 13.0250831,17.5867476 12.43616,17.7823783 C11.8925908,17.9627783 11.5463446,18.4586245 11.5446523,19.0675168 C11.5422831,19.8361629 11.5439754,20.6048091 11.5439754,21.3734552 C11.5439754,21.6540399 11.5060677,21.6912706 11.2207446,21.6912706 C11.0880677,21.6912706 10.9557292,21.6926245 10.8233908,21.6909322 C10.6368985,21.6889014 10.5766523,21.6310245 10.5752985,21.4408091 C10.5725908,21.0299168 10.5742831,20.618686 10.5742831,20.2077937 C10.5742831,19.2255783 10.5742831,18.2433629 10.5746215,17.261486 C10.5746215,16.9771783 10.6125292,16.9399476 10.8985292,16.9396091 C11.0308677,16.9392706 11.1632062,16.9365629 11.2955446,16.9406245 C11.4833908,16.9463783 11.5412677,17.0069629 11.5436369,17.1941322 C11.5453292,17.3166552 11.5439754,17.4391783 11.5439754,17.5952091" id="Fill-67"></path>
            <path d="M23.4793477,21.0339106 C22.7577477,21.8800645 21.5968246,22.0699414 20.7462708,21.5087722 C20.1671631,21.1266491 19.9329477,20.5546491 19.9224554,19.8844952 C19.9089169,18.9882491 19.9187323,18.091326 19.9194092,17.1947414 C19.9197477,17.0018183 19.9722092,16.9459722 20.1627631,16.9405568 C20.3215015,16.9361568 20.4805785,16.9361568 20.6393169,16.9408952 C20.8261477,16.9463106 20.8826708,17.0062183 20.8830092,17.1967722 C20.8840246,18.0080645 20.8745477,18.8193568 20.8891015,19.6303106 C20.8931631,19.8547106 20.9347938,20.0906183 21.0156862,20.2987722 C21.2113169,20.8027414 21.7410092,21.0603106 22.3383938,20.9780645 C23.0535631,20.8795722 23.4756246,20.3864337 23.4783323,19.6384337 C23.4813785,18.8430491 23.4786708,18.0476645 23.4793477,17.2522799 C23.4793477,16.9791414 23.5192862,16.9402183 23.7958092,16.9395414 C23.9389785,16.9392029 24.0821477,16.9368337 24.22464,16.9419106 C24.3695015,16.9469876 24.4449785,17.0194183 24.4446411,17.1744337 C24.4429477,18.5996952 24.4439631,20.0246183 24.4429477,21.4498799 C24.4429477,21.6191106 24.3810092,21.6864645 24.2178708,21.6901876 C24.0432246,21.6945876 23.8685785,21.6928952 23.6935938,21.6908645 C23.5524554,21.6891722 23.4786708,21.6167414 23.4793477,21.4718799 C23.4796862,21.3398799 23.4793477,21.2082183 23.4793477,21.0339106" id="Fill-69"></path>
            <path d="M35.5268185,21.8194799 C35.0238646,21.8110183 34.4369723,21.6651414 33.9228492,21.2830183 C33.86328,21.2390183 33.8050646,21.1912952 33.7542954,21.1374799 C33.5850646,20.9591106 33.5911569,20.8051106 33.7803569,20.6497568 C34.0812492,20.4026799 34.07888,20.260526 34.5192185,20.6233568 C34.9822338,21.0048029 35.5227569,21.1439106 36.1126954,20.9888952 C36.2457108,20.9536952 36.3814338,20.8805876 36.4853415,20.7895414 C36.7926646,20.520126 36.7310646,20.0760645 36.3499569,19.9366183 C35.9942338,19.8066491 35.6148185,19.7447106 35.2479262,19.6435106 C34.9988185,19.5751414 34.7422646,19.5165876 34.5090646,19.4096337 C33.5745723,18.980126 33.6236492,17.7829876 34.2477723,17.259726 C34.5963877,16.9672952 35.0042338,16.8383414 35.4469415,16.8116029 C36.1323262,16.7706491 36.7743877,16.9036645 37.3355569,17.3277568 C37.5518338,17.4912337 37.5596185,17.5914183 37.3829415,17.800926 C37.0749415,18.1657876 37.0756185,18.1647722 36.6765723,17.9085568 C36.2440185,17.6303414 35.7762646,17.5098491 35.2692492,17.6323722 C35.1352185,17.664526 34.9981415,17.7322183 34.8901723,17.8192029 C34.6434338,18.0178799 34.6525723,18.3783414 34.9260492,18.5353876 C35.1321723,18.6535106 35.3748492,18.7130799 35.6070338,18.7787414 C36.0135262,18.8938183 36.4349108,18.9635414 36.8312492,19.1060337 C37.9055262,19.4918799 37.8814954,20.7922491 37.1436492,21.364926 C36.7662646,21.6576952 36.2616185,21.8194799 35.5268185,21.8194799" id="Fill-71"></path>
            <path d="M2.37725231,20.7005599 C2.51534462,20.3153906 2.64328308,19.9610214 2.76952923,19.6063137 C3.05722154,18.7990829 3.34762154,17.9928676 3.62922154,17.183606 C3.68845231,17.0126829 3.78152923,16.9287445 3.96463692,16.9378829 C4.13894462,16.9463445 4.31426769,16.9355137 4.48857538,16.9409291 C4.69266769,16.9473599 4.75663692,17.0434829 4.68454462,17.2326829 C4.14706769,18.6393291 3.60722154,20.0452983 3.07076,21.4526214 C3.00746769,21.6184676 2.90220615,21.698006 2.72248308,21.6932676 C2.46863692,21.6861599 2.21411385,21.6888676 1.95992923,21.6922522 C1.80762154,21.6942829 1.71116,21.6242214 1.65700615,21.4834214 C1.11276,20.0622214 0.56716,18.6413599 0.0242676923,17.2194829 C-0.0407169231,17.0492368 0.02596,16.9497291 0.208729231,16.9419445 C0.393867692,16.9344983 0.579344615,16.9453291 0.764483077,16.9378829 C0.938790769,16.9314522 1.03186769,17.0082829 1.09109846,17.1734522 C1.45629846,18.1905291 1.82894462,19.2045599 2.19922154,20.2192676 C2.25405231,20.3688676 2.30956,20.5181291 2.37725231,20.7005599" id="Fill-73"></path>
            <path d="M16.6242831,17.7618676 C16.3988677,17.7618676 16.19376,17.7632214 15.9883138,17.7615291 C15.8156985,17.7601752 15.7605292,17.7063599 15.7561292,17.533406 C15.7530831,17.4108829 15.7568062,17.2880214 15.7551138,17.1651599 C15.7530831,17.0111599 15.8305908,16.9400829 15.9795138,16.9400829 C16.1852985,16.9397445 16.3910831,16.9400829 16.6154831,16.9400829 C16.6188677,16.8706983 16.6239446,16.8148522 16.6239446,16.7586676 C16.6246215,16.358606 16.6232677,15.9585445 16.6246215,15.5581445 C16.6252985,15.3750368 16.6787754,15.3205445 16.8601908,15.3174983 C17.0189292,15.3144522 17.1780062,15.3151291 17.3367446,15.3171599 C17.52696,15.3195291 17.5824677,15.3753752 17.5828062,15.5652522 C17.5838215,15.9602368 17.5831446,16.3552214 17.5831446,16.7498676 L17.5831446,16.939406 C17.8258215,16.939406 18.0519138,16.939406 18.2783446,16.939406 C18.5112062,16.939406 18.7444062,16.9360214 18.9772677,16.9414368 C19.1502215,16.9451599 19.2020062,17.0037137 19.2040369,17.1766676 C19.2053908,17.2941137 19.2053908,17.4115599 19.2040369,17.529006 C19.2020062,17.7012829 19.14616,17.7605137 18.9769292,17.7611906 C18.5744985,17.7632214 18.1720677,17.7618676 17.7696369,17.7618676 L17.5916062,17.7618676 C17.5882215,17.8254983 17.5834831,17.8718676 17.5834831,17.9185752 C17.5831446,18.6496522 17.5814523,19.3807291 17.5838215,20.111806 C17.5855138,20.7359291 18.0481908,21.0395291 18.6188369,20.793806 C18.6574215,20.7772214 18.6946523,20.7565752 18.7322215,20.7369445 C18.9464677,20.6249137 19.0165292,20.644206 19.1471754,20.851006 C19.1698523,20.8872214 19.1928677,20.9230983 19.2155446,20.9589752 C19.3979754,21.2493752 19.3864677,21.3336522 19.09336,21.5049137 C18.5680677,21.8115599 18.0089292,21.8589445 17.4430215,21.6494368 C16.9146831,21.453806 16.6269908,20.9890983 16.62496,20.3822368 C16.6222523,19.5766983 16.6242831,18.7708214 16.6242831,17.9649445 L16.6242831,17.7618676 Z" id="Fill-76"></path>
            <path d="M26.5147046,17.6202891 C26.7573815,17.2662583 27.0586123,17.0198583 27.4742431,16.9430276 C27.6184277,16.9162891 27.7690431,16.9217045 27.9169508,16.9206784 C28.0262738,16.9196737 28.0824585,16.9907506 28.0848277,17.0943199 C28.0902431,17.3024737 28.0902431,17.5106276 28.0861815,17.7184429 C28.0834738,17.8463814 28.0100277,17.9123814 27.8834431,17.9161045 C27.7514431,17.9205045 27.6170738,17.9096737 27.4874431,17.9293045 C26.9570738,18.0091814 26.6467046,18.3581352 26.5796892,18.9450276 C26.5624277,19.0983506 26.5536277,19.253366 26.5529508,19.4077045 C26.5502431,20.0853045 26.5522738,20.7632429 26.5515969,21.4408429 C26.5512585,21.6330891 26.4971046,21.6885968 26.3085815,21.690966 C26.1444277,21.6929968 25.9802738,21.6940122 25.81612,21.6906276 C25.6553508,21.6872429 25.5937508,21.6263199 25.5937508,21.4672429 C25.5923969,20.0369045 25.5937508,18.606566 25.59172,17.176566 C25.59172,17.0249352 25.6546738,16.9437045 25.8056277,16.9413352 C25.9697815,16.9386276 26.1342738,16.9355814 26.2980892,16.9420122 C26.45412,16.947766 26.5123354,17.0151199 26.5143662,17.1755506 C26.5160585,17.3237968 26.5147046,17.4720429 26.5147046,17.6202891" id="Fill-78"></path>
        </g>
    </g>
</svg>