<?xml version="1.0" encoding="UTF-8"?>
<svg width="360px" height="229px" viewBox="0 0 360 229" version="1.1" xmlns="http://www.w3.org/2000/svg" xmlns:xlink="http://www.w3.org/1999/xlink">
    <!-- Generator: Sketch 48.2 (47327) - http://www.bohemiancoding.com/sketch -->
    <title>Group</title>
    <desc>Created with Sketch.</desc>
    <defs>
        <linearGradient x1="0%" y1="0%" x2="101.999998%" y2="100.999999%" id="linearGradient-1">
            <stop stop-color="#2D7BF6" offset="0%"></stop>
            <stop stop-color="#4F68F6" offset="49.6412628%"></stop>
            <stop stop-color="#7354F6" offset="100%"></stop>
        </linearGradient>
    </defs>
    <g id="Company_About-us" stroke="none" stroke-width="1" fill="none" fill-rule="evenodd" transform="translate(-735.000000, -656.000000)">
        <g id="연혁" transform="translate(0.000000, 521.000000)" fill="url(#linearGradient-1)">
            <g id="Group" transform="translate(735.000000, 135.000000)">
                <path d="M40.653162,196.795064 C40.653162,198.201748 40.5828278,199.045758 40.301491,200.382108 L10.1281234,200.382108 C11.2534704,205.094499 15.3328535,208.048535 20.8892545,208.048535 C24.757635,208.048535 27.0786632,206.993522 29.4700257,204.180154 L39.6684833,204.180154 C37.0661183,212.198252 28.9776864,216.629306 21.1002571,216.629306 C9.21377892,216.629306 0,207.767198 0,196.373059 C0,184.908586 9.07311054,175.835476 20.5375835,175.835476 C32.1427249,175.835476 40.653162,184.697584 40.653162,196.795064 Z M31.439383,192.153008 C30.2437018,187.15928 26.4456555,184.416247 20.6782519,184.416247 C15.1218509,184.416247 11.3238046,187.15928 9.84678663,192.153008 L31.439383,192.153008 Z M86.159383,215.714961 L77.5786118,215.714961 L77.5786118,210.6509 C73.8508997,214.870951 70.1231877,216.629306 64.6371208,216.629306 C53.242982,216.629306 45.0138817,208.118869 45.0138817,196.373059 C45.0138817,184.486581 53.3133162,175.835476 64.8481234,175.835476 C70.4748586,175.835476 74.3432391,177.664165 77.5786118,181.95455 L77.5786118,176.74982 L86.159383,176.74982 L86.159383,215.714961 Z M77.2972751,196.513728 C77.2972751,189.409974 72.5145501,184.416247 65.8328021,184.416247 C59.151054,184.416247 54.4386632,189.480308 54.4386632,196.584062 C54.4386632,203.406478 59.151054,208.048535 65.9734704,208.048535 C73.0772237,208.048535 77.2972751,202.984473 77.2972751,196.513728 Z M118.864781,203.336144 C118.864781,197.56874 116.192082,194.474036 108.033316,191.942005 C101.632905,189.902314 101.421902,189.761645 101.421902,187.721954 C101.421902,185.822931 102.969254,184.416247 105.008946,184.416247 C106.978303,184.416247 108.244319,185.47126 108.666324,187.510951 L117.809769,187.510951 C117.458098,180.196195 111.62036,175.835476 105.008946,175.835476 C97.7645244,175.835476 92.067455,181.040206 92.067455,187.721954 C92.067455,193.419023 95.1621594,196.654396 102.89892,199.256761 C109.158663,201.366787 109.510334,201.999794 109.510334,204.250488 C109.510334,206.430848 107.681645,208.048535 105.290283,208.048535 C102.547249,208.048535 100.999897,206.641851 100.085553,203.336144 L90.6607712,203.336144 C91.6454499,212.409254 97.2018509,216.629306 104.938612,216.629306 C112.745707,216.629306 118.864781,210.791568 118.864781,203.336144 Z M160.221285,176.74982 L149.460154,176.74982 L140.035373,201.999794 L131.384267,176.74982 L120.69347,176.74982 L134.971311,212.057584 L127.656555,228.726787 L137.714344,228.726787 L160.221285,176.74982 Z" id="easy"></path>
                <path d="M60.3948586,135.115681 L60.3948586,112.60874 C60.3948586,100.933265 54.9087918,95.2361954 44.64,95.2361954 C39.1539332,95.2361954 35.2855527,97.0648843 32.1205141,101.284936 C29.4478149,97.0648843 26.0014396,95.2361954 20.6560411,95.2361954 C16.0843188,95.2361954 13.2709512,96.5022108 10.5279177,99.8079177 L10.5279177,96.1505398 L1.94714653,96.1505398 L1.94714653,135.115681 L11.3015938,135.115681 L11.3015938,115.914447 C11.3015938,106.700668 13.4819537,103.816967 18.8976864,103.816967 C23.8210797,103.816967 26.4937789,106.067661 26.4937789,113.734087 L26.4937789,135.115681 L35.8482262,135.115681 L35.8482262,115.914447 C35.8482262,106.630334 38.5209254,103.816967 43.7256555,103.816967 C48.0863753,103.816967 51.0404113,105.926992 51.0404113,113.734087 L51.0404113,135.115681 L60.3948586,135.115681 Z M107.518766,135.115681 L98.9379949,135.115681 L98.9379949,130.05162 C95.2102828,134.271671 91.4825707,136.030026 85.9965039,136.030026 C74.602365,136.030026 66.3732648,127.519589 66.3732648,115.773779 C66.3732648,103.887301 74.6726992,95.2361954 86.2075064,95.2361954 C91.8342416,95.2361954 95.7026221,97.0648843 98.9379949,101.35527 L98.9379949,96.1505398 L107.518766,96.1505398 L107.518766,135.115681 Z M98.6566581,115.914447 C98.6566581,108.810694 93.8739332,103.816967 87.1921851,103.816967 C80.510437,103.816967 75.7980463,108.881028 75.7980463,115.984781 C75.7980463,122.807198 80.510437,127.449254 87.3328535,127.449254 C94.4366067,127.449254 98.6566581,122.385193 98.6566581,115.914447 Z M149.71928,135.115681 L137.12946,135.115681 L123.836298,116.899126 L123.836298,135.115681 L114.481851,135.115681 L114.481851,83.1387147 L123.836298,83.1387147 L123.836298,114.507763 L136.28545,96.1505398 L147.468586,96.1505398 L133.542416,115.211105 L149.71928,135.115681 Z M189.428483,116.195784 C189.428483,117.602468 189.358149,118.446478 189.076812,119.782828 L158.903445,119.782828 C160.028792,124.495219 164.108175,127.449254 169.664576,127.449254 C173.532956,127.449254 175.853985,126.394242 178.245347,123.580874 L188.443805,123.580874 C185.84144,131.598972 177.753008,136.030026 169.875578,136.030026 C157.9891,136.030026 148.775321,127.167918 148.775321,115.773779 C148.775321,104.309306 157.848432,95.2361954 169.312905,95.2361954 C180.918046,95.2361954 189.428483,104.098303 189.428483,116.195784 Z M180.214704,111.553728 C179.019023,106.56 175.220977,103.816967 169.453573,103.816967 C163.897172,103.816967 160.099126,106.56 158.622108,111.553728 L180.214704,111.553728 Z M219.923907,122.736864 C219.923907,130.192288 213.804833,136.030026 205.997738,136.030026 C198.260977,136.030026 192.704576,131.809974 191.719897,122.736864 L201.144679,122.736864 C202.059023,126.042571 203.606375,127.449254 206.349409,127.449254 C208.740771,127.449254 210.56946,125.831568 210.56946,123.651208 C210.56946,121.400514 210.217789,120.767506 203.958046,118.657481 C196.221285,116.055116 193.126581,112.819743 193.126581,107.122674 C193.126581,100.440925 198.82365,95.2361954 206.068072,95.2361954 C212.679486,95.2361954 218.517224,99.5969152 218.868895,106.911671 L209.72545,106.911671 C209.303445,104.871979 208.037429,103.816967 206.068072,103.816967 C204.02838,103.816967 202.481028,105.22365 202.481028,107.122674 C202.481028,109.162365 202.692031,109.303033 209.092442,111.342725 C217.251208,113.874756 219.923907,116.96946 219.923907,122.736864 Z M235.064267,127.712082 L360,127.712082 L360,135.115681 L235.064267,135.115681 L235.064267,127.712082 Z" id="makes"></path>
                <path d="M57.2298201,54.6015424 L57.2298201,2.62457584 L44.0069923,2.62457584 L30.1511568,42.0117224 L16.154653,2.62457584 L2.93182519,2.62457584 L2.93182519,54.6015424 L12.5676093,54.6015424 L12.5676093,15.636401 L26.142108,54.6015424 L34.0195373,54.6015424 L47.594036,15.636401 L47.594036,54.6015424 L57.2298201,54.6015424 Z M104.986735,35.4003085 C104.986735,46.3724422 95.5619537,55.5158869 84.2381491,55.5158869 C72.8440103,55.5158869 63.5598972,46.3724422 63.5598972,35.1189717 C63.5598972,23.9358355 72.8440103,14.7220566 84.1678149,14.7220566 C95.9136247,14.7220566 104.986735,23.7951671 104.986735,35.4003085 Z M95.5619537,35.1189717 C95.5619537,28.6482262 90.497892,23.3028278 84.2381491,23.3028278 C78.1190746,23.3028278 72.9846787,28.577892 72.9846787,34.9783033 C72.9846787,41.6600514 77.9784062,46.9351157 84.3084833,46.9351157 C90.497892,46.9351157 95.5619537,41.6600514 95.5619537,35.1189717 Z M144.866221,54.6015424 L144.866221,33.7122879 C144.866221,26.7492031 144.162879,23.373162 142.052853,20.3487918 C139.520823,16.6914139 135.300771,14.7220566 129.885039,14.7220566 C125.453985,14.7220566 122.35928,16.0584062 118.912905,19.3641131 L118.912905,15.636401 L110.261799,15.636401 L110.261799,54.6015424 L119.616247,54.6015424 L119.616247,36.2443188 C119.616247,31.0395887 119.967918,28.7888946 121.163599,26.8898715 C122.640617,24.5688432 125.102314,23.3028278 128.05635,23.3028278 C132.698406,23.3028278 135.511774,25.1315167 135.511774,35.5409769 L135.511774,54.6015424 L144.866221,54.6015424 Z M161.816761,54.6015424 L161.816761,15.636401 L152.462314,15.636401 L152.462314,54.6015424 L161.816761,54.6015424 Z M161.887095,10.0096658 L161.887095,0.655218509 L152.532648,0.655218509 L152.532648,10.0096658 L161.887095,10.0096658 Z M185.730386,24.146838 L185.730386,15.636401 L180.10365,15.636401 L180.10365,2.62457584 L170.749203,2.62457584 L170.749203,15.636401 L166.177481,15.636401 L166.177481,24.146838 L170.749203,24.146838 L170.749203,54.6015424 L180.10365,54.6015424 L180.10365,24.146838 L185.730386,24.146838 Z M230.181594,35.4003085 C230.181594,46.3724422 220.756812,55.5158869 209.433008,55.5158869 C198.038869,55.5158869 188.754756,46.3724422 188.754756,35.1189717 C188.754756,23.9358355 198.038869,14.7220566 209.362674,14.7220566 C221.108483,14.7220566 230.181594,23.7951671 230.181594,35.4003085 Z M220.756812,35.1189717 C220.756812,28.6482262 215.692751,23.3028278 209.433008,23.3028278 C203.313933,23.3028278 198.179537,28.577892 198.179537,34.9783033 C198.179537,41.6600514 203.173265,46.9351157 209.503342,46.9351157 C215.692751,46.9351157 220.756812,41.6600514 220.756812,35.1189717 Z M253.180874,23.7248329 L253.180874,14.7220566 L252.477532,14.7220566 C248.468483,14.7220566 246.499126,15.8474036 244.037429,19.4344473 L244.037429,15.636401 L235.456658,15.636401 L235.456658,54.6015424 L244.811105,54.6015424 L244.811105,32.9386118 C244.811105,26.8898715 247.554139,23.8655013 253.180874,23.7248329 Z M267.318046,54.6015424 L267.318046,15.636401 L257.963599,15.636401 L257.963599,54.6015424 L267.318046,54.6015424 Z M267.38838,10.0096658 L267.38838,0.655218509 L258.033933,0.655218509 L258.033933,10.0096658 L267.38838,10.0096658 Z M309.448226,54.6015424 L309.448226,33.7122879 C309.448226,26.7492031 308.744884,23.373162 306.634859,20.3487918 C304.102828,16.6914139 299.882776,14.7220566 294.467044,14.7220566 C290.03599,14.7220566 286.941285,16.0584062 283.49491,19.3641131 L283.49491,15.636401 L274.843805,15.636401 L274.843805,54.6015424 L284.198252,54.6015424 L284.198252,36.2443188 C284.198252,31.0395887 284.549923,28.7888946 285.745604,26.8898715 C287.222622,24.5688432 289.684319,23.3028278 292.638355,23.3028278 C297.280411,23.3028278 300.093779,25.1315167 300.093779,35.5409769 L300.093779,54.6015424 L309.448226,54.6015424 Z M356.220463,47.2164524 C356.220463,63.9559897 348.132031,70.1453985 336.03455,70.1453985 C326.4691,70.1453985 319.154344,65.5736761 315.989306,57.766581 L326.609769,57.766581 C329.352802,60.7909512 332.025501,61.9162982 336.386221,61.9162982 C343.349306,61.9162982 346.93635,57.8369152 347.288021,49.4671465 C343.630643,53.7575321 339.973265,55.5158869 334.487198,55.5158869 C323.374396,55.5158869 315.356298,46.8647815 315.356298,34.837635 C315.356298,23.3028278 323.515064,14.7220566 334.557532,14.7220566 C340.184267,14.7220566 344.404319,16.6210797 347.288021,20.5597943 L347.288021,15.636401 L356.220463,15.636401 L356.220463,47.2164524 Z M346.866015,35.2596401 C346.866015,28.1558869 342.294293,23.3028278 335.612545,23.3028278 C329.071465,23.3028278 324.78108,28.0855527 324.78108,35.2596401 C324.78108,42.3633933 329.071465,46.9351157 335.753213,46.9351157 C342.434961,46.9351157 346.866015,42.2930591 346.866015,35.2596401 Z" id="Monitoring"></path>
            </g>
        </g>
    </g>
</svg>